<?xml version="1.0" encoding="utf-8"?> <!-- Generator: Adobe Illustrator 23.0.1, SVG Export Plug-In . SVG Version: 6.00 Build 0)  --> <svg version="1.2" baseProfile="tiny" id="Layer_1" xmlns="http://www.w3.org/2000/svg" xmlns:xlink="http://www.w3.org/1999/xlink" x="0px" y="0px" viewBox="0 0 900 600" xml:space="preserve"> <g> <path d="M154.66,289.84c8.08-1.96,12.71,1.44,15.63-2.2c-0.1-0.63-1.36-1.26-0.1-1.89c1.15-0.31,1.15,1.36,2.73,1.26
		c3.15-0.94,6.82-1.36,10.07-3.04c5.35,0.84,9.54,0.84,12.9-0.1c2.31-2.41,2.85-5.14,3.25-8.39c0.92-7.43-4.61-6.98-5.87-11.01
		c1.47-2.31,1.16-5.65,3.25-7.66c3.37-3.23,4.08-7.03,4.2-11.33c0.1-3.67,0.41-4.11,3.88-5.24c5.87-1.92,13.64-6.33,10.91-12.38
		c27.29-7.01,24.47-3.57,32.72-3.57c20.82,0,19.23,0.19,25.59-1.05c15.13-2.95,17.69-0.21,25.59-0.42
		c24.26-0.65,17.05-1.25,22.86-1.15c27.68,0.44,39.01-3.36,51.18-1.99c10.82,1.22,34.71-6.14,35.55-5.87
		c2.95,0.92,5.56-0.13,8.39-0.42c9.77-1.01,20.94-8.11,29.68-11.96c3.44-1.51,6.61-3.57,8.5-7.24c11.54-0.42,22.97-2.88,34.5-2.83
		c6.88,0.03,31.29-8.88,32.93-9.44c0.1,4.3-0.89,8.29-0.52,12.27c0.37,3.99-1.99,7.76-1.57,11.85c2.28-0.42,3.94-14.27,4.09-16.57
		c0.39-5.88,2.5-11.61,1.15-17.72c-0.22-0.99,0.12-1.42,3.67-21.08c2.84-15.73,10.07-21.4,8.08-31.25
		c-0.89-4.4,2.25-17.87-3.36-16.47c0.63,6.92,0.84,13.95-0.52,21.29c-3.04-3.15-6.11-5.87-6.92-9.96
		c-4.26-21.35,6.28-28.81,11.85-37.13c0.76-1.14,1.68-1.89,2.73-2.62c18.15-11.29,19.27-14.87,36.6-14.37
		c6.82,0.2,12.51,3.73,18.14,7.24c4,2.49,5.82,6.08,5.87,10.7c0.12,10.62,1.56,21.48-5.24,30.83c1.68-13.95,1.68-13.95-1.26-15.73
		c-1.14,3.43,0.33,14.94-5.14,26.53c-1.58,3.35-2.94,6.71-5.35,9.44c-5.36,6.07-8.88,13.34-13.74,19.72
		c-6.8,8.92-10.11,38.22-14.26,48.56c-4.5,11.21-9.31,20.8-7.76,28.32c3.06,14.81,1.21,14.24-0.1,24.23
		c-1,7.56-1.04,15.27-4.3,22.44c-0.76,1.67-0.84,3.78-1.15,5.66c-4.01,24.32,1.44,50.78,1.36,51.08c-0.72,2.83,0.63,5.03,1.68,7.13
		c12.55,7.37,16.35,4.29,18.67,6.29c5.44,4.7,9.12,1.64,19.09,8.29c-4.51,0.42-8.29-1.26-12.38-2.1c1.06,4.45,12.5,3.75,14.58,5.56
		c2.3,2,4.93,3.57,8.29,4.09c-0.94,1.36-2.21,1.37-2.94,0.94c-2.11-1.24-4.6-1.28-6.4-2.73c-2.39-1.92-5.03-2.56-7.87-3.15
		c-10.21-2.12-10.5-3.59-11.01-1.89c1.9,3.79,10.03,1.53,20.14,8.39c-1.78,0.94-3.36,0.63-4.72,0c-8.79-4.1-19.73-4.89-23.49-6.5
		c-1.75-0.58-2.7,1.07,0.31,2.2c2.1,0.94,4.2,1.44,6.4,1.68c4.41,0.47,8.5,2.41,12.8,3.36c-5.23,1.83-17.26-0.96-22.65-2.31
		c-6.71-1.68-13.83-0.66-20.35-3.15c-0.84-0.32-1.68,1.05-2.62,0.31c-7.92-9.16-6.15-18.22-10.38-42.37
		c-4.65-26.51-2.66-22.81-4.09-26.74c-0.92-2.53-0.86-5.14-0.63-7.66c0.58-6.3,0.43-12.48,1.36-18.67c0.95-6.29,1.05-12.69,0-18.98
		c-1.57-9.44,1.26-18.35,2.62-27.27c1.15-0.73,1.15,0.63,2.1,0.21c-0.42-1.89-0.73-3.88-2.31-5.77c-3.82,6.05-5.04,25.4-4.72,32.51
		c0.95,21.17-2.13,40.73-0.84,47.82c6.53,35.78,7.9,68.6,18.14,70.06c17.4,2.49,17.52,1.36,24.54,3.36
		c8.71,2.48,21.21,2.49,24.02-0.31c2.73,2.41,5.03,0.94,7.03-1.15c1.68,1.05,3.67,2.1,5.14,0.84s3.88-2.1,3.99-4.3
		c-0.63-1.57-2.1-1.57-2.73-2.62c-0.21-0.63,0.42-1.57-0.73-2.31c-2.31,0.31-3.56-2.1-5.77-2.94c-9.17-3.47-18.08-5.01-20.77-7.34
		c-1.46-1.27-3.15-2.2-4.93-2.31c-5.14-0.31-9.65-2.52-14.37-4.09c-0.84-0.21-1.78-0.52-2.52-1.68c0.84-5.24,0.14-10.7-0.63-16.26
		c-1.97-14.17-0.26-28.1-0.31-29.16c-0.76-14.88,4.05-16.3,7.34-40.38c3.45-25.2-5.02-22.27,3.15-40.06
		c10.42-22.71,7.66-28.09,11.54-38.18c3.78,0.21,7.45,0.44,11.01,0.63c8.7,0.47,19.09-5.35,23.39-12.9
		c1.19-2.37,4.66-3.79,11.64-13.53c6.48-9.04-4.01,23.35,15.1,71.42c1.61,4.05,1.37,14.28,1.15,17.41
		c-1.33,19.01,9.36,46.49,12.9,68.9c2.3,14.56,2.7,10.03,5.24,16.36c0.33,0.83,0.74,1.67,1.57,2.1c4.31,2.18,8.5,4.93,13.74,4.61
		c7.28-0.44,7.64,1.08,12.9,2.83c3.25-0.73,6.5-1.15,7.97-4.61c7.32,2.75,6.37-0.41,20.77,3.57c4.58,1.26,4.5-2.27,10.91-0.52
		c0.52-0.63,1.05-1.26,1.47-1.78c1.47,0.21,2.73,1.15,4.2-0.31c-1.05-1.47-1.68-3.36-4.09-3.99c-2.6,1.89-7.76-1.89-11.43-2.52
		c-8.99-1.52-25.16-7.94-34.09-8.91c-9.1-1.82-5.57-3.57-8.39-12.27c-4.07-12.56-3.74-22.84-2.73-42.79
		c0.4-7.87,0.54-15.8,2.73-23.49c0.89-3.13,1.03-6.39-0.42-9.54c-0.96-2.09,0-5.98-1.99-11.85c-4.57-13.45-2.23-13.64-3.36-17.83
		c-2.86-10.67-0.9-17.16-2.41-24.33c-1.17-5.55,0.21-11.12-0.1-16.68c-0.17-1.18,3.69-8.67,2.52-14.16c3.04,0.1,4.61-2.41,7.03-3.15
		c3.05,0,3.51,2.19,6.29,0.52c0.52-0.31,0.73-1.15,1.57-1.15c2.08,1.39,1.08,0.7,2.2,1.26c4.51-2.83,4.72-2.94,5.03-5.14
		c-2.14-0.66-4.27,3.09-6.92,2.62c-1.89-1.15-3.78-3.25-6.82-2.94c0.42,2.41,3.67,1.36,3.78,3.78c-1.89,0.63-3.36-1.26-5.14-1.15
		c-2.41,0.52-4.3,2.2-6.4,3.15c-4.73,0-8.51-8.41-10.17-12.48c-6.19-15.2-5.67-20.36-4.3-3.88c-2.41-2.31-4.92-2.34-7.24-3.15
		c-2.51-0.87-5.22-1.54-7.55-0.21c-2.08,1.19-5.14-0.84-6.5,2.2c2.85,0.95,11.85-3.57,19.3,2.83c0.85,0.73,1.99,0.52,2.94,1.26
		c0.73,3.15,2.8,5.78,3.88,8.81c1.12,3.16,2.83,5.98,6.19,7.13c0.31,2.83-0.31,5.35-0.52,8.08c-2.41,0.73-2.62,2.73-2.73,4.72
		c-0.93,17.03,1.3,16.09,1.05,26.32c-0.28,11.53,3.36,20.66,3.04,22.65c-0.69,4.28,1.55,8.94,4.09,21.29
		c2.61,12.66-2.8,10.98-2.52,30.62c0.25,17.6-1.78,27.6,1.47,41.11c1.39,5.77-1.58,8.05,3.15,14.79c3.73,5.32,11.22,5.6,17.62,6.82
		c5.59,1.06,2.07,3.29,8.91,4.72c2.42,0.5,5.03,0.65,7.24,1.57c3.34,1.4,6.72,2.47,10.38,2.94c2.98,0.38,4.17,3.79-1.78,2.52
		c-4.4-0.94-8.81-2.02-13.32-2.31c-12.03-0.76-2.15-1.8-21.92-4.4c-0.94-0.12-1.78-1.15-2.94,0c7.99,4.92,12.68,0.29,14.47,7.03
		c-2.31,0.21-4.95,1.29-6.82-0.21c-6.06-4.88-6.62,1.14-19.3-4.09c-4.95-2.04-6.7-6.62-9.33-10.59c-0.21-0.32-0.11-0.73-0.1-1.15
		c0.1-9.13-2.22-17.93-3.88-26.85c-1.97-10.59-4-8.02-7.45-31.36c-3.38-22.92-1.58-32.38-2.73-33.67c-1.47-1.65-1.22-7.39-2.83-9.96
		c-1.84-2.94-1.94-6.44-3.25-12.27c-8.48-37.79-4.66-41.7-5.66-43.84c-1.22-2.59-0.52-5.24-0.31-7.76c1.78-0.31,3.35-0.54,4.82-0.94
		c1.57-0.43,3.25,0.63,5.03-0.63c-3.78-1.47-7.24-1.99-11.22-3.04c4.82-4.2,7.34-9.86,11.54-14.05c2.39-2.39,6.08-7.7,2.73-8.18
		c-1.97,4.28-4.94,6.31-16.78,17.2c-0.52,1.15,0.73,1.47,0,2.52c-6.23,4.81-9.14,7.94-15.63,9.33c-4.21,0.9-7.03-1.95-6.29-3.99
		c9.06-25.01,18.16-31.55,18.04-37.65c-0.07-3.64,2.68-10.47,3.36-14.58c2.2-13.28-3.55-14.5-6.71-22.23
		c-1.07-2.61-3.04-4.61-4.61-7.03c4.88-1.83,8.07,6.06,20.24,7.76c3.46,8.39,7.66,9.65,15.63,5.14c-0.94,5.45-0.73,10.07,0.84,14.47
		c-1.36-8.29,1.47-14.68,4.93-20.98c-1.05,6.19-0.63,12.38-0.52,18.56c0.94,0.1,1.47,0.21,2.1,0.21
		c3.34,10.78,8.91,10.49,8.91,14.79c0,0.31,0.21,0.73,1.15,0.94c0.42-0.52,1.05-1.26,1.68-2.1c-5.2-5.2,0.94-6.13,3.53-10.44
		c0.03-0.07,0.07-0.02-0.18-0.09c-1.56-0.49,0.7,1.12,6.4-18.31c0-0.29,0.78-0.8,1.22-0.4c0.36,0.33,0.27,1.62,0.65,1.37
		c0.11-0.09,0.19-0.14,0.25-0.18c-0.1-0.45,0.28-2.71,4.07-11.81c7.25-17.44,6.7-24.34,8.5-25.49c1.44-11.3,6.19-11.61,6.19-13
		c-0.21-1.68,1.16-2.19,2.1-2.94c2.33-1.86,5.03-3.15,7.97-3.78c0-2.4-0.04-2.14,0.1-2.02c3.09,1.84,3.02,4.95,3.25,5.18
		c-8.21-2.5-10.91,3.43-10.91,2.53c-0.84-0.1-1.71,0.96-2.08,0.96c-0.4,0.16-0.34-0.1-0.34,0.5c1.76,0.29,2.19-1.36,2.41-1.36
		c0.71,0.06,2.7-1.62,2.85-0.29c0.13,1.16-6.22,2.29-10.39,12.88c-0.21,0.53-0.21,1.36-1.05,1.47c0.1,2.52-1.07,4.72-1.47,7.13
		c-3.86,23.53-3.15,21.04-4.09,23.18c-6.35,14.45-13.71,21.93-14.26,23.6c1.62,0,1.76-0.7,9.23-8.91c-0.1,0.94-0.42,1.99,1.36,2.31
		c0.41-0.91,1.88-0.77,2.27-2.08c1.1,0.26,1.45,1.96,3.71,1.55c-5.1-6.18-5.12-7.17-2.31-11.75c0.84-1.36,0.63-3.36,2.52-4.09
		c0.52-4.93,3.57-9.75,1.89-16.36c-0.03-0.1,3.78-20.91,8.6-24.12c1.52,2.27,1.17-0.6,3.57-0.31c9.62,3.01,6.69-3.54,3.78,11.96
		c-0.3,1.58-1.15,3.15-0.21,4.82c1.47-6.19,3.67-12.17,5.77-18.67c1.89,1.36,3.57,1.36,5.35,1.89c0.46,5.22,2.31,23.24,4.2,28.42
		c-0.52-9.44-0.1-18.77-1.68-28c0.63-0.73,1.78-0.21,1.89-1.36c-0.84-1.57-2.83-0.73-3.99-1.78c0.42-0.52,1.36-0.1,1.68-0.94
		c0.1-0.94,0.09-1.89,0.31-2.94c2.91-13.77-15.6-20.86-26.95-13.74c-6.77,4.25-10.71,6.72-17.83,13.74
		c-7.34,7.24-6.62,2.46-13.84,10.38c-14.32,15.71-9.19,17.82-24.65,29.16c-6.82-0.42-13.53-0.73-20.24,1.36
		c-1.36-1.68-3.46-1.91-5.56-1.68c-8.72,0.96-17.72-0.84-26.32,1.68c-11.77,0-30.55,1.9-39.22,6.61
		c-11.47,6.22-11.79,4.08-16.99,7.55c-14.39,9.6-23.92,14.17-29.58,24.54c-1.47,3.68-12.81,11.89-16.57,15.73
		c-1.36-2.31-3.46-1.05-5.14-1.57c-4.27-4.7-19.87-10.61-33.14-9.54c-2.73,0.22-5.24,1.48-7.97,1.36
		c-7.47-0.31-23.26-0.69-30.2,2.41c-14.95,6.68-33.43,6.54-54.43,35.97c-3.71,5.2-5.59,4.61-17.72,12.06
		c-21.04,12.92-25.62,9.08-35.76,18.46c-6.76,6.26-11.35,4.51-20.66,8.5c-56.5-5.3-37.03-0.77-61.35,5.35
		c-4.28,1.08-29,10.81-36.5,13.11c-7.51,2.3,0.25,1.6-14.37,6.61c-2.14,0,0.37-1.58-0.21-2.62c-3.67-1.68-12.68-2.89-16.26-1.99
		c-5.47,1.37-7.04-0.01-8.81,0.94c-3.01,1.63-6.95-0.21-9.33,1.15c-6.57,12.08-2.47,16.95-3.04,21.08
		c-1.21,8.71,3.67,14.89,8.6,21.81c-0.31,1.57,0.63,3.78,1.05,6.08c2.34,12.95-4.28,15.05,1.05,24.54
		C136.07,287.48,151.71,290.56,154.66,289.84z M590.75,354.03c0.84,0.42,1.99,0.31,2.62,1.47c-0.73,0.73-2.39-0.61-3.04-1.26
		C590.54,354.13,590.64,354.13,590.75,354.03z M711.67,321.62c0.94-0.63,2.52,0.31,3.57,2.41
		C712.19,324.41,709.99,324.13,711.67,321.62z M676.19,78.01c-1.31-0.74-1.46-2.21-1.86-3.38
		C675.64,75.43,675.98,76.71,676.19,78.01z M693.84,22.61c3.72-3.93,7.22-5.35,7.55,0C699.09,22.61,696.78,22.61,693.84,22.61z
		 M655.25,94.45c-12.56-14.37-3.85-38.99-1.85-40.75c-3.51,14.26-4.15,18.75-0.67,32.67C653.83,89.66,656.2,89.03,655.25,94.45z
		 M684.82,6.98c5.51-3.85,12.94-5.64,18.04-0.52c8.23,3.66,2.03,19.01,2.96,14.98c1.28-5.55,0.67-10.44-3.06-14.67
		c-2.41-0.63-4.62-2.02-7.13-1.68c-0.64,0.09-1.34-0.13-1.74,0.49c-0.68,1.06,6.02,0.19,8.82,3.83c1.52,1.97,2.84,7.89,1.13,4.91
		c-0.53-0.94-0.21-0.98-1.32-2.4c-1.92-2.46-4.1-2.55-7.21-0.95c-21.33,10.96-17.85,31.38-24.96,50.34
		c-0.18-1.88-0.77-3.28-2.31-4.5c-5.73,12.9-18.75,56.98,0.31,1.68c0.55,9.34-10.45,35.56-11.14,31.77
		c-2.53-13.9,5.87-37.37,7.15-42.88c-10.73,15.86-9.16,41-9.82,31.7c-1.89-26.8,15.82-50.45,14.54-51.74
		c-1.39,0.93-16.75,25.15-16.26,52.65c-2.2-5.77-1.7-15.03,0.52-22.65c0.37-1.25,1.64-2.58,0.57-3.92c2.07-1.99,2.7-4.7,3.63-7.4
		c-2.74,1.05-4.51,3.78-5.98,5.98c-4.87,7.29-1.82,3.08-11.43,13.84c-0.22-1.84,0.44-3.18,1.26-4.61
		c18.65-32.56,20.46-29.1,21.71-35.66C663.73,22.31,663.46,21.92,684.82,6.98z M651.26,37.5c0.52-1.26,1.05-2.41,2.41-3.04
		c1.68-3.46,4.3-6.19,7.13-8.7c-2.6,5.37-5.64,7.43-7.04,8.83C653.35,35.96,652.64,37.04,651.26,37.5c0.1,0.84-0.52,1.36-1.47,2.62
		C650.32,38.55,650.53,37.92,651.26,37.5z M635.64,55.44c8.49-6.92,9.68-11.3,11.64-11.96c0.21,1.26-0.42,1.78-1.15,2.31
		c-1.95,3.97-8.7,17.33-8.7,22.44c2.72-0.48,4.55-2.76,5.98-3.78c-1.28,7.69-16.4,8.67-16.15,3.25c3.57-0.84,7.55-1.26,9.33-5.45
		c-4.6,3.45-9.91,4.28-15.42,2.1c6.15,0,14.99,0.39,14.68-6.08c-1.47,0.74-2.16,2.83-4.4,3.15
		C632.5,59.45,633.99,56.77,635.64,55.44z M631.96,57.95c-0.42,1.78-1.78,2.52-1.89,3.78c-1.99,1.05-3.99,0.52-5.87,0.84
		C623.87,61.9,623.05,61.95,631.96,57.95z M617.6,59.21c2.2,0,4.4,0,7.24,0c-1.97,1.66-3.77,2.54-5.68,2.52
		c-0.86-0.01-6.21-1.09-8.37-2.31C613.4,58.58,615.5,59.21,617.6,59.21z M596.19,59.82c1.57-0.14,3.89-0.4,4-0.4
		c5.56,5.66,8.63,12.47,10.91,19.93c1.93,6.34,0.21,10.26-1.78,22.02c-1.05,6.21-4.65,7.8-9.65,17.72
		c-4.24,8.42-2.12,7.61-5.66,14.37c-6.09,11.62-1.55,19.82,14.82,11.32c0.24-0.13,0.56-0.51-1.6,2
		c-19.44,22.59-19.16,20.03-39.01,20.03c0.13-3.16,3.65-17.08,11.54-25.28c3.04-3.15,5.59-6.79,8.29-10.28
		c2.65-3.44,4.51-7.24,4.93-11.22c6.96-8.66,13.67-16.1,12.59-27.37c-0.37-3.89,0.84-7.76,0.42-11.64c-0.1-0.42,0.42-0.84,0.63-1.36
		C598.27,56.93,581.61,61.08,596.19,59.82z M412.98,209.76c-15.36,2.83-32.31,7.27-48.55,6.78c7.36-2.63,13.94-6.86,21.81-8.08
		c4.73-0.73,6.38-2.34,15.73-9.96C410.54,210.89,414.52,209.47,412.98,209.76z M491.22,102.32c1.15-6.19,13.01-14.25,18.25-17.83
		c28.34-19.36,19.61-11.18,31.15-17.83c3.26-1.88,7.87-3.15,12.17-3.36c-2.64,2.64-2.29-0.23-19.82,16.15
		c-8.15,7.61-12.65,16.59-10.7,28.63c2.36,14.54,4.34,16.33,10.7,18.88c1.46,0.73,1.26,0.28,1.25,0.83
		c-0.09,3.61-6.27,11.48-6.18,23.5c0.03,3.56-3.67,9.16-3.67,20.87c0,2.46-0.11,4.95-0.84,7.24c-4.01,1.85-5.59-0.79-13.11-2.52
		c-3.25-0.75-5.76-2.42-7.97-5.03C487.87,154.65,483.55,143.55,491.22,102.32z M471.29,114.59c5.24,1.75,14.24-8.37,14.24-7.48
		c-1.44,8.18-4.66,20.04-0.2,35.9c2.56,9.09,0.74,12.53,8.81,23.81c6.72,9.39,9.38,11.24,13.84,13.21c3.55,1.57,9.03,1.82-2.2,3.46
		c-4.93,0.72-9.45,2.6-14.26,3.78c-9.13,2.23-44.7,5.26-48.63,4.86c-34.79-3.54-17.97,2.99-2.65-12.3c-4.84,0-6.5,4.01-7.55,4.4
		c-4.9,1.86-9.9,3.44-15.01,4.7c-0.39,0.13-4.11-8.81-3.77-23.79c0.44-19.12,12.54-32.14,29.26-46.04c2.63-2.19,5.45-3.66,8.7-4.09
		c5.11-0.67,9.52-1.85,14.79-0.1c-5.56,1.36-11.01,1.15-16.05,2.83C456.6,118.45,467.88,120.23,471.29,114.59z M345.02,143.64
		c13.89-9.15,3.87-18.16,51.35-33.87c16.86-5.58,35.94-4.93,43.15-2.53c0.84-1.57-0.94-1.89-1.05-2.73c0.12-0.34,0.68-0.5,1.59-0.51
		c10.09-0.14,27.66,8.67,25.51,7.81c-6.33-1.54-11.7-0.73-17.98,0.99c-7.34,2.75-19.64,11.47-25.38,20.98
		c-2.38,3.94-11.51,12.41-10.91,27.48c0.37,9.22-0.82,18.82,3.99,28.11c-3.76,0.88-5.08,0.93-3.88,2.94
		c0.91,1.52-3.25,1.41,6.6,2.49c8.89,0.97,17.27,0.67,26.86,1.6c-3.99,5.35-19.82,13.32-26.32,13.21
		c-5.66-3.67-11.01-7.66-14.79-13.74c1.57-1.57,3.67-2.52,5.45-3.78c-0.46-1.3-1.17-1.27-1.76-1.05c-2.39,0.92-4.84,2.38-6.52,4.3
		c-6.19,7.05-10.1,7.4-33.88,16.05c-0.11-0.11-9.5-4.81-17.83-22.34c-0.95-1.99-1.36-4.2-3.36-5.56c-0.52-0.31-0.62-1.37-0.84-2.1
		C339.87,164.12,342.84,155.63,345.02,143.64z M154.03,207.09c0.7,0.44,1.02,1.78,2.31,1.78c13.01-3.11,12.67-6.23,38.49-14.68
		c15.65-5.13,15.64-3.77,26.53-9.75c8.62-4.74,30.76-1.51,45.95-1.32c3.78,0.05,3.63-0.43,14.15-3.2c1.25-0.33,3.67-0.73,4.82-1.89
		c-1.75,2.57-6.61,6.29-6.71,6.29c6.67,0,8.99-7.11,9.75-7.87c10.49-7.03,22.86-10.17,33.46-17.1c5.84-3.82,8.15-4,16.15-9.33
		c0.63,1.05,0.01,1.79-0.21,2.62c-4.73,18.13,4.18,28.79,9.54,41.22c6.32,14.65,13.88,16.54,14.89,18.56
		c-12.24,4.62-33.13,5.18-37.44,5.66c-15.51,1.75-5.08,3.74-40.06,1.68c-0.84-0.52,0.31-1.36-0.52-1.89
		c-4.14-1.27-8.06-1.34-12.48,0.1c3.99,0.42,7.13,0.84,10.28,1.26c-7.14,1.13-12.22,3.21-19.77,3.15c-12.46-0.11-24.56-1-36.86-0.21
		c-25.09,1.61-49.2-1.34-56.21,10.07c-1.75,2.85-4.4,4.3-8.18,4.82c-4.39-1.76-11.85-2.81-11.85-10.07c0-3.04-0.98-5.95-2.52-8.5
		c-0.75-1.25,0-3.25-2.31-3.78C147.65,212.04,153.34,208.47,154.03,207.09z M206.37,230.16c0,0.42-0.1,0.84-0.1,1.15
		c-2.81,1.46-5.82-0.7-6.38-4.72c0-0.66,9.81-0.53,12.95,0.37C213.45,227.14,214.38,226.73,206.37,230.16z M145.01,285.23
		c-10.54-3.32-16.26-12.69-14.16-23.07c4.09-4.72,4.82-10.07,0.73-15.21c-0.54-1.51,1.14-2.63,0.1-3.67
		c-1.15-1.78-3.78-0.21-4.82-2.2c-2.29-9.17-9.95-7.18-4.3-35.45c16.91,0.51,20.57-4.07,28.74-0.63c-4.34,4.34-3.07,2.74-7.87,10.59
		c0.94,4.09,1.99,8.18,2.94,12.17c1.01,3.02,2.1,0.96,2.62,4.51c0.37,2.51,2,4.37,4.3,5.14c8.84,2.97,23.48,2.18,24.12-6.82
		c5.62-2.81,12.61-3.18,18.46-3.57c1.05,7.76,3.85,9.36,11.22,6.82c2.28-0.79,3.43,0.37,2.94-2.1c0.95-0.79,2.58-1.25,3.67-1.47
		c-0.68,5.91-9.42,6.39-12.69,9.33c-4,0.1-8.09-1.58-12.66,0.08c-1.42,0.52,5.5,2.65,6.89,3.48c-2.88,1.03-6.01-0.82-8.5,0.42
		c1.78,3.57,3.99,4.2,10.49,3.04c0.22,5.39-1.81,8.88-6.92,10.49c-2.34-0.39-4-1.18-6.82,0.1c2.73,1.78,5.24,1.89,8.18,1.78
		c-0.1,2.41-0.94,4.3-1.89,6.08c2.16,6.92,5.71,3.28,5.15,13.8c0,0.68-6.77,1.2-11.13,3.92c-0.94-0.73-0.31-1.36-0.31-1.89
		c0.1-0.52,0.1-1.05,0.21-1.68c-1.89-1.78-2.2-4.62-4.51-6.08c-2.51-1.58-4.41-3.98-6.71-5.87c-1.89-1.56-1.68-3.99-2.41-5.98
		c0.63-2.2,2.1-3.99,1.78-6.29c3.72-1.59,4.9-5.71,0.2-10.07c3.32-1.33,5.88-3.45,6.92-6.92c0.11-0.37,2.23-5.95,0.73-7.45
		c-2.27,2.27-1.43,5.21-4.47,9c-1.87,2.33-4.94,3.91-8.12,3.27c-3.32-0.67-11.14-0.79-13,1.69c2.89,3.84,7.42,2.18,11.33,3.04
		c-4.63-0.19-8.5,1.88-12.8,4.61c4.2,0.31,7.45,1.57,10.91,0.42c0,0.16,0.1,0.67,0.1,0.73c-1.95,0.9-7.44,3.4-7.87,3.57
		c7.63,5.59,13.45-4.86,12,1.64c-0.14,0.64-7.02,1.67-10.22,4.87c8.42,3.99,5.7-0.23,8.5-0.62c0.84,0.73-1.05,1.57,0.1,2.41
		c0.85,0.28,1.2-1.71,1.9-0.31c2.21,8.19,8.31,6.42,10.07,12.69c0.42,1.49,3.3,1.6,2.1,4c-0.37,0.74-4.3-0.1-7.45,1.35
		c-1.98,0.91-3.97,2.85-5.89,4.2c-0.77,0.54-6.59-0.54-12.56,0.42C150.78,288.13,146.31,285.63,145.01,285.23z"/> <path d="M670.58,70.19C670.65,70.49,670.93,69.99,670.58,70.19L670.58,70.19z"/> <path d="M719.22,543.96c-2.62,0.1-4.51-2.1-7.13-2.52c0,2.1,2.52,2.41,2.41,4.4c-2.2-0.1-3.46-2.2-5.24-2.31
		c-3.67,0.31-6.92,2.73-10.7,0.84c-2.94-5.87-5.56-11.75-5.56-17.62c-4.3-6.29-10.28-6.8-16.47-7.13
		c-11.84-0.64-12.06,5.1-26.22,11.33c-2.84,1.25-5.56,2.73-7.45,5.14c-20.32,1.56,34.05-41.1,13-72.89
		c-0.83-1.26-2.52-2.31-2.41-4.2c1.15-1.26,2.94-1.26,3.78-2.73c5.87,0.84,11.54-0.97,17.2,0.21c5.46,1.13,11.22,0.42,16.78,3.78
		c-4.3,2.73-8.71,4.28-12.9,6.19c-2.73,1.25-5.24,0.4-7.76-0.73c-0.94-0.42-1.57-1.68-3.25-1.15c5.45,5.87,12.38,6.61,20.24,7.03
		c-5.44,3.63-13.89,1.23-19.3,0.42c6.05,5.88,14.96,2.22,16.89,3.04c-0.84,1.15-1.47,2.31-1.89,2.94
		c-4.09,1.05-7.55,2.94-11.43,2.41c3.88,2.62,7.45,0,11.64-0.73c4.61-4.82,7.87-11.43,11.64-17.62c-1.68,4.93-2.73,9.96-4.4,14.79
		c-0.94,0.1-1.15-0.73-1.99-0.84c2.66,6.98-16.09,12.9-24.23,11.22c1.14,3.05,10.62,1.58,13.21,1.26c-3.15,2.41-6.4,1.89-9.54,1.99
		c1.27,3.18,13.55,2.16,18.25-5.87c0.62-1.06,1.26-2.1,2.94-2.94c-6.61,22.02-3.73,16.69-13.42,25.7c2.07,2.3,7.11-4.35,9.44-6.29
		c9.77-8.17,15.57-18.49,17.72-31.04c0.49-2.84,1.47-5.56,0.73-8.6c-3.67,10.7-5.24,22.34-13.53,30.94
		c7.84-29.51,12.42-39.94,16.68-49.71c3.04-2.83,7.34-6.08,12.17-8.6c0.21,0.31,0.31,0.52,0.31,0.52
		c-13.99,16.32-12.31,23.39-15.84,38.28c-9.45,39.85-4.91,37.03-8.5,43c-0.65,1.3-1.36-0.14-1.89,0.52
		c-2.04,3.56,8.53,5.19,13.53-30.94c0.21,4.4,2.31,8.39,2.52,12.9c5.52-13.79,5.51-15.59,5.03-7.66
		c-0.47,7.83-4.72,10.65-12.59,20.98c5.56-3.99,10.8-8.29,14.16-14.26c-1.15,10.7,0.42,17.51,6.4,26.95
		c1.26-6.82-5.31-6.56-3.04-19.4c2.76-15.61,11.98-24.93,12.17-28.95c-6.71,8.81-11.43,17.93-13.84,28.21
		c-0.73-6.29,1.26-11.96,3.78-17.72c-0.73,0.1-1.05,0.1-1.57,0.21c0.31-5.24,1.99-10.59-1.47-15.52c0.94-3.25,1.89-6.5,2.83-9.86
		c-5.41,7.98-2.63,13.05-11.33,32.62c-1.26-3.67-1.57-7.24-1.68-10.8c-0.99-33.57,22.5-47.65,22.86-53.07
		c-20.41,20.41-19.71,30.87-23.18,35.03c-3.6-11.26,17.24-40.85,32.2-37.86c-6.19,6.82-9.02,11.64-8.6,15.21
		c3.04-7.13,7.97-12.17,13.32-16.36c2.73-0.42,4.83,0.09,6.92,0.84c2.31,0.83,2.73,3.46,4.72,5.56c0.21-7.45-5.24-7.97-9.54-9.65
		c-1.36,0.52-2.62,0.94-3.99,1.47c-1.78-1.05-3.78-1.07-5.87-0.63c-34.92,7.4-38.65,32.17-43.73,35.03
		c-6.05-8.48-29.26-16.91-30.83-16.89c-5.91,0.11-8.14-2.77-13.74-1.78c-8.39,1.47-6.06,8.58-7.66,13.11
		c-0.1,0.01-44.23,4.94-54.01,7.66c-4.69,1.3-5.16-1.72-21.6-0.84c-7.91,0.42-21.32,0.08-26.85,0.31
		c-14.48,0.61-12.54,3.47-22.86,3.88c-9.08-9.59-14.8-13.48-32.62-21.4c-13.16-5.85-19.39-4.3-37.76-3.57
		c-46.53,1.85-43.09,20.61-67.96,22.86c-28.54,2.59-36.14,2.24-48.03,6.61c-1.47-0.63-3.04-0.93-4.51-1.26
		c-14.6-3.23-11.85-5.29-20.45-6.29c-14.29-1.66-13.23-3.45-29.68-1.89c-16.13,1.53-13.07,1.59-34.09-0.31
		c-1.05-0.1-1.36-1.47-3.46-1.47c-2.73,0.31-6.29,0.21-9.86-0.63c-3.2-9.59-13.55-5.11-36.6-11.33
		c-9.27-2.5-10.87,11.04-12.38,11.64c-4.54-3.35-7.88-0.83-11.43-3.15c-5.26-3.43-11.33-4.09-17.3-5.03
		c-4.03,2.69-5.83,2.84-12.9,13.84c-3.36,5.23-2.07,10.86-1.36,16.26c2.01,15.38,11.51,10.68,9.54,21.81
		c-1.99,2.1-3.16,4.61-4.3,7.24c-1.96,4.51,0.53,4.64-0.63,11.54c-0.72,4.27,7.4,16.92,19.51,20.77c1.26,0.31,2.32,1.02,3.57,1.47
		c7.62,2.75,21.81,3.36,28.11-5.66c1.16-2.32,4.36,6.31,16.05-2.41c4.96-3.7,1.78-7.38-0.42-10.91c0-1.36,1.05-2.1,0.84-3.46
		c-0.52-3.36,0.09-6.71,0.42-10.07c0.48-4.94,3.64-2.55,4.82-12.9c3.25-0.7,1.61,0.51,19.19,3.46c30.65,5.14,41.88,5.05,45.73,6.29
		c18.13,5.86,23.15,9.17,29.47,9.44c6.85,0.29,5.86,5.55,17.72,6.19c2.62,0.14,5.02,0.76,7.34,2.1c7.81,4.5,16.56,6.63,24.96,9.54
		c14.3,4.97,30.95,2.35,34.61,5.66c1.38,1.25,3.04,0.52,4.51,0.63c0.1-0.63-0.21-1.15,0.52-1.26c12.45,2.04,21.24-4.53,38.7-4.4
		c6.51,0.05,6.72-1.76,11.33,0.42c2.2,1.04,4.4,2.63,6.71,3.04c18.1,3.2,19.94,7.64,24.44,6.29c13.19,10.5,27.53,11.69,36.29,13
		c3.99,4.2,7.08,8.48,8.81,13.84c3.22,10.01,5.94,7.71,7.45,14.68c1.57,7.25,4.12,5.97,27.58,13.21c5.04,1.56,10.72,1.88,16.15,0.63
		c4.45-1.03,2.78,2.13,9.54-0.42c5.39-2.03,12.62,1.54,14.16-4.09c-8.5-5.24-17.62-8.18-27.58-10.17c2.05,4.29,6.92,2.46,16.78,7.13
		c2.71,1.29,5.56,2.41,8.6,3.67c-3.67,1.26-17.51,2.52-18.56,1.68c-0.1-0.52-0.1-1.15-0.21-1.68c-6.61-3.04-13.63-4.61-20.66-6.4
		c8.13,5.98,29.84,8.39,12.17,8.39c-3.36,0-6.92,0.43-9.86-0.73c-7.66-3.03-15.94-3.78-23.91-7.97c-1.78-4.93-3.67-10.7-7.87-14.79
		c0.21-1.26,1.05-0.52,1.26-1.78c-14.54-25.12-9.41-10.07-27.37-45.52c-4.49-8.85-2.98-13.95-13.11-42.79
		c1.09-0.95,2.04-6.46,6.08-8.29c35.39-15.99,52.16-9.96,72.16-12.38c14.91-1.8,16.76,1.76,23.39,1.26
		c7.12-5.16,10.13-0.7,16.68-2.52c12.89-3.58,24.19,0.44,27.06-0.1c6.15-1.17,8.63,3.79,10.7,3.99c9.26,0.87,8.55,25.2,5.35,28.32
		c-4.14,4.04-7.47,8.68-11.33,12.9c-12.77,13.96-26.88,16.7-27.69,18.04c-2.04,4.08-25.39,9.7-36.81-1.57
		c-3.91-3.86-4.93-8.6-3.67-14.05c3.36-0.42,6.6-0.86,9.75-1.36c10.69-1.7,9.75,2.94,11.96,1.47c-1.99-3.4-2.68-5.74-9.23-4.51
		c-19.52,3.68-14.76-0.43-21.4,0.73c-8.61,1.51-16.78-0.63-25.07-1.36c-1.15-4.4-1.15-4.4-3.36-6.4c-1.34,2.46,3.79,3.94,2.73,24.86
		c-1.19,23.42,10.18,29.96,14.05,48.35c0.52,0.84,1.99,0,2.31,1.15c1.66,6.12,17.33,3.82,26.43,9.86
		c11.73,7.78,19.69,8.36,23.28,11.96c-0.3,1.57-0.36,2.62,1.36,1.47c0.21-0.21,0.42-0.52,0.63-0.84c-2.32-6.03-8.5-5.04-16.15-10.38
		c-3.27-2.28-7.69-2.38-10.38-5.66c-0.84-1.03-15.25-3.72-16.57-3.88c-6.29-0.77-9.44-4.3-9.75-10.8c0.52,0,1.05,0.1,1.57,0.1
		c39.73,2.81,28.11-0.65,34.09,0.63c8.62,1.84,17.44,0.72,25.59-3.36c0.1-0.52-0.42-0.63-0.73-1.05
		c1.93-1.51,11.53-8.84,11.85-11.85c-5.14,5.14-11.54,8.6-16.89,12.9c-8.91,1.26-17.2,0.01-25.49-1.78
		c-12.38-2.67-13.11-12.8-15.31-12.8c-1.15,0.94-0.44,2.1-0.1,3.15c1.9,6.01,7.34,8.6,11.96,12.06c-3.46,1.15-6.82,0.55-10.17,0.21
		c-5.77-0.59-9.87-3.46-12.38-8.7c-4.46-9.33-7.74-14.1-7.45-21.08c0.27-6.42-0.32-18.42,0.73-24.12c2.66,3.23,13.8,1.69,18.56,1.47
		c0.79,1.38-4,12.24,7.66,18.35c5.32,2.79,9.47,2.24,14.26,3.78c16.55,5.29,33.9-10.06,44.57-14.79
		c5.24-2.32,31.32-30.76,19.09-49.19c-3.55-5.36-9.75-5.87-15-8.29c-3.67,1.15-7.03-0.67-10.59-1.05
		c-10.27-1.09,18.32-3.62,25.59-2.41c0.31,1.05-1.15,1.36-0.94,2.73c3.4,5.1,4.74,6.91,5.98,11.22c1.94,6.73,2.52,19.22-0.94,25.17
		c-7.78,13.35-10.39,21.58-14.16,25.9c-4.84,5.54-9.18,15.61-2.1,17.51c1.15,0.42,2.2-0.63,3.46,0.1c-2.1,2.36-3.09,2.97-2.2,3.25
		c1.04,0.33,1.26-1.47,2.62-1.15c-4.67,9.93-9.48,11.2-16.78,14.68c-3.35,1.6-7.13,1.57-11.12,2.62c1.89,1.78,3.47,1.81,5.14,1.47
		c17.58-3.54,21.7-13.32,24.96-17.83c2.67-4.34,3.41-5.82,3.99,0.42c2.64,28.84,21.39,16.22,33.14,20.03
		c2.41-0.63,3.99-1.68,4.51-3.46c4.93,0.42,9.64,0.44,14.16,1.36c4.72,0.96,9.23,0.53,13.42-1.68c1.99-1.05,4.2-1.99,4.4-5.03
		c-7.09-1.28-21.77-3.01-29.68-6.4c-8.04-3.44-15.41-2.09-21.5-5.77c-2.78-8.91,1.14-11.44-1.36-17.2c1.89-0.94,3.67-1.68,5.56-2.62
		c4.4,1.78,9.12,1.05,13.84,1.36c10.51,5.93,2.33,19.73,15.52,26.22c3.04-0.1,5.56-1.68,7.87-3.25c1.89,0.31,2.94,2.2,4.51,1.99
		c6.96-3.03,9.6-3.14,10.37-5.83C722.84,541.23,723.66,540.73,719.22,543.96z M705.05,478.56c-0.93,11.04-2.53,21.88-6.7,32.26
		C698.37,510.71,706.23,464.58,705.05,478.56z M718.07,474.74c1.26,4.3-0.21,8.39-1.36,12.38
		C716.07,482.95,716.94,478.74,718.07,474.74z M678.32,467.92c1.21-0.43,1.76-0.2,2.52,0.42C680,468.87,679.37,468.45,678.32,467.92
		z M685.45,468.97c1.21-0.75,2.03-0.88,3.36-0.63C687.83,469.32,687,469.53,685.45,468.97z M684.82,466.14
		c2.1-0.94,4.09-1.78,6.92-2.94C689.86,466.35,687.55,466.46,684.82,466.14z M275.9,461.97c15.08-2.31,46.99,5.5,40.08,6.42
		c-0.76,0.1-0.22,0.44,0.41,0.72c2.04,0.91,4.5-0.33,6.6,0.6c-5.77,1.47-11.12,4.3-17.3,2.62c-2.87-0.96-6.81,2.64-15.94-3.15
		C282.58,464.65,271.99,462.57,275.9,461.97z M225.56,459.43c-2.62,3.15-6.19,0.73-9.02,2.2c1.24-2.48,2.51-4.08,5.77-4.52
		C222.66,458.51,224.1,458.7,225.56,459.43z M185.71,448.84c8.81-2.94,2.8,0.42,16.05,1.57c3.41,0.3,18.96,2.9,19.09,2.93
		c4.46,1.11-3.6,0.49-7.66,8.6c-11.18,0.44-21.98,2.51-33.14,0.21C180.36,457.12,183.61,453.24,185.71,448.84z M178.39,540.7
		c-0.01,0.01-0.03,0.01-0.03,0.01c-5.79-1.53-8.69,2.17-25.7-6.71c-2.41-1.26-7.87-9.02-9.33-12.69c1.81-13.4,1.99-14.67,2.94-16.68
		c2.39-5.05,1.92-10.74-2.31-14.26c-4.58-3.82-5.55-8.72-6.19-14.05c-0.64-5.35-1.91-8.1,2.83-14.16c4.67-5.96,6.85-6.67,8.81-10.59
		c2.86,0.95,9.42,0.4,14.16,3.88c2.85,2.09,5.89,2.83,8.81,2.52c1.89-0.2,1.92,0.02,4.2,1.36c-0.11,0.67-0.62,1.15-1.26,1.78
		c-5.66-2.31-11.79,12.18-10.9,13.11c-3.82,1.42-2.72,7.59-0.52,10.48c2.99,3.93,7.35,13.57,10.59,14.79
		c3.62,0,10.68-3.16,12.8-4.09c0,4.88-2.58,4.14-4.93,6.5c-5.83,0.22-8.75,1.89-16.36,1.89c-0.21,2.41,1.47,2.83,2.83,3.46
		c-0.73,1.57-2.94,0.63-3.46,2.41c1.15,1.89,3.36,1.47,5.45,2.2c-1.15,0.63-2.1,1.05-2.94,1.57c-0.75,1.87,5.21,3.55,11.64-0.63
		c0.73,1.46-0.84,2.31-0.94,3.36c-2.99,0.94-6.42-0.2-9.24,2.41c7.11,2.9,10.18-0.4,10.18,0.35c2,4.5,6.49,7.65,7.02,13.92
		C184.75,537.87,186,537.04,178.39,540.7z M178.1,511.33c-0.3-0.08-0.57-0.46-0.8-0.83C178.93,509.69,179.14,511.59,178.1,511.33z
		 M203.43,505.68c-0.45,1.14,1.05,1.36,1.68,2.31c-1.52,14.48-0.21,11.29-0.73,14.79c-0.31,2.1,1.99,3.78,2.94,6.29
		c-3.57,5.87-9.02,5.66-14.58,4.93c-1.87-1.13-2.62-2.74-1.68-4.72c-16.29-16.29-2.64-14.98-7.34-24.65
		c1.36-1.68,3.67-1.47,4.93-3.15c3.64-4.85-3.22-7.58,13.37-5.37c0.42,0.08,0.27,1.29,4.14,2.75c-1.26,0.63-2.62-0.21-3.57,1.26
		c0.09,2.99,3.39,2,4.71,3.05C206.89,505.68,204.22,503.67,203.43,505.68z M384.39,533.81c-0.31-0.1-7.18-0.95-9.38-0.96
		c-19.41-0.16-35.83-9.73-42.16-11.22c-15.77-3.7-20.56-10.37-31.25-14.05c0.61,2.73,3.29,1.55,5.14,4.72
		c-2.41-0.39-4.62-1.25-6.93-1.65c-6.32-1.08,2.24,2.79-20.23-6.01c-15.43-6.04-29.99-2.59-49.82-8.6
		c-12.3-3.73-39.42-5.31-52.44-2.52c-1.15,0.42-0.1,2.2-1.47,2.41c-0.2,0-0.64,0.09-0.73,0c-6.24-4.99-5.41-7.58-8.18-11.12
		c-3.56-4.54-2.86-10.21-2.52-10.58c0.03,0.03,0.07,0.04,0.11,0.04c2.42-0.98,4.72-8.03,9.32-11.48c3.67,0.73,7.37,1.19,10.8,2.73
		c4.21,1.88,15.7-1.25,23.49,0c1.34,0.22,19.21-1.35,19.4-1.36c8.91-0.63,8.34-2.39,18.14-1.57c7.75,0.64,17.57-0.21,30.06,3.46
		c11.49,3.38,7.63,3.98,22.28,9.02c2.22,0.77,7.36-1.11,11.75,1.15c-0.09,0-9.9,1.35-10.06,1.35c-2.69-1.75-2.64-1.78-6.5-1.99
		c1.81,1.61,6.14,3.21,10.07,2.94c3.35-0.24,7.34,0.94,9.54-2.94c26.56-9.63,51.78-8.77,72.26-12.06c-0.92,4.6-7.15,11.83-8.29,34.3
		C375.59,521.54,390.87,535.92,384.39,533.81z M485.46,481.75c0,0.27,0.44,4.47,1.25,6.63c6.6,17.6,2.92,28.31,18.98,53.91
		c0.66,1.05,6.57,11.33,6.61,11.43c-1.05,0.84-1.99,0.19-2.94,0c-6.9-1.39-13.55-3.32-19.82-6.5
		c-22.94-11.64-29.36-9.17-19.82-11.75c-7.17-2.39-5.15,1.41-22.02-1.99c-11.48-2.32-1.84-21.23,3.88-27.48
		c16.44-17.93,24.95-25.15,34.3-29.26c6.13-2.69,3.56-5.91,6.5-4.4C489.55,475.15,487.66,478.3,485.46,481.75z M456.61,494.76
		c-20.4,21.17-12.32,19.75-17.62,35.66c-30.86,2.15-19.25,4.8-48.66,3.78c-1.57-1.26-2.62-2.73-1.99-4.93
		c-5.18-5.59-6.38-14.54-9.86-26.74c-2.19-7.68,11.55-41.58,11.73-41.67c0.78-0.24,10.23-2.58,14.4-7.02
		c4.07-4.33,22.39-9.23,27.06-10.06c10.78-1.91,18.05-0.71,19.82-0.73c11.98-0.13,13.99,5.79,19.72,4.72
		c1.43-0.27,4.06,1.25,3.67,0.67c-2.24-4-7.07-3.24-9.54-6.33c2.06,0.59,6.08-0.64,8.53,1.35c1.85,1.51,0.62,1.23,2.14,1.24
		c2.09,0.02,4.06,0.8,5.9,1.81c21.05,10.1,18.8,6.89,28.11,16.47C508.79,465.85,487.65,462.55,456.61,494.76z M556.45,561.47
		c-2.73,0-5.03,0-7.55,0c-7.72-16.61-11.87-24.47-11.82-34.23c0.11-21.19-1.24-19.26,0.28-20.09c1.89,0.31,4.4,0.84,6.82,1.26
		C540.09,528.73,545.14,547.78,556.45,561.47z M642.98,452.3c0-0.29,0.68-2.6,0.31-6.61c0.63-1.05,1.47-2.1,2.1-2.94
		c7.28-2.66,8.74,0.01,11.85,0.52c4.72,0.42,9.03,2.09,13,4.72c2.31,1.53,6.91,1.32,14.05,6.82c-6.71-1.57-13.63-1.37-20.35-1.47
		C657.09,453.24,650.22,451.46,642.98,452.3z M717.13,554.66c-1.41,2.11-3.28,1.19-4.3,2.2c-3.7-1.92-8.09-2.01-11.54-4.2
		C706.53,552.98,711.67,554.34,717.13,554.66z M667.73,543.04c4.11,4.11,7.3,0.2,28.95,8.16c-5.86,0-6.98-1.2-11.64-2.1
		c-0.4,2.49,4.62,1.67,22.23,7.66c-0.77,0-2.5,1.59-7.45,0c-4.14-1.33-7.81,1.79-13.23-1.28c-7.6-4.3-1.23,0.06-15.2-3.23
		c-0.44,0.89-0.06,1.24,0.45,1.47c9.71,4.24,9.01-0.92,13.08,2.73c1.54,3.08-2.03,4.71-5.14,3.16c-2.11-1.27-4.91-0.93-7.14-0.52
		c-7.8,1.42-8.56,0.62-16.07-2.02c-0.2-0.07-0.05,0.8-4.07-8.04c-1.48-3.26,0.89-2.81-2.1-13.84c2.53-2.31,5.3-3.42,7.76-4.93
		c2.73-1.36,3.88-4.51,7.45-5.45c0,4.81,0.33,18.36,0.83,18.23C666.78,542.92,667.38,542.78,667.73,543.04z"/> <path d="M714.4,28.48c12.32,14.95,6.13,34.19-2.73,52.86c-0.44,0.93-0.84,1.89-2.41,1.99c1.89-5.35,3.04-10.7,2.73-16.26
		c-2.1,5.24-1.78,11.12-4.72,15.73c-1.47-0.21-2.31-2.1-3.99-0.31c2.31,1.89,4.61,3.78,6.92,5.66c0.84-1.05-0.52-1.47-0.21-2.31
		c6.07-1.79,6.83-10.4,9.02-18.35c1.96-7.11,3.99-14.16,3.46-22.55c2.31,4.4,0.84,8.6,2.52,12.27c1.05-7.55-0.73-14.89-3.15-22.34
		c5.45,3.88,8.81,13,9.44,25.59c0.63-0.84,0-2.1,1.05-3.36c-0.1,2.52,0.42,4.72-1.36,6.19c1.83,6.86-7.46,25.01-12.9,31.36
		c6.35-0.53,18.86-29.07,14.58-39.33c-1.85-4.42-1.36-9.33-3.15-13.84c14.68,19.19,6.37,44.37-8.5,54.33
		c1.99,0.42,3.04,0.84,3.67,1.47c1.05,0.42,1.89-1.05,3.15-0.31c-2.27,4.08-4.32,3.59-7.66,6.92
		c-11.08,11.08-16.86,8.74-20.14,11.75c-6.86,6.3-4.57,6.76-10.07,13.11c-2.65,3.06-4.84,0.09-7.34-1.99
		c-0.52-1.05,1.47-1.99,0.1-2.94c-1.15,0.1-1.78,0.73-2.1,2.2c2.1,2.1,3.04,5.45,5.98,7.03c4.09-1.78,6.51-5.03,8.6-8.5
		c4.27-7.07,7.77-7.79,13.21-9.75c12.46-4.49,13.25-9.36,16.99-11.75c7.26-4.64,15.88-18.64,15.1-35.76
		c-0.92-20.18-6.34-20.83-8.5-26.01c-3.33-8-10.59-11.96-16.89-17.2C712.91,27.18,712.73,26.46,714.4,28.48z M733.38,85.22
		c0.31-2.41,1.36-4.51,2.52-6.61C735.98,81.16,734.61,82.98,733.38,85.22z M722.79,33.52c-2.02,0.83-2.38-0.34-3.04-2.1
		C721.11,31.94,721.95,32.57,722.79,33.52z"/> <path d="M781.42,485.96c-1.66-8.18-3.99-16.05-6.92-23.81c-1.47-3.88-4.09-6.92-7.76-8.91c-3.67-1.99-7.34-4.2-11.12-5.14
		c-1.36-2.52,0.59-4.6-0.42-7.03c-0.87-2.08,1.89-4.2,1.15-7.45c-2.41,2.73-3.02,5.45-3.15,8.18c-1.13,24.54,9.34,27.04-1.26,55.69
		c-0.63-2.73,1.36-5.24-1.05-7.03c-2.2,2.41-2.2,2.41-1.89,5.56c0.52-1.05-0.31-2.83,1.68-3.46c0,5.43-2.42,5.24-3.78,7.97
		c-6.39,12.88-18.35,15.84-19.3,20.35c8.67-1.02,18.62-14.04,21.29-17.3c-1.15,4.09-4.3,7.13-6.19,10.91
		c2.46,0.45,9.55-13.95,11.43-15.84c0,2.41-2.41,4.09-2.52,7.45c3.88-6.4,7.24-11.96,8.29-18.56c-2.83,4.96-3.08,8.6-5.66,11.01
		c0.7-4.2,7.31-13.93,5.03-28.74c-1.31-8.55-3.83-13.43-2.41-15.63c0.31,3.25,2.94,4.4,4.2,6.71c5.47,10.03,2.79,11.62,5.03,14.26
		c-0.42-7.24-0.94-14.37-5.45-21.29c4.3,2.41,6.19,5.87,8.81,8.7c-0.42-3.15-3.25-5.14-4.72-8.7c11.17,9.97,15.66,29.34,13.63,44.05
		c-1.68,12.21-10.35,20.07-18.77,27.79c-4.49,4.11-10.17,5.56-15.84,4.82c-6.4,3.04-8.5,9.33-12.27,13.74
		c-3.57,0-4.4-3.36-6.82-4.51c-0.96,1.28,0,2.62-0.42,2.2c0,0.07-0.06,0,0.09,0.1c0.03,0.13,0.02,0.21,0.02-0.09
		c2.12,0.21,1.33,3.07,6.29,4.61c6.8-1.7,6.31-13.92,18.35-13.63c2.62,0.06,11.62-2.95,15.84-8.39
		C769,519.22,785.43,505.8,781.42,485.96z M756.87,451.98c-0.5,0.5-0.95,0.27-1.36-0.31C756.44,450.46,757.26,451.59,756.87,451.98z
		"/> <path d="M735.16,510.5c36.11-51.15,5.88-63.48,15.63-79.39c-4.63,2.55-3.54,4.01-4.05,3.5c-0.06-0.32-1.02,0.59-1.3,2.16
		c0.88-0.68,1.56-1.2,1.31-2.11c0.24,0.4,0.78,0.87,0.68,1.16c-2.82,14.38,14.83,22.84-8.39,66.7c-3.12,3.12,11.15-27.03,8.91-50.76
		c-2.13,18.13-1.41,20.88-4.51,24.75c-0.38,0.38-0.42,3.61-2.1,9.86c-3.96,14.77-14.94,27.42-9.65,17.72
		c2.52-5.87,4.73-11.74,6.29-17.93c0.32-1.26,0.63-2.62-0.42-4.2c-2.83,12.48-7.97,23.6-13.53,34.5c1.26-1.32,6.4-8.74,6.4-7.87
		c4.36-1.84,9.81-15.01,1.57,4.4C733.49,512.39,734.43,511.55,735.16,510.5z"/> <path d="M751.84,510.92c1.36,0.73,2.64,0.44,3.57-0.1c3.41-2.01,7.11-4.21,9.23-7.45c5.09-7.79,7.13-16.47,5.87-25.8
		c-1.19,9.18-0.92,23.02-13.32,30.1c-1.26,0.72-2.41,1.99-4.3,1.36c5.66-6.82,9.96-14.05,10.7-22.86
		C760.77,497.42,748.79,507.36,751.84,510.92z"/> <path d="M757.92,518.89c1.36,1.15,3.15,0.94,4.82,1.47c6.19-5.14,10.49-11.22,12.69-18.88c-2.05,2.05-3.48,6.25-5.24,7.13
		c0,1.14-0.45,1.89-1.47,2.36c-0.08-1.12,0.55-1.85,1.47-2.36c0.54-3.58,3.3-4.65,2.62-9.65c-2.73,6.92-6.92,12.59-11.85,17.72
		c-6.62-2.54-0.76-2.67,1.68-6.61c-3.04,0.73-4.61,2.83-6.82,3.67c-0.84-0.1-1.15-1.47-2.62-0.73c0.63,1.15,0.84,2.31-0.31,4.2
		c3.04-1.68,4.93-0.52,6.82,0.52C759.29,518.58,758.03,517.53,757.92,518.89z M768.6,511.07c-0.46,2.1-2.9,3.72-2.75,3.37
		C766.51,512.87,767.13,511.81,768.6,511.07z M764.53,515.85c-0.34,1.47-1.16,2.15-2.52,2.94
		C762.01,516.9,763.69,516.69,764.53,515.85z"/> <path d="M723.21,507.57c4.3-4.2,6.29-9.75,8.6-15.63c0.31,1.15,0.52,1.57,0.94,2.83c1.78-9.75,5.45-18.35,5.98-27.9
		c-1.15,0.31-1.05,0.94-1.15,1.36c-0.43,3.5-4.12,16.53-5.87,19.93c-8.97,17.37-9.7,16.05-7.69,16.05c0.33,0,0.31,1.38-1.12,2.1
		c0,0.21,0,0.73,0,0.73C722.37,507.15,723.31,507.88,723.21,507.57z"/> <path d="M699.61,83.44c1.99-3.15,2.62-6.71,4.2-10.28c0.42,2.62-0.94,4.82,0.42,7.03c1.15-4.4,0.73-8.91,0.84-13.42
		c-3.15,3.46-2.62,8.39-5.24,12.06c-1.1-7.36,0.68-18.02,1.05-20.98C697.62,65.09,696.99,77.46,699.61,83.44z"/> <path d="M715.87,93.72c8.29-6.19,13.21-21.08,11.54-32.72c-0.73,11.33-3.46,22.55-11.96,31.57c-1.36-0.52-2.2-0.84-3.78-1.47
		C713.04,92.98,714.19,93.61,715.87,93.72z"/> <path d="M585.29,595.67c-0.21-1.36-0.94-2.1-1.68-2.1c-3.99,0.52-6.82-2-10.07-3.36c-3.77-1.58-7.76-1.99-12.17-3.04
		c1.05,2.94,3.35,2.74,5.03,3.04C577.89,592.27,573.36,595.24,585.29,595.67z"/> <path d="M689.12,109.76c-1.35-2.11-3.15-4.09-3.88-7.03c-0.73,2.52-0.63,4.61-0.31,6.5c1.89,3.15,3.78,6.29,7.76,6.92
		c0.63-0.73,2.01-0.52,2.31-1.36c0.33-0.94,0-1.57-0.52-2.2C691.95,113.12,690.39,111.75,689.12,109.76z"/> <path d="M772.5,469.5c2.1,10.28,0.52,19.82-2.2,29.37C775.23,491.73,776.59,475.06,772.5,469.5z"/> <path d="M690.38,100.12c1.57,2.62,3.15,4.72,5.14,6.5c1.78,1.78,2.31,4.82,5.14,5.87C701.5,108.19,696.46,102.11,690.38,100.12z"/> <path d="M686.71,55.96c0,0.57,0.03,1.17,0.04,1.77C686.77,57.07,686.77,56.45,686.71,55.96z"/> <path d="M686.92,68.97c1.49,8.39,2.52,11.96,5.35,14.58c-3.6-9.04-5.29-18.25-5.52-25.81C686.69,60.56,686.17,64.72,686.92,68.97z"/> <path d="M688.91,57.64c0.9-4.5,0.23-8.75,3.99-18.77c1.06-2.83,2.41-5.56,3.57-8.39C690.8,38.76,687.55,47.57,688.91,57.64z"/> <path d="M705.8,26.7c-1.68,3.04-2.62,16.78-1.78,24.96C704.02,43.38,706.22,35.3,705.8,26.7z"/> <path d="M688.18,84.91c-7.37-9.68-7.15-19.23-8.08-20.87C680.1,74,683.25,82.71,688.18,84.91z"/> <path d="M724.15,59.32c-2.05,18.89-7.34,22.31-7.34,25.07C720.17,81.36,725.48,68.01,724.15,59.32z"/> <path d="M749.85,429.64c-1.57-4.98-9.68-0.39-13.63,9.33c0.21,0.1,0.42,0.31,0.63,0.73C740.12,433.97,743.44,428.36,749.85,429.64z
		"/> <path d="M726.98,526.76c0.63,5.45,3.99,7.76,8.18,5.66c-1.15-1.78-2.94-2.18-4.4-2.62C729.08,529.3,728.66,527.39,726.98,526.76z"/> <path d="M531.7,152.97c1.17,3.56,3.04,6.82,5.45,9.75c-1.78-3.57-1.47-7.97-4.2-11.12C531.81,151.93,531.49,152.34,531.7,152.97z"/> <path d="M645.6,203.11c-1.78,2.31-2.31,5.14-3.67,7.66c0.31,0.21,0.63,0.42,0.84,0.63C645.54,207.63,650.03,203.34,645.6,203.11z"/> <path d="M697.83,88.37c-0.52-5.45-1.05-10.38-1.57-15.31C695.21,80.92,695.63,85.75,697.83,88.37z"/> <path d="M733.28,523.93c1.78,2.31,3.99,4.2,6.61,5.98C739.67,526.34,737.58,524.56,733.28,523.93z"/> <path d="M533.06,573.01c-1.68-3.25-3.04-6.29-5.87-8.29C528.66,568.82,530.44,571.33,533.06,573.01z"/> <path d="M591.48,519.84c-1.15-2.62,0.21-4.93-1.78-6.82c0.63,1.68-0.73,2.62-0.94,3.88C589.49,517.74,589.49,519,591.48,519.84z"/> <path d="M597.46,464.46c2.73,0.63,5.45,1.99,8.5,1.26C603.33,464.15,600.4,463.83,597.46,464.46z"/> <path d="M524.78,217.16c0.73,2.83-0.31,6.29,2.62,8.39C525.93,222.93,526.67,219.68,524.78,217.16z"/> <path d="M587.18,64.46c1.57,1.47,2.52,3.36,3.36,5.24c1.47-0.52,1.34-1.35,0.94-2.2C590.6,65.63,589.17,64.77,587.18,64.46z"/> <path d="M533.06,209.5c-0.84,2.62-1.68,5.24-2.52,7.87C532.43,214.96,534.01,212.55,533.06,209.5z"/> <path d="M589.28,98.12c1.68-4.93,1.68-5.03-0.21-6.92C588.96,93.51,588.75,95.5,589.28,98.12z"/> <path d="M494.68,491.21c-0.31-2.41,0.31-4.2-1.26-6.61C492.9,487.33,492.48,489.11,494.68,491.21z"/> <path d="M528.34,331.06c0.63,2.52,1.47,4.3,3.15,5.66C531.6,334.41,530.55,332.74,528.34,331.06z"/> <path d="M568.09,479.98c-1.89,0-3.15,1.15-4.93,1.89C566.73,482.19,566.73,482.19,568.09,479.98z"/> <path d="M575.54,87.32c1.57-1.36,3.99-1.47,5.14-3.36C578.48,84.28,576.69,85.22,575.54,87.32z"/> <path d="M592.43,84.28c1.68-1.36,1.47-2.62,0-3.99C592.84,81.55,590.64,82.81,592.43,84.28z"/> <path d="M587.29,102.32c-0.94,1.57-0.42,3.15-0.84,4.61C588.02,104.31,588.02,104.31,587.29,102.32z"/> <path d="M536.94,165.77c-1.26,1.57,0.31,2.83,0.31,4.2C537.68,168.6,539.15,167.13,536.94,165.77z"/> <path d="M531.91,225.45c-0.8,0.8-1.15-0.01,2.73,4.93C534.53,228.17,533.9,226.28,531.91,225.45z"/> <path d="M685.03,514.49c1.26,0.42,2.2,2.31,4.4,1.36C688.07,514.38,686.82,513.86,685.03,514.49z"/> <path d="M601.03,361.05c0.42-1.89,1.05-3.25-1.15-4.51C600.19,358.33,600.08,359.48,601.03,361.05z"/> <path d="M534.64,101.37c1.26-1.47,0.52-2.2-0.52-3.15C532.54,99.59,533.59,100.33,534.64,101.37z"/> <path d="M632.17,141.44c0.73,1.15,1.78,1.26,3.57,1.05C634.27,141.02,633.43,140.6,632.17,141.44z"/> <path d="M656.19,301.9c-0.1,1.36-0.31,2.31,1.15,2.83C657.66,303.58,657.66,302.64,656.19,301.9z"/> <path d="M512.82,537.67c0.63-0.94,0.1-1.68-0.73-2.41C511.77,536.51,511.77,537.25,512.82,537.67z"/> <path d="M565.47,347.21c-1.47-0.52-1.99-1.47-3.46-0.94C562.85,347.1,563.48,347.94,565.47,347.21z"/> <path d="M499.71,501.17c0.42-1.15,0.21-1.99-0.94-2.52C498.24,499.81,498.66,500.54,499.71,501.17z"/> <path d="M529.5,495.61c0-1.15-0.63-1.68-2.1-1.99C527.92,494.88,528.24,495.82,529.5,495.61z"/> <path d="M637.63,210.55c-0.52-1.47-0.52-1.47-2.73-2.2C635.74,209.5,636.47,210.24,637.63,210.55z"/> <path d="M716.71,84.28c-1.26,0.31-1.57,1.36-1.99,2.31C715.66,86.06,716.71,85.54,716.71,84.28z"/> <path d="M523.31,555.71c-0.73-1.15-1.05-2.31-2.31-2.62C521.32,554.13,521.84,555.18,523.31,555.71z"/> <path d="M747.44,446.42c-0.6,0-0.21-0.3-0.21,2.94C747.51,449.36,747.44,449.77,747.44,446.42z"/> <path d="M579.53,62.99c-0.52-0.94-1.15-1.26-2.1-0.52C578.06,63.41,578.79,63.51,579.53,62.99z"/> <path d="M559.81,539.66c0.84-0.42,1.15-0.94,0.52-2.1C559.6,538.3,559.07,538.72,559.81,539.66z"/> <path d="M563.37,545.11c-0.1-1.36-0.73-1.68-1.68-2.1C561.59,544.48,561.91,545.11,563.37,545.11z"/> <path d="M516.18,545.64c0.21-0.84-0.21-1.15-1.05-1.57C515.34,545.11,515.55,545.43,516.18,545.64z"/> <path d="M526.14,562.94c-0.1,0.94,0.52,1.36,1.15,1.68C527.3,563.99,527.09,563.36,526.14,562.94z"/> <path d="M519.32,550.67c0.73,1.26,0.84,1.99,1.78,2.31C521.21,552.14,520.69,551.62,519.32,550.67z"/> <path d="M501.08,507.67c1.21,1.81,1.74-0.86,0.21-1.05C500.87,506.94,500.87,507.36,501.08,507.67z"/> <path d="M766.63,506.31c0.84,0,0.94-0.42,0.94-1.26C767.26,505.57,766.94,505.89,766.63,506.31z"/> <path d="M721.53,506.62c1.48-0.37,0.95-0.56,1.26-1.99C722.79,504.86,721.41,505.52,721.53,506.62z"/> <path d="M555.09,484.07c0.66-0.33-0.07-1.61-1.26-0.42C554.25,484.28,554.67,484.6,555.09,484.07z"/> <path d="M494.78,478.73c-0.31,1.05-1.26,1.36-0.42,2.41C495.1,480.61,495.73,480.09,494.78,478.73z"/> <path d="M637.94,140.91c0.42,0.42,0.94,0.42,1.36,0C638.57,140.28,638.57,140.28,637.94,140.91z"/> <path d="M666.36,470.65c0.52,1.26,1.05,1.57,1.89,1.36C668.04,471.07,667.41,470.96,666.36,470.65z"/> <path d="M527.92,326.97c0.84-0.84,0.52-1.68,0-2.62C527.19,325.39,527.3,326.23,527.92,326.97z"/> <path d="M536.63,236.46c0.42-0.84,0.52-1.47-0.52-1.78C535.37,235.51,536,235.93,536.63,236.46z"/> <path d="M153.72,216.33c0.87-1.74,1.93-1.44,3.02-2.08c0.66-0.39,0.85-1.21,0.76-1.59c-1.99,0.52-4.2,0.94-6.08,1.36
		c-1.78,2.61-1.78,5.13-1.05,8.59C150.36,221.96,153.83,218.2,153.72,216.33z"/> <path d="M278.11,184.54c-2.83-0.52-4.51,0.21-6.19,1.47C273.81,185.8,275.9,186.74,278.11,184.54z"/> <path d="M163.89,210.87c-2.19,0.31-4.69-0.41-6.26,1.85C160.18,213.93,161.93,212,163.89,210.87z"/> <path d="M157.6,212.75c0.01-0.01,0.02-0.03,0.03-0.04C157.45,212.62,157.46,212.62,157.6,212.75z"/> <path d="M271.29,217.16c-1.78-0.63-3.67-1.15-5.56,1.05C267.78,218.52,269.43,217.36,271.29,217.16z"/> <path d="M289.43,179.4c1.78,0.1,2.94-0.84,4.2-2.1C292.05,177.31,290.62,178.22,289.43,179.4z"/> <path d="M267.93,185.28c-1-0.55-1.35-0.13-1.78,0.73C267.09,186.54,267.62,186.22,267.93,185.28z"/> <path d="M177.42,206.88c-1.36-0.31-2.31-0.52-2.41,1.05C176.05,208.35,176.7,207.72,177.42,206.88z"/> <path d="M170.5,210.13c-0.94-0.94-0.94-0.94-1.68,0C169.32,210.53,169.95,210.47,170.5,210.13z"/> <path d="M445.28,119.2c0.94,0,1.89,0.42,2.83-0.52C446.87,117.23,446.18,118.43,445.28,119.2z"/> <path d="M441.92,176.89c1.45-0.67,1.88-1.2,2.41-2.72C442.87,174.89,441.82,175,441.92,176.89z"/> <path d="M142.32,258.76c-0.06,1.58,0.94,3.8,1.43,5.17c3.42-0.28,7.72-0.1,7.14-5.24C150.28,253.23,142.52,253.33,142.32,258.76z
		 M146.38,261.84c0-0.74,0.1-1.25,0.1-1.57c0.1,0-0.53-0.98-1.36-0.31c-0.4,0.4-0.98,0.02-0.92-0.2c0.42-2.44,1.05-3.26,2.71-3.16
		C149.64,256.59,150.66,261.44,146.38,261.84z"/> <path d="M146.69,254.08c2.53-2.43,3.55-5,1.05-7.5C141.89,240.72,134.99,254.7,146.69,254.08z M144.56,247.24
		c3.64-0.06,3.95,5.26-0.28,5.26C141.07,252.15,141.49,247.29,144.56,247.24z"/> <path d="M146.48,243.27c1.89-2.1,0.42-4.3,0-6.4c-3.71,0-5.27,0.37-7.87,1.57c0.21,1.68,2.71,0,2.83,1.78
		c0.1,1.55-2.48,2.09-1.49,4.15c0.05,0.11,2.22-1.26,2.33-1.32C143.7,244.14,145.23,244.53,146.48,243.27z M143.23,239.08
		c2.37-0.28,2.9,0.06,1.57,3.46C143.34,241.49,142.92,240.44,143.23,239.08z"/> <path d="M195.57,248.62c-3.88-0.66-6.64-0.26-8.61,1.21c-0.28,0.2-1.69,1.43-1.38,1.43C189.97,252.21,197.11,252.23,195.57,248.62z
		"/> <path d="M671.5,23.55c-1.07,0.84-1.82,2.03-2.25,3.31C668.57,28.85,671.5,25.74,671.5,23.55z"/> <path d="M672.97,21.35c-0.62,0.71-1.47,1.42-1.36,2.31C672.55,23.34,672.66,22.61,672.97,21.35z"/> <path d="M167.67,479.25c0.94,1.25,1.25,2.94,3.15,3.78c-1.52-5.61-0.43-7.69,6.4-10.07c0.99,0.36,2.27,1.6,3.88,0.63
		C175.31,468.66,167.33,473.2,167.67,479.25z"/> <path d="M189.06,473.69c1.12,0.88,1.9,0.73,3.15,0.1C191.16,472.64,190.22,472.54,189.06,473.69z"/> <path d="M295.41,505.05c0.84,1.15,1.78,1.68,3.36,1.57C297.82,505.05,296.77,504.95,295.41,505.05z"/> <path d="M286.08,474.32c0.74-0.31,1.56,0.31,1.89-0.84C287.02,472.99,286.43,473.32,286.08,474.32z"/> <path d="M290.27,502.53c0.42,0.52,0.94,1.15,1.78,0.84C291.42,502.43,291.42,502.43,290.27,502.53z"/> <path d="M279.78,471.17c1.05,0.94,1.36,0.84,1.47-0.31C280.78,470.39,280.31,470.75,279.78,471.17z"/> <path d="M477.37,450.83c0.71,1.22,2.06,1.79,3.45,2.42C478.95,450.83,478.95,450.83,477.37,450.83z"/> <path d="M486.39,455.97c0,1.26,0,1.26,1.57,1.36C487.86,456.39,487.02,456.28,486.39,455.97z"/> <path d="M470.87,534.52c2.41,1.57,3.88,1.05,5.77-0.1C474.65,534.21,473.18,534,470.87,534.52z"/> <path d="M154.77,512.6c0.38,1.22,0.84,2.12,1.26,3.36c0.53,0.35,1.03,0.23,1.25,0.23c3.29-0.43,6.04-0.84,6.05-4.31
		C163.34,504.72,153.14,505.49,154.77,512.6z M159.17,513.96c-1.04,0,0.13-1.5-0.73-1.89c-0.71-0.81-1.39,0.78-2.33-0.31
		c0.23-1.92,1.05-2.94,2.96-2.94C162.02,508.6,162.69,513.57,159.17,513.96z"/> <path d="M158.97,506.32c8.27-9.07-7.86-12.41-6.19-3.25C153.23,505.48,154.88,506.42,158.97,506.32z M156.87,499.39
		c3.62,0,3.6,5.24,0.1,5.24C153.54,504.86,153.41,499.63,156.87,499.39z"/> <path d="M158.54,495.4c1.7-2.09,0.48-4.16-0.1-6.5c-2.94,0.1-5.45,0.63-7.87,1.47c0.52,1.92,2.4,0.49,2.94,2.2
		c0.41,1.65-2.29,1.64-1.47,4.09c1,0,1.4-0.96,2.41-1.26C155.92,496.14,157.36,496.85,158.54,495.4z M155.4,491.1
		c0.63-0.21,0.94-0.21,1.47-0.31c0,0.63,2.21,1.67,0.1,3.78C155.5,493.83,155.29,492.67,155.4,491.1z"/> <path d="M174.17,521.51c1.57,0.22,3.25,1.58,5.03-0.51C177.02,519.43,175.82,521.84,174.17,521.51z"/> </g> </svg> 