<?xml version="1.0" encoding="utf-8"?> <!-- Generator: Adobe Illustrator 23.0.1, SVG Export Plug-In . SVG Version: 6.00 Build 0)  --> <svg version="1.2" baseProfile="tiny" id="Layer_1" xmlns="http://www.w3.org/2000/svg" xmlns:xlink="http://www.w3.org/1999/xlink" x="0px" y="0px" viewBox="0 0 900 600" xml:space="preserve"> <g> <path d="M401.99,59.88l-0.1-0.1C401.89,59.97,401.87,59.92,401.99,59.88z"/> <path d="M380.02,586.86c0.01,0,0.02-0.01,0.03-0.01c0,0,0,0,0,0L380.02,586.86z"/> <path d="M429.91,45.06c-4.16-5.12-1.42-1.39-20.86-6.65c-9.61-2.6-12.42-1.76-40.41,1.51c-7.51,0.88-7.08,3.29-29.73-1.61
		c-8.55-1.85-8.58,3.44-15.12,0.3c0.81-2.92,0.3-5.95,0.2-8.97C323.52,14.7,313.5,12.97,313.5,9.79
		c0.68-12.07-15.66-12.9-20.56-2.92C286.13,8,280,8.68,275.71,16.85c-2.75,5.25-2.7,7.22-4.94,22.17c-0.1,0.02-9.6,1.84-9.98,1.71
		c-3.34-1.89-10.15,3.54-21.87,1.81c-16.1-2.37-7.78-0.3-19.75-1.41c-34.71-3.21-39.31,2.37-55.53,2.02
		c-0.5,0.81-0.81,1.61-1.41,1.91c-2.72,1.61-3.19,4.23-3.22,6.95c-0.11,9.54,2.78,9.77,5.74,14.51c5.36,9.7,10.75,14.83,14.81,20.86
		c7.39,10.97,20.96,24.11,31.65,28.22c7.08,2.72,8.77,6.2,14.51,8.47c11.39,4.49,10.85,18.29,18.64,32.35
		c0.86,1.56,1.49,12.78,5.04,21.67c0.69,1.72,2.01,3.23,2.12,5.04c1.16,19.31,8.43,27.94-3.63,48.27
		c-5.24,8.84-9.34,14.78-10.48,26.3c-3.37,33.94-15.2,35.48-9.27,126.08c0.8,12.27-2.88,14.36-3.02,27.21
		c-0.17,14.89-5.63,14.07-8.57,29.63c-0.23,1.2-1.02,2.42-0.91,3.53c0.45,4.34,0,8.57-0.4,12.8c-1.84,19.47,2.71,32.16,2.62,42.73
		c-0.09,10.22-0.37,8.97,1.01,32.25c0.48,8.03-2.42,4.63-3.63,6.35c-2.26,2.63-2.29,5.66-4.03,7.86
		c-9.41,11.9-4.59,9.95-10.58,16.12c-5.35,5.51-3.31,8.91-6.85,10.78c-0.2,4.33-0.2,8.57,1.11,12.7c-7.87,2.62,22.31,11,33.16,2.12
		c0-0.71-1.21-0.3-0.91-1.41c5.01-3.13,3.42-6.65,2.72-9.98c4.64-1.91,7.46-5.54,10.08-9.37c0.4-4.64,2.12-9.47-1.61-13.5
		c-0.09-3.32,1.98-13.88-3.12-16.63c0.27-6.48,3.44-15.9,6.35-39.51c2.21-17.9,10.35-19.68,11.09-38.6
		c0.24-6.21,1.8-12.09,1.71-18.24c-0.03-1.81,0.22-3.42,0.91-5.04c3.09-7.23,4.66-14.94,7.36-22.27c2.23-6.06,2.37-16.6,3.43-20.96
		c7.1-29.43,17.58-39.45,23.99-76.09c0.49-2.82,1.21-5.64,3.02-7.96c1.51,0,2,0.91,2.12,2.12c0.86,8.58,3.8,16.74,5.64,25.09
		c6.84,31.09,8.21,17.07,12.9,44.55c0.69,4.03,1.89,8.16,1.71,12.3c-0.24,5.74,0.62,11.28,2.32,16.63
		c5.56,17.56,5.52,19.7,8.87,22.78c-6.02,37.31,4.64,47.52,7.76,73.47c4.04,33.58,5.79,33.43,5.14,40.31c0,1.73-0.69,4.46,2.02,4.94
		c3.93-2.42,2.92-7.46,5.54-10.68c2.82-0.91,5.74-0.4,8.36-0.91c4.49,2.91,0.75,4.19,4.84,8.97c3.76,4.39,0.92,1.14-6.75,2.12
		c-3.97,0.5-6.45,4.19-3.93,5.54c6.29-4.42,13.1-0.65,13.1-4.64c7.03,5.57,4.44,7.48,7.66,12.5c9.91,15.44,11.62,16.48,11.99,19.15
		c0.28,2.01,0,3.71-2.29,4.32c0.05,0.03,0.13,0.06,0.27,0.11c-3.43,2.82-7.26,4.21-11.79,4.03c-8.92-0.35-16.87,1.36-20.76-6.75
		c-0.65-3.09,2.1-7.04-3.12-8.36c-3.93-1-7.4-2.51-8.57-6.95c-0.11-0.4-0.91-0.6-1.11-1.01c-1.01-1.61-1.5-3.32-1.11-5.24
		c1.71-8.34,3.55-3.13,5.14-21.26c0-0.91,0.4-2.02-0.91-2.52c-2.32,0.93-0.96,9.56-6.95,24.39c-1.6,3.95,1.23,5.15,2.62,7.86
		c2.18,4.25,5.44,6.95,10.58,6.85c0.4-0.1,1.01,0.2,1.31,1.01c0.4,1.31-1.02,2.82-0.5,4.64c1.29,4.54,4.03,7.47,8.67,8.57
		c7.62,1.8,19.77,3.17,25.9-1.71c2.47-1.97,4.13-0.05,5.14-5.34c0.4-2.12,0.1-4.23-1.11-6.05c-2.22-3.33-4.32-6.87-6.75-9.98
		c-7.36-9.39-3.75-13.4-12.4-20.26c-6.08-4.82-1.21-10.4-7.26-13.2c0-5.6,1.52-2.68,0.4-13c-0.63-5.85,2.73-21.75,2.52-33.26
		c-0.14-7.74,4.84-24.89,1.21-48.68c-1.4-9.17-6.35-23.93-5.44-30.94c1.1-8.57,1.45-17.35,3.33-25.8c0.29-1.31,0-2.32-0.91-3.22
		c3.58-16.95,1.38-32.8,2.32-42.83c2.6-27.76-0.36-48.69-2.22-54.52c-7.58-23.81-7.16-28.03-9.27-37.49
		c-4.12-18.48-12.58-23.4-9.57-40.01c10.74-59.36,15.2-51.23,24.99-70.34c9.68-18.9,22.79-17.12,45.05-44.55
		c6.31-7.78,23.55-36.27,23.68-36.58c-0.5-2.92-1.01-6.05-1.41-8.67C431.22,44.46,430.41,45.47,429.91,45.06z M322.17,58.67
		c2.12-0.5,2.22-2.72,3.43-4.13c0.91-1.51-0.71-2.22-1.31-3.33c0.47-0.7,1.81-2.29,2.72-3.43c-0.22,3.09,1.53,4.99-1.41,6.75
		c0.32,2.76-2.13,6.55-2.82,7.24C321.97,60.28,321.97,60.28,322.17,58.67z M321.93,36.26c-0.05,0.65-0.57,0.99-1.26,1.21
		C320.71,35.99,322.06,34.52,321.93,36.26z M311.39,9.19c0-0.94-3.19-0.66-3.86-2.32c-0.05-0.15-0.39-0.1,2.84-0.1
		C311.19,7.17,311.29,8.08,311.39,9.19z M306.25,16.14c0.5-1.91,0.2-4.13,2.22-6.15C308.77,12.81,307.46,14.53,306.25,16.14z
		 M306.89,18.3c-0.26-0.26-0.01-1.39,1.07-1.75C308.42,17.57,307.28,18.62,306.89,18.3z M309.57,4.95c0,1.43-1.88,0.67-2.2,1.76
		c-0.63,0.63-2.31,1.17-3.65,0.54c-0.47-0.66,0.13-0.99,0.36-1.53c0.04-0.12-0.92-0.6-1.02-0.66c-0.13-0.06,0.68-0.92,1.35-1.94
		c0,0,0,0,0.01,0C306.35,3.14,308.26,3.24,309.57,4.95z M303.39,12.7c-0.45-1.27-3.59,10.93-2.68,2.73c0.3-2.69-0.15-2.71,0.03-2.71
		c1.44-0.36,1.15-2.48,2.19-3.24c1.03-0.3,1.69,0.11,2.72,0.4c-0.11,2.8-0.91,5.43-2.72,7.76C302.63,15.71,303.97,14.34,303.39,12.7
		z M304.41,3.13c-2.05,0.52-3.83,1.55-4.82,3.42c-2.69,0-1.1,0-3.83,0C297.91,2.73,300.88,2.26,304.41,3.13z M295.97,13.12
		c0.3,0.5,0.4,1.01,0.1,1.61C295.18,14.02,295.16,14.03,295.97,13.12z M295.26,9.29c-0.2,0.91-0.3,2.02-1.61,3.02
		C292.98,10.34,293.28,8.3,295.26,9.29z M291.53,9.29c0.81,3.93,2.32,7.66,1.81,12.19C290.4,17.57,287.55,11.99,291.53,9.29z
		 M280.85,13.4c0.19,0.56-0.46-0.34,0.91,5.46C278.33,15.44,279.31,14.6,280.85,13.4z M273.57,30c0.41,0.45,0.61,0.88,1.33,0.76
		c-0.1-1.41-1.31-2.62-1.01-4.03c0.5-0.71,1.01,0.4,1.61-0.1c0.13-1.6-3.41-3.08,0.1-4.84c0.3-1.11-0.5-2.12,0.3-3.02
		c1.41,1.31,2.82,2.52,4.23,3.83c0.58-0.19,0.78-1.13,0.68-1.23c-2.23-0.98-2.4-3.19-2.89-4.82c1.01,1.61,2.82,2.72,3.02,4.84
		c3.63,1.21,1.91-6.16,0-8.06c0.1,0,0.48-1.25,2.33-2.03c1.16,1.16,0.39,4.45,1.31,6.25c0.87,1.69,4.74,5.28,4.26,4.48
		c-1.77-3.69-3.06-7.66-3.96-11.64c2.38-0.65,2.97-0.3,2.02,3.63c1.51,2.72,2.42,5.74,4.43,8.36c1.71,0.6,3.73-0.71,5.74,1.71
		c-1-5.01,0.8-9.94,0-14.51c1.11-1.11,2.21-0.1,3.12-0.2c0.75,1.21,0.46,2.16,0.33,3.16c-0.94,0.44-0.56,1.6-1.14,2.18
		c-0.12-0.97-0.51-3.18-0.81-2.02c-1.11,2.82-0.6,5.74-0.81,8.47c0.37,0.86,1.24,0.93,1.81,1.31c3.82-1.07,4.76-5.88,5.26-4.41
		c0.17,0.49-0.39,1.49-0.05,1.49c1.97,0.01,2.77,1.8,6.48-7.66c3.81,0.9-3.46,6.31-2.22,8.26c1.71-0.3,1.41-2.42,2.82-2.92
		c1.11-1.39,1.14-1.95,1.61-3.12c3.16,0.92,4.84,2.7,4.64,6.05c-1.11,0-0.71-1.71-2.52-1.61c-0.74,0.19-0.51,1.41-1.81,2.72
		c-0.35,0.71-0.19,1.31-0.04,1.31c1.23,0.13,1.07-1.51,2.36-1.71c-0.5,2.48,2.11,4.15,1.51,7.16c0.05-0.07,0.09-0.14,0.14-0.2
		c1.88-2.69,0.96-7.65,1.67-6.93c3.29,3.69-2.13,7.67-0.71,11.17c1.8-0.9,1.25-1.44,1.81-3.12c2.71,2.71-3.86,4.95-1.51,8.18
		c0.75,1.03,1.61,0.25,1.49,0.61c-0.8,7,2.75,13.58,0.73,18.11c-2.77,6.19-3.19,17.86-8.87,25.5c-5.9,7.94-19.2,9.49-27.7,1.06
		c-5.31-5.27-5.1-9.87-9.68-22.22c-1.69-4.55-1.22-9.37-1.31-14.11c-0.05-2.52,0.5-4.43,2.72-5.64c0.43-1.81-0.2-3.77-0.2-4.64
		c-1.12-0.2-0.73,1.01-1.71,1.01C274.6,34.53,271.07,27.23,273.57,30z M265.63,103.82c-3.26-2.27-6.59-4.47-9.47-6.85
		c-14.26-10.55-24.83-7.05-29.43-11.89c-10.99-11.6-18.86-13.66-26-16.83c1.15-1.66,17.76-7.67,40.08-5.08
		c4.39,0.51,12.78-0.56,18.57,3.58c14.03,10.04,17.76,3.72,19.65,10.88c0.69,2.62,2.91,4.64,3.22,7.66
		c0.58,5.64-0.5,10.65-4.03,15.11C276.48,102.6,272.78,101.74,265.63,103.82z M273.29,107.95c-1.59-0.71-3.44-0.33-4.13-2.52
		c1.37-1.07,2.9-0.63,4.42-0.81C273.58,104.87,274.33,105.45,273.29,107.95z M275.31,66.73c-1.11-1.41-1.41-3.12-1.51-4.94
		C274.9,63.31,275.71,64.82,275.31,66.73z M273.09,37.41c0.81,0.59,1.41,1.5,2.12,2.61C272.77,40.3,272.27,38.56,273.09,37.41z
		 M272.08,57.56c-1.71-2.22-1.71-2.22-1.21-5.34C273.29,53.63,271.58,55.85,272.08,57.56z M239.73,137.98
		c-1.23-4.41-4.16-12.1-8.87-14.21c-8.98-4.01-16.95-9.64-25.5-14.41c-6.46-3.6-11.88-8.88-16.43-14.51
		c-0.45-0.56-23.77-32.14-24.19-32.35c-4.03-2.42-3.76-6.55-4.23-10.38c-0.43-3.52,1.31-5.65,4.74-6.15
		c39.79-5.72,44.39-3.72,58.86-2.22c7.62,0.79,11.4-0.15,21.97,1.81c5.22,0.97,2.59-1.38,24.39-4.44c0.3,2.12,0.5,3.63,0.3,4.84
		c-1.03,2.33-3.12,4.81-3.12,7.26c-1.78-0.39-3.15-2.23-5.34-2.02c1.41,2.82,3.75,1,6.65,6.55c4.54,8.67,3.47,9.79,5.95,11.09
		c1.22,0.64,1.23,1.89,1.01,2.12c-16.22-1.99-15.34-9.96-28.42-10.18c-14.63-0.25-31.22-3.23-50.59,6.45
		c-6.3-2.77-3.89-1.99-9.67-3.73c0.1,1.31,1.21,1.31,1.81,1.61c4.32,2.14,8.57,4.22,13,5.95c20.17,7.84,28.15,23.85,30.94,23.68
		c0-0.1-2.01-3.02-3.53-5.44c15.17,3.79,5.11-1.2,30.44,12.8c2.01,1.11,3.75,2.39,5.34,3.93c0.58,0.57,1.23,1.16,0.59,2.25
		c-0.37,0.75-3.12-3.43-7.47-5.08c-1.83-0.7,4.23,3.82,6.97,7.67c-0.54,3.02-6.86,25.34-9.37,32.85c-1.44,4.32-3.62,8.47-5.54,12.7
		c-0.56,1.22-1.02,2.39-2.52,2.93C247.7,154.35,243.25,150.59,239.73,137.98z M235.8,548.56c-1.01,3.12-0.81,6.25,1.61,8.57
		c1.01,6.49-1.46,16.43-8.06,16.43c-0.1,0.97-1.31,1.22-1.51,1.91c0.46,4.56,1.23,6.27-2.52,9.57c-6.84,6.03-19.48,3.86-28.22,1.71
		c7.37-2.91,7.65-1.82,16.51,0.4c0.43,0,0.3-0.14,0.83-0.4c-1.81-3.22-6.45-1.51-7.86-4.74c-8.88,0.27-9.59,2.48-9.99,2.08
		c-0.6-3.52-0.8-7.02-0.7-10.54c2.99-4.18,5.3-8.96,9.44-12.58c0.46-0.46,8.23,1.51,17.06,0.58c0.6,0,0.92-0.85,1.11-1.41
		c-2.12-2.42-5.34-2.02-8.16-2.32c-6.33-0.67-8.58,1.52-8.58,1.18c-0.44-0.92,0.09-1.36,0.72-1.99c5.91,0,12.91,0,19.05,0
		c-0.63-4.8-13.43-3.22-18.24-2.62c-0.33-5.64,13.46-3.07,18.75-0.81c1.01-1.71,0.01-2.44-1.11-3.02
		c-5.12-2.68-11.54-2.12-13.4-2.12c2.6-3.01,2.59-7.11,4.23-9.57c3.33-0.4,6.75,0.91,10.18,0.2c2.72,2.92,3.83,6.75,5.85,8.87
		C234.19,548.97,234.79,548.16,235.8,548.56z M233.89,542.72c0.2,0,0.3,0.3,0.5,0.4c0,1-1.11,0.77-1.11,0.3
		C233.2,543.06,233.37,542.72,233.89,542.72z M284.48,326.14c-8.99,31.97-9.66,31.73-11.09,34.97
		c-14.63,33.27-7.4,31.96-17.23,63.49c-2.54,8.16-5.6,16.23-6.55,24.79c-0.58,5.24-0.81,10.48-1.71,15.72
		c-2.55,14.86-4.65,8.02-8.87,31.65c-1.8,10.08-1.6,12.97-4.77,31.06c-2.38,13.6-1.17,14.16-2.29,11.92
		c-0.57-1.47-0.24-2.95-1.53-4.18c-0.91,1.01,0.1,2.32-0.6,3.43c-1.21-0.2-1.21-1.81-2.92-2.42c-6.94-0.53-5.44-0.63-5.44-3.02
		c0-28.87-3.16-54.86-3.41-66.31c-0.21-9.47,1.35-28.63,4.13-35.58c3.22-8.05,3.52-5.49,4.74-19.95
		c1.09-12.95,5.65-17.94,3.33-29.23c-0.04-0.15-2.62-56.1,0.1-62.89c8.51,6.47,17.85,3.13,29.33,7.05
		c4.55,1.55,18.44-1.42,25.3-4.23C285.58,323.8,284.75,325.17,284.48,326.14z M353.5,418.66c12.7,40.23,0.82,86.1,1.51,104.81
		c0.15,3.93,0.2,7.86-0.5,11.99c-3.02,0.2-6.35-0.1-9.27,1.61c-1.41,1.41-1.29,3.68-2.61,5.44c-0.18-2.91,0.16-6.32-0.4-8.57
		c-0.53,0.63,0.21,1.1-1.01,2.32c-4.75-17.69-0.93-23.63-9.2-55.13c-9.96-37.91,2.71-54.33-7.93-57.95
		c1.43-6.66-3.78-10.05-5.37-22.22c-1.21-9.25,1.86-23.05-10.81-54.73c-4.71-11.78-3.54-13.69-6.9-22.11
		c10.58,4.33,21.37,2.92,32.05,2.92c3.02,0,6.15,0.11,9.17,0c11.34-0.4,15.73-4.77,15.85-3.6c0.68,6.59-1.05,13.22-0.84,21.64
		C358.3,387.92,350.96,410.61,353.5,418.66z M356.34,287.24c1.01,3.64,2.08,27,2.12,33.06c0,0.26-12.81,5.25-23.08,4.84
		c-11.51-0.46-22.69,0.34-34.27-3.43c-1.7-4.62-1.71-9.73-4-14.25l0.06,0.03l0.01,0.01c0.05-0.2,0-0.11-0.13-0.11
		c-0.27,0-1.74-1.68-3.19-2.01c-1.21,0.5-2.32,1.31-3.73,1.41c-1.75,3.85-2.38,8.24-3.83,12.9c-9.37,2.82-18.73,5.29-28.72,3.12
		c-3.83-0.83-7.77-0.87-11.59-1.91c-3.51-0.96-5.9,2.29-15.62-5.24c0-4.03,1.12-10.16,1.61-14.21c2.37-19.35,4.2-15.93,7.86-36.08
		c0.2-1.11,0.3-2.22,1.01-3.53c7.26,0.3,14.61,1.01,22.07,0.3c-0.66-0.06-11.29-0.9-22.17-1.91c0.51-1.54,0.5-6.65,1.41-9.37
		c16.68-0.39,32.45,8.33,51.9,7.16c20.58-1.24,16.05,1.4,44.85-3.43c2.42-0.41,4.84-1.11,7.26-0.6
		C350.09,264.87,353.23,276.08,356.34,287.24z M337.19,196.94c-7.33,31.18,7.21,29.49,8.57,53.41c-7.06,0.73-29.02,4.69-29.02,4.12
		c0.91-3.52,4.9-7.96,3.88-7.36c-2.46,1.45-2.64,1.64-6.1,7.17c-54.95,1.33-53.38-7.29-70.11-7.29c-1.84-0.41-1.68-0.58,0.88-5.01
		c8.98-15.54,11.86-17.86,13-30.23c1.75-18.97-4.52-25.21-1.48-25.24c0.46,0,22.53,7,38.2,4.32c3.59-0.61,5.51-0.27,8.04,0
		c20.03,2.13,35.06-4.06,36.47-3.28C338.8,190.59,337.92,193.82,337.19,196.94z M340.92,182.93c-11.49,2.45-5.64,3.4-26.3,5.44
		c-3.61,0.36-9.68-2.14-23.68-1.01c-12.09,0.98-23.78-1.51-35.58-4.43c-2.12-6.85-3.53-13.81-6.15-20.46
		c16.56-23.24,18.29-52.96,20.32-53.34c1.44-0.27,2.51,0.54,3.87,0.94c-0.3,3.43-0.59,6.75-0.91,9.98
		c-1.01,10.3,3.8,20.42,14.01,20.66c8.46,0.2,15.39,2.81,23.73-0.77c8.48-3.63,15.39-12.74,13.76-23.32c-0.14-0.92-0.85-3.9-0.2-4.1
		c12.96-4.06-2.48,0.76,17.03,45.12c0.06,0.57-2.24,4.25-0.71,3.39c2.44-1.37-0.41-4.74,6.26,2.76
		C343.74,170.14,341.61,181.55,340.92,182.93z M322.88,106.74c2.32,0.71,4.74,0.2,6.65,2.42c-1.89,1.32-3.74,1.23-6.05,1.41
		C322.47,109.48,322.78,108.21,322.88,106.74z M403.6,94.65c-9.12,8.12-17.27,17.32-28.12,23.99c-11.06,6.8-23.82,32.86-28.32,40.72
		c-1.21-1.11-2.42-2.12-3.63-3.22c1.12-3.2,5.09-11.37,2.12-11.79c-1.48,2.43-1.79,6.3-3.43,9.17c-1.31-0.81-2-2.22-1.91-3.53
		c0.14-2.22-0.8-4.13-1.61-5.95c-6.01-13.43-7.77-35.07-7.55-35.28c1.17-1.16,3.17,0.22,4.11-1.22c0.1,0.1-5.47-2.3-12.79-3.11
		c-1.96,1.9-0.49,4.19-1.25,6.46c-0.14,0.43,0.67-0.05-8.22,2.41c-2.99,0.83-5.2,0.97-7.46,3.22c5.34-0.4,10.28-2.32,15.62-3.43
		c0.91,3.73,0.39,7.25-0.6,10.58c-2.67,8.92-2.8,9.93-12.6,13.61c-3.43,1.29-6.95,2.12-10.58,2.32c-1.01-1.21-0.2-2.82-1.11-3.93
		c-1.5,0.77-1.19,2.41-1.72,3.63c-0.22,0.51-16.24,2.29-18.94-14.92c-0.58-3.7,0.41-13.28,0.49-13.28c3.49,0.73,6.39,2.7,9.69,3.2
		c3.23,0.5,5.34,3.93,9.67,3.43c-4.36-3.05-13.94-6.3-19.25-8.87c0.34-4.74,0.26-4.18,0.39-4.31c0.84-0.83,3.77-1.31,3.78-2.19
		c0.01-0.46-0.79-1.15-0.51-1.49c4.5-4.03,5.31-9.39,4.81-15.49c15.54,7.77,13.23,6.31,24.39,1.51c1.2-0.52,2.32-1.21,3.02-2.42
		c1.11,0.6,0.91,1.61,1.01,2.42c0.53,4.53,2.38,8.67,3.12,13.2c0.38,2.32,2.22,3.73,4.33,5.64c-0.93-3.71-2.49-6.24-1.51-9.07
		c-0.09-0.37-0.4-0.73-0.3-1.11c-0.85-7.45-4.93-12.79-1.91-9.78c1.05,0,0.85-0.99,1.25-1.52c0.41-0.62,0.13,2.49,0.8,3.51
		c0.41,0.54,1.03-3.96,0.07-10.05c-0.65-4.11,0.33-8.72,1.51-11.09c-1.16,13.28,2.19,8.45-1.41,30.03c5.84-2.92,2.18-25,3.32-25.55
		c11.02-5.34,10.74-3.16,17.14-8.22c6.04-4.77,13.56-3.73,31.34-3.73c5.5,0,14.47,4.03,23.58,4.94c-0.33,2.49-15.4,7.55-21.62,13.66
		c-2.48,2.44-4.32,5.39-5.37,8.95c-1.34,0.44-1.66,2-3.25,2.49c-3.02-2.52-26.73,7.19-30.84,14.81c-0.47,0.71-0.62,1.36,0.1,1.81
		c11.78-10.94,29.75-15.67,29.75-15.3c0.27,1.33-1.31,2.04-0.42,3.41c1.19-1.19,5.47-5.36,4.94-6.95c3.23-3.23,6.85-8.04,14.61-12.7
		c2.21-1.32,4.59-2.25,6.35-4.64c1.57-2.13,8.53-2.63,9.78-6.45c0.24-0.73,1.54-0.98,3.08-2.31c2.37-2.59-4,1-5.39,1.69
		c-9.88-0.82-18.06-5.82-28.12-5.64c-16.07,0.28-23.28-1.02-31.14,5.14c-2.6,2.04-5.14,3.92-8.67,4.43
		c-2.02,0.3-3.53,2.32-5.95,2.02c-0.65-1.63-0.24-4.42-0.11-4.46c1.12-0.49,1.15,0.74,2.03,0.84c3.14-1.35,5.32-3.81,7.03-6.68
		c5.51-9.21,9.17-5.39,8.58-8.44c-6.35,1.41-9.27,6.45-12.5,11.09c-1.11-0.1-1.41-0.71-1.01-1.51c0.64-1.27,1.31-3.04,2.12-4.23
		c2.47-3.62,1.43-8.13-1.91-10.99c-2.07-0.19-2.92,4.91-2.92-2.52c1.59-0.53,6.51-0.61,10.08-1.81c2.21-0.75,4.29,0.37,14.41,2.22
		c14.19,2.58,7.49,0.79,44.85-2.72c13.35-1.25,13.33,2.31,32.55,4.33c6,4.29,4.08,1.28,5.64,10.28
		C431.12,54.4,407.3,91.36,403.6,94.65z"/> <path d="M380.04,586.85l0.18-0.09C380.11,586.74,379.88,586.75,380.04,586.85z"/> <path d="M631.41,249.91c1.55-1.6,0.17-3.6,0.67-5.4c0-0.07-0.2-0.14-0.38-0.21c-0.42-0.1,0.24-1.16-2.34,4.75
		C630,249.83,631.22,250,631.41,249.91z"/> <path d="M637.41,338.94l0.1,0.1C637.54,338.98,637.59,338.98,637.41,338.94z"/> <path d="M737.19,302.16c-29.36-20.81-50.76-19.26-64-27.41c-6.77-4.17-10.34-1.87-16.93-5.54c-6.22-3.46-10.85-0.58-14.51-2.52
		c1.37-18.1-3.87-21.96-10.58-27.61c2.2-12.64-15.67-14.23-20.36-3.83c-3.48,0.66-11.33,1.07-15.42,7.16
		c-4.91,7.32-4.09,9.43-6.55,24.59c-6.35,2.12-13.2,2.12-18.44,6.55c-4.43,0.3-8.78,1.08-12.6,2.92
		c-11.5,5.54-20.86,2.85-29.63,7.96c-8.07,4.7-14.65,6.18-26.91,12.4c-9.89,5.02-9.79,11.81-14.71,15.82c0,8.56,3.7,9.62,9.17,14.92
		c10.4,10.07,32.01,19.05,47.87,14.92c3.43,1.11,6.65,2.12,9.78,3.12c16.87,38.63,2.49,15.78,13.71,46.06
		c-3.83,2.82-6.36,6.74-9.98,9.78c-3.84,3.22-6.48,7.46-6.35,12.7c0.21,8.29-6.26,5.96-13.5,21.57c-2.58,5.55-6.78,7.76-7.05,17.03
		c-0.3,10.23-2.35,12.65-0.71,16.73c0.99,2.45-2.13,2.73-0.6,17.13c2.47,23.3,14.09,38.27,20.16,60.67
		c-1.91,1.41-3.22,3.12-4.74,4.64c-3.22,3.22-6.99,6.17-8.77,10.68c-0.68,1.72-1.48,3.45-2.82,4.74c-3.66,3.5-6.34,7.77-10.08,11.19
		c-6.59,6-3.4,16.41,3.12,18.34c8.07,2.39,16.2,2.45,24.09-0.71c8.1-3.24,5.47-9.4,8.16-12.9c7.75-0.49,16-6.04,14.71-9.27
		c-1.51-3.79,0.2-7.66-0.71-11.49c-0.47-1.42,3.69-7.86-4.54-16.93c-1.29-6.43-0.34-19.99-2.42-27.82c-0.32-1.2-0.18-2.51,0.4-3.63
		c3.32-6.44,6.25-23.43,1.01-35.47c-3.46-7.95-2.27-8.54-3.93-8.26c-0.87,2.6,1.05,7.2,2.12,13.2c5.03,28.38-5.89,12.44,0.71,66.82
		c-1.11-1.31-1.01-3.02-2.72-4.03c0.5,2.52,0.91,4.74,1.31,6.95c-5.26,1.32-2.83-3.35-3.33-5.14c-2.52-1.91-5.64-2.02-9.07-1.91
		c-4.9-23.17-23.43-41.9-19.95-74.88c0.17-1.62,0.3-3.12-1.31-4.03c1.01-3.53,1.83-6.95,2.02-10.58
		c1.08-21.54,15.03-28.2,20.46-37.59c0.4-0.81,1.31-1.61,2.22-1.91c19.74-7.99,28.35,6.92,44.04,28.52
		c1.99,2.74,2.22,5.85,1.11,8.87c-4.35,4.21-14.72,5.37-21.06,9.17c-3.33,2-7.36,1.61-10.88,3.53c3.63,2.18,22.92-2.64,29.93-8.67
		c6.74-5.79,15.77-5.47,24.29-3.23c2.65,0.44-1.47,2.62,20.16,11.69c1.5,0.63,3.33,0.6,4.84,1.51c3.53,2.12,7.26,2.82,11.29,2.72
		c-5.08-3.8-28.89-11.95-32.35-17.13c0.45-5.23,1.65-7.85,11.39-24.19c2.45-4.12,14.47-9.94,17.53-14.22
		c6.59-0.78,13.07-0.47,18.04,3.93c19.4,17.15,13.36,18.12,22.27,33.26c0.3,0.51,0.3,1.11,0.5,1.71c-0.5-0.5,0.99,0.86,1.44,3.28
		c0.61,3.23-0.78,5.63,0.19,9c0.47,1.63,0.84,1.53,1.07,2.7c0.32,1.61-0.46,3.31-0.38,4.88c-1.41,1.71-2.52,3.43-3.22,5.64
		c1.54,0,1.84-1.61,3.12-1.71c-0.1,1.42,0.01,3.34-0.5,5.04c-2.02,6.65-2.4,13.71-5.04,20.26c-3.3,8.17-5.04,16.83-9.47,24.59
		c-3.93,6.88-3.01,11.24-8.06,17.64c-2.32,1.41-5.15-1.32-7.66,0.81c-3.81,3.23-5.43,13.03-3.34-0.91
		c-2.64,2.26-2.15,7.79-3.73,9.47c-0.35-0.93,1.4-14.53,2.72-34.16c0.99-14.71-2.75-23.32-1.31-26.91
		c1.91-5.85,2.52-11.99,3.83-17.94c0.18-1.21,0.02-2.5,0.01-3.8c-0.01-0.86-5.37-4.21-8.17-5.47c-0.09,1.45,1.31,1.79,1.51,2.92
		c-0.79,0.79-0.93,0.64-0.29,0.83c5.46,1.59,5.02,3.23,4.42,5.72c-3.76,15.76-5.16,18.14-4.64,20.76
		c1.16,5.85,1.11,11.99,3.02,16.93c-1.91,12.6-1.61,24.59-3.12,36.58c-5.03,3.06-2.47,14.5-4.64,24.49
		c-0.7,3.22,7.01,6.77,10.08,7.96c3.81,9.14,3.89,10.18,7.16,11.49c5,2,1.26,2.27,6.45,3.73c12.52,3.52,31.46,1.02,28.22-11.29
		c-2.48-9.41-11.03-10.5-19.25-25.4c-2.8-5.08-5.33-3.97-7.76-14.92c3.74-5.62,26.48-67.57,22.78-75.48
		c-1.56-3.35-2.45-6.76-2.02-10.48c0.34-2.9-0.95-1-2.42-7.86c-0.99-4.64-3.26-8.96-4.74-13.4c-0.93-2.81-2-5.86-4.03-8.16
		c-4.3-4.87-8.16-10.08-13.4-13.61c-1.01-11.19-2.42-16.02-16.12-26.91c8.61-20.34,3.69-19.04,5.34-22.37
		c7.08-14.34-1.03-1.4,13-23.08c2.92-1.21,5.74-2.23,8.67-2.32c16.86-0.52,33.09-7.92,38.4-12.7c2.89-2.6,14.6-11.61,16.83-17.33
		C739.72,309.23,741.96,305.54,737.19,302.16z M538.76,563.18c8.45,2.11,11.53,0.98-1.01,1.81
		C538.3,563.26,538.06,563.87,538.76,563.18z M567.67,549.17c0.81,0.3,1.01,0.91,0.91,2.02
		C567.86,550.64,567.33,550.01,567.67,549.17z M550.64,551.89c1.81-1.21,3.83-1.61,6.35-1.71c0,4.03,1.41,7.26,5.24,9.07
		c0.47-1.08-0.99-1.81-0.49-2.92c1.51-0.71,2.82,0.94,4.33,0.91c2.22-0.05,2.22-2.32,3.23-3.83c1.76,4.92,0.11,6.6-0.08,8.86
		c-0.2,2.4,0.66,5.48,0.71,9.08c0.1,7.02-2.04,5.43-7.99,8.77c-1.41,0-0.92-1.79-2.62-0.71c-8.89,5.68-2.44,13.67-14.01,15.82
		c-9.55,1.77-15.64,0.44-22.47-2.12c1.22-1.68,3.13-1.82,4.33-2.72c3.93,1.01,4.13,1.21,6.35,4.23c0.91,0.4,1.81,0.3,2.82-0.2
		c-1.56-2.85-3.79-4.86-8.67-5.95c-2.32,0.6-4.03,2.12-6.15,3.22c-0.2-1.11-0.4-2.02-0.71-3.33c2.08-4.16,2.78-9.29,7.16-12.7
		c3.4-2.65,6.05-6.25,9.47-9.17c4.43,2.02,9.07,2.62,13.71,1.11c0.41-1.65-0.84-1.97-1.41-2.62c1.56-0.94,4.02,1.43,5.14-1.81
		c-4.07-3.06-11.57-2.42-15.02-2.22c-0.28-2.28,1.94-1.13,17.13,0.81c0.14-2.08-1.01-2.63-2.72-3.12
		c-7.65-2.22-10.31-0.21-11.09-2.22C547.85,556.43,546.73,549.29,550.64,551.89z M684.28,564.09c-1.31,0.91-2.52,0.5-3.63,0.3
		C681.79,563.86,682.78,562.48,684.28,564.09z M681.35,559.86c-4.31,2.2-9.82,1.31-13.44,5.66c-0.64,0.64,4.65-0.35,5.48,0.07
		c-0.2,1.08-2.01,0.93-1.91,2.42c0,0.16,8.79,0.6,14.47-1.4c0.01,0,0.04-0.01,0.04-0.01c0.5,1.21,1.91,1.81,2.02,3.12
		c2.21-0.21,1.89,4.63,10.78,11.29c2.66,1.99,3.95,4.89,4.64,8.06c1.82,8.45-12.75,10.07-19.85,8.47c-2.53-0.57-4.94-2.11-7.46-2.92
		c-10.36-3.35-7.21-10.57-10.95-14.59c-1.35-1.45-2.1-0.24-3.05-0.12c-0.25-0.13-5.44-3.03-5.44-3.64
		c0.71-5.84,1.41-11.48,2.62-17.32c1.41,0.71,2.72,1.21,4.43,2.02c2.72-3.43,3.43-7.86,5.74-11.59c2.12,0.1,4.13,0.71,5.95,0.1
		c1.17,0.98,2.32,2.02,2.42,2.13c-0.2,1.51-0.91,3.23,0.5,4.64c-3.8,1.1-8.34,0-10.92,5.04
		C666.95,562.17,681.14,559.89,681.35,559.86z M640.54,287.54c2.23-1.07,2.22-3.33,3.33-4.74c0.2-1.31-1.31-1.51-1.31-2.62
		c0.94-1.88,2.04-2.64,2.04-2.46c1.99,4.54-0.69,8.86-3.75,12.84C638.98,289.73,639.8,287.9,640.54,287.54z M643.76,275.15
		c0.23,0,0.29-0.04,0.6-0.1c0,0.4,0.1,0.5,0,0.4c-1.61,1.61-1.54,1.66-1.84,1.57C642.01,276.87,642.67,276.24,643.76,275.15z
		 M639.93,264.36c0.28,1.1-0.42,1.81-1.22,2.61C638.71,265.96,638.7,265.03,639.93,264.36z M638.11,261.11
		c-0.25,0.17-0.38-0.56,0.72-2.09C638.82,259.55,639.67,260.33,638.11,261.11z M629.12,236.92c-0.01,1.67-1.44-0.64-3.6,0.13
		C627.06,235.37,629.14,234.86,629.12,236.92z M621.59,241.59c-0.89,1.19-3.05,8.18-3.01,6.69c0.04-1.76,0.53-3.87,0.55-5.33
		c0.04-2.31-0.56-1.45,0.41-1.71c1.6-0.43,0.58-4.71,4.35-2.27c-0.4,4.03-0.81,5.14-3.12,8.47
		C621.24,244.64,622.29,243.51,621.59,241.59z M619.12,236.36c0.97-2,2.05-2.79,3.48-3.1C622.88,234.33,619.05,236.46,619.12,236.36
		z M625.62,239.27c3.29,0.67-1.19,5.23-1.59,7.86c-0.59,0-0.79,0.91-1.43,0.81C623.51,245.01,625.32,242.39,625.62,239.27z
		 M624.11,247.18c1.81-0.95,2.05-3.18,3.33-4.47c0,2.64-1.25,2.89-1.21,4.43c-0.95,0.01-1.11,1.29-2.02,1.47
		C624.08,248.65,624.11,248.83,624.11,247.18z M627.64,233.93c-3.14,2.28-3.26,2.44-5.34,2.32c-0.67-0.38-0.26-1.02-0.38-1.51
		c0.73,0.04,1.2-0.34,1.49-1.01c-0.9-0.33-0.84-1.2-1.78-1.18c-1.72,0.05-3.34,2.43-4.17,3.19c-0.37-0.12-3.14-0.37-3.53-0.4
		C616.29,231.33,621.66,229.81,627.64,233.93z M613.43,243.1c-0.1-0.3,0.1-0.6,0.3-1.21C615.6,243.52,613.43,244.47,613.43,243.1z
		 M613.53,237.66c-0.2,1.51-0.4,2.52-1.31,3.22C611.62,238.87,611.62,238.86,613.53,237.66z M609.8,238.36
		c0.71,3.73,2.32,7.36,1.71,11.59C608.37,246.43,605.87,240.69,609.8,238.36z M592.08,258.6c1.15-1.01-0.83-2.2,0.18-3.31
		c0.09,0.06,1.28,0.53,1.33,0.43c0.5-1.45-1.43-1.87-1.13-3.56c0.81-0.91,2.12-2.12,1.01-4.43c2.37,0.79,3.02,3.01,5.14,4.03
		c0-2.26-1.91-2.59-1.91-4.64c-0.68-0.34-0.79-1.26-0.71-2.02c0.97,0.38,0.9,1.17,1.01,1.81c0.07,0.1,3.08,3.68,3.21,3.51
		c2.16-2.77-0.3-4.9-0.3-8.34c-1.63,2.35-0.04,3.96-0.3,5.54c-1.31-1.31-2.22-2.42-2.02-4.43c1.01-0.81,2.22-1.81,3.63-2.92
		c1.37,1.37,0.58,4.45,1.51,6.25c1.03,2,2.92,3.02,4.33,4.74c-1.66-3.87-3.24-7.27-3.93-11.99c1.9-1.9,3.25,0.57,1.91,3.43
		c4.74,8.86,3.24,8.63,6.3,8.73c1.53,0.05,2.67,0.11,3.98,1.15c-0.92-4.58,0.8-9.54,0.1-14.01c1.02-0.84,1.99-0.19,2.88-0.2
		c1.12-0.01,0.64,3.04,0.64,2.82c-1.32,0.83-0.77,4.58-1.81,0.4c-1.41,3.02-0.91,6.05-1.01,8.97c2.02,1.35,1.64,1.1,1.93,1.06
		c2.75-0.52,4.13-4.26,4.54-3.42c0.43,0.9,0.12,1,1.49,0.54c0-0.13,0.37,0.55,1.11,0.4c0.47-0.47,0.99-1.15,1.07-1.81
		c1.26,0.1,2.68-4.57,3.15-5.85c1.19,0,1.51,0.68,1.11,1.41c-0.71,1.28-1.54,2.72-2.72,3.73c0.1,0.91-1.21,1.51-0.71,2.92
		c2.24-1.57,2.43-4.03,4.23-5.26c0-0.49,0.01-0.99,0.5-1.29c3.95,1.69,4.54,3.74,4.39,6.14c-0.05,0.86,0.28,0.97-1.69-1.78
		c-0.57-0.79-2.17,3.05-3.1,3.91c1.7,1.01,1.6-1.11,2.82-1.31c-0.91,1.83,2.2,4.28,1.61,6.95c1.61-2.04,1.01-4.52,1.51-7.05
		c3.76,3.76-2.04,7.73-0.5,11.49c0.36,0,0.66-0.08,1.01-0.09c0.09,1.5-1.41,2.41-1.41,4.02c0.29,0.98,0.97,1.76,2.12,1.89
		c-0.61,10.57,3.18,12.9,0.3,18.46c-2.29,4.42-2.35,13.62-6.75,21.97c-3.47,6.59-6.35,6.53-12.3,9.07c-3.25,1.39-6.41,1.08-9.17-0.3
		c-7.49-3.76-11.39-5.95-14.11-16.43c-3.64-14.01-5.39-11.27-4.74-24.59c0.52-10.68,3.52-0.47,2.61-10.48
		c-1.28-0.55-0.65,0.83-1.61,1.11C591.74,259.37,589.68,258.6,592.08,258.6z M614.84,372.7c-1.39,1.85-0.66,3.12-1.31,4.64
		c-5.97,0-11.12-0.11-16.43-4.03c-1.67-5.46-2.06-17.68-1.21-26c1.71-16.64-2.38-31.12-3.11-35.2c0-0.53,3.74-0.27,5.13-0.57
		c1.29,6.32,2.11,10.24,6.65,14.21c-1.09-2.42-4.23-9.1-4.23-13.4c3.93,2.62,7.47,4.01,10.68,5.85c3.14,1.79,6.15,2.03,9.67,0.6
		c3.43-1.39,6.65-2.92,9.78-5.54c-0.29,2.46,2.28,3.77,1.19,5.99c2.59-0.89,1.67-3.55,2.82-5.53c0.33-0.65,3.55-0.34,4.26-0.25
		c-1.59,17.21,1.22,21.97-1.18,25.55c1.38,0.41,1.22-0.09,1.88,19.4c0.41,2.48-4.16,10.92-7.26,14.11c-2.62,2.7-5.63,4.69-11.1,5.95
		c-1.81,0.42-3.43-0.3-5.44-0.6C616.55,375.93,615.95,374.31,614.84,372.7z M571.91,311.93c-0.61,0-9.65-9.12-26.72-0.3
		c-1.62-1.08-3.23-1.29-5.13-1.21c6.15-7.36,13.89-11.11,22.78-12.6c6.02-1.01,4.73-1.41,7.01-1.33c7.69,0.25,9.77,8.99,17.98,6.57
		c0.43-0.13,2.21-0.5,2.22-0.5c5.72,2.54,6.36,0.05,7.46,5.54C589.14,308.71,581.08,310.92,571.91,311.93z M581.18,315.56
		c-1.1,0-2.05-0.48-2.72-1.81C580.95,312.75,582.15,313.85,581.18,315.56z M637.6,299.19c0.08,3.9,1.65,7.77,0.82,12.24
		C637.06,309.61,637.52,309.79,637.6,299.19z M593.67,296.51c-1.31-2.12-1.31-3.83-2.12-5.85
		C593.57,293.09,593.57,293.09,593.67,296.51z M591.05,266.38c1.31,0.81,2.03,1.77,2.03,3.35c0,0.16,0.03-0.08-0.59-0.5
		C591.25,268.38,590.35,267.93,591.05,266.38z M590.45,286.74c-2.02-2.32-2.02-2.32-1.41-5.54
		C591.36,282.5,589.84,284.62,590.45,286.74z M555.48,344.58c-10.43-6.15-18.07-1.02-30.64-4.84c-6.13-1.86-12.78-1.74-22.57-9.78
		c-14.17-11.63-9.66-11.31-13.2-14.11c-1.63-5.36,4.1-5.61,10.48-13.91c2.58-3.36,38.98-17.62,47.57-18.75
		c7.92-1.04,9.01-4.43,19.65-6.85c8.33-1.89,7.14-3.32,21.77-6.25c0.81,1.51,0.4,3.22,0.81,4.54c0,0.81-0.3,1.11-0.6,1.51
		c-5.19,6.77,1.13,13.22-0.6,11.48c2.11,2.36,2.71,9.3,6.45,10.49c0.49,2.68,1.18,2.96-0.01,3.24c-0.54,0.13-1.45-1.73-7.65-0.31
		c-7.65,1.75-6.77-6.92-17.74-7.05c-1.7-0.02-3.25-0.09-4.64,0.91c-1.45,1.2-9.7-0.06-21.06,8.77
		c-14.86,11.55-7.53,7.31-13.91,11.39c-3.09,1.97-5.95,4.23-8.06,8.26c3.4-1.02,5.48-3.24,7.56-4.94c5.94-4.86,4.83-6.19,16.02-5.14
		c1.71,2.72,4.74,4.03,6.85,6.45c1.98,2.27,2.65,5.67,4.94,7.66c-0.4-3.02-4.43-9.57-8.87-14.41c7.96-3.57,20.01-2.12,23.28,0.6
		c1.95,1.63,2.97-0.24,10.58,4.33c2.09,7.89,0.04,28.29-1.21,35.98c-1.37,8.41-9.04,15.96-11.75,16.49
		c-1.14,0.22-2.39,0.02-3.67-0.56C563.14,360.81,558.4,352.85,555.48,344.58z M567.62,395.04c0.85-0.87,0.5-1.17,2.68,0.85
		c4,3.7,6.59,8.57,10.17,12.6c-2.61-0.31-7.01-5.69-8.47-6.84c-1.41-1.12-2.13-1.1-2.71-1.43c-1.14-0.64-1.97-2.27-2.93-3.42
		C566.7,396.06,567.15,395.52,567.62,395.04z M667.04,404.15c2.22,4.03,3.83,8.36,6.35,11.89c-1.35,3.59-5.93-10.58-26.87,2.94
		c-4.65,3-7.8,6.06-10.44,9.53c-3.2,4.22-3.46,2.88-4.62,4.55c1.43,0.71,1.15,0.38-5.24,11.89c-2.02,0.3-3.93,0.6-5.74,0.81
		c1.44,1.11,2.88,0.91,4.61,0.31c1.81-0.63-2.34,3.19-0.67,6.95c-4.23-0.5-7.66-2.12-11.59-1.31c0.55-2.75,0.65-5.22-1.01-7.46
		c0,2.82,0,5.62,0,8.06c-3.63-0.4-6.75,0.3-9.17,2.72c-1.22-0.84-0.46-1.81-0.2-2.42c1.13-2.71,0.62-5.36-1.01-7.66
		c-14.85-20.96-25.01-38.82-48.58-29.53c2.54-7.13,7.67-12.43,12.41-17.75c0.72-0.72,20.7,21.44,29.01,20.16
		c1.19-1.79-5.36-2.28,10.08,0.91c3.05,0.63,6.95,1.55,10.78,1.41c-3.22,1.91-6.25,0.91-9.17,1.51c0,2.24-1.22,0.36-2.12,1.71
		c5.34,1.61,10.58,0.81,15.82-0.4c-6.73,0-4.06-0.08-6.47-0.1c1.4-1.68,8.41,0.67,32.47-13c-3.22-0.13-9.31,3.58-7.84,1.97
		c1.86-2.05,4.75-2.23,6.83-3.88c7.27-5.76,6.95-5.04,5.25-5.04c3.58-4.48,0.97,1.14,8.47-10.38
		C658.4,394,665.1,400.61,667.04,404.15z M612.99,423c-0.79,0.66-1.72,0.38-2.58,0.19C610.8,423.16,612.9,423,612.99,423z
		 M658.07,385.3c-2.23,6.42-7.89,13.37-9.71,14.32c-5.69,2.97-25.37,2.28-24.22,2.81c6.3,2.94,12.42,3.19,19.31,1.91
		c-4.36,4.23-9.14,6.19-13.09,8.42c-2.1,1.18-1.44,1.93-2.83,2.41c-4.8,1.64-14.54,4.01-19.35,2.58
		c-23.24-6.89-19.93-4.71-30.13-14.92c13.32,4.76,19.95-1.36,26.51-0.71c0-1.52,0.84-1.43-17.13-0.4
		c-12.2,0.69-23.96-17.97-22.68-29.53c21.46,4.37,24.07-45.71,18.6-59.2c-0.08-0.19-0.89-0.11,7.7-1.07
		c2.73,44.58-2.38,39.55,3.43,59.36c1.83,6.24,6.04,7.78,11.19,8.57c7.38,1.12,20.06,1.32,26.9-3.37
		c12.71-8.71,11.14-35.96,9.58-50.95c-0.4-3.88,0.31-7.88-2.04-11.84c-0.22-0.37,4.12-0.86,6.77,0.99c0.05,0.05,0.07,0-0.14,0.16
		c-3.55,2.72,0.09,32.13,6.49,43.13c2.89,4.97-0.67,2.84,8.26,12.3C660.29,375.32,659.79,380.36,658.07,385.3z M640.35,302.66
		c2.88-2.2,5.48,3.11,11.48-1.41c3.73-2.81,6.95-6.55,12.09-8.36c11.29,1.51,21.47,6.35,30.23,15.12
		c-12.01,4.37-0.57,0.03-24.42-0.4c-2.21-0.04-4.34,1.79-6.22,1.51c-2.26-0.33-8.16,1.41-10.1,4.92c-5.06,0-4.05-2.66-12.27-3.2
		C640.85,308,640.55,305.28,640.35,302.66z M737.89,316.06c-0.35-1.73-0.44-2.94-1.01-1.91c-4.8,13.28-30.8,25.4-44.44,25.4
		c-2.94,4.9-11.55-4.21-21.67,11.19c-10.85,16.5-7.05,18.9-8.44,17.16c-11.77-14.71-13.35-31.76-14.54-48.91
		c0.3-1.01,1.41-1.11,1.91-1.91c-1.18-0.39-2.07-1.04-2.44-2.23c1.02,0.29,2.03,0.63,3.04,0.73c2.49,0.38,2.79-1.37,3.46-1.37
		c1.14,0.01,2.5-0.85,2.7-0.85c4.98-1.66,4.98,0.13,7.16-1.11c7.24-3.47,19.08-1.01,20.96-1.01c0.11,1.39-1.07,1.25-1.8,1.99
		c-1.48,1.32-3.25,2.34-3.64,4.46c4.85-1.22,6.37-5.67,17.36-7.34c0.57-0.09,4.25,5.06,9.34,6.53c0-1.41-1.01-2.02-1.81-2.52
		c-8.16-5.78-11.55-12.94-22.84-18.7c-5.12-2.62-16.04-5.86-20.1-3.87c-6.94,3.41-5.92,4.43-11.59,9.07
		c-2.59,0.52-8.23-0.52-8.41-0.78c-2.49-3.12,3.91-0.94,9.61-13.84c-3.64,0.91-4.12,4.21-6.25,5.85c-0.81,0.71,0,1.51-0.1,2.42
		c-0.91,0.6-1.71,1.61-3.12,1.31c-0.99-0.55-0.71-1.62-0.71-2.52c6.22-3.51,3.56-9.31,9.78-12.09c-2.31-2.31-3.34-7.73-4.91-7.9
		c-1.47-0.24-2.97,2.34-3.07,1.16c-0.11-1.3-0.19-2.54-0.28-3.94c8.17-1.26,10.75-0.29,15.36,1.81c5.38,2.45,9.2,1.51,15.7,4.75
		c2.37,1.18,2.6,1.62,4.36,2.54c5.42,2.84,23.26,6.77,33.05,10.98c25.99,11.17,17.21,9,26.26,14.28c0.81,0.4,1.3,1.11,1.51,2.02
		C739.86,313.48,740.28,314.11,737.89,316.06z"/> <path d="M367.12,559.85c-0.2-1.21-0.91-1.81-2.02-1.81c-4.67,0-14.53,0.54-13.81,5.14c12.63-1.1,4.34-0.83,3.63,2.92
		c4.94-0.2,9.67,1.11,14.92-1.21c-2.12-4.03-5.54-1.71-7.86-2.82C363.59,560.96,366.01,561.87,367.12,559.85z"/> <path d="M349.48,560.56c3.97-3.97,14.09-1.96,15.22-5.34C363.23,553.01,347.25,553.23,349.48,560.56z"/> <path d="M368.53,587.47c4.7-2.95,6.81-1.48,11.49-0.74c0.04-0.53,0.78-0.93,0.4-1.58c-5.04-3.63-16.43-1.51-16.12,4.23
		C366.01,589.38,367.23,588.28,368.53,587.47z"/> <path d="M359.36,569.53c5.24,1.71,10.78,1.51,13.3-0.6C369.34,566.5,362.48,566.91,359.36,569.53z"/> <path d="M562.73,511.58c0.52-1.3-1.48-6.77-3.53-9.07c0.3,3.43,0.81,6.75,2.62,9.88C562.23,511.98,562.63,511.78,562.73,511.58z"/> <path d="M540.26,480.44c-1.21-3.83-3.83-6.75-6.65-9.57C534.92,474.69,537.24,477.72,540.26,480.44z"/> <path d="M565.36,470.26c1.21-3.63,5.74-4.74,6.75-8.67c-1.61,1.61-3.33,3.02-5.34,4.23C565.34,466.68,562.85,469.76,565.36,470.26z
		"/> <path d="M371.65,573.16c-1.31-1.81-2.02-1.91-6.45-0.3C367.52,573.96,369.44,575.07,371.65,573.16z"/> <path d="M533.31,466.13c0.91-2.52,2.12-4.94,2.12-7.76C533.61,460.68,532.8,463.2,533.31,466.13z"/> <path d="M561.83,461.29c-1.21,2.12-1.01,4.43-1.11,6.65C562.43,465.92,562.73,463.71,561.83,461.29z"/> <path d="M567.67,453.83c-1.21,1.31-2.42,2.52-3.53,3.83C566.26,457.36,567.67,456.15,567.67,453.83z"/> <path d="M549.83,456.85c-1.71-1.01-2.92-1.61-4.03-2.32c-0.2,0.3-0.4,0.5-0.4,0.71C546.51,456.05,547.11,457.46,549.83,456.85z"/> <path d="M558.5,499.79c0.2-1.21,0.4-2.22-1.31-3.23C557.39,497.97,556.69,499.18,558.5,499.79z"/> <path d="M562.13,542.42c0.4-1.51,0.1-2.72-1.21-4.23C560.82,540.2,560.72,541.41,562.13,542.42z"/> <path d="M557.09,469.96c-1.31,0.91-1.91,1.61-1.91,2.82C556.39,472.27,556.79,471.57,557.09,469.96z"/> <path d="M539.15,442.04c-0.5,0.4-1.11,0.71-1.01,1.41C539.25,443.15,539.25,443.15,539.15,442.04z"/> <path d="M555.08,487.29c-0.34,2.04,1.3,1.7,0.81,0.71C555.68,487.69,555.78,486.99,555.08,487.29z"/> <path d="M313.94,19.99c-0.04-1.41-0.47-2.74,0.24-3.97c0.1-0.2-0.71-0.56-1.27-0.18c-1.67,2.78-0.56,0.42-1.71,4.54
		C312.96,20.77,314,22.54,313.94,19.99z"/> <path d="M631.62,319.32c0.03-0.1,0.07-0.09-0.15-0.03C631.62,319.45,631.58,319.38,631.62,319.32z"/> <path d="M650.99,402.94c0.08,0,0.15,0,0.23,0C651.07,402.79,651.16,402.83,650.99,402.94z"/> <path d="M348.68,125.49c3.12-3.53,5.54-8.77,5.24-11.89C351.1,117.12,349.28,121.05,348.68,125.49z"/> <path d="M371.55,107.55c-3.93,0.81-7.86,1.91-11.89,4.43C362.79,112.59,366.21,111.18,371.55,107.55z"/> <path d="M285.69,90.31c1.01,4.84,1.71,9.57,4.54,13.4C285.74,89.22,287.14,91.28,285.69,90.31z"/> <path d="M313.6,94.95c-1.21,2.92-2.72,5.74-2.92,8.97C311.89,101,313.81,98.28,313.6,94.95z"/> <path d="M346.56,48.39c2.13,1.32,4.41,0.19,7.26,0.1C350.99,47.58,348.78,46.98,346.56,48.39z"/> <path d="M308.67,93.84c1.63-3.27,1.16-3.3,0.2-6.05C308.46,89.91,308.06,91.52,308.67,93.84z"/> <path d="M335.37,107.35c-0.07,0.14,0.08,0.02-0.02,0.12c3.21,0.26,4.09,0.1,6.17-2.44c-2.03,0.97-4.15,0.67-5.63,1.9
		C335.74,107.06,335.45,107.42,335.37,107.35z"/> <path d="M356.44,48.99c1.71,0.91,2.92,0.5,4.74-0.81C358.25,47.99,358.25,47.99,356.44,48.99z"/> <path d="M298.69,118.13c1.61,0.6,2.82,0.71,3.93-0.71C301.21,116.82,300.1,116.62,298.69,118.13z"/> <path d="M379.62,105.03c1.42-0.23,1.92-0.77,2.23-1.81C380.62,103.42,379.92,103.72,379.62,105.03z"/> <path d="M346.76,133.25c-0.1-0.91,1.11-1.21,0.71-2.62C346.4,131.39,346.24,132.22,346.76,133.25z"/> <path d="M330.33,43.96c0.76-0.66,1.29-1.15,0.81-2.32C329.97,42.02,329.91,42.79,330.33,43.96z"/> <path d="M342.83,104.12c1.1,0.32,1.44-0.33,2.02-1.01C343.77,102.86,343.06,103,342.83,104.12z"/> <path d="M405.92,56.86c1.01,0.1,1.21-0.6,1.41-1.31C406.93,55.95,405.72,55.65,405.92,56.86z"/> <path d="M402.09,59.68c0.91,0,1.91,0,2.32-1.31C403.2,58.06,402.9,59.27,402.09,59.68z"/> <path d="M362.99,47.99c1.41,0.1,2.12,0.6,2.72-0.3C364.91,46.79,364.04,47.23,362.99,47.99z"/> <path d="M293.75,110.77c-0.68,0.68,0.45,1.58,0.77,1.52C295.12,112.17,295.11,110.62,293.75,110.77z"/> <path d="M253.54,311.53c-0.31,4.96,5.45,4.43,4.13,4.43c1.22,0,2.32-0.49,4.13-0.09c-0.6-1.61,0.11-2.52,0.2-3.63
		C262.51,306.32,253.86,306.32,253.54,311.53z M258.48,312.23c-1.54,0.47,1,3.07-1.82,1.58c-1.37-0.72-1.23-1.37-1.09-3.41
		c2.92-2.02,4.03-1.61,4.74,2.32C259.49,312.54,258.88,312.44,258.48,312.23z"/> <path d="M242.76,306.99c-1.61-0.5-3.33-0.91-5.34-0.6c-0.81,2.42-0.91,4.94-0.4,7.56c0,0.1,0.4,0.1,0.6,0.2
		c0.85-0.34,0.57-1.33,1-1.87c1.17-1.48,2.36,1.73,3.13,2.08c2.23,0.74,0.41-1.72,0.41-2.29
		C242.08,311.37,245.04,309.69,242.76,306.99z M239.53,310.12c-1.1-0.32-1.11-1.11-0.71-2.12c1.19-0.41,2.31-0.21,3.12,0.81
		C241.69,310.17,240.84,310.49,239.53,310.12z"/> <path d="M244.18,311.02c0,2.69,2.4,4.22,4.73,4.19c2.15-0.03,3.28-2.08,4.14-4.1C250.26,303.96,244.18,307.34,244.18,311.02z
		 M248.1,313.75c-3.3-2.47-2.92-3.68,0.4-5.44C252.15,309.09,251.78,313.55,248.1,313.75z"/> <path d="M297.21,307.28c0,0.28,11.06-1.28,20.43-4.82C296.9,306.23,297.55,305.34,297.21,307.28z"/> <path d="M281.35,302.66c-3.22-2.02-6.85-2.82-10.68-3.02C274.03,300.92,277.73,302.18,281.35,302.66z"/> <path d="M340.71,265.98c8.73,0,7.86,0.09,7.86-0.2C339.84,265.77,340.71,265.69,340.71,265.98z"/> <path d="M328.71,270.91c2.14,0.48,3.8,0.16,5.54-0.71C332.23,269.96,330.65,269.8,328.71,270.91z"/> <path d="M300.57,301.98c0.17,0.23-0.53,0.42,4.46-1.95c-1.42,0-2.89,0.06-4.3,0.58C297.98,301.64,300.06,301.19,300.57,301.98z"/> <path d="M300.6,302.16l0.1,0.1C300.67,302.09,300.64,302.16,300.6,302.16z"/> <path d="M305.27,300.02c-0.32,0.31-0.25-0.08,1.99-0.08C306.54,299.63,305.82,299.48,305.27,300.02z"/> <path d="M300.6,302.16c-0.5,0.6-1.11,1.11-1.31,2.12C300.5,303.77,300.81,303.06,300.6,302.16z"/> <path d="M334.87,420.37c-2.01-2.81-2.92-6.34-4.74-9.37c-3.17,1.07,0.2,4.87,3.53,9.67c-1.78,6.28-1.15,7.04,4.54,9.88
		C338.48,427.39,332.84,427.35,334.87,420.37z"/> <path d="M349.18,413.62c0.3,2.42,0.6,4.64,1.61,6.65C351.7,416.34,351.4,415.13,349.18,413.62z"/> <path d="M349.18,405.05c-0.6,2.02-1.01,4.13-0.1,6.25C349.89,409.29,350.09,407.17,349.18,405.05z"/> <path d="M338.2,434.28c0.3,2.22,1.21,4.13,2.92,5.85C340.59,437.81,340.18,435.77,338.2,434.28z"/> <path d="M316.43,358.79c2.44-0.95,2.6-3.21,2.52-5.85C317.94,355.37,317.13,357.08,316.43,358.79z"/> <path d="M349.48,431.56c1.31-2.22,1.51-4.23,1.21-6.35C349.89,427.02,348.68,428.84,349.48,431.56z"/> <path d="M342.23,529.01c0.47-1.52,0.76-2.71,0-4.13C341.89,526.35,341.36,527.64,342.23,529.01z"/> <path d="M343.94,450.51c0.1,1.71,0,2.72,1.21,3.43C345.65,452.72,345.35,451.82,343.94,450.51z"/> <path d="M342.43,520c-0.44,0.66-0.43,1.31,0.51,2.06c0.18-0.83,0.67-1.39,0.03-2.06C342.63,519.65,342.62,519.71,342.43,520z"/> <path d="M345.85,463c-0.3,0.5-0.81,0.91-0.2,1.51C346.35,464.06,346.49,463.54,345.85,463z"/> <path d="M233.99,401.73c-2.22,3.93-1.61,7.76-0.2,11.39c-3.63,5.74-5.24,10.58-0.3,14.51c-0.76-3.04-1.01-5.72,0.6-10.99
		c1.46-4.75,0-9.57,0.71-14.31C234.79,402.23,234.59,402.13,233.99,401.73z"/> <path d="M246.99,415.33c-0.64,5.78-1.97,9.52-2.12,10.38c1.72-0.76,2.53-2.04,2.99-3.48c0.29-0.9,0.84-3.78,0.84-3.88
		C249.11,416.83,248.65,415.83,246.99,415.33z"/> <path d="M244.77,425.61c-2.02,1.51-2.22,3.63-2.02,5.74c-1.31,2.52-3.12,4.74-3.22,7.66c1.51-2.32,3.02-4.64,4.74-7.26
		C243.16,429.74,244.97,427.83,244.77,425.61z"/> <path d="M269.56,364.94c1.61-2.52,1.61-2.52,1.21-5.24C269.77,361.31,269.97,363.23,269.56,364.94z"/> <path d="M230.96,531.33c0.71-1.81,0.71-2.92-0.1-4.33C230.02,528.56,230.1,529.72,230.96,531.33z"/> <path d="M236.81,446.78c-1.61,2.02-1.61,2.02-1.61,3.63C236,449.6,236.51,448.69,236.81,446.78z"/> <path d="M240.54,114.4c4.42,6.75,7.98,21.5,8.05,16C248.61,129.15,243.54,111.04,240.54,114.4z"/> <path d="M220.18,105.03c1.07,0.67,11.69,7.34,12.76,6.19C233.32,110.45,227.39,106.23,220.18,105.03z"/> <path d="M250.21,51.01c-2.12-1.41-4.43-1.61-6.85-1.11C245.62,51.02,247.79,51.62,250.21,51.01z"/> <path d="M249.51,134.76c-0.35,2.32,0.01,4.38,1.51,6.15C251.02,137.68,250.92,136.77,249.51,134.76z"/> <path d="M253.84,54.24c-0.91,1.51-0.81,2.62,0.2,4.43C254.24,57.06,254.85,55.85,253.84,54.24z"/> <path d="M213.83,101.2c0,0.42,1.49,2.12,3.33,2.02C216.58,102.34,214.55,100.48,213.83,101.2z"/> <path d="M251.32,46.68c-0.24,1.05,0.15,1.85,0.91,2.62C251.93,48.29,252.53,47.28,251.32,46.68z"/> <path d="M232.98,96.26c0,1.44,0.51,2.04,1.61,2.92C234.69,97.76,234.37,96.96,232.98,96.26z"/> <path d="M267.25,50c-0.63-0.15-1.1,0.21-1.51,0.71C266.94,50.71,266.94,50.71,267.25,50z"/> <path d="M293.35,228.59c1.51,1.21,1.51,1.21,3.12,1.61c2.45-2.44,3.21-2.24,2.01-5.95C297.78,226.97,294.86,226.77,293.35,228.59z"/> <path d="M260.09,227.98c0.35-1.64,0.67-2.98-0.4-4.54C258.38,225.46,259.59,226.67,260.09,227.98z"/> <path d="M328.62,237.96c1.91-1.41,1.91-2.72,2.22-4.43C329.02,234.63,329.23,236.04,328.62,237.96z"/> <path d="M323.78,244.31c1.67-1.25,2.05-2.77,2.42-4.85C324.49,241.08,323.68,242.29,323.78,244.31z"/> <path d="M296.88,202.18c0.3-1.01,0.4-1.81-0.71-2.72C295.87,200.67,295.87,201.48,296.88,202.18z"/> <path d="M295.96,212.86c-0.67,1.45-0.83,2.67,0,4.03C296.78,215.59,296.57,214.31,295.96,212.86z"/> <path d="M265.13,239.17c-0.5,0.81-0.1,1.11,0.6,1.21C266.19,239.64,265.84,239.4,265.13,239.17z"/> <path d="M296.88,165.4c-3.87,1.29,2.14,7.24,8.34,7.35C306.54,172.77,302.02,172.6,296.88,165.4z"/> <path d="M284.68,170.84c1.77,0.61,3.15,0.5,3.33-1.35C288.14,168.06,288.29,168.54,284.68,170.84z"/> <path d="M334.26,169.02c1.61-0.4,2.72-1.41,2.92-3.12C335.78,166.51,334.87,167.61,334.26,169.02z"/> <path d="M276.82,172.45c1.71-0.2,2.62,0.3,4.03-0.71C279.34,171.24,278.33,171.14,276.82,172.45z"/> <path d="M320.36,176.38c1.01-0.3,1.81-0.1,1.91-1.11C321.36,174.97,320.86,175.17,320.36,176.38z"/> <path d="M338.5,163.38c0.91-0.71,1.41-1.31,1.21-2.22C338.8,161.57,338.4,162.17,338.5,163.38z"/> <path d="M329.02,172.45c-1.4,1.4-0.54,1.95,0.1,1.01C329.52,173.07,329.53,172.71,329.02,172.45z"/> <path d="M288.11,49.8c0.81,0.3,1.51,1.31,2.22,0c-1.98-3.95-7.93-6.27-12.08-2.12c1.19,0.29,2.19-1.24,3.56-0.82
		c0.53,0.26-2.86,1.67-3.43,2.5c-0.14,0.14,0.33,1.1,1.78,0.94c5.06-3.61-0.18-0.52,5.53,0.81C286.8,51.21,287.1,49.8,288.11,49.8z"/> <path d="M314.51,46.79c-2.72-2.22-5.85-2.62-9.67-1.21c-2.64,3.69-3.33,2.91-3.33,4.13c1.51,1.51,2.02-0.71,3.02-0.81
		c3.63,2.22,3.53,1.41,5.85-0.5c1.31,0.2,2.42,1.61,4.13,0.71c-0.87-1.31-6.11-2.84-5.15-3.14
		C311.21,45.38,312.69,47.26,314.51,46.79z"/> <path d="M306.54,74.1c0.21-0.19,0.36-0.46,0.41-0.82c-6.95-0.79-12.19-3.07-19.15,1.11C290.19,74.54,305.79,74.78,306.54,74.1z"/> <path d="M315.72,41.74c-4.33-2.72-13.71-2.22-17.23,1.31C304.64,41.94,310.08,40.33,315.72,41.74z"/> <path d="M289.92,77.21c4.69,4.06,11.14,3.9,14.91-0.82C299.8,78.93,295.06,78.42,289.92,77.21z"/> <path d="M291.53,43.35c-3.48-3.69-9.54-4.35-13.91-1.51C282.44,40.44,286.79,42.01,291.53,43.35z"/> <path d="M302.92,65.42c1.11-2.32,1.11-2.32-0.3-4.03c-0.6,1.01,0.91,2.22-0.4,3.02c-1.91-0.91-1.91-0.91-3.63,0.1
		C299.87,65.89,301.29,65.54,302.92,65.42z"/> <path d="M316.53,39.62c0.6-1.41,0.1-2.32-0.71-3.43C315.72,37.51,315.02,38.71,316.53,39.62z"/> <path d="M299.6,47.68c0.4-1.21,1.31-2.02,1.31-3.53C299.39,45.97,299.39,45.97,299.6,47.68z"/> <path d="M296.07,65.02c-0.96-1.37-1.83-0.87-2.92,0.4C294.56,65.62,295.36,66.03,296.07,65.02z"/> <path d="M291.2,48.88c-0.02,0.35,0.41,1.4,1.14,0.92C292.5,48.46,291.2,48,291.2,48.88z"/> <path d="M283.87,52.22c1.38,0.43,2.24,0.69,3.33-0.2C285.99,51.21,285.08,51.41,283.87,52.22z"/> <path d="M307.36,51.31c0.49,0.19,1.22,0.81,1.51-0.3C308.26,50.71,307.76,50.81,307.36,51.31z"/> <path d="M298.87,50.64c0.24-0.73-1.43-1.02-0.58,0.68C298.63,51.05,298.81,50.83,298.87,50.64z"/> <path d="M278.23,24.1c0.6-1.01,0-1.21-0.81-1.31C277.26,23.35,277.48,23.85,278.23,24.1z"/> <path d="M276.92,25.82c0.2-1.11-0.3-1.31-0.81-1.91C275.8,25,276.45,25.24,276.92,25.82z"/> <path d="M292.44,65.72c0.5-0.91,0-1.21-0.81-1.31C291.23,65.32,291.63,65.62,292.44,65.72z"/> <path d="M298.69,61.69c-0.34,0-0.71-0.24-0.91,0.71C298.59,62.4,298.59,62.4,298.69,61.69z"/> <path d="M291.43,63.31c0.71-0.5,1.31-0.91,1.01-2.22C291.58,61.75,291.04,62.23,291.43,63.31z"/> <path d="M211.82,563.08c-2.72-0.22-5.64-0.81-7.86,2.72c3.88,0.7,7.41,1.57,10.99,1.06c1.3-0.19,3.09-0.74,3.21-0.87
		C216.75,562.77,214.03,563.26,211.82,563.08z"/> <path d="M205.87,567.91c-0.07,0.22-0.12,0.52-0.3,0.71c0.1,0.1,3.05,1.76,4.43,2.22c1.47,0.59,2.42,0.09,2.42-1.81
		C210.3,567.31,208.09,567.71,205.87,567.91z"/> <path d="M229.45,573.46c0.71-1.21,1.41-2.62,1.41-4.23C229.22,570.57,227.61,573.46,229.45,573.46z"/> <path d="M696.07,455.04c0,0.15-0.59,0.02-1.05-0.48c-0.6-0.66-2.52-6.22-6.01-8.69c0.81,3.53,3.12,6.25,5.04,9.27
		c-0.28,3.39-0.31,4.77,0.1,7.66C695.56,460.18,696.57,457.86,696.07,455.04z"/> <path d="M663.52,462.5c0.08,2.77,0.46,3.9,3.01,5.86c3.37,2.58,3.1,2.16,3.18,1.48c0.08-0.64-0.13-1.3-0.66-1.69
		C667.03,466.65,665.93,464.01,663.52,462.5z"/> <path d="M666.74,514.4c3.12-1.21,3.83-3.93,4.54-6.75C669.16,509.46,667.24,511.38,666.74,514.4z"/> <path d="M676.21,462.09c0.37,2.36,0.88,4.24,2.72,5.74C678.63,466.03,679.44,463.61,676.21,462.09z"/> <path d="M670.67,473.68c-1.52,1.72-1.3,3.25,0.5,4.64C670.67,476.91,671.58,475.4,670.67,473.68z"/> <path d="M686.19,495.5c0.42-1.49,1.69-2.6,0.8-4.47c-2.08,5.89-1.96,5.06-1.36,5.34C686.36,496.76,685.88,496.6,686.19,495.5z"/> <path d="M664.12,544.13c0.74-1.21,1.04-2.33,0.5-3.63C663.92,541.51,663.11,542.62,664.12,544.13z"/> <path d="M694.25,467.84c0-0.1-0.2-0.3-0.4-0.5C691.86,469.32,692.67,472.07,694.25,467.84z"/> <path d="M651.72,463.91c0.11-1.39-1.4-1.93-1.56-1.93C649.02,461.85,649.8,463.7,651.72,463.91z"/> <path d="M653.54,465.02c0.5,0.91,1.01,1.51,2.42,1.51C655.28,465.34,654.75,464.61,653.54,465.02z"/> <path d="M688.45,489.53c0,0.35,0.03,0.5,0.58,0.24c0.45-0.21,0.66-0.61,0.58-1.37C689.18,488.75,688.44,488.8,688.45,489.53z"/> <path d="M684.68,501.9c-0.5,0.25-0.8,0.42-0.72,1.51C684.68,503.01,685.18,502.61,684.68,501.9z"/> <path d="M568.28,350.83c-0.1-0.4-0.4-0.81-1.21-1.11c0.5,5.14,1.91,9.78,4.84,14.11C574.45,360.21,568.89,355.91,568.28,350.83z"/> <path d="M571.91,282.4c-3.12-0.6-5.95,0.5-8.47,2.32C566.36,284.12,569.79,285.43,571.91,282.4z"/> <path d="M546.41,339.55c2.92,1.21,5.54,1.31,8.36,1.51C552.4,338.28,549.76,337.77,546.41,339.55z"/> <path d="M501.17,325.67c-0.41,1.22,0.44,1.7,1.53,1.59c1.52-0.16,2.08-2.18,3.19-3.13C504.1,323.12,501.47,324.75,501.17,325.67z"/> <path d="M492.39,313.54c1.82-1.82,4.04-2.23,3.73-5.54C493.7,309.21,492.39,310.42,492.39,313.54z"/> <path d="M582.89,289.05c2.05,0.66,3.64-0.05,5.24-1.42c-0.59-0.3-1.02-1.11-2.22-1.2C584.56,287.11,583.37,287.34,582.89,289.05z"/> <path d="M573.01,289.46c-0.3,1.41-1.71,2.72-0.1,4.23C574.62,292.29,573.51,290.74,573.01,289.46z"/> <path d="M584.1,279.98c-1.41,0.71-2.72,1.41-3.23,3.33C583.29,282.91,583.7,281.5,584.1,279.98z"/> <path d="M556.79,286.03c-1.91,0.1-1.91,0.1-2.42,1.01C555.18,287.24,555.98,287.24,556.79,286.03z"/> <path d="M664.93,346.1c2.02-4.23,3.73-8.26,4.94-12.5C667.14,336.02,664.62,342.57,664.93,346.1z"/> <path d="M672.59,338.64c3.02,1.01,6.45,0.91,8.77-0.1C678.18,337.88,675.76,337.06,672.59,338.64z"/> <path d="M659.59,282.2c3.4,0.97,3.95,1.32,7.16,0.6c-2.82-1.11-5.04-2.22-7.76-2.32C658.61,281.52,658.9,281.96,659.59,282.2z"/> <path d="M657.67,276.86c-1.41,1.11-1.41,2.22-1.01,3.73C657.57,279.48,658.17,278.57,657.67,276.86z"/> <path d="M707.25,330.58c0.8,0.47,1.02,0.71,1.31,0.81C712.1,332.27,710.24,329.38,707.25,330.58z"/> <path d="M676.42,321.2c-1.61,0.83-2.21,1.6-2.41,3.43C675.38,323.57,676.24,322.95,676.42,321.2z"/> <path d="M737.09,311.13c0.81-1.11,0.6-1.81-0.2-2.62C736.28,309.51,736.48,310.22,737.09,311.13z"/> <path d="M673.49,326.75c-1.18,0.32-1.61,1.12-1.5,2.02C673.08,328.32,673.57,328,673.49,326.75z"/> <path d="M661.9,355.17c0.6-0.81,1.61-1.11,0.81-2.22C661.92,353.4,661.51,353.81,661.9,355.17z"/> <path d="M677.83,320.1c0.79-1.09,1.38-1.59,1.31-2.38C679.14,317.63,678.54,317.61,677.83,320.1z"/> <path d="M667.75,283.81c0.5,0.3,0.91,0.71,1.71-0.2C668.76,283.11,668.25,282.91,667.75,283.81z"/> <path d="M657.57,286.84c-0.69,0.4-0.52,0.88,0,1.51C657.78,287.94,658.77,287.44,657.57,286.84z"/> <path d="M606.47,401.83c2.42,0.5,4.23,0.5,5.95-0.6C610.61,401.02,608.69,400.32,606.47,401.83z"/> <path d="M617.36,400.22c1.61,0.6,2.62,1.71,4.84,1.21C619.62,399.88,619.65,399.92,617.36,400.22z"/> <path d="M588.53,321.1c0.76,0,1.02,0.98,2.22,0.5C589.54,320.8,589.54,320.8,588.53,321.1z"/> <path d="M608.59,278.67c-1.99-4.69-7.82-5.98-12.19-2.42c1.07,0.43,1.95-0.67,2.9-0.63c0.96,0.04,0.18,0.78-0.54,1.15
		c-0.82,0.41-1.78,0.62-2.16,1.51c1.8,2.27,2.63-0.4,4.33-0.4c0.3,1.01,1.31,1.51,2.42,1.91c-0.58,0.84-0.73,0.94-1.11,1.61
		c1.21,0.3,2.12,0.6,3.12-0.3c-0.72-1.81-0.94-0.87,0.71-2.52C607.03,278.22,607.7,280.18,608.59,278.67z"/> <path d="M627.13,274.95c1.52-0.38,3.76,0.89,5.34,0.6c-2.22-1.71-4.84-2.02-7.56-1.81c-2.34,0.33-2.99,2.69-5.24,4.94
		c1.71,1.51,2.02-0.91,3.23-0.81c2.62,1.61,3.02,1.61,5.64-0.5c1.21,0.2,2.42,1.61,4.03,0.6
		C631.63,276.55,628.78,276.23,627.13,274.95z"/> <path d="M621.99,303.58c1.64,0.23,2.75-0.43,4.03-1.71c-2.32-0.2-3.83,0.4-5.34-0.2c-4.83-1.92-9.47-0.6-14.01,1.21
		C611.89,304.41,616.95,302.87,621.99,303.58z"/> <path d="M608.59,306.49c3.89,3.18,10.35,3.59,13.17,0.5C625.23,303.2,620.62,308.94,608.59,306.49z"/> <path d="M633.79,270.41c-4.06-2.08-8.26-1.38-12.6-1.01c-1.41,0.12-3.12,0.2-4.33,2.42C622.8,271.22,628.24,269.1,633.79,270.41z"/> <path d="M610.3,272.83c-3.84-4.03-10.28-4.83-15.32-2.02C600.18,269.98,604.74,270.43,610.3,272.83z"/> <path d="M616.96,293.67c0,0.01-0.01,0.02-0.01,0.02c1.41,1.21,2.82,1.01,4.33,0.81c1.8-2.46,0.08-4.11,0.08-4.01
		c-1.36,0.81,0.32,1.9-0.89,2.9C619.27,293.29,617.97,291.49,616.96,293.67z"/> <path d="M610.71,294.8c-0.18-0.26-0.33-0.5-0.47-0.72C610.33,294.32,610.47,294.56,610.71,294.8z"/> <path d="M610.61,289.86c-1.34,2.23-1.49,2.49-0.38,4.2c0.01,0.01,0.01,0.02,0.02,0.02C609.67,292.73,610.87,291.4,610.61,289.86z"/> <path d="M618.97,272.83c-1.21,1.31-1.81,2.32-1.51,3.83C617.96,275.46,619.28,274.71,618.97,272.83z"/> <path d="M634.79,268.5c0.4-1.01,0.2-1.91-0.81-3.12C633.69,266.96,633.32,267.85,634.79,268.5z"/> <path d="M612.71,294.61c0.59,0.25,1.17-0.04,1.62-0.72C612.93,291.79,610.88,293.85,612.71,294.61z"/> <path d="M625.22,280.79c0.96-0.22,1.8,0.07,2.02-1.11C626.33,279.38,625.92,279.78,625.22,280.79z"/> <path d="M609.6,278.47c0.67,1.34,2.08-0.17-0.2-1.31C609.5,277.88,609.39,278.26,609.6,278.47z"/> <path d="M596.7,252.87c-0.15-1.22-1.12-2.08-1.2-0.86C595.46,252.57,595.93,252.72,596.7,252.87z"/> <path d="M616.85,290.57c-0.87-0.09-1.01,0.46-0.81,1.31C616.45,291.57,617.46,291.57,616.85,290.57z"/> <path d="M616.75,278.98c-0.23-0.32,0-0.07-0.26-0.01c-0.52,0.12-0.32,0.73,0.07,1.22C616.85,279.78,617.26,279.68,616.75,278.98z"/> <path d="M632.98,342.27c-5.44,0.6-12.5,3.93-14.01,6.45C619.95,349.21,617.57,349.97,632.98,342.27z"/> <path d="M603.75,341.76c11.16,9.41,9.27,8.28,10.14,7.41C614.08,348.98,611.72,345.13,603.75,341.76z"/> <path d="M631.4,319.43c0.19-0.38-0.7-0.52-1.14-0.44c-0.77,1.16-1.16,2.23-0.81,4.13C630.91,322.12,630.68,320.64,631.4,319.43z"/> <path d="M634.29,317.78c-1.01,1.71-1.41,2.62-0.81,4.03C634.59,320.7,634.89,319.69,634.29,317.78z"/> <path d="M614.44,369.28c1.21-0.5,0.81-1.21,0.5-2.12C613.93,367.76,613.63,368.37,614.44,369.28z"/> <path d="M637.31,339.04c-1.11-0.3-1.61,0.4-2.52,1.71C636.3,340.45,637.11,340.15,637.31,339.04z"/> <path d="M597.3,335.31c-0.1,0.6,0.3,0.81,0.81,1.11C598.71,335.31,598.11,335.21,597.3,335.31z"/> <path d="M631.75,421.25c-7.78,3.32-21.71,8.39-22.96,8.81C617.03,432.02,659.63,409.36,631.75,421.25z"/> <path d="M640.12,419.06v0.01c0.01,0.03,0,0.06,0.01,0.09C640.4,419.03,640.41,419.06,640.12,419.06z"/> <path d="M642.45,417.65c-0.59,1.07-1.02,1.61-2.18,1.61c-0.66,1.68-3.12,1.94-3.68,3.63c0.2-0.1,0.5,0,0.71,0
		c7.73-4.4,16.32-11.78,16.17-13.09C653.22,407.64,648.25,414.46,642.45,417.65z"/> <path d="M640.34,419.16l-0.1,0.1C640.29,419.26,640.32,419.22,640.34,419.16z"/> <path d="M620.51,440.39c-0.1,0.1,3.91-0.1,10.78-7.15C632.02,432.34,622.17,438.31,620.51,440.39z"/> <path d="M601.95,435.2c1.51,1.71,3.73,4.13,6.15,6.85C607.09,439.57,604.22,435.77,601.95,435.2z"/> <path d="M660.59,398.91c-3.63,0.3-6.45,2.22-9.37,4.03C654.65,402.54,657.74,400.79,660.59,398.91z"/> <path d="M603.65,445.37c1.31,1.41,2.02,3.43,3.93,4.23C606.98,447.48,605.06,446.68,603.65,445.37z"/> <path d="M652.53,406.56c1.81-0.4,3.33-1.31,4.84-2.52C654.14,404.55,654.14,404.55,652.53,406.56z"/> <path d="M568.98,407.98c1.17,0.81,2.34,1.57,3.76,1.63c1.46,0.07,2,1.67,8.95,3.41c-5.82-3.73-6.75-2.65-9.04-4.04
		C571.53,408.3,570.18,408.22,568.98,407.98z"/> <path d="M563.34,401.32c0.81,1.01,1.61,2.12,3.43,2.32C565.76,402.33,564.85,401.42,563.34,401.32z"/> <path d="M611.31,437.4c0.3-1.01,0.71-2.12-0.1-3.33C610.71,435.39,610.81,436.4,611.31,437.4z"/> <path d="M604.56,434.68c0.3-0.81-0.4-1.01-0.71-1.41C603.35,434.18,603.94,434.36,604.56,434.68z"/> <path d="M635.3,424.01c0.41-0.41,1.2-0.4,1.2-1.21C635.71,422.96,635.3,423.19,635.3,424.01z"/> <path d="M595.39,422.08c0.4,0.91,1.11,1.11,2.12,1.21C596.8,422.49,596.19,422.08,595.39,422.08z"/> <path d="M594.78,421.35c-1.56-1-0.97,0.73,0.6,0.73C595.63,422.07,594.99,421.48,594.78,421.35z"/> <path d="M534.01,571.34c0.43,1.05,1.71,0.66,2.44,1.46c1.28,1.28-2.38-0.07-3.44,2.16c3.28,0.4,6.66,2.63,9.37-1.11
		C551.11,573.85,543.35,567.61,534.01,571.34z"/> <path d="M685.08,572.45c-2.36,1.47-5.34,0.44-6.65,2.94c-0.2,0.39,10.26,1.53,11.09-1.43c0-1.2-1.21-1.1-1.71-1.71
		c0.42-0.84,0.36-1.3,0.22-2.34c0.14,0-10.12-3.59-13.7,2.34C674.16,572.53,672.92,572.45,685.08,572.45z"/> <path d="M688.03,569.91c0.03,0.01,0.05,0.01,0.08,0.02C687.94,569.61,688.03,569.73,688.03,569.91z"/> <path d="M680.85,579.49c6.15,1.22,9.98,0.72,12.5-1.6C689.74,576.45,683.41,576.93,680.85,579.49z"/> </g> </svg> 