<?xml version="1.0" encoding="utf-8"?> <!-- Generator: Adobe Illustrator 23.0.1, SVG Export Plug-In . SVG Version: 6.00 Build 0)  --> <svg version="1.2" baseProfile="tiny" id="Layer_1" xmlns="http://www.w3.org/2000/svg" xmlns:xlink="http://www.w3.org/1999/xlink" x="0px" y="0px" viewBox="0 0 900 600" xml:space="preserve"> <g> <path d="M686.15,545.71C685.86,545.38,686.35,545.98,686.15,545.71L686.15,545.71z"/> <polygon points="547.53,144.59 547.52,144.59 547.52,144.59 	"/> <path d="M584.64,210.66c-1.32-2.53-2.94-3.95-4.36-5.78c-3.26-0.54-20.11-2.83-21.68,0.1c5.88,0.41,11.86,0.76,17.83,0.71
		C582.13,205.64,580.63,209.54,584.64,210.66z"/> <path d="M738.36,582.24c-3.55-1.32-6.88-1.84-9.83-3.34c-6.91-3.54-21.06-16.54-26.55-19.46c-1.72-0.91-3.11-2.15-4.26-3.85
		c-5.11-7.62-10.09-9.95-11.35-12.36c-0.1-0.2-0.41-0.2-0.61-0.3c-1.11-0.41-2.13,0.71-3.45,0.1c-9.43-42.43,1.73-91.8-5.07-128.39
		c-0.1-0.91-0.5-1.72-0.41-2.53c0.47-3.96,0.23-17.3,0.81-18.24c2.62-4.22-1.42-8.33-4.66-12.26c0.71-0.2,1.62,0.51,2.03-0.51
		c-3.08-4.53-7.22-5.65-14.59-7.4c-5.27-1.25-48.23-6.12-49.25-7.4c-0.2-4.86-1.13-9.73,0.2-14.69c2.45-9.15,1.16-19.39,1.52-25.13
		c0.78-12.56,8.66-12.93,9.22-36.18c0.28-11.65,12.88-20.95,12.67-26.95c-0.26-7.26,0.85-14.41-4.56-20.16
		c-17.49-18.62-17.85-13.24-29.79-28.98c5.88,1.82,7.4,7.7,11.75,10.84c-0.41-3.65-3.24-5.88-3.45-8.82
		c-4.76-3.95-9.02-5.07-11.86-3.14c1.32,1.62,3.24,2.53,4.36,4.36c-0.24,1.2,4.34,9.19,4.97,12.06c-0.61,0.41-1.01,0.81-1.42,0.81
		c-13.82,0.16-8.18,0.51-21.58-2.94c-9.29-2.39-10.02-8.13-14.59-12.57c-3.37-3.26-6.72-6.52-10.03-9.83
		c-0.61-0.6-4.35-2.39-6.18-5.07c-1.82-1.72-5.07-1.42-6.38-4.05c5.98-7.6,5.07-16.42,4.76-24.93c3.04-1.93,3.04-1.93,3.34-3.95
		c-0.91-0.71-1.93,0.2-2.84-0.2c-0.81-0.3-1.52-1.11-2.53-1.01c-0.61,0.81,0.81,1.22,0,2.03c-1.93-1.32-1.93-3.55-2.74-5.47
		c2.53,1.72,5.37,1.82,7.9,2.53c1.11,1.22,1.42,2.84,2.84,3.55c4.66-1.01,4.66-1.01,4.26-3.95c-1.11,0-1.22,1.52-2.53,1.52
		c-2.58-0.86-8.21-9.86-9.53-12.26c0-0.1,0.3-0.41,0.41-0.61c0.81-0.2,1.32,0.81,2.43,0.71c-0.2,1.52,0.22,2.82,1.11,4.05
		c1.24,1.7,1.82,1.93,3.75,1.01c0-2.37-2.25-1.68-2.63-6.69c0.81-0.91,1.72-1.82,2.53-2.74c2.33,1.82-0.61,2.84-0.3,4.56
		c1.22,1.32,1.22,3.34,2.43,5.27c4.99-4.08,0.49-4.01-0.3-5.47c1.22-4.56,0.2-6.28-5.37-8.61c-2.23,1.32-2.23,3.95-3.65,6.28
		c-0.41-4.26,1.42-6.69,4.26-8.41c3.86,0,3.36,3.86,7.6,5.57c2.23,0.9,3.45,0.41,5.07-2.43c-2.03,0.91-3.65,1.62-5.47,0.1
		c1.72-0.3,3.45,0,4.66-1.22c2.84-2.84,6.69-4.36,9.32-7.4c-0.71-1.62-0.1-3.04,2.03-4.66c0.51-3.34,2.03-6.59,1.52-10.03
		c-1.62,0.3-3.14,1.42-5.27,0.2c3.55-1.72,6.69-3.24,10.03-1.11c1.52-0.1,2.13-1.62,3.45-1.93c1.42,0.2,2.43,1.11,3.95,1.82
		c1.42-1.52,3.65-0.91,5.27-1.72c4.95,1.75,2.94,5.88,8.01,17.02c-0.51,0.71-0.7,1.33-1.22,1.62c-2.91,1.67-2.73,4.05-1.93,6.69
		c2.56,8.43,5.74,8.78,5.17,11.45c-4.02,2.51-2.81-1.75-6.08,1.52c-0.2,0.2-0.2,0.71-0.3,0.91c0.71,0.91,1.52-0.2,2.33,0.51
		c-0.41,1.72,0.81,3.24,1.32,4.66c-2.13,3.45-5.57,0.91-8.31,2.33c2.03,2.23,4.36,0.81,6.28,1.22c3.9,2.43-0.3,2.6-0.3,5.17
		c1.11,2.03,2.13,4.26-0.3,6.59c-3.24,0.61-6.38,1.6-9.93,0.81c-7.74-1.73-8.33,2.15-8.11,6.59c0.23,4.46,1.38,8.59,2.74,12.87
		c1.83,5.77,8.19,6.57,10.54,11.05c0.21,0.4,0.81,0.41,1.22-0.1c-1.32-3.85-4.66-6.69-9.12-7.9c-2.53-7.5-3.65-17.63-2.23-20.98
		c0.86-0.43,7.1,2.59,14.29-0.1c4.35-1.63,4.72-4.61,3.04-8.82c0.2-1.22,1.52-1.93,1.22-3.45c-0.3-0.61-0.71-1.52-1.01-2.33
		c0.3-0.91,1.32-1.22,1.42-2.23c0.41-1.62-1.01-3.14-0.51-5.17c2.43-1.22,4.46-2.84,3.34-6.38c-2.23-2.53-3.95-5.57-4.76-9.02
		c0.41-1.01,1.82-0.91,2.03-2.03c-0.61-0.51-1.52,0-2.13-0.81c5.58-5.41,1.93-11.85-4.26-24.52c-6.51-13.34-41.16-15.08-47.22-9.02
		c-3.04,3.04-6.99,4.97-9.32,8.51c-21.21-2.05-15.22,1.07-23.2,13.58c-3.89,6.1-1.46,14.51,1.62,20.98
		c2.43,5.08,0.49,5.68,5.27,19.76c5.25,15.47-1.02,24.52,1.11,26.95c1.93-1.72,1.11-4.26,2.63-5.98c0.7,10.77-0.8,9.63-4.36,11.25
		c-11.04,5.04-9.79,9.71-11.35,12.77c-4.97,9.75-2.55,20.44-4.46,30.2c-3.52,17.95-6.34,18.7-4.97,22.9
		c0.17,0.51-0.51,9.69-0.81,15.71c-1.19,23.72-5.3,13.93-3.34,32.02c1.25,11.54-2.64,18.67,0.1,37.29c5.32,36.17,0,39.78,4.36,45.29
		c-0.61,3.95-0.63,7.81-0.1,11.55c1.16,8.24,0.81,17.94,5.78,22.19c2.33,2,7.31,17.65,10.34,12.97c0.67-1.04,1.65,1.19,3.24,1.32
		c0.51,0.1,1.22-1.01,2.43,0.3c0.44,5.75,0.04,10.3,0.41,14.08c1.98,20.78-4.21,36.68-6.08,43.57c-0.71,2.63-2.43,4.66-3.85,6.99
		c-18.04-9.62-12.85-6.52-28.47-13.27c-3.75-1.62-7.79-2.08-11.86-1.22c-9.66,2.05-13.44,0.59-20.57-0.51
		c-2.52,0-3.45-2.84-15.81-5.37c-5.16-1.05-10.23-1.93-15.4-2.94c-0.51-1.52-1.01-2.94-2.43-4.05c-2.46,0-6.58-1.8-10.44,0.3
		c-10.32,5.64-15.36,1.58-19.56,11.55c-3.01,7.15,2.33,13.23,2.63,15.3c0.76,5.17,4.93,7.68,9.63,11.75
		c2.35,7.35-6.16,10.84-3.04,26.95c1,5.17,6.89,10.29,11.96,10.34c19.03,0.16,27.13,5.18,26.65-3.04c0-14.25-7.87-12.43-7.09-18.64
		c0.4-3.21-0.49-5.93-1.3-8.84c-1.06-0.3-1.7,0-2.06,1.13c1.2,4.79,1.33,4.64,0.71,5.57c-2.63-1.11-5.17,0.2-7.8,0.41
		c-2.53,0.2-5.27-0.61-7.3,1.82c0.91,1.62,2.53,1.62,3.85,2.23c0.3,0.51-0.3,1.22,0.41,1.82c8.55,3.56,1.51,0.84-0.91,3.95
		c3.75,1.32,6.59-0.51,9.83-1.52c1.62,1.22,3.75,1.22,5.88,1.42c2.84,3.65,2.94,7.8,2.84,11.96c-1.52,0.61-2.54,0.42-3.65,0.3
		c-18.5-2-31.12,3.38-29.79-18.54c0-5.47,2.29-2.27,3.65-12.46c7.35-5.09-5.87-8.53-10.03-13.48c-0.61-1.72-0.11-3.04-0.71-4.36
		c-1.33-2.93-1.6-6.18-1.93-9.32c-0.66-6.39,2.84-10.15,9.12-9.93c7.56,0.27,4.76-4.46,14.09-4.46c-3.55,2.44-8.05,4.6-6.89,10.74
		c1.31,6.94,4.15,7.74,3.14,8.41c-0.51,0.2-1.01-0.61-1.52,0.1c1.01,3.75,6.49,10.03,9.12,10.34c3.94-2.25,3.54-0.07,5.98,0.1
		c1.01-0.3,2.13-0.71,3.45-1.11c16.88,2.81,16.46,5.64,19.15,6.18c9.5,2.87,15.63,9.18,28.58,13.07
		c3.48,1.05,11.48,7.42,25.13,11.86c12.32,4,21.38,11.75,34.15,6.28c9.09-3.9,8.63-6.71,17.53-23.41c6.8-12.75,4.45-5.57,26.95-37.9
		c3.97-5.7,11.21-30.6,12.67-37.39c0.61-2.84,0.2-5.67,0.71-8.41c2.91-15.8,1.52-16.01,2.74-16.82c6.38-2.43,12.58-3.83,18.34-6.59
		c10.61-5.07,2.7-1.11,20.47-6.49c1.01-0.31,2.03-1.01,3.55-0.41c-2.57,3.85-8.63,19.43-6.49,34.05c4.36,29.67,9.05,30,10.54,38.81
		c0.96,5.68,3.95,10.84,3.75,16.82c3.46,11.8,8.8,34.03,6.08,46.11c0,0.2-0.2,0.3-0.41,0.51c-0.51-0.2-1.11-0.51-1.62-0.81
		c-2.23,1.52-3.04,3.75-3.55,6.18c-0.82,3.95-2.53,7.6-2.53,11.75c0,0.91-0.59,1.83-1.01,2.74c-2.34,5.01-2.74,10.64-5.47,15.2
		c0.71,2.43,2.42,3.17,4.15,3.65c20.45,5.71,25.94,1.75,29.69,2.63c25.21,5.95,48.77,1.55,52.49,1.82
		c4.36,0.33,8.41-0.91,12.57-1.82C740.58,589.53,739.88,585.78,738.36,582.24z M554.85,148.34c-1.01,1.72-1.93,2.74-3.45,3.75
		C552.51,148.24,552.51,148.24,554.85,148.34z M430.61,545.41c0.28-3.18-2.31-2.68-4.66-3.1c1.01-1.52,2.53-1.22,3.24-3.04
		c1.11,2.33,1.82,4.26,3.04,5.78C431.89,545.73,430.61,545.52,430.61,545.41z M620.09,288.53c-1.87,13.26-0.07,13.19-6.58,23.86
		c-8.17,13.39-0.83,33.82-7.3,52.49c-4.26,0.51-8.41,0.21-12.57,0c-17.48-0.86-9.25-1.11-17.53-3.55
		c-14.5-4.26-17.59-5.1-17.93-5.16c0,0-0.01,0-0.01,0c-0.75-2.64-0.41-3.82-2.34-6.38c-0.91,2.13,1.01,3.85,0.1,5.88
		c-8.98-2.12-17.84-4.63-27.32-5.65c-0.83-0.17,15.22-26.25,12.33-36.3c-0.97-3.38,1.96-6.9-0.2-12.67
		c-0.72-1.92-0.81-3.95-1.32-6.28c22.49-7.87,68.72-11.11,68.99-10.84c0.09,0.1,1.76,2.13,1.86,2.13
		C613.37,286.51,620.69,287.93,620.09,288.53z M552.41,363.56c1.39-0.24,4.58,0.49,4.58,1.25c0.22,2.72-7.7,1.73-13.4,15.57
		c-1.33,3.24-3.45,5.78-5.98,8.71c-1.22,4.97-3.65,10.03-4.76,16.42c-1.78-4.52-3.89-4.91-10.34-11.35
		c-3.87-3.87-0.82-7.76-3.24-17.23c-0.1-0.61-0.2-1.31,0-1.82c0.71-2.43,0.71-4.97,0.71-7.9c10.64-2.03,21.28-2.43,32.43-2.43
		C552.41,364.04,552.41,363.58,552.41,363.56z M533.06,358.8c5.27,0.35,9.77,2.03,17.53,4.36c-26.38,0.81-30.16,3.34-29.95,2.52
		c1.52-4.61,3.73-8.54,6.34-12.86c14.95,2.32,29.84,5.76,44.12,11.59c1.96,0.8-10.77-0.24-10.88-0.24
		c-0.91-0.61-1.82-1.42-3.04-1.62C532.42,356.7,533.59,357.74,533.06,358.8z M548.56,201.43c5.87,3.63,19.98,17.12,23.41,22.29
		c3.72,5.61,17.22,8.64,23.89,9.53c0.66,0,5.4,0.94,10.96-1.93c1.61-1.26,1.74-4.03,2.04-3.74c4.88,4.92,16.2,14.06,16.3,14.06
		c9.86,8.31,9.16,24.37,3.34,29.79c-3.49,3.25-8.06,13.38-8.1,13.48c-12.84-5.89-21.29-2.8-38.4-1.42c-8.04,0-31.05,3.77-42.75,8.61
		c-1.92-4.7-2.15-9.35-5.98-12.78c0.32-1.91,2.24-8.11,2.34-8.11c7.61-1.03,13.02-7.06,14.59-8.11c3.46-2.96,5.58-9.34,5.58-9.44
		c2.1-5.36,13.02-14.77,7.02-30.34C557.02,208.28,542.68,202.09,548.56,201.43z M546.84,172.66c2.58,4.25,0.67,15.89-0.71,18.64
		c-1.42-0.24,0.37-2.82-1.72-11.96C544.41,178.68,543.17,175.69,546.84,172.66z M543.93,165.62c2.78,4.57-0.85,5.52,2,5.52
		c-0.41,1.11-1.11,1.93-2.33,2.94c-0.81-3.75,0.1-7.19-1.01-10.54C543.03,164.24,543.51,164.92,543.93,165.62z M543.29,157.86
		c0.81,0.51,1.52,0.51,1.62,1.52C543.77,159.75,543.39,159.06,543.29,157.86z M555.45,142.36c-4.56-0.94-7.49,1.48-8.01,5.78
		c-0.27,2.23,0.41,1.61-1.22,4.86c0.65,3.69,4.44,5.66,3.96,7.83c-0.01,0.03-0.02,0.08,0.04,0.08c1.52,0.15,2.18,2.3,2.18,2.42
		c-2.63-0.51-4.76-0.91-6.69-3.04c1.69-0.22,3.06,1.1,4.46,0.61c-0.53-0.46-9.05-5.34-6.1-5.06c0.51,0.05,1.05,0.63,1.53-0.01
		c-2.03-2.33-5.09-3.74-6.38-6.79c-3.35-7.88-0.2-1.65,3.44-2.53c-2.23-1.52-4.46-2.94-5.27-5.57c3.09,1.54,5.75,3.75,10.12,3.65
		c-3.85-2.23-7.99-2.84-10.02-7.09c0.1,0.03,18.8,3.63,19.96,3.85C557.05,142.28,556.4,142.55,555.45,142.36z M541.27,176.51
		c-0.1-0.51-0.1-0.91-0.2-1.93C541.57,175.49,541.77,175.9,541.27,176.51z M534.68,133.73c0.71,4.27,0.5,8.52,1.42,12.68
		c1.27,5.75,3.2,7.85,4.76,17.42C534.28,154.2,533.97,144.07,534.68,133.73z M539.95,167.49c-0.92-1.11-1.2-1.98-0.81-3.34
		C539.54,165.36,540.15,166.07,539.95,167.49z M570.58,135.8c-3.38,2.73-7.99,2.04-11.48,4.23c-5.57-0.71-10.74-2.33-15.91-4.26
		c-0.2,0.51-0.41,0.91-0.61,1.42c-1.62-0.81-3.14-1.62-4.46-2.84c-0.1-2.03,0.3-3.95,0.91-5.98c5.07,3.68,10.52,6.25,16.46,7.71
		c1.26,0.31-3.3-1.75-3.59-2.04c0.42-0.65,1.14-0.28,1.52-0.4c0.21,0.23,1.21,1.03,4.25,1.42c1.62,0.21,3.04,0.71,4.05,1.93
		C566.97,136.65,571.32,135.21,570.58,135.8z M566.8,130.6c0.3-0.81,0.91-0.51,1.52-0.2C567.89,130.92,567.33,131.04,566.8,130.6z
		 M569.23,131.21c2.63-0.91,4.26-2.74,6.69-2.53C577.17,130.92,572.07,131.41,569.23,131.21z M578.46,116.72
		c-3.49-1.14-8.91-2.33-5.27-3.04c4.26,1.42,8.41,3.14,12.16,5.57C582.98,119.41,580.66,117.44,578.46,116.72z M588.79,118.44
		c0.69,0.4,1.52,0.39,1.63,1.72C589.1,120.25,588.58,119.98,588.79,118.44z M587.58,117.33c-1.69-0.6-5.51-3.28-2.36-2.03
		C586.24,115.71,587.07,116.31,587.58,117.33z M585.04,111.15c-2.84,0-4.97-1.82-7.5-2.74
		C580.38,108.61,582.91,109.43,585.04,111.15z M575.42,107.7c-0.61,0.3-1.11,0.3-1.72,0C574.3,107.3,574.81,107.5,575.42,107.7z
		 M576.73,109.83c-6.08-1.32-12.16-1.22-18.34-1.32C564.67,107.4,572.07,107.91,576.73,109.83z M567.01,111.35
		c0-0.27-0.43-0.2,3.85-0.2C570.86,111.42,571.28,111.35,567.01,111.35z M557.78,109.73c-0.25,0.43-0.92,0.45-1.32,0.61
		c0,0,0.63,0.79,0.71,0.91c-0.73,0.73-1.61-0.01-2.33,0.91c0.11,0.01,7.74,0.58,11.05,0.41c6.76-0.36,5.95,3.15,4.97,2.74
		c-2.55-1.07-5.15,0.56-7.7-0.2c-2.44-0.73-12.34-2.49-12.67-2.53C552.62,110.24,554.64,108.82,557.78,109.73z M547.85,114.9
		c7.19,0.2,14.09,1.42,21.18,1.62c0.91,0.41,1.93,0.91,3.14,1.42c-2.65,0.88-4.01,0.09,2.13,2.23c-3.4,0.57-5.73-0.81-8.41-0.91
		c0.1,0.3,0.2,0.51,0.3,0.91c-1.85,1.24-22.59-7.03-19.96-0.71c7.5,0.51,14.9,1.93,21.89,3.85c-0.53,1.06-1.4,0.58-1.82,1.11
		c0,2.05-0.39,1.66,0.21,1.76c7.03,1.18,9.51-2.29,10-1.4c0.35,0.63,0.06,1.28-0.39,2.17c-4.46-0.3-8.51,1.7-12.97,2.23
		c-6.02,0.72-16.05-4.95-21.65-7.54C540.11,121,547.44,115.24,547.85,114.9z M572.79,122.9c-1.33,0.71-2.14,0.71-2.95-0.41
		C570.92,121.96,571.77,122.25,572.79,122.9z M540.46,125.33c4.36,3.04,9.22,4.97,14.59,5.88c0.06-0.1,0.31-0.49,0.31-0.59
		c0.87-1.84-3.36,0.88-13.9-6.61c-0.4-0.28-0.27-0.81,0-1.22c1.72,0.2,3.86,0.91,4.86,2.23c1.23,1.61,2.84,2.02,4.46,2.74
		c6.92,3.05,4.09,2.44,10.19,3.5c0.71,0.12,4.87,0.97,4.43,1.2c-3.74,1.92-7.43,1.08-12.08,1.08c-2.32-2.71-1.44,1.98-13.69-6.18
		C539.44,126.35,539.65,125.84,540.46,125.33z M524.96,123.47c0.56-1.6,2.7-3.49,2.8-3.54c0.24,0.43,0.23,0.97,0.13,1.46
		C524.74,123.76,524.68,124.29,524.96,123.47z M526.78,151.38c-1.18,1.8,0.59,3.18-0.2,4.56c-2.73-1.4,0.17-2.75,2.33,18.85
		c-1.42-5.57-4.75-10.43-5.07-16.42c-0.14-2.63-1.71-5.27-2.63-7.9c-6.47-18.51,0.39-27.02,11.25-28.58
		c-4.4,4.83-9.61,10.57-6.38,19.86c0-7.5,1.42-14.39,7.7-19.35c1.22-0.81,3.24,1.01,4.36-1.22c-2.2-3.3-8.31-1.12-10.02-1.4
		c3.65-1.82,7.79-1.49,11.65-0.24c0.11,0.04-1.95,4.8-4.27,7.01c-6.52,6.23-4.36,18.97-4.36,26.35c0,7.56,3.18,9.35,2.97,28.9
		c-0.18,16.58,1.7,18.28-3.17,18.93c5.55-19.4,1.32-31.82,1.32-31.72c0,33.23-1.53,28.98-1.49,22.9
		C530.79,186.11,532.95,174.21,526.78,151.38z M509.15,430.64c-1.22-1.52-1.72-2.63-1.22-3.95
		C508.54,427.71,509.45,428.62,509.15,430.64z M518.47,442.3c1.31-0.41,1.43,0.42,2.03,0.91
		C519.28,443.41,519.08,442.8,518.47,442.3z M518.16,439.16c-0.34-0.53-3.95-15.6-6.59-15.6c0.19,3.09,4.24,11.49,5.78,17.63
		c-2.03-0.51-2.53-0.81-3.45-2.94c-3.63-8.41-3.09-10.82-5.78-12.26c-1.12-0.6-1.39-2.12-1.22-3.34c0.37-2.63-0.22-5.17-0.41-7.7
		c-0.83-11.66,0.92-14.25-1.72-19.05c-1.1-1.99,0.09-9.71-1.22-28.47c-0.54-7.82-2.99-8.9-1.93-36.99c0.05-0.5,0.14-2.37,0.81-3.04
		c0.81,1.72,0.61,3.65,2.33,5.07c-0.51-3.08-0.61-5.65-1.72-8.11c-0.69-1.53-0.21-3.55-0.51-5.37c-0.93-5.67-0.9-11.45,0.71-16.72
		c4.16-13.63,0.49-23.93,4.01-36.43c0.42-1.47,3.4-16.24,5.61-20.51c-1.22-11.45,0.09-22.3,4.36-32.83
		c0.73-1.79,1.73-3.05,3.65-3.85c1.52-0.63,9.44-3.91,10.44-5.67c0.82-1.44,4.47-1.46,4.47-2.47c1.66-23.41,1.24-23.26-2.75-43.73
		c2.87,8.08,5.83,17.12,7.8,25.23c1.86,7.61,1.6,1.13,1.01,14.59c-0.34,1.14-1.9,1.69-2.43,2.94c1.11,1.22,2.23-0.61,3.55,0.2
		c0,1.93,2.53,2.84,2.94,5.07c3.24,2.33,5.06,5.89,7.7,8.71c9.71,10.39,10.01,23.59,5.67,30.1c-0.81-0.51,0.91-1.82-1.01-1.82
		c-1.3,5.21-4.42,9.75-6.99,14.39c-3.4,6.15-8.01,10.64-15.1,13.27c2.68-14.28,3.34-15.15,2.13-17.83c-0.67,0.33-1.02,0.8-1.23,1.32
		c-0.01,0.03-1.94,11.56-3.03,14.69c-2.91,8.37-4.56,20.2-9.61,29.15c-0.58,1.03,0.47,3.36-3.35,7.94
		c3.77,1.89,10.53-18.36,11.55-22.29c1.6,0,3.51,9.48,5.98,18.85c1.01,3.85,0.16,7.8-0.1,11.65c-0.7,10.45,0.05,15.82-13.48,38.1
		c-7.81,12.86-2.69,15.66-2.34-44.47c-2.66-0.2-1.84,1.67-3.14,20.98c-1.12,16.58,1.18,9.08-1.52,29.08
		c-0.99,7.33-1.31,24.57-0.61,30.4c0.28,2.33,0.72,4.45,2.23,6.38c2.45,3.13,4.64,6.31,7.8,8.71c3.13,2.38,2.7,4.68,4.97,10.44
		c2.11,5.37,1.95,11.32,3.34,16.92c-7.31-1.46-2.62-9.82-8.41-14.49c-1.51-1.22-0.61-3.14-0.91-4.76
		c-1.93,0.75-0.59,7.07-1.22,12.77c-0.31,2.84,1.5,5.58,2.74,8.21c1.1,2.34,1.8,4.98,3.24,7.3c0.67,1.07,1.18,2.51,0.49,3.96
		c-0.5,1.04-1.68-0.34-1.91-0.52c-8.02-5.63-8.9-14.43-11.96-20.57c-0.51,2.33-0.51,2.33,1.82,8.41c3.2,8.33,3.52,8.87,6.63,11.23
		c4.25,3.24,3.48,3.52,3.18,4.24c-0.36,0.85-0.84,1.56-1.6,2.17C525.97,446.45,519.07,440.58,518.16,439.16z M528.6,427.71
		c-3.08-3.56-2.23-6.83-1.52-10.94C529.01,420,528.5,423.55,528.6,427.71z M579.87,488.81c-21.93,36.19-15,17.69-32.12,48.54
		c-3.78,6.81-5.37,12.08-11.05,13.27c-11.58,2.43,0.19,3.73-19.76-0.51c-5.41-1.15-3.23-1.47-8.01-3.55
		c-2.92-1.27-30.16-12.08-45.8-21.89c-7.29-4.57-23.35-9.87-24.93-10.23c-9.29-2.18-4.87,0.18-12.26-0.81
		c-7.9-1.06-1.89,3.68-9.32-3.75c-3.26-15.36-5.09-14.96,1.62-19.15c1.65,0-2.01,1.02,19.66,4.86c14.5,2.57,22.3,9.46,36.28,6.59
		c8.58-1.76,14.85,1.75,24.73,5.87c16.19,6.74,15.04,6.16,14.48,8.12c4.42-0.75,6.61-3.92,8.11-8.11
		c9.15-25.67,8.07-30.49,7.9-40.33c-0.32-19.38-1.28-17.33-0.71-17.82c1.87-1.87,1.83-4.9,4.36-5.79c1.66-2.77,0.01-5.16,0.81-5.16
		c5.88,0.41,6.23,2.17,13.48,1.1c9.08-1.33,23.42-1.74,33.84-5.88c4.48-1.78,9.22-2.43,14.09-3.55
		C595.39,432.06,590.38,471.47,579.87,488.81z M648.48,492.66c-13.68-49.75-11.62-34.95-11.15-54.82c0.05-1.92,4.1-13.59,4.76-18.24
		c1.11-7.79,10.62-12.03,0.41-7.4c-5.45,2.47-11.33,2.9-16.92,4.66c-9.69,3.06-17.28,7.69-32.32,10.44
		c-10.52,1.92-25.4,8.11-50.87,8.31c-3.98,0.03-4.62,0.9-8.79-0.66c-0.81-0.41-1.64-4.77-1.75-5.32c2.49,0.59,4.37,3.43,6.18-0.2
		c-1.82-5.98-2.03-12.46-4.36-18.54c1.06-2.22,6.56-31.39,25.84-44.18c42.84,3.43,34.23,0.77,51.27,3.24
		c39.97,5.8,46.18,5.89,57.96,10.44c0.96,4.81,4.28,5.99,6.69,9.93c-2.03,5.17,0.41,11.15-2.23,16.92c0.61,3.85,1.34,8,2.03,12.26
		c1.91,11.79-0.04,39.07,0.1,41.65c1.79,32.14-3.09,48.41,4.26,83.7c-7.07,8.93-5.14,8.06-7.6,9.22c-10.27,4.85-8.7,7.08-11.69,5.05
		c-0.92-0.62,1.22,0.18,1.56-1.6c-2.43-3.64-0.23-8.18-2.43-11.86c-0.43,3.21-2.22,8.77-0.2,12.36c-2.53-1.32-2.84-1.72-2.33-4.36
		c0.81-3.04,0.81-6.08,1.52-9.32c1.52-0.71,2.24-2.03,2.13-3.95c-0.13-2.22,0.12-6.43-1.42-9.12c-0.05,1.41-0.28,8.02-0.41,9.02
		C655.57,533.34,661.85,541.33,648.48,492.66z M732.58,591.76c-4.66-0.86-11.16,0.85-28.31,1.26c-31.83,0.76-23.04-3.66-36.84-2.37
		c-8.66,0.81-22.2-1.65-24.12-3.95c2.43-4.36,2.44-9.58,4.97-13.98c0.29-0.51,0.51-1.11,0.51-1.72c-0.05-4.76,2.22-9.11,2.84-13.78
		c0.12-0.91,0.41-1.72,1.01-2.33c0.55,3.58,6.3,8.38,9.44,8.14c2.05-0.16,3.15-2.5,11.23-6.82c6.53-3.5,5.51-8.66,12.67-10.74
		c0.09,0.13,0.15,0.2,0.19,0.25c0.37,0.41,2.02,2.34,8.02,9.57c-0.67,0.26-7.86,3.05-8.92,4.26c-0.61,0.7-1.01,1.42-0.1,2.53
		c4.6-0.38,10.06-3.94,10.55-3.75c0.98,0.39,2.28,2.43,1.31,2.43c-4.38,0.42-9.7,2.04-8.21,6.18c4.25-1.77,8.26-1.58,11.65-4.56
		c1.04,0.39,2.22,1.24,3.14,2.43c-2.84,1.01-6.38-0.1-8.11,3.55c4.17,2.27,12.04-1,11.14-0.09c-1.62,2.21-4.96,1.41-5.77,4.04
		c3.76,4.14,12.11-1.02,12.44-0.8c3.34,1.88-1.11,1.71-2.72,4.35c2.22,1.83,4.67,1.2,7.4,0.3c3.85,2.31,9.72,7.51,17.53,8.21
		C736.66,588.73,737.05,592.59,732.58,591.76z"/> <path d="M431.42,530.96l-0.1-0.1C431.36,530.98,431.3,530.92,431.42,530.96z"/> <path d="M558.35,241.69c-0.08,0.03-0.08,0.11-0.01,0.04C558.38,241.7,558.38,241.68,558.35,241.69z"/> <path d="M307.8,573.42c0.76-5.06-1.32-8.27-6.28-8.92c-18.78-2.45-5.89,1.39-25.54-5.98c-2.74-3.48,0.28-0.83-12.26-13.38
		c-2.88-2.88-1.62-7.8-7.19-9.42c0.53-3.95,6.22-32.45,7.3-37.19c5.09-22.37,9.22-17.72,9.22-56.95c0-2.33-0.37-4.65,0.61-6.89
		c0.53-1.21-0.71-2.03-0.51-2.84c4.97-8.29,2.03-4.28,3.45-13.38c2.14-13.74,1.87-14.85,0.41-16.31
		c12.67-60.19,6.02-70.65,7.4-72.86c5.47-1.01,10.04-5.67,10.74-11.25c1.19-9.43,1.45-9.67,0.41-12.67
		c-4.94-14.24-6.98-16.34-6.18-20.06c0.25-1.97-1.67-5.3-6.18-22.6c-2.68-10.25-4.35-4.1-7.8-40.13
		c-1.13-11.79,8.48-13.2,8.92-36.88c0.16-8.32,6.36-15.04,10.54-21.58c2.19-3.42,2.71-4.54,1.93-15.3
		c-1.09-14.95-19.2-20.3-34.35-39.82c6.97,2.54,9.03,10.36,12.06,10.74c-0.61-3.24-3.24-5.57-3.55-8.61
		c-4.56-3.85-8.61-4.86-11.86-3.14c5.54,4.81,4.61,3.39,3.75,4.26c0.97,4.16,8.33,12.92,3.95,12.97c-13.32,0.15-8.1,0.32-21.18-3.04
		c-9.67-2.48-10.81-9.13-13.98-12.06c-3.74-3.45-12.16-11.66-11.05-10.54c-2.03-1.52-4.38-2.81-6.18-4.56
		c-1.85-1.8-5.07-1.52-6.38-4.15c5.88-7.7,5.27-16.42,4.66-24.83c1.22-1.52,4.15-1.42,3.24-4.66c-2.03,1.62-3.55-0.51-5.37-0.61
		c-0.1,0.81,0.91,1.22,0.1,1.93c-1.72-1.22-1.93-3.04-2.74-5.57c2.94,1.82,5.67,2.03,8.11,2.74c1.9,2.66,1.92,3.22,2.84,3.45
		c4.66-1.11,4.66-1.11,4.05-4.15c-1.01,0.41-1.22,2.03-2.53,1.82c-3.04-1.93-10.03-11.75-9.02-12.87c0.81,0.3,1.62,0.71,2.43,1.01
		c0,3.63,3.11,7.25,4.76,4.76c-0.3-2.23-3.24-3.85-2.23-6.99c1.01-0.41,1.01-2.03,2.33-2.33c0.61,0.3,0.91,0.81,1.01,1.62
		c-0.2,0.81-1.32,1.32-1.32,2.63c-0.1,0.91,0.71,1.52,1.11,2.43s0.1,2.23,1.62,2.84c0.81-0.91,2.03-1.62,1.93-3.04
		c-0.51-1.52-2.23-1.32-2.74-2.53c2.13-3.34,0.41-6.18-5.17-8.41c-2.23,1.32-1.93,4.15-3.85,6.49c0.14-6.33,4.62-11.87,8.51-6.18
		c0.7,1.02,1.63,1.81,2.63,2.43c2.56,1.58,3.95,1.22,6.38-1.82c-2.23,0.51-4.05,1.72-5.98-0.1c2.13-0.1,4.04-0.01,5.47-1.52
		c2.51-2.65,5.98-4.05,8.41-6.79c-0.1-2.23,0.3-4.15,2.74-4.97c-0.77-2.45,0.76-0.71,1.32-10.23c-3.85,1.42-6.28,1.22-8.41-0.81
		c2.53,0.2,4.78,0.55,7.19-0.61c1.63-0.78,4.15-1.01,5.98,0.71c1.11-0.41,1.93-0.91,2.44-1.82c-6.77-4.4-10.71-4.12-12.98-6.38
		c4.66,0.71,8.71,2.94,12.46,4.66c0.8,0.88,0.51,1.33,0.51,1.72c1.82-0.91,3.04,0.81,4.16,1.82c1.22-1.62,3.65-0.51,5.27-1.82
		c0.81,0.51,1.62,1.01,2.53,1.62c1.93,5.17,2.94,10.74,5.07,15.3c-0.41,2.13-2.03,2.33-3.04,3.75c-1.22,6.08,2.84,10.74,5.67,15.81
		c-1.11,0.91-1.93,1.93-3.34,1.22c-2.03-1.01-2.84,0.3-3.75,1.52c0.81,1.22,1.72-0.1,2.63,0.51c-0.1,1.62,0.1,3.24,1.42,4.46
		c-2.03,3.75-5.67,1.52-8.61,2.63c2.13,2.23,4.36,1.01,6.18,1.22c4.2,2.1,0.17,3.1-0.1,5.17c1.11,2.03,2.33,4.26-0.1,6.59
		c-3.14,0.81-6.29,1.64-9.83,0.91c-2.43-0.5-5.37-0.91-7.6,1.32c-2.14,4.55,0.54,14.22,2.23,18.95c0.39,1.09,0.7,2.06,1.92,2.3
		c-0.33-3.12-3.91-17.6-2.02-20.84c0.81-0.27-0.06-0.33,1.93,0.1c8.03,1.76,18.63,0.35,16.31-7.4c-0.21-0.71-0.51-1.32-0.71-2.03
		c0.51-0.91,1.32-1.52,1.42-2.63c0-1.22-1.11-1.93-1.11-2.94c0.51-0.91,1.52-1.42,1.52-2.63c-0.1-1.42-1.11-2.84-0.61-4.46
		c8.51-6.86,0.31-5.8-1.42-15.6c0.41-1.01,1.82-0.81,1.82-2.03c-0.61-0.41-1.42-0.1-1.82-0.81c3.04-3.34,3.13-7.29,1.52-11.25
		c-6.1-14.97-8.02-18.58-15.91-21.58c-1.62-0.62-3.34-0.62-4.97-1.22c-12.27-4.53-28.39-3.06-32.12,0.51
		c-3.16,3.02-7.19,4.97-9.53,8.61c-10.84-0.7-15.58-2.89-19.25,5.78c-3.58,8.47-7.12,10.67-5.78,17.63
		c2.02,10.42,4.09,9.73,5.27,17.02c2.06,12.72,8.13,20.52,4.86,34.66c-0.42,1.82-0.81,3.75-0.2,5.88c1.82-1.72,1.22-4.26,2.74-6.38
		c0,14.93,0.16,7.43-10.74,15.2c-1.3,0.93-2.41,2.03-3.04,3.55c-3.45,8.35-6.04,16.82-5.47,25.94c0.43,6.78-3.58,22.94-6.69,29.89
		c0.81,1.52,1.12,3.04,0.81,4.66c-1.15,5.93,0.26,23.29-3.85,32.83c-1.53,3.54-0.81,7.5-0.51,11.25c1.4,17.04-2.2,16.08-0.51,33.64
		c0.81,8.41,2.84,16.62,2.84,25.13c0,3.14,0.69,6.38,0.51,9.42c-0.28,4.59-1.21,15.06,2.13,18.24c-0.84,6.55,0.28,17.14,1.11,22.5
		c1.93,12.31,3.06,7.75,6.69,15c1.62,3.24,2.94,6.69,5.27,9.42c0,7.4,0.94,14.59,2.33,21.58c6.34,31.98,15.08,32.35,8.01,56.85
		c-1.73,5.99-2.25,4.64-11.45,32.02c-10.76,32.02,6.65,64.55,3.75,84.51c-0.82,5.66,2.26,9.76-2.03,12.97
		c-4.11-1.37,3.62-1.89-0.71-4.05c-5.67,2.07-5.2,7.47-6.89,13.17c-2.35,7.93-6.36,15.3-7.09,23.71c-0.19,2.18-1.82,3.56-1.01,5.17
		c6.69,1.67,11.1,5.77,25.94,4.15c3.55,3.75,8,5.22,13.17,5.17c0.1,0,14.66,3.28,27.26,0.3c13.04-3.08,12,0.03,18.95-6.59
		c1.45-1.38,2.53-3.04,1.42-5.27c-0.3-0.44,1.97-2.99-0.2-6.69c-2.33-1.42-4.97-1.21-7.4-1.93c-9.39-2.76-8.93-5.27-13.68-9.22
		c-4.89-4.07-4.44-8.09-9.42-11.15c2.53-2.63,4.94-4.77,5.47-8.41c0.19-1.32,1.01-2.84,2.43-3.75c1.03,2.06-1.21,4.35,5.98,9.32
		c2.65,1.83,4.54-0.23,16.72-7.8c1.01-1.01,0.3-1.72,0.51-2.53c1.93-1.62,3.04-4.05,5.78-5.57c1.11,3.04,2.74,5.67,5.07,8.01
		c-2.03,0.61-4.15,0.61-5.78,1.72c-1.62,1.11-1.62,1.93,0,3.75c2.43-1.01,5.07-2.13,7.5-3.14c1.11,0.81,2.03,1.52,2.23,2.84
		c-2.23,0.41-4.76-0.41-6.08,2.43c3.68,3.68,9.12-2.62,10.13,1.93c-1.22,1.42-4.46,0.41-4.15,3.55c2.43,1.62,4.46-0.61,6.69-0.41
		c0.71,0.51,0.41,1.72,2.03,2.13c3.34-0.91,6.59,1.11,9.93,2.43c6.89,2.73,10.7,0.61,19.86,3.75c2.73,12.07,3.13,7.78-0.61,11.05
		c-10.07,7.85-14.75,3.8-26.65,5.07c-12.34,1.31-12.83-2.44-23.2-1.52c-0.51,0-0.81,0.41-1.01,0.91c0.51,1.01,1.42,1.62,2.43,2.03
		c4.66-1.24,37.62,11.47,53-7.09C307.4,575.95,307.42,575.96,307.8,573.42z M216.2,42.04c0.83,1.83,0.75,1.89-2.54,4.46
		C214.27,44.57,214.78,43.15,216.2,42.04z M284.29,318.98c-0.58-0.44-0.88-0.9-0.8-1.62c0.17-1.46,1.59-0.13,2.62,0.91
		C285.2,318.57,284.7,318.78,284.29,318.98z M281.05,303.98c2.84,3.34,1.72,6.99,2.53,10.13
		C282.06,311.07,281.76,307.83,281.05,303.98z M286.93,319.59c0.1,1.42-0.91,2.13-1.93,2.84
		C284.41,320.49,286.11,320.4,286.93,319.59z M278.31,252.91c2.08,9.61,5.69,18.92,8.21,28.47c1.77,6.71,0.51,5.55,2.23,9.93
		c1.27,3.22,2.87,6.84,3.75,10.34c0,0.73,2.56,2.31,2.14,8.89c-0.07,1.06-1.33,9.37-1.36,9.47c-0.62,2.36-5.9,6.56-7.97,7.87
		c-0.5-4.89,3.07-6.42,5.47-8.82c0.43,0-2.11-3.03,0.71-5.27c-2.03-1.62-1.32-3.95-1.72-5.98c1.1-0.97,3.29,2.34,0.53-2.46
		c-1.25-2.17,0.43-3.73-1.03-7.46c-0.61,7.4-1.42,13.98-0.81,20.77c-0.91-1.01-1.82-2.03-2.84-3.04c-0.83-8.76-0.68-9.38-2.33-11.75
		c-4.5-6.5-2.29-13.86-2.71-14.55c-0.62-0.77-1.37,1.08-1.76,1.47c-1.72-2.23,1.11-4.15,0-6.89c-1.16-1.87-2.05-5.55-2.74-8.5
		c-4.06-17.36-1.69-14.41-2.63-19.35c-0.85-4.45,0.61-8.51,1.01-12.67C275.28,239.12,277.3,248.23,278.31,252.91z M281.57,192.62
		c-1.29,13.36-10.22,13.96-9.73,30.7c0.24,8.29,0.05,28.35-3.24,35.97c-36.94,0-19.81-0.85-28.88-3.45
		c-6.17-1.77-12.36-3.75-18.64-5.17c-1.19-1.99-0.7-4.96-3.14-6.99c0.41,2.23,0.71,4.05,1.11,6.28c-0.76-0.18-22.72-5.78-27.36-5.78
		c-0.37-1,14.45-26.61,11.85-36.18c-0.84-3.11,2.09-7.28-0.6-14c-0.56-1.67-0.51-2.93-0.91-4.95c22.6-7.8,46-8.51,68.91-11.15
		c0.91,1.01,1.42,1.62,1.93,2.23c3.34,0.61,6.79,0.81,9.93,2.53C282.68,183.48,282.32,184.78,281.57,192.62z M187.42,206.1
		c-2.31-8.89,2.66-13.29,7.9-30.4c2.74,7.3,4.29,14.48,5.98,21.58c0.82,3.44-0.39,6.79-0.51,10.23
		c-0.38,11.52-2.04,16.06-4.15,20.16c-12.37,24.01-10.43,18.58-11.86,22.19c-0.44,1.1-0.67,2.36-2.13,3.04
		C182.68,252.76,188.48,210.18,187.42,206.1z M210.73,95.85c5.99,3.56,19.91,16.99,23.41,22.19c3.93,5.85,16.3,8.24,23.2,9.53
		c3.24,0.6,6.39-0.08,9.42-0.91c2.83-0.78,4.22-2.27,3.75-5.47c7.94,9.92,31.71,18.77,23.1,40.43c-1.88,4.72-5.35,6.97-6.08,7.7
		c-0.55,3.84-3.53,6.25-4.35,10.03c-6.59-2.94-13.15-3.79-20.06-3.04c-17.16,1.86-45.62,3.97-61.41,10.34
		c-4.29-10.71-3.7-12.04-6.18-12.16c0.49-3.06,1.28-5.63,2.43-8.61c7.09-1.72,13.19-5.36,16.92-11.45
		c1.54-2.51,9.54-16.06,10.78-19.79c6.86-20.51-17.17-36.63-16.44-37.84C209.58,96.23,210.11,96.11,210.73,95.85z M208.18,86.73
		c-0.3-14.31-2.03-12.32-1.32-15.81c0.33-1.62,0.91-3.04,2.53-3.75C211.9,71.09,209.96,82.72,208.18,86.73z M208.7,65.55
		c-0.81,0.91-1.42,1.72-2.43,2.84c-0.61-1.93-0.51-3.55-0.51-5.17s-0.71-3.14-0.3-5.17c1.59,2.97,2.09,3.91,2.1,5.11
		C207.56,65.59,206.47,65.1,208.7,65.55z M205.56,51.97c0.65-0.32,0.97,0.45,1.32,0.71C208.3,54.1,205.56,54.39,205.56,51.97z
		 M214.88,57.34c-3.32,0-4.44-0.84-6.49-2.63c1.31-0.44,2.28,0.58,3.51,0.72c0.85,0.1,0.58-0.14,0.9-0.97
		c0.03-0.07,0.04-0.12,0.05-0.16c0,0,0,0.01,0.01,0.01C213.46,55.31,214.47,56.02,214.88,57.34z M218.12,36.77
		c-4.38-0.91-7.5,1.22-8.11,5.78c-0.3,1.62-0.1,3.34-1.11,4.66c0.3,3.09,2.85,4.62,3.9,6.99c-0.33-0.1-2.18,0.7-6.42-3.54
		c0.61-0.9,1.22,0.2,2.03-0.51c-3.53-2.65-7.08-6.28-7.7-10.64c1.52,0.3,2.63,1.93,4.56,1.42c-2.79-2.09-4.64-3.12-4.98-5.67
		c5.47,3.34,5.88,3.45,9.53,3.65c-3.11-2.07-7.86-2.74-9.63-7.18c3.8,1.13,20.01,4.13,20.06,4.15
		C219.64,36.57,219.23,37,218.12,36.77z M197.11,40.26c-0.43-3.52-0.89-8.63,0.56-12.2c0.92,19.4,0.89,9.59,5.56,28.87
		C203.23,57.43,198.56,52.09,197.11,40.26z M202.11,61.9c-1.07-3.8-1.3-3.85-0.71-3.85C201.56,58.05,203.07,60.71,202.11,61.9z
		 M224.49,38.85c-0.27,0.01-1.06-0.28-0.57-0.43C225.21,38.03,225.83,38.8,224.49,38.85z M222.28,34.34
		c-1.76,0.98-13.88-3.08-16.11-3.95c-1.3,0,1.08,3.34-5.37-1.42c0.26-5.2,0.81-5.65,0.81-6.08c7.3,5.17,15.24,8,18.85,8.51
		c-4.82-2.25-4.72-1.81-4.26-2.74c2.61,0.77,6.12,0.45,8.51,2.84c6.27-0.75,7.4-1.38,9.13-1.81
		C232.44,32.83,225.99,32.27,222.28,34.34z M232.41,25.62c2.07-0.94,3.57-3.11,6.69-2.43C237.47,25.58,235.25,25.75,232.41,25.62z
		 M243.68,7.86c0.79-0.21,1.24,0.1,1.9,0.65C244.62,9.32,244.22,7.84,243.68,7.86z M249.33,11.13c1.92,0,2.5,2.09,3.45,3.04
		C250.65,14.28,250.55,12.15,249.33,11.13c-0.81,0-1.42-0.51-2.13-1.32C248.36,9.74,249.12,9.96,249.33,11.13z M247.31,5.97
		c-1.82-0.71-3.65-1.52-5.67-2.53C244.37,3.23,245.38,3.64,247.31,5.97z M237.68,2.01c-0.61,0.2-1.22,0.41-1.62-0.1
		C236.56,1.51,237.17,1.61,237.68,2.01z M239.3,4.04c-6.08-1.22-12.26-1.01-18.44-1.32C227.04,1.91,233.22,2.01,239.3,4.04z
		 M229.17,5.66c0-0.29-1.2-0.2,4.56-0.2C233.73,5.75,234.21,5.66,229.17,5.66z M217.01,4.04c6.94,0,1.35,0.48,3.04,1.52
		c-0.51,0.91-1.62,0.1-2.33,1.01c13.4,1.23,16.01-0.52,16.01,2.74c-3.58,0.31-6.54,0.74-10.03-0.2
		C213.04,6.23,210.35,9.04,217.01,4.04z M207.48,17.98c-0.26-0.17,0.27,0.16-3.34-2.13c0.6-0.6,1.18-2.81,6.99-6.69
		c5.47,0.81,11.25,0.51,16.82,2.03c0.61,0.2,1.52,0.21,2.13,0c2.02-0.69,3.23,0.55,4.36,1.11c-1.44,0.93-2.75-0.86-4.05-0.2
		c2.15,1.18,10.15,2.93,4.66,2.58c-1.49-0.1-3.11-0.69-4.43-0.63c-1.3,0.06-1.45,0.5-2.18,0.66c-1.53,0.33-9.65-2.78-16.4-3.38
		c-2.23-0.2-2.32-0.09-3.65,2.33c4.22,0.33,26.11,3.3,21.78,4.74c0.1,0-0.63,0.03-0.9,0.52c0,1.43-0.85,1.79,2.53,1.76
		c3.23-0.03,6.27-1.06,7.19-1.67c0.83,0.95,0.05,2.43-0.41,2.43c-10.62,0-10.44,6.49-29.08-2.84c0,0.05,0.07,0.44,0.3,2.73
		c-2.78-0.7-4.42-1.37-5.77-3.48C203.53,17.07,202.87,16.83,207.48,17.98z M217.61,24.25c-2.83-0.32-6.19-1.32-7.78-2.9
		C212.66,21.46,215.27,22.62,217.61,24.25z M217.51,25.52c1.58-0.79-3.67-2.15,10.74,1.22c-9.65,2.53-18.45,1.21-26.35-5.27
		c0.3-0.81,0.51-1.22,0.81-1.93C207.28,22.58,212.04,24.81,217.51,25.52z M186.51,52.98c-0.27-6.03-9.92-16.86-2.43-30.91
		c0.81-1.52,2.43-1.93,3.55-3.04c-1.37-1.53,0.52-2.67,3.04-5.48c3.55-1.52,7.5-1.01,11.65-0.2c-0.19,0.79-0.4,1.48-0.74,2.07
		c-0.89,1.56-0.31,0.38-1.4-0.55c-2.5-2.13-7.61-0.72-9.1-0.6c-0.3,2.03-3.24,2.23-3.34,4.66c2.13-1.32,4.26-2.84,6.99-2.63
		c-5.58,6.7-9.04,13.01-5.57,20.67c0-8.1-0.3-14.66,7.7-20.67c1.24,0.48,2.64,0.25,4.05,0.01c-0.89,6.05-10.31,2.84-6.81,34
		c1.23,10.98,3.25,10.72,2.65,21.71c-1.52-3.14-0.61-6.89-2.63-10.94c1.22,10.44,0.91,20.06-0.71,29.59
		c1.32-15.2,0.1-29.99-4.26-45.29c-0.61,1.93,0.61,3.04-0.1,4.26c-2.87,0,0.34-1.98,2.19,16.08c0.13,1.27,0.27,2.52,0.45,3.78
		C190.26,63.93,186.78,59.07,186.51,52.98z M196.44,93.62c-0.71,0.81-1.52,1.32-2.94,1.11c3.95-12.04,3.02-24.21,3.3-19.44
		C197.16,81.34,197.21,87.39,196.44,93.62z M170.8,323.22c1.12,1.05,1.51,2.11,1.51,3.65C170.84,325.93,170.55,324.91,170.8,323.22z
		 M178.23,336.71c-2.81-2.75-4.11-12.86-7.33-14.69c-0.98-0.56-1.1-2.23-1.01-3.34c0.44-5.45-1.26-10.46-0.81-14.59
		c0.41-3.76,0.12-9.76-0.83-10.95c-0.35-0.44-0.93-0.6-1.5-0.6c-0.51-4.38,0.91-23.33-1.93-40.13c-2.08-12.3-0.66-28.99-0.3-30.5
		c1.68,0.99,0.76,3.27,2.63,4.26c0-6.53-2.08-6.1-2.03-10.74c0.05-4.16-0.72-8.31-0.2-12.46c1.71-13.85,2.64-8.16,3.04-20.87
		c0.33-10.28,0.37-17.77,0.71-18.95c2.14-6.23,4.77-22.08,6.69-23.31c-1.14-10.2,0.02-34.45,9.12-37.8
		c1.93-0.71,3.76-1.69,5.67-2.53c1.33-0.59,2.71-0.92,3.55-2.43c0.78-1.42,2.98-1.14,4.66-2.53c1.39-34.17-0.5-24.89-2.94-44.69
		c10.39,34.93,9.02,26.94,9.02,40.33c-0.86,1.25-1.46,2.02-2.72,2.2c-0.74,0.1,0.93-5.85,0.72-10.88c-0.15-3.68-1.4,7.86-3.37,12.43
		c2-0.22,4.16,0.26,6.28-1.11c0,1.68,0.78,3.64,2.61,5.36c2.55,2.39,5.66,6.71,8.13,9.43c7.52,8.3,10.78,19.17,5.64,29.62
		c-0.2,0.4,0.08,0.15-0.68-1.75c-2.25,1.4,1.66,0.22-9.53,17.83c-3.03,4.77-7.4,7.7-12.36,9.83c-1.01-0.81-0.32-1.62-0.2-2.43
		c2.08-13.88,3.15-14.18,1.32-15c-1.32,0.71-1.19,2.13-1.32,3.24c-0.85,7.51-7.95,32.34-10.03,36.99c-0.63,1.41-1.22,2.94-2.94,3.34
		c-0.81,8.01-2.63,15.71-1.62,23.81c1,7.97-3.86,30.1-4.56,46.51c-0.71,16.79-2.13,28.85,9.83,38.2c4.02,3.14,3.07,4.75,5.88,11.55
		c2.13,5.17,1.82,10.74,3.34,16.52c-8.28-2.66-1.6-7.01-8.26-14.23c-1.26-1.37-1.31-3.31-1.17-5.13c-1.62,2.86-0.61,8.89-0.81,9.63
		c-0.93,3.37,0.12,6.38,1.42,9.22c1.34,2.93,2.22,5.98,3.75,8.71c0.91,1.62,1.72,3.34,0.51,5.67c-1.77-1.67-3.6-3.14-5.2-4.74
		c-5.19-5.22-6.49-16.16-8.67-17.25c-0.75,2.37,3.08,11.09,4.76,15.2c2.32,5.65,10.87,6.27,5.88,10.64
		c-1.01,0.2-1.62-0.51-2.23-1.01c-2.35-2.35-8.31-5.41-9.64-13.58c-0.57-3.48-2.33-6.39-4.46-9.12
		C176.41,328.05,183.37,341.76,178.23,336.71z M189.64,313.3c1.68,1.98,1.74,1.99,1.53,5.67
		C188.48,317.11,190.61,314.91,189.64,313.3z M181.64,338.84c0.91-0.51,1.11,0.3,1.82,1.11
		C182.25,339.85,181.85,339.45,181.64,338.84z M181.04,502.79c-2.39-9.43-1.32-12.16-2.43-24.42c-2.2-24.23,21.84-55.71,14.49-82.99
		c-14.73-54.71-7.76-43.25-10.84-52.49c1.55,0.16,2.03,1.32,2.94,1.62c0.81,0.2,1.42-0.41,2.03-0.51c1.93,0.91,3.24,2.23,3.45,4.76
		c4.44-9.62,5.02-7.15,5.4-8.29c1.07-2.11,0.8-4.13-0.33-5.91c-1.77-2.77-2.48-6.05-4.26-8.82c-0.72-1.11-1.36-1.88-0.15-3.09
		c0.1-0.1,7.73,9.61,9.58,3.8c0.08-1.05-1.52-3.94-0.46-3.95c8.63-0.12,17.65,4.37,28.83,2.03c4.68-0.98,4.67,0.4,4.66,2.74
		c-0.17,37.21,2.46,51.12-5.67,73.67c-0.3,1.82,0.91,1.72,1.32,2.53c-2.97,17.83-1.42,13.97-4.05,18.95
		c-6.05,11.43-1.94,12.11-5.38,15.77c-1.36,1.45-1.4,0.65-2.22,4.3c-2.17,9.72-5.77,18.95-8.31,28.47
		c-0.65,2.45-8.76,63.43-6.52,69.93c0.12,0.35-1.5,0.29-5.04,3.09c-3.4,2.7-6.04,6.25-8.92,9.77c-4.99-3.53-2.75,0.58-3.45,1.62
		c-0.75,0.91-1.98,1.96-2.84,2.53c-0.1-1.22-0.3-2.33-0.41-3.45c4.19-6.89,2.93-15.47,0.71-39.42
		C182.78,510.9,182.06,506.84,181.04,502.79z M223.08,566.03c3.01,2.73,2.13,2.34,3.14,4.36c-3.34,0.59-7.1,0.63-10.44,2.84
		c2.55,3.32,8.12,0.94,12.27-1.12c0.34,0.34,6.85,4.72,8.11,5.57c5.5,3.73,12.73,1.59,13.17,4.66c-8.45,3.49-4.59-0.22-16.42,11.05
		c3.84-0.75,5.92-3.58,8.51-5.17c2.63-1.62,5.57-2.33,8.21-3.95c1.85,3.7-5.28,8.01-9.06,9.3c-2.29,0.78-3.35,0.92-12.73,2.45
		c-12.62,2.06-22.24-0.72-23-0.71c-11.99,0.11-13.27-9.21-18.2-7.73c-2.54,0.76,0.62,1.28,0.26,2.36
		c-6.38,0.81-10.13,0.3-18.85-2.94c-0.2-6.99,3.45-13.27,4.36-20.06c1.03-1.06,1.82-2.21,2.4-3.41c2.93-6.14-1.1-5.53,2.97-12.6
		c0,2.52,0.29,5.27,1.72,7.19c1.01,1.35-1.47,2.43,2.13,4.66c0.46,0,0.74-0.02,1.11-0.26c10.55-5.84,13.94-17.46,23.1-19.09
		c2.43,3.24,2.23,8.11,6.59,10.74c-7.86,3.2-11.08,3.53-11.55,7.3c8.53-2.23,13.08-6.77,16.11-2.22
		c-4.16,0.12-14.53,2.93-11.26,5.88c3.45,0.2,6.79-1.93,10.64-1.82c-2.43,1.93-6.08,1.42-7.4,4.56
		C209.82,569.86,209.94,569.32,223.08,566.03z M221.86,562.07c-0.56,1.4-1.72,0.52-2.84,0.71
		C220.04,562.37,220.65,561.36,221.86,562.07z M230.18,542.31c-0.71-0.41-1.32-0.71-1.93-1.11c-2.53,1.52-4.05,4.05-4.97,6.59
		c-1.55,4.3-2.63,4.34-5.17,8.41c-8.57-3.57-5.71-17.7-13.68-15.71c0.41-7.01,4.38-42.68,5.17-49.65
		c1.62-14.34,1.75-9.86,8.21-38.61c1.9-8.44,4.4-9.65,5.88-20.67c0.78-5.81,4-3.44,7.19-20.98c4.92-27.04-0.49-10.68,4.46-25.03
		c1.09,3.8,2.04,7.82,2.13,11.65c0.35,14.48,2.43,15.55,1.93,17.12c-2.2,6.89,2.31,11.91,3.45,14.19
		c-21.5,49.52-8.07,62.85-10.13,70.22C232.43,499.74,234.57,522.77,230.18,542.31z M252.98,538.66c-0.91,2.13-3.45,3.24-3.34,5.98
		c-6.13,3.56-13.19,7.63-13.33,7.57c-2.38-1.15-3.91-2.93-5.22-5.04c4.46-5.94,5.4-38.36,5.67-44.38
		c0.44-9.69-10.59-26.4,6.49-69.21c0.68-1.71,0.93-1.44,2.13-2.63c1.5,2.1,0.36,5.07,2.35,7.01c0.9,0.88,0.29-6.71,0.28-6.81
		c-4.31-2.03-6.02-22.07-6.69-27.06c-1.8-13.42-5.29-18.79-4.15-25.84c0.94-5.87,0.61-47.99,0.61-54.01
		c1.69-0.8,3.61-0.41,5.57-0.71c3.27-0.5,28.89-6.1,32.79-7.15c1.83-0.49,3.52-0.93,3.27-2.78c-5.21-1.04-36.7,7.6-42.36,8.31
		c-0.61-3.65-1.22-7.19-1.82-11.05c1.64-1.64,1.71-3.94,1.22-6.18c-3.3,2.63-2.63,6.66-2.63,16.33c0,0.51-11.1,1.81-17.53,0.39
		c-11.39-2.52-13.57-2.86-16.82-1.42c-0.2-0.81-0.61-1.32-0.61-1.93c0-5.57-2.62-10.54-3.45-15.91c-0.52-3.38-1.92-3.45-9.12-10.13
		c-4.74-4.4-3.64-7.52-3.95-27.46c-0.08-5.32,4.02-12.55,6.89-16.92c3.79,0,7.37,0.67,11.05,1.52
		c55.83,12.97,24.49,13.17,68.5,13.17c1.56,1.73-0.04,4.35,2.03,5.78c1.74,1.2,2.28,2.86,1.11,5.47c-0.39,0.13-2.6,1-2.63,1.01
		c1.11,1.81,3.08-0.94,3.55,2.23c1.29,8.76-4.49-0.54,1.82,16.61c1.14,3.11,5.58,16.66,4.78,20.05c-0.15,0.65,1.02-0.27,1.3,5.68
		c0.27,5.8,3.53,18.77,0.61,43.37c-2.14,18.01-7.84,36.7-5.37,41.44c0.16,0.4-0.48,5.75-0.91,12.36c-0.4,6.13,1.2,4.51-0.3,8.92
		c-1.98,5.79-3.37,11.65-3.55,17.83c-0.2,7.1-1.41,32.99-5.37,38.91C264.87,483.45,252.98,527.13,252.98,538.66z"/> <path d="M248.62,98.28l0.1-0.1C248.62,98.15,248.58,98.11,248.62,98.28z"/> <path d="M431.12,517.08c-1.72,0.71-2.33,2.53-3.45,3.75c-7.14,1.36-13.34-3.1-16.11,0.3c2.03,3.14,5.27,3.25,8.31,3.85
		c3.14,0.62,6.18,0.81,9.12-0.71c2.72,5.43-8.56-0.24-14.08,3.45c0.71,2.03,2.12,2.56,3.55,2.74c15.08,1.85,10.07-2.75,12.45,0.34
		c2.52-2.09-0.21-6.22,1.33-11.79C432.54,518.19,432.23,517.28,431.12,517.08z"/> <path d="M424.94,531.57c-3.35,1.12-8.24-0.24-9.53,2.33c2.03,3.04,5.47,4.03,9.22,3.04c2.73-0.72,3.04-1.22,3.14-3.95
		C427.07,532.08,426.16,531.27,424.94,531.57z"/> <path d="M244.47,103.04c0.42,0.7,0.91,1.72,2.74,1.62c-1.42-2.03-2.74-3.65-4.36-5.37c-4.48-0.81-18.38-2.7-22.09-0.1
		C240.26,100.41,242.06,99.04,244.47,103.04z"/> <path d="M226.94,65.65c-1.44-3.83-0.8-4.46-2.23-4.56c-0.71,3.85,0.71,6.58,3.95,7.9c3.45,1.41,6.99,2.53,10.84,2.94
		C235.75,68.99,230.59,68.89,226.94,65.65z"/> <path d="M564.37,171.44c-0.91-1.72-0.61-3.55-1.93-4.66c-1.32,2.23-0.21,6.19,2.23,7.3c3.84,1.74,7.7,3.14,12.46,3.65
		C572.98,174.58,567.92,174.58,564.37,171.44z"/> <path d="M258.76,36.97c-4.15-0.91-6.69,1.22-9.32,2.94c1.01,1.82,2.33,0.2,3.34,0.81c0.61,1.82,1.93,2.03,3.75,1.93
		C255.62,40.22,256.83,38.6,258.76,36.97z"/> <path d="M595.99,142.76c-3.95-1.32-6.28,1.42-9.32,2.74c1.22,1.93,2.53,0.41,3.65,0.91c1.11,1.72,1.11,1.72,3.75,1.62
		C593.15,145.8,594.26,144.18,595.99,142.76z"/> <path d="M598.11,140.74c-8.93-8.34-16.64,2.93-11.75-0.1C591.85,137.23,595.14,142.49,598.11,140.74z"/> <path d="M260.38,35.05c-3.55-4.15-9.53-4.15-12.97,0c0.3,0.3,0.71,0.41,1.01,0.2C254.09,31.47,258.84,37.16,260.38,35.05z"/> <path d="M249.74,98.79c2.94,2.23,6.18,4.15,8.61,6.99c0,0,0.2-0.1,0.3-0.1C258.12,99.08,247.22,96.26,249.74,98.79z"/> <path d="M233.02,75.48c-0.71-1.93-1.72-3.55-3.75-4.46C229.98,72.95,231.19,74.36,233.02,75.48z"/> <path d="M570.65,181.57c-1.82-3.85-1.93-3.85-4.26-4.86C567.51,178.84,568.93,180.36,570.65,181.57z"/> <path d="M575.21,190.69c-0.2-0.91-0.3-1.72-1.52-1.93C573.79,189.88,574.3,190.39,575.21,190.69z"/> <path d="M237.38,84.9c0.2-1.11-0.1-1.62-1.22-1.82C236.36,84.09,236.77,84.5,237.38,84.9z"/> <path d="M653.75,401.57c-5.88,0.51-10.44,3.65-14.9,7.3C643.13,407.4,649.61,406.81,653.75,401.57z"/> <path d="M657.19,428.72c-1.79,2.59-1.03,3.07,2.42,14.81C660.15,445.35,659.61,436.92,657.19,428.72z"/> <path d="M671.35,404.07c0.51,0.49-2.19-8.39-4.71-9.05c0,0-0.01-0.02-0.01-0.14c-0.06,0.03-0.09,0-0.04,0.05l-0.06,0.04l-0.01,0.01
		c0.09,0,0.12,0.04,0.12,0.04C666.98,397.99,668.88,401.71,671.35,404.07z"/> <path d="M660.63,447.97c-0.41,2.84-0.41,3.04,1.11,5.07C661.75,451.38,662.24,449.67,660.63,447.97z"/> <path d="M659.42,523.56c-1.11,1.22-0.91,2.23-0.1,3.45C660.13,525.79,659.93,524.78,659.42,523.56z"/> <path d="M658.71,516.37c-0.88,1.07-0.84,2.19-0.2,3.44C659.11,518.8,659.42,517.69,658.71,516.37z"/> <path d="M633.58,410.07c0.2,0.2,1.07,0.51,1.82,0.2c0.3-0.1,0.51-0.41,1.01-0.91C635.11,408.86,634.16,408.8,633.58,410.07z"/> <path d="M669.75,390.62c-0.2,1.52,0.1,2.43,1.42,3.75C670.97,392.65,671.27,391.63,669.75,390.62z"/> <path d="M666.47,394.91c0.12-0.06-0.93-1.85-2.8-1.85C664.48,394.25,665,395.42,666.47,394.91z"/> <path d="M663.58,388.94c0.32,0.02,1.08-0.67-0.31-1.46C662.97,388.27,663.33,388.92,663.58,388.94z"/> <path d="M466.45,518.98c7.05,6.69,0.66,0.44-5.35-10.62C461.16,512.85,463.21,515.91,466.45,518.98z"/> <path d="M512.69,515.15c-2.92-0.75-4.6,0.35-6.08,2.84C508.94,517.89,510.97,517.38,512.69,515.15z"/> <path d="M477.63,527.01c-1.97-1.68-3.39-3.16-5.47-4.15C472.67,525.79,473.68,526.6,477.63,527.01z"/> <path d="M415.82,498.43c2.16-1.88,2.29-2.46,0.1-5.07C414.81,494.99,414.81,494.99,415.82,498.43z"/> <path d="M512.08,520.42c0.91-0.71,1.93-1.32,2.33-2.53C512.01,518.09,511.88,518.18,512.08,520.42z"/> <path d="M419.45,498.53c0.46,0.16,0.98,0.13,1.64-0.2C420.12,496.1,417.48,497.85,419.45,498.53z"/> <path d="M489.28,531.98c0.88,0.77,1.29,1.31,2.03,0.2C490.7,531.77,490.2,531.37,489.28,531.98z"/> <path d="M494.86,531.75c-0.9,0.19-0.48,1.69,0.91,0.93C495.61,532.13,495.38,531.64,494.86,531.75z"/> <path d="M427.57,500.66c0.66-0.17,1.1,1.05,1.93-0.51C428.79,500.16,428.38,499.66,427.57,500.66z"/> <path d="M422.81,498.84c0.28,0.75,0.58,1.23,1.22,0.71C424.03,499.04,423.72,498.74,422.81,498.84z"/> <path d="M539.95,185.52c-0.91,5.07-1.82,9.63-2.63,14.08C540.31,196.61,540.34,189.78,539.95,185.52z"/> <path d="M545.52,246.02c-4.41,0.8-6.67,1.34-5.47,4.56C541.77,249.16,543.39,247.84,545.52,246.02z"/> <path d="M515.31,313.8c0,0.79-0.71,1.84,5.19-8.7C517.74,306.99,515.32,311.12,515.31,313.8z"/> <path d="M597.81,347.35c1.57-1.82,0.65-3.68,0.42-5.75c-0.35-3.11,1.35-1.88,1.21-3.88C595.42,339.93,594.74,343.88,597.81,347.35z
		"/> <path d="M550.89,292.43c1.82,1.93,3.55,2.94,5.37,3.75c0.52-0.1,0.55-0.42,0.3-0.61C555.06,294.43,553.71,292.43,550.89,292.43z"/> <path d="M604.29,310.26c0.1-2.23,0.2-3.95,0.3-6.18C602.77,306.82,602.77,307.02,604.29,310.26z"/> <path d="M600.75,332.96c0.51-2.03,1.11-3.34,0.71-5.27C600.19,329.39,600.28,330.85,600.75,332.96z"/> <path d="M552.62,344.41c-0.41,1.11-0.2,1.62,0.81,2.13C553.91,345.4,553.49,345.07,552.62,344.41z"/> <path d="M566.9,302.06c0.51,0.3,0.81,0.81,1.72,0.51C568.12,301.85,567.71,301.55,566.9,302.06z"/> <path d="M603.69,314.72c0.5-0.78,0.7-1.53,0.1-2.23C603.18,313.2,603.18,313.91,603.69,314.72z"/> <path d="M562.95,271.55c13.48,5.65,22.12,8.31,35.97,3.65c1.81-0.61,2.95-0.95,3.04-3.24c-8.44,2.52-16.82,5.88-40.23-1.22
		C562.14,271.05,562.45,271.45,562.95,271.55z"/> <path d="M555.15,268.11c0.61,0.61,1.22,0.81,2.03,0.2C556.5,267.53,556.08,267.15,555.15,268.11z"/> <path d="M606.93,270.44c-1.01-0.41-1.72-0.3-2.13,0.91C605.82,271.93,606.38,271.44,606.93,270.44z"/> <path d="M683.53,578.66c1.3,3.25,4.93,2.45,7.9,2.06c-0.81-1.11,0.03-2.02,0.2-3.24C692.63,570.51,680.75,571.74,683.53,578.66z
		 M689.62,577.57c-0.71,0.61-1.32-0.41-1.93-0.1c-1.01,0.61,0.2,1.42-0.3,2.03c-2.04,0.37-4.68-2.83,0-5.17
		C689.11,574.84,690.22,575.75,689.62,577.57z"/> <path d="M677.35,572.31c-4.64,0.7-4.76,7.02-0.1,8.01c2.65,0.56,3.95-0.41,5.47-3.95C681.31,573.01,679.79,571.8,677.35,572.31z
		 M677.96,578.99c-3.15-0.67-3.48-4.6,0.1-5.37C681.93,574.4,681.39,578.48,677.96,578.99z"/> <path d="M672.39,572.1c-1.72-0.3-3.45-0.91-5.47-0.41c-1.11,4.75-0.59,10.35,1.2,6.02c1.15-2.8,3.21,3.39,4.48,1.58
		c-0.3-0.71-0.61-1.52-0.91-2.33C673.1,575.65,673.91,574.23,672.39,572.1z M668.74,575.24c-1.63-1.9,0.9-3.18,2.94-1.11
		C670.97,575.85,669.86,575.55,668.74,575.24z"/> <path d="M523.84,374.81c4.24-2.54,14.61-2.6,19.46-5.07c2.75-1.4,5.88-2.03,8.51-3.75c-1.51,0-21.63,4.98-21.74,4.98
		C527.66,371.58,525.25,372.49,523.84,374.81z"/> <path d="M522.82,371.77c5.07-1.32,9.42-1.82,13.88-4.46C532.96,367.62,525.26,370.05,522.82,371.77z"/> <path d="M529.21,380.08c3.55-1.93,7.09-2.63,9.73-5.17C536,375.01,531.74,377.14,529.21,380.08z"/> <path d="M525.46,388.9c1.09-0.36,4.47-1.92,3.65-2.74C527.56,386.67,526.3,387.5,525.46,388.9z"/> <path d="M529.11,386.06c0.1,0.2,0.2,0.3,0.3,0.3c0.71-0.3,1.62-0.41,1.62-1.72C530.33,385.15,529.51,385.24,529.11,386.06z"/> <path d="M548.06,122.9c1.32,0.41,2.63,0.81,3.95,1.22C550.89,123,549.58,122.6,548.06,122.9z"/> <path d="M236.56,545.15c-0.79-4.1,2.94-7.81,1.72-11.45c-2.13,1.82-0.91,4.66-2.63,6.38c-1.82,1.82,0.2,4.56-1.52,6.59
		c1.42,1.22,2.53,2.53,4.66,2.74C238.79,548.03,240.16,547.71,236.56,545.15z"/> <path d="M251.45,461.02c1.76-3.63,2.45-8.19,0-11.35C249.96,454.51,252.08,456.75,251.45,461.02z"/> <path d="M250.14,467.53c0.61,5.95-2.26,8.21,0.51,8.21c0.2-0.8,0.58-6.6,1.72-11.05C250.48,464.95,249.98,465.9,250.14,467.53z"/> <path d="M272.64,403.99c-2.53,0.2-3.45,1.11-6.18,6.69C269.4,409.36,271.02,406.83,272.64,403.99z"/> <path d="M266.56,419.9c1.32-2.84,2.84-4.76,3.45-7.8C266.99,413.99,266.47,416.35,266.56,419.9z"/> <path d="M267.57,423.65c0.6,1.02-1.62,2.53,0.71,3.34c0.3-2.23,1.52-4.36-0.2-6.59C266.46,421.32,266.86,422.44,267.57,423.65z"/> <path d="M247.91,439.56c0.2,1.72,0.51,3.04,1.72,4.36C249.94,441.08,249.94,441.08,247.91,439.56z"/> <path d="M259.06,410.68c1.37,1.22,1.72,1.53,2.52,0.87C263.71,409.8,261.78,410.34,259.06,410.68z"/> <path d="M239,530.05c0,0.53-0.5,1.11,0.51,1.32c0.58-0.83,0.64-1.65,0.51-2.53C239.1,529.04,239.1,529.54,239,530.05z"/> <path d="M266.84,430.45c0.07-0.92-1.2-0.79-1.2,0.09C265.65,431.15,266.79,431.19,266.84,430.45z"/> <path d="M218.22,422.44c-2.03-2.53-0.61-5.57-0.71-8.41c-1.23-0.36-1.62,0.14-2.03,1.22c-1.22,2.74-0.1,5.17,0.71,7.3
		c-0.31,2.61-2.64,3.96-2.84,6.79C217.01,428.21,217.72,425.48,218.22,422.44z"/> <path d="M198.6,443.29c-1-8.5-3.37,15.06-3.88,17.25c2.63-2.63,1.53-6.18,2.63-9.32C198.49,447.97,198.83,445.29,198.6,443.29z"/> <path d="M187.01,533.79c0.1,5.98-1.22,11.25-0.3,16.62C187.51,544.69,190.02,539.81,187.01,533.79z"/> <path d="M198.77,426.9c-2.15,2.87-0.68,5.21-0.51,8.01C199.57,434.9,199.13,436.68,198.77,426.9z"/> <path d="M212.14,409.26c-1.42-3.75,1-6.88-0.81-10.35C211.33,405,208.56,407.47,212.14,409.26z"/> <path d="M187.42,527.31c-0.3,1.42-0.61,2.33,0.3,3.65C188.37,529.45,188.47,528.57,187.42,527.31z"/> <path d="M188.53,513.84c0.64-0.81,0.5-1.48-0.51-1.93C187.72,512.62,187.52,513.33,188.53,513.84z"/> <path d="M193.9,359.31c0.71-0.91,0.71-1.72,0-2.63C193.2,357.58,193.3,358.4,193.9,359.31z"/> <path d="M212.04,414.63c0.33-0.72-0.12-1.13-0.51-1.52C211.2,413.82,211.2,414.35,212.04,414.63z"/> <path d="M187.62,523.26c0.1,0,0.3-0.2,0.51-0.3c-0.1-0.2-0.1-0.51-0.2-0.61C187.57,521.99,186.87,523.07,187.62,523.26z"/> <path d="M194.72,464.39c-0.71,0.2-1.22,0.51-0.71,1.62C194.82,465.6,195.22,465.2,194.72,464.39z"/> <path d="M202.71,144.89c0.37,0,2.9-2.55,4.77-4.15C203.54,140.74,200.17,143.32,202.71,144.89z"/> <path d="M167.44,231.06c0.71,0,0.37,0.08-0.39-1.05C166.79,230.55,166.6,231.07,167.44,231.06z"/> <path d="M260.78,241.67c0.9-2.42,0.19-5.03,0-7.09c0.63-0.87,1.27-1.77,1.93-2.63C258.24,233.86,257.27,238.83,260.78,241.67z"/> <path d="M266.19,206.28c-0.39,1.2-0.76,2.15-0.04,3.47c1.32-3.75,0.51-7.3,1.01-11.45C264,201.46,267,203.78,266.19,206.28z"/> <path d="M214.17,187.04c1.32,1.62,3.04,2.84,5.17,3.34C216.81,187.55,216.81,187.55,214.17,187.04z"/> <path d="M263.21,226.77c0.81-2.23,0.81-2.23,0.3-4.76C263.26,224.11,262.31,225.13,263.21,226.77z"/> <path d="M215.18,238.93c0,1.16-0.01,1.23,1.02,1.52C216.3,239.64,215.99,239.13,215.18,238.93z"/> <path d="M220.55,207.01c0.2,0.51,0.61,1.11,1.22,0.51c0.1-0.1-0.3-0.81-0.51-1.22C221.06,206.5,220.86,206.7,220.55,207.01z"/> <path d="M243.25,293.85c-2.43,2.23-3.34,3.95-4.26,7.9C240.62,300.54,242.75,296.58,243.25,293.85z"/> <path d="M195.32,263.25c3.24,0.41,6.28,0.81,9.32,1.11C199.88,262.33,197.65,262.13,195.32,263.25z"/> <path d="M231.09,294.35c2.13,5.57,2.23,5.78,4.46,6.59C234.23,297.29,233.42,296.08,231.09,294.35z"/> <path d="M238.08,309.25c11.55-1.8,11.05-1.39,4.56-1.52C240.11,307.68,240.11,307.63,238.08,309.25z"/> <path d="M222.58,260.92c-2.43-1.01-4.66-1.52-6.99-1.52C218.86,261.13,219.88,261.32,222.58,260.92z"/> <path d="M233.73,284.93c1.72,1.42,1.82,4.15,4.56,5.57C237.58,287.36,235.45,286.25,233.73,284.93z"/> <path d="M187.2,256.63c-0.36,0.18,1.19,0.33,1.95,0.33C188.46,256.48,187.78,256.28,187.2,256.63z"/> <path d="M191.37,257.27c0,0.27-0.09,0.2,0.45,0.26c1.05,0.12,0.87,0.03,0.87-0.16C192.69,257.23,192.88,257.27,191.37,257.27z"/> <path d="M244.26,171.84c5.98,0.65,11.74-0.33,17.33-2.23c1.21-0.41,2.74-0.71,3.14-3.14c-1.69,0-11.44,4.15-20.26,2.74
		c0.87,0-11.63-1.33-20.48-4.76C226.21,167.66,240.22,171.39,244.26,171.84z"/> <path d="M269.8,164.75c-1.28-0.43-2.06-0.25-2.63,1.01C268.59,166.17,269.09,165.56,269.8,164.75z"/> <path d="M217.62,162.73c0.91,0.1,1.52,0.61,2.13-0.1C219.24,161.81,218.73,161.61,217.62,162.73z"/> <path d="M203.83,571.39c-5.91-0.46-6.21,8.31-0.2,8.31c1.11,0,2.33-0.2,3.85-0.41c-0.71-1.11,0.08-2.03,0.2-3.24
		C207.95,573.42,206.47,571.6,203.83,571.39z M205.76,576.46c-0.83-0.14-1.75-0.6-2.12,0.03c-0.3,0.52,0.56,1.35-0.21,1.69
		c-1.67-0.77-2.93-1.14-2.23-3.95C203.76,571.35,206.74,574.05,205.76,576.46z"/> <path d="M189.85,574.79c-0.02,2.21,1.43,3.72,3.45,4.1c2.03,0.39,3.81,0.13,5.47-3.95C195.95,567.74,189.88,571.2,189.85,574.79z
		 M191.78,575.35c-0.41-1.82,0.71-2.63,2.43-3.24C201.28,574.44,193.03,580.85,191.78,575.35z"/> <path d="M188.53,570.68c-1.5-0.27-3.61-1.02-5.57-0.41c-0.41,2.43-0.71,4.97-0.2,7.5c1.89-0.1,0.85-2.18,2.45-2.22
		c1.42-0.03,1.37,1.91,2.61,2.42c0.4,0.2,0.72,0.29,1.01-0.2c-0.3-0.71-0.61-1.42-0.91-2.33
		C189.65,574.13,190.16,572.61,188.53,570.68z M184.48,572.1c1.11-1.22,2.07-0.1,3.65,0.1C185.9,574.64,185.19,574.43,184.48,572.1z
		"/> <path d="M229.36,576.27c-2.75,0-5.57-0.61-9.01,0.5C223.51,578.77,226.19,578.19,229.36,576.27z"/> <path d="M212.75,17.62c0-0.1,0-0.3,0-0.41c0-0.18-0.81-0.41-1.01-0.41c-0.41,0-0.81-0.61-1.32,0c0.17,0.09,0.57,0.5,0.91,0.61
		C211.84,17.62,212.25,17.52,212.75,17.62z"/> </g> </svg> 