<?xml version="1.0" encoding="utf-8"?> <!-- Generator: Adobe Illustrator 23.0.1, SVG Export Plug-In . SVG Version: 6.00 Build 0)  --> <svg version="1.2" baseProfile="tiny" id="Layer_1" xmlns="http://www.w3.org/2000/svg" xmlns:xlink="http://www.w3.org/1999/xlink" x="0px" y="0px" viewBox="0 0 900 600" xml:space="preserve"> <g> <path d="M684.45,27.86c-0.12-0.12-0.12-0.14-0.12-0.12c0.01,0-0.02-0.03-0.08-0.11c-0.01,0.01-0.01,0.01-0.02,0.01
		c0.05,0.05,0.09,0.09,0.1,0.1c0,0.01,0,0.04-0.02,0.07C684.26,27.94,684.31,27.89,684.45,27.86z"/> <path d="M883.63,88.65c-0.35-0.24,0.15,0.01-1.45-6.02c-0.1-0.52-0.52-0.83-1.14-0.52c-0.62,1.76-0.1,3.53,0,5.29
		c-5.74,2.55-14.25-0.65-12.45,2.59c3.94-0.31,7.99,0.21,11.93-0.73c1.04,0.52,1.87,0.93,2.8,1.35c0.31,1.66,0.73,3.22,0.21,4.88
		c-2.39,0.93-4.98-0.31-7.47,0.73c1.45,1.87,3.94,0.52,5.5,1.76c0,1.04,0.31,2.18-0.21,3.22c-0.63-0.88,0.35-3.14-1.35-2.8
		c-1.24,1.04-0.42,2.59-0.83,3.84c-2.19,1.75-4.05-0.27-11.31,0.31c-1.7,0-1.41,1.59,0.31,1.24c2.6-0.27,7.4-0.15,9.65,1.35
		c-1.36,6.14-8.48,0.92-17.33,6.22c-2.12,1.27-8.37,1.25-11,0.83c-3.12-0.5-6.12-1.76-9.44-1.56c-0.21,0-0.52-0.1-0.73-0.21
		c-1.75-0.91-3.48-0.11-9.13,0.83c-3.01,0.67-6.94-0.4-5.19-2.59c0.49-0.35,5.97-0.73,1.97-7.99c0.28-1.56,0.37-0.59,2.07-5.71
		c6.05-0.71,7.88-0.29,10.89-3.01c8.58-7.76,12.45-10.3,12.55-10.37c0.84-0.61,1.14-1.66,2.39-2.28c3.01-0.1,6.22-2.07,9.75-0.83
		c0,2.04,0.13,1.76-2.28,1.76c-3.5-0.25-5.91-1.14-5.91,0.93c0.43,1.14,0.91,0.95,12.45,2.59c2.95,0.42-0.37-0.62,8.51-0.83
		c0.73-0.02,1.56-0.1,2.18-0.83c-0.29-3.22,3.2-5.2-1.14-8.09c-0.64-2.76,0.27-3.84-3.22-3.84c-22.55,0-5.21,1.25-38.8,5.29
		c-5.52,0.66-11.86,1.96-14.73,6.64c-4.94,8.03-2.28,10.25-4.05,12.24c-2.65-0.59-9.45,0.68-15.04-0.1
		c-9.16-1.28-9.88-0.71-24.07-0.31c-9.94,0.28-17.58-4.38-27.28-2.18c-1.35,0.31-5.21-0.63-12.97,2.8
		c-8.97,3.96-13.79,1.51-20.02,2.49c-4.26,0.67-8.4,0.52-12.66,0.62c-1.24,0.1-2.49,0.21-3.63-0.73c0-10.87,2.94-8.71,0.93-11.52
		c-1.04,0-1.45,0.41-1.66,1.04c-0.85,3.41-1.93,9.27-2.59,10.37c-2.39,0.1-4.25-0.53-6.02-1.87c-7.82-5.92-12.5-5.82-13.59-6.64
		c-2.01-1.51-8.36-0.86-10.17-0.52c-3.7,0.7-0.17-3.31,0.73-4.05c3.19-2.94,4.1-15.15,3.84-19.3c0-2.06,1.72-1.5,2.18-1.04
		c0.41,2.39,0.73,4.77,2.8,6.64c0.45-1.79-0.7-4.38-2.28-8.61c-0.62,0.21-1.24,0.31-1.76,0.41c-4.77-3.32-6.43-5.91-7.26-10.89
		c1.14-0.41,1.76-1.66,2.39-2.7c2.42,0.4-0.62,2.09-0.41,3.22c0.64,0.64,0.05,0.96,2.8-0.41c0.49,1.48-1.69,2.7,0.42,4.36
		c0.64,0.5,0.1,1.14,0.31,1.66s0.62,1.35,1.56,1.35c0.96-1.44,0.67-0.86,0.93-2.18c-1.97-1.76-1.66-4.25-1.66-6.54
		c1.87-0.41,3.42,0.93,5.08,0.73c0.31-1.24-1.24-1.14-1.14-2.18c0.1-1.04-1.14-0.93-1.45-1.66c2.48-0.25,4.02-0.28,3.63-1.45
		c-0.93-0.52,0.02,0.21-6.22-0.62c6.33-0.83,6.85-1.04,7.88-3.01c-0.52-0.41-0.94-0.01-1.35,0.21c-4.13,2.13-8.27,0.36-12.14,1.76
		c-1.23-1.38-1.33-3.46,0.83-3.01c6.98,1.45,17.62-0.39,15.02-2.99c0.01,0,0.01-0.01,0.02-0.01c0.52-0.83,1.87-0.83,1.97-1.97
		c-0.31-0.62-1.24,0.1-1.45-0.73c1.11-1.11,1.14-1.15,1.63-2.5c-0.72-0.08-1.37-0.09-2-0.09c1.05-2.82-0.42,0.37-5.11-1.97
		c1.87-0.41,3.73-0.62,5.29-1.35c1.27-2.53-0.88,0.89-9.96,0.1c-5.53,0,1.93,1.25,4.97,3.05c0.17,0.08-4.01,1.3-6.53-0.56
		c-2.56,2.55,1.23,0.94,8.4,3.63c-2.87,0-4.27,0.73-9.13,0.73c2.58,1.64,4.73,0.54,6.85,1.24c-5.29,1.56-7.16,1.24-11.72-2.18
		c-0.28-0.71-0.33-1.42,0-2.18c0.31,0,0.73-0.1,1.04-0.21c0.26-0.26,0.47,1.88,3.1,1.88c-0.52-1.26-1.63-1.88-2.92-2.28
		c-0.18,0.18-1.41-1.67-0.7-3.18c0.55-1.18,2.27,2,4.38,2.03c0.11,0.32,0.52,0.49,0.63,0.49c0.59,0.15-0.67-1.24-0.67-0.63
		c-0.71-1.43-5.69-4.11-2.83-7.19c0.95,0,3.93,2.25,3.4,1.16c-1.57-3.25-5.19-1.13,1.16-7.48c1.27,0.2,1.4,0.23,1.66-0.62
		c0.99,0.09,1.6,1.11,2.54,0.86c-1.05-1.57-1.94-1.98,0.05-2.64c2.15,1.19,3.86,2.76,5.18,2.62c-0.22,1.5-0.39,1.18-3.92,2.35
		c-1.74,0.1-2.38-1.31-3.58-1.55c-1.19,2.39,5.89,3.42,7.97,4.95c-2.76-0.09-5.34-1.12-8.12-1.12c1.73,1,6.99,2.78,8.35,1.31
		c0.1,0.1,3.32,1.27,5.44,0.45c0.97-3.44-0.16-1.55-1.87-1.35c-0.52,0-1.04,0.1-1.24-0.73c0.63-0.63,2.66-0.96,3.32-2.07
		c1.16,0.09,1.6,0.47,1.82,1.2C691,21,690.99,21,690.98,21.01c-0.64,0-1.13,0.1-1.32,0.74c0.8,0.11,1.42,0.06,1.42-0.75h-0.02
		c0.28-0.05,0.82-0.48,0.82-1c-0.39-0.79-5.59-2.63-5.81-2.7c-3.22-1.02-3.08,0.62-3.27,0.04c-0.83-1.4-2.69-1.69-3.36-3.25
		c0.83-1.14,1.87-1.03,3.01-0.62c3.83,1.37,7.68,2.47,11.41,4.05c4.63,1.96,0.97-1.81,9.13,3.63c1.66-1.14,3.01,0.31,4.25,0.93
		c0.44-0.35,0.65-0.62,0.9-0.83c0.11,0.21,0.09,0.46,0.45,0.1c-0.78-0.39-0.17-0.59-1.14-1.36c-7.87-6.2-4.7-2.98-4.15-4.67
		c-0.97-1.55-4.37-2.13-5.08-3.32c2.7,0.21,9.44,1.63,10.58,4.77c-0.31,0.31-0.41,0.41-0.62,0.62c0,0.11-0.1,1.5-0.1,0.73
		c-0.65,0-0.65-0.13-0.03,0.49c-0.09,0.59-0.32,0.2,1.28,1.79c0.39,0.1,0.29,0.14,0.52,1.04c0.81-0.97-0.71-1.03,1.68-0.34
		c0.12-0.59-0.79-1.27,0.18-1.85c1.56,1.14,2.07,3.01,3.11,4.46c0.73-0.1,0.21-1.24,1.14-1.24c3.84,4.72,3.93,10.55,5.81,16.7
		c0.19,0.63,0.41,1.14-0.21,1.66c-9.89-0.9-6.63,1.98-4.67,1.76c2.05-0.23,4.39-1.41,5.5,0.62c-0.84,2.95-1.29,3.12-1.66,3.73
		c-2.18-0.52-4.46-0.83-6.22,1.14c1.45,0.73,1.14,2.8,2.59,3.53c2.07,0.73,2.59-1.56,4.15-2.39c-0.41,2.7,0.65,4.87,0.73,7.26
		c0.33,10.44-3.41,13.91-6.85,23.65c-3.2,9.08-8.41,3.99-9.86,6.64c2.49,0.83,4.77,0.31,6.95,0c1.97-1.87,3.1-3.95,4.05-6.33
		c3.69-9.34,8.05-14.16,6.85-21.99c-0.21-1.38-0.71-9.55-0.21-10.69c2.48-6.7-0.86-19.96-4.67-26.77
		c-4.01-7.17-21.61-11.73-31.12-11.1c-8.26-7.63-19.05-4.15-20.64,2.9c-0.86,3.83-1.85,7.68-1.76,11.72
		c0.3,13.55-3.2,17.93-4.67,27.7c-0.72,4.8,0.21,3.3,0.21,8.4c0,6.73-0.74,15.2,1.97,20.44c0.51-1.78-2.76-21.57,2.18-40.77
		c0.93,1.87,1.66,3.22,2.39,4.67c-2.83,5.66-2.2,4.89,0.21,11.31c-0.52,8.3,0.31,16.29,0.31,24.38c-2.09-1.05-2.19-16.36-2.9-24.07
		c-1.78,0.45-0.44,11.48,0,13.28c0.31,1.04,0.41,2.18,0,3.22c-0.31,0-0.62,0-1.14,0c-0.1,4.36-0.41,8.71,0.31,12.97
		c-3.9,2.6-18.12-6-29.88,13.9c-2.08,3.12-0.52,3.12-6.22,3.11c-43.46-0.06-110.62-0.33-110.8-0.31c-2.13,0-2.62,2.19-1.45,2.9
		c2.39,1.46,107.5,0.62,113.81,1.14c3.46,0,1.95,1.72,1.76,5.29c-0.81,15.35,2.24,13.87,5.71,34.55
		c2.02,12.03,8.74,33.18,16.29,47.51c3.46,6.56,3.65,21.99-3.22,35.07c-31.06,59.16-22.3,105.14-22.3,120.24
		c0,20.59,5.71,47.98,5.5,51.15c-1.98,2.72-3.89,12.64-4.36,16.18c-2.28,17.44-6.67,18.85-7.88,31.23
		c-1.74,17.73-0.62,29.66,2.39,40.56c2.58,9.34,5.05,44.65,9.23,52.7c-2.85,2.25-1.42,4.4-1.04,12.45c-1.45,1.14-2.8,2.39-4.25,3.53
		c-4.43,8.57-1.93,15.78-7.68,25.83c-0.53,1.05-1.24,2.6-1.24,3.53c0,3.14-2.16,5.71-1.24,8.92c2.27,2.48,4.71-0.27,15.46,1.14
		c2.67,0.59,3.51-2.09,7.47-1.56c4.57,0.62,9.13,0.73,13.69,0.21c10.96,0,0.85-6.74,1.45-22.82c0.27-7.27-0.31-8.63,1.04-11
		c1.17-2.07,0.88-3.44,0.1-7.88c-1-5.73-2.45-3.55-3.32-5.81c-0.71-19.75,0.33-7.39-0.1-21.27c-0.09-2.8-0.62-5.71,0.62-8.4
		c0.1-0.31,0.1-0.73,0.1-1.14c0-15.05,7.98-42.36,7.57-50.63c-0.36-7.2-1.31-22.13,2.07-28.32c2.2-4.04,0.01-4.49,0.73-6.02
		c4.94-10.46,7.04-5.3,10.27-31.43c0.31-2.49,0.62-5.19-0.73-7.78c2.71-3.79,2.96-18.45,5.39-24.9c0.79-2.08,5.51-16.29,6.64-22.82
		c1.78-10.28,4.03-7.02,6.12-28.94c1.78,0,4.42,15.46,14.94,33.3c1.07,1.82,6.43,12.67,12.45,21.58c2.47,3.65,5.48,15.8,6.43,20.13
		c4.4,19.98,16.68,41.17,17.74,50.21c0.31,2.59,1.14,4.77,3.01,6.64c-1.89,19.88-0.01,18.13-1.76,25.62
		c-0.61,2.6-0.62,4.98,0.93,7.47c1.35,2.18,2.07,4.77,3.01,7.16c-0.31,2.18,0.89,4.07,1.76,5.91c3.58,7.58,4.7,35.77,4.25,43.36
		c-0.32,5.38,2.27,8.42,1.35,10.27c-4.33-2.16-3.05,6.93-5.39,11c-0.72,1.25,1.57,6.99,1.35,11.41c-0.4,7.76-1.71,12.81-1.24,17.95
		c1.97,1.56,4.05,0.21,6.02,0.62c0,0.52,0.1,0.93,0.21,1.45c0.66,4.95,0.41,6.61,3.42,6.95c5.11,0.58,7.38,1.62,11.31,0.31
		c0.1-0.03,24.09-1.98,26.04-3.01c0.94-0.5,1.65-1.24,1.66-2.28c0.05-4.15-0.72-8.2-3.11-11.62c-5.61-7.99,2.29-0.01-13.49-22.41
		c-2.82-4.01-7.44,0.85-5.6-14.94c0.61-5.29-2.75-5.19-3.84-6.64c0.69-16.62-4.56,15.4,9.54-57.16c0.28-1.46,0.62-2.9-0.21-4.36
		c-0.56-0.97-0.09-1.25,0.93-14.84c-0.55-0.92-1.01-1.01-1.04-3.73c-0.1-11.55-4.41-22.9-4.25-26.97c0.14-3.55-2.57-8.37-2.39-10.48
		c0.43-4.82-3.22-6.16-3.22-28.53c0-20.28,0.5-18.81-0.52-20.33c-0.35-0.53-0.18-4.34-2.39-19.5c-0.51-3.52-1.44-3.04-3.11-16.08
		c-0.98-7.62-4.33-25.66-8.09-32.26c-5.81-10.21-6.49-22.09-8.82-25.52c-0.19-0.37-1.91-9.44-1.87-12.86
		c0.05-4.3-5.51-29.58-6.02-30.6c-1.35-0.84-1.91,0.71-2.9-2.39c-14.86-46.04-5.01-36.57-6.95-47c-0.96-5.18-0.1-10.37-0.93-15.35
		c0.62-1.14,1.56-1.54,2.39-2.07c3.45-2.23,6.77-7.47,6.12-10.89c-0.87-4.56,0.83-6.57-0.31-11.72c-0.1-0.62-0.41-1.24,0.1-1.97
		c3.63,0.21,7.47-0.43,11.2-0.83c17.93-1.94,23.53-5.71,27.7-4.88c4.36,0.87,2.75-0.75,15.98-2.9c6.62-1.08,23.31-6.29,23.76-8.51
		c-0.1-0.41-0.52-0.62-0.83-0.52c-17.12,5.71-61.33,15.78-79.36,15.15c-1.35-2.9-3.84-4.98-6.22-7.26c1.45-2.49,0.31-4.98,0.52-7.37
		c0.52-0.52,1.14-0.41,1.76-0.41c9.66,0,9.36-0.78,14.84-0.21c6.36,0.67,6.86-1.56,11.31-0.93c12.05,1.7,15.68-1.08,21.68-1.76
		c9.04-1.03,5.49-0.08,21.06-2.07c6.8-0.87,12.2-3.42,14.63-3.42c0.49,2.47-0.15,5.4,3.32,5.91c0.97,0.24,1,2.42,4.36,2.39
		c10.39-0.11,13.17,3.15,40.04,5.81c0.62,0.1,1.35,0.3,1.87,0.1c2.97-1.14,7.64,0.21,9.03-1.76c-0.62-6.02,0.21-11.93,0.73-17.95
		c2.3-1.38,5.83-3.21,5.6-4.98c-0.43-3.36,3.23-3.47,1.76-7.88c0.73-0.41,1.35-0.73,1.76-1.56
		C885.26,93.24,885.96,90.72,883.63,88.65z M670.54,60.64c1.04,0.73,1.04,0.73,0.21,2.07C670.33,61.67,670.33,61.67,670.54,60.64z
		 M668.57,45.49c2.02-0.79,2.11-0.86,2.95,1.1C671.77,47.19,670.2,45.49,668.57,45.49c0.31,1.24-0.31,2.28-1.04,3.63
		C667,47.49,668.09,46.46,668.57,45.49z M685.17,21.32c-1.97,1.04-3.11-0.41-4.46-0.73C682.33,20.06,683.67,20.52,685.17,21.32z
		 M702.18,15.7c0,0.11,0.03,0.04-0.21-0.2C701.98,15.59,702.18,15.39,702.18,15.7z M690.36,14.78c-0.34-0.11-0.38-0.1-0.21-0.1
		C690.39,14.68,690.36,14.64,690.36,14.78z M696.99,13.65c0.18,0.06,0.71,0.14,0.95,0.2c0.15,0.05-0.44,0.62-0.78,0.12
		c-0.49-0.71-1.25-0.06-1.59-1.02C695.68,12.89,696.8,12.94,696.99,13.65z M695.35,12.81c-0.72,0-1.4-0.06-1.96-0.6
		C694.1,12.26,694.8,12.19,695.35,12.81z M684.8,8.77c0.17,0.21,0.1,1.08-0.57,0.47C683.45,8.63,684.61,8.57,684.8,8.77z
		 M693.09,12.11c-6.04,0.98-7.8,2.31-10-0.45C685.47,11.24,691.5,10.32,693.09,12.11z M682.68,9.7c-1.35-0.1-1.76-0.31-5.39-3.11
		C681.23,6.38,681.75,6.69,682.68,9.7z M669.71,10.32c1.35-1.93,2.45-2.35,5.39-3.11c2.55,0.4,5.05,2.72,4.95,2.82
		c-0.87,0.87-1.61,0.24-2.37,0.57c-0.05-0.09,0-0.17-0.08-0.18c0-0.1-0.24-0.18-0.24,0.01c-0.02,0.27,0.34,0.09,0.24,0.2
		c0.61,1.22,0.78,1.91-1.35,2.59c-1,0.32-1.25-1.17-2.3-0.84c-0.82,0.26,1.39,1.33,0.52,2.02c-2.19,1.09-2.84-0.64-7.86,7.74
		C666.5,18,667.91,12.89,669.71,10.32z M683.41,38.02c-0.1,0.1-0.21-0.1-0.31-0.1C683.83,37.18,683.67,37.89,683.41,38.02z
		 M682.58,32.33c0.27-0.03,0.44,0.03,0.89,0.03C682.27,33.7,681.45,32.45,682.58,32.33z M680.71,36.36c0,0.14,0.06,0.12-0.31,0
		C680.78,36.23,680.71,36.22,680.71,36.36z M667.22,36.67c0-0.04-0.01-0.07-0.01-0.1c0.32,0.27,1.15,0.74,3.12,1.35
		c4.81,2.41,6.52-0.17,11.2,0.41c-4.88,1.47-2.43,1.24-14.11,1.24C666.22,38.64,666.65,37.96,667.22,36.67z M828.96,112.61
		c1.76-1.01,6.48,0.93,10.25-1.04c0.36,0,1.39,0.74,2.09,0.61c3.3-0.59,9.64,2.85,16.39,1.24c6.06-0.87-2.06,1.81-6.95,1.97
		c0.11,0-12.15,0.55-17.99,1.96c-3.51,0.85-2.6,1.62-6.59,0.12c-0.69-1.38-0.83-2.88-0.83-4.25
		C826.57,112.82,827.83,113.26,828.96,112.61z M867.65,72.25c2.49-0.1,4.98-0.31,7.68-0.41c-0.47,1.22-0.89,0.87-4.47,1.33
		C868.58,73.46,866.92,75.13,867.65,72.25z M867.45,77.34c2.37-1.46,5.2-1.77,7.99-2.17c0.72,5.73,1,4.96-0.43,5.18
		c-2.55,0.39-5.23,0.28-7.56,0.22C867.45,79.1,867.45,78.27,867.45,77.34z M812.36,100.68c0-0.88,1.8-1.83,2.78-1.99
		c1.42-0.23,2.04,0.43,3.01,1.45c-1.26,0.45-2.67,0.7-3.83,1.71C814.17,101.95,812.75,101.37,812.36,100.68z M813.6,103.07
		c-0.21,1.45-0.21,1.45-2.39,1.04C811.63,103.27,812.57,103.27,813.6,103.07z M802.71,96.63c5.3,0.63,16.25-2.25,15.39,1.2
		c-3.88-2.7-6.93,1.24-9.37,3.67c-6.64,0.52-13.28-0.1-19.71,0.1c-2.49-1.04-4.15-2.9-6.02-4.36
		C783.88,94.8,800.15,96.33,802.71,96.63z M783.11,100.23c0.3,0.46,0.1,0.46,0.29,0.47c0.58,0.01,1.06,0.23,1.36,0.82
		c-0.71,0-0.73-0.01-1.4-0.78c-0.21-0.21-0.63-0.28-0.67-0.74C782.69,99.8,783.01,100.07,783.11,100.23z M782.53,99.79
		c-0.38,0.19-4.05-0.7-4.15-0.73C780.22,98.02,781.34,98.23,782.53,99.79z M775.53,106.08c1.87,2.49,3.13,2.65,1.69,2.6
		C774.39,108.58,772.56,106.5,775.53,106.08z M776.67,99.85c0-0.1,0.45-0.39-1.87,2.7C773.25,102.55,774.98,99.85,776.67,99.85z
		 M777.4,104.04c0-0.19,0.11-0.57,0.41-1.7c1.56,0.1,2.8,0.62,3.63,1.97c0.54,1.01-0.02,1.98-0.62,3.11
		C778.88,107.06,777.37,104.49,777.4,104.04z M776.74,99.76c-0.1,0-0.03-0.66,1.41-0.63C778.15,99.23,777.72,99.86,776.74,99.76z
		 M668.47,58.04c0.63,0.43,0.67,0.05,0.62,3.22c-0.17,10.31,1.13,10.48-0.09,14.01c-0.81,2.32,0.39-2.92-0.32-7.47
		C668.45,66.39,667.49,59.16,668.47,58.04z M667.43,85.75c-2.3-2.73-1.35-4.68-1.79-5.31C665.06,79.72,665.82,78.67,667.43,85.75z
		 M635.68,99.33c10.34-11.1,12.59-12.69,27.17-11.62c-0.98,1.28-1.6,0.72-6.54,1.66c-1.09,0.21-2.12-0.22-3.22,0.41
		c0,2.89,9.13-0.27,12.24-1.14c0.14,0,1.58,0.95,4.56,0.41c2.49-0.44,4.98-0.41,7.78-0.21c3.22,2.49,7.47,3.73,11.2,5.91
		c-0.31,0.62-0.62,0.93-0.83,1.24c0.1,0.62,0.42,1.03,0.93,1.14c17.18,3.86,24.74,1.57,37.24,2.07c17.63,0.72,7.63-7.89,47.31-3.53
		c9.1,1,1.18,0.42-2.7,5.6c-1.29-0.19-2.32,0.51-3.23,1.45c-0.15,0.15,1.89,0.1-25.1,0.1c-0.65-1.29,2.32-3.05-0.51-2.48
		c-15.89,3.22,30.25,2.49-104.99,2.06C635.39,102.44,635.42,100.94,635.68,99.33z M628.84,558.5c0.73-0.52,0.29,0.11-0.15,0.26
		C628.49,558.83,628.73,558.58,628.84,558.5z M653.4,559.43c-1.04,1.97-1.66,4.25-1.66,6.64c0,4.29-3.07,6.14,2.39,22.51
		c-0.93,0.93-2.07,1.35-2.59,2.39c-7.97,1.37-11.81-1.11-18.26,1.24c-1.8,0.66-2.55,0.49-3.84,0c6.06-4.74,8.66-8.49,17.97-3.84
		c0.53-0.53,0.97-1.06,0.52-1.66c-1.72-2.3-11.94-5.64-19.61,3.01c-0.63,0.72-0.41,1.56-0.73,2.59c-2.7,0.41-5.5,0.73-8.2,1.14
		c-0.65-0.38-0.73-0.93-0.62-1.66c1.6-11.28,5.09-8.53,6.64-19.82c0.5-3.63,1-7.37,1.56-11c0.1-0.62,0.31-1.24,0.42-1.87
		c0.21,0,1.08-0.09,1.17-0.27c2.23,3.7,13.39-1.29,18.33,0.48c-3.28,1.32-16.5,1.67-17.22,4.56c1.69,1.69,3.12,0.66,4.98,1.35
		c-0.75,1.13-2.28,0.84-2.59,2.18c0.8,1.59,2.33,0.8,3.63,1.56c-0.41,0.62-1.35,0.84-1.35,1.87c0.65,0,0.28,1.6,5.6,0.62
		c0.8-0.15,4.05-0.51,4.05-2.07c-1.26-3.14,0.67-1.38,2.69-3.62c0.2-2.37,2.49-2.72,2.49-3.94c0.11-0.87-1.04-1.23-1.04-1.87
		c0.38-0.9,1.45-0.74,1.18-2.12c-0.78-4.07-13.09-1.95-16.74-0.59c-0.11,0.04-0.24,0.07-0.35,0.09c-0.64,0.11-1.36-0.08-1.44,0.08
		c0,0.65-1,0.63-1.3,0.63c-0.09,0,0.54-0.64,1.21-0.91c0.31-1.56,1.97-1.66,2.9-2.8c0.41-1.97-0.31-3.84-0.52-5.81
		c1.03-2.06,1.42-2.35,1.76-5.08c4.28-1.86,9.98-2.26,10.37-1.56c1.67,3,0.65,7.39,1.14,7.51c1.56,0.74,4.93,1,5.37,1.92
		C652.9,553.76,652.7,556.6,653.4,559.43z M648.24,540.55c0.52,2.28,0.41,4.67,1.56,6.54c-0.1,0.62-0.41,0.83-0.83,0.83
		C648.24,546.16,647.82,542.94,648.24,540.55z M686.93,325.8c-1.47,6-7.67,23.88-8.75,29.01c-1.39,6.63-1.34-1.13-1.84-1.94
		c-1.11-0.37-0.77,0.28-0.93,9.86c-0.1,6.16-1.24,6.77-4.05,24.9c-2.01,12.95-0.77,15.25-1.04,16.6
		c-1.52,7.72-2.43,16.64-6.44,23.86c-0.21-0.31-0.41-0.62-0.52-1.35c-1.86-0.53-5.81,14.55-5.81,28.11c0,7.46,1.38,2.2-0.31,12.55
		c-0.38,2.32-3.5,21.19-3.61,21.54c-0.71,2.17,1.29-1.4-1.69,12.18c-4.96,14.87-1.19,32.6-3.01,34.03
		c-1.24-0.62-0.62-2.28-1.76-3.01c-0.86,1.82-0.83,1.87-0.73,6.22c-4.44,0-6.33,0.15-11.62,1.66c-1.04-2.49-1.99-4.87-2.28-7.47
		c-0.79-7.05-2.15-14.01-3.01-20.96c-3.38-27.43-1.52-27.81-5.19-28.43c-2.48-7.7-2.61-32.23-1.11-38.25
		c0.64-2.57,2.52-7.34,5.57-16.63c1.1-3.37-0.09-3.05,2.8-12.55c0.92-3.03,2.26,2.02,3.53-13.18c0-2.32-3.39-36.7-4.15-38.59
		c-2.6-8.45-1.01-28.19-1.01-28.31c0.62-12.09-0.93,1.48-0.03-14.95c0.05-0.84,0.28-5.73,0.31-6.02c1.29-2.15,3.11-0.76,4.15-0.31
		c2.17,0,8.45-3.13,24.28-0.62c4.86,0.77,17.84,3.01,24.07,6.22C686.66,322,687.69,322.72,686.93,325.8z M773.77,540.97
		c0.59,2.05-0.69,2.59-0.01,11.55c0,1.28-9.48-0.78-14.67,2.92c-0.61,0.43,8.37,2.61,16.65,0.89c4.11,2.05-10.2,0.57-15.25,4.36
		c3.42,2.64,17.34,0.36,17.64,0.21c0.92-0.6,0.62-1.54,0.93-2.18c1.16,0,10.79,13.59,11.72,17.33c2.17,6.94,3.2,3.47,4.98,11.41
		c0.32,1.43,1.85,4.77-0.41,4.77c-4.36-0.31-8.51,0.95-12.86,1.24c-17.08,1.14-12.46,3.26-21.68,0.62c-1.22-1-0.81-1.29-2.18-9.13
		c-0.09-0.52-0.1-0.52-1.35-1.45c-1.11,0.1-0.65,1.59-1.45,1.97c-6.93,2.6,1.08-11-2.9-21.89c-0.74-2.02-0.26-11.79,1.24-12.76
		c0.72-0.46,2.59,1.21,3.61-1.07c0.76-1.7-0.13-6.01,0.5-6.33c0.19-0.08,1.55-0.82,2.95-0.8
		C765.36,542.68,769.41,541.38,773.77,540.97z M756.34,306.4c0.73,3.63,2.16,6.96,3.42,10.48c3.95,11.04,2.03,12.91,7.26,40.88
		c1.14,6.11,3.35,13.34,2.59,31.75c-0.37,9.06,0.52,14.25,0.52,15.56c-0.95,9.7,4.26,11.12,2.49,23.34
		c-0.08,0.57-0.37,1.51-0.1,2.18c1.02,0.41,0.88-1.13,1.87-0.83c3.02,7.89,3.7,14.4,5.91,28.01c3.72,22.85-10.58,55.1-10.58,80.82
		c-4.56,1.76-8.82,2.59-11.83,2.18c-0.4-0.48-0.32-1.17-0.31-1.76c0.12-13.38-3.11-37.2-3.01-37.45c2.19-7.3-9.23-15.71-7.16-40.36
		c0.27-3.22,0.04-6.42,0.62-9.65c0.18-0.98-3.29-20.37-7.88-23.86c1.18-3.55,1.72,0.72-1.24-9.03c-2.25-1.02,0.22,0.75-4.88-10.27
		c-3.14-6.8-5.07-10.75-5.5-15.25c-0.69-7.25-2.12-4.61-5.08-19.71c-0.53-2.7-1.43-5.4-1.76-8.3c-0.52-4.54-2.89-1.22-0.1,4.36
		c-0.72,0.26-1.3,0.24-1.45-0.52c-5.04-13.49-13.92-25.08-19.61-37.87c6.01-7.22-0.69-3.83,40.05-21.27
		C743.17,308.71,756.34,303.59,756.34,306.4z M743.47,254.01c-0.86,3.77,3.15,22.45,3.94,25.62c4.53,18.14,6.34,17.77,7.37,21.37
		c0.15,0.73,0.26,1.86-0.52,1.87c-9.55,0.1-24.41,7.08-42.53,14.94c-8.39,3.64-11.44,10.17-12.45,10.17
		c-2.32-0.39-6.73-19.24-7.81-19.9c-2.01-1.23-0.61,7.79-3.75,11.53c-0.62,0.61-0.49-2.18-13.9-5.98
		c-20.84-5.89-38.65-4.24-42.23-2.52c-2.72,1.09,0.95-23.6,1.71-27.84c0.68-5.48,0.1-6.95,3.32-16.29
		c0.71-2.07,5.14-14.46,6.95-15.67c1.45,0.41,3.42,0,4.36,1.76c0.62,0.1,1.25,0.1,1.56,0.21c10.28,3.45,18,1.93,31.02,2.39
		c25.44,0.9-4.23,1.53,35.9,0.41c11.73-0.33,17.9-1.79,26.14-4.15C743.23,252.33,743.73,253.12,743.47,254.01z M741.19,243.43
		c0.14,0,0.13-0.06,0,0.21V243.43z M735.9,146.74c0.59,3.97,1.94,9.78-1.87,14.63c-8.43,10.72-7.01,3.36-6.12,14.94
		c-11.11-1.6-23.31-3.87-34.33-1.45c-15.25,3.35-14.94,3.11-15.69,2.86c-0.79-0.26-0.5-0.45-0.9-0.27c-0.9,0.41-1.32,1.17-2.19,1.35
		c-5.88,1.19-11.53,2.67-17.12,4.88c-1.62,0.64-4.69,0.16-3.63,2.28c1.23,2.11,4.92-1.06,11.81-2.31c0.85-0.16,1.1,2.2,3.44,3.34
		c0.17,0.08,0.33,0.16,0.52,0.22c0.31-1.76-1.24-2.7-1.66-3.94c1.41-3.17,47.2-10.65,54.15-4.58c0.11,0,0.49-0.74,1.98-0.62
		c1.52,0.12,3.03,0.11,4.25,0.93c0.97,1.13-0.65,16.5-1.04,19.82c0.84,5.05,2.39,20.94,6.95,29.26c1.49,2.72,6.02,14.26,6.54,18.88
		c0,0.44,0.34,0.65,0.52,1.04c1.62-1.06,1.35-0.53,1.45,1.87c-9.85,3.55-31.33,3.92-43.36,4.15c-6.62,0.13-13.24-1.64-28.22-1.45
		c-4.75,0.06-7.85,0.58-25.94-3.94c-0.41-2.7,2.8-4.36,1.56-7.05c7.26-9.89,16.61-35.99,9.75-48.45c-1.14-2.07-1.66-4.45-3.63-6.02
		c-1.33-1.06-10.37-25.36-10.37-27.91c2.9,2.29,6.06,2.35,9.54,1.14c3.95-1.37,19.38,0.18,26.66-32.58
		c18.4,1.47,13.79-1.02,17.84,3.84c4.04,4.84,7.61,3.12,10.79,3.84c3.58,0.81,6.27,0.38,8.61-3.01c0.73-1.76-0.42-3.63-0.83-5.6
		c2.17-0.99,4.33-0.51,6.14-1.14c0.86-0.3,3.21,3.39,3.71,4.15C728.4,134.56,734.44,136.9,735.9,146.74z M728.85,169.15
		c-0.13,0.26-0.08,0.29-0.21-0.1C728.76,169.1,728.71,169.08,728.85,169.15z M697.2,127.86c14.95-2.39,17.97-2.82,16.07,4.36
		c-3.64-1.71-4.8,0.46-7.56-0.62c-0.15,0-2.33-1.26-4.77-0.41C698.45,129.94,698.45,129.94,697.2,127.86z M724.68,125.37
		c1.97-1.04,3.73-0.93,5.6-1.04c0.53,2.07-0.61,3.53-1.34,5.19C726.17,129.35,726.29,126.98,724.68,125.37z M817.75,112.92
		c-0.52,0.17-4.89,2.59-12.97,3.22c-3.71,0.29-19.19,0.66-28.74,3.01c-8.51,2.09-11.01-0.35-20.54,1.97c-2.8,0.68-2-0.41-15.15-0.41
		c-19.08,0-34.52,8.15-71.69,2.59c-2.8-0.42-5.71-0.31-8.2-1.76c-0.72,0.26-0.61,0.88-1.05,1.76c-0.24,0.24-4.81,2.8-3.88,2.8
		c2.67,0.19,4.94-0.94,7.51-1.56c3.94,1.24,8.4,1.97,12.55,2.7c1.63,1.87-5.27,22.74-20.64,30.81c-9.18,4.81-11.4-3.59-14.73-6.22
		c-4.25-16.69-1.02-20.14-4.46-22.2c-0.42-0.21-4.69-13.12-1.56-22.51c0-2.09-1.08-0.62,135.59-0.62c2.18,4.67,6.12,5.44,10.58,5.19
		c2.49-0.14,4.64-0.64,6.12-2.9c0.82-1.25,2.39-1.66,3.11-2.9c6.43,0.31,12.66,0.52,18.99,0.73c1.45,0.73,2.8,1.85,4.56,2.07
		c1.56,0.2,3.22-0.21,4.67,0.52C818.58,110.54,817.86,111.68,817.75,112.92z M816.61,103.17c0.73-0.1,0.73,0.62,1.24,0.83
		c0.83-0.41,1.13-1.19,1.13,0.96c0,0.18,0.03,0.34,0.1,0.5C816.22,106.88,815.56,104.22,816.61,103.17z M824.08,121.53
		c-1.45-0.62-2.49-1.76-3.42-2.8c-0.1-1.97-0.18-3.94-0.31-5.91c-0.45-6.9,2.31-9.39,0.73-12.55c-1.89-1.89-2.81,0.31-2.81-0.21
		c-0.01-1.1-0.18-2.15-0.07-2.15c2.31-1.42,1-3.81,1.73-4.54c1.08-0.79,1.17-0.63,1.17-0.91c1.82-19.51,14.81-10.93,39.71-19.15
		c1.34-0.44,2.49-1.04,3.94-0.93c0.39,1.08,0.3,2.05-0.04,3.04c-0.29,0.85-1.73-0.1-23.82,3.91c-8.81,1.6-9.11,2.96-11.83,3.11
		c-2.99,0.4-5.38,4.51-4.67,7.05c1.82-1.21,2.19-3.41,3.42-4.25c7.57-2.7,14.73-4.46,22.1-4.88c0.17,1.46-1.09,0.66-7.78,7.68
		c-6.48,6.8-12.75,2.99-16.29,6.02c-1.71-0.51-0.35-3.01-1.76-3.01c-0.73,1.97-0.73,1.97-0.52,4.46c0.62,1.04,1.97,0,2.59,1.04
		c0,0.21,0.11,0.42,0,0.62c-2.85,5.54,2.56,7.87-2.49,9.13c-1.73,3.04,0.55,7.74-1.04,11.62c-0.1,0.31,0.21,0.93,0.31,1.45
		c2.28,0.52,4.36,1.61,6.74,1.56c0.39-0.01,0.74,0.12,0.96,0.41C830.85,121.64,831.45,121.53,824.08,121.53z M831.12,121.72
		c-0.09-0.08,2.19,0.11,2.29,0.12C832.39,122.22,831.68,122.26,831.12,121.72z M864.12,127.28c-1.71,0.57-20.67-2.55-21.66-3.38
		c-0.38-0.32-2.21-0.39-2.5-0.39c0.79-0.4,1.59-0.53,2.18,0.21c13.91,0.45,18.33,2.07,20.02,2.07c6.05-3.63-24.13-3.5-27.39-6.43
		c5.3-0.53,10.2-1.89,15.25-2.07c12.51-0.45,14.62-5.27,14.52-1.04c-0.05,2.39-0.02,4.77-0.21,7.05
		C864.14,125.65,867.17,126.9,864.12,127.28z M871.8,127.14c0-0.2,1.32-0.07,1.66,0C872.94,127.14,872.32,127.14,871.8,127.14z
		 M873.36,123.92c-2.5,1.32-4.81,1.14-7.05,1.14c-0.1-4.67,0.21-9.23,0.62-13.8c2.39-1.35,4.67-0.73,7.37-0.73
		C873.98,115.31,873.77,119.67,873.36,123.92z"/> <path d="M685.9,32.31l-0.1-0.1C685.74,32.37,685.75,32.28,685.9,32.31z"/> <path d="M711.52,21.21l0.1-0.1C711.51,21.05,711.57,21.11,711.52,21.21z"/> <path d="M338.25,12.39c0,0.06,0.05,0.08,0.1,0.1L338.25,12.39z"/> <path d="M446.46,560.26c-1.95-2.93-3.99-1.09-5.71-4.77c-0.1-3.42-0.42-6.95,0-10.58c0.31-2.7-0.62-4.67-3.22-5.6
		c-2.39,0,0.61-15.12,8.92-57.89c0.94-4.83-0.8-3.11-0.31-6.54c0.31-4.25,0.62-8.4,1.04-12.76c-0.93-1.14-1.13-2.49-1.14-4.05
		c-0.11-13.52-4.44-21.59-4.15-26.25c0.26-4.18-3.1-8.48-2.59-12.66c0.29-2.39-1.06-0.62-2.28-11.93c-0.47-4.37-0.76-2.44-0.73-6.22
		c0.11-13.6-0.08-16.22,0.31-27.49c-1.43-1.43-0.09-2.73-3.11-21.68c-0.6-3.76-1.23-1.47-3.01-15.35
		c-4.61-36.04-8.57-24.22-17.22-58.82c-4.26-29.12,1.44,0.65-6.95-41.29c-0.72-2.51-0.68-2-2.8-3.22
		c-1.66-3.84-3.77-7.46-4.77-11.62c-0.32-1.35-0.21-2.9-1.56-4.05c-0.37-0.28-0.91-5.57-0.93-5.81
		c-1.34-16.94,7.57-38.85,11.72-54.47c2.6-9.79,0.43-7.31,1.76-11.62c2.99-9.66,2.37-25.05,1.14-28.11
		c2.78-10.43,4.17-19.37-5.39-24.48c-6.51-3.48-12.16-7.42-19.92-7.88c-1.56-0.09-2.9-0.83-3.84-2.18
		c2.18-4.98,1.45-10.17,1.35-15.15c-0.41-0.62-0.83-0.21-1.14-0.31c-0.41-0.83-0.4-1.66-0.21-2.49c0.43-1.86,1.89-13.59,0-13.9
		c-0.66,8.96-0.66,19.99-2.7,24.07c-0.1-8.2,0.62-16.29,0.1-24.28c2.7-6.64,2.7-6.64,0.31-11.31c0.73-1.35,1.45-2.7,2.39-4.46
		c5.06,16.44,1.91,39.09,2.18,40.98c3.66-8.72,0.99-20.83,1.97-23.76c1.2-3.59-1.42-12.81-1.87-14.21
		c-4.46-13.89-1.05-11.74-4.25-30.09C378.51,0.38,367.61-3.63,359,4.41c-12.08-1.67-28.44,6.15-30.81,10.89
		c-5.15,8.92-6.28,22.03-5.39,24.28c2.14,5.42-0.29,11.02,0.21,16.18c0.65,6.78,1.55,6.33,7.57,20.44c0.84,1.97,1.97,3.73,3.73,5.08
		c1.65,0.1,6.43,1.1,6.43-0.73c-3.56-0.94-7.08,1.45-9.34-5.39c-2.86-8.68-6.41-11.94-7.05-22.2c-0.2-3.11,0.73-6.12,0.83-9.44
		c1.45,0.73,1.97,3.01,4.05,2.28c1.45-0.73,1.14-2.8,2.59-3.53c-1.76-1.97-4.05-1.66-6.12-1.14c-1.35-1.97-1.35-1.97-1.66-4.15
		c2.46-2.18,6.09,1.52,7.37-1.35c-0.72-1.15-2.54-0.68-4.46-0.93c-0.83-0.11-1.66,0.62-2.49,0c0.37-3.47,2.55-15.41,6.12-18.16
		c0.31,0.62,0.52,1.04,0.73,1.45c1.99-3.4,1.4-2.51,1.66-2.18c0.41-0.21,0.31-0.52,0.21-0.83c-0.02,0.04-0.05,0.06-0.08,0.09
		c0.76-1.07,0.28-0.31,0.22-0.1c0.78,0.05,1-1.14,0.29-0.5c0.35-0.35,0.73-0.58,1.34-0.95c-0.09,0.66-0.1,1.16-0.19,1.72
		c1.37-0.41,0.73-0.44,1.22,0.24c0.21-0.77-0.19-0.62,0.93-0.93c0.34-0.34,1.09-1.09,1.35-1.35c0-1.14-0.17-0.76,0.21-1.14
		c-0.4,0.2-0.62,0.19-0.62-0.62c0.17,0.17,0.35,0.35,0.52,0.52c0.79-0.49,1.57-1,1.46-2.05c0,0,0.02-0.01,0.09-0.01l-0.1-0.1
		c0.02,0.06,0.01,0.09,0.01,0.1c0,0,0,0,0-0.01c-2.37,0.31,4.39-2.44,8.6-3.02c-0.7,1.4-5.88,3.05-5.08,3.84
		c0.28,0.09,0.64,0.19,0.93,0.28c-7.05,5.1-6.09,4.69-5.08,6.36c1.56-1.66,3.01-1.87,4.56-1.45c9.01-5.54,1.36-1.15,10.37-4.15
		c11.19-3.73,11.72-4.68,13.18-2.59c-1.17,1.32-2.84,1.77-3.59,3.24c1.32,0.19,3.66-1.71,5.34-2.72c1.21,0.88,1.75,0.36-0.16,2.73
		c0.72,0.17,1.64-0.41,1.64-0.52c-0.01,0.05-0.01,0.1-0.02,0.17c0.71,0.04,0.26-0.46,0.92-0.52c0.36,1.03,0.29,0.88,1.66,0.62
		c2.73,3.19,4.62,3.97,2.65,5.82c-0.62,0.58-1.37,1.04-1.66,1.86c1.24,0.01,1.97-1.05,3.06-1.45c3.42,3.67-2.03,5.51-2.59,7.47
		c1.66-0.21,2.7-1.45,4.05-2.49c0.99,1.11,0.76,2.14,0.05,3.27c-0.44,0.7-0.43,0.52-0.17,0.79c2.5,0,0.81,3.12,0.16,3.3
		c0.35-0.41,0.05-0.07-0.67,0.31c0.03-0.01,0.47-0.21,0.62-0.28c0.62,1.54,0.61,1.55-0.2,2.88c0,0.1-0.03-0.11-2.52-0.11
		c-3.76,0-7.57,0.57-11.29-1.11c1.04-0.28,2.13-0.32,3.11,0c1.15,0.38,3.12,0.61,3.02,0.51c-8.55-1.35,3.63-0.92,3.3-1.26
		c-0.68-0.9-0.04-0.67-1.65-0.84c-7.88-0.85-7.91-0.51-4.81-1.39c4.68-1.34,8.6-0.91,6.65-2.42c-0.18-0.14-0.32-0.29-0.28-0.53
		c-2.49,1.24-3.01,1.24-6.43,0.41c3.41-1.9,10.56-2.88,4.7-2.88c-10.2,0.84-10.54-2.93-9.78,0.09c1.76,0.41,3.42,0.83,5.19,1.24
		c-2.9,1.04-2.9,1.04-5.5,0.73c0.57,1.53,1.02,1.25-1.53,1.25c0-0.01-0.01-0.04-0.01-0.09l-0.1,0.1c0.04,0,0.07,0,0.08,0
		c0.1,2.44,3.66,2.26,0.3,3.1c0.21,1.14,1.44,1.24,1.96,1.96c-0.35,0.3-0.6,0.67-0.51,1.15c2.18,1.45,2.39,1.55,3.94,1.76
		c11.53,1.57,11.97-1.24,13.07,0.41c0,0.83,0,1.76-0.83,2.59c-2.28-0.83-4.67-0.62-7.16-0.62c-4.7,0-5.25-2.09-6.43-1.24
		c0.67,3.35,13.06,2.47,4.46,3.42c-0.93,0.1-1.87-0.41-2.8,0.31c0.93,1.66,2.7,0.62,3.84,1.45c-0.41,0.31-0.93,0.52-1.24,0.83
		c-0.31,0.41-0.41,1.14-0.73,1.56c-0.21,0.31-0.93,0.31-0.62,1.24c1.66,0.41,3.32-1.35,4.98-0.62c0.93,5.58-3.14,6.57-0.73,8.51
		c0.1,0,0.21,0,0.52,0c0.31-0.41,0.93-0.83,1.04-1.35c0.21-0.52-0.41-1.14,0.31-1.66c3.24-1.95-2.74-6.14,2.9-3.32
		c0.1-0.41,0.31-0.73,0.41-0.93c-0.13-1.38-2.91-1.92-0.31-3.22c0.21,1.56,1.45,2.28,2.39,3.32c-1.04,4.67-3.53,7.99-7.37,10.48
		c-0.62-0.1-1.24-0.21-2.07-0.41c0.15,2.08-2.6,4.59-1.87,8.51c1.87-1.97,2.07-4.46,2.7-6.74c0.73-0.21,1.35-0.31,1.97,0.31
		c-0.38,6.15,1.05,21.93,7.68,27.28c-16.88,1.76-22.13,9.78-31.33,14.32c-2.21,1.09-3,0.13-2.39-1.76c1.4-4.28,0.51-7.83-1.56-16.39
		c-0.2-0.81-0.97-1.85-1.76-1.45c-2.38,1.43,3.03,7.89,0.73,20.13c-15.01,0.97-25.02,3.18-39.32,5.6c-2.18,2.28-5.81,2.39-7.99,5.08
		c-1.77,0-13.13-2.06-18.05-1.24c-8.99,1.49-12.81,0.92-20.96,2.8c-14.54,3.35-11.98,2.03-30.71,5.29
		c-23.3,4.06-16.78,3.62-18.26,3.32c-6.94-0.81-13.22,2.25-16.18,1.66c-5.19-0.73-10.49-0.28-15.35-2.49
		c-2.7-1.23-5.6-0.62-8.4-0.83c-3.42,1.54-7.74,0.58-9.65,2.49c-0.1,0.41-0.1,0.93-0.21,1.45c-1.56,0.21-3.01,1.14-4.67,0.93
		c-0.27,1.09-6.64,2.62-6.64,5.91c1.78-0.36,2.15-1.86,3.1-2.17c1.45-0.47-0.72,2.94,3.85,3.94c-1.23,0.7-3.31,1.13-3.42,3.22
		c2.62-0.1,6.9-2.14,7.76-1.84c0.89,0.32,1.13,1.28,1.79,1.72c0.73-0.1,0.83-0.73,0.83-1.35c-0.1-0.62-0.62-1.14-0.21-1.97
		c3.32-2.39,7.57-2.07,11.2-3.11c1.53,0.38,2.03,1.24,1.97,2.73c0.7-0.49,1.44-0.91,1.34-1.9c-0.22-2.1-2.4-2.26-4.25-2.49
		c-0.62-0.98,0.3-2.49-1.35-3.22c-0.57,1.72-0.94,3.17-3.15,3.2c1.56-2.78,0.79-2.5-1-4.04c0.1-0.21,0.21-0.52,0.41-0.62
		c5.84-2.82,5.42-2.07,8.4-0.93c3.26,1.25,18.33,5.5,20.96,3.53c5.42-4.06,10.43-1.47,19.5-2.59c17.15-2.13,34.19-6.86,44.61-7.37
		c1.26-0.34,1.24-1.87,2.18-1.87c32.68-4.95,35.52,2.56,38.8-1.45c-0.21-1.55-1.44-0.21-1.97-0.73c0-1.36,3.22,0.1,6.74-3.01
		c5.55-0.44,36.55-6.89,39.63-5.91c3.53-1.35,7.57-1.14,10.58-4.15c1.76-1.76,4.15-2.7,6.43-3.84c0.1-0.52,0.31-1.14,0.52-1.76
		c17.46-5.2,18.22-7.45,36.73-1.56c0.69,2.41,3.08,3.03,6.02,5.71c7.06,6.43,4.6,11.7,3.22,23.24c-3.72,30.95,0,30.43-9.23,33.3
		c-5.41,1.68-8.76,0.98-12.73-0.34c-12.41-5.64-13.75-20.15-14.04-21.02c-5.61-1.77,0.6,31.25,23.96,23.85
		c3.83-1.21,4.78-2.25,6.63-1.9c0.79,0.15,0.26-0.18,1.88,2.73c-2.98,12.77-5.39,9.86-10.79,35.07
		c-13.29-2.85-13.32-2.53-13.85-3.42c-17.7-3.32-14.74-0.04-25.38-2.48c-6.68-1.53-15.08-1.91-16.5-2.39
		c-4.87-2.13-19.13,4.56-19.92,4.56c-1.42-2.63-2.05-9.66-0.41-15.15c1.76-1.04,3.63,0.93,5.29-0.21c0-2.93-22.96-5.94-17.22-18.99
		c3-6.81,9.43-15.35,13.25-16.64c0.8-0.27,0.46-0.36,0.13,3.47c0,0.73,0.82,1.08,2.7,2.7c0.91,0.37,2,0.53,3.01,0.31
		c4.6-0.99,5.95,1.51,11.1-2.49c8.06-6.27-3.73-4.81,21.16-7.88c10.92-1.35,12.45-2.17,13.89-1.45c0.78-1.57,6.12-0.67,6.91-3.04
		c0.96,0.97,1.64,1.17,7.41,2.61c-1.87-1.66-3.42-3.79-6.12-3.84c-0.07,0-1.04,0.76-1.36,0.96c-2.65-1.32-31.42,4.44-37.97,4.44
		c-10.14,0,0.28-1.41-31.32,0.47c-3.74,0.22-3.9-0.35-5.43-0.05c-2.24,0.44-0.2,0.9-6.3,1.22c-6.18,0.33-5.98,0.47-7.92,0.47
		c-4.4,0-6.62-2.48-19.99,1.09c-6.69,2.51-41.77,0.83-54.67,0.83c-10.31,0-11.97,2.65-5.81-2.39c-0.77-0.58-0.61-0.59-0.99-0.4
		c-1.63,0.69-3.15,2.08-5.7,1.7c-1.07-0.16-1.93-0.78-2.76,0.05c0.62,1.56,0.62,1.56,4.77,2.07c-3.24,0.97-4.66,2.79-9.23,4.67
		c-12.87,5.29-12.25,4.63-14.05,4.54c-2.49-0.11-7.94,0.19-8.97,0.02c0.33-1.53,3.26-4.3,0.41-4.77c-2.8,6.99-10.34,8.24-15.56,9.44
		c-1.91-0.48-3.31-1.42-3.84-3.32c-1.04-0.52-1.87-0.93-2.8-1.45c-0.27-2.45-0.72-1.28-0.1-4.98c-0.82-2.13-4.97-0.97-0.83-6.95
		c-0.21-1.24-1.46-1.55-1.76-2.18c-0.96-2.01,0.47-3.29-0.76-2.55c-1.99,1.2,0.17,3.96,0.55,4.73c-2.62,6.55-0.87,4.88,0.62,7.37
		c-0.1,1.66,0.31,3.42,0.93,5.5c2.48,0.83,3.83,3.39,6.08,5.05c1.11,1.11,6.66-0.79,8.44-0.98c0.85-0.09-0.19,3.87,0.41,9.72
		c-1.93,2.76-35.45-0.7-37.35-2.39c0-3.42-1.04-6.85-1.45-10.48c1.84-3.21,1.47-1.78,1.04-5.08c-1.39-10.49-0.41-6.92-2.59-9.65
		c0-1.66,0-3.22,0-4.77c8.54-3.91,17.79-5.59,26.55-9.36c0.67-0.29,0.2,1.97,1.26,3.03c0.68,0.68,1.93,1.02,2.59,1.24
		c0.1-0.52,0.31-0.93,0.41-1.45c-0.73-1.14-1.35-2.39-1.45-3.63c-1.24-0.41-2.28-0.83-3.22-1.14c-2.39,0.51-18.71,5.1-27.18,8.82
		c-1.2,0.53-1.91,1.26-2.28,2.31c0.78-7.9,3.05-3.79,38.8-14.87c0.61-3.06-10.49,1.92-28.22,5.5c-1.14,0.23-2.5,0.4-3.53,1.04
		c-5.19,3.24-8.31,1.45-9.44,4.98c-1.34,4.17,0.7,4.5-0.21,9.34c-3,1.33-5.21-3.51-13.38,6.02c-13.68,0.65-15.85-0.01-19.5,1.45
		c-0.94-0.47-1.77-3.25-6.95-4.05c-5.41-0.83-6.34,2.29-9.13,3.22c-4.81,1.28-50.99,0.47-53.12,1.35c-1.64,0.68-1.44,2.88,0.21,3.32
		c1.68,0.45,50.07-0.55,53.12-0.31c1.24,2.18,3.22,3.22,5.6,3.01c3.42-0.3,6.95-0.1,9.75-2.49c6.54,0.31,12.97,0.31,19.5-0.52
		c2.32,6.27,7.38,7.07,14.01,6.12c0.86,6.33,0.57,10.59,3.32,12.24c7.5,3.87,16.62,3.26,31.95,5.91c4.28,0.74,13.5,1.22,17.12-1.14
		c1.48-0.74,0.87,1,7.05-2.9c-0.98-11.23-2.01-11.72-1.14-14.32c1.66-0.31,3.01,0.91,4.46,0.83c5.59-0.32,15.49,4.84,19.61,1.87
		c1.93,0.21,18.09,2.33,22.82,2.28c16.51-0.16,22.45,0.71,29.88-1.97c4.11-1.48,13.38-2.13,19.09-0.83
		c19.98,4.54,29.55-1.97,31.64-1.45c0.47,10.09,2.79,16.83,12.45,21.79c-0.41,5.71,0,11.2,1.24,16.81c2.11,1.76,1.85,0.38,2.7,6.54
		c1.51,10.97,2.2,12.16,1.56,16.5c-2.68,18.03-7.92,19.33-13.28,30.29c-32.83,67.19-10.83,149.5-11.41,158.21
		c-2.14,2.78-4.03,13.22-4.46,16.7c-2.53,20.48-11.45,21.52-8.09,56.54c1.83,19.02,3,9.63,5.08,28.84
		c0.35,3.22,3.36,33.83,6.74,38.8c-2.33,2.19-1.83,3.84-1.04,12.55c-4.3,3.38-4.9,3.27-6.33,8.2c-1.19,4.11-1.21,13.53-5.6,21.06
		c-1.04,1.04-2.5,9.95-2.7,11.41c0,1.75,1.96,2.14,3.73,1.97c10.23-0.96,12.6,1.11,14.63-0.41c4.1-2.64,7.48,0.65,18.36-0.83
		c7.26,0,5.63-2.75,2.7-13.28c-2.04-7.32-0.76-10.68-1.04-15.46c-0.29-5.08,1.97-5.48,1.66-8.3c-0.52-4.81-0.69-8.7-3.94-10.17
		c-1.15-18.32,0.31-5.75-0.21-22.1c-0.08-2.7-0.62-5.5,0.62-8.09c0.1-0.31,0.1-0.73,0.1-1.14c0-14.89,7.96-42.78,7.57-50.21
		c-0.35-6.87-1.16-22.49,1.87-28.32c2.64-5.09,0.12-4.01,1.04-6.95c0.73-1.35,1.45-3.63,3.01-5.19c4.96-4.96,8.8-28.57,6.33-33.3
		c2.77-5.55,2.91-18.76,5.29-25.11c0.67-1.78,5.43-15.09,6.74-23.13c1-6.15,4.98-12.6,5.39-21.99c0.79-17.99,2.31,3.94,15.87,26.97
		c1.32,2.24,6.41,12.72,12.24,21.27c2.44,3.57,5.59,16.34,6.54,20.54c4.08,18.13,16.38,40.15,17.64,49.69
		c1.24,9.41,4.44,2.42,2.39,13.69c-0.95,5.24,0.08,6.45-0.31,12.24c-0.66,9.79-2.33,9.8-0.21,13.38c0.74,1.25,3.59,7.42,3.42,8.51
		c-0.25,1.6,0.28,1.75,2.7,7.99c2.78,7.18,3.76,33.35,3.32,40.56c-0.35,5.76,2.16,8.65,1.45,10.06c-0.94,0.4-3.33-1.86-4.15,6.33
		c-0.72,7.15-2.48,1.08-0.52,11.2c1.67,8.63-1.23,14.63-0.73,23.13c1.97,1.45,3.94,0.31,5.71,0.52c1.45,1.45-0.1,8.21,3.53,8.3
		c2.08,0.05,3.94,0.62,5.91,0.93c3.91,0.39,24.92-2.86,29.77-2.9c1.16-0.01,3.87-0.78,3.84-3.22c-0.14-11.22-4.77-11.11-5.66-16.46
		C456.48,572.81,449.36,564.07,446.46,560.26z M362.22,2.33c-0.31,0.93-0.52,1.24-1.04,1.24C360.76,2.64,361.39,2.85,362.22,2.33z
		 M344.68,10.84c-0.1,0-0.21,0.1-0.31,0.1c0-0.23,0.04-0.31,0.31-0.31C344.68,10.73,344.68,10.84,344.68,10.84z M349.07,7.6
		c-0.27,0.07-0.54,1.03-1.17,0.23c0.41,0,0.73-0.1,1.04-0.21c0.19-0.66,0.84-0.56,1.4-0.68C350.11,7.55,349.6,7.54,349.07,7.6z
		 M355.58,8.87c-0.28-0.14-0.28-0.1,0-0.1C355.58,8.8,355.58,8.85,355.58,8.87z M362.34,6.14c-0.05,0.4-0.48,0.61-0.85,0.76
		c-1.97,0.99-2.32,0.34-8.63-0.7c-0.42-0.07-0.36,0.55-2.27,0.59c0.58-0.67,1.25-0.61,2.09-0.61c0.48,0,0.43-1.14,4.46-1.14
		C362.74,5.37,362.4,5.64,362.34,6.14z M363.71,4.18c-0.01,0.01-0.02,0.01-0.04,0.02c-1.14-0.93-0.31-1.56,0-2.07
		c1.29-1.87,3.02-1.98,5.19-1.35C365.03,3.25,363.95,3.99,363.71,4.18z M372.69,8.97c-0.52-0.1-1.04-0.62-1.45-0.83
		c-0.11-0.95,0.78-1.18,0.93-1.66c-1.04-0.83-1.35,0.62-2.18,0.73c-0.82-0.21-1.63-0.41-2.15-1.2c-0.06-0.06,0.16-0.71,0.19-0.79
		c0.22-0.72,0.52-0.42-1-0.64c-0.45-0.07-0.89-0.22-1-0.27c4.18-7.11,13.29-1.55,13.29,11.72C377.33,14.94,376.15,9.4,372.69,8.97z
		 M365.33,30.24c0,0.27,0.08,0.23-0.31,0.1L365.33,30.24z M362.9,32.47c0.17,0.17,0.28,0.27,0.46,0.36
		C362.84,33.01,362.83,32.74,362.9,32.47z M362.77,27.45c0.51,0.03,1.15-0.27,1.63,0.3C363.64,28.41,363.22,27.86,362.77,27.45z
		 M378.5,43.21c-2.46-3.77,0.32-4.98-4.25-2.49c1.04-2.07,1.04-2.07,3.01-1.24C377.88,40.51,378.61,41.44,378.5,43.21z
		 M164.07,121.74l0.1,0.21C163.7,122.64,162.72,121.29,164.07,121.74z M154.08,130.46c-1.54-1.35-0.81-3.01-1.64-4.05
		c0.1-0.1,0.38-0.52,0.41-0.52c3.11-1.07,12.26-4.02,12.84-0.76C165.7,126.14,161.3,125.67,154.08,130.46z M166.55,127.36
		c0.39-0.16,0.31-0.33,0.31,0.71c-1.56,1.24-3.53,1.14-5.19,1.97c-1.45,0.83-2.7,2.07-4.56,2.07
		C157.11,129.81,164.61,128.18,166.55,127.36z M375.29,56.9c-0.93-1.35-0.93-1.35,0-2.18C375.91,55.45,375.81,56.17,375.29,56.9z
		 M377.05,67.07c-0.11,6.13-1.1,0.39-0.83-1.56c0.52-3.72,0.52-7.65,0.31-11.41c0-2.34-0.17-1.2,1.14-2.07
		C377.67,63.14,377.3,53.75,377.05,67.07z M380.16,74.74c0,1.45,0,3.11-1.35,4.77C378.61,77.59,379.1,76.16,380.16,74.74
		c0.03-0.1,0.25-1.38,0.27-0.59C380.44,74.38,380.25,74.51,380.16,74.74z M331.67,135.51c0.61-0.78-0.37-0.59,5.75-0.59
		c-1.31,3.8-6.23,5.71-8.2,5.71C329.42,138.58,329.53,138.27,331.67,135.51z M325.18,135.02c1.76-0.41,3.32-0.52,5.08,0
		c-1.14,2.28-3.11,3.73-4.46,5.91c-1.76-0.52-2.49-1.45-3.11-2.59C323,136.89,324.45,136.16,325.18,135.02z M322.27,135.02
		c-0.39,0.79-1.07,1.11-1.75,1.4C320.59,135.38,320.98,134.84,322.27,135.02z M72.36,144.15c-0.93-0.41-1.14-1.04-0.62-2.28
		C72.15,142.7,72.77,143.22,72.36,144.15z M77.54,143.84c-1.6-0.99-3.79-1.49-3.22-4.25c2.18-0.41,3.94-0.41,5.5,0.83
		C79.62,141.97,78.27,142.59,77.54,143.84z M106.59,144.98c1.19-0.47,1.17,0.79,1.33,0.95
		C107.26,146.23,106.91,145.45,106.59,144.98z M108.05,146.14c0,0,0.34,0.39,0.45,0.5C109.05,147.21,108.1,146.45,108.05,146.14z
		 M112.4,139.58c3.63-1.56,2.94,2.66,3.73,5.29C110.72,146.39,108.13,142.02,112.4,139.58z M117.07,150.48
		c-3.64-1.46,1.18-1.23,1.6-1.16C118.27,149.84,117.65,150.77,117.07,150.48z M123.4,161.68c-0.8,0.09-1.6-0.12-1.68-0.06
		c-1.43-3.93-0.92-8.26-1.74-12.39c-0.46,0-0.81,0-1.11,0c0.26-0.96,1.21-1.5,1.32-2.8c-1.14-1.97-0.73-4.67-1.66-6.85
		c-3.33-3.33-6.19-1.59-9.23,1.45c-1.76,1.76-1.94-2.24,4.46-4.46c2.28,0.73,4.36,0.83,6.54-0.83c0.2-1.74-0.05-6.3,0.62-0.21
		c2.64,1.58,1.73,0.44,2.8,9.34c-0.31,1.04-1.56,0.93-1.56,2.18c1.83,1.83,0.95,5.89,2.18,10.37
		C124.72,158.85,123.4,158.64,123.4,161.68c2.29,0,5.12,0.52,7.21,1.44C128.05,163.01,125.68,162.85,123.4,161.68z M134.38,163.75
		c-1.67,0.13-5.69-0.6-1.2-0.54C133.56,163.21,138.69,163.42,134.38,163.75z M138.23,164.38c1.45-0.62,2.49-0.31,3.63,0
		C140.83,164.38,139.69,164.38,138.23,164.38z M171.95,163.55c0-0.17,0.96-0.1,1.35,0C172.88,163.55,172.36,163.55,171.95,163.55z
		 M167.18,162.72c1.1,0.66,1.69,0.67,1.5,0.76c-0.72,0.59-4.08,0.29-3.01,1.78c1.78,2.49-3.44,1.53-4.82,1.61
		c-5.09,0.3-11.3-1.06-15.77-2.18c11.11,0,15.95,0.25,20.54-1.66c0.52-2.49,0.52-6.95-0.1-12.14c2.07-1.97,4.67-1.97,7.37-2.49
		c0.62,2.5,0.11,4.12,0.21,6.33c0.21,1.97,0.21,3.94,0.31,5.91C171.54,162.2,168.85,160.65,167.18,162.72z M176,147.99
		c1.35-0.31,2.39-0.21,3.42,0.62C177.78,149.2,177.67,149.01,176,147.99z M289.8,150.37c-14.74,0.94-21.14,0.28-29.05-0.1
		c2.17-1.66,4.37-2.6,5.91-4.88c-5.23,0-0.56,0.94-9.65,3.73c-8.66,3.33-2.07,3.53-29.05,3.53c-9.52,0,4.07,1.29-16.6-0.52
		c-36.33-3.18-26.63-2.48-22.2-4.25c5.78-2.32,6.58-0.25,8.4-2.07c0-0.93-0.83-0.62-1.24-1.04c-0.1-0.4,0.1-0.73,0.41-0.93
		c4.75-3.01,5.5-3.45,6.85-3.63c21.31-2.85,49.37,1.3,65.98-1.24c9.72-1.49,11.64-3.05,15.35-2.07c4.89,1.28,12.66-0.49,17.53-1.97
		c4.28-1.3,4.02-0.19,11.93,0.21c-1.16,2.48-3.57,2.53-9.75,11.41C304.36,146.81,298.19,149.84,289.8,150.37z M308.37,248.2
		c10.3-21.18,11.47-13.31,14.42-37.66c0.49-4.02-0.7-4.25-2.07-15.77c-0.21-1.76-0.62-3.42-2.18-4.36c0.21-0.93,0.73-1.14,1.35-1.35
		c3.13-1.08,14.97-4.37,17.33-3.73c6.38,1.73,10.44-0.16,15.35,1.66c5.89,2.19,12.68,0.37,24.79,2.39c0.2,0.5,0.45,1.05,0.52,1.24
		c3.93,0-3.09-1.67,14.21,3.01c4.68,0.94-3.17,8.45,1.35,28.84c2.59,11.69,8.1,6.58,12.24,28.11c-1.64,4.1-38.66,4.6-43.36,4.88
		c-4.15,0.24-12.09-1.55-26.97-1.45c-5.01,0.03-9.21,0.08-14.73-1.35C309.64,249.82,307.21,251.23,308.37,248.2z M292.28,559.7
		c-0.03,0.36-0.32,0.56-0.71,0.65C291.67,560.01,292.18,559.7,292.28,559.7z M316.46,560.77c-1.04,1.97-1.66,4.25-1.66,6.64
		c0,2.85-2.59,7.7,1.45,19.71c1.21,3.6,1.49,2.22-1.97,5.29c-7.81,1.45-11.41-1.18-18.05,1.24c-1.36,0.5-2.52,0.66-3.84,0
		c6.04-4.74,8.66-8.47,17.95-3.83c3.46-3.04-10.38-8.47-19.09,1.35c-0.63,0.72-0.52,1.56-0.73,2.49c-1.35,0.52-2.8,0.51-4.25,0.73
		c-4.3,0.64-4.08,0.55-4.39,0.13c-0.71-0.95,0.55-7.13,2.52-9.99c3.91-5.66,3.86-10.85,5.6-22.1c0.38-2.45,0.28-1.65,1.56-2.07
		c0,0,0,0,0-0.01c2.07,3.54,7.77,0.41,14.52,0.41c11.03,0-5.23,1.35-11.2,3.22c-2.85,0.89-2.69,1.88-1.19,2.45
		c0.92,0.34,4.02,0.27,3.86,0.6c-0.74,1.09-4.5,1.59-1.1,3.11c0.91,0.41,2.12,0.49,2.04,0.63c-0.17,0.81-2.19,1.42-0.35,2.29
		c1.51,0.72,3.25,0.43,4.83,0.15c1.56-0.28,3.32-0.31,4.05-2.07c-0.61-2.13-0.9-1.78,2.59-3.53c0.21-1.45,1.04-2.49,2.18-3.22
		c0.21-0.21,0.21-0.62,0.41-1.04c-0.41-0.62-0.73-1.24-1.14-1.87c0.41-0.62,1.35-0.83,1.35-1.76c-0.82-1.45-0.97-1.83-1.87-2.07
		c-6.48-1.76-14,1.24-16.7,1.24c-0.2,0.87-0.92,0.66-1.44,0.72c2.3-2.29,0.41-1.34,2.58-2.79c2.19-1.64,1.74,0.24,1.04-7.16
		c1.45-1.24,1.35-3.22,1.87-4.88c3.11-1.35,6.74-2.07,10.27-1.76c1.83,2.86,0.59,7.55,1.26,7.74
		C317.27,552.99,314.04,551.09,316.46,560.77z M311.37,542c0.26,0.7,0.31,3.42,0.31,3.53c0,0.2,0.74,2.42,1.05,3.64
		c-1.3,0.74-1.61,0.24-1.91-5.25C310.71,541.8,310.79,542.19,311.37,542z M341.47,355.79c-1.54,6.93-1.09-0.84-1.87-1.97
		c-0.64-0.19-0.83-1.09-0.83,9.96c-0.37,7.03-0.7,4.11-4.05,24.59c-2.09,12.79-0.8,14.66-1.24,17.74
		c-1.55,7.74-2.31,15.83-6.33,22.93c-0.2,0,0.04,0.12-0.83-1.04c-4,5.12-5.68,21.86-5.6,28.32c0.07,6.3,1.31,2.73-0.41,13.28
		c-3.76,22.91-3.68,21.23-3.53,21.68c1.14,6.62-4.36,14.75-4.36,32.26c0,9.14,0.94,11.37,0.15,12.57c-0.97,1.48-1.26-1.54-1.81-2.41
		c-0.66-0.08-1.04,0.16-1.04,0.83c0,10.15,1.52,2.1-11.52,7.05c-5.04-8.27-7.17-53.27-8.71-55.71c-1.79-2.83-2.13,3.39-3.53-11
		c-1.04-10.78-1.48-24.53,2.39-34.69c6.2-16.3,3.58-13.1,5.62-20.35c1.65-5.86,2.33-2.14,3.7-8.65c1.6-13.89,1.09-6.05-2.8-43.16
		c-0.49-4.72-0.92-1.96-1.24-6.85c-0.85-12.91-1.22-12.76,0-28.63c0-0.41,0.21-0.93,0-1.14c-1.35-1.97-0.45-4.05-0.41-6.12
		c0.02-1.48,0.41-9.72,0.41-9.75c1.44-1.65,2.58-0.94,4.25-0.1c6.97-1.74,13.03-2.38,23.96-0.73c5.86,0.89,18.2,3.14,24.38,6.33
		C353.98,325.04,350.69,322.7,341.47,355.79z M362.11,329.39c-0.52-0.16-0.63-0.61-0.83-1c-7.03-16.3-5.55-19.79-7.78-18.88
		c-0.48,3.84-1.09,9.8-2.9,11.62c-6.8-5.22-29.62-11.9-47.1-9.86c-1.66,0.19-3.22-0.41-4.77,0.1c-1.49,0.5-2.98,0.82-4.29,1.1
		c-2.43,0.51,1.32-23.87,1.91-27.76c0.83-5.46,0.1-6.95,3.32-16.29c0.71-2.07,5.14-14.46,6.95-15.67c1.45,0.41,3.42,0,4.36,1.76
		c5.71,1.14,9.11,3.02,23.24,2.49c10.14-0.38,42.62,3.11,64.42-1.76c6.01-1.34,6.59-2.1,7.14-1.73c1.88,1.45-0.31,1.19,1.06,8.58
		c2.04,10.98,4.34,27.49,10.17,38.28c0.71,1.32,1.52,3.93,0.21,3.94c-8.21,0.08-17.41,4.58-26.14,7.99
		c-25.38,9.89-22.8,11.29-28.53,17.01C362.4,329.46,362.27,329.44,362.11,329.39z M417.82,504.55c-0.66-3.97,1.6-3.51-1.66-10.48
		c-4.27-9.12-6.62-20.83-5.71-31.33c0.28-3.22,0.04-6.42,0.62-9.65c0.1-0.57-1.02-9.41-3.01-14.11c-2.03-4.79-1.99-8.15-4.88-9.86
		c0.62-1.76,0.53-3.22-0.1-4.77c-0.51-1.25-0.73-2.59-1.24-3.84c-0.52-1.24-1.85-2.08-2.07-3.63c-0.32-2.23-3.21-7.21-6.95-16.39
		c-1.8-4.44-1.37-8.86-3.53-14.01c-2.38-5.68-4.14-17.8-5.81-23.03c-1.95,4.54,2.8,8.3,0.25,7.27c-2.01-0.81,3.98,4.38-12.8-24.49
		c-11.25-19.36-13.14-15.59,34.86-36.21c1.52-0.65,9.15-3.61,12.35-3.35c1.23,0.1,1.51,1.39,1.66,2.62
		c0.72,5.94,2.43,5.8,3.63,10.79c4.58,19.07,0.17,6.55,7.88,45.34c1.34,6.74,1.68,17.44,1.45,23.65
		c-0.45,12.14,0.52,15.58,0.52,17.12c-1.07,8.76,3.86,10.8,2.49,23.03c-0.09,0.78-0.51,1.91-0.1,2.59c0.9,0.2,0.91-1.13,1.76-1.04
		c17.42,45.45-7.02,84.78-4.36,108.1c0,0.31-0.1,0.62-0.21,1.24c-17.36,4.22-10.33,5.09-13.07-16.39
		C418.84,516.24,418.76,510.16,417.82,504.55z M459.63,593.05c-1.24,1.24-0.68,0.71-3.49,0.78c-0.11,0-22.93,2.63-24.52,3.06
		c-1.83,0.49-4.36-0.46-7.78-1.14c-1.1-0.99-0.82-1.19-2.07-9.13c-0.1-0.62-0.21-0.62-1.45-1.45c-1.75,0.39,0.64,2.54-3.94,2.07
		c0.1,0-0.43-0.64-0.43-1.14c1.07-9.99,2.15-15.35,0.09-20.96c-0.84-2.28,0.11-9.58,0.83-12.55c1.15-0.53,1.77,0.3,2.9,0.1
		c2.19-1.86,0.9-5.12,1.34-7.58c2.47-1.73,2.81,0.03,13.38-2.28c3.91-1.12,1.36,0.83,2.18,11.52c-5.94,0.81-10.31-0.35-15.03,2.8
		c16.21,3.81,17.09-1.31,17.42,1.23c0.05,0.4-0.07,0.53-0.31,0.53c-2.8,0.33-14.38,1.23-15.15,3.53c2.93,2.2,17.74,0.45,18.11-0.47
		c0.94-2.31-0.55-4.8,10.09,11.16c1.12,1.68,2.18,3.61,2.51,5.59c0.69,4.11,3.17,2.79,4.77,11.1
		C459.27,590.76,459.93,592.03,459.63,593.05z"/> <path d="M371.86,12.5c-0.01-0.04-0.03-0.07-0.05-0.11C371.71,12.38,371.76,12.39,371.86,12.5z"/> <path d="M362.01,22.77l-0.1,0.1C362.11,22.95,362.04,22.9,362.01,22.77z"/> <path d="M334.62,15.3l0.1,0.1C334.76,15.2,334.74,15.27,334.62,15.3z"/> <path d="M154.31,118.21c2.28,0.41,4.15-0.52,6.02-0.62c0.52,0.21,0.83,1.04,1.56,0.83c0.93-0.73,0.21-1.97,1.04-2.7
		c2.59-1.04,5.6-0.41,8.09-1.97c-0.95-3.15-8.71,2.01-8.71-0.93c0.11-0.02,7.95-1.97,9.03-1.66c1.04,2.28-0.52,4.77,1.45,6.54
		c1.47-0.98,1.29-1.77,1.14-3.73c-0.47-6.34-1.07-5.42-2.07-5.08c-3.83,1.26-7.57,2.59-11.72,1.76c-1.35,1.76-0.31,3.63-0.41,5.29
		C158.15,117.18,155.97,116.45,154.31,118.21z"/> <path d="M689.42,21.84c0,0.17-0.06,0.05,0.1,0.1L689.42,21.84z"/> <path d="M675.42,18.2l-0.1,0.1C675.41,18.31,675.36,18.29,675.42,18.2z"/> <path d="M370.51,12.08C370.52,12.08,370.52,12.08,370.51,12.08c0.01,0,0.01,0,0.01,0C370.53,12.08,370.53,12.09,370.51,12.08z"/> <path d="M370.52,12.09C370.3,12.09,370.77,12.35,370.52,12.09L370.52,12.09z"/> <path d="M354.85,15.09c0.12-0.84,0.8-1.23,1.55-1.23c1.14,0.73,2.39,1.35,3.73,2.18c-1.32,1.23-2.14-0.12-3.61-0.12
		c0.18,0.71,0.1,1.49,0.6,2.1c2.17,0.48,4.61-0.24,5.14-0.48c1.72,1.57,7.27-0.44,9.28-1.6c-14.38,2.47-8.63,1.53-4.36-0.62
		c4.28-2.15,3.9-1.54,3.36-3.09c-1.2,0.34-1.84,1.64-3.78,1.54c-0.61-0.22-1.75-0.84-3.21-0.84c-0.15-0.44-0.38-1.05-0.5-1.48
		c-0.93-0.47-2.36-0.55-3.86,0.24C356.47,13.1,351.92,13.63,354.85,15.09z M365.22,14.57c-1.35,0.62-2.49,1.66-4.36,1.04
		C362.22,14.37,363.67,14.26,365.22,14.57z"/> <path d="M695.54,45.8l0.1-0.1C695.52,45.82,695.54,45.8,695.54,45.8z"/> <path d="M699.59,49.22c1.66,0.41,2.8-0.1,3.94-0.93c0-3.34,0.77,0.06,1.87-1.04c-0.1-1.14-0.31-2.39-0.41-3.63
		c-1.04-0.21-1.97-0.41-2.8-0.62c0,0.65-0.77-0.24,1.76,1.45c-2.38-0.1-4.66,0.21-6.94,0.41c0.01-0.01,0.03-0.03,0.1-0.1
		c-0.02,0.01-0.04,0.01-0.06,0.02c-0.01,0.04-0.03,0.07-0.04,0.08c0,0,0,0-0.01,0c-0.38,0.2-0.87,0.49-1.36,0.86
		c-0.43,1.44,1.48,0.63,2.5,0.49C698.94,46.75,697.78,46.81,699.59,49.22z"/> <path d="M345.93,43.31c1.56-0.62,1.35-2.07,1.76-3.11c0.93-0.1,1.76,0.83,2.59,0.21c0.1-0.21,0.13-0.66,0.07-0.78
		c-0.1,0.1,0.21,0.12-1.43-0.68c-0.02-0.07-0.22-0.21-0.01,0c-0.21-0.09-0.26-0.16-0.09,0.01c-4.19-0.57-6.05-0.53-6.69-0.46
		c0.41-0.13,1.21-0.51,1.71-1.51c-1.04,0.31-1.97,0.52-2.9,0.73c-0.31,1.35-0.41,2.59-0.41,3.73c0.93,0.31,1.04-0.93,1.87-0.52
		c0,0.41,0,0.83,0,1.35C343.54,43.1,344.68,43.73,345.93,43.31z"/> <path d="M344.27,63.13c-0.82-1.23-0.68-1.04-2.9-0.73c-4.72,1.05-0.87-1.84-11.1,0.52c-2.68,0.89-0.8,2.06-0.41,1.87
		C334.14,63.02,341.36,65.83,344.27,63.13z"/> <path d="M716.29,70.8c0.31,0.1,0.72-0.31,0.62-0.73c-0.12-0.52-0.62-0.62-1.04-0.93c-0.93-0.83-2.17-0.22-3.22-0.73
		c-3.64-1.76-4.75,1.19-8.61,0c-0.52-0.21-1.14-0.21-1.76-0.31c-0.21,0.31-0.41,0.62-0.62,0.93
		C706.89,71.92,709.17,69.02,716.29,70.8z"/> <path d="M331.3,36.36c1.89,3.78,2.4,3.48-1.24,12.03c-1.28,3-2.22,5.14-0.31,7.78c5.43,0.78,0.44-1.69-0.31-2.9
		c-0.18-2.63,6.87-11.87,3.11-16.81C332.23,36.05,331.82,35.74,331.3,36.36z"/> <path d="M373.52,18.83c-0.05,0.07-0.13,0.06,0.1,0.1L373.52,18.83z"/> <path d="M687.14,26.92c-0.62-0.83-1.35-1.35-2.39-1.35c-0.97-0.07-7.46-1.54-12.35-0.73c1.36,1.36,6.56-0.51,8.29,1.96
		c-2.28,0.1-4.46,0.21-6.85,0.31c7.03,1.58,9.28-1.01,10.4,0.51C684.92,27.22,686.18,28,687.14,26.92z"/> <path d="M714.11,41.86c-3.88,2.09-0.81,10.17,1.45,13.9c2.94,4.85-1.23,4.21-1.87,6.43c2.98,1.19,4.43-2.34,3.01-5.71
		c-2.11-5-3.37-7.4-3.63-10.79C714.91,41.66,714.57,42.32,714.11,41.86z"/> <path d="M336.49,34.39c0.33,2.34,5.6-2.39,13.38-1.14c1.04,0.52,1.66,1.66,3.01,1.45c-0.57-2.84-6-3.87-9.03-2.9
		C337.67,33.34,336.49,33.41,336.49,34.39z"/> <path d="M707.27,39.16c-5.21-1.16-6.75-2.45-12.24-0.62c-0.73,0.73-1.56,1.24-1.87,2.28c1.45,0.31,2.07-1.36,3.22-1.56
		c7.47-1.25,12.17,3.61,13.18,0.93C708.82,39.26,707.89,39.16,707.27,39.16z"/> <path d="M330.68,67.28c0,0.52,0,0.73,0.1,0.83c2.39,1.66,4.97,1.74,7.57,0.41c0.41-0.21,0.73-0.52,0.41-1.35
		C336.18,67.07,333.48,67.69,330.68,67.28z"/> <path d="M713.08,73.29c-13.77-1.84-0.98,5.12,2.28,0.41C714.63,72.98,713.9,73.4,713.08,73.29z"/> <path d="M351.84,77.65c1.77-0.29,3.22-1.04,4.36-2.39c-2.28,0.41-7.05,2.07-8.82,3.22C349.14,78.69,350.49,77.87,351.84,77.65z"/> <path d="M697.51,84.5c0.41,0.1,0.73,0,0.73-0.52c-7.46-2.98-6.89-2.45-8.61-2.7C691.7,83.77,694.82,83.67,697.51,84.5z"/> <path d="M864.85,95.39c0.56-0.76,0.89-2.51-0.21-2.7c-0.93,0.1-0.83,1.14-1.35,1.56c-0.62,0.62-1.35,1.04-2.18,1.76
		C863.09,96.63,864.01,96.52,864.85,95.39z"/> <path d="M337.63,56.38c0.83,0.11,1.56-0.41,1.97-1.56c-0.62,0.1-1.14,0.41-1.66,0.52c-1.17-0.17-3.19-1.58-4.56-0.21
		C334.41,56.69,336.17,56.19,337.63,56.38z"/> <path d="M709.34,60.74c-1.16,0.81-2.07-0.1-3.11,0.1c1.24,1.35,1.45,1.56,1.97,1.45c1.45-0.3,3.22,0.31,4.36-1.45
		C711.42,60.12,710.26,60.1,709.34,60.74z"/> <path d="M770.45,132.94c1.87,0.31,3.11-1.14,4.77-2.28c-2.07-0.62-3.32,0.31-4.67,1.14C770.24,131.91,770.13,132.32,770.45,132.94z
		"/> <path d="M873.05,95.39c0.31,0.1,0.62-0.21,1.04-0.41c-4.56-0.21-4.56-0.21-7.88,0.93C868.8,96.32,870.87,95.18,873.05,95.39z"/> <path d="M776.67,129.83c1.14-0.1,1.97-0.73,2.28-2.07C776.71,126.53,775.13,128.73,776.67,129.83z"/> <path d="M680.4,84.91c0.21-4.05,0.21-4.05-0.83-5.29C679.19,80.38,679.5,80.71,680.4,84.91z"/> <path d="M366.36,73.08c-1.35,1.97-1.14,3.63-0.83,5.29C365.95,76.82,366.68,75.26,366.36,73.08z"/> <path d="M865.79,85.43c-0.31-0.1-0.52-0.31-0.93-0.62c-1.35,0.93-0.73,1.87-0.1,2.8C865.68,87.19,865.89,86.36,865.79,85.43z"/> <path d="M698.14,44.14c2.42-0.53-0.24-1.77-3.22,0.52c0.05,0.1,0.63,1.08,0.63,0.88c0.22-0.62,0.84-0.48,1.49-0.76
		C697.27,44.35,697.65,44.25,698.14,44.14z"/> <path d="M708.1,17.27c-0.4-0.9-1.19-1.31-2.09-1.43c-0.13,1.15,0.66,1.66,1.46,2.16C707.86,17.61,708.45,16.92,708.1,17.27z"/> <path d="M705.92,15.82c0.15,0,0.06,0.06,0.1-0.1C706,15.74,705.93,15.8,705.92,15.82z"/> <path d="M857.07,101.82c-0.83,0-1.56,0.1-1.97,1.04C856.45,102.65,856.45,102.65,857.07,101.82z"/> <path d="M861.74,87.51c-1.24-0.41-1.87-0.1-2.18,0.83C860.5,88.75,861.22,88.65,861.74,87.51z"/> <path d="M850.85,96.63c1.04,0.62,1.45,0,1.97-0.73C851.78,95.6,851.26,96.01,850.85,96.63z"/> <path d="M861.33,101.93c0.73-0.21,1.56-0.1,1.97-0.83C861.95,100.68,861.95,100.68,861.33,101.93z"/> <path d="M691.08,17.89c-0.52-0.41-1.04-0.41-1.87-0.1C690.04,17.79,690.46,17.89,691.08,17.89z"/> <path d="M354.95,11.67c0.41,0.41,0.83,0.21,1.35,0.1C355.89,11.46,355.47,11.67,354.95,11.67z"/> <path d="M329.54,38.43c-0.33,0.16,0.35,0.48,0.62,0.21C330.48,38.48,329.81,38.16,329.54,38.43z"/> <path d="M858.11,95.8c0.52,0.52,1.04,0.52,1.56,0C859.15,95.29,858.63,95.39,858.11,95.8z"/> <path d="M855.72,96.01c-0.31,0-0.52,0.31-0.83,0.52C855.76,97.18,856.25,96.01,855.72,96.01z"/> <path d="M715.57,44.45c0.31,0.31,0.62,0.21,0.93,0.1C716.19,44.14,715.88,44.24,715.57,44.45z"/> <path d="M363.36,88.13c0.1-1.04,0.21-1.35,0.21-1.66C363.17,86.47,363.2,86.4,363.36,88.13z"/> <path d="M685.9,32.21c0.73,0,1.35-0.1,1.14-1.24C686.41,31.28,685.79,31.38,685.9,32.21z"/> <path d="M358.38,25.05c0.62,0.83,0.93,1.24,1.66,1.14C360.04,25.36,359.52,25.26,358.38,25.05z"/> <path d="M688.07,80.55c0.33,0.41,0.79,0.56,1.21,0.6C688.92,80.96,688.5,80.73,688.07,80.55z"/> <path d="M689.53,81.28l0.1-0.1C689.34,81.18,689.09,81.09,689.53,81.28z"/> <path d="M712.66,21.11c0,0.21-0.1,0.52,0.31,0.73C713.28,21.42,712.87,21.32,712.66,21.11z"/> <path d="M326.73,38.64c-0.52-0.31-0.73,0.1-0.93,0.21C326.01,38.75,326.32,38.75,326.73,38.64z"/> <path d="M334.31,59.18c0-0.1,0.1-0.1,0.1-0.21c0,0-0.1-0.1-0.1-0.21c0,0.1-0.1,0.21-0.1,0.21S334.31,59.08,334.31,59.18z"/> <path d="M711.52,65.2c0,0,0.1-0.1,0.21-0.1C711.73,64.79,711.28,64.73,711.52,65.2z"/> <path d="M719.09,44.66c0.41,0,0.73,0.1,1.04,0.1C719.82,44.66,719.61,44.35,719.09,44.66z"/> <path d="M354.88,15.18c0,0.16,0.19,0.87,1.38,0.66C356.54,15.79,356.16,15.01,354.88,15.18z"/> <path d="M356.3,75.37c0.43-0.17,0.84-0.22,1.15-0.57C357.1,74.98,356.71,75.2,356.3,75.37z"/> <path d="M699.49,43.21c-0.3,0.1-0.32,0.08-0.35,0.19C699.32,43.43,699.26,43.43,699.49,43.21z"/> <path d="M340.01,9.91c0.1-0.1,0.1-0.21,0.21-0.31C340.01,9.7,340.01,9.8,340.01,9.91z"/> <path d="M346.76,37.4l-0.31-0.1C346.7,37.55,346.62,37.53,346.76,37.4z"/> <path d="M685.17,77.44h-0.21C685.09,77.57,685.04,77.57,685.17,77.44z"/> <path d="M685.9,78.27c-0.22-0.15-0.39-0.29-0.59-0.45C685.43,78.03,685.62,78.2,685.9,78.27z"/> <path d="M685.17,77.55l-0.1,0.1C685.45,77.9,685.29,77.89,685.17,77.55z"/> <path d="M686.62,79c-0.09-0.28-0.35-0.47-0.71-0.58C685.97,78.75,686.16,79,686.62,79z"/> <path d="M685.79,78.38c0.04,0.01,0.08,0.03,0.12,0.04C685.88,78.24,685.93,78.24,685.79,78.38z"/> <path d="M720.12,44.99c0-0.06-0.02-0.12-0.09-0.12C720.06,44.9,720.09,44.95,720.12,44.99z"/> <path d="M720.34,45.28c-0.25-0.25-0.21-0.39-0.21-0.21C720.13,45.18,720.23,45.18,720.34,45.28z"/> <path d="M358.48,73.81c-0.13,0.21-0.29,0.39-0.46,0.57C358.25,74.26,358.41,74.08,358.48,73.81z"/> <path d="M357.65,74.54l0.01,0.01c-0.02-0.01-0.02,0.06-0.21,0.24c0.1-0.05,0.21-0.11,0.3-0.16
		C358.37,74.21,357.76,74.51,357.65,74.54z"/> <path d="M358.58,73.91c0.37-0.09,0.57-0.28,0.61-0.71C358.86,73.27,358.68,73.54,358.58,73.91z"/> <path d="M359.2,73.21c0.14-0.04,0.15,0.01,0.01-0.12C359.21,73.14,359.2,73.17,359.2,73.21z"/> <path d="M359.91,72.5c0.17-0.04,0.13-0.03,0.02-0.15C359.93,72.42,359.92,72.45,359.91,72.5z"/> <path d="M359.31,73.19c0.37-0.09,0.56-0.28,0.6-0.68C359.59,72.62,359.4,72.82,359.31,73.19z"/> <path d="M325.61,38.95c0.05-0.04,0.08-0.09,0.08-0.21C325.66,38.83,325.64,38.89,325.61,38.95z"/> <path d="M325.49,39.26c0.1-0.19,0.2-0.45,0-0.21C325.49,39.06,325.49,39.16,325.49,39.26z"/> <path d="M360.61,71.89c0.05-0.05,0.11-0.11,0.16-0.16C360.59,71.56,360.71,71.61,360.61,71.89z"/> <path d="M360.61,71.89c-0.19,0.19-0.4,0.4-0.57,0.57C360.28,72.31,360.51,72.14,360.61,71.89z"/> <path d="M360.87,71.53c-0.26,0.13-0.25,0.1-0.1,0.1L360.87,71.53z"/> <path d="M687.35,79.93l0.01-0.01c0.33,0.26-0.03,0.03,0.09-0.09c-0.22,0-0.05-0.52-0.83-0.73
		C686.62,79.69,687.35,79.78,687.35,79.93z"/> <path d="M688.18,80.45c-0.23-0.07-0.45-0.22-0.67-0.4C687.66,80.25,687.89,80.38,688.18,80.45z"/> <path d="M337.42,15.61c0.1-0.21,0.21-0.31,0.31-0.52C337.52,15.2,337.01,14.99,337.42,15.61z"/> <path d="M712.55,20.92c0,0.03,0.01,0.05,0.01,0.08C712.67,20.89,712.71,20.88,712.55,20.92z"/> <path d="M711.83,20.28c0.09,0.48,0.29,0.76,0.72,0.64C712.52,20.55,712.31,20.28,711.83,20.28z"/> <path d="M707.58,18.1c-0.03-0.03-0.07-0.07-0.1-0.1C707.34,18.13,707.31,18.1,707.58,18.1z"/> <path d="M674.69,17.58c0.33-0.33-0.15,0.49,0.72,0.41C675.82,18,674.86,16.91,674.69,17.58z"/> <path d="M333.17,14.99l0.1,0.1C333.32,14.91,333.33,15.02,333.17,14.99z"/> <path d="M672.41,25.05l0.1-0.1C672.32,24.99,672.36,24.9,672.41,25.05z"/> <path d="M677.7,17.58l0.1-0.1C677.64,17.54,677.61,17.45,677.7,17.58z"/> <path d="M174.44,131.49l0.1,0.1C174.54,131.35,174.59,131.42,174.44,131.49z"/> <path d="M380.79,187.93l-0.1-0.1C380.69,187.86,380.74,187.93,380.79,187.93z"/> <path d="M374.09,19.86c-0.2,0-0.18-0.03-0.05,0.1C374.05,19.93,374.07,19.9,374.09,19.86z"/> <path d="M358.9,21.11c0.71,0.9,2.2,0.12,2.7,0.62c0.87-1.74,1.88,1.05,10.27-0.52c-2.28-0.1-4.46-0.31-6.74-0.41
		c1.61-2.31,6.82-0.38,8.31-1.87c0.8-0.8-9.03,0.19-12.67,0.73C359.94,19.78,359.1,20.07,358.9,21.11z"/> <path d="M363.56,12.39l0.1,0.1C363.71,12.37,363.8,12.44,363.56,12.39z"/> <path d="M368.75,12.39l0.1,0.1C368.97,12.39,368.87,12.44,368.75,12.39z"/> <path d="M363.15,11.46l-0.1-0.1C363.09,11.44,363.03,11.42,363.15,11.46z"/> <path d="M376.58,31.7C378.07,31.13,378.63,30.77,376.58,31.7L376.58,31.7z"/> <path d="M375.7,32.11c0.34-0.16,0.63-0.29,0.88-0.41c-1.39,0.53-3.6,1.24-5.28,1.26C369.42,32.97,373.16,33.53,375.7,32.11z"/> <path d="M378.81,30.45c-0.07,0.1-0.08,0.12,0.02,0.02C378.83,30.47,378.82,30.46,378.81,30.45z"/> <path d="M689.53,21.73c0.05,0.05,0.03,0.03,0.1,0.1C689.66,21.76,689.71,21.73,689.53,21.73z"/> <path d="M356.53,15.89c-0.01-0.02-0.01-0.05-0.02-0.07c-0.11,0.11-0.15,0.13,0.02,0.08V15.89z"/> <path d="M354.75,15.2c0.04-0.01,0.09-0.01,0.13-0.02C354.84,15.07,354.87,15.07,354.75,15.2z"/> <path d="M350.7,38.54c-3.1-2.07-5.37-0.8-2.9-0.31c0.48,0.09,0.87,0.21,1.09,0.63c0.5,0.18,1.16,0.03,1.47,0.77
		C350.52,39.63,351.04,39.11,350.7,38.54z"/> <path d="M684.96,163.34c0.21,1.14,0.93,1.45,1.45,1.66c6.14,2.05,11.64,3.55,18.87,1.13c4.8-1.6,12.13-6.54,10.07-8.6
		C706.34,165.07,696.11,166.41,684.96,163.34z"/> <path d="M710.08,195.79c-1.09,2.2-0.16,4.23-2.92,15.17c-0.29,1.15-1.14,2.18-0.31,3.94C710.55,207.52,710.65,194.64,710.08,195.79
		z"/> <path d="M704.15,228.49c-0.11,0.83-0.52,1.66,0,2.59c0.48-0.68,0.76-1.44,0.94-2.21c1.98-8.09,0.35-5.54,5.59-8.16
		c-2.28-1.24-2.49-1.24-6.54,1.04C702.26,226.16,704.54,225.62,704.15,228.49z"/> <path d="M676.61,201.96c0.07,0.11,5.75-8.28,6.17-9.57C680.28,194.3,675.06,199.52,676.61,201.96z"/> <path d="M686.79,187.87c0.69,0.55,0.44,0.17,0.98,0.17c0.52-0.62-0.21-1.14-0.21-1.66c0.57-2.79,0.69-1.64-0.52-0.83
		c-3.21-0.22-4.72-3.16-6.64-4.25C679.57,182.95,682.63,184.52,686.79,187.87z"/> <path d="M675.83,158.88c0.83,1.87,1.64,2.52,3.84,3.53c1.62,0.74,1.78,0.73,3.73,0.21c-2.39-1.35-4.46-3.11-6.95-4.05
		C676.25,158.47,676.04,158.78,675.83,158.88z"/> <path d="M675.31,249.65c-0.88-1.76-4-6.46-5.92-6.02C674.71,251.41,674.02,250.53,675.31,249.65z"/> <path d="M724.34,240.79c0.83-1.43,1.46-2.3,0.35-3.27c-0.83,2.09-3.06,4.06-3.82,6.59C720.82,244.22,722.68,243.65,724.34,240.79z"/> <path d="M727.29,214.18c-0.41,2.28-0.73,4.05-0.31,5.91C728.53,218.03,728.63,217.05,727.29,214.18z"/> <path d="M726.39,185.17c1.15-1.39-1.15-4.1-2.62-4.92C724.05,182.99,726.09,185.47,726.39,185.17z"/> <path d="M663.9,228.49c-0.52,3.11-0.52,3.11,0.73,4.36C665.24,230.68,665.26,230.67,663.9,228.49z"/> <path d="M710.17,185.75c-1.14,0.83-1.14,2.07-0.93,4.05C709.65,188.03,709.86,186.89,710.17,185.75z"/> <path d="M673.03,190.32c0.09,0.09,0.68-0.16,0.73-0.21c-0.51-0.71-0.52-1.87-1.76-1.87C671.88,189.62,671.84,189.63,673.03,190.32z
		"/> <path d="M691.08,180.87c-0.95,0.71-2.18,1.57-2.18,3.11C690.87,182.85,690.87,182.85,691.08,180.87z"/> <path d="M668.57,242.39c0.18,0.36,0.65,0.85,0.93,1.14C669.4,243.12,669.5,242.5,668.57,242.39z"/> <path d="M725.32,230.05c0.67-0.53,0.61-1.15,0.31-1.45C725.21,229.01,725.42,229.53,725.32,230.05z"/> <path d="M710.17,180.25c-0.28,0-0.21-0.14-0.21,0.73C710.24,180.98,710.17,181.12,710.17,180.25z"/> <path d="M676.25,192.08c0.21,0,0.31-0.21,0.52-0.31c-0.15-0.15-0.19-0.28-0.27-0.38C675.9,190.63,675.13,192.08,676.25,192.08z"/> <path d="M720.75,244.16c-0.46,0.3-0.73,0.51-0.1,1.14C720.65,244.85,720.75,244.38,720.75,244.16z"/> <path d="M723.87,180.15c-0.2,0-0.15-0.09-0.1,0.1L723.87,180.15z"/> <path d="M723.72,180.13c-0.12-0.23-0.17-0.5-0.53-0.57C722.86,179.49,723.31,180.06,723.72,180.13z"/> <path d="M722.28,178.83c-0.06,0.06-0.13,0.07,0.15,0.07C722.28,178.8,722.33,178.78,722.28,178.83z"/> <path d="M722.42,178.9c0.03,0.02,0.5,0.49,0.72,0.63C722.97,179.19,722.8,178.92,722.42,178.9z"/> <path d="M670.54,196.85c0,0.07,0,0.13,0,0.21C670.81,196.92,670.8,196.98,670.54,196.85z"/> <path d="M665.77,236.07c0.2,1.15-0.31,2.6,1.04,3.53C667.02,237.97,666.99,238.01,665.77,236.07l0.1-0.1
		C665.6,235.83,665.63,235.79,665.77,236.07L665.77,236.07z"/> <path d="M688.8,183.78c-0.05,0.32-0.31,0.51,0.1,0.1C688.83,183.81,688.87,183.85,688.8,183.78z"/> <path d="M688.56,184.3c0.23-0.3,0.09-0.12-0.18,0.15C687.72,185.1,688.48,184.4,688.56,184.3z"/> <path d="M768.48,430.69c0.28,1.92,1.33,3.6,1.32,5.6c-0.01,0.74-0.15,0.99-0.16,1.87c-0.01,0.95,0.08,1.95,0.08,3.01
		c2.28-1.46,2.65-6.32,1.96-8.38c-0.49-1.47-1.2-1.65-1.44-4.79c-0.32-2.25,0.1-1.97-1.97-3.22c-0.62-0.31-0.73-1.35-1.66-1.04
		c-0.18,0.18-0.37,0.3,0,1.04C768.16,426.54,768.17,428.61,768.48,430.69z"/> <path d="M759.66,457.97c-1.45,2.39-1.46,2.39-1.14,5.39c0.3,2.8,0.31,2.8,1.66,4.05C759.76,464.37,760.6,461.61,759.66,457.97z"/> <path d="M719.82,358.59c0.16,0,0.64,0,0.83,0c0.73-3.11,0.52-4.15-1.14-5.91C719.51,354.8,719.11,356.73,719.82,358.59z"/> <path d="M759.76,475.19c1.46-3.22,1.44-3.34,0.1-5.39C759.03,473.95,759.03,473.95,759.76,475.19z"/> <path d="M754.99,439.61c0.21-1.87,0.1-3.63-1.45-5.39C752.39,436.81,752.81,438.16,754.99,439.61z"/> <path d="M759.76,536.92c1.35-2.07,1.35-2.8,0-5.5C758.93,535.37,758.93,535.37,759.76,536.92z"/> <path d="M768.68,443.97c-0.93,0.93-0.93,0.95-0.93,2.59C768.68,445.32,768.68,445.32,768.68,443.97z"/> <path d="M759.35,479.66c-1.3,1.63-1.19,1.8,0,2.49C759.66,481.32,759.75,480.45,759.35,479.66z"/> <path d="M757.58,490.54c0.83-0.4,0.93-1.03,0.83-1.75C757.49,487.46,756.65,489.48,757.58,490.54z"/> <path d="M719.8,346.83c-0.05-0.33-0.3-0.7-0.91-1.11C718.31,348.6,719.95,347.88,719.8,346.83z"/> <path d="M757.37,428.01c2.91-2.1,4.22-5.02,5.09-8.54c0.13-0.52-0.24-1.04-1.14-1.04c0,0.33-4.15,7.61-4.15,9.44
		c0.48,0.71-0.4-1.21-1.88,2.49C756.64,429.56,757.36,429.04,757.37,428.01z"/> <path d="M760.63,524.74c0.06,0.51,0.85,0.82,0.92-0.12c0.04-0.56-0.22-1.08-0.55-1.39C761.01,523.51,760.56,524.14,760.63,524.74z"/> <path d="M718.26,338.25c0-0.11,0.1-0.2,0.1-0.31c0,0-0.1-0.1-0.1-0.21C718.06,337.94,717.93,337.92,718.26,338.25z"/> <path d="M767.33,447.39c0.1-0.31,0.21-0.62,0.31-0.93C767.45,446.74,767.13,446.9,767.33,447.39z"/> <path d="M651.76,401.02c-1.19-2.97-0.77-3.89-2.07-4.15c-2.76,0.79,0.28,8.27,4.44,11.18c0.35,0.35-2.57,4.78,0.75,12.16
		C659.5,405.55,656.47,412.78,651.76,401.02z"/> <path d="M650.17,429.11c-0.26,0.91,4.95-3.64,3.47-7.03C651.82,424.19,650.89,426.6,650.17,429.11z"/> <path d="M639.21,409.11c-1.76,3.01-1.76,3.73-0.31,6.95C638.56,413.55,640.15,411.68,639.21,409.11z"/> <path d="M627.07,470.84c1.04-2.9,1.04-4.56,0.41-8.51C626.97,465.55,626.24,468.14,627.07,470.84z"/> <path d="M648.34,462.33c0.94-1.57,1.8-3.03,1.56-4.98C647.91,460.12,647.95,460.49,648.34,462.33z"/> <path d="M645.95,515.86c-0.21,1.12,0.33,2.29,0.83,3.22C646.78,517,646.78,517,645.95,515.86z"/> <path d="M676.56,325.39c0.31-1.04,0.62-2.07-0.1-3.22C675.94,323.21,675.83,324.25,676.56,325.39z"/> <path d="M676.45,335.97c0.62-0.62,0.41-1.24,0.1-2.07C675.94,334.73,675.94,335.35,676.45,335.97z"/> <path d="M629.67,443.75c0.39-0.47,0.32-1.09,0.1-1.66C629.32,442.58,629.34,443.2,629.67,443.75z"/> <path d="M646.89,479.55c0.21-0.83,0.52-1.45-0.21-2.39C646.27,478.1,646.16,478.83,646.89,479.55z"/> <path d="M628.71,451.39c0.67,0.93,0.98-0.73,0.23-1.61C628.7,450.42,628.39,450.95,628.71,451.39z"/> <path d="M646.58,524.99c0,0.06,0.17,0.77,0.21,1.04c0.34-0.86,0.43-0.9,0.1-1.56C646.78,524.68,646.58,524.78,646.58,524.99z"/> <path d="M646.89,471.15c0.32-0.55,0.39-0.94-0.1-1.35C646.58,470.32,646.06,470.73,646.89,471.15z"/> <path d="M649.91,429.59c0,0.07,0.02,0.07,0.03,0.04C649.92,429.6,649.91,429.56,649.91,429.59z"/> <path d="M650.01,429.23c0,0.22-0.04,0.36-0.07,0.4C649.97,429.68,650.01,429.68,650.01,429.23z"/> <path d="M657.37,432.35c-0.07,0-0.13,0-0.21,0C657.16,432.76,657.1,432.74,657.37,432.35z"/> <path d="M656.43,434.84c0.1,0,0.1-0.1,0.21-0.1c-0.1-0.1-0.1-0.21-0.1-0.31C656.54,434.53,656.43,434.73,656.43,434.84z"/> <path d="M651.65,447.25c0.2,0,0.85-0.43,0.63-1.51C651.56,446.09,651.65,446.83,651.65,447.25z"/> <path d="M651.56,447.29l0.04,0.04c-0.95,0-1.11,2.98-1.19,3.48c1.1-2.37,1.23-2.07,1.23-3.58
		C651.54,447.26,651.57,447.29,651.56,447.29z"/> <path d="M676.04,343.34c0,0.39,0.41,0.1,0.52,0.1C676.35,343.23,676.25,343.23,676.04,343.34z"/> <path d="M652.39,445.84C652.59,445.63,652.39,445.73,652.39,445.84L652.39,445.84z"/> <path d="M681.64,279.12c-5.78-3.51-12.5-4.46-19.09-6.12C683.55,280.7,681.17,279.83,681.64,279.12z"/> <path d="M666.6,268.75c1.18,1.18,11.51,2.95,17.64,5.08C686.72,273.83,682.15,270.19,666.6,268.75z"/> <path d="M693.16,297.27c0.21-4.19,1.26-7.71,0.52-12.14C692.33,294.27,692.22,294.68,693.16,297.27z"/> <path d="M738.8,265.94c-19.53,4.56-4.47,2.75,1.04,0.21C739.32,265.99,739.08,265.85,738.8,265.94z"/> <path d="M689.63,277.67c-1.87-1.97-4.46-2.07-6.85-2.7C684.96,276.11,687.04,277.46,689.63,277.67z"/> <path d="M709.13,271.55c8.1,0,6.37-0.31,0-0.31C709.13,271.34,709.13,271.44,709.13,271.55z"/> <path d="M699.9,275.38c-1.35,0.1-2.7,0.21-4.05,1.56C697.47,276.54,698.99,276.6,699.9,275.38z"/> <path d="M720.13,270.41c-1.24,0-2.07,0.1-3.73,0.21C718.16,270.82,718.99,271.13,720.13,270.41z"/> <path d="M725.55,269.46c0.68-0.04,2.77,0.03,3.51-0.71C727.81,268.95,726.62,268.36,725.55,269.46z"/> <path d="M725.42,269.58c0.04-0.05,0.08-0.08,0.12-0.12C725.24,269.46,725.3,269.45,725.42,269.58z"/> <path d="M725.32,269.47c-0.93,0.21-1.97,0.21-3.01,0.21C723.35,269.99,724.38,270.3,725.32,269.47z"/> <path d="M681.43,287.32l-0.05,0.05c0.32-0.32-1.1-2.1-3.5-2.89c-0.6-0.2,1.12,2.17,3.45,2.95c0.2,0.93,0.92,1.35,2.27,1.97
		C682.58,287.15,681.9,287.55,681.43,287.32z"/> <path d="M693.79,260.84c0-1.61-0.92-1.23-0.12,0.95C693.72,261.4,693.76,261.1,693.79,260.84z"/> <path d="M689.63,277.67c0.21,0.93,0.83,1.24,1.97,1.14C691.08,277.98,690.56,277.46,689.63,277.67z"/> <path d="M700,275.49c0.45-0.2,1.17,0.2,1.66-0.41C700.94,274.87,700.42,275.07,700,275.49z"/> <path d="M664.84,268.54c0.55,0,1.16,0.09,1.65,0.1C666.72,268.65,665.98,267.9,664.84,268.54z"/> <path d="M703.53,274.35c0.37,0.12,0.31,0.14,0.31,0C703.84,274.21,703.91,274.22,703.53,274.35z"/> <path d="M647.93,253.08l-0.21,0.21C648.11,253.16,648.06,253.22,647.93,253.08z"/> <path d="M677.49,284.2c0,0.1,0.1,0.1,0.31,0.1C677.7,284.31,677.6,284.2,677.49,284.2z"/> <path d="M697.15,288.77c0.07-0.14,0.11-0.13-0.16,0C697.13,288.9,697.08,288.9,697.15,288.77z"/> <path d="M696.37,289.6c0.2-0.25,0.12-0.1-0.1-0.1L696.37,289.6z"/> <path d="M696.52,289.4c-0.01,0.02-0.02,0.03-0.03,0.05C696.76,289.45,697.48,288.12,696.52,289.4z"/> <path d="M695.81,290.13c-0.06,0.12,0.24-0.08,0.37-0.37C696.38,289.24,696.25,289.6,695.81,290.13z"/> <path d="M695.65,290.32c0.24-0.24,0.1-0.1-0.1-0.1L695.65,290.32z"/> <path d="M695.44,290.43l0.1-0.1C695.54,290.18,695.57,290.17,695.44,290.43z"/> <path d="M662.24,126.2c0,3.73-0.93,7.26-1.35,11.31C663.71,134.33,666.47,125.85,662.24,126.2z"/> <path d="M750.11,116.35c0.31,0.62,0.23,0.73,1.35,0.73c1.87-2.28,2.07-2.7,2.49-5.81c-0.01,0-0.01,0.01-0.02,0.01
		C751.67,112.73,750.94,113.66,750.11,116.35z"/> <path d="M661.1,139.79c-0.77,2.13-1.57,3.79-1.14,5.81C662.14,143.53,662.35,142.5,661.1,139.79z"/> <path d="M658.09,151.83c-1.87,2.49-1.87,2.49-1.56,4.05C658.61,154,658.61,154,658.09,151.83z"/> <path d="M649.58,122.05c2.07,0.31,3.32,0.62,5.08-0.52C652.7,120.39,651.56,121.43,649.58,122.05z"/> <path d="M659.96,146.85c-1.39,1.5-1.48,1.56-1.35,3.32C660.56,148.44,660.55,148.24,659.96,146.85z"/> <path d="M665.35,140.21c0.35-0.84,0.37-1.45-0.1-2.39C664.27,138.87,664.55,139.5,665.35,140.21z"/> <path d="M644.5,123.4c1.79,0.42,1.75,0.37,1.75-0.94C645.54,122.47,644.92,122.78,644.5,123.4z"/> <path d="M768.06,568.77c2.27,1.56,4.93,0.78,5.71,1.56c-0.31,1.24-2.28,0.52-2.28,2.07c2.55,1.53,5.37,1.46,8.28,1.24
		c1.39,0,2.73-2.38,0.35-3.4c-0.43-0.22-1.01-0.33-1.58-0.64c1.24-1.66,1.24-1.66,0.31-3.11c-4.96-0.45-4.13-0.35-2.94-0.7
		c2.84-0.81,3.78-0.82,2.73-3.14c-2.37-0.28-10.78,0.25-12.86,0.93c-0.41,0.21-0.83,0.52-0.83,1.35c1.87,1.24,4.25,0.93,6.43,1.66
		C770.14,567.22,768.48,566.9,768.06,568.77z"/> <path d="M774.28,586.41c-3.52,1.09-6.27,5.68-3.42,7.26c1.97-0.44,0.43-3,3.55-4.78c1.98-1.13,9.12-2.13,13.78,0.32
		c0.08,0.08,0.71,0.06,0.79-0.1C791.2,585.63,780.71,584.41,774.28,586.41z"/> <path d="M650.83,89.89c-0.93,0.21-1.66,0.21-1.56,1.14C650.52,91.24,650.52,91.24,650.83,89.89z"/> <path d="M752.91,98.61c-0.73-0.83-1.35-0.73-2.18,0.21c0.62,0.24,0.81,0.41,1.14,0.41C752.29,99.12,752.91,99.33,752.91,98.61z"/> <path d="M747.73,99.33c-0.73-0.62-1.24-0.31-1.87,0.1C746.48,100.6,746.4,100.77,747.73,99.33z"/> <path d="M679.16,93.52l-0.11,0.1C679.51,93.86,679.56,93.52,679.16,93.52z"/> <path d="M636.76,574.06c-1.57,0.55-3.06,1.36-4.4,2.39C640.81,580.46,646.83,570.52,636.76,574.06z"/> <path d="M432.55,442.41c2.7-2.7,3.07-5.89,1.56-9.13c-1.15-2.44-0.82-3.69-1.14-5.6c-3.15-2.52-3.11-2.94-3.53-2.07
		c0.1,1.24,1.35,1.97,1.56,3.22C431.68,436.99,433.76,433.94,432.55,442.41z"/> <path d="M425.6,420.94c0-0.41-0.1-1.04-1.23-1.04c0.1,0-4.85,8.75-3.95,9.64C423.4,427.52,424.76,424.43,425.6,420.94z"/> <path d="M422.7,459.53c-1.87,1.97-1.28,3.74-1.14,5.39c0.24,2.81,0.31,2.8,1.66,4.05C422.8,465.91,423.64,463.17,422.7,459.53z"/> <path d="M383.9,359.94c0.31-1.97,0.31-3.84-1.35-5.6C382.55,359.21,382.25,360.49,383.9,359.94z"/> <path d="M422.7,476.65c1.48-3.26,1.42-3.35,0.1-5.39C422.09,475.4,422.06,475.48,422.7,476.65z"/> <path d="M418.03,441.06c0.12-2.05,0.02-3.71-1.56-5.39C415.44,438.57,415.85,439.82,418.03,441.06z"/> <path d="M422.7,539.1c1.46-3.62,1.22-4.33,0-6.22C422.47,534.86,421.89,536.53,422.7,539.1z"/> <path d="M431.72,445.43c-0.88,0.88-0.93,0.9-0.93,2.46C430.79,448.18,431.59,447.18,431.72,445.43z"/> <path d="M422.18,480.99c-0.73,0.93-1.14,1.76,0.21,3.32C422.49,482.76,422.79,482.14,422.18,480.99z"/> <path d="M420.52,489.82c-0.41,0.73-0.52,1.45,0.1,2.18C421.93,491.19,421.66,489.54,420.52,489.82z"/> <path d="M381.93,347.18c-0.15,0.93-0.37,1.93,0.52,2.07C382.96,348.63,383.17,348.01,381.93,347.18z"/> <path d="M420.42,429.54c-0.92-0.46-1.74,1.57-2.07,2.39C419.69,431.1,420.42,430.58,420.42,429.54z"/> <path d="M423.74,525.61c-0.15,0.72-0.07,1.12,0.73,1.04C425,525.22,423.74,523.88,423.74,525.61z"/> <path d="M381.1,339.5c0,0.1,0.1,0.21,0.1,0.31c0.1-0.1,0.1-0.1,0.21-0.1C381.41,339.12,381.21,339.15,381.1,339.5z"/> <path d="M430.27,448.84c0.33,0,0.43-0.72,0.43-0.83C430.48,448.22,430.17,448.43,430.27,448.84z"/> <path d="M315.43,404.13c-1.57-3.63-1.36-5.62-2.7-5.81c-1.21,1.21-1.07,1.17-0.98,2.1c0.4,3.9,2.37,6.89,5.45,9.11
		c-0.21,0.63-1.85,3.41-0.73,8.09c0.3,1.25-0.21,2.7,1.24,3.63c1.62-3.85,2.21-5.93,2.19-8.28
		C319.87,408.29,318.75,411.83,315.43,404.13z"/> <path d="M313.14,430.89c2.12-1.57,4.6-4.93,3.53-7.26C314.83,425.78,313.92,428.18,313.14,430.89z"/> <path d="M301.84,411.08c-1.03,1.92-1.92,5.49,0.21,5.91C301.32,414.92,303.39,413.16,301.84,411.08z"/> <path d="M290.42,472.39c0.82-2.59,0.52-5.26-0.21-7.88C289.56,471.74,288.89,472.56,290.42,472.39z"/> <path d="M311.17,464.3c1.14-1.97,1.97-3.32,1.87-5.71C311.59,460.46,310.86,461.92,311.17,464.3z"/> <path d="M308.89,517.21c-0.1,1.24,0.31,2.18,0.93,3.32C309.82,518.56,309.82,518.56,308.89,517.21z"/> <path d="M339.45,326.9c0.39,0.78,0.37,0.78,0.49-1.09c0.06-0.92-0.07-1.61-0.55-2.4C339.3,324.58,338.81,325.61,339.45,326.9z"/> <path d="M339.39,337.53c0.62-0.83,0.62-1.45,0.1-2.07C338.87,336.18,338.98,336.8,339.39,337.53z"/> <path d="M309.82,480.9c0.53-0.7,0.62-1.35-0.1-2.07C309.08,479.57,309.03,480.21,309.82,480.9z"/> <path d="M292.71,445.32c0.21-0.62,0.41-1.14-0.1-1.76C292.4,444.18,292.29,444.69,292.71,445.32z"/> <path d="M291.98,453.41c0.49-0.71,0.54-1.31,0-2.07C291.46,452.16,291.46,452.68,291.98,453.41z"/> <path d="M309.62,526.55c0,0.21,0.1,0.41,0.21,1.04c0.33-0.98,0.44-0.88,0.1-1.56C309.82,526.24,309.62,526.34,309.62,526.55z"/> <path d="M309.93,471.62c-0.32-0.32-0.83,0.59-0.21,1.09C310.15,472.36,310.32,472.01,309.93,471.62z"/> <path d="M313.04,430.79c0,0.19-0.04,0.33-0.06,0.36C313,431.17,313.04,431.14,313.04,430.79z"/> <path d="M312.95,431.15c0.01,0.03,0.02,0.03,0.03,0.01C312.96,431.15,312.95,431.12,312.95,431.15z"/> <path d="M320.2,433.9c0,0.39-0.04,0.43,0.1,0C320.17,433.77,320.2,433.77,320.2,433.9z"/> <path d="M319.37,436.19c0.28,0.28,0.14-0.04,0.31-0.21C319.55,435.85,319.37,435.8,319.37,436.19z"/> <path d="M339.08,344.79c0,0.52,0.31,0.21,0.41,0.21C339.28,344.78,339.58,344.79,339.08,344.79z"/> <path d="M313.37,452.13c-0.05,0.25,1.57-2.68,1.22-3.38C313.58,449.5,313.65,450.66,313.37,452.13z"/> <path d="M314.68,448.75c0,0.14,0.51-0.19,0.63-0.57c0.13-0.39,0.01-0.79,0.01-0.89C314.53,447.63,314.68,448.16,314.68,448.75z"/> <path d="M315.43,447.29C315.63,447.08,315.43,447.18,315.43,447.29L315.43,447.29z"/> <path d="M155.97,138.44c-2.96,1.36-3.2,3.32-2.49,3.32c2.66-0.18,5.13-1.86,7.78-2.07c0.67,0,1.06,1.61,1.77,0.92
		c0.89-0.85-0.62-1.24-0.11-2.06c1.25-1.25,5.21-0.04,6.57-2.18c0.09-0.18,0.42-0.09-1.84-0.01c-3.14,0.11-4.37,0.79,2.31-2.9
		c0.73-0.4,1.66-0.62,1.56-2.18c-1.47,0.31-2.83,0.62-3.93,1.67C165.87,134.59,164.65,134.45,155.97,138.44z M164.9,136.47
		c-0.43,0.86-0.98,0.89-1.66,0.31C164.09,136.22,165.25,136.47,164.9,136.47z"/> <path d="M165.93,141.97c-2.64,1.51-6.23,1.24-9.03,3.42c1.11,1.11,1.42,0.75,2.39,0.47c2.06-0.61,4.54-1.18,6.32-2.64
		c1.44-1.18,7.8-2.89,9.34-4.36c1.84-1.76-0.2-5.25-1.45-3.63c0.21,0.73,1.24,1.24,0.73,2.49
		C171.95,139.79,168.72,140.38,165.93,141.97z"/> <path d="M295.05,123.01c2.08-0.29,2.52-0.43,3.47-0.64c0.65-0.1,1.85,0.35,2.28-0.52C294.04,116.71,291.03,123.57,295.05,123.01z"/> <path d="M186.16,128.59c0.1,0.1,0.62-0.31,0.21-1.24c-3.13,0.65-10.12-3.29-9.76-0.1c1.32,1.32,2.82,0.3,5.19,1.14
		C183.26,129,184.71,127.76,186.16,128.59z"/> <path d="M218.95,133.98c1.87,0.31,3.42,0.31,4.88-0.21C221.02,133.05,221.02,133.05,218.95,133.98z"/> <path d="M388.88,136.99c0.52-0.31,0.73-0.52,0.52-0.93c-0.52-1.24-1.56-1.35-2.7-1.04C387.53,135.64,387.84,136.89,388.88,136.99z"/> <path d="M212.31,134.09c-0.41-0.62-0.93-0.41-1.45-0.1C211.48,134.81,211.48,134.81,212.31,134.09z"/> <path d="M178.28,135.95c0.42,0.92,0.8,0.84,1.45,0.1C179.21,135.43,178.8,135.43,178.28,135.95z"/> <path d="M169.67,136.37c0.62-0.21,1.56,0.1,1.87-1.14C170.5,134.92,169.98,135.54,169.67,136.37z"/> <path d="M175.06,142.28c1.24-0.52,1.24-0.52,0-1.56C174.65,141.24,174.65,141.76,175.06,142.28z"/> <path d="M217.08,134.81c0.72,0-0.55-1.82-1.56-0.31C215.94,135.12,216.56,134.92,217.08,134.81z"/> <path d="M163.41,145.49c-1.1,0.46,0.65,1.33,0.65,0.74C164.23,145.58,163.52,145.46,163.41,145.49z"/> <path d="M385.65,133.76c-0.17,0.06,1.01,1.04,1.15,1.14C386.61,134.41,386.88,133.53,385.65,133.76z"/> <path d="M190.21,128.59c-0.61-0.72-1.11-0.72-1.56,0.1C189.17,129.32,189.69,129.21,190.21,128.59z"/> <path d="M183.57,135.43c0.21,0.1,0.41,0.31,0.62,0.31c0.31,0,0.62-0.1,0.73-0.52c-0.21-0.1-0.41-0.31-0.62-0.31
		C183.98,134.92,183.67,135.02,183.57,135.43z"/> <path d="M174.13,131.08l-0.1,0.21C174.15,131.16,174.13,131.21,174.13,131.08z"/> <path d="M325.08,274.35c6.54,2.7,13.07,4.25,19.3,6.74C341.47,278.5,331.2,274.97,325.08,274.35z"/> <path d="M347.17,275.38c2.4,0-1.81-3.62-17.64-5.08C330.99,271.51,341.23,273.31,347.17,275.38z"/> <path d="M355.99,298.42c0.31-3.73,1.56-7.26,0.62-11.72C356.2,291.15,355.26,294.78,355.99,298.42z"/> <path d="M392.51,269.78c-0.08,0.08-0.3,0.56-0.31,0.62C396.42,270.41,413.67,264.14,392.51,269.78z"/> <path d="M352.57,279.22c-1.87-2.07-4.36-2.18-6.85-2.7C347.79,277.77,349.97,279.02,352.57,279.22z"/> <path d="M377.57,272.79c-5.99,0-5.39-0.09-5.39,0.21C377.97,273,377.87,273.09,377.57,272.79z"/> <path d="M340.74,285.86c1.01,2.16,3.46,3.18,3.73,2.9C343.75,287.21,342.4,286.38,340.74,285.86z"/> <path d="M358.9,278.39c1.66-0.42,2.99-0.31,3.95-1.45C363.03,276.7,360.48,276.81,358.9,278.39z"/> <path d="M383.07,271.96c-1.05-0.11-2.01-0.3-2.92,0.22C381.2,272.27,382.13,272.69,383.07,271.96z"/> <path d="M388.45,271.04c0.9,0,2.69-0.17,3.48-0.73C390.48,270.33,389.6,269.89,388.45,271.04z"/> <path d="M392.2,270.3c-0.02-0.02-0.06-0.06-0.1-0.1C391.88,270.37,391.82,270.3,392.2,270.3z"/> <path d="M388.36,271.03c-0.93,0.1-1.97,0.1-3.01,0.21C386.39,271.55,387.42,271.86,388.36,271.03z"/> <path d="M344.48,288.77c-0.55,0.55,1.24,1.64,2.18,2.07C346.03,289.49,345.51,288.87,344.48,288.77z"/> <path d="M356.84,262.01c0.08-1.1-0.96-0.91-0.23,1.03C356.72,262.61,356.82,262.29,356.84,262.01z"/> <path d="M352.57,279.12c0.21,0.83,0.66,1.26,1.82,1.15C354.5,280.27,354.06,278.95,352.57,279.12z"/> <path d="M363.39,276.62c-0.78,0.5-0.41,0.23,0.17,0.26c0.35,0.02,0.72,0.03,1.05-0.35C364.11,276.39,363.72,276.44,363.39,276.62z"/> <path d="M327.87,270.09c0.72,0,1.21,0.1,1.76,0.1C329.1,269.66,328.49,269.68,327.87,270.09z"/> <path d="M366.88,275.9v-0.1C366.49,275.8,366.45,275.76,366.88,275.9z"/> <path d="M310.76,254.84l0.21-0.21C310.97,254.5,311.02,254.45,310.76,254.84z"/> <path d="M360.04,290.22c-0.09,0.34-0.18,0.38-0.05,0.26C360.28,290.18,360.34,290.06,360.04,290.22z"/> <path d="M359.92,290.54c-0.14,0.14-0.34,0.34-0.51,0.51C359.64,290.98,359.81,290.75,359.92,290.54z"/> <path d="M358.58,291.78c0.24-0.06,0.41-0.19,0.51-0.38C359.28,291.04,359.2,291.16,358.58,291.78z"/> <path d="M359.21,290.95c0,0.08-0.01,0.17-0.03,0.24C359.34,291.02,359.34,291.08,359.21,290.95z"/> <path d="M351.53,230.78c0.72,1.03,5.36,0.55,5.66-1.1c0.1-0.56-8.73-3.39-11.16-3.26C343.63,227.62,349.92,228.46,351.53,230.78z"/> <path d="M344.38,212.25c0.17,0.51-0.2,1.11,0.4,1.51c0.19-0.56,0.01-1.1-0.39-1.52c0.09-0.11,0.15-0.38,0.17-0.84
		c0.1-1.88-3.07-13.65-3.52-14.54C340.27,199.99,343.54,213.16,344.38,212.25z"/> <path d="M366.8,200.03c0.73,0.55,6.2,2.79,9.08,2.22c0.06,0-0.09-0.63-0.28-0.73c-3.01-1.76-6.54-1.87-10.48-3.63
		C365.65,198.95,366.22,199.59,366.8,200.03z"/> <path d="M333.13,251.12c-0.18-0.45-3.73-2.98-6.18-6.44c-0.12,0.25-0.42,0.72-0.31,0.83C329.02,250.77,333.88,253.03,333.13,251.12
		z"/> <path d="M364.6,197.06c-1.97-2.59-5.5-5.29-7.47-5.5C359,193.95,361.07,195.5,364.6,197.06z"/> <path d="M386.35,243.79c3.22-4,1.56-4.66,1.45-4.55c-1.92,3.07-2.98,3.96-3.83,6.29C383.74,246.16,385.66,244.65,386.35,243.79z"/> <path d="M393.03,227.66c-0.78,2.17-1.96,4.1-1.66,6.22C393.55,230.88,393.86,230.15,393.03,227.66z"/> <path d="M320.61,234.82c0.1,2.07,0.1,2.07,2.18,4.15C322.27,236.27,322.27,236.27,320.61,234.82z"/> <path d="M375.39,192.49c0-0.07-0.3-0.51-0.34-0.51c-1.12,0.43-1.39,0.91-1.63,1.64C374.35,193.74,374.98,193.22,375.39,192.49z"/> <path d="M340.22,192.39c0.21-0.31,0.21-0.62,0.31-1.35C338.9,192.02,340.01,192.82,340.22,192.39z"/> <path d="M346.24,220.19c-0.31,0.62-0.31,1.14,0.21,1.97C346.45,221.33,346.65,220.82,346.24,220.19z"/> <path d="M377.88,190.63c-0.21,0.1-0.52,0-0.73,0.31C377.57,191.25,377.67,190.83,377.88,190.63z"/> <path d="M383.69,246.75c0-0.41,0.1-0.83,0.1-1.14C383.48,245.92,382.96,246.13,383.69,246.75z"/> <path d="M333.44,251.81C333.48,251.84,333.48,251.83,333.44,251.81L333.44,251.81z"/> <path d="M333.17,251.73c0.14,0,0.23,0.04,0.28,0.08c-0.03-0.02-0.06-0.05-0.12-0.11C333.29,251.69,333.24,251.7,333.17,251.73z"/> <path d="M371.92,195.24c0.1,0.1,0,0.06,0.15-0.26c0.02-0.06,0.15-0.25-0.2,0.2l0.03,0.03
		C371.86,195.32,371.81,195.35,371.92,195.24z"/> <path d="M372.1,194.9c0.07-0.07,0.09-0.13,0.21-0.25C372.91,193.98,372.22,194.65,372.1,194.9z"/> <path d="M372.8,194.39c0-0.1-0.16-0.09,0,0.07C372.79,194.43,372.8,194.42,372.8,194.39z"/> <path d="M373.42,193.53c-0.01,0-0.02,0.01-0.02,0.01C371.97,194.49,373.42,194.54,373.42,193.53z"/> <path d="M391.16,234.09c0.1-0.1,0.1-0.21,0.1-0.31C391.26,233.89,391.16,233.99,391.16,234.09z"/> <path d="M322.79,238.97v0.1C322.93,239.07,322.92,239.1,322.79,238.97z"/> <path d="M369.27,166.87c0.31-1.24,1.37-2.06,2.07-3.01c3.64-4.88,0.42-7.68-0.52-5.19c-1.06,2.8-5.25,7.98-8.4,8.3
		c-29.87,3.07-29.25-4.9-31.85-3.63C330.57,167.69,345.38,175.16,369.27,166.87z"/> <path d="M330.47,161.58c0.52-1.22,0.49-1.17-0.93-2.9C329.63,159.77,329.25,160.87,330.47,161.58z"/> <path d="M382.79,185.07c-0.91-0.81-2.14,0.88-1.79,1.93C381.63,186.68,383.15,185.43,382.79,185.07z"/> <path d="M329.39,158.47c0.08,0.08,0.16,0.1,0.26,0.1C329.5,158.42,329.2,158.28,329.39,158.47z"/> <path d="M380.16,187.72c0.1,0,0.48-0.49,0.83-0.73C380.79,186.8,381.03,186.85,380.16,187.72z"/> <path d="M210.85,144.67c2.39,1.56,3.42,1.56,4.77,0C213.97,144.25,212.51,143.94,210.85,144.67z"/> <path d="M203.38,144.56c1.25,0.96,2.42,1.29,3.84,0.52C205.35,144.05,205.35,144.05,203.38,144.56z"/> <path d="M272.17,143.42c-0.27,0.27,0.84,0.9,1.14,0C272.89,143.01,272.48,143.01,272.17,143.42z"/> <path d="M268.33,144.25c0.11,0,0.19,0,0.31,0C268.25,143.99,268.33,143.98,268.33,144.25z"/> <path d="M436.7,571.88c-0.3,1.11-2.17,0.56-2.26,1.88c0,1.34,11.64,3.19,9.91-0.86c-0.61-1.23-1.68-1.16-2.78-1.75
		c1.25-1.66,1.24-1.67,0.31-3.12c-1.14-0.1-2.28-0.31-3.73-0.41c1.67-0.84,3.75-0.14,4.15-2.49c-0.25-0.25-0.47-0.61-0.62-0.93
		c-5.02,0-10.48,0.62-12.14,0.83c-1.11,0.14-1.7,0.49-1.45,1.66c1.81,0.76,3.54,0.76,6.33,1.45c-1.4,0.7-2.66,0.2-3.32,2.18
		C433.28,571.91,436.7,571.14,436.7,571.88z"/> <path d="M448.74,587.03c-20.56-2.74-16.21,11.34-13.81,7.21c0.29-0.51,0.2-1.07,0.87-2.22c2.28-3.9,11.53-3.52,15.53-1.46
		c0.1,0.1,0.41,0,0.73,0c0.21-0.21,0.31-0.52,0.52-0.83C451.33,588.07,450.71,587.55,448.74,587.03z"/> <path d="M303.81,574.58c-2.9,0.73-5.81,1.14-8.51,3.22c1.56,1.45,3.22,1.24,4.77,1.14C306.59,578.12,305.05,574.17,303.81,574.58z"/> <path d="M368.54,4.51V4.3C368.03,4.3,368.1,4.95,368.54,4.51z"/> <path d="M374.24,24.74c-0.27,0.05-0.58,0.18-0.72,0.43C373.09,25.94,374.24,25.55,374.24,24.74z"/> <path d="M377.98,26.4c-0.81-0.81-3.48,2.26-2.85,2.05C376.45,28.37,377.4,27.67,377.98,26.4z"/> <path d="M375.04,28.46c-0.24,0-0.17,0-0.06,0.11C375,28.54,375.03,28.51,375.04,28.46z"/> <path d="M374.87,28.48c0,0.1-0.1,0.21-0.1,0.21C374.87,28.58,374.87,28.58,374.87,28.48z"/> <path d="M368.04,11.5c0.04,0,0.17-0.36,0.03-0.16C368.06,11.37,368.01,11.5,368.04,11.5z"/> </g> </svg> 