<?xml version="1.0" encoding="utf-8"?> <!-- Generator: Adobe Illustrator 23.0.1, SVG Export Plug-In . SVG Version: 6.00 Build 0)  --> <svg version="1.2" baseProfile="tiny" id="Layer_1" xmlns="http://www.w3.org/2000/svg" xmlns:xlink="http://www.w3.org/1999/xlink" x="0px" y="0px" viewBox="0 0 900 600" xml:space="preserve"> <g> <path d="M191.8,360.84l0.1-0.1C191.7,360.78,191.76,360.72,191.8,360.84z"/> <path d="M167.71,238.1l0.1,0.1C167.72,237.99,167.82,238.05,167.71,238.1z"/> <path d="M157.61,229.51l-0.1,0.1C157.61,229.71,157.59,229.61,157.61,229.51z"/> <path d="M262.96,269.39c-33.5,36.45-25.99,30.48-25.99,21.39c0-17.61,3.58-27.87-12.39-38.78c-2.08-1.42-4.25-2.77-5.6-4.9
		c-0.82-1.29-10.36-7.8-13.89-7.8c-6.69-0.74-11.92-3.72-19.89-7.1c-1.18-2.94-0.57-3.19-2.3-9.6c-1.14-4.22-3.85-12.95-4-15.29
		c-0.36-5.59-2-10.99-2.6-16.69c0.4-0.1,0.8-0.2,1.3-0.3c0-3.87-6.05-18.83-14.09-17.79c-0.47,0.06-7.55,1.46-10.6,1.3
		c-4.01-0.21-6.87,4.81-7.5,8.8c-0.98,6.23-2.33,1.76-7.9,6.5c-0.89,0.89-9.35,1.14-15.49,11.79c-4.19,7.27-7.12,8.71-8,19.19
		c-1.02,12.28,2.87,19.46,9.4,27.29c-1.11,3.89-4.29,8.59-2.5,26.79c0.34,3.47,2.89,5.49,1.9,13.99c-1.37,11.8-2.5,23.49-1.7,35.48
		c-6.29,5.62-6.22,15.18-7,19.39c-6.54,35.67-5.19,25.64-5.8,36.08c-0.24,4.2-1.6,8.2-2.4,12.29c-2.2,4-2.94,8.48-5,12.49
		c-0.87,1.7-2.85,2.9-4.2,4.4c-0.8,0.8-1.4,1.9-2.4,3.3c-4.46,1.78-3.97,4.19-2.8,8.1c-0.4,0.8-1,1.7-1.6,2.7
		c0.7,1.7,0.11,3.78,1.9,5.1c0.4,0.3,0.9,0.6,1,1c0.66,2.65,2.62,2.85,5,6.3c0.61,0.89,1.8,1.4,2.6,2.1c0.8-0.1,1.3-0.2,2.2-0.3
		c1.51,2.15,2.59,1.72,13.19,0.4c5.96-8.94,4.46-4.66,12.39-15.99c2.15-1.08,2.15-0.22,4.2-3.5c2.5-4.68,2.07-6.6,5.6-6.8
		c0,6.11-0.36,8.94-0.6,15.79c-0.2,5.61,0.95,7.32-0.4,10.6c-1.44,3.51-2.77,5.7-3.3,8.6c-0.98,5.37-9.86,12.68-10.3,20.99
		c-0.13,2.51-3.84,14.67-3,23.99c0.87,9.67,0.14,8.06,0.7,25.79c0.51,16.37,1.85,22.66-1.9,29.99c-0.39,0.76-0.3,1-0.3,7.6
		c-3.63,2.18-6.31,4.77-4.9,9.1c1.88,5.78-4.08,10.15-5.6,14.39c-0.79,2.2-4.09,3.23-2.8,6.4c0.65,1.59,1.25,10.89,6.2,11.59
		c2.93,0.42,3.36,4.4,27.39-1.8c1.57-0.31,3.87-3.29,3.1-6.1c-1.74-6.33-3.98-9.89-3-17.39c0.58-4.45-0.09-5.99-1.1-14.09
		c-0.8-0.1-1.7-0.3-2.6-0.4c-0.1-0.1-0.3-0.4-0.3-0.5c0.01-0.11,1.8-15.32,2-16.69c1.83-12.58,9.22-20.68,17.39-41.48
		c3.28-9.85,3.6-2.66,3.6-34.28c0-4.32,3.75-3.72,7.2-15.79c0.75-2.64,0.47-2.31,9.8-21.49c1.79-3.69,1.88-1.78,2.8-4.4
		c3.95-11.28,10.95-31.52,19.79-44.78c-0.51-2.05-2.09,0.39-3.8,2.1c-4.97-3.79-12.05-5.91-18.09-8.5c1.3-2.2,6-7.5,9.5-10.69
		c4.58,1.15,4.92,1.74,6.26,1.52c-0.31-0.66-4.48-2.16-5.16-2.42c1.48-2.77,7.11-7.67,13.29-15.09c2.6-3.11,5.89-3.8,9.9-3.8
		c11.85,0.82,24.41-7.48,30.59-16.89c0.2-0.3,0.4-0.5,0.8-1c2.77,2.07,6.1,11.93,7.5,14.09c1.66,2.57,3.13,1.86,3.3,4.4
		c0.13,2.03,0.73,3.2,5.2,13.99c-23.9,6.83-29.33,13.92-39.18,24.19c-1.17,1.22-3.84,3.71-4.6,2.2c-0.93-3.43-3.43-3.62-7.6-5.8
		c-4.22-2.2-6.57,0.51-6.7,0.6c1,0.9,2,0.9,2.8,0.8c3.3-0.41,5.6,1.8,8.3,3c0.84,0.28,4.25,7.99,4.6,8.8
		c9.13,21.37,16.98,23.56,37.18,51.98c2.14,3.01-0.09,9.96,5.1,21.79c0.61,1.39,1.1,2.9,2.9,3.4c0.21-3.64-6.21-15.85-3.7-19.69
		c0.9-1.38-0.99-4.9-1.7-6.3c-2.49-4.89-28.22-30.84-39.08-55.27c0.09-0.1,9.76-11.35,11.09-12.19c15.12-9.59,6.55-6.16,31.09-16.19
		c19.51,32.51,21.82,78.26,22.29,79.46c4.96,12.65,2.88,2.82,4,17.39c0.1,0.7,0.09,1.5,0.3,2.1c1.64,4.72,2.34,9.71,3.7,14.59
		c4.58,16.5-1.16,49.68-1.2,49.78c-3.28,8.45-4.96,19.92-6.3,28.49c-2.4,0.5-5.2,0.5-8.8,0c-0.5-3,0.7-6.1,0-9.6
		c-1.4,1.7-0.8,3.5-1.4,5.2c-1.2-3.3-1.37-6.6-1.6-9.9c-1.07-15.69-10.69-32.86-8.5-51.58c0.43-3.68,0.9-12.65,0.9-14.59
		c0.2-1-0.3-1.4-1-1.8c-4.44,23.31-1.94,32.71,4.8,59.17c6.02,23.66,3.2,25.18,1.1,33.58c-0.4,0.3-1.3,1-2.1,1.6
		c0,6.68,1.84,13.65-2.1,23.29c-0.58,1.41-1.4,2.7-0.4,4.4c0.4,0.6,0,1.8-0.1,3.2c0.3,1.1,1.41,2.3,1.6,3.9c0.21,1.7,1.8,2.49,3.3,3
		c12.57,4.27,25.15-0.88,28.39-1.8c1.8-4.1,1.9-4.8,1.2-8.2c-1.47,5.66-0.79,8.36-12.49,9.4c-4.52,0.4-19.48,1.15-18.79-3.3
		c-3.24-5.4,1.14-10.53,1.3-21.99c0.05-3.5,0.2-6.9-0.6-10.3c0.9-1.7,2.39-2.52,3.8-3.3c3.18-1.76,0.98-3.99,3.2-7.7
		c0.6-0.1,1.3-0.5,2-0.4c9.54,1.3,8.66-2.59,9.7,8.3c1.3,0.78,3,1.82,3,2.4c0.6,5.11,0.14,7.78,1.6,10.5c0.75,1.4,0.86,5.13,1.5,6.2
		c2.69,4.49,3.58,8.28,5.1,9.3c0.92-1.38,0.06-1.86-3.2-10.3c-2.26-5.84-1.37-7.9-2.7-9.6c-0.32-0.41-0.35-3.53-0.5-5
		c-0.62-3.92-2.13-3.33-3.7-4.9c-0.51-3.59,0.05-6.6-3-8.4c12.44-52.24,6.65-21.38,10-50.88c0.93-8.26-0.16-16.33-0.9-26.79
		c-0.44-6.21-2.72-11.06-4.9-19.09c-0.86-3.16,0.59-7.06-3.6-13.69c-3.22-5.1,1.23-9.95-5.4-39.88c-1.84-8.29-3.81-11.14-4.6-13.49
		c-6.29-18.88-4.33-10.5-15.89-36.48c-3.17-7.13-2.68-8.37-6.6-14.69c-2.08-3.36-2.54-5.45-6.4-11.19c-2.24-3.34-4.83-6.49-6.3-10.4
		c-0.71-1.89-2.1-3.5-2.6-5.6c2.07-2.66,126.61-137.51,158.73-173.12c2.59-2.87,2.97-3.33,2.2-4.5
		C393.61,125.65,400.2,120.07,262.96,269.39z M268.86,555.35c-0.3-0.2-0.5-0.3-0.9-0.6c0.4-0.3,0.6-0.5,0.9-0.5
		c0.1,0,0.4,0.3,0.4,0.4C269.16,554.95,268.96,555.15,268.86,555.35z M201.69,241.7c3.17,0,0.05,1.35-3.1,6.8
		c-5.64,9.75-2.87,15.38-6.1,20.49c-11.8-1.69-5.33-0.75-8.8-1.3c2.66,3.68,3.82,0.91,9,3.5c0.2,1.4,0.3,2.8-0.2,4.1
		c-1.3,0.2-2.4,0.4-3.7,0.6c1.1,1.5,2.7,0.6,3.8,1.6c3.32,16.07-9.4,20.7-11.09,17.99c-0.3-1.8,0.6-3.5,1.1-5.2
		c0-0.2-0.2-0.4-0.3-0.6c-0.6,0.7-1.3,1.3-1.9,2c-2.58-1.84-1.5-1.5-3.6-1.5c3.22,3.22,4.38,3.98,3.2,5.5
		c-2.7,0.3-5.19-0.31-7.4-1.9c-10.03-7.23-6.07-7.41-16.49-19.99c-1.4-1.69-4.17-6.81-2.1-7.5c6.39-2.56,10.09-8.25,13.29-14.39
		c1.78-3.42,1.12-6.41-0.3-9.6c3.53-2.35,4.56-5.89,3.5-9.6c-1.94-6.79-2.4,0.61-2.4-17.39c-0.92,1.37,0.08,5.02-0.7,10.5
		c-6.4-1.83-3.16,0.47-0.7-10.79c0.7-3.2,0.8-6.4,1.2-9.7c1.1,0.6,1.2,1.6,1.4,2.5c0.71,3.2,1.7,6.3,0.7,9.8
		c3.18-2.27-1.11,5.99,0.2,7.3c6.06-4.24,1.03-0.44,4.1,1.4c0.4-0.6,0.7-1.1,1.1-1.7c0.5,0.5,0.89,0.8,1.1,1.3
		c1.06,2.55,5.48,7.71,7.7,8.7C192.84,238.44,195.87,240.76,201.69,241.7z M164.01,228.81c1.97,0,2.27-0.19,2.57,0.21
		c-0.7-0.03-1.46-0.2-1.87,0.79c0.7-0.08,1.47,0.06,2.06-0.51c0.42,0.59,2.72,1.82,2.27,5.06c-0.84-1.83-0.58-1.26-4.23-4.25
		C164.31,229.91,163.71,229.71,164.01,228.81z M164.79,233.08c-0.37-0.08-0.75-0.09-1.38-0.18
		C164.26,232.33,164.66,232.4,164.79,233.08z M168.71,178.33c4.77,6.28,7.29,9.59,6.7,15.09c-2.18-3-2.8-5.09-1.3-0.1
		c3.85,9.95,1.63,16.99,4.3,23.79c0.04,0.1,4.74,12.95,4.5,14.49c-2.79-3.41-4.8-4.87-5.4-8.9c-1.74-11.71-2.79-22.69-5.3-30.79
		c-0.55,2.95,3.12,22.81,2.3,25.69c-0.5-1.1-0.82-2.2-1-3.4c-0.84-5.58-2.57-9.43-6.2-19.49c-1,0.33-0.01,0.99-6.5-5.5
		c1.53-1.53,0.52-1.73,5.7,3.1c2.07-3.11-0.56-4.84-4.1-5.9c2.18-3.93,2.2-4.37,2-5.4c-1,1.5-1.78,2.51-2.5,3.7
		c-2.99,4.91-1.26,4.55-5.4,3.8C155.58,173.6,163.3,171.21,168.71,178.33z M155.11,179.83c-0.2,2.7-0.3,5.1-0.4,7.9
		c-0.9-0.2-1.5-0.2-2-0.4c-0.6-0.2-1.2-0.6-2-0.9C151.91,184.03,152.91,181.73,155.11,179.83z M150.92,176.93
		c-0.7,1.5-1.7,2.6-3.2,3.7C148.82,177.33,149.02,177.03,150.92,176.93z M148.12,182.53c1.85-2.54,3.2-3.5,5.9-4.7
		c-4.7,7.83-4.89,9.51-7.2,7.9C146.52,184.33,147.4,183.51,148.12,182.53z M125.23,198.92c0,0.52,0.15,1.05-0.41,1.37
		C124.93,199.67,125.08,199.29,125.23,198.92z M117.63,234.3c-0.1-0.2,0.2-0.4,0.2-0.6c0.5-0.1,1.3,0.2,1.4-0.8
		c-2.3-0.66-2.87,0.28-2.7-8.6c0.24-12.23,6.87-23.25,8.01-23.29c-0.15,1.98-6.76,8.25-6.11,26.89c0.71-1.18,0.38,0.47,1.1-7.6
		c0.52-5.83,1.52-8.5,2.3-9.83c0,0.74,0,1.42,0,2.54c0.58-1.25,0.5-1.95,0.05-2.62c0.54-0.89,0.97-1.16,1.05-1.38
		c0.67-1.91,1.2-3.8,1.9-5.7c0.7-1.9,2.4-3.3,2.4-5.7c0-1.2,1.31-2.19,2.5-2.9c11.82-7.05,6.29-2.8,7.2-1.9
		c1.99-0.31,4.06-6.11,11.29-3.9c2.82,0.86-5.54,5.86-10.99,14.29c0.4,0.2,0.8,0.3,1.1,0.5c0.14-0.59,0.18,0.01,0.52-0.26
		c0.69,0.92,1.14-0.24,13.97-11.93c0.79-0.72,1.71-1.11,2.6-0.61c2.21,1.24,3.86,0.42,5.3,1.5c3.64,3.26,3.6,5.24,3.6,10.4
		c0.83-1.67-0.12-3.1,1-3.6c6.17,9.07-4.78,32.15-7.72,30.43c-0.4,2.86-0.43,2.4-0.63,3.33c0.15-0.89-0.67,0.37-1.25,1.23
		c-0.1,0.2,0,0.6,0,1.1c1.55-0.89,1.01-2.29,1.2-2.1c0.01-0.05,0.02-0.1,0.03-0.14c0.65-0.18,1.22-0.28,1.97-0.47
		c0.98-0.88,1.3-2.62,2.91-2.97c0.09,1.66,0.19,3.41,0.29,5.17c0.9,0,1.7,0,2.5,0c-0.3,2.7-0.3,2.8,0.8,2.7
		c1.2-3.19,1.56-2.94-0.38-4.31c3.22-0.23,2.42,3.72,2.74,4.87c1.15-0.75,1.4-1.98,1.35-3.26c0.21,0.34,0.47,0.67,0.39,1.01
		c-0.78,5.07-1.06,3.96-3.3,6.2c1.1,6.4,1.12,6.4-1.3,12.09c-3.35,7.9-9.1,8.61-10.5,11.59c-5.39,1.39-7.1-1.57-8.87-2.43
		c3.45-3.45,2.3-1.23-4.13-1.77c-0.7,0-1.1-1.1-0.7-1.7s0.9-1.1,1.2-1.7c0.3-0.5-0.3-1.2-1-1.1c-1.31,1.64-0.15,1.42-4.9,3
		c-0.6,0.2-1.3,0.2-2.1,0.3c-3.17-10.14-1.75-7.95-7.9-12.19C122.13,245.41,119.04,238.95,117.63,234.3z M92.44,425.51
		c-0.3-1.1-0.5-2.2,0.1-3.4c9.18,8.03,3.53-4.4,13.29-2.1c-1.37,2.56-2.37,5.02-4.21,7C96.76,427.01,94.55,427.44,92.44,425.51z
		 M97.24,423.21c0-0.39,0.4-0.34,0.4-0.2C97.64,423.26,97.6,423.21,97.24,423.21z M115.43,434.31c-0.3,0.5-0.7,0.9-1.1,1.3
		c-1-0.2-2.12,0.31-2.5-1.1c-0.35-1.3-3.6-0.6-7.7-0.6c1.1-1.4,3-1.4,3.8-3.2c-3-0.6-5.3,1.5-7.8,1.8c-6.21-3.62-4.65-2.54-0.2-4.4
		c0.47-0.23,2.01-1.41,1.6-1c4.42,0.88,3.42-7.37,9.7-7.9c6.6-0.55,14.21-2.7,18.39-3.4C127.68,420.35,118.22,429.59,115.43,434.31z
		 M132.32,413.02c-10,2.3-19.99,4.4-30.29,5.7c-0.2-0.6-0.4-1.3-0.8-2.2c-1.1,2.3-2.5,4-4.9,4.2c-1.3-0.6-1.82-1.69-2.3-2.8
		c-2.3-5.34,4.14-4.57,6.1-5.1c6.44-1.74,9.67-0.91,14.79-2.7c4.12-1.44,8.3-2,12.69-2.6c1.04,1.84,4.32,2.3,5.6,2.3
		C133.62,411.02,133.22,412.12,132.32,413.02z M135.92,408.22c-0.2,0.1-0.7,0-0.9-0.2c-0.1-0.2-0.1-0.7,0.1-0.9
		c4.85-3.77,6-1.44,6-2.6c0-0.15,0.47-0.17,0,0.3C139.72,406.42,137.72,407.12,135.92,408.22z M137.12,560.75
		c0.83,2.89,1.42,5.81,0.3,8.8c-1.47,3.91-0.2,7.79-0.1,11.69c0.01,0.42-0.38-0.71,3.7,7.9c-1.3,2.7-1.59,3.12-3.8,3.7
		c-1.99,0.52-3.9,1-6,0.6c-2.33-6.29-11.18-6.3-16.29-3.9c-0.3,0.1-0.7,0.7-1.1,1c10.18-1.27,9.71-2.06,12.39-0.2
		c1.59,1.11,1.8,1.4,2.6,3.3c-3.81,0.63-11.42,0.35-17.89-1.3c-2.39-1.84-1.87-3.76-3.1-9.6c0-0.51,1.46-3.05,7.7-13.69
		c0.85-1.45,1.09-5.33,0.8-7c-1.1-6.28,4.99-4.25,5.3-8.6c0.2-2.73-0.24-3.29,0.2-6.4c0.7-0.2,1.3-0.59,1.8-0.5
		c2.99,0.55,6.2,0.2,9.3,1.6c0.58,6.35,1.67,8.36,0.6,10.2c-3.36-1.04-15.14-1.36-14.29,1.6c17.46,0,16.22,2.82,15.69-1.4
		C135.92,559.25,136.83,559.75,137.12,560.75z M193.3,380.83c-7.1,14.21-10,19.34-14.29,32.98c-1.84,5.83-2.35,6.16-12.99,26.69
		c-2.71,5.22-2.81,11.5-8.2,18.59c-3.01,3.97-0.3,4.3-0.9,4.9c-1.7,3.1-0.91,6.49-1.4,9.8c-0.21,1.4-0.09,2.9,0,4.3
		c1.43,21.19-10.4,34.46-12.39,38.48c-8.12,16.39-7.45,19.07-8.6,19.99c-1.33,1.2-1.6,3.5-1.6,5.3c0,3.27,1.08,2.8,0.4,3.7
		c-10.36-1-9.21-0.95-9.9-1.4c0-5.26,1.2,0.25,0.3-28.19c-0.46-14.62-1-8.11,0.9-27.19c2.55-25.7,3.62-30.19,7-34.78
		c3.03-4.11,9.72-16.7,9.3-21.79c-0.22-2.7,0.17-5.2,0.2-7.8c0.16-13.76-0.5-10.87-0.5-15.59c9.46-9.46,8.7-11.32,15.59-15.59
		c0.1-1.9,1.3-3.09,2.6-4.5c18.75-20.31,12.32-13.42,15.49-16.59C178.1,372.87,190.33,376.38,193.3,380.83z M178.7,361.14
		c0.7-3.51,1.68-3.22,2.5-3.65C181.37,359.45,179.99,360.25,178.7,361.14z M196.19,342.25c-15.51,17.31-12.71,14.3-14.91,15.16
		c-2.14-1.92,0.5-3.2,1.92-5.57c2.51-4.18-3.05-0.03,10.6-10.6C196.97,341.96,196.19,341.5,196.19,342.25z M200.09,338.25
		c-1.12,1.28-2.4,2-4.4,1c2.99-3.48,1.18-0.98,10.6-14.29c3.46-4.89,1.53-3.89,5.7-8.5c1.88-2.08,5.52-6.81,6.2-7.7
		c8.03,0,8.05-1.76,10.4-1.6C226.27,309.86,203.47,334.41,200.09,338.25z M240.77,320.26c-7.91,9.39-11.55,13.87-34.78,18.39
		c-7.1,5.33,24.98-28.52,26.59-30.59C235.48,312.27,238.17,316.36,240.77,320.26z M231.08,303.47c-3.1,2.2-6.8,2.8-10.99,3
		c1.72-3.1,3.77-6.15,6.1-9.9c5.72-9.22,1.06-10.39,9-17.19C235.18,295.45,236.2,290.07,231.08,303.47z M231.28,280.98
		c-1-1.1-0.1-2.8-1.5-3.7c-0.6,1.7-0.29,3.3-0.3,4.8c-0.1,10.18-4.4,13.84-14.39,27.39c-8.22,11.15-8.88,11.5-9,13.59
		c0,1.1-10.78,13.4-11.19,14.79c-0.34,1.71-12.63,8.52-13.19,12.19c-0.1,1.2-0.5,2.4-2.2,2.2c-0.74,0-1.65,2.84-4.2,4.3
		c-0.4,0.2-1,0.8-0.4,1.6c1.2-0.3,1.9-1.9,3.6-1.4c-1.82,9.1-14.13,20.65-23.49,30.99c-1.4,0.23-4.66-0.1-5.4,3.6
		c-0.29,2.35-0.15,2.53-2.1,3.9c-11.88,8.31-10.3,7.01-14.59,12.8c-3.3-0.41-1.84,0.24-3-1.3c-0.4-0.4-2.06-0.25-3.9-0.1
		c-2.35,0-0.38-1.46,2.7-5.3c12.69-15.8,10.77-24.67,27.59-43.98c0.7-0.8,1.4-1.6,1.5-2.8c-7.76,6.79-4.54,6.79-10.5,5.3
		c-0.08-0.32-0.5-0.97-0.2-2.3c4.14-18.55,8.2-17.42,12.39-30.29c0.1-0.4,0.5-0.8,0.7-1.2c2.7,1.1,5.3,2.2,8.1,3.4
		c-4.71,8.24-8.32,14.58-9.88,23.39c0.99-3.49,9.18-16.76,11.07-19.8c9.44-15.14,8.72-12.01,18.69-23.39
		c7.19-8.2,7.62-9.02,9.3-19.09c0.1-0.4,0-1-0.8-1.1c-2.76,6.9-3.48,11.66-4.8,13.19c-7.27,7.58-7.6,9.45-9.9,7.4
		c-1.58-1.42-3.39-2.08-5.3-1.7c-3.69,0.74-7.39,0.22-11.09,0.5c-10.82,0.81-17.39-10.42-18.19-19.89c-0.1-1.2,0-2.4-0.9-3.4
		c-0.4,0-0.7,0-1.1,0c0,3.35-0.96,10.98,4.4,16.89c7.35,8.11,10.28,6.97,11.49,8.6c-0.51,1.79-1.8,4.6-1.6,7.8c0.09,1.4,0.4,2.9-1,4
		c-0.1,0.1-0.2,0.5-0.2,0.7c0.54,2.57-2.2,5.43-2.2,6.6c0,4.12-15.95,20.94-12.59,41.08c-5.43,9.5-9.43,15.45-11.79,22.19
		c-0.35,0.99-0.64,0.93-10.5,11.79c-1.29,1.42-3.42,3.43-4.7,2c1.84-3.88-0.68-6.35,2-12.99c4.46-11.05,0.48-3.44,6.8-18.39
		c10.84-25.65,18.3-31.51,14.49-49.38c1.98-3.96,3.26-7.81,3.2-12.19c-0.04-2.73,1.34-13.55,1.4-21.79c0.07-8.76,1.59-5.41-0.4-8.6
		c-0.5,0.5-1,0.8-1.1,1.1c-1.22,5.68,0.07,1.9-0.4,10.6c-1.08,20.06-0.58,21.22-3.5,27.89c-1.89,4.32-1.76,4.86-1.9,5.7
		c2.13,0.71,1.47-1.35,1.6,8.9c0.07,5.32-1.7,9.73-4.6,14.39c-6.78,10.92-13.92,27.63-14.89,32.08c-2.18,10.06-5.96,10.41-3.6,23.39
		c-4.6,1.4-15.29,3-18.29,2.7c0.8-0.9,1.4-1.8,2.2-2.5c4.21-3.64,3.85-9.05,7.1-12.59c1.28-2.55,8.47-42.46,9.7-58.57
		c0-1.1,1.71-4.13,3.3-7.9c2.27-5.37,2.68,1.57,3.2-13.09c0.23-6.37-0.37-17.38,1.4-28.99c1.43-9.38-2.55-8.08-1.9-19.09
		c0.04-0.66,0.46-14.42,2.4-18.79c7.27,1.45,4.31,4.45,7.1,10.2c1.41,2.9,2.8,2.03,6,1.5c9.15,4,6.4,4.08,7.7,14.89
		c0.73,6.09-1.1,6.27,0.2,7.9c3.5-3.5,1.2-12,1.2-17.29c5.58,1.97,4.12,0.58,5.4,4.4c2.78,8.35,6.46,8.9,9.8,14.79
		c3.07,5.42,10.11,12.18,15.79,11.69c3.96-0.34,8.27,1.73,12.09-2.5c8.67-9.6,1.07-21.58,5.7-34.78c2.88-8.2,5.47-14.76,9.9-17.79
		c2.4,0.2,2.39,0.12,4.4,1.4c21.36,13.57-7.32-3.59-11.39,33.08c-0.1,0.4,0,1,0.9,0.9c2.44-7.33,3.15-15.11,10.89-23.49
		c8.14-2.71,9.24-3.14,11.09-1.8c7.53,5.45,12.96,9.67,13.49,16.69C235.58,274.15,235.14,276.96,231.28,280.98z M145.52,366.64
		c1.26-5.37,0.17-5.28,3.5-3.8C148.02,364.14,147.22,365.54,145.52,366.64z M160.91,323.86c1-4.2,1-8.8,3.4-12.69
		c15-2.5,13.53-1.42,18.19,1.3c-5.52,5.52-5.13,4.76-5.7,5.7c-1.53,2.5-7.51,9.4-7.8,9.8C166.11,326.76,163.01,326.46,160.91,323.86
		z"/> <path d="M532.84,122.86l0.1,0.1C532.97,122.59,533.05,122.56,532.84,122.86z"/> <path d="M648.48,427.51l0.1-0.1C648.51,427.38,648.54,427.3,648.48,427.51z"/> <path d="M628.56,292.05c0.11,0.06,0.33,0.25,0.33-0.07C628.79,292.08,628.84,292.08,628.56,292.05z"/> <path d="M587.51,218.31c-0.44,0.13-0.38,0.1,0.1,0.1L587.51,218.31z"/> <path d="M558.52,96.17c-0.3,0.3-0.17,0.23,0.07,0.06C558.58,96.22,558.56,96.2,558.52,96.17z"/> <path d="M558.63,96.2c-0.01,0.01-0.02,0.02-0.04,0.03C558.61,96.24,558.62,96.22,558.63,96.2z"/> <path d="M558.63,96.2c0.27-0.2,0.64-0.49,0.7-0.53C558.67,95.81,558.66,96.11,558.63,96.2z"/> <path d="M561.82,126.45l0.1-0.1C561.65,126.35,561.4,126.3,561.82,126.45z"/> <path d="M634.4,228.9c0-0.02,0-0.03,0-0.05C634.34,228.75,634.36,228.86,634.4,228.9z"/> <path d="M541.56,197.28c-0.01,0.01-0.01,0.02-0.02,0.03C541.69,197.45,541.67,197.38,541.56,197.28z"/> <path d="M809.51,0.51c-0.6-0.7-1.9-0.7-2.5,0.1c-8.04,8.79-16.4,16.8-32.68,33.08c-6.6-1.9-9.4,2.1-7.8,6.9
		c-7.35,6.13-7.52,10.48-14.79,13.39c-9.84,2.73-5.82-0.78-26.79,5.7c-6.96,2.15-7.12,2.07-8.9,3.6c-4.64,4.64-2.36,6.47-4.7,10.5
		c-1.75,3.02,1.11,2.12,0.1,11.89c-0.33,3.18-3.75,4.63-20.29,15.89c-5.92,4.03-6.41,0.36-29.49,11.89
		c-4.07,2.04-6.64,1.24-11.69,5.9c-14.47,13.35-3.65,6.45-22.79,21.49c-26.33,1.14-34.31,19.75-30.19,7c0.51-1.59,2-2.3,3.5-2.9
		c12.74-4.25,10.71-5.75,8.5-11.29c1-1.7,0.8-3.5-1-4.9c0.4-0.8,0.6-1.4,0.9-2c0-1.5-2-2.3-1.1-4.1c0.7-0.5,1.59-1.11,2.4-1.8
		c4.35-3.75-9.25-6.72-8.5-15.29c0.29-3.28-5.9-12.2-8.6-14.59c-3.17-5.96-17.87-10.08-28.29-4.3c-14.06,7.8-12.05,6.15-18.79,15.89
		c-3.05,4.4-0.39,6.6-4.2,6.4c-5.86,0-11.22,0.02-13.29,6.4c-2.61,8.01-2.46,17.84-1,25.49c0.84,4.4-0.05-2.72,1.4,21.09
		c0.86,14.11,2.05,10.04-3.6,35.38c-2.05,9.19-2.39,9.06-2.39,11.08c1.6,1.14,1.98-2.32,6-15.69c0.4,3.2-1.1,5.9-0.2,8.7
		c2.7-0.98,0.98-14.74,5.6-20.99c0.88,9.32-2.62,21.98-5.8,28.79c4.67,0.85,12.72-37.01,12.09-45.18c0-0.3-0.5-0.7-1.1-1.3
		c-0.42,8.32-3.74,28.36-3.9,20.69c-0.1-4.74-0.66-8.4,0.3-13.59c0.66-3.56,1.83-14.2,0.9-18.39c-0.41,4.56,0.22,7.82-2.3,18.49
		c-0.46,1.96,0.36,1.28-1.1,7.5c-1.3-0.43-0.26-1.34-0.5-8.2c-0.34-9.43-2.7-9.42-2.7-12.79c-0.41-7.87-3.89-34.65,3.4-43.88
		c12.67-2.82,0.31-0.01-0.66,10.1c1.9-2.76,2.22-4.56,3.96-6.3c0.6,2.39-1.37,1.21-2.9,15.69c-0.52,4.97,0.68,13.01,1.69,13.68
		c-0.1-1.56-2.5-21.51,4.61-32.17c0.2-0.2,0.6-0.1,1-0.2c0.5,1,0.02,1.9-0.2,2.8c-1.85,7.69-1.29,9.27-0.7,6.8
		c2.02-8.38,1.73-9.35,3.6-9.2c0.62-7.9,8.77-11.36,14.31-17.41c-1.13,0.29-0.18-0.76-11.22,8.35c-0.18-1.03,3.76-6.88,8.21-9.83
		c3.7-2.45,12.22-8.13,16.59-8.9c5.74-1,6.18,0,8.4,1.5c-3.4,0.4-6.8-0.5-9.9,1.1c0.82,1.64,8.23-1.94,17.39,3.5
		c4.39-3.29,8.95,8.5,12.19,12.99c0,3.37-0.82,6.88,9.7,13.89c-0.4,0.5-0.7,1.1-1.1,1.4c-9.33,5.83-2.69,0.87-1.3,6.7
		c-0.3,0.4-0.7,1-1.2,1.4c-1.59,1.06-3.75,1.65-2.9,2.5c0.41,0.82,2.39-0.62,3.2-1.2c3.48,0.99-0.6,3.15,1.9,7.4
		c0.5,0.7,0.3,1.8,0.5,2.8c-4.58,3.27-7.12,1.6-11.89,4.9c-2.44,1.68-3.65,7.4-3.1,10.69c-1.3,1.2-2.6,2.5-4,3.8
		c-2.7-1.1-3.7,1.9-5.9,2.5c-0.3-1.3-1.2-1.7-2.4-1.4c-23.58,5.83-4.56,16.51-16.99-18.29c0.2-0.4,0.4-0.8,0.7-1.4
		c-5.65-3.23-9.79-2.71-13.39-9.3c-7.29-13.32-6.29-12.54-6.5-15.19c3.88,4.31,6.93,10.13,16.26,10.09
		c-5.37-2.37-0.7,0.09-7.47-3.29c17.56-0.61,3.03,0.52-3.9-4.4c3.4,0.3,6.1,1.5,9.5,1.2c-19.04-5.13-13.43-3.9-15.49-3.9
		c-0.7,3.6-1.7,7.3-1.5,11.09c0.4-2,0.6-4,1.5-6.3c2.67,5.13,1.26,7.86,1.8,11.79c1.87,13.69,3.82,34.4,0.3,47.78
		c0-15.28-0.18-16.49-1.8-19.89c0.5,7,1,13.39-0.5,20.29c-1.34-7.35,1.01-22.2-1.5-28.89c-0.43,1.29-0.3-2.26-0.3,31.98
		c0,11.79-6,15.49-4.5,16.99c1.4-0.8,1.8-2.4,2.7-3.5c0.47-0.47,0.93-0.21,1.12-0.03c1.41-2.13-0.78-0.97,3.98-11.76
		c5.98-13.56,5.76-31.25,2.5-43.48c-1.04-3.89-0.6-7.8-1.1-11.69c1.2,0.2,1.4,1.2,1.8,1.9c4.09,8.69,11.53,5.39,14.49,14.49
		c0.42,1.29,1.3,2.5,1.2,4.1c0,0.8,0.38,1.6,0.6,2.4c3.98,14.65-1.64,20.49,0,31.89c0.32,2.21-0.4,1.85-0.4,9.2
		c0,9.52-2.47,10.73-0.1,18.79c2.42,8.22,6.11,14.65,9.3,18.29c-0.4-2.92-5.04-10.35-5.4-13.59c1.5,0,2.5,1,3.8,1.3
		c6.43,1.48,7.27,1.83,14.99-0.7c-3.57,0.05-8.89,2.34-17.39-1.7c-2.92-1.39-3.77-3.31-4-8.5c-0.4-9.1,0.31-15.95,0-16.79
		c-0.6-1.9-0.02-3.51,0.7-5.2c3.64-8.58,5.54-16.93,17.29-23.09c5.24-2.74,8.5-3.01,9.8-5.5c0.86-1.65,9.52-7.42,14.99-9.5
		c15.35-5.81,17.64-3.71,22.99-7.6c7.31-5.31,14.76-8.67,25.89-15.99c2.91-1.91,5.58-7.99,15.19-13.39
		c6.41-3.6,25.22-7.95,24.59-11.09c12.81-7.19,19.58-9.1,18.19-14.49c0.4-2,0.12-4.1-0.3-6c-0.48-2.2,0.03-4.3,0.2-6.4
		c0.13-1.6,0.1-1.6-1.4-3.1c1.4-1.8,2.3-4.1,4.3-5.8c1,0.5,2.1,1.1,3.1,1.6c-1.3,2.49-5.01,4.56-4.4,6.4c1.66-0.42,4.58-4.33,6.7-6
		c0.89-0.71,2.22,0.52,3-0.6c1.41-2.02,3.6-1.4,3.9-1.4c0.37,5.23-0.59,5.45,2.2,2.1c1.4-0.1,1.6,0.8,1.9,1.8
		c-1.52,2.78-2.91,3.83-0.9,4.5c0.7-0.7,1.4-1.4,2.2-2.1c2.27,0.57,2.68,1.78,2.1,3c-0.69,1.44-0.97,0.94-1.7,3.5
		c1.3,0.5,3-0.2,3.7,1.7c-0.2,0.7-0.5,1.7-0.9,2.9c1.9-0.2,2.1-1.7,3-2.6c0.7-0.7,1-1.6,1-2.6c0-2.9-2.41-3.17-3.4-3.6
		c-0.56-4.44,0.64-5.22-3.5-5.5c-2.52-2.94-1.51-2.43-3.5-2.1c-1.04-3.64-2.44-1.79,7-4.1c2.4-0.59,5-0.4,7.5-1.6
		c-4.9-1.5-17.09,1.1-20.99,4.3c-1-1.33-0.86-1.6-1-2.3c8.45-3.34,17.75-3.86,23.79-4.6c0.8,0.8,1.61,1.6,1.5,2.7
		c-0.18,1.7,0.5,3.6-1.3,5.2c-0.1-1.2-0.2-2.3-0.3-3.4c-2.13,0.39,0.76,1.52-5.6,21.79c-0.78,2.47-2-1.26-3.8,0.2
		c1,1.3,1.8,2.5,2.8,3.7c-1.7,2.2-3.7,3.8-5.9,5.2c-3.09-2.06-1.24-2.29,1.1-6.8c0.31-0.6,0.9-1.2,0.3-2
		c-2.19,1.46-3.71,7.35-9.2,10.1c-2,1-5.93,4.97-6.8,5.1c-4.86,0.36-30.12,26.31-38.18,32.28c-1.49,1.11-3.31,1.79-4.8,3
		c-1.1,0.89-2.8,1.2-4.3,1.7c-6.74,2.69,1.24-2-8.9,3.7c-1.61,2.81,1.27,1.45-24.89,18.89c-7.14,4.76-9.41,4.25-11.69,7.6
		c-1.79,2.23-0.11-1.82-14.19,8.8c-2.28,1.72-3.6,4-3.9,7c-0.57,5.77,0,15.32,0.6,4c2.98,7.15,1.58,14.81-4.2,20.59
		c-11.17,11.17-16.05,8.81-15.19,11.09c0.2,0,0.5,0.1,0.6,0.1c24.35-11.78,24.9-19.36,19.49-35.58c2.92,0.37,5.13,3.22,13.99,5.9
		c4.3,1.3,7.13,4.26,10.3,6.9c2.73,2.27,3.41,5.8,3.3,9.2c-0.31,9.39-4.17,12.24-7,14.59c0.4,3.58,1.69,6.87,1.5,10.35
		c0.15,0.25,0.79,1.82,2.89,9.15c1.34,4.68,0.18,7.6,2.9,19.09c0.52,2.19,1,4.4,1.4,6.4c-2.1,3.2-1.2,6.2-0.3,9.5
		c0.3-0.8,0.5-1.3,0.8-2.2c1.5,6.9,2.6,17.09,2.3,21.09c-2.16,0.27-0.87,0.2-15.48,0.2c-0.18,3.01,8.73,1.3,15.88,1.3
		c1.03,2.44,0.41,2.8-1,14.99c0.6-0.1,1-0.1,1.5-0.2c0.39,6.02,2.8,19.25,4.6,23.79c1.89,4.77,2.4,10.12,3.9,19.59
		c-4.26,3.89-7.07,4.09-24.49,9.9c-3.1,0.77-1.32,4.16,18.59-3.8c2.21-0.88,4.1-2.4,6.2-3.6c2.35,5.7,0.57,41.32-4.4,63.07
		c-4.33,18.95,0.65,8.38,3.7-7.2c0.48-2.46,0.38-7.75,0.9-10c4.19-18.26,3.44-34.61,1.3-50.58c-1.48-11.07,1.01-0.94-1.5-11.19
		c-2.69-10.96-2.35-3.45-5.5-21.89c-0.43-2.49-0.74-4.98-1.9-7.2c-1.02-1.96,0.5-12.53,0.5-12.79c0-1.59-0.33-1.45-1.1-11.59
		c-0.86-11.44-4.54-18.07-3.3-21.39c0.19-0.51-0.07,0.61-2.2-15.99c-2.16-16.79-4.05-12.55-5.1-28.29c1.9-1.6,3.6-3.2,5.4-4.8
		c1.38-6.72,1.72-8.14,0.5-16.29c0-1.1-3.81-5.85-5.6-7.3c-6.11-4.96-15.91-9.44-16.29-9.7c0.5-1.8,1.29-3.21,2.9-4.3
		c7.78-5.27,7.14-9.97,13.89-12.69c3.19-1.29,13.58-8.44,16.29-10.4c7.32-5.27,5.93-5.19,11.69-10c0.6-0.6,1.58-1,1.8-1.7
		c0.65-2.11,2.4-2.8,4.2-3.5c2.7-1.35,2.61,0.43,4-0.4c17.02-8.99,8.14-2.97,29.29-21.89c9.91-8.86,10.52-11.5,19.69-15.59
		c4.45-1.98,7.59-5.49,10.5-8.4c2.18,1.45,2.74,2.94,4.6,3.6c2.44-0.91,6.45-3.85,6.9-5.2c1-3.9,2.86-7.58,3.7-11.49
		c0.32-1.49,0.3-3.1,2-4c0.35-1.27,1.4-3.23,1.8-11.19c0.25-4.89,3.13-3.69,3.4-7.5c0.54-3.79,2.66-4.44,10-11.19
		c3.31-3.05,0.81-2.49,5.3-2.6c4.28-0.1,4.44-3.8,4.9-6.1C811.73,0.99,811.06,2.07,809.51,0.51z M578.57,86.11
		c0.69-0.83,1.56-0.73,2.44-0.54c0.87,0.19,2.01,0.21,2.36,1.29C581.77,86.58,580.17,86.38,578.57,86.11z M583.49,86.97
		c0.36,0,0.67,0,1.32,0C584.08,87.52,583.77,87.31,583.49,86.97z M576.22,166.44c-5.8,5.41-5.82,9.39-8.9,13.69
		c-0.1-3.4,0.42-6.19,1.1-9.1c1.11-4.75,7.78-7.63,12.59-8.4C579.41,163.94,577.72,165.04,576.22,166.44z M659.58,119.66
		c-1.49,2.98,0.26,2.4-2.6,3.3c-4.57,1.43-3.73,3.37-7.4,4.7c-6.54,2.86-4.63,2.05-6.4,2.4c0,0.3,0.1,0.6-0.4,0.3
		c10.77-10.77,6.84-10.86,20.99-15.1C661.87,117.13,660.25,118.48,659.58,119.66z M714.05,73.28c-0.81,5.86,0.3,5.27,0.3,14.49
		c-6.66,4.44,1.1,2.1-2.2-11.99C712.85,74.08,712.85,74.08,714.05,73.28z M720.75,63.28c-0.16-0.16-0.46-0.12,0.3-0.5
		C721.24,62.98,721.39,62.96,720.75,63.28z M724.25,63.68c-0.5,0.8-1.2,0.6-1.7,0.1C723.16,61.65,724.58,63.02,724.25,63.68z
		 M740.34,74.08c2,0.9,2,0.9,1.6,3.1c-1-0.3-1.9-0.7-2.6-1.7C739.64,74.98,740.04,74.48,740.34,74.08z M737.64,68.78
		c0.3,0.2,0.5,0.4,0.8,0.6c0,0-0.2,0.5-0.3,0.4C736.96,69.39,737.41,69.24,737.64,68.78z M618.1,182.63c0.35,0,0.22-0.41,0.65,0.5
		C618.09,183.13,618.1,182.98,618.1,182.63z M620.3,183.73c-0.56,0-1.11,0.08-1.43-0.47C619.27,183.45,619.83,183.64,620.3,183.73z
		 M615.9,181.63c-6.23-0.78,3.81-7.13,9.2-10.4c0.2-0.2,0.7-0.1,1-0.1C624.52,172.71,620.25,176.97,615.9,181.63z M741.62,91.1
		c0.47-0.45,1.03-0.94,1.92-1.83C742.63,90.73,742.54,90.86,741.62,91.1z M744.64,85.87c0-0.1-0.1-0.2-0.1-0.2
		c0-0.1,0.1-0.2,0.1-0.3C744.64,85.55,744.91,85.6,744.64,85.87z M752.03,58.59c-0.5-0.7-0.9-1.1-1.5-2c1.82-0.73,2.31-1.38,2.9-0.5
		C754.19,56.85,753.08,57.54,752.03,58.59z"/> <path d="M647.78,427.51l-0.1,0.1C647.81,427.7,647.78,427.69,647.78,427.51z"/> <path d="M682.87,560.35c-3.92-3.83-10.72-2.58-15.49-12.29c-1.32-2.69-2.35-5.47-4-8c-0.52-0.79-0.61-1.8-1-2.7
		c-0.3-0.7-0.8-1.4-1.1-2.1c-2-0.2-3.6,1.4-5.6,0.3c-3.34-4.77-3.35-41.89-4-54.57c-1.38-26.96-0.3-17.91-4.1-33.08
		c1.2-1.9,1.56-4.2,1.7-6.6c0.12-2.2,0.88-4.94,0.4-7.1c-1.01-6.76-1.33-6.17-1.9-6.54c0,19.64-1.31,15.38-2.6,20.53
		c7.33,14.66,1.42,44.7,7.7,87.06c-0.7,0.1-1.3,0.2-2.1,0.3c-1.7,2.4-3.48,4.6-4.5,7.6c-0.78,2.3-2.1,4.6-5.3,5
		c-2.1-1.2-2.5-3.5-3.3-5.5c0-0.9,0.9-0.8,1.2-1.2c0.3-0.3,0.71-0.8,0.7-1.2c-0.05-2.2-0.1-4.5-1.6-6.7c-1.11,4.08-0.4,6.58-2.2-5.1
		c-1.15-7.48-0.64-6.3-3-16.49c-0.21-0.9-0.78-1.89-0.6-2.8c0.94-4.75-6.57-9.7-9.8-25.89c-1.04-5.23-0.09-29.07,0.4-30.29
		c1.6,0.4,0.9,2.3,2.3,2.9c1.26-3.47-6.9-5.56-6.9-33.98c0-3.29-0.43-2.67-3.5-14.49c-3.89-14.97-0.7-8.98,3.3-35.48
		c1.42-9.41,1.42-10.5,3.6-14.49c5.59-10.22,3.36-5.29,4.4-7.9c-2.17,1.01-6.07,7.77-7,11.39c-1.01,3.93-0.88,4.46-6,2.8
		c-13.5-4.38-20.35-3.94-36.88-5.1c0-2.49,1.26-3.16-1.3-6.7c-12.5-17.28-1.74-30.89-4.5-30.89c-3.68,10.25-3.92,23.26,2.8,31.79
		c1.99,2.53,1.63,5.07,1.4,5.3c-1.04,1.73-1.32,9.86-2.8,15.09c-2.75,9.71-3.14,40.32-4.1,43.78c-2.7,9.77-10.18,24.27-13.59,30.39
		c-1.91,3.43-4.31,9.37-5.4,11.29c-13.62,24.18-2.48,85.92-7.1,97.45c-1.2,0-2.4,0-3.6,0c-0.62,1.36-1.8,3.74-1.8,4
		c0.05,2.4-0.93,4.69-1.2,7c-0.11,1,0.19,2.1,0.3,3.2c0.56,5.66-1.17,4.21-1.7,8.2c-1.24,9.33-0.58,7.29-2,8
		c-4.47,1.03,2.51,8.92,19.29,7.6c12.2,6.39,19.67,6.28,26.19,5.4c3.27-0.44,7.74,2.62,19.09-2.8c6.06-2.89,4.94-3.66,7.1-2.8
		c2.47-2.47-0.36-10.36-4.6-14.59c-6.87-1.19-9.63-1.33-11.09-2.5c-3.44-2.73-7.37-3.36-9.9-7.4c-5.7-10.36-7.11-11.59-7.41-11.6
		c0.01-0.05,0.01-0.11,0.01-0.19c-1.6-3.6-4.6-6-7.5-8.9c-0.11-5.47-1.85-20.5,2.2-32.78c6.78-20.54,6.68-19.55,6.9-21.49
		c0-5.48,3.19-9.59,5.2-23.39c1.53-10.56,4.54-9.66,8.9-16.19c5.62-5.44,3.42-12.18,7.6-15.79c5.51-4.77,12.09-14.85,11.79-19.89
		c0-1.98-0.4-0.41,6.6-17.59c1.47,4.4,1.32,9.01,4.3,16.39c1.16,2.86-0.21,2.45,1.5,19.99c1,10.24,2.55,7.78,2.5,14.69
		c-0.09,11.59,0.62,20.78,0.2,25.39c-0.51,5.6,4.1,17.7,6.8,22.79c3.1,5.85,4.05,11.55,5.2,15.19c0.79,2.53-0.17,1.68,0.3,5.2
		c2.63,19.63,3.05,16.38-0.2,17.19c-0.47,1.4-0.15,2.71,0.3,3.93c-0.71,0.11-1.29,0.35-1.4,1.17c-1.34,10.3,2.23,11.31-3.8,25.39
		c2.67,3.74,5.2,3.7,12.39,5.2c3.7,0.77,9.8-0.61,12.09-1.3c2.84,2.03,5.1,3.12,5.1,3.6c0.4,1.9,2,2.3,3.5,2.7
		c15.4,4.09,11.8,2.69,28.29-1c8.89-1.99,5.44-4.08,8.4-2.6c0.2-0.3,0.5-0.5,0.6-0.8c0.5-3.8-0.83-7.18-2.9-10.1
		C690.9,558.79,684.7,562.14,682.87,560.35z M563.72,553.15c0.7,2.5,3.5,3.7,3.8,6.6c-4.5,1.4-9,3.3-11.79,8.7
		c4.44-2.39,8.94-5.1,14.89-5.1c0.5,0,0.8,0.4,0.5,1.2c-4.6,1-7.8,4.4-11.09,7.6c0.69,2.3,0.43-0.97,14.59-3.8
		c0.3,0.5,0.5,0.8,0.8,1.3c-2.99,0.85-6.57,1.36-8.9,4.6c-0.29,0.41-0.4,0.9,0.3,1.3c3.5-1,7.4-1.1,10.69-3.2
		c0.51,0.68,1.07,0.83,0.6,1.3c-2.49,1-3.87,1.32-5.5,3.1c-1.1,1.47-0.09,1.29,4.7,1c1.7-0.1,3.1-1,4.5-2.2
		c4.9,3.2,10.1,5.6,15.99,5.3c1,2,2.4,3.8,2.4,6c-6.7,2.8-8.1,4.1-10.1,8.8c4.36-3.08,4.85-3.6,9.9-5.5c1.01-0.38,1.2-0.1,1.7,1.5
		c-21.72,10.14-10.21,4.25-25.79,6c-6.88,0.77-18.18-0.87-23.09-6.1c-5.27,0-2.17,1.23-13.19-0.2c-2.5-0.32-3.9-1.1-5.6-2.8
		c0.2-0.8,0.6-1.5,0.7-2.3c1.49-7.43,1.4-8.33,1.9-9c3.85-4.4-2.52-12.45,2.9-18.59c0.3-0.4,1-0.4,1.6-0.7c0.4,2.6-0.4,4.7-1.3,6.7
		c0.5,2.2,1.4,4,3.3,5.2c4.1-1.3,6.8-4.3,9.3-7.5c0.48-0.48,1.8-6.06,2.6-7.5C557.82,553.25,560.72,553.55,563.72,553.15z
		 M599.31,428.41c-7.02,10.68-7.27,11.19-8.1,11.69c-2.74,1.68,0.46,5.8-9.8,17.49c-5.89,6.71-5.14,9.34-6.2,10.4
		c-0.78-0.78-0.62-0.9-1.5-0.9c-1.6,2.2-2.5,4.7-2.9,8.3c1.6-1.8,2.3-3.9,3.9-5.5c0,3.89-0.14-1.65-4,18.79
		c-2.61,13.83-4.75,14.67-6.2,23.09c-1.08,6.26-1.28,2.92-1.9,6.4c-6.5,36.69,3.21,29.95-8,33.68c-2.96,0.99-3.68,5.59-2.8,7.8
		c-6,6.1-6,6.1-8.6,7c-0.5-1.1-0.9-2.1-1.4-3.3c1.89-2.52,1.14-2.1,3.5-2.1c1.5-3.2,1.9-5.4,1.5-8.3c-1.3,0.6-1.2,2.2-2.4,3.3
		c2.12-25.49-1.72-40.41-0.4-63.57c1.6-28.07,6.56-32.52,6.9-34.18c0.44-5.04,16.03-23.77,17.89-38.98c0.29-2.4,1.56-9.74,2-14.19
		c0.01-0.1,3.47-42.5,5-44.68c2-0.77,5.53,0.18,12.79,0.4c7.6,0.23,14.9,1.79,22.19,3.6c2.4,0.6,4.5,2,6.8,2.8
		c-0.18,4.38-2.51,6.25-3.4,10.69C611.12,393.51,605.25,419.36,599.31,428.41z M687.46,576.64c-19.2,4.9-19.75,3.56-29.89-2.6
		c-3.72-2.26-1.89-0.97-4.1-3.5c-8.41,1.8-7.43,2.34-9.7,2.3c-9.6-0.17-8.86-2.68-12.09-2.4c-1,0.09-1.8-0.6-2.2-1.9
		c0.3-0.2,0.9-0.4,1-0.8c3.26-8.42,2.96-13.42,2.5-25.15c1.13-0.57,0.45-2.27,1.8-3.04c1.5,1.6,1.22,3.79,2,5.5
		c0.82,1.79,2,3.5,3,5.2c2-0.1,3.89-0.31,5.1-1.6c5.57-5.98,2.52-7.79,7.6-11.09c4.43,3.1,1.05,1.41,8.1-0.7c0.6,2.5,1.9,4.5,2.5,7
		c-2.1,0.3-4,0.7-5.8,1c-2.92,1.75-9.3,4.9-7,7.2c7.03-3.68,5.93-3.89,13.79-5.6c3.26,2.44-1.43,2.44-5.3,3.7
		c-1.89,0.61-2.4,1.2-3.2,3.3c10.24-2.34,11.99-3.06,11.29-1.2c-2.31,0.63-8.19,2.24-6.9,4.3c3.2,0.3,6.1-1.6,9.4-1.9
		c0.7,0.7,1.4,1.5,2.2,2.4c-1.69,0.84-5.1,2.15-4.1,3.4c1.24,1.74,5.21-0.88,6.9-2c7.13,1.24,6.63,5.53,14.89,4.5
		c2-0.1,3.49,0.8,4.3,2.6c1.09,2.41,2.1,4.8,2.4,7.6C693.96,574.31,692.73,575.3,687.46,576.64z"/> <path d="M591.41,287.38c-2.3,3.3-4.12,6.98-6.2,10.4c-1.49,2.45-3.02,3.89-9.9,13.59c-3.04,4.3-2.76,6.82-0.6,3.6
		c0.08-0.1,14.38-18.16,18.79-26.99c2.74-1.13,0.98-0.19,26.19,3.1c21.4,2.79-2.03-2.26-12.79-3.5c-2.6-0.3-5.21-0.17-7.6-1.5
		c-0.7-0.39-1.6-0.2-2.5-0.3c-0.6-0.1-1.1-0.2-1.7-0.2c0-9.02,4.18-5.71,0.8-21.49c10.56,7.68-7.32-9.81-13.39-19.39
		c18.72-10.01,11.31-3.89,17.09-6.8c22.84-11.5,33.65-3.95,34.86-8.83c-17.23-3-25.4,4.34-32.56,6.13c-10.6,2.64-9.38,3-20.09,7.8
		c-4.03-1.49-5.18-5.82-6.6-8.3c-4.07,0.9,11.72,17.82,16.49,24.79c4.68,6.84,3.84,12.43,2.4,21.39
		C593.72,283.28,592.81,285.38,591.41,287.38z"/> <path d="M572.92,316.36l0.1,0.1C573.02,316.34,573.08,316.36,572.92,316.36z"/> <path d="M573.52,123.86c1-0.1,1.4-0.7,1.2-1.7c-3.98,0-2.44,0.76-7.8-1.3c-4.32,5.13-2.67,8.26-2.5,9.2c-0.7,0-1.1,0-1.5,0
		c3.12,4.28,2.42,4.35,2.8,1.3c3.62,1.07,4.07,3.14,5.4,4.7c1.16,1.36,3.97-0.28,2.1-3.2c-0.4,0.7-0.8,1.4-1.1,1.9
		c-1.37-1.56-2.74-3.13-4.02-4.6c-1.15-0.29-2.1-0.68-2.17-2.04c0.44,0.19,0.89,0.44,1.33,0.62c0.89,1.53,0.95,1.33,0.75,1.33
		c-0.27,0-0.24-0.13,3.41,1.28c0.4-0.5,0.9-1.2,1.5-2c-0.5-0.6-0.8-1-1.3-1.6c0.24-0.97,1.03-2.75-0.64-2.69
		C570.24,123.19,569.88,123.86,573.52,123.86z M565.86,127.92c-0.64-0.32-0.24-0.71-0.24-0.87
		C565.75,127.19,566.06,127.27,565.86,127.92z M570.27,123.66c-0.52,0.01-1.02,0.03-1.3-0.52
		C569.55,123.07,569.99,123.11,570.27,123.66z M568.71,123.06c-1.08,0.04-1.04,0.12-1.89,0.8
		C567.68,122.22,567.72,122.17,568.71,123.06z M570.82,125.21c0.02,0.5,0.07,1.17-0.2,1.44c-1.92,1.71,1.59,3.65-3.21,1.93
		c-0.2-1.47-0.46-2.85,1.11-3.93C569.29,126.24,568.05,125.98,570.82,125.21z"/> <path d="M568.82,125.85l0.1,0.1C568.88,125.84,568.91,125.81,568.82,125.85z"/> <path d="M284.95,560.85c0.39-3.54-11.73-2.41-15.19-1.7c-0.5,0.1-1,0.5-1.8,1.1c1.2,0.3,2,0.6,2.7,0.8
		C273.56,561.35,281.85,561.35,284.95,560.85z"/> <path d="M269.96,564.55c21.86,4.07,20.24-4.85-1-1.1C269.46,563.95,269.66,564.45,269.96,564.55z"/> <path d="M281.75,569.05c0.7-0.01,1.5-0.6,2.2-0.8c-0.2-1.4-1-1.91-2-2c-2.59-0.24-9.11-0.55-11.29,1.2
		C274.06,569.72,276.81,569.12,281.75,569.05z"/> <path d="M282.45,572.24c0.09-0.28-0.53-1.5-1.2-1.5c-8.48-1.36-6.9-0.69-9.3,0c0.3,0.6,0.4,0.9,0.6,1c2.6,1.3,5.4,1.9,8.3,1.6
		C281.61,573.34,282.45,572.5,282.45,572.24z"/> <path d="M633.29,342.15c4.07-3.71,17.22-15.16,12.29-12.69c-7.17,4.34-9.88,8.87-12.49,12.09
		C633.09,341.65,633.19,341.85,633.29,342.15z"/> <path d="M575.22,111.66l-0.1-0.1C575,111.62,575.11,111.62,575.22,111.66z"/> <path d="M556.03,116.16c6.16,0.77,5.1,0.52,14.5-0.71c0.83-0.11,1.57-0.68,2.31-1.09c0.31,0.16-0.16,0.2,0.98-1.3
		c1.4-1.83,1.85-1.23-0.5-2c-0.58,0.71-3.66,6.46-2.5,1.8c-3.44,1.32-5.88,2.9-10.89,2.9C558.62,115.76,557.32,115.76,556.03,116.16
		z"/> <path d="M279.26,591.24c2.7,0.6,4.8,3.4,8,2.7c0.2-1.2-0.4-1.4-0.9-1.6c-4.89-1.91-9.01-3.6-14.79,1.9
		C273,594.4,278.03,591.85,279.26,591.24z"/> <path d="M580.71,141.45c4.12,7.12,2.99,4.93,4.8,7.2c-0.3-2.4-2-3.5-2.4-5.3c0.4-0.2,0.8-0.4,1.2-0.6c-0.1-0.2-0.1-0.4-0.2-0.5
		c-7.04-3.22-8.7-10.13-8.7-5.9C575.93,139.06,578.61,140.4,580.71,141.45z"/> <path d="M634.99,203.52c0.3-0.9,0-1.7-1.1-1.7c-0.5,3.14-0.55,4.99-2.17,13.43C634.31,214.13,634.35,209.67,634.99,203.52z"/> <path d="M597.31,115.66c0-4.1,0-4.1,1.2-6.5c-3.6,1.3-4.3,1.8-5.6,4.3c0.4,0,0.9-0.1,1.3-0.1
		C595.54,114.69,591.35,115.86,597.31,115.66z"/> <path d="M279.56,576.44c-2.74-0.5-5.26-0.6-5.9,2.1c2.1,0.9,4,1.1,5.9,0.4C280.83,578.62,280.06,576.44,279.56,576.44z"/> <path d="M623.09,161.54c2.6-3.2,3.2-6.4,4-10C625.17,151.82,625.54,150.34,623.09,161.54z"/> <path d="M572.84,109.16c1.38-0.31,1.88-1.5,2.58-2.5c0.2-0.1-0.2-0.7-0.3-1c-0.3-0.1-0.8-0.4-0.9-0.4c-2.14,2.9-5.92,1.76-7.8,3.1
		C571.53,108.66,572.03,108.04,572.84,109.16z"/> <path d="M572.82,109.16l0.1,0.1C572.91,109.24,572.85,109.16,572.82,109.16z"/> <path d="M644.58,322.06c-1.54,1.02-0.58-0.46-6.7,9.2C634.25,337,639.27,332.03,644.58,322.06z"/> <path d="M586.51,92.87c-2.4-1.2-4.1-1.1-8.3,0.4c3.04,0.7,3.26,1.13,3.35,0.95c0.73,0.76,0.67,0.93,1.15,0.45
		c0-0.42,0.04-0.2-1.13-0.48C583.05,92.43,584.33,95.32,586.51,92.87z"/> <path d="M200.89,358.25c0,6.1,0.5,9.4,1.9,12.09C202.99,366.14,201.99,362.54,200.89,358.25z"/> <path d="M568.72,97.67c3.5,0.3,7,0.5,10.6,0.8c0-0.4,0-0.7-0.1-0.7c-0.9-0.3-1.8-0.6-2.7-0.7
		C567.71,97.07,568.72,97.12,568.72,97.67z"/> <path d="M634.19,435.21c0.53,0.53,0.76,1.32,3.9,1c1.1-0.11,2-0.6,2.7-1.5c0.8-0.8,0.3-1.8,0.3-2.6
		C639.39,434.01,639.39,434.01,634.19,435.21z"/> <path d="M594.01,355.55c0.29-0.29,0.4,0.99-1.4-12.19C591.95,353.48,594.01,356.04,594.01,355.55z"/> <path d="M590.31,107.66c1.97,0-0.12,0.71,8.6-3.2C594.51,104.36,594.21,104.46,590.31,107.66z"/> <path d="M562.92,133.95c-4.48-3.52-5.81-4.23-8.6-4.6c0.07,0.59-0.13,0.6,8,5.4c0.3,0.2,0.8,0.2,1.3,0.3
		C563.42,134.65,563.22,134.15,562.92,133.95z"/> <path d="M568.82,102.67c0.06-0.13,0.03-0.1,0-0.1C568.82,102.57,568.72,102.37,568.82,102.67z"/> <path d="M568.86,102.57c1.64,0.11,4.96,0.35,4.96-1.8C568.79,100.77,569.69,100.4,568.86,102.57z"/> <path d="M636.59,472.59c-0.5-3.1-0.9-5.8-2.9-8.3C633.69,466.49,634.89,469.89,636.59,472.59z"/> <path d="M573.72,188.82c1.6,1.9,3.4,3.5,6.1,5.2C574.93,187.18,576.81,189.27,573.72,188.82z"/> <path d="M645.68,149.44c0.8,0.5,1.39,0.4,1.6-0.1c0.58-1.41,1.1-2.8,0.8-4.4C646.38,146.34,646.38,146.44,645.68,149.44z"/> <path d="M574.22,114.96c-0.51-0.16-0.87-0.33-1.21-0.5c-0.06,2.01-2.54,3.51-3.59,5.2C571.82,118.96,573.32,117.36,574.22,114.96z"/> <path d="M575.72,117.56c-1.8,1.3-3.4,2.4-5.1,3.7C572.65,122.13,576.02,119.85,575.72,117.56z"/> <path d="M570.32,180.83c-0.55,1.65,0.26,6.08,1.8,6.7C571.57,184.66,571.47,181.21,570.32,180.83z"/> <path d="M555.63,101.37c-2.5,0.7-4.1,2.5-6,4.8c0.7-0.1,1.1-0.1,1.2-0.2C552.18,104.32,556.09,102.3,555.63,101.37z"/> <path d="M643.58,448.8c1.15-1.91-1.53-2.92-2.5,1.9C642.09,450.3,642.98,449.8,643.58,448.8z"/> <path d="M643.58,426.41c-0.8,2.2-2.2,3.7-2.6,5.6C643.18,429.71,643.58,428.81,643.58,426.41z"/> <path d="M641.59,320.56c-0.5,1.4-1.2,2.6-1,4.3C641.99,322.56,641.99,322.56,641.59,320.56z"/> <path d="M638.49,523.97c-1.2,1.2-1.2,1.3,0,2.9C638.79,525.57,638.79,525.57,638.49,523.97z"/> <path d="M637.99,521.87c0.1,0.1,0.3,0,0.3,0c1.37-1.03-0.6-3.61-0.6-2.9C637.39,519.97,636.89,520.97,637.99,521.87z"/> <path d="M530.84,156.94c0.29,0.29,0.2,0.35,0.2-4.5C530.75,152.44,530.84,151.94,530.84,156.94z"/> <path d="M627.89,216.91c-0.9,0.8-1.7,1.5-2.7,2.4C627.19,219.21,627.19,219.21,627.89,216.91z"/> <path d="M550.63,127.25c1.2,1.2,2.1,2.1,3.6,2.1C553.2,128.32,552.07,126.92,550.63,127.25z"/> <path d="M580.31,95.67c-1.5-1.2-1.5-1.2-4.2-1.2C577.82,94.97,578.91,95.27,580.31,95.67z"/> <path d="M194.69,367.14c-1.1-0.7-2.1-1.3-3.8-0.8C192.4,366.64,193.3,367.54,194.69,367.14z"/> <path d="M638.29,529.07c0,1.4,0,2.2,0,3.2C639.69,531.26,639.69,531.26,638.29,529.07z"/> <path d="M559.32,99.37l-0.1-0.1C559.07,99.46,559.03,99.41,559.32,99.37z"/> <path d="M555.73,101.47c1.43-0.19,2.5-1.02,3.38-2.06C556.64,99.78,555.51,101.25,555.73,101.47z"/> <path d="M224.98,351.05c-1.25,0.09-2.4,0.48-3.38,1.31C222.89,352.47,223.94,351.81,224.98,351.05z"/> <path d="M221.32,352.52c0.14-0.05,0.17-0.08,0.28-0.16C221.34,352.36,221.4,352.3,221.32,352.52z"/> <path d="M621.99,162.74c-0.3,0-0.8-0.1-0.8,0C619.37,165.47,621.69,165.79,621.99,162.74z"/> <path d="M566.72,140.05c-0.4-1.4-1.3-1.9-2.4-2.1C564.52,139.25,565.52,139.55,566.72,140.05z"/> <path d="M558.56,135.79c0.02,0,0.05,0,0.08,0c-0.01-0.02-0.01-0.03-0.02-0.05C558.6,135.77,558.58,135.78,558.56,135.79z"/> <path d="M558.56,135.79C558.45,135.8,558.48,135.84,558.56,135.79L558.56,135.79z"/> <path d="M558.65,135.79c0.51,1.35,1.59,1.45,2.88,1.35c-0.1-0.9-0.9-0.6-1.3-0.9C559.31,135.88,558.85,135.8,558.65,135.79z"/> <path d="M556.33,134.45l0.1-0.1C556.22,134.32,556.24,134.24,556.33,134.45z"/> <path d="M556.27,134.31c-0.52-1.29-1.58-1.77-2.74-2.06C554.2,133.2,555.06,134.06,556.27,134.31z"/> <path d="M712.85,102.17c1.2-0.4,1.2-0.4,1.6-2C713.95,100.77,713.45,101.37,712.85,102.17z"/> <path d="M632.59,198.62c0,1.5,0.2,2.5,1.3,3.2C633.89,200.72,633.79,199.62,632.59,198.62z"/> <path d="M641.89,317.16c0.4-0.7,1.2-1.4,0.6-3C642.19,315.57,642.09,316.36,641.89,317.16z"/> <path d="M736.64,79.48c0.2,0.4,0.4,0.8,0.6,1.1C738.3,81.63,738.66,78.87,736.64,79.48z"/> <path d="M617.7,167.63c0.77,0-0.09,0.68,2.2-1.1C617.42,166.98,618.07,166.51,617.7,167.63z"/> <path d="M639.49,490.18c-0.9,0.8-0.9,0.8,0.1,2.5C639.49,491.58,639.49,490.98,639.49,490.18z"/> <path d="M625.09,362.74c-0.6,0-1.2,0-1.7,0.1C625.35,362.84,625.09,362.88,625.09,362.74z"/> <path d="M637.99,476.29c-0.6,1.6-0.6,2.4,0,3.3C637.99,478.69,637.99,477.89,637.99,476.29z"/> <path d="M582.41,202.82c-0.1,0.8-0.1,1.4-0.2,2.2C583.11,204.22,583.11,203.72,582.41,202.82z"/> <path d="M560.62,128.55c0.5,0.2,1.1,0.5,1.5,0.8C562.02,128.55,561.32,128.45,560.62,128.55z"/> <path d="M672.47,134.15c0.2-0.5,0.5-0.9,0.8-1.6C672.07,132.65,671.97,133.25,672.47,134.15z"/> <path d="M224.28,360.24c-0.02,0.04-0.04,0.07-0.05,0.11c0.12,0,0.15,0,0.14-0.02l0.01,0.01
		C224.48,360.24,224.52,360.24,224.28,360.24z"/> <path d="M227.08,359.54c-0.86,0.29-1.91-0.14-2.61,0.71C225.4,360.27,226.33,360.48,227.08,359.54z"/> <path d="M558.46,135.74c-0.41-0.91-1.08-1.29-2.04-1.39C556.81,135.3,557.46,135.78,558.46,135.74z"/> <path d="M565.52,136.05c-0.5-0.8-1.1-1.1-1.9-1C563.92,135.95,564.52,136.25,565.52,136.05z"/> <path d="M622.89,219.21c0,0-0.2,0-0.3,0c-0.9,0.9-0.71,0.59-0.3,1C623.09,219.68,623.16,219.74,622.89,219.21z"/> <path d="M648.08,141.85c0.7-0.6,0.7-0.6,0.9-1.7C647.78,140.25,647.88,140.95,648.08,141.85z"/> <path d="M567.92,110.46c1.49,0,1.3,0.04,1.3-0.1C567.73,110.36,567.92,110.32,567.92,110.46z"/> <path d="M593.01,113.56c-0.5,0.4-1,0.8-1.7,1.4C592.71,114.86,592.71,114.86,593.01,113.56z"/> <path d="M539.33,126.25c0.76,0,0.14,0.78,0.6-2C539.73,124.95,539.53,125.55,539.33,126.25z"/> <path d="M222.18,361.04c0.77,0,1.63,0.26,2.05-0.69C223.47,360.39,222.65,360.1,222.18,361.04z"/> <path d="M220.08,361.74c0.83,0.03,1.64,0.14,2.1-0.6c-0.77-0.1-1.62-0.18-2.13,0.6c-0.56-0.01-1.13-0.08-1.43,0.62
		C219.18,362.46,219.8,362.57,220.08,361.74z"/> <path d="M542.13,197.42c-0.37,0.75-0.71,1.3-0.2,1.3C541.93,198.32,541.93,197.82,542.13,197.42z"/> <path d="M575.85,109.75c-0.18,0.13-0.11,0.09-0.21,0.33C575.86,109.93,575.81,109.98,575.85,109.75z"/> <path d="M576.02,108.26c-0.09,0.6-0.1,1.06-0.17,1.49C576.27,109.38,576.47,108.98,576.02,108.26z"/> <path d="M580.61,196.82c0.4-0.81,0.13-0.6-0.2-1.6C580.23,196.31,580,196.51,580.61,196.82z"/> <path d="M532.14,124.05c0.73,0,0.14,0.64,0.6-1.2C532.54,123.26,532.34,123.66,532.14,124.05z"/> <path d="M711.05,103.96c-1.41,0.94-1.31,1.32-1.11,0.92C710.4,104.95,710.77,104.9,711.05,103.96z"/> <path d="M224.88,350.95c0.77,0,1.62,0.18,2.13-0.6C226.26,350.33,225.44,350.21,224.88,350.95z"/> <path d="M227.08,350.25c-0.11,0.22-0.36,0.05,1.9-0.2C227.98,349.55,227.48,349.65,227.08,350.25z"/> <path d="M572.12,187.53c0.19,0,0.1,0.09,0.1-0.1L572.12,187.53z"/> <path d="M573.62,188.92c-0.38-0.57-0.59-1.23-1.38-1.38C572.28,188.44,572.76,188.82,573.62,188.92z"/> <path d="M211.59,359.14c-0.1,0-0.1,0.1-0.2,0.1C213.02,359.24,211.69,359.14,211.59,359.14z"/> <path d="M535.74,147.64c0.93-1.18-0.13-1.97-0.01-1.91C535.73,145.77,535.74,145.68,535.74,147.64z"/> <path d="M645.32,335.9l-0.04-0.04c-0.85,0.43-0.73,0.33-0.06,0.14c0.11,0.11,0.04,0.07,0.15-0.04l-0.03-0.03
		C645.37,335.88,645.4,335.86,645.32,335.9z"/> <path d="M230.58,349.15l0.1,0.1C230.94,349.12,230.98,349.15,230.58,349.15z"/> <path d="M636.79,343.25l-0.1-0.1C636.27,343.31,636.51,343.3,636.79,343.25z"/> <path d="M635.39,343.85c0.32-0.17,0.7-0.38,1.05-0.57C636.01,343.31,635.55,343.3,635.39,343.85z"/> <path d="M572.62,317.36c0.26-0.26,0.27-0.77,0.3-0.8C572.47,316.79,572.23,316.98,572.62,317.36z"/> <path d="M221.32,352.52c-0.38,0.17-0.77,0.37-1.15,0.54C220.64,353.08,221.11,353.09,221.32,352.52z"/> <path d="M217.08,363.14l0.1,0.1C217.21,363.12,217.29,363.14,217.08,363.14z"/> <path d="M217.22,363.14c0.56,0.01,1.17,0.05,1.36-0.6C218.01,362.54,217.45,362.46,217.22,363.14z"/> <path d="M218.58,366.74c0.16-0.06,0.28-0.11,0.34-0.13C218.96,366.58,218.75,366.66,218.58,366.74z"/> <path d="M218.92,366.61c0,0.01-0.01,0.01-0.04,0.03C218.97,366.59,218.97,366.59,218.92,366.61z"/> <path d="M734.74,74.48c-0.38,0-0.1,0.3-0.1,0.4C734.9,74.88,734.88,74.61,734.74,74.48z"/> <path d="M218.04,354.48c0.43-0.17,0.81-0.34,1.34-0.43C218.83,354.05,218.28,353.89,218.04,354.48z"/> <path d="M218.04,354.48c-0.05,0.03-1.6,0.65-1.66,0.67C216.72,355.09,217.91,354.81,218.04,354.48z"/> <path d="M217.18,363.24c-0.47,0.18-0.93,0.37-1.39,0.55C216.4,363.93,216.91,363.87,217.18,363.24z"/> <path d="M218.48,362.34l0.1,0.1C218.63,362.32,218.68,362.39,218.48,362.34z"/> <path d="M194.78,360.27c0.07,0.05,0.11,0.07,0.19,0.1C195.01,360.21,195.01,360.24,194.78,360.27z"/> <path d="M193.6,359.54c0.09,0.79,0.64,0.81,1.19,0.73C194.34,360.01,193.97,359.82,193.6,359.54z"/> <path d="M646.88,335.26c0.3-0.1,0.6-0.2,1-0.3C647.18,334.56,646.98,334.76,646.88,335.26z"/> <path d="M193.4,361.94l0.1-0.1C193.3,361.8,193.4,361.8,193.4,361.94z"/> <path d="M192.1,361.04c0.1,0.75,0.71,0.63,1.28,0.77C193.23,360.87,192.58,361.04,192.1,361.04z"/> <path d="M193.7,361.84c0.03,0.02,0.03,0.02,0.04,0.03C193.79,361.89,193.79,361.89,193.7,361.84z"/> <path d="M193.74,361.87c-0.05-0.02-0.18-0.08-0.34-0.13C193.57,361.82,193.78,361.9,193.74,361.87z"/> <path d="M192.7,359.14c0.16,0.16-0.04,0.4,0.8,0.4c-0.2-0.1-0.3-0.3-0.5-0.4C192.9,359.04,192.8,359.14,192.7,359.14z"/> <path d="M635.9,334.63c0.08-0.04,0.09-0.06,0.07-0.09c0.03,0.03,0.02,0.01,0.05-0.08c-0.05,0-0.08,0.01-0.13,0
		C635.9,334.51,635.9,334.56,635.9,334.63c-0.45,0.28-0.57,0.76-0.52,1.26C635.83,335.61,635.95,335.13,635.9,334.63z"/> <path d="M227.38,359.44c-0.1,0-0.2,0.1-0.4,0.1C227.08,359.54,228.2,359.44,227.38,359.44z"/> <path d="M629.59,347.45c-0.4,0.16-0.75,0.37-1.13,0.56C628.89,347.99,629.36,347.99,629.59,347.45z"/> <path d="M645.37,335.87c0.52-0.24,0.98-0.42,1.51-0.51C646.33,335.36,645.71,335.28,645.37,335.87z"/> <path d="M628.04,348.21c0.05-0.02,0.33-0.16,0.42-0.2C628,348.05,628.12,348.02,628.04,348.21z"/> <path d="M628.04,348.21c-1.67,0.66-1.45,0.44-1.45,0.54c0.02,0.08-0.02,0.22,0.09,0.01C627.29,348.85,627.81,348.89,628.04,348.21z
		"/> <path d="M549.44,109.17c0.05-0.02,0.09-0.03,0.12-0.04C549.64,109.05,549.58,109.09,549.44,109.17z"/> <path d="M549.56,109.13c-0.01,0.01-0.01,0.01-0.03,0.03C549.61,109.12,549.6,109.12,549.56,109.13z"/> <path d="M631.99,436.11c-0.31-0.15-0.8-0.38-0.8,0C632.05,436.54,631.83,436.11,631.99,436.11z"/> <path d="M638.59,485.29v-0.2C638.46,485.09,638.46,485.03,638.59,485.29z"/> <path d="M627.39,458.6c0-0.99-0.1-0.74-0.1-0.9C626.91,458.47,627.16,458.13,627.39,458.6z"/> <path d="M547.98,109.78c0.49-0.17,0.92-0.33,1.35-0.42C548.81,109.36,548.3,109.39,547.98,109.78z"/> <path d="M547.79,110.03C547.66,110.23,547.77,110.16,547.79,110.03L547.79,110.03z"/> <path d="M547.73,109.86c0.06,0.06,0.07,0.12,0.06,0.17c0.04-0.06,0.09-0.13,0.19-0.25C547.89,109.8,547.82,109.83,547.73,109.86z"/> <path d="M575.64,110.08c-0.44,0.28-0.56,0.72-0.46,1.23C575.33,110.91,575.49,110.48,575.64,110.08z"/> <path d="M575.22,111.56c-0.06-0.26,0-0.35-0.1-0.1L575.22,111.56z"/> <path d="M627.59,458.8c0-0.1-0.1-0.2-0.1-0.3C627.39,458.7,627.49,458.8,627.59,458.8z"/> <path d="M218.48,366.84l0.2-0.1C218.56,366.74,218.6,366.72,218.48,366.84z"/> <path d="M640.92,450.93c-0.05,0.02-0.1,0.04-0.13,0.07C640.91,451,640.87,451.03,640.92,450.93z"/> <path d="M640.92,450.93c0.1-0.03,0.2-0.06,0.27-0.13C641.02,450.71,640.99,450.78,640.92,450.93z"/> <path d="M562.22,129.25l-0.1,0.1C562.3,129.35,562.18,129.41,562.22,129.25z"/> <path d="M562.82,130.05c0-0.46-0.18-0.66-0.6-0.69C562.18,129.86,562.45,130.05,562.82,130.05z"/> <path d="M553.43,132.05c0,0.1,0.1,0.2,0.1,0.3C553.53,132.15,553.43,132.05,553.43,132.05z"/> <path d="M563.52,137.1c0.02,0.05,0.05,0.1,0.1,0.15C563.62,137.09,563.64,137.18,563.52,137.1z"/> <path d="M563.42,136.95c0,0-0.1,0-0.2,0C563.32,137.05,563.66,137.18,563.42,136.95z"/> <path d="M564.32,137.95c-0.18-0.26-0.43-0.45-0.62-0.7C563.58,137.76,563.85,137.95,564.32,137.95z"/> <path d="M563.7,137.25c0.01-0.04,0.01-0.06,0.02-0.1C563.62,137.15,563.59,137.13,563.7,137.25z"/> <path d="M648.88,140.15c0.2-0.1,0.2-0.1,0.3-0.2C649.08,140.05,648.98,140.05,648.88,140.15z"/> <path d="M589.01,154.84l0.2-0.1C588.96,154.74,589.01,154.71,589.01,154.84z"/> <path d="M560.02,94.87l-0.1-0.1C558.27,96.42,559.92,94.94,560.02,94.87z"/> <path d="M558.52,96.37l0.1,0.1C558.6,96.25,558.69,96.2,558.52,96.37z"/> <path d="M559.32,98.97c0,0.04,0,0.08-0.01,0.11C559.64,98.75,559.44,98.85,559.32,98.97z"/> <path d="M559.22,99.17c0.06,0,0.08-0.04,0.09-0.09C559.28,99.11,559.25,99.14,559.22,99.17z"/> <path d="M574.32,102.77c0.2-0.1,0.3-0.2,0.5-0.3C574.32,102.17,574.42,102.57,574.32,102.77z"/> <path d="M573.75,103.34c0.19-0.19,0.43-0.4,0.67-0.48C574,102.78,573.8,102.98,573.75,103.34z"/> <path d="M573.62,103.46l0.1,0.1C573.72,103.36,573.83,103.25,573.62,103.46z"/> <path d="M573.04,104.06c0.2-0.17,0.43-0.33,0.68-0.5C573.3,103.56,573.1,103.71,573.04,104.06z"/> <path d="M572.92,104.16c0.14,0.14,0.08,0.14,0.12-0.1C573,104.09,572.95,104.13,572.92,104.16z"/> <path d="M573.02,104.26c-0.2,0-0.2,0-0.3,0.1C572.82,104.36,572.92,104.26,573.02,104.26z"/> <path d="M705.46,109.36l0.3-0.1C705.63,109.26,705.7,109.24,705.46,109.36z"/> <path d="M572.92,109.26c-0.47-0.1-0.67,0.17-0.78,0.53C572.71,109.99,572.83,109.72,572.92,109.26z"/> <path d="M572.14,109.79c-0.04-0.01-0.07-0.01-0.12-0.03C572.16,109.91,572.09,109.89,572.14,109.79z"/> <path d="M572.16,110.05c0.02-0.03,0.04-0.07,0.06-0.09C572.16,109.96,572.15,110,572.16,110.05z"/> <path d="M572.16,110.05c-0.07,0.1-0.14,0.23-0.14,0.31C572.21,110.17,572.25,110.32,572.16,110.05z"/> <path d="M570.72,112.86c0.2-0.1,0.4-0.1,0.6-0.2C570.97,112.31,571.04,112.22,570.72,112.86z"/> <path d="M562.22,126.35l-0.1,0.1C562.38,126.58,562.35,126.62,562.22,126.35z"/> <path d="M636.79,333.86c-0.46-0.09-0.66,0.17-0.77,0.6C636.51,334.49,636.7,334.23,636.79,333.86z"/> <path d="M634.59,336.56c0.97-0.65,0.98-0.42,0.8-0.6c-0.01-0.02-0.01-0.04-0.01-0.07C635.34,335.9,635.29,336.08,634.59,336.56z"/> <path d="M634.49,336.76l0.1-0.1C634.59,336.51,634.61,336.5,634.49,336.76z"/> <path d="M636.89,342.95c-0.25,0.25-0.23,0.2-0.1,0.2L636.89,342.95z"/> <path d="M635.49,343.85c-0.13,0-0.06-0.02-0.3,0.1L635.49,343.85z"/> <path d="M633.09,345.25c0.33-0.17,0.18-0.1-0.03-0.03c-0.04-0.02-0.74,0.35-1.37,0.73l0.1,0.1c0.82-0.49,1.18-0.73,1.26-0.8H633.09
		z"/> <path d="M631.39,346.25c0.2-0.1,0.3-0.1,0.4-0.2C631.68,345.94,631.6,346.04,631.39,346.25z"/> <path d="M629.63,347.28c0.1-0.04,0.2-0.07,0.26-0.13C629.6,347.15,629.75,347.12,629.63,347.28z"/> <path d="M625.89,349.45c0.51,0,0.72-0.16,0.71-0.58C626.41,349.13,626.15,349.36,625.89,349.45z"/> <path d="M219.28,353.95c0.13,0.13,0,0.25,0.7-0.8c0.21-0.11,0.33-0.1-0.1-0.1C219.68,353.35,219.48,353.65,219.28,353.95z"/> <path d="M216.28,355.35l0.2-0.1C216.35,355.12,216.41,355.09,216.28,355.35z"/> <path d="M195.59,361.04c-0.17-0.04-0.07-0.06-0.1,0.1L195.59,361.04z"/> <path d="M195.49,361.01c0.02-0.37-0.2-0.55-0.53-0.64C194.88,360.73,195.1,360.91,195.49,361.01z"/> <path d="M195.66,361.09c-0.02-0.02-0.05-0.03-0.07-0.05C195.59,361.09,195.62,361.09,195.66,361.09z"/> <path d="M195.79,361.14c-0.05-0.05-0.1-0.05-0.13-0.05C196.25,361.56,195.89,361.14,195.79,361.14z"/> <path d="M214.99,364.64c-0.57,0.34-1.28,0.66-1.38,0.7c-0.03,0-0.04,0.02-0.12,0.1l0.2-0.1c-0.04,0-0.06,0-0.07,0
		c0.08-0.03,0.49-0.21,1.47-0.6c0.49-0.73,0.6-0.86,0.58-0.92l0.02,0.02c0.12-0.08,0.2-0.01-0.1-0.1
		C215.39,364.04,215.19,364.34,214.99,364.64z"/> <path d="M630.99,216.01c0.42-0.14,0.88-0.53,0.72-0.69C631.71,215.2,631.82,215.18,630.99,216.01z"/> <path d="M631.09,216.11C630.89,216.21,630.79,216.41,631.09,216.11L631.09,216.11z"/> <path d="M587.91,218.31l0.1,0.1C588.14,218.15,588.17,218.18,587.91,218.31z"/> <path d="M139.12,280.18c1.02,1.18,1.9,2.7,4.1,3c-0.69-2.08-0.96-1.03-5.6-7.6C137.42,277.98,137.46,278.25,139.12,280.18z"/> <path d="M218.88,276.48c0.4-0.6,0.9-1,1-1.4c0.4-1.2,0.6-2.4-0.7-4C218.28,273.98,218.28,273.98,218.88,276.48z"/> <path d="M133.22,330.26c1.5,0,1.62-0.09,2.3-1c0.51-0.69,0.9-1.4,0.1-2.3C134.22,327.66,133.82,329.06,133.22,330.26z"/> <path d="M112.43,403.52c-1.89,0.95-0.99,2.61-0.4,4.4C113.53,406.32,112.33,405.02,112.43,403.52z"/> <path d="M212.79,270.89c0.48,0.84,1.27,2.58,2.1,3C215.29,272.09,215.09,271.79,212.79,270.89z"/> <path d="M169.31,363.94c-0.4,0.7-1.2,1.2-0.6,2.3c1.1-0.4,1.3-1.5,1.7-2.3C169.91,363.24,169.51,363.64,169.31,363.94z"/> <path d="M197.29,284.68c0.5,0,0.9,0,1-0.1c0.3-0.9,0.6-1.8-0.2-2.9C197.79,282.78,197.59,283.58,197.29,284.68z"/> <path d="M112.13,399.33c-0.8,0.9-0.9,1.5,0,2.5C112.13,400.93,112.13,400.23,112.13,399.33z"/> <path d="M171.71,359.64c-0.37,0.75-0.56,0.64-0.2,1C172.43,359.72,172.38,360.31,171.71,359.64z"/> <path d="M158.31,353.05c-0.3,0.5-0.5,1-0.8,1.6C157.81,354.15,158.11,353.65,158.31,353.05z"/> <path d="M127.33,333.46c0.33,0.33,0.09,0.2,0.7-0.1C127.69,333.03,127.94,333.15,127.33,333.46z"/> <path d="M215.79,278.18c0.1,0.1,0.2,0.2,0.3,0.2C216.35,278.12,216.35,278.18,215.79,278.18z"/> <path d="M198.29,279.68c-0.33-0.33-0.5-0.17-0.5,0C198.15,279.68,197.92,280.05,198.29,279.68z"/> <path d="M240.77,401.82c-0.4,0-0.7,0-0.7,0.1c-1.1,3.4-0.4,6.7,0.2,10.4C241.66,411.39,241.13,413.5,240.77,401.82z"/> <path d="M277.16,454c2.74-0.42,2.7-4.22,0.8-6.8c-0.6,1.2-0.3,2.4-0.4,3.5C277.36,451.7,277.26,452.8,277.16,454z"/> <path d="M263.46,465.2c-0.2,0.4-0.5,0.9-0.5,1c1.5,2,2.9,4.1,5.1,5.7C267.56,468.99,265.86,466.89,263.46,465.2z"/> <path d="M266.46,444.9c0,1.8-0.1,3.5,1.5,5C268.26,447.9,267.46,446.3,266.46,444.9z"/> <path d="M277.96,445.6c0.4-2.3-0.2-3.7-1.7-5.2C276.06,442.51,276.96,443.81,277.96,445.6z"/> <path d="M269.06,476.09c-0.2,1.4,0.6,2.1,1.5,2.8C270.56,477.69,270.26,476.79,269.06,476.09z"/> <path d="M273.16,482.69c0-0.3-0.3-0.4-0.5-0.5c-0.6,0.6-0.4,2,0.5,2C273.76,483.69,273.46,483.19,273.16,482.69z"/> <path d="M271.66,529.76c-0.2,0.8-0.4,1.5-0.5,2.1C271.56,531.36,272.26,530.86,271.66,529.76z"/> <path d="M274.86,491.08c-0.3,0.1-0.4,0.2-0.6,0.3c0.2,0.1,0.3,0.3,0.5,0.4C275.06,491.17,275.19,491.41,274.86,491.08z"/> <path d="M239.77,397.13c0-1.32,0.1-1.1-0.4-1.1C239.37,397.28,239.46,397.13,239.77,397.13z"/> <path d="M238.87,387.93c0,0.72,0.28,0.67,0.4,0.3C238.91,387.87,239.23,387.93,238.87,387.93z"/> <path d="M271.26,519.97c0,0.32-0.22,0.28,0,0.5C271.26,520.32,271.48,520.19,271.26,519.97z"/> <path d="M153.41,464c-1.86,2.72-3.2,5.7-4.3,8.9c2.8-2.2,4.12-5.23,5.6-8.4c0.09-0.2-0.2-0.6-0.3-1
		C154.01,463.7,153.62,463.7,153.41,464z"/> <path d="M154.61,450.9c1.82-1.87,2.1-4.3,2.4-6.8c-2.16,3.07,0.09,2.42-7.4,10.3C152.21,453.7,153.33,452.22,154.61,450.9z"/> <path d="M177.4,409.62c0.4-0.2,0.7-0.3,0.7-0.4c1.94-10.65,1.04-12.31-1-1.2C177.01,408.52,177.3,409.02,177.4,409.62z"/> <path d="M142.82,442.41c-0.3,1.7-1.1,3.4-0.6,5.3c0.4-0.2,0.9-0.3,1-0.5c0.7-1.7,0.9-3.6,0.5-5.6
		C143.32,442.01,142.82,442.21,142.82,442.41z"/> <path d="M131.02,465c-0.1,0.3,0.1,0.6,0.2,1c1.6-2.6,2-4,1.6-6.3C132.09,460.92,132.19,459.55,131.02,465z"/> <path d="M145.72,478.29c0.99,1.23,2.29-1.26,1.6-2.3C146.12,476.29,145.92,477.29,145.72,478.29z"/> <path d="M142.52,488.68c0.99-1.65,0.7-1.63,0.7-3C142.52,486.98,142.52,487.88,142.52,488.68z"/> <path d="M176.6,387.23c-0.5,0.8-0.5,1.7,0.1,2.6C177.2,388.93,177.3,388.03,176.6,387.23z"/> <path d="M129.73,471.09c0,2.23-0.45,2,0.4,2C130.13,470.86,130.57,471.09,129.73,471.09z"/> <path d="M135.72,530.46c0.37-0.37,0.44,0.04,0-1.7C135.54,530.24,135.38,530.12,135.72,530.46z"/> <path d="M142.62,488.78l-0.1-0.1C142.39,488.82,142.37,488.78,142.62,488.78z"/> <path d="M129.63,206.12c-0.1,0.1,0.1,0.7-0.5,0.3c1.28-0.64-0.51-0.2,1.4-2.5c2.1-2.9,4.36-5.55,7.1-7.8c2.33-1.91,1.16-2.22-2,0.6
		c-13.04,11.65-12.45,27.13-15.09,24.49c-0.39,10.59-0.45,6.62,0.1,9.9c4.51-21.41,11.35-24.89,14.62-29.19
		C133.3,201.8,131.36,205.62,129.63,206.12z"/> <path d="M138.92,194.62l-0.1-0.1C138.82,194.65,138.76,194.66,138.92,194.62z"/> <path d="M139.02,227.61l0.1,0.1C139.09,227.5,139.06,227.57,139.02,227.61z"/> <path d="M137.02,226.11c0.95,0.09,1.72,0.47,2.05,1.45c5.2-4.98,11.22-14.54,11.97-16.2c-0.34,0.09-0.7,0.17-1.13,0.26
		c-0.68-3.42,0.94,0.45-10.3,13.79C137.53,225.64,136.29,225.37,137.02,226.11z"/> <path d="M151.12,211.21c-0.08,0.19-0.14,0.15,0.1,0.1L151.12,211.21z"/> <path d="M146.08,230.28c3.2-1.44,9.09-11.29,11.63-17.66c-1,0.2-1.1,1.2-1.5,1.8C146.8,231.05,145.29,227.81,146.08,230.28z"/> <path d="M146.02,230.31l0.1,0.1C146.08,230.24,146.07,230.28,146.02,230.31z"/> <path d="M152.01,232.5c0.7,0.1,1.1,0.3,1.5,0.1c1.5-0.6,2.79-1.4,3.3-3c0.44-1.4-0.79,3.05,3.9-8.5c0.29-0.71,0.3-1.4,0.5-2
		C159.57,219.44,159.88,222.67,152.01,232.5z"/> <path d="M157.51,229.11l0.1-0.1C157.51,229.04,157.54,229.04,157.51,229.11z"/> <path d="M152.67,214.68c-0.6,1.06-0.93,2.32-1.46,1.53c-1,0.4-1.19,1.4-1.7,2.2c-13.74,21.5,3.88-0.22,4.48-4.34
		C153.55,214.25,153.11,214.5,152.67,214.68z"/> <path d="M152.71,214.61l-0.1,0.1C152.7,214.67,152.68,214.69,152.71,214.61z"/> <path d="M154.11,214.01l-0.1-0.1C153.98,214.12,153.99,214.08,154.11,214.01z"/> <path d="M129.93,247.2c1.64,2.56,1.99,0.24,9.1-1c1.86-0.32,1.9-1.29,2-1.5c-0.4-0.1-0.8-0.4-1.2-0.4
		C136.42,244.7,133.12,245.4,129.93,247.2z"/> <path d="M129.63,221.31l-0.1-0.1C129.43,221.44,129.53,221.35,129.63,221.31z"/> <path d="M125.03,231.1c1.2-0.6,1.9-1.8,2-2.8c0.55-3.18,2.13-4.62,2.47-6.94c-1.68,0.67-1.89,5.01-5.47,7.34
		c-0.91,0.59-1.5,1.5-1.9,2.6c1.34-0.84,2.06-1.31,2.41-1.56C124.73,230.13,124.83,230.62,125.03,231.1z"/> <path d="M140.92,249.9c-2.4,0-4.8,0-7.7,0C137.52,252.69,139.12,252.59,140.92,249.9z"/> <path d="M153.41,225.71c-4.6,7.23-4.55,6.07-4.2,7.5C152.69,229.43,154.82,224.3,153.41,225.71z"/> <path d="M141.12,206.82c-2.59,1.55-4.49,4.58-4.94,6.93C138.14,211.65,140.24,208.77,141.12,206.82z"/> <path d="M136.82,192.42c-0.25-0.25-3.26,2.26-5.1,6.4C133.72,197.12,135.62,194.72,136.82,192.42z"/> <path d="M131.7,217.69c0.04-0.03,0.08-0.06,0.12-0.08C131.68,217.47,131.74,217.48,131.7,217.69z"/> <path d="M129.63,221.11c1.44-0.77,1.95-2,2.08-3.42C130.39,218.49,129.73,219.66,129.63,221.11z"/> <path d="M154.03,225.33c-0.04,0.02-0.08,0.05-0.12,0.08C154.05,225.55,154,225.54,154.03,225.33z"/> <path d="M154.03,225.33c1.31-0.81,1.89-2.06,2.18-3.32C154.96,222.87,154.18,223.92,154.03,225.33z"/> <path d="M121.43,214.51c-0.2,1.9-0.5,2.8,0,3.9C121.43,217.21,121.43,216.31,121.43,214.51z"/> <path d="M155.41,211.11l-0.1-0.1C155.35,211.26,155.27,211.26,155.41,211.11z"/> <path d="M155.32,211.21c-0.75,0.78-1.31,1.65-1.41,2.7C155.05,213.34,155.37,212.41,155.32,211.21z"/> <path d="M131.72,217.51c0.94-0.28,1.26-1.09,1.38-1.93C132.28,215.99,131.81,216.66,131.72,217.51z"/> <path d="M156.71,220.31c1.04-0.09,1.28-0.99,1.55-1.77C157.31,218.72,157.19,219.64,156.71,220.31z"/> <path d="M158.26,218.54c0.05-0.01,0.1-0.02,0.15-0.03C158.26,218.36,158.33,218.4,158.26,218.54z"/> <path d="M131.82,211.11c-0.95,0.38-1.43,1.04-1.39,2.04C131.26,212.74,131.82,212.07,131.82,211.11z"/> <path d="M130.44,213.15c-0.14,0.07-0.11,0.04-0.14,0.21C130.43,213.31,130.44,213.34,130.44,213.15z"/> <path d="M134.62,216.11c0-0.2,0.06-0.14-0.1-0.1L134.62,216.11z"/> <path d="M136.18,213.74c-0.2,0.2-0.15,0.14-0.18,0.33C136.15,214,136.11,214.06,136.18,213.74z"/> <path d="M134.63,215.97c0.95-0.3,1.26-1.01,1.37-1.89C134.56,214.88,134.71,214.41,134.63,215.97z"/> <path d="M152.43,209.28c0.09-0.06,0.17-0.12,0.28-0.16C152.6,209,152.65,208.96,152.43,209.28z"/> <path d="M151.12,211.11c0.44-0.61,0.88-1.23,1.32-1.84C151.66,209.68,151.3,210.31,151.12,211.11z"/> <path d="M130.3,213.36c-0.99,0.33-1.28,1.18-1.47,1.95C129.78,215.03,130.17,214.29,130.3,213.36z"/> <path d="M146.12,231.6c0.41-0.41,0.41-0.02-0.04-1.08C145.16,230.87,145.9,231.82,146.12,231.6z"/> <path d="M146.12,230.51l-0.1-0.1C146.09,230.55,146.06,230.53,146.12,230.51z"/> <path d="M157.71,210.71c0,0.9,0,1.4-0.1,1.8C158.21,212.11,158.51,211.61,157.71,210.71z"/> <path d="M161.16,211.32c0.05-0.04,0.09-0.07,0.15-0.11C161.21,211.11,161.2,211.05,161.16,211.32z"/> <path d="M161.16,211.32c-0.63,0.5-0.56,1.23-0.75,1.79C161.13,212.75,161.04,211.98,161.16,211.32z"/> <path d="M162.21,215.51c-0.1,0.5-0.2,0.9-0.4,1.2C162.74,215.31,162.6,215.9,162.21,215.51z"/> <path d="M159.11,216.91c0-0.29,0.02-0.19-0.1-0.1C158.9,217.04,158.95,216.94,159.11,216.91z"/> <path d="M159.11,216.71c0.54-0.53,0.6-1.13,0.6-1.81C159.17,215.36,159.11,216.02,159.11,216.71z"/> <path d="M159.81,214.81l-0.1-0.1C159.71,214.98,159.68,214.91,159.81,214.81z"/> <path d="M161.31,219.11c-0.01-0.06-0.01-0.11-0.02-0.16C161.18,219.02,161.2,219,161.31,219.11z"/> <path d="M161.29,218.95c0.79-0.6,0.52-1.46,0.62-2.14C161.25,217.37,161.14,218.11,161.29,218.95z"/> <path d="M151.12,216.01l0.1,0.1C151.18,216,151.26,216.01,151.12,216.01z"/> <path d="M151.82,216.11l0.1-0.1C151.79,216.01,151.82,215.99,151.82,216.11z"/> <path d="M151.21,216.01c0.99,0,0.42,0.2,0.71-1.3C151.26,214.9,151.14,215.45,151.21,216.01z"/> <path d="M134.53,213.43c-0.17,0.45-0.35,0.94-0.61,1.28C134.84,214.71,134.6,214.97,134.53,213.43z"/> <path d="M134.61,214.71c0,0.11,0.01,0.11,0.11,0.05C134.72,214.72,134.75,214.71,134.61,214.71z"/> <path d="M152.51,214.71l0.1-0.1C152.49,214.61,152.51,214.59,152.51,214.71z"/> <path d="M152.56,213.26c-0.03,0.05-0.05,0.09-0.05,0.1C152.63,213.33,152.64,213.34,152.56,213.26z"/> <path d="M153.21,211.91c-0.21,0.52-0.48,1.03-0.62,1.28C152.78,212.94,153.38,212.08,153.21,211.91z"/> <path d="M152.55,213.25C152.56,213.26,152.56,213.26,152.55,213.25c0.02-0.01,0.03-0.03,0.04-0.06
		C152.58,213.22,152.56,213.24,152.55,213.25z"/> <path d="M151.82,214.61l0.1,0.1C151.91,214.59,151.94,214.61,151.82,214.61z"/> <path d="M151.91,214.61c0.76,0,0.6,0.25,0.6-1.25C151.95,213.65,151.91,214.09,151.91,214.61z"/> <path d="M160.51,213.31l-0.1-0.1C160.31,213.75,160.4,213.47,160.51,213.31z"/> <path d="M160.38,213.53c-0.23,0.36-0.42,0.76-0.67,1.18C160.37,214.46,160.35,214.01,160.38,213.53z"/> <path d="M153.21,211.81c0.46-0.34,0.86-1.24,0.7-1.4C153.71,210.91,153.41,211.31,153.21,211.81z"/> <path d="M155.58,211.02c-0.2,0.12-0.21,0.05-0.07,0.19C155.53,211.15,155.56,211.09,155.58,211.02z"/> <path d="M156.11,209.71c-0.18,0.43-0.35,0.87-0.53,1.31C156.17,210.71,156.02,210.17,156.11,209.71z"/> <path d="M161.41,210.81c0-0.06-0.04,0.02-0.09,0.12C161.41,210.82,161.48,210.74,161.41,210.81z"/> <path d="M154.01,210.41c0.2-0.1,0.3-0.3,0.4-0.6C154.31,210.01,154.11,210.21,154.01,210.41z"/> <path d="M153.21,207.52c-0.15,0.19-0.78,1.32-0.6,1.5C152.81,208.52,153.01,208.02,153.21,207.52z"/> <path d="M154.17,206.52c-0.21,0.34-0.81,0.73-1.06,0.9c0.37-0.09,0.65-0.28,0.93-0.54C154.15,207.08,154.1,207.11,154.17,206.52z"/> <path d="M154.17,206.52c0.15-0.27,0.3-0.55,0.44-0.82C154.28,205.87,154.21,206.18,154.17,206.52z"/> <path d="M154.71,205.52c-0.17,0.28-0.12,0.15,0.1,0.1L154.71,205.52z"/> <path d="M155.41,204.02c-0.12,0.28-0.15,0.17,0.1,0.1L155.41,204.02z"/> <path d="M154.71,205.42c0.17-0.43,0.42-0.8,0.61-1.22C154.83,204.45,154.89,204.97,154.71,205.42z"/> <path d="M140.32,193.92c-0.12,0.12-0.11,0.07,0.1,0.1L140.32,193.92z"/> <path d="M140.24,194c-0.54-0.07-1.06-0.02-1.42,0.52C139.38,194.71,139.85,194.45,140.24,194z"/> <path d="M155.41,204.02c0.13-0.13,0.17-0.29,0.19-0.34C155.57,203.63,155.49,203.85,155.41,204.02z"/> <path d="M155.6,203.68c0,0,0.01,0.01,0.01,0.04C155.61,203.65,155.61,203.65,155.6,203.68z"/> <path d="M157.21,199.52v0.2C157.34,199.72,157.34,199.77,157.21,199.52z"/> <path d="M129.29,227.8c0.06-0.02,0.19-0.04,0.34-0.09C129.48,227.71,129.35,227.76,129.29,227.8z"/> <path d="M129.28,227.81c0,0,0,0,0.01-0.01C129.25,227.81,129.25,227.81,129.28,227.81z"/> <path d="M129.33,227.81c-0.03,0-0.05,0-0.05,0C129.24,227.84,129.24,227.85,129.33,227.81z"/> <path d="M129.53,227.61c0.46-0.19,0.93-0.37,1.39-0.56C130.38,226.92,129.8,226.99,129.53,227.61z"/> <path d="M131.12,227.11l-0.1-0.1C130.86,227.05,130.9,227.04,131.12,227.11z"/> <path d="M134.72,225.51c0.03-0.07,0.05-0.13,0.08-0.2C134.59,225.45,134.58,225.36,134.72,225.51z"/> <path d="M135.32,224.01c-0.17,0.43-0.35,0.87-0.52,1.3C135.31,224.99,135.32,224.46,135.32,224.01z"/> <path d="M128.33,216.91c1.01-2.53,0.4-1.34-0.1-0.1L128.33,216.91z"/> <path d="M156.75,220.56c-0.18,0.45-0.37,0.9-0.64,1.35C156.81,221.65,156.82,221.15,156.75,220.56z"/> <path d="M156.75,220.56c0.02-0.05,0.04-0.1,0.06-0.15C156.67,220.27,156.72,220.26,156.75,220.56z"/> <path d="M138.22,219.81l-0.1-0.1C137.36,221.24,137.21,221.84,138.22,219.81z"/> <path d="M158.95,216.96c-0.7,0.25-0.54,0.89-0.54,1.45C158.59,217.95,158.77,217.43,158.95,216.96z"/> <path d="M140.62,193.62l-0.1,0.1C140.33,193.95,140.62,193.81,140.62,193.62z"/> <path d="M140.47,193.87c-0.02,0.01-0.03,0.03-0.05,0.05C140.47,193.92,140.47,193.9,140.47,193.87z"/> <path d="M136.02,201.02c0.2,0,0.3-0.1,0.3-0.1C136.22,200.92,136.12,201.02,136.02,201.02z"/> <path d="M135.32,201.82c-0.11,0.17-0.09,0.07,0.1,0.1C135.4,201.71,135.49,201.65,135.32,201.82z"/> <path d="M135.42,201.72c0.24-0.24,0.44-0.42,0.7-0.6C135.68,201.12,135.42,201.29,135.42,201.72z"/> <path d="M145.42,202.42l0.1,0.1C145.65,202.26,145.68,202.29,145.42,202.42z"/> <path d="M144.82,203.32c0.2-0.3,0.5-0.5,0.7-0.8C144.95,202.8,144.67,203.17,144.82,203.32z"/> <path d="M144.02,203.92l0.1,0.1C144.09,203.77,144.19,203.75,144.02,203.92z"/> <path d="M144.12,203.81c0.17-0.18,0.36-0.41,0.7-0.49C144.4,203.32,144.14,203.47,144.12,203.81z"/> <path d="M167.51,237.9c0.07,0,0.09-0.09,0.13-0.15C167.36,237.95,167.13,237.9,167.51,237.9z"/> <path d="M143.92,203.92c-0.03,0.03-0.06,0.06-0.09,0.09C144.06,204.01,144.06,204.06,143.92,203.92z"/> <path d="M143.22,204.62c0.17-0.17,0.42-0.42,0.61-0.61C143.45,204,143.22,204.19,143.22,204.62z"/> <path d="M143.21,204.71c0.04,0.01,0.07,0,0.11,0.01C143.22,204.62,143.21,204.58,143.21,204.71z"/> <path d="M143.21,204.71c-0.5-0.05-0.69,0.15-0.69,0.61C142.98,205.32,143.18,205.14,143.21,204.71z"/> <path d="M142.52,205.42c0,0.12-0.06,0.06,0.1,0.1L142.52,205.42z"/> <path d="M142.51,205.5c-0.5-0.12-0.69,0.16-0.69,0.62C142.29,206.12,142.49,205.93,142.51,205.5z"/> <path d="M141.82,206.12c-0.55-0.1-0.75,0.16-0.7,0.6C141.63,206.78,141.82,206.59,141.82,206.12z"/> <path d="M141.02,206.72l0.1,0.1C141.12,206.65,141.13,206.74,141.02,206.72z"/> <path d="M156.01,209.61c0.14,0,0.18-0.05,0.23-0.11C156.15,209.52,156.07,209.55,156.01,209.61z"/> <path d="M156.31,209.41c-0.03,0.03-0.05,0.06-0.07,0.09C156.46,209.4,156.45,209.41,156.31,209.41z"/> <path d="M131.72,211.11c0.2-0.1,0.4-0.1,0.6-0.2C131.72,210.31,131.82,210.91,131.72,211.11z"/> <path d="M134.62,213.21c0.14-0.14,0.15-0.12-0.1,0C134.52,213.55,134.52,213.46,134.62,213.21z"/> <path d="M133.1,215.58c0.35-0.18,0.59-0.55,0.92-0.77C133.87,214.86,133.15,215.28,133.1,215.58z"/> <path d="M128.23,216.91v-0.1C128.1,216.94,128.1,216.91,128.23,216.91z"/> <path d="M133.82,217.71l0.2-0.1c1.01-2.53,0.4-1.34-0.1-0.1l0.02,0.02C133.91,217.51,133.9,217.55,133.82,217.71z"/> <path d="M138.32,219.61c-0.25,0.13-0.23,0.1-0.1,0.1L138.32,219.61z"/> <path d="M136.72,221.81c0.3-0.1,0.6-0.4,0.9-0.6C137.39,220.97,137.67,221.18,136.72,221.81z"/> <path d="M136.62,221.91c-0.64,1.27-0.37,1.31-1.4,2C135.99,223.72,136.86,222.15,136.62,221.91z"/> <path d="M134.42,225.81c0.1,0,0.1,0,0.2-0.1C134.62,225.57,134.7,225.53,134.42,225.81z"/> <path d="M134.63,225.6c0.03-0.03,0.06-0.06,0.09-0.09C134.66,225.51,134.64,225.55,134.63,225.6z"/> <path d="M131.02,226.91l0.1,0.1C131.12,226.75,131.15,226.78,131.02,226.91z"/> <path d="M139.02,227.61c-0.13,0-0.17,0.04-0.22,0.07C138.87,227.66,138.95,227.61,139.02,227.61z"/> <path d="M165.91,265.19c1.2,0.5,1.2,0.5,2.9,0.2C168.01,264.09,168.01,264.09,165.91,265.19z"/> <path d="M171.31,229.51c1.1-1.4,1.1-1.4,0.3-2.5C171.51,227.91,171.41,228.51,171.31,229.51z"/> <path d="M179.6,266.59c-0.28,0.83,1.15,0.92,2.4,1.2C181.2,266.39,180.5,266.29,179.6,266.59z"/> <path d="M185.9,255.79l-0.1,0.2C186.06,255.99,186.02,256.04,185.9,255.79z"/> <path d="M131.02,562.55c-3.89-0.65-7.8-0.4-11.69,0.8c-0.4,0.1-0.8,0.7-1.5,1.5c6.1,0,11.69,0.6,17.69,0.6
		C134.77,564.45,134.91,563.2,131.02,562.55z"/> <path d="M130.23,571.05c-3.81-1.33-8.25-2.05-11.69,0.1c0.7,0.5,0.9,0.8,1.2,0.9c10.6,1.77,8.94,1.67,10.79,1.3
		C131.51,573.06,131.58,571.52,130.23,571.05z"/> <path d="M132.02,567.55c-4.57-1.43-7.98-1.47-12.69,0.3c0.43,1.29,2.97,1.29,4.3,1.2c3.2-0.22,6.3,1.2,9.4,0.5
		C133.42,568.35,132.82,567.75,132.02,567.55z"/> <path d="M127.93,576.44c-2.36-0.64-6.22-0.62-8.5,0.9c1,0.66,0.11,1.03,8.3,1.2C128.71,578.56,129.45,577.05,127.93,576.44z"/> <path d="M113.63,591.14c0.1-0.3,0.1-0.4,0.2-0.5C113.28,590.91,113.17,590.68,113.63,591.14z"/> <path d="M171.31,185.93c-0.28-0.76-0.58-1.6-1.45-1.94C170.12,184.84,170.28,185.65,171.31,185.93z"/> <path d="M169.81,183.83l-0.1,0.1C169.86,183.99,169.89,184.04,169.81,183.83z"/> <path d="M169.11,182.43c0.2,0.6,0.4,1.1,0.5,1.6C169.74,183.89,169.8,184.15,169.11,182.43z"/> <path d="M171.93,187.27c-0.25-0.45-0.43-0.9-0.52-1.44C171.32,186.38,171.24,187.02,171.93,187.27z"/> <path d="M172.55,188.76c-0.59-1.49-0.54-1.34-0.44-1.44c-0.2-0.06-0.23-0.12-0.1,0.09C171.99,187.96,171.89,188.53,172.55,188.76z"/> <path d="M172.71,188.83c0-0.12,0.03-0.13-0.07-0.03C172.41,188.73,172.71,189.02,172.71,188.83z"/> <path d="M173.3,190.32c0-0.57-0.01-1.14-0.6-1.45C172.7,189.52,172.66,190.13,173.3,190.32z"/> <path d="M169.01,182.33l0.1,0.2C169.11,182.4,169.13,182.45,169.01,182.33z"/> <path d="M157.61,342.15c0.5,0,0.9,0.1,1.3,0.4C158.1,341.74,158.21,341.85,157.61,342.15z"/> <path d="M159.21,342.55c0.3,0,0,0-0.3-0.1C159.21,342.55,159.41,342.65,159.21,342.55z"/> <path d="M112.73,429.11c-1.3,0.1-2.5,0-3.5,0.9C111.53,430.81,111.53,430.81,112.73,429.11z"/> <path d="M117.23,428.91c0.2-0.1,0.4-0.2,0.5-0.3c-0.2-0.2-0.16-0.34-0.7,0.2C117.13,428.91,117.23,429.01,117.23,428.91z"/> <path d="M118.63,422.42l-0.1-0.2C118.4,422.47,118.37,422.42,118.63,422.42z"/> <path d="M115.23,430.61c-0.1,0.1-0.3,0.2-0.4,0.3C115.33,431.21,115.23,430.81,115.23,430.61z"/> <path d="M115.13,430.51c0.09,0,0.13-0.02,0.16-0.04C115.23,430.49,115.17,430.51,115.13,430.51z"/> <path d="M115.53,430.41c-0.1,0-0.1,0-0.2,0C115.33,430.52,115.32,430.41,115.53,430.41z"/> <path d="M626.09,275.18c1.68,13.41,0.79,9.37,1.4,11.19c0.3-0.2,0.6-0.3,0.6-0.4c0.4-5.3-0.2-10.4-2.5-15.19
		C624.96,270.79,625.42,269.84,626.09,275.18z"/> <path d="M623.69,259.99c-0.9,1.9-0.9,1.9,0,4.7C623.69,262.79,623.69,261.49,623.69,259.99z"/> <path d="M623.89,266.59c0,0.64-0.3,0.65,0.64,1.63C624.13,266.34,624.29,266.59,623.89,266.59z"/> <path d="M624.53,268.22c0.02,0.09,0.05,0.18,0.06,0.27c0.1,0.17,0.1,0.21,0.1-0.1l-0.02,0.02
		C624.7,268.38,624.67,268.35,624.53,268.22z"/> <path d="M642.19,281.48c-1.05,1.58-0.6,1.13-0.6,1.5C642.37,282.59,641.92,283.32,642.19,281.48z"/> <path d="M624.68,268.63c-0.02,0.73-0.12,1.53,0.51,2.16C625.28,269.95,625.19,269.28,624.68,268.63z"/> <path d="M641.59,277.18l-0.1-0.2C641.35,277.38,641.34,277.31,641.59,277.18z"/> <path d="M551.63,469.19c2-4,3.6-7.7,4.5-11.59c0.2-0.3-0.1-0.6-0.5-1.4C553.4,458.54,550.77,465.31,551.63,469.19z"/> <path d="M592.51,425.01c-7.13,7.34-5.04,6.04-6,7c3.1,0,5.37-2.15,6.9-4.7C594.47,425.54,593.53,423.96,592.51,425.01z"/> <path d="M572.12,461.2c1.1-1.6,0.3-3-0.2-5.1C570.82,458.4,571.42,459.8,572.12,461.2z"/> <path d="M550.33,478.59c0.2-1.3,1.3-2.4,0.9-4C549.93,475.79,549.93,475.79,550.33,478.59z"/> <path d="M568.62,446.8c-0.4,1.59-0.52,1.18,0.2,1.9c0.45-0.45,0.73,0.01,0.3-1.7C569.12,446.9,568.72,446.8,568.62,446.8z"/> <path d="M583.81,433.01c-0.7,0.5-1.4,1-2.3,1.6C583.01,435.01,583.61,434.41,583.81,433.01z"/> <path d="M576.52,436.31c1.2,0.2,2-0.1,2.8-1.3C577.92,434.71,577.12,435.01,576.52,436.31z"/> <path d="M592.71,433.91c-0.63,0.63-0.3,1.38-0.3,1.7c0,0.32,0.5,0.18,0.5,0c0.2-0.5,0.3-1.1,0.5-1.6
		C593.41,433.73,592.71,433.78,592.71,433.91z"/> <path d="M547.43,544.96c0.62,0,1.39-1.34,0.7-1.9C547.64,542.57,546.32,543.85,547.43,544.96z"/> <path d="M566.72,491.08c0.5-0.6,1.2-1,0.8-2C566.72,489.58,566.32,490.18,566.72,491.08z"/> <path d="M548.93,491.38c0.3-0.8,0.5-1.3,0.8-1.9C548.73,489.88,548.73,489.88,548.93,491.38z"/> <path d="M570.02,451.7c-0.55,0-0.72,1.06,0.1,1.6c0.1,0,0.2,0,0.3,0.1C570.9,452.92,570.69,451.7,570.02,451.7z"/> <path d="M549.23,484.39c1.3-0.9,1.3-0.9,1.2-2.4C549.83,482.79,549.03,483.39,549.23,484.39z"/> <path d="M548.13,539.36c0.7-0.7,0.8-1.4,0.1-2.1C547.63,537.96,547.33,538.56,548.13,539.36z"/> <path d="M547.53,549.16c0.35-0.35,0.18-0.21,0-1.8C547.21,548.63,546.82,548.8,547.53,549.16z"/> <path d="M568.52,484.29c1-0.1,0.9-0.7,0.6-1.6C568.42,483.19,568.52,483.79,568.52,484.29z"/> <path d="M548.73,484.99c0,0.51,0.5,0.15,0.5-0.6C549.03,484.59,548.73,484.79,548.73,484.99z"/> <path d="M568.32,485.09c0.1-0.2,0.1-0.5,0.3-0.7C568.11,484.9,568.22,484.89,568.32,485.09z"/> <path d="M586.51,432.01c-0.2,0.1-0.3,0.2-0.5,0.3C586.61,432.61,586.41,432.21,586.51,432.01z"/> <path d="M686.66,574.24c0.5,0.5,0.7,0.8,0.8,0.7c0.22-0.05,6.17-1.37,6.8-2c0.8-0.8,0.39-1.85-0.6-2.1
		C691.29,570.51,689.86,572.11,686.66,574.24z"/> <path d="M568.42,125.85c0.1,0,0.2,0,0.3,0C568.52,125.75,568.52,125.85,568.42,125.85z"/> </g> </svg> 