<?xml version="1.0" encoding="utf-8"?> <!-- Generator: Adobe Illustrator 23.0.1, SVG Export Plug-In . SVG Version: 6.00 Build 0)  --> <svg version="1.2" baseProfile="tiny" id="Layer_1" xmlns="http://www.w3.org/2000/svg" xmlns:xlink="http://www.w3.org/1999/xlink" x="0px" y="0px" viewBox="0 0 900 600" xml:space="preserve"> <g> <path d="M844.96,352.79C844.96,352.82,844.97,352.77,844.96,352.79L844.96,352.79z"/> <path d="M866.81,568.26c8.57-2.14,10.5-0.78,12.65-3.37c-1.43,0.2-1.33-1.33-2.35-1.43c-3.16,0.31-6.12,1.53-9.8,1.22
		c2.55-1.53,5.2-1.22,7.24-2.35c-0.41-0.71-1.53,0.31-1.73-0.82c1.95-1.17,3.05-1.84,3.27-3.37c-5,3.37-9.8,6.33-16.12,5
		c-21.13-24.15-7.84-57.41-21.02-66.73c-2.45-1.73-4.59-1.53-6.84,0.71c0.31,0.2,0.71,0.2,1.02,0.1c5.06-1.99,8.5,4.07,9.69,8.98
		c2.02,8.31,1.2,20.06,2.76,29.9c4.65,29.4,20.76,28.16,4.59,26.53c-2.99-0.3-13.28-11.66-11.22-18.77c0.8-2.76,1.02-5.61,1.53-8.47
		c3.97-22.05-8.99-32.56-11.94-27.55c0.47,2.2,5.94,3.2,7.35,8.98c1.9,7.82,2.36,10.57-1.02,35.92c-4.84-6.96-0.27-10.36-1.63-14.29
		c-1.33-0.31-1.02,1.43-2.14,1.22c-0.67-0.94-1.66-20.19-3.27-31.94c-0.84-6.14,3.25-15.64,4.49-21.94
		c8.47,2.28,15.77,1.97,18.47,8.57c-3.55-2.26-5.84-3.55-12.65-4.9c-2.04-0.4-4.08-0.1-5.51,2.14c3.12,0.89,6.3-2.28,17.14,4.69
		c1.74,1.12,2.55,2.65,2.45,4.8c-0.1,2.25,0.32,24.27-0.82,32.96c-1.63,12.5,5.17,25.01,17.55,26.73
		c-24.34-12.17-13.77-29.5-13.77-51.63c-0.1-1.12-0.31-2.24,0.51-4.08c1.73,10.61-0.2,20.31-1.02,30.1
		c1.31-10.01,5.14-25,1.94-32.75c-2.97-7.19-2.43-11.48-6.84-14.29c-9.38-5.97-9.96-0.99-17.96-4.59
		c-1.98-5.71,4.15-9.32,2.45-17.45c-1.29-6.19,2.19-10.77,0.1-17.04c-1.02-3.06-0.8-5.91,0.61-9.18c1.85-4.28,2.49-9.2,3.57-13.77
		c0.58-2.46-0.16-5.18,1.12-7.65c0.59-1.13,0.25-2.13-1.02-7.65c1.12-2.14,2.76-4.08,1.53-6.73c-3.78,0.1-5.89,2.78-8.26,5.1
		c-2.32,2.27-3.47,5.31-5,8.88c-0.59-6.21-0.8-2.6-0.2-8.98c0.52-5.52,5.1-8.88,10.51-8.16c1.02,0.61,0,1.73,0.92,2.35
		c1.12-0.1,1.63-0.92,1.63-1.94c0.1-1.22-1.22-1.73-1.43-2.96c1.94-3.16,2.55-6.84,3.27-10.41c5.27-3.36,10.57-24.75,10-30.41
		c-0.4-3.97-2.45-6.22-6.73-6.94c-1.94,1.43-0.51,4.18-2.24,5.71c-1.22-1.02-1.43-2.24-1.02-3.37c1.43-4.8,1.66-9.79,2.35-14.8
		c1.06-7.65,2.96-15.2,2.45-23.06c0-2.53,0.54-2.78,0.92-3.16c0.92,0.2,0.61,1.33,1.53,1.43c0.41-0.1,0.71-1.02,1.43-0.41
		c1.12,3.27,0.88,6.29-1.63,8.98c-1.52,1.62-1.77,1.85-4.8,25.51c-0.22,1.75,1.47,5.04,2.55-1.53c3.42-20.77,2.89-20.99,4.69-23.06
		c6.22-7.14-1.83-9.76,1.33-18.67c3.48-1.22,2.8-2.39,9.69-45.2C902.18,9.96,902.55,21.25,898.12,20.54
		c-3.53-0.57-1.71-5.26-18.77,99.08c-2.44,14.93-27.74,170.18-29.08,178.67c-0.71,1.12-2.24,1.63-2.35,3.16
		c-0.31,1.02,0.71,1.73,0.71,2.75c-0.41,1.63-0.71,3.27-1.12,4.9c-4.4,0.79-3.81,4.2-3.06,10.71c0.56,4.85-0.42,1.92-4.8,31.33
		c-6.02,2.85-8.11,2.85-8.47,6.43c-1.2,12.08-4.84,23.7,3.78,30c-0.82,3.47-1.43,6.84-1.73,10.31c-1.73,0.82-2.86,2.14-3.78,3.47
		c-3.06,1.02-3.97,1.74-4.59,4.59c-2.25,10.4,0.46,12.73-1.33,16.73c-0.69,1.54-0.71,2.96-0.31,4.39c-0.71,0.82-1.64,1.12-1.84,1.94
		c-0.74,3.06-2.4,5.81-2.45,8.98c-0.02,1.02-0.11,1.93-0.71,2.76c-2.85,3.87-0.28,7.51-1.63,11.12c-1.22,1.43-3.37,2.35-3.88,5
		c1.33,1.43,0,3.47,0.41,5.31c1.12,0.2,1.43-0.41,1.73-1.02c0.31-0.82,1.43,0.1,1.73-0.71c-2.14-3.47-2.14-3.47-0.71-5.31
		c1.22,2.76,1.22,2.76,3.37,4.69c0.2-2.35-1.53-3.88-1.53-6.02c0.51-0.71,0.31-2.04,1.63-2.45c1.33,5.82,1.94,11.43-1.43,16.73
		c-4.18-3.67-10-3.67-14.59-6.43c4.95-9.09,4.75-15.29,1.84-40.41c-2.83-24.36-5.65-23.91-14.8-37.75
		c-3.32-5.03-7.49-9.47-10.71-14.69c-1.02-1.65-10.98-17.19-11.63-17.65c-3.35-2.37-6.32-5.21-10.1-7.24
		c-26.61-14.35-44.64-22.17-64.18-26.22c-9.81-2.04-21.38-9.72-62.24-4.9c-6.32,0.75-12.45,2.43-18.67,3.27
		c-15.87,2.13-16.55,4.48-36.53,13.67c-6.55,3.01-12.24,7.46-18.26,11.33c-9.61,6.17-14.22,13.23-16.94,16.43
		c-12.42,14.63-12.22,28.17-13.88,33.26c-4.84,14.92-3.02,28.85,6.12,41.53c6.97,9.67,14.49,18.97,23.37,27.04
		c13.79,12.55,15.12,21.46,20.51,31.22c1.55,2.81,11.71,14.99,12.55,16.02c-7.41-1.06-17.39-14.74-53.88,0.41
		c-17.13,7.11-33.21,4.87-52.45,0.31c-3.13-11.33-17.16-23.3-26.94-29.49c-2.16-1.37-12.7-2.75-13.88-2.86
		c-6.74-0.63-14.49,5.05-19.18,9.8c-12,12.14-10.14,16.02-15.1,17.75c-7.41,2.59-9.16,6.63-12.24,9.59
		c-8.7,8.34-10.73,16.99-12.55,18.57c-4.31,3.75-4.08,8.98-5.1,13.47c1.97,2.97,4.38-5.12-8.26,19.08c-0.65,1.23-2.2,3.01-0.63,4.57
		c-5.25,0,4.85,8.55,12.77,11.46c3.88-0.41,7.35-1.63,10.92-2.55c2.59-3.37-0.12,0.46,21.43-9.29c8.2-3.71,13.94-1.24,23.88-3.88
		c0.72-0.19,1.53,0,2.45,0c0-0.41,0-0.82,0-1.33c7.14-1.53,14.69-0.92,21.63-3.37c0.51-1.84-0.82-3.27-0.92-4.9
		c78.19,8.69,44.94,11.18,97.44,17.35c27.28,3.21,27,9.43,74.69,5.61c0.41,0,0.71-0.31,0.71-0.92c-1.58-2.93-16.28,2.1-39.08-2.35
		c-6.43-1.25-51.74-6.24-65-10.31c-5.82-1.78-51.94-12.24-70.71-12.24c-1.43-1.73-1.53-3.88-2.55-5.61
		c-1.32-2.25-1.12-4.49-0.1-6.84c2.66-6.17-2.5-3.26,5-6.33c11.61-4.74,14.18-4.83,14.18-7.86c-0.31-1.73-1.94-2.45-2.35-3.88
		c1.45-2.91,1.66-1.14-3.16-9.18c2.45-0.1,4.39,1.02,6.12,0.82c1.94-0.61,2.24-2.45,3.98-2.96c10.08,2.18,35.54,9.27,53.16,1.12
		c8.39-3.88,27.9-9.81,36.73-7.24c4.6,1.34,20.6,6.99,22.96,10.41c1.62,2.35,4.03,4.17,4.8,7.04c0.53,1.98,3.04,0.93,5.1,6.22
		c-9.23-5.54-13.77-5.53-20.2-7.04c-7.03-1.66-14.19-2.57-21.33-0.82c-5.72,1.41-12.39-1.61-24.79,5.71
		c-3.41,2.01-4.15,1.31-23.67,2.96c-10.77,0.91-35.43-5.01-36.53-1.43c1.17,2.18,4.22,0.92,9.29,1.63
		c7.55,1.06,26.5,2.35,29.39,2.24c2.88-0.1,20.52-1.32,22.86-3.27c3.54-2.95,23.7-5.32,28.26-5.82
		c12.78-1.38,34.94,6.97,44.18,14.08c15.54,11.96,10.45,10.26,13.16,10.71c-2.47-5.21-10.01-10.43-13.57-15.2
		c-2.44-3.27-5.69-6.13-7.86-9.69c-4.85-7.99-10.6-15.32-16.22-22.75c-14.66-19.37-11.34-27.08-20.71-35.2
		c-13.27-11.49-15.69-14.67-18.16-17.35c1.33-0.61,2.57-0.6,3.37-1.63c4.5-5.84,10.72-9.39,16.94-12.96
		c26.92-15.46,58.07-3.45,61.94-11.73c-3.89-1.3-1.06,1.67-18.57,0.41c-10.35-0.75-20.63-0.69-30.61,1.84
		c-10.13,2.57-31.4,12.32-34.49,21.63c-1.33-0.31-1.75-1.21-2.35-1.94c-9.09-11.09-17-23.97-15.2-37.55
		c6.55-49.46,29.48-55.22,44.9-68.47c0.2-0.2,0.61-0.31,1.12-0.51c4.02,6.02,18.11,15.22,23.16,18.98
		c7.55,5.61,12.94,12.94,18.16,20.51c0.5,0.72,0.2,1.22-0.2,1.84c2.03,2.51,5.13,4.81,6.12,8.98
		c-8.55-10.65-21.47-22.57-33.47-28.57c1.34,2.95,8.47,4.82,25.41,21.73c-1.88-0.19-2.18-1.67-4.75-2.53
		c0.3,1.55,16.42,14,17.25,15.66c0.05,0.1,1.63,1.06,2.71,0.63c0-0.96-0.34-2.5-1.12-3.37c-2.09-2.3-21.18-34.59-24.7-34.59
		c-6.73-4.69-12.7-10.49-19.59-15c-2.23-1.46-4.08-3.27-6.02-5.2c6.59-4.56,13.83-8.31,20.82-11.02
		c13.06-5.07,51.59-10.08,75.3-6.62c3.88,0.57,3.82,1.34,15.69,3.87c0.11,0-6.17,43.02-20.9,83.36c-9.9-0.61-17.45-5-24.18-11.84
		c-0.37-0.56,0.18-2.86-0.93-2.86c-0.75,0.22-0.29,0.69-0.7,3.16c-2.83,1.83-5.34,0.42-8.16-0.1c-10.9-34.06-2.03-0.9-1.63-0.51
		c-0.92,0.56-2.59,0.82-3.67,0.82c0,1.95-3.1,2.68-2.14,11.73c1.01,9.56,2.66,15.51,2.77,15.51c0.72,0.36,0.58,0.84,1.12,2.54
		c2.25,12,8.17,20.89,12.35,33.88c23.25,72.33,19.17,92.79,19.39,97.85c0.3,6.92-2.04,7.37-10.51,18.57
		c-0.7,0.93-1.94,1.84-1.02,3.27c2.87,0.57,10.34-10.78,12.14-14.18c3.28-6.19-0.04-3.82,1.12-8.06
		c7.51-27.46-12.97-74.92-14.39-91.53c-0.12-1.43-0.72-2.75-1.22-4.08c-9.87-26.03-15.26-30.65-14.49-39.69
		c-3.58-2.95-3.8-11.56-4.9-15.51c-0.79-2.86,2.24-4.8,1.22-7.14c4.9-1.12,9.18,2.76,13.88,0.51c4.23,4.72,5.75,3.29,7.35,5.31
		c3.85,4.86,12.99,4.79,15.82,5c0.2,1.02,0.31,1.94,0.51,2.86c1.73-0.51,2.03-1.53,2.45-2.55c11.12-27.07,7.7-22.85,14.8-45.92
		c3.56-11.56,3.9-17.55,7.86-38.67c6.1,0.68,28.59,8.08,40.3,13.26c4.51,2,26.76,13.1,29.59,16.63
		c14.7,18.35,14.69,22.62,23.06,31.94c0.51,0.51,1.22,0.92,1.22,2.24c-11.99-8.92-20.62-9.75-35.3-5.51
		c-12.35,3.57-20.06,11.73-25.3,23.47c-1.41,3.15-9.94,24.77-9.39,28.16c1.99,12.28,3.07,16.27,9.59,25.51
		c-5.14,4.71-2.24,1.55-10.1,1.63c-7.59,0.08-11.88-1.7-19.08-4.18c-4.3-1.48-8.78-2.86-11.53-6.84
		c-6.43-9.29-10.61-19.28-8.16-30.92c-4.49-6.94-7.24-8.67-12.14-6.94c3.78,2.14,7.86,3.16,9.9,7.45
		c-3.98,10.82,0.82,20.51,5.61,30.2c-8.26,10.61-12.24,15.61-16.33,32.04c21.73,25.65,25.67,14.49,19.18,22.86
		c-10.65,13.75-6.78,18.36-10.2,25.41c9.03,12.46,19.08,13.1,24.9,15c42.03,13.71,55.01-1.34,98.16,17.55
		c9.24,4.04,8.78-1.19,14.8-1.73c2.52-0.23,3.15-2.12,4.59-5c2.24-0.41,4.18-1.12,5.31-3.78c0.41-0.61-0.92-1.43-0.41-2.35
		c1.12-1.43,2.86-1.73,4.49-2.65c5.7-9.34-4.02-16.84-1.02-23.77c0.84-1.93,0.71-4.18,2.14-6.53c0.84,5.02-0.6,0.3,1.73,23.47
		c0.99,9.8-3.21,14.02,2.24,20.2c2.55,2.89,3.36,3.96,1.94,5.1c-5.55-2.91-8.18-6.83-6.63-18.06c-1.94,2.86-2.31,5.92-1.94,10.61
		c0.45,5.71,5.1,8.06,9.49,11.84c-5.2-1.02-9.49-2.04-13.57-3.98c1.12,2.45,3.56,2.88,5.71,3.67c10.27,3.78,21.12,4.03,31.84,3.98
		c6.12-0.03,12.04,1.43,18.37,1.73c5.17-2.07-0.99-0.06-4.29-2.45c3.57-0.51,6.53-0.2,9.29-1.63
		C872.96,568.92,870.32,570.96,866.81,568.26z M844.96,352.79c0-0.01,0-0.01,0-0.02c1.02-0.82,7,1.12,1.33,16.12
		c-0.68-4.97,4.19-7.84-1.63-13.88C844.88,353.17,844.95,352.83,844.96,352.79z M832.41,376.34c-0.92-2.45-0.1-4.8,0.2-7.24
		C833.02,371.54,833.12,373.89,832.41,376.34z M833.43,361.24c-0.51-2.35-0.2-3.67,0.2-5.2c1.33-1.22,3.06-1.94,4.9-2.45
		C836.49,355.62,834.65,357.66,833.43,361.24z M835.47,367.46c-0.54-5.21,0.88-8.21,3.37-11.53c1.22,0.82,2.04,2.14,3.47,2.24
		c1.23,0.37,2.32-1.81,2.96,0.2c0.32,1.02,0.33,1.95,0,2.86c-2.31,6.48-3.22,13.23-4.69,19.79c-0.78,3.47,0.63,0.42-4.9,0.82
		C833.45,378.67,836.76,379.98,835.47,367.46z M836.8,385.01c1.16,0.45,1.22,1.05,1.15,1.67c-0.61,5.36-2.38,9.92-3.3,11.18
		C834.76,393.28,836.9,389.4,836.8,385.01z M470.91,515.83c2.17,2.68,2.83,5.49,1.73,8.67c-1.9,1.9-2.99-1.04-17.04,6.94
		c-5.62,3.19-3.38,5.21-2.86,8.06c0.88,4.78,2.49,9.23,5.2,13.16c1.15,1.67,2.82,5.09,2.6,4.98c-4.98-1.8-9.55,0.73-14.23,0.53
		c-3.16-4.18-3.16-4.18-5.51-2.55c-0.41,1.22,1.25,2.71,0.92,3.37c-5.85,2.66-4.82-2.96-9.69-2.96c-1.13,0-1.86,0.99-1.73,1.93
		c0.52,3.95,5.76,2.54-7.75,3.48c-1.33-0.2-1.43-1.84-2.65-1.84c-1.29,0.38-0.31,1.34-0.41,1.84c-0.52,0-14.82,7.43-28.77,12.04
		c-3.08,1.23-5.86,4.9-12.86,0.31c-2.14-1.4-7.62-4.89-8.21-6.05c0.01,0.01,0.01,0.01,0.02,0.02h0.01
		c-0.02-0.02-0.02-0.02-0.04-0.04c-0.03-0.06-0.05-0.12-0.05-0.17c1.12-0.31,1.73-1.22,2.24-2.14c2.08-4.32,6.47-4.64,8.06-6.53
		c5.13-6.09,13.18-9.39,13.77-12.04c-3.16,2.14-6.53,4.08-9.59,6.33c-3.05,2.24-5.09,5.81-9.26,7.44
		c-0.11,0,10.05-18.18,17.63-29.07c6.33-9.09,13.68-10.15,21.12-19.59c3.54-4.48,8.11-9.21,8.78-10.1
		c-0.31-1.42-0.36-1.96-0.39-2.16c0.06,0.03,0.06,0,0-0.04c0-0.03-0.01-0.05-0.01-0.06c0.02,0.01,0.05,0.02,0.1,0.02l-0.04-0.04
		c4.75-0.91,14.26-12.46,27.28-10.06c2.42,3.9,8.5,7.73,9.18,12.14C458.8,503.88,466.08,509.88,470.91,515.83z M455.28,541.02
		c-1.43-1.43-1.43-2.45-0.61-4.29C454.98,538.37,455.08,539.49,455.28,541.02z M476.41,508.78c-2.76-0.2-5.31-1.53-7.75,0.2
		c-6.94-6.43-11.53-14.69-18.98-21.73c-2.65,0.2-6.33,0.47-10,0.31c-1.63-0.07-2.76,1.32-4.18,1.94
		c-6.05,2.62-14.17,9.55-13.57,10.08c-0.02,0-0.04,0.01-0.1,0.01c0.01,0.01,0.02,0.02,0.03,0.03c-0.32-0.08-1.24,0.05-3,2.1
		c-2.93,3.41-6.43,6.43-8.78,10.31c-2.61,4.32-6.43,7.09-10.81,9.6c-9.17,5.26-11.05,12.29-18.82,22.94c0.02-0.1,1.4-9.6,2.69-10.48
		c2.36-1.61,2.97-4.28,4.18-6.53c7.47-13.89,11.63-14.92,12.35-17.86c0.3-1.25,6.96-4.88,8.98-5.61
		c9.97-3.6,12.05-17.09,27.45-24.79c4.29-2.55,9.3-2.88,13.67-1.43c-7.63,10.47-5.35,8.15,2.24,0.92c5.32-1,21.01,16.99,24.69,21.53
		c1.16,1.43,1.68,3.65,2.76,5.51C478.14,506.64,477.02,507.45,476.41,508.78z M834.86,409.6c1.26,6.31,1.32,4.96-0.03,5.65
		c-3.93,2.62-3.28,2.89-5.83,4.91C828.65,420.52,831.19,414.08,834.86,409.6z M826.29,423.78c0.71,0.92,0.1,1.33-0.71,1.73
		C825.04,424.55,825.2,423.97,826.29,423.78z M824.2,436.92c1.09-5.83,7.26-13.2,10.87-17.53c-0.51,2.35,0.1,4.29,0.1,6.43
		c-2.04,1.95-4.47,3.5-6.33,5.72C824.28,437,823.44,440.96,824.2,436.92z M832.21,433.58c0.94,4.7-4.33,11.39-5.92,13.06
		c-1.93,2.03-2.77,4.82-4.39,7.14C823.23,446.13,826.19,439.29,832.21,433.58z M819.66,449.39c0.61-3.27,1.53-6.02,0.51-8.98
		C822.17,443.15,821.94,446.84,819.66,449.39z M818.84,476.54c0.52-1.32,1.22-2.45,2.65-2.96c0-3.34,7.51-14.36,9.39-17.14
		c-0.4-0.8-0.7-1.4-1.96-1.61c-0.51,0-6.3,4.96-8.35,16.2c-0.82-1.02-0.71-2.14-0.41-2.86c4.15-11.67-1.89-3.45,9.8-21.33
		c3.27,6.54,0.48,10.67,0.82,16.84c-2.15,1.83-9.21,9.79-9.29,9.9c-0.31,2.64-2.4,4.55-2.86,7.55
		C818.12,478.28,818.15,478.28,818.84,476.54z M818.12,485.93c4.07-6.08,8.59-12.22,13.26-17.96c0.09,4.3-2.34,7.31-2.75,10.81
		c-4.8,4.18-8.67,9.08-11.33,15.82c-0.53-2.25-0.48-3.88-0.2-6.02c0.73-0.97,1.89-0.24,1.89-0.96
		C819.05,486.95,818.12,486.41,818.12,485.93z M811.9,467.46c1.37,1.01,6.09,4.42,5.97,4.79c-1.03,4.02-2.69,8.05-1.79,12.97
		c-30.57-5.69-19.71-6.12-27.65-4.8c3.66,3,7.72,5.9,11.84,8.26c0.86-0.48-0.46-1.27,0.42-1.94c4.49,0.51,9.39,0.71,14.08,2.24
		c0.39,1.93,0.32,3.48,0.1,5.51c-5.1,0.61-10.31-1.02-15.41,1.43c-1.73,0-3.57-1.22-6.33-0.71c3.12,1.83,6.65,1.94,9.39,3.27
		c0.92-0.92,0-1.43,0-2.24c4.18-0.51,8.26,0.82,12.35,0.51c1.07,3.93-5.34,5.91-9.39,6.53c-1.53-0.2-1.12-1.53-2.24-2.24
		c-3.17-1.34-9.73,1.79-11.72-1.97c-0.33-0.61,0.2-1.41-0.32-2.21c-1.43,1.53-3.16,2.86-3.67,4.9c-1,1.29-11.86,0.97,17.51,5.7
		c0.02,0,0.03,0,0.05,0.01c-0.73-1.55-0.82-1.72-2-2.4c-1.38-0.79,3.05,0.1,9.65-2.3c0.24,2.64,0.43,4.68-1.93,6.21
		c1.16,1.55,0.17,2.84-0.42,4.49c-1.66,5.52-3.75,2.87-6.73,4.8c0.31,0,0.61,0.1,1.53,0.2c-4.64,5.34-14.95,4.98-23.49,4.74
		c-1.97-0.05-3.46,0.26-3.46,0.26c0.94-1.34,1.41-2.02,2.34-3.25c2.21,2.21,21.3,0,23.16-2.04c-3.51,0.29-19.76,1.58-23.16,0.61
		c-0.1,0.06-2.02,1.26-2.14,1.53c-0.98,2.22-4.44,4.34-4.89,7.04c-10.86,0-15.81-4.61-27.45-8.98c1.1-2.01,2.18-4.01,3.98-5.61
		c-2.55-0.78-2.51,2.06-5.1,3.88c-0.58-0.86-0.43-1.62-0.31-2.55c0.52-0.73,1.64,0.01,1.94-1.33c-2.31-1.21-5.15-0.65-7.59-1.39
		c5.29-5.9,10.97-11.5,15.86-17.8c3.57-4.6,8.18-6.87,13.47-8.67c14.33-4.88,6.98-4.5,12.86-0.71c2.89,1.87,4.24,4.9,4.29,8.26
		c0.03,2.77,1.09,7.57-3.98,6.94c-4.14-0.51-4.13-3.63-5.71-3.78c-0.94,0.25-0.87,0.88-0.41,1.73c2.83,6.83,12.81,5.63,12.96-1.02
		c0.2-8.94-2.94-13.45-8.25-15.82c5.07-5.79,5.17-0.41,34.59-0.41c-3.04-3.45-6.09-4.18-24.89-5.89c-1.22-0.11,3.1-2.91,4.17-3.91
		c2.26,0.38,16.65-0.12,16.52-1.05c-0.07-0.99-1.72-0.74-1.62-1.81C809.86,466.95,810.88,467.35,811.9,467.46z M799.25,484.19
		c-1.53,0.41-2.45,0.2-3.27-0.71C797.11,482.86,797.92,483.68,799.25,484.19z M797.31,502.15c1.79,0.52,3.97-0.1,5.93,1.23
		C800.78,504.39,798.94,503.88,797.31,502.15z M799.96,505.11c-4.39,0.2-6.33-0.2-10.41-2.14c-0.32-1.05,0.34-1.77,1.12-2.55
		C793.53,501.74,796.19,503.68,799.96,505.11z M794.96,524.7c-5.02,2.16-8.44,3.74-17.65,3.27c1.02-2.85,3.47-2.55,5.61-3.27
		C786.7,527.35,790.57,524.49,794.96,524.7z M740.99,513.37c-0.13,1.13-0.32,2.02-1.02,3.06c-1.36-0.38-5.71-1.63-5.71-1.63
		C740.53,508.94,738.08,512.85,740.99,513.37z M806.08,466.54c-2.24,0-4.39,0.41-6.63,0c0.2-1.33,1.02-1.94,2.04-2.45
		C806.22,466.45,805.86,465.87,806.08,466.54z M667.11,478.27c3.03-11.18,9.37-19.88,15.71-29.39c5.77,7.4,15.53,8.94,16.84,9.59
		c6.79,2.84,14.42,3.92,18.26,3.57c-4.32,3.89-13.67,6.38-12.49,8.72c0.39,0.78,1.65,1.38,2.08,2.4
		c-6.63,7.14-11.43,15.92-18.67,22.96C679.87,492.15,673.54,485.01,667.11,478.27z M711.5,468.69c-0.31,1.63-1.53,2.04-2.45,2.96
		c-1.35-0.84-1.32-1.64-1.21-1.64C707.94,469.97,711.39,468.69,711.5,468.69z M823.01,544.1c-1.13,1.11-3.27,0.82-4.18,2.86
		c-0.2,1.02,1.15,2.37,0.1,3.57c-1.09,1.25-2.86,0.92-4.49,1.94c-0.51,1.02-1.33,2.24-2.04,3.47c-0.78,0.34-1.57,0.44-2.39,0.52
		c-3.64,0-1.9,2.62-6.43,3.31c-1.27,0.19,1.78-0.32-8.72-4.24c-43.53-16.24-42.31-3.41-82.75-13.15
		c-20.53-4.94-27.75-5.63-35.92-15.61c4.01-9.06,0.53-10.21,10.51-23.37c5.05-6.66,10.05-11.51,12.14-15.51
		c1.74-2.79,18.28-20.06,30.41-27.65c0.31-0.1,0.51-0.41,0.71-0.61c0.61-0.82,0-1.43,0-2.14c18.68-11.59,19.72-12.89,24.59-24.59
		c-7.31,5.85-2.43,6.13-9.69,11.22c-5.67,3.98-13.1,8.95-15,10.31c-8.08-10.78-9.44-22.95-8.57-25.61
		c8.96-27.49,8.97-27.61,18.88-40.61c1.02-1.53,2.45-2.66,4.29-3.06c27.21-5.97,27.69-7.48,44.49,3.37c3,1.94,6.17,7.33,11.12,16.12
		c2.6,4.61,4.52,31.67,3.67,44.08c-0.7,10.31-0.92,10.61-9.08,17.04c-8.27,6.52-16.95,12.51-26.12,17.65
		c-0.61,0.34-9.57,1.08-16.43,8.98c-17.31,19.94-8.05,13.63-31.22,28.26c4.18-0.1,7.35-2.24,10.61-3.98
		c10.94,4.38,16.97,5.85,24.18,9.49c1.21,0.61,27.91,10.17,43.98-1.43c1.11-0.8,8.02-5.2,8.36-5.03c6.75,2.42,1.21-1.2,0.83,7.89
		c5.58,4.29,6.52,4.05,6.22,6.02c5.4-0.54,2.91,1.31,5.5-0.42c0.41-0.71-0.92-1.12-0.31-1.84c0.87-0.87,1.08,0.55,1.9,0.36
		c0.2-0.05-0.02,0.13,1.27-1.47c0.52,0.06,1.02,0.57,1.02,1.33C824.75,535.84,826.86,540.3,823.01,544.1z M815.17,529.08
		c1.19-0.52,3-2.14,4.29-2.14c0.2-1.43,1.53-1.93,2.45-3.26c0.45,1.53,0.38,2.55,0,4.07c-1.09,0.21-1.54-1.12-2.45-0.81
		c-0.92,1.14-1.02,2.74-2.35,3.67C816.19,530.51,815.47,530.11,815.17,529.08z M813.84,528.06c-1.01-0.1-1.8-0.78-2.65-1.63
		c0.31-1.43,0.71-3.06,1.02-4.69c4.9-3.47,9.59-7.24,12.65-12.55C824.13,517.22,822.25,518.03,813.84,528.06z M824.96,506.02
		c-0.33,0.33-0.75,0.15-1.17,0.04c-1.75-0.45-0.42,0.47-5.06,5.73c-2.03,2.31-4.25,4.46-6.01,6.98c-1.02-0.51-1.33-1.33-1.73-2.24
		c4.19-7.8,12.89-15.62,15.1-18.57C826.08,501.13,825.37,503.47,824.96,506.02z M814.86,506.53c-0.43-7.12,4.24-11.73,8.98-17.23
		c0.09-0.1,4.69-5.5,4.69-5.4C830.18,494.61,822.18,493.46,814.86,506.53z M837.12,549.95c0.28-1.53-0.9,0.38,7.73,10.87
		c-3.96-0.99-6.39-2.28-8.88-5.41C836.36,553.79,836.71,552.23,837.12,549.95z M839.14,564.49c-3.38-0.41-3.41-0.48-3.89-2.37
		C836.7,562.76,838.02,563.27,839.14,564.49z M835.16,567.25c10.18,1.41,18.15,1.55,22.04,1.73
		C849.76,568.67,842.31,569.7,835.16,567.25z M860.78,568.06c1.73-0.1,3.37-0.61,5.1,0.51
		C862.71,569.49,862.71,569.49,860.78,568.06z"/> <path d="M418.45,122.06h-0.01C418.33,122.17,418.29,122.22,418.45,122.06z"/> <path d="M385.9,271.85c1.22-0.31,1.85,0.6,2.55,1.12c9.75,7.23,13.17,6.43,28.37,16.12c21.74,13.86,23.64,9.94,28.37,14.49
		c6.24-4.32,9.54-8.38,22.04-30.71c12.07-21.58,10.33-35.62,11.02-39.49c8.24-46.36,12.15-44.61,11.3-44.82
		c3.22-1.23,5.36-4.06,8.5-5.48c-3.24,7.37-8.71,8.8-9.8,12.45c0.51,0.41,0.92,0.51,1.22,0.31c7.48-4.88,9.08-11.53,10.92-7.86
		c-2.45,4.29-5.31,8.37-10.1,10.51c-1.33-0.31-2.04-1.63-3.47-1.02c0.36,3.64,4.26,2,7.55,2.45c2.34,0.32,4.39-0.61,6.33-1.94
		c3.57-2.45,4.29-6.12,4.9-10c-2.75-3.06-3.35-6.84-3.88-10.82c-0.39-2.96,1.33-6.22-1.33-8.88c3.27-4.39,1.63-7.35-2.35-9.69
		c2.66-3.81,0.87-3.98-1.43-7.55c2.45-2.45,3.17-4.29,1.84-6.02c-1.82-2.36-2.64-5.31-4.39-7.65c-0.61-0.82-1.84-0.31-2.35-0.92
		c-1.12-2.14,0.92-3.47,0.71-5.31c-0.2-1.74-1-3.46-0.31-5.31c1.94-5.17-1.75-7.26,0.51-14.8c2.06-6.85-1.45-8.83,0.1-14.39
		c1.46-5.2,1.58-10.61,1.63-16.02c0.01-0.92,0.2-2.14-1.33-2.55c-1.22,1.84,0.1,3.88-0.82,5.61c-1.33-0.61-2.45-0.71-3.27,0.82
		c0.1,0.51,0.61,1.12,0.41,1.53c-2.1,4.36-5,8.26-7.96,12.24c-1.63-2.65-0.41-5.2-0.82-7.65c3.98-3.67,7.14-7.65,8.98-12.55
		c-3.78,0.92-3.98,5.41-6.84,7.14c-1.63-1.94,0.2-4.18-0.61-6.12c-0.82-0.31-1.22,0-1.94,0.71c0.24,6.91-3.5,9.6-2.04,18.67
		c0.97,6.05-2.05,5.09-1.73,13.37c0.39,10.26-1.11,5.84-0.61,12.04c0.39,4.8,1.02,9.69,0,14.49c-0.82,3.88-0.82,7.35,1.53,10.41
		c-0.82,0.82-1.22,1.53-2.45,1.43c-0.31-2.35-2.55-3.37-3.88-5.2c-6.14-8.51-15.95-20.86-26.12-23.67
		c-6.1-1.69-9.31-5.06-14.69-3.37c-1.62,0.51-1.82-1.42-3.47-1.84c-1.84,0.82-4.18,1.12-5.82,2.55c0.2,1.12,0.81,1.52,1.53,1.22
		c8.11-3.3,27.35,14.1,34.69,20.31c0.1-0.1,0.31-0.31,0.41-0.51c-7.04-6.73-14.29-13.16-22.35-18.67
		c15.2,3.91,19.38,10.72,30.81,22.65c2.55,2.66,4.9,5.51,6.33,9.08c-0.41,1.84-0.41,1.84-1.73,3.16c-3.82-7.64-4.41-7.47-6.22-8.47
		c2.76,2.86,3.57,6.63,4.59,10.41c-2.14,2.35-2.14,5.82-3.78,8.67c-0.61-0.92-1.02-1.53-1.63-2.35c-0.31,1.73-0.61,2.96-0.71,4.29
		c-0.1,1.22-1.22,2.45-0.51,3.88c1.84-0.61,0.82-2.86,2.45-3.57c0,3.16,0.73,6.43-0.1,9.29c-1.7,5.83-2.86,11.84-5.82,17.45
		c-2.65,1.22-4.29,3.88-6.33,6.02c-4.9-0.1-8.26,2.35-10.92,6.33c-2.65,3.98-4.9,8.06-6.63,12.96c-3.78-2.24-5.92-5.82-8.47-8.78
		c-1.63,1.33-0.31,2.65,0,3.98c-1.63,1.02-2.65,2.86-4.49,3.27c-3.39-0.64-5.78-8.43-7.65-5c-0.2,2.86,3.67,2.75,3.67,5.31
		c-2.49,4.53-5.94-0.18-9.69,3.57c-3.35,2.98-3.1,1.27-7.14-1.94c-6.37-5.05-4.35-11.19-11.33-22.86
		c-7.49-12.53-12.35-31.11-12.35-38.37c0.71,0.61,0.51,1.94,1.94,1.33c0.71-3.27-0.71-6.84,1.02-10.82
		c0.31,4.59,0.1,8.47,0.92,12.14c3.63,16.34,8.87,19.16,9.8,30.92c0.37,4.73,2.97,6.85,2.45,3.06c-0.48-3.48-3.7-12.05,5.1-18.77
		c2.88-2.2-3.32-2.68-7.86,8.06c-2.14-8.37-4.59-15.61-5.82-23.47c2.45-3.78,3.06-8.06,2.35-12.55
		c4.63-8.44,11.75-15.28,19.59-20.61c5.18-3.52,2.64-4.58,11.42-7.24c0.81-0.8-0.4-1.68-0.09-2.45c0.29-0.72,1.43-0.51,1.33-1.53
		c-2.65-2.45-3.06-6.73-6.94-8.47c1.17-0.79,2.7-0.28,2.74-1.66c2.46,1.59,2.62,6.84,5.11,7.99c1.84-1.53,0.61-3.27,0.92-4.9
		c1.22,0.1,1.63,2.24,3.27,1.22c-2.04-4.18-5.51-7.24-6.73-11.73c-0.1-0.31-0.41-0.61-0.71-0.82c-6.85-3.85-7.56-10.75-15.31-9.59
		c-13.69,2.05-25.17,10.64-25.92,13.06c9.87-6.07,24.75-14.48,31.22-6.12c-2.55-0.1-5.1-2.14-7.65,0c1.33,1.22,3.16,0.1,4.49,1.63
		c-24.78,6.19-28.35,16.2-25.3,17.14c3.02-9.29,19.56-13.74,29.08-15.92c3.88,2.24,6.33,4.9,7.65,7.96l-0.1-0.1
		c0,0.08-0.02,0.1,0.01,0.1c-9.07-0.02-17.48-2.48-24.29,3.57c2.58,0.2,7.65-3.09,15.1-1.73c-14.91,6.36-24.96,17.27-28.77,33.16
		c-0.71-3.57,1.33-6.53,0.61-9.8c-2.65,5.61-2.96,11.73-3.78,17.75c-0.61-2.75-0.71-5.51-0.41-8.16c1.47-12.72,3.37-9.76,5.1-15.92
		c-4.24,2.48-11.14,16.41-6.43,34.39c2.67,10.16,3.43,6.07,3.98,9.9c2.03,10.13,6.04,17.85,5.51,18.47
		c-5.59-4.85-11.99-11.85-13.77-18.77c-3.99-15.48-0.8-34.3,7.96-48.67c0.47-0.94-0.55-1.86-1.53-0.61
		c-5.48,7-9.14,18.01-10.82,27.04c-0.3-16.25,2.34-33.16,15-43.26c1.58-0.95,1.72-3.86-3.78,0.82c-9.75,8.31-13.49,20.6-13.57,33.47
		c-0.05,7.96-2.04,15.61-2.35,23.37c-10.47,6.11-16.49,4.75-20.51,7.96c-1.33-0.51-2.55-0.39-3.88,0
		c-9.63,2.83-15.24,7.07-22.75,13.67c-23.13,20.31-21.06,20.33-44.49,57.55c-0.35,0.47-3.25,6.76-8.88,15.1
		c-14.31,21.2-13.08,20.86-14.9,23.26c-11.9,15.75-19.6,18.64-33.37,33.98c-2.22,2.47-4.9,4.08-7.65,5.82
		c-1.12,0.61-2.04,0.2-2.86,0.2c-15.95,11.1-26.03,16.85-36.02,30.92c-11.92,16.78-11.05,28.56-12.65,34.59
		c-11.58,43.56,36.52,60.61,49.08,86.93c4.31,9.03,5.61,11.03,18.77,25.51c-5.92-1.08-13-7.47-26.53-5.61
		c-34.03,4.67-29.94,20.81-79.79,10.92c-1.43-3.06-2.36-6.01-4.39-8.37c-11.31-13.2-24.02-20.53-25.41-20.71
		c-15.19-1.96-14.72-1.74-16.22-1.22c-10.61,3.67-20.71,15.25-25.3,24.69c-2.79,5.72-8.31,3.2-14.49,12.35
		c-1.3,2.28-6.95,5.6-11.84,18.57c-0.2,0.71-0.41,1.53-0.92,1.94c-4.39,3.98-4.08,9.39-4.8,14.49c1.92,1.09,1.92,0.51-0.1,4.39
		C5.9,556.47,2.24,563.16,0,570.41c2.35,3.16,5.61,4.9,8.67,7.04c8.38,5.86,17.77-1.79,19.08-2.24
		c15.1-5.29,20.15-10.07,26.12-10.61c6.22-0.57,12.45-1.43,18.67-2.86c0-0.41-0.31-1.02,0.31-1.12c28.27-4.53,20.71-3.62,20.1-9.39
		c5.47,1.28,37.53,0.5,67.04,9.18c15.37,4.52,34.23,3.21,49.39,6.33c5.41,1.11,10.82,2.32,16.33,2.45
		c16.95,0.38,37.91-1.28,41.43-2.65c-1.84-1.63-1.84-1.55-4.18-1.33c-10.93,1.04-21.84,1.93-32.86,0.41
		c-6.1-0.84-53.18-4.14-68.36-7.75c-8.04-1.91-38.58-8.09-70.61-9.29c-1.33-1.53-1.52-3.78-2.76-5.61
		c-2.93-4.34,1.24-7.4,0.31-11.12c2.59-1.62,11.01-4.93,15.51-7.14c5.46-2.68,0.42-5.86,0-7.35c0.1-0.71,1.12-0.92,1.02-1.73
		c-0.71-2.65-2.76-4.59-4.29-7.04c2.35-0.61,4.49,0.92,6.53,0.2c1.22-0.71,1.53-2.24,3.27-2.96c56.29,9.85,40.99-1.83,77.96-9.59
		c8.46-1.78,12.31-0.42,20,2.14c4.9,1.63,9.8,3.16,14.49,6.33c1.43,2.35,4.49,4.18,5.61,7.55c0.4,1.79,2.76,0.6,5,5.71
		c-7.31-4.23-18.86-5.98-27.24-6.84c-11.87-1.22-12.41,1.33-17.35,1.43c-16.88,0.32-20.44,7.38-25.61,7.86
		c-19.74,1.83-21.31,3.04-26.33,2.65c-29.56-2.3-28.98-1.53-29.28-0.1c0.71,1.43,2.04,1.12,3.16,1.12c12.8,0,33.67,3.28,51.43-1.02
		c2.04-0.49,4.48-0.42,6.12-1.73c5.22-4.16,31.18-8.25,34.28-7.96c17.93,1.69,23.52,6.04,34.08,9.29c0.41,0.1,0.82,0.4,1.22,0.71
		c5.38,4.19,11.74,7.06,16.02,12.55c0.31,0.4,0.82,0.92,1.84,0.92c-3.94-6.75-10.16-10.24-12.45-12.75
		c-15.78-17.3-6.21-8.17-28.67-35.2c-14.52-17.48-11-24.3-21.12-32.86c-15.92-13.47-9.73-7.24-18.77-16.63
		c3.34-1.67,2.11-1.17,3.78-3.16c8.2-9.78,24.66-19.55,41.83-21.53c19.66-2.27,23.91-0.01,32.96-3.47c2.78-1.39,1.16-2.42,0.82-2.24
		c-10.11,3.49-17.66-0.45-39.9,2.86c-14.08,2.09-35.76,12.9-41.73,25.3c-10.56-11.86-20.66-25.59-18.77-41.32
		c4.43-37.04,13.74-47.27,40.71-67.34c0.7-0.52,1.22-1.22,2.14-1.22c16.9,15.64,28.32,17.09,29.59,18.37
		c4.59,3.88,9.8,6.93,13.98,11.22c7.17,7.36,16.46,14.48,20.1,20.1c-0.51,1.22-0.92,2.65-2.04,3.67c-1.43,0-2.96-0.41-4.18,0.82
		c-0.82,0.92,0.41,1.33,0.51,1.94c-11.84,4.73,15.17,59.77,15.71,61.22c7,18.66,24.85,71.06,23.06,90.91
		c-0.4,4.42,2.07,8.75-1.53,13.57c-2.66,3.57-5.09,7.15-7.65,10.82c-6.42,9.21,8.46-1.24,11.84-15.92
		c-1.63-1.43-0.71-3.16-0.41-4.59c5.62-26.25-16.36-74.12-19.49-94.28c-2.28-14.69-14.87-44.12-19.59-61.83
		c2.86,0.2,3.98-1.73,5.1-3.57c0.92-0.2,1.73-0.31,2.55-0.41c1.53-2.86,4.19-4.69,6.22-6.94c8.79-9.68,16.02-20.92,26.53-29.08
		c0.92-0.61,1.53-1.63,2.14-2.45c1.72-2.75,18.54-9.31,22.35-17.14c5.61-2.45,10.41-5.82,14.49-9.59
		c6.08-1.14,10.61,6.78,31.53-1.94C383.41,305.63,387.76,288.8,385.9,271.85z M417.24,106.58c0.92,0.92-0.04,0.99-0.3,0.59
		c-0.2-0.27-0.17-0.77-0.43-1.03C416.81,106.25,417.04,106.39,417.24,106.58z M403.04,92.57c2.86-0.1,2.86-0.1,5.41,2.45
		C406.41,94.11,404.98,93.49,403.04,92.57z M402.43,127.06c-4.6,1.81-3.93,3.37-5.1,4.18c-10.2,7.08-11.36,20.23-13.47,21.63
		c-0.44-11.71,3.07-21.24,21.44-28.58C404.06,126.35,404.05,126.42,402.43,127.06z M410.08,123.39c1.73-2.14,3.98-3.27,7.24-4.18
		C415.08,121.86,412.53,122.47,410.08,123.39z M415.9,115.23c3.67,2.94-12.86,5.53-20.82,11.12c7-8.92,14.85-12.02,17.32-12.04
		c0.89-0.01,1.54,0.69,2.38,1.53C414.94,115.76,415.88,115.24,415.9,115.23z M409.16,109.82c2.24,0.61,3.98,1.63,5.51,3.57
		c-7.51-2.95-19.72,8.29-24.79,16.33c-2.25,3.57-5.31,6.63-7.65,10.2C386.09,126.4,397.32,117.18,409.16,109.82z M103.57,521.02
		c-3.44,2.29-1.58-0.84-16.12,7.24c-7.86,4.37-3.05,8.1-2.86,9.8c0.84,7.27,6.13,11.75,7.96,16.63c-5-1.43-9.49,1.33-14.18,1.12
		c-1.2-1.01-3.55-5.68-5.51-2.24c-0.45,1.27,0.94,1.97,1.01,3.17c0,0.36,0.49,0.02-3.56,1.12c-5-4.08-5.41-4.29-7.86-2.35
		c-0.5,1.44,1.33,2.32,1.33,3.68c-3.16,0.41-6.22,0.71-9.29,1.02c-1.12-0.31-1.43-2.76-3.16-1.43c-0.25,0.65,0.18,0.92,0.52,1.46
		c0.32,0.52,0.33-0.63-8.88,4.45c-10.22,5.64-18.32,7.54-23.06,10.71c-1.65,1.1-3.66,1.5-5.41,0.61c-4.15-2.11-8.57-3.78-11.94-7.14
		c1.36-2.72,3.82-5.89,6.93-8.26c-0.61,0-1.22-0.1-1.73,0.51c-0.61-0.61,0-1.01,0.2-1.53c26.1-50.53,14.38-22.11,42.34-56.73
		c1.04-1.29,2.12-2.39,1.43-4.08c0.42-0.21,5.68-4.28,17.35-11.33c3.06,0.1,6.12-0.51,9.29-0.71c1.94,3.06,4.87,5.23,7.35,7.75
		c3.79,3.86,0.53,3.34,5.31,7.86C104.53,515.15,104.41,514.35,103.57,521.02z M86.73,538.06c-1.37-1.1-1.53-2.29-0.71-3.67
		C86.22,535.51,86.42,536.53,86.73,538.06z M105.8,505.42c-2.75,0.31-5.41-1.02-7.96,0.71c-7.04-6.22-12.24-14.18-19.49-20.92
		c-3.06,0.2-6.63,0.92-10.2,0.71c-0.71,0-1.33,0.5-1.94,0.82c-22.89,11.91-24.45,27.38-37.04,35.1
		c-8.86,5.43-10.83,13.16-17.86,23.9c2.65-16.32,2.45-9.27,4.41-13.25c0.55-1.11,1.49-4.71,6.02-11.87
		c7.49-11.83,10.15-13.81,16.4-16.94c8.98-4.49,7.74-9.74,20.51-22.24c2.93-2.87,4.9-3.01,6.53-4.08c3.93-2.57,8.06-2.35,12.75-1.73
		c-1.63,2.45-3.06,4.8-4.49,7.14c7.31-5.18,5.11-8.26,10.71-4.8c7.61,4.7,21.6,17.02,24.16,24.36
		C108.58,503.08,106.58,503.54,105.8,505.42z M262.54,408.17c2.76,8.37,6.43,16.73,8.47,25.71
		C266.85,424.18,254.32,405.18,262.54,408.17z M259.17,405.24c-1.55-0.14-6.42-14.24-3.68-18.91
		C259.67,402.84,263.38,405.61,259.17,405.24z M501.51,184.82c-0.57,0.57-1.25,0.34-2.04,0.1c0.35-0.87,0.82-2.15,1.02-2.86
		C501.08,182.94,501.28,183.8,501.51,184.82z M480.9,103.19c0.87-3.21,5.2-3.41,10.6-15.61c1.13,8.16-4.12,11.44-10.92,26.73
		c-0.1,0.31-0.41,0.51-0.92,1.02C478.7,111.24,479.04,107.24,480.9,103.19z M479.06,118.39c8.42-4.5,11.96-21.85,11.91-12.08
		c-0.02,3.85-1.36,2.82-2.37,3.47c-0.64,0.42,0.11,1.44-10.15,20.24C477.68,125.63,477.53,122.52,479.06,118.39z M488.55,139.21
		c0.2-0.92,0.31-1.94,1.22-2.35C490.47,136.86,490.8,138.24,488.55,139.21z M489.78,124.72c-2.89,0.96-2.12,0.71-3.32,3.01
		c-2.21,4.25-5.94,7.23-8.52,11.17c0.73-12.48-1.11,3.34,11.22-21.73C490.1,119.68,490.55,122.14,489.78,124.72z M477.22,142.67
		c0.37-0.37,4.82-3.3,9.79-10.36c2.4-3.41,1.85-2.89,1.97-2.89c1.2,1.38,1.23,1.91-0.91,6.47c-1.7,3.62-2.84,3.78-5.23,6.17
		c0.15,0.15-2.04,0.47-2.91,1.87c-0.13,0.13,0.59,0.51,1.07,0.17c0.66-0.47,1.63-0.8,2.24-1.63c1.14,0.57,1.98-0.64-5.1,5.61
		C478.14,146.04,477.02,144.61,477.22,142.67z M431.41,220.94c0.92,0.46,1.7,1.08,2.49,1.27c3.01,0.7,6.03-9.33,11.49-15.24
		c4.72-5.12,9.51-2.13,12.35-6.73c1.02,1.02,0.25,1.97,0.1,2.55c-3.99,15.45-11.89,20.73-13.57,27.35c-0.54,2.12-8,7.61-12.04,19.17
		c0,0.51-3.97-5.72-5.74-7.47c-8.66-8.54-11.12-3.04,1.97-17C429.56,223.64,430.58,222.37,431.41,220.94z M411.93,223.49
		c4.59,0.71,5.1,0.51,7.75-3.27c1.02,0.31,1.84,1.12,3.37,1.02c1.65-0.26,4.79-6.46,6.94-1.63c-3.57,5.51-8.98,9.69-12.75,15.61
		c-3.67-2.24-5.92-5.82-9.8-8.37C408.44,226.23,410.92,224.73,411.93,223.49z M362.74,156.76c1.84,7.96,2.55,16.33,8.98,22.55
		C363.6,177.74,361.4,165.47,362.74,156.76z M355.62,168.11c8.91-4.59-0.5-4.99,9.57,8.44
		C343.32,168.11,343.49,174.36,355.62,168.11z M352.53,175.02c-6.73-0.51-13.26-1.33-19.9-1.43
		C339.47,170.94,346,174.1,352.53,175.02z M329.78,174.92c-3.57,1.63-5.71,5-9.18,6.84C323.35,177.06,325.39,175.53,329.78,174.92z
		 M333.68,177.07c3.26-1.13,6.84-0.41,10.31-0.41c6.59,0.41,8.64,0.47,10.71,2.24c1.87,1.6,31.82,7.99,34.55,28.97
		c0.21,1.63,1.21,1.15,1.76,1.33c1.63,3.98,4.46,7.42,6.02,11.63c2.13,5.74,15.33,13.48,22.35,21.73c2.53-0.18,3.56,1.79,4.39,2.35
		c11.95,8.91,12.54,16.25,15.31,16.53c-1.07-2.99-1.07-5.52-3.98-6.84c-0.86-0.39-1.84-2.73-1.77-2.85
		c7.6-9.95,7.51-14.43,18.91-29.09c6.76-8.69,6.49-13.37,10.41-25.2c6.53-19.72,2.77-28.14,10.2-40.1
		c3.3-5.32,5.75-3.87,10.71-10.41c1.81-2.38,4.29-2.85,9.49-7.45c3.89,4.37,4.6,7.02,2.16,12.03c0,1.28,1.59,2.51,2.13,4.04
		c0.14,0.41,0.1-0.48,0.1,4.94c0,0.68,1.28,0.86,1.92,2.81c0.72,2.21-0.42,5.09-0.48,5.38c1.31,2.09,1.44,4.6,1.53,7.04
		c-1.45,3.8-7.06,5.87-10.31,11.22c-0.21,0.35-0.64,0.81-0.64,1.22c-0.06,0.67,0.39,0.2-0.88,0.2c-1.43,0.51-0.92,2.14-2.14,2.55
		c-0.71-0.71,0.15-2.02-0.32-4.16c-0.35-1.6-1.13-1.76-0.93-2.13c1.67-3.19,1.65-2.76,1.3-2.94c-0.77-0.45-1.23,0-1.69,0.46
		c-0.71,0.71-0.73,1.53-0.71,2.55c0.21,11.73-3.44,6.76-0.41,9.8c0,1.83-1.64,0.51-4.29,15.1c-6.19,34.11-1.92,24.32-9.69,49.79
		c-4.2,13.76-13.02,26.72-16.94,33.47c-1.54,2.65-3.67,4.69-6.02,6.43c-8.26-1.94-15.72-5-22.86-9.39
		c-26.58-16.34-28.99-14.92-37.35-22.55c-6.78-6.19-10.25-6.67-18.37-16.84c-10.29-12.89-16.9-16.71-18.67-19.69
		c-1.26-2.12-3.57-1.94-5.71-2.14c0,0.25-0.09,0.82,0,0.82c6.02,3.27,9.78,8.99,14.08,13.98c16.18,18.76,15,17.05,15.1,17.86
		c-2.14,2.45-4.58,4.62-8.26,5.41c-4.68,1-15.2,2.35-22.04,0.51c-10.3-2.77-27.54-10.14-33.47-17.24c-0.84-1-1.84-1.33-3.06-1.84
		c-3.18-10.14-7.32-26.08-2.55-35.61c7.79-15.59,13.6-21.3,15-24.39C321.55,181.62,327.55,179.2,333.68,177.07z M296.62,337.26
		c-4.41,6.45-13.67,12.09-15.51,16.94c-0.38,1.01-17.24,20.54-17.73,19.88c-4.87-7.87-12.95-13.38-17.98-18.35
		c-18.21-17.96-32.52-16.91-45.71-30.1c0.12,0-0.16-0.02,4.8-2.65c14.71-7.81,15.73-13.54,20.61-17.96
		c51.48-46.57,11.59-44.04,61.02-6.22c29.42,22.51,23.82,21.3,31.34,25.2C315.28,327.03,298.17,334.98,296.62,337.26z
		 M370.19,306.85c-1.86,1.56-3.05,2.91-13.67,4.9c-14.69,2.75-19.97-4.03-23.88,0.51c-3.4,3.95-8.16,6.12-12.04,9.59
		c-8.15-3.53,0.45-0.46-40-31.33c-10.18-7.77-22.09-21.52-22.96-23.26c0.1-0.1,2.08-3.16,2.14-3.27
		c12.57-19.39,9.95-21.35,21.02-37.45c19.05-27.71,13.7-19.52,37.04-42.86c0.16,2.43-8.03,9.4-16.53,25.71
		c-4.81,9.22-5.08,23.98,4.59,41.32c0.73,1.32,1.43,2.86,3.37,2.86c1.15,0,11.98,12.36,34.28,17.04c10.3,2.16,20.71,1.43,29.79-5.31
		c0.82-0.92,0.2-2.24,1.73-2.45c0.2,0.17,7.32,6.42,8.78,7.14c0.54,4.33-2.45,10.56-1.33,14.59
		C382.92,286,380.3,298.37,370.19,306.85z"/> <path d="M418.45,122.17c-1.67,5.66-12.46,5.53-10.61,29.08c0,0.2,0.41,0.31,0.92,0.61c0.15-3.83,0.31-10.93,2.76-15
		c0.71,7.96,1.43,10.61,3.16,13.26c-1.22-9.69-0.51-16.43,1.94-19.39c-0.73,9.49,1.74,22.2,1.53,13.06
		C417.69,123.55,420.67,122.8,418.45,122.17z"/> <path d="M418.45,160.32h0.01c0.43,7.55,7.37,10.12,8.25,7.46c-4.41-1.51-8.3-7.41-8.16-7.55c-0.15,0.05-0.1,0.71-0.1-4.69
		c-3.88-1.43-7.65-2.04-11.53-2.04c-1.84-0.1-1.63,2.65-3.98,2.35c0.51-2.96,3.06-5.1,3.27-8.67c-2.04,3.06-3.67,5.71-4.8,8.57
		c-2.44,1.47-2.82,1.81-2.65,2.65c1.33,0.51,2.35-1.84,3.67-0.82c0,5.1-4.39,7.65-6.63,11.22c0.92,2.24,2.55,2.75,4.49,2.45
		c1.12-0.1,2.45-0.31,2.35-1.84c-1.22-1.33-2.86,0.1-3.98-0.71c0-2.1,2.93-0.73,5-6.43c0.19-0.66,0.3-1.59,1.05-1.96
		c0.72-2.88,2.04-4.55,4.15-4.37c2.55,0.23,5.2,0,7.96,1.12c-0.71,3.57-2.04,7.14-0.51,10.82c1.12,0.51,2.14,0.92,3.78,0.41
		C415.15,161.12,418.45,160.21,418.45,160.32z"/> <path d="M404.78,160.33c0.13-0.13,0.16-0.14-0.07-0.02C404.67,160.47,404.64,160.46,404.78,160.33z"/> <path d="M421.71,136.45c0,9.77,2.1,12.33,5.71,22.24c1.07,2.93,2.2,3.07,5.51,5.71c1.75,1.4,3.77,1.96,5.92,2.24
		c0.82,0.11,1.63,0.2,2.04-1.22c-2.24,0.41-4.18-0.1-6.02-1.22c0-0.82,1.22-0.82,1.12-1.63c-5.71-1.22-5.92-1.33-6.53-3.67
		c1.43,0.41,2.14,1.94,4.18,2.14c-1.47-2.95-7.59-5.19-10.2-18.47C423.03,140.43,423.04,138.29,421.71,136.45z"/> <path d="M403.04,167.06c1.94-0.51,2.86,0.92,4.69,0.82c0.51-0.82,1.12-1.84,1.84-2.96c1.02,1.12,2.35,1.02,3.78,0.41
		c0.92-2.45,2.24-5,2.14-7.86c-4.49-0.69-6.67-1.9-9.39,1.33c-0.42,0.5-0.51,1.33-1.33,1.53
		C405.1,160.33,405.49,163.75,403.04,167.06z M408.96,158.18c1.83-0.11,3.51,0.16,4.9,1.43c-0.94,1.22-1.8-0.02-2.63-0.08
		c-1.56-0.11,1.36,2.08,1.61,2.63c-0.55,4.29-2.19,0.56-3.62,0.52c-1.63-0.04-1.56,1.57-2.6,1.83
		C406.51,160.73,406.51,160.73,408.96,158.18z"/> <path d="M435.39,194.1c0,11.52,1.46,6,2.55,5.51c1.63,0.71,3.47-0.61,5.31-1.02c1.53,1.02,2.86,2.35,4.9,1.53
		c-3.98-3.88-8.16-7.45-13.77-9.29c0.71,2.96,3.88,2.35,5.1,4.39C435.35,197.28,437.6,194.26,435.39,194.1z"/> <path d="M401.82,144.82c-0.41-1.12-0.84-2.05-0.31-3.16c0.98-2.06,1.33-4.39,2.45-6.33c1.01-1.35-0.31-3.51-2.76,2.96
		c-2.13,5.62-3.22,11.65-5.92,17.14c-0.6,1.23-0.71,2.65-1.12,3.98c0.31,0.2,0.51,0.31,0.82,0.41
		C397.53,154.92,398.86,149.41,401.82,144.82z"/> <path d="M442.84,164.92c0.48-0.38,2.62-1.68,2.24-3.16c-4.49-0.14-4.83-3.52-8.26-13.06c0.2,4.29,1.12,8.47,2.45,12.65
		c-1.73-0.61-2.96-1.73-5.2-1.73C436.92,162.06,439.98,163.29,442.84,164.92z"/> <path d="M397.12,138.49c-6.42,11.44-6.46,14.22-4.18,16.12c-1.94,3.06-3.47,5.92-4.08,8.57c-0.92,1.33-2.35,1.22-2.76,2.24
		c0.33,2.3,3.52-0.3,3.98-1.94c0.88-3.17,2.65-6.12,3.88-9.29c-1.22-0.92-1.35-2.05-0.92-3.47
		C396.48,139.42,398.4,140.48,397.12,138.49z"/> <path d="M448.75,155.02c-1.33-1.02-0.71-2.86-2.35-3.47c0.2,2.96,0.82,5.51,2.35,8.37c1.53-0.51,1.84,1.43,3.27,1.94
		C449.12,156.2,448.75,141.7,448.75,155.02z"/> <path d="M452.84,148.18c1.22,7.04,2.45,13.57,3.67,20.1C457.94,164.82,455.28,152.06,452.84,148.18z"/> <path d="M251.11,379.6c-4.49-4.9-14.8-12.55-17.96-13.16C252.28,381.35,250.57,380.68,251.11,379.6z"/> <path d="M103.16,533.06c-2.75-1.22-5.61-1.86-8.47-2.45C90.33,529.71,86.56,534.36,103.16,533.06z"/> <path d="M445.39,186.55c0.61,1.63,6.73,10.82,8.06,11.94C454.16,194.51,450.69,190.02,445.39,186.55z"/> <path d="M433.35,125.63c7.98,5.56,5.69,3.68,16.12,13.67C446.1,132.88,438.24,126.04,433.35,125.63z"/> <path d="M459.77,535.21c1.63,1.12,5.92,1.63,11.43,1.43C468.19,534.94,460.04,531.76,459.77,535.21z"/> <path d="M636.4,577.25c4.29,1.22,10.92,0.2,13.26-2.24C636.19,576.88,636.61,576.38,636.4,577.25z"/> <path d="M269.48,566.74c4.59,0.71,10.2-0.41,13.06-3.06C267.07,566.36,269.79,565.49,269.48,566.74z"/> <path d="M431.2,164.41c-4.18-1.53-7.45-3.16-10.31-5.41C423.25,163.49,427.43,165.84,431.2,164.41z"/> <path d="M250.29,541.53c-5.2-0.51-10.41-0.2-15.41,1.33C239.99,542.55,245.19,542.86,250.29,541.53z"/> <path d="M618.54,551.94c-3.67-1.22-12.75-0.92-15.51,0.61C608.24,552.35,613.44,552.15,618.54,551.94z"/> <path d="M222.85,544.19c-3.47,0-7.04-1.43-10.41,0.2C215.91,544.7,219.38,545.21,222.85,544.19z"/> <path d="M590.99,553.06c-3.47-0.51-6.94-1.43-10.51-0.61C583.85,553.57,587.42,553.68,590.99,553.06z"/> <path d="M460.39,159.51c-0.38,2.01,0.31,0.17,0.31,9.18C462.53,165.73,462.43,164.71,460.39,159.51z"/> <path d="M250.29,382.46c-2.35-2.65-5.2-4.08-8.57-4.59C244.48,379.6,247.44,380.83,250.29,382.46z"/> <path d="M213.36,365.93c3.27,0.71,6.63,1.53,10,2.35C220.3,366.54,216.93,365.93,213.36,365.93z"/> <path d="M443.45,157.98c1.53,2.24,3.47,3.78,5.82,4.8C449.82,161.94,450.98,162.64,443.45,157.98z"/> <path d="M258.66,520.31c0.51,3.37,0.92,6.53,1.43,9.59C260.7,526.33,260.19,523.27,258.66,520.31z"/> <path d="M628.03,530.72c-0.31,3.57,0.92,6.63,0.92,9.8C629.36,537.35,629.36,534.19,628.03,530.72z"/> <path d="M105.81,533.06c1.53,1.33,3.06,1.12,5.31-0.1C108.87,532.76,107.44,531.33,105.81,533.06z"/> <path d="M435.59,156.86c-0.71-2.24-1.53-4.59-2.35-6.94C433.14,152.57,433.24,155.12,435.59,156.86z"/> <path d="M427.33,123.29c1.43,1.73,2.86,3.37,4.29,5.1C430.9,126.14,429.98,124,427.33,123.29z"/> <path d="M474.77,537.04c1.43,0.92,2.76,0.71,4.39,0.31C476.41,535.72,476.41,535.72,474.77,537.04z"/> <path d="M371.51,106.76c0.82-0.82,2.04-2.04,2.96-2.96C373.35,104.51,372.13,105.74,371.51,106.76z"/> <path d="M249.27,374.6c-1.94-2.86-4.29-5.1-7.14-6.84c2.04,2.65,4.29,5.1,6.84,7.14c0.82,1.63,2.04,2.86,3.57,3.78
		C251.52,377.15,250.8,375.52,249.27,374.6z"/> <path d="M271.42,481.33c1.02-0.82,2.04-1.84,3.16-2.75C271.93,479.7,271.93,479.7,271.42,481.33z"/> <path d="M630.99,570.1c-1.43,0.51-2.65,1.22-3.47,3.37C629.46,572.45,630.38,571.43,630.99,570.1z"/> <path d="M720.37,403.48c-0.1,1.63,0.2,2.55,1.43,3.27C722.11,405.21,721.39,404.5,720.37,403.48z"/> <path d="M567.22,550.82c1.02,0.2,1.84,1.22,2.96,0.31C569.26,550.41,568.34,550.31,567.22,550.82z"/> <path d="M444.26,163.9c0.71,1.02,1.73,1.53,3.67,2.04C446.61,164.41,445.59,163.8,444.26,163.9z"/> <path d="M259.68,540.51c0.1-1.63-0.41-2.55-1.84-3.47C257.84,538.68,258.56,539.49,259.68,540.51z"/> <path d="M126.52,535.31c-0.92-0.71-1.73-0.71-2.75-0.1C124.69,536.13,125.4,536.33,126.52,535.31z"/> <path d="M625.48,518.07c0.41-1.12,0.31-1.84-0.71-2.55C624.56,516.64,624.66,517.35,625.48,518.07z"/> <path d="M495.18,540.1c-0.92-0.92-1.63-1.33-2.76-0.31C493.45,540.72,494.16,540.61,495.18,540.1z"/> <path d="M201.62,543.06c-1.02-0.51-1.84-0.51-2.96-0.1C199.79,543.17,200.6,544.08,201.62,543.06z"/> <path d="M626.09,547.35c0.2,1.53,0.61,2.35,1.73,3.16C627.93,548.98,627.52,548.27,626.09,547.35z"/> <path d="M256.11,507.66c0.1-0.82-0.2-1.43-1.12-2.14C254.99,506.64,254.48,507.66,256.11,507.66z"/> <path d="M714.56,395.72c-0.41-0.82-0.92-1.53-1.73-2.14c-0.51,1.12,0.41,1.73,0.92,2.24C713.95,396.13,714.35,396.03,714.56,395.72
		z"/> <path d="M389.68,112.47c0.71-0.1,1.33-0.41,1.53-1.12C390.59,111.55,389.98,111.86,389.68,112.47z"/> <path d="M118.16,533.88c0.41,0,0.82,0.82,1.53-0.1C119.08,533.37,118.67,532.96,118.16,533.88z"/> <path d="M486.92,538.06c0.31,0.41,0.71,0.61,1.53,0.41C487.83,537.55,487.43,537.15,486.92,538.06z"/> <path d="M403.86,146.96c0.2-0.41,0.71-0.61,0.51-1.63C404.06,146.04,403.45,146.14,403.86,146.96z"/> <path d="M626.44,391.37C626.48,391.48,626.55,391.41,626.44,391.37L626.44,391.37z"/> <path d="M626.51,391.35l-0.04-0.07l-0.05-0.03c0,0,0,0,0,0c-0.01,0-0.01,0-0.01-0.01l-0.01,0c0,0,0,0,0,0
		c-0.02-0.01-0.03-0.01-0.01,0.01c-0.04,0.04-0.07,0.08-0.09,0.11c0.06,0,0.1,0.01,0.13,0.02c-0.01-0.03-0.02-0.06-0.02-0.11
		C626.45,391.29,626.48,391.31,626.51,391.35z"/> <path d="M692.52,518.17c-2.46,3.69-9.14,8.36-0.51,10.82c-0.66-1.46-3.21-1.6-1.98-4.29C691.42,521.68,694.3,520.83,692.52,518.17z
		"/> <path d="M796.08,406.13c-2.14-4.84-4.87-9.59-9.99-8.57C795.11,401.68,792.22,404.29,796.08,406.13z"/> <path d="M744.86,442.97c0.92-2.86,0.41-4.29-2.96-8.37C741.7,438.27,742.01,441.03,744.86,442.97z"/> <path d="M754.05,484.39c3.27-0.31,6.63,0.1,9.39-2.24C760.17,482.66,756.8,482.45,754.05,484.39z"/> <path d="M728.13,414.7c2.14,2.35,2.96,5,5.41,6.84C732.92,418.58,731.39,416.64,728.13,414.7z"/> <path d="M812.31,545.31c1.84,0,3.67,1.43,6.12-0.1C815.88,544.29,814.04,545,812.31,545.31z"/> <path d="M693.74,531.23c0.1,1.84,1.53,2.45,2.96,3.47C695.58,531.74,695.58,531.74,693.74,531.23z"/> <path d="M719.15,522.86c-1.22,0.41-2.14,0.92-3.06,1.94C718.23,524.49,718.23,524.49,719.15,522.86z"/> <path d="M780.78,394.4c-0.92-0.71-1.84-1.12-2.96-0.71C779.18,394.56,779.23,394.61,780.78,394.4z"/> <path d="M699.25,534.59c1.31,0,1.68,1.03,2.95,0.4C701.4,534.29,700.89,533.47,699.25,534.59z"/> <path d="M750.07,484.09c-0.52-0.91-0.91-0.94-1.43,0C749.15,484.39,749.56,484.39,750.07,484.09z"/> <path d="M755.17,426.44c-0.51,0.1-0.82,0.31-0.71,1.43C755.27,427.36,755.88,427.25,755.17,426.44z"/> <path d="M754.92,417.4c-0.66-0.81-0.96,0.69-0.37,1.28C755.09,418.22,755.23,417.77,754.92,417.4z"/> <path d="M625.89,393.68c0.54-0.72-0.09-1.73,0.42-2.33c-7.8-3.5-31.52-11.55-32.25-11.65
		C596.14,383.41,623.08,390.27,625.89,393.68z"/> <path d="M594.16,375.42c1.73,1.22,3.78,1.43,5.71,1.84C598.13,376.12,595.87,375.2,594.16,375.42z"/> <path d="M602.83,359.6c0.53,1.05,1.84,2.39,3.88,3.27C605.48,361.75,604.67,360.01,602.83,359.6z"/> <path d="M602.73,359.71c-0.85-1.7-1.98-2.49-3.56-2.86C599.97,358.28,601.2,359.19,602.73,359.71z"/> <path d="M620.48,395.93c-1.45-0.62-2.37-1.23-4.08-0.82C617.71,396.02,618.86,396.34,620.48,395.93z"/> <path d="M591.01,350.65c0.42,0.55,1.59,1.93,2.48,1.93C592.94,350.94,590.91,350.55,591.01,350.65z"/> <path d="M596.2,354.71c0.27-0.27-0.93-1.92-2.7-2.12C593.94,353.6,594.71,354.33,596.2,354.71z"/> <path d="M596.3,354.6c0.59,1.18,1.48,1.88,2.73,2.11C599.9,356.93,596.85,354.06,596.3,354.6z"/> <path d="M607.73,374.6c0.48,0.39,0.79,0.86,1.42,0.82l-0.1,0.1c0.16,0,0.15,0.11,0.1-0.1c0.03,0,0.06,0,0.1,0
		C608.95,374.81,608.54,374.4,607.73,374.6z"/> <path d="M594.16,375.32c-0.69-0.69-1.63-0.6-2.77-0.6C592.11,375.68,593.17,375.32,594.16,375.32z"/> <path d="M591.39,374.7c-0.03-0.03-0.06-0.06-0.09-0.1c-0.11,0.11-0.17,0.11,0.09,0.11C591.39,374.71,591.39,374.71,591.39,374.7z"/> <path d="M589.05,374.3c0.55,0.29,1.29,0.42,2.14,0.32C591.47,374.61,590.89,373.89,589.05,374.3z"/> <path d="M585.99,332.36c4.49-2.96,8.98-4.08,13.57-6.22C592.93,326.85,588.14,328.99,585.99,332.36z"/> <path d="M608.23,323.21c-4.27,1.71,0.14,1.81,3.98-0.22C610.9,323.12,609.54,322.83,608.23,323.21z"/> <path d="M630.89,321.24c1.02,0.71,2.04,0.41,3.06,0C632.93,320.52,631.91,320.52,630.89,321.24z"/> <path d="M621.93,321.43c-0.34,0.03-0.67,0.2-1.04,0.52C622.68,323.14,623.42,321.29,621.93,321.43z"/> <path d="M430.89,505.4c-13.67,6.83-4.68,5.07-12.54,13.07c-8.14,8.29-15.21,20-23.06,27.86c5-2.35,26.84-28.98,28.57-34.49
		c5.67-4.15,23.12-11.14,26.22-19.28C446.68,491.53,447.85,496.93,430.89,505.4z"/> <path d="M772.92,522.25c-0.34,0.86-0.23,1.57,1.09,2.43c0.33,0.33-1.13-1.89,2.17-6c0.82,0.51,0.82,1.94,2.14,1.53
		c0.25-3.38,1.38-6.02,4.8-6.02c-0.91,1.19-3.57,2.55-3.57,3.67c1.08,0.81,2.7-1.65,4.59-2.35c2.97-1.1,5.51-3.78,9.08-2.04
		c2.24-0.82,4.69-1.19,7.04-1.22c4.16-0.05,7.7-2.32,10.49-3.32c0.3-0.15-1.1-0.34-6.1,1.16c-5.92,1.18-5.17-0.12-11.73,0.92
		c-11.36,1.8-11.29,1.26-13.37,3.07C774.85,517.74,774.27,518.81,772.92,522.25z"/> <path d="M793.23,472.56c7.24,1.63,14.59,1.02,21.94,1.22C807.82,472.76,800.57,472.15,793.23,472.56z"/> <path d="M775.07,487.86c0,1.33-1.02,1.84-0.41,3.06c1.56-0.93,3.06,1.02,4.69,0.61c0.89-0.89,0.45-1.87,0.51-2.75
		c-1.15-0.97-4.25-3.59-6.02-4.48C771.13,486.11,774.86,487.15,775.07,487.86z"/> <path d="M781.19,491.33c-0.29,1.64,0.2,3.16,0.51,4.8c1.78-1.19,1.94-0.67,1.43-5.71c-0.21-2.08-3.18-5.5-5.5-6.35
		c-1.32-0.56,2.44,4.06,2.44,4.82C781.11,489.39,781.39,490.18,781.19,491.33z"/> <path d="M776.29,512.86c-0.41,0.95,0.08,1.43,1.12,1.43c1.39-2.64,3.94-6.01,7.04-8.57C780.47,506.84,777.82,509.29,776.29,512.86z
		"/> <path d="M780.88,504.6c-4.8-0.51-7.04,1.33-6.94,5.41C776.09,508.07,777.72,505.82,780.88,504.6z"/> <path d="M799.33,494.28c0.03,0-3.81-3.77-5.49-4.79c-2.04-1.24-2.88-3.28-4.29-4.9C789.96,488.26,794.03,492.24,799.33,494.28z"/> <path d="M792.31,493.07c-0.39,0.78-0.15,0.79,0.1,1.53C792.41,494.09,793.33,493.47,792.31,493.07z"/> <path d="M704.76,466.03c-2.99,0.11-5.46,0.89-8.16,2.14C699.95,468.55,702.68,468.6,704.76,466.03z"/> <path d="M689.56,468.99c0.89,0.11,1.5-0.28,2.14-0.92C690.07,468.17,690.07,468.17,689.56,468.99z"/> <path d="M684.38,469.19c-0.78,0.36-0.42,1.73,1.61,0.1C685.23,469.11,684.71,469.03,684.38,469.19z"/> <path d="M450.48,278.81c0-0.14-3.35,0.25-7.22,3.13c-2.61,0-5.12-2.66-8.68-1.72C437.71,285.91,447.42,283.87,450.48,278.81z"/> <path d="M351.32,237.48c-2.38,0.21-4.12,1.61-6.53,2.96C348.9,240.72,350.43,240.49,351.32,237.48z"/> <path d="M493.55,149.51c-1.02-4.18-1.33-4.49-4.49-3.88C490.9,146.86,492.43,147.98,493.55,149.51z"/> <path d="M478.65,192.77c-0.82,1.84-1.12,3.27-1.33,5.61C479.57,195.22,479.57,195.22,478.65,192.77z"/> <path d="M492.12,166.76c1.02-1.02,2.96-1.33,2.96-3.57C493.2,163.74,492.72,165.04,492.12,166.76z"/> <path d="M338.56,242.98c-0.79,0-1.15,0.27-1.43,1.02C338.02,244,338.97,244.5,338.56,242.98z"/> <path d="M488.65,170.22c-0.82,0.61-1.53,1.02-1.33,2.04C487.82,171.77,488.97,171.83,488.65,170.22z"/> <path d="M489.87,154.92c1.07-0.71,1.27-0.85,0.61-1.84C490.08,153.8,489.06,154,489.87,154.92z"/> <path d="M330.6,304.71c0.51,2.75,1.63,3.57,3.98,2.96C333.66,306.03,331.92,305.73,330.6,304.71z"/> <path d="M324.68,298.69c0.2,0.51,0.2,1.43,1.22,1.02C326,298.84,325.53,298.59,324.68,298.69z"/> <path d="M260.91,353.17c-1.84,3.98-2.65,8.16-2.76,12.55C260.5,361.85,260.4,357.36,260.91,353.17z"/> <path d="M260.8,350.52c1.63-2.45,1.43-4.59,0.82-7.55C260.35,345.63,260.47,347.58,260.8,350.52z"/> <path d="M260.29,331.95c0.31-1.22,0.71-2.14-0.1-3.16C259.76,329.87,258.57,330.83,260.29,331.95z"/> <path d="M261.52,338.18c0,0.82-1.12,1.22-0.51,2.24C261.98,339.93,262.06,339.14,261.52,338.18z"/> <path d="M78.36,489.8c-0.51,0.41-1.12,0.92-1.53,1.43c-10.68,13.05-24.99,13.11-25,22.76c-2.29,0.18-17.76,23.63-24.39,31.52
		c2.93,0.74,14.43-16.06,23.67-29.38c0.46-0.66,1.02-1.2,0.75-2.12c0.02,0,0.04-0.01,0.06-0.01l-0.02-0.02
		c2.22-0.36,0.93-2.68,2.47-3.96c5.1-4.24,15.97-8.46,23.06-16.84c0.79-0.94,1.94-1.84,1.73-3.27
		C79.1,489.9,78.44,489.73,78.36,489.8z"/> <path d="M25.41,546.84c1.12-0.1,1.63-0.51,1.94-1.33C26.63,545.72,26.12,546.02,25.41,546.84z"/> </g> </svg> 