<?xml version="1.0" encoding="utf-8"?> <!-- Generator: Adobe Illustrator 23.0.1, SVG Export Plug-In . SVG Version: 6.00 Build 0)  --> <svg version="1.2" baseProfile="tiny" id="Layer_1" xmlns="http://www.w3.org/2000/svg" xmlns:xlink="http://www.w3.org/1999/xlink" x="0px" y="0px" viewBox="0 0 900 600" xml:space="preserve"> <g> <path d="M469.26,552.52l0.1-0.1C469.31,552.39,469.3,552.35,469.26,552.52z"/> <path d="M543.43,14.46c-0.13-0.09-0.1-0.03-0.1,0.1L543.43,14.46z"/> <path d="M505.61,104.66c0.12-0.05,0.21,0,0.1-0.1L505.61,104.66z"/> <path d="M539.87,11.64c0.02-0.01,0.05-0.01,0.08-0.02C539.99,11.49,539.98,11.52,539.87,11.64z"/> <path d="M882.65,172.13c-1.43-0.14-131.38,4.5-135.46,4.5c-1.05-1.05-1.68-2.3-3.25-2.3c-1.78,0-2.51,1.57-3.56,2.62
		c-18.76,0-11.04,1.85-15.09-2.2c-0.88-0.99-2.07-0.93-2.72,1.68c-1.78-0.73-1.99-2.3-2.51-3.77c0.52,0.21,1.05,0.31,0.52,1.15
		c2.22,0.66,2.47-1.09,1.15-1.89c-3.42-3.42-14.55-7.49-15.4-8.38c-1.18-1.23-2.72-1.36-4.19-1.78c-7.51-2.15-14.46-5.36-18.96-7.54
		c-5.12-2.49-3.15-2.35-10.58,0c-2.33,0.74-1.89,2.87-1.89,5.45c-3.58,2.6-3.13,2.26-3.46,3.56c0.35,0.12-0.36-0.36-0.63,2.83
		c0.86-0.78,1.28-1.77,1.41-2.86c1.75-0.47,5.17-4.27,6.66-2.27c-0.32,5.36,2.69,5.89,1.78,8.38c-3.73,1.66-4.23-1.02-5.24-1.78
		c-0.33-0.33-1.47,0.02-1.47,0.84c0,3.5,3.22,3.56,6.7,3.25c2.21-0.2,2.31-2.87,2.51-3.67c5.25-2.82,14.61-3.42,14.04-0.84
		c-2.69,2.07-2.65-0.1-11.84,4.71c-0.52,0.31-0.73,0.94,0.1,1.57c1.68-0.42,3.46-1.14,4.82-2.2c2.74-2.14,10.58-4.96,9.53,0
		c0,0.52-0.42,0.94-0.42,1.36s0.42,0.73,0.63,1.26c0.97-0.48,1.04-0.69,1.89-2.1c-3.6-8.4-2.28-5.4,3.56-2.72
		c27.26,12.47,25.43,7.29-11,36.56c-0.52,0.42-0.94,1.15-1.78,2.2c4.66-0.85,19.63-14.51,21.35-14.26
		c-0.14,1.02-20.09,17.64-20.2,17.72c-7.79,1.62-9.91,2.52-12.99,1.68c-1.47-3.35-1.89-6.81-1.47-10.37
		c2.41-0.84,4.81-1.1,7.12-1.47c3.83-0.6,1.73,4.14,2.93,7.54c-9.46,1.89-7.26,1.59-8.49,2.51c1.51,1.08,1.63,0.18,7.23-0.84
		c7.62-1.39,0.45,1.06,3.77-9.64c8.41-1.94,1.85-1.71,8.07-4.5c2.73-1.23,1.66-4.08,1.17-7.34c0.84-0.62,2.19-0.63,2.7-1.98
		c-0.44-7.99-0.29-6.77-14.88-7.02c-3.45-0.06-3.56,2.71-4.19,4.61c3.32,4.51,5.9,0.97,11,4.19c-4.69,0.25-5.65-0.46-6.39,3.77
		c-0.67,3.86,2.95,3.74,4.92,4.4c0.42,0.1,0.73,0.52,1.36,0.94c-0.94,0.31-1.47,0.73-1.99,0.73c-7.58,0.58-13.61,2.39-17.91,3.25
		c-2.75-1.72-2.76-1.73-6.18-1.68c-11.61,0.19-8.35-0.8-10.79-0.31c-9.9,1.15-15.04-0.63-20.74-1.05c-9.56-0.7-2.23,0.4-10.37-1.99
		c-8.06-2.37-15.56-1.07-26.61-2.2c-9.03-0.92-7.45-1.62-12.57-3.67c-1.78-0.52-3.46,0.63-4.61,0.84c-3.14-0.84-5.65-1.49-8.17-2.3
		c-13.76-4.47-14.3-4.34-13.83-5.76c2.2-0.21,4.71,0.1,6.08-2.62c-1.63-1.78-4.75-1.67-7.23-0.94c-1.66,0.49-0.65,2.7-0.52,3.46
		c-2.83-0.42-4.82-1.99-7.23-3.46c-2.37,0.84-10.1-2.65-12.68-3.77c-13.2-5.72-14.15-2.13-26.5-9.85
		c-14.95-9.35-14.14-12.36-19.17-10.69c0.94,1.89,2.83,2.41,3.98,3.98c-8.2,8.2-14.62,10.19-20.22,12.99
		c-0.42,0.31-0.73,0.94-1.78,0.52c-4.65-12.79-1.86,2.72-5.87-16.97c-0.59-2.91,1.12-0.18-0.52-7.12
		c-3.07-12.99-2.54-10.79-2.62-16.97c-0.1-7.72,3.55-12.78,3.98-14.14c1.61-5.09,8.39-7.55,13.83-15.92
		c0.21-0.42,0.63-0.63,0.94-0.94c27.19,6.8,28.27,22.4,40.44,34.57c3.06,3.06,0.45,2.49,4.3,5.24
		c14.69,10.48,26.62,11.66,33.63,17.81c1.1,0.97,2.44,1.82,6.7,1.89c4.4,0.07,11.76,3.16,13.93,3.56
		c15.25,2.8,50.03,17.24,53.43,18.33c5.49,1.77,11.11,2.91,16.76,4.3c2.52,0.62,4.92,0.84,7.54-0.42c1.2-2,2.09-2.99,4.19-8.59
		c1.67-4.46,4.27-4.9,6.39-6.6c-1.05-1.4,0.23-1.37-5.24,0.73c-3.25-0.94-5.87-3.25-9.22-3.25c-5.55-1.78-10.99-3.58-16.13-6.29
		c-13.15-6.9-18.73-2.31-23.15-5.66c-1.37-1.04-0.55,0.99-14.04-5.45c-6.24-2.98-20.03-11.64-23.99-18.96
		c-1.21-2.72-5.49-8.51-8.7-12.36c-4.3-5.16-10.58-8.08-11.42-8.07c-2.83,0.05-5.14-1.35-7.65-1.99c-4.41-1.13-7.89-3.75-10.69-7.12
		c-7.34-8.87-4.26-0.65-1.78-18.02c7.46-0.6,7.95,1.27,12.05-8.7c4.01-9.77,7.75-14.79,6.08-25.04c-1.06-6.52,0.97-12.41,0.84-13.1
		c-0.56-5.65-0.95-6.71-4.09-18.65c-2.33-8.88-19.94-16.06-34.99-14.88c-1.48-1.06-4.94-4.58-9.74-4.4
		c-7.54,0.29-11.61,3.55-12.47,11.21c-0.96,8.6-2.48,9.88-2.62,16.34c-0.07,3.03-1.4,9.31-2.1,13.1c-2.9,15.8-7.79,23.89-5.66,34.89
		c2.15,11.1,6.19,11.41,4.71,17.81c-0.84,0.42-1.78,0.74-2.41,1.36c-3.33,3.27-7.22,5.88-10.37,9.43
		c-6.08,6.86-11.8,9.05-13.83,15.82c-0.18,0.88-5.26,11.17-0.42,23.57c1.98,5.07,1.35,6.59,4.4,21.48c1.67,6.28,2.32,2.98,3.98,7.54
		c12.86,27.86,10.86,23.44,11.1,39.29c0.04,2.34,0.5,6.34,0,9.95c-0.2,1.47-1.15,2.83-1.05,4.5c0.11,1.89-1.56,2.94-2.1,4.5
		c-1.98,5.83-4.52,10.25-6.29,18.75c-0.42,2.05-0.25,0.46-8.8,27.87c-7.45,23.86-3.35,42.11-3.35,50.7
		c0,22.61-1.61,17.08-1.15,20.85c2.03,16.55,1.99,15.13,1.99,18.54c0,50.09,1.74,36.38-0.21,47.88c-4.18,24.64-0.61,5.62-13.3,38.66
		c-0.64,1.67-0.63,3.35,0.31,5.24c1.81-2.66,2.1-3.33,9.53-23.68c0.94-0.42,1.57-0.73,2.3-1.05c7.74-34.83,1.68-73.74,1.68-105.6
		c0-1.9-1.86-2.96,22.73-1.89c6.74,0.3,26.44,3.67,28.7,5.03c-0.32,1.94-0.16,1.17-2.2,8.8c-2.05,7.67-0.3,4.93-1.26,11.73
		c-2.59,18.47-5.72,24.29-13.3,50.5c-7.88,27.22-4.93,25.01-7.33,29.33c-4.78,8.59-11.28,19.86-11.42,20.43
		c0,2.39,1.79,1.4,3.14,0.63c0,6.73-7.08,39.01-8.59,45.57c-1.96,8.5-2.54,4.76-4.19,12.15c-3.91,17.52-5.38,23.32-5.03,30.17
		c0.44,8.68-0.39,7.37-7.12,13.1c-2.1,1.78-4.5,3.14-6.39,5.03c0.42,3.37,4.3-1.73,8.07-3.56c2.51-1.22,0.73-1.54,6.5-4.3
		c2.08-0.99,3.06-0.31,5.38,0.71c0.19-0.57,0.38-1.06,0.48-1.45c-0.94-1.99-3.04-1.89-4.71-2.41c0-25.2,8.66-44.06,13.93-68.83
		c4.52-21.26,1.1-25.31,3.14-29.54c13.83-28.68,4.77-6.54,24.93-73.86c8-26.7,2.12-31.21,9.53-48.5c1.3,11.18,0.45,18.67,0.63,27.45
		c0.37,18.23,9.85,46.04,9.85,64.01c0,4.51,3.49,16.02,3.35,17.39c-1.41,14.13-3.17,16.45-5.03,30.07
		c-0.46,2.31,12.17,38.23,10.48,43.58c-0.16,0.51-0.34-0.45,1.05,9.95c2.98,22.32,3.89,24.62,2.72,29.86
		c-6.83,1.14-4.01,5.41-7.86,11.73c-1.4,2.81,0.54,9.25-3.25,15.3c-0.32,0.52-0.42,1.05-0.63,1.57c1.68,1.05,3.23,2.01,4.71,2.93
		c8.48,5.27,19.76-0.25,24.3,2.51c2.11,1.28,7.07,2.29,10.9,3.67c2.75,0.99,5.55,1.47,8.49,1.36c1.05-0.1,2.3-0.3,3.25,0
		c3.45,1.09,12.22,0.81,14.98-0.1c17.16-5.72,14.07-5.81,11.73-15.82c0-0.21-0.63-0.42-0.84-0.31c-1.96,0.98,1.47,5.39,0.21,8.9
		c-14.17,7.09-6.49,3.42-14.25,4.09c-17.44,1.49-17.36,1.12-21.16,0.21c-12.46-2.97-11.69-3.5-13.1-5.55
		c-7.05-1.23-19.86,4.22-26.3-2.83c3.83-7.66,1.57-8.91,2.51-11.1c1.32-2.65,0.83-3.81,3.25-12.99c0.1-0.31,0.63-0.63,1.05-1.05
		c0.32,0.87,1.24,2.76,1.78,3.67c-0.31,0.42-0.63,0.73-0.63,1.05c0,0.42,0.21,1.15,0.42,1.15c7.63,1.09,6.59-0.07,15.92-12.89
		c1.23-1.69,2.61-3.11,5.13-2.51c0.94,0.22,1.89-0.21,2.83-0.42c0.21,0,0.31-0.52,0.52-0.94c-3.99-2.49-3.14,1.9-3.56-42.01
		c-0.06-5.87,1.26-14.91,1.68-17.29c0.74-4.29,0.1-8.7,1.36-12.89c0.1-0.52,0.1-0.94,0.1-1.47c0.16-21.87-3.16-22.82-2.93-27.03
		c0.32-5.92,3.25-2.76,3.25-21.48c1.78-0.52,2.07-2.1,2.41-3.67c2.25-10.26,2.81-8.4,3.46-12.78c4.91-33.05,6.7-36.9,5.34-60.55
		c-1.54-26.85-0.79-20.98-1.26-27.34c-0.42-5.71-5.12-33.63-5.13-36.35c-0.07-10.36-1.7-25.09-5.76-34.99
		c-0.46-1.12-2.74-7.57-2.2-8.9c0.71-1.77-1.12-4.58-2.93-12.47c-1.43-6.24-2.1-5.12-1.89-21.48c0.06-4.31,1.75-12.51,4.19-13.93
		c0.74,0.37,7.44,3.08,9.64,3.77c6.72,2.1,5.54,0.22,14.88,1.89c5.21,1.3,6.67,3.12,16.03,3.77c7.33,0.51,15.56,0.43,18.02,1.15
		c7.37,2.15,14.57,1.38,17.08,1.99c11.18,2.72,32.39,2.46,33.31,2.72c1.89,0.54,3.13-0.53,5.76,0c0.49,2.61-0.27,4.91,0.94,9.95
		c0.73,3.03,2.14,1.51,12.47,2.72c0.52-0.31,1.46-0.74,1.78-1.36c2.03-3.94,26.28-21.29,26.82-21.48c1.99-0.52,3.36-1.97,4.92-3.04
		c3.18-2.17,1.18-3.01,3.88-5.03c3.84-2.56-0.57-2.83,15.09-2.83c6.64,5.21,5.91-0.44,10.06-0.52
		c97.54-1.98,129.56-4.11,132.31-5.03C884.44,175.46,884.82,172.53,882.65,172.13z M673.86,157.15c-0.1-0.1-0.42-0.21-0.42-0.42
		c-0.22-0.65,0.06-1.26,1.36-1.26C674.59,156.34,675.16,155.85,673.86,157.15z M679.31,165.53c-0.92-1.84-1.34-2.93,6.81-2.93
		C684.13,164.48,682.03,165.95,679.31,165.53z M683.6,160.29c1.34-0.45,0.78-0.4,1.57,0c0.68,0.68,0.05,0.55-0.31,0.73
		C683.57,161.03,684.48,161.17,683.6,160.29z M688.63,161.97c0.94-0.42,1.47,0.42,2.41,0.84
		C688.56,163.71,688.04,162.56,688.63,161.97z M682.03,157.78c-1.57,0.42-0.42,2.1-0.94,3.35c-0.94,0.52-1.99,1.05-3.14,1.57
		c-0.84-0.84-0.41-1.89-0.63-2.72c-0.2-0.74-0.63-1.47-0.94-2.2c2.2-1.68,2.3-1.68,4.71-0.42c0.94-2.81,1.02-1.39,0-2.41
		c0,0,0.1-0.21,0.1-0.31c0.42,0.42,0.6,0.64,0.66,0.75c0.2-0.14,1.96,0.07,13.07,5.53C699.99,163.42,687.48,159.44,682.03,157.78z
		 M708.43,167.52c-21.15-8-12.79-8.42,8.17,2.51C719.72,172.37,717.04,170.78,708.43,167.52z M691.56,186.69
		c-5.54-2.08-6.57-1.32-7.65-1.68c-2.09-0.7-1.47-2.93-0.21-3.56c0.91-0.3-0.12-0.07,12.57,0.1c0.31,0,0.63,0.21,1.15,0.42
		c0.52,1.68,1.02,3.23-0.1,5.03C696.12,188.93,699.44,189.65,691.56,186.69z M688,193.29c-0.73-1.36-0.63-2.41,0.21-3.46
		c2.62-0.1,5.24,0.1,8.07,0.21c0.43,2.59,0.99,1.21-1.89,4.09C692.19,194.55,690.2,193.71,688,193.29z M548.67,110.22
		c5.81,2.18,8.06,2.31,12.05,5.45c9.68,7.62,20.98,27.99,29.33,30.17c4.66,1.22,16.42,13.21,26.3,13.1
		c7.52-0.09,13.39,0.24,20.32,3.88c10.59,5.55,5.62,1.99,10.69,4.09c16.55,6.86,9.06,4.07,12.89,5.34c4.7,1.88,2.99-0.15,1.36,5.55
		c-1.01,2.79-1.84,5.11-4.09,6.5c-3.96-2.64-12.92-1.11-45.57-15.19c-16.84-7.26-32.41-8.67-37.19-10.27
		c2.69-21.56-9-18.73-24.93-44.42C547.38,110.47,546.68,109.72,548.67,110.22z M543.85,108.65c1.53,2.64,3.66,5.03,5.03,7.86
		c1.88,3.88,4.5,7.34,7.44,10.58c17.06,18.83,16.14,12.63,16.45,28.81c0.09,4.53-5.44,0.91-12.05-1.89
		c-13.24-5.61-16.35-5.89-22.1-10.69c3.46-0.31,6.71-0.6,9.74-0.94c2.75-0.31,5.31-2.96,5.55-6.91c0.52-8.53-6.81-18.96-13.3-29.02
		C542.38,107.18,543.31,107.71,543.85,108.65z M547.62,15.72c0.1,0.1,0.25,0.35-0.21-0.1C547.52,15.62,547.62,15.72,547.62,15.72z
		 M537.14,8.07c1.58,0.6,2.72,1.78,3.77,3.35c-0.39,0.09-0.68,0.12-0.96,0.19c-0.3,0.86-0.18,0.76,0.44,1.38
		c-0.9,0-0.73,0.19-0.73-0.73c-0.59,0.25-0.84,0.3,0.65,1.4c0.12-0.84-0.52-0.87,3.02,0.75c0-0.57,0-1.06,0-1.63
		c1.47,0.73,1.47,0.73,2.2,1.89c2.24,3.55,1.65,3.61,2.19,1.29c0,0.48,1.9-0.05,3.57,5.1c1.5,4.61,3,10.84,3.77,13.93
		c-1.36,0.52-2.62-0.42-3.88,0c-1.26,0.42-2.72-0.1-3.77,0.84c0.18,1.66,2.79,1.24,4.4,0.84c1.16-0.29,2.3-0.1,3.56,0.52
		c-0.21,1.68-0.84,3.14-1.78,4.71c-1.35-1.01-4.57-0.97-6.39,0.63c-0.21,1.05,1.26,1.05,1.26,2.2c0,0.63,0.84,1.26,1.26,1.89
		c1.89-0.42,1.89-0.42,4.09-2.83c1.91,16.26,2.49,13.24-6.39,34.68c-2.95,7.12-8.19,2.64-12.26,5.03c1.37,6.31-2.03,7.2-1.36,17.29
		c8.98,8.98,11.58,18.94,14.35,20.32c0.31,0.21,0.63,0.73,0.73,1.15c4.43,12.4,5.16,17.25-3.88,18.75
		c-4.53-6.35-3.05-3.14-3.56-7.23c-1.05-0.31-1.05,0.63-1.78,0.73c-0.83,0-1.14-0.73-4.82-2.83c-0.31-0.21-0.84-0.1-1.68-0.21
		c2.33,3.06,6.7,4.23,9.85,9.74c-6.95,1.07-11.46-3.21-14.77-4.3c-2.48-0.81-16.91-22.26-23.15-29.75
		c4.36,0.93,12.17,3.24,16.03,2.62c-2.32-1.33,1.18-0.21-11.1-2.83c-3.39-0.72-1.97-3.14-4.24-2.35c0.28,0.3,0.49,0.7,0.89,1.19
		c-3.79,0.63-1.6-0.68-9.53-7.44c-4.89-4.16-5.57-3.16-3.25-5.03c9.05-7.31,14.77-9.56,14.77-26.3c0.42-0.1,0.84-0.21,1.47-0.42
		c-0.84-2.83-1.68-5.66-2.72-8.49c-0.73,0.21-1.47,0.31-2.2,0.52c-4.03-2.78-7.75-7.06-7.75-11.94c-0.73-2.1-0.31-3.35,1.68-4.82
		c0.94-0.94,1.36-1.05,1.99-0.52c0.66,0.55,1.65,1.78,1.78,1.78c-1.23,0.35-0.55-0.36-3.25-1.26c-0.52,1.68-0.94,3.46-1.47,5.13
		c1.57-0.21,1.68-1.89,2.62-2.83c1.31,1.31,1.49,0.49-1.05,3.98c0.73,0,1.26,0.21,1.57,0.1c0.72-0.4,1.32-0.98,2.08-1.24
		c-1.54,3.09-2.28,3.47,0.32,5.43c-0.31,1.47-0.31,1.47,1.15,2.72c2.72-2.72-1.45-2.82-0.84-7.12c0.1-0.51-0.1-0.92-0.6-1.04
		c0.82-0.27,0.47,0.27,0.91-1.06c1.99-0.31,3.77,0.73,5.87,0.94c0-1.68-2.62-1.36-1.36-3.14c-7.06-2.02,2.3,0.14,2.3-2.93
		c-0.33,0-5.29,0.94-7.65-0.94c3.92,0,7.15,0.48,9.32-2.41c-0.42-0.1-0.63-0.42-0.73-0.31c-5.5,2.86-8.49,0.87-13.72,2.62
		c-0.63-1.15-1.05-2.2-0.63-3.56c4.06,0.58,15.49,1.39,17.7-2.1c-0.21-1.05-1.05,0.31-1.36-0.73c0.37-0.74,4.89-2.62,1.99-2.62
		c-1.59,0-2.18,0.94,3.14-4.71c-1.89,0.31-2.73,1.55-3.98,1.78c-1.05,0.19-1.89,1.57-3.46,0.52c0.84-0.31,1.47-0.74,2.1-0.84
		c0.73-0.11,1.36-0.31,1.47-1.26c-3.87,0.39-3.46,0.27-5.76-0.42c0.56-0.89,0.75-0.18,5.87-1.89c-1.61-1.29-1.91,1.13-13.2,0.1
		c1.05,1.57,2.61,1.17,3.67,1.68c1.14,0.55,2.51,0.84,3.67,1.26c0,0.92-0.39,1.05-3.46,1.05c-1.26,0-2.29-0.32-3.04-1.47
		c-0.21-0.32-0.84-0.42-1.26-0.63c0,0.63,1.15,1.36-0.31,2.2c3.34,0.73,6.58,1.47,9.71,2.19c-0.21,0-0.04,0.64-1.64,0.64
		c-1.99,0.21-3.98,0.31-6.29,0.52c0.52,0.52,0.73,0.94,0.94,0.94c2.5,0,4.99-0.01,7.65-0.42c-4.26,2.66-9.57,2.66-14.46-1.15
		c-0.83-0.64-0.73-1.68-0.31-2.72c1.47,0.52,2.3,2.41,4.71,2.41c-1.99-1.79-3.1-2.57-4.61-4.09c0-6.08,1.45-0.03,4.61-0.21
		c-2.83-3.15-5.23-4.78-2.72-7.86c4.34,2.6,1.63,1.64,13.3,3.04c-1.98,1.42-3.54,0.72-7.65,1.47c5.89,1.12,4.81-0.31,13.1-0.31
		c0.49-1.34-0.17-1.6-7.75-2.62c-5.89-0.79-6.38,0.92-9.53-1.99c-2.27-1.52,1.44-3.94,2.93-6.18c0.52,0.52,1.15,0.84,1.36,1.26
		c0.63,1.78,2.2,2.42,3.77,3.04c14.99,5.91,9.85,1.78,12.36,0.94c0.84-0.21,1.36-0.94,1.57-1.78c-3.8,2.05-5.64,3.34-6.5,1.47
		c-0.31,0.21-0.63,0.42-0.94,0.42c-1.78-0.31-3.46-0.73-4.92-1.78c-2.3-0.42-3.98-1.78-5.45-3.88c0.35-0.08,0.68-0.24,0.97-0.35
		c0.41,0.81,1.05,1.22,1.91,1.1c-1.15-2.16-2.59-0.31-0.47-2.85c1.96,0.97,3.81,1.96,5.59,2.93c1.2,1.74,7.58,0.3-2.56,1.57
		c-0.92,2.77-0.45-0.2,4.5,1.78c0.42,0.1,0.63,0.63,0.94,0.94c4.57-1.52,1.67-2.2,6.5-2.2c-0.31-0.21-0.52-0.52-0.84-0.63
		c-4.22-1.69-6.2-2.78-8.39-1.82c-0.6-1.19-1.52-1.29-3.56-3c0.84-1.36,1.79-1.59,3.14-1.15c3.79,1.21,7.63,2.46,11.42,3.88
		c5.35,1.99,3.78,0.11,5.87,1.15c3.63,1.82,4.15,2.89,5.45,2.51c1.47-0.42,2.51,0.42,3.56,1.26c0.52-0.31,1.05-0.63,1.78-0.94
		c-6.28-5.38-9.17-5.49-6.81-6.1c0.53,0.45,0.13,0.48,0.84,0.13c-0.25-0.25-0.24-0.21-0.64-0.21c-0.07-1.18-2.93-1.82-5.12-3.35
		C531.8,6.08,534.54,7.09,537.14,8.07z M491.57,91.88c0.1-1.36,0.21-2.3,0.31-3.56C494.21,90.35,494.4,89.9,491.57,91.88z
		 M493.25,83.19c0.96,0.39,0.77,1.13,0.74,1.9C493.5,84.68,493.4,83.9,493.25,83.19z M494.17,85.5c0.01,0.01,0.02,0.02,0.02,0.02
		C494.19,85.59,494.19,85.58,494.17,85.5z M505.19,72.82c-0.1-1.05-0.21-1.57-0.31-2.41C505.51,71.25,505.51,71.25,505.19,72.82z
		 M505.3,63.39c0,0.1,0.1,0.21,0.1,0.31c0,0-0.1,0.1-0.21,0.31C505.19,63.81,504.91,63.78,505.3,63.39z M502.89,60.87
		c-0.68,0.68-0.63-0.79-0.94-1.57c-0.1-0.21-0.31-0.21-0.42-0.31c0-0.21,0.1-0.42,0.1-0.63c0.36,0.36,0.31,0,0.31,0.94
		C502.82,59.18,503.42,60.34,502.89,60.87z M496.5,32.27c0.52-0.31,0.42,0,0.42,0.31c4.7,1.57,3.95,3.3,15.19,1.05
		c-2.67,1.78-2.35,1.89-10.48,1.89c-5.18,0-5.76,0.59-4.71-2.93C496.81,32.48,496.71,32.38,496.5,32.27z M511.48,30.28
		c0.17,0,0.04,0.07-0.19,0.09C511.35,30.35,511.43,30.31,511.48,30.28z M520.7,9.33c0.45-0.45,0.49-0.07,0.84,0.1
		C521.41,9.31,521.11,9.33,520.7,9.33z M521.88,9.55C522.01,9.59,522,9.59,521.88,9.55L521.88,9.55z M513.89,2.63
		c0.67,0.22,1.01-0.01,1.36,1.05c-0.78,0-0.43,0.33-1.62-0.15C513.71,3.25,513.8,2.98,513.89,2.63z M515.88,5.66
		c4.38-1.15,8.38,0.32,12.26,1.89c0.52,0.21,0.84,0.73,1.36,1.05c-4.19-0.52-5.21-2.5-7.12-1.78c-1.46,0.55-3.04,0-4.5,0.73
		c-1.47,0.73-3.04,0.31-4.3-1.05C514.2,5.66,515.14,5.86,515.88,5.66z M513.42,3.55c-1.24,2.05-1.69-0.01-6.65-2.49
		C511.18-0.42,511.79,2.2,513.42,3.55z M498.49,6.08c1.83-3.71,6.14-6.07,9.32-3.35c3.09,2.64,4.8,2.49-0.63,1.89
		c-0.31,0.94,0.84,1.05,0.94,1.78c-0.63,1.26-1.89,1.47-3.25,1.68c-0.42,2.31-2.99,0.45-5.24,4.09c-0.96,1.56-1.99,3.14-3.04,4.71
		c-0.31-0.21-0.63-0.31-0.63-0.42C496.39,12.89,496.89,9.32,498.49,6.08z M487.7,63.81c1.14-4.4,1.78-8.9,3.25-13.3
		c3.26-9.78,1.4-14.26,3.35-15.82c2.37,5.07-1.06,2.89,3.25,18.33c0.22,1.11,4.2,3.05,1.57,6.5c-1.03,1.34,2.28,14.24,2.3,14.35
		c1.21,4.77,4.73,7.42,0.42,9.85c-0.85-4.81,0.18-1.33-3.88-16.03c-3.15-11.4-1.5-8.92-2.2-10.9c-1.95-5.47-0.16-7.71-2.2-7.96
		c-1.26,2.21-0.77,4.76,1.26,16.55c0.75,4.36-0.02,6.18,2.41,11.94c3.48,8.24,3.48,7.92,0.63,9.95c-2.08-3.46-0.51-7.4-4.19-8.49
		c-2.2-6.18-2.93-12.36-1.36-18.75c-0.94-0.21-1.26,0.31-1.36,0.84c-2.67,9.92,0.84,14.86,1.57,20.74c0.72,0.31,0.63,0.91,0.73,1.53
		c-0.12-0.57-0.28-1.09-0.73-1.32c-3-2.29-1.24-5.83-3.56-8.38c1.53,11.45,2.51,9.35,2.51,12.15
		C485.93,79.31,486.23,69.48,487.7,63.81z M489.16,95.45c7.52,4.29,11.16,9.67,9.32,8.8c-14.59-6.93-10.57-5.07-13.51-6.18
		C486.44,97.23,487.8,96.39,489.16,95.45z M481.73,188.06c-3.23-3.22-2.6-4.07-6.18-9.22c-0.81-1.17-0.94-2.41-0.73-3.98
		c8.2-2.56,10.38-1.23,22.1-15.3c1.78,0.21,3.06,1.02,4.3,1.99c8.07,6.37,13.69,8.01,25.67,13.1c-6.74,2.45-14.33,0.33-14.46,0.31
		c-1.36-0.1-2.72,0.19-3.98-0.21c-3.51-1.1-7.11-3.75-7.96-3.67c-2.28,2.28,10.34,9.93,29.65,4.71c0.1,0.03,8.59,2.2,8.7,2.3
		c2.3,1.89,5.24,2.3,7.86,3.46c0.94,0.42,1.89,1.05,3.14,1.68c-0.73,0.21-0.94,0.42-1.26,0.42c-8.26-0.08-19.11,2-22.31,0.63
		c-1.29-0.32-32.44,5.12-35.3,4.4C484.81,186.71,483.3,189.89,481.73,188.06z M556.74,186.38c-4.25,8.78-4.76,19.24-4.4,29.02
		c0.25,6.95,2.57,8.41,3.98,15.19c4.99,23.96,5.45,5.35,8.59,34.68c0,1.82-2.5,1.14-10.48,2.83c-0.94-1.26,1.15-2.51-0.31-3.77
		c-1.57,0.94-1.36,3.04-2.72,4.4c-12.21,3.53-23.74,3.35-28.29,3.35c-6.27,0-47.34-11.88-51.44-8.8
		c0.76,0.25,45.13,11.36,59.71,10.69c14.96-0.69,30.13-6.51,33.84-5.45c1.33,9.34-0.23,16.04,1.99,19.07
		c0.92,1.26,0.68,12.6,1.47,13.2c2.77,2.11,3.04,20.28,3.04,23.78c-1.56,2.09-1.75-1-9.53-0.63c-8.77,0.42-36.49,1.15-41.38,4.82
		c0.72,3.62,3.57-5.1,50.81-1.47c0.67,4.66,1.9,57.19-7.12,77.1c-2.1,4.63-3.86,9.24-4.3,14.04c0,3.84,2.01,1,0.94,10.16
		c-1.19,10.24-9.69,16.57-2.62,15.5c0.21,0.63,0.52,1.26,0.63,1.89c3.31,19.54,0.7,8.82,1.26,25.04
		c0.34,10.03-2.12,12.19-3.46,32.58c-0.47,7.24,0.84,3.93,0.84,9.32c0,33.02-0.04,5.2,0.31,27.45c0.02,0.96-1.78,0.2-7.86,9.22
		c-2.98,4.42-4.36,5.81-7.54,7.12c-1.48-0.74-1.46-1.09-1.78-1.57c1.36-2.2,1.36-2.2,1.78-7.12c0.52-0.21,0.94-0.31,1.47-0.52
		c0.63-2.51,0.73-5.13,0.63-7.96c-2.61,1.91-0.69,13.22-4.92-12.99c-0.36-2.23,1.37-9.04-5.45-35.3
		c-8.16-31.43-7.78-21.99-3.88-43.58c1.44-7.97-0.28-7.99,3.25-5.34c0.5-1.74,0.48-0.55-3.88-18.54c-1.13-4.68,0.84,1.35-0.84-13.93
		c-2.56-23.37-8.87-36.27-9.01-56.57c-0.1-13.85-0.37-20.42-0.73-26.71c0-0.73-0.63-1.36-1.05-2.41c1.13-1.03,2.57-2.26,3.92-3.5
		c0.43,0.78,1.23,0.86,1.84,0.57c2.8-1.32,5.55-2.62,8.17-4.71c-2.29-0.65-6.14,3.2-9.92,4.05c5.67-7.58,5.13-6.88,5.21-6.99
		c1.08-1.35-0.84-2.41-1.78-1.47c-1.62,1.39-1.85,1.44-9.11,10.69c-1.14,1.3-2.46,4.93-2.93,5.97c-12.7-1.81-32.75-7.59-51.44-4.92
		c-0.81-3.82-0.6-4.81-0.21-12.57c1.41-27.95,3.4-32.85,7.65-44.52c2.53-6.95-0.18-2.25,1.78-7.96c1.73-5.04,3.67-9.95,5.34-14.98
		c0.84-2.51,1.36-5.03,2.2-7.54c2.82-8.45,10.4-8.9,3.77-45.36c1.15-1.68,2.93-1.76,4.5-1.26c5.17,1.66,21.06-0.94,28.6-2.1
		c1.56-0.24,5.14-0.14,5.34-0.21c3.34-1.08,6.91-0.55,10.37-0.84C544.99,185.38,558.4,182.94,556.74,186.38z M710.08,193.36
		c0.51-1.11,1.37-1.86,2.66-1.94C712.06,192.28,711.27,193.1,710.08,193.36z M713.56,190.57c-0.28,0.19-0.47,0.45-0.66,0.65
		C712.82,190.75,713.1,190.57,713.56,190.57c0.1-0.1,0-0.21,0.1-0.31c8.18-7.12,7.48-7.44,7.96-5.03
		C712.84,191.62,714.82,190.15,713.56,190.57z"/> <path d="M681.85,155.39C681.77,155.45,681.95,155.56,681.85,155.39L681.85,155.39z"/> <path d="M85.93,20.02c-0.11,0.04-0.27-0.01-0.1,0.1L85.93,20.02z"/> <path d="M198.87,178.94c-2.72-2.93-3.88-3.46-7.23,0.31c-15.94,0.78-12.28,0.83-14.88-2.2c-0.66-0.88-1.96-0.81-2.72,1.47
		c-1.68-0.52-1.78-2.1-2.41-3.56c1.15,0.31,2.1,0.63,3.25,0.94c0-0.82,0.58-1.8-0.84-2.51c-6.33-4.1-7.33-4.73-15.09-7.96
		c-4.49-6.91,4.54-14.67-7.75-28.5c3.17-5.94-6.6-24.96-10.58-25.04c-2.62-0.05-4.83-1.34-7.23-1.99c-7.73-2.1-8.98-6.12-15.3-11.73
		c0.21-0.94,0.22-1.78,0.52-2.51c1.18-2.82,1.43-5.85,1.99-8.8c0.51-2.68-1.05-1.71,7.44-2.51c2.76-2.3,3.17-4.2,8.38-16.13
		c3.83-8.77,2.87-10.93,1.99-21.48c0-0.63-0.22-1.36,0-1.78c3.33-6.44-1.9-27.74-6.6-31.43c-11.11-8.71-25.73-10.01-31.01-8.8
		c-4.39-4.39-9.2-5.77-14.98-3.77c-6.03,2.08-6.46,6.75-7.12,9.95c-3.01,14.62-2.73,13.75-2.62,15.92c0.2,3.93-1.12,6.13-2.1,12.78
		c-2.11,14.43-3.49,13.09-4.5,18.54c-1.51,8.1-2.23,10.46-1.89,13.83c1.48,14.36,7.34,15.17,5.13,21.79
		c-7.48,3.49-7.77,4.48-12.57,6.7c-1.15,0.63-1.15,1.78-2.1,2.41c-13.21,3.6-10.9,3.82-15.5,10.16c-5.25,7.23-6.96,13.63-9.43,25.46
		c-0.55,2.63,0.29,9.02,0.84,11.42c1.75,7.66,0.32,15.54,1.05,21.58c1,8.31,0.16,17.89,0.73,21.58c1.8,11.54,3,20.7,6.29,25.77
		c2.87,4.43,5.61,17.11,9.74,17.7c3.04-1.99,6.7-1.57,10.27-1.36c0.17,2.17-5.24,9.15-7.75,19.38c-2.22,9.05-14.06,35.41-11.1,63.28
		c2.01,18.93-0.85,30.02-0.73,31.22c1.03,11,1.89,13.85,1.89,17.5c0,51.98,2.82,38.68-2.62,62.44c-1.3,5.68-1.71,1.23-10.58,24.83
		c-0.63,1.68-0.63,3.35-0.1,5.34c0.42-0.31,0.84-0.52,0.94-0.73c8.81-18.15,6.64-21.29,11.31-24.1c2.33-10.26,1.19-6.98,2.1-12.36
		c2.18-13.01,1.78-14.43,1.78-21.9c0-71.94-1.67-17.57-2.1-70.61c-0.01-0.63,0.1-1.36,0.1-1.99c12.26-2.62,41.07,0.94,51.12,4.71
		c-0.39,4.91-3.87,11.44-2.93,16.45c1.89,10.14-15.39,55.9-19.8,80.77c-0.34,1.89,0.2,0.98-10.69,20.43
		c-1.48,2.64-2.96,3.56-0.84,4.71c3.18-1.59,1.61,0.41,12.57-21.69c1.02-2.06,1.62-5.7,2.3-8.28
		c12.13-45.81,18.65-55.52,18.75-80.14c0-1.11,0.07-1.64,3.56-14.67c0.1-0.63,0.63-1.05,1.26-2.2c1.11,60-2.12,15.2,9.95,89.68
		c-0.9,5.83,3.62,17.43,3.25,20.22c-0.6,4.51-0.59,9.1-1.68,13.62c-4.93,20.48-4.74,11.85,2.41,37.4
		c6.61,23.61,4.92,18.83,4.92,23.36c2.62,24.88,6.27,39.18,2.93,39.18c-5.29,0.69-3.72,5.93-7.02,11.52
		c-0.79,1.19-0.76,4.44-0.73,5.97c0.08,5.03-1.6,7.2-3.04,10.79c7.08,4.05,6.98,6.24,24.83,4.5c2.79-0.27,2.73,0.79,8.07,2.62
		c10.45,3.57,13.82,3.65,17.18,3.46c2.54,0,8.81,1.52,14.98,0.31c3.93-0.77,11.61-4.04,13.41-5.24c2.6-1.52,1.65-3.2,0-10.79
		c0-0.36-0.94-0.7-1.15-0.63c-1.76,0.59,1.44,5.9,0.1,8.9c-3.25,1.36-6.08,3.77-9.64,4.5c-4.5-1.5-17.33,1.8-25.56-0.21
		c-12.36-3.02-12.4-3.29-12.78-4.92c-1.17-3.5-19.98,4.19-27.03-3.56c0.31-0.63,0.42-1.05,0.63-1.47c3.06-4.81,1.15-7.7,2.1-9.64
		c1.39-2.86,1.21-5.78,3.14-12.99c0.11-0.42,0.63-0.63,1.15-1.05c0.58,1.73,0.7,2.07,1.78,3.88c-1.05,1.57-0.84,2.28,0.42,2.41
		c3.66,0.38,4.7,0.07,5.87-0.94c7.78-6.75,8.49-15.55,14.14-14.77c0.84,0.12,1.68,0,2.51-0.1c0.63,0,1.05-0.42,1.05-1.36
		c-2.16-1.44-3.09-0.55-3.14-10.79c-0.2-39.52-0.51-31.04,0.21-39.6c1.47-17.58,5.25-30.49,0.21-46.83
		c-2.05-6.64,3.02-7.12,2.72-21.79c-0.02-0.84,0-1.68,0-2.72c1.78-0.73,2.02-2.4,2.41-4.09c2.39-10.37,2.02-4.59,3.77-14.67
		c7.68-44.17,5.42-38.06,3.77-88c-0.06-1.69-5.13-32.43-5.13-34.47c0-30.24-8.43-33.72-11.63-59.3c-0.78-3.12,0.34-2.37,1.99-4.92
		c0.61-0.95,1.47-1.47,2.62-1.68c9.54,4.77,5.97,3.14,13.93,3.14c4.78,0,8.43-7.57,10.37-11.94c-1.63-3.91-2.98-5.48-2.83-7.96
		c4.14-3.31,8.4-5.53,8.8-7.12c0.8-2.56,2.1-2.33,4.4-5.55c4.3-0.1,8.49-0.21,12.68-0.31c5.25,4.82,6.83,0.76,8.17-0.31
		c0.13,0,73.26-2.61,92.61-3.46c41.32-1.82,42.52-0.26,42.95-3.46C336.24,171.49,326.01,176.18,198.87,178.94z M169.95,173.28
		c-0.37-0.15-0.68-0.35-0.97-0.57C169.38,172.73,169.74,172.85,169.95,173.28z M168.35,172.35c-8.36-3.3-11.06-3.99-13.06-4.93
		C131.17,156.04,167.77,170.27,168.35,172.35z M150.89,169.09c-0.42,0.52-0.94,1.05-1.47,1.47c-0.63-0.94-1.15-1.89-1.68-2.72
		c0-0.1,0.1-0.21,0.1-0.31C149.42,167.84,149.42,167.84,150.89,169.09z M132.66,110.74c12.23,4.08,8.19,2.37,14.14,11.73
		c2.2,3.46,3.25,7.12,2.1,11.84c-7.54-7.23-13.72-14.88-18.33-23.89C131.4,110.11,132.03,110.53,132.66,110.74z M131.17,16.38
		c-0.13-0.08-0.24-0.16-0.4-0.24C131.24,15.67,131.12,16.13,131.17,16.38z M97.56,3.04c0.31,0.31,0.63,0.63,0.84,0.94
		c-0.1,0.1-0.31,0.31-0.42,0.31C96.86,3.93,97.42,3.46,97.56,3.04z M112.54,8.7c-0.64,1.71-5.22-2.83-7.86-0.94
		c-3.09-0.62-6.07,2.06-8.07-1.05C102.28,4.72,107.41,5.98,112.54,8.7z M105.92,10.28c0.1,0.05,0.19,0.09,0.13,0.09
		C106.12,10.45,106.04,10.38,105.92,10.28z M105.73,10.17c-0.52-0.1-1.05-0.21-1.68-0.21C104.9,9.44,105.31,9.85,105.73,10.17z
		 M96.41,4.62c-1.78,0.1-1.78,0.1-5.76-3.04C93.48,0.43,94.21,0.84,96.41,4.62z M81.53,6.92c1.65-3.36,5.72-6.16,8.7-4.09
		c1.05,0.73,2.3,1.26,3.14,2.3c-0.94,1.05-1.89-0.31-2.83,0.21c0.21,0.52,0.52,0.94,0.73,1.47c-0.63,1.26-1.99,1.26-2.93,1.99
		c-0.84,0.42-1.68,1.15-2.62,1.47c-3.46,1.15-3.4,4.96-6.29,7.12c-0.21-0.42-0.31-0.63-0.31-0.84C79.75,13.31,80.05,9.95,81.53,6.92
		z M94.73,30.49c-2.83,0.31-5.55,0.73-9.01,1.15c3.24,1.22,5.98,0.29,8.52,0.5c-4.44,2.3-8.74,1.79-13.02-0.82
		c-1.24-0.76-1.68-1.68-0.94-3.25c1.36,0.84,2.72,1.68,4.19,2.62c0.21-1.68-1.36-1.57-1.89-2.3c-2.39-2.78-2.5-0.65-2.1-4.71
		c2.49,1.56,6.63,3.14,4.3,4.5C87.92,29.65,91.49,28.82,94.73,30.49z M71.06,78.26c-3.1-14.51,4.3-24.39,5.76-41.38
		c0-0.52,0.1-1.15,0.31-2.1c3.39,3.39-0.8,1.34,3.77,18.12c0.33,2.33,4.25,2.12,1.36,7.12c-0.38,0.76,2.49,13.62,2.51,13.72
		c0.51,2.55,1.79,4.5,2.72,6.18c-0.63,3.14-0.63,3.14-2.41,4.19c0.31-5.24-2.19-9.74-3.25-14.67c-5.57-25.97-2.83-17.75-4.5-20.53
		c-0.42,0.52-0.84,0.84-0.84,1.15c-0.35,5.25-0.12,4.06,1.68,14.67c0.74,4.36,0.02,7.3,2.83,13.62c3.37,7.58,2.88,7.44,0.31,8.9
		c-0.73-0.1-0.84-0.84-0.94-1.36c-0.21-1.05-0.51-2.1-0.63-3.14c-0.63-5.75-2.96,1.41-4.92-13.3c-0.41-3.04,0.42-6.08,0.73-9.22
		c-1.05,0.21-1.36,0.84-1.47,1.57c-2.27,11.33,1.9,15.97,1.36,19.17c0.58,0.08,0.61,0.48,0.82,1.25c-0.93-0.11-0.93-0.73-0.82-1.46
		c-1.98-0.92-1.04-3.03-2.62-6.81c1.2,11.17,1.25,6.53,1.77,11C72.49,83.2,71.58,80.72,71.06,78.26z M85.1,58.88
		c0.63,0.84,1.68,1.36,0.94,2.72C85.2,60.25,85.2,60.25,85.1,58.88z M77.24,86.23c-0.09-0.86-0.19-1.54-0.2-2.21
		C77.67,84.53,77.84,85.24,77.24,86.23z M76.85,83.75c-0.7-0.26-0.56-0.9-0.56-1.46C76.4,82.68,76.56,83.16,76.85,83.75z
		 M77.03,90.52c-0.73,0.52-1.36,0.84-2.1,1.26C74.93,87.46,74.38,88.32,77.03,90.52z M72.94,95.45c4.19-0.67,7.24-4.65,12.57-8.59
		c3.39-2.5,6.25-10.57,6.18-17.18c-0.07-6.46,4.33,4.49-1.05-11.1c-0.63,0.21-1.26,0.42-2.1,0.63c-5.7-3.93-7.21-7.3-8.07-13.2
		c-0.18-1.26,0-2.62,1.47-3.35c2.25-2.82,2.62-0.31,4.3,1.36c-0.63-0.31-1.36-0.42-1.05-0.94c-0.84-0.73-1.68-0.63-2.62-0.63
		c-0.21,1.36-0.42,2.72-0.73,4.82c2.63-2.89,2.2-2.93,3.35-1.78c-0.63,0.84-1.26,1.57-1.89,2.3c0.49,2.19,1.97-0.55,3.35,0
		c-0.42,0.94-0.73,1.89-1.05,2.83c0.31,0.31,0.42,0.73,0.63,0.94c0.84,0.63,1.57,1.05,1.05,2.3c-0.1,0.42,0.73,1.15,1.15,1.68
		c1.26-1.05,1.68-2.2,0.63-3.25c-2.27-2.69-0.81-3.2-1.36-5.97c1.78-0.73,3.46,0.52,5.55,0.63c-0.73-0.94-1.57-1.57-1.57-2.2
		c0.1-1.47-1.36-0.73-1.57-1.68c0.15-1.05,1.21,0.39,4.71-1.36c-1.99-1.24-2.65,0.72-8.28-1.15c3.35-0.31,6.91,0.31,9.64-2.83
		c-0.52,0-0.94-0.21-1.15-0.1c-5.14,2.68-9.28,0.45-13.41,2.72c-0.76-1.52-0.5-1.47-1.05-3.67c4.93,0,16.12,1.26,18.12-2.41
		c-0.85-0.42-3.44,0.39-4.09,0.63c-3.35,1.26-6.71,1.05-13.51,1.05c-0.73-1.05-0.73-1.26-0.52-3.35c3.34,1.29,4.62,3.11,11.94,1.89
		c1.27-0.29,5.57-0.35,7.65-3.35c-0.73-0.1-1.26-0.21-1.99-0.31c0.21-1.15,1.36-1.36,1.78-2.1c0.42-0.84,1.26-1.36,2.1-2.2
		c-1.24-0.31-0.49,0.2-4.35,1.45c1.29-2.74,0.38-0.7-4.87-1.86c0.32-1.78,3.58-0.13,5.03-2.3c-7.68,0.81-7.52,0.52-12.89,0.52
		c2.93,1.57,5.66,1.68,8.28,3.25c-5.11,1.46-6.76-0.54-6.91-0.63c-0.18-0.14-1.3-0.74-1.23-0.52c-1.86-2.72-5.93-4.48-3.07-7.75
		c1.29-0.1,6.9,4.45,0.84-1.68c0.94-2.1,2.41-3.46,3.98-4.92c2.17,1.63,1.12,2.58,5.97,4.4c1.58,0.59,3.46,0.73,4.71,2.2
		c-0.71-0.71,3.46,0.98,5.76,0.21c0-0.49-0.07-0.97-0.15-1.47c0.72-0.01,1.4-0.13,1.4-1.47c-0.57,0.47-1.39,0.52-1.7,1.24
		c-3.86,1.04-8.82-1.34-9.05-1.86c5.77,1.08,5.57,1.8,7.29,0.94c2.13-1.22,1.03-1.5,4.61-1.05c-2.32-1.16-9.32-4.65-9.32-1.89
		c0,1.53,0.38,0.9-2.51,1.26c-0.14,0-0.23,0.18-0.34,0.4c-2.69-0.29-2.78-0.37-5.32-3.23c0.51-0.76,0.57-0.25,3.08,0.82
		c-2.34-3.1-2-2-0.78-3.23c1.89,0.52,3.14,2.2,5.34,2.72c-0.63-1.89-2.72-1.99-3.25-3.46c1.13-1.51,2.14-1.69,14.98,3.14
		c4.81,1.81,3.13-0.31,5.45,1.05c7.76,4.55,2.82,1.47,7.12,2.62c0.74,0.2,1.36,0.84,1.99,1.26c0.52-0.31,1.05-0.63,1.78-1.05
		c-2.51-1.47-4.09-3.67-6.6-4.82c-0.56-0.19-1.01-0.39-1.18-0.93c1.9,0.25,3.1,0.32,1.5-0.74c-4.71-2.36-5.15-2.2-5.34-3.35
		c4.6,1.08,9.5,1.73,11.63,5.45c-0.31,0.31-0.52,0.52-0.73,0.73c0,1.49-0.23,0.41,1.99,1.89c1.85,0.93,1.72,1.94,1.05-1.47
		c1.66,0.59,3.47,3.93,4.3,5.45c0.4-0.61,0.51-0.92,0.71-1.31c3.43,1.79,5.63,12.01,7.04,18.49c-2.41,0.52-5.03-0.31-7.33,0.63
		c-0.42,0.84,0.1,1.26,0.73,1.36c3.4,0.53,2.27-0.9,6.7,0.31c0.31,1.78-0.63,3.14-1.47,4.71c-4.13-0.83-2.28-0.75-6.18,0.42
		c-0.1,1.15,1.36,1.47,0.84,2.51c0.52,0.63,0.94,1.26,1.47,1.89c1.89-0.31,1.89-0.31,3.88-2.62c3.61,14.06,0.24,18.77-6.39,34.89
		c-2.63,6.38-7.6,2.63-12.05,4.5c0.73,2.72,0.33,5.35-0.52,7.96c-1.03,3.15-0.84,6.39-1.05,9.74c4.56,1.88,12.41,19,14.56,20.11
		c0.42,0.21,0.63,0.94,0.84,1.47c3.78,11.35,5.66,16.06-3.56,18.44c-0.75,0-3.17-3.55-3.56-4.3c-0.52-0.84-0.52-2.1-0.73-3.25
		c-0.63,0.42-1.26,0.73-1.78,1.05c-4.3-2.72-4.3-2.72-6.08-2.72c0.63,1.05,1.57,1.57,2.41,2.2c4.46,3.34,5.53,4.73,7.12,6.91
		c-2.41,0.52-4.38,0.48-6.29-0.21c-5.55-2-12.86-7.02-16.87-10.79c-21.67-20.35-8.67-3.76-26.82-27.87
		C74.19,99.7,72.19,95.45,72.94,95.45z M89.08,72.29c-0.73-0.42-1.47-0.84-0.73-1.89C88.55,71.14,88.76,71.66,89.08,72.29z
		 M88.55,64.23c0.33-0.33,0.46,0.31,0.1,0.31C88.66,64.44,88.55,64.33,88.55,64.23z M94.74,31.98c0.01-0.01,0.02-0.01,0.02-0.02
		C94.83,31.96,94.82,31.96,94.74,31.98z M94.94,28.5c1.02-0.71,1.84-0.73,2.66-0.44C96.98,28.91,96.16,28.91,94.94,28.5z
		 M98.4,14.15c0.8-0.27,0.72-0.33,1.15,0.1C99.13,14.25,98.82,14.15,98.4,14.15z M115.79,9.44c0.13,0.13,0.21,0.05,0.25,0.19
		C115.96,9.59,115.87,9.52,115.79,9.44z M58.17,233c-0.92,0.2-2.7-0.63-4.3-0.63c-5.73,0.36-6.12-5.23-9.64-14.46
		c-0.52-1.38-1.79-3.07-1.99-4.5c-1.17-5.77-5.48-25.7-4.5-27.66c1.47-5.45,0.28-11,0.1-16.45c-0.95-29.1-2.61-25.53-0.21-24.93
		c0-0.1,0.21-0.31,0.21-0.42c-0.21-1.47-0.32-3.14-0.94-4.5c-1.7-3.73,1.58-14.7,3.04-18.54c5.73-15.05,15.52-15.94,23.36-18.23
		c0.31,0.42,0.95,0.94,1.47,1.57c5.3,6.51,7.45,17.18,7.65,25.46c0.15,6.36,1.67,22.63-3.98,25.46c-2.31-2.81-0.38-8.52,0.42-12.05
		c-4.02,3.39-2.57,10.36-2.3,25.88c0.79,46.71-2.55,29.16-9.11,36.04c4.92,0,2.32-1.12,13.2-0.52
		c13.97,0.77,35.81-10.28,38.34-14.46c1.98-3.26,4.32-6.38,5.45-10.16c0.97-3.24,2.83-5.76,6.08-7.12c0.42-0.21,0.63-0.63,1.15-1.26
		c-2.21-0.28-0.26-0.5-4.4,0.42c-0.42,1.47-8.84,4.7-18.12,4.19c-1.74,0-1.8-1.22-3.77-0.94c-4.72,0.42-7.73-1.63-11.84-3.98
		c-2.9,2.9,13.13,9.82,29.44,4.92c4.44-1.33,0.25,0.12,1.05,1.99c-0.63,1.99-1.36,4.09-2.72,5.97c-5.6-0.8-22.35,4.75-40.75,3.67
		c-0.1-0.84-0.21-1.47-0.21-2.2c0-33.46-4.64-23.33,1.05-31.74c6.21-9.18,7.69-39.99-7.02-52.49c1.57-2.72,4.4-3.67,6.91-5.13
		c2.1,4.19,4.82,7.86,7.65,11.42c2.35,3.53-0.02,2.68,3.77,6.39c1.33,1.31,8.66,9.11,23.05,20.11c8.38,6.41,14.59,10.67,23.05,8.38
		c3.36-0.91,3.2,0.47,5.45-1.15c11.79-8.55-9.95-32.39-9.95-35.74c7.79,5.99,6.2,11.11,17.08,22.86
		c12.54,13.54,15.32,12.74,15.09,26.61c-0.01,0.31,0.1,0.84-0.1,1.05c-1.36,1.89-0.84,4.19-1.57,6.39
		c-4.48-0.75-18.51-7.12-21.27-8.7c-1.05-0.52-2.2-0.73-3.46-0.31c-6.64,2.21-6.7,0.91-6.7,6.7c-1.78,1.78-4.61,2.83-4.4,6.08
		c1.78-2.93,4.61-4.3,7.75-5.66c0.31,0.42,0.73,0.84,0.73,1.15c-0.3,5.38,2.6,5.76,1.47,8.49c-3.72,1.24-3.71-1.07-4.92-1.89
		c-2.64-0.88-2.41,4.4,3.25,4.3c2.73-0.05,3.56-0.84,4.3-3.88c4.75-3,13.53-3.3,14.14-1.47c0.74,2.23-14.77,3.61-11.84,6.91
		c6.66-2.1,1.93-2.21,12.05-4.92c1.58-0.42,3,1.68,1.99,3.46c-0.3,0.53-0.21,0.63,0.42,1.99c2.1-1.26,2.72-3.98,5.45-4.92
		c1.26,0.63,2.72,1.36,4.09,1.99c2.83,5.55,3.25,11.52,3.77,16.97c0.73,1.05,1.47,0.84,2.2,0.84c1.38-15.52-10.51-19.62,5.97-12.15
		c2.18,0.99,3.04,2.51,2.41,5.24c-0.11,0.08-21.53,18.39-29.23,23.78c-3.22-1.79-3.3-0.82-2.62-5.24c0.94,0.42,1.68,0.84,2.41,1.15
		c0.11-0.14,3.47-4.41,4.09-4.71c5.21-1.63,3.04-4.89,3.04-8.07c1.98-1.32,2.08-1.02,3.14-3.14c1.68-0.31,3.25,1.57,5.24,0.73
		c-1.73-3.93-5.83-1.54-6.5-4.19c-0.43-2.38-1.62-1.57-14.98-2.41c-2.62-0.16-3.1,2.71-3.77,4.5c3.04,4.56,4.9,0.76,12.05,4.61
		c-2.41,0-4.19,0-6.08,0c-0.31,0.84-0.75,1.46-0.94,2.1c-1.44,4.7,1,4.91,5.45,6.18c-0.19,1.69-0.48,0.59-8.7,2.3
		c-16.24,3.38-18.31,2.81-22.94,6.81c-4.67,3.43-6.83,3.98-9.11,5.87c-5.71,4.71-11.58,6.85-30.28,15.71
		C63.39,232.99,65.94,231.34,58.17,233z M67.81,202.51c-0.42-0.1-0.84-0.21-1.47-0.42c0.42-0.94,0.63-1.68,0.94-2.3
		C68.23,199.79,68.33,200.52,67.81,202.51z M69.91,191.2c29.52-1.9,35.83-4.5,38.76-3.77c-0.31,1.99-1.47,3.04-3.04,3.88
		c-13.37,7.12-23.12,8.99-35.51,10.9C70.11,198.64,68.86,195.18,69.91,191.2z M146.69,163.09c-0.75,0.16-1.41,0.2-1.88-0.53
		C145.51,162.41,146.13,162.46,146.69,163.09z M133.91,159.45c-1.57,0.84-0.52,2.2-1.15,3.46c-1.05,0.52-2.2,1.05-3.56,1.68
		c-0.41-4.51-0.21-2.42-1.05-5.34c1.99-1.36,1.99-1.36,4.71-0.52c0.63-2.67,2.67-1.3,11.42,3.25c0.14,0.07,0.19,0.24,0.23,0.4
		C141.53,162.04,144.21,162.62,133.91,159.45z M142.19,164.9c-3.33,0.42-2.2,0.31-2.2-1.26
		C140.93,163.85,141.77,163.75,142.19,164.9z M137.9,164.59c-2.3,2.2-4.09,2.93-7.33,2.72C129.09,164,134.27,164.59,137.9,164.59z
		 M135.28,162.18c0.6-0.6,0.7-0.17,1.89,0.42c0,0.1-0.1,0.31-0.1,0.42C136.37,162.88,134.94,162.86,135.28,162.18z M132.87,156.31
		c0.27,0.27,0.24,0.23,0.14,1.06C132.25,156.48,132.64,156.54,132.87,156.31z M126.58,157.67c-0.42,0.63-0.73,1.15-1.05,1.78
		C125.11,157.67,125.11,157.67,126.58,157.67z M146.38,195.7c-0.42,0.31-1.05,0.62-1.57,0.52c-1.88-0.34-3.77-0.31-5.45-1.26
		c-0.59-4.72,0.99-3.44,8.7-3.14C148.06,193.68,148.75,194.12,146.38,195.7z M137.48,186.17c-4.41,0.11-2.55-3.98-0.52-3.98
		c1.8,0,11.39-0.34,12.68,0.94c0.84,2.2,0.84,4.19-1.05,5.97C144.35,188.26,141.34,186.07,137.48,186.17z M150.36,287.68
		c1.08,1.88,1.06,7.07,1.15,11c0.08,3.41,0.99,2.03,1.68,4.09c1.26,7.33,2.3,14.67,1.57,22.42c-0.1,0.1-1.15,0.42-1.57,0.21
		c-4.97-1.82-9.57-1.68-29.75,0c-25.55,2.13-19.11,5.3-17.6,4.4c4.53-2.33,16.44-2.57,32.9-3.25c12.25-0.51,8.35,0.55,16.13,1.26
		c0.4,2.77,0.11,33.93,0.1,34.68c-0.16,12.9-3.69,28.32-5.34,36.67c-1.14,5.79-4.37,8.85-6.18,18.02c-0.94,4.76,1.05,3.1,1.05,6.6
		c0.84,14.23-10.71,20.95-3.04,20.95c0.94,0,2.86,8.38,2.41,14.56c-0.65,8.93,0.78,12.25-1.68,28.29c-0.7,4.56-2.9,18.61-1.26,22.84
		c0.19,0.49,0.1-1.45,0.1,20.11c0,9.52,0.83,9.95-0.1,10.58c-7.59,5.16-11.47,18.94-16.76,14.35c2.11-4.65,1.31-2.44,1.68-7.54
		c0.52,0.1,0.94,0.1,1.36,0.1c0.52-2.62,0.94-5.34,0.73-8.59c-2.13,2.43-0.89,11.63-3.35-2.93c-3.27-19.34,1.46-2.16-5.97-39.81
		c-5.07-25.67-9.61-25.55-6.91-38.66c4.04-19.6,1.42-18.16,5.13-15.5c1.39-2.18-4.24-15.73-3.88-22.31
		c0.55-9.96-4.27-32.52-6.81-43.37c-5.76-24.57-1.12-49.25-4.71-51.86c0.63-1.78,2.41-2.2,3.25-3.35c0.94,0,1.89,0.31,2.51,0
		c2.93-1.26,5.55-2.72,8.38-4.71c-4.65,0.24-5.91,3.42-9.64,3.77c1.47-2.83,3.88-4.5,5.13-7.02c-1.56-2.23-2.04-2.07-11.42,10.37
		c-5.48,7.27,4.73,6.88-22.63,1.89c-6.97-1.27-26.32-2.59-31.64-1.05c-1.53-5.83,1.25-32.07,2.41-39.7
		c1.09-7.13,3.46-13.93,6.29-20.74c4.57-0.33,42.95,9.78,52.7,10.16c20.34,0.81,35.23-5.76,41.8-5.76
		C149.95,282.49,148.36,284.19,150.36,287.68z M139.89,232.89c4.74,21.72,4.56,2.51,8.28,32.79c0.4,1.59-0.31,1.24-10.48,3.04
		c-0.52-1.47,0.84-2.41,0.1-3.35c-0.63-0.21-0.94,0.1-1.15,0.52c-1.99,3.97-0.35,3.23-6.08,4.5c-6.94,1.55-20.96,3.36-26.5,2.2
		c-45.27-9.48-43.2-9.89-49.87-9.22c-0.64-3.21,3.31-10.2,10.79-29.44c7.42-2.12,9.93-2.22,14.14-5.24
		c2.87-2.05,10.49-6.03,14.98-7.75c2.39,2.39,1.58-0.01,2.41-1.26c20.42-12.76,20.82-15.26,29.23-15.61
		c1.49,13.39-1.36,12.1,10.79,12.68C137.55,219.82,137.91,223.85,139.89,232.89z M142.61,212.15c-0.8,0.8-0.65,0.07-7.54,1.89
		c-1.89,0.5-3.77,0.73-5.66,0.42c-1.89-3.35-2.3-6.08-1.78-10.58c2.2-0.94,4.61-1.05,6.91-1.47c1.15,1.05,0.94,2.3,0.94,3.46
		c0,2.97,1.79,2.95,2.3,3.98c-9.37,2.08-9.44,1.56-8.07,2.93c0,0.19-0.37,0.27,9.95-1.99c-0.1-1.05-0.21-2.1-0.31-3.04
		c1.47-0.31,0.94,0.84,1.36,1.26c2.04,1.02,19.24-14.32,21.37-13.93c-0.1-0.63,0.21-0.73,0.63-0.84c0.62-1.23,1.63-1.76,2.85-2.07
		c-0.63,1.17-1.54,1.88-2.85,2.07C162.93,195.27,159.79,197.6,142.61,212.15z M162.72,210.79c-3.38,5.35-11.59,5.05-16.55,1.05
		c1.68-1.89,14.14-11.42,18.33-14.14C166.54,205.02,167.62,203.05,162.72,210.79z M165.68,192.04c0.05-0.31,0.29-0.5,0.63-0.6
		C166.41,191.85,166.14,192.03,165.68,192.04z M170.48,188.89c-3.48,2.32-2.95,2.5-4,2.42c1.89-2.45,4.66-3.92,6.83-6.3
		C174.24,187.2,174.72,186.06,170.48,188.89z"/> <path d="M126.9,14.88c-0.18-0.11-0.19-0.2-0.1,0.1L126.9,14.88z"/> <path d="M91.49,12.79l0.1-0.1C91.18,12.5,91.31,12.5,91.49,12.79z"/> <path d="M487.49,577.25c-8.71-8.23-5.79-2.67-16.34-23.78c-0.37-0.64-0.75-1.03-1.39-1.11c-0.74,2.57,1.81,4.07,1.81,6.14
		c-8.65,1.4-17.18,6.95-13.83,8.07c5.03-3.35,13.62-6.6,15.4-5.76c1.49,2.24,0.14,1.21-5.55,3.98c-1.98,0.96-4.19,1.57-5.87,3.67
		c1.89,0.94-0.17,1.22,9.74-2.51c4.2-1.58,5.04,1.01,4.61,2.3c-2.83,1.68-6.29,1.89-8.7,4.09c1.56,4.28,11.63-5.47,11.63,1.68
		c-2.1,1.47-5.03,0.84-6.29,3.25c1.12,2.43,2.94,1.01,7.44,0.1c4.4-0.88-0.49-5.18,5.45,0.1c6.28,5.58,7.79,7.19,11,6.39
		c1.01,0,1.78,2.78,1.99,3.56c0.58,3.48-0.71,1.14-8.9,5.24c-0.1,0.73-0.21,1.26-0.21,1.78c-15.99,5.62-27.2-1.1-33.1-1.99
		c-0.31-0.1-0.73-0.32-0.84-0.52c-1.01-1.91-2.93-2.2-4.71-3.04c-1.47,1.47-3.14,1.74-5.03,1.47c-1.89-0.28-4.21,0.59-8.49-1.05
		c-1.54-0.59-3.05-1.45-1.89-2.62c3.25-2.16,0.22-12.63,4.09-18.44c0.29-0.58,0.83-0.44,1.99-0.63c1.61-13.22,1.1-13.38,3.98-13.62
		c1.17,4.38-1.39,3.22-0.94,6.81c0,0.96,1.62,2.49,2.93,0.73c0-6.45-0.44-61.75-1.26-68.83c-3.26-28.1,1.73-26.18-0.73-33.21
		c-7.33,10.99,0.52,34.74,0.52,86.64c0,7.32-0.37,5.27-2.62,6.39c-2.46,1.03-2.07,2.15-3.46,11.52c-0.1,0.42-0.1,0.84-0.31,1.05
		c-2.1,1.78-2.5,4.62-3.98,6.7c-0.52,0.74-0.63,1.47-0.63,2.41c0,11.67-0.37,9.64-2.51,13.93c5.54,6.64,17.07,3.14,19.17,5.13
		c7.34,6.97,14.46,5.22,19.17,5.97c2.72,0.44,5.55,0.49,8.28,0.1c5.2-0.72-0.43,2.41,15.4-2.2c1.84-0.53,6.53-2.26,7.23-4.71
		C498.28,576.32,497.88,587.06,487.49,577.25z M497.96,592.86c-1.68,1.05-3.35,1.89-5.66,0.94c2.1-0.73,3.88-1.47,5.66-2.2
		C498.7,592.23,498.38,592.65,497.96,592.86z"/> <path d="M469.78,552.21l-0.31,0.1C469.81,552.31,469.73,552.46,469.78,552.21z"/> <path d="M53.56,552.84c-2.71,1.36,1.51,4.19,0.84,5.97c-0.1,0.03-6.99-0.52-14.25,6.08c-0.42,0.52-0.42,1.15,0.31,1.78
		c4.61-3.14,9.64-5.45,15.5-5.97c0.21,0.63,0.42,1.15,0.63,1.78c-1.97,0.66-3.38,1.22-10.58,4.82c-1.69,1.02-0.7,2.61,1.47,1.68
		c7.95-2.89,8.79-4.01,11.1-2.93c0.99,3.47,1.37,2.09-0.73,3.14c-6.88,2.75-7.56,2.58-7.12,4.19c3.44,0.69,7.76-2.23,9.95-1.68
		c3.19,4.79-0.73,2.28-4.82,5.45c-0.41,0.32-0.1,1.35,0.42,1.47c0.42,0.09,0.94,0.31,1.36,0.21c6.59-1.01,6.34-1.43,7.86-3.35
		c12.73,11.45,10.19,8.8,14.04,8.8c1.15,1.68,1.99,3.46,1.78,5.55c-4.82,1.36-6.91,2.2-9.01,3.67c0.1,0.42,0.1,0.84,0.21,1.36
		c-18.92,6.52-30.98-3.16-33.94-1.68c-0.84-2.41-2.93-2.83-5.13-3.67c-1.36,1.68-3.25,1.78-5.24,1.57c-3.16,0-6.25-0.15-9.43-1.78
		c-2.83-1.45,0.94-2.16,0.94-4.5c0-2.72,0.52-5.55,0.42-8.28c-0.11-3.04,1.15-5.55,2.3-7.86c3.04-1.01,1.86-0.51,2.3-4.71
		c0.87-8.24,1.01-9.53,3.25-9.32c0.52,2.3,0.54,2.31-0.52,4.3c-0.62,1.16-0.51,2.3,0.21,3.35c0.82,1.19,3.09,0.77,2.41-1.26
		c0-0.21-0.42-0.42-0.42-0.52c1.47-3.35,0.31-6.81,0.63-10.27c-1.31-4.42,0.23-43.17-0.73-53.32c-3.56-37.59,1.37-28.8-1.05-37.09
		c-7.78,11.66,2.45,53.64,0.31,92.09c-5.45,2.42-3.85,0.37-5.97,13.51c-8.21,8.21-1.99,17.03-6.91,22.1c-0.1,0.11-0.1,0.42-0.1,0.63
		c3.74,5.3,10.89,4.35,18.12,4.61c4,4,9.62,6.51,15.92,6.39c3.27-0.33,3.5,1.13,12.26,0.52c4.79,0,3.7,0.82,7.86-0.1
		c3.93-0.87,13.94-3.03,14.98-6.91c-1.05-2.93-0.63-6.39-2.93-9.22C60.8,576.34,59.84,561.21,53.56,552.84z M75.67,594.43
		c1.89-1.26,3.88-1.57,5.76-2.2C80.38,594.22,78.81,594.85,75.67,594.43z"/> <path d="M32.92,561.22c1.26-0.63,2.1-0.73,2.62-1.36c1.78-1.47,3.46-2.93,5.55-3.98c2.07-1.03,5.62-6.08,10.37-3.88
		c0.31,0.1,0.63,0.21,0.94,0.21c0.73-0.42,0.84-1.05,0.42-1.57c-1.05-1.31-2.57-1.56-4.3-1.99c0-9.1-0.1-9.45,0.31-11.31
		c4.2-26.43,21.07-75.55,15.5-82.97c-0.1,0.63-0.31,0.94-0.31,1.26c-0.21,1.78,0.21,3.67-1.26,5.13c-0.31,0.31-0.09,1.15-0.1,1.78
		c-0.11,6.3-0.09,5.76-7.44,38.13c-1.27,5.59-2.3,4.05-3.77,10.48c-5.11,22.36-5.34,24.24-5.03,30.49c0.13,2.62,0,5.34-0.84,7.96
		C30.82,560.78,32.92,559.18,32.92,561.22z"/> <path d="M580.52,567.92c1.57,0.39,0.77,0.53,8.49-1.57c7.09,3.78,6.79,3.6,7.23,3.98c1.52,1.32,7.54,3.88,7.54,1.89
		c0-1.3-1.84-1.42-2.72-1.78c-6.89-2.81-10.79-6.56-19.7-11.84c-7.37-4.36-6.43-8.15-16.55-16.13c-1.98,1.78-0.79,1.89,1.26,3.56
		c0.58,0.47,2.73,2.27,2.51,3.35c-3.89,1.56-13.45,4.85-10.27,7.12c7.55-1.89,8.26-4.52,13.83-3.46c0.21,0.73,0.42,1.36,0.63,1.99
		c-2.51,1.89-5.87,2.2-7.65,5.13c2.14,0.86-0.55,1.51,9.22-2.51c1.89,0.42,3.56,0.73,4.71,2.51c-1.68,0.42-3.35,0.84-4.92,1.36
		c-3.87,1.06-3.51,3.05-2.62,3.25c1.57,0.35,1.48-0.03,3.77-0.63c8.34-2.16,8.96-0.93,10.58-0.21
		C581.61,565.64,580.05,565.74,580.52,567.92z"/> <path d="M164.3,568.76c0.59,0.2-0.32,0.5,7.86-1.89c3.2,1.6,7.07,3.98,7.75,4.5c2.12,1.61,7.84,3.3,7.44,1.68
		c-0.27-1.08-1.02-1.43-1.99-1.68c-4.44-0.78-13.89-8.16-21.06-12.36c-6.45-3.78-7.05-8.98-16.03-15.71
		c-2.74,1.99,0.41,1.71,3.98,6.7c-6.11,2.5-9.56,3.4-11.1,5.97c-0.24,0.48,0.32,1.62,2.1,0.73c7.81-3.2,8.51-3.87,12.26-3.04
		c0.86,2.58,0.42,1.74,0.42,2.1c-6.18,3.25-6.18,3.25-7.23,5.13c3.74,1.87,9.74-6.4,13.51-0.1c-7.41,1.95-6.11,1.76-7.86,3.14
		c-0.41,0.32,0,1.47,0.52,1.47c3.33,0.56,8.26-3.61,14.04-1.05c-3.68,2.1-1.56,0.13-5.24,3.04
		C163.26,567.72,163.77,568.66,164.3,568.76z"/> <path d="M55.24,429.01c-1.3,0-1.5,0.58-1.78,1.78c-2.39,10.24-1.91,8.85-0.52,10.58c0.42-0.63,0.84-0.94,1.05-1.36
		C55.62,433.21,56.67,429.01,55.24,429.01z"/> <path d="M470.73,429.01c-4.25,14.64-0.29,12.08,0.21,9.74c2.3-10.69,2.19-8.89,0.84-10.58
		C471.25,428.48,470.73,428.8,470.73,429.01z"/> <path d="M696.91,177.79c1.66,0.22,1.3-1.43,1.05-2.93c-5.44-2.27-0.63-0.81-13.41,0.63c-1.05,0.12-2.2,0.1-2.72-1.15
		c-0.1-0.21-0.73-0.21-0.94,0c-0.71,0.71-0.19,2.27,1.05,2.41c3.08,0.35,2.43,0.14,12.05-1.78c1.17,0.59,2.76,0.91,2.2,1.47
		C696.17,177.05,696.07,177.68,696.91,177.79z"/> <path d="M486.33,144.05c-2.77-0.69-5.87-0.69-10.06-3.46c-2.36-1.56-2.72-1.18-3.25-1.05
		C476.21,143.43,483.55,146.18,486.33,144.05z"/> <path d="M60.16,454.26c-0.84-0.94-1.46-0.63-1.89,0c-1.77,2.63-3.14,5.55-3.14,9.11c0.42-0.52,1.05-1.05,1.36-1.57
		C57.75,459.28,59.11,456.77,60.16,454.26z"/> <path d="M475.75,453.31c-1.59,0-3.82,6.6-4.19,9.64c2.1-2.1,3.98-5.45,5.13-8.9C476.7,453.78,476.42,453.31,475.75,453.31z"/> <path d="M179.7,581.75c-0.1,0.31-0.1,0.73-0.31,1.26c3.61,0,0.51-0.89,8.38-3.14C187.05,576.53,181.76,579.1,179.7,581.75z"/> <path d="M655.84,195.18c-2.31,0.05-4.71-0.52-7.54,0.94c3.46,1.05,6.29,0.84,9.22,0.63c0.31-0.1,0.63-0.42,1.05-0.63
		C657.73,194.97,656.78,195.16,655.84,195.18z"/> <path d="M597.07,583.01c4.29-3,3.62-2.2,7.44-3.56C603.55,575.62,594.25,581.4,597.07,583.01z"/> <path d="M70.22,411.41c-1.68,1.68-2.72,3.88-3.88,6.18c2.3-1.15,3.83-2.95,4.92-5.24C71.47,411.93,71.06,411.51,70.22,411.41z"/> <path d="M487.8,411.09c-0.8-0.4-0.78-0.24-5.03,5.97C486.23,415.91,489.01,411.7,487.8,411.09z"/> <path d="M569.31,172.55c0.27,2.2,2.16,0.64,5.55-1.15C572.34,170.87,570.56,170.98,569.31,172.55z"/> <path d="M64.98,418.74c-0.21-0.21-0.42-0.42-0.52-0.63c-3.16,2.76-2.25,1.92-2.51,3.25C63.41,420.63,64.67,420.21,64.98,418.74z"/> <path d="M481.93,108.54c-1.57-0.52-2.3,0.42-3.14,0.94c-0.42,0.31-1.05,0.63-0.52,1.57C479.63,110.64,480.89,110.01,481.93,108.54z
		"/> <path d="M478.37,421.36c1.68-1.05,2.93-1.47,3.56-3.46C479.63,418.95,479.63,418.95,478.37,421.36z"/> <path d="M489.27,156c-1.68-1.36-2.93-2.3-4.61-2.1C485.6,155.37,487.07,155.79,489.27,156z"/> <path d="M682.55,188.16c-0.84,0.31-1.68,0.73-3.14,1.36c2.2,0.73,2.2,0.73,3.25-0.1C682.97,189.21,683.29,188.68,682.55,188.16z"/> <path d="M678.99,179.26c-3.62,1.95-3.06,1.53-2.83,1.99C677.21,181.25,678.36,181.25,678.99,179.26z"/> <path d="M504.46,141.44c-1.26-1.26-1.26-1.26-2.41-0.1C502.89,141.33,503.73,141.44,504.46,141.44z"/> <path d="M487.7,104.66c1.36,0.42,1.36,0.42,2.3-0.21C489.16,104.25,488.33,103.83,487.7,104.66z"/> <path d="M642.33,195.07c-0.63-0.21-1.05-0.42-1.57-0.63C641.28,195.49,641.28,195.49,642.33,195.07z"/> <path d="M481.1,153.48c-0.21,0-0.42,0-1.05-0.1C480.82,153.76,480.82,153.48,481.1,153.48z"/> <path d="M52.83,472.27c0.1-0.73,0.21-1.15,0.21-1.57C52.51,471.12,52.31,471.54,52.83,472.27z"/> <path d="M469.68,469.66c0,0.84,0,1.36,0,1.89C469.89,470.91,470.41,470.49,469.68,469.66z"/> <path d="M665.9,168.15l0.1,0.1C666,167.99,666.03,168.09,665.9,168.15z"/> <path d="M666.53,165.95c-0.59,0.68-0.53,1.36-0.52,2.13C666.8,167.55,666.53,166.76,666.53,165.95z"/> <path d="M578.53,171.4c0,0.42-0.21,0.31,1.15,0.31C579.68,171.3,579.89,171.4,578.53,171.4z"/> <path d="M634.57,194.76c0.52,0,0.21,0.08,0.21-0.31C634.61,194.62,634.29,194.48,634.57,194.76z"/> <path d="M583.55,171.5h0.31C583.47,171.24,583.55,171.23,583.55,171.5z"/> <path d="M685.7,166.47c-0.28,0.56-0.28,0.45,0,0.73C685.81,166.99,686,166.47,685.7,166.47z"/> <path d="M477.22,154.32c0.57,0,0.21,0.02,0.21-0.31C477.03,154.01,477.08,154.32,477.22,154.32z"/> <path d="M53.14,470.81c0-0.43,0.31-0.21,0.31-0.84C53.06,469.97,53.14,470.28,53.14,470.81z"/> <path d="M490.84,143.95c0.26,0.26,0.25,0.21,0.63,0.21C491.47,143.75,491.36,144.12,490.84,143.95z"/> <path d="M677.42,190.46c0.1,0,0.21-0.1,0.42-0.1C677.67,190.28,677.08,190.13,677.42,190.46z"/> <path d="M469.57,471.44c-0.1,0.1-0.1,0.21-0.21,0.31C469.47,471.65,469.57,471.54,469.57,471.44z"/> <path d="M674.91,182.29v0.21C675.04,182.24,675.04,182.29,674.91,182.29z"/> <path d="M665.79,168.15c0,0.1,0,0.21-0.1,0.31C665.79,168.36,665.9,168.36,665.79,168.15z"/> <path d="M484.45,153.69c0.1,0.1,0.1,0.1,0.31,0.1C484.66,153.8,484.55,153.69,484.45,153.69z"/> <path d="M523.63,190.15c-3.88,3.35-5.26,4.65-7.02,8.17c3.88-0.63,6.17-3.15,8.59-5.34C528.03,190.42,527.39,187.65,523.63,190.15z
		"/> <path d="M548.67,421.99c2.8-1.9,9.62-7.18,8.8-10.48c-3.13,2.35-10.27,9.01-10.37,9.11c-0.42,0.31-0.52,0.94-0.73,1.36
		C547.31,422.72,547.94,422.41,548.67,421.99z"/> <path d="M543.85,468.5c0.26,11.23,2.82,5.39,1.05,0.84c-0.17-0.67-1.23-0.74-0.94-0.84c-0.3-3.32-0.56-16.23-5.13-19.28
		c1.04,4.69,3.37,7.45,3.56,16.34C542.41,467.02,542.42,468.63,543.85,468.5z"/> <path d="M533.27,291.56c-0.31,1.15-0.54,2.3-0.73,3.35c-1.83,10-4.48,11.9-4.09,13.72C531.86,305.22,534.47,295.93,533.27,291.56z"/> <path d="M498.28,251.75c1.16,2.2,1.15,2.2,3.04,3.67c-1.09-2.49-6.96-14.23-7.75-15.3C491.72,240.12,497.2,249.71,498.28,251.75z"/> <path d="M469.15,304.66c0-0.1-0.1-0.21-0.31-0.42C466.16,307.81,465.69,339.3,469.15,304.66z"/> <path d="M537.88,231.53c-3.11,0.93-0.94,4.88,1.89,6.7c0.66,0.66,1.54-0.81,1.36-1.36C540.91,235.6,539.21,234.63,537.88,231.53z"/> <path d="M534.11,416.02c0.62-0.93,0.67,0.26,0.31-7.86c-0.46-4.12-0.01-2.18-1.36-4.61c-0.21,3.77-0.1,7.02,0.21,10.16
		C533.37,414.34,533.79,414.97,534.11,416.02z"/> <path d="M540.6,215.71c0.1-0.42-0.21-0.84-0.31-1.26c-0.63,3.67-0.94,7.33-0.31,11.1C540.6,222.31,540.39,218.96,540.6,215.71z"/> <path d="M555.58,259.71c2.1-1.36,2.93-3.14,3.35-7.54C555.07,260.19,555.2,259.33,555.58,259.71z"/> <path d="M563.34,287.58c-2.1,0-4.3,0-6.39,0C559.04,287.89,561.24,288.1,563.34,287.58z"/> <path d="M544.16,531.68c-0.23,1.61-0.42,3.35,0.84,3.14C545.53,533.77,545.63,532.72,544.16,531.68z"/> <path d="M473.87,277.1c-1.57,2.62-1.57,2.62-0.94,5.13C473.34,280.46,474.18,278.99,473.87,277.1z"/> <path d="M545,484.32c-0.1-0.1-0.52-0.21-0.94-0.42c0,1.05,0,1.89,0,3.04C545.32,485.58,545.32,485.47,545,484.32z"/> <path d="M543.85,189c0.84,0.52,1.57,0.94,2.41,1.36C545.21,188.37,545.21,188.37,543.85,189z"/> <path d="M504.88,260.34c0.52,1.26,0.63,2.2,1.26,3.25C506.45,261.7,506.45,261.7,504.88,260.34z"/> <path d="M510.43,239.18c0.58,0.58,1.5-0.69,0.52-1.47C510.95,237.39,509.64,238.19,510.43,239.18z"/> <path d="M470.41,291.14c0,3.13-0.09,2.72,0.21,2.72C470.93,291.04,470.93,290.88,470.41,291.14z"/> <path d="M544.9,481.28c0.73-1.05,0.94-1.99,0.1-3.04C544.37,479.29,544.27,480.24,544.9,481.28z"/> <path d="M511.06,205.13c0.52-0.63,1.05-1.15,1.68-1.89C510.85,203.25,510.85,203.25,511.06,205.13z"/> <path d="M508.34,210.37c0-0.63,0-1.26,0-2.62C507.94,208.75,506.61,210.37,508.34,210.37z"/> <path d="M531.28,393.91c0.42-0.84,0.21-1.36-0.73-1.68C530.02,393.07,530.44,393.6,531.28,393.91z"/> <path d="M490.84,279.93c1.05,0.1,1.78,0.1,2.51,0.21C492.73,279.3,491.99,279.41,490.84,279.93z"/> <path d="M493.46,280.25c0.72,0.8,1.73,0.52,2.72,0.63C495.51,280.54,496.53,280.25,493.46,280.25z"/> <path d="M493.25,280.25c0.07,0,0.14,0,0.21,0C493.35,280.1,493.35,280.14,493.25,280.25z"/> <path d="M496.4,280.98c0.73,0.7,1.81,0.52,2.71,0.63C498.21,281.31,499.64,280.98,496.4,280.98z"/> <path d="M496.4,280.98c-0.14-0.14-0.11-0.11-0.22,0C496.26,280.98,496.33,280.98,496.4,280.98z"/> <path d="M491.05,193.29c0.38,1.15,0.26,0.81,0.84,0.52c-0.1-0.21-0.21-0.52-0.21-0.63C491.57,193.08,491.26,193.29,491.05,193.29z"/> <path d="M507.18,265.58c0,1.02,0.52,0.52,0.73,0.52c-0.1-0.21-0.21-0.52-0.31-0.84C507.39,265.37,507.18,265.47,507.18,265.58z"/> <path d="M534.74,283.39c-0.1,0.73-0.21,1.26-0.31,1.78C535.05,284.75,535.15,284.23,534.74,283.39z"/> <path d="M534.42,285.17c0-0.03,0-0.07,0-0.1c-0.21,0.52-0.73,1.05,0,1.89C534.42,286.1,534.42,285.66,534.42,285.17z"/> <path d="M544.06,525.39c0.59,1.17,0.3,0.67,1.05,0.42C544.3,525,544.72,524.9,544.06,525.39z"/> <path d="M499.33,281.71c-0.08,0-0.2,0-0.31,0C499.33,281.71,499.64,281.82,499.33,281.71z"/> <path d="M510.43,233.73c0.15-0.15,0.39-0.06,0-0.84C510.11,233.54,510.18,233.48,510.43,233.73z"/> <path d="M490,235.09c-0.12,0.12-0.19,0.31,0.31,0.31c-0.1-0.1-0.1-0.21-0.1-0.31C490.21,235.09,490.11,235.09,490,235.09z"/> <path d="M559.46,250.49h-0.1C559.35,250.75,559.32,250.77,559.46,250.49z"/> <path d="M544.06,522.25c0.4,0,0.1-0.42,0.1-0.52c0,0.1-0.1,0.1-0.21,0.21C543.95,522.04,544.06,522.14,544.06,522.25z"/> <path d="M527.4,41.18l-0.1,0.1C527.36,41.25,527.36,41.27,527.4,41.18z"/> <path d="M534.74,42.12c2.8,1.56,2.24,2.15,1.89-2.83c-0.94-0.31-1.99-0.52-3.67-0.94c1.26,0.84,1.78,1.26,2.72,1.89
		c-8.37,0.34-7.91,0.09-9.02,2.3c1.15-0.21,2.1-0.42,2.93-0.63c0.88,3.95,2.81,4.44,5.45,2.1
		C534.94,43.27,534.84,42.85,534.74,42.12z"/> <path d="M528.66,40.55L528.66,40.55C528.66,40.55,528.66,40.55,528.66,40.55h0.01C528.77,40.5,529.06,40.35,528.66,40.55
		c0.01-0.01,0.04-0.04,0.1-0.1c-0.02,0-0.04,0.01-0.07,0.01C528.67,40.52,528.65,40.55,528.66,40.55
		C528.66,40.55,528.66,40.55,528.66,40.55z"/> <path d="M546.89,64.96c-2.6,0-3.25-1.24-5.97-0.21c-1.67,0.64-3.46,0.73-5.24,0.21c-0.52-0.1-1.15,0.1-2.3,0.1
		c0.63,0.84,0.84,1.26,1.15,1.26c6.06,1.9,8.24-1.06,14.04,0.84c0.63,0.21,1.26-0.1,1.15-0.94
		C548.88,65.48,548.04,64.96,546.89,64.96z"/> <path d="M534.32,35c5.52,1.6,6.45,1.25,7.54,1.15c-0.94-0.73-1.26-1.26-1.78-1.36c-5.01-1.47-14.26-3.7-15.61,1.36
		C526.37,36.15,527.74,33.09,534.32,35z"/> <path d="M524.89,107.6c-0.31,3.56,0.84,5.34,3.77,6.08c1.89,0.63,2.41,0.42,3.35-0.84C526.23,111.39,527.73,112.34,524.89,107.6z"/> <path d="M539.03,70.51c1.47,1.47,3.35,1.77,5.24,1.47c1.36-0.22,2.93-0.1,3.77-1.78C538.29,69.84,539.7,69.84,539.03,70.51z"/> <path d="M544.48,42.02c0.1,4.18,1.9,7.77,4.32,11.05c-0.13-0.61-0.16-1.2-0.34-1.73C543.58,39.37,546.05,43.59,544.48,42.02z"/> <path d="M548.88,53.44l0.1-0.1C548.75,53.02,548.75,52.91,548.88,53.44z"/> <path d="M530.54,81.51c-8.55-2.97-7.37-2.46-9.74-2.72c2.72,2.3,6.08,2.62,9.22,3.35C530.13,82.14,530.34,81.72,530.54,81.51z"/> <path d="M540.18,57.73c-0.63-0.31-1.15-0.63-1.78-0.94c-0.7,2.55,4.3,2.24,6.5,0.73C543.57,55.52,541.84,57.38,540.18,57.73z"/> <path d="M512.84,18.97c-2.1-1.05-6.6-1.99-8.8-1.89C506.87,18.55,509.8,18.76,512.84,18.97z"/> <path d="M546.26,57.84c-0.1,0.1,0,0.42,0,0.84c0.84-0.1,1.57-0.31,2.51-0.42c0.56-1.85,1.82-4.17,0.1-4.82
		C549.29,55.94,548.88,55.22,546.26,57.84z"/> <path d="M544.58,41.91c2.2-4.77,2.14-4.36,1.78-4.71c-0.14,0.07-1.34-0.39-2.3,3.46C544.06,41.07,544.37,41.49,544.58,41.91z"/> <path d="M530.86,38.77c-3.35,0.52-3.35,0.52-4.61,2.2c0.42,0.1,0.73,0.1,1.05,0.21c0.2-0.7,0.88-0.64,1.39-0.72
		C528.98,39.36,530.66,39.98,530.86,38.77z"/> <path d="M539.55,11.53c0.1,0,0.1-0.1,0.1-0.1C539.36,11.43,539.39,11.45,539.55,11.53z"/> <path d="M539.42,11.45c-0.67-0.4-1.35-0.86-2.02-1.26C536.62,11.68,537.9,11.58,539.42,11.45z"/> <path d="M523.63,89.16c0,1.05,0.1,1.89,1.68,2.2C524.57,90.31,524.05,89.79,523.63,89.16z"/> <path d="M532.95,108.23c0-1.26,0.63-2.1-0.31-2.93C532.12,106.76,532.12,106.76,532.95,108.23z"/> <path d="M544.48,61.92c0-0.31,0-0.52-0.21-1.68C543.9,62.26,543.83,61.92,544.48,61.92z"/> <path d="M544.37,16.35c0.31-0.62,0.31-0.49-0.52-1.05C544.26,15.71,543.81,16.35,544.37,16.35z"/> <path d="M549.61,39.5c0.52,0,1.05,0.1,1.47,0.21C550.66,39.4,550.24,39.08,549.61,39.5z"/> <path d="M550.97,39.82c0.52,0.21,1.05,0.42,1.68,0.52C550.84,39.62,551.12,39.67,550.97,39.82z"/> <path d="M542.28,16.35c0.22-0.22,0.5,0.06-0.63-0.31C541.86,16.14,542.07,16.24,542.28,16.35z"/> <path d="M519.44,78.05c-0.18,0.18,0.79,0.52,1.47,0.63C520.38,78.47,519.86,78.26,519.44,78.05z"/> <path d="M541.75,15.93c0-0.49-0.1-0.97-0.64-1.3C541.05,15.19,541.19,15.65,541.75,15.93z"/> <path d="M541.12,14.63c0-0.05,0-0.1,0.01-0.17C541.02,14.57,540.98,14.57,541.12,14.63z"/> <path d="M537.56,10.06c-0.54,0-0.25,0.04-0.15,0.04C537.34,10.18,537.31,10.22,537.56,10.06z"/> <path d="M552.54,40.45c0.04,0.03,0.06,0.05,0.1,0.07C552.65,40.29,552.68,40.31,552.54,40.45z"/> <path d="M552.65,40.52c0,0.25,0,0.5,0,0.76C553.03,41,553.05,40.79,552.65,40.52z"/> <path d="M517.24,75.97c-0.03,0.43,0.24,0.62,0.63,0.62C517.96,76.11,517.69,75.98,517.24,75.97z"/> <path d="M517.24,75.85l-0.1,0.1C517.32,75.96,517.2,76.02,517.24,75.85z"/> <path d="M517.87,76.59c0.27,0.19,0.48,0.37,0.73,0.56C518.61,76.69,518.33,76.59,517.87,76.59z"/> <path d="M518.71,77.22c-0.04-0.02-0.06-0.05-0.1-0.07C518.6,77.37,518.57,77.35,518.71,77.22z"/> <path d="M518.71,77.43c0.2,0.2,0.45,0.45,0.63,0.63C519.34,77.69,519.16,77.43,518.71,77.43z"/> <path d="M518.6,77.32l-0.1,0.1C518.72,77.4,518.78,77.5,518.6,77.32z"/> <path d="M518.18,82.66c0.1,0.1,0.31,0.31,0.42,0.42C518.5,82.98,518.71,82.56,518.18,82.66z"/> <path d="M524.15,36.25c-0.1,0-0.1,0.1-0.1,0.21C524.54,35.98,524.26,36.15,524.15,36.25z"/> <path d="M505.3,104.45c0.49,0.49,0.32,0.21,0.21,0.1C505.4,104.56,505.4,104.45,505.3,104.45z"/> <path d="M541.02,14.46c-0.75-0.75-0.73-0.63-0.63-0.73c-0.09-0.06-0.09-0.1-0.09,0.01C540.24,13.73,539.95,13.75,541.02,14.46z"/> <path d="M522.16,14.46c0,0.31,0,0.52,0,0.84C522.79,14.99,522.79,14.67,522.16,14.46z"/> <path d="M543.84,15.2c-0.03-0.44-0.24-0.63-0.72-0.63C543.12,14.96,543.32,15.24,543.84,15.2z"/> <path d="M543.84,15.2c0,0.03,0.01,0.06,0.01,0.1C544.01,15.14,543.98,15.2,543.84,15.2z"/> <path d="M516.3,74.91c0.13,0.27,0.83,0.87,0.94,0.94C517.14,75.7,516.53,75.03,516.3,74.91z"/> <path d="M609.01,161.03c-2.51-0.63-2.51-0.63-4.3,0.1C606.29,161.65,607.65,161.55,609.01,161.03z"/> <path d="M598.74,161.65c0.21-0.21,0.85-0.42-0.1-0.42c0-0.1-0.1,0-0.21,0.1C598.54,161.45,598.64,161.65,598.74,161.65z"/> <path d="M495.24,165.64c0.46-0.91,0.09-0.74-0.31-0.94C494.59,165.36,494.64,165.34,495.24,165.64z"/> <path d="M497.44,166.68c-0.1,0.1-0.1,0.31-0.21,0.52c0.21,0.1,0.42,0.1,0.63,0.21C498.21,166.71,498.16,167.04,497.44,166.68z"/> <path d="M502.47,6.82c1.26,0.52,1.89,0.84,2.51,1.15C504.25,6.92,504.25,6.92,502.47,6.82z"/> <path d="M507.71,12.37l0.1-0.1C507.57,12.31,507.66,12.24,507.71,12.37z"/> <path d="M508.23,12.68c-0.1-0.1-0.31-0.21-0.42-0.31C507.92,12.47,507.71,12.89,508.23,12.68z"/> <path d="M127.21,471.86c0.25,1.98-0.12,3.88,1.15,3.67c1.74-6.46-1.05-4.28-1.47-9.53c-0.46-5.72-0.73-10.92-4.4-16.34
		c-1.38,2.17,2.68,4.44,2.93,14.98C125.56,470.03,126.66,467.54,127.21,471.86z"/> <path d="M140.62,411.93c-0.21,0.1-0.52,0.1-0.63,0.31c-3.43,4.02-7.78,6.65-10.16,9.43c-0.21,0.21,0,0.73,0,1.26
		C134.79,421.47,142.26,413.57,140.62,411.93z"/> <path d="M116.42,292.5c-1.07,2.68-1.2,8.74-4.71,15.3c-0.1,0.31,0,0.73,0.1,1.36C115.95,304.79,118.4,290.52,116.42,292.5z"/> <path d="M50.52,322.15c2.18-20.72,2.14-14.65,1.47-18.02C50.72,307.51,49.3,317.12,50.52,322.15z"/> <path d="M116.73,404.49c-0.1,0.1-0.52,0.31-0.52,0.31c-0.1,3.46-0.1,6.91,0.63,10.37C118.24,417.98,118.2,408.41,116.73,404.49z"/> <path d="M82.9,282.03c-2.72-0.94-5.34-1.99-8.17-1.89C77.34,281.4,80.07,281.71,82.9,282.03z"/> <path d="M55.76,282.45c1.05-1.89,1.15-2.2,1.36-5.34C55.66,279.62,55.45,280.66,55.76,282.45z"/> <path d="M127.21,534.4c0,0.52,0.31,0.84,1.05,0.63c0.42-1.05,0.73-2.2-0.42-3.25C126.9,532.62,127.21,533.56,127.21,534.4z"/> <path d="M128.05,482.02c0.84-1.05,1.05-1.99,0.42-3.35C127.73,480.34,127.73,480.34,128.05,482.02z"/> <path d="M127.42,484.22c-0.21,1.05-0.52,1.89,0.1,2.93C128.47,485.47,128.47,485.47,127.42,484.22z"/> <path d="M147.74,287.68c-2.84,0-2.83-0.07-2.83,0.21C148.17,287.89,147.74,287.98,147.74,287.68z"/> <path d="M53.67,295.33c0-0.94,0.1-1.89,0.1-2.83C52.93,293.34,53.14,294.28,53.67,295.33z"/> <path d="M114.32,394.12c0.42-0.84,0.55-0.59-0.52-1.89C113.8,394.11,113.57,393.75,114.32,394.12z"/> <path d="M117.99,284.54c-0.73,0.63-0.73,1.36-0.21,2.51C117.89,286.01,117.89,285.27,117.99,284.54z"/> <path d="M127.84,526.96c0.36-1.8,0.24-1.12-0.21-1.57C127.3,526.04,127.05,525.64,127.84,526.96z"/> <path d="M73.47,279.93c0.24,0,0.43,0,0.6,0.01c-0.17-0.05-0.34-0.12-0.49-0.22C73.47,279.83,73.47,279.83,73.47,279.93z"/> <path d="M74.06,279.94C74.76,280.14,75.37,279.98,74.06,279.94L74.06,279.94z"/> <path d="M118.14,284.26c-0.01,0.04-0.03,0.12-0.03,0.2C118.12,284.32,118.15,284.24,118.14,284.26z"/> <path d="M118.1,284.33c0.02-0.04,0.03-0.06,0.04-0.07C118.15,284.17,118.15,284.17,118.1,284.33z"/> <path d="M53.88,292.5c0-0.31,0.1-0.52,0-0.31C53.88,292.27,53.88,292.39,53.88,292.5z"/> <path d="M127.21,522.35c-0.26,0-0.21-0.1-0.21,0.52C127.27,522.88,127.21,522.49,127.21,522.35z"/> <path d="M145.65,176.95c0.63,0.31,1.47,0.73,2.3,1.05c-0.1,0.52-0.1,1.05-0.21,1.47c2.56,0.51,2.17-0.47,1.78-2.83
		c-1.15-0.42-2.2-0.84-3.56-1.26c-3.35,1.47-6.8,1.54-10.27,1.99c-0.94,0.12-1.68-0.21-2.2-0.94c-0.1-0.1-0.52-0.1-0.84-0.21
		C132.21,179.8,134.77,179.13,145.65,176.95z"/> <path d="M52.93,216.97c-0.84-0.31-1.47-0.21-1.78,0.63c1.89,2.41,3.77,2.72,7.54,1.36C58.7,218.54,59.7,218.85,52.93,216.97z"/> <path d="M68.12,119.54c-0.63-3.25-1.15-3.88-2.93-4.3C65.71,116.82,66.55,118.07,68.12,119.54z"/> <path d="M134.33,191.3c0.21-0.21,0.1-0.73,0.1-1.47c-1.26,0.63-2.1,1.15-3.46,1.89C132.55,192.35,133.6,192.25,134.33,191.3z"/> <path d="M130.14,181.77c-1.89,0.63-1.89,0.63-2.62,1.68C129.51,183.03,129.51,183.03,130.14,181.77z"/> <path d="M118,168.95c-0.92,0.53-0.65,1.44-0.74,2.24c0.2-0.68,0.48-1.37,0.78-2.14c0.68-0.63,0.6-1.54,0.8-2.26
		C117.94,167.28,118.07,168.14,118,168.95z"/> <path d="M60.58,111.89l-0.1-0.1C60.48,112.21,60.44,112.17,60.58,111.89z"/> <path d="M128.68,192.25c0,0.33,0.31,0.21,0.42,0.21C129.1,191.91,128.86,192.25,128.68,192.25z"/> <path d="M53.77,206.91c-0.14-0.14-0.42-0.17-0.42,0.1C53.49,207.16,53.77,207.19,53.77,206.91z"/> <path d="M137.37,168.67c-0.1-0.1-0.21-0.21-0.21-0.21c-0.1,0.21-0.21,0.42-0.21,0.63C137.29,169.43,137.02,169.38,137.37,168.67z"/> <path d="M138.52,179.57c0.27-0.14,0.26-0.08,0-0.21V179.57z"/> <path d="M56.39,108.65c-0.27,0-0.24-0.05-0.1,0.21L56.39,108.65z"/> <path d="M126.64,184.18c-0.1,0-0.05-0.03-0.17,0.21C126.7,184.17,126.75,184.18,126.64,184.18z"/> <path d="M127.42,183.34c-1.09,1.09-0.9,1.11,0.1,0.1L127.42,183.34z"/> <path d="M118.51,42.65c0.52,0.31,1.05,0.52,1.89,0.94c-0.65-5.23,0.26-3.93-3.46-4.61c0.73,0.63,1.15,1.05,1.99,1.68
		c-5.3,0-2.76-0.29-8.28,0.63c0.18-0.24-0.62,0.21,3.67-2.1c-2.1-0.1-3.56,0.31-4.71,1.89c0.99,0.19,1.23-0.23,0.52,1.15
		c0.82,0.41-0.3,0.15,2.62-0.21c0.73,3.65,2.12,3.97,4.19,3.14C119.82,44.01,117.4,43.44,118.51,42.65z"/> <path d="M127.73,65.17c-1.05-0.45-2.72-0.1-2.83-0.1c-5.9,1.97-7.37-1.3-8.07,1.15c3.34,2.86,8.76-0.16,15.4,1.57
		c0.42,0.11,0.84-0.31,0.73-0.94C131.71,64.96,129.41,66.01,127.73,65.17z"/> <path d="M85.41,20.33c0.52,0.1,0.84,0.52,1.26,0.42c3.49,0.25,6.33-0.11,8.7,1.47c-2.83,0.1-5.13,0.31-7.96,0.42
		c3.25,0.84,4.61,1.03,7.86,0.31c3.99-0.88,5.13,0.99,5.66-0.42C99.86,19.9,87.8,20.16,85.41,20.33z"/> <path d="M103.74,110.43c-0.61-0.76,0.32-0.67-15.5-4.19c-0.63-0.1-1.36,0-2.1,0C87.33,107.76,99.6,110.43,103.74,110.43z"/> <path d="M127.52,42.54c1.19,7.82,7.07,15.87,4.09,8.8c-1.32-3.12-2.83-6.29-3.46-9.74c2.14-4.28,1.54-3.41,1.26-3.98
		C127.52,39.61,127.19,40.34,127.52,42.54z"/> <path d="M108.67,109.06c-0.1-0.42-0.63-0.84-1.15-1.47c0.42,6.26,4.64,7.76,8.38,5.97c-1.05-0.42-1.36-0.74-1.78-0.73
		C111.39,112.89,109.61,111.58,108.67,109.06z"/> <path d="M122.08,70.62c2.48,2.79,7.84,2.12,9.53,0C123.23,70.62,123.97,69.92,122.08,70.62z"/> <path d="M114.64,82.14c-11.91-3.74-8.1-3.04-10.58-3.04c2.3,2.2,5.33,2.47,8.17,3.25C112.65,82.46,113.28,82.25,114.64,82.14z"/> <path d="M121.55,57.21c0,1.26,0.73,1.89,1.57,1.89c1.43,0.09,4.82-0.27,4.82-1.57c-1.21-1.38-3.59,0.31-4.5,0.31
		C122.81,57.94,122.29,57.52,121.55,57.21z"/> <path d="M88.13,17.82c8.2,1.78,6.67,1.91,8.85,1.11c-0.13-0.02-9.16-1.51-9.27-1.53C87.92,17.5,88.03,17.82,88.13,17.82z"/> <path d="M97.14,18.86c-0.19,0.08-0.25,0.06,0.1,0.1L97.14,18.86z"/> <path d="M129.41,58.46c-0.1,0.1,0.1,0.42,0.1,0.73c3.55-0.89,2.52,0.06,2.93-2.83C130.98,56.47,130.25,57.52,129.41,58.46z"/> <path d="M116.21,108.23c0-0.84,0-1.68,0-2.41C115.06,107.49,115.06,107.49,116.21,108.23z"/> <path d="M120.4,10.06l-0.1,0.1C120.42,10.25,120.36,10.28,120.4,10.06z"/> <path d="M102.8,78.47c-0.63-1.15-1.05-1.99-2.2-1.78C101.02,77.43,101.54,77.95,102.8,78.47z"/> <path d="M106.78,89.79c-0.21,1.05,0.31,1.36,1.15,1.78C108.04,90.63,107.41,90.21,106.78,89.79z"/> <path d="M132.53,54.29c-0.07,0.68-0.08,1.41-0.08,2.07C133.25,55.36,133.28,55.31,132.53,54.29z"/> <path d="M132.45,54.17c0.03,0.04,0.05,0.08,0.08,0.13C132.58,53.98,132.57,54.05,132.45,54.17z"/> <path d="M127.21,61.61c0,0.57-0.41,0.42,0.42,0.84C127.63,61.99,128.16,62.08,127.21,61.61z"/> <path d="M101.02,82.77c0.42,0.31,0.73,0.73,1.05,1.05C101.86,83.29,102.17,82.45,101.02,82.77z"/> <path d="M131.3,40.34C131.43,40.28,131.39,40.29,131.3,40.34L131.3,40.34z"/> <path d="M131.09,40.45c0.08-0.04,0.15-0.08,0.21-0.1C131.51,40.13,131.3,40.24,131.09,40.45z"/> <path d="M87.36,17.2c0.02,0,0.02-0.01,0.04-0.01C87.31,17.14,87.31,17.16,87.36,17.2z"/> <path d="M87.71,17.29c-0.17,0-0.3-0.06-0.36-0.09C87.17,17.21,87.43,17.29,87.71,17.29z"/> <path d="M125.85,16.77c-0.29,0-0.66-0.22-0.73,0C125.11,16.92,124.99,16.77,125.85,16.77z"/> <path d="M124.58,15.38c-0.03,0.5,0.15,0.94,0.54,1.3C125.18,16.16,125.05,15.67,124.58,15.38z"/> <path d="M124.49,15.3c0.04,0.02,0.06,0.05,0.09,0.07C124.58,15.16,124.64,15.15,124.49,15.3z"/> <path d="M120.09,10.06c0.13,0.13,0.08,0.13,0.21,0H120.09z"/> <path d="M135.8,40.76c-0.21-0.1-0.31-0.21-0.52-0.31C135.49,40.55,135.17,41.07,135.8,40.76z"/> <path d="M127.42,16.56c0,0.1,0.1,0.1,0.21,0.21c0.29-0.58,0.34-0.51-0.31-0.84c0.22,0-0.05-0.68-0.64-0.63
		C126.57,16.39,127.42,15.36,127.42,16.56z"/> <path d="M126.69,15.2c-0.13,0.13-0.14,0.1-0.01,0.1C126.69,15.26,126.68,15.24,126.69,15.2z"/> <path d="M107.21,36.88c7.16-3.58,7.73-1.8,16.02-0.1c0.86,0.18,2.77-1.17-1.89-2.1C116.21,33.28,109.2,31.92,107.21,36.88
		c-0.01-0.02-0.02-0.03-0.05-0.04c-0.1-0.1-0.06-0.09-0.06,0.15C107.17,36.92,107.21,36.9,107.21,36.88z"/> <path d="M101.96,83.92h0.21C102.04,83.79,102.09,83.79,101.96,83.92z"/> <path d="M85.93,106.03c0.1,0.1,0.21,0.1,0.31,0.1C86.14,106.13,86.04,106.03,85.93,106.03z"/> <path d="M131.04,40.45c-0.11,0-0.05-0.02-0.17,0.1C131.08,40.45,131.15,40.45,131.04,40.45z"/> <path d="M91.38,13.31c0.28,0,0.3,0.04-0.05-0.12C91.36,13.24,91.38,13.27,91.38,13.31z"/> <path d="M91.33,13.2c-0.04-0.05-0.09-0.09-0.16-0.09C91.22,13.15,91.27,13.18,91.33,13.2z"/> <path d="M123.12,13.73c-0.03-0.02-0.05-0.04-0.08-0.06C122.99,13.91,123.02,13.84,123.12,13.73z"/> <path d="M122.5,13c0.84-0.84,1.14-0.22-2.12-2.77c-0.29,1.41,1.02,1.93,1.98,2.84c0.19,0.24,0.43,0.43,0.68,0.6
		C123.15,12.86,123.3,13,122.5,13z"/> <path d="M123.02,13.84c0.27,0.09,0.46,0.32,0.71,0.52C123.67,14,123.46,13.84,123.02,13.84z"/> <path d="M123.73,14.36c0.04,0.11,0.02,0.1-0.08,0.21C124.85,15.37,124.88,15.51,123.73,14.36z"/> <path d="M99.13,75.12l0.1-0.1C98.98,75.02,98.99,74.98,99.13,75.12z"/> <path d="M99.87,75.85l0.1-0.1C99.87,75.65,98.32,74.3,99.87,75.85z"/> <path d="M105.63,15.3c0.1,0,0.21,0.1,0.31,0.1C105.94,15.3,105.84,15.2,105.63,15.3z"/> <path d="M100.6,76.59l0.1-0.1C100.52,76.44,100.64,76.36,100.6,76.59z"/> <path d="M99.87,75.85c0.27,0.19,0.48,0.44,0.73,0.58C100.61,76.03,100.33,75.85,99.87,75.85z"/> <path d="M119.77,234.78c0.67,1.65,2.76,4.74,4.3,3.77c1.34-0.85,0.04-1.66-3.04-6.5C119.56,233,119.26,233.52,119.77,234.78z"/> <path d="M83.52,253.43c-6.71-13.25-6.15-13.22-7.33-12.78c0.42,1.68-0.93-1.25,6.5,13.41c0.32,0.63,0.84,1.05,1.36,1.57
		C84.36,254.79,83.84,254.05,83.52,253.43z"/> <path d="M142.19,252.8c-4.19,8-3.89,6.34-3.46,7.65C141.35,257.93,142.19,255.94,142.19,252.8z"/> <path d="M123.44,214.87c-0.73,2.62-0.73,7.23-0.1,11.31C123.96,221.68,123.96,217.18,123.44,214.87z"/> <path d="M89.6,263.9c0-1.68,0-1.68-1.15-3.25C88.24,261.81,88.66,262.86,89.6,263.9z"/> <path d="M93.69,237.82c0,0.13-0.73,1.05,0.21,1.68c0.27,0.27,1.17-0.53,0.42-1.47C94.21,237.92,93.9,237.92,93.69,237.82z"/> <path d="M90.33,265.37c-0.3,0.45-0.31,0.11,0.52,1.36c0,0,0.21,0,0.21-0.1C91.07,265.53,91.19,266.23,90.33,265.37z"/> <path d="M93.69,234.26c0.35-0.35,0.48,0.02,0-1.68C93.47,234.32,93.41,233.98,93.69,234.26z"/> <path d="M88.55,260.55c-0.1,0-0.21,0-0.21,0S88.34,260.66,88.55,260.55z"/> <path d="M83.94,255.73c0.05,0,0.13,0.02,0.2,0.05C84.11,255.7,84.03,255.65,83.94,255.73z"/> <path d="M84.15,255.84c0.29,0,0.27,0.02-0.01-0.05C84.14,255.78,84.15,255.82,84.15,255.84z"/> <path d="M78.08,168.67c0.21,0.1,0.31,0.1,0.52,0.21c0.1-0.1,0.21-0.21,0.21-0.31c-0.21-0.1-0.31-0.31-0.52-0.31
		C78.29,168.25,78.18,168.57,78.08,168.67z"/> <path d="M75.67,166.16c-0.31,0.61-0.17,0.56,0,0.73C76.2,166.36,75.96,166.45,75.67,166.16z"/> <path d="M74.41,193.4c0.21,2.62,1.05,3.67,3.56,4.3C76.3,196.12,75.88,194.45,74.41,193.4z"/> <path d="M154.34,210.16c-0.1-0.1-0.21,0-0.31,0c0.1,0,0.1,0.21,0.1,0.21c0.31,0.1,0.52,0.1,0.84,0.21
		C154.97,210.16,155.01,210.49,154.34,210.16z"/> <path d="M153.92,209.85c-0.4,0-0.12,0.02,0.09,0.13C154,209.94,153.97,209.89,153.92,209.85z"/> <path d="M154.13,210.06c-0.03-0.03-0.07-0.06-0.11-0.08C154.05,210.02,154.08,210.06,154.13,210.06z"/> <path d="M85.83,7.13c1.05,0.63,1.78,1.15,2.62,1.57C87.61,7.24,87.61,7.24,85.83,7.13z"/> </g> </svg> 