<?xml version="1.0" encoding="utf-8"?> <!-- Generator: Adobe Illustrator 23.0.1, SVG Export Plug-In . SVG Version: 6.00 Build 0)  --> <svg version="1.2" baseProfile="tiny" id="Layer_1" xmlns="http://www.w3.org/2000/svg" xmlns:xlink="http://www.w3.org/1999/xlink" x="0px" y="0px" viewBox="0 0 900 600" xml:space="preserve"> <g> <path d="M659.64,60.6c0.02-0.01,0.04-0.03,0.06-0.04c0-0.01,0-0.02,0-0.02C659.67,60.58,659.66,60.59,659.64,60.6z"/> <path d="M659.64,60.6C659.6,60.64,659.59,60.66,659.64,60.6L659.64,60.6z"/> <path d="M642.3,303.27l0.1-0.1C642.31,303.2,642.3,303.19,642.3,303.27z"/> <path d="M706.64,31.33l-0.03,0.02C706.5,31.46,706.64,31.5,706.64,31.33z"/> <path d="M766.2,430.44l0.1-0.1C766.1,430.29,766.17,430.28,766.2,430.44z"/> <path d="M641.58,303.98l0.1-0.1C641.66,303.85,641.65,303.78,641.58,303.98z"/> <path d="M649.42,109.01l0.1,0.1C649.52,108.96,649.54,109.05,649.42,109.01z"/> <path d="M663.57,98.52l0.1,0.1C663.64,98.39,663.65,98.45,663.57,98.52z"/> <path d="M628.75,318.75l0.1,0.1C628.86,318.69,628.89,318.81,628.75,318.75z"/> <path d="M884.31,71.74l-0.1,0.1C884.37,71.8,884.35,71.87,884.31,71.74z"/> <path d="M898.16,65.23c-1.87-1.56-5.64-2.16-8.04-2.44c-1.12-2.34-2.34-4.38-3.16-6.92c-3.46,0.41-5.7,2.85-8.76,4.17
		c-0.41-2.34-1.32-4.48-0.92-6.52c-0.61-0.71-1.12-0.92-1.73-0.92c-9.3,0-10.65,2.25-39.5,32.07c-6.77,7-11,11.24-8.15,11.81
		c31.52-32.1,10.11-7.05,33.19-34.72c2.43-2.91,3.67-3.74,3.67,0c-2.54,3.9-6.85,7.46-15.78,17.21c-4.49,5.62-2.91,4.7-6.52,7.94
		c-4.01,3.61-7.71,6.84-8.96,9.47c-2.37,0-1.63,1.17-1.63,5.91c0,3.16,1.83,5.8,3.05,8.55c0.31,0,0.71,0.1,1.02,0.1
		c1.23-1.33,2.97-2.14,4.99-2.14c1.73-0.1,3.38-0.95,5.19,0c0.82,0.43,1.94,0.24,3.05,0.21c2.93-0.07-13.13,1.9-13.24,1.92
		c-0.51,1.43-1.93,1.43-3.56,2.24c-1.12-0.92-2.14-1.63-3.16-2.44c0.34-3.04,0.73-1.92-1.32-4.79c-0.92-6.92-0.92-6.92-2.14-8.04
		c-0.92,2.85,0.71,5.4,0.51,8.15c-3.78,1.68-5.89,1.23-9.06,4.48c-6.74,6.91-40.4,18.27-57.93,17c-0.98,0-0.57,0.15-2.04,1.32
		c-6.9,1-14.79,4.05-20.87,7.33c-9.29,5.02-19.14,4.5-32.28,7.74c-6.49,1.6-16.8-0.58-23.42-1.93c-2.88-0.59-2.08-0.75-10.89,2.44
		c-1.12,0.41-1.02,0.51-1.83,2.14c0.31,0,0.61,0.1,0.71,0c1.99-1.69,7.38-3.07,9.77-2.55c9.8,2.14,10.06,1.54,10.59,2.85
		c-3.97,14.61-13.3,18.34-24.74,23.62c3.87-0.1,7.54-0.99,11-2.44c13.36-5.61,14.58-19.72,15.27-21.79
		c5.09,0.41,10.18,0.81,15.17-0.2c2.71,3.61,6.79,12.58,22.6,18.02c4.75,1.64,4.45,3.92,11.1,1.63c2.64-0.91,4.22-9.87-1.83-16.09
		c-1.15-1.38-0.87-0.57-4.68-7.43c-0.2-0.31-0.1-0.71,0.2-0.92c1.02,0.2,1.13,1.11,1.63,1.73c7.55,9.49,7.12,6.78,10.28,11.61
		c3.38,5.16,4.4,5.33,3.97,6.92c-17.56,12.91-40.43,30.2-43.78,32.38c-6.71-0.87-9.13-3.7-10.18-2.65c1.43,0.71,2.85,1.32,4.17,2.14
		c1.32,0.71,2.95,0.81,4.07,1.93c-6.31,5.09-4.89,4.79-13.44,5.4c-21.34,1.52-12.2,0.1-25.15,0.1c-2.55,0-1.48,2.56-5.91-12.93
		c-1.6-0.53-1.47-0.47-6.01-13.74c-1.23-3.6,1.48-0.01,8.65-0.51c-0.1-0.92-0.92-1.02-1.32-1.63c-0.71,0.1-1.43,0.31-2.04,0.1
		c-8.28-2.76-7.86-8.6-8.76-10.18c-5.38-9.49-0.41-33.81,5.6-43.88c1.83-0.92,3.38-2.62,4.99-4.17c4.1-3.97,10.03-2.93,14.05-5.4
		c2.02,0.47,2.74-0.61,4.79-0.61c10.12,0.88,16.93,2.53,22.91,4.58c2.51,0.86,2.2-0.94,1.43-1.32c-6.31-3.15-18.49-5.79-27.39-4.99
		c-2.73,0-6.24-5.61-3.56,0.41c-0.12,0.71-0.87,0.93-1.79,1.19c-1.5,0.42-5,1.55-5.55,1.7c2.34-4.5,6.24-5.32,6.24-5.62
		c0.42-1.96,1.8-0.05,4.66-3.79c4.29-5.59,2.39-2.48,5.09-17.41c0.18-1.02-0.1-2.14,0.61-3.05c1.12-0.61,2.55-0.61,3.46-1.63
		c0.82-2.04,0.28-1.34-2.55-2.34c-0.82-0.29-1.43-1.22-2.34-1.22c-0.89,2.72-1.12-0.35-2.13-3.88c2.34,1.83,5.09,2.65,7.53,3.67
		c1.02,1.32,1.02,3.05,2.44,3.97c4.25,0,2.67,0.31,5.38-1.25c-0.01,2.82-0.84,6.47,2.15,8.39c3.57,2.29,13.15,7.04,10.69,4.58
		c-2.14-1.43-4.18-3.03-6.52-4.17c-6.82-3.34-3.76-5.87-5.29-8.55c-0.32-0.08-1.02-0.2-0.92-0.31c-0.02,0.01-0.04,0.03-0.07,0.04
		c-0.01,0-0.04-0.01-0.04-0.01c0,0.01,0,0.02,0,0.03c-0.01-0.02-0.02-0.03-0.02-0.05c0.05,0,0.04,0.04,0.04-0.02
		c-0.33,0,0.03-1.41-0.92-1.83c-0.92,0-1.32,1.32-2.65,0.92c-1.6-0.6-1.72-1.27-7.03-12.22c-0.2-0.51-0.31-1.12,0.31-1.53
		c0.71,0.31,1.63,0.41,2.24,1.02c-0.23,2.34-0.02,4.29,1.83,5.8c0.73,0.59,1.22,0.51,2.34-0.51c-0.51-2.14-2.55-4.07-1.43-6.62
		c2.43-2.43,2.65-2.44,2.95-2.14c2.08,2.08-1.22,2.46-1.22,4.38c0.92,1.32,0.61,3.36,1.22,5.19c1.83-0.1,2.65-1.12,3.05-2.34
		c-0.12-1.85-2.14-1.8-2.14-3.26c0.74-1.48,2.26-3.16,0-5.8c-4.67-5.47-4.82-3.4-8.35,2.14c-0.93-2.55,2.04-5.98,4.99-7.13
		c4.18-1.62,4.18,7.67,9.88,7.13c1.12-0.11,2.04-0.51,2.75-1.93c-1.63,0-3.16,0.41-4.68-0.92c4.79,0.37,6.13-2.18,7.53-2.65
		c2.55-0.61,4.58-2.34,7.13-3.46c-0.92-1.73,0.81-2.44,1.02-3.77c1.1-0.27,1.05-0.53,1.83-0.92c2.4-6.01,2.33-4.64,3.16-9.37
		c-3.05,0.1-3.05,0.1-4.58-0.81c3.46-1.63,4.28-1.63,8.65-0.41c0.33,0.5,0.09,2.42,4.55-0.86c1.09,0.9,2.1,1.69,3.39,2.79
		c1.63-1.43,3.77,0.1,5.7-0.81c2.46,2.11,2.2,1.13,2.85,6.01c0.55,4.17,0.81,8.25,1.93,12.01c-0.51,1.12-1.11,1.75-2.14,2.04
		c-2.05,0.56-2.6,3.42-2.34,5.7c0.99,8.81,4.01,9.54,3.05,12.42c-4.09,2.04-3.91-2.79-6.72,1.43c4.1,1.17,0.62,0.32,2.75,5.29
		c-2.35,3.76-8.25-0.94-8.25,1.43c0.68,1.71,4.3,1.3,5.5,1.73c3.71,2.78-0.5,2.98-0.92,5.19c0.51,2.14,1.53,4.68-1.43,6.41
		c-3.26,0-6.72,0.81-9.98-1.02c-8.69-1.24-8.98-2.28-11.61,15.37c0,0.66,1.38,1.38,1.83-1.32c1.42-6.26,0.91-8.72,4.89-12.93
		c8.26,2.07,5.19,2.95,14.25,2.04c5.04-0.51,4.68-5.36,4.38-8.65c1.93-1.43,1.83-3.16,1.02-5.19c0.71-0.61,1.32-1.12,1.63-1.32
		c0.92-2.24-0.31-4.17,0.81-6.01c2.75-0.71,4.68-2.24,4.28-5.5c-1.83-3.05-3.05-6.31-3.26-9.98c0.71-0.61,1.83-0.61,2.24-1.43
		c-0.41-0.61-1.22-0.31-1.43-1.12c0.34-1.03,5.04-4.15,3.16-11.61c-3.82-15.1-3.34-16.89-10.59-22.81
		c-2.59-2.12-0.91-0.15-6.62-3.26c-11.86-6.46-28.72-7.77-32.48-4.38c-1.55,1.4-3.47,2.02-5.19,3.05c-1.84,1.1-3.56,2.34-5.4,3.46
		c-2.65-1.12-5.3-1.5-7.94-2.24c-6.02-1.68-9.36,0.31-12.22,5.09c-4.32,7.22-8.91,8.52-8.45,17.31c0.5,9.58,2.19,9.92,2.14,15.07
		c-0.14,14.04,4.49,22.96-0.81,35.74c-0.63,1.52-1.02,3.05-1.53,4.68c-0.2,0.41-0.31,0.92,0.2,1.43c1.93-0.58,1.85-3.79,3.26-4.89
		c0,5.78-6.17,11.35-6.11,12.84c1.19,0.13,6.57-5.02,7.33-5.81c13.81-14.41,9.16-30.68,9.16-40.11c0-6.04,1.19,3.83,2.44,12.42
		c0.89,6.09-0.77,6.85-0.51,10.49c0,1.03-0.85,5.29-3.67,10.69c-0.29,0.57-0.73,1.05-0.64,1.76c2.91-2.54,4.82-5.57,5.12-9.8
		c6.18,9.95-14.68,17.77-15.07,20.46c0.51,0.51,7.1-3.2,10.08-5.29c0.59-0.42,1.11-1.2,2.02-1.02c-0.43,2.19-1.64,3.88-3.75,4.68
		c-2.62,1-16.51,11.5-16.29,26.57c0.08,5.21-1.95,9.7-1.43,18.33c0.26,4.37,1.86,5.48,3.56,11.91
		c6.75,25.47,10.89,31.02,12.73,41.03c3.11,16.91,3.46,17.21,2.24,19.34c-6.91,5.53-205,151.61-206.48,153.94
		c-0.58,0.92,0.35,2.35,1.43,2.14c4.04-0.81,204.75-153.06,204.75-150.38c-4.03,34.74-15.06,25.87-19.65,53.05
		c-2.11,12.51-0.87,13.93-3.97,18.12c-3.72,5.03-9.42,12.58-10.07,17.23c0.53,0.12,0.83-0.14,1.11-0.53
		c2.25-3.06,9.88-15.53,10.79-15.37c1.5,1.5,0.46,0.69,1.54,0.34c0.32-1.9,0.98-3.62,0.91-5.53c-0.16-4.17,0.39-8.25,2.04-12.12
		c0.96-2.25,4.21-14.71,6.92-18.33c0.61,0.71,1.53,0.41,2.24,0.81c3.56,3.87,4.88,5.01,7.94,6.41c5.38,2.47,11.1,4.04,17,4.58
		c13.56,1.25,22.22,5.16,35.94,3.16c8.1-1.19,21.33-6.96,24.23-11.61c0.2-0.41,0.61-0.81,1.32-0.61c1.68,6.3,1.37,6.13,1.22,7.43
		c0,0.69,1.25,0.98,1.93,1.12c6.3,9.1,2.69,1.84,10.28,19.04c2.29,5.19,1.09,5.04,3.36,8.96c1.01,1.74,1.93,3.46,2.85,5.29
		c0.2,0.31,0.61,0.71,0,1.12c-4.92-2.19-9.3-5.28-19.75-3.05c-17.16,3.65-29.98,16.88-33.19,28.1c-0.1,0.51-0.31,0.92-0.51,1.32
		c-3.1-1.09-2.35-5.13-4.68-7.23c-1.69-1.69,2.34-4.03-8.65-1.83c-5.33-1.94-25.2-0.1-12.52-0.1c18.19,0,6.24-0.53,4.58,7.23
		c0.2,0.1,0.51,0.31,0.92,0.61c2.04-2.44,4.28-4.79,7.43-6.21c2.04,0,4.28-1.22,6.62-0.61c2.82,10.34,11.1,22.5,11.91,22.91
		c2.68,1.61,2.62,4.2,9.06,10.79c3.03,3.1,8.81,10.42,14.76,17.21c6.64,7.58,9.98,17.52,15.07,23.62
		c6.47,7.77,3.45,13.72,9.57,17.61c1.95,4.18,2.25,6.52,5.05,6.99c-1.08-3.89-4.98-8.92-5.97-10.97
		c-7.31-15.13,6.72,4.13-17.41-31.56c0.94-3.28,1.04-1.61-7.84-11.51c-13.11-14.6-5.82-4.66-25.66-32.48
		c-3.09-4.34,10.17-22.93,14.97-25.25c31.96-15.45,30.16-1.67,38.38-3.46c0.08,0.14,6.85,11.06,12.01,27.39
		c6.53,20.64,10.7,53.96,10.79,55.59c2.62,5.24-0.32-56.72-23.93-90c-5.76-8.12-3.7-10.57-11.51-25.86
		c-5.64-11.05-4.79,5.84-6.72-17.51c-0.22-2.7-1.96-13.56-3.05-14.05c-1.37-0.61-1.29-1.39-2.85-7.74
		c-0.58-2.36-2.64-10.18-1.93-12.52c1.66-5.51,1.69-16.82,3.16-22.5c1.92-7.45,3.28-8.62,2.55-11c1.94,0.45,2.78-0.07,5.8-1.63
		c6.87-3.55,5.88-6.09,8.15-9.27c4.73-6.62,1.98-12.38,1.43-16.29c-0.78-5.52-2.79-6.36-2.14-8.15c13.82-9.98,10.62-8.57,14.66-9.67
		c5.17-1.41,19.65-8.73,31.77-18.43c4.51-1.13,22.39-3.77,28.2-10.59c0.87-1.02,13.79-8.21,20.36-10.18
		c0.81-0.51,1.02-1.43,1.93-1.63c7.64-1.12,15.29-2.3,22.6-4.68c0.61-0.2,1.12-0.61,1.73-0.31c1.53,0.92,3.05,0.09,4.48,0
		c1.78-0.11,3.67-0.69,4.89-2.22c0.67,0.22,1.56-0.45,2.04-1.04c1.22-2.55,0.41-4.89,0-7.13c-0.92-0.92-2.44-1.12-2.75-2.65
		c0.31-1.12,1.32-2.24,0.31-3.67c-0.31,0.2-0.71,0.31-0.81,0.51c-0.31,0.81-0.3,1.74-0.61,2.44c-0.72,1.62-0.38,2.51,1.02,7.64
		c-0.71,1.22-2.14,1.53-2.44,2.85c1.16,0.39,2.34-1.25,2.99,0.72c-3.46,0.4-5.42,1.28-7.68-0.11c-1.22-1.22-0.71-2.75-2.24-3.36
		c-1.12,1.22-2.34,2.44-4.38,1.83c5.73-4.82,7.69-3.41,10.39-6.11c0.51-0.61,0.81-1.22-0.41-1.83c-2.55,1.83-5.49,2.97-8.45,4.17
		c-6.59,2.68-5.3,1.87-6.62,3.97c-1.92,0.96-2.78,1.77-23.42,4.28c-5.56,0.68-5.04,1.45-6.41,1.32c-1.83-4.99-2.65-8.86-2.14-9.67
		c0.51-0.1,0.92-0.1,1.43-0.1c3.56-4.89,8.55-8.15,12.42-12.52c4.88,0.38,7.09-2.32,11.91-6.01c4-15-2.54-3.64,6.52-16.09
		c0.71,0.31,0.92,0.71,1.02,1.22c0.1,0.81-1.43,0.71-0.71,1.93c1.12,0.71,2.65,1.22,4.17,0.92c2.65-0.52,5.68-0.02,7.94-2.34
		c0.48-0.49,2.25-0.07,2.44-1.43c-0.71-0.2-1.32-0.41-2.24-0.61c2.14-2.34,4.48-3.87,7.53-4.68c1.72,3.88,1.95,4.01,1.53,4.68
		c-1.83,0.81-3.26-0.92-5.19-0.71c0.2,1.73,1.02,2.75,2.44,3.36c3.05-0.51,5.6,0.2,7.84,1.93c1.61,2.82-2.04,2.73-2.95,3.87
		c1.27,2.54,3.5-2.09,7.53,2.44c-0.51,1.32-1.32,2.44-2.55,3.36c-1.93-1.12-3.97,0.51-5.91,0c-0.62-1.35-0.94-6.06-4.25-5.42
		c0.76,2.24,2.79,3.77,1.5,7.66c0,0.1,0.2,0.41,0.31,0.61c4.21-2.41-1-0.46,8.15-1.83c1.43,2.04,0.61,3.56-0.81,5.19
		c-1.63-0.31-3.05,0-4.58,0.81c1.22,0.71,2.55,0,3.56,0.71c-0.58,5.22-4.68,1.15-4.68,5.5c2.04,0.81,3.87,0.1,5.7-0.61
		c0.92-0.92,1.33-2.03,2.44-2.65c1.04-0.58,2.2-3.06,0.61-3.26c-0.71,0.71-0.81,2.04-1.93,2.44c-0.51-0.41-0.81-1.02-0.81-1.83
		c10.21-5.11,3.41-8.91,5.91-14.66C900.49,68.07,899.66,66.48,898.16,65.23z M739.73,163.9c-2.34,1.12-2.34,1.12-4.99,0.71
		c-0.8-3.63-1.73-4.95-0.82-8.56c-3.04-0.51-1.62-2.91-7.03-6.52c-0.62,0.53-0.33,0.88,0.2,1.43c4.19,4.32,5.33,11.87,5.17,12.02
		c-1.08,0.84-23.5-13.06-23.5-18.24c3.12-0.86,2.71,0.17,14.75-1.83c8.67-1.45,7.06-2.29,8.65,0.51
		C737.72,153.14,742.58,156.66,739.73,163.9z M680.07,75.82c-0.32,0.32-0.41,0.22-0.41-0.21C679.95,75.56,680.14,75.75,680.07,75.82
		z M688.21,56.98c3.03,0.53-1.1,2.9-2.95,4.07C686.28,59.02,686.99,57.79,688.21,56.98z M676.3,64.92c0.81,0.45,1.48,1.05,1.93,1.83
		C676.71,66.65,676.71,66.65,676.3,64.92z M676,79.38c-0.39,0.78-1.02,1.11-1.73,1.43c-0.51-1.73,0.2-3.26,0.31-4.89
		c0.2-1.63,0.2-3.26,0.31-5.29c1.32,1.83,1.12,3.67,1.83,5.29C675.42,77.9,675.68,77.82,676,79.38z M683.73,71.64
		c-1.93-0.51-3.46-1.63-4.89-3.05c0.05-0.2,0.08-0.41,0.1-0.6c0.13-0.77,2.06,1.32,4.28,1.71
		C684.13,69.86,684.65,71.64,683.73,71.64z M693.26,51.48c-0.23,0.48-0.7,0.32-1.18,0.51c-3.65-1.33-2.98-2.46-8.19,0.88
		c-0.18,0.09-1.48,2.1-1.69,3.6c-0.17,1.25-0.65,2.74-1.51,3.78c-1.39,1.67,1.8,5.66,2.29,8.36c0.09,0.47-3.19-1.7-5.25-4.4
		c-0.12-0.27-0.11-0.61-0.2-0.92c1.03,0.26,1.14,0.48,1.24,0.38c0.65-0.67-0.37-0.76-3.48-5.26c-2.22-3.21-1.93-6.69-1.73-6.56
		c1.57,0.87,3.16,1.91,3.46,1.91c1.89,0-1.78-1.13-3.67-5.54c0.16-0.64,0.65-0.88,0.74-0.78c4.73,4.72,8.7,5.56,8.43,5.11
		c-0.98-1.62-8.91-4.92-7.75-9.11C677.84,46.49,694.02,50.35,693.26,51.48z M696.46,54.33c0.41,0,0.71,0,1.02,0
		C697.17,54.64,696.87,54.64,696.46,54.33z M695.95,50.36c-5.91-1.12-10.59-4.38-15.68-6.72c-0.82,0.3,0.63,3.44-4.79-2.56
		c0.14-2.36,1.44-5.09,1.55-5.09c1.66-0.55,2.04,2.41,10.87,7.74c0.12,0.07,1.33,0.91,1.66,0.58c1.38,1.85,3.62,1.95,3.51,1.84
		c-2.06-2.45-3.44-1.83-3.44-2.11c0-0.45-0.92-0.83,0.64-1.11c2.8,2.64,6.55,1.78,7.71,4.67c2.55,0.49,4.59,0.31,9.88,0.31
		C704.86,50.62,698.16,48.74,695.95,50.36z M705.74,42.32c-0.32,0.32-0.33,0.17-0.48,0.17C704.45,42.33,705.1,41.81,705.74,42.32z
		 M706.74,43.54c5.5-1.93,5.5-1.93,8.04-1.32C712.16,44.13,709.88,43.85,706.74,43.54z M713.46,34.48c0.37-0.12,0.31-0.14,0.31,0
		C713.77,34.61,713.83,34.6,713.46,34.48z M713.01,32.98c0.08,0.03,0.78,0.14,0.87,0.17C713.41,33.52,713.13,33.38,713.01,32.98z
		 M713.06,29.18c-0.17-0.17-0.53-0.02-0.91-0.21C712.15,28.18,712.95,29.14,713.06,29.18c0.44,0.09,0.92,0.29,1.27,0.59
		C713.79,29.75,713.23,29.89,713.06,29.18z M714.66,29.98c0.25,0.13,0.44,0.19,0.54,0.22C714.87,30.32,714.74,30.22,714.66,29.98z
		 M729.66,34.99c-1.07,2.15-2.07-2.08-2.36-2.81C728.47,32.78,728.81,34.14,729.66,34.99z M726.59,31.43
		c0.85,0.85-0.07,0.39-0.07-0.03C726.54,31.41,726.57,31.42,726.59,31.43z M726.23,31.21c-0.76-0.06-1.17-0.73-1.73-1.2
		C725.24,30.01,725.87,30.39,726.23,31.21z M725.68,25.62c-1.85,0-3.19-1.36-4.58-2.76C723.55,23.61,724.02,23.96,725.68,25.62z
		 M723.43,29.08c-0.26-0.13-1.43-1.5-0.93-1c0.42,0.42,0.37,0.49,0.53,0.49C723.38,28.57,723.55,28.74,723.43,29.08z M720.5,22.64
		c-0.73-0.06-0.9-0.4-1.07-0.61C720.02,22.29,721.26,22.75,720.5,22.64z M717.23,22.77c0.2,0.1,0.51,0.2,0.92,0.2
		c-0.41,0.24-0.62,0.09-0.79-0.08c-0.34-0.34-1.38,0.04-2.06-0.72C715.97,22.18,716.77,21.84,717.23,22.77z M714.99,20.3
		c0.33-0.14,0.61,0.01,0.41,0.06c-0.4,0.17-0.18-0.03-0.51-0.03C714.92,20.33,714.96,20.31,714.99,20.3z M715.03,22.03
		c-0.33-0.07-0.61-0.09-0.97-0.17C714.6,21.42,714.84,21.58,715.03,22.03z M713.57,26.94c2.9,1.4,10.54,6.08,11.97,7.89
		c-0.63,0.09-1.16,0.17-1.69-0.25c-4.96-4.61-9.95-5.78-11.7-7.53c-0.08,0.11-0.23,0.35-0.34,0.42c-0.14,0.07-0.37-0.32-0.26-0.32
		C712.66,27.15,712.18,26.27,713.57,26.94z M704.58,19.21c7,0,4.47,1.53,8.08,1.53c-0.94,0.73-1.4,0.33-1.83-0.1
		c-3.44,0-3.25-0.66-6.01-0.92c-0.19,0-0.34-0.51-0.44-0.51c-1.22-0.1-2.42-0.1-3.62-0.1C703.39,17.98,704.15,19.21,704.58,19.21z
		 M710.31,23.28c-1.82,0-0.83-0.23-0.54-0.23C709.97,23.05,710.14,23.12,710.31,23.28z M706.64,22.36c0,0.14,0.1,0.1-0.61,0.1
		C706.13,22.46,705.69,22.36,706.64,22.36z M694.87,20.07c-0.01,0.02-0.02,0.04-0.03,0.06l0.1-0.1
		C694.91,20.02,694.89,20.04,694.87,20.07c0.01-0.01,0.02-0.03,0.02-0.04c0.54-1.11,2.2-0.21,5.13,0.42
		c-0.81,0.2-1.32,0.41-1.83,0.61c0.43,1.25,0.29,0.79-1.03,1.07c-0.08-0.08-0.04-0.07,0.23-0.07c0.24,0-0.55-1.09-2.13-0.31
		c0.59,0.34,1.21,0.32,1.83,0.32c-0.12,0.12-0.12,0.1,0.04,0.07c0.16,0.19,0.26,0.43,0.44,0.43c10.76,2.31,14.39,2.17,13.65,4.54
		c-2.16,0.76-2.79-1.01-4.11-0.01c-0.03,0.03-0.07,0.06-0.07,0.01c0-0.16-0.05,0.02-0.66,0.02c-1.46-0.01-7.38-3.09-14.82-5.28
		C693.41,19.47,694.71,20.21,694.87,20.07z M707.36,27.35c-0.19,0-0.26,0.04-0.3-0.2C707.16,27.16,707.25,27.25,707.36,27.35z
		 M681.09,28.98c0.1-0.31,0.1-0.61,0.2-0.71c0.81-0.81,3.89-3.02,6.92-4.48c1.21-0.16,12.24,2.79,13.24,3.05
		c4.65,1.25,4.1,1.93,6.01,1.93c2.02,0.11,3.46,1.11,5.09,2.34c-1.32,0.26-1.15,0.59-0.08,1.49c0.76,0.64-1.3,0.25-2.25-0.06
		c-3.77-1.26-3.66-1.3-3.66-0.5c-0.21-0.42,0.42,0.83-3.78-0.94c-6.36-2.67-16.57-8.14-16.86-4.27c-0.07,0.97,0.91,1.44,1.49,1.21
		c1.34-0.3,0.79-0.18,15.37,5.19c1.3,0.48,2.9,1.05,3.74,2.3c-0.93,0.33-1.35,1.14-1.5,2.18c1.71,1.18,8.18,1.42,10.39,0.1
		c0.39,1.15-0.07,1.8-0.71,2.65c-3.43,0-1.81-1.33-7.13-0.41c-12.08,2.1-18.24-6.67-20.84-6.72c-0.93-1.57-1.96-1.15-2.14-1.6
		c0-0.1-0.26-0.44-0.75-0.44c0,0.7,0.71,0.71,0.81,0.81c0-0.64,0.49,1.37,2.04,1.32c0,0.22,0,0.5,0,0.62
		c-1.26,0.02-1.28,0.66-1.43,0.8c1.76,0,1.53,0.03,1.53-0.08c0-0.8,0.1-0.09,0.1,0.09c-1.28,0.51,7.43,4.8,8.36,6.01
		c0.59,0.77,0.78-0.24,8.35,3.26c-8.02,0.65-6.31,0.23-12.99-1.22c-0.37-0.08-0.28-0.05-0.38-0.19c-1.57-2.19-3.32-0.8-6.18-3.07
		c-1.07-0.85-5.82-4.21-5.79-5.58c0.1-4.58,3.76,3.72,14.45,6.6c0.84-1.41-7.21-3.86-7.43-5.6c-2.34-0.51-3.67-2.24-4.99-3.87
		C680.61,29.15,682.36,31.52,681.09,28.98z M711.43,35.3c-1.72,1.13-1.79-0.18-2.17-0.56c-0.17-0.07-0.25-0.05-0.07-0.05
		c0.13,0,0.19-0.02,0.19,0.12C709.38,35.09,710.29,34.35,711.43,35.3z M707.46,35.8c-0.41,0.16-0.56,0.06-0.7-0.14
		C706.77,35.66,707.35,35.78,707.46,35.8z M679.25,25.82c0.36,1.21-0.94,2.34-1.43,1.83c-3.02-3.1-5.75-2.75-9.77-2.75
		C672.03,23.48,675.69,24.5,679.25,25.82z M667.75,26.03c-0.86,0.34-3.67,1.58-3.77,1.63C664.99,26.24,666.34,25.03,667.75,26.03z
		 M659.81,93.33c-0.19,2.09,0.38,4.86-2.14,5.91c1.6-7.11,2.24-4.43,2.24-7.64C660.41,92.3,659.9,92.84,659.81,93.33z M660.72,89.05
		c-0.22-0.22,0-0.2,0-0.41C660.95,88.87,660.72,88.82,660.72,89.05z M662.96,90.27c-0.61-0.2-0.31-0.71-0.31-1.02
		c0-0.31,0-0.71,0.51-0.81C663.98,89.15,663.17,89.66,662.96,90.27z M663.68,85.9c-0.43,0.43-0.2-0.26-0.2-1.22
		C663.74,84.67,663.68,84.48,663.68,85.9z M668.46,41.4c-1.41,3.95-1.92,9.92-3.16,18.12c-0.69,4.61,1.54,12.85-1.02,21.79
		c-1.15-4.02,1.28-22.7-2.44,3.05c-1.68,5.04,1.09-13.8-0.81-28.1c-1.14,1.24,0.17,3.26-1.32,4.3c0.25,5.2,0.28,23.2-0.59,18.02
		c-2.39-14.17-2.56-13.97-1.95-15.29c0.31-0.81-0.1-1.63-0.2-2.44c-0.81-4.38-1.43-8.86-1.83-13.34
		c-0.85-9.44,4.03-16.23,7.43-17.61c2.54-1.03,8.43-4.05,9.16-1.43c1.22-0.1,2.34-0.51,3.77,0c0.71,0.31,1.53,0,2.75-0.1
		C674.5,34.18,671.91,31.72,668.46,41.4z M669.79,58.1c-0.51-14.98,2.75-19.3,2.53-18.4c-1.58,9.83-0.91,11.38-0.91,11.83
		c-0.78,2.97,0.31,5.51,0.82,8.3c0.61,3.26,0.51,6.52,0.81,10.18C670.7,66.14,669.92,62.18,669.79,58.1z M671.41,73.47
		c-0.3-0.5-0.32-1.14-0.1-1.63C671.62,72.35,671.72,72.97,671.41,73.47z M671.52,82.94c0,0.1-0.1,0.2-0.2,0.61
		c0.1-0.61,0.1-0.81,0.1-1.02C671.41,82.64,671.52,82.84,671.52,82.94z M673.25,91.6c1.27-5.09-0.44-8.77,3.87-11
		c0.95,0.71,1.13,0.68,1.12,2.24c-0.01,1.55-0.88,5.22-1.39,7.1c-1.78,6.54-2.63,9.29-7.77,12.54
		C666.84,103.9,671.45,98.8,673.25,91.6z M666.12,102.39c0,0.1,0.06,0.27-0.3,0.31C665.85,102.47,665.95,102.39,666.12,102.39z
		 M664.3,109.68c0.06-0.02,0.17-0.02,0.26-0.03c0,0.01,0,0.02,0,0.02C664.34,110.32,664.18,109.72,664.3,109.68z M826.68,110.33
		c0.5,0,0.93,0.29,0.93,1.12C822.89,111.45,821.62,111.78,826.68,110.33z M663.27,203.91c0.41-0.62,0.71-1.03,1.22-1.74
		c4.68-0.61,9.47,0.71,14.15,0.61c1.22,1.32,2.04,2.95,3.77,3.36c0.25-0.95-0.93-1.73-1.17-2.77c-0.24-1.44,1.75-0.71,3.21-0.58
		c0.1,0,7.22,0.19,7.22,0.51c-0.05,0.55-0.11,0.74-4.57,3.87c-1.17,0.49-2.8-0.89-2.63,0.25c0.06,0.37,0.56,0.68,0.49,1.27
		c-2.04,1.43-3.77,3.56-6.52,4.07c-1.23,1.84,0.86,0.35-11.81,9.67c-1.02-0.2-1.02-0.92-1.12-1.43
		C664.95,217.07,664.28,205.93,663.27,203.91z M734.84,222.63c-6.42,12.84,5.24,28.98,6.11,45.51
		c-10.56,8.82-19.12,11.28-30.54,12.83c-4.56,0.62-2.49-0.2-5.09-0.2c-4.44,0.29-10.72-0.95-17.92-2.44
		c-2.78-0.58-0.23,0.91-5.91-0.31c-8.87-1.9-22.94-5.04-26.57-12.42c2.91-12.24,7.74-12.59,9.88-26.98
		c1.74-11.71-0.47-10.03,2.95-12.52c33.69-24.58,31.32-24.17,35.84-24.13c17.02,0.14,28.81,7.67,33.09,7.43
		C736.66,209.5,735.21,221.9,734.84,222.63z M747.68,192.19c-0.1,0.07-5.62,2.72-8.45,2.44c-1.12-0.11-1.22,0.1-2.44,1.12
		c0,0.93,2.13-0.11,2.95,1.22c-0.51,1.11-0.76,2.61-1.84,3.46c-0.51,2.44-1.11,4.99-1.62,7.43c-6.76-3.38-21.04-8.05-32.17-8.35
		c1.22-1.62,2.78-2.47,4.17-3.46c6.38,0,12.2-0.42,17.82-3.67c0.89-0.45,1.32-0.9,0.81-1.83c-4.79,1.73-9.67,3.26-15.07,3.26
		c1.02-2.16,38.64-29.13,39.92-29.85C754.14,165.95,759.09,182.41,747.68,192.19z M751.85,159.2c-4.12-5.61-4.9-4.43,5.19-4.07
		C755.41,156.76,753.68,157.78,751.85,159.2z M765.38,149.33c-6.71,4.88-16.93,3.07-18.11,3.46c-4.68-3.36-8.35-7.64-11.61-12.32
		c0.47-1.13,1.23-1.12,2.24-1.12c0.48-0.97,1.09-0.85,1.73,0c-0.95,1.08-1.79-1.02-1.77,0.56c0.02,1.38,1.2,1.83,2.38,2.19
		c1.32,2.44,2.24,4.99,4.28,6.92c1.07-1.07-3.97-10.61-3.45-10.96c2.93-1.68,6.32-2.31,8.54-4.83c4.48-0.31,8.77-1.39,12.93-2.65
		c5.98-1.81,4.45,0.32,13.64-2.14c3.73-1,8.4-3.49,14.56-4.17c2.65-0.29,4.81-1.23,13.44-4.68c-1.68,2.49-9.14,7.65-12.42,9.67
		c-0.11-1.68,2.72-4.52,0.81-3.86c-1.76,0.61-2.74,2.02-3.37,3.76C790.4,131.56,794.16,128.38,765.38,149.33z M826.89,122.34
		c-8.61,6.6-27.94,9-29.19,11.42c-0.18,0.34-0.41,1.42-0.57,1.42c-8.62,3.89-17.14,10.37-20.93,10.37
		c5.79-3.5-13.17,9.82,41.74-31.05c1.73,0.81,3.36-0.41,5.09-0.31c1.73,0,3.46-0.31,5.19-1.02c1.73-0.1,2.95,1.32,4.28,1.63
		c2.14,0,3.56-1.44,5.19-1.83c1.73-0.42,3.46-0.51,5.29-0.81C841.46,115.88,836.89,114.68,826.89,122.34z M861.61,105.95
		c10.96-1.8,11.34-3.21,12.83-2.65c0.22,0.67,1.15,1.22-1.33,1.93C848.97,110.7,840.36,109.45,861.61,105.95z M852.75,82.43
		c-0.61,0.7-1.46,0.51-2.24,0.51c-0.42-0.83-1.11,0.58,8.15-10.39C858.65,82.21,857.67,76.77,852.75,82.43z M874.23,54.74
		c-0.99,1.39-2.69,1.55-3.87,2.04c-0.31-0.16-1.34-0.7-1.48-0.74C870.68,54.64,871.3,54.54,874.23,54.74z M865.83,56.06
		c0.95,0,1.89,0,2.84,0C866.77,58.92,866.98,58.09,865.83,56.06z M870.87,65.23c-0.83,0.2-1.64,0.19-2.44-0.1
		c-0.35-0.35-0.13-0.1-0.71-3.87c7.79-3.6-0.33-2.34,6.83-4.05c0.45-0.15,1.29,4.62,1.42,5.78
		C872.42,63.72,872.44,63.65,870.87,65.23z M896.83,70.62c-1.27,0.42-2.22-0.95-1.43-2.55c0.2-0.61-0.51-1.12,0.1-1.63
		C898.05,67.87,898.16,68.18,896.83,70.62z M897.65,79.58c-1.02-1.32-1.02-1.32,0-1.93C898.04,78.24,897.87,78.91,897.65,79.58z"/> <path d="M407.92,505.78l-0.1,0.1C407.95,505.88,407.96,505.94,407.92,505.78z"/> <path d="M443.86,572.57c1.99-4.6-1.96-5.63-5.5-20.06c-0.36-0.36,0.38-0.92,0.81-2.95c2.8-13.11-8.96-9.31-8.96-18.63
		c0-3.17-2.67-7.32-4.89-9.06c-1.31-1.03-2.85-1.12-4.07-1.22c-7.77-10.36-5.68-5.04-15.68-25.05c-2.92-5.85-0.71-3.72-10.59-23.32
		c-4.57-9.06-5.51-16.7-14.25-27.29c-0.1-0.12-12.96-17.65-22.6-23.01c-2.65-3.67-6.01-6.62-8.96-9.77
		c-0.71-2.75-3.69-8.53-5.7-10.49c-2.54-2.48-1.53-3.03-5.7-9.67c-5.39-8.58-9.57-16.12-11.71-26.06
		c-2.6-12.07-5.6-17.13-20.46-47.55c-4.49-9.18-2.9-12.48-4.89-27.8c-1.05-8.13-1.77-6.8-4.99-13.95
		c-11.55-25.69-33.36-26.4-43.68-37.77c-7.24-7.98-5.52-18.24-3.97-29.93c1.46-7.31,1.55-18.18,1.93-20.57
		c0.71-4.43-0.96-6.51-0.1-14.56c1.42-13.33-2.45-32.04-9.57-44.39c-3.79-6.58-11.3-13.42-13.54-14.25c-2.29-0.86-3.52-2.5-4.05-4.8
		c0.83-0.1,1.34,0.63,1.91,1.03c4.55,3.18,9.82,5.56,10.08,5.29c-0.41-2.87-21.15-10.51-15.17-20.36c0.13,0.86,0.6,4.6,1.43,5.29
		c1.15,0.97,2.36,4.07,3.69,4.44c0.17-1.28-4.9-7.41-4.4-15.23c0-4.55-2.39,5.46,1.93-22.09c1.51,9.8-5.27,25.06,7.94,40.73
		c0.91,1.08,7.39,7.82,8.76,7.45c0.07-1.57-4.14-4.93-6.01-11.02c-0.19-0.62-0.61-1.22,0-1.83c1.22,1.53,1.12,3.87,3.05,4.89
		c0.61-0.51,0.41-1.02,0.31-1.43c-8.02-24.07-2.15-21.14-2.34-40.11c-0.05-5.38,2.28-8.22,2.14-17.21c-0.11-7.01-3-7.21-9.47-17
		c-4.64-7.02-10.35-3.88-19.65-1.63c-3.68-3.32-7.96-4.69-9.16-5.7c-3.49-3.26-12.37-2.61-17.1-1.83
		c-11.75,1.93-16.92,6.26-19.55,7.23c-9.86,3.65-11.31,12.7-13.85,24.13c-1.89,8.51,2.48,9.99,3.16,12.01
		c-0.51,0.31-1.02,0.51-1.53,0.81c0.51,0.92,1.73,0.71,2.24,1.73c-0.58,10.15-8.03,10.8,1.53,15.58c0,6.24-0.47,5.19,1.83,6.72
		c-0.1,1.22-0.6,2.14-0.41,3.26c0.21,1.22,1.53,1.63,1.53,2.75c0,0.94-1.39,7.02,3.56,7.84c8.44,1.39,7.52,0.06,15.07-2.04
		c4.19,4.57,3.34,7.14,6.11,18.02c0.31,1.22,1.02,2.24,0.92,3.46c2.1,1.6,1.28,6.59,2.43,6.4c1.27-0.21-0.39-6.91-1.21-8.74
		c-1.2-2.66-1.72-5.6-2.14-8.55c-0.5-3.56-1.53-6.92-2.24-10.28c-1.63-1.63-3.46-2.04-5.6-1.53c-0.92,0.31-1.94,0.1-2.75,0.51
		c-3.37,1.71-6.82,1.22-10.28,1.02c-2.14-2.14-2.14-2.14-1.43-6.72c-0.26-1.68-4.23-2.01-1.1-4.58c1.1-0.91,3.35-0.15,4.94-1.14
		c1.51-0.94,0.49-1.77-0.17-1.61c-4.29,0.78-4.72,1.57-7.33-0.71c1.4-3.51,0.39-4.16,0.76-4.53c0.69-0.68,1.5-0.23,1.88-0.97
		c-3.35-4.19-2.73,1.01-6.62-1.43c0-0.78-0.69-0.63,0.41-2.85c1.54-3.13,3.57-9.4,2.55-12.63c-1.27-4.01-2.83-1.18-4.38-4.58
		c1.05-3.61,0.82-4.3,2.65-16.19c0.63-0.55,1.51-1.2,2.14-1.73c1.92,0.91,4.08-0.6,5.6,0.92c0.83-0.7,3.14-2.71,3.45-2.94
		c4.48,3.24,4.29,1.11,4.59,0.71c2.95-1.02,5.8-1.12,8.76,0.41c-1.61,0.89-1.56,0.92-4.68,0.81c0.95,6.66,1.5,4.19,3.05,9.37
		c0.82,0.41,0.73,0.64,1.83,0.92c0.41,1.32,1.63,2.24,1.32,3.87c2.34,1.02,4.28,2.75,6.92,3.36c0.83,0.28,2.59,1.82,3.97,2.34
		c1.8,0.69,4.24,0.04,2.89,0.89c-1.58,0.98-4.3-0.19-3.7,0.83c1.56,2.65,5.95,1.69,8.14-2.74c3.56-7.24,9.88,0.33,9.16,4.28
		c-4.02-7.24-4.86-6.41-8.45-2.24c-3.01,3.49,0.78,5.25-0.15,6.62c-0.6,0.88-1.77,1.19-1.88,2.65c0.53,1.46,1.57,2.24,2.95,2.24
		c0.54-1.73,0.31-3.58,1.01-4.93c0.74-1.42-1.3-2.06-1.62-2.91c-0.09-0.68,0.14-1.26,0.31-1.43c0.86-0.86,0.59-0.5,3.26,1.83
		c1.12,2.55-0.92,4.48-1.43,6.62c1.02,1.12,1.63,1.22,2.34,0.61c1.77-1.53,2.34-3.88,1.73-5.7c0.61-0.71,1.53-0.71,2.24-1.02
		c0.71,0.41,0.61,1.02,0.31,1.53c-5.3,10.94-5.1,10.98-6.92,12.22c-1.53,0.51-1.83-0.92-2.75-0.92c-0.9,0.49-0.51,1.27-0.91,1.91
		c2.39,1.57,1.59,1.25,5.39,1.25c1.32-0.92,1.32-2.75,2.34-3.97c1.22-0.51,2.55-1.02,3.77-1.63c4.21-2.11,4.79-4.94,2.76,1.83
		c-0.17,0.58-0.11,0.96-0.75,1.01c-0.61-2.39-1.48-0.2-2.72,0.11c-2.85,0.71-2.78,0.69-2.84,1.23c-0.21,1.79,2.31,2.04,3.55,2.54
		c1.19,1.34,0.89,8.12,2.44,12.63c-0.61,3.26,1.5,5.41,3.26,7.74c3.12,4.14,4.49,2.12,4.86,4.09c-0.02-0.01-0.04-0.02-0.08-0.03
		l0.1,0.1c0-0.03-0.01-0.04-0.02-0.05c3.31,1.01,16.22,14.47,18.55,17.58c6.69,8.93,4.9,14.47,7.43,17c0.33,0.33,2.65,10.57,3.36,17
		c1.62,14.71-18.85,20.64-24.94,12.52c1.63-3.26,1.98-3.55,1.53-4.28c-0.41-0.1-0.61,0.1-0.81,0.41
		c-4.24,7.8-12.83,18.6-20.67,24.44c-2.47,1.41-0.7,3.17-3.54,3.26c0.33-1.54,3.22-4.91-24.76,15.58
		c-12.35,9.04-9.39,13.83-16.8,16.9c-2.03-1.63-1.66-1.81-6.72,0.41c-0.31,0.1-0.92,0.31-0.51,1.02c1.73-0.51,3.36-1.02,5.4-1.02
		c-13.76,15.87,2.01,2.6-29.32,29.73c-2.06,1.79-6.65,5.69-9.27,7.23c-2.11,1.24-1.34,2.09-8.55,7.43
		c-1.62,1.2-16.25,13.03-15.27,14.25c1.03,0.51,1.93-0.47,5.6-3.36c55.97-44.17,50.25-43.51,56.91-52.94
		c1.36-1.93,3.08-1.77,4.68-2.04c6.1-5.08,1.69-7,18.53-18.22c1.11-0.56,1.27,1.01,2.04,3.97c2.61,10.1,2.52,5.96,3.56,11.51
		c2.45,12.99,5.49,35.53,14.05,47.34c1.14,1.57,0.37,1.72-0.71,3.67c-3.22,5.79-8.41,7.75-17,18.53
		c-15.81,19.85-29.48,42.81-38.08,66.99c-4.51,12.69-7.95,11.36-7.14,15.04c0,0-0.02,0.01-0.09,0.01l0.1,0.1
		c-0.01-0.06-0.01-0.08-0.01-0.09c0,0,0,0,0,0c0.88-0.03,1.53-0.53,1.64-1.42c0.18-1.53,1.11-2.55,1.93-3.67
		c6.45-8.66,6.45-11.83,9.88-20.67c2.52-6.5,1.35-4.63,12.93-24.74c5.9-10.24,7.89-12.66,19.75-27.69c6.19-7.84,5.71-6.95,7.53-6.21
		c16.81,6.81,18.27,6.42,20.46,7.74c4.68,3.26,9.83,5.67,14.66,8.65c0.5,0.31,1.12,0.71,1.93,0.51c-0.2-1.22-1.32-1.53-0.92-3.16
		c-21.92-14.25-32.72-14.64-34.52-17.21c7.06-6.68,10.06-12.85,12.22-12.42c5.74,8.2,5.82,8.06,6.64,8.23c0,0.02,0,0.05-0.02,0.1
		l0.1-0.1c-0.06,0-0.07-0.02-0.08-0.02c0.22-0.87,0.15-1.23-3.59-7.09c-11.18-17.52-4.05-5.95-8.45-15.37
		c-6.63-14.19-4.99-14.45-11.71-44.19c-0.96-4.24-1.92-0.95-2.14-6.52c8.3,0.64,23.55-2.6,29.02-5.4c2.29-1.17,0.69,0.17,7.84-2.34
		c0.91-0.32,1.83-1.02,3.05-0.92c0.41,1.43-0.31,2.75-0.2,4.38c1.73-1.63,1.53-3.77,2.24-5.5c18.73-7.91,21.95-4.88,21.28-7.23
		c-11.25-2.93-29.38,10.32-44.7,13.34c-6.31,1.24-12.52,2.55-18.94,2.65c-0.71-1.02-0.92-2.14-1.22-3.36
		c3.97-3.05,7.62-6.34,12.32-8.35c3.75-1.6,11.89-5.71,12.83-9.67c6.82-4.48,8.55-6.52,14.86-17.1c3.05,2.54,5.11,3.94,9.27,3.77
		c6.39-0.26,14.12-5.29,16.6-9.16c0-0.1,0.2,0,0.51-0.1c0,40.29,0,14.25-3.26,54.27c-0.08,0.94-0.73,12.41,0.2,13.34
		c1.39-3.39,0.75-6.66,2.14-7.13c2.71,6.76,4,10.37,14.05,16.09c4.75,2.7,7.34,4.52,9.47,5.29c4.88,1.78,2.92,1.95,6.21,3.87
		c8.53,4.98,13.52,13.83,17.31,19.85c3.82,6.08,3.77,9.74,7.53,34.82c0,1.94-10.26,3.34-27.39,13.44c-2.75,1.62-5.7,2.95-8.25,5.09
		c0.61,0.51,1.02,0.2,1.43,0c0.89-0.45,33.85-16.2,34.72-15.58c0.71,0.81,0.31,2.14,1.22,2.85c1.22,1.12,1.66,2.53,2.24,3.97
		c7.67,18.89,10.52,20.66,17.31,38.18c2.37,6.12,2.42,14.02,17.82,41.13c2.26,3.98,4.86,3.47,6.72,8.45
		c1.2,3.21,6.4,10.36,12.32,14.97c7.62,5.92,14.35,14.64,20.46,22.2c8.25,10.19,4.46,9.74,12.93,25.15
		c9.04,16.45,6.57,16.47,15.58,32.68c2.89,5.2,0.43,1.54-0.59,1.53c0.12,1.1,3.89,7.09,7.11,9.46c1.75,1.29,3.56,3.05,4.17,5.6
		c-2.14,1.02-4.38,1.43-6.52,1.93c-4.53-1.22-6.64,3.35-8.04,2.55c-0.92-1.63-1.11-3.67-2.24-5.19c-1.52-2.04-3.36-3.97-3.97-6.62
		c-0.1-0.71,0.13-0.06-5.29-7.43c-12.27-16.67-19.54-16.84-35.74-34.41c-2.45-2.65-10.35-13.06-11.81-16.9
		c-1.12-2.94-5.24-12.31-7.13-14.15c-0.78-0.76-1.05-5.02-7.23-9.88c-9.16-7.19-9.97-7.08-10.69-8.25
		c-0.8-1.29-15.95-15.02-16.7-17.72c-0.73-2.64-3.16-3.77-4.38-5.91c-8.95-8.22-13-15.01-31.26-40.22
		c-3.05-4.22-1.76-2.36-7.74-15.48c-3.08-6.76-1.75-5.92-2.78-8.12c1.5,0.16,2.09-0.12,5.32-2.97c-2,0.5-3.88,1.2-5.4,2.84
		c-1.37-2.55-3.58-7.93-6.92-12.11c-0.41-0.41-0.41-1.02-0.61-1.43c-1.12-0.61-2.04-1.32-3.36-1.43
		c13.72,19.89,7.35,35.6,47.14,76.56c3.21,3.31,4.13,7.07,11,14.36c0.33,0.36,11.24,11.88,12.12,12.42
		c13.98,8.61,18.65,16.53,25.15,30.34c1.63,3.46,3.85,6.73,5.4,10.28c4.23,9.68,15,14.89,18.02,18.22c5.6,6.19,3.93,3.35,7.23,6.62
		c24.48,24.25,13.34,12.99,20.26,22.6c5.53,7.69,10.89,18.5,10.89,20.67c0.48,8.73-0.7,4.5-2.34,5.91
		c-1.22,1.83,5.21,20.37,2.85,25.66c-1.14,2.54-1.54,5.19-2.14,7.84c-0.73,3.25,0.24,5.85,2.14,8.25c3.24,4.09-0.43,0.51,9.77,3.77
		c5.68,1.81,18.34-0.03,22.2-0.71c7.9-1.4,7.13-1.18,7.52-3.4C447.13,579.07,442.68,575.28,443.86,572.57z M198.79,65.63
		c0.1-0.51,0.51-0.71,1.12-0.71c1.13,0.72,2.49,3.04,2.55,3.16C200.52,67.67,200.52,67.67,198.79,65.63z M208.36,83.86
		c-0.5-0.4,0.03-0.37,0.2-0.42C208.59,83.76,208.43,83.93,208.36,83.86z M224.55,93.94c-0.41-0.61-0.31-1.02,0-1.83
		C224.55,92.92,224.55,93.33,224.55,93.94z M225.16,98.42c-0.2-0.92-1.02-1.32-0.1-2.44C225.36,96.89,225.47,97.5,225.16,98.42z
		 M230.33,106.86c-2.44-0.83-1.96-3.88-2.12-5.79c-0.1-0.49-0.61-0.94-0.1-1.73c0,2.45,0.25,0.93,1.73,5.39
		C229.88,104.82,230.44,106.96,230.33,106.86z M226.69,38.14c1.76,1.06,6.91,7.55,6.21,16.39c-0.91,11.53-2.42,15.31-2.24,15.78
		c0.8,2.06,0.65,2.81-2.14,17.92c-0.51-7.23-0.51-13.54-0.1-19.85c-0.6-0.3-0.82-0.92-1.12-1.53c0-11.15-2.74,7.63-0.61,22.6
		c0.21,1.45,0.12,2.52-0.2,3.87c-1.37-4.84-1.54-10.13-2.34-13.64c-0.46,6.95,0.23,6.96-0.41,9.77
		c-2.58-10.31,0.44-14.76-1.43-25.96c-1.06-6.36-1.09-10.01-2.65-14.25c-3.38-9.2-6.06-7.8-9.57-12.63
		c0.92-0.81,2.02,0.18,2.95-0.41c0.96-0.61,2.04,0.05,3.12,0c0.69-1.03,0.43-0.92,0.82-0.97C219.95,34.63,224,36.8,226.69,38.14z
		 M216.61,81.31c-0.31-0.61-0.31-1.12,0.1-1.63C216.91,80.19,217.02,80.8,216.61,81.31z M216.51,91.09c0-0.2,0-0.51,0.1-0.71
		C216.61,91.2,216.64,91.09,216.51,91.09z M215.08,77.85c-0.14-9.25,1.73-12.66,1.73-17.6c0-5.51-0.81-9.28-0.81-12.64
		C218,52.96,220.25,67.86,215.08,77.85z M224.04,35.5c-1.22-0.51-2.44-1.12-4.07-1.93C222.31,33.05,223.12,34.28,224.04,35.5z
		 M219.97,32.44c-3.67,0.2-7.43-0.1-9.98,3.05c-0.95-0.19-1.18-0.69-1.43-1.53C211.94,31.96,216.16,31.6,219.97,32.44z
		 M193.42,27.84c0,0.01,0,0.02,0.01,0.02c-0.01-0.01-0.02,0-0.04,0l0.1,0.1c-0.03-0.05-0.04-0.07-0.05-0.09
		c0.13,0.09,1.07-0.38,2.99,1.31c0.1,0.81-0.61,0.71-0.92,0.81c-12.25,4.14-12.22,5.47-14.36,4.89c0,0.19-0.48-0.58-1.53-0.1
		c-0.79,0.36-1.63,0.46-2.44,0.19c-0.67-2,2.11-2.31,4.99-2.84c11.88-2.17,8.61-2.14,7.74-2.33c0,0,0.17-0.81,0.2-0.92
		c-0.51-0.2-1.12-0.31-1.83-0.61C191.45,27.6,192.81,26.73,193.42,27.84z M181.17,34.99c-0.02,0.21-0.12,0.3-0.3,0.2
		C180.99,34.95,180.92,34.99,181.17,34.99z M177.82,31.02c0.26-0.26,0.59-0.23,0.81,0c-0.2,0-0.31,0.1-0.51,0.1
		C178.02,31.12,177.92,31.02,177.82,31.02z M180.97,30.1c0.61,0.1,0.92,0.1,1.12,0.1C181.75,30.2,181.7,30.49,180.97,30.1z
		 M183.52,26.94c1.12-0.92,2.44-0.51,3.67-0.1c-0.1,0.01-1.68,0.1-3.51,0.1c-0.32,0-0.25,0.51-0.56,0.51
		c-1.77,0.27-4.33,1.28-5.91,1.02c-0.58,0.58-1.1,0.76-1.73,0.2C179.39,28.07,177.7,26.94,183.52,26.94z M173.03,28.06
		c-0.1,0.1-0.1,0.2-0.1,0.2c-0.1,0-0.2-0.1-0.31-0.1C172.62,27.79,172.9,28.06,173.03,28.06z M172.93,29.99
		c0.2-0.51,0.41-0.81,1.02-0.3C173.62,29.78,173.18,29.8,172.93,29.99c-0.54,0.45-1.19,0.49-2.03,0.68
		C171.35,29.67,172.39,30.13,172.93,29.99z M170.77,30.72c-0.2,0.2-0.41,0.49-0.9,0.18C169.98,30.91,170.67,30.76,170.77,30.72z
		 M168.65,29.9c-0.39,0.58-0.88,0.61-1.35,0.61C167.3,30.19,168.39,30.01,168.65,29.9z M167.13,30.65
		c-1.13,1.63-4.61,3.45-4.56,3.35C162.92,32.18,164.64,31.27,167.13,30.65z M165.09,36.43c-0.11,0.34-0.3,0.46-0.61,0.56
		c-0.13,0-0.04-0.57,0.62-0.57C165.33,35.33,166.3,35.64,165.09,36.43z M164.23,37.17c-0.14,0.14-0.3,0.3-0.44,0.44
		C163.86,37.39,163.99,37.23,164.23,37.17z M159.59,43.13c-1.24,0.64-2.18-0.05,1.12-3.06C160.52,40.56,160.07,41.95,159.59,43.13z
		 M160.94,39.75c0.07-0.32,0.28-0.44,0.57-0.54C161.46,39.53,161.28,39.72,160.94,39.75z M161.68,39.06c0.31-0.86,1-1.23,1.86-1.21
		C163.01,38.34,162.52,39.06,161.68,39.06z M164.78,42.11c-0.48,0.47-1.14,0.58-1.79,0.49c4.67-4.12,11.59-7.83,12.39-8.02
		c0.84-0.2,0.55,0.41,1.47,0.41c-0.22,0.46-0.43,0.51-0.66-0.1C170.18,38.39,167.78,39.18,164.78,42.11z M173.29,37.99
		c-0.08,0.1-0.2,0.15-0.46,0.05C173.25,37.91,173.54,37.68,173.29,37.99z M174.46,42.42c-0.38-0.13-0.4-0.07,0-0.2V42.42z
		 M173.95,40.89c0.14-0.03,0.51-0.08,0.87-0.17C174.65,41.21,174.33,41.2,173.95,40.89z M173.75,37.6c-0.41,0,1.15-0.52,1.62-0.99
		c0.31,0,0.32-0.03,0.41,0.13c0.1,0.29-0.61,0.07-0.81,0.27C174.82,37.56,174.36,37.6,173.75,37.6z M173.85,50.46
		c0.23-1.81,2.22-0.84,3.93-0.27c0.91,0.3,1.87,0.48,2.79,0.78C178.3,51.93,175.99,51.85,173.85,50.46z M190.54,62.17
		c0.31-0.1,0.71-0.1,0.92,0.1C191.15,62.38,190.85,62.48,190.54,62.17z M181.48,56.67c-0.84-0.21-1.1-1.02-0.96-1.02
		c3.04-0.05,6.07,0.31,9.2-0.31c0.61-0.71,1.12-1.74,2.34-2.14c5.3-1.71,5.04-2.47,5.6-2.75c-6.54,1.96-7.97,1.74-12.83,1.32
		c3.57-2.8,3.46-0.66,10.69-5.29c1.93-1.23,4.07-2.14,5.8-3.77c0.47,0,0.88,0,1.43,0c-0.26-0.52-0.67-0.8-1.43-0.8
		c0-1.51-0.06,0.54,2.07-2.06c0.37-0.09,0.72-0.29,0.77-0.71c1.03-0.04,1.55-0.51,2.09-1.41c0.14-0.28-1.53,0.39-2.1,1.33
		c-0.36,0.1-0.63,0.3-0.74,0.71c-0.93,0-1.75,0.7-2.13,1.46c0-2.96-6.92,8.25-19.48,6.66c-8.49-1.08-5.23,0.16-8.53,0.1
		c-0.1,0-1.23-1.11-0.73-2.34c3.46,0.92,6.92,0.81,10.28,0c1.06-3.71-7.37-1.23,9.77-7.43c2.39-0.86,4.1-1.46,6.31-2.44
		c0.92-0.51,1.93,0.31,2.44,0c1.23-0.88,0.81-1.94-0.31-2.34c-3.99-1.44-15.3,6.21-19.75,6.21l-0.01,0.02
		c-0.05-0.75,0.17-0.53-2.06,0.09c-0.1,0.03-4.13,1.33-4.13,0.79c1.74-1.61,1.25-1.29,0.19-1.73c1.57-1.12,2.94-2.34,5.09-2.34
		c1.37,0,10.28-3.65,18.94-5.09c1.3,0.6,7.36,3.95,7.46,4.93c0.09,0.84-0.46,1.08-0.54,1.59c0.6,0.11,1.27,0.06,1.43,1.02
		c-3.66,4.5-4.51,3.39-4.99,3.87c-0.3,1.37-1.37,1.48-8.25,5.5c4.41,0.37,10.91-5.01,14.25-7.84c0.9,0.1,1.11,0.68,1.12,1.56
		c0.01,1.4-7.12,6.41-7.23,6.49c-0.32,0.32-3.24,0.29-4.72,2.06c-0.37,0.43,0.62,0.03,0.71,0.51c0.27,1.44-0.9,0.09-3.52,3.04
		c1.38-0.19,2.58-0.78,3.49-2.04c2.49-0.04,11.54-8.49,12.09-8.55c0.81,0.51,0.92,1.53,1.22,2.34c1.48,3.3,0.73,3.23-3.16,6.52
		c-0.71-0.1-0.51-0.51-0.61-0.81c-0.99-0.99-7.14,4.57-15.91,6.41C188.63,56.91,188.74,57.71,181.48,56.67z M182.4,50.06
		c0.31-0.2,0.61-0.2,0.81,0.1C182.91,50.36,182.7,50.36,182.4,50.06z M201.03,42.22c0.26-0.13,0.2-0.27,0.2,0.34
		C201.16,42.45,201.1,42.35,201.03,42.22z M176.7,43.13c0.36-0.42,0.83-0.68,1.93-0.41C178.12,43.85,177.51,43.74,176.7,43.13z
		 M178.7,42.63c0.05-0.07,0.09-0.14,0.23-0.21C178.76,42.59,178.93,42.63,178.7,42.63z M181.28,43.4c-0.12,0.12-0.19,0.35-0.55,0.21
		C180.45,43.51,180.45,43.59,181.28,43.4z M206.63,72.56c2.38-5.71-0.28-3.26-0.92-7.84c-0.44-3.2-2.8-5.22-5.91-6.11
		c-1.73-0.2-2.85,0.81-4.17,1.22c-1.4-0.7-3.39-0.09,7.03-4.03c5.57-2.11,8.01-2.13,10.39-4.61c0.19,3.15,0.18,3.17-7.41,8.77
		c-0.04,0.03-0.07,0.05-0.12,0.08c0.51,0.61,1.02,0.2,1.53,0c5.62-2.2,6.8-6.49,7.43-3.97c-1,2.36-3.34,4.77-4.39,5.4
		c1.93,0.2,2.85-1.32,4.48-2.04c-0.49,5.67-1.41,5.72-5.8,11.81c0.41,0.31,0.79,0.15,1.23-0.02c1.61-0.61-1.04,3.21-4.9,5.41
		C205.1,74.9,206.02,73.78,206.63,72.56z M212.54,85.59c-0.2-0.41-0.51-1.02-0.92-1.73c2.18-9.45,1.35-3.71,2.04,0.71
		c0.31,2.01,0.31,0.1,0.31,3.97c-1.02-0.1-1.43-0.51-1.73-1.22C211.92,86.81,212.64,86.4,212.54,85.59z M203.98,79.58
		c-1.16-2.55,3-2.09,5.11-4.19c0.05,0.31,0.08,0.31,0.08,0.63C209.18,77.21,205.78,79.07,203.98,79.58z M209.79,74.59
		c0.33-0.58,1.58-1.92,1.65-1.58C211.63,74.6,211.5,74.59,209.79,74.59z M214.78,106.67c-2-2.08-4.39-11.96-4.79-15.07
		c-0.73-5.74,4.11-2.26,4.07,1.93c-0.05,5.77,2.41,11.97,5.5,16.6C217.52,109.41,216.13,108.07,214.78,106.67z M222.62,110.32
		c-0.21-0.02-0.3-0.12-0.2-0.3C222.65,110.03,222.62,110.12,222.62,110.32z M410.87,580.71c-5.1-0.73-3.44-0.09-6.21-4.58
		c-1.19-1.71-0.63-3.38,0-6.82c0-1.79,3.47-2.46,2.44-11.4c-0.84-7.37-3.39-10.98-3.16-15.37c2.24-3.77,2.24-7.94,1.63-12.22
		c0.48-1.34,1.41-1.95,2.44-3.16c5.09-0.61,9.88-2.34,14.86-3.67c2.95,1.43,3.36,4.68,4.99,7.03c0,4.68,0.42,6.23,5.7,9.16
		c5.51,3.47,2.42,8.64,3.16,12.63c2.95,16.02,1.17,5.71,5.19,16.7c0.52,1.42-0.1,2.75-0.51,4.17c0.8,2.12,0.92,4.35,2.21,6.27
		C425.34,582.26,422.79,582.43,410.87,580.71z"/> <path d="M224.65,106.26l0.1-0.1C224.63,106.12,224.69,106.06,224.65,106.26z"/> <path d="M238.91,117.05l0.1-0.1C238.89,116.98,238.91,116.93,238.91,117.05z"/> <path d="M147.78,175.39l-0.1-0.1C147.71,175.47,147.7,175.52,147.78,175.39z"/> <path d="M180.36,125.4c0,0.07-0.04,0.05,0.1,0.1L180.36,125.4z"/> <path d="M69.59,316.51c-1.53-0.71-2.94-1.56-4.48-2.04c-1.37-0.42-3.16,0.37-5.6-1.53c-0.68-0.59-1.51-0.92-2.55-0.92
		c0.09,0.44,0.17,0.95-0.04,1.38c-0.3-0.3-0.58-0.58-0.88-0.77c0.16-0.59,0.47-0.62,0.8-0.61c1.65,0.02-3.87-1.71-4.06-4.28
		c-3.29,0.82-3.11,7.27,1.93,6.01c1.32,1.32,2.75,2.49,4.79,2.55c1.55,0.04,1.61,2.87,8.04,2.14
		C67.47,317.16,69.19,317.6,69.59,316.51z M52.69,311.11c0.81,0,0.81,0,1.53,0.92C53.27,311.77,53.43,311.95,52.69,311.11z
		 M64.61,315.7c0.24,0,0.44,0.26,0.91,0.91C64,316.81,63.48,315.7,64.61,315.7z"/> <path d="M67.55,318.44c0.03,0,0.05,0,0.08,0c-0.09,0-0.11,0-0.08,0.1c0.12-0.12,0.08-0.1,0.19-0.1
		C67.64,318.3,67.66,318.34,67.55,318.44z"/> <path d="M86.08,299.1c-4,13-10.05,15.35-10.89,16.19c-1.43,0.61-2.75,0-3.77,0.61c-0.41,1.02,0.81,0.92,0.61,1.73
		c-1.55,1.75-2.55,0.81-4.29,0.81c1.71,1.97,2.32,2.36,1.54,2.75c-5.08,2.95-10.16,6.6-21.38,14.46c-1.02,0.71-1.32,1.83-2.04,2.75
		c-0.92-0.71-0.81-1.93-2.14-2.44c-1.91-1.34-4.13,3.66-5.19-3.05c0.31-1.12,1.21-2.14,1.43-3.46c0.38-2.33,6.57-32.75,8.15-34.52
		c0.98,3.72,1.61,5.42,5.09,4.99c0.51,0,0.81-0.31,0.71-0.92c-0.61-0.81-1.83-0.1-2.55-1.02c-0.4-1.69-1.66-3.2-1.44-5.16
		c0,0.14,0.63,0.06,0.72-0.03c2.75-2.24,6.11-3.67,7.84-6.72c1.36-0.63,2.64-0.86,3.91-0.9c0.79,1.25,2.83,0.69,6.48,0.9
		c4.17,0.24,8.04-1.22,12.01-2.65c0.61-1.53,1.63-2.55,2.75-3.67c38.55-38.55,39.46-48.99,42.97-52.13
		c12.05-10.79,12.52-12,16.6-13.74c3.15-1.35,8.31-4.01,9.16-7.33c0.61-2.34,2.05-3.89,4.89-8.55c5.69-9.35,14.53-16.72,18.22-20.26
		c11.63-11.13,5.44-7.03,10.28-12.42c1.64-1.82,1.83-4.17,2.34-6.52c-1.57-2.25,6.16-16.97,7.64-19.45
		c6.3-10.57,12.22-9.61,12.22-11.61c-0.81-0.61-1.32,0.1-1.93,0.31c-6.03,1.21-9.91,6.52,5.19-10.28c2.52-2.8,4.62-3.63,5.26-6.36
		c-4.31,1.5-17.14,15.02-20.12,18.68c-0.71,0.87-1.31,0.95-8.55,6.21c-2.51,2.51,1.1,0.64,4.17-1.12c0.39,0.68,0.04,0.97-0.2,1.43
		c-6.46,11.83-11.32,24.6-18.02,34.11c-3.26,4.62-15.39,13.44-7.43,0.51c1.56-2.53,2.33-3.81,4.58-5.5
		c-1.12-0.71-1.53,0.31-2.24,0.51c-0.51-0.2-1.02-0.41-1.73-0.61c-0.64,4.28-4.54,6.16-5.19,11.2c-2.1-0.94-2.96-2.26-3.46-4.38
		c-1.19-5.01,1.07-8.83,2.75-11.91c-0.47-2.36-1.01-0.76,2.34-6.52c1.58-2.73,1.37,0.13,3.97-4.28c2.95-4.98,8.76-15.89,8.76-20.16
		c1.45-0.97,4.4-2.48,4.28-4.1c-2.1-0.69-0.81,1.32-7.53,3.29c-5.64,1.65-9.02,2.16-12.22,4.38c-4.38,3.03-7.79,20.95-8.45,26.27
		c-1.58,12.79,4.73,1.94-2.75,12.93c-0.49,0.72-1.12,1.32-0.92,2.24c1.93,0,1.98-2.42,7.73-7.64c-0.25,4.28-0.79,7.56,2.2,10.57
		c1.14,1.14,2.26,1.88,4.33,2.16c3.6-1.8,7.17-0.54,11.3-5.5c4.32-5.18,12.47-24.45,14.04-25.67c-1.94,13.57-1.65,13.19-3.15,14.98
		c-6.48,7.74-10.56,13.52-18.33,20.06c-11.36,9.56-11.41,16.94-13.85,13.95c-3.45-4.88-5.6-6.3-5.8-9.98c0-2.22-1.1-4.3,0.1-8.04
		c0.4-1.26,0.87-2.63,0.64-3.99c-2.11,2.06-3.22,7.14-4,7.66c-1.22,0.92-1.64,2.24-2.24,3.56c-9.9,21.78-8.18,23.12-24.74,39.5
		c-16.46,16.28-22.43,38.32-35.02,53.15c-1.03,1.21-2.04,2.34-2.34,3.56c-1.53,1.43-3.15,0.72-4.68,1.02
		c-9.52,1.84-0.08,0.2-18.63-5.09c-1.12-0.32-2.24-0.61-3.36,0.1c-2.75,3.97-5.5,7.03-7.84,8.15
		c-7.09,22.85-10.59,42.04-10.59,45.82c0,0.51,0.31,0.92,1.02,1.12c1.43-1.32,1.22-3.36,2.14-4.99c0.81,2.04,0.51,3.87-0.71,5.6
		c-1.25,1.25-0.94-0.13-2.04,0.31c-1.21,4.85,2.9,2.71,3.56,4.48c-1.22,2.34-3.67,4.28-3.77,7.23c-0.92,0.92-1.73,1.63-2.55,2.55
		c-33.19,36.89-33.02,35.3-31.36,36.96c2.03,2.03,1.19-0.19,35.13-35.84c1.9-2,2.86-0.13,4.17-1.73c0.51-3.04-0.59-1.92,3.87-6.01
		c3.17,0.3,1.72,0.46,9.98-4.28c18.61-10.67,28.44-21.27,31.26-21.99c2.95-0.76,5.7-6.4,4.58-9.06c-1.41-0.8-1.2-0.35-3.56-2.24
		c1.38-6.42,4.09-8.99,4.47-11.81C90.46,291.02,88.26,292.01,86.08,299.1z M155.01,165.11c-2.42-2.05,0.69-19.07,6.41-30.24
		c2.34-1.12,10.49-3.46,13.03-3.77c1.21,2.06-6.51,11.67-15.49,27.8C158.37,159.98,155.08,165,155.01,165.11z M156.33,166.8
		c-0.01-0.3-0.08-0.58,0.31-0.67C156.82,166.49,156.66,166.7,156.33,166.8z M188.41,147.49c0.26,0.53,0.06,0.75-0.19,0.87
		C188.22,148.16,188.31,147.87,188.41,147.49z M89.74,271.5c0.1,0-0.01-0.68,0.21-1.02c6.71-10.02,13.11-24.92,21.58-34.92
		c23.88-28.2,13.92-13.73,20.46-24.64c5.26-7.12,10-23.18,12.22-24.84c0,3.82,4.59,11.38,6.52,12.57c4.35,2.71,3.1-1.82-0.92,10.23
		c-4.02,3.68-7.07,2.5-14.86,9.27c-13.13,11.38-11.27,13.83-21.08,25.66c-3.72,4.49-22.44,28.81-24.94,28.3
		C89.14,271.81,89.34,271.51,89.74,271.5z M49.92,292.69c-0.25,0.13-0.93,0.61-1.2,0.7c-0.5-2.09,1.81-2.68,1.81-2.58
		C50.44,291.48,49.88,292.03,49.92,292.69z M54.32,279.75c12.1,4.76,13.18,4.66,8.16,4.79c-0.97-1.01-1.83-0.8-3.53-0.8
		c-0.39,0-0.72,0.36-1.07-1.73c-1.89-0.54-0.95,1.24-2.55,2.24c-1.07,0.32-2.25,0.47-3.46,0.2
		C52.41,282.35,52.52,279.04,54.32,279.75z M50.24,285.25c0.64,0,0.51,0.82,0.92,1.12c1.4,0.7,3.07-0.2,4.58,0.31
		c-3.05,3.05-5.19,3.99-5.06,3.99c-0.38,0-0.22-1.1-3.19-3.39C48.31,286.16,49.43,285.86,50.24,285.25z M46.88,290.44
		c0.09,1.84-0.62,3.19-1.63,4.68C45.46,293.5,45.76,291.76,46.88,290.44z M44.64,296.86c0,0.1,0.1,0.1,0.1,0.1
		c0,0.31-0.1,0.41-0.2,0.2C44.54,297.06,44.64,296.96,44.64,296.86z M41.78,339.29c0.14-0.24,0.72-0.97,0.72-0.69
		C42.63,340.19,40.69,341.22,41.78,339.29z M72.23,323.33c-1.5,1.18-23.47,17.72-25.35,17.72c0.7-1.05,1.27-2.94,3.46-4.17
		C54.83,334.33,76.62,318.95,72.23,323.33z M74.78,317.63c-0.13,0.26-0.16,0.83-0.36,0.25C74.38,317.7,74.7,317.78,74.78,317.63
		c0.37-0.55,0.9-0.51,1.44-0.51C76.33,317.12,75.8,317.83,74.78,317.63z M77.38,316.66c-0.27,0.13-0.57,0.23-0.88,0.31
		C77.41,315.15,79.62,315.57,77.38,316.66z M78.47,315.59c0.14-1.04,0.86-1.32,1.91-1.32C79.97,315.27,79.37,315.68,78.47,315.59z
		 M82.72,311.31c0-0.49,0.41-0.55,0.41-0.1C83.03,311.5,82.82,311.52,82.72,311.31z M87.2,308.77c0.37,1.11,0.64,1.33-0.23,2.77
		c-1.83,3.02-1.4,2.55-3.43,2.21C85.37,312.33,86.29,310.6,87.2,308.77z"/> <path d="M637.1,398.87l-0.02-0.02c0.03,0.03,0.04,0,0.01-0.19c-0.03,0.03-0.05,0.07-0.09,0.11
		C637,399.06,636.91,399.12,637.1,398.87z"/> <path d="M607.88,441.03c0.17-0.24,0.27-0.24-0.1-0.1L607.88,441.03z"/> <path d="M565.02,469.53l-0.1-0.1C564.92,469.47,564.99,469.52,565.02,469.53z"/> <path d="M564.92,468.11c0.16-0.16,0.1-0.11,0-0.01V468.11z"/> <path d="M683.33,340.64l-0.1-0.1C683.27,340.77,683.17,340.67,683.33,340.64z"/> <path d="M681.49,342.67c-0.95,1.61-1.2,3.6-3.05,4.58c-0.2,0.11-0.31,0.61-0.41,0.92c-1.83,5.93-40.45,58.54-40.93,58.96
		c0-2.05,1.45-3.92-0.1-6.32c-0.27-0.36-0.07-1.12-0.02-1.78c-0.99,1.14-2.09,6.78-2.22,8.4c-7.27,10.66-12.34,13.01-12.63,14.86
		c1.73-0.41,3.16-1.63,3.67-3.26c6-5.41,7.03-7.34,5.29-3.97c-4.9,9.52-5.67,11.31-9.16,14.15c-7.51,6.11-2.93,4.56-8.04,7.23
		c-2.19,1.14-4.33,2.37-5.85,4.39c6.77-2.41,7.27-5.34-1.78,17.2c-3.77,9.38-2.85,13.75-6.92,15.88c-0.48,0.25-8.71,8.17-17.1,17.41
		c-5,5.51-16.34,23.87-20.16,30.24c-0.98,0-0.51-2.25-3.56,5.29c-2.17,5.36,1.61,6.1-3.97,7.03c-1.63-1.83-3.77-2.95-5.7-4.58
		c-0.2-2.44-1.53-4.48-2.24-6.52c8.79-27.21,3.67-11.09,11.71-37.37c1.87-6.1,6.6-13.14,6.62-15.96c-1.92-1.56,6.71-14.76,9.47-21.8
		c2.03-5.18,2.46-2.92,7.03-10.18c9.41-14.96,13.3-13.58,13.54-19.55c0.61-14.85,5.38-7.51,9.67-24.13
		c0.22-1.08,0.33-2.04-0.81-2.04c-0.33,1.14-3,7.78-3.46,8.86c-1.42,3.32-2.29,1.24-5.4,7.84c-3.63,7.73-1.38,10.88-5.5,14.36
		c-2.46,2.08-18.94,26.89-21.38,32.68c-20.14,47.78-19.82,63.47-23.72,66.08c-5.94,1.06-8.96-3.02-13.03,3.05
		c-6.47,9.65-0.14,6.54-7.23,12.52c-11.16,9.43-12.44,10.05-13.34,12.93c-1.42,4.57-9.51,5.66-12.73,12.52
		c0.44,7.08,0.16,10.96,8.25,11.71c0.98,0.09,9.23,0.25,8.45-0.92c-1.1-1.32-9.77,0.61-13.13-2.75c-1.22-3.05-1.73-6.21-1.83-9.37
		c4.46-3.11,8.03-4.08,8.76-4.79c6.17-5.98,3.68-7.55,7.84-9.16c1.14,0.28,4.79,1.82,9.98,2.04c1.99,0.22,2.38-2.31-0.2-2.95
		c-5.04-1.26-6.11-0.34-7.13-0.92c3.07-4.74,11.33,1.6,13.54-0.61c0.71-0.81-0.31-1.53-0.1-2.24c1.43,0,3.05,1.53,4.07-0.71
		c-1.43-2.95-4.68-2.95-7.23-4.17c1.02-1.22,2.03-1.11,3.05-0.71c5.07,1.98,7.81,3.67,8.86,3.56c1.27-0.64,0.54-2.38-0.41-2.85
		c-6.58-4.46-8.93-2.12-10.18-2.75c-0.63-1.27,2.25-3.67,1.43-6.01c-0.13-0.26,1.66-4.19,3.87-5.91c0.1,0.01,7.12,0.91,7.74,1.22
		c1.52,3.81,1.71-0.07,2.95,4.89c2.65,2.44,4.48,5.4,7.03,7.23c1.93,0.81,3.36-0.81,5.09-0.51c1.12,1.12,2,2.35,2.24,3.97
		c0.45,3.1,1.53,0.29,1.53,4.58c0,1.12-0.71,2.04-0.51,3.36c0.51,1.43,1.12,3.05,1.02,4.89c-0.12,1.07,0.9,5.58,2.55,6.72
		c1.79,1.23,0.77,5.19-8.76,5.19c-0.71,0.51-1.22,1.02-1.73,1.32c-3.26,0.2-6.21-0.1-9.16-2.14c-0.92,1.22-2.55,0.92-3.67,1.43
		c-0.31,0.71-0.51,1.22-0.71,1.73c-5.15,1.93-3.5,2.45-11.51,3.16c-12.85,1.14-11.74,1.89-12.73,3.87c1.02,0.2,2.13,0.6,3.05-0.1
		c2.19-1.65,14.32-0.94,18.02-2.95c2.56-1.4,5.29-2.14,7.53-3.67c7.09,1.23,9.96,1.88,12.01,0.51c4.59-3.06,9.14-1.28,10.28-5.09
		c-1.07-6.43-3.79-8.11-3.46-12.63c0.08-1.02-0.31-2.04-0.51-3.26c1.86-4.41-0.81-5.06-0.81-14.15c0-2.26-2.34-2.35-2.34-3.46
		c2.72-1.47,2.85-6.51,5.5-9.16c2.2-2.2,5.96-9.97,10.79-17.92c12.27-20.17,22.75-16.83,29.93-38.38
		c1.15-3.45,7.18-17.08,7.74-21.69c0-0.77,5.2-9.84,9.88-11.81c3.65-1.54,9.44-19.09,27.59-39.81
		c15.19-17.34,18.14-25.79,20.36-27.69c3.55-3.55,4.64-6.92,9.88-19.14C683.38,342.41,684.01,338.43,681.49,342.67z M525.92,540.5
		c0.01,0,0.02-0.01,0.03-0.01C526.82,540.2,525.92,541.09,525.92,540.5z M528.87,541.31c0-0.14-0.06-0.1,0.31-0.1L528.87,541.31z"/> <path d="M811.21,553.02c1.78-3.65-3.38-6.32-4.99-9.98c-1.43-3.25-2.44-6.72-4.48-9.67c-0.82-0.82,1.14,0.05-2.65-6.01
		c0.59-6.48-1.07-12.5-0.51-16.7c2.91-21.75,1.71-39.51,2.04-58.54c0.19-11.4-4.69-23.32-6.41-25.05
		c-3.92-3.92,0.95-4.97-3.46-17.72c-1.23-3.56-1.53-4.07-4.38-7.03c0.16,3.46,4.71,11.57,4.38,22.5c1.63,1.45,0.88,2.03,3.97,9.16
		c9.05,20.88,0.45,55.21,2.44,91.02c-3.36,0.2-6.11,1.43-8.96,2.65c-0.51-1.53-1.93-0.51-2.85-1.22c0-6.27,0.15-6.43-1.22-9.16
		c-0.1,3.87-0.2,7.33-0.31,11.1c-0.51-0.81-0.51-1.53-0.41-2.24c0.55-3.87-2.06-10.82-3.05-19.24c-0.19-1.61-1.8-7.8-2.75-8.76
		c-1.73-1.32-2.34-3.26-3.05-5.09c-2.14-5.5-4.34-11.01-6.31-16.6c-6.75-19.08-1.8-27.42-2.65-43.47c0-1.22-0.51-1.43-1.83-1.02
		c-0.51,1.12-0.22,2.34-0.41,3.46c-1.63,9.55-0.95,19.14-0.51,28.71c0.34,7.38,2.02,4.57,6.41,21.69c1.54,5.99,3.27,7.25,4.07,10.18
		c1.39,5.1,3.54,9.98,4.58,15.27c0.1,0.51,0.31,1.12,0.61,1.63c2.11,3.01,2.33,12.1,2.75,14.56c1.57,9.32-3.31,0.96-3.67,19.55
		c2.24,2.55,2.95,5.5,2.65,8.35c-0.61,3.56-0.89,7.24-2.04,10.79c-1.42,4.4,0.36,6.95-1.22,9.77c0.31,0.92-0.2,1.73-0.71,2.55
		c3.79,5.84,16.38,3.71,22.91,3.05c4.69-0.47,3.61,1.5,11.91,0.61C822.74,580.89,806.2,563.26,811.21,553.02z M813.14,578.48
		c-0.81,0.92-1.73,1.02-2.65,1.22c-0.75-0.43-0.62-2.1-2.34-1.53c-7.94,2.65-5.58,0.02-7.84-2.24c-0.63-0.31-3.93-4.01-10.28-2.55
		c-1.23,0.28-2.24,1.02-2.14,2.44c0.51,0.61,1.12,0.2,1.63,0.1c3.63-1.01,8.81-0.18,10.08,3.16c-7.81,1.4-16.97,1.19-17.17,0.81
		c-0.69-1.3-1.7-2.37-2.69-3.36c0-4.67-1.04-3.41,0.31-8.86c0.88-3.57,1.17-7.21,2.34-10.69c1.54-4.58-2.28-9.25-1.93-12.12
		c0.4-3.26-0.1-6.62,1.12-9.57c1.22-1.12,2.65-0.31,3.87-0.81c1.32-1.02,1.22-2.75,1.83-4.38c2.85-0.71,5.8-1.53,8.65-2.24
		c1.7,1.16,2.82,2.8,3.26,4.28c1.12,2.92,2.3,3.8,3.46,6.92c1.6,4.29,3.77,8.45,6.01,12.42c-1.91,4.45-2.16,8.38,0.2,12.63
		C811.37,568.62,812.22,573.59,813.14,578.48z"/> <path d="M165.9,437.97c-0.37-1.64-0.71-3.26-0.71-4.89c0-2.89-0.56-4.34-1.63-12.63c-2.14-16.49-1-12.08-2.04-14.15
		c-0.83,0.92-1.07,0.9,0,11.91c2.4,24.72,4.1,21.6,3.05,25.96c-7.23,30.07-8.84,19.39-12.52,60.27c-0.24,2.7-1.34-0.01-1.12,9.57
		c0.02,0.71,0.31,1.32,0.51,1.93c0.61,0.2,1.63,1.02,1.83,1.43c-0.78,0.78-2.05-0.24-4.79-0.71c-5-0.87-4.27-10.72-10.08-11.4
		c-0.61,0.31-1.32,0.71-1.93,1.02c-4.02,0-4.04,0.2-4.58,0.2c-6.34,2.54-6.15,10.55-16.09,22.09c-12.02,13.97-15.06,8.9-17,13.13
		c-2.4,5.23-4.21,7.23-4.79,10.28c0,1.98,1.23,1.11,1.63,2.04c0.94,3.06-2.52,7.13,30.65,5.8c10.9-0.44,15.23-7.15,16.7-7.64
		c1.49,0,3.67,1.44,6.01-0.51c0.51-0.43,12.41-2.21,12.52-2.24c1.22-0.31,2.26-1.33,2.04-2.55c-0.46-2.45,0.4-4.99-0.92-7.23
		c-0.72-1.22-0.79-2.43-0.2-3.77c1.17-2.67,0.03-4.9-1.02-7.84c-2.98-8.32-0.53-11.87-2.24-14.86c-1.73-1.53-3.56-3.36-5.6-5.19
		c0.51-4.81,3.23-36.7,6.21-42.97C163.11,458.1,167.46,444.79,165.9,437.97z M153.79,515.35c1.64-0.99,1.45-1.43,1.12-2.75
		c-0.77,0-0.73,0.31-1.22,0.51c0.86-2.51,0.84-1.44,4.58,1.63c0.5,0.9,0.29,1.94,0.2,2.65c-1.55,12.45,3.58,12.89,2.34,17.92
		c-0.76,3.07-0.81,3.05-0.1,6.01c-1.2,1.2-0.44,2.55,0.61,6.41c-1.12,0.61-2.24,0.71-3.26,0.71c-3.69,0-6.43,1.32-12.73,1.32
		c-1.83,0-3.25,0.42-4.68,1.43c-1.62,1.13-3.67,1.83-4.58,3.77c-2.24,1.43-4.48,2.85-7.13,3.05c-12.65,0.96-14.18,1.45-27.59-0.71
		c-2.17-0.35-3.65-1.75-4.22-3.52c-0.87-2.74,0.32-4.08,3.6-11.55c3.02-2.69,4.99,0.18,11.71-7.43c2.14,1.32,4.38,1.93,6.62,2.55
		c1.02,0.2,1.93,0.1,2.34-1.32c-1.21-2.73-4-2.14-6.31-2.34c-0.71-3.93,9.08,1.41,12.63,0.1c0.51-1.02,0.2-1.73-0.81-2.14
		c-6.65-2.64-8.05-0.5-8.96-1.22c0.35-1.04,1.26-1.91,2.14-2.55c8.68-0.55,13.69,5.17,14.46,2.85c1.37-2.68-5.63-5.52-9.06-5.8
		c-0.69,0-2.2,0.19-2.33-0.8c-0.32-2.51,8.88-0.05,13.73,3.15c3.57-2.49-3.81-6.3-8.76-6.41c-3.67-0.08-3.16-0.13-3.17-0.41
		c-0.02-2.04,1.58-1.45,11.21,0.81c1.73,0.51,2.95,2.14,4.58,2.75c3.34-2.95-6.14-7.23-12.93-6.31c-1.1,0.37-1.01,0.17-1.43-0.1
		c5.36-13.4,6.99-8.47,12.63-9.88c3.75,4.44,2.3,9.53,9.77,12.83c1.32,0.31,1.73-0.61,2.55-0.92c1.53-0.1,3.26,1.43,4.48-0.61
		C156.21,517.21,154.79,516.35,153.79,515.35z"/> <path d="M646.37,335.65c-0.92-0.5-13.82-7.24-17.51-11.81c-0.7-0.7-2.11-0.55-2.85,0.1c-5.8,17.41-16.68,17.32-19.45,68.52
		c0.81-0.1,1.02-0.41,1.12-0.92c6.32-32.8,3.05-30.1,18.02-60.78c1.82-3.72,1.34-3.89,1.53-6.31c2.1,2.6,3.49,4.32,16.8,12.63
		c18.95,11.83,37.65-0.42,39.2,3.46c0.28-0.83,1.35,0.28,2.04-0.81C685.26,334.11,662.44,344.39,646.37,335.65z"/> <path d="M133.12,472.28c1.79,33.03,2.25,26.56,2.14,32.48c-0.01,0.29,0.99,1.1,1.73-0.2c0.81-16.26-5.12-58.36-3.56-66.69
		c-0.81-0.92-1.22-1.93-1.22-3.16c0.01-0.1-0.18-12.05,1.53-20.57c0.44-3.05-0.44-1.89,0.51-7.43c0.52-3.05,1.12-6.01,1.63-9.06
		c0-0.81-0.92-1.12-1.12-2.14c0-4.38-0.1-9.16-0.2-13.85c-0.41,0.1-0.81-0.2-1.22,0.1c-0.97,1.95-1.26,10.32-0.71,15.17
		c0.56,4.94-0.11,5.96-0.92,11.91C128.8,430.27,131.52,442.68,133.12,472.28z"/> <path d="M711.83,111.86c-4.12,0.2-8.86,0.1-6.11,1.93c3.02,0.43,5.19-0.58,8.86,0.2c0.51,0.11,1.22,0.1,1.73-0.1
		c4.79-1.53,9.78-1.69,14.66-2.55c9.09-1.6,9.08,0.06,18.73-0.51c0.69,0,0.7-0.84,1.02-1.63c11.96-4.48-0.46-1.63,20.67-9.47
		c7.35-2.73,7.55,1.81,56-9.47c1.53-0.36,3.33-0.7,2.95-1.83c-2,0-35.98,6.43-42.97,6.82c-11,0.62-13.4,0.42-22.91,4.07
		c-4.18,1.61-7.94,3.67-10.79,7.03c-2.14,0.92-4.48,1.02-6.01,2.04C725.51,106.92,723.4,111.3,711.83,111.86z"/> <path d="M241.25,325.57c-1.89,3.2-2.23,2.32-18.22,17.92c-21.2,20.68-27.84,19.95-46.33,37.88c-2.56,2.48-8.08,8.12-9.67,11.3
		c0.38,3.08,0.85,1.35-2.75,7.64c-1.74,3.04-2.11,3.39-1.43,4.07c1.85,0.93,7.15-9.09,9.16-15.48
		c18.12-22.5,48.89-31.89,71.88-64.35C243.09,324.23,242.54,323.38,241.25,325.57z"/> <path d="M240.33,267.33l-0.1,0.1C240.32,267.48,240.38,267.61,240.33,267.33z"/> <path d="M251.12,270.08c4.79-5.04,11.64-14.97,11.21-19.08c-2.9,2.06-3.3,8.28-18.64,22.44c-2.69,1.79-0.43-4.26-3.35-5.93
		c0.16,2.69-0.39,5.38,0.91,7.86c-2.37,2.49-9.66,7.79-16.49,9.57c-11.19,2.92-12.66,0.96-13.64,2.14
		C212.2,289.27,232.98,289.16,251.12,270.08z"/> <path d="M262.42,250.94l-0.1-0.1C262.36,251.01,262.28,251.04,262.42,250.94z"/> <path d="M728.53,302.76c8.76-3.05,17.41-3.36,26.06,0c2.8-1.68-6.09-5.09-13.13-5.09c1.12,0.41,2.34,0.81,3.56,1.22
		C743.73,299.01,727.02,300.11,728.53,302.76z"/> <path d="M602.18,430.03c4.38-0.61,6.82-2.85,7.33-6.92c-0.87-0.87-1.35-0.22-1.53-0.92c-0.41-1.12,1.23-0.61,1.12-2.14
		c-0.34-4.76,0.24-6.43-1.02-6.01c-0.71,1.22-0.31,2.55-0.92,3.77c-1.12,2.24-1.12,4.68-0.51,7.03
		C605.23,426.77,603.3,427.99,602.18,430.03z"/> <path d="M721.81,60.54c0.71,1.63,2.14,1.02,3.16,1.43c0.41,1.83,1.63,2.34,3.26,2.44c0.71-2.75,0.71-2.75,3.16-5.4
		c-1.12-0.61-2.24-0.92-3.46-0.71C725.78,58.81,723.65,59.42,721.81,60.54z"/> <path d="M52.89,307.85c0.51-0.1,1.12-0.31,1.32-0.92c0.41-1.02,1.02-2.14,1.22-3.26c1.58-8.72,5.94-9.12,3.67-10.49
		c-1.64,2.9-6.11,2.28-6.11,3.97c0.31,1.12,1.73,0.31,2.24,1.22C52.43,307.15,52.47,306.58,52.89,307.85z"/> <path d="M231.78,317.83c0.14-0.05,0.27,0.01,0.1-0.1L231.78,317.83z"/> <path d="M245.83,322.61c-13.5-6.33-8.91-4.16-10.46-4.16c-0.1,0.1-1.56-0.27-1.66-0.32c-5.13-2.52,2.91,3.91,6.72,5.29
		c0.71-0.31,0.41-1.02,0.71-1.53c-0.1,0-0.2-0.1-0.41-0.2c0.2,0,0.22-0.04,0.31,0.14c0.02,0.04,0.05,0.06,0.1,0.06
		c1.87,0.13,4.44,2.56,5.29,1.53C246.44,322.92,246.13,322.72,245.83,322.61z"/> <path d="M146.05,379.94c-2.81,0-3.36,10.58-3.46,12.52C144.17,391.4,148.89,381.2,146.05,379.94z"/> <path d="M222.72,169.18c-0.3,0.41-0.1,0.92,0.31,1.32c0.31-0.2,0.61-0.2,1.02-0.41c6.84-7.54,11.07-7.48,10.28-9.06
		C233.55,160.26,227.89,162.14,222.72,169.18z"/> <path d="M602.28,441.33c0.2-0.51,0.2-1.12-0.41-1.53c-1.03,0-0.73-0.24-6.11,12.01C592.74,458.73,598.59,452.62,602.28,441.33z"/> <path d="M783.92,428.71c0,3.8,1.78,2.36,1.12-2.24c1.12-2.52,4.38-5.85,0.61-15.27c-0.25-0.76-1.38-0.48-1.02,0.61
		c1.08,4.06,3.5,5.61-1.32,14.97C783.61,427.38,783.92,427.99,783.92,428.71z"/> <path d="M329.11,410.38c-10-4.72-8.77-5.2-10.79-5.6c0.81,1.53,1.72,3.2,3.36,3.56c1.79,0.4,6.47,4.05,11.61,4.79
		C337.21,413.13,330.47,411.02,329.11,410.38z"/> <path d="M255.2,287.9c-0.92,0-1.53,0.61-2.14,1.12c-15.93,10.93-16.52,9.97-16.86,11C239.79,300.17,256.35,288.47,255.2,287.9z"/> <path d="M142.28,228.84c0.91,0.23,1.31,0.01,3.77-1.53c6,0.55,8.73-4.45,6.31-4.99C149.77,226.35,144.81,223.37,142.28,228.84z"/> <path d="M733.52,58c2.58-1.72-8.16-7.77-12.63-2.75c1.43,0.61,2.44,0,3.46-0.1C728,54.31,732.05,58.59,733.52,58z"/> <path d="M774.76,426.36c-0.1-3.97-1.02-7.43-3.16-10.08c-0.1-2.24,1.02-4.17,0.1-6.11c-1.7,0-1.32,2.7-1.43,3.87
		c-0.28,3.06,1.43,5.6,2.95,7.94C773.03,423.61,772.82,425.24,774.76,426.36z"/> <path d="M331.15,416.39c0.92,1.83,2.65,2.95,4.07,4.79c0,2.44,0.06,4.25,1.12,5.19c1.43-1.93,0.71-4.07,0.81-6.21
		C333.92,418.45,332.17,414.34,331.15,416.39z"/> <path d="M167.84,377.29c-1.87,0.23-2.19,1-6.11,2.85c-2.39,1.13-4.92,1.59-5.5,2.75C160.81,383.06,166.19,380.73,167.84,377.29z"/> <path d="M682.82,146.27c0.23-1.15-0.92-1.66-1.63-0.31C671.11,165.24,681.54,150.74,682.82,146.27z"/> <path d="M152.97,413.03c0-2.05-5.45,7.78-5.29,15.07C148.19,426.87,152.87,413.64,152.97,413.03z"/> <path d="M218.85,164.39c2.04-1.11,2.34-1.53,3.05-3.56c-6.48,4.99-10.75,4.4-13.03,6.11C212.64,167.14,215.8,166.04,218.85,164.39z
		"/> <path d="M692.8,189.64c-2.44-2.24-4.07-4.99-4.07-8.55c-2.52,0.63-1.08,4.81,0.81,6.92c0.63,0.7,1.43,1.22,2.14,1.83
		C691.98,190.15,692.39,190.46,692.8,189.64z"/> <path d="M770.28,400.6c-0.29,0.82-0.41,1.63-0.31,2.44c2.14-2.65,3.05-5.8,3.97-8.86C772.87,388.29,773.66,390.89,770.28,400.6z"/> <path d="M195.07,227.58c0.68,2.36,4.49,1.42,12.68,6.96C208.18,231.97,197.77,228.55,195.07,227.58z"/> <path d="M194.92,227.52c0.23,0.09,0.13,0.09,0.1-0.1L194.92,227.52z"/> <path d="M519,549.87c-1.73-0.51-2.55-0.31-4.17,1.12C520.27,554.62,523.34,551.15,519,549.87z"/> <path d="M217.42,305.2c-6.5-6.37-6.14-9.47-7.64-9.47c0.1,0.31,0,0.71,0.1,1.02C214.15,305.52,221.17,308.88,217.42,305.2z"/> <path d="M196.65,258.47c0.1-2.34-0.92-8.45-2.14-11C194.31,252.77,195.13,256.43,196.65,258.47z"/> <path d="M694.12,317.93c-2.65-0.2-8.76,0.92-12.93,2.44C689.54,319.66,691.88,319.25,694.12,317.93z"/> <path d="M705.12,308.46c-0.73,0.64-3.29,9-3.97,13.44c0.94-1.32,0.61,0.6,3.87-11.71C705.22,309.68,705.12,309.07,705.12,308.46z"/> <path d="M706.24,295.33c0.41-6.41,0.41-7.33-0.92-10.18C705.22,288.71,704.91,291.76,706.24,295.33z"/> <path d="M775.27,448.05c0.71,2.65,1.32,5.4,2.14,8.65C778.21,452.45,777.3,445.43,775.27,448.05z"/> <path d="M151.04,501.6c-0.35-6.29-0.31-6.76-1.53-7.03c-0.2,2.75,0,5.6,0.2,8.55C150.94,502.83,150.94,502.11,151.04,501.6z"/> <path d="M215.69,125.3c-2.13,0.61-3.82,2.59-1.93,3.16c1.63-0.92,3.26-2.14,5.91-2.14C217.32,125.2,216.81,124.98,215.69,125.3z"/> <path d="M739.43,295.02c7.64-0.51,8.76-0.61,10.89-2.14c-2.95-0.1-5.62,0.24-8.15,1.02C741.25,294.19,740.04,293.9,739.43,295.02z"/> <path d="M339.19,426.16c-0.2-0.31-0.41-0.2-0.71,0.51c1.32,2.44,2.85,5.09,4.58,7.84C344.3,432.64,340.62,427.88,339.19,426.16z"/> <path d="M607.88,412.42c0.61-1.83,1.02-3.67,0.51-5.91c-1.53,1.12-1.43,2.65-1.83,3.77C605.49,412.68,607.21,414.1,607.88,412.42z"/> <path d="M743.6,380.85c0.1-0.2,0.41-0.41,0.41-0.51c-0.2-2.34-0.81-4.58-2.04-6.62C741.87,377.9,742.18,379.12,743.6,380.85z"/> <path d="M655.94,342.67c-3.25,8.31-2.34,6.27-2.34,7.13C655.48,347.92,658.14,344.21,655.94,342.67z"/> <path d="M884.61,88.24c2.15-0.72,2.44-3.06,2.14-3.87C886.5,83.48,884.23,80.96,884.61,88.24z"/> <path d="M232.29,138.13c-0.39-1.13-1.32-1.22-2.55-0.31c1.02,1.73,2.44,3.16,3.26,5.09C233.1,141.28,232.82,139.65,232.29,138.13z"/> <path d="M683.53,195.75c-3.94-0.83-8.85-0.15-11.51,0C675.89,195.75,679.66,196.67,683.53,195.75z"/> <path d="M201.84,266.92c-0.81-1.93-1.53-2.34-4.99-2.75C199.2,266.72,200.11,267.23,201.84,266.92z"/> <path d="M348.87,430.74c0.31-3.26,1.32-5.6,1.22-8.35C348.46,424.23,348.15,426.26,348.87,430.74z"/> <path d="M766.31,406.92c-5.01-1-3.37,1.53,1.53,1.22c0.81-0.1,1.63-0.41,1.83-1.73C768.34,406.51,767.43,407.22,766.31,406.92z"/> <path d="M253.16,306.32c-2.34,0.51-3.88,2.44-5.8,3.87c-0.41,0.3-0.92,0.71-0.51,1.63C249.09,310.09,251.33,308.46,253.16,306.32z"/> <path d="M592.2,458.54c-0.4,0.92-0.92,1.83-0.2,3.16c1.32-2.14,2.34-4.07,3.16-6.11c0-0.2-0.1-0.51-0.1-0.71
		C593.22,455.38,592.82,457.12,592.2,458.54z"/> <path d="M285.74,280.67c-0.02,0.07-0.04,0.15-0.04,0.24C285.88,280.73,285.87,280.8,285.74,280.67z"/> <path d="M690.05,126.01c-2.65-0.61-4.38,0.1-6.92,2.75C685.46,127.74,687.4,127.03,690.05,126.01z"/> <path d="M203.07,293.39c6.12,4.59,4.65,3.46,5.5,3.46c-1.43-2.04-2.65-2.95-5.8-3.97C202.86,292.99,202.86,293.29,203.07,293.39z"/> <path d="M649.83,282.91c-1.69,6.76-1.76,7.07-1.12,7.84C651.24,281.88,650.37,281.3,649.83,282.91z"/> <path d="M183.01,204.61c0.2,0.1,0.41,0.31,0.61,0.31c0.81-0.1,1.22-0.61,1.63-1.22c2.17-3.28,1.83-2.8,1.83-3.98
		c-0.67,0.34,0.03-0.81-3.97,4.28C183.01,204.1,183.01,204.41,183.01,204.61z"/> <path d="M884.11,71.84l0.1-0.1C884.19,71.75,884.18,71.73,884.11,71.84z"/> <path d="M884.51,66.96c-0.45,1.34-2.05,5.55-0.36,4.8C885.26,69.89,886.66,66.72,884.51,66.96z"/> <path d="M61.24,307.04c-1.32,0.71-2.24,1.83-2.75,3.26C60,311.3,61.84,309.76,61.24,307.04z"/> <path d="M564.31,513.72c-1.22,1.73-2.24,2.85-1.73,4.79C564.2,517.39,564.2,515.86,564.31,513.72z"/> <path d="M777.91,469.74c1.12-2.04,1.43-3.26,0.61-4.58C777.08,465.16,777.77,466.9,777.91,469.74z"/> <path d="M717.23,312.23c0.07,0,0.04-0.11,0.02-0.2c0.43-0.01,0.62-0.23,0.6-0.62c-0.67,0.67-0.62,0.66-0.62,0.52
		C710.13,318.21,713.54,318.29,717.23,312.23z"/> <path d="M234.63,159.81c2.24-1.12,2.34-1.32,2.65-4.07C235.95,156.96,235.14,158.29,234.63,159.81z"/> <path d="M780.76,408.14c-0.31,2.85-0.2,3.05,1.83,3.87C782.6,410.38,782.19,409.16,780.76,408.14z"/> <path d="M160.41,405.7c0.31-0.4,0.41-0.81-0.31-1.22c-1.22,0.92-2.34,1.93-2.85,3.56C158.78,407.73,159.61,406.73,160.41,405.7z"/> <path d="M89.34,290.34c2.24,0,2.55-0.2,3.26-2.44C90.36,288.91,90.26,289.02,89.34,290.34z"/> <path d="M857.84,102.29c-2.34-0.81-3.56,0-4.89,0.51C854.38,103.1,855.7,103.31,857.84,102.29z"/> <path d="M283.7,290.64c-1.93-0.1-3.46,0.92-5.5,1.93C281.67,292.07,281.67,292.07,283.7,290.64z"/> <path d="M145.64,440.82c-0.51,1.83-0.61,3.67-0.1,5.5C145.95,444.49,145.95,442.65,145.64,440.82z"/> <path d="M320.15,413.43c1.09-1.23,1.8-4.17-0.2-3.77C320.05,410.79,319.54,412.01,320.15,413.43z"/> <path d="M230.15,209.29c-1.02,1.22-1.22,2.34-0.81,3.77C230.45,211.94,230.76,210.92,230.15,209.29z"/> <path d="M240.23,267.33h0.1C240.25,267.25,240.32,267.2,240.23,267.33z"/> <path d="M239.92,263.05c-0.5,1.69-0.5,3,0.36,4.19C241.33,265.85,241.13,264.55,239.92,263.05z"/> <path d="M603.61,431.25c-0.51-0.76-1.8-0.13-1.43-0.51c-0.14-0.24-0.1-0.37-0.1,0.1c0.31,0.92-1.02,1.63-0.71,2.75
		C603.2,432.57,603.2,432.57,603.61,431.25z"/> <path d="M145.44,450.8c-0.1,1.43-0.2,2.65,1.02,3.77C146.56,453.04,146.86,451.82,145.44,450.8z"/> <path d="M854.38,86c0.71,0.92,0.81,2.34,2.24,2.85C856.87,87.46,855.31,84.68,854.38,86z"/> <path d="M209.89,132.93c1.32-0.1,2.34-0.81,3.56-2.04C211.52,130.9,210.4,131.3,209.89,132.93z"/> <path d="M185.76,177.73c2.55-0.41,2.85-0.61,3.05-2.24C187.69,176.2,186.27,176.31,185.76,177.73z"/> <path d="M785.04,515.25c0.19-1.11,0.79-2.19-0.41-2.34C784.53,513.62,784.02,514.23,785.04,515.25z"/> <path d="M710.1,320.58c-1.47,0.68-2.27,1.84-2.7,3.47C708.83,323.33,709.72,322.15,710.1,320.58z"/> <path d="M712.89,317.1c0.19-0.09,0.13-0.03,0.25-0.31C712.92,316.94,712.97,316.86,712.89,317.1z"/> <path d="M710.21,320.58c1.36-0.78,2.26-1.86,2.69-3.48C711.46,317.82,710.5,318.91,710.21,320.58z"/> <path d="M231.78,317.63c0.11,0.14,0.1,0.1,0.2,0C231.91,317.63,231.85,317.63,231.78,317.63z"/> <path d="M231.78,317.63c-1.11-1.24-2.6-1.73-4.17-2.04C228.49,317.26,230.03,317.6,231.78,317.63z"/> <path d="M233.71,313.55c-0.81-1.02-1.11-2.44-2.54-2.95C231.48,312.13,232.49,312.84,233.71,313.55z"/> <path d="M229.54,311.41c0.31-0.41,0.61-0.71,0.81-0.92c-1.06,0.26-2.89-1.44-4.12-1.24C226.95,310.59,228.34,310.71,229.54,311.41z
		"/> <path d="M226.08,309.28c0.05-0.02,0.1-0.01,0.15-0.02C226.16,309.15,226.2,309.16,226.08,309.28z"/> <path d="M204.19,290.75c1.53,1.63,1.53,1.63,3.46,2.14C206.83,291.76,205.92,290.64,204.19,290.75z"/> <path d="M187.39,197.38c1.32-0.51,1.32-0.51,1.22-2.44C187.39,195.65,186.98,196.36,187.39,197.38z"/> <path d="M155.82,217.95c1.32-0.71,1.63-1.63,1.83-3.05C156.33,215.61,155.62,216.22,155.82,217.95z"/> <path d="M637.71,395.82c1.02-1.12,1.12-2.44,1.22-4.58C637.92,393.07,637.71,394.39,637.71,395.82z"/> <path d="M169.47,374.54c1.43-1.02,1.93-2.14,1.93-3.56C169.77,372.4,169.77,372.5,169.47,374.54z"/> <path d="M605.34,434.41c-0.41,0.41-0.41,0.81,0.1,1.22C608.73,433.07,608.2,431.54,605.34,434.41z"/> <path d="M244.3,245.54c0.41-1.63,0.41-1.63-0.61-2.24C243.08,244.32,243.39,245.03,244.3,245.54z"/> <path d="M364.95,468.11c0.1,1.32,0.51,2.14,1.63,2.44C366.28,469.64,366.38,468.52,364.95,468.11z"/> <path d="M149.1,480.22c-1.12,1.43-1.12,1.43,0.2,1.93C149.31,481.55,149.61,480.83,149.1,480.22z"/> <path d="M565.63,509.34c-0.61,0.61-1.02,1.22-0.2,2.14C565.63,510.77,566.85,510.16,565.63,509.34z"/> <path d="M786.97,432.98c0-0.18,0.09-0.2-0.1-0.1L786.97,432.98z"/> <path d="M789.01,430.03c-1.27,0.4-1.88,1.35-2.02,2.79C788.23,432.29,788.72,431.21,789.01,430.03z"/> <path d="M177.61,355.91c-0.81,1.43-1.53,2.04-0.92,3.16C177.31,358.35,177.61,357.64,177.61,355.91z"/> <path d="M192.58,238.31c0.31-1.32-0.2-2.04-0.81-2.75C191.26,236.68,191.87,237.4,192.58,238.31z"/> <path d="M693.71,312.84c-1.12,0-2.24-0.1-3.36-0.1C691.37,313.76,692.49,313.25,693.71,312.84z"/> <path d="M62.56,305.2c-1.02,0.2-1.32,0.92-1.22,1.83C62.97,306.63,62.97,306.63,62.56,305.2z"/> <path d="M647.9,296.45c-0.71,1.02-1.73,1.63-1.63,2.85C647.59,298.08,647.59,298.08,647.9,296.45z"/> <path d="M649.02,295.74c0.96,0.87,2.11,1.34,3.34,1.31C651.47,296.19,650.38,295.63,649.02,295.74z"/> <path d="M652.48,297.16l0.1-0.1C652.33,297.09,652.27,296.96,652.48,297.16z"/> <path d="M258.15,285.76c-1.22,0.2-2.24,0.92-2.95,2.04C255.54,288.14,257.25,287.4,258.15,285.76z"/> <path d="M675.79,157.98c-0.71,0.61-1.32,1.32-1.93,1.93C675.31,159.91,676.77,158.8,675.79,157.98z"/> <path d="M312.01,398.36c0.1,0.92,0.51,1.32,1.43,1.32C313.13,398.98,312.92,398.47,312.01,398.36z"/> <path d="M669.79,193.21c0.71,0.1,1.32,0.2,1.93-0.2C671.11,192.8,670.4,192.5,669.79,193.21z"/> <path d="M70.2,309.58c-0.81,0.1-1.43,0.61-1.63,1.43C69.99,311.31,69.99,311.31,70.2,309.58z"/> <path d="M348.97,437.56c-0.54,0.54,0.04,1.22,0.41,1.22c0-0.1,0.1-0.1,0.2-0.1C349.8,437.8,349.19,437.34,348.97,437.56z"/> <path d="M150.33,381.16c0.71,1.32,0.71,1.32,1.83,1.32C151.96,381.57,151.34,381.36,150.33,381.16z"/> <path d="M220.07,214.28c-0.92,0.51-1.12,1.12-0.51,2.34C219.76,215.71,220.78,215.4,220.07,214.28z"/> <path d="M741.06,279.55c-0.81,0.51-1.63,0.92-1.73,1.93C741.16,280.77,741.16,280.77,741.06,279.55z"/> <path d="M237.07,313.15c0.92,0.1,1.83,0.31,2.55-0.51C238.8,313.04,237.89,312.43,237.07,313.15z"/> <path d="M205.2,167.45c0.71,0.31,1.32,0.51,1.53-0.51C206.02,166.33,205.51,166.63,205.2,167.45z"/> <path d="M668.16,163.78c-1.02,0-1.63-0.2-1.73,0.81C667.04,165.01,667.55,165.01,668.16,163.78z"/> <path d="M688.32,312.64c0.71,0,1.32,0,2.04,0C689.74,312.13,689.03,312.23,688.32,312.64z"/> <path d="M225.47,314.27c0.05-0.01,0.1,0.01,0.15,0.01C225.55,314.14,225.6,314.14,225.47,314.27z"/> <path d="M227.71,315.59c-0.48-0.87-1.15-1.35-2.09-1.31C226.05,315.2,226.83,315.49,227.71,315.59z"/> <path d="M229.64,308.67c0.16,0.05,0.06,0,0.11-0.1L229.64,308.67z"/> <path d="M230.35,310.6l0.1,0.1C230.41,310.57,230.41,310.6,230.35,310.6z"/> <path d="M229.73,308.69c-0.1,0.71,0.47,1.28,0.69,1.91c0.26,0,0.46,0,0.75,0C231.06,309.71,230.77,308.92,229.73,308.69z"/> <path d="M177.61,182.92c-0.81,0.2-0.81,0.2-1.22,1.02C176.9,183.54,177.51,183.64,177.61,182.92z"/> <path d="M136.28,236.89c0.41-0.41,1.02-0.81,1.02-1.63C136.17,235.77,136.17,235.77,136.28,236.89z"/> <path d="M238.6,258.17c0.51-0.71,0.51-1.22,0-1.83C238.09,257.05,237.99,257.55,238.6,258.17z"/> <path d="M225.77,220.39c-0.61,0.1-0.92,0.41-0.51,1.12C225.47,221.11,226.08,220.9,225.77,220.39z"/> <path d="M205.31,273.95c0.2-0.61-0.31-0.81-0.61-1.12C204.29,273.54,204.8,273.74,205.31,273.95z"/> <path d="M100.95,280.26c0.56,0.56,0.92,0.14,0.92-0.51C101.61,279.69,101.3,279.55,100.95,280.26z"/> <path d="M276.78,289.18c0.82-0.12,1.56-0.44,1.93-1.28C277.85,287.9,277.27,288.45,276.78,289.18z"/> <path d="M209.89,295.63c-0.31-1.12-0.31-1.12-1.83-1.83C209.07,294.62,209.07,295.43,209.89,295.63z"/> <path d="M649.12,295.63c-0.81-0.81-0.81-0.81-1.63-0.81C647.79,295.53,648.4,295.74,649.12,295.63z"/> <path d="M644.94,301.44c0.48-0.58,1.14-1.16,1.21-2.1C645.23,299.68,644.94,300.46,644.94,301.44z"/> <path d="M646.16,299.2c0,0.05-0.01,0.1-0.01,0.14C646.31,299.3,646.27,299.3,646.16,299.2z"/> <path d="M189.83,192.7c0,0.1,0,0.31,0,0.31c0.2,0,0.51,0.2,0.61,0.1C190.91,192.87,190.93,191.6,189.83,192.7z"/> <path d="M229.84,308.46c-0.04-0.02-0.07-0.04-0.11-0.06C229.73,308.63,229.73,308.57,229.84,308.46z"/> <path d="M228.32,306.43c0.1,0.88,0.49,1.56,1.42,1.98C229.7,307.46,229.38,306.71,228.32,306.43z"/> <path d="M654.11,109.52c-0.92,0-1.63,0.2-1.43,1.22C653.39,110.64,653.9,110.23,654.11,109.52z"/> <path d="M234.02,117.25c0.2,0.92,0.71,1.32,1.73,1.22C235.34,117.66,234.83,117.15,234.02,117.25z"/> <path d="M567.46,504.35c-0.31,0.41-0.51,0.71-0.31,1.63C567.77,505.07,567.77,505.07,567.46,504.35z"/> <path d="M402.01,499.87c-0.2,0.81,0,1.32,0.81,1.83C403.23,500.69,402.62,500.28,402.01,499.87z"/> <path d="M354.16,448.36c-0.04-0.01-0.08-0.03-0.12-0.05C354.08,448.5,354.02,448.49,354.16,448.36z"/> <path d="M352.63,446.42c0.19,0.88,0.49,1.56,1.41,1.88C353.92,447.45,353.59,446.71,352.63,446.42z"/> <path d="M351.61,444.49c-0.1,1.02,0.31,1.53,1.12,1.83C352.73,445.61,352.43,445,351.61,444.49z"/> <path d="M785.55,434.92c0.02-0.06,0.03-0.12,0.05-0.19C785.41,434.84,785.42,434.79,785.55,434.92z"/> <path d="M786.87,432.78c-0.85,0.38-1.08,1.18-1.27,1.94C786.39,434.33,786.78,433.74,786.87,432.78z"/> <path d="M767.53,432.17c-0.1-0.71-0.51-1.22-1.22-1.43C766.31,431.45,766.51,432.07,767.53,432.17z"/> <path d="M694.93,91.7c0.2-0.51,0.2-0.92,0-1.32C694.53,90.78,694.63,91.19,694.93,91.7z"/> <path d="M180.26,350.21c-0.31,0.41-0.51,0.81-1.02,1.83C180.77,351.12,180.77,351.12,180.26,350.21z"/> <path d="M682.11,93.23c0.41-0.51,0.41-1.02-0.2-1.83C681.8,92.21,681.7,92.72,682.11,93.23z"/> <path d="M637.61,395.82c-0.75,0.86-0.55,1.88-0.52,2.84C637.8,397.86,637.71,396.79,637.61,395.82z"/> <path d="M246.03,248.29c-0.2-0.1-0.31-0.31-0.41-0.41c-0.1,0.2-0.31,0.41-0.31,0.51C245.32,249.04,246.03,249.02,246.03,248.29z"/> <path d="M239.52,261.63c-0.22-0.22-0.42-0.49-0.61-0.1C239.31,262.33,239.21,261.94,239.52,261.63z"/> <path d="M155.11,411.09c-0.41,0.1-0.41,0.31-0.2,0.71C155.15,411.32,155.76,411.09,155.11,411.09z"/> <path d="M233.2,304.19c0.09-0.12,0.21-0.1-0.1-0.1c0.1,0.1-1.24,0.25-1.53,0.31C232.71,305.36,233.08,304.07,233.2,304.19z"/> <path d="M149.61,486.94c-0.45-0.45-0.83-0.45-0.41,0.41C149.31,487.25,149.51,487.05,149.61,486.94z"/> <path d="M650.54,282.3c0.41-0.51,0.71-1.02,0-1.83C650.54,281.18,650.54,281.79,650.54,282.3z"/> <path d="M97.79,281.99c-0.61,0-1.12,0.1-0.92,0.92C97.38,282.91,97.89,282.91,97.79,281.99z"/> <path d="M235.34,303.47c-0.58,0.19-1.43,0.03-2.04,0.61C234.05,304.11,234.78,304.22,235.34,303.47z"/> <path d="M147.98,378c-0.74-0.74-1.3,0.03-0.71,0.61c0.28,0.28,0.63,0.21,0.51,0.31c0.9,2.26,1.65,0.34,0.31-0.2l0.1-0.1
		C148.09,378.41,148.09,378.21,147.98,378z"/> <path d="M290.02,292.58c0.41,0,0.61,0,1.02,0C290.63,292.27,290.32,292.17,290.02,292.58z"/> <path d="M739.32,295.02c-0.41,0.1-0.92,0.1-1.73,0.2C738.41,295.84,738.92,295.33,739.32,295.02z"/> <path d="M287.27,301.54c0.16,0.08,0.1,0.14,0.1-0.1L287.27,301.54z"/> <path d="M288.08,303.47c-0.19-0.67-0.03-1.44-0.7-1.86C287.43,302.29,287.24,303.1,288.08,303.47z"/> <path d="M654.62,297.87l0.1-0.1C654.43,297.72,654.54,297.75,654.62,297.87z"/> <path d="M654.52,297.75c-0.51-0.67-1.28-0.59-2.05-0.59C653.04,297.9,653.84,297.72,654.52,297.75z"/> <path d="M67.35,301.03c0.41-0.2,0.81-0.31,0.41-0.92C67.43,299.79,66.82,300.33,67.35,301.03z"/> <path d="M649.64,109.54c0,0,0.02-0.02,0.09-0.02l-0.1-0.1C649.65,109.51,649.63,109.53,649.64,109.54
		c-0.72,0.15-0.85,0.91-1.33,1.3C649.09,110.65,649.76,110.53,649.64,109.54z"/> <path d="M198.99,167.55c-0.1,0.1-0.1,0.2-0.1,0.31C199.92,167.86,199.36,167.18,198.99,167.55z"/> <path d="M193.5,168.26c0.31,0.2,0.61,0.2,0.92-0.1C194.16,167.66,193.5,167.82,193.5,168.26z"/> <path d="M238.19,117.36c0.04,0,0.07,0.02,0.1,0.02C238.29,117.21,238.32,117.23,238.19,117.36z"/> <path d="M239.72,118.68c-0.49-0.49-0.61-1.16-1.43-1.3C238.26,118.37,239.04,118.49,239.72,118.68z"/> <path d="M666.73,193.62c0.31,0.31,0.61,0.2,1.02,0.1C667.34,193.62,667.04,193.62,666.73,193.62z"/> <path d="M662.76,171.01c-0.54-0.27-0.68-0.27-1.22,0C662.08,171.28,662.22,171.28,662.76,171.01z"/> <path d="M643.52,303.33c0.17-0.43,0.35-0.86,0.51-1.28C643.53,302.37,643.51,302.84,643.52,303.33z"/> <path d="M227.63,304.76c-0.25-0.45-0.45-0.82-0.64-1.28C227.08,303.95,226.84,304.59,227.63,304.76z"/> <path d="M227.61,304.89c0.07,0.04,0.09,0.03,0.1,0.01c0.15-0.15,0.11-0.07-0.08-0.14C227.69,304.86,227.72,304.79,227.61,304.89z"/> <path d="M288.79,304.49c-0.41-0.61-0.61-0.81-0.81-1.02C288.18,303.68,287.98,304.19,288.79,304.49z"/> <path d="M677.42,130.49h0.31C677.36,130.37,677.42,130.35,677.42,130.49z"/> <path d="M227.69,304.96c-0.07,0.55-0.02,1.09,0.63,1.36C228.41,305.85,228.23,305.28,227.69,304.96z"/> <path d="M255.22,305.01c-0.47,0.03-0.98,0.15-1.24,0.6C254.35,305.61,254.89,305.51,255.22,305.01z"/> <path d="M255.3,304.9c-0.02,0.05-0.06,0.07-0.08,0.11C255.47,305.01,255.41,305.01,255.3,304.9z"/> <path d="M236.67,306.02c-0.31-0.31-0.61-0.2-0.81,0C236.05,306.32,236.36,306.32,236.67,306.02z"/> <path d="M193.5,190.46c0.2-0.1,0.51-0.1,0.81-0.2C193.8,189.95,193.7,190.26,193.5,190.46z"/> <path d="M641.07,306.32c-0.05,0.25-0.13,0.51-0.2,0.73c0.08-0.17,0.18-0.38,0.31-0.63L641.07,306.32z"/> <path d="M640.87,307.05C640.34,308.16,640.61,307.78,640.87,307.05L640.87,307.05z"/> <path d="M620.61,422.9c0.57,0,1.04-0.1,1.35-0.61C621.41,422.3,620.88,422.35,620.61,422.9z"/> <path d="M622.03,422.19c-0.02,0.04-0.05,0.07-0.07,0.1C622.19,422.29,622.16,422.32,622.03,422.19z"/> <path d="M200.32,291.97c0.41,0,0.71,0.1,1.02,0.1C201.03,291.97,200.83,291.46,200.32,291.97z"/> <path d="M202.76,292.88l0.1-0.1C202.56,292.78,202.67,292.76,202.76,292.88z"/> <path d="M202.66,292.78c-0.39-0.41-0.87-0.52-1.43-0.61C201.6,292.8,202.12,292.79,202.66,292.78z"/> <path d="M354.67,449.98l0.1-0.1C354.64,449.75,354.67,449.69,354.67,449.98z"/> <path d="M354.06,448.46c0,0.56,0.26,0.95,0.61,1.31C354.68,449.24,354.69,448.73,354.06,448.46z"/> <path d="M608.59,441.43c-0.31,0-0.61,0-1.12,0.1C608.09,442.25,608.39,441.84,608.59,441.43z"/> <path d="M286.25,298.79c0.13-0.38,0.16-0.31-0.1-0.31L286.25,298.79z"/> <path d="M655.53,298.08c-0.31-0.1-0.61-0.1-0.92-0.2C654.92,298.08,655.12,298.38,655.53,298.08z"/> <path d="M772.01,437.87l0.1-0.1C771.99,437.73,772.04,437.7,772.01,437.87z"/> <path d="M772.03,437.74c0.09-0.57,0.12-1.11-0.73-1.29C771.19,437.03,771.29,437.52,772.03,437.74z"/> <path d="M236.16,299.91c-0.31,0.1-0.71,0-0.92,0.41c0.45,0.27,0.73,0.12,0.87-0.25c0.1,0.1,0.05,0.07,0.09-0.05
		C236.07,300.01,236.13,300.03,236.16,299.91z"/> <path d="M287.17,300.42c-0.61,0.51-0.1,0.71,0.2,0.92C287.27,301.13,287.17,300.83,287.17,300.42z"/> <path d="M784.84,436.44l0.1,0.1C784.94,436.18,784.95,436.33,784.84,436.44z"/> <path d="M784.94,436.31c0.33-0.39,0.51-0.85,0.51-1.39C785,435.27,784.95,435.78,784.94,436.31z"/> <path d="M771.09,435.53c-0.31,0.41-0.41,0.71,0.2,0.81C771.19,436.14,771.19,435.83,771.09,435.53z"/> <path d="M634.87,317.6c0.59-0.14,0.6-0.71,0.6-1.29C635.01,316.59,634.88,317.05,634.87,317.6z"/> <path d="M634.75,317.64c0.02,0.01,0.06,0.04,0.12,0.09C634.86,317.65,634.82,317.62,634.75,317.64z"/> <path d="M634.75,317.64C634.75,317.64,634.75,317.64,634.75,317.64C634.75,317.63,634.75,317.64,634.75,317.64z"/> <path d="M634.15,319.01c1-0.34,0.45-1.4,0.59-1.37C634.55,317.68,634.17,318.1,634.15,319.01z"/> <path d="M769.97,403.05l-0.1-0.1C769.83,403.15,769.81,403.08,769.97,403.05z"/> <path d="M769.84,403.09c-0.75,0.23-0.58,0.8-0.58,1.38C769.64,404.1,769.75,403.64,769.84,403.09z"/> <path d="M862.83,98.83c0-0.1-0.1-0.2-0.1-0.31C862.08,98.52,862.57,99.58,862.83,98.83z"/> <path d="M634.05,319.05l0.1,0.1C634.15,318.94,634.17,319.02,634.05,319.05z"/> <path d="M629.06,319.66c0-1.05,0.1-0.51-0.31-0.1C628.75,320.12,629.06,320.09,629.06,319.66z"/> <path d="M633.74,320.07c0.41-0.31,0.2-0.71,0.31-1.02C633.74,319.25,633.44,319.56,633.74,320.07z"/> <path d="M171.61,371.08c-0.04-0.19,0.05-0.15-0.1-0.1L171.61,371.08z"/> <path d="M172.11,369.55c-0.38,0.38-0.56,0.83-0.52,1.38C172.19,370.7,172.02,370.13,172.11,369.55z"/> <path d="M644.43,367.21c0.31-0.2,0.31-0.51,0-0.81C644,366.83,644.23,367.31,644.43,367.21z"/> <path d="M676.51,156.35c0.1-0.31,0.2-0.51,0.2-0.81C676.61,155.84,676.3,155.94,676.51,156.35z"/> <path d="M740.34,360.08c0.33-0.22,0.35-0.81-0.1-0.81C740.04,359.57,740.14,359.88,740.34,360.08z"/> <path d="M225.87,308.77c-0.2-0.1-0.51-0.2-0.51,0.31c0.31,0,0.61,0.1,0.92,0.1C226.08,309.07,226.08,308.77,225.87,308.77z"/> <path d="M185.53,177.77c-0.14,0.11-0.37,0.16-0.59,0.16C185.26,178.1,185.39,177.95,185.53,177.77z"/> <path d="M637.9,312.17c0.16-0.3,0.31-0.59,0.43-0.86C638.07,311.57,637.98,311.86,637.9,312.17z"/> <path d="M240.53,312.53c-0.41-0.31-0.61,0.1-0.81,0.2C239.92,312.64,240.13,312.53,240.53,312.53z"/> <path d="M636.19,314.98l-0.1-0.1C636.13,315.12,636.11,315.03,636.19,314.98z"/> <path d="M636.12,315.05c-0.36,0.31-0.54,0.78-0.54,1.35C636.21,316.04,636.2,315.52,636.12,315.05z"/> <path d="M763.05,404.78c-0.1,0-0.31,0-0.51-0.1C762.74,404.78,762.84,404.78,763.05,404.78z"/> <path d="M856.92,89.56c0.2-0.41-0.1-0.61-0.41-0.71C856.62,89.15,856.51,89.46,856.92,89.56z"/> <path d="M735.86,284.03c0.2-0.1,0.41-0.2,0.51-0.41C736.17,283.72,736.07,283.82,735.86,284.03z"/> <path d="M741.36,283.52l0.1,0.1C741.54,283.46,741.58,283.56,741.36,283.52z"/> <path d="M742.89,282.91c-0.57,0-1.05,0.1-1.36,0.62C742.07,283.59,742.6,283.46,742.89,282.91z"/> <path d="M149.82,490.71c-0.22,0.22,0,0.36,0,0.51C150.04,491,149.82,491.07,149.82,490.71z"/> <path d="M399.98,497.13c0.41-0.61,0.41-1.02-0.41-1.02C399.47,496.51,399.57,496.92,399.98,497.13z"/> <path d="M841.95,104.93c0.2,0.31,0.51,0.2,0.71,0C842.07,104.63,842.18,104.7,841.95,104.93z"/> <path d="M258.96,268.45c0.2,0,0.37,0.04,0.51,0.07C259.34,268.43,259.25,268.24,258.96,268.45z"/> <path d="M259.68,268.55c-0.06,0-0.13-0.02-0.2-0.03C259.52,268.56,259.58,268.58,259.68,268.55z"/> <path d="M287.47,279.45c0-0.2,0.1-0.41,0.1-0.61C287.47,278.94,287.37,279.14,287.47,279.45z"/> <path d="M274.11,275.93c0.35,0.18,0.72,0.4,1.04,0.56C274.92,276.03,274.52,275.97,274.11,275.93z"/> <path d="M274.11,275.93c-0.34-0.19-0.26-0.18-0.39-0.05C273.85,275.9,273.98,275.92,274.11,275.93z"/> <path d="M260.39,269.47l-0.1,0.1C260.64,269.57,260.56,269.55,260.39,269.47z"/> <path d="M260.54,269.55c0.38,0.19,0.8,0.45,1.17,0.63C261.54,269.41,261.01,269.5,260.54,269.55z"/> <path d="M270.77,274.05c0.31,0.1,0.61,0.2,0.92,0.2C271.38,274.25,271.28,273.85,270.77,274.05z"/> <path d="M262.83,270.18c-0.5,0-0.8,0-1.12,0c-0.03,0-0.07,0-0.1,0C262.02,270.28,262.22,270.79,262.83,270.18z"/> <path d="M266.83,272.35c0.21,0.09,0.36,0.34,0.78,0.17C267.36,272.43,267.1,272.41,266.83,272.35z"/> <path d="M266.83,272.35c-0.04-0.02-0.08-0.03-0.13-0.03C266.75,272.33,266.79,272.34,266.83,272.35z"/> <path d="M264.26,271.3c0.41,0.1,0.71,0.1,1.02,0.2C264.97,271.3,264.77,270.79,264.26,271.3z"/> <path d="M266.6,272.19c-0.33-0.46-0.87-0.49-1.43-0.58C265.53,272.05,266.06,272.1,266.6,272.19z"/> <path d="M266.8,272.22c-0.07-0.01-0.14-0.02-0.2-0.03C266.71,272.37,266.7,272.32,266.8,272.22z"/> <path d="M201.57,289.44c0.36,0.19,0.75,0.42,1.09,0.59C202.58,289.36,202.08,289.45,201.57,289.44z"/> <path d="M201.34,289.32l-0.1,0.1C201.59,289.49,201.67,289.47,201.34,289.32z"/> <path d="M567.26,466.99c-0.57,0.29-0.77,0.76-0.63,1.4C567.34,468.15,567.16,467.48,567.26,466.99z"/> <path d="M204.02,290.58c0.02,0.05,0.04,0.1,0.06,0.16C204.22,290.61,204.22,290.66,204.02,290.58z"/> <path d="M202.56,290.14c0.55,0.09,1.01,0.26,1.47,0.45C203.77,289.97,203.12,290.14,202.56,290.14z"/> <path d="M566.62,468.39l-0.07-0.08c0,0.14,0.09,0.1-0.61,0.1c-0.23,0,0-0.21,0,1.29c1-0.33,0.37-1.28,0.71-1.28l-0.02-0.02v-0.02
		C566.63,468.39,566.63,468.39,566.62,468.39z"/> <path d="M283.81,290.75c0.31-0.1,0.71,0.1,1.02-0.51C284.31,290.14,283.91,290.14,283.81,290.75z"/> <path d="M363.02,464.24c0.2-0.51-0.1-0.61-0.41-0.71C362.71,463.73,362.61,464.04,363.02,464.24z"/> <path d="M362,461.9c-0.09-0.48-0.11-1.05-0.71-1.28C361.28,461.17,361.25,461.71,362,461.9z"/> <path d="M361.28,460.47c-0.02-1.08-0.33-2.05-1.42-3.25C359.96,458.64,360.27,459.75,361.28,460.47z"/> <path d="M361.29,460.61c0-0.05,0-0.09,0-0.14C361.18,460.57,361.15,460.58,361.29,460.61z"/> <polygon points="361.28,460.47 361.28,460.48 361.29,460.47 	"/> <path d="M586.81,475.54c0.41-0.1,0.31-0.51,0.41-0.71C586.91,474.93,586.7,475.03,586.81,475.54z"/> <path d="M587.32,474.93c0.1-0.31,0.51-0.51,0.2-0.81C587.21,474.32,587.21,474.62,587.32,474.93z"/> <path d="M778.73,473.81c0.41-0.31,0.41-0.51,0-0.81C778.42,473.2,778.42,473.5,778.73,473.81z"/> <path d="M361.9,462c0.09,0.48,0.12,1.05,0.63,1.36C362.6,462.8,362.55,462.27,361.9,462z"/> <path d="M362.51,463.53l0.1-0.1C362.48,463.34,362.55,463.32,362.51,463.53z"/> <path d="M769.16,404.37l-0.1,0.1C769.31,404.47,769.29,404.51,769.16,404.37z"/> <path d="M157.05,408.44c0.1-0.1,0.1-0.31,0.2-0.51C157.05,408.04,156.54,407.94,157.05,408.44z"/> <path d="M224.04,106.67c0.09,0.37,0.29,0.56,0.7,0.6C224.7,106.85,224.51,106.67,224.04,106.67z"/> <path d="M224.74,107.27c0,0.12,0.01,0.11,0.11,0.21C224.73,107.24,224.97,107.27,224.74,107.27z"/> <path d="M172.22,369.65c0.1-0.1,0.2-0.2,0.2-0.2C172.32,369.45,172.22,369.45,172.22,369.65z"/> <path d="M741.06,363.75c0.13-0.38,0.16-0.31-0.1-0.31L741.06,363.75z"/> <path d="M392.54,487.15c0,0.37,0.61-0.2-0.1-0.2C392.54,486.94,392.54,487.05,392.54,487.15z"/> <path d="M608.19,432.47c-0.2,0-0.31,0.1-0.31,0.41C607.88,432.74,608.19,432.73,608.19,432.47z"/> <path d="M391.87,486.32c0.11,0.27,0.31,0.52,0.67,0.52C392.45,486.48,392.27,486.29,391.87,486.32z"/> <path d="M391.73,486.33c0.05-0.01,0.09,0,0.14-0.01C391.83,486.2,391.84,486.23,391.73,486.33z"/> <path d="M663.17,99.54v0.1C663.3,99.64,663.3,99.67,663.17,99.54z"/> <path d="M391.83,486.13h-0.1C391.73,486.26,391.7,486.26,391.83,486.13z"/> <path d="M585.48,480.12v-0.1C585.35,480.15,585.35,480.12,585.48,480.12z"/> <path d="M784.63,436.55c0,0,0.1,0,0.2-0.2C784.73,436.44,784.63,436.55,784.63,436.55z"/> <path d="M771.91,437.87c0.05,0.05,0.1,0.1,0.16,0.15C772.02,437.94,771.99,437.87,771.91,437.87z"/> <path d="M772.31,438.17c-0.17-0.08-0.32-0.22-0.2-0.1C772.11,438.17,772.21,438.17,772.31,438.17z"/> <path d="M693.81,122.96c-0.03,0.03-0.06,0.06-0.09,0.09C693.77,123.04,693.81,123.02,693.81,122.96z"/> <path d="M693.51,123.26c0.28-0.28,0.24-0.2,0.1-0.2C693.51,123.06,693.51,123.16,693.51,123.26z"/> <path d="M567.46,466.89c-0.26,0.13-0.23,0.07-0.1,0.2L567.46,466.89z"/> <path d="M694.5,122.37c0.19,0,0.13-0.02,0.03-0.12C694.52,122.29,694.51,122.32,694.5,122.37z"/> <path d="M693.92,123.06c0.27-0.09,0.47-0.29,0.58-0.69C694.09,122.4,693.92,122.6,693.92,123.06z"/> <path d="M209.48,133.44c0.1-0.2,0.2-0.31,0.31-0.51C209.68,133.04,209.18,132.83,209.48,133.44z"/> <path d="M617.35,421.68v0.2C617.48,421.76,617.48,421.81,617.35,421.68z"/> <path d="M406.54,506.67c0.04,0.02,0.1,0.07,0.15,0.13C406.61,506.72,406.59,506.63,406.54,506.67z"/> <path d="M406.49,506.7c0.02-0.02,0.03-0.03,0.05-0.03C406.51,506.65,406.49,506.65,406.49,506.7z"/> <path d="M695.95,120.92c2.55-0.81,4.38-2.55,6.11-4.48c0-0.1-0.1-0.2-0.1-0.31c-4.05,0.77-5.89,5.16-6.01,4.68
		c-0.38,0.09-0.64,0.29-0.61,0.7C695.75,121.49,695.98,121.31,695.95,120.92z"/> <path d="M695.24,121.53c0,0.16-0.09,0.1,0.1,0.1C695.3,121.47,695.42,121.53,695.24,121.53z"/> <path d="M620.3,423.31c0.08-0.16,0.11-0.26,0.16-0.41C620.33,422.98,620,423,620.3,423.31z"/> <path d="M620.51,422.8c-0.02,0.04-0.03,0.07-0.04,0.1C620.51,422.88,620.53,422.85,620.51,422.8z"/> <path d="M694.63,122.34c0.27-0.09,0.55-0.29,0.59-0.7C694.81,121.68,694.63,121.89,694.63,122.34z"/> <path d="M789.11,430.03c0.5-0.5,0.53-0.08,0.1-0.51C789.21,429.72,789.11,429.83,789.11,430.03z"/> <path d="M399.37,496.01c0.1,0.41-0.1-0.1,0.31,0.1C399.57,495.8,399.37,495.7,399.37,496.01z"/> <path d="M396.92,491.42c0.13,0.26,0.08,0.26,0.2,0H396.92z"/> <path d="M602.08,429.93c0,0.1-0.2,0.2-0.1,0.31C601.98,430.34,602.08,430.91,602.08,429.93z"/> <path d="M663.88,98.83c0,0.19-0.09,0.1,0.1,0.1L663.88,98.83z"/> <path d="M663.27,99.64c0.36-0.18,0.55-0.37,0.59-0.69C663.46,99,663.36,99.27,663.27,99.64z"/> <path d="M739.32,281.48c-0.47,0-0.75,0.19-0.63,0.7C739.15,282.16,739.42,281.96,739.32,281.48z"/> <path d="M738.69,282.18c-0.04,0-0.06,0.01-0.08,0.01C738.72,282.31,738.73,282.34,738.69,282.18z"/> <polygon points="738.61,282.2 738.62,282.2 738.61,282.19 	"/> <path d="M738.61,282.2C738.56,282.23,738.61,282.27,738.61,282.2L738.61,282.2z"/> <path d="M738.31,282.5c0.08-0.08,0.17-0.17,0.25-0.25C738.4,282.24,738.31,282.4,738.31,282.5z"/> <path d="M743.19,282.6c-0.06,0.06-0.09,0.16-0.13,0.26C743.23,282.74,743.19,282.91,743.19,282.6z"/> <path d="M96.83,283.11C96.87,283.21,97.03,283.13,96.83,283.11L96.83,283.11z"/> <path d="M96.77,283.11c0.12,0-0.01,0.03,0.1-0.2C96.57,282.91,96.57,283.11,96.77,283.11z"/> <path d="M736.58,283.52c-0.26,0.13-0.23,0.07-0.1,0.2L736.58,283.52z"/> <path d="M741.16,284.03c0.1-0.2,0.1-0.31,0.2-0.51C741.36,283.72,740.75,283.52,741.16,284.03z"/> <path d="M259.17,284.74c-0.1,0.1-0.2,0.2-0.2,0.31C259.06,284.94,259.06,284.84,259.17,284.74z"/> <path d="M258.25,285.76c0-0.16,0.12-0.19-0.1-0.1L258.25,285.76z"/> <path d="M258.86,284.94c-0.26,0.17-0.52,0.36-0.58,0.66C258.6,285.49,258.77,285.3,258.86,284.94z"/> <path d="M278.84,287.78c-0.04,0-0.08,0.01-0.12,0.01C278.85,287.93,278.8,287.93,278.84,287.78z"/> <path d="M278.84,287.78c0.41-0.04,0.65-0.22,0.59-0.65c0.37,0.14,2.88-1.36,6.11-5.45c1.53-2.34-2.92,2.09-5.8,4.89
		c-0.28,0.27-0.38,0.45-0.35,0.53C279.12,287.2,278.88,287.39,278.84,287.78z"/> <path d="M201.34,289.32C201.03,289.02,201.23,289.32,201.34,289.32L201.34,289.32z"/> <path d="M267.52,289.32v-0.2C267.39,289.25,267.39,289.19,267.52,289.32z"/> <path d="M266.82,289.9c0,0-0.03,0.03-0.12,0.03c-0.02,0.1-0.05,0.14-0.04,0.14c0.01,0.01,0.04-0.02,0.14-0.04
		C266.8,289.93,266.82,289.9,266.82,289.9c0.32-0.06,0.5-0.33,0.59-0.68C267.15,289.4,266.88,289.59,266.82,289.9z"/> <path d="M276.68,289.32c0.12-0.2,0.18-0.14-0.1-0.1C276.71,289.35,276.45,289.55,276.68,289.32z"/> <path d="M266.09,290.75c0.27-0.09,0.46-0.27,0.57-0.67C266.32,290.17,266.09,290.3,266.09,290.75z"/> <path d="M208.16,290.85c-0.2,0-0.31-0.1-0.51-0.1c0.2,0.1,0.2,0.31,0.31,0.41C207.95,291.05,208.06,290.95,208.16,290.85z"/> <path d="M265.99,290.64c-0.26,0.17-0.52,0.36-0.58,0.66C265.72,291.19,265.9,291,265.99,290.64z"/> <path d="M265.38,291.46c0-0.06,0.02-0.1,0.03-0.15C265.26,291.38,265.23,291.31,265.38,291.46z"/> <path d="M265.28,291.36c-0.2,0.2-0.51,0.51-0.71,0.71C264.87,291.87,265.07,291.66,265.28,291.36z"/> <path d="M264.46,292.27l0.2-0.1C264.53,292.04,264.59,292.02,264.46,292.27z"/> <path d="M139.84,232.3c0.25-0.13,0.36-0.41-0.1-0.41C139.74,232.06,139.47,232.12,139.84,232.3z"/> <path d="M137.4,235.36c0.2-0.2,0.81,0,0.2-0.51C137.5,234.75,137.29,235.05,137.4,235.36z"/> <path d="M207.77,234.65c0.05,0.36,0.33,0.61,0.69,0.61C208.37,234.88,208.26,234.61,207.77,234.65c0,0-0.02-0.02-0.02-0.1
		c-0.05,0.05-0.03,0.03-0.1,0.1C207.74,234.63,207.77,234.65,207.77,234.65z"/> <path d="M208.36,235.36c0.1,0,0.2,0.1,0.31,0.1C208.56,235.36,208.46,235.26,208.36,235.36z"/> <path d="M194.9,227.39c-0.09-0.03-0.18-0.07-0.18-0.07S194.79,227.36,194.9,227.39z"/> <path d="M260.29,269.47l0.1-0.1C260.12,269.15,260.29,269.21,260.29,269.47z"/> <path d="M259.57,268.65c0.25,0.16,0.44,0.39,0.66,0.58C260.14,268.98,259.89,268.82,259.57,268.65z"/> <path d="M227.6,216.12c0,0.1-0.1,0.1-0.1,0.2C227.5,216.32,227.6,216.22,227.6,216.12z"/> <path d="M273.83,275.78c-0.1-0.1-0.2-0.2-0.2-0.2C273.62,275.68,273.73,275.78,273.83,275.78z"/> <path d="M286.66,280.06l0.1,0.1C286.76,279.89,286.87,279.84,286.66,280.06z"/> <path d="M286.79,279.92c0.19-0.19,0.42-0.42,0.58-0.58C287.03,279.42,286.84,279.59,286.79,279.92z"/> <path d="M286.53,280.09c-0.41,0.11-0.6,0.32-0.69,0.68C286.3,280.77,286.5,280.51,286.53,280.09z"/> <path d="M286.55,279.95c0,0.05-0.01,0.09-0.02,0.13C286.7,280.05,286.68,280.08,286.55,279.95z"/> <path d="M883.39,71.95c-0.1,0-0.1,0.1-0.1,0.2c0.1-0.1,0.2-0.2,0.31-0.31C883.6,71.84,883.39,71.84,883.39,71.95z"/> <path d="M638.53,311.21c-0.26,0.13-0.23,0.07-0.1,0.2L638.53,311.21z"/> <path d="M718.76,310.6c0.21-0.1,0.38-0.19,0.54-0.26c-0.19,0.06-0.41,0.12-0.65,0.16C718.66,310.75,718.51,310.85,718.76,310.6z"/> <path d="M719.3,310.34C720.27,310.04,720.62,309.72,719.3,310.34L719.3,310.34z"/> <path d="M718.62,310.74c-0.19,0.19-0.41,0.41-0.57,0.57C718.29,311.23,718.53,311.07,718.62,310.74z"/> <path d="M717.94,311.31l-0.1-0.1C717.87,311.44,717.8,311.45,717.94,311.31z"/> <path d="M637.69,312.72c0.1,0.1,0.01,0.02,0.2-0.55C637.4,313.05,637.64,313.09,637.69,312.72z"/> <path d="M670.29,162.77v0.1C670.43,162.87,670.42,162.89,670.29,162.77z"/> <path d="M636.39,314.67c0.1,0-0.1,0.1-0.1,0.2C636.39,314.77,636.49,314.67,636.39,314.67z"/> <path d="M670.7,162.36c-0.1,0.2-0.2,0.31-0.31,0.51C670.5,162.66,671.11,162.87,670.7,162.36z"/> <path d="M708.78,316.3c-0.37,0.09-0.63,0.27-0.61,0.67C708.51,316.87,708.69,316.67,708.78,316.3z"/> <path d="M707.36,317.73l0.1,0.1C707.42,317.63,707.5,317.73,707.36,317.73z"/> <path d="M707.45,317.71c0.69-0.1,0.46-0.85,0.72-0.59c-0.04-0.2,0.08-0.15-0.1-0.1C707.6,317.01,707.41,317.21,707.45,317.71z"/> <path d="M707.05,318.24c0.1-0.2,0.2-0.31,0.31-0.51C707.05,317.73,706.64,317.63,707.05,318.24z"/> <path d="M706.64,324.85c0.47,0,0.66-0.26,0.62-0.7c0.1,0.1,0.1,0.15,0.14-0.1C707.13,324.23,706.49,324.06,706.64,324.85z"/> <path d="M705.93,325.57c0.37,0,0.56-0.26,0.6-0.69C706.13,324.93,706.02,325.2,705.93,325.57z"/> <path d="M706.54,324.75c0,0.04-0.01,0.08-0.01,0.12C706.67,324.84,706.67,324.89,706.54,324.75z"/> <path d="M705.83,325.77c0,0,0-0.2,0-0.31C705.62,325.67,705.52,325.77,705.83,325.77z"/> <path d="M648.51,360.29c0.1,0,0.1-0.1,0.1-0.2c-0.32,0.32-0.31,0.34-0.31,0.2c-0.61,0.31-0.61,1.02-0.81,1.43
		c-0.2,0.31-0.41,0.61,0,0.92C648.94,361.83,647.95,360.29,648.51,360.29z"/> <path d="M644.94,301.44l-0.1-0.1C644.59,301.58,644.66,301.44,644.94,301.44z"/> <path d="M644.13,302.15c0.08-0.25,0.32-0.44,0.56-0.67C644.36,301.57,644.21,301.82,644.13,302.15z"/> <path d="M235.44,303.58l0.1-0.2C235.29,303.5,235.31,303.44,235.44,303.58z"/> <path d="M643.31,303.66c0.26,0.04,0.2,0.08,0.2-0.33C643.39,303.66,643.43,303.54,643.31,303.66z"/> <path d="M193.5,190.46c0,0.1-0.1,0.2-0.1,0.31C193.5,190.66,193.5,190.56,193.5,190.46z"/> <path d="M255.4,305c0-0.1,0.1-0.2,0.1-0.31C255.4,304.8,255.4,304.9,255.4,305z"/> <path d="M253.85,305.65c0.16-0.04,0.13-0.03,0.02-0.14C253.87,305.56,253.86,305.6,253.85,305.65z"/> <path d="M253.26,306.43c0.37-0.18,0.55-0.38,0.59-0.77C253.52,305.76,253.26,305.97,253.26,306.43z"/> <path d="M642.09,305.71c0-0.11,0-0.21-0.01-0.33c-0.2,0.46-0.62,0.49-0.8,1.04C641.58,306.22,641.79,305.92,642.09,305.71z"/> <path d="M640.46,307.65v0.2C640.59,307.72,640.59,307.78,640.46,307.65z"/> <path d="M705.32,308.36c-0.1,0-0.1,0-0.1,0.2C705.22,308.46,705.32,308.36,705.32,308.36z"/> <path d="M793.29,125.2l-0.1-0.1C793.21,125.24,793.12,125.25,793.29,125.2z"/> <path d="M711.43,31.53c0.04-0.01,0.08-0.03,0.12-0.05C711.5,31.37,711.56,31.4,711.43,31.53z"/> <path d="M641.99,304.19l-0.1,0.1C641.99,304.29,642.02,304.31,641.99,304.19z"/> <path d="M642,304.29c0.06,0.37,0.08,0.73,0.08,1.1C642.75,303.79,642.78,304.26,642,304.29z"/> <path d="M643.31,303.66c-0.03,0-0.68-0.08-0.71-0.08C642.94,303.91,642.23,304.43,643.31,303.66z"/> <path d="M642.6,304.19l0.1,0.1C642.7,304.03,642.72,304.12,642.6,304.19z"/> <path d="M195.02,84.78c0.14,0.14,0.13,0.1,0.07,0.04C195.07,84.81,195.04,84.79,195.02,84.78z"/> <path d="M216.61,111.35l-0.1-0.1C216.47,111.41,216.41,111.43,216.61,111.35z"/> <path d="M186.67,137.52l0.1,0.1C186.75,137.5,186.84,137.52,186.67,137.52z"/> <path d="M216.16,36.21c-0.03,0.03-0.06,0.1-0.06,0.1C216.22,36.19,216.22,36.21,216.16,36.21z"/> <path d="M181.28,39.16l-0.1-0.1C181.18,39.23,181.21,39.19,181.28,39.16z"/> <path d="M176.39,39.26c-0.07-0.07-0.05-0.05-0.1-0.1C176.25,39.25,176.24,39.21,176.39,39.26z"/> <path d="M191.36,30l-0.1-0.1C191.17,29.98,191.15,30,191.36,30z"/> <path d="M148.7,174.9c-0.47,0.05-0.6,0.57-0.6,0.69C148.73,175.59,148.92,174.83,148.7,174.9z"/> <path d="M565.83,469.74l0.1,0.1C565.93,469.62,565.95,469.74,565.83,469.74z"/> <path d="M691.27,233.73c-0.18,14.63-2.3,10.98-1.43,12.73c1.86-2.78,3.36-5.7,3.36-12.22c0-4.18,0.09-5.46-1.53-7.43
		C690.59,228.21,691.33,229.09,691.27,233.73z"/> <path d="M718.04,226.55c0,1.38,5.68-10.36,3.47-17.66c-0.21-1.28-1.32-1.31-1.32-0.81c-0.48,1.45,0.23,2.09-0.04,6.44
		C719.76,220.81,718.04,223.74,718.04,226.55z"/> <path d="M712.04,258.78c1.72,0.17,2.18-1.36,2.65-1.63c0.66-0.45,1.69-0.17,2.03-1.02c-0.96-2.21-4.97-2.82-7.63-1.22
		C711.85,257.21,710.84,257.73,712.04,258.78z"/> <path d="M680.37,268.25c1.24,2.9,3.2,5.36,5.19,8.04c-0.19-2.29,0.03-5.68-3.16-8.65C681.8,267.13,681.29,267.33,680.37,268.25z"/> <path d="M711.12,204.92c-0.85-2.76-8.26,4.67-9.77,6.93C704.1,210.52,709.49,206.75,711.12,204.92z"/> <path d="M693.37,224.25c0.45,0,1.2-3.37,1.47-4.16c0.34-1.01,1.37-3.34,1.93-4.79C693.17,214.82,691.48,223.99,693.37,224.25z"/> <path d="M723.34,276.8c6.54-8.95,5.26-13.12,0.03-2.58c-0.81,1.63-1.31,2.01-0.64,2.68C722.89,276.82,723.27,276.87,723.34,276.8z"/> <path d="M731.08,256.54c0-0.47,0.32-1.02-0.51-1.02C727.16,261.82,728.51,273.68,731.08,256.54z"/> <path d="M715.09,233.53c-1.02,2.04-1.12,3.36-0.2,6.62C715.89,234.15,715.98,233.67,715.09,233.53z"/> <path d="M731.89,243c-0.81,2.34-0.81,2.34-0.61,4.58C732.3,245.85,732.3,245.85,731.89,243z"/> <path d="M731.78,236.58c-0.29,0.87-0.41,1.61,0.1,2.55C732.29,237.6,732.29,237.6,731.78,236.58z"/> <path d="M731.28,251.55c-0.51,0.51-0.41,1.02-0.1,1.73C731.53,252.67,731.72,252.1,731.28,251.55z"/> <path d="M717.92,226.86c-0.49,0.22-0.5,0.73-0.56,1.17C717.31,228.44,717.7,228.07,717.92,226.86z"/> <path d="M717.94,226.71c-0.02,0.1-0.02,0.06-0.02,0.16C718.07,226.79,718.08,226.85,717.94,226.71z"/> <path d="M685.77,256.74c0-0.1,0.1-0.2,0.1-0.31C685.87,256.11,685.27,256.24,685.77,256.74z"/> <path d="M717.23,228.28c-0.16,0-0.6,0.34-0.61,1.19C716.62,229.92,717.21,229.26,717.23,228.28z"/> <path d="M717.23,228.28c0.03-0.02,0.06-0.04,0.1-0.05C717.2,228.1,717.23,228.09,717.23,228.28z"/> <path d="M716.45,229.79c-0.06,0.18,0.08-0.01,0.08-0.23C716.52,229.63,716.47,229.71,716.45,229.79z"/> <path d="M687.2,251.96h-0.2C687.12,252.22,687.07,252.21,687.2,251.96z"/> <path d="M727.82,267.94l0.1,0.1C728.05,267.78,728.09,267.81,727.82,267.94z"/> <path d="M737.08,199.42c-1.02-0.31-2.04-1.12-3.36-0.81c1.42,1.63,2.04,1.83,4.18,1.83C737.9,199.93,737.59,199.52,737.08,199.42z"/> <path d="M745.74,146.48c1.79,2.19,9.28,0.89,11.91-0.61C744.4,145.86,746.61,145.6,745.74,146.48z"/> <path d="M763.05,144.25c1.05,0.26,0.67,0.34,2.85-0.32C764.63,143.38,763.95,142.89,763.05,144.25z"/> <path d="M770.28,142.4c0.71,0.51,1.02,0,1.32-0.51C770.92,141.41,770.59,141.67,770.28,142.4z"/> <path d="M794,125.2c0.15,0,0.35-0.43,0.25-0.43c-0.68-0.3-0.66,0.01-0.87,0.43C793.47,125.11,793.74,125.2,794,125.2z"/> <path d="M662.15,46.49c0.41-1.53,0.73-2.85,1.02-4.28c2.04-10.17,8.55-12.03,8.55-13.74C671.61,28.58,660.45,33.54,662.15,46.49z"/> <path d="M659.71,60.44c0-0.11-0.18-0.92-0.2-1.02C659.34,59.82,659.25,59.98,659.71,60.44z"/> <path d="M676.2,211.13c0,0,0.2-0.1,0.41-0.31c-0.51-0.71-0.41-1.73-1.73-2.14C673.97,209.83,674.99,210.32,676.2,211.13z"/> <path d="M682.31,206.24c0.13,0,0.11,0,0.11,0C682.59,206.24,682.49,206.15,682.31,206.24z"/> <path d="M683.94,31.32c-0.8-1.28-2.17-1.39-2.17-1.51C681.64,29.75,682.35,31.32,683.94,31.32z"/> <path d="M710.12,30.51c0.11,0-0.34-0.66-0.94-0.31C709.37,30.67,709.76,30.53,710.12,30.51z"/> <path d="M690.91,32.65c0.31,0-0.06-0.42-1.22-0.59C689.9,32.26,689.79,32.65,690.91,32.65z"/> <path d="M689.64,31.93c-0.05,0.05-0.03,0.03-0.1,0.1C689.75,32.09,689.67,32.04,689.64,31.93z"/> <path d="M706.13,31.22c0.9,0,0.58,0.03,0.46-0.09C705.77,30.31,705.6,31.22,706.13,31.22z"/> <path d="M710.2,30.61c-0.05,0.06-0.03,0.04-0.09,0.1C710.25,30.71,710.22,30.68,710.2,30.61z"/> <path d="M711.63,31.32c-0.24-0.71-0.68-0.74-1.42-0.63C710.32,31.44,710.9,31.45,711.63,31.32z"/> <path d="M689.55,31.93c0.18,0-0.17-0.41-1.08-0.59C687.82,31.34,688.56,31.93,689.55,31.93z"/> <path d="M688.11,31.23c-0.11,0.11-0.03-0.51-0.92-0.2C687.3,31.08,688.24,31.5,688.11,31.23z"/> <path d="M691.17,32.95c-0.05-0.1-0.1-0.2-0.2-0.2C690.96,32.75,691.13,32.91,691.17,32.95z"/> <path d="M693.1,46.29c0.31,0.81,0.92,1.02,2.04,1.12C695.14,47.19,693.99,46.29,693.1,46.29z"/> <path d="M696.77,20.22c-2.89-0.48-0.89,0.18-0.69,0.19C696.28,20.43,696.5,20.38,696.77,20.22z"/> <path d="M156.89,66.74c-2.27,0.81,2.6,0.09,2.69,5.26c0.01,0.49,2.6,0.42,3.47-2.2c1.12-0.31,2.44,0.31,3.16-1.63
		C164.74,68.18,161.15,65.22,156.89,66.74z"/> <path d="M193.39,85.08c-0.98,7.82,0.07,4.53-11.61,12.52c-0.1,0.1-0.1,0.41-0.31,0.92c11.56-5.25,13.93-5.51,13.37-13.22
		C194.78,84.32,195.18,84.57,193.39,85.08z"/> <path d="M154.09,64.82c0.34,2.39,2.46-0.12,6.33-1.69c2.8-1.14,3.92,0.24,5.34,0.25C170.27,63.44,160.47,57.17,154.09,64.82z"/> <path d="M185.72,134c1.71,0.17,1.39-8.1,2.48-11.56C186.97,124.09,184.2,133.85,185.72,134z"/> <path d="M181.37,141.7c0.04,0.26,0.18,0.46,0.51,0.6c1.21-1.94,1.92-3.36-3.05-3.36C182.16,141.06,181.09,139.81,181.37,141.7z"/> <path d="M205.82,99.44c-0.2,0.61-0.41,1.02,0.1,1.63C206.15,100.39,206.3,99.92,205.82,99.44z"/> <path d="M192.95,98.8c0.02,0.28,0.09,0.6,0.24,1.05C193.44,97.57,192.9,97.96,192.95,98.8z"/> <path d="M186.59,138.25c0.24,0.03,0.34-0.17,0.49-0.33C186.87,138.14,185.77,138.15,186.59,138.25z"/> <path d="M410.06,549.36c1.28,0.64,11.39-0.36,12.87,0.61c-0.1,0-10.74,0.02-10.04,1.19c0.65,1.57,2.91,0.75,2.58,1.54
		c0,0.1-0.59,0.39-1.64,1.45c3.96,2.38,10.24,1.45,14.15,1.63c0.09-0.1,2.24-2.49,2.34-2.55c-0.59-2.67-5.86-2.32-7.07-3.04
		c6.31,0.28,7.04,1.45,7.58,0.19C431.3,547.64,407.4,544.93,410.06,549.36z"/> <path d="M413.52,543.04c-1.02,0.13-1.83,0.41-2.34,2.04c15.25-0.76,16.89-1.03,19.45,1.22c0.18,0.09,0.5,0,0.71,0
		C433.08,541.06,419.02,542.36,413.52,543.04z"/> <path d="M427.67,578.27c-3.53-1.02-5.73-2.91-7.84-3.87c-6.25-2.84-13.12,2.86-9.47,4.38c1.86-0.13,1.93-1.48,4.94-2.72
		c5.03-1.68,4.71,0.36,10.54,2.82C428.18,579.87,429.98,578.94,427.67,578.27z"/> <path d="M425.23,558.93c0.98-0.02,1.41-1.57-0.31-2.14c-2.55-0.62-5.08-0.66-7.64-0.1c-0.51,0.11-1.12,0.41-1.22,1.63
		C419.44,558.74,422.88,558.97,425.23,558.93z"/> <path d="M422.07,562.59c3.01,0,2.98-4.11-6.41-1.83C419.52,562.49,420.54,562.8,422.07,562.59z"/> <path d="M218.64,38.86c2.75,2.34,4.72,5.18,5.6,8.76c1.92,7.74,1.61,6.75,1.69,5.83c0.93-10.19-7.18-17.14-9.73-17.14
		C216.61,37.53,217.73,37.94,218.64,38.86z"/> <path d="M228.52,67.26c0,0.41-0.1,0.81-0.1,1.12C228.72,68.08,229.03,67.77,228.52,67.26z"/> <path d="M199.81,39.06c-0.01,0.04-0.03,0.07-0.04,0.1C199.95,39.16,199.94,39.19,199.81,39.06z"/> <path d="M198.59,39.88c0.5-0.1,0.91-0.12,1.14-0.61C199.8,39.05,198.8,39.1,198.59,39.88z"/> <path d="M199.91,39.16c0.34-0.13,0.44-0.18,0.82-0.31C200.22,38.55,200.11,38.86,199.91,39.16z"/> <path d="M182.01,38.71c-0.18-0.08-0.24,0.06-0.63,0.45c0.44-0.22,0.64,0.17,0.8-0.12C182.24,38.92,182.14,38.78,182.01,38.71z"/> <path d="M176.52,39.06c-0.06,0.18,1.11,0.29,1.27-0.61C177.18,38.45,176.73,38.43,176.52,39.06z"/> <path d="M177.87,38.4c-0.02-0.02-0.03-0.03-0.05-0.05c0,0.04-0.01,0.07-0.02,0.1C179.7,38.45,178.44,37.26,177.87,38.4z"/> <path d="M197.05,40.59c0.56-0.12,1.01-0.1,1.27-0.62C197.79,39.88,197.26,40.17,197.05,40.59z"/> <path d="M198.32,39.97c0.05,0.01,0.1,0,0.15,0.01C198.28,39.78,198.43,39.97,198.32,39.97z"/> <path d="M196.89,40.71c-0.01,0.03-0.03,0.05-0.03,0.08C196.95,40.7,197.03,40.56,196.89,40.71z"/> <path d="M193.39,55.25c0.71-0.2,1.32-0.41,1.53-1.22C193.94,54.22,193.59,54.27,193.39,55.25z"/> <path d="M190.74,29.9c3.64,0,1.11-1.43,0-0.1C190.66,29.92,190.58,29.9,190.74,29.9z"/> <path d="M192.63,27.9c0.27-0.22,0.42-0.18-1.78,0.26C191.55,28.29,192.12,28.32,192.63,27.9z"/> <path d="M802.14,541.62c-12.99-4.66-19.66,1.78-16.51,1.13c0.48-0.1,1.01-0.45,1.45-0.01c-0.41,1.02-1.83,0.92-2.34,2.44
		c10.72,0,14.38-0.45,17.51,1.83c1.02-0.51,1.23-1.23,0.81-1.83C802.36,544.16,802.76,542.84,802.14,541.62z"/> <path d="M791.73,546.03c-1.52-0.08-3.04,0.5-4.65,1.39c0.61,1.02,2.34,0.2,2.85,1.53c-0.31,0.51-1.32,0.61-1.22,1.63
		c2.44,1.32,5.29,0.92,7.94,1.43c1.6,0.3,2.92,0.39,4.48-0.1C801.63,548.52,803.21,546.61,791.73,546.03z"/> <path d="M795.42,553.12c-2.78-0.51-4.52-0.57-6.82,0.81c2.85,1.63,4.99,2.04,9.37,2.04c0.81,0,1.73,0.1,2.34-1.12
		C799.09,553.02,797.16,553.33,795.42,553.12z"/> <path d="M793.49,557.09c-3.01,0.6,3.16,4.54,4.07,1.43C796.69,557.53,795.53,556.94,793.49,557.09z"/> <path d="M109.19,552.82c-2.29-1.43-7.61-3.68-8.71-2.92c-0.41,0.28-0.57,0.95-0.57,2.11c2.98-0.89,8.69,3.43,9.67,2.04
		C109.8,553.53,109.6,553.02,109.19,552.82z"/> </g> </svg> 