<?xml version="1.0" encoding="utf-8"?> <!-- Generator: Adobe Illustrator 23.0.1, SVG Export Plug-In . SVG Version: 6.00 Build 0)  --> <svg version="1.2" baseProfile="tiny" id="Layer_1" xmlns="http://www.w3.org/2000/svg" xmlns:xlink="http://www.w3.org/1999/xlink" x="0px" y="0px" viewBox="0 0 900 600" xml:space="preserve"> <g> <path d="M609.4,302.6l0.1-0.1C609.37,302.49,609.44,302.4,609.4,302.6z"/> <path d="M701.79,565.8l-0.31-0.1C701.52,565.77,701.63,565.76,701.79,565.8z"/> <path d="M579.29,593.13c0.02-0.09,0.15-0.1-0.11-0.1C579.22,593.07,579.19,593.04,579.29,593.13z"/> <path d="M751.02,16.38c-1.33,3.77-41.63,499.09-42.65,502.66c-11.23-5.8-9.33-0.18-10.59-6.06c-1.17-5.49-5.05-7.38-10.17-10.48
		c-3.95-2.39-8.37-3.78-16.75-3.08c-7.06,0.59-11.69,6.67-13.87,13.46c-1.42,4.41,6.17,21.76-47.38-116.75
		c5.47-5.47,3.44-11.13-1.64-13.67c-4.72-2.36-4.6,0.62-3.08,0.62c3.04,0.19,7.78,3.84,4.83,9.15c-0.31-4.62-0.31-4.62-4.21-7.81
		c-1.54,0.1-2.79,0.92-3.7,2.36c-2.43,3.87,1.67,6.9,2.47,8.02c-2.26-0.72-2.64-1.04-3.6-2.88c-1.4-2.69-1.75-4.62-1.03-7.5
		c0.62-0.92,1.85-0.51,2.67-1.34c-0.1-0.41,0-0.92-0.21-1.23c-8.98-16.9-7.39-12.21-6.06-16.65c1.73-0.38,1.05,0.29,6.27,14.08
		c0.7,1.85,2.05,2.09,1.03-3.49c-1.72-9.39-3.67-11.47-3.7-13.87c-0.11-9.89-5.48-13.94-4.83-16.96c-0.82-0.72-1.44-1.13-2.36-0.51
		c5.18,14.1,5.77,15.68,3.49,16.44c-1.69-3.1,0.63-1.89-4.42-13.67c-1.44-0.31-2.36,0.92-3.6,0.82c-1.67-0.56-1.36-4.4-5.55-6.68
		c-0.31-0.21-0.51-0.41-1.03-0.72c4.11-1.75,7.3-4.83,11.82-5.04c-0.33-3.61-0.73-1.8,0.72-6.27c2.1-6.45-1.65-7.83,1.44-13.36
		c3.03-5.43,2.38-8.02,2.16-9.97c-2.4,0-1.35,0.68-3.29-7.3c-0.4-1.64-6.67-21.65-7.91-25.8c-1.11-3.7-2.88-0.94-2.88-4.42
		c0-5.55-0.48-11.12,1.44-16.44c0.69-1.93,0.75-4.62,1.34-6.37c0.51-1.95,1.23-3.91,1.85-5.96c0.62,0.1,1.03,0.21,1.44,0.41
		c0.72-0.41,1.13-0.92,1.13-1.64c-0.62-0.1-1.23,0.1-1.85-0.41c0-1.85,1.69-3.18,2.06-5.04c0.35-1.74,0.82-3.49,1.64-5.04
		c1.67,0.24,0.12,1.03,1.95,5.14c2.72,6.12,6.3,9.58,7.81,24.36c3.91,38.23,0.98,31.2,5.86,43.16c0.29,0.7,0.32,1.59,1.36,1.83
		c0.25-0.89-0.03-1.87-0.23-2.75c-2.88-10.08-2.25-2.31-5.55-45.63c-0.58-7.57-5.95-18.7-9.04-25.69c-0.32-0.72-0.62-1.54-1.54-1.75
		c1.93-9.27,3.12-5.91,1.03-17.78c-0.11-0.62-0.62-1.23-0.92-1.85c4.21-2.26,5.23-2.89,7.19-5.24c2.76-3.3,4.62-6.99,5.14-11.3
		c0-13.63-1.81-20.11-13.36-28.78c-11.69-8.77-15.22-10.5-17.68-12.95c-10.1-10.1-12.06-9.02-13.98-12.85
		c0-5.14,0.82-10.59,1.75-16.14c8.18-0.41,6.7,2.45,15-0.31c4.34-1.44,2.74-6.34,2.57-7.5c0.1-1.03,1.13-1.64,1.13-2.67
		c0.1-1.03-0.51-1.85-0.62-2.77c2.39-3.34,1.23-0.19,1.23-6.78c1.33-1.06,4.5-1.38,3.8-5.55c-1.75-2.67-3.6-5.65-3.91-9.25
		c0.62-0.51,1.13-0.92,1.64-1.34c0-1.08-2.25-0.52-0.92-1.85c4.39-5.07,1.62-10.65-2.57-21.68c-3.43-9.05-10.85-9.9-13.57-11.2
		c-6.7-3.22-17.55-5.25-26.82-3.29c-4.54,0.96-4.48,2.21-6.17,3.29c-11.07,7.09-2.73,6.19-15.31,4.42c-4.99-0.7-8.08,0.91-9.97,4.52
		c-5.04,9.61-8.54,10.46-7.09,19.01c1.58,9.34,2.97,8.63,3.29,13.26c0.78,11.24,4.59,17.73,3.8,26.62
		c-0.5,5.58-2.56,10.01-2.16,12.54c1.06,0.6,1-0.31,2.77-4.62c0.31,4.62-0.62,8.32-1.75,12.13c4.48-3.06,5.68-10.62,7.4-16.75
		c0.99,6.91-3.67,19.86-1.54,21.27c2.63-1.81,6.84-12.29,7.3-22.1c-1.75,5.45-2.67,10.48-5.14,15.21
		c-0.38-1.04,2.55-18.57,2.26-22.4c-1.65-21.56-1.38-11.81-1.75-20.35c4.83,17.71,5.5,24.94,5.55,25.08c1.29,2.89,0.61,5.93,0,11.41
		c-0.35,3.11,1.23,1.6,1.23,4.32c-0.1,0.92,0.92,0.92,1.44,1.64c-0.31,1.13-1.44,1.44-2.26,2.06c-3.04,2.03-0.74,1.9-3.8,5.45
		c-19.08,22.1-11.98,20.14-13.77,32.17c-0.89,5.97,0.55,9.39,0.31,16.85c-0.33,10.29,3.4,26.19,5.96,32.37
		c2.57,6.2,5.89,11.86,7.09,21.07c0.23,1.74,1.44,2.98,1.85,3.8c0.51,1.64-0.51,1.85-0.72,2.77c0.3,4.86,2.33,5.03,1.75,8.22
		c-3.78,15.14-8.49,17.11-22.2,38.33c-11.1,17.2-5.24,42.91-5.24,43.06c0,6.56,6.78,16.24,12.23,21.07
		c7.27,6.44-0.07,14.28,15.62,52.52c4.81,11.73,3.93,11.25,5.24,23.02c0.26,2.38,1.25,4.52,0,6.37c-1.85,2.75-1.58,6.65-4.01,11.51
		c0.21,1.13,0.21,2.06-0.1,3.19c-11.26,41.29,9.76,64.85,9.76,88.79c-0.92-0.21-0.72-1.52-1.75-1.64
		c-2.73-0.33-3.03,10.56-7.61,16.96c-2.53,3.54-1.62,7.76-4.62,9.35c1.61,4.83-0.63,3.17,1.44,5.24c1.44,0.82,2.05,2.8,3.8,3.29
		c6.04,1.69,0.75-1.26,12.33,3.8c0.62,0.21,1.75-0.51,2.88,0.1c1.13,1.13,1.34,2.88,1.85,3.8c6.08,6.31,8.82,10.62,16.96,11.61
		c10.3,1.26,13.62,0.92,17.78-0.21c21.89-5.93,17.06-7.13,18.81-11.51c3.49-1.13,7.28-0.94,10.17-3.49
		c1.64-1.45,3.49-2.57,4.32-4.93c-0.72-2.16-0.21-4.62-0.1-6.89c-4.24-4.63-5.58-3.8-15.31-9.04c-3.55-1.91-6.81-6.4-14.18-10.38
		c-6.31-3.4-1.57-8.09-12.33-16.85c-0.51-0.42-1.13-0.92-1.34-1.13c-0.92-0.41-1.44,0.41-2.16-0.21c-3.41-5.35-0.92-26.81-0.92-40.9
		c0-6.18,3.49-17.59,5.04-30.52c0.47-3.89,1.96-1.07,4.11-15.21c0.87-5.73,1.05-4.27-0.31-6.99c3.65-3.91,5.11-5.77,5.76-9.76
		c0.88-5.42,1.02-14.49,3.29-21.38c8.84-26.81,6.63-37.33,6.68-54.62c2.53,6.64,2.98,8.83,5.45,9.61c2.57,6.17,6.47,11.3,9.04,17.16
		c-0.96,1.44-2.84,1.54-2.67,4.73c0.25,4.9,2.17,10.69,6.99,10.79c2.23,0.05,2.19,1.34,2.88,3.08
		c18.1,45.96,45.01,116.65,47.17,121.99c6.22,15.4,8.29,12.51,5.96,16.24c-6.31,2.71-10.18,6.73-11,13.77
		c-0.51,4.41,2.15,7.01,1.64,9.04c-0.2,1.21,4.38,8.79,10.48,13.87c2.39,2,4.86,2.96,5.65,3.91c3.23,3.82,20.31,5.46,25.9-11.3
		c17.19,0.89,8.97,4.15,11.2,9.35C705.91,577.63,752.93,17.34,751.02,16.38z M580.31,338.98c-1.47,3.9,0.7,7.1-5.98-3.43
		c-0.26-0.41-6.19-10.17-6.35-10.65c1.97-9.17,0.71-3.38-1.03-1.64c-2.26-7.4-3.49-14.59-4.93-22.1c4.93,0.1,9.46-0.21,13.57-3.8
		c1.64,15.06,4.8,26.85,4.83,27.03C582.55,339.07,582.63,337.82,580.31,338.98z M584.22,274.54c4.32,12.29,7.13,17.75,8.43,24.05
		c0.85,4.11,1.75,8.22,3.19,12.02c0,4.26-4.69,6.68-3.29,12.74c0.18,1.65,0.5,3.35-0.51,5.65c-2.2,5,0.86,4.41-4.32,5.96
		c-1.03,0.41-1.95,1.23-3.29,1.13c-10.91-49.11-2.6-52.11-1.44-63.51C583.81,273.2,584,273.93,584.22,274.54z M582.47,249.26
		c-2.53,16.86-0.09,23.43-3.49,28.67c-0.59,0.91-1.36,7.17-1.64,8.43c-0.85,3.72-2.41,4.67-3.08,8.74
		c-3.73,3.73-8.14,3.4-13.15,3.08c-3.91-6.7,0.92-6.04-13.22-47.15c-0.87-2.52-1.91-5.02-3.53-7.42c1.23-4.52,0.62-9.15,1.75-13.67
		c2.7-0.66,41.5-9.52,44.12-7.94C592.63,223.45,583.66,241.32,582.47,249.26z M594.39,165.71c0.1,0.1,4.29,4.91,5.33,7.09
		c10.22,21.38-1.68,27.6-8.32,33.3c0,16.1,1.06,13.73-4.83,14.08c-20.94,1.25-38.14,8.02-40.49,5.96
		c0.99-26.8-2.62-31.21-1.44-32.68c1.05-1.32,0.31-2.77,0.82-4.11c2.47,0.62,3.7-2.36,5.76-1.75c8.32-6.33,5.3-15.29,6.89-20.04
		c-7.55-21.8-32.11-29.8-31.76-34.02c1.2-0.66,1.88-3.73,2.85-2.96c3.72,2.94,14.37,11.44,18.74,15.81
		c31.89,31.89,45.67,23.09,42.14,19.12c-0.19-0.25,0.87,0.95-5.87-6.26C585.84,159.24,590.92,164.19,594.39,165.71z M525.55,104.15
		c-0.64,0.81,0.01,1.55,0.02,2.34c0.01,0.68-0.62,1.37-1.57,1.05c-0.41-2.92,0.3-5.7,0.22-8.84
		C525.39,102.25,526.2,103.32,525.55,104.15z M525.02,93.57c0.66-0.17,0.99,0.35,1.13,1.03c-1.66,0.45-0.79-1.13-1.34-1.13
		C524.69,93.21,525.02,93.03,525.02,93.57z M526.97,107.43c1.72,3.94,0.89,14.47,0.41,18.5c-0.2,1.65-0.62,3.19-2.06,4.42
		C524.71,112.31,522.98,109.65,526.97,107.43z M534.48,102.22c-0.1,0-0.49,0.17-2.67,0.17c-1.03,0-1.75-1.23-2.88-0.92
		c0,0.51,0,0.92,0,1.54c-1.61-2.31-1.96-2.84-1.75-4.83C532.1,101.08,534.48,99.94,534.48,102.22z M530.16,96.33
		c0.6,0.13,0.97-0.28,0.97-0.47C537.86,102.65,521.46,93.72,530.16,96.33z M565.78,144.38c0.06,0.06,0.05,0.07,0.35,0.37
		C565.86,144.57,565.24,143.84,565.78,144.38z M565.14,143.75c-0.19-0.07-0.28-0.22-0.32-0.42
		C565.19,143.7,565.43,143.9,565.14,143.75z M563.59,142.56c0.39,0.04,0.72,0.23,1.01,0.54
		C563.76,143.19,562.99,142.49,563.59,142.56z M563.15,142.37c-0.13-0.15-0.29-0.32-0.47-0.47
		C562.96,141.94,563.14,142.1,563.15,142.37z M561.95,141.16c0.26,0.05,0.46,0.24,0.46,0.55
		C561.89,141.54,561.72,141.09,561.95,141.16z M577.03,61.5c0.71,0.52,1.33,0.9,1.82,1.26c1.13,0.84,2.23,10.3,4.14,14.97
		c-1.24,3.41-3.6,1.46-3.6,5.65c0,2.34,1.16,6.87,3.49,10.48c0.92,1.42,1.14,1.42,0.72,3.08c-0.62,0.21-1.34,0.41-1.95,0.72
		c-2.45-0.98-2.94-0.9-3.78,0.79c-0.15,0.3-0.39,0.18,1.34,0.76c0.64,0.22,0.02,2.08,1.06,3.73c0.02,0.07,0.3,0.41,0.35,0.47
		c-1.98,3.96-7.03,0.03-7.81,2.36c1.96,2.22,4.51-0.03,6.23,1.82c1.86,2-1.19,2.29-1.19,4.14c1.13,3.8,1.13,3.8-0.82,6.27
		c-3.19,0.51-6.48,1.35-9.76-0.1c-1.04-0.46-1.06,0.02-8.22-0.82c-0.24,0-0.37,0.14-0.24,0.41c0.33,0.8,1.37,0.7,1.57,1.54
		c-3.61,14.63-1.74,17.58,0.63,24.67c1.69,0.56,9.28,6.46,10.69,7.61c0.73,0.6,1.24,1.43,1.95,2.06
		c1.09,0.95,17.14,14.49,13.67,14.49c-0.62-0.27-1.12-0.66-1.58-1.08c-4.39-3.99-1.09-0.63-1.6,0.77
		c-10.11,0-38.09-24.87-38.95-25.9c-4.71-5.64-8.59-7.99-16.03-13.57c0.72-3.19,1.34-6.06,2.06-9.15c2.41-1.67,2.01-3.54,3.23-4.93
		c0.34-0.34-0.25,0.42,0.72,0.42c0.03,0,0.05-0.03,0.06-0.08c0.04,1.47,2.77,2.83,2.05,9.32l0.01-0.01
		c1.49-1.49,1.48-6.06-1.76-9.24c-0.1-0.1-0.2-0.01-0.3-0.1c0-0.19-0.17-0.58-0.66-0.6c-0.92-2.65-4.38-5.44-3.25-7.51
		c2.74-2.06,2.37-1.11,3.29-3.72c1.38,1.02,0.41,2.74,5.04,1.36c1.65-0.62,1.45-2.14,1.19-2.51c-0.87-1.2-1.27,0.9-2.63,0.76
		c-2.24-0.67-2.63-2.51-7.81-10.79c-0.34-0.55-0.36-1.18,0.1-1.64c3.08,0.86,1.63,0.15,2.47,3.49c0.33,1.32,2.15,3.71,4.01,2.36
		c0.33-2.3-2.35-2.22-1.64-6.78c0.95-0.53,2.17-3.4,2.95-1.25c0.51,1.42-1,1.36-1.19,3.03c0,0.46,0.3,0.35,1.18,3.95
		c0.54,2.2,2.54,0.46,3.02-1c0-1.69-1.85-1.77-2.26-3.08c1.92-3.85,0.13-4.89-2.88-7.62c-2.62-2.1-3.68,2.77-5.04,4.21
		c-0.84-3.03,4.59-10.32,7.91-4.11c1.32,2.46,5.61,5.63,7.71,1.64c-1.48-0.2-2.81,0.09-4.11-0.51c4.55-0.62,5.92-2.97,6.78-3.19
		c2.36-0.92,4.21-2.67,6.27-3.91c0.29-3.99,1.69-3.85,2.47-4.62c1.32-4.84,2.26-5.69,1.66-8.84c-2.62,0-4.85-0.13-7.11-1.75
		c5.04,1.36,8.85-2.45,12.23,0.72c1.22-0.41,2.14-1.02,2.95-1.92c0.09,0.27,1.15,0.22,3.83,2.23
		C573.44,61.6,575.39,62.11,577.03,61.5z M531.08,115.35c0-0.92,0-2.06,0-3.49C531.6,114.01,531.5,114.01,531.08,115.35z
		 M532.83,87.91c0.72-1.85,1.23-2.98,2.57-3.6c0.21,0.41,0.31,0.72,0.51,1.03C535.3,86.37,534.58,87.09,532.83,87.91z M526.15,72.49
		c-0.15,0.15-0.5,0.8-0.5,0.8c-1.7-0.34-2.81-1.54-4.12-2.75c0.79-6.69,1.56-5.07,2.98-4.21c1.6,1.12,7.94,5.72,9.87,5.45
		c0-0.1,0-0.51,0.1-0.51c2.55,0,2.08-0.06,2.36,0.16c1.47,1.17,4.89,1.08,6.39,2.75c1.35,1.5,9.69-0.47,8.54,0.27
		c-3.23,2.08-7.29,1.26-10.62,2.88C535.91,76.81,531.29,74.24,526.15,72.49z M552.15,69.72c0.85,0,2.64-2.21,5.76-1.64
		c-0.72,1.23-0.82,1.34-1.23,1.44C553.24,70.08,552.15,70.7,552.15,69.72z M567.83,60.47c-0.42,0.02-0.79,0.09-0.99,0
		c-5.65-3.82-9.88-4.74-10.51-5.25c-1.04-0.85-0.1-1.29,0.85-0.81C558.11,54.78,567.19,58.78,567.83,60.47z M564.9,54.84
		c0.42,0,0.85,0.14,1.12,0.47C566.15,55.31,565.33,55.39,564.9,54.84z M556.37,56.36c-0.21,0.1-0.41,0.41-0.51,0
		C555.96,56.36,556.16,56.36,556.37,56.36z M570.45,59.22c0-0.4,1.23,0.5,1.23,1.34C570.25,60.66,570.25,60.54,570.45,59.22z
		 M570.01,58.57c0.06,0.05,0.21,0.21,0.23,0.24C570.05,58.7,569.82,58.37,570.01,58.57z M568.46,57.02
		c0.73,0.61,0.35,0.48,0.72,0.63c0.25,0.1,0.41,0.26,0.5,0.5C569.11,57.96,568.27,56.84,568.46,57.02z M568.21,56.76
		c0,0.1-0.77,0.03-1.16-0.5C567.53,56.25,567.95,56.35,568.21,56.76z M567.26,52.34c-0.9-0.22-2.38-0.89-3.09-1.92
		C566.31,50.7,566.36,50.76,567.26,52.34z M562.5,49.51c0.17,0.33,1.15-0.17,1.44,0.77c-0.82,0-0.78-0.09-1.41-0.71
		c-0.23-0.08-1.11-0.2-1.64-0.31C561.96,49.07,562.2,49.15,562.5,49.51z M559.86,48.55c-0.37,0.12-0.31,0.14-0.31,0
		C559.55,48.41,559.48,48.42,559.86,48.55z M559.66,50.09c-0.07-0.07-0.25-0.1-0.31-0.1C559.35,49.71,559.95,49.79,559.66,50.09z
		 M557.5,47.62c0.11,0.06,0.12,0.11,0.06,0.15C557.24,48.01,556.95,47.62,557.5,47.62z M551.74,48.13c1.11,0.09,2.47-0.3,3.48,0.71
		c0.1,0.1,1.97,0.22,2.48,0.22c-1.07,0.65-1.62,0.22-2.47-0.21C551.62,48.85,551.51,48.13,551.74,48.13z M551.74,50.6
		c-0.67,0.3-1.36,0.23-2.06,0C550.36,50.41,550.99,50.38,551.74,50.6z M549.99,47.52c1.12,0,3.31,0.96-1.95,0.51
		C542.33,48.03,544.39,47.52,549.99,47.52z M539.51,48.34c0.92,0.21,1.85,0.51,2.98,0.72c-2.03,1.52-4.98,1.01-4.03,1.32
		c7,2.25,15.48,0.52,15.74,3.47c0.12,1.3-2.55,0.41-3.67,1.04c-0.55,0.31-3.24-0.48-3.83-0.69c-13.44-4.68-9.36-1.75-11.2-3.6
		C536.63,49.27,538.07,48.75,539.51,48.34z M526.54,59.45c0.21-0.21-0.88-0.68-0.49-1.96c6.97-5.81,4.67-5.41,19.41-2.95
		c3.07,0.34,3.17,1.74,5.45,1.23c0.62-0.1,1.23,0,1.44,0.72c2.99,0.66,1.68,0.99,3.08,1.34c-0.28,0.11-0.46,0.09-0.6-0.01
		c-0.53-0.53,0.5-0.4-2.38-0.4c0-0.22,0-0.5,0-0.72c-2.48,0.5-2.73,0.35-2.01,0.49c1.55,0.31,1.88,0.22,2.07,0.4
		c0.49,0.55,1.18,0.75,1.96,1.14c4.21,2.1-3.92-0.18-5.2-0.18c0,1.29-0.69,0.99-3.6-0.01c-6.06-2.08-17.51-6.45-15-1.03
		c2.84-0.57,16.86,3.13,20.25,5.45c-1.44,0.1-2.16,0.92-2.77,2.16c9.98,1.25,9.93-2.25,10.38-0.62c0.21,0.62-0.1,1.23-0.62,1.85
		c-1.34,0.62-2.57-0.31-4.01-0.31c-8.13,2.59-11.33,2.03-20.93-2.77c-0.44-0.22-0.32-0.59-1.45-0.79c-0.24-0.45-0.99-0.65-1.41-0.65
		c-0.7-1.3-1.74-1.12-2.39-1.69c-0.39-0.34-1.14-0.48-1.25-0.48c0.19,0-0.23,0.54,1.51,0.81c0.43,0.82,1.28,1.14,2.16,1.43
		c0.76,1.27,1.78-0.09-0.1,1.8c-2.98-1.25-3.56-1.71-4.61-3.51C525.21,59.79,526.12,59.54,526.54,59.45z M537.44,67.24
		c-1.87-0.34-3.62-1.08-5.55-2.62C534.58,64.86,537.54,67.24,537.44,67.24z M530.27,63.96c-0.07-0.14,0.4-0.06,0.58,0.04
		C531.79,64.54,530.71,64.64,530.27,63.96z M537.74,68.39c0.1,0,0.33-0.72,0.36-0.82c0.06-0.23,0.57-0.12,0.69,0
		c1.89,1.7,7.86,1.76,8.32,3.39c-0.74,0-5.22,1.36-8.94,0.21c-0.49-0.21-1.17-0.02-1.69-0.1c-0.7-0.91-2.01-0.38-2.01-0.73
		c-0.24-0.95-1.89-0.58-2.77-1.03c-2.6-1.08-8.32-4.49-8.06-6.08C524.13,60.29,528.39,66.86,537.74,68.39z M519.99,55.33
		c0.1,0.01,4,0.21,4,0.95c-0.11,0.71-0.41,1.21-1.12,1.72c-2.46-3.03-6.94-1.88-9.76-2.15C515.46,54.61,517.72,55.15,519.99,55.33z
		 M513.21,56.96c-1.13,0.62-1.64,1.44-3.08,1.64C510.99,57.65,511.6,56.64,513.21,56.96z M514.62,114.13
		c-1.4-29.31-0.87,8.14-4,13.77c-2.58,4.65,3.81-10.2,0.72-31.77c-0.25-1.73-1.31-11.58-1.92-9.55c-0.33,1.1,0.17,2,0.17,3.38
		c-1.57,1.08-0.71-0.95,0.24,7.71c0.13,1.16,0.86,9.24,0.28,10.28c-3.07-12.65-3.81-12.99-3.51-14.86
		c0.31-2.01-1.71-6.13-3.36-15.78c-1.3-7.62,2.96-15.11,4.81-15.7c2.24-0.72,4.21-3.66,9.15-3.09c0.92,0.31-10.12,5.66-7.4,17.48
		c1.15-6.52,1.16-11.44,8.53-17.06c1.34,0,2.57,0.1,4.21,0.1c-1.64,4.26-2.01,1.46-5.14,6.68c-3.99,6.65-2.86,13.58-3.6,20.25
		C512.85,94.62,516.04,92.19,514.62,114.13z M520.4,100.03c-0.09-0.27-0.31-0.63,0-0.82c0,0.1,0.1,0.21,0.1,0.31
		C520.5,99.73,520.4,99.83,520.4,100.03z M521.73,110.41c0-0.37-0.03-0.31,0.1-0.31C521.78,110.26,521.8,110.2,521.73,110.41z
		 M521.73,97.16c-0.3-0.19-0.21-0.51-0.21-0.82c-4.77-3.18-4.91-24.29-2.97-25.8c0,14.64,0.28,11.3,2.15,19.12
		c0.54,2.26,0.92,4.42,0.82,6.68C521.73,96.54,522.04,96.75,521.73,97.16z M521.02,80.93c1.55,0.4,1.14,1.05,3.23,1.05
		c-0.55-0.81-4.47-3.85-3.32-4.98c0.26-0.25,6.61,5.24,7.79,3.21c-6.17-3.29-6.68-3.8-7.3-6.47c0.81-0.74,0.9,0.81,5.76,1.64
		c3.9,0.67,7.61,2.16,11.41,3.08c0.21,0,0.31,0.31,0.51,0.41c-1.36,1.69-3.06-2.31-7.09,1.23c-0.41,0.41-0.92,0.72-1.44,1.13
		c-0.31,1.03-0.92,1.95-0.92,2.98c-0.1,1.75-0.62,3.29-1.53,4.53c0.72,4.07,2.99,5.04,2.88,6.91c-0.61-0.3-2.38-0.74-4.62-3.31
		c-0.51-0.31-0.41-0.72-0.51-0.92c0.31-0.1,0.62-0.1,1.34-0.31C524.21,88.02,521.02,85.51,521.02,80.93z M511.03,283.79
		c4.48-6.71,8.68-13.04,10.89-20.97c8.26,24.78,6.56,17.38,13.84,34.43c0.47,1.89-19.54-1.7-25.14-9.87
		C510.63,287.28,510.82,285.16,511.03,283.79z M522.55,488.51c0-11.73-3.17-8.86,4.21-39.36c6.45-26.64-3.92-23.24-15.93-80.26
		c5.93-5.04,27.7-11.66,36.48-11.3c2.26,0.09,4.32-1.03,6.27-2.06c-0.29-1.09-1.25-1.67-2.36-1.23c-4.46,1.74-24.3-0.28-39.46,10.69
		c-0.45,0.33-1.39,1.3-1.63,0.21c-0.58-2.58,0.04-3.07-0.34-3.17c-1.73-0.62-1.96-2.11-3.58-3.21c-1.9-1.28-3.19-3.13-4.41-5.13
		c-2.7-4.43-5.71-6.92-6.99-15.62c-3.99-27.14,1.94-35.21,12.54-50.05c3.63,1.82,2.79,9.19,29.35,12.31
		c0.36,0.07,2.27,4.34,4.46,7.63c2.83,4.24,4.84,8.84,6.68,13.57c0.72,1.85,1.75,3.39,2.47,5.14c3.45,7.26,2.56,1.47,2.98,11
		c0.25,5.57,3.37,6.84,5.76,11.61c-3.88,3.59-4.6,4.36-4.11,7.81c0.87,0.57,2.71,1.73,2.88,1.85c0.81,2.7,0.87,2.67,2.47,2.57
		c0.51-0.82-0.62-1.23-0.41-1.95c0.92-0.92,1.75,0.62,2.77,0c2.31-0.92-0.15-3.22,0.82-4.83c0.97-1.62-0.54-3.28-0.65-3.28
		c-0.61,0.2-1.11,0.3-1.61,0.5c-1.1-0.79-1.19-0.86,0.21-2.26c-1.1-1.49-2.02-3.28-3.29-4.62c-2.08-2.21-2.88-4.94-2.88-7.91
		c0-1.4-0.28-6.85-1.34-7.57c-0.79-0.55-1.52-1.41-1.95-2.91c-2.35-8.15-4.86-13.73-9.04-20.35c-7.38-11.66-11.18-24.84-16.14-37.61
		c-0.4-1.03,0-1.85,0-2.67c-0.82-2.47-2.55-4.43-3.39-6.78c-0.81-2.27-1.49-4.49-2.88-6.47c-0.71-1.02,0.39-2.68,0.31-3.6
		c-4.65-16.26,2.15,0.35-9.56-29.39c-1.01-2.57-1.13-4.01-0.82-6.47c3.02,4.22,3.13,4.14,5.86,4.73c-1.71-2.1-2.04-1.56-3.26-3.48
		c-1.69-2.69-1.82-6.11-2.61-6.9c-1.52-1.52-1.41-3.85-2.67-12.54c-3.14-21.58,5.75-34.07,3.39-37.31
		c-2.05,4.77-1.57,10.8-5.04,10.48c0.65-8.18,1.08-9.48,11.61-22.4c7.63-9.36,6.35-9.46,7.71-9.46c6.57,5.41,10.15,8.21,11.11,9.66
		c5.62,3.23,8.68,6.37,11.82,10.48c4.2,5.51,5.79,6.46,6.17,10.79c0.35,3.97,0.23,10.43-1.13,13.15c-1.31,2.22-4.92,7-6.27,5.65
		c0.42-1.26,3.47-4.84,2.98-9.46c-3.25,4.33-6.55,12.09-7.81,13.67c-0.1,3.19,0.12,6.47,0.51,9.66c2.96,23.89-0.24,36.55,0.82,42.55
		c-2.67-2.14-3.22-6.58-4.62-4.83c0.95,4.1,4.81,7.34,6.68,13.15c7.08,22.07,4.15,16.69,5.45,19.32c2.64,5.36,2.06,11.27,6.58,24.97
		c6.47,19.63,3.55,22.24,6.47,25.28c0.71,0.74,2.49,6.81,5.45,10.79c1.07,1.44,0.03,1.56,2.26,4.11c7.46,9.95,5.18,6.41,6.63,9.79
		c2,4.68,2.54,1.15-0.47,13.94c-0.72,0.31-1.23,1.13-2.16,0.92c-0.76-1.65,0.71-3.24,1.03-6.37c0.09-0.93,1.03-1.85,0.51-3.08
		c-3.65,5.47-2.06,5.13-3.29,10.07c-4.13,2.58-2.63-1.15-1.54-6.37c0.12-0.57-0.44-0.82-1.03-0.82c-1.14,2.29-1.89,6.18-1.85,7.91
		c0.03,1.13-1.14,1.65-1.39,0.51c-0.14-0.65,0.46-8.84-1.28-8.84c-0.92,2.77,0,5.76-0.82,8.43c-1.7,0.79-3.68-0.13-5.39,1.29
		c-0.42,0.42,1.38,0.47,1.38,3.12c0,5.8,4.12,50.58,1.54,57.76c-2.72,7.57-13.56,51.37-14.08,69.58c0,0.1-1.07,29.07-0.92,31.65
		c1.4,24.64,4.52,12.07-6.47,23.74c-2.6,2.76-2.16,5.04-2.16,9.04c-11.53,1.36-7.16-3.93-7.61-7.09c-0.63-4.42,2.3-5.09,1.13-13.15
		C531.96,525.82,522.55,505.65,522.55,488.51z M561.56,355.6c1.4,4.36,0.38,2.15-2.21,1.88c-1.03-0.1-2.16,0-3.08-1.23
		c0-1.34,0.31-2.77,1.44-4.21C560.01,352.8,560.87,353.45,561.56,355.6z M584.23,592.93c0.11-0.2,1.03-3.02,5.84-3.39
		C588.61,591.7,586.68,592.71,584.23,592.93z M590.28,586.56c-2.79,0.59-5.31,0.9-6.37,2.77c-1.18,2.1-4.1,2.83-4.56,3.7
		c2.82,0.03,3.51-1.05,4.81-0.04c0.1,0-0.27,0.54-1.48,0.75c-12.82,3.2-13.13,3.68-16.03,3.39c-10.49-1.04-12.29-0.72-14.08-2.98
		c-0.32-0.4-8.55-3.07-12.13-13.15c-0.22-0.61-0.21-1.44-1.34-2.36c-1.13-0.41-2.88-0.83-4.73-0.41c-4.85,1.09-6.46-1.64-11.3-2.77
		c-5.43-1.27-1.99-4.14-1.08-7.24c0.53-1.83,0.32-3.93,3.55-9.21c3.92-6.41,2.28-10.29,4.11-11.92c2.06,3.09,0.5,0.58-0.42,6.2
		c-0.39,2.35,0.37,3.91,2.48,6.35c5.61-0.19,9.81,1.91,11.12-2.85c0.82-2.97-1.98-6.11,7.28-11.34c2.14,8.01,0.67,3.36,1.95,2.88
		c1.13,0.62,0.31,2.06,1.13,2.77c0.72,0.72,1.54,1.44,1.85,2.57c-2.84,1.58-9.59,2.36-9.65,5.25c-0.02,0.75,0.87,1.51,2.35,1.02
		c6.81-2.27,0.85-0.35,10.79-2.26c0.61-0.12,1.13-0.1,1.13,0.82c-0.1,0.02-7.34,1.86-9.04,3.39c-0.57,0.45-0.67,1.01-0.31,1.64
		c2.79,1.39,14.7-5.03,13.15-0.92c-2.23,0.45-9.16,1.54-9.34,3.83c-0.28,3.53,9.1,0.2,12.32-1.16c1.5,1.2,1.91,2.84,1.75,2.67
		c0.28,0.39,2.44,1.41,1.61,2.03c-3.46,2.07-4.39,2.06-4.39,3.62c2.98,1.13,4.83-0.82,6.78-2.36c1.45,0.11,2.29,1.53,3.6,1.75
		c-0.23-1.38-1.71-2.46,13.05,6.89c0.63,0.4,1.34,0.51,1.75,1.54C590.49,582.96,591,584.71,590.28,586.56z M574.87,571.35
		c0.1,0.07,0.46,0.31,0.46,0.41C575,571.92,574.87,571.7,574.87,571.35z M572.84,427.18c0.89,6.78-3.34,7.21-4.11,13.87
		c-1.02,8.87-4.45,15.63-5.86,24.05c-4.48,26.91-6.5,33.78-5.14,46.86c1.11,10.62-2.62,8.98-0.31,16.34
		c2.08,6.62,4.29,9.55,4.11,11.82c-1.55,4.15-2.86,4.71-2.26,6.27c1.63,0.28,4.79-6.49,5.45-8.02c0.8,0.95,5.64,5.29,4.16,6.04
		c-8.33,4.27-8.38,5.06-6.43,7c7.73-3.57,8.04-6.52,9.25-1.44c-2.3,0.95-3.67,1.33-5.96,2.51c-3.52,1.81-1.95,4.27-0.51,3.86
		c1.33-0.17,5.59-2,8.22-2.88c1.03,0.51,1.64,1.03,1.95,2.06c-1.44,0.82-2.88,1.64-4.32,2.47c-2.44,1.63-0.42,3.45,1.13,2.98
		c1.55-0.29,2.69-1.05,2.8-1.05c5.56-2.78,5.8-4.37,8-1.44c-1.95,1.95-4.83,2.67-6.37,4.83c1.66,4.99,9.96-5.46,10.48-0.72
		c-4.42,2.26-4.42,2.26-4.52,4.42c3.2,0.65,5.59-3.26,6.17-3.54c0.7-0.34-0.97-0.8,16.55,7.95c0.41,3.05-3.22,4.55-4.32,7.3
		c-0.41,0.8,0.11,1.23,0.41,1.23c0.77-0.33,3.96-4.95,3.38-0.92c-0.26,0.16-9.89,7.37-11.9,4.86c-0.82-1.23,0.51-2.16,0.62-3.08
		c-1.72-2-5.56-3.35-7.09-4.52c-7.04-5.37-15.78-9.98-16.96-11.51c-2.42-3.14-5.14-6.06-7.61-8.74c-0.32-0.73-0.03-2.77-1.95-2.77
		c-1.54,0-2.36-0.92-3.29-1.95c-1.43-1.78-1.21-4.24-1.54-7.19c-0.93-1.87-2.67,0.18-2.77-4.42c-0.67-29.35,1.57-42.1,0.72-55.29
		c-0.14-2.15,7.53-39.98,9.56-48.1c2.87-1.91,0.96-0.18,2.47-11.51c0.9-6.8,1.85-3.52,1.85-7.61c0.92-15.43-0.71-16.88-1.03-30.52
		c-0.63-26.84-3.49-23.36,2.47-22.51c1.33,0,2-0.9,2.81-1.27c0.76-0.36,2.07-0.18,3.1-0.65c1.03-0.46,0.63-0.82,1.97-1.2
		c5.56-1.6,3.15-2.34,4.73-8.24c0.05-0.26,1.21-0.12,1.88,0.88c0,8.63-0.96,9.48-0.41,11.51
		C586.61,380.78,571.69,418.46,572.84,427.18z M582.2,350.58c-1.29,0.75-0.86,0.13-0.86-2.76c-0.41-1.33-1.75-2.26-1.44-3.8
		c3.12-3.12,2.48,0.17,3.91,3.6C584.33,348.86,583.38,349.9,582.2,350.58z M584.42,351.93c0-0.13-0.05-0.13,0.21,0
		C584.37,352.06,584.42,352.06,584.42,351.93z M593.26,360.56c-0.1,0.05-1.47,0.35-2.57,0.72c-0.41-1.03-1.33-1.75-0.92-3.08
		c0.31-1.01-1.68-6.31-1.92-7.29c-0.6-2.44,2.18-1.76,2.64-1.76C592.23,352.24,594.08,359.33,593.26,360.56z M596.14,362.82
		c-0.51,0.49-1.02,0.42-1.44-0.1C595.26,362.05,595.67,362.18,596.14,362.82z M607.55,390.57c-1.13,0.21-2.16,0.41-3.08,0.62
		c-1-1-1.32-2.33-0.52-3.7c0.09-0.3,0.49-0.41,0.79-0.7c0.03-0.03,0.21,0.28,0.24,0.31c0.95,1.18,1.85-0.75,2.74,1.93
		C607.8,389.49,607.76,389.98,607.55,390.57z M698.71,524.17c-0.4,6.84-0.31,8.55-0.31-4.5
		C698.45,520.89,698.71,522.21,698.71,524.17z M688.15,507.4c1.74,0.56,2.72,1.78,3.3,3.39
		C691.35,510.69,687.15,507.08,688.15,507.4z M687.31,506.49c1.51,1.04-0.23,0.95-0.01,0C686.28,506.9,686.29,505.59,687.31,506.49z
		 M695.62,564.46c-0.51-1.95-0.21-3.19,0-4.42C695.62,561.27,695.62,562.51,695.62,564.46z M696.44,520.56
		c-5.67,54.07-2.4,40.43-5.45,41.74c-2.69,3.2,3.85,3.24-6.68,13.58c-1.36,1.33-6.94,3.26-10.28,2.26c-1.73-0.51-3.09,0.3-5.86-1.44
		c-6.75-4.24-16.73-14.6-16.51-23.04c0.21-7.85,4.98-10.97,10.13-14.06c0.68-1.57,1.86-3.12,0.72-5.14
		c-2.54-0.51-3.51-6.94-4.42-9.56c-0.21-0.49-0.11-1.24-0.01-1.76c1.24-4.12,0.31-9.93,4.73-16.03c2.79-3.86,8.92-5.43,12.13-4.42
		c5.77,1.83,14.59,7.28,15.93,12.85c0.54,1.62,2.34,1.41,1.95-0.31c-0.24-1.06-0.72-1.92-0.5-2.79c-0.68,0-0.83-0.77-0.73-1.48
		c1.03,0.52,0.47,1.32,0.73,1.41c0.82,0.26,0.93,1.02,1.13,1.61C694.12,515.89,697.12,514.09,696.44,520.56z M704.05,566.31
		c-1,0.25-1.87,0.23-2.53-0.57c-1.38-0.29-2.99,0.16-4.15-1.28c2.43-20.64,2.35-38.02,3.56-37.56c0.51,0.19,0.87,0.74,1.79,0.46
		c0.44-0.71,3.31-3.29,0.77-3.44c-0.92-0.06-1.7,0.87-2.52,0.87c-0.62-1.03-0.31-1.95-0.31-2.88c0-4.83-0.72-2.05,7.19-0.62
		C708.06,525,704.87,562.71,704.05,566.31z"/> <path d="M124.11,331.68c-0.01,0.04-0.04,0.15,0,0.15C124.23,331.77,124.28,331.85,124.11,331.68z"/> <path d="M162.54,265.39c-0.09,0-0.04-0.07-0.1,0H162.54z"/> <path d="M309.72,15.56c-1.33,0.66-41.31,495.82-42.44,502.66c-5.03-2.09-2.14-1.78-9.97-3.08c-0.97-3.24-1.07-7.16-5.65-10.07
		c-5.45-3.46-9.4-6.47-16.75-6.37c-6.19,0.08-9.64-0.19-14.59,5.24c-3.98,4.37-4.25,9.52-5.04,10.17c-0.1,0-0.51,0.32-0.51-0.21
		c-62.18-173.07-56.09-153.76-53.54-156.73c4.57-5.94-1.35-13.38-6.37-12.54c0,0.31,0.1,0.72,0.1,1.03c5.21,1.8,7.48,5.2,4.62,9.97
		c0.21-4.42,0.21-4.42-3.29-8.02c-2.16-0.62-4.46,1.28-4.96,3.59c-0.87,4,2.9,5.03,2.3,6.45c-0.85,0.85-5-5.02-4.03-9.36
		c0.68-3.05,2.19-1.42,3.2-2.44c1.19-1.2-6.36-13.4-5.9-16.2c0.37-2.24,2.06-3.13,2.71-0.75c4.04,14.69,3.5,14.7,5.04,16.34
		c-0.22-13.58-2.98-17.32-2.98-20.35c0.58-8.68-3.91-13.52-3.7-17.9c0.01,0.01,0.04,0.02,0.09,0.02l-0.1-0.1
		c0,0.04,0,0.06,0.01,0.08c-0.85-0.14-1.6-0.54-2.37,0.23c0.11,0.22,0.49,0.45,0.62,0.82c1.48,6.36,5.37,17.84,1.64,15
		c-1.25-9.17-0.08-4.46-3.08-13.46c-1.64-0.41-2.67,1.03-4.32,0.21c-1.57-4.11-3.45-5.34-5.86-6.78c4.1-1.9,7.22-4.79,11.65-5.2
		c0.41-0.04,0.53,0.28-0.14-2.4c4.81-12.02-2.14-8.8,3.91-19.63c1.21-2.17,1.13-4.32,0.92-6.27c-0.51-0.92-1.34-0.31-1.85-0.92
		c-0.97-3.89-2.02-10.47-4.52-16.55c-0.89-2.17-4.77-13.65-4.11-15.52c3.12-8.82,4.42-9.16,5.76-15.83
		c1.3-6.51,2.32,0.64,1.03-12.54c-0.14-1.42-0.25-2.4-1.44-3.19c0,0.12,0.21,2.8,0.21,4.61c0,12.09-4.08,15.74-5.14,19.12
		c-1.9,6.04-3.9,12.31-3.39,19.01c1.24,16.19,0,8.98,0,13.98c1.09,5.58,0.68,22.24-3.08,29.29c-1.37,2.57,0.71,5.09-6.78,6.78
		c-2.25-3-2.77-4.33-5.24-8.02c-2.58-3.86,0.22-3.66-2.36-4.31c-0.09-0.3-0.41-0.61-0.41-1.03c-0.44-3.78-1.38-5.3-2.47-10.89
		c-3.27-16.91-1.78-10.51-3.36-14.15c-1.16-2.32-1.97-9.05-2.1-9.69c-1.33-6.96-4.15-14.21-3.49-15c1.31-0.46,0.86-0.08-1.02-1.95
		c-1.25-5-0.58-3.96-1.51-6.32c-5.01-12.72-4.61-12.77-2.29-12.8c16.81-0.2,15.05-3.61,28.57-6.37c3.76-0.77,2.85-2.41,3.7,5.24
		c0.19,1.72,0.13,4.78,0.72,5.96c3.64-14.57-4.79-12.74,5.34-12.74c1.34,0,2.67-0.72,4.11-0.82c1.82-1.82,0.24-7.21,2.16-7.61
		c8.11,14.42,6.73,16.34,10.17,55.91c0.27,3.14,1.22,5.56,3.19,10.59c0.85,2.6,1.72,1.6,1.13-0.51
		c-8.28-29.44-0.85-44.81-12.44-66.7c-0.9-1.35,0.5-2.02,1.85-2.67c7.67-3.69,8.53-11.69,9.25-13.67c0.93-2.59,0.55-4.82-0.31-7.4
		c-6.64-16.37-11.99-15.63-22.51-27.23c1.27-8.07,0.9-8.43,0-11.61c-1.54-5.48-3.1-10.29-6.58-13.77c6.42-1.6,7.98-2.23,6.68-8.74
		c1.34-2.57,1.34-2.57,0.62-5.14c0.21-0.92,1.34-1.34,1.54-2.98c0-0.82-0.62-2.16-0.31-3.91c1.85-1.34,4.52-2.26,3.6-5.86
		c-1.75-2.57-3.6-5.45-3.7-8.94c0.51-0.82,1.44-0.82,1.64-1.75c-0.51-0.31-0.92-0.51-1.44-0.82c1.89-2.84,3.98-4.86,2.06-10.79
		c-3.28-10.11-5.27-19.23-15.11-21.99c-3.36-0.94-7.2-3.9-19.12-4.93c-4.18-0.36-12.68,0.09-15.42,3.29
		c-0.02,0.02-5.67,3.58-8.32,6.37c-9.17-1.64-15.14-3.36-18.6,4.32c-3.23,7.17-8.02,8.78-6.37,18.09c1.67,9.41,2.92,7.68,3.29,12.85
		c0.99,14.04,7.71,25.18,1.54,31.35c-6.46,7.2-8.23,16.58-7.4,26.31c0.69,8.12-0.7,11.59,2.36,23.95c0.63,2.55,1.02,8.48,5.76,18.81
		c5.86,12.79,4.81,16.94,6.68,32.17c3.67,29.9,9.25,34.74,4.42,44.4c-10.1,20.2-24.54,28.67-26.1,50.46
		c-2.95,41.07,15.16,39.21,17.07,50.46c1.75,10.3,0.48,10.09,6.27,29.6c4.77,16.07,9.3,22.3,10.17,30.73
		c1.41,13.55,1.99,13.27,1.03,15c-1.75,2.71-1.97,7.82-3.7,10.89c-0.21,0.31-0.41,0.72-0.31,1.03c0.64,2.96-3.47,13.76-3.29,18.7
		c1.58,44.03,11.46,49.32,13.15,73.07c-0.82-0.41-2.1-3.27-3.19-1.03c-3.14,6.46-2.85,10.89-6.37,15.93
		c-2.86,4.09-1.65,8.31-4.93,9.46c1.03,1.44,0.82,2.88,0.72,3.91c0.51,1.13,1.44,1.33,1.95,2.06c1.45,2.05,3.39,2.85,5.86,2.98
		c3.19,0.17,5.96,1.85,8.94,3.19c3.86,0,3.19-0.61,5.04,4.01c5.39,5.6,9.25,11.12,17.06,11.61c6.31,0.4,10,1.98,17.88-0.31
		c21.36-6.21,16.89-6.84,18.5-11.41c7.34-1.63,10.08-2.03,14.59-8.12C164,570,173,572.8,150.74,562.1
		c-3.07-1.47-6.36-6.25-13.26-9.87c-7.55-3.95-1.66-8.09-13.98-18.19c-0.21-0.1-0.41-0.21-0.62-0.41c-0.51,0.1-1.13,0.1-1.54,0.21
		c-0.89-0.59-1.33-1.92-1.34-2.57c-0.05-4.21-1.33-8.32-1.03-12.54c0.62-8.53,1.03-17.06,1.03-25.59c0-7.09,3.52-18.89,4.93-30.93
		c0.49-4.15,2-1.14,4.21-15.62c1.88-12.32-3.48-1.02,3.7-11.61c2.83-4.17,1.96-12.41,3.6-20.45c1.85-9.13,5.54-15.65,7.81-34.02
		c2.71-21.91-4.04-52.97-3.19-55.19c0.51,0.31,1.03,0.51,1.75,0.82c2.06,6.17,5.55,11.82,8.02,18.19c-3.19,1.23-3.63,3.7-3.29,6.58
		c1.17,9.73,5.28,8.45,8.43,9.35c60.9,170.52,58.39,162.27,58.58,164.43c0,0.21,0.1,0.51,0.21,0.62c2.36,3.08,3.08,6.99,5.45,10.07
		c-0.31,0.82-0.62,1.44-0.92,2.26c-17.7,8.85-8.94,20.34-9.56,22.82c-0.35,1.4,4.55,8.83,10.07,13.77c2.82,2.52,4.76,2.87,5.34,3.6
		c4.03,5.06,19.97,4.96,25.38-7.71c0.9-2.09,0.79-2.69,1.75-3.29c1.54,0.51,3.29,0.51,5.04,0.72c1.75,0.21,3.49,0.92,5.04,1.34
		c1.47,1.47-0.4,4.37,0.41,7.4C264.79,577.15,310.6,15.56,309.72,15.56z M137.06,310.41c0.36,0.72,0.15,1.75-1.03,2.47
		c-2.12,0.58-1.55,1.61-1.55-2.49c-0.43-1.36-1.71-2.2-1.43-3.68C136.34,303.72,135.99,307.75,137.06,310.41z M134.18,297.77
		c1.13,0.72,2.26,0.92,3.39-0.31c0.01-0.11,0.95-15.5,1.13-17.37c2.21-23.17-1.08-34.14,1.13-35.25c7.05,14.83,5.84,20.9,9.15,28.98
		c-0.41,2.16-1.03,3.8-1.95,5.34c-4.02,6.76,1.5,5.52-3.39,17.27c-1.75,0.82-3.71,1.33-5.24,2.47c-1.65,1.22-3.6,1.85-4.93,2.87
		c-0.63,0.86-0.34,4.16-1.21,3.31c-1.25-1.22-2.16-2.64-2.9-4.22C130.99,299.82,132.64,298.8,134.18,297.77z M129.36,59.13
		c0-0.38,1.22,0.49,1.23,1.34C129.1,60.63,129.08,60.36,129.36,59.13z M127.24,56.99c0.56,0.45,0.43,0.56,0.83,0.7
		c0.18,0.06,0.29,0.21,0.37,0.38C127.86,57.9,127,56.76,127.24,56.99z M127.01,56.76c0,0.1-0.77,0.03-1.16-0.5
		C126.33,56.25,126.75,56.35,127.01,56.76z M125.34,58.82c0.57,0.33,1.33,1.24,1.01,1.24c-0.31,0.01-0.72,0.08-0.9-0.01
		c-3.19-2.16-6.58-3.8-10.17-5.04C113.48,54.1,113.2,51.77,125.34,58.82z M114.96,56.56c-0.64,0-0.12-0.53,0.1-0.31
		C115.37,56.36,115.27,56.46,114.96,56.56z M123.7,54.81c0.1,0.03,0.7-0.02,1.12,0.48C124.92,55.4,124.02,55.23,123.7,54.81z
		 M126.16,52.25c-2.42-0.69-3.03-1.92-3.09-1.92C125.22,50.6,125.27,50.65,126.16,52.25z M121.44,49.47
		c0.32,0.13,1.41,0.04,1.41,0.72c-1.21,0.41-0.89-0.82-2.33-0.82C120.82,49.06,121.13,49.16,121.44,49.47z M118.76,48.55
		c-0.37,0.12-0.31,0.14-0.31,0C118.46,48.41,118.39,48.42,118.76,48.55z M118.56,49.78c0,0,0,0.1,0.1,0.21
		c-0.13,0-0.41,0.28-0.41-0.1C118.35,49.88,118.46,49.78,118.56,49.78z M116.3,47.62c0.22,0.12,0.04,0.21-0.21,0.21
		c0,0.1,0,0-0.1-0.1C116.09,47.72,116.19,47.62,116.3,47.62z M116.4,49.06c-1.17,0.58-1.42-0.11-3.29-0.25
		c-1.3-0.09-1.98,0.07-2.57-0.67C115.48,48.15,112.4,49.06,116.4,49.06z M110.75,50.6c-0.76,0.28-1.53,0.32-2.26,0
		C109.21,50.6,109.82,50.6,110.75,50.6z M110.44,48.13h-0.01C95.37,48.13,109.59,46.71,110.44,48.13z M98.31,48.34
		c0.92,0.21,1.85,0.51,2.97,0.72c-2.02,1.52-4.98,1.01-4.03,1.32c6.86,2.21,15.47,0.57,15.74,3.48c0.11,1.14-2.47,0.68-3.18,0.75
		c0-0.06-0.04-0.08-0.09-0.09c0.03,0.03,0.06,0.06,0.09,0.09c0,0-0.01,0-0.01,0c-0.21,0.1-0.62,0.41-0.82,0.41
		c-3.82-0.69-3.21-0.83-3.51-0.83c-13.81-4.62-9.29-1.71-11.17-3.59C95.43,49.27,96.87,48.75,98.31,48.34z M85.47,59.54
		c-0.21-0.51-0.82-0.92-0.51-1.95c1.85-1.54,3.8-3.39,6.37-4.73c1.95,0,14.23,1.63,15.84,2.58c2.16,1.27,3.55-0.41,4.07,1.05
		c0.01,0.03,0.03,0.08,0.07,0.08c2.74,0.35,1.64,0.88,3.05,1.23c-0.97,0.32-0.56-0.41-1.01-0.41c-2.32,0-1.97,0.19-1.97-0.59
		c0-0.27,0.25-0.12-2.36,0.28c0.65,0.2,1.98,0.34,2.34,0.41c0.24,0.24,0.41,0.45,1.1,0.78c5.92,2.79-2.31,0.25-4.28,0.25
		c0,0.31,0,0.51-0.1,0.82c-2.41,0.16-21.61-8.59-18.5-1.86c3.4-0.68,17.45,3.53,20.25,5.45c-1.44,0.1-2.16,0.92-2.77,2.16
		c9.48,1.18,9.66-1.75,10.28-0.86c0.45,0.65-0.01,1.49-0.51,2.1c-1.34,0.62-2.57-0.31-4.01-0.31c-8.21,2.61-11.35,2.03-21.13-2.86
		c-0.28-0.46-0.78-0.62-1.33-0.71c-0.02,0-0.42-0.65-1.44-0.65c-0.42-0.9-1.16-1.18-2.08-1.41c-0.15,0-0.53-0.73-1.45-0.73
		c-0.04-0.01-0.07-0.01-0.11-0.02c0.34,0.67,0.76,0.69,1.5,0.81c0.43,0.82,1.28,1.14,2.16,1.43c0.77,1.29,1.92-0.13-0.08,1.88
		c-3.01-1.23-3.49-1.69-4.54-3.48C84.11,59.89,85.03,59.63,85.47,59.54z M115.37,69.5c-2.6,0.68-4.65,1.21-4.42,0.1
		C118.4,66.33,117.19,69.03,115.37,69.5z M89.64,94.74c0.9,2.79,1.11,0.94,1.7,3.85c-3.32-0.66-5.47-2.77-5.33-2.77
		c1.69-0.64,2.4,0.85,3.34,0.39c1.72-0.84-1.13-0.23-4.39-3.99c-0.2-0.2-0.12-0.55-0.2-0.85c0.28-0.07,0.6-0.09,1.22-0.28
		c-2.98-2.98-6.17-5.55-6.16-10.18c1.18,0.3,1.99,1.34,3.24,1.06c-0.94-1.39-2.53-2.01-3.24-3.63c-1.16-3.47,1.44,0.69,6.27,2.16
		c1.14,0.26,0.98,0.15,1.44-0.31c-5.56-2.98-6.6-3.51-7.4-6.58c1.01-0.67,0.78,0.79,5.76,1.64c1.68,0.29,9.99,2.44,11.92,3.49
		c-1.63,2.03-2.05-3-8.63,2.26c-0.31,1.03-0.92,1.95-0.92,2.98c-0.1,1.75-0.62,3.29-1.54,4.52C87.47,92.42,89.12,93.14,89.64,94.74z
		 M87.42,102.61c-1.64-2.26-1.85-2.77-1.54-4.62c4.11,2.73,7.44,1.62,7.3,4.12c-4.27,0.86-4.27-1.16-5.34-0.84
		C87.32,101.88,88.1,102.39,87.42,102.61z M83.78,93.47c-0.27-0.09,0.14-0.59,0.14,0.09c0.8-0.09,1.03,0.4,1.13,1.23
		C83.29,94.59,84.11,93.53,83.78,93.47z M84.58,103.36c-0.05,0.68-0.46,0.75-0.52,1.33c-0.1,0.96,0.81,1.65-0.11,2.57
		c-2.11,1.9-0.95-3.67-0.95-8.56C83.34,99.72,84.64,102.62,84.58,103.36z M83.47,109.76c0.7-0.71,1.03-1.76,2.3-2.12
		c0.51,1.03,0.92,1.95,0.62,3.19c-0.28,0-5-0.3-5.14-0.31c-0.12,0-0.33-0.22-0.41-0.31C83.64,109.86,83.07,110.17,83.47,109.76z
		 M77.35,70.53c0,20.11,3.55,18.6,2.98,25.71c0,0.27,0.6,0.34,0.21,1.12c-0.03-0.1-0.21-0.92-0.21-1.03
		C76.05,93.89,75.02,72.34,77.35,70.53z M79.3,100.03c-0.14,0-0.1,0.14-0.1-0.82C79.34,99.21,79.3,99.09,79.3,100.03z M76.84,111.75
		c-0.95,0.25-1.18,0.58-1.35-6.58c-0.09-3.78-0.68-4.27-1.54-13.77C77.41,105.44,80.19,110.88,76.84,111.75z M85.15,72.49
		c-0.2,0.3-0.4,0.5-0.6,0.8c-1.69-0.34-2.83-1.51-4.11-2.74c-0.1-0.1,0.26-3.43,1.22-5.05c1.29-0.14,11.29,8.32,11.64,5.86
		c0-0.27,2.29,0.04,2.19-0.16c1.61,1.54,5.53,1.15,6.93,3.35c3.55,0.74,9.52-0.89,8.07,0c-3.19,1.95-7.17,1.18-10.44,2.67
		C94.81,76.71,90.18,74.14,85.15,72.49z M96.38,67.35c-2.26-0.39-3.93-1.3-5.73-2.74C93.38,64.79,96.92,67.45,96.38,67.35z
		 M90.18,64.57c-0.43-0.02-0.83-0.14-1.07-0.61C89.06,63.86,89.88,63.76,90.18,64.57z M96.62,68.37c0.13,0,0.57-0.92,0.37-0.92
		c1.11-0.09,1.5,1.45,4.31,1.45c0.32,0,4.49,1.18,4.73,2.06c-4.81,0.81-5.4,0.94-10.65,0.1c-0.55-0.82-1.99-0.41-1.99-0.72
		c-0.24-0.95-1.89-0.58-2.77-1.03c-2.5-1.03-9.13-4.88-7.89-6.47C84.17,60.95,87.38,67.03,96.62,68.37z M81.25,55.64
		c0.62,0.1,1.44,0.1,1.75,1.03c-0.31,0.31-0.51,0.72-0.92,1.54c-2.94-2.8-5.72-2.36-10.28-2.36C75.39,54.61,78.27,55.33,81.25,55.64
		z M72.21,56.97c-1.13,0.72-1.85,1.23-2.57,1.75C69.95,57.49,70.56,56.77,72.21,56.97z M65.01,89.96
		c-3.52-13.02-4.99-18.84,0.41-27.03c0.36-0.55,0.92-1.24,1.54-1.44c2.17-0.69,4.35-3.7,9.15-3.07c-0.94,1.25-10.22,7.21-7.5,18.09
		c1.51-8.31,1.7-12.18,8.63-17.78c1.44,0.1,2.77,0.1,4.21,0.21c-1.65,4.89-8.32,4.87-8.32,20.44c0,5.31-0.95,8.91-0.1,13.26
		c1.65,8.46,1.38,13.05,0.62,19.63c-0.45-8.18-0.46-13.47-1.23-6.68c-2.22,19.5-0.04,0.35-3.91-19.83c-0.97,3.06,0.9,3.81-0.92,4.73
		c0.21,0.21,1.87,12.42,1.44,17.78C63.16,86.77,66.68,96.11,65.01,89.96z M77.66,270.94c3.85-6.67,2.9-11.19,2.06-19.53
		c-0.31-3.06-0.85-1.7-1.34-4.01c-1.1-5.17-3.38-19.93-1.64-16.44c7.14,21.43,11.99,23.89,12.23,30.73
		c1.61,1.29,6.15,9.81,6.68,10.79c5.84,10.8,4.88,12.67,8.12,16.75c0,1.85,1.34,2.98,2.47,4.32c-0.1,1.13-0.1,2.36-0.21,3.39
		c-3.6,1.3-7.09,1.43-10.79,0.72c-4.13-0.79-15.59-0.07-25.69-10.17C69.93,282.39,69.02,285.91,77.66,270.94z M81.15,488.31
		c0-6.41-1.9-10.87,0.21-21.38c6.38-31.83,6.07-22.59,5.45-36.48c-0.4-8.89-3.76-11.13-6.17-20.55c-0.03-0.1-12.47-39.99-11.1-41.36
		c7.66-5.48,26.68-10.98,31.32-10.98c9.49,0,13.44-0.64,20.35,1.54c0.63,3.13-0.19,3.39-0.2,5.31c-0.04,9.35,2.63,33.21,2.36,55.32
		c-0.05,4.28-4.93,12.97-4.93,19.76c0,0.13-9.62,33.48-9.96,60.5c-0.11,8.6-1.24,16.49-0.82,25.18c0.9,18.6,2.79,15.43-1.03,18.29
		c-3.62,3.1-7.84,5.48-7.88,10.69c-0.01,1.9,0.55,2.6-0.24,3.39c-12.06,1.03-6.58-4.44-7.3-7.29c-0.66-3.85,1.64-4.25,1.34-10.58
		C92.06,529.44,81.15,506.29,81.15,488.31z M143.11,592.94c0,0.1-0.39-0.09,1.16-1.59c1.28-1.24,2.96-1.68,4.6-1.81
		C146.92,592.03,146.26,592.43,143.11,592.94z M148.99,586.56c-2.66,0.59-5.2,0.89-6.27,2.77c-1.14,2.02-4.06,2.93-4.46,3.7
		c0.92,0,1.75,0.06,2.61-0.32c1.12-0.42,2.42,0.11,2.08,0.45c-0.6,0.71-3.83,0.9-12.46,3.57c-3.49,1.08-4.73,0.3-13.15-0.21
		c-2.26-0.14-4.36-0.37-5.86-2.26c-0.32-0.4-1.02-0.52-1.54-0.82c-9.76-5.71-10.13-13.23-11.92-14.7c-4.69-1.7-6.16,1.25-11-1.23
		c-4.56-2.34-9.79-2.24-7.61-5.86c2.32-3.83,1.13-4.2,2.88-8.43c1.75-4.23,4.51-6.75,5.24-13.57c0.45-4.2,1.95-1.32,1.95-0.31
		c-0.47,0.47-1.55,2.8-1.55,4.81c0,1.89,0.76,3.79,2.47,5.66c7.02-0.23,11.3,2.32,11.3-5.34c-0.29-3.99,2.97-6.51,7.09-8.84
		c2.23,8.35,0.69,3.56,2.06,2.88c1.13,0.62,0.31,2.06,1.13,2.77c0.72,0.72,1.54,1.44,1.85,2.57c-2.02,1.34-9.66,2.24-9.66,5.34
		c0.37,1.1,1.28,1.28,2.36,0.92c6.81-2.26,0.85-0.35,10.79-2.26c1.3-0.25,1.2,0.83,1.1,0.83c-3.13,0.88-10.87,2.59-9.32,5.03
		c2.72,1.36,14.86-5.03,13.15-0.92c-8.55,1.71-9.34,2.49-9.34,4.22c1.25,2.78,9.53-0.36,12.33-1.55c1.5,1.2,1.91,2.84,1.75,2.67
		c0.51,0.72,1.75,0.72,1.75,1.95c-0.1,0-2.33,1.34-2.47,1.44c-0.82,0.51-2.06,0.72-1.95,2.57c2.1,0,3.55,0.46,6.68-2.67
		c1.68,0.12,4.47,3.34,3.42,0.73c0.74-0.02-0.15-0.76,13.23,7.71c0.2,0.13,1.85,0.87,1.85,1.76
		C149.5,585.17,149.67,585.68,148.99,586.56z M134.23,571.9c-0.3,0-0.38-0.09-0.47-0.29C133.47,571,134.15,571.69,134.23,571.9z
		 M141.17,365.39c1.44,5.52,0.25,15.8-1.44,23.43c-1.61,7.3-7.14,30.3-7.19,30.42c-2.81,5.75,1.54,9.72-2.47,15.31
		c-3.73,5.22-0.68,4.74-5.96,21.38c-1.75,5.5-6.85,35.13-7.3,38.44c-1.92,14.34,1.48,19.16-0.72,26.82
		c-1.1,3.83-0.36,6.65,4.21,17.88c0.1,3.19-2.67,4.83-2.16,7.5c1.82-0.2,3.2-4.37,4.73-6.27c0.44-0.54-0.15-1.4,1.04-1.85
		c0.69,1.09,5.37,5.65,4.1,6.04c-1.78,0.55-3.44,1.67-5.23,2.69c-2.12,1.21-3.64,2.51-1.64,3.91c1.13,0,4.19-2.2,7.61-3.91
		c0.77-0.38,2.14,1.29,1.75,2.88c-11.05,3.15-7.79,6.63-6.38,6.17c8.68-2.84,8.61-3.73,10.07-1.54c1.2,1.2-3.95,2.05-5.24,4.52
		c1.28,4.48,8.53-1.85,9.65-1.85c1.54-0.82,1.95-0.72,3.6,0.92c-0.09,0.6-4.92,3.58-5.45,3.91c-0.51,0.32-0.92,0.82-0.82,1.54
		c1.33,1.09,1.57,2.11,8.74-2.67c2.28,1.37,1.29,0.77,1.75,1.23c-4.32,2.47-4.32,2.47-4.73,4.42c3.13,0.8,4.44-1.56,6.47-3.6
		c5.55,2.77,11,5.55,16.44,8.32c0,3.95-6.01,6.63-4.11,8.53c1.37-0.17,1.93-2.39,3.4-2.57c0.31,0.62,0.41,1.03,0,1.75
		c-1.06,0.71-7.79,6.02-11.41,4.93c-1.13-1.44,0-2.36,0.31-3.39c-1.44-1.87-5.43-3.18-7.3-4.62c-4.77-3.68-9.97-6.68-15-9.97
		c-2-1.14-0.99-0.66-5.11-5.11c-1.5-1.62-3.01-3.2-4.45-4.76c-0.95-1.7,0.88-2.47-3.39-3.08c-3.6-2.26-3.08-5.96-3.39-8.84
		c-1.18-2.17-2.38,0.67-2.88-4.32c-1.35-29.76,1.67-40.8,0.72-55.7c-0.23-3.59,4.26-19.91,6.89-37.1c0.74-4.82,2.67-10.5,2.67-11.1
		c0.95-0.32,1.32-0.84,1.54-1.64c0-3.26,0.36-12.15,2.16-14.7c2.61-3.26-2.8-65.97-1.54-66.8c5.04-1.23,10.48-0.72,15.72-1.95
		C143.55,349.63,140.48,362.76,141.17,365.39z M141.07,343.71c0.22,1.44,0.41,2.77,0.21,4.42c-0.11,0.01-10.67,1.26-17.99,2.26
		c-1.54-3.7-1.44-7.61-1.95-11.2c1.33-2.64,3.19-7.25,2.68-7.42c0.16-0.19,0.26-0.43,0.3-0.7c-0.82,0-0.72,0.62-0.82,1.03
		c0.02-0.01,0.04-0.02,0.07-0.03c-0.1,0.11-0.22,0.25-0.36,0.43c-0.09,0.11-1.96,3.86-1.96,2.98c0-3.79,0.26-4.52-0.62-1.95
		c-2.43,7.1,3.13,23.57,0.34,22.19c-3.07-1.51-6.74-1.21-10.31-2.33c-2.81,1.88-25.15,1.11-38.86,10.61
		c-1.32,0.92-1.24,1.06-1.66,1.16c-1.21,0.3-1.63-2.09-1.41-3.45c-2.09-0.7-1.99-2.06-3.8-3.29c-2.51-1.69-3.41-3.67-7.4-9.66
		c-4.78-7.17-4.69-16.26-5.04-26.52c-0.63-18.93,8.87-26.48,12.01-32.28c1.84-2.95,1.38-2.26,1.95-2.26
		c0.61,0.61,4.54,5.79,9.35,7.71c18.31,7.29,25.61,4.15,30.42,5.76c1.09,5.01,5.81,9.05,5.66,10.54c0,0.57-4.87,2.58-4.22,7.44
		c1.13,0.72,2.16,1.44,3.19,2.06c0.27,0.73,0.89,4.01,2.4,2.43c0.16-0.11-0.18-0.55-0.34-1.42c-0.06-0.32-0.01-0.43,0.1-0.6
		c0.82-0.72,1.54,0.62,2.36,0.21c0.73-0.26,1.19-0.95,1.34-1.54c-1.31-5.16,1.38-3.33-0.51-6.17c-0.1-0.21-0.31-0.31-0.51-0.41
		c-0.41,0.21-0.92,0.31-1.34,0.51c-2.08-1.07,0-1.55-0.1-2.67c-4.45-6.43-5.86-6.56-5.86-12.02c0-9.33-2.19-7-3.19-10.17
		c-2.44-7.77-4.66-13.7-9.35-20.97c-7.68-11.88-16.39-38.44-16.34-38.64c0.49-1.47-0.12-2.75-1.03-4.01
		c-2.05-2.85-3.43-8.47-4.62-10.07c-0.57-0.67-0.66-1.81-0.41-2.47c0.58-1.55,0.02-2.94-0.41-4.52c-1.24-4.6-1.37-9.12-4.83-16.96
		c-2.47-5.61-5.1-11.44-5.08-14.49c0.04-5.42,0.32,2.1,6,2.67c-0.51-0.51-0.83-1.12-1.34-1.44c-4.03-2.52-3.3-7.45-4.42-8.74
		c-2.73-3.15-3.98-24.85-4.01-28.98c-0.02-2.86-0.53-2.02-0.6-4.71c-0.3-11.32,19.08-33.73,34.43-20.43
		c0.02-0.1,0.13-0.91,0.13-1.02c0.08-0.67,0.59,0.33,1.05-0.27c0.24-0.36-5.75-5.71-4.5-8.21c2.74-2.05,2.36-1.07,3.34-3.86
		c1.5,1.02,0.31,2.83,5.09,1.4c1.65-0.62,1.75-2.5,0.62-2.88c-0.72,0.21-1.03,1.23-2.06,1.13c-2.24-0.67-2.6-2.53-7.81-10.79
		c-0.32-0.51-0.37-1.17,0.1-1.64c0.19,0.06,1.86,0.55,2.06,0.62c0.22,2.18,0.25,3.69,1.75,4.93c0.94,0.93,1.95,0.93,2.77,0.1
		c-0.51-2.12-2.78-4.07-1.75-6.68c0.72-0.62,1.13-1.75,2.16-2.06c0.62,0.31,0.82,0.92,0.82,1.54c0,0.41-1.23,1.16-1.34,2.36
		c0.7,0.71,0.9,3.52,1.85,5.14c4.99-3.67,0.72-3.69,0.1-5.55c2.46-3.68-1-5.8-2.88-7.5c-3.46-2.77-5.13,7.16-5.26,3.35
		c-0.06-1.81,1.93-4.94,4.75-5.82c3.67,0.46,2.19,3.76,6.99,5.86c1.9,0.83,3.01,0.13,4.01-1.54c-1.38-0.32-2.7,0.12-4.01-0.62
		c4.82-0.8,5.89-2.96,6.78-3.19c2.36-0.92,4.21-2.67,6.27-3.91c0.1-1.44,0.41-2.67,1.13-3.7c2.64-1.59,0.74-1.22,2.16-3.91
		c0.92-1.75,1.21-3.68,0.84-5.86c-3.34,0.12-5.36-0.55-7.11-1.64c1.03,0,2.06,0.1,3.08,0.21c0.85,0.14,6.57-2.17,9.15,0.41
		c1.62-0.55,2.19-1.15,2.96-1.92c0.09,0.27,1.15,0.22,3.83,2.23c1.75-1.13,3.7-0.62,5.34-1.23c0.82,0.62,1.54,1.03,2.16,1.54
		c1.75,5.04,2.06,10.28,3.91,14.8c-0.97,3.23-4.86,1.48-3.39,8.22c1.59,7.27,4.11,8.31,4.11,9.97c0,0.18-0.14,1.14-0.25,1.14
		c-0.61,0.21-1.31,0.5-1.91,0.71c-2.57-1.03-2.98-0.92-3.91,1.03c0.07,0.07,1.28,0.45,1.54,0.51c0.73,1.02-0.49,0.87,1.23,4.32
		c-1.13,2.26-2.43,1.54-5.45,1.54c-0.72,0-1.44-0.51-2.06,0.1c0,2.36,3.68,1.12,5.34,1.75c2.09,1.79,1.14,2.37,0.31,3.19
		c-2.5,2.46,2.06,3.17-1.64,7.81c-9.76,1.3-4.25,0.55-11.61-0.31c-2.26-0.26-4.52-0.1-6.99-0.82c0.43,1.2,1.76,1.28,1.95,2.16
		c-0.1,1.54-0.92,2.98-0.72,4.42c0.79,0.79,1.66,0.79,2.11-0.28c0.42-0.99,0.19-2.37,0.98-3.32c2.24,0,7.74-0.49,10.69,3.7
		c3.86,5.49,6.45,12.92,5.04,20.35c-0.79-0.39-0.37,0.35-2.67-1.95c-1.23-1.23-2.88-2.06-3.08-4.21c-0.1-0.62-0.82-1.23-1.64-1.23
		c-2.08,0-5.26-5.14-6.78-7.61c-1.6-3.21-3.03,0.66,5.86,9.56c3.17,3.17,9.41,8.74,9.87,9.46c4.08,6.43,8.82,6.38,14.39,15
		c4.19,6.49,6.65,9.53,6.17,16.03c0,3.94-0.7,7.54-3.7,10.07c-0.61,0.52-1.03,1.34-1.64,1.85c-2.49,2.49-2.72,0.49-8.22,6.58
		c-0.19,0.78-0.35,2.56-0.91,3.49c-0.14-0.14,1.29,0.86,0.51,3.19c-2.52,0.5-6.57-0.32-12.02,1.75c-0.85,0.32-8.4,1.76-13.26,3.39
		c-5.3,1.78-14.74,2.84-19.22,2.47c-1.03-1.95-2.06-3.8-3.19-5.86c1.03-3.29,0.8-6.79,1.23-10.28c0.19-1.54,0.62-3.08,0.82-4.52
		c0.21-1.54-0.33-3.08-0.31-4.62c0.05-4.63,0.72-9.35,0.21-13.87c1.28-1.36,2.63-2.12,4.32-2.88c4.49-2.03,5.16-6.95,6.58-9.45
		c4.58-8.09-4.66-25.09-8.84-33.5c-0.19-0.38-0.39-0.75-0.9-0.8c0.04,0.85,0.5,1.45,0.8,2.14c1.65,3.29-0.67,1.1-0.81,2.73
		c-0.04,0.18,0.01,0.18-0.12,0.04c3.31,3.31,6.4,10.03,6.99,13.87c2.11,13.81,2.81,16.4-6.37,24.05c-1.99,1.19-1.34,1.88-3.29-11.2
		c-0.09-0.62-0.21-1.34,0.1-1.75c1.13-2.36,0.62-4.93,0.82-7.4c0-0.31-0.31-0.62-0.92-0.62c-0.78,1.3-0.71,3.32-2.26,4.43
		c0,2.32-0.1,4.94,0.51,9.87c2.96,23.82-0.24,36.47,0.82,42.44c-3.3-2.83-3.1-6.5-4.52-4.73c0.53,1.59,0.41,2.17,2.67,5.45
		c6.03,8.73,7.7,22.88,11.1,31.86c0.56,1.12,1,5.37,2.06,9.56c3.19,12.67,5.67,16.8,6.78,23.84c1.29,8.16,1.12,10.04,2.26,11.51
		c1.45,1.88,4.67,11.89,11.1,19.53c1.22,1.45,2.67,2.77,3.29,4.73c0.52,1.64,1.44,2.98,2.06,4.62c-2.33,11.01-2.02,10.08-2.76,10.66
		c-4.27,3.29,0.09-5.36,0.09-9.12c-2.84,2.71-1.93,3.23-4.32,10.79c-0.84,0-2.24,1.57-1.64-2.06c0.77-4.63,1.53-5.91,0-5.65
		c-1.11,0.9-1.98,6.44-1.85,7.91c0,0.49-0.22,0.91-0.62,1.06c-1.62,0.72,0.12-9.63-1.95-9.28c-0.89,2.55,0.08,5.8-0.82,8.53
		c-4.08,0.27-5.14,0.27-5.14,1.64c2.47,0.62,5.14,0.21,7.3,1.23c1.44-0.1,2.06-1.34,3.19-1.44c1.13-0.21,2.57-0.1,3.39-1.03
		c1.09-1.09,1.75-0.2,4.73-2.26c1.14-2.31,0.7-4.65,1.13-6.78C139.24,314.83,136.1,311.64,141.07,343.71z M115.06,320.89
		c-3.17-1.87-8.13,0.64-4.52-6.06C113.08,313.81,115.06,317.88,115.06,320.89z M91.94,87.29c0.31-0.31,0.62-2.4,2.36-2.98
		c0.07,0.37,0.32,0.64,0.51,0.92C93.53,86.72,93.48,86.79,91.94,87.29z M142.71,323.77c-0.31-0.82-1.03-1.64-0.92-2.36
		c0.65-3.11-1.9-6.13-0.62-9.97c0.72,0.1,1.34,0.1,2.16,0.1c2.24,3.78,1.75,7.75,2.47,11.61
		C144.67,323.36,142.81,323.77,142.71,323.77z M147.6,325.2c0.12,0.13,0.2,0.36,0.14,0.73c-0.55,0.11-1.07,0.3-1.86,0.41
		C145.99,326.17,146.81,324.35,147.6,325.2z M157,354.29c-0.92,0.1-1.85,0.31-2.77,0.41c-1.34-1.95-1.34-1.95-0.1-4.21
		c1.13,0.51,2.36,0.21,3.08,1.13C157.61,352.54,157.71,353.47,157,354.29z M257.2,520.72c0.57-5.15,0.21,2.36,0.21,8.81
		C257.12,527.03,256.93,523.18,257.2,520.72z M250.69,511.09c0.41,0.29,0.5,0.68,0.45,1.15
		C250.7,512.02,250.64,511.59,250.69,511.09z M250.22,510.41c-0.19-0.1-1.93-1.56-2.88-2.91
		C248.71,508.04,249.63,509.08,250.22,510.41z M245.57,506.2c0.2-0.06,1.13,0.49,1.22,0.99c-0.83,0-0.66-0.55-0.6-0.7
		C245.66,506.7,245.14,506.27,245.57,506.2z M254.22,563.95c0-1.44,0-2.67,0-3.91C254.42,561.27,254.83,562.51,254.22,563.95z
		 M254.83,525.83c-4.45,39.55-2.35,37.27-3.57,36.92c-0.49-0.14-0.92-0.9-1.47-0.44c-1.59,4.99,1.28,3-1.44,7.3
		c-7.9,12.48-23.14,13.48-36.59-10.05c-2.74-4.8-1.47-13.52,5.45-17.99c1.13-0.73,2.26-1.34,3.49-2.06
		c0.51-1.54,1.75-2.88,0.82-4.83c-3.21-3.21-2.43-2.26-4.42-9.46c-0.26-0.92,0.92-8.23,1.03-8.94c1.8-11.28,7.91-13.39,13.97-14.17
		c3.37,0,16.24,6.41,17.89,13.25c0.53,1.59,2.33,1.41,1.95-0.21c-0.04-0.16-1.01-3.02-0.38-2.56c0.46,0.34,0.62,0.94,0.79,1.42
		C253.38,516.88,256.43,511.6,254.83,525.83z M262.85,566.31c-0.82,0.24-1.7,0.14-2.26-0.51c-1.44-0.41-3.19,0.21-4.42-1.34
		c2.39-20.34,2.37-38.01,3.56-37.56c0.51,0.19,0.87,0.74,1.79,0.46c0.45-0.72,3.31-3.28,0.77-3.44c-0.92-0.06-1.78,0.87-2.72,0.87
		c0-8.57-1.62-5.08,7.09-3.49C266.86,525,263.67,562.71,262.85,566.31z"/> <path d="M846.49,345.45c-8.02-4.01-16.34-5.96-25.08-5.65c-0.96-0.64,29.8-328.37,28.88-330.21c-1.24-2.48-4.09-2.19-5.14,0
		c-0.52,1.09-30.04,325.6-30.52,331.34c-2.36,3.01-12.91,8-12.06,10.59c2.48,0.16,4.57-2.68,11.03-6.99
		c0.72,2.06,0.72,2.06,0.1,6.06c-0.72,0.41-1.64,0.72-2.47,1.23c-1.44,1.03-1.57,2.8-0.41,4.01c1.39,1.45,2.38,1.25,4.42,3.08
		c1.79,1.34,2.42,0.38,7.91-2.36c-0.41-1.75,0.62-3.29,0.1-4.73c-1.71-2.56-5.19,2.22-2.67-9.87c1.13-0.92,2.67,0,3.6-0.82
		c3.49,0.92,6.47,2.57,9.97,2.57c0-0.17,1.35,1.08,3.49,0.92c1.54-0.11,2.98,0.51,4.21,1.23c0.31,1.23-0.52,1.64-1.13,2.16
		c-16.42,13.9-20.39,21.52-10.89,12.64c10.95-10.24,12.29-12.75,12.23-9.66c-0.19,10.58,0.48,5.73-4.62,39.77
		c-0.79,1.23-13.07,11.23-12.75,13.83c1.23-0.44,10.39-10.03,10.49-10.13c0.41-0.42,0.82-0.92,1.64-0.82
		c-1.34,15.11-2.77,30.21-5.96,45.32c-4.69,6.5-4.3,5.77-4.01,6.06c2.23-0.64,4.95-8.57,2.06,6.58c-0.22,1.13-1.13,1.85-1.75,2.67
		c-0.31,1.34-1.54,1.95-1.54,3.19c1.42,0,2.98-3.95,2.98-0.31c0,2.76-0.82,1.18-0.82,11.82c0,6.29,1.26,3.1,0.82,6.17
		c-1.4,9.8-0.32,8.23-2.67,11.2c-11.01,13.89-17.63,18.48-17.48,20.13c3.54-0.14,17.58-18.68,18.51-18.8
		c-0.21,1.64-1.03,3.29-0.41,4.83c-3.6,5.76-7.46,11.16-11.51,16.34c-16.11,20.59,0.67,6.8,12.02-14.08
		c2.94-5.41,3.18-20.3,3.08-27.95C830.13,465.28,847.07,358.68,846.49,345.45z M812.88,354.19c0.13-0.26,0.08-0.24,0.17-0.07
		C813.1,354.22,813.13,354.19,812.88,354.19z M820.39,352.34c0.62,0.72,0.72,1.34-0.51,1.95
		C819.36,353.37,819.46,352.75,820.39,352.34z M833.13,342.78c0.46-0.55,0.67-0.2,0.94,0.09
		C833.75,342.87,833.47,342.86,833.13,342.78z M834.27,343.55c-0.03,0.01-0.06,0.02-0.09,0.02c0.07-0.66,0.03-0.58,0.24-0.49
		C835.4,343.5,835.19,343.35,834.27,343.55z"/> <path d="M808.34,506.61c0.16,0,0.11-0.01,0.11-0.12C808.34,506.49,808.37,506.5,808.34,506.61z"/> <path d="M824.6,404.65l0.1,0.1C824.67,404.57,824.76,404.6,824.6,404.65z"/> <path d="M383.5,364.47l0.1,0.1C383.57,364.42,383.66,364.42,383.5,364.47z"/> <path d="M409.09,9.7c-1.24-2.48-4.09-2.19-5.14,0c-0.53,1.11-30.34,329.06-30.52,331.23c-2.3,2.93-12.89,8.04-12.06,10.59
		c2.48,0.16,4.57-2.69,11.03-6.99c0.72,2.06,0.72,2.06,0.1,6.06c-0.72,0.41-1.64,0.72-2.47,1.23c-1.44,1.03-1.57,2.8-0.41,4.01
		c1.39,1.45,2.38,1.25,4.42,3.08c1.79,1.34,2.42,0.38,7.91-2.36c-0.41-1.75,0.62-3.29,0.1-4.73c-1.07-1.6-3.49-0.38-3.49-2.36
		c0.21-2.47,0.41-5.04,0.72-7.61c1.44-0.21,2.67-0.41,3.91-0.62c3.19,0.92,6.27,2.47,9.76,2.47c0-0.17,1.35,1.09,3.49,0.92
		c1.34-0.1,2.16,0.31,4.21,1.44c0.21,1.13-0.83,1.64-1.44,2.16c-1.55,1.32-15.82,14.16-15.63,16.21
		c3.45-1.06,15.45-14.51,16.86-14.67c2.23,1.34-3.65,37.25-4.21,41.01c-0.92,1.44-2.27,2.25-3.49,3.29
		c-8.26,7-17.04,19.08,1.23,0.41c0.41-0.42,0.82-0.92,1.64-0.82c-1.34,15.11-2.77,30.21-5.96,45.32c-4.69,6.5-4.3,5.77-4.01,6.06
		c2.23-0.64,4.95-8.57,2.06,6.58c-0.38,1.97-3.58,3.8-3.6,5.63c1.31-0.09,2.88-3.87,2.88-0.29c0,2.76-0.82,1.18-0.82,11.82
		c0,6.29,1.26,3.1,0.82,6.17c-1.4,9.8-0.32,8.23-2.67,11.2c-12.73,16.06-17.77,17.9-17.16,20.35c3.78,0,17.2-18.63,18.6-18.81
		c-0.31,1.64-0.82,3.29-0.51,5.04c-8.07,13.05-14.43,19.23-17.78,24.97c-0.44,0.87-0.03,2.09,1.34,0.72
		c6.12-6.12,12.93-15.94,17.06-23.53c2.94-5.41,3.18-20.3,3.08-27.95c-0.02-1.22,15.41-98.47,16.44-121.27
		c-8.12-4.01-16.44-6.06-25.18-5.76C379.11,339.17,410.08,11.67,409.09,9.7z M371.79,354.19c0.13-0.26,0.08-0.24,0.16-0.08
		C372.01,354.22,372.04,354.19,371.79,354.19z M379.09,352.44c0.72,1.13,0.72,1.13-0.51,1.64
		C378.14,353.34,378.29,352.74,379.09,352.44z M393.04,343.02c1.08,0.4,0.98,0.38,0.15,0.5
		C392.88,343.57,392.97,343.72,393.04,343.02z M392.86,342.87c-0.32,0-0.61-0.02-0.92-0.09
		C392.37,342.26,392.55,342.54,392.86,342.87z"/> <path d="M384.12,457.27c0,0,0-0.01,0-0.02C384.01,457.28,383.96,457.27,384.12,457.27z"/> <path d="M383.4,404.65l0.1,0.1C383.47,404.57,383.56,404.6,383.4,404.65z"/> <path d="M721.93,572.48c0.01-0.11,30.92-347.16,30.93-347.27C810.21-419.65,714.15,611.36,721.93,572.48z"/> <path d="M279.7,573.81c1.91,0.32,50.66-560.52,50.67-560.62C331.02-17.85,279.62,573.71,279.7,573.81z"/> <path d="M324.92,17.82c-6.26,72.73-42.85,499.15-49.12,557.74c-0.46,4.26,1.23,2.84,1.23,1.95
		C277.04,577.41,328.3,11.06,324.92,17.82z"/> <path d="M766.12,17.3c-0.05,0.1-50.01,560.26-48.61,561.24C718.12,578.01,769.12,17.3,766.12,17.3z"/> <path d="M361,0.14c-0.01,0.1-50.22,551.83-49.54,552.91C313.63,552.46,362.98-0.99,361,0.14z"/> <path d="M754.2,527.77c-2.43,26.06-2.41,24.63-1.75,25.38C754.64,553.52,866.5-674.52,754.2,527.77z"/> <path d="M338.39,551.61c1.52,0.38,53.78-547.57,53.75-547.67C390.07,3.12,337.36,549.97,338.39,551.61z"/> <path d="M832.31,4.46c-0.24,0.24-53.27,547.26-52.41,547.77C781.65,551.98,833.88,3.67,832.31,4.46z"/> <path d="M804.15,240.93c-6.96,75.37-30.87,312.03-29.6,313.04C778.43,555.92,866.36-432.88,804.15,240.93z"/> <path d="M333.66,554.29C335,553.84,387.2,6.15,387.2,5.9C384.69,4.22,332.96,553.97,333.66,554.29z"/> <path d="M372.3,416.47l0.1,0.1C372.4,416.4,372.43,416.44,372.3,416.47z"/> <path d="M376.21,365.8c-5.57-1.19-11.08-2.8-14.39-3.08c-2.91-0.25-2.72,1.34-2.26,1.34c5.35,0,13.53,3.42,19.63,3.8
		c0.62,2.26,0.21,7.61-0.82,11.72c-17.98-3.85-17.89-2.99,0.21,1.34c-0.51,4.83-1.13,9.45-2.16,14.18
		c-2.36,0.21-4.52-1.13-7.09-0.62c2.9,2.29,7.05,1.22,6.58,3.7c-0.54,2.87-1.13,5.86-1.75,8.94c-3.19-0.82-6.17-1.64-9.04-2.36
		c-0.67,1.79,7.29,2.52,8.43,4.52c-0.1,2.43-1.19,4.75-1.13,7.16c0.6-0.17,0.56-0.91,1.23-1.31c-0.01,0.11-1.55,24.41-1.13,25.8
		c1.03-1.13,1.13-1.13,1.13-2.57c3.03-46.47-1.54-10.57,6.89-59.61c0.39-0.79,1.75-1.21,1.74-2.55c-0.52,0.09-0.75,0.79-1.33,0.6
		c-0.21-3.68-0.1-7.26,1.32-10.73C379.72,365.16,382.29,367.1,376.21,365.8z"/> <path d="M382.37,366.11l-0.1-0.1C382.25,366.05,382.23,366.07,382.37,366.11z"/> <path d="M382.37,376.18l-0.1-0.1C382.27,376.27,382.21,376.18,382.37,376.18z"/> <path d="M813.5,416.47l0.1,0.1C813.6,416.4,813.63,416.44,813.5,416.47z"/> <path d="M822.13,365.8c-3.34,2.16-19.41-5.8-21.89-2.26c0.21,0.1,0.31,0.41,0.51,0.41c5.48,0,13.12,3.47,19.94,3.8
		c0.1,3.91-0.31,7.71-0.92,11.61c-2.47-0.31-4.73-1.13-6.99-1.44c-12.05-1.64-6.7-0.87,6.68,2.77c0.21,2.67-0.62,8.74-1.95,14.29
		c-2.26,0-4.86-1.27-6.99-0.62c2.06,1.44,4.52,1.34,6.58,2.47c0,3.39-1.13,6.58-1.75,10.07c-3.08-0.82-6.06-1.64-9.04-2.36
		c-0.66,1.32,0.75,0.58,8.43,4.42c-0.1,2.62-1.19,4.95-1.13,7.47c0.6-0.17,0.55-0.91,1.23-1.31c-1.56,28.11-1.41,24.87-1.13,25.8
		c1.03-1.13,1.13-1.13,1.13-2.57c1.96-30,0.9-28.74,1.75-31.86c2.02-7.43,3.91-19.67,4.93-27.34c0.6-1.18,1.94-1.62,1.94-2.94
		c-0.45,0.17-0.76,0.76-1.33,0.58c-0.21-3.66-0.09-7.33,1.34-10.69C823.06,366.01,822.45,365.6,822.13,365.8z"/> <path d="M154.32,308.66c4.69,2.99,6.95-1.33,10.69,0.31c1.69-3.38,1.12-2.62,3.29-3.7c1.73-1.15,1.91-2.52,2.47-6.06
		c0.78-4.97,2.13-3.71,1.76-6.35c-4.54-4.72-3.82-7.87-6.58-12.54c-1.87-3.17-3.02-6.47-2.67-10.28c0.13-1.39,0.18-2.79-0.92-3.9
		c0,1.17-0.67,5.78-0.63,6.54c0.08,1.59,1.18,2.99,1.35,4.55c0.11,1.03,0.41,2.16,0.82,3.08c7.71,17.3,8.07,8.79,4.73,21.67
		c-0.1,0.51-0.21,1.13-1.03,1.13c-0.66-1.76,1.76-4.3,0.1-5.96c-3.73,9.58-3.7,9.15-4.73,9.56c-0.15-0.88,0.82-1.02,0.92-1.75
		c0-1.39,1.39-5.84-0.22-6.48c-2.37,2.59-1.85,6.08-3.29,9.04c-4.76,1.19-7.47-1.93-7.37-2.13c0.46-1.25,2.24-1.19,2.64-2.81
		c-2.14,0-4.5,1.46-6.68,2.06c-0.31-2.06,0.21-4.32-2.06-5.65c-0.37,1.1,0.31,1.97,0.7,2.79c0.4,0.83,0.43,5.13,0.33,5.13
		c0.1-0.1,2.36-0.6,2.47-0.62C151.75,307.12,153.07,307.86,154.32,308.66z"/> <path d="M609.5,302.49c-0.21,1.44-0.07,2.89-0.51,4.32c-0.38,1.24-0.19,2.67,0.21,3.91c7.86,24.46,10.33,13.31,7.5,24.56
		c-0.39,1.55-0.62,3.29-1.75,5.04c-0.62-2.36,1.13-4.11,0.51-6.06c-1.94-0.65-3.09,9.07-5.04,9.35c-0.72-0.92,0.62-1.03,0.72-1.64
		c0-1.3,1.47-5.57,0-6.68c-2.18,1.45-2.18,6.13-3.49,8.94c-2.88,1.03-5.24,0.21-7.4-1.85c0.21-1.54,2.26-1.34,2.57-2.88
		c-2.26,0-4.11,1.03-6.17,2.06c-0.9-1.03-0.28-4.49-2.47-4.83c-0.89,1.65,1.03,0.82,1.03,6.68c1.03,0.62,1.64-0.41,2.47-0.21
		c1.23,0.72,2.46,1.45,3.7,2.26c4.87,3.16,6.96-1.24,10.59,0.31c0.92-0.62,1.13-1.64,1.64-2.57c2.92-1.75,3.39-0.3,4.52-7.3
		c0.74-4.57,1.99-3.44,1.64-6.17c-4.25-4.58-4.07-8.13-6.58-12.54C608.33,308.62,612.05,305.55,609.5,302.49z"/> <path d="M364.29,519.96c0-15.23,0.46-15.28-0.41-19.01c-0.71,6.74-0.38,5.06-1.75,6.89c-0.1,3.8-0.41,7.5-0.72,11.72
		c-3.6-0.41-6.99,0.62-10.38-1.23c-4.17,0.76-3.91-0.73-5.76-0.21c-0.51,0.1-0.82,0.41-0.82,1.03c0.43,1.08,4.17,1.54,5.04,1.54
		c2.16,0,4.11,1.19,6.37,0.92c8.18-0.97,9.21,1.02,10.28,0.41C367.4,521.17,365.06,520.42,364.29,519.96z"/> <path d="M805.38,519.86c0.21-4.73-0.21-9.46,0.51-14.29c0.1-0.41,0-1.03-0.21-1.34c-0.52-1.04-0.24-8.17-1.03,1.03
		c-0.09,1.03-0.31,1.85-1.23,2.26c-0.31,4.01-0.62,7.81-0.82,11.61c-4.42,0.62-7.3,0.41-10.17-0.82c-1.34,0.21-2.77,0.51-4.32-0.21
		c-0.82-0.31-1.75-0.31-2.57,0.62c1.58,2.1,5.19,1.53,7.81,2.36c3.75,1.19,4.63-0.74,13.77,1.03
		C808.52,521.07,806.99,520.55,805.38,519.86z"/> <path d="M821.52,478.85c-1.79-0.6-0.49,2.12-10.69,10.38c-0.41,0.41-0.92,0.82-1.13,1.44
		C812.95,489.59,820.16,482.94,821.52,478.85z"/> <path d="M380.42,478.85c-1.79-0.6-0.47,2.15-10.69,10.38c-0.51,0.41-1.03,0.82-1.13,1.44
		C371.84,489.59,379.06,482.93,380.42,478.85z"/> <path d="M808.05,485.22c4.69-27.75,1.95-22.14,1.95-19.42c-0.46,8.04-1.8,12.21-2.35,19.77
		C807.84,485.46,808.05,485.31,808.05,485.22z"/> <path d="M369.42,463.44c-0.82,0.62-0.62,1.54-0.62,2.36c-0.47,8.09-1.81,12.16-2.35,19.67
		C367.2,485.01,369.42,471.12,369.42,463.44z"/> <path d="M366.34,485.53l0.1,0.1C366.44,485.48,366.51,485.42,366.34,485.53z"/> <path d="M356.68,493.03c-2.93-1.32-9.84-4.95-10.17-1.95c3.6,0.31,6.89,1.23,9.87,2.47C356.99,493.34,356.99,493.14,356.68,493.03z
		"/> <path d="M797.37,492.73c-2.43-1.08-9.66-4.46-9.66-1.64c3.49,0.21,6.78,1.34,10.07,2.47C798.09,492.93,797.67,492.83,797.37,492.73
		z"/> <path d="M366.34,434.35c-0.91-0.71-6.49-2.19-9.66-3.19C358.74,433.63,361.92,434.45,366.34,434.35z"/> <path d="M807.85,434.15c-3.49-1.03-6.78-2.06-9.97-2.98C798.42,433.85,804.83,434.49,807.85,434.15z"/> <path d="M786.58,506.5c2.77,0.82,5.24,1.85,8.02,1.54c-1.95-1.95-4.52-2.42-7.19-2.47C787.19,505.57,786.99,505.98,786.58,506.5z"/> <path d="M345.38,506.5c2.77,0.82,5.34,1.85,8.02,1.54c-1.95-1.95-4.52-2.42-7.19-2.47C345.99,505.57,345.79,505.98,345.38,506.5z"/> <path d="M602.92,332.2h-0.21C602.82,332.2,602.75,332.25,602.92,332.2z"/> <path d="M602.73,332.22c-0.64,0.03-1.21-0.58-1.86-0.02c0,1.13,1.64,1.44,1.44,2.26c0.41,1.54-0.62,2.88,0.21,4.21
		c1.44-0.82,0.7-2.06,0.92-3.08C603.72,334.26,602.94,333.34,602.73,332.22z"/> <path d="M805.69,497.04c0.72-2.57,1.13-5.14,1.34-7.71C805.02,490,805.37,495,805.69,497.04z"/> <path d="M364.49,497.04c0.82-2.57,1.23-5.14,1.34-7.71C363.82,490,364.17,495,364.49,497.04z"/> <path d="M825.02,374.54c2-1.62,3.59-3.65,5.33-5.45c0.2-0.21,0.1-0.72,0.31-0.92C825.74,373.09,825.02,373.48,825.02,374.54z"/> <path d="M825.02,374.54c-0.04,0.03-0.07,0.07-0.11,0.1C825.02,374.75,825.02,374.83,825.02,374.54z"/> <path d="M389.16,369.09c0.16-0.17,0.13-0.46,0.16-0.79c-4.13,4.13-5.61,5.32-5.61,6.34C385.77,373.1,387.38,370.92,389.16,369.09z"/> <path d="M389.47,368.17l-0.1-0.1C389.28,368.38,389.32,368.32,389.47,368.17z"/> <path d="M378.67,463.13l0.1,0.1C378.94,463.03,379.02,463.03,378.67,463.13z"/> <path d="M384.22,458.5c0.2-0.21,0.21-0.62,0.31-0.92c-0.86,0-0.82,0.3-5.61,5.49C379.79,462.88,379.74,463.15,384.22,458.5z"/> <path d="M825.22,458.4c0.31-0.1,0.31-0.51,0.41-0.82c-1.06,0-1.12,0.87-5.74,5.53C821.05,463.02,822,462.15,825.22,458.4z"/> <path d="M601.38,309.18c-1.13,1.64-1.13,1.64-1.03,4.42C601.92,312.87,602.66,309.54,601.38,309.18z"/> <path d="M599.63,328.8c0.31,1.03,1.34,1.12,2.16,1.64c1.16,0.75,1.44,1.64,1.03,1.64c1.53,0.51,1.42-0.08,1.23-1.23
		C602.63,330.45,600.55,327.89,599.63,328.8z"/> <path d="M812.06,448.94c-0.9,0.72-0.52,1.33-0.81,6.89C812.14,455.1,811.58,453.3,812.06,448.94z"/> <path d="M811.14,456.32c0.12-0.28,0.11-0.37,0.11-0.49C811.11,455.94,811.14,455.92,811.14,456.32z"/> <path d="M370.76,449.05l-0.1-0.1C370.66,449.29,370.64,449.14,370.76,449.05z"/> <path d="M811.14,456.32c-0.88,2.28-0.51,4.74-0.62,7.01C811.35,462.67,811.14,461.86,811.14,456.32z"/> <path d="M369.94,456.35c-0.78,2.27-0.51,4.72-0.62,6.98C370.15,462.67,369.94,461.85,369.94,456.35z"/> <path d="M369.94,455.93c0,0.06,0,0.01,0,0.42c0.53-1.46,0.72,0.36,0.72-7.19C369.69,450.08,370.46,451.31,369.94,455.93z"/> <path d="M812.58,442.88c-0.92,1.57-0.37,3.8-0.62,6.06C812.78,448.29,812.58,447.35,812.58,442.88z"/> <path d="M371.38,442.88c-0.98,1.69-0.25,2.73-0.62,6.06C371.58,448.29,371.38,447.35,371.38,442.88z"/> <path d="M597.58,297.05c-0.79,0.59-0.33,1.36-0.1,2.26C598.81,298.59,598.81,297.97,597.58,297.05z"/> <path d="M595.21,334.66c1.64-0.31,1.64-0.31,3.39-1.75C596.04,333.12,596.04,333.12,595.21,334.66z"/> <path d="M827.17,445.35l-0.21-0.21c-1.19,0.69-2.09,1.68-2.7,2.85C825.78,447.81,826.57,446.63,827.17,445.35z"/> <path d="M824.09,448.02l0.1,0.1C824.28,447.9,824.33,448.02,824.09,448.02z"/> <path d="M386.07,445.35l-0.21-0.21c-1.19,0.69-2.09,1.68-2.7,2.85C384.69,447.81,385.48,446.63,386.07,445.35z"/> <path d="M382.99,448.02l0.1,0.1C383.18,447.9,383.23,448.02,382.99,448.02z"/> <path d="M807.02,489.1c-0.03,0.04-0.05,0.09-0.09,0.13C807.08,489.39,807.02,489.36,807.02,489.1z"/> <path d="M807.02,489.1c0.79-0.98,0.64-2.24,0.64-3.53C806.68,486.06,807.01,489,807.02,489.1z"/> <path d="M596.86,325.41c-0.24,0-0.64,1.34,0.31,1.34C597.95,326.75,597.62,325.16,596.86,325.41z"/> <path d="M597.06,287.7c-0.62,0.62-0.51,1.13,0.41,1.34C597.58,288.52,597.78,288,597.06,287.7z"/> <path d="M366.36,485.84c-0.89,1.02-0.44,2.3-0.64,3.49C366.6,488.27,366.46,487.02,366.36,485.84z"/> <path d="M366.34,485.63c0.05,0.28-0.03,0.23,0.1,0.1L366.34,485.63z"/> <path d="M767.36,4.15c0.1,0.21,0.21,0.41,0.31,0.62C769.73,4.08,767.65,2.97,767.36,4.15z"/> <path d="M326.26,3.94c-0.21,0.21,0,0.51,0.31,0.82C328.04,4.77,327.17,2.8,326.26,3.94z"/> <path d="M588.95,242.89c0.31-0.41,0.31-0.82-0.1-1.13C588.64,242.07,588.64,242.48,588.95,242.89z"/> <path d="M597.48,321.3c0.25,0.49,0.47,0.45,0.72,0.21C597.55,321.18,597.85,320.93,597.48,321.3z"/> <path d="M797.47,509.17c0.1,0,0.21-0.1,0.21-0.1c-0.1,0-0.21-0.1-0.31-0.1C797.13,508.96,797.08,509.17,797.47,509.17z"/> <path d="M813.71,443.81c0,0.27-0.03,0.27,0.1,0H813.71z"/> <path d="M354.32,508.24c-0.31-0.1-0.62-0.1-0.82-0.31C353.7,508.35,354.01,508.45,354.32,508.24z"/> <path d="M808.26,393.86c0.41-0.14,0.39-0.08,0-0.21V393.86z"/> <path d="M366.96,393.76l0.31,0.1C367.27,393.59,367.35,393.63,366.96,393.76z"/> <path d="M795.52,508.24c-0.31-0.1-0.62-0.1-0.82-0.31C794.9,508.35,795.21,508.45,795.52,508.24z"/> <path d="M372.1,417.29c0-0.31,0-0.5,0.08-0.67C372.03,416.79,371.86,416.98,372.1,417.29z"/> <path d="M813.19,417.29c0-0.41,0.1-0.62,0.21-0.82C813.3,416.67,812.88,416.88,813.19,417.29z"/> <path d="M372.61,443.91l-0.1-0.21C372.51,444.09,372.47,444.05,372.61,443.91z"/> <path d="M598.5,332.81c0.31-0.1,0.51-0.21,0.82-0.31C598.81,332.3,598.71,332.61,598.5,332.81z"/> <path d="M356.17,509.27c0.1-0.1,0.21-0.1,0.31-0.1C356.48,508.81,355.87,508.97,356.17,509.27z"/> <path d="M597.58,293.66c0.31-0.31,0.31-0.62,0.1-0.92h-0.21C597.17,293.04,597.17,293.35,597.58,293.66z"/> <path d="M368.6,490.88c0-0.15,0.33-0.43-0.21,0.1C368.5,490.98,368.6,490.98,368.6,490.88z"/> <path d="M367.27,506.6l-0.1-0.1C367.16,506.66,367.07,506.6,367.27,506.6z"/> <path d="M806.92,507.94c0.15-0.15,0.35-0.35,0.53-0.53C807.15,507.51,807.01,507.7,806.92,507.94z"/> <path d="M807.46,507.4c0.08-0.03,0.17-0.06,0.29-0.08c-0.3-0.3,0.48,0.02,0.6-0.71C807.51,506.66,807.82,507.04,807.46,507.4z"/> <path d="M366.23,507.43c0.09-0.04,0.21-0.08,0.32-0.11c-0.28-0.28,0.46-0.01,0.6-0.71C366.48,506.68,366.64,507.02,366.23,507.43z"/> <path d="M365.72,507.94c0.14-0.14,0.33-0.33,0.5-0.5C365.98,507.55,365.8,507.72,365.72,507.94z"/> <path d="M806.89,508.11c-0.08,0.03-0.13,0.03-0.07,0.03C806.75,508.21,806.78,508.18,806.89,508.11z"/> <path d="M365.72,508.1c-0.09,0.04-0.17,0.04-0.1,0.04C365.62,508.22,365.62,508.17,365.72,508.1z"/> <path d="M378.78,463.33c-0.13,0.13-0.31,0.31-0.47,0.47C378.5,463.69,378.64,463.54,378.78,463.33z"/> <path d="M378.06,464.05c0.43-0.43,0.24-0.18-0.1-0.1C377.44,464.72,376.83,465.28,378.06,464.05z"/> <path d="M818.54,464.77c0.21-0.21,0.41-0.51,0.62-0.72C818.85,464.26,818.64,464.46,818.54,464.77z"/> <path d="M818.54,464.77h-0.1C818.29,464.92,818.28,464.9,818.54,464.77z"/> <path d="M809.7,490.88c0-0.15,0.33-0.43-0.21,0.1C809.6,490.98,809.7,490.98,809.7,490.88z"/> <path d="M590.59,238.37c1.08-0.72,0.96-0.58,0.82-0.72C591.1,237.85,590.9,238.16,590.59,238.37z"/> <path d="M824.19,365.19c0.83-0.28,0.91-0.91,0.62-0.62c-0.04-0.18,0.07-0.16-0.1-0.1C824.84,364.6,824.91,364.47,824.19,365.19z"/> <path d="M383.81,364.47c-0.21,0.21-0.51,0.51-0.72,0.72C383.38,365.09,383.99,364.65,383.81,364.47z"/> <path d="M823.37,366.01c0.41-0.21,0.62-0.41,0.92-0.72C824.16,365.15,824.32,365.05,823.37,366.01z"/> <path d="M383.09,365.19c-0.31,0.31-0.51,0.51-0.82,0.82C383.41,365.25,383.2,365.29,383.09,365.19z"/> <path d="M832.82,365.91c-1.23,1.23-0.68,0.62,0.1,0.1C832.93,365.74,832.95,365.78,832.82,365.91z"/> <path d="M391.62,365.91c-1.52,1.52,0,0.21,0.1,0.1C391.86,365.74,391.89,365.77,391.62,365.91z"/> <path d="M831.28,367.34c0,0.2-0.08,0.28,0.1,0.1C831.6,367.23,831.55,367.34,831.28,367.34z"/> <path d="M831.52,367.31c0.34-0.05,0.5-0.25,0.59-0.59C831.94,366.89,831.71,367.12,831.52,367.31z"/> <path d="M390.18,367.34c0,0.27-0.09,0.22,0.1,0.1C390.5,367.23,390.45,367.34,390.18,367.34z"/> <path d="M391.01,366.73c-0.16,0.16-0.39,0.39-0.59,0.59C390.76,367.26,390.92,367.07,391.01,366.73z"/> <path d="M831.26,367.55c-0.21,0.17-0.44,0.34-0.7,0.51C830.99,368.06,831.2,367.91,831.26,367.55z"/> <path d="M390.16,367.54c-0.25,0.17-0.44,0.35-0.7,0.52C389.9,368.06,390.1,367.9,390.16,367.54z"/> <path d="M825.01,374.74c-0.46,0-0.67,0.18-0.71,0.6C824.64,375.28,824.83,375.02,825.01,374.74z"/> <path d="M383.68,374.74c-0.41-0.02-0.6,0.25-0.69,0.62C383.46,375.36,383.59,375.1,383.68,374.74z"/> <path d="M383.68,374.74c0.05,0,0.08-0.01,0.13,0C383.68,374.61,383.72,374.61,383.68,374.74z"/> <path d="M802.61,351.62c-0.1,0-0.21,0-0.21,0c-0.1,0.31,0,0.31,0.31,0C802.56,351.62,802.39,351.4,802.61,351.62z"/> <path d="M361.22,351.62c-0.01,0-0.01,0-0.01,0c0,0.31,0,0.31,0.31,0c-0.12,0-0.18,0-0.22,0
		C361.29,351.62,361.27,351.62,361.22,351.62z"/> <path d="M823.37,448.74l0.1,0.1C823.52,448.69,823.51,448.77,823.37,448.74z"/> <path d="M823.5,448.75c0.43,0.03,0.69-0.16,0.69-0.63C823.81,448.22,823.61,448.41,823.5,448.75z"/> <path d="M381.79,449.44c0.32-0.04,0.49-0.24,0.59-0.6c0.4,0.04,0.65-0.2,0.62-0.6C382.32,448.32,382.51,448.81,381.79,449.44z"/> <path d="M382.99,448.25c0.03-0.01,0.06-0.02,0.1-0.02C382.97,448.1,382.99,448.08,382.99,448.25z"/> <path d="M823.34,449.08c0.04-0.05,0.09-0.09,0.13-0.13C823.3,448.77,823.41,448.83,823.34,449.08z"/> <path d="M823.34,449.08c-0.16,0.15-0.34,0.32-0.59,0.48C823.07,449.48,823.26,449.34,823.34,449.08z"/> <path d="M381.65,449.46v0.1C381.89,449.38,381.77,449.46,381.65,449.46z"/> <path d="M381.55,449.56v0.1C381.68,449.53,381.69,449.56,381.55,449.56z"/> <path d="M819.72,463.44c-0.2,0.23-0.43,0.43-0.67,0.51C819.37,463.87,819.62,463.72,819.72,463.44z"/> <path d="M819.75,463.22c0,0.14-0.1,0.4,0.12,0.01l-0.05-0.05c0.02-0.02,0.04-0.05,0.06-0.07
		C819.62,463.14,819.63,463.09,819.75,463.22z"/> <path d="M823.52,375.98c-0.31,0-0.06-0.06-0.06,0.25C823.71,376.1,823.37,376.2,823.52,375.98z"/> <path d="M824.19,375.36c0.18,0.18-0.18-0.29-0.67,0.62C823.96,375.99,824.47,375.36,824.19,375.36z"/> <path d="M383.09,375.36c-0.37,0-0.58,0.26-0.77,0.62C382.81,376,383,375.73,383.09,375.36z"/> <path d="M382.32,375.98c-0.05,0-0.09,0.01-0.15,0C382.31,376.12,382.24,376.1,382.32,375.98z"/> <path d="M825.01,404.96c-0.06,0-0.11,0.04-0.15,0.09C824.92,405.03,824.96,405.01,825.01,404.96z"/> <path d="M824.81,405.16c0-0.11,0.2-0.19-0.21,0C824.7,405.16,824.7,405.16,824.81,405.16z"/> <path d="M383.61,405.16c0.31-0.3,0.3-0.25-0.21,0C383.5,405.16,383.5,405.16,383.61,405.16z"/> <path d="M510.02,362.1l-0.1-0.1C509.91,362.06,509.89,362.07,510.02,362.1z"/> <path d="M559.86,63.45l-0.1-0.1C559.8,63.46,559.73,63.45,559.86,63.45z"/> <path d="M524.3,82.05l0.1-0.1C524.23,82.02,524.21,81.92,524.3,82.05z"/> <path d="M93.17,115.76c0.04-0.04,0.07-0.07,0.1-0.1C93.17,115.55,93.2,115.61,93.17,115.76z"/> <path d="M100.47,125.62c0.19,0,0.1,0.09,0.1-0.1L100.47,125.62z"/> <path d="M121.33,331.78l-0.1-0.1C121.23,332.19,121.2,332.02,121.33,331.78z"/> <path d="M118.46,63.04l-0.1-0.1C118.39,63.05,118.33,63.04,118.46,63.04z"/> <path d="M109.1,234.25c-0.07,0.05-0.16,0.05-0.1,0.1L109.1,234.25z"/> <path d="M138.19,593.13c0.02-0.09,0.15-0.1-0.1-0.1L138.19,593.13z"/> <path d="M162.34,266.01h-0.1C162.36,266.13,162.34,266.18,162.34,266.01z"/> <path d="M83.1,82.05l0.1-0.1C83.03,82.02,83.02,81.92,83.1,82.05z"/> <path d="M551.43,428.18c0.95-2.3,4.64-5.57,1.54-5.96c-1.85,0.82-2.13,2.89-2.57,4.62c-0.77,3,0.21,5.55,1.95,7.91
		C554.55,434.52,552.51,430.12,551.43,428.18z"/> <path d="M534.68,548.12c-0.59,1.87-0.92,3.65-0.92,5.65c1.44,1.44,2.98,2.06,5.05,1.55c-0.12-1.95-2.26-1.33-2.88-2.57
		C535.69,551.16,535.92,549.69,534.68,548.12z"/> <path d="M531.09,426.41c-0.22,0.28-0.87,6.3-0.94,7.02c0,0.51,0.1,0.92,1.03,1.44C533.23,431.05,532.39,424.77,531.09,426.41z"/> <path d="M524.91,143.4c-3.3,0-4.41-0.13-4.41,1.03C527.59,145.63,534.07,143.4,524.91,143.4z"/> <path d="M525.02,330.55c0,0.2,0.21,0.41,0.31,0.62C526.2,331.69,525.02,294.44,525.02,330.55z"/> <path d="M542.23,183.84c-0.53-2.23-3.55,2.8-4.25,5.5C540.17,188.46,542.37,184.47,542.23,183.84z"/> <path d="M535.08,531.88c-0.87,1.45-0.76,2.87-0.41,4.52C535.95,534.94,536.07,534.56,535.08,531.88z"/> <path d="M534.68,546.48c1.35-2.23,1.47-3.87,1.13-6.17C534.56,542.38,534.48,543.06,534.68,546.48z"/> <path d="M512.69,177.94c-0.41-1.75-0.92-3.49-1.54-5.24C510.22,174.85,511.35,176.5,512.69,177.94z"/> <path d="M557.7,324.8c2.26,0.1,2.26,0.1,4.01-0.72C562.17,322.25,559.38,323.54,557.7,324.8z"/> <path d="M529.75,320.17c0,0.05-0.02,0.08-0.05,0.1C529.48,320.59,541.84,320.17,529.75,320.17z"/> <path d="M530.47,479.67c0.41-2.16,0.41-2.16-0.1-3.91C529.07,475.58,529.73,477.21,530.47,479.67z"/> <path d="M531.5,466.93c0-1.54,0.1-3.19,0.21-4.83C530.78,463.64,530.47,465.29,531.5,466.93z"/> <path d="M551.33,443.4c-0.41,1.34,0.21,1.95,0.92,2.77C552.67,445.04,552.56,444.22,551.33,443.4z"/> <path d="M534.89,524.07c-0.73,1.55-0.6,2.87-0.21,4.52C535.53,527.02,535.67,525.85,534.89,524.07z"/> <path d="M527.49,351.52c0.62-1.13-0.51-1.75-0.62-2.57C526.67,349.87,526.67,350.8,527.49,351.52z"/> <path d="M531.07,420.27c-0.45,1.78-0.67,2.58,0.1,3.7C531.69,422.84,531.59,421.81,531.07,420.27z"/> <path d="M535.61,519.33c-0.47,1.18-0.53,1.22-0.1,2.67C536.02,521.18,536.02,520.23,535.61,519.33z"/> <path d="M553.69,322.43c-0.62,0.82,0.1,1.13,0.31,1.64C554.93,323.15,553.9,322.95,553.69,322.43z"/> <path d="M518.24,220.07c-0.62,0.82,0.1,0.92,0.82,1.44C519.16,220.44,518.78,220.34,518.24,220.07z"/> <path d="M551.43,318.73c-0.1,0.1-0.21,0.21-0.21,0.31c0.57,1.72,1.45,0.83,0.51-0.1C551.65,318.85,551.53,318.83,551.43,318.73z"/> <path d="M528,318.12c0.41,0,0.82,0,1.13-0.1C527.83,318.01,528,317.97,528,318.12z"/> <path d="M536.22,234.46c-0.1,0.92,0.1,1.34,0.82,1.44C537.56,235.18,537.25,234.77,536.22,234.46z"/> <path d="M552.05,437.33c-0.44,0.58-0.23,1.2,0.1,1.85C552.35,438.39,552.57,437.85,552.05,437.33z"/> <path d="M576.72,347.71c0-0.51-0.31-0.82-0.72-0.92C575.79,347.71,575.79,347.71,576.72,347.71z"/> <path d="M524.61,312.05c0,0.74-0.07,0.62,0.21,0.62C524.82,311.93,524.88,312.05,524.61,312.05z"/> <path d="M530.47,413.69c-0.07,0.15-0.15,0.4-0.21,0.51C530.26,414.68,530.75,414.21,530.47,413.69z"/> <path d="M530.47,195.61c0.51,0,0.72-0.31,0.82-0.72C530.47,194.79,530.47,194.79,530.47,195.61z"/> <path d="M574.25,343.91c-0.21-0.1-0.41,0-0.62,0.1C573.63,345.09,575.2,344.86,574.25,343.91z"/> <path d="M530.52,468.99c-0.07-0.14-0.05-0.16-0.05,0.1C530.6,469.09,530.59,469.12,530.52,468.99z"/> <path d="M509.81,361.59c0.1-0.03,1.36-0.28,0.57-0.28C510.19,361.31,510.02,361.52,509.81,361.59z"/> <path d="M525.53,339.39l-0.1-0.31C525.3,339.47,525.27,339.39,525.53,339.39z"/> <path d="M529.75,490.88v-0.21C529.61,490.67,529.62,490.62,529.75,490.88z"/> <path d="M536.63,146.18c-0.21,0.1-0.51,0.21-0.82,0.31C536.33,146.59,536.43,146.38,536.63,146.18z"/> <path d="M549.99,171.05c0-0.1-0.1-0.31-0.1-0.51C549.66,170.77,549.84,170.9,549.99,171.05z"/> <path d="M534.78,230.76c-0.44,0.29-0.23,0.82,0.1,0.82C535.2,231.27,535.09,230.97,534.78,230.76z"/> <path d="M548.56,175.88c0.28-0.55,0.28-0.44,0-0.72C548.29,175.69,548.26,175.59,548.56,175.88z"/> <path d="M528.53,269.31c-0.07-0.07-0.14-0.14-0.22-0.22C528.31,269.38,528.41,269.27,528.53,269.31z"/> <path d="M528.78,269.51c0.03,0.02,0.06,0.04,0.09,0.06C528.66,269.3,528.71,269.47,528.78,269.51z"/> <path d="M528.93,269.61c-0.03-0.03-0.09-0.07-0.03-0.01C529.1,270,529.06,269.61,528.93,269.61z"/> <path d="M532.01,273.41c-0.21,0.1-0.1,0.21,0.21,0.31C532.16,273.66,532.07,273.41,532.01,273.41z"/> <path d="M532.22,273.72c0.14,0.14,0.1,0.15,0.1-0.1L532.22,273.72z"/> <path d="M536.5,190.96c0.17-0.09,0.17-0.07,0.03-0.07C536.4,191.01,536.39,191,536.5,190.96z"/> <path d="M534.38,192.32c-0.01,0-0.02,0.05-0.05,0.09c-0.71-0.27-1.23-0.21-1.39,0.54c0.68,0.29,1.08-0.06,1.4-0.53
		c0.01,0.01,0.03,0.01,0.04,0.02h0.01c0-0.05,0-0.08,0-0.09l0.09,0.09C534.48,192.16,534.5,192.19,534.38,192.32z"/> <path d="M572.3,341.24l-0.1-0.21C572.19,341.29,572.16,341.24,572.3,341.24z"/> <path d="M538.07,189.45l-0.1-0.1C537.97,189.52,537.88,189.41,538.07,189.45z"/> <path d="M537.25,190.06c0.38,0,0.66-0.18,0.71-0.62C537.63,189.45,537.38,189.51,537.25,190.06z"/> <path d="M537.07,190.27c0.08-0.04,0.17-0.07,0.29-0.1C537.24,190.05,537.28,190.02,537.07,190.27z"/> <path d="M536.53,190.88c0.04-0.06,0.07-0.09,0.54-0.61C536.83,190.37,536.65,190.65,536.53,190.88z"/> <path d="M532.83,193.15l0.21-0.1C532.9,192.91,532.96,192.89,532.83,193.15z"/> <path d="M543.17,104.76c-0.66-6.57-6.19,4.59,6.31,7.71c1.74,0.43,3.39,1.23,5.14,1.22C550.48,109.56,543.75,110.54,543.17,104.76z
		"/> <path d="M573.44,81.97c-3.08-0.01-6.12,2.55-6.59,2.55c0.62,1.64,1.95,0.82,2.88,1.23c0.62,1.23,1.64,1.95,3.19,1.85
		c0.72-0.82,0.08-1.96,0.51-2.98C573.83,83.67,577.35,81.98,573.44,81.97z"/> <path d="M565.51,79.48c1.24,1.06,1.95-0.29,4.13-0.4c3.62-0.18,6.91,3.78,7.89,1.33c-2.57-2.16-2.67-2.26-7.3-3.19
		C568.7,77.73,566.64,77.63,565.51,79.48z"/> <path d="M546.4,117.61c-0.1-1.95-0.41-3.8-2.16-5.34C544.03,114.12,545.22,115.88,546.4,117.61z"/> <path d="M547.01,119.56c0.13-0.13,0.12-0.06,0-0.31C547.01,119.33,547.01,119.48,547.01,119.56z"/> <path d="M549.28,122.85c0.31-0.21,0.31-0.51,0-0.82C548.78,122.03,548.87,122.65,549.28,122.85z"/> <path d="M537.34,123.8C537.35,123.77,537.35,123.77,537.34,123.8L537.34,123.8z"/> <path d="M537.25,124.39c0-0.36,0.06-0.54,0.09-0.6c-0.02,0.03-0.07,0.11-0.19,0.24C536.57,124.61,537.25,124.99,537.25,124.39z"/> <path d="M539.13,129.89c0.03,0.08,0.09,0.15,0.14,0.24C539.28,129.49,539.06,129.7,539.13,129.89z"/> <path d="M539.31,130.35c0.03-0.09,0.01-0.16-0.03-0.22C539.29,130.24,539.31,130.3,539.31,130.35z"/> <path d="M559.55,63.24c0.28-0.28,0.64-0.21,0.21-0.21C559.66,63.04,559.62,63.17,559.55,63.24z"/> <path d="M583.19,164.68c0.1,0.05,0.21,0.1,0.31,0.21C583.44,164.83,583.27,164.68,583.19,164.68z"/> <path d="M554.72,113.6c-0.1,0.31,0,0.41,0.21,0.41C554.93,113.62,554.72,113.87,554.72,113.6z"/> <path d="M541.03,131.81c-0.05-0.02-0.08-0.02-0.08-0.02C541.58,132.42,541.4,131.89,541.03,131.81z"/> <path d="M540.32,131.09c0.08,0.11,0.51,0.72,0.51,0.59C540.8,131.35,540.72,131.16,540.32,131.09z"/> <path d="M540.03,130.81c0.03,0.05,0.07,0.14,0.1,0.26c0.27,0,0.22,0.09,0.1-0.1C540.13,130.9,540.07,130.85,540.03,130.81z"/> <path d="M540.03,130.81C539.97,130.72,539.94,130.73,540.03,130.81L540.03,130.81z"/> <path d="M539.74,130.54c0.1,0.1,0.16,0.13,0.24,0.21C539.9,130.64,539.01,129.8,539.74,130.54z"/> <path d="M589.14,194.87c-0.44,0-0.8,0.47-1.03,0.85c-4.83,6.2-4.46,5.95-19.32,7.5c-0.82,0.09-1.75-0.1-2.36,0.51
		c-1.19,0.94-3.29,0.5-3.01,0.78c1.07,1.09,2.36,1.18,3.84,0.96c6.34-0.94,7.72,2.2,15.93-0.72
		C589.03,202.68,591.38,194.87,589.14,194.87z"/> <path d="M561.71,204.25c0.62,0.1,1.13,0.21,1.54,0.31C562.94,204.04,562.43,203.94,561.71,204.25z"/> <path d="M673.41,556.61c1.03-1.83-2.9-4.13-5.85-3.25c-3.32,1-2.96,7.26,0.72,9.56c1.58,1.13,5.61,0.96,5.4-2.18
		C673.53,558.58,672.22,558.74,673.41,556.61z M668.49,559.12c-2.16-1.77,0.45-4.93,2.3-2.54
		C671.01,556.9,668.49,557.08,668.49,559.12z"/> <path d="M674.35,516.26c-1.03-0.41-1.64,0.31-2.36,0c-0.62-0.31-1.34-0.51-1.85-0.72c-4.09,1.02-1.88,7.15-0.98,8.14
		c0.86,0.95,2.38,1.49,3.96,1.32C677.36,524.54,677.66,518.79,674.35,516.26z M671.37,522.43c2.46-1.33-0.33-1.67,0.41-2.57
		c0.72-0.31,1.44-0.62,2.26-0.92C674.55,521.91,674.45,522.12,671.37,522.43z"/> <path d="M599.53,580.39c-0.2-0.2-0.16-0.33-0.82,0C599.11,580.79,598.94,580.39,599.53,580.39z"/> <path d="M569.62,240.42c-1.12,1.25-2.06,2.57-3.08,3.92c-0.22,0.33-0.28,0.64,0,0.92C574.38,239.14,590.43,217.24,569.62,240.42z"/> <path d="M580.52,237.23c-0.55,4.95,1.51,2.73,1.95-9.76c0.1-0.97,0.02-2.01-0.41-2.88C580.32,223.55,582.28,227.14,580.52,237.23z"/> <path d="M577.43,248.75c-1.27,4.34-1.72,8.49-0.62,12.85C576.84,261.49,577.77,251.06,577.43,248.75z"/> <path d="M575.79,270.84c-1.58,1.58-1.24,3.96,0,4.83c0.62-1.23,1.23-2.47,1.75-3.7C577.65,271.62,577.21,269.42,575.79,270.84z"/> <path d="M565.41,249.05c0.18,0.2,0.13-0.29-4.42,3.91c0.34,0.47,0.6,0.63,1.23,0.21c1.23-1.13,2.98-1.85,3.29-3.91
		c-0.03,0-0.06,0-0.09-0.01C565.82,248.72,565.51,249.05,565.41,249.05z"/> <path d="M580.34,241.41c0.21,0.4-0.08-0.59,0.28-1.6C580.05,240.24,580,240.76,580.34,241.41z"/> <path d="M549.19,241.44c-0.4-0.07-0.16,0.15,0.17,0.33C549.42,241.52,549.33,241.46,549.19,241.44z"/> <path d="M579.59,243.61c0-0.1,0.1-0.21,0.1-0.31C579.36,242.97,579.28,243.61,579.59,243.61z"/> <path d="M568.39,569.51c-0.1-0.3-0.1-0.63-0.1-0.92c-0.11,0-6.05,0.51-8.43,1.85C559.27,573.7,566.12,572.23,568.39,569.51z"/> <path d="M578.57,593.52c0.26,0,0.42-0.26,0.62-0.39C577.26,593.13,578.43,593.52,578.57,593.52z"/> <path d="M570.32,316.46c-0.1,0.07-0.22,0.14-0.29,0.22C570.26,316.68,570.2,316.65,570.32,316.46z"/> <path d="M570.32,316.46c0.04-0.03,0.09-0.06,0.12-0.09C570.38,316.37,570.37,316.42,570.32,316.46z"/> <path d="M570.65,316.06c-0.11,0-0.24,0.36,0.22-0.1C570.78,315.96,570.65,315.97,570.65,316.06z"/> <path d="M701.89,561.58c-1.23,0.41-1.75,1.34-1.64,2.77c0.51,0.41,1.03,0.92,1.44,1.34C704.07,564.5,703.45,561.97,701.89,561.58z"/> <path d="M534.22,60.95c-0.23-0.36-0.49-0.35-0.78-0.06C534.48,61.19,534.47,61.28,534.22,60.95z"/> <path d="M535.3,61.29c-0.31,0-0.62-0.1-0.92-0.21C534.58,61.39,534.78,61.91,535.3,61.29z"/> <path d="M524.51,82.26c0-0.1-0.1-0.21-0.1-0.31C524.4,82.05,524.4,82.15,524.51,82.26z"/> <path d="M534.37,71.98c0.31,0.72,0.82,0.72,1.44,0.72C535.7,71.91,535.02,71.72,534.37,71.98z"/> <path d="M535.9,72.59c0.23,0.9,1.34,0.82,1.27,0.62C536.94,72.64,536.49,72.59,535.9,72.59z"/> <path d="M537.25,73.42l0.1-0.1C537.18,73.31,537.22,73.29,537.25,73.42z"/> <path d="M537.35,73.31c0.22,0.65,1.41,0.81,1.25,0.59C538.31,73.27,537.59,73.39,537.35,73.31z"/> <path d="M538.79,74.03c-0.43-0.22,0.32,0.8,0.92,0.31C539.35,73.98,538.68,74.14,538.79,74.03z"/> <path d="M551.02,54.61c-0.17-0.17-0.09-0.09-0.31-0.31C550.71,54.64,550.81,54.4,551.02,54.61z"/> <path d="M133.67,160.58c1.66,1.15,6.24,2.81,7.21,1.44c2.3,0,3.45-0.73,1.82-4.33c-0.55-1.54-0.96-2.92-2.46-3.55
		c-0.89-0.3,2.28,3.41,1.95,5.4c-5.26,3.29-9.29-1.32-19.01-8.32c-5.26-3.79-2.3-4.43-14.7-19.94
		c-10.66-13.33-10.72-14.94-12.13-15.18c-2.21-0.55,10.93,16.47,13.15,19.2C122.96,151.78,110.95,144.81,133.67,160.58z
		 M140.69,161.87c-0.07,0-0.41-0.07-0.65-0.07C140.34,161.57,140.52,161.73,140.69,161.87z"/> <path d="M136.03,195.41c-8.06,5.13-17.02,1.83-17.47,2.06c-4.55,0.47-7.47-2.03-9.2-2.33c-0.49-0.09,0.52,2.21,3.65,2.85
		c4.84,0.99,9.55,2.39,14.49,2.16c5.17-0.25,9.05-3.08,9.39-3.99C137.19,195.37,136.44,195.15,136.03,195.41z"/> <path d="M123.8,137.24c1.7,2.05,16.26,17.53,16.25,16.79c-0.01-1.09-0.76-2.05-1.64-2.82c-0.45-0.45-3.06-3.53-5.96-6.48
		c-5.94-6.06-7.22-6.81-11.1-14.41C120.09,127.87,120.03,132.68,123.8,137.24z"/> <path d="M102.83,110c4.61,2.71,9.18,3.7,10.59,3.7c-0.97-0.97-3.26-2.37-6.17-3.49c-7.91-3.06-3.78-5.02-6.37-7.81
		c-0.31,0.61-0.62,0.91-0.62,1.22C100.27,106.11,100.89,108.61,102.83,110z"/> <path d="M125.91,84.29c-0.01,0.01-0.03,0.01-0.04,0.02c0.62,1.13,0.62,1.12,2.47,1.34c0.82,0.1,0.41,1.36,1.34,1.54
		c0.47,0.09,0.95,0.39,1.63,0.36c0.9-0.04,0.74-0.19,0.76-0.92c0.06-2.8,2.48-4.07,2.06-4.29
		C130.88,80.96,128.54,83.26,125.91,84.29z"/> <path d="M124.76,79.78c1.47,0.92,2.64-2.21,7.78,0.42c0.82,0.42,1.75,0.72,2.67,1.03c0.51,0.21,0.92,0.1,1.23-0.41
		c-1.59-2.35-2.53-2.7-7.4-3.6C128.94,77.26,123.07,78.72,124.76,79.78z"/> <path d="M98.42,127.37c-0.11,0.11-0.14,0.1-0.01,0.14C98.42,127.46,98.41,127.42,98.42,127.37z"/> <path d="M99.24,139.29c-0.26,0.78-0.33,1.4,0.21,2.06c1.48-1.48,2.44-8.22,0-12.33C96.43,123.93,101.07,132.79,99.24,139.29z"/> <path d="M84.13,314.93c-0.36,18.11-0.31,15.37,0.21,16.65c0.51-2.34,0.1-1.79,0.1-16.55C84.44,315.03,84.34,315.03,84.13,314.93z"/> <path d="M94.5,148.43c0.86-1.09,1.21-1.77,0.31-2.67c-1.63,1.63-2.8,3.13-3.59,5.84c-0.02,0.06-0.1,0.28-0.1,0.34
		C92.4,151.93,93.95,149.13,94.5,148.43z"/> <path d="M105.51,118.02c-0.21-2.36-0.51-4.32-2.57-5.76C103.45,114.94,103.86,115.86,105.51,118.02z"/> <path d="M114.86,285.64c-1.85,0.1-2.88,0.82-4.11,1.54C113.21,287.7,114.04,287.49,114.86,285.64z"/> <path d="M88.34,320.17c0,0.29-0.59,0.21,5.34,0.21C93.69,320.08,94.28,320.17,88.34,320.17z"/> <path d="M60.88,137.62c-0.22,1.45,0.59,2.55,1.77,3.83C62.25,139.32,60.99,136.96,60.88,137.62z"/> <path d="M86.39,352.13c0.24-1.76-0.46-2.58-0.82-3.39C85.36,349.77,85.67,350.59,86.39,352.13z"/> <path d="M107.36,286.57c0.51-0.82-0.21-1.03-0.72-1.95C106.43,285.85,106.74,286.26,107.36,286.57z"/> <path d="M105.29,283.16c-0.08-0.81-0.14-1.41-0.71-1.84C103.97,282.04,104.58,282.25,105.29,283.16z"/> <path d="M89.37,197.26c-0.3,0.67-0.03,1.02,0.62,1.23C90.4,197.57,90.4,197.57,89.37,197.26z"/> <path d="M86.9,318.12c0,0.23,0.58,0,1.34,0C88.24,317.89,87.66,318.12,86.9,318.12z"/> <path d="M138.6,192.84c0.76,0.13,1.36-0.08,1.64-0.82C139.33,191.81,139.11,192.63,138.6,192.84z"/> <path d="M71.39,182.56c-0.72,0.82,0,1.03,0.72,1.44C72.21,182.97,71.69,182.87,71.39,182.56z"/> <path d="M83.41,312.36c0.1,0.1,0.21,0.21,0.21,0.31c0-0.1,0.1-0.21,0.1-0.31C83.72,311.84,83.56,312.21,83.41,312.36z"/> <path d="M129.76,310.2c0.1-0.51-0.31-0.72-0.82-0.92C128.63,310.44,129.34,310.63,129.76,310.2z"/> <path d="M127,307.11c0.59,0.4,0.93-0.91-0.11-0.91C127.09,306.4,126.38,306.61,127,307.11z"/> <path d="M119.89,128.09c0-2-0.43-1.95-0.6-1.09C119.2,127.48,119.47,127.84,119.89,128.09z"/> <path d="M142.71,203.01c1.13-0.56,1.15-1.32,0.92-1.32C142.78,201.82,142.38,202.06,142.71,203.01z"/> <path d="M83.82,158.2c0.2-0.2,0.38-0.39,0.58-0.66C84.71,156.92,82.48,157.31,83.82,158.2z"/> <path d="M84.34,339.39l-0.1-0.31C84.23,339.58,84.2,339.53,84.34,339.39z"/> <path d="M68.71,361.59c0.31-0.1,0.51-0.1,0.82-0.21C69.02,361.18,68.92,361.49,68.71,361.59z"/> <path d="M105.87,119.51c0.07,0.22,0.05,0.22,0.05-0.15C105.78,119.36,105.8,119.32,105.87,119.51z"/> <path d="M107.97,122.85c0.31-0.21,0.31-0.41,0.21-0.72C108.18,121.88,107.46,122.07,107.97,122.85z"/> <path d="M98.83,122.95c-0.69-0.23-0.04,0.65,0.1,0.92C98.93,123.29,98.96,122.95,98.83,122.95z"/> <path d="M100.47,126.04c-0.12-0.08-0.06-0.14-0.1,0.1L100.47,126.04z"/> <path d="M99.85,124.49c-0.09,0.59,0,1.07,0.53,1.47C100.46,125.34,100.42,124.86,99.85,124.49z"/> <path d="M120.61,129.63c0-0.63-0.02-1.17-0.62-1.4C119.99,128.8,119.95,129.35,120.61,129.63z"/> <path d="M120,128.09l-0.1,0.1C120.02,128.22,120,128.3,120,128.09z"/> <path d="M60.8,137.55c-0.1-0.31-0.1-0.62-0.21-1.03C60.13,137.06,60.32,137.3,60.8,137.55z"/> <path d="M87.42,154.91c0-0.17,0.05-0.13-0.06-0.01C87.38,154.9,87.4,154.91,87.42,154.91z"/> <path d="M85.98,155.43c0.68,0.29,1.08-0.06,1.38-0.52C86.67,154.78,86.28,154.71,85.98,155.43z"/> <path d="M107.64,194.14c-0.5,0.09,0.39,0,0.74,0.35C108.17,194.2,108,194.08,107.64,194.14z"/> <path d="M87.83,193.35c-0.22,0.22-0.22,0.18-0.18,0.26c0.28,0.56,0.09,0.72,0.41,0.31C88.26,193.65,87.98,193.65,87.83,193.35z"/> <path d="M81.86,231.98c-0.03-0.03-0.06-0.06-0.09-0.09C81.77,231.95,81.81,231.97,81.86,231.98z"/> <path d="M81.97,231.99c-0.14,0-0.18-0.08,0.1,0.21C82.07,232.1,82.07,231.99,81.97,231.99z"/> <path d="M118.49,63.21c-0.01,0.01-0.02,0.01-0.03,0.02C118.47,63.27,118.48,63.25,118.49,63.21z"/> <path d="M118.67,63.03c-0.09,0-0.15,0.12-0.18,0.18C118.75,62.98,119.1,63.03,118.67,63.03z"/> <path d="M81.57,231.9l-0.22-0.22C81.36,231.97,81.45,231.86,81.57,231.9z"/> <path d="M81.57,231.9c0.03,0.03,0.06,0.06,0.09,0.09C81.66,231.93,81.62,231.91,81.57,231.9z"/> <path d="M85.16,235.9c-0.21,0.1-0.21,0.21,0.21,0.31C85.26,236.1,85.26,235.9,85.16,235.9z"/> <path d="M85.98,155.63l0.1-0.1C85.95,155.39,85.98,155.38,85.98,155.63z"/> <path d="M87.52,154.81v0.1C87.65,154.66,87.67,154.66,87.52,154.81z"/> <path d="M89.91,153.1c0.15-0.15,0.31-0.28,0.49-0.34C89.8,152.91,89.6,153.39,89.91,153.1z"/> <path d="M89.68,153.48c0.02-0.1,0.05-0.18,0.09-0.25c-0.01,0-0.01,0-0.01,0c-0.19,0.19-0.24,0.09-0.13,0.2
		C89.4,153.65,89.45,153.59,89.68,153.48z"/> <path d="M90.4,152.65c0-0.16,0.09-0.1-0.1-0.1L90.4,152.65z"/> <path d="M90.57,152.14c-0.31,0.31-0.06,0.59,0.33,0.21C91.53,151.72,90.74,151.93,90.57,152.14z"/> <path d="M113.73,114.01c0-0.39-0.21-0.14-0.21-0.41C113.42,113.91,113.52,114.01,113.73,114.01z"/> <path d="M144.56,200.96c-0.41,0.21-0.62,0.41-0.92,0.62C143.86,201.8,144.06,201.29,144.56,200.96z"/> <path d="M120.67,332.14c0.1,0.1,0.04,0.07,0.15-0.15C120.59,332.1,120.56,332.04,120.67,332.14z"/> <path d="M98.31,127.47c-0.1-0.21-0.1-0.31-0.21-0.51C97.7,127.37,98.11,127.37,98.31,127.47z"/> <path d="M99.07,123.98c0.11,0.27,0.31,0.52,0.68,0.62C99.66,124.24,99.47,123.97,99.07,123.98z"/> <path d="M99.03,123.88l-0.1,0.1C99.11,123.94,99.09,124.06,99.03,123.88z"/> <path d="M138.6,192.84c0.02,0.08,0.01,0.14,0,0.22C138.71,192.9,138.75,192.99,138.6,192.84z"/> <path d="M138.57,193.08c-0.2,0.23-0.42,0.41-0.59,0.58C138.63,193.5,138.67,192.98,138.57,193.08z"/> <path d="M137.78,193.87c0.16-0.08,0.1-0.06,0.21-0.1C137.98,193.63,138.03,193.61,137.78,193.87z"/> <path d="M109.1,195.3l0.1-0.1C109.02,195.2,109.14,195.12,109.1,195.3z"/> <path d="M108.48,194.67c0.06,0.32,0.69,0.71,0.62,0.34C109.04,194.7,108.33,194.06,108.48,194.67z"/> <path d="M94.82,117.3c-0.06,0.06-0.04,0.04-0.1,0.1C94.84,117.4,94.82,117.43,94.82,117.3z"/> <path d="M94.66,117.35c0.1-0.1,0.07-0.04-0.08-0.18C94.65,117.41,94.56,117.45,94.66,117.35z"/> <path d="M94.05,116.63c1.21,1.21,0.03-0.03,0.05-0.05c-0.24-0.16-0.18-0.24-0.13-0.02C94,116.7,93.94,116.74,94.05,116.63z"/> <path d="M93.28,115.86c0.14,0.09,0.26,0.21,0.37,0.32C94.16,116.82,93.86,115.86,93.28,115.86z"/> <path d="M112.08,433.63c0.1-1.75-0.21-2.36-1.85-5.24c0.5-2.03,3.17-3.29,2.57-5.86c-0.82-0.41-1.44-0.31-1.75,0.21
		c-3.48,5.13-1.97,8.19-0.1,11.92C111.67,434.82,112.08,434.4,112.08,433.63z"/> <path d="M92.56,553.46c0.91,1.64,2.67,2.06,4.83,2.06c0.77-1.54-0.53-1.7-2.47-2.67c-0.4-1.41-0.11-3.21-1.44-4.73
		C92.85,549.88,92.66,551.63,92.56,553.46z"/> <path d="M90.59,426.24c-0.28-0.05-0.71,0.21-0.71,0.4c-1.1,8.41-0.85,7-0.51,8.02C91.55,435.53,91.73,426.62,90.59,426.24z"/> <path d="M93.48,546.27c1.41-1.79,1.5-3.63,1.03-5.86C93.69,542.16,92.97,543.91,93.48,546.27z"/> <path d="M94.1,531.37c-1.13,2.16-0.82,3.6-0.62,5.45C94.72,534.66,94.72,534.66,94.1,531.37z"/> <path d="M88.86,475.89c-0.6,0.21-0.34,0.9,0.51,4.09C89.51,478.84,90.44,475.33,88.86,475.89z"/> <path d="M89.65,463.57c-0.11,1.2,0.04,2.23,0.23,3.26C90.95,462.53,90.1,458.5,89.65,463.57z"/> <path d="M93.89,523.87c-0.89,1.86-0.75,2.88-0.41,4.93C94.41,526.95,94.3,525.72,93.89,523.87z"/> <path d="M110.23,443.5c-0.51,1.13,0.1,1.85,0.92,2.77C111.47,444.96,111.44,444.12,110.23,443.5z"/> <path d="M89.99,420.48c-0.62,1.44-0.72,2.47,0,3.6C90.6,422.94,90.5,421.92,89.99,420.48z"/> <path d="M94.41,519.34c-0.48,1.2-0.54,1.15-0.1,2.67C94.82,521.19,94.82,520.27,94.41,519.34z"/> <path d="M110.95,437.33c-0.47,0.47-0.34,0.92-0.1,1.54C111.4,438.41,111.33,437.94,110.95,437.33z"/> <path d="M89.37,413.9c0-0.51-0.52-0.23-0.21,0.51C89.27,414.21,89.27,414.11,89.37,413.9z"/> <path d="M89.37,469.19v-0.21C89.24,468.99,89.24,468.93,89.37,469.19z"/> <path d="M88.55,490.77h0.1C88.51,490.5,88.55,490.52,88.55,490.77z"/> <path d="M229.38,553.5c-6.66-1.7-6.71,6.84-2.39,9.52c2.63,1.63,5.93,0.41,5.54-2.27c-0.28-1.93-1.56-2.1,0.1-4.93
		C231.78,554.69,230.74,553.85,229.38,553.5z M227.39,559.12c-2.05-1.68,0.07-4.76,2.16-2.67
		C228.02,557.47,227.92,557.82,227.39,559.12z"/> <path d="M230.99,516.16c-0.99-0.15-2.06-1.12-2.67-0.51c-2.19,1.86-2.03,4.14-0.92,6.78c1.37,3.28,7.33,3.18,7.9-0.83
		c0.23-1.62-0.08-3.25-1.17-4.54C232.32,515.25,232.82,516.44,230.99,516.16z M230.99,522.23c0.1-0.31,0.31-0.62,0.41-0.92
		c-0.21-0.51-1.03-0.62-0.92-1.44c0.7-0.31,1.71-0.73,2.47-1.03C233.86,522.05,232.12,522.91,230.99,522.23z"/> <path d="M158.54,580.39c-0.18-0.18-0.42-0.4-0.92,0.1C157.8,580.86,158.34,580.49,158.54,580.39z"/> <path d="M133.46,263.96c0.12-0.66-0.03-1.51-0.21-2.16c-1.08-4.01,0.78-4.06-1.54-3.6c-0.21,3.39-0.95,6.79,0.21,10.17
		C132.36,269.67,132.33,282.08,133.46,263.96z"/> <path d="M133.36,238.78c-1.78,0.79-1.29,11.52-0.72,14.29c0.21-0.41,0.41-0.72,0.41-1.03C132.71,247.2,134.09,239.51,133.36,238.78
		z"/> <path d="M119.69,236.62c1.92,0.38,2.15,0.24,3.49,0C121.54,235.28,120.72,236.62,119.69,236.62z"/> <path d="M117.84,228.6c1.85,1.03,1.85,1.03,3.19,0.82C120.31,228.28,119.17,228.41,117.84,228.6z"/> <path d="M113.68,235.69c-0.77-0.12-1.54,0-2.31,0C111.74,236.64,116.1,236.06,113.68,235.69z"/> <path d="M132.95,255.12c0,0.92,0,1.85-0.1,2.77C133.89,257.11,133.44,256.21,132.95,255.12z"/> <path d="M111.92,225.28c-0.26-0.31-0.8-0.52-0.8,0.24C111.12,226.27,112.56,225.92,111.92,225.28z"/> <path d="M128.37,232.9c-0.62,0.45-1.18,1.11-1.18,1.87C128.45,233.71,128.71,232.65,128.37,232.9z"/> <path d="M120.72,246.27c0-0.01-0.01,0.02-0.03,0.08c-0.1,0.18-0.1,0.16,0.03,0.03C120.72,246.32,120.72,246.29,120.72,246.27
		c0.52-0.52,0.6-1.29,0.6-1.96C120.71,244.77,120.95,245.54,120.72,246.27z"/> <path d="M121.44,244.22l-0.1-0.1C121.33,244.36,121.31,244.32,121.44,244.22z"/> <path d="M130.67,229.94c-0.23,0.23-0.4,0.38-0.54,1C129.97,231.58,130.59,230.55,130.67,229.94z"/> <path d="M122.36,241.45c0,0,0.03,0.01,0.06,0.04c0.06,0.06,0.04,0.17,0.04-0.25C122.32,241.24,122.36,240.92,122.36,241.45z"/> <path d="M121.62,243.31c-0.22-0.31,0.09,0.06-0.29,0.81C121.75,244.04,121.93,243.74,121.62,243.31z"/> <path d="M128.53,232.61c0,0.24-0.12,0.24,0.1,0.1C128.72,232.49,128.69,232.61,128.53,232.61z"/> <path d="M128.68,232.58c0.43-0.09,1.02-0.92,0.29-0.41C128.85,232.35,128.79,232.26,128.68,232.58z"/> <path d="M126.47,235.49l0.1,0.1C126.57,235.3,126.72,235.24,126.47,235.49z"/> <path d="M126.62,235.33c0.16-0.18,0.36-0.38,0.68-0.46C126.97,234.87,126.71,235.02,126.62,235.33z"/> <path d="M130.85,229.59c0.25,0,1.01-0.95,0.46-0.4C131.16,229.32,131,229.46,130.85,229.59z"/> <path d="M130.58,229.63c0.12,0.12,0.12,0.07,0.08,0.31c0.16-0.12,0.13-0.1,0.02-0.21C131.02,229.51,130.76,229.63,130.58,229.63z"/> <path d="M129.43,231.76c0.22-0.15,0.41-0.32,0.74-0.48C129.76,231.27,129.56,231.47,129.43,231.76z"/> <path d="M129.43,231.76c-0.06,0.05-0.12,0.09-0.18,0.13C129.4,232.04,129.31,232.04,129.43,231.76z"/> <path d="M109.31,234.97c-0.09-0.28-0.07-0.21-0.1-0.31C109.07,234.81,109.06,234.72,109.31,234.97z"/> <path d="M126.47,235.59c-0.06-0.06-0.06-0.06-0.1-0.1C126.37,235.71,126.24,235.59,126.47,235.59z"/> <path d="M125.55,236.4c-0.14,0.12-0.44,0.36-0.62,0.42C125.24,236.82,125.42,236.66,125.55,236.4z"/> <path d="M126.32,235.62c-0.35,0-1.17,1.2-0.58,0.6C125.62,236.09,126.07,236.35,126.32,235.62z"/> <path d="M124.93,236.82c0,0.08,0,0.23,0,0.31C125.05,236.88,125.06,236.95,124.93,236.82z"/> <path d="M127.18,569.5c0-0.3-0.1-0.71-0.1-0.91c0-0.1-6.2,0.6-8.42,1.84C118.06,573.75,124.95,572.18,127.18,569.5z"/> <path d="M137.47,593.51c0.21-0.04,0.38-0.26,0.62-0.38C136.25,593.13,137.19,593.51,137.47,593.51z"/> <path d="M155.97,295.41c-0.92,0-1.37-0.52-2.06,0.1c3.45,4.6,0.31,3.32,1.84,6.37c1.44-0.72,0.62-2.06,0.92-3.08
		C157.02,297.32,155.97,296.19,155.97,295.41z"/> <path d="M154.12,271.87c-0.51,1.95-1.13,3.29-0.72,5.04C155.35,274.75,155.56,274.03,154.12,271.87z"/> <path d="M152.78,292.01c0,0.82,1.57,1.26,2.16,1.64c1.23,0.79,1.37,1.64,1.1,1.64c-0.21,0,0.95,0.23,1.06,0.12
		c0.36-0.31,0.11-0.79,0.21-1.36C155.84,293.68,153.68,291.11,152.78,292.01z"/> <path d="M148.26,297.87c1.64-0.21,1.64-0.21,3.39-1.75C149.08,296.33,149.08,296.33,148.26,297.87z"/> <path d="M150.52,260.26c-0.62,0.82-0.1,1.54,0.21,3.08C151.65,260.87,151.65,260.87,150.52,260.26z"/> <path d="M150.2,252.45c0.72-0.72,0.41-1.13-0.1-1.64C149.5,251.51,149.76,251.86,150.2,252.45z"/> <path d="M150.22,290.01c0.39-0.01,0.5-0.72,0.28-1.11C149.84,287.75,149.15,290.03,150.22,290.01z"/> <path d="M150.93,285.02c0.13-0.13,0.42-0.25-0.31-0.62c0,0,0,0.1-0.1,0.21C150.73,284.72,150.83,284.82,150.93,285.02z"/> <path d="M151.82,295.8c-0.64,0.55,1.23-0.23,0.31-0.15C151.98,295.66,151.89,295.72,151.82,295.8z"/> <path d="M150.62,255.94c-0.57,0.58-0.22,0.48,0,0.92C150.89,256.6,150.91,256.52,150.62,255.94z"/> <path d="M259.05,564.36c0.62,0.41,1.13,0.92,1.44,1.34c0.82-0.51,1.64-1.03,1.54-2.16C262.03,560.51,258.84,561.39,259.05,564.36z"/> <path d="M93.08,61.04c-0.18-0.3-0.39-0.61-0.83-0.16C93.36,61.16,93.22,61.27,93.08,61.04z"/> <path d="M94.2,61.29c-0.41,0-0.72-0.1-0.92-0.21C93.48,61.39,93.69,61.91,94.2,61.29z"/> <path d="M94.61,72.7l0.1-0.1C94.52,72.64,94.61,72.57,94.61,72.7z"/> <path d="M93.28,71.88c0.18,0.72,0.68,0.81,1.21,0.75C94.73,72.63,94.52,71.63,93.28,71.88z"/> <path d="M94.72,72.59c0.17,0.68,0.55,0.72,1.32,0.72C95.89,72.6,95.3,72.59,94.72,72.59z"/> <path d="M96.05,73.42l0.1-0.1C95.96,73.31,96.05,73.3,96.05,73.42z"/> <path d="M96.15,73.31c0.1,0.42,0.8,0.7,1.31,0.7C97.3,73.33,96.64,73.41,96.15,73.31z"/> <path d="M97.49,74.14c0.29-0.29,0.41,0.78,1.13,0.21c-0.3-0.31-0.74-0.2-1.03-0.31C97.41,73.99,97.47,74.02,97.49,74.14z"/> <path d="M109.62,54.51c0.14,0,0.18,0.08-0.1-0.21C109.51,54.4,109.51,54.51,109.62,54.51z"/> </g> </svg> 