<?xml version="1.0" encoding="utf-8"?> <!-- Generator: Adobe Illustrator 23.0.1, SVG Export Plug-In . SVG Version: 6.00 Build 0)  --> <svg version="1.2" baseProfile="tiny" id="Layer_1" xmlns="http://www.w3.org/2000/svg" xmlns:xlink="http://www.w3.org/1999/xlink" x="0px" y="0px" viewBox="0 0 900 600" xml:space="preserve"> <g> <path d="M554.46,288.57c-0.07-0.07-0.05-0.05-0.1-0.1C554.35,288.68,554.32,288.63,554.46,288.57z"/> <path d="M802.24,402.47c0.36,0.29,0.76,0.51,1.23,0.66C803.04,402.92,802.63,402.7,802.24,402.47z"/> <path d="M626.01,70.04c0-0.02-0.01-0.03-0.02-0.04c-0.14-0.14-0.25-0.25-0.34-0.34C625.75,69.79,625.87,69.92,626.01,70.04z"/> <path d="M751.92,392.78c1-17.89,2.01-35.88,3.12-54.06c2.91,0.7,5.23,2.01,7.34,3.12c0.53,1.45-1.34,42.17-2.61,48.03
		c1.43,3.02,0.9,1.35,34.37,10.05c1.82,0.47,3.62,0.9,5.53,0.7c0.8,0.7,1.67,1.31,2.58,1.85c-2.07-1.68-4.94-8.87-5.8-11.4
		c-2.75-8.05-1.35-22.24-0.3-30.25c0.61-4.67,2.69-0.31,6.53-0.5c1.43,3.09-1.15-2.29,0.5,23.72c0.03,0.43,0.33,5.88,0.7,6.13
		c2.11,1.66,0.66,4.61,3.92,9.65c-3.31,4.82-6.26,2.54-2.61,4.12c6.18-2.61,6.36,3.88,12.46,2.91c3.84-0.85-1.74-1.82,38.49,7.94
		c1.71,0.41,3.86,0.96,4.12-1.11c0.2-1.6-0.78-2.1-3.42-2.71c-32.13-7.45-33.51-7.59-32.46-8.64c8.07-8.07,3.96-4.45,9.95-16.88
		c2.91-5.23,4.03-17.02,4.12-23.01c0.07-4.77-2.98-19.88-4.22-24.82c-1.52-6.03-3.28-9.01-6.43-12.16
		c0.31-6.53,19.69-276.43,19.7-276.55c2.66-36.58,3.57-37.66,0.8-37.99c-2.42-0.29,2.79-19.21-24.32,308.61
		c-0.63,7.65,1.16,5.81-4.12,7.84c-1.51-1.81-3.52-2.61-5.33-3.52c-2.81-0.2-5.23,1-7.94,1.21c-8.76,12.51-9.26,20.54-10.85,27.64
		c-4.9-1.23-4.49,14.17,8.04-178.17c10.93-167.8,10.84-157.42,9.55-160.79c-1.7-0.24-20.56,334.34-23.41,336.34
		c-7.64-3.52-15.48-6.93-23.21-10.55c-0.28-1.76,14.97-297.35,14.97-297.45c1.71-30.71,2.49-33.85-0.6-33.46
		c-3.02,0-17.53,324.25-18.59,328.51c-2.51-0.3-4.92-1.41-7.34-3.22c0-3.73,9.94-177.45,9.95-177.57
		C774.42,0.06,774.52,9.85,771.62,9.6c-0.39,1.16,0.9,0.68,0.4,5.13c-0.01,0.1-18.14,318.01-18.69,318.46
		c-2.41-0.4-5.43-1.71-8.44-3.62c0-0.17,13.36-316.8,13.37-316.95c0.04-1.97,0.42-4.15-1.31-4.72c-2.76-0.92-2.56,3.03-2.71,5.93
		c-17.13,329.99-11.56,314.91-14.77,313.83c-26.33-11.86-52.66-23.72-78.79-35.47c-2.51-5.23-6.63-7.13-12.06-7.03
		c-2.85,0.05-7.25-6.05-13.97-9.65c-4.32-2.31-8.29-5.34-12.46-7.84c-2.51-1.5-6.57-9.86-7.34-11.76c-1.1-2.72-1.61-5.73-3.62-7.94
		c-0.1-0.05-5.47-11.88-5.73-15.27c-0.08-1.01-0.7-1.91-1.11-3.01c2.53-2.76,9.61-9.32,12.26-13.87
		c4.86-8.34,10.68-1.29,21.61-12.76c2.13-7.45,10.25-11.02,0.7-34.37c-0.08-0.19-5.59-10.62-10.05-29.44
		c-1.04-4.4-2.17-4.5-1.91-7.03c0.25-2.52,0.44-3.31-0.4-3.52c-1,0.1-0.4,1.31-1.11,1.71c-0.79-5.78,1.32-3.61,5.23,0.3
		c3.12,1.71,6.23,2.62,9.25,3.92c2.81,1.21,5.62,1.27,8.54,0.3c5.25-1.74,3.62-6.42,4.42-7.54c2.01-1.31,4.12-2.51,3.42-5.53
		c2.81-1,3.62-3.82,5.23-5.83c10.25,0,2.45-6.04,6.63-12.86c1.84-3,1.81-3.01,1.81-6.63c1.21-0.4,2.61-0.3,3.62-1.21
		c1.51-1.51-0.92-1.67-0.3-3.52c0.8-1.21,2.81-1.41,3.52-3.01c-0.3-0.4-0.5-0.7-0.8-1.11c8.94-35.77-4.03-39.32-12.66-52.96
		c-3.71-5.86-24.12-8.61-24.22-8.64c-7.12-2.27-11.71,1.7-15.07,1.91c-0.3-1-0.5-1.91-0.8-2.71c-0.4-0.8-1.51-1.11-1.71-2.11
		c-0.67,0.1-1.21-0.02-1.41-0.7c-0.66-0.12-1.19-0.03-1.42-0.7c-0.32,0.05-1.58,0.12-2.11,0.2c0.57,1.39,2.05,1.73,2.61,2.01
		c1.99,0.77,3.96,3.38,2.71,4.42c-0.97-1.11-2.12-2.65-3.22-2.41c0.1,1.31,1.71,1.81,1.81,3.52c-0.6,1.21-2.31,1.71-3.42,2.81
		c-2.05-0.65-3.67-1.75-5.35-0.06c-0.01,0-0.06,0-0.16-0.04l0.1,0.1c0.05-0.05,0.07-0.06,0.07-0.06c0.54,0.11,1.25,0.05,1.73,0.47
		c0.49,0.43,1.47-0.38,2.11,0.59c-1.78,2.08-3.18,4.64-5.33,6.54c0,0,0,0,0,0.01c-0.09,0.07-0.13,0.13,0,0
		c-8.93,19.64-6.34,11.3-8.24,22.69c-1.05-3.16-0.83-21.23,3.22-32.66c1.59-4.49,4.52-7.74,8.54-10.05
		c1.34,0.24,3.28,0.59,4.31,1.62c0.55,0.47,1.28-0.04,1.58,0.78c0,0.35,1.19-0.24,1.45,0.8c1.85-0.62,5.33,3.41,6.23,1.61
		c-0.18-0.9,0.11-1.27-12.16-6.33c-4-1.65-12.65,6.21-14.57,14.27c-0.2,1.44-0.46,2.27-1.2,3c-1.07-1.52-1.86-0.02-2.82,1.52
		c-5.97,10.81,0.92,28.22-0.4,37.48c0.2,1.21,1.22,1.81,1.21,3.01c-0.06,6.23,0.02,14.32-0.8,16.78c-0.3,0.5-1.21,0.6-1.41,1.41
		c-0.4,1.11,1.11,1.31,1.11,2.51c-8.04,9.28-7.29,8.86-33.26,20.1c-5.22,2.26-6.26,5.93-7.94,7.24
		c-6.88,5.36-7.32,13.74-11.26,14.87c-4.64,1.34-8.25,4.41-11.86,7.34c-8.75,7.11-10.77,14.13-12.66,15.38
		c-10.72,7.08-2.48,1.59-19.6,12.06c-22.6,13.82-37.38,42.09-37.38,48.64c0.26-0.1-4.65,10.89-2.62,15.17
		c16.21,11,8.96,5.3,16.58,9.25c0,0.1-8.62,22.54-7.64,31.55c2.48,22.86,21.94,51.51,24.12,56.48c4.22,9.63,6.26,13.41,22.51,38.79
		c1.97,3.08,1.09,3.38,3.92,8.64c1.08,2.01,2.17,4.65,4.22,10.35c5.33,14.82,8.07,19.32,7.94,24.52c-1.81,5.44-2.45,9.15-6.73,13.67
		c-7.38,7.78-7.08,12.88-9.95,14.67c-1.93,1.45-5.25,18.26-4.32,30.55c2.2,28.98,0.11,23.06,1.81,40c-1.71,0.8-1.11,2.71-1.61,4.02
		c-1.07,0.53-5.08,1.49-6.23,5.33c-3.28,10.91-0.56,8.86,0.8,16.58c-1.71,3.32-1.41,7.03-1.61,10.65c-0.79,1.97-2.54,2.86-0.9,5.73
		c1.92,3.83,4.04,3.98,5.53,5.23c11.33,9.52,8.38,3.77,12.76,13.26c-1.88,7.19,3.89,16.65,8.54,18.19
		c18.73,6.19,18.69,2.03,24.72,2.51c7.75,0.62,19.13-10.85,20.4-14.87c2.01-6.37-2.47-7.93-4.12-11.15
		c-3.52-6.88-9.9-10.02-12.16-12.86c-4.09-5.15-5.07-5.97-5.63-7.54c-4.79-13.41-7.69-22.53-10.45-18.59
		c0.61,1.09,2.64,3.96,2.21,5.83c-7.69-2.02-15.71,3.75-18.19,7.84c-3.2,5.27-1.43,5.27-0.8,4.02c2.08-3.12,7.71-6.72,10.75-8.24
		c5.8-2.9,11.45-0.9,10.25,1.81c-9.93,0-17.91,5.71-16.68,12.16c0.9-0.3,0.9-1.11,1.31-1.61c4.97-6.21,15.51-8.24,16.38-8.24
		c1.26,3.77,0.72,2.71-0.9,3.12c-5.98,1.11-11.51,3.23-12.86,9.14c-0.09,0.4-0.1,0.9,0.7,1.21c2.28-4.56,11.56-6.3,14.77-8.94
		c6.34,7.3,7.26,9.76,9.75,11.76c4.3,3.45,8.04,7.24,10.15,12.26c0.7,0.9,2.01,0.9,2.71,2.11c0.9,1.91,1.71,4.12,1,6.53
		c-7.57,6.2-14.14,12.79-24.62,12.36c-5.23-0.21-10.55-0.8-15.38-2.81c-3.19,0.8-1.06,0.98-5.02-1c-2.91-4.99-5.34-9.52-5.23-14.07
		c0.07-2.68-1.29-6.2-4.12-8.14c-4.37-3-2.19-0.91-11.26-10.35c-0.57-0.48-2.7-2.97-2.01-4.22c1.04-1.89,0.62-4.2,2.01-5.93
		c3.87-4.81-4.15-13.06-2.01-20.2c0.74-2.45,4.31-7.62,5.73-5.73c-1.11,2.03-1.52,2.02-1.91,9.04c-0.11,1.93-0.24,2.36,1,7.94
		c1.91,2.21,5.33,1.91,6.93,4.12c4.01,0.36,2.23-9.85,7.94-11.96c0.61-0.31,5.53-2.18,7.24-3.52c1.3-1.02,2.51-1.41,4.02-1.61
		c0.6,1,1.61,0.2,2.41,0.9c0.8,0.6,0.8,2.21,2.11,2.81c0.8-1.21,0.8-1.21,0.7-1.51c-0.88-3.51-3.47-3.22-3.01-7.24
		c1.45-12.9,0.14-13.92,4.42-25.73c2.34-6.46,11.18-25.97,13.77-40c0.56-3.06,1.8-10.17,3.12-12.96
		c8.79-18.62,8.78-18.96,12.16-23.51c2.7-3.63,2.82-11.08,3.52-16.68c0.48-3.86-2.24-0.7-3.01-8.94
		c-2.97-31.74-17.77-47.5-22.41-76.88c-2.33-14.77-2.92-14.67-1.41-15.27c24.89,24.89,35.91,24.26,41.1,29.44
		c3.63,3.63,5.81,1.97,25.42,13.87c2.41,4.82,6.93,7.03,10.45,10.35c0,15.92-1.56,13.42-1,22.31c0.69,11.2-0.09,8.59,1.11,11.46
		c4.98,11.89,7.3,12.66,7.24,16.18c0,0.1,2.95,10,7.03,20.9c3.23,8.62-2.27,7.47-4.22,11.76c-1.72,13.08-0.16,13.28-1.71,15.68
		c-1.03,1.59-1.22,3.41-1.71,5.23c-2.72,10.06,10.63,10.19,19.6,11.56c6.14,0.93,9.77-2.69,12.26-0.2c1.11,3.12,1.11,3.12,3.72,5.33
		c2.44,2.44,3.13,5.01,9.35,6.93c10.96,3.39,23.02,1.29,24.82-0.1c1.19-0.92,2.31-1.91,3.42-2.91c3.32-3.01,3.95-8.68-0.2-12.06
		c-2.49-2.03-4.5-4.45-7.24-6.13c-1.6-0.98-0.89-2.02-4.52-3.72c-4.03-1.89-7.46-4.8-10.25-8.24c-4.4-5.42-5.97-3.76-8.84-7.24
		c-4.57-5.54-1.79-9.84-6.93-9.95c-6.67-0.14-3.74,3.53-5.23-10.25c-1.45-13.45,1.21-20.29,1.21-32.96c0-6.23-0.45-12.36-0.4-18.59
		c0.03-3.52-0.25-7.26-1.71-10.65c-1.15-2.69,0.57-2.14-0.9-17.39c-0.82-8.51-3.06-6.61-6.63-11.26c-5.03-6.55-8.8-7.97-13.87-18.39
		c0.48-2.89,1.57,1.06,0.8-9.55c-0.48-6.6-1.44-4.13-1.91-8.04c-0.92-7.61-6.97-8.38-6.53-10.15c4.92-0.4,9.35,1.61,13.97,2.41
		c1.59,2.64,2.53,4.19,6.43,5.73c1.51,0.6,2.71-0.2,3.92-0.7c2.63,0.98,83.45,37.01,84.41,38.19c0,1.92-2.4,65.53-3.32,67.23
		c-1.92,4.17-1.77,1.86,116.87,34.17c1.99,0.54,4.25,1.2,4.82-0.8c0.64-3.82-3.98-1.76-117.57-33.56c1.38-9.67,2.15-64.2,3.52-65.22
		c3.12,0.9,6.13,2.31,8.24,3.82c0.11,6.74-3.06,48.36-2.81,55.77c1.31,1.31-5.36-0.55,110.74,28.84c1.51,0.38,3.24,1.01,3.42-0.2
		C863.45,420.7,754.47,395.09,751.92,392.78z M819.45,329.37c0.85-0.76,4.9-1.33,5.63-1.41c2.02,1.54,3.42,3.61,4.12,5.93
		c2.8,9.23,9.65,25.64,1.91,50.15c-0.51,1.61-1.12,3.21-2.01,4.52c-4.65,6.85-1.56,7.39-11.36,15.17
		c-6.41,5.09-10.47-10.37-12.01-18.52c-0.6-3.17,0.21-2.78,0.16-4.06c-0.05-1.46-2.13-8.27,1.1-26.36c1.9-10.64,5.5-14.07,7.64-19.5
		C815.62,332.78,817.54,331.07,819.45,329.37z M808.5,327.46c3.13-2.37,7.62-0.08,8.44,1.21c0,1.29-1.03,0.87-2.36,1.26
		c-3.43,1-6.82,5.69-6.57,7.68c1.24,0,2.18-3.47,4.84-4.87c0.09,0.47,0.01,0.95-0.52,1.46c-7.6,9.41-8.12,21.51-8.75,21.51
		c-3.31-0.39-3.32-0.39-5.72-1.91c0.07-0.31,0.98-9.4,4.92-17.28C803.75,334.54,804.18,330.73,808.5,327.46z M766.19,344.44
		c0.28-0.28,23.61,10.4,23.72,10.45c0,6.8-0.9,13.1-0.9,19.51c0,0.22,1.41,0.31,1.41-0.91c0.1-1.94-0.1,1.63,1-16.08
		c0-1.92,1.51-1.57,2.91-0.19c0.25,0.25-0.85,3.87-1.31,7.93c-3.22,28.41,5.04,32.35,1.41,31.45c-33.55-8.26-29.49-6.96-30.65-7.74
		C763.78,375.42,765.7,344.44,766.19,344.44z M618.37,276.31c2.6,0,0.72,1.73-0.09,0.11c-1.17,0.1-2.31-0.77-2.73-1.33
		C616.92,274.92,617.75,275.38,618.37,276.31z M609.15,274.23c-1.41,0.28-3.48-0.18-4.84-0.63c0.33-2.84-0.15-2.81,2.8-3.92
		c0.26,0,0.49-0.01,0.7,0.1c6.86,4.12,7,4.17,7.46,5.17c0,0.48-4.54-2.15-4.74-2.25c-3.75-1.87-4.33-2.29-4.72-0.9
		C606.59,272.96,608.23,273.19,609.15,274.23z M609.93,264.05c0.77-0.26,1.92,0.51,2.21,0.8c-0.2,0.7-1,0.1-1.11,0.4
		c-0.7,0.9-0.3,1.71-1.11,1.91C608.84,266.08,608.82,266.06,609.93,264.05z M621.13,280.7c-3.21-0.7-6.22-1.45-8.23-4.11
		C613.74,276.48,619.61,279.48,621.13,280.7z M628.42,152.2c0.81,0.76,0.45,1.76,0.5,2.68C628.27,154.12,628.41,153.13,628.42,152.2
		z M627.71,149.38c0.85,0.79,0.53,1.73,0.6,2.6C627.57,151.23,627.7,150.3,627.71,149.38z M627.6,149.13
		c-0.86-1.24,0.16-0.29-3.71-8.58c-1.79-4.46-4.47-5.73-1.61-9.55c0.98,0.98,0.79,6.64,2.51,8.84
		C626.92,142.55,627.51,145.7,627.6,149.13z M667.71,98.64c-1.01,4.12-2.36,1.92-0.6-1C667.75,97.71,667.86,98.03,667.71,98.64z
		 M669.52,93.51c0.2-0.4,0.6-0.6,1-0.7C670.52,93.61,670.52,93.61,669.52,93.51z M648.01,30.41c0.15,0.07,0.25,0.2,0.37,0.3
		C647.38,30.71,647.58,30.26,648.01,30.41z M635.28,28.57c4.59-1.15,7.6,2.18,11.13,4.24c0.68-1.36,12.13,5.67,14.73,11.85
		c-1.23,0-1.33-1.27-2.31-1.44c-0.1-0.01-1.03,0.14,0.23,0.14c0.1,0,0.01-0.18,0.01,1.41c-0.26-0.61-0.44-1.05-1.31-1.51
		c-2.46-1.3-3.72-3.76-10.65-9.65c-0.13-0.13-0.45-0.7-0.5-0.8c-0.03,0-0.11,0-0.2,0c-0.19,0-0.46,0-0.7,0
		c0.39,2.12,5.47,5.6,3.31,5.6C647.73,34.7,634.43,28.57,635.28,28.57z M602.49,70c1.69-0.11,0.21,2.01,1.61,2.01
		c0.78-0.47,0.73-2.22,1.57-2.21c0.81,0.01,1.49,0.84,2.41,0.5c-0.89,2.6-2.28,0.46-4.89,5.02C602.08,75.44,602.14,75.19,602.49,70z
		 M607.9,75.36c-0.67,0.76-1.7,1.79-1.81,1.89C606.01,76.04,606.67,75.47,607.9,75.36z M601.49,37.64
		c-4.59,29.09,4.52,53.16-3.01,57.68c-0.57-2.83,2.87-9.35-0.1-31.15C597.3,56.3,598.91,41.08,601.49,37.64z M597.16,48.29
		c0,0.3-0.2,0.6-0.3,0.9c-1.99,0,0.33-12.85,2.62-13.43C599.53,38.38,598.15,39.2,597.16,48.29z M587.22,110.3
		c1.81-0.91,3.54-1.9,4.52-3.82c1.03-2,2.49-0.89,4.12-3.62c0.2-0.2,0.4-0.61,0.7-0.7c2.62-0.8,7.99-8.25,7.74-12.36
		c2.3-1.54,2.35,3.81,7.03,6.93c0.43,3.46,0.33,3.84,1,4.32c1-0.22,0.6-1,0.7-1.61c0.49-1.7-0.01-2.97,0.9-3.72
		c0.84-0.69,1.45-1.76,0.59-2.42c-0.59-0.46-1.47-0.05-2.5,0.21c-0.79-0.2-1.86-0.81-2.31-1.71c-1.78-3.54-5.18-5.86-5.83-8.24
		c-0.2-1.31,0.4-2.31,0.9-3.42c0.96,0.29,0.74,1.81,2.01,1.81c0.5-1.11,1-2.21,1.61-3.42c0.56-0.28,0.45,0.16,0.38,0.46
		c-0.19,0.9,2.94,0.02,3.53,2.35c0.1,0.7-1.11,1.11-1.31,2.01c-0.4,0.9,0.3,1.81,0.3,2.31c-0.2,1.61-1.51,2.11-1.71,3.32
		c-0.1,0.9,0.3,1.61,1.41,2.01c0.03-0.03,2.43-0.95,3.22-1.31c2.03-4.68-4.68-4.69,1.21-7.64c0.3-0.8-0.1-1.41-0.6-1.91
		c-1.93-1.93-3.39-4.28-5.85-5.57c-0.46-0.24,0.47-1.4,1.38-0.84c0.72,0.44,5.17,4.66,6.38,7.72c0.71,1.78,2.3,3.05,3.66,3.39
		c4.37,1.41,3.36-3.14,9.61-6c0.49-0.16,0.73-0.76,0.3-1.24c-1.05-1.18,0.29,1.21-12.6,0.16c-0.94-0.08-2.35-3.32-6.72-7
		c-0.33-0.28-2.88-0.48-2.92-0.67c-0.33-1.59-6.58-5.34-4.78-8.63c0.4-0.5,0.9-0.4,1.31-0.4c-0.9-1.81-0.9-1.81-0.4-3.72
		c0.9-0.26,2.16,1.86,1.49,0.21c-0.35-0.86-1.47-1.83-0.58-2.71c0.69-0.2,1.02,0.4,1.41,0.8c4.51,4.72,11.77,9.35,12.06,9.35
		c3.35-0.06,4.68,3.27,6.66,3.98c0.07,0.33,0.11,0.38,0.43,0.7c-0.15-0.2-0.26-0.41-0.26-0.64c2.51,0.93,4.96,1.96,6.73,4.2
		c-1.02,1.12-3.2-1.1-4.65-1.58c-0.85-0.28-0.57-0.14-0.19,1.1c0.08,0.27-4.34,0.53-8.22-1.63c-4.62-2.57-10.18-6.32-13.97-9.45
		c-0.1,1.11,0.71,1.7,1.41,2.31c12.65,11.03,15.31,8.33,16.18,10.35c-1.81,0-3.52,0-5.93,0c5.54,3.47,13.07,2.9,16.88,0.2
		c1.18-0.15,2.02,0.95,3.14,1.08c1.38,0.15,1.31-0.97,0.68-1.18c-4.92-2.07-11.45-10.42-13.16-10.54
		c-0.05,2.01,6.57,9.07-11.76-9.26c-0.6-0.68-1.23-1.78-2.18-1.97c0.29,1.71,1.59,2.88,5.18,7.43c0.99,1.26-6.09-3.35-9.23-8.37
		c0.4-1.61,1.41-3.01,2.21-4.52c1.54,0,9.14,9.54,11.45,9.54c-4.52-4.71-7.9-7.92-10.24-10.84c0-1.19,0.7-2.73,1.7-2.5
		c0.73,0.17,2.14,4.45,8.65,8.83c1.6,1.08,1,1.66,3.52,2.5c0.04-1.35-2.69-1.51-10.05-12.54c-0.52-1.04-1.02-2.29,0.6-3.22
		c1.82,0.91,2.09,1.81,1.01-1.41c0.53-0.72,3.11-5.72,5.3-4.95c1.4,0.49,13.59,8.36,13.59,7.33c-0.08-0.88,0.45-0.34-12.15-7.9
		c0.7-1,1.51-1.21,2.61-1.41c3.25,1.63,15.91,6.39,27.74,17.49c0.37-0.55,0.15-0.75-0.1-1c-10.18-11.59-16.34-11.8-16.57-13.62
		c0-0.18-1.13,0.41-1.42-0.75c-2.71-0.2-4.92-1.81-7.34-2.81c0.3-1.21,1.31-0.9,1.81-1.41c1.31,0.44,0,0.85,5.42,4.15
		c0.28,0.14,0.49,0.03,0.92,0.22c0.54,0.24,0.46,0.53,0.74,0.59c2.99,0.67,4.62,1.71,13.28,4.98c-2.17,0.43,2.91-0.82,11.99,13.48
		c1.68,2.36,0.96,2.44,2.36,2.36c2.2,0,2.91,11.17,4.94,10.76c4.2-0.83,0.26-13.7-1.89-17.43c-2.02-3.52,0.26,2.92,0.2,4.1
		c-1.58-0.23,1.5,1.41-6.63-11.05c-4.97-7.62-10.95-8.58-11.32-9.82c3,0.6,10.51,3.42,11.72,5.7c3.45,6.47,9.02,8.66,10.05,16.48
		c1.37,10.45,1.12,10.23,2.11,10.45c1.4-2.1-0.3-4.41,0-6.63c0.61,0.18,0.86,0.62,1.11,1.21c4.79,11.33,0,12.45,0,29.85
		c-1.82,2.01-7.59,2.23-9.35,9.35c-4.01,16.3,5.27,16.09-4.73,17.1c-1.27,0.13-1.99-1.5-4.91-2.13c-0.54-0.32-2.37-3.43-2.91-0.7
		c1.53,3.76,10.29,2.51,3.39,8.1c-0.62,0.5,0.61-0.46-5.6-0.46c-5.98,0-5.31-2.49-7.24-1c-0.51,0.39-0.3,1,0.3,1.81
		c3.22,0.7,6.53,1.41,9.95,2.11c0.68,1.95,0.68,2.02-1.42,3.39c-0.38,0.22-4.24-0.95-5.55-1.72c-0.24-0.14-0.22-0.29-1.08,0.14
		c-1.01,2.02,3.51,2.1,5.23,3.42c-1.34,3.75-1.17,5.48-5.93,5.57c-4.11,0.07-8.05-0.74-11.46-3.16c-6.16-4.37-6.93-5.07-7.24-5.53
		c-2.18-3.25-4.77-5.37-8.14-9.55c-0.8,4.42,2.61,6.53,4.12,9.25c0,1.31-0.58,2.02-0.9,2.91c-1.31,3.63-1,3.92-2.21,10.25
		c-0.37,1.94,1,3.17,1.47,2.53c0.26-0.36,0.58-1.1,0.84-0.32c4.94,9.87,3.79,12.71,5.53,16.18c0.97,1.93,1.43,4.21,2.01,6.33
		c3.69,13.58,1.03,9.61,0,14.37c-0.78,3.62-2.4,6.93-5.53,8.84c-0.52-0.35,1.16-10.18-1.22-10.91c-0.07,1.74-0.3,10.31-1.1,10.31
		c-2.11-0.3-3.81-1.21-5.23-2.91c-23.22-27.88-9.47-47.47-36.68-64.52c-1.98-1.24-3.15-0.54-3.24-0.16
		c-0.19,0.89-0.03,1.3,4.04,4.38c23.13,17.51,18.82,54.22,34.27,62.41c4.13,2.19,4.62,3.69,5.74,3.74c1.32,0.06,2.67,0.25,3.91,0.58
		c6.7-2.23,5.3-8.72,7.74-12.86c-0.4-4.72-0.27-9.44-0.8-14.07c-0.23-1.97-0.87-3.84-0.71-5.81c1.65,2.08-0.59,0.06,7.25,19.88
		c3.46,8.76,4.31,22.5-3.22,28.04c-5.29,3.89-10.68,7.21-17.18,7.44c-6.19,5.24-9.33,8.09-17.18,9.04
		c-13.87,1.68-11.24-1.52-13.26,0.5c-1.21,0.5-2.41-0.6-3.72-0.2c0,0.99,1.2,1.4,2.48,1.77c2.93,0.85,2.14-0.44,8.47,0.64
		c6.78,1.16,10.64-0.63,15.93-2.49c-0.93,2.27-2.63,3.34-3.97,5.1c-5.33,7.02-55.38,4.59-72.86-16.38
		c4.12-4.12,9.14-6.93,13.16-11.15c4.96,9.3,14.79,7.94,20.3,9.56c0.8,0.1,0.9-0.6,1.81-1c1.32-0.25,9.75,0.2,14.77-6.03
		c7.17-8.9,10.6-18.78,8.24-30.35c-0.97-4.72-2.14-2.31-2.21-7.54c-0.49-38.62-15.58-36.07-22.4-40.61
		C566.68,119.14,566.76,120.61,587.22,110.3z M620.78,82.36c1.78-0.65,3.64,0.49,2.61,0.8C622.22,83.53,621.52,83.25,620.78,82.36z
		 M661.27,44.83c0.14,0.14,0.85,0.18,1.28,1.89C662.54,46.62,661.27,46.41,661.27,44.83z M585.31,240.53
		c-3.32,3.02-3.04,1.78-3.28,2.35c-0.63,1.5-1.34,3.75-2.96,4.72c-0.04-0.73-0.16-1.1-0.16-1.21c-0.69,0-2.34,1.57-3.15,2.58
		c0.22,0.53,0.51,0.72,0.99,0.85c-1.1,0.79-2.58,0.13-3.41,0.95c-9.62-1.6-12.07-1.14-18.79-3.72c-40.2-15.43-46.15-21-47.93-21
		c6.29-5.9,6.37-5.85,7.34-6.24c8.3-4,13.68-8.59,16.78-10.65c1.69,0,0.82,2.8,6.83,7.44c12.32,9.51,20.01,11.05,30.85,11.96
		c3.36,0.28,3.6,1.37,6.43,1.61c21.87,1.85,17.97-0.23,24.02,0.2C599.23,232.39,593.13,233.41,585.31,240.53z M581.39,249.68
		c0.6-1.51,1.71-2.21,2.81-3.22C588.67,252.91,584.06,249.8,581.39,249.68z M578.39,248.38c0.02-0.31,0.17-0.56,0.47-0.6
		C579.07,247.78,578.97,248.41,578.39,248.38z M577.77,248.87c0.09,0.64-0.63,0.62-0.77,0.76c0.09-0.3,0.33-0.44,0.65-0.44
		c0-0.29,0.21-0.62,0.58-0.67C578.35,248.52,578.19,249.3,577.77,248.87z M551.94,304.65c-4.54-3.63-4.42-2.72-4.42-2.95
		c-0.49-4.07,6.91-10.83,6.83-13.07c-1.93,1.13-4.71,5.77-6.43,8.28c-1.85-8.32-1.62-7.43-3.01-6.73c-1.05-0.48-2.31-3.38-3.82-3
		c1.54,1.99,2.3,3.16,4.32,5.73c0.3,3.12,0.8,6.23-1.11,9.04c-0.2,1,0.5,1.81,0.2,2.81c-1.51,0-3.26-2.99-10.05-5.13
		c-0.8,0.2-1.71,0.4-2.51,0.6c0.18,0.43,0.65,0.7,1.11,0.8c2.49,0.58,5.35,1.96,7.74,3.92c1.09,1.09,3.35,1.48,4.12,4.52
		c10.81,42.84-3.04-4.67,23.62,76.88c1.49,4.55,0.6,4.23,2.21,13.87c0.9,4.04,2.11,4.08,1.51,7.84
		c-3.41,21.18-3.63,13.85-5.63,16.98c-7.53,17.43-7.31,17.48-9.45,18.79c-1.31,4.22-2.16,8.43-3.01,12.66
		c-0.62,3.1-2.2,6.73-2.91,10.15c-4.04,19.31-13.13,23.39-16.28,59.59c-4.86,1.98-5.33,3.27-9.45,5.33
		c-8.9,2.54-6.41,7.5-8.54,10.85c-1.88,0.62-3.4,0.03-4.92-0.78c-1.5-0.8-1.38-0.14-1.71-4.34c2.11-2.41,1.98-5.54,2.71-8.44
		c0.38-1.51,0.71-3.12,0.4-4.82c-0.48-2.68,2.18-3.73,0.4-7.54c2.05-4.78-1.68-2.94,1.01-5.63c0.1-0.9-1-0.4-1.41-1.71
		c-0.32-2.87-0.3-12.83-0.3-15.68c0-5.55-2.24-18.1,0.1-31.15c4.27-23.8,20.02-29.6,19.09-43.41c-0.87-12.97-7.11-28.51-12.96-38.59
		c-5.35-9.2-7.79-15.86-13.77-25.63c-20.18-32.98-13.45-24.85-19.8-36.28c3.21-5.04,5.95-11.83,17.99-16.28
		c20.73-7.67,24.15-2.64,25.52-4.02c-0.36-3.73-34.58-3.95-43.11,14.57c-1.82,3.96-1.4,3.47-1.69,3.28
		c-0.38-0.29-11.68-20.24-11.68-28.7c0-2.41-0.79-4.72-0.9-7.24c-0.38-8.09,1.25-12.02,6.43-26.63c0.39-1.11,0.8-2.21,1.91-3.22
		c3.96,1.09,8.02,2.27,12.09,3.37c0.85,0.28,0.81,4.41,9.62,8.79c5.82,2.9,13.08,5.58,19.9,6.53c0.11,0.02,18.04,1.86,19.8,1.71
		c1.81-0.15,7.6,1.69,13.16-0.5c1.86-0.93,3.76,0.25,7.54-3.32c2.25,0.67,0.46,0.38,12.26,8.64c-1.13,3.39-8.56,5.8-20,25.42
		C553.37,303.03,554.1,303.93,551.94,304.65z M496.3,254.96c0.41-0.68,31.57,6.49,33.13,5.97c2.61-1.11,5.12-0.08,7.64,0.2
		c8.9,0.98,16.57,1.74,23.41,4.02c-2.97,0.1-5.83,1.13-8.94,1.71c-4.26,0.79-11.87,0.7-13.67,0.9c-5.39,0.62-5.82-0.5-7.34-0.2
		C524.09,269.37,494.74,258.1,496.3,254.96z M667.31,437.3c0.6,1.71,1.08,3.54,2.41,4.92c0.59,0.61,0.7,1.61,1.11,2.51
		c-4.01,2.44-7.53,4.71-8.24,9.45c1.73-0.98,6.01-5.12,9.85-7.13c0.88,0.68,2.39,0.86,2.97,1.87c-4.92,2.28-7.85,4.46-7.51,9.99
		c1.51-0.6,1.51-2.31,2.51-3.22c1.11-1,2.02-2.2,3.32-3.12c1.11-0.79,2.41-1.41,3.32-2.41c0.96,0.48,1.82,1.25,2.41,2.31
		c-3.73,2.36-5.75,2.83-6,7.21c-0.13,2.31-0.71-1.27,8.71-5.2c3.1,3.1,4.54,5.16,9.25,7.34c2.88,1.33,3.01,2.44,7.13,5.63
		c2.34,1.81,4.64,4.6,6.43,6.73c-1.68,1.17-3.94,2.62-4.25,3.59c-0.22,0.69-0.35,0.64,3.39-1.2c0.05-0.03,0.11-0.05,0.16-0.08
		c0.5,1.31,0.5,1.31-0.4,3.42c0,0.1-0.1,0.2-0.2,0.3c-6.95,6.95-20.14,3.77-20.9,3.92c-3.01,0.6-5.63-0.9-8.34-1.71
		c0-1.36-0.08-1.5-0.4-1.7c-0.66-0.41-7.02-4.22-7.56-5.3c-0.25-0.63-0.48-2.37-1.95-3.92c-2.56-2.71-5.9-1.28-9.18-0.74
		c-3.51,0.57-18.22-0.02-21.91-4.32c-1.23-4.32-1.07-4.69,1-7.84c2.64-4,0.72-4.42,2.11-17.59c0.76-1.24,1.8-2.29,3.1-3.25
		c1.03-0.88,0.89,16.57,8.06,13.6c4.21-1.75,8.13-2.41,11.76-5.13c1.11-2.11,0.3-4.42,0.6-6.53
		C663.6,435.72,663.63,436.37,667.31,437.3z M656.45,339.52c2.29,12.12,1.38,10.61,2.81,31.65c1.11,16.22,1.52,5.64-0.2,38.19
		c-0.19,3.64,0.52,22.79,1.31,26.33c-6.09,9.68,3.57,6.84-6.39,11.77c-11.4,5.63-9.1,0.36-11.9-18.3
		c-10.05-30.17-12.86-33.55-16.38-42.01c1.94-26.18,2.06-24.95,1.11-27.23c2.92-3.89-6.07-5.76-7.13-10.25
		c-0.07-0.2-8.79-10.21-24.92-15.98c-11.87-4.25-31.89-20.88-40.1-27.03c0.1-1.51,0.2-2.51,1-3.32c4.28-4.28-3.01,1.3,21.2-25.22
		c1.76-2.41,2.88,1.78,5.63,1.51c-6.02-6.75-10.93-9.74-17.49-14.47c-7.9-5.71-18.02-6.27-27.74-6.93
		c-19.88-1.35-42.86-9.24-45.72-7.34c-32.87-12.25-31.42-10.5-27.84-24.82c-0.71-3.16-0.89-2.23-0.3-3.05
		c0.08-0.12,16.24-26.6,24.37-34.85c6.11-6.21,24.09-14.17,32.84-23.53c2.72-2.91,0.97-1.96,2.87-4.12
		c16.33-18.53,26.18-18.63,25.03-23.57c4.36-5.36,8.84-10.54,14.47-14.37c5.36,1.45,12.97,6.48,16.18,12.16
		c5.66,10.03,8.51,25.17,8.44,34.07c-0.02,2.77,1.74,0.9,1,7.84c-0.95,8.95-5.77,17.81-9.93,21.74c-2.74,2.59-9.34,5.97-14.19,5.7
		c-2.06,0-2.74-0.17-10.95-3.62c-3.21-1.35-4.45-3.29-5.83-5.13c2.61-1.41,5.23-2.41,7.64-3.32c1,0,1.2,0.82,1.71,1.31
		c3.07,2.94,3.44,1.58,9.04,3.82c1.38-1.38-8.2-5.05-6.98-6.5c1.05-1.26,2.83-1.28,4.27-1.74c-1.74-1.74-12.43,1.76-18.69,5.33
		c-0.11,0.05-17.7,12.97-25.52,19.8c-1.64,1.64-18.83,11.25-19.7,12.66c1.41,0.5,2.51-0.7,3.82-0.5c0.6,0.8,1.51,1.51,2.61,1.91
		c5.62,2.03,10.76,5.21,16.18,7.64c67.59,30.34,46.35,4.33,72.15,21.91c9.87,6.72,8.87,1.42,12.76,4.12c0.2-1.21-0.3-1.41-0.8-1.71
		c-4.19-2.46,0.09-0.77-7.34-6.63c-1.41-0.78-4.33-0.09-5.63-0.6c-1.19-0.93-2.16-3.76-3.01-4.12c-2.23-0.95-2.71-3.12-3.72-4.72
		c0-2.92,10.66-8.44,15.88-12.36c4.95,14.04,0.98,4.97,9.45,21.91c4.69,12.63,9.13,11.65-2.91,8.14c-0.97,0.67,0.21,1.09-1.11,4.52
		c-0.93,2.43-3.1,3.72-5.53,2.61c-2.41-1.1-5.13-1.31-7.54-2.31c-0.65,1.22-0.64-0.6,1.31,6.03c1.09,0,1.07-1.01,1.31-2.91
		c1.31-0.6,2.22,0.18,3.32,0.6c1.01,0.39,2.21,0.1,3.22,0.7c0.56,1.65-1.95,1.38-3.72,5.02c-2.48,0.36-3.25,2.58-5.32,3.62
		c-1.61,0.4-3.21-0.4-4.82,0.3c-1.4,0.61-2.71,1.31-3.92,1.91c-1-0.4-1.31-0.9-1.31-1.71c-0.8-0.3-1.61-0.4-2.41-0.3
		c0,0.03-0.1,0.81-0.1,1.21c2.27,2.13,5.45,2.98,5.95,2.88c1.44-0.28,0.94-1.93,1.69-2.08c1.83-1.02,3.51-0.2,5.13-0.6
		c5.45-4.19,4.73-2.18,6.27-4.6c0.32-0.5-0.38-0.74,5.29,1.39c5.22,7.17,2.21,4.84,7.24,11.05c1.16,1.43,2.91,4.35,2.91,5.13
		c-0.2,3.32,1.74,6.33,1.51,9.65c-0.08,1.2,0.89,2.51,1.71,3.22c1.41-1.81,3.29-3.03,4.32-5.02c2.29-4.44-0.23-5.73,0.6-7.24
		c3.52,4.02,6.43,8.34,7.34,13.67C639.99,312.84,637.16,321.67,656.45,339.52z M593.35,255.21c1.61-0.5,2.81-0.4,4.02-0.2
		c1.06,0.78,5.95,4.08,5.08,5.06C601.09,261.62,595.02,256.52,593.35,255.21z M603.16,274.94c-0.06,0.05-0.12,0.11-0.17,0.16
		C603.04,274.95,603.71,274.31,603.16,274.94z M636.36,299.92c0.05,0.4,0.19,1.91,0.2,2.01c1.15,1.87,1.6,3.73,1.6,5.13
		c-0.24,2.84,1.74,4.7-0.3,5.83c-1.3,0-1.05-1.47-1.61-2.11c2.27-2.08,0.6-3.15,0.31-8.84
		C636.16,301.23,636.15,300.63,636.36,299.92z M635.75,296.1c-0.07,0-0.12,0-0.2,0C635.55,295.48,635.75,295.12,635.75,296.1z
		 M635.85,307.26c0.49,2.42-2.15,1.89-2.61,0.5c-1.15-3.46-1.06-10.11-9.35-18.29c-1.19-1.18-2.13-1.22-2.31-1.31
		c-0.7,0.42-0.7,1-0.8,1.31c2,3.99,3.17,11.21-0.3,14.26c-2.63,2.63-0.35,0.78-2.2-5.32c-0.84-2.3,0.49-5.56-2.81-9.45
		c-2.45-2.88-3.92-6.43-6.73-8.94c1.53-1.53,5.54,1.88,15.07,4.02c5.57,1.25,3.01,2.18,7.53,7.03
		C635.43,295.48,633.04,296.95,635.85,307.26z M621.28,280.75c0.37,0,1.07,0.2,1.31,0.68c2.83,0.71,0.26,1.06,0,0
		C622.09,281.43,621.39,281.53,621.28,280.75z M624.15,282.16c0.51,0.06,1,0.05,1.22,0.58
		C624.85,282.74,624.37,282.68,624.15,282.16z M625.54,282.85c0.28,0.02,0.61,0.09,0.96,0.09
		C625.94,283.5,625.73,283.36,625.54,282.85z M630.23,283.44c-4.89-3.27-10.43-4.97-10.43-6.42c2.39,0.72,11.81,5.5,14.05,6.62
		C632.63,284.05,631.29,284.15,630.23,283.44z M650.63,292.39c0.61-0.53,1.15-0.15,1.71,0.5
		C651.53,293.39,651.13,292.69,650.63,292.39z"/> <path d="M626.72,70.77c0,0.44,0.82,0.87,0.75,0.66c-0.14-0.45-0.9-0.89-1.46-1.39C626.19,70.68,626.72,70.69,626.72,70.77z"/> <path d="M224.05,242.73c-0.32-0.05-0.11-0.03-0.11,0.11C223.97,242.82,224.02,242.76,224.05,242.73z"/> <path d="M188.65,29.96C188.65,29.96,188.65,29.96,188.65,29.96C188.79,30.11,188.78,30.07,188.65,29.96z"/> <path d="M320.01,386.04c-1.75-0.47-2.29-0.07-2.01-4.62c0.01-0.1,3.3-61.82,4.12-62.41c2.51,1.41,4.72,3.32,7.03,5.23
		c0,2.99-2.03,51.89-3.52,57.58c1.44,2.7,0,2.16,34.87,10.35c1.71,0.4,3.42,0.9,5.23,0.6c1.51,1.51,3.32,2.41,5.43,3.22
		c5.7-2.66,7.11,4.85,13.77,2.71c2.32-0.74,3.65-0.05,36.58,8.14c1.8,0.45,4.13,1.17,4.72-0.6c1.28-2.99-2.22-2.76-34.67-10.55
		c-0.6-0.1-1.11-0.2-1.41-1c8.12-7.11,4.41-5.79,10.15-16.68c2.89-5.49,4.04-17.77,4.22-24.02c0.27-2.46-3.22-20.39-4.02-23.82
		c-2.47-10.6-6.53-10.85-6.53-13.37c3.76-56.46,22.2-310.17,22.21-310.32c0-4.99-4.02-4.08-4.02-0.5
		c-26.81,343.18-16.77,317.26-31.65,309.81c-1.31,0.2-2.61,0.2-3.82,0.5c-1.21,0.4-2.31,1-3.52,0.6c-2.41,2.61-3.62,5.73-5.23,8.54
		c-3.71,6.53-3.74,9.66-6.03,19.09c-5.65-3.04-6.58,19.52,17.39-321.27c0.9-12.78,1.89-19.1-1.21-16.78
		c1.35,4.38-20.74,332.73-21,333.93c-1.16,0.14-5.47-3.43-6.33-4.42c-1.74-2.01-16.61-11.59-17.49-13.77
		c0-5.62,14.33-281.29,14.67-287.51c1.73-31.12,2.47-34.13-0.7-33.66c-3.85,0.56-15.96,311.56-17.99,318.16
		c-1.81-0.1-1.81-1.21-1.61-2.61c-1.41-0.7-1.93-2.19-3.22-3.12c-1.22-0.88-1.51-2.51-2.31-3.92
		c1.13-16.42,14.83-258.48,15.58-271.03c2.32-38.78,3.09-35.94-0.1-36.88c1.2,2.83,0.32-17.92-15.27,279.77
		c-1.91,36.37-0.07,24.72-6.73,27.64c-1.31-0.9-2.51-1.81-3.72-2.61c0-4.54,6.02-145.66,6.03-145.81
		c7.59-168.46,7.48-160.59,4.62-160.59c-3.34,0-1.52-1.94-8.04,150.54c-0.2,4.65-4.7,105.8-6.13,142.2
		c-0.56,14.35,0.43,10.47-8.14,2.11c-1.42-1.39-2.71-2.81-3.32-4.52c-0.9-1-2.11-1.11-2.61-2.11c0-1.11,0.22-2.32-0.2-3.12
		c-1.07-2.03-1.31-4.42-2.81-6.33c-4.37-5.58,2.64-4.93-5.23-9.04c-0.4-0.9-0.2-2.11-1.61-3.12c-1.21-0.7-3.12-0.8-4.82-1.11
		c-6.96-5.57-0.83,0.29-8.84-9.85c-8.73-11.06-10.86-16.84-15.78-24.02c-6.85-9.99-13.19-11.07-15.68-12.56
		c-2.3-5.06-6.96-7.79-12.06-18.79c-9.35-20.18-5.55-31.43-14.87-41.9c-3.34-3.75-9.64-9.42-14.47-10.85
		c-1.91-0.57-4.65-3.23-4.02-4.72c-1.19-0.34-0.2-2.43-3.22-4.72c-2.18-1.66-3.76-4.03-6.1-5.73c-0.22-0.13-0.07-0.03-0.07-0.78
		c0.01-1.28-1.89-6.17-2.87-7.26c-1.31,1.31,0.7,3.33,0.2,5.02c0.31-0.09,0.41,0.1,0.3,0.3c0,0.63-7.13-5.02-18.09-9.85
		c-3.01-1.32-5.53-3.32-7.84-5.63c-0.4,0.4-0.4,0.8-0.3,1.11c4.78,9.55,15.84,6.39,32.16,22.71c0.85,0.85,2.21,1.73,2.21,3.32
		c0.17,0,0.52,0.07,0.65,0.5c0.1,0.31,0.02,0.18-0.23-0.07c-0.06-0.06-0.29-0.32-0.37-0.32c-1.19,0.16-2.38-0.99-3.67-0.2
		c-6.92-4.38-17.28-10.94-25.32-11.76c-16.02-1.63-19.94,5.23-22.41,5.53c-3.53,0.43-9.97,6.48-13.57,13.06
		c-12.28,22.53-3.42,33.52-2.18,37.08c2.22,6.4,7.5,11.69,10.92,14.66c12.72,11.06,26.42,2.77,31.55,4.82
		c3.52-0.5,7.64-2.91,12.06-6.93c2.38,3.29,9.93,15.86,9.91,15.96c-0.58,2.38-10.07,6.23-13.12,7.05c-5.65,1.53-7.93-0.73-9.55-0.5
		c-1.07,2.15-1.1,2.21-0.5,3.32c-0.07,0.1-0.33,0.78-0.7,1.41c-9.88,16.41-13.5,17.85-19.6,22.31c-5.16,3.22,2.66,0-15.98,10.75
		c-2.51-0.5-5.03,0.4-7.54,0.8c-13.8,2.24-22.49,0.69-22.71,0.8c-4.35,1.67-20.5-4.57-24.82-6.23c-10.6-4.07-10.69-8.65-12.96-12.06
		c-1.12-6.52,1.95-16.19,7.24-19.19c23.14-13.15,25.6-23.08,33.46-36.98c2.02-3.03-0.22,6.84,6.83,17.18
		c6.33,9.27,6.87,10.96,16.98,16.58c0.8,0.7,1,2.11,2.31,2.51c0-0.4,0.1-0.8,0.2-1.41c3.12,0.5,6.23,0.91,9.04,2.51
		c8.23,4.68,24.66,3.01,25.39,1.18c1.1-2.21-8.26,1.21-19.87-1.38c-3.71-0.83-7.23-2.67-11.05-3.22
		c-1.15-0.16-12.01-4.81-19.6-16.78c-5.47-8.64-5.41-10.02-7.54-20.8c-0.59-3.02,5.63-9.69,15.17-35.07
		c1.14-3.03,2.97-5.86,12.46-21.2c12.34-19.95,7.39-18.06,37.99-30.35c0.71-0.29,1.31-0.8,2.01-0.4c0.63,0.76-0.09,1-4.52,6.03
		c-5.21-3.61-11.7,4.73-12.96,10.05c-0.25,1.04-0.01,1.67,1.11,2.01c1.61-4.32,4.02-8.04,8.24-10.65c2.51,1.21,4.62-0.6,7.24-1.21
		c0.8-1.11,1.71-2.71,3.52-3.12c2.91-3.32,5.53-6.73,6.03-11.26c0-0.55,0.91-0.9,1.51,0.1c0.51,0.71,2.66,4.84,5.13,6.53
		c0.61,1.04,0.34,2.4,0.68,3.5c0.43,1.37,1.23,0.89,1.23,0.31c0.36-2.53-0.05-4.03,1.61-5.53c0.31-0.2,0.3-0.61,0.4-0.9
		c-0.44-1.54-1.72-0.74-2.91-0.5c-2.46-0.74-1.2-1.33-6.23-7.03c-1.93-2.46-2.54-3.34-0.8-6.23c1,0.2,0.8,1.71,2.01,1.71
		c0.5-1.11,1-2.21,1.61-3.42c0.93-0.42,0.19,0.6,0.57,0.78c0.85,0.4,3.35,0.37,3.35,2.02c0.1,0-1.13,1.72-1.21,1.82
		c-0.44,1.05,0.06,1.86,0.18,2.54c0.23,1.27-1.49,2.29-1.69,3.49c-0.11,1.02,0.36,1.73,1.41,2.11c1-0.4,2.11-0.9,3.22-1.31
		c0.42-2.02,0.62-2.61-1.21-5.53c0-2.08,2.89-0.92,2.59-2.75c-0.18-1.07-4.73-5.79-6.53-6.73c-0.33-0.18-0.08-0.74,0.92-1.07
		c0.98,0.35,5.61,4.86,6.83,7.94c1.28,3.24,5.74,5.01,7.54,2.31c2.79-4.2,5.32-4.26,6.23-5.63c-0.78-1.96-0.23,0.63-13.26-0.4
		c-6.22-7.77-6.51-7.23-9.16-7.53c-0.1-0.67-4.53-4.98-5.04-6.52c-0.33-1-0.13-2.66,1.3-2.64c0.97,0.01-1.09-0.33-0.23-3.41
		c0.21-0.74,0.87-0.15,1.42,0.33c1.01,0.89-0.59-1.75-0.63-1.85c-0.21-0.5-0.18-0.93,0.2-1.31c1.4-0.4,0.72,1.85,12.56,9.65
		c0.3,0.2,0.6,0.51,0.9,0.5c2.92-0.05,4.22,2.41,6.23,3.82c2.71,1,5.43,2.01,7.34,4.42c-1.11,1.27-3.4-1.59-5.23-1.71
		c0.09,0.29,0.4,1.31,0.4,1.31c-2.91,0.29-5.91-0.42-8.24-1.71c-8.98-4.99-14.75-10.06-14.65-9.76c0.8,2.39,10.16,9.91,17.04,12.05
		c1.35,0.42,1.05,0.68,1.21,0.91c0.1,0-4.53,0-5.93,0c5.48,3.43,13.01,2.95,16.88,0.2c1.51-0.2,2.61,1.81,4.22,0.8
		c0.08-0.37-0.04-0.78-0.4-0.9c-6.55-2.62-15.08-15.06-12.63-8.71c0.11,0.28,0.21,0.6,0.26,0.97c-2.31-1.81-4.12-3.42-5.83-5.13
		c-6.55-6.55-9.04-9.78-9.04-8.55c0.54,2.25,6.66,8.02,4.67,6.84c-4.27-2.53-7.5-5.99-8.79-8.25c0.4-1.61,1.41-3.01,2.21-4.52
		c1.11,0,1.5,0.81,2.01,1.41c1.16,1.35,7.81,7.84,9.03,8.11c1.19,0.26-6.59-6.64-9.84-10.82c-0.15-1.92,1.25-2.97,1.81-2.41
		c2.21,3.52,5.02,6.44,8.44,8.74c1.08,0.72,2.11,2.49,3.52,2.49c0.04-1.24-14.56-13.92-9.35-15.66c2.13,1.29,1.73,1.5,0.9-1.41
		c1.41-1.91,2.21-4.52,5.13-5.02c1.76,0.59,11.66,7.3,13.7,7.43c1.7,0-7.38-5.1-12.09-7.93c0.7-1,1.51-1.21,2.61-1.41
		c23.48,10.1,27.12,18.75,27.89,17.2c0.32-0.9-7.38-8.58-15.12-12.88c-0.67-0.37-1.64-0.46-1.71-1.51c-0.71,0.13-1.25,0.01-1.41-0.7
		c-2.6-0.19-4.93-1.78-7.34-2.81c0.3-1.21,1.31-0.9,1.81-1.41c1.49,0.57,0.02,0.91,5.53,4.22c0.5,0,1.11,0.1,1.41,0.7
		c2.47,0.94,13.36,4.99,13.47,5.02c-1.04-3.13-13.08-9.1-13.86-9.77c2.87-0.47,5.47,0.11,7.73,1.92c2.44,1.95,3.63,2.07,3.63,2.59
		c0.77,2.37,5.7,5.16,2.69,5.16c7.82,4.89,12,13.1,13.77,15.58c0.5,0.5,1.21,0.1,1.71,0.4c1.75,2.97,2.67,9.33,3.82,10.65
		c1.32-0.5,1.32-0.51,2.31-1.51c0.62-8.39-4.51-19.67-4.38-16.16c0.06,1.7,1.74,4.87,0.54,4.2c-1.57-0.88,2.39,2.32-6.21-10.85
		c-4.64-7.12-10.43-8.72-10.99-9.28c-2.09-2.09,10.17,2.83,11.41,5.16c1.63,3.06,4.21,5.54,6.43,8.24c5.8,7.04,3.24,17.3,5.73,18.79
		c1.5-2.2-0.17-4.44,0.1-6.73c1.55,0.34,2.98,6.74,3.32,8.24c1.11,4.88-2.31,10.86-2.11,22.91c-1.86,2-7.83,2.39-9.45,9.35
		c-4.17,17.94,5.69,15.52-5.13,17.18c-1.51-1-3.01-2.01-4.42-2.21c-0.65-0.32-2.02-2.88-2.76-1.32c-1.21,2.54,4.41,3.21,5.88,5.14
		c-0.64,1.63-1.38,2.83-2.81,3.82c-3.63-1.41-7.02,0.35-10.45-1.61c-1.99-1-3.08,0.09-2.01,1.81c3.32,0.7,6.83,1.51,10.25,2.21
		c0.3,2.12,0.3,2.1-1.71,3.42c-5.33-1.07-6.23-2.75-6.85-1.35c-0.62,1.41,4.05,1.98,5.25,2.85c0.6,1.21-0.6,1.61-0.6,2.41
		c-0.48,3.36-3.45,3.56-6.93,3.42c-6.65-0.27-10.07-3.16-16.08-7.74c-0.3-0.2-0.61-0.4-0.8-0.7c-2.23-3.4-5.43-6.03-8.04-9.45
		c-0.76,1.85,0.01,3.32,1,4.92c5.26,8.46,2.89-1.71-0.3,17.39c-0.89,5.31,0.76,5.38,0.2,8.74c0.8-0.53,0.7-0.9,1.11-4.52
		c1.13-4.5-0.35-3.1,3.22,2.21c0.66,0.99,1.29,2.23,2.7,2.3c-0.08-1.84-7.05-11.8-3.11-14.76c1.71,7.94,1.71,7.94,3.22,9.45
		c0.9-0.5,0.7-1.31,0.5-1.91c-1.45-5.58,1.01-9.81-0.7-10.15c-0.8,0.2-0.5,1.21-1,1.81c-0.4-2.41-0.3-2.41,0.4-3.82
		c2.01,1,3.62,2.51,4.82,4.02c3.12,1.71,6.23,2.62,9.25,3.92c2.81,1.21,5.62,1.27,8.54,0.3c5.25-1.74,3.62-6.42,4.42-7.54
		c2.01-1.31,4.12-2.51,3.42-5.53c2.81-1,3.62-3.82,5.23-5.83c10.24,0,2.45-6.04,6.63-12.86c1.84-3,1.81-3.01,1.81-6.63
		c1.21-0.4,2.61-0.3,3.62-1.21c1.51-1.51-0.92-1.67-0.3-3.52c0.9-1.21,2.81-1.41,3.52-3.01c-1.83-2.44-0.03,1.45,2.21-16.58
		c1.26-10.19-1.81-14.91-1.81-16.58c-0.3-5.73-9.46-13.93-13.87-20.9c-3.71-5.86-24.12-8.61-24.22-8.64
		c-7.15-2.28-11.55,1.69-15.07,1.91c-0.3-1-0.5-1.91-0.8-2.71c-0.4-0.8-1.51-1.11-1.71-2.11c-0.4,0.06-1.11-0.02-1.11-0.4
		c-0.61-0.2-1.19-0.1-1.4-0.79c-0.22,0.04-1.44,0.1-2.11,0.2c0.99,2.37,4.3,1.57,5.53,4.82c0.19,0.51,0.4,1.11-0.2,1.61
		c-0.92-1.08-2.18-2.62-3.22-2.41c0.1,1.31,1.71,1.81,1.81,3.52c-0.6,1.21-2.31,1.71-3.42,2.81c-1.8-0.57-3.48-1.55-5.13-0.27
		c-0.53,0.41,0.22,0.12,1.09,0.43c0.24,0.11,0.42,0.24,0.53,0.33c0.6,0.1,1.41-0.49,2,0.4c-1.78,2.08-3.18,4.64-5.33,6.54
		c-0.01,0.03-0.03,0.06-0.04,0.08c-0.05,0.04-0.06,0.06-0.01,0.01c-1.68,3.71-5.66,12.71-6.89,14.06c-1.33,9.62-1.28,8.77-1.44,8.13
		c-0.62-1.96-0.88-16.13,1.84-27.22c1.71-6.96,3.86-11.49,10.01-15.04c0.32-0.16,3.32,0.55,4.46,1.69c0.34,0.34,1.52,0.03,1.52,0.89
		c0.7,0,1.31-0.18,1.51,0.6c1.29-0.21-0.07,0.49,4.62,2.41c0.85,0.35,2.59-0.44-0.9-2.11c-10.85-5.18-11.26-5.8-13.77-4.32
		c-11.6,6.82-10.04,14.47-12.14,16.86c-0.1-0.1-0.34-0.58-1.03-0.58c-1.33,0.59-4.67,6.26-4.12,14.37
		c0.92,13.55,2.68,19.69,1.91,25.42c1.51,3.32,1.29-0.7,0.9,17.28c-0.51,4.54,0.8,1.05-15.07,8.14c-10,3.33-17.62,6.98-22.31,16.58
		c-3.66,7.5-11.17,15.49-16.68,28.04c-21.47,48.88-29.57,64.88-47.93,74.06c-1.16,0.58-0.65,0.25-10.75,9.35
		c-2.99-0.53-3.33,1.12-6.13,3.92c-9.52,9.52-11.99,16.1-13.47,21.81c-4.7,18.24-4.46,18.38-4.12,22.01
		c1.9,20.57,21.63,50.18,24.22,56.28c8.64,20.32,19.04,27.24,31.35,59.79c6.2,16.39,8.35,20.69,6.23,24.92
		c-0.61,1.22-0.93,5.92-5.53,10.75c-7.39,7.78-7.71,12.98-10.25,14.97c-2.95,2.32-5.21,22.27-4.42,30.45
		c2.27,23.5,0.37,27.56,1.91,39.59c-0.4,1.11-1.31,1.51-1.41,2.41c0,0.8,0.2,1.61-0.5,2.31c-1.25,0.54-4.91,1.4-6.03,5.23
		c-3.17,10.81-0.48,8.75,0.8,16.48c-1.61,2.81-1.56,6.03-1.61,9.14c-0.05,3.27-1.33,2.9-1.61,4.82c0.6,3.01,1.6,4.83,3.92,6.33
		c3.61,2.33,6.71,5.46,10.45,7.64c2.45,1.43,2.94,3.58,4.42,7.13c-1.65,5.49,1.5,11.12,4.82,15.78c1.71,2.86,14.9,6.13,20.2,5.63
		c11.31-1.08,10.78-0.02,16.18-3.32c3.53-2.15,10.95-8.07,12.26-12.16c2.09-6.52-2.16-7.67-4.12-11.46
		c-3.43-6.6-7.43-7.31-14.27-15.27c-7.1-8.26-9.57-28.32-14.07-23.82c0.7,1.91,2.31,3.42,2.31,5.63c-0.9,0.4-1.61,0-2.41-0.1
		c-11.55-0.72-20.57,13.06-17.38,13.06c4.94-6.18,14.48-13.16,21.3-9.14c0.2,0.5,0.4,1.21,0.6,1.91
		c-17.11,0.41-18.39,11.62-16.48,12.26c0.5-1.81,1.91-2.92,3.22-4.02c5.43-4.56,9.7-4.05,14.07-6.23c0.8,2.4,1.17,2.72,0.6,3.52
		c-12.09,0.39-15.93,10.07-13.67,10.45c1.71-2.41,1.8-2.62,4.82-4.22c1.15-0.61,7.77-3.75,8.24-3.82c1.03-0.16,1.08-2.15,2.71,0
		c7.67,10.11,8.16,10.4,9.14,11.05c5.36,4.12,7.52,7.3,9.95,12.16c0.7,0.4,1.41,0.8,2.11,1.21c1.31,2.31,2.21,4.62,1.41,7.24
		c-1.11,0.8-2.2,1.32-2.91,2.21c-1.78,2.23-4.62,3.22-6.33,5.43c-7.52,4.23-13.38,5.17-15.48,4.82c-5.02-0.82-10.25-0.8-14.97-2.81
		c-2.9,0.73-1.8,0.66-5.33-1.11c-7.29-14.02-3.9-8.06-5.33-15.68c-1.31-7-2.2-2.88-15.07-16.88c-1.11-1.2-2.21-2.51-2.11-4.52
		c1.21-2.21,1.15-5.07,2.91-7.24c0.58-0.72,0.39-1.81,0.2-2.71c-1.91-9.36-6.87-12.98,0.6-21.51c0.52-0.59,1.31-1,2.41-0.5
		c-1.27,1.99-1.65,2.09-2.01,9.75c-0.2,1.71-0.1,3.52,0.7,5.13c0.4,0.8-0.3,1.71,0.8,2.81c2.35,1.76,4.67,1.46,6.13,3.22
		c0.3,0.5,1,0.4,1.81-0.2c0.8-2.01,1.98-4.23,2.51-6.63c1.39-6.33,6.6-4.46,12.36-9.25c0.6-0.5,1.61-0.5,2.21-0.7
		c1.11,0.3,1.91,0.6,2.71,0.8c1.11,0.7,1.11,2.41,2.41,2.71c2.62-1.64-2.84-3.96-2.31-9.14c1.32-12.96-0.06-12.37,4.02-24.12
		c2.07-5.96,6.88-16.88,8.44-21.2c7-19.38,6.62-28.12,8.64-32.16c0.05-0.11,6.73-13.86,8.44-17.39c4.17-8.59,5.06-4.84,6.73-15.48
		c1.28-8.13,1.29-10.11,0-10.95c-2.25-1.46-1.91-7.07-2.11-8.14c-9.68-52.76-15.57-32.89-24.62-88.33c-0.1-0.6-0.3-1.41,0.4-1.91
		c2.18,0,1.68,5.24,24.12,19.6c10.46,6.69,13.87,6.33,17.59,10.05c1.21,1.21,2.8,2.04,4.42,2.71c7.28,3.04,14.07,6.93,20.7,10.85
		c2.21,4.92,6.83,7.13,10.45,10.45c-0.2,2.51,0.1,5.02-0.2,7.64c-2.08,18.26-0.07,16.79-0.5,22.41c-0.25,3.19,4.23,11.32,5.83,14.07
		c3.1,5.33,1.42,3.65,2.31,6.43c6.56,20.57,8.63,22.48,7.54,26.63c-3.42,4.49-6.13,1.62-5.93,16.98c0.06,4.39-3.44,7.16-2.71,12.76
		c0.85,6.51,10.64,6.54,16.48,7.64c10.5,1.98,11.87-2.65,15.48,0.4c0.35,3.68,4.09,4.97,4.82,6.43c4.79,8.08,21.76,8.72,31.35,6.23
		c1.07-0.21,1.25-0.36,4.92-3.72c3.52-3.21,3.71-8.83-0.2-12.06c-2.42-2-4.5-4.45-7.24-6.13c-1.67-1.03-1-2.07-3.82-3.42
		c-4.23-2.02-7.69-4.57-10.95-8.64c-4.72-5.89-6.75-3.31-10.25-9.25c-2.31-3.91-1.52-6.09-3.12-7.34c-4.14-2.07-5.72,0.71-6.93-0.5
		c-0.68-2.59-0.37-5.57-0.8-10.35c-1.21-13.48,1.32-20.3,1.21-32.96c-0.18-19.92-0.26-24.68-2.51-30.65
		c0.6-9.04-0.2-17.08-2.21-22.61c-1.71-1.61-3.76-3.08-5.23-5.02c-4.55-6.03-8.78-7.86-13.57-18.19c0.59-2.37,1.6-0.71,0.8-8.94
		c-0.22-2.31-0.22-4.71-1.61-6.73c-0.2-0.3-0.29-0.8-0.3-1.31c-0.07-5.46-4.09-9.18-4.12-10.95c-0.1-6.26-5.22-8.67-7.24-11.96
		c-1.2-1.96-4.66-5.65-5.02-6.23c-7.27-11.69-16.81-33.55-17.18-36.58c9.04-1.71,8.74-0.8,18.09-7.84c1.43,0.79,1.33,2.31,5.33,6.03
		c10.76,10,20.76,12.13,25.22,20.1c4.28,7.63,13.82,15.98,16.68,17.18c2.16,0.91,17.48,9.39,17.59,9.45c0.71,0.4,1.31,0.9,1.21,2.01
		c-0.3,0.2-0.61,0.5-0.9,0.9c-3.37,4.66,3.13,5.33,4.32,5.93c3.01,1.51,5.63,3.62,8.14,5.93c-1.36,4.78-1.92,2.08,5.53,8.74
		c1.51,0.2,2.91,0.4,3.92-0.8c-0.9-1.31-2.31,0.1-3.22-0.9c1.26-1.9,2.49-2.43,5.23,0c-0.2,1.11-1.91,1.31-1.61,2.61
		c2.71,1.81,3.42,1.91,7.54,0.9c1.31,0.7,0.5,2.51,1.61,3.32c1.11,0.8,2.31,1.61,3.42,2.41c4.65-0.14,3.08-0.02,16.18,6.93
		c2.53,1.08,2.11,1.76,2.11,3.42c-0.91,17.25-2.96,78.9-4.02,81.3c-1.88,4.25-3.83,0.72,118.88,34.77c3.09,0.86,3.96-2.51,1.71-3.42
		c-3.47-1.39-115.48-30.36-116.37-31.96c0.73-1.66,0.35-0.69,1.41-26.73c2.79-68.87,1.96-52.75,4.12-52.36
		c2.38,0,3.95,4.86,7.03,7.24c-3.9,70.13-4.32,66.05-3.22,67.43c116.4,29.1,112.43,29.92,113.86,28.14
		C430.12,413.78,436.92,417.61,320.01,386.04z M392.97,320.83c1.71,1.51,3.09,3.63,3.72,5.93c2.39,8.7,9.84,25.71,1.91,49.84
		c-1.52,4.63-3.99,7.58-6.03,12.16c-1.81,4.07-5.01,5.49-6.63,7.03c-2.15,2.05-5.44,1.71-7.13-1.11
		c-3.83-6.35-5.93-16.05-5.93-18.19c0.68-2.38-2.78-26.74,6.33-43.11C381.77,328.76,384.23,319.54,392.97,320.83z M362.01,367.45
		c2.16-19.79,0.81-15.23,4.42-14.37c1.62,0.38,2.59-0.73,2.56-1.76c-0.02-0.7-0.2-1.07-3.87-4.07c0.78-10.45,4.84-17.69,5.81-20.37
		c1.35-3.75,3.84-6.87,7.66-8.07c2.11,0.5,4.22,0.9,5.73,2.61c-0.53,1.47-1.61,0.8-2.31,0.9c-3.85,2.07-6.39,5.03-7.34,9.55
		c4.44-5.92,4.86-6.7,6.24-6.72c0.14,0-3.97,4.22-6.92,12.13c-6.5,17.42-4.27,44.99-2.03,46.55c0.51,0.35,0.58,5.33,3.01,8.74
		c-0.51,1.79-1.75,2.31-3.42,2.91c-3.63,1.04-8.79-12.88-9.04-19.6C362.41,373.08,361.71,370.27,362.01,367.45z M333.16,332.11
		c0.26-4.87-0.41-4.7,7.95,1.78c3.71,2.87,3.34,1.7,4.42,2.81c2.79,2.88,3.87,3.33,11.85,9.85c0.24,0-1.37,17.36-0.99,20.5
		c1.83,0,1.29-0.27,2.11-12.76c0.13-1.91,0-3.92,0.5-6.03c1.82-0.14,2.95,1.8,2.71,2.21c-3.1,11.73-3.77,27.37,1.61,39.09
		c-35.09-8.29-31.87-7.31-32.21-8.19C330.74,380.41,333.12,332.88,333.16,332.11z M198.41,80.25c-0.95,0.43-1.86,0.23-2.61-0.8
		C198.08,79.03,199.35,79.94,198.41,80.25z M241.53,98.24c0-1.81,0-1.81,0.8-3.32C242.83,96.43,242.83,96.43,241.53,98.24z
		 M245.24,90.74c-0.6,0-0.79,0.02-0.2-0.48c0.19-0.16,0.41-0.26,0.7-0.26C245.68,90.59,245.65,90.74,245.24,90.74z M237.96,43.6
		c-0.81-0.41-1.31-0.98-1.27-1.89C237.54,42.1,237.78,42.87,237.96,43.6z M224.24,27.19c0.7,0.37,0.19,0.3,0,0.3
		C223.84,27.49,223.73,27.02,224.24,27.19z M236.56,41.55c-0.99,0-1.31-1.02-2.07-1.41c0,1.92-0.14,1.02-0.4,0.4
		c0.26,0,0.26,0.03,0.04-0.08c-0.78-0.26-6.41-6.26-10.88-10.06C220.51,27.67,233.51,34.31,236.56,41.55z M222.4,29.6
		c-0.15,0-0.31,0-0.46,0C222.08,29.49,222.25,29.5,222.4,29.6z M181.82,74.03c-0.13-1.89,1.87-1.95,1.72-1.8
		C183.01,72.83,182.43,73.43,181.82,74.03z M178.11,67c0-0.09,0.01-0.15,0.01-0.22c1.81-0.1,0.3,2.01,1.71,2.01
		c0.8-0.52,0.73-1.68,1.21-2.2c1.06-0.1,1.74,0.79,2.67,0.54c-0.16,0.51-0.27,1.12-0.76,1.28C178.76,69.74,177.4,77.03,178.11,67z
		 M175,52.86c0,17.12,4.38,35.63-1.41,39.76c-0.18-0.53-0.43-0.98-0.29-1.26c3.54-20.76-3.89-40.56,2.9-56.64
		C177.25,35.77,175,37.79,175,52.86z M171.78,45.68c0,0.29-0.2,0.61-0.3,0.9c-0.6,0-0.6-0.4-0.6-0.7c-0.05-3.82,0.1-7.54,1.81-10.95
		C175.97,29.19,172.65,37.69,171.78,45.68z M119.63,297.21c-1.72-1.03-2.57-2.81-4.62-2.61c-0.3-1.81,0.11-3.01,1-4.22
		c6.7-9.08,7.12-12.71-0.81-0.8c-1.39-9.28-2.3-6.52-3.01-7.03c-1.29-0.93-2.23-2.43-3.62-3.22c-0.2,0.6,0.2,1,1.11,1.31
		c1.11,1.51,2.21,3.01,3.42,4.52c0.3,3.12,0.9,6.23-1.11,9.25c0.1,0.4,0.09,0.81,0.2,1.31c0.09,0.4,0.3,0.9,0,1.31
		c-0.14,0-0.54,0.16-0.6,0.1c-5.12-3.66-4.12-3.11-9.25-5.23c-1.2,0.3-3.48,0.83-2.31,1.21c3.01,0.7,11.28,4.93,12.16,7.64
		c0.62,1.9,1.44,3.71,1.71,5.73c3.23,24.32,22.74,68.55,23.31,77.08c0.12,1.84,0.78,9.61,2.31,12.66
		c1.32,2.64-1.75,15.44-2.51,18.29c-0.65,2.41-2.23,1.03-3.62,4.32c-6.71,15.94-6.52,16.07-8.74,17.18
		c-1.65,5.58-5.53,27.04-11.76,40.4c-3.61,7.74-5.89,15.99-8.14,24.22c-0.99,3.62-0.99,7.44-1.51,11.15
		c-1.57,11.3,1.67,3.32-8.24,11.05c-2.18,1.7-8.64,1.5-9.35,8.74c-0.44,4.5-3.44,3.84-7.34,1.51c-0.1-1.21-0.2-2.51-0.3-3.92
		c1.21-0.9,1.6-2.21,1.81-3.62c0.48-3.22,1.51-6.33,1.21-9.65c0-2.38,1.6-2.68,0.5-7.44c0.3-0.6,0.5-1.31,0.8-1.91
		c-1.36-3.18-0.71-2.1,0-3.52c-1.27-0.84-1.51,0.81-1.51-15.07c0-7.6-2.24-19.41,0-32.56c7.62-44.76,47.15-17-19.79-128.83
		c-4.51-7.53-2.66-6.62-7.54-15.68c4.05-6.08,6.57-15.5,31.65-20.2c8.83-1.65,10.8,0.85,11.96-0.3c0.1-0.3,0-0.5-0.3-0.6
		c-12.2-3.05-17.86-0.38-25.93,1.81c-6.06,1.65-10.76,5.24-14.87,10.05c-4.02,4.71-2.78,9.73-5.33,4.62
		c-8.01-16.06-10.17-20.64-10.25-26.63c-0.04-2.76-2.4-9.68,0.4-18.69c4.6-14.78,6.97-23.05,17.39-31.76
		c7.13-5.35-2.63,2.78,0.9,14.07c1.42,4.52,4.12,7.94,8.44,10.25c8.64,4.62,17.78,7.81,27.64,8.24c9.07,0.39,7.76,1.21,9.35,1.21
		c13.43,0,10.17,2,22.15-1.27c1.98-0.42,2.62-2.58,5.99-4.16c14-6.55,18.86-12.85,21.51-14.57c3.01,2.41,5.83,4.92,7.44,8.74
		c-3.17,2.85-34.06,26.38-40.4,44.02C120.97,296.45,119.84,297.05,119.63,297.21z M227.46,432.27c3.21-4.37,5.18-2.95,7.34-2.41
		c0.2,2.78,2.42,4.55,3.32,7.24c-0.41,1.66-6.17,2.11-8.25,9.68c-0.61,2.21,4.09-4.82,9.76-7.37c1.13,0.61,1.86,0.95,3.42,1.81
		c-5.07,1.86-8.23,4.72-7.94,10.05c1.81-0.73,1.37-3.07,5.83-6.23c1.11-0.79,2.51-1.31,3.22-2.51c1.12,0.46,1.65,1.28,2.43,2.44
		c0.53,0.78-2.07,1.67-3.03,2.38c-2.53,1.85-2.62,2.96-2.91,5.93c2.61-2.71,5.33-4.72,8.84-5.83c8.48,8.48,9.17,6.26,12.76,9.85
		c1.58,1.58,9.65,7.52,9.65,9.85c-3.53,2.42-3.52,2.42-4.52,4.42c0.86,0.12,4.43-3.51,4.55-1.99c0.32,4.1-3.3,4.09-4.95,6.41
		c-2.39,0.67-8.7,1.75-12.06,1.41c-13.01-1.34-2.23,0.84-13.06-2.11c-0.2-0.7-0.4-1.21-0.6-1.81c-2.51-1.71-5.23-3.12-7.54-5.33
		c-1.26-5.02-4.35-6.48-7.24-5.63c-7.17,2.11-21.83,0.47-25.73-3.22c-0.76-1.63-1.05-4.67-0.95-4.81
		c6.42-11.73,1.45-4.97,4.07-21.01c1.74-2.09,1.88-2.06,3.01-2.91c0.7,0.8,0.79,1.71,0.8,2.61c0.04,2.04,2.12,12.54,6.33,11.15
		c11.38-3.73,13.53-4.04,13.46-8.48C227.43,434.69,227.29,433.33,227.46,432.27z M223.14,332.78c3.07,14.97,1.85,32.6,3.72,42.91
		c0.31,1.69-1.76,25.44-1,37.68c1.33,21.5,1.29,12.97-0.57,18.92c-1.03,3.3,0.19,4.68-0.18,5.47c-0.7,1.48-3.69,1.8-6.28,3.55
		c-1.92,1.29-3.92,1.41-6.13,1.21c-4.27-6.94-0.88-10.8-7.03-28.64c-15.23-44.14-14.36-21.08-11.86-55.87
		c0.41-5.66-1.01-4.2-0.12-5.88c1.05-3.14-7.32-6.15-7.32-9.09c-0.1-0.7-0.9-1-1.41-1.51c-5.09-4.59-5.69-5.76-10.05-8.14
		c-11.56-6.33-20.46-9.04-27.03-13.97c-6.58-4.94-16.13-10.56-25.63-18.89c-2.41-2.41-2.58-3.59,24.42-32.86
		c5.35-5.8,6.61-8.5,11.15-10.45c2.91-1.25,2.74-3.12,5.02-3.12c1.49,0.21,5.31,6.93,10.35,11.36c1.28,2.74-0.38,3.81,1.91,7.84
		c5.91,10.37,8.83,11.39,8.54,15.38c-0.13,1.87,1.47,4.59,1.31,6.93c-0.11,1.61,0.5,2.91,1.61,4.12c0.4-0.2,0.8-0.3,1-0.5
		c6.39-5.59,4.14-9.1,3.82-11.96c3.69,4.27,6.72,8.83,7.54,14.37C206.79,306.1,202.66,313.42,223.14,332.78z M204.64,299.52
		c-0.29-1.31-0.8-2.71-0.4-4.22c2.12,3.97,0.66,4.05,1.81,7.84c0.35,1.17-0.05,1.98-0.9,2.41c-1.21-0.3-1.11-1.4-1.41-2.4
		C203.74,302.98,205.31,302.51,204.64,299.52z M203.57,293.16c0.03-0.21,0.07-0.44,0.07-0.77
		C203.84,293.39,203.46,293.86,203.57,293.16z M203.04,288.47c0,0.7,0.03,0.6-0.1,0.6C202.94,288.87,202.94,288.67,203.04,288.47z
		 M198.25,275.6c-0.62,1.75,0.56,3.35,0.76,5.12c-2.01-1-2.71-3.32-4.42-5.02c-2.26,2.26,7.13,7.31,7.13,15.39
		c0,5.55,3.44,11.72,0.1,10.05c-1.25-0.63-1.5-1.67-2.11-5.33c-0.99-5.98-7.86-15.38-10.55-15.38c-2.29,0.91,1,2.08,1,10.78
		c0,2.95-1.06,3.71-3.21,6.21c-0.55-0.28-0.4-0.37-0.4-2.61c-0.1-1.61-0.9-3.12-1-4.72c-0.39-6.31-0.06-5.67-5.83-13.37
		c-4.96-6.61-4.55-4.99-4.36-9.74c0.07-1.76-0.54-3.47-0.36-5.24c0-1.21-0.41-2.23-1.61-3.12c-0.31,1.48,1.2,2.82,0.1,4.32
		c-4.3-3.92-13.79-18.07-16.76-22.62c-0.5-0.76,2.1-1.09,7.22-9.84c3.2-5.47,2.89-7.38,5.43-6.43
		C180.22,261.67,199.34,272.55,198.25,275.6z M249.56,264.51c-0.81-0.28-0.25-0.39,0-0.47C249.56,264.2,249.56,264.35,249.56,264.51
		z M250.77,265.2c-0.39-0.05-0.79-0.09-1.05-0.55c0.3,0,1.01,0,1.25,0C250.97,265.34,251.04,265.24,250.77,265.2z M261.62,278.42
		c-0.26-0.13-0.25-0.07,0-0.2V278.42z M251.08,265.28c0.4-0.26,0.52-0.52-0.05-0.71c-0.33-0.79-1.19-0.72-0.87-0.72
		c-4.96-5.51-11.61,0.77-27.13-20.4c0.07-0.64,0.36-0.8,0.82-0.74c-4.19-7.49-27.59-20.06-31.78-26.5
		c-13.6-20.92-13.05-21.76-17.98-17.58c-6.86,5.82-6.89,4.82-19.6,4.82c-7.51,0-13.51-1.31-19.6-7.13
		c-7.5-7.18-8.13-9.74-9.75-11.05c-5.86-4.79-3.36-26.52,6.43-41.2c6.03-9.05,25.81-19.16,44.92-7.44
		c5.36,3.29,8.06,4.87,11.15,5.83c6.29,1.95,5.36,3.99,8.74,6.13c8.37,5.3,17.47,15.37,20,20c1.28,1.6,3.2,34.78,21.71,50.55
		c0,4.23,5.85,1.79,15.48,14.27c2.18,2.83,2.97,3.3,4.82,6.83c8.07,15.4,12.64,16.92,14.67,21.3c1.3,2.82,3.87,4.67,6.03,6.73
		c0.45,0.43,1.21,0.58,2,0.88c0.57,0.22,0.58-0.25,1.12-0.78c2.11,0,2.01,2.21,3.32,3.52c1.44,0.86,2.14,1.19,2.51,2.31
		c3.17,11.73,5.46,11.64,3.92,13.57c-1.19-0.59-2.49-0.99-3.72-2.31c-3.17-3.42-6.48-2.22-11.56-3.12
		c-3.46-0.61-1.87-1.55-6.33-4.22c-3.99-2.39-5.49-2.88-6.83-4.72C261.7,270.55,251.39,266.4,251.08,265.28z M268.26,287.66
		c0.7-1.41,0.7-1.41,2.21-1C269.96,287.66,269.36,288.07,268.26,287.66z M270.67,289.47c0.4-1.21,1-1.51,1.91-1.61
		C274.44,288.24,272.83,290.97,270.67,289.47z M280.31,293.09c0.63-0.54,1.14-0.39,1.61,0.3
		C281.32,293.29,280.82,293.19,280.31,293.09z M263.43,279.22c3.22-1.38,5.66,0.2,8.34,2.81c6.12,5.97,8.88-0.05,16.75,5.49
		c4.13,2.91,2.93,1.38-1.97,6.28C283.55,291.19,267.14,283.55,263.43,279.22z M294.79,298.72c0.13-0.26,0.07-0.25,0.2,0H294.79z
		 M290.46,298.92c-0.7-0.3-0.29-1.07-0.51-1.64c-0.27-0.7-1.48-0.51-1.8-2.08c2.04-2.95,4.68-5.26,7.24-2.71
		C294.58,294.8,293.08,296.71,290.46,298.92z M296.29,297.41c-0.48-0.81-0.12-1.1,0.8-1.51C297.5,297.01,297.3,297.41,296.29,297.41
		z M298.83,299.59c-0.7,0.18-0.94-0.81-0.22-0.97C299.35,298.8,299.37,299.41,298.83,299.59z M300.11,300.73
		c1.62,0.41,1.59,0.39,2.91,1.71C301.82,302.54,301.02,301.83,300.11,300.73z M319.42,314.21c-0.22-0.1-0.36-0.62-0.41-0.72
		c0.57,0,0.49-0.47,0.74,0.35C319.84,314.15,319.55,314.28,319.42,314.21z"/> <path d="M199.02,51.39c0,0.04,0,0.08,0,0.12C199.15,51.38,199.14,51.42,199.02,51.39z"/> <path d="M539.38,562.41c-0.9,0.8-1,1.41-1.41,3.32c0.84,0.56,0.39-0.01,3.72-2.01c7.29-3.82,7.35-4.16,7.64-5.13
		C548.33,555.59,541.58,560.11,539.38,562.41z"/> <path d="M114.4,550.05c-6.96,2.4-10.56,7.58-8.64,8.54c0.9-0.2,1.21-1.21,2.11-1.61c1.86-0.83,6.14-3.34,7.64-4.22
		C117.38,551.82,116.94,549.79,114.4,550.05z"/> <path d="M114.5,557.08c-4.82,2.07-5.71,6.31-4.92,5.53c5.36-2.38,6.63-2.94,7.44-3.62C118.25,557.96,117.8,555.67,114.5,557.08z"/> <path d="M548.93,563.91c-4.03,0.73-7.18,4.42-7.03,6.83c1.75-1.88,4.17-2.22,6.83-3.72C550.8,565.86,550.38,564.33,548.93,563.91z"/> <path d="M115.31,563.01c0.9,1.11,2.01,0.1,2.91,0.1c0.7,0.1,1.31-0.4,1.41-1.51C117.62,560.8,117.42,560.8,115.31,563.01z"/> <path d="M547.82,570.65c1.81,0.2,3.42,0.5,4.52-1.41c-0.3-0.3-0.5-0.6-0.8-0.7C550.52,568.28,548.27,569.09,547.82,570.65z"/> <path d="M201.13,143.06c0.09,0.35,0.33,0.54,0.66,0.58c-0.08-0.24-0.22-0.4-0.44-0.5c0.1-0.1,0.12-0.09-0.03-0.09
		C201.32,143.16,201.4,143.13,201.13,143.06z"/> <path d="M201.83,143.76l0.1-0.1C201.73,143.66,201.79,143.57,201.83,143.76z"/> <path d="M202.13,144.06c-0.52-0.52-0.2-0.24-0.2-0.1C201.93,144.06,202.03,144.06,202.13,144.06z"/> <path d="M621.08,173.91l-0.1,0.1C621.06,174.03,621.08,174.11,621.08,173.91z"/> <path d="M634.14,39.95c-0.16,0-0.1-0.06-0.1,0.1L634.14,39.95z"/> <path d="M624.2,63.87c0.12,0,0.1,0.06,0.1-0.1L624.2,63.87z"/> <path d="M623.59,54.83c0.13-0.13,0.12-0.08,0-0.12C623.59,54.75,623.59,54.79,623.59,54.83z"/> <path d="M620.08,56.84c0.03-0.03,0.07-0.07,0.1-0.1C619.97,56.76,619.88,56.63,620.08,56.84z"/> <path d="M615.86,40.05l0.1-0.1C615.81,39.9,615.76,39.77,615.86,40.05z"/> <path d="M610.23,52.61c0.16,0.03,0.14,0.11,0.1-0.1L610.23,52.61z"/> <path d="M700.57,478.3l0.1,0.1C700.67,478.25,700.7,478.21,700.57,478.3z"/> <path d="M605.81,58.34l0.1-0.1C605.74,58.13,605.83,58.2,605.81,58.34z"/> <path d="M195.6,53.52l0.1-0.1C195.51,53.45,195.4,53.32,195.6,53.52z"/> <path d="M191.28,36.84l0.1-0.1C191.24,36.68,191.19,36.56,191.28,36.84z"/> <path d="M209.47,36.84l0.1-0.1C209.41,36.74,209.47,36.68,209.47,36.84z"/> <path d="M185.85,49.2l-0.1,0.1C185.94,49.35,185.85,49.35,185.85,49.2z"/> <path d="M199.92,60.55l-0.1,0.1C199.94,60.65,199.92,60.71,199.92,60.55z"/> <path d="M186.66,29.4l0.1,0.1C186.86,29.4,186.87,29.47,186.66,29.4z"/> <path d="M181.63,55.03c-0.17-0.11-0.07-0.04-0.1,0.1L181.63,55.03z"/> <path d="M292.11,300.14c-0.11,0.23,0.35-0.02,0.01-0.02L292.11,300.14z"/> <path d="M500.59,271.88c17.04,3.22,14.34,3.93,17.39,3.93C516.84,272.21,475.91,267.21,500.59,271.88z"/> <path d="M487.58,267.94c0.7-0.78,0.9-1.71,1.87-2.08c1.8-0.14,4,1.87,5.98,1.51c0.05,0,0.07,0.03-0.01-0.09
		c-0.51-0.78-1.43-0.81-2.25-1.02c-3.95-1.97-3.97,0.81-1-7.24c0-0.41-0.64-0.4-1.07,0.11c-1.18,1.43-1.49,4.48-3.26,5.37
		C488.12,265.85,486.38,269.26,487.58,267.94z"/> <path d="M487.77,264.53C487.77,264.53,487.77,264.53,487.77,264.53C487.83,264.56,487.84,264.55,487.77,264.53z"/> <path d="M487.76,264.52C487.32,264.36,487.24,264.38,487.76,264.52L487.76,264.52z"/> <path d="M487.76,264.52c0.01,0,0.01,0,0.02,0.01C487.87,264.48,487.87,264.42,487.76,264.52z"/> <path d="M525.51,442.42c-1.71,2.51-1.91,5.33-2.11,8.34c0.51-0.65,0.95-1.31,1-1.41C526.02,444.8,528.81,442.42,525.51,442.42z"/> <path d="M551.94,448.05c-1.75,5.1-0.11,9.23,0.7,7.94c0.77-1.22,0.4-2.71,0.4-4.02C553.05,450.66,552.95,449.25,551.94,448.05z"/> <path d="M516.57,277.21c0.15,0.45-0.8,0.01,11.96,4.02c0.45,0.09,0.83,0.1,1.28,0.1C529.55,279.87,518.36,277.06,516.57,277.21z"/> <path d="M529.81,281.33c0,0.03,0.03,0.06,0.03,0.1C529.96,281.31,529.97,281.33,529.81,281.33z"/> <path d="M532.05,278.52c1.16,0.63,2.17,0.89,3.42,0.4c-2-0.21-4.79-3.15-10.15-3.42C526.16,276.67,530.17,277.5,532.05,278.52z"/> <path d="M552.34,414.79c-2.41,0.66-0.96,4.8,0.6,7.03C553.15,419.33,553.55,416.99,552.34,414.79z"/> <path d="M548.53,290.78c1.63,0.23,1.96-3.27,1.41-4.92C548.15,288.05,548.05,288.73,548.53,290.78z"/> <path d="M560.48,395.99c-1,1.1-1.19,2.25-0.9,3.12C559.58,400.45,562.08,400.01,560.48,395.99z"/> <path d="M538.38,280.03c-0.41-0.29-0.46-0.64-1-0.1c2.16,0,0.85,1.2,6.13,1.81C542.05,280.55,540.38,279.93,538.38,280.03z"/> <path d="M557.87,284.25l-0.1-0.1C557.77,284.4,557.65,284.47,557.87,284.25z"/> <path d="M557.74,284.39v-0.01C552.16,289.96,557.38,287.22,557.74,284.39z"/> <path d="M490.52,293.98c0.11,0-0.23-1.91-1.89-4.01C488.63,291.97,488.73,293.38,490.52,293.98z"/> <path d="M520.29,457.39c1.11-0.6,1.51-1.31,1.21-2.51C520.39,455.48,519.89,456.09,520.29,457.39z"/> <path d="M549.03,439c-0.32,1.7-0.25,1.73,0.6,2.21C550.03,440.41,550.13,439.71,549.03,439z"/> <path d="M549.13,434.68c-0.58,0.91-0.51,1.74,0.1,2.61C550.16,436.05,550.53,434.33,549.13,434.68z"/> <path d="M553.34,283.03c-1.06,0.52-1.12,0.62-1.3,1.72c0.93-0.4,1.57-0.9,1.7-1.87C553.74,282.82,553.4,283,553.34,283.03z"/> <path d="M487.57,280.8c-0.49-1.74-0.84,0.93,0.17,1.94C487.58,282.21,487.76,281.5,487.57,280.8z"/> <path d="M514.76,506.53c0.5-0.7,0.8-1.41,0-2.11C514.26,505.13,513.96,505.83,514.76,506.53z"/> <path d="M514.86,277.01c0.42,0,1.8,0.1,1.81,0.1C515.98,276.55,515.55,276.67,514.86,277.01z"/> <path d="M499.18,268.17c-0.7,0-1.21,0-1.61,0C498.38,268.57,498.38,268.57,499.18,268.17z"/> <path d="M497.42,268.07c-0.55-1.01-1.44-0.6-2.06-0.6C495.92,268.3,496.66,268.09,497.42,268.07z"/> <path d="M497.42,268.07c0.02,0.04,0.04,0.06,0.06,0.1C497.6,268.04,497.62,268.07,497.42,268.07z"/> <path d="M551.34,444.93c0.21-0.11,0.3-0.2,0-0.8C550.94,444.33,550.94,444.63,551.34,444.93z"/> <path d="M558.88,389.26c0-0.4-0.4-0.2-0.4-0.1C558.66,389.54,558.63,389.26,558.88,389.26z"/> <path d="M557.67,385.54c0.36-0.36-0.25-0.74-0.29-0.32C557.38,385.49,557.43,385.66,557.67,385.54z"/> <path d="M487.77,282.91c-0.36-0.19,0.16,0.13,0.16,0.82C488.37,283.3,488.11,283.09,487.77,282.91z"/> <path d="M549.93,279.72c-0.15,0.15-0.36,0.25,0,0.6C549.93,280.22,550.16,279.95,549.93,279.72z"/> <path d="M518.58,276.21c0-0.19-0.22-0.42-0.7-0.3C518.08,276.11,518.18,276.41,518.58,276.21z"/> <path d="M486.62,276.51v0.2C486.75,276.46,486.75,276.51,486.62,276.51z"/> <path d="M490.64,294.14c0-0.02,0-0.04,0-0.04C490.47,294.27,490.64,294.19,490.64,294.14z"/> <path d="M490.75,294.51c0.21,0.34,0.4,0,0.6,0.38C491.36,294.26,490.36,293.87,490.75,294.51z"/> <path d="M558.45,283.82c-0.15,0.15-0.3,0.3-0.48,0.42C558.16,284.19,558.31,284.03,558.45,283.82z"/> <path d="M558.77,283.54l-0.03-0.04C560.39,281.85,557.56,284.35,558.77,283.54z"/> <path d="M541.09,287.06c-0.04-0.04-0.07-0.07-0.1-0.1C541.02,287.01,541.04,287.06,541.09,287.06z"/> <path d="M540.89,286.86c0,0,0.04,0.04,0.1,0.1C540.97,286.91,540.94,286.86,540.89,286.86z"/> <path d="M555.16,287.76c-0.49,0-0.65,0.23-0.61,0.68C554.55,288.55,555.16,288.53,555.16,287.76z"/> <path d="M554.56,288.47c-0.04,0-0.06,0.01-0.1,0C554.57,288.59,554.56,288.6,554.56,288.47z"/> <path d="M560.89,281.43c0-0.04,0-0.06,0-0.1C560.76,281.33,560.75,281.3,560.89,281.43z"/> <path d="M529.83,281.53c0.1,0,0.1,0.1,0.2,0.2C530.47,281.73,530.12,281.39,529.83,281.53z"/> <path d="M555.05,281.64c-0.05,0.05-0.11,0.11-0.21,0.21C554.27,282.43,554.89,281.99,555.05,281.64z"/> <path d="M555.97,281.12c-0.71-0.29-0.6,0.38-0.81,0.21C555.02,281.94,554.8,281.51,555.97,281.12z"/> <path d="M560.18,282.14c0.17-0.17,0.51-0.66,0.6-0.8C559.97,282.14,560.02,281.97,560.18,282.14z"/> <path d="M553.89,282.64c-0.34,0.59,0.25,0.06,0.33-0.05C554.58,282.12,554.09,282.35,553.89,282.64z"/> <path d="M554.4,282.19c-0.1-0.1-0.04-0.06-0.07,0.1C554.46,282.22,554.51,282.29,554.4,282.19z"/> <path d="M560.08,282.14c-0.33,0.23-0.54,0.48-0.7,0.8c0.3-0.2,0.5-0.5,0.8-0.7L560.08,282.14z"/> <path d="M643.63,72.94c1.18-1.45-1.9-0.88-2.44-2.65c0.38-0.75,0.47-1.17-0.2-1.81c-1.41-1.34-13.03-11.24-14.11-11.13
		c0.01-0.05-0.01-0.07-0.18,0.09c0.09,0,0.06,0.01,0.1-0.07c0,0.01,0,0.02,0.01,0.03c0,0.01-0.02,0.02-0.02,0.03
		c-0.29,1.16-0.11,0.84-0.67,1.4C626.96,62.2,641.67,75.34,643.63,72.94z"/> <path d="M647.51,47.49c15.7,11.39,14.87,17.38,15.88,13.37c0.94,1.04,1,2.41,2.51,3.42c2.35-3.02-11.78-21.23-14.47-20.8
		c-0.3,1.32,0.91,0.35,7.64,10.04c3.51,5.05-3.36-1.79-8.24-5.05C645.89,45.16,645.86,46.29,647.51,47.49z M661.38,57.64
		c0,0.12-0.06,0.15-0.15-0.06C661.25,57.59,661.26,57.58,661.38,57.64z M659.8,55.44c0.89,0.28,1.27,1.02,1.27,1.92
		C659.87,56.57,659.67,55.44,659.8,55.44z"/> <path d="M646.4,46.28c0.19,0,0.1,0.02,0.1-0.1C646.47,46.22,646.43,46.25,646.4,46.28z"/> <path d="M637.27,50.41c0.01,0.01,0.04,0.05,0.06,0.07c-0.01-0.01-0.01-0.02-0.01-0.04C637.3,50.43,637.28,50.41,637.27,50.41z"/> <path d="M658.16,88.79c-4.72-3.29-5.99-3.13-7.94-2.91c-1.7,0.19-8.04,1.19-8.04,2.91c11.07,0,5.51-3.35,16.68,3.22
		c0.6,0.3,1.31,0.6,2.01-0.4C660.37,90.2,659.28,89.57,658.16,88.79z"/> <path d="M639.18,47.53c2.95,2.96,11.93,8,19.19,13.84c0.3,0.2,0.7,0.1,1.41,0.3C657.79,56.04,636.28,44.63,639.18,47.53z"/> <path d="M656.05,94.02c-6.84,0.94-8.69-1.9-10.75-0.3c5.12,2.09,3.65,4.25,9.55,3.52c0.59-0.99,2.36-0.81,2.89-2.26
		C657.85,94.75,657.38,93.83,656.05,94.02z"/> <path d="M629.09,53.31c0.3,0.33,0.45,0.48,0.5,0.55C629.5,53.6,629.33,53.42,629.09,53.31z"/> <path d="M629.52,53.92c0.92,2.14,8.61,8.17,12.06,10.25c0.9,0.54,1.15,0.31,1.41-0.2c-0.41-0.81,1.65,0.85-11.86-9.55
		c-0.47-0.28-0.95-0.55-1.51-0.5c0,0,0-0.01-0.01-0.01C629.61,53.93,629.58,53.92,629.52,53.92z"/> <path d="M629.59,53.86c0.01,0.02,0.02,0.03,0.03,0.05C629.62,53.9,629.61,53.89,629.59,53.86z"/> <path d="M632.44,49L632.44,49c0.02,0.01,0.01-0.03,0.08-0.1c-0.02,0-0.16,0-0.18,0c0.02,0.02,0.03,0.03,0.04,0.04
		C632.3,48.86,632.32,48.94,632.44,49z"/> <path d="M644.39,59.95c0.15-1.22-11.22-8.81-12.02-10.97c-0.1,0-2.09-0.8-2-0.62c3.61,4.79,8.16,8.39,13.02,11.71
		C643.69,60.26,644.09,60.25,644.39,59.95z"/> <path d="M616.76,147.28c1.71,0,0.23-2.5-8.94-2.81C608.3,145.91,615.35,147.03,616.76,147.28z"/> <path d="M613.44,104.87c-0.61,2.15-0.8,1.89-0.1,6.33C613.94,115,616.33,109.37,613.44,104.87z"/> <path d="M609.73,131.8c-1.11,2.01-1.31,3.92-0.8,5.83C610.41,139.12,609.86,133.98,609.73,131.8z"/> <path d="M616.26,39.85c0.95,1.9,0.97,2.01,3.32,3.32C618.37,42.16,617.87,40.46,616.26,39.85z"/> <path d="M637.96,42.06c2.23,1.59,2.04,1.54,3.82,1.81C640.78,42.46,639.47,42.16,637.96,42.06z"/> <path d="M598.17,104.57c-1.21,0.8-1.21,0.8-0.4,2.21C598.27,106.28,598.37,105.57,598.17,104.57z"/> <path d="M602.39,143.26c0.2,0.1,0.4-0.1,0.3-0.4C602.14,142.3,601.89,143.01,602.39,143.26z"/> <path d="M609.73,114.62c0.22,0,0-0.28,0-0.5C609.31,114.53,609.49,114.73,609.73,114.62z"/> <path d="M636.03,50.5c0,0-0.01-0.01-0.01-0.02c-0.02-0.03-0.06-0.05-0.08-0.08C635.82,50.54,635.81,50.5,636.03,50.5z"/> <path d="M634.74,49.5c0.36,0.09-0.2-0.15-0.33-0.23C633.24,48.65,634.14,49.39,634.74,49.5z"/> <path d="M632.52,48.9c0.17,0,1.25,0,1.43,0C633.43,48.55,632.86,48.38,632.52,48.9z"/> <path d="M646.36,46.08c-0.24-0.57-0.88-0.41-1.37-0.5C645.27,45.72,645.64,46.08,646.36,46.08z"/> <path d="M646.51,46.08c-0.2,0.04-0.14-0.08-0.1,0.1L646.51,46.08z"/> <path d="M635.77,40.46c0.02,0.03,0.06,0.06,0.09,0.1C635.98,40.42,636,40.46,635.77,40.46z"/> <path d="M634.45,39.95c0.32,0.43,0.78,0.5,1.32,0.5C635.37,39.91,634.91,39.95,634.45,39.95z"/> <path d="M607.92,144.36c-0.19-0.06-0.38-0.29-0.59-0.34C607.06,143.95,606.27,144.36,607.92,144.36z"/> <path d="M621.88,174.01c-0.27-0.55-0.17-1.14-0.31-0.53C621.51,173.73,621.7,173.83,621.88,174.01z"/> <path d="M650.63,42.67c0,0.47,0.31,0.7,0.7,0.7C651.33,42.97,651.1,42.67,650.63,42.67z"/> <path d="M650.73,42.57c-0.03-0.03-0.07-0.06-0.11-0.08C650.64,42.53,650.67,42.57,650.73,42.57z"/> <path d="M650.52,42.36c-0.39,0-0.12,0.01,0.09,0.12C650.59,42.45,650.57,42.41,650.52,42.36z"/> <path d="M628.43,41.48c0.52,0.52,0.33,0.33,0.49,0.48c-0.11,0.2,1.45,1.87,5.53,5.63c0.81,0.75,2.4,1.93,2.87,2.86
		c0.02,0.02,0.04,0.05,0.04,0.06c0,0-0.01-0.02-0.02-0.03c0.06,0.12,0.1,0.24,0.11,0.35c0,0.41-0.18,0.32-0.18-0.43
		c-0.41,0.08-0.82,0.08-1.23,0.08c0.59,0.8,1.49,0.44,1.23,0.7c0.34-0.34-0.28,0.43,1.71,1.61c14.27,8.5,13.04,8.66,13.57,8.14
		c0.49-1.37-5.63-3.79-12.06-9.65c-6.09-5.54-11.34-9.66-11.56-9.33C628.83,41.73,628.64,41.57,628.43,41.48z"/> <path d="M628.23,41.26c-0.13-0.13-0.13-0.15-0.03,0.03l-0.08,0.07C628.52,41.49,628.51,41.55,628.23,41.26z"/> <path d="M636,40.61c0.14,0.04,0.07,0.01-0.03-0.03C635.77,40.51,635.93,40.56,636,40.61z"/> <path d="M645.1,45.48l-0.1-0.1C645,45.63,644.96,45.61,645.1,45.48z"/> <path d="M605,60.85c0.02,0.08,0.11,0.34,0.18,0.4C605.28,61.41,606.46,62.31,605,60.85z"/> <path d="M628.22,52.51C628.22,52.51,628.22,52.51,628.22,52.51c0.01,0.01,0.16,0.16,0.6,0.6l0.1-0.1
		C628.67,52.89,628.25,52.51,628.22,52.51c0.11-0.1,0.27-0.05-0.7-0.7C627.81,52.11,627.92,52.31,628.22,52.51z"/> <path d="M610.73,52.51c-0.1-0.1-0.2-0.1-0.3-0.2C610.43,52.41,610.53,52.51,610.73,52.51z"/> <path d="M627.51,51.81l0.1-0.1C627.36,51.71,627.38,51.68,627.51,51.81z"/> <path d="M635.25,49.6l-0.02,0.02c0.03-0.04-0.06-0.02-0.37-0.09c0.09,0.06,0.19,0.11,0.28,0.17c0.14,0.09,0.26,0.18,0.36,0.26
		C635.43,49.86,635.34,49.74,635.25,49.6z"/> <path d="M635.51,49.96C636.02,50.62,636.17,50.47,635.51,49.96L635.51,49.96z"/> <path d="M626.79,57.32c-0.05-0.38-0.32-0.49-0.68-0.58C626.25,57.18,626.51,57.25,626.79,57.32z"/> <path d="M623.89,54.62c0.16,0.16,0.3,0.32,0.3,0.1C624.1,54.67,624,54.62,623.89,54.62z"/> <path d="M628.82,53.22c0.36,0.09,0.3,0.2,0.09-0.1C628.86,53.18,628.88,53.15,628.82,53.22z"/> <path d="M573.28,179.38c2.35,0.88,11.18-9.72,7.31-22.26C580.58,174.47,570.91,178.5,573.28,179.38z"/> <path d="M583.3,263.33c0.07-0.19,0.1-0.45,0.1-0.79c-2.21,0-4.43-0.78-6.63-1.41c-0.69-0.2-3.72-0.44-3.72,0.7
		c0,0.66-1.1-0.33,7.44,1.81C581.02,263.78,583.09,263.92,583.3,263.33z"/> <path d="M521.09,167.78c-1.31,1.41-2.21,3.01-2.41,5.73c1.53-1.61,2.18-2.8,3.22-4.52C522.19,168.29,521.99,167.87,521.09,167.78z"/> <path d="M496.87,192.2c0.68-0.96-0.29-2.43-2.71,2.11C495.43,193.8,496.21,193.13,496.87,192.2z"/> <path d="M495.87,229.78c0.2,0.2-0.13,0.26,0.8,0.12c0.88-0.13,1.38-0.29,1.41-1.1C498.15,226.42,497,228.65,495.87,229.78z"/> <path d="M605.71,265.25c-0.75,1.61-0.82,1.66-0.5,2.71C606.11,267.36,606.41,266.66,605.71,265.25z"/> <path d="M512.85,234.81c0.7,0.9,1.61,1.11,2.71,0.6C514.66,234.5,513.86,234.4,512.85,234.81z"/> <path d="M576.46,147.08c0.6-1.21,0.6-1.21-0.9-1.91C575.16,146.17,575.66,146.67,576.46,147.08z"/> <path d="M577.87,149.39c-0.5,0.6-0.4,1.21,0.2,1.81C578.77,150.49,578.47,149.99,577.87,149.39z"/> <path d="M562.19,253.7c0.58,0.33,1.05,0.36,1.61,0C563.3,253.2,562.7,253.3,562.19,253.7z"/> <path d="M566.41,255c1.01,0.4,1,0.4,1.81,0C567.59,254.69,567.21,254.3,566.41,255z"/> <path d="M507.83,234.2c0.4,0.2,0.8,0.3,1.21-0.3C508.53,233.9,508.13,233.4,507.83,234.2z"/> <path d="M594.25,275.81c0.3-0.3,0.2-0.6-0.1-1.11C593.33,275.52,593.89,276.34,594.25,275.81z"/> <path d="M570.43,262.24c0,0.39-0.02,0.14,0.5,0.4c0-0.09,0.03-0.35,0.1-0.4C570.75,262.24,570.43,262.03,570.43,262.24z"/> <path d="M559.4,252.37c0.11,0.03,0.08,0.05,0.08-0.08C559.1,252.29,559.09,252.26,559.4,252.37z"/> <path d="M640.17,373.59c-0.4-0.2-0.8-0.3-1.51,0.4c-0.1,2.6,1.45,4.84,2.41,7.23C643.82,388.05,641.9,377.18,640.17,373.59z"/> <path d="M648.31,349.57c0.42-1.66-0.06-2.59-1-4.23c-1.31,0.5-1.51,0.6-1.51,1.11C646.1,347.86,646.71,349.06,648.31,349.57z"/> <path d="M643.09,333.39c-0.37,1.93-0.22,3.23,0.2,4.52C644.8,335.1,644.8,334.69,643.09,333.39z"/> <path d="M634.75,367.55c0.28,0.18,0.53,0.42,0.8,0.6C636.07,367.64,635.41,366.76,634.75,367.55z"/> <path d="M629.92,362.03c-0.14,0.14-0.16,0.4,0.1,0.4C630.23,362.23,630.07,362.03,629.92,362.03z"/> <path d="M631.23,364.14c0.13-0.04,0.06-0.02,0.3-0.1C631.28,363.78,631.36,363.75,631.23,364.14z"/> <path d="M679.77,462.52c5.42-3,5.31-3.9,3.62-5.33C680.75,458.07,677.78,461.42,679.77,462.52z"/> <path d="M684.29,465.83c1.31-1,3.22-1.11,4.02-2.81C687.76,459.63,682.34,464.61,684.29,465.83z"/> <path d="M662.58,454.18c-0.1,0.1-0.1,0.2-0.1,0.3C662.48,454.38,662.58,454.28,662.58,454.18z"/> <path d="M700.28,478.1c-0.32,0.04-0.21,0.24-0.01,0.49C700.27,478.76,700.78,478.02,700.28,478.1z"/> <path d="M821.26,375.49c2.18-1.49,5.73-1,5.73-11.46c0-1.21-0.59-2.77-1.86-2.88c-0.91-0.08-2.25,0.82-2.47,1.38
		c-0.5,1-1.51,1.11-2.51,2.01c-0.4,1.51-0.8,3.12-1.21,4.72C818.24,371.35,818.95,375.72,821.26,375.49z M822.97,367.76
		c0.3,1.41,0.3,1.41-0.8,1.51C822.06,368.56,822.57,368.16,822.97,367.76z M821.66,366.95c0.12,0.36,0.15,0.3-0.1,0.3L821.66,366.95
		z"/> <path d="M574.05,233.2c-7.5,4.77-6.92,4.45-6.93,4.62c0,0.39,3.43,0.1,7.44-3.72C574.79,233.75,574.42,233.41,574.05,233.2z"/> <path d="M578.98,246.35c-0.08-0.07-0.07-0.06-0.1-0.09C578.93,246.42,578.85,246.41,578.98,246.35z"/> <path d="M556.67,241.04c0.5,0.2,0.5,0.3,0.6,0.3c0.7,0.1,1.41,0.1,1.81-0.6c0.11-0.11-0.16-0.44-0.2-0.6
		C558.51,240.33,558.12,240.45,556.67,241.04z"/> <path d="M553.04,241.44c0.47-0.15,0.89-0.2,1-0.2C553.52,241.06,553.43,241.05,553.04,241.44z"/> <path d="M567.12,237.82c-0.3,0.2-0.6,0.2-0.9,0.3C566.72,238.52,567.02,238.42,567.12,237.82z"/> <path d="M552.24,241.64c0.5,0.4,0.7,0.2,0.8-0.3C552.85,241.54,552.55,241.54,552.24,241.64z"/> <path d="M549.34,243.05c0.35,0.2,0.61,0.17,0.89-0.21C550.04,242.94,549.22,243.05,549.34,243.05z"/> <path d="M579.08,246.36c0-0.21,0.3,0.06,0.3-0.3C579.15,245.95,579.08,246.11,579.08,246.36z"/> <path d="M550.34,242.95c0-0.2,0-0.2,0-0.3C550.34,242.64,550.23,242.74,550.34,242.95z"/> <path d="M608.82,29.3c-4.32,5.73-6.23,12.26-5.63,19.5c0.62-1.34,0.98-10.87,6.43-18.89C609.97,29.45,610.5,27.62,608.82,29.3z"/> <path d="M618.33,25.67c-0.25-0.8-0.94-0.82-2.07-1.1c0.83,0.64,1.23,1.21,1.94,1.21C618.38,25.78,618.4,25.81,618.33,25.67z"/> <path d="M611.94,34.83c-0.11,0.27-0.11,0.23-0.03,0.19C612.05,34.91,612.12,34.98,611.94,34.83z"/> <path d="M611.85,35.06c-0.39,0.32-0.34,0.88-0.41,1.28C611.54,35.91,611.61,35.66,611.85,35.06z"/> <path d="M613.34,32.72c0.01,0.05,0,0.1,0,0.15C613.46,32.79,613.48,32.85,613.34,32.72z"/> <path d="M611.21,32.11c0.04,0,0.08,0,0.12,0C611.23,32.01,611.21,31.97,611.21,32.11z"/> <path d="M611.2,32.11c-0.52,0-1.04,0.05-1.24,0.61C609.89,32.93,611.03,32.94,611.2,32.11z"/> <path d="M615.15,23.97c-0.1,0-0.2-0.1-0.3-0.1c-0.1,0-0.2,0.1-0.3,0.1C614.7,24.12,614.8,24.33,615.15,23.97z"/> <path d="M609.93,39.85l0.1-0.1C609.78,39.75,609.79,39.72,609.93,39.85z"/> <path d="M609.93,28.6c0.11,0,0.69,0.06,0.61-0.69C610.08,27.93,609.93,28.15,609.93,28.6z"/> <path d="M610.63,27.89l-0.1-0.1C610.57,27.95,610.48,27.89,610.63,27.89z"/> <path d="M610.83,27.39c0,0.2-0.1,0.3-0.2,0.5C610.83,27.79,611.32,27.98,610.83,27.39z"/> <path d="M611.16,36.59c-0.08,0.16,0.17-0.17,0.17-0.25C611.33,36.33,611.2,36.53,611.16,36.59z"/> <path d="M612.05,35.04c0.16-0.23,0.85-0.95,0.39-0.6C612.26,34.54,612.12,34.69,612.05,35.04z"/> <path d="M612.79,34.34c0.04,0,0.04-0.01,0.04-0.01c0,0,0,0,0,0c0,0,0,0,0,0c0,0,0.01,0,0-0.01c0.27-0.47,0.79-1.67,0.38-1.37
		c-0.42,0.3-0.38,0.82-0.38,1.36c-0.02-0.02-0.05-0.04-0.09-0.08C612.51,34.45,612.62,34.34,612.79,34.34z"/> <path d="M609.83,33.02c0.05-0.1,0.1-0.2,0.1-0.3C609.62,32.92,609.52,33.02,609.83,33.02z"/> <path d="M807.98,337.61c-0.29,0.15-0.44,0.35-0.48,0.59C807.41,338.78,807.98,339.83,807.98,337.61z"/> <path d="M607.82,59.65c0.2,0,0,0,0.1-0.1C607.16,59.06,606.6,58.44,607.82,59.65z"/> <path d="M606.31,58.14c0.49,0.34,0.46,0.3,0.56,0.37C606.64,58.26,606.46,58.18,606.31,58.14z"/> <path d="M607.21,58.74c-0.57-0.41-0.29-0.22-0.1,0.1L607.21,58.74z"/> <path d="M85.74,268.55c-5.15-2.95-18.62-5.8-24.2-5C78.41,266.27,87.63,269.63,85.74,268.55z"/> <path d="M93.2,434.88c-2.03,2.03-2.16,6.16-2.31,8.64c0.2-0.3,0.4-0.6,0.6-0.9C94.19,436.92,95.48,435.41,93.2,434.88z"/> <path d="M119.63,449.05c0.9-0.5,0.92-1.31,0.9-2.11c-0.05-2.11,0.2-4.42-1.21-6.43C118.46,443.12,117.96,446.88,119.63,449.05z"/> <path d="M56.92,258.32c0.24,0,0.84-0.1,1-0.1c-0.82-1.23-0.57-0.82,1.71-6.32c0-0.1-0.2-0.4-0.4-0.8
		c-2.11,1.71-1.91,4.82-4.22,6.23c0.63,0.96-0.3,1.87-0.28,2.87C54.76,261.67,55.82,258.87,56.92,258.32z"/> <path d="M94.2,272.39c-9.04-2.74-10.74-3.35-11.05-2.41c13.57,4.41,12.04,3.72,13.37,3.72C96.11,272.79,95.11,272.59,94.2,272.39z"/> <path d="M120.31,408.7c-0.16-1.39,0.1-0.44-0.98-1.75c-1.43,2.66-0.46,4.7,0.8,7.24C120.48,412.4,120.53,410.61,120.31,408.7z"/> <path d="M92.45,268.28c-1.31-0.01,5.77,2.01,8.59,3.71c0.7-0.3,1.21-0.6,1.81-0.4C99.69,270.11,96.73,268.31,92.45,268.28z"/> <path d="M115.81,283.44c1.81-1,2.03-1.66,1.51-5.33C115.53,280.28,115.35,281.72,115.81,283.44z"/> <path d="M58.05,258.3c-0.55,0.07,3.85,2.63,8.03,2.63C64.59,260.06,59.57,258.1,58.05,258.3z"/> <path d="M66.37,260.93c-0.35,0-0.39-0.04-0.1,0.1L66.37,260.93z"/> <path d="M56.32,283.35c0-0.1-0.89,2.4,2.15,4.31C59.4,288.25,56.89,284.23,56.32,283.35z"/> <path d="M127.47,388.76c-0.64,1.27-0.87,2.47-0.2,3.72C128.94,391.92,128.29,390.31,127.47,388.76z"/> <path d="M110.18,274.1c-2.01-1.31-2.01-1.31-4.72-1.51C108.17,274,108.27,274.1,110.18,274.1z"/> <path d="M119.23,277.51c1.71-1.14,2.22-2.12,3.23-3.13C119.83,275.71,119.83,275.71,119.23,277.51z"/> <path d="M117.32,427.15c-1.31,0.6-1.31,0.6-0.9,2.81C117.32,429.16,117.52,428.25,117.32,427.15z"/> <path d="M87.77,449.86c1.53-1.31,1.34-1.31,0.7-2.21C87.77,448.25,87.27,448.85,87.77,449.86z"/> <path d="M117.22,433.58c0-3.46-1.89-1.45-0.7,0.2C116.82,433.68,116.92,433.68,117.22,433.58z"/> <path d="M121.14,282.14c1.15-0.57,1.82-1.44,1.97-2.72C121.52,280.45,121.29,281.09,121.14,282.14z"/> <path d="M82.35,499.7c0.1-1.21,0.6-2.01-0.1-2.81C81.54,497.69,81.54,498.39,82.35,499.7z"/> <path d="M54.81,272.59c-0.4,1.21-0.5,1.91,0.4,2.41C55.01,274.4,54.91,273.7,54.81,272.59z"/> <path d="M117.32,272.09c-0.25,0.36-0.35,0.75,0,1C117.62,272.79,117.62,272.49,117.32,272.09z"/> <path d="M59.33,262.84c0.3,0.1,0.5,0.1,0.7,0.1C60.04,262.81,60.15,262.84,59.33,262.84z"/> <path d="M55.31,276.71c0.42-0.67,0.24-1.06-0.2-1.61C55.21,275.5,55.21,276.01,55.31,276.71z"/> <path d="M118.62,436.89c0,0.49-0.45,0.35,0,0.8C118.93,437.4,118.93,437.19,118.62,436.89z"/> <path d="M126.26,381.62c-0.2-0.3-0.3-0.3-0.5-0.1C126.16,381.92,125.94,381.62,126.26,381.62z"/> <path d="M125.16,377.9c0-0.98-0.49-0.18-0.2,0.11C124.96,378.01,125.06,377.9,125.16,377.9z"/> <path d="M96.56,273.79c-0.11,0,0.17,0.32,0.26,0.37C97.81,274.65,97.68,273.5,96.56,273.79z"/> <path d="M103.64,271.89c-0.17-0.06-0.63-0.15-0.73-0.16C103.09,271.8,103.35,272.05,103.64,271.89z"/> <path d="M66.39,261.04C66.63,261.28,66.49,261.04,66.39,261.04L66.39,261.04z"/> <path d="M126.76,275.81c-0.53,0.53-1.13,1.34,0.1,0.1C126.86,275.66,126.9,275.67,126.76,275.81z"/> <path d="M125.51,277.06c0.18-0.18,0.4-0.4,0.55-0.55C125.83,276.59,125.6,276.79,125.51,277.06z"/> <path d="M125.36,277.21c-0.13-0.13-0.09-0.14-0.12,0.04c0.16-0.04,0.08-0.09,0.22,0.06C125.46,277.06,125.62,276.95,125.36,277.21z
		"/> <path d="M124.65,277.92c0.36-0.09,0.54-0.27,0.58-0.66C124.92,277.36,124.74,277.55,124.65,277.92z"/> <path d="M122.69,274.29c0,0.01,0,0.03-0.01,0.05C123.92,272.98,122.69,274.13,122.69,274.29z"/> <path d="M122.68,274.34c-0.05,0.05-0.1,0.1-0.14,0.16C122.7,274.65,122.61,274.64,122.68,274.34z"/> <path d="M59.28,288.42c0.1-0.1,0.09,0-0.35-0.35c-0.75-0.6-0.27-0.2,0.09,0.17C59.27,288.49,59.18,288.52,59.28,288.42z"/> <path d="M59.33,288.47h-0.1C59.48,288.59,59.48,288.61,59.33,288.47z"/> <path d="M123.95,278.62c0.36,0,0.54-0.25,0.58-0.65C124.27,278.08,124.03,278.27,123.95,278.62z"/> <path d="M124.65,277.92l-0.1-0.1C124.55,278.04,124.47,277.96,124.65,277.92z"/> <path d="M108.58,279.22c0,0-0.1,0-0.3,0C108.37,279.22,108.47,279.32,108.58,279.22z"/> <path d="M123.11,279.41c0.15-0.09,0.14-0.08,0.17-0.19C123.18,279.22,123.11,279.19,123.11,279.41z"/> <path d="M123.28,279.22c0.4,0.02,0.57-0.25,0.57-0.7C123.58,278.7,123.39,278.89,123.28,279.22z"/> <path d="M218.8,69.5c-0.7-0.8-2.31-0.6-2.61-2.01c0.59-1.18,1.73-0.84-13.47-12.66c-0.15-0.15-0.73-0.2-0.94-0.2
		c-0.03,0.11-0.33,1.64-0.66,1.31C201.12,59.34,218.27,73.86,218.8,69.5z"/> <path d="M221.63,43.57l-0.1,0.1C221.72,43.63,221.63,43.74,221.63,43.57z"/> <path d="M234.89,52.51c-1.34,0-4.07-3.89-11.46-8.24c-1.27-0.85-3.51-1.32,0.56,1.6c13.97,10,13.38,16.28,14.55,12.45
		c0.16-0.53,1.23,2.51,2.45,3.03c1.58-4.75-12.22-21.16-14.47-20.8c-0.33,1.33,0.97,0.46,7.64,10.05c1.49,2.14,0.18,1.55,1.1,2.05
		c0.71,0.33,0.92,1.01,0.92,1.8C235.49,54,234.98,53.36,234.89,52.51z M236.39,54.67c0.06,0.03,0.11,0.05,0.11,0.05
		c0,0.18-0.07,0.1-0.14-0.06L236.39,54.67z"/> <path d="M204.02,39.25c-0.74,0,8.36,7.79,8.36,8.36c0.01,0,0.01,0,0.02,0l-0.01-0.01c0,0,0.01,0,0.02,0c0,0,0.01,0.01,0.01,0.01
		c0.7,0.04-1,0.96,1.67,2.39c14.1,8.87,13.05,8.65,13.56,8.14c0.46-1.39-5.65-3.82-12.06-9.65c-3.1-2.83-6.33-5.53-9.55-8.24
		C205.47,39.77,204.89,39.19,204.02,39.25z"/> <path d="M212.47,47.68c-0.02-0.03-0.03-0.05-0.05-0.07c-0.01,0-0.01,0-0.02,0L212.47,47.68z"/> <path d="M217.99,86c3.24-0.06,5.9-0.69,7.59-0.75c2.9-0.11,8.26,4.48,9.49,4.34c1.12-0.13,1.49-1.49-1.58-3.31
		c-3.69-2.19-6.86-5.45-15.5-0.97C216.47,86.09,216.47,86.03,217.99,86z"/> <path d="M214.39,44.47c-0.4,0.3,0.4,0.3-0.5,0.3c4.88,3.55,17.73,11.87,19.68,13.82c0.22,0.13,0.59,0.08,1.23,0.25
		C233.02,53.82,215.25,43.73,214.39,44.47z"/> <path d="M230.27,91.2c-5.46,0.44-7.19-1.08-8.72-0.88c-2.23,0.28-0.1,0.7,4.4,4.3c1.31,0,2.51,0.2,3.92-0.1
		c2.15-1.67,3.49-1.82,2.61-2.9C232.08,91.12,230.73,91.13,230.27,91.2z"/> <path d="M207.66,54.42c11.13,10.73,10.92,6.56,10.25,6.23C209.77,54.39,199.41,46.48,207.66,54.42z"/> <path d="M207.46,46.18l-0.1-0.1C207.39,46.19,207.41,46.16,207.46,46.18z"/> <path d="M219.52,56.84c-1.84-1.84-11.53-9.08-12.12-10.67c0.11,0-0.91-0.36-1.89-0.64c-1.73-0.69,9.58,10,13,11.71
		C218.81,57.44,219.32,57.64,219.52,56.84z"/> <path d="M150.68,228.17c-6.07,4.24-12.56,6.23-8.54,6.23C153.4,229.83,152.66,226.79,150.68,228.17z"/> <path d="M189.67,104.27c-0.11-1.08-0.27-1.72-1.51-1.91c-0.2,2.41,0.2,6.33,0.9,8.54C190.08,108.98,190.11,106.43,189.67,104.27z"/> <path d="M116.21,221.34c0,2.01,0.8,3.42,2.11,4.62C118.12,223.25,117.82,222.55,116.21,221.34z"/> <path d="M194.6,40.35c-1.17-0.97-1.68-2.62-3.19-3.25c-0.14-0.06-0.18-0.16-0.05,0.07C192.46,39.1,192.48,39.09,194.6,40.35z"/> <path d="M217.12,41.06c-1.21-1.31-2.51-1.81-4.02-1.81C215.32,40.9,215.34,40.86,217.12,41.06z"/> <path d="M167.46,215.61c-0.6,0.4-1.61,0.6-1.81,1.61C166.01,218.75,168.99,216.53,167.46,215.61z"/> <path d="M121.52,243.96c0.16,0.52,0.98-0.5,0.58-0.5C121.95,243.52,121.4,243.6,121.52,243.96z"/> <path d="M190.07,127.08c0.11,0.21,0.17,0.53,0.23,0.47c0.24-0.25,0.29-0.51-0.03-0.67C190.27,126.98,190.17,127.08,190.07,127.08z"/> <path d="M189.67,118.03c0.39-0.29,0.3-0.71,0-1.11C189.27,117.33,189.29,117.65,189.67,118.03z"/> <path d="M210.98,47.69c0.28,0.28,0.75,0.51,1.41,0.51C212.38,47.37,212.65,47.69,210.98,47.69z"/> <path d="M210.37,46.79c-0.02,0-0.36-0.06-0.37-0.07C210.31,46.93,210.27,46.89,210.37,46.79z"/> <path d="M210,46.72c-0.23-0.15-0.56-0.31-0.8-0.43C208.64,46.02,209.33,46.65,210,46.72z"/> <path d="M208.63,45.98c-0.51-0.41-0.81-0.29-1.18,0.2C208.56,45.95,208.97,46.24,208.63,45.98z"/> <path d="M208.97,46.08c-0.3,0-0.2-0.03-0.1,0.1L208.97,46.08z"/> <path d="M221.49,43.27c-0.24-0.57-0.88-0.41-1.37-0.5C220.7,43.2,221.07,43.27,221.49,43.27z"/> <path d="M221.53,43.37l0.1-0.1C221.43,43.31,221.48,43.19,221.53,43.37z"/> <path d="M209.92,37.12c-0.8-0.01,0.17,0.51,0.7,0.51C211.25,37.63,210.37,37.12,209.92,37.12z"/> <path d="M211.08,37.64c-0.29,0-0.16-0.02-0.1,0.1C211.01,37.71,211.04,37.68,211.08,37.64z"/> <path d="M140.73,234.3c-0.47,0.09-0.93,0.2-1.24,0.7C140.04,235.02,140.55,235.03,140.73,234.3z"/> <path d="M139.43,235.11c0.06-0.12,0.16-0.1-0.1-0.1L139.43,235.11z"/> <path d="M220.22,42.67l-0.2-0.1C220.15,42.82,220.09,42.8,220.22,42.67z"/> <path d="M118.22,225.96l0.2,0.1C118.3,225.94,118.35,225.96,118.22,225.96z"/> <path d="M226.45,40.56c0-0.38-0.23-0.7-0.71-0.7C225.75,40.25,225.95,40.56,226.45,40.56z"/> <path d="M210.97,47.68c0.02-0.02,0.09-0.07,0.11-0.09C209.44,45.96,210.88,47.56,210.97,47.68z"/> <path d="M225.74,39.67c0.03,0.04,0.06,0.08,0.11,0.08C225.82,39.72,225.78,39.7,225.74,39.67z"/> <path d="M225.74,39.67c-0.02-0.04-0.04-0.08-0.09-0.12C225.26,39.55,225.53,39.56,225.74,39.67z"/> <path d="M203.58,38.69c0,0,0.15,0.15,0.16,0.16C204.41,39.52,203.81,38.82,203.58,38.69z"/> <path d="M203.58,38.69c-0.3-0.3-0.17-0.17-0.34-0.34C203.24,38.68,203.18,38.45,203.58,38.69z"/> <path d="M139.33,235.01c0,0.1-0.1,0.1-0.1,0.2C139.33,235.21,139.33,235.11,139.33,235.01z"/> <path d="M199.82,60.96l-0.2-0.2C199.74,61,199.69,60.96,199.82,60.96z"/> <path d="M201.23,53.82l-0.2-0.1C201.15,53.97,201.1,53.95,201.23,53.82z"/> <path d="M199.24,52.01c0.11,0.06,0.16-0.2-0.22-0.2C199.12,51.91,199.19,51.98,199.24,52.01z"/> <path d="M204.52,50.97c0.03,0.16-0.05,0.21,0.13,0.03C204.51,50.7,204.52,50.86,204.52,50.97z"/> <path d="M204.18,50.56c0.63,0.49,0.14-0.02-0.09-0.11C203.75,50.32,204.18,50.56,204.18,50.56z"/> <path d="M203.34,49.7l-0.05,0.05C203.25,49.79,204.89,51.25,203.34,49.7z"/> <path d="M203.34,49.7c0.1-0.1,0.29-0.04-0.7-0.7C202.84,49.2,203.04,49.5,203.34,49.7z"/> <path d="M185.45,49.5c0.1,0.1,0.2,0.2,0.3,0.2C185.65,49.6,185.55,49.6,185.45,49.5z"/> <path d="M202.53,48.9c-0.14,0-0.15-0.03,0.1,0.1C202.76,48.87,202.8,48.9,202.53,48.9z"/> <path d="M201.13,53.92c0.62,0.93,0.86,0.52,0.51,0.21C201.54,54.03,201.23,53.94,201.13,53.92z"/> <path d="M201.83,54.62l0.1-0.1c0,0-0.09-0.02-0.12-0.02c0,0,0.01,0.02,0.01,0.04C201.61,54.76,201.83,54.52,201.83,54.62z"/> <path d="M195.5,53.82c0.01,0.01,0.01,0.01,0.02,0.02C195.86,54.09,195.52,53.75,195.5,53.82z"/> <path d="M178.72,185.77c1.96,3.76,5.13,5.73,9.25,6.13c-1.36-1.16-2.76-2.21-4.16-3.27C179.47,185.35,179.45,184.54,178.72,185.77z
		"/> <path d="M203.74,218.32c1.58,1.93,3.42,3.12,6.43,2.41c-2.61-1-4.22-3.01-6.43-4.42C202.84,217.32,203.33,217.83,203.74,218.32z"/> <path d="M239.9,238.09c0.53,0.28-0.03,0.45,5.45-1.28c-0.99-0.28-2.12-0.6-3.48-0.87C239.41,235.45,238.6,237.4,239.9,238.09z"/> <path d="M223.54,242.95c0.83,0.31,1.5,1.06,2.39,1.21c0.3,0.05,1.1,0.02,0.97-0.17C226.07,242.4,225.06,242.95,223.54,242.95z"/> <path d="M190.74,192.59c0,0.26,0.6,0.71,1.05,0.11C191.61,191.86,190.7,191.98,190.74,192.59z"/> <path d="M196.1,193.7c-0.52,0-0.52,0.8,0.2,0.8C196.73,194.51,196.83,193.7,196.1,193.7z"/> <path d="M200.22,194.91c0,0.1,0.25,0.56,0.49,0.6c0.18,0.03,0.42-0.17,0.3-0.51C200.8,194.36,200.22,194.81,200.22,194.91z"/> <path d="M230.87,243.95c0.2,0.6,0.7,0.8,1.21,1C231.78,243.85,231.78,243.85,230.87,243.95z"/> <path d="M231.98,244.95l0.2,0.1C232.06,244.93,232.11,244.95,231.98,244.95z"/> <path d="M209.67,375.49c0.2-3.12-0.9-6.03-1.91-8.94c-0.42-0.82-1.71-0.72-1.71,0.2c0,0.7,0,1.41,0.3,2.01
		C207.53,371.13,207.88,373.62,209.67,375.49z"/> <path d="M216.2,342.53c-0.38-1.77-0.41-3.51-1.81-4.52C212.12,338.01,213.21,341.12,216.2,342.53z"/> <path d="M211.48,326.55c-0.29-0.11-0.61-0.31-1-0.4c-0.47,1.32-0.34,2.81,0.1,4.12C211.68,328.97,211.68,328.97,211.48,326.55z"/> <path d="M202.64,359.72c-0.2,0.2-0.73,0.17-0.1,0.8C202.98,360.96,203.4,359.98,202.64,359.72z"/> <path d="M198.92,356.8c0-0.1-0.1-0.2-0.1-0.3C198.32,356.5,198.72,357.4,198.92,356.8z"/> <path d="M197.21,354.89c0.26,0,0.23,0.05,0.1-0.2L197.21,354.89z"/> <path d="M209.87,375.69c-0.04,0-0.14-0.1-0.3-0.1C209.67,375.59,209.77,375.69,209.87,375.69z"/> <path d="M251.17,449.96c-1.86,0-2.65,0.97-3.92,2.41c-0.61,0.7-1.11,1.51-0.4,2.71C249.19,454.3,253.48,451.69,251.17,449.96z"/> <path d="M255.39,456.29c1.72-1.72-2.81-3.75-4.22,1.61C252.38,458.2,253.48,457.8,255.39,456.29z"/> <path d="M387.84,367.96c4.94,0,6.99-6.84,6.33-11.76c-0.39-2.92-2.99-2.84-3.92-1.41c-0.72,1.1-1.91,1.61-2.81,2.41
		C387.01,359.07,384.34,366.2,387.84,367.96z M390.45,360.42c0.34,0.93,0.21,1.42-0.8,1.71
		C389.55,361.12,389.95,360.82,390.45,360.42z"/> <path d="M170.58,252.19c0,0.08,0,0.23,0,0.3C170.83,252.24,170.84,252.32,170.58,252.19z"/> <path d="M178.32,45.98c0.16-0.32,0.49-2.44,0.52-2.61c2.23-13.37,6.22-15.67,6.24-17.17C185.12,23.74,177.29,33.68,178.32,45.98z"/> <path d="M191.38,21.77c1.03,0.78,1.19,1.21,2.11,1.21C193.27,22.09,192.27,22.02,191.38,21.77z"/> <path d="M186.61,33.17c0.15-0.35,0.3-0.68,0.45-1.06C186.69,32.34,186.65,32.73,186.61,33.17z"/> <path d="M186.46,33.52l0.1,0.1C186.71,32.88,186.57,33.24,186.46,33.52z"/> <path d="M188.57,30l-0.1-0.1c0,0.15-0.02,0.19-0.02,0.19c-0.46,0.32-0.48,0.86-0.48,1.42c0.27-0.44,0.45-0.89,0.48-1.42
		C188.45,30.09,188.47,30.04,188.57,30z"/> <path d="M185.17,30.01c0.56,0,1.09,0.04,1.29-0.71C185.39,29.3,185.33,29.53,185.17,30.01c0-0.01-0.03-0.01-0.12-0.01l0.1,0.1
		C185.15,30.05,185.17,30.03,185.17,30.01z"/> <path d="M189.87,21.36c0.1,0.1,0.2,0,0.3,0C190.17,20.79,189.24,21.14,189.87,21.36z"/> <path d="M187.25,31.94c-0.22,0.22-0.23,0.13-0.09,0.27C187.18,32.11,187.21,32.03,187.25,31.94z"/> <path d="M187.25,31.94c0.2-0.18,0.38-0.38,0.61-0.53C187.56,31.49,187.37,31.68,187.25,31.94z"/> <path d="M184.85,30.2c0,0,0.1-0.2,0.1-0.3C184.75,30.1,184.65,30.2,184.85,30.2z"/> <path d="M185.64,25.19c0-0.23-0.55-0.13-0.58,0.59C185.43,25.81,185.61,25.58,185.64,25.19z"/> <path d="M185.75,25.18c0.19-0.19,0.71,0.01,0.2-0.5C185.95,24.88,185.85,24.98,185.75,25.18z"/> <path d="M184.95,36.94l0.1,0.1C185.18,36.91,185.21,36.94,184.95,36.94z"/> <path d="M186.26,33.82c0.1-0.1,0.2-0.2,0.2-0.3C186.36,33.62,186.36,33.72,186.26,33.82z"/> <path d="M202.64,68.69c-0.29-0.87-0.33-0.34-1.46-1.47c-0.14-0.14,0.05,0.55,0.66,0.72C201.87,68.4,202.16,68.6,202.64,68.69z"/> <path d="M200.32,65.98c0,0.2,0.1,0.4,0.2,0.6C200.52,65.57,200.58,65.72,200.32,65.98z"/> <path d="M183.04,56.84c-0.16-0.16-0.55-0.59-0.9-0.7C182.95,56.95,182.78,56.84,183.04,56.84z"/> <path d="M181.99,55.7c-0.15-0.19-0.33-0.3-0.56-0.37C181.53,55.4,181.93,55.65,181.99,55.7z"/> <path d="M181.99,55.7c0.08,0.1,0.16,0.22,0.24,0.33C182.39,55.88,182.39,55.99,181.99,55.7z"/> <path d="M291.47,293.49c-3.56,3.56,0.67,4.38,0.9,2.41c0.07-0.63,0.85-1.96,1.11-2.81C292.57,292.29,291.97,292.99,291.47,293.49z"/> <path d="M212.38,48.2c0,0.02,0,0.06,0,0.1C212.51,48.17,212.51,48.2,212.38,48.2z"/> </g> </svg> 