<?xml version="1.0" encoding="utf-8"?> <!-- Generator: Adobe Illustrator 23.0.1, SVG Export Plug-In . SVG Version: 6.00 Build 0)  --> <svg version="1.2" baseProfile="tiny" id="Layer_1" xmlns="http://www.w3.org/2000/svg" xmlns:xlink="http://www.w3.org/1999/xlink" x="0px" y="0px" viewBox="0 0 900 600" xml:space="preserve"> <g> <path d="M599.77,479.53c0.01,0.05,0.03,0.2,0.07,0.2C599.82,479.66,599.8,479.6,599.77,479.53z"/> <path d="M242.65,457.77l-0.1,0.1C242.66,457.84,242.69,457.89,242.65,457.77z"/> <path d="M522.12,29.27c0,0.26,1.22,2.76,2.42,4.33C521.83,29.7,522.49,28.25,522.12,29.27z"/> <path d="M723.32,451.07c0.07,0.68,0.15,1.35,0.22,2.03C723.96,452.25,724.21,452.21,723.32,451.07z"/> <path d="M777.36,479.95c-0.93,1.44-2.37,1.77-3.92,1.86c-10.06,0.59-18.8,5.17-21.96,2.89c6.49-0.41,11.65-2.78,16.8-5.15
		c2.06-4.12,1.3-8.34,0.31-12.58c-0.43-1.85-1.96-2.79-3.92-3.09c-1.74-0.27-12.9-2.5-14.64-4.02c1.24-3.71,2.16-7.53,0.82-11.55
		c-0.21,1.65-0.41,3.3-0.62,4.95c-2.17-23.03,0.42-10.51-1.13-36.8c-3.52-59.65-1.73-44.5-2.58-53.81
		c19.86-1.47,17.71-2.22,23.5-2.37c3.2-0.08,4.45-1.85,4.64-5.05c0.11-1.86,0.72-4.12,0-5.57c-1.55-3.09-0.62-6.39-1.75-9.48
		c-5.37-4.14-1.87-1.6-2.37,1.13c-1.01,8.9,0.72,16.16,0.72,16.6c-2.89-0.21-5.57-0.41-8.35-0.62c-0.1-6.49,0.1-12.78-0.62-18.86
		c1.86-0.72,3.61,0.31,5.26-1.24c-7.72-0.59-15.32-1.23-22.89-0.31c5.46,0.52,10.93,0.31,16.6,1.24c0,6.7,0,13.2,0,19.9
		c-3.45,0.65-9.23,2.19-12.37,0.62c-10.51,1.34-21.13,0.76-31.65,1.24c-2.42,0.11-4.85,0.72-7.22,0.1
		c-10.62-2.76-20.94-2.01-26.39-4.12c0-6.85,0.27-0.7-1.13,0c-3.54-0.51-46.15-6.21-52.26-8.66c1.24-3.5,2.98-6.7,3.71-10.31
		c0.16-0.77,3.87-17.5,4.12-18.04c12.38,0.46,14.24-2.24,14.49-1.34c0.57,2.05,2.15,0.7,6.43,1.85c2.9,0.78,5.87,1.06,8.76,2.16
		c4.25,1.63,9.01,0.74,12.95,0.75c6.76,0.02,10.2,1.62,16.68,1.67c6.19,0.05,6.97-2.11,21.81,1.39c12.49,2.94,26.05,2.21,39.79,6.49
		c10.23,3.19,10.98,7.91,9.89,4.66c-1.87-5.56-6.22-5.07-13.49-7.75c-14.45-5.32-24.23-2.55-22.99-5.05
		c3.63-7.31,4.08-15.37,5.46-23.19c0.96-5.44,2.43-6.03,0.82-12.68c-1.98-8.18-10.77-15.54-18.04-19.17
		c-8.48-4.24-28.43-5.72-37.01-5.46c-8.11,0.24-14.99-2.17-25.98-1.03c-10.14,1.05-7.53-2.53-22.78-0.41
		c-2.92,0.41-30.2,3.37-37.11,0.1c-0.52-4.95-2.16-9.79-2.16-15.05c0-14.47-0.99-14.73-0.62-17.94c0.69-5.98,0.32-11.96-0.72-17.83
		c-0.96-5.42-0.29-6.47-0.93-25.67c-2.58,1.86-1.55,4.23-2.27,6.08c-1.47,1.33-49.99,1.03-50.1,1.03
		c-12.28-0.04-23.91-3.94-26.18-2.99c-3.43-10.97-3.75-13.99-6.08-16.08c-0.62-0.62-0.93-1.86-0.93-2.99
		c10.62,0.62,19.17-3.71,26.91-10.62c10.92,6.5,12.71,6.17,37.32,15.05c28.56,10.31,19.48,6.32,19.48,9.59
		c1.96,1.24,4.02,1.03,5.98,0c14.33,4.95,28.45,9.9,42.57,14.84c10.49,3.67,11.74,2.74,15.26,4.02c13.57,4.95,19.45,3.22,29.9,6.39
		c3.4,1.03,4.33,0.82,7.22,0c4.54,1.44,9.17,1.55,14.23,1.75c0.31,5.67-0.72,11.13-0.93,17.32c0.1,0.31,1.03,0.1,1.86,0.21
		c8.72,1.09,11.22,2.41,14.12-2.89c5.77,0.1,11.65,0,17.42-0.41c4.23,2.58,5.26,2.47,7.83-1.03c3.92-0.41,8.25-0.52,11.85-4.02
		c0.1-18.66,3.3-37.83,1.96-57.63c-13.61,0.1-26.91-1.13-40.2-0.1c-0.72,1.75,0.21,3.61-1.13,5.26c-2.27-0.41-4.53-1.29-7.01-1.24
		c-0.21,0-0.31,0.31-0.62,0.72c2.47,1.34,5.15,0.93,7.73,1.34c0.31,2.78-0.52,5.26-0.41,8.04c-2.78-0.1-5.36-0.82-8.14,0.1
		c-0.82-7.32,0.62-14.33,1.13-21.55c3.09,0.31,6.08,0.62,8.87,0.82c1.24,0.82-0.31,1.96,0.31,2.37c13.2,2.68,26.18,1.96,39.17,2.16
		c1.44,1.24,2.89,2.47,5.05,2.99c1.03,6.91,1.75,14.02,4.33,21.24c0.21-8.14,0.93-15.77-2.58-22.99c-1.24-0.31-2.67-0.42-3.71-1.65
		c-1.23-1.45-3.09-1.86-4.74-1.86c-3.4,0-6.8-0.62-10.1-0.21c-3.09-3.09-6.39-2.37-10.1,0c-20.94-0.45-12.87-0.92-15.98-3.5
		c-3.3-1.65-7.53-1.44-11.65-1.65c-2.16,5.36-2.91,10.82-3.5,16.29c-0.21,1.96-0.52,3.92,1.13,5.57c1.03,0.93,0.31,2.16,0.1,3.3
		c1.4,0.7,5.17-1.13,12.06,2.58c1.54,0.83,3.09,1.33,5.05,0.82c1.65-0.42,2.99,1.03,4.74,1.24c0.52,1.65,1.86,3.09,0.41,4.95
		c7.01,4.23,13.71,2.78,20.72-0.1c-1.03-1.86,0.61-3.6-0.72-5.15c-1.14-1.33-2.06-2.78-3.2-4.33c2.22-1.87,1.75-4,1.75-12.58
		c1.34-0.82,2.99-0.21,4.64-0.41c1.65-0.21,3.3-0.41,5.26,0.1c-0.21,17.94-2.78,35.87-2.68,54.02c-2.89-0.21-5.36-0.31-7.94-0.52
		c0-2.99,0-5.77,0-8.35c1.75-1.65,3.3-3.09,4.95-4.64c-0.21-2.16,0.41-4.12,1.75-5.46c0.41-1.34-0.21-2.06-0.62-2.99
		c2.68-3.4,2.99-7.01,0.82-10.62c-0.21-1.44,1.13-2.16,1.13-3.4c-1.65-6.08-2.99-7.01-7.73-5.05c1.24,1.03,2.78,0.31,4.12,1.13
		c0.41,1.03,0.93,2.27,1.34,3.4c-0.1,1.13-1.55,1.55-1.13,3.5c0.82,1.34,1.55,3.61,2.16,5.77c-0.52,1.55-2.27,2.27-2.27,3.71
		c-0.31,1.34,0.82,2.06,0.72,2.78c-0.31,1.55-1.34,2.06-2.06,3.4c0,0.72,0,1.96,0,3.2c-1.34,0.82-2.89,1.24-3.2,2.78
		c-6.7,0.41-12.99,0.31-17.11-6.29c0-0.31-0.1-0.93-0.21-1.44c0-1.85,0.41-1.24-2.06-2.47c-1.47,5.6-2.64,4.33-12.58,4.33
		c-1.03,0-2.16-0.1-2.78,1.34c1.63,1.52,1.79,0.35,11.65,1.34c0,1.65-0.93,2.16-2.06,2.37c-15.4,3.85-13.37,0.07-15.88,1.13
		c-6.66,2.82-14.27-1.53-17.11-0.62c-1.34,0.43-2.68,0.21-3.81-0.1c-7.23-2.02-14.75-2.41-22.16-4.02
		c-13.45-2.92-41.15-13.97-59.17-19.28c-7.18-2.11-21.91-9.3-30.72-11.65c-39.96-10.64-49.78-25.05-52.47-25.05
		c0,2.37,0.41,2.89,9.28,10.51c-3.71,4.33-17.11,10.41-24.23,10.93c-4.64-9-7.48-35.26-3.81-51.13c0.77-5.13,4.56-4.92,10.62-12.37
		c1.06-1.3,5.55-4.39,7.63-3.5c12.81,5.45,13.16,7.5,18.66,12.06c5.22,4.33,5.95,4.96,7.73,7.63c-2.16-0.62-3.71-2.37-6.08-3.09
		c0.1,1.03,0.93,1.33,1.44,1.75c11.02,9.08,0.45,2.82,13.81,11.13c8.02,4.99,16.51,9.46,24.23,14.95
		c13.15,9.36,18.48,2.94,27.32,8.35c5.96,3.65,12.47,6.5,18.45,10.31c11.12,7.09,18.99,8.59,24.84,12.37
		c15.08,9.72,31.64,12.74,34.33,12.78c7.2,0.12,15.51-8.64,20.1-12.06c0.62-0.52,0.62-0.52,0.82-2.58c-1.96,0.41-3.2,1.86-4.74,2.89
		c-22.06-11.19-27.12-18.41-33.71-20.51c-1.96-0.62-3.3-2.05-5.26-2.58c-4.21-1.14-14.46-0.18-15.57,0
		c-13.56-11.12-16.04-7.63-27.63-18.25c-3.76-3.45-1.22-3.97-4.23-8.25c-4.37-6.21-8.23-7.08-9.59-8.66
		c-4.13-4.79-11.05-5.2-21.65-6.49c-4.71-0.58-6.64-2.56-17.83-9.28c-1.31,2.13,1.08,0.68,5.46,6.91
		c14.3,20.32,17.99,21.49,15.46,26.7c-0.93,1.03-2.06,1.44-3.61,1.34c-1.03-2.27-2.89-4.02-5.77-5.77c1.34,2.37,2.37,4.12,3.61,6.19
		c-2.68,0.72-4.73,0.81-7.01-0.93c-8.77-6.71-12-5.4-15.46-10.1c-3.25-4.41-5.28-5.55-7.01-9.59c-2.75-6.41-14.55-16.89-24.95-22.06
		c-1.06-0.53-0.26-1.55,1.24-1.96c7.01-1.92,8.43-16.59,5.57-26.08c-0.53-1.75-1.75-3.3-2.68-5.05c0-1.55,0-3.2,0-4.95
		c1.03-0.62,2.76,1.21,3.49-0.69c0,0.03,0.01,0.05,0.01,0.07c1.24,0.52,1.65,1.96,2.68,2.68c2.89,0.1,3.09-0.1,3.2-2.78
		c-1.13-0.52-1.24,0.82-2.27,1.13c-1.65-2.58-4.43-4.33-6.19-7.01c2.78,0.1,2.89,4.23,5.98,3.61c2.06-0.41,1.86-2.27,2.16-3.81
		c-0.31-1.03-1.44-1.13-1.96-2.16c0.62-1.03,1.13-2.16,0.62-3.5c-2.23-1.97-7.48-8.35-2.8-4.65c2,1.58,3.14,3.62,5.69,3.62
		c-1,1.33-2.05-0.43-2.68,0.72c2.78,1.13,2.78,1.13,5.67-0.82c0-0.62-0.72-0.41-1.03-1.03c2.47-0.82,2.58-3.5,3.2-5.36
		c1.39-4.18,3.69-3.41,4.12-5.15c-4.33,1.13-8.66,1.86-12.99,2.27c2.68,1.55,5.57,0.1,8.56,0.31c-2.06,2.06-4.85,2.27-7.11,3.81
		c2.06,0.52,3.61-0.93,5.77-1.24c-1.86,2.27-4.12,2.06-6.19,2.89c-1.24-0.93-2.58-1.96-3.71-2.78c-1.34-0.52-2.16,0.62-3.5,0.62
		c-3.28-1.61-6.14-3.65-8.3-6.46c2.21,3.16,5.25,5.31,8.5,7.19c-0.91,2.98-2.69,5.47-2.69,8.47c0,1.45,0.64,1.26-1.74,2.45
		c-8.99-9.66-8.36-8.16-8.32-12.21c0.03-3.34,0.66-6.66,1.82-10.24c-0.23-0.55-0.44-1.09-0.62-1.68c2.47-2.06,2.78-5.57,5.26-7.73
		c2.99,0.72,5.88,1.44,9.48,1.86c-3.98-2.34-9.71-2.45-8.35-3.81c3.44-5.9,3.72-9.07,27.01-2.89c0.62,0.21,1.34,0.52,2.89,0.21
		c-6.39-2.78-12.47-3.81-19.17-4.23c4.12-1.65,7.83-1.24,11.75-0.62c-1.65-1.65-1.65-1.65-7.32-2.37
		c7.97-1.84,13.21-2.37,25.15,4.95c-3.81-0.31-7.11-2.68-10.93-3.09c-0.31,1.55,1.44,1.44,1.55,2.37c-1.75,0.1-3.2-1.55-5.46-1.03
		c4.54,2.27,8.87,3.81,12.78,7.11c-2.47,0.93-4.54-0.93-6.6,0.1c2.78,1.75,5.88,1.65,8.66,2.06c0.93-0.82,0-1.55,0.31-2.16
		c1.65,0.41,1.65,2.47,3.71,2.99c-0.93-2.06-0.62-4.12-2.27-5.67c2.27,0.62,4.02,1.96,5.46,3.5c0.93-0.1,1.03-0.72,1.44-1.13
		c-0.41-1.24-1.75-1.44-2.27-2.47c1.03-0.62,1.55,0.21,2.06,0.72c9.33,7,5.17,5.41,6.6,8.97c2.57,9.32,0.45,9.74,2.68,15.88
		c-0.62,0.93-1.96,0.82-2.68,2.06c-1.13,4.85,3.09,8.35,4.12,12.68c-0.62,1.34-1.86,0.82-2.47,1.24c-1.24-0.21-1.24-1.45-2.06-1.65
		c-1.34-0.32-2.06,0.93-3.09,1.13c-0.82-0.21-1.03-1.24-1.86-0.93c-0.41,0.41-0.41,0.93,0,1.24c1.35,1.02,2.99,0.93,4.74,0.93
		c0.52,1.96,0.93,3.81,1.55,5.98c-3.61,0-7.01-0.93-10.51-0.41c0,2.21,2.05,1.57,5.77,1.96c4.82,0.5,4.77,3.11,2.58,3.71
		c-1.55,0.1-4.02-1.65-5.46,1.13c1.03,1.55,2.78,0.93,4.12,1.55c0.62,6.08,0.62,6.08-0.72,8.87c-8.66-0.21-17.22-1.13-25.05-5.36
		c2.11,3.08,7.34,4.52,11.65,6.39c-1.34,2.68-0.97,5.86-2.06,8.35c-1.71,3.89-0.76,7.83-1.03,11.65c-0.12,1.65,0.21,3.2,1.75,4.74
		c1.44-8.25,1.13-16.29,2.68-23.92c2.41-1.75,15.55,6.62,15.67-7.01c0.01-1.13-0.41-2.27-0.62-3.71c0.31-1.13,1.96-0.93,2.47-2.06
		c0.82-1.34-0.31-2.47-0.72-3.81c1.86-2.06,0.62-4.74,1.13-7.53c4.35-1.58,3.53-1.64,0.41-9.28c0.31-1.24,1.44-2.27,0.93-3.5
		c-0.72-1.34-2.16-0.1-2.78-1.24c0.62-1.75,2.78-0.21,3.71-2.16c-3.16-7.8,2.43-22.47-14.33-29.79c-14.3-6.24-21.38-9.15-25.87-8.14
		c-10.01,2.23-17.11,1.11-21.24,9.17c-0.39,0.76-1.01,1.64-1.96,2.27c-2.16-1.13-4.54-1.44-6.7-0.72c-0.82,0.72,0.1,0.93,0.1,1.34
		c-5.36,3.81-7.53,8.04-7.01,13.2c1.58-4.73,2.58-9.44,7.73-12.06c1.64-0.84,1.96-0.82,4.33-0.21c0,1.03-0.41,1.44-1.44,1.55
		c0.06,0.18,0.09,0.34,0.1,0.49c-1.98,1.68-1.04,2.28-1.44,2.28c0.28,0.57-1.75,0.43-1.96,3.62c0.51-0.34,0.89-0.75,1.2-1.22
		c-3.02,8.81-4.77,20.45-0.16,28.53c1.33,2.33,1.27,1.15,0.21,16.7c0,0.52-0.31,1.13-0.72,2.47c-0.31-5.46,0.21-10.21-1.24-14.84
		c0,8.35-0.21,16.6-5.88,23.61c3.09-5.98,3.81-12.47,3.81-18.97c0-0.72,0.31-1.65-1.24-2.27c-0.93,11.03-2.47,21.75-10.1,30.41
		c7.92-13.26,9.63-28.94,6.7-30.41c-0.62,2.78-0.31,5.57-1.24,8.14c-0.72-0.52-0.33-1.34-0.31-1.96
		c0.58-22.75-15.14-27.2,8.56-52.47c2.47-0.62,4.74,0.1,7.53-0.1c-3.83-4.59-15.75-1.16-19.69,13.5c-2.42,9.01-3.86,8.49-2.58,16.39
		c1.57,9.68,4.07,16.6,2.27,29.59c-0.9,6.5,0.99,12.42-7.32,20.72c10.97-0.71,18.14-18.55,18.45-19.07
		c-0.1,2.89-0.72,5.26-1.65,7.11c1.03,6.49-3.09,10.82-5.36,16.18c12.26-3.83,13.01-69.57,13.5-25.77
		c0.06,5.41-5.39,14.97-9.9,24.64c1.87,0.94,13.34-13.95,11.55-26.49c-0.47-3.3-0.52-6.7-0.82-10.51c1.96,1.03,2.89,2.47,4.12,4.02
		c-4,4.83,0.41,8.11,3.81,12.89c2.42,3.39,0.23,5.58,0.62,9.48c0.22,1.35-5.78,8.57-10.41,11.03c-11.27,5.99-9.92,8.65-15.98,12.37
		c-6.88,4.22-7.61,11.63-8.76,18.25c1.96,1.21,0.12,2.34,2.78,28.55c1.33,13.14,7.52,18.21,8.97,24.53
		c6.34,27.66,7.86,30.11,6.49,42.57c-1.41,12.8,0.31,26.09-10.62,40.72c-6.28,8.4-10.62,19.4-10.62,35.67
		c-15.15-2.27-59.9,2.87-68.96,1.03c-6.25-1.27-10.84,0.86-22.68,2.06c-2.89,0.29-5.46,1.24-7.63,3.61
		c-0.82,5.26,0.52,10.6,1.13,16.08c0.57,5.14,1.04,5.17,1.96,6.08c7.83,0.31,15.36,1.13,23.19,1.86
		c-5.14,26.84-3.94,45.85-6.19,53.19c-5.8,18.93-8.04,47.66-10.93,56.9c2.68,1.03,5.26,1.44,8.35,1.13
		c-1.96-1.44-4.02-1.03-6.08-1.75c1.13-4.33,0.09-8.87,1.65-13.09c0.61-1.65,0.75-3.4,1.03-5.15c0.9-5.65,2.83-3.53,2.16-8.66
		c-0.21-1.65,0.07-3.21,0.52-4.85c1.62-5.91,1.88-12.05,3.71-17.83c3.33-10.56,1.81-11.9,6.49-54.02c0.19-1.75,0.52-3.5,0.1-5.57
		c59.66,7.02,73.11,5.15,101.85,10c1.75,0.3,3.2,0,4.43-0.72c18.56,3.09,36.7,6.39,54.84,9.07c-2.89,15.26-4.33,30.41-3.5,45.98
		c-10.82-0.93-21.23-1.16-31.54-2.78c-16.55-2.6-39.34-8.48-61.13-9.07c-7.26-0.2-13.39-2.58-25.15-2.47
		c-10.53,0.1-10.35-0.83-14.74-0.93c-9.66-0.22-8.95,8.39-12.89,9.48c-2.18,4.9-1.94,22.68-1.75,28.04
		c0.43,12.12-2.03,2.22-0.72,27.83c-9.48-0.72-18.56-1.44-27.63-2.16c-0.82-0.31-0.41-1.44-1.65-1.75
		c-3.5,0.62-7.42,1.14-11.44,0.72c-6.83-0.72-75.8-5.67-78.14-7.42c-1.55-1.34-3.2-1.44-4.74-0.1c-1.55,1.34-2.91,0.97-4.54,0.21
		c-19.22-9-12.92-5.77-14.54-7.01c-1.46-1.12-2.69-2.51-4.95-2.16c-2.48,0.38-4.74,1.13-6.6,2.99c-0.4,0.4-0.34,0.18-16.29-2.37
		c-1.23-0.92-1.44-2.96-3.36-2.18c-1.96-3.76-6.35-3.73-8.8-0.51c-2.14,2.82,0.16,4.29-0.21-20.93c-0.03-1.75,0.21-3.5-0.62-5.57
		c-13.2,0.21-26.49-1.03-39.89,0c-0.21,4.64-1.44,9.17-1.24,14.33c-2.78-0.72-5.36-0.62-8.25-0.41c-0.93-7.11,0.52-14.02,0.82-21.03
		c3.2-0.31,6.08,0.52,8.97,0.62c1.03,0.72,0,1.96,0.52,2.37c13.09,2.78,25.98,1.75,38.86,2.06c1.65,1.13,3.09,2.58,5.36,2.99
		c0.82,6.91,1.65,13.81,4.02,20.41c0.52-7.53,0.93-15.15-2.58-22.37c-1.34,0-2.48-0.3-3.4-1.34c-2.35-2.64-5.85-2.06-15.15-2.06
		c-3.2-2.99-6.19-2.99-9.79-0.1c-4.95,0.31-10-0.52-14.84-0.72c-0.72-0.82-0.21-1.86-1.03-2.37c-3.09-1.65-7.63-2.37-12.37-1.75
		c-0.82,2.27-1.23,4.75-2.78,6.91c-4.27,5.92,13.92,5.67-50.1,5.67c-12.9,0-24.59-3.92-27.11-3.2c-1.24-3.92-1.96-7.73-3.5-11.34
		c5.81-15.68-0.4-0.99,21.34-16.29c-2.04-3.83,3.17-3.22,5.46-11.34c1.66-5.87,3.9-11.55,4.43-17.63
		c1.66-19.08-9.95-23.04-15.67-29.9c-1.13-1.35-2.27-2.68-4.02-3.3c0.72-0.93,1.55-1.24,2.47-1.65c9.55,4.78,13.88,8.35,20.51,17.11
		c2.66,3.52,6,6.48,8.35,10.41c3.12,5.21,17.75,12.66,23.38,14.9c-0.36,1.13,7.77,5.97,15.48-2.11c0.72-2.58-0.72-4.85-2.16-6.91
		c-3.7-5.26-6.6-11.03-10.82-15.98c-0.47-0.47,0.18-1.49,1.96,0.21c1.21,1.16,2.46,2.28,3.4,3.5c9.23,12.08,22.54,24.44,23.3,31.24
		c4.74,4.43,8.12,9.17,7.42,15.67c-0.64,5.98-2.37,11.44-7.83,14.54c0.94,4.99,10.75-2.67,11.44-17.32
		c0.12-2.58-0.18-5.27-1.34-7.53c-2.07-4.03-6.14-12.84-10.41-15.26c-3.25-1.84-5.36-4.85-7.94-7.32
		c3.33-12.94-8.69-20.17-17.83-20.93c-2.1-0.17-3-0.77-14.43-7.63c0,2.95,2.76,1.77,5.26,5.98c1.32,2.22,9.61,12.59,14.84,20
		c2.82,3.99,2.96,9.07-1.86,9.07c-1.86-1.75-3.2-4.33-6.49-5.98c1.55,2.58,2.58,4.33,3.71,6.29c-2.75,1.38-5.67,0.04-5.67,0.42
		c-6.27-5.99-12.97-6.29-16.8-11.45c-10.43-14.03-10.17-17.08-21.85-25.36c-3.31-2.35-6.7-4.74-10.41-6.29
		c0.21-1.24,1.03-1.45,1.86-1.65c6.77-1.66,8.54-16.26,5.67-25.67c-0.6-1.96-2.06-3.4-2.78-5.36c0-1.55,0-3.2,0-4.95
		c1-0.61,2.69,1.13,3.44-0.6c1.21,0.54,1.62,1.95,2.64,2.66c2.89,0.1,3.09-0.1,3.2-2.78c-0.67-0.54-1.09,0.28-2.06,1.44
		c-1.86-2.89-4.64-4.64-6.39-7.32c2.78,0.1,2.89,4.23,6.19,3.5c1.44-1.03,1.44-1.03,1.96-3.81c-0.31-0.93-1.44-1.13-1.96-2.16
		c2.81-4.02-1.53-4-4.23-9.39c3.5,1.44,4.43,4.85,7.83,4.95c-0.92,1.22-2.1-0.39-2.68,0.72c2.78,1.13,2.78,1.13,5.67-0.82
		c0-0.62-0.72-0.41-1.03-1.03c4.11-1.37,1.3-6.63,6.29-9.28c0.41-0.22,0.93-0.31,1.03-1.24c-4.33,1.13-8.56,1.75-12.99,2.27
		c2.68,1.55,5.57,0.1,8.66,0.31c-2.06,2.06-4.85,2.27-7.11,3.81c2.06,0.62,3.51-1.03,5.67-1.03c-1.75,2.06-4.02,1.96-6.08,2.78
		c-1.24-0.93-2.58-1.96-3.71-2.78c-1.34-0.41-2.16,0.62-3.3,0.62c-6.19-2.78-9.69-6.6-11.55-12.58c2.47-1.96,2.58-5.57,5.26-7.63
		c2.89,0.72,5.77,1.44,9.48,1.86c-4.11-2.33-8.56-2.31-8.56-3.5c3.47-6.14,3.57-9.44,27.11-3.2c5.93,1.98,0.72-2.71-16.29-4.02
		c4.12-1.55,7.83-1.24,11.85-0.62c-1.65-1.65-1.65-1.65-6.91-2.27c9.28-3.5,17.01,0.82,24.74,4.85c-2.73,0.43-7.72-3.05-10.93-2.89
		c-0.21,1.44,1.34,1.34,1.65,2.37c-1.75,0.1-3.2-1.55-5.46-1.03c4.43,2.27,8.97,3.71,12.68,7.11c-2.47,0.82-4.43-1.03-6.6,0.1
		c2.78,1.65,5.88,1.75,8.76,1.96c0.82-0.72,0-1.44,0.31-2.16c1.65,0.52,1.86,2.47,3.71,3.3c-0.93-2.27-0.72-4.33-2.37-5.88
		c6.42,2.04,4.57,5.32,7.01,2.27c-0.41-1.13-1.75-1.34-2.27-2.37c1.02-0.79,1.4,0.06,6.08,4.02c1.34,1.13,2.49,2.17,2.16,4.33
		c-0.2,1.34,0.72,2.89,1.13,4.33c0.74,2.59,0.7,10.7,2.06,12.58c-0.72,1.03-2.06,1.03-2.78,2.16c-1.13,4.85,2.99,8.35,4.12,12.78
		c-0.62,1.13-1.75,1.03-2.68,1.13c-1.03-0.21-1.03-1.44-1.96-1.55c-1.34-0.31-2.06,1.03-3.2,1.03c-0.72-0.1-0.93-1.13-1.75-0.93
		c-0.41,0.41-0.41,0.93,0,1.24c1.35,1.02,2.99,0.93,4.74,0.93c0.52,1.96,0.93,3.81,1.55,5.98c-3.61,0-7.01-0.93-10.51-0.41
		c0.16,2.23,2.14,1.58,5.77,1.96c4.62,0.48,4.61,2.85,2.68,3.81c-1.86,0.1-4.23-1.55-5.67,1.13c1.03,1.44,2.58,1.03,3.81,1.44
		c0.93,2.99,1.44,6.08-0.31,8.97c-8.87-0.1-17.32-1.24-25.26-5.26c3.2,3.3,7.42,4.54,11.65,6.19c-1.34,2.78-0.9,5.89-1.96,8.45
		c-1.61,3.93-0.76,7.83-1.03,11.65c-0.12,1.65,0.21,3.2,1.75,4.74c1.44-8.25,1.13-16.29,2.68-23.92c2.37-1.72,15.57,6.53,15.57-7.01
		c0-1.13-0.41-2.27-0.62-3.61c0.31-1.13,1.96-0.93,2.47-2.16c0.82-1.34-0.31-2.37-0.72-3.81c1.86-2.06,0.62-4.85,1.13-7.53
		c4.26-1.55,3.6-1.58,0.41-9.38c0.41-1.24,1.34-2.27,1.03-3.3c-0.82-1.55-2.27-0.31-2.89-1.44c0.62-1.75,2.78-0.21,3.71-2.16
		c-3.16-7.8,2.43-22.47-14.33-29.79c-25.16-10.99-21.75-8.59-36.29-6.39c-10.03,1.52-10.43,8.42-12.78,9.48
		c-2.16-1.13-4.43-1.44-6.7-0.72c-0.82,0.72,0.1,0.93,0.1,1.34c-4.64,3.09-7.32,7.22-6.91,12.99c1.54-4.35,2.23-9.21,7.63-11.96
		c1.64-0.84,1.96-0.82,4.33-0.21c0,1.03-0.41,1.44-1.44,1.55c0.39,0.86,0.02,1.39-0.72,1.9c0-0.25,0-0.49,0-0.76
		c0-0.17-1.5,0.92-1.44,2.28c0.34,0.05,0.54-0.16,0.75-0.36c-2.9,9.3-6.18,21.31-0.86,30.66c1.33,2.33,1.27,1.15,0.21,16.7
		c0,0.52-0.31,1.13-0.72,2.47c-0.31-5.46,0.31-10.21-1.34-14.84c0.1,8.35-0.1,16.6-5.77,23.5c3.09-5.98,3.87-12.37,3.81-18.97
		c-0.01-0.72,0.31-1.65-0.93-2.16c-0.72,1.86-0.72,3.92-0.82,5.77c-0.37,6.61-4.12,20.83-9.69,24.43
		c8.22-13.48,9.78-28.87,6.91-30.31c-0.62,2.78-0.31,5.57-1.24,8.25c-0.72-0.41-0.32-1.13-0.31-1.65c0.21-8.32-1.49-15.34-3.81-23.5
		c-2.89-10.13,5.53-22.75,12.68-29.28c2.16-0.82,4.54,0.31,7.11-0.31c-3.2-3.93-15.44-1.24-19.48,13.81
		c-2.42,9.01-3.86,8.5-2.58,16.39c1.51,9.31,4.04,17,2.16,29.59c-1.4,9.41,1.07,9.15-5.67,18.97c-0.24,0.36-0.71,0.64-1.44,1.86
		c7.35-0.49,15.31-10.98,17.63-17.94c1.18-3.53,0.9,2.42-1.13,6.49c0.93,2.27,0.93,2.27-4.95,15.57
		c7.45-1.99,11.62-32.67,11.96-40.41c1.13,0,1.13,0.72,1.13,1.34c0.23,19.98,2.03,13.15-9.59,38.04
		c2.04,1.02,9.25-10.04,11.44-19.59c0.8-3.49,0.12-3.83-0.62-17.42c1.96,1.03,2.89,2.47,4.12,4.02c-5.62,6.78,5.31,10.87,4.95,16.49
		c-0.13,1.96-0.72,3.81-0.52,5.88c0.1,0.62-0.42,1.34-0.82,1.86c-9.14,11.59-12.36,8.98-15.26,13.2
		c-19.18,3.46-23.91,11.46-27.94,21.34c-4.09,10.02,0.35,12.31-7.42,27.21c-7.28,13.98-15.77,31.03-15.05,47.73
		c0.18,4.15-4.16,9.01-1.34,21.44c1.07,4.73,0.8,8.84,2.68,10.72c8.38,0.21,16.27,0.43,24.84,2.68c12.1,3.18,18.21,0.92,22.37,1.96
		c0.6,6.81-1.92,19.64-10.41,31.13c-8.1,10.97-10.14,27.5-9.59,33.71c-1.25,1.56-14.66-1.04-26.29,0.82
		c-0.11,0.02-33.65,1.33-35.77,1.34c-9.55,0.06-8.66-1.19-12.99-0.82c-30.89,4.66-24.89,0.84-22.57,26.8
		c0.41,0.72,1.03,1.24,1.24,1.34c8.04,0.1,15.57,1.13,23.3,1.86c-4.65,22.28-4.11,47.71-6.49,54.43c-0.31,0.72-0.72,1.55-0.21,2.37
		c0.82,0.52,1.65,0.51,1.96-0.52c3.88-12.83,1.96-15.8,3.5-29.9c2.69-24.58,2.52-24.22,2.27-26.08c26.4,3.49,23.96,3.04,48.66,4.85
		c59.46,4.34,52.81,6.58,57.52,4.43c18.56,2.99,36.6,6.39,54.95,9.07c-2.89,12.47-3.2,25.05-4.12,36.9c0.57,0.85,1.18,1.5,3.5,1.03
		c1.44-4.33-1.05-21.38,4.43-37.83c3.88-11.65,0.47-5.57,3.92-12.27c2.29-4.45,4.22-12.76,1.24-14.74c-1.3,0.65-0.2,1.67-1.24,2.89
		c-26.02,8.43-49.92,10.42-74.74-1.03c-2.36-15.53,11.04-36.43,15.05-38.66c8.55-4.74,12.95-8.18,18.66-9.59
		c1.75-0.43,3.4-0.93,4.43-2.47c29.25,0,17.68-1.51,59.17,7.11c38.42,7.99,16.31,38.32,12.89,64.74c-0.62,4.74-2.49,9.17-3.09,13.92
		c-3.5,27.37-5.43,29.78-1.55,27.83c6.71-19.9,1.19-30.74,5.77-35.98c2.7,0,14.73,2.65,27.21,4.43c20.77,2.97,11.86-0.16,20.2,2.06
		c29.66,7.91,57.21,3.42,67.11,5.36c-1.44,8.87,0.52,17.52,0.52,26.08c0.93,0.82,1.55,0.72,2.47,0.21c-0.82-8.45,0-17.11-0.72-25.77
		c1.07-1.53,4.81,0.08,16.18-2.16c6.48-1.28,11.44,1,11.96-6.19c0.65-9.1-1.8-7.04-1.24-9.69c0.41-1.55,0-3.3-0.52-4.85
		c-5.38-3.77-2-2.76-2.37,1.03c-1.94,19.66,6.87,16.9-7.53,16.18c-0.1-6.49,0.1-12.68-0.62-19.07c1.82-0.4,3.68,0.39,5.36-1.03
		c-14.7-1.15-29.84-0.64-19.82-0.04c4.98,0.3,13.39,0.33,13.46,1.4c0.46,6.45,0.08,12.8,0.38,19.15c-7.34,2.84-1.49,0.44-41.34,2.06
		c-14.55,0.59-13.15-1.09-18.97-1.65c-6.31-0.61-64.9-8.57-70.82-11.03c4.33-8.97,5.67-18.66,7.83-28.25
		c13.75,0.58,13.64-2.73,14.82-0.94c1.18,1.8,5.21,0.05,14.97,3.62c5.88,2.15,10.42-0.14,19.17,1.34
		c16.87,2.85,17.95-0.9,27.52,1.65c19.07,5.09,43.65,3.21,53.8,12.29c1.2,1.07,1.06,1.15,1,0.89c-1.57-6.52-5.97-5.84-14.7-9.05
		c-12.35-4.54-23.13-2.49-22.06-4.64c3.73-7.52,4.1-15.79,5.57-23.81c0.99-5.42,2.2-5.27,0.82-11.75
		c-1.79-8.43-10.72-15.78-18.04-19.59c-7.83-4.08-28.12-5.73-36.9-5.46c-8.16,0.24-14.28-2.27-26.29-1.03
		c-10.03,1.03-6.83-2.64-22.37-0.52c-4.18,0.57-30.19,3.18-37.21,0.1c-0.31-1.75-0.62-3.61-1.03-5.67c3.61-0.21,7.53,0.62,8.87-3.71
		c5.88,0,11.65,0.21,17.22-0.62c4.54,2.89,5.26,2.78,8.14-0.72c2.87-0.52,5.82-0.93,8.78-1.43c0.16-1.73,1.96-1.27,2.87-2.28
		c0.14-8.31,0.78-16.64,1.36-24.98c0.67,3.18,3,5.12,7.4,4.46c-1.03,7.83-2.78,15.36-4.33,22.89c-2.95,0.4-5.79,0.71-8.54,1.11
		c0.51,2.2,1.04,2.79,3.07,2.6c2.27-0.22,4.64-0.41,7.22-1.96c2.78-8.04,4.12-16.6,4.64-26.08c0.21-0.41,0.82-1.34,1.75-2.27
		c5.67,1.03,11.24,3.2,17.11,4.02c3.51,3.4,8.04,4.35,12.78,4.64c5.57,0.34,11.24,0.93,16.7,0.52c3.4,3.71,3.71,3.71,7.94,1.34
		c18.86,1.55,37.94,3.09,56.9,4.64c-20.06,5.17-21.93,1.68-20.62,4.95c-2.27,3.5-4.02,9.17-3.92,12.68c2,1.43,1.41-0.9,5.46-12.47
		c9.07-0.52,18.14-2.49,27.42-4.02c4.39-0.72,36.97,2.82,88.04,6.7c1.57,0,1.67,1.33-9.38,2.58c-59.37,6.71-26.86,1.63-54.43,6.39
		c-7.93,1.37-23.56,3.65-30.31,5.67c1.52,2.78-0.76,2.32,45.67-5.36c5.68-0.94-4.69,0.94,33.19-2.58c7.94-0.74,15.67-2.9,23.61-3.4
		c1.65-0.11,3.09-0.93,4.33-2.06c8.82,0.63,11.61,1.88,12.47-1.75c-0.8-4.62-6.55-1.88-12.89-3.92c-1.24-3.61-1.24-7.42-2.27-11.24
		c-18.83-4.18-25.96-3.63-42.88,0c-0.21,0-0.31,0.31-0.52,0.62c1.02,2.18,1.36,0.35,15.77-0.93c9.37-0.83,7.91-1.08,10.82-0.21
		c4.85,1.13,9.69,1.24,14.95,2.16c0.31,2.89,0.62,5.98,1.03,9.48c-14.43-1.13-28.55-2.37-42.68-3.5c-1.17-3.38-0.4-9.68-0.82-10.21
		c-1.55-2.47-0.83-4.95-0.52-7.53c2.61-21.27,0.15-20.08,2.27-35.67c0.52-1.03,1.56-1.43,2.16-2.27c3.5-4.88,7.94-7.35,14.12-6.39
		c11.55,1.79,19.49-0.69,32.16,2.68c5.95,1.58,9.6-1.09,48.04,6.6c37.34,7.46,45.45,4.56,49.07,6.49c0.31,5.57,1.95,11.03,2.99,16.6
		c2.46,13.16,4.59,53.04,4.33,67.83c2.06-0.72,1.44-2.58,2.27-3.71c1.24,0.62,1.34,2.78,3.61,2.27c-1.44,2.37-3.61,3.3-4.33,5.57
		c-1.75-0.62-1.03-2.99-2.99-3.5c-0.1,2.78-0.62,5.46,2.37,7.11c2.68-0.82,3.09-3.71,4.95-5.36c3.64-3.23,6.93-2.67,6.46-5.87
		c-0.91,0.32-1.42,1.23-2.55,0.81c-3.85-5.33-6.78-1.9-6.39-17.22c1.43-56.85-6.1-42.89-5.77-91.13
		c0.12-17.29,5.06-25.55,5.46-28.45c1.12-7.98,5.64-9.97,4.95-18.45c-0.11-1.34-0.21-2.78-1.44-3.61c-1.21,0.75-0.23,1.94-1.03,2.68
		c-2.42,1.27-25.99,8.25-45.05,7.01c-10.02-0.65-7.31-1.22-24.02-5.26c-2.16-0.52-4.23-1.13-6.08-2.99
		c-0.31-5.05-0.2-10.1,1.65-15.05c5.1-13.69,10.64-19.94,10.69-20.05c3.72-4.31,17.1-11.61,23.02-12.83
		c1.43-0.57,2.43-1.51,3.61-2.37c22.27,0,23.55-0.16,26.91,0.52c33.96,6.81,30.87,5.27,43.19,10.62
		c7.62,3.31,11.87,12.72,11.44,17.22c-1.06,11.1-2.33,13.14-8.45,36.9c-1.17,4.53-1.61,9.15-2.83,13.69
		c1.51-1.77,1.36,0.63,11.6,0.96c6.42,0.58-2.09,0.16,25.36,4.12c2.78,0.4,5.56-0.4,8.35,0.31c44.84,11.42,72.13,0.9,69.79,7.94
		c-2.06,4.9,3.88,57.5,2.78,71.75c-0.94,12.19,1.98,21.27-0.52,24.33c3.02,3.02-0.23,14.13,2.78,20.31
		c0.31,1.96-1.44,1.75-1.24,2.89c0.41,0.52,1.13-0.21,1.55,0.31c-0.14,8.05,1.28,8.33,1.13,8.33c-1.69-0.24-9.44-1.42-13.21-1.42
		c3.71,2.99,13.82,2.21,14.55,2.58c0.61-1.82-0.21-3.92,0.62-5.98c5.69-0.81,10.05-2.12,15.27-3.05c5.06-0.9,6.28-0.6,8.38-1.24
		c3.33-1,1.47-1.83,3.76-1.15c6.57,1.93,13.49,2.02,20.51,3.48c0,18.9,3.73,14.65-2.53,15.52c-11.21,1.56-21.23,7.31-31.8,8.7
		c-10.2,1.35-15.96,4.93-41.54,8.87c-9.88,1.52-20.05,3.35-28.58,8.54c-1.14,0.69-0.06,0.66-9.05-0.38
		c-2.78-0.32-5.99,0.03-8.25-1.24c-2.7-1.51-5.57-2.16-8.35-3.51c0.39-9.47,4.6-6.73,8.12-17.03c0.04-0.1,1.05-3.28,0.95-3.28
		c-0.31-0.1-0.62-0.31-1.34-0.62c-2.27,6.8-6.39,12.78-9.38,19.79c-0.09,0.57,0.47,2.99,1.24,2.99c10.74,2.86,10.63,6.77,25.26,5.98
		c2.98-0.16,8.87-6.08,28.45-8.25c28.86-3.19,34.27-7.71,44.74-8.76c12.55-1.26,22.33-6.94,34.95-8.97
		c3.51-0.56,3.58,7.26,1.13-19.28C800.41,482.37,790.87,483.67,777.36,479.95z M741.59,164.69c2.01,0,4.28-0.19,6.17,0.51
		c-1.37,8.69-0.4,11.31-0.2,11.7c-0.15-0.22-0.83-0.97-2.75-1.37c-1.43-0.3-2.73-0.52-3.64-1.76
		C742.21,170.88,741.48,167.89,741.59,164.69z M726.33,179.33c-1.65,0.09-2.88-0.62-4.33-1.34c0.99-6.23,0.52-13.5,0.93-13.5
		c19.28,0,14.25-0.1,16.29,0.31c-0.62,2.58-0.41,5.26-0.52,8.25C732.58,171.82,732.94,171.07,726.33,179.33z M733.56,187.47
		c1.56-1.56,0.73-2.42-0.22-4.32c2.58-0.93,4.74-0.1,7.01,0.41c0.21,1.03-0.62,2.27,0.72,2.99c0.77-0.33,0.16-1.69,1.03-2.06
		c1.55,1.34,3.71,1.55,5.58,2.57C739.75,189.12,742.99,189.56,733.56,187.47z M750.56,184.8c-7,0-11.34-6.52-18.35-3.09
		c-3.95-1.97-1.88-5.64,1.03-7.32c4.25-0.65,8.02,2.31,12.37,3.4C746.84,180.26,749.83,181.5,750.56,184.8z M747.85,210.05
		c0.15,0-0.91,3.04-0.91,8.77c-7.73,0-6.9,0.04-6.9-0.1c0.36-2.34-0.1-9.38-0.21-9.38C742.72,210.46,745.29,209.34,747.85,210.05z
		 M722.82,209.34c8.8-4.06,3.71-2.26,6.79-6.56c1.4-1.96,0.82-1.95,1.65-0.31c1.61,3.19,3.63,5.23,7.14,5.94
		c-1.11,3.73-1.31,7.34-0.73,10.72c-5.05,0-10,0-15.26,0C723.13,215.69,722.3,212.42,722.82,209.34z M709.94,210.67
		c2.16-0.31,3.8,0.72,5.56,0.41s3.5-1.13,5.36-0.93c0.52,3.61-1.96,7.22,0.82,10.62c9.36,2.17,43.2-0.43,13.59,2.54
		c-5.03,0.5-10.09,0.76-15.23,0.25c-0.72,0.72-0.41,2.06-1.96,3.09c-2.47-0.1-5.67-0.31-8.98-0.51
		C711.57,218.75,709.76,210.67,709.94,210.67z M617.37,133.36c5.48,11.83,12.54,11.19,26.39,21.03c5.45,3.87,9.8,1.53,16.8,3.2
		c16.55,3.93,19.79,13.17,41.03,22.27c-2.39,2.57-9.23,8.39-14.23,7.73c-22.53-2.96-75.24-34.74-75.21-34.86
		c2.32-6.83-12.22-18.52-24.68-36.78C602.24,116.08,613.36,124.71,617.37,133.36z M591.08,131.29c-3.65-5.13-6.49-10.93-10.62-15.77
		c-0.31-0.41-1.34-0.82-0.52-1.75c1.12,0.75,2.01,0.56,5.36,4.85c14.53,18.56,25.01,25.89,22.78,32.58c-9.59,0-8.07-1.03-14.02-1.34
		c-7.18-0.37-4.43-2.52-12.58-6.91C590.5,140.8,596.42,138.8,591.08,131.29z M542.55,42.91c1.23,0,2.34-0.78,3.79-0.78
		c-2.32,2.12-2.51,2.27-4.02,0.98C541.83,42.69,541.92,42.91,542.55,42.91z M532.32,46.88c1.65-0.41,2.06-2.58,3.61-3.5
		c2.71,1.81-0.78,1.93-1.49,3.44c-0.28,0.61-0.16,0.6,0.16,0.78c1.46,0.84,4.6-1.67,4.29-0.73c-0.25,1.13-2.66,1.85-2.01,2.49
		c3.06,3.57,2.87,2.67,2.87,5.14c-1.75,0-2.07-1.23-2.89-2.47c-0.73-1.13-2.16-1.86-3.09-2.99c-0.52,0.52-0.72,0.93-1.03,1.24
		C531.94,49.25,531.96,48.14,532.32,46.88z M530.47,52.43c1.09,3.54,4.88,4.9,5.13,6.19c-2.88,0.08-4.13-2.24-5.75-3.81
		C529.22,54.2,529.13,53.05,530.47,52.43z M528.71,57.38c-2.9-2.32-6.12-6.36-6.39-10c1.34,1.24,2.89,2.47,4.43,3.81
		c-1.6,1.07-1.96,0.75,0.59,2.83C528.49,54.97,529.03,55.86,528.71,57.38z M530.81,64.74c0.38-0.19-0.07,2.23,2.24,5
		c1.11,1.34,1.42,3.31,1.13,5.05C529.83,69,527.38,67.28,530.81,64.74z M526.14,97.79c13.09,6.6,22.37,16.7,29.9,29.79
		c-3.95-2.37-3.44-2.1-4.43-2.68c0.24-4.37-4.93-10.53-9.17-13.09c-1.03-0.62-2.47-1.03-2.68-2.06c-0.41-2.06-2.06-2.78-3.5-3.71
		C524.32,98.34,521.5,100.4,526.14,97.79z M201.83,337.67c-3.3-5.05-7.42-8.97-10.82-14.02
		C198.84,325.61,203.27,331.28,201.83,337.67z M149.77,249.84c-1.17,1.17-2.14,2.11-3.88,1.38
		C144.16,250.5,145.04,250.93,149.77,249.84z M140.26,265.81c-2.79,0.03-4.05-2.25-5.65-3.8c-0.55-0.54-0.7-1.5,0.07-2.13
		c0.71-0.58,0.4,0.52,1.78,2.13C137.49,263.37,140.09,264.9,140.26,265.81z M138.84,251.81c1.1-1.21,1.32-0.11,1.86,0.52
		c-0.93,1.24-2.68,1.13-2.78,2.78c1.71,1.54,3.13-0.97,4.74-0.53c-0.41,1.24-1.96,1.13-2.16,2.47c1.13,1.44,2.99,2.58,3.3,4.95
		c-0.86,0.24-2.13,0.16-2.26-0.61c-0.62-2.16-2.78-2.89-3.81-4.43c-0.62,0-0.69,0.63-0.99,0.85c-0.56,0.56-1.2-1.29-0.77-3.11
		C137.19,254.08,137.91,252.84,138.84,251.81z M132.35,265.1c-3.71-2.99-6.19-7.01-6.39-10c5.19,4.79,5.07,3.26,3.09,4.74
		C129.98,261.7,133.07,262.01,132.35,265.1z M124.1,250.77c-0.87-7.83,1.75-14.13,1.91-13.48c2.15,6.09,5.74,7.94,10.57,11.32
		c-1.13,3.4-3.09,6.19-2.58,9.69C131.57,259.88,133.89,260.96,124.1,250.77z M138.02,282.52c-5.46-6.08-5.98-7.32-3.71-10.21
		C134.1,276.23,138.74,278.3,138.02,282.52z M229.34,399.02c2.18-0.25,4.25-0.48,6.09,0.4c-0.1,4.12-0.93,8.25,0.61,12.17
		c-1.16-1.43-2.9-1.72-4.77-2.35C227.15,407.87,230.69,409.2,229.34,399.02z M221.4,417.27c2.47-1.13,4.54,0,6.39,0.21
		c1.13,1.03-0.1,2.47,1.03,3.2c0.61-0.49,0.28-1.25,0.66-1.77c0.39-0.54-0.75-0.29,6.66,2.08c-5,1.75-9.41,2.57-14.23,0.52
		C223.16,420.03,221.4,418.29,221.4,417.27z M230.59,416.65c-9.69-4.84-9.82,1.97-12.78-2.59c0.97-10.72,11.64-2.54,15.67-2.15
		c1.34,2.47,4.33,3.71,4.85,7.22C235.23,418.71,232.96,417.68,230.59,416.65z M210.9,398.49c16.99,0,15.77-0.05,15.77,0.1
		c0,2.95,0,5.7,0,8.45c-7.06-1.41-6.4-1.44-12.47,6.29c-1.44-0.1-2.78-0.41-4.23-1.34C211.15,399.62,210.18,400.55,210.9,398.49z
		 M120,399.94c25.35,3.71,50.4,4.85,75.75,2.37c0,2.43,0,4.67,0,6.91c0,0.44-0.57-0.16-5.88,4.64
		c-14.99,13.56-20.75,6.12-31.65,5.57c-13.19-0.67-2.32,1.05-35.56-5.36C121.9,408.13,119.76,399.94,120,399.94z M120.46,413.12
		c0.08,0.31,0.93,0.3-15.84-5.87c2.12-6.35,6.54-13.24,10.1-18.45C116.11,396.98,118.29,404.69,120.46,413.12z M110.9,438.48
		c-8.93,0.65-10.71-3.36-32.06-3.5c-1.75-0.01-3.5-0.21-5.15-0.82c-0.62-3.61-1.03-7.11-1.75-10.51
		c-2.53-11.93,3.31-16.55,2.16-28.14c-0.41-4.17,11.45-32.15,14.02-37.73c9.32-20.19,4.41-35.72,22.06-42.78
		c13.28-5.31,15.58-9.34,20.93-1.75c8.43,11.97,15.99,17.87,12.68,30.31c-6.73,25.31-11.93,25.05-20.52,29.24
		c-0.67,0.33-1.18,0.93-2.15,0.25c4.82-10.74,3.82-16.13,4.79-15.79c1.2,0.42,2.1,1.43,3.45,1.05c-0.87-1.45-2.12-2.46-3.61-2.99
		c-0.31-2.16,2.78-2.68,2.16-4.85c-1.78,0.21-2.49,1.61-3.92,2.18c-1.49,4.09-1.53,11.38-3.4,14.12
		c-2.99,4.37-3.61,13.25-7.83,16.49c1.38,3.68-7.88,13.46-10.18,21.9c-0.45,0.91-4.22,0.06-6,1.51c1.44,0.72,2.58,1.73,3.92,1.96
		c8.81,1.49,17.89,8.76,25.46,8.76c1.34,0,2.78,0.21,4.12,0.62c11.34,3.5,41.79,5.1,45.46,6.08c4.88,1.63,18.52-11.46,21.34-13.71
		c0.92,0.92-0.79,1.77,0.52,2.47c7.4-2.05,11.64,3.63,15.26,3.09c2.38-0.36,4.33,0.52,6.08,1.24c1.24,1.75,1.34,3.4,0.72,5.05
		c9.82,5.41,20.88-0.47,20.77-0.58c-1.61-1.55,0.34-3.04-0.77-4.58c-1.04-1.44-2.06-2.78-3.2-4.12c0-1.52-0.93-1.34,1.06-1.34
		c0.77,2.31,3.07,0.73,4.61,1.86c0.31,1.03,0.82,2.16,1.24,3.3c-0.31,1.13-1.34,1.75-1.34,3.2c1.24,1.65,1.75,3.92,2.58,5.98
		c-0.82,1.55-2.47,2.47-2.58,4.33c0.1,0.82,0.93,1.55,0.72,2.58c-0.1,1.24-1.54,1.75-1.75,2.89c-0.2,1.02,0.2,2.04-0.4,3.37
		c0,0.1-1.69,0.1-3.04,2.49c-0.07,0.1-15.5,2.4-17.38-8.56c5.64,4.23,11.89,5.88,18.35,2.99c-0.93-1.24-1.65-0.42-2.37-0.41
		c-10.31,0.16-4.15,1.42-17.73-4.25c-0.84-0.35-0.17,1.84-1.03,2.7c-3.29,4.07-9.34-0.55-14.64,2.47c1.57,1.74,1.84,1.14,11.96,1.65
		c-0.47,2.86-2.87,2.95-10.72,4.33c-4.3,0.75-3.91-1.69-6.82-0.91c-0.74,0.2-0.86,0.43-1.68,0.76c-4.7,1.91-13.52-2.03-17.78-0.99
		c-2.25,0.55-2.57-2.39-11.13-2.68c-6.08-0.21-12.16,0.38-18.25-0.41c-0.82-0.11-1.65,0-2.47,0.1
		C133.69,439.87,120.82,437.76,110.9,438.48z M225.27,453.23c-5.17-0.05-10.22,0.82-15.3,0.31c1.34-3.59,0.21-6.81,0.82-10.1
		c3.21-1.48,5.71-2.06,5.57-3.92c-0.14-1.85,1.44-2.58,2.18-4.43c1.55,4.02,3.81,6.6,7.73,7.53
		C224.78,445.6,225.56,453.24,225.27,453.23z M198.73,459.62c-1.27,1.32-2.42-0.4-0.72-1.86
		C198.22,458.49,198.42,459.11,198.73,459.62z M122.55,536.01c2.16-0.62,4.02,0.32,5.67,0.93c37.38,13.74,67-2.58,69.17-2.58
		c-0.6,5.95-2.3,7.75-3.83,10.21c-4.95,7.91-1.44,8.29-7.08,7.7c-0.51-0.05-0.87-0.09-1.13-0.11c-3.19-0.53-15.87-2.45-57.85-8.41
		c-27.08-3.85-59.23-3.87-82.78-6.6c-42.76-4.95-36.55-3.67-38.45-4.43c-0.53-6.55-2.62-12-2.27-18.76
		c3.92-2.68,8.45-1.97,12.58-2.99c5.46-1.35,11.11-1.54,16.7-0.31c11.72,2.58,51.82-4.81,66.8-0.72
		C108.72,535.83,119.84,529.68,122.55,536.01z M280.28,527.35c-0.62,0.1-1.55,0-2.06-0.41c-2.79-1.94-6.2-1.34-14.02-1.34
		c0-2.38-2.73-0.3,37.83-4.84c-1.9,2.53-2.66,4.36-3.71,7.53C296.33,528.94,286.9,526.34,280.28,527.35z M218.22,473.44
		c22.52-0.64,20.74-1.76,24.33-1.13c11.96,2.1,20.26-0.91,32.68,0.72c16.99,2.24,16.61,0.26,35.05,2.27
		c9.41,1.02,12.76,4.26,29.59,15.26c0,3.66,1.96,6.29,1.96,8.25c-2.78,11.75-2.68,22.89-8.66,32.99c-0.1,0.1-0.92-0.12-1.75-0.31
		c-10.81-2.49-20.73-1.36-30.51-2.99c0.93-2.37,2.36-4.13,3.3-6.08c3.82-8.01,8.25-5.21,8.25-10.31c-2.37,1.44-3.81,3.3-5.67,4.95
		c-2.58,0-4.74,1.85-7.32,2.06c-13.17,1.08-22.96-0.76-35.77,2.06c-10.4,2.29-18.29,2.81-21.2,2.78c-0.24,0-0.11,0.39,0.28-3.5
		c2.77-16.6,2.36-15.63-3.2-26.39c-3.38-6.55-23.3-9.85-27.73-12.06C212.13,477.77,216.77,476.94,218.22,473.44z M202.02,471.69
		c3.92,1.44,8.04,1.75,12.58,2.16c-2.47,2.47-3.45,5.33-4.74,8.35c-0.1-0.02-23.67-4.69-31.75-4.74
		c-12.77-0.09-24.12,0.99-26.4,0.23c-0.07-0.02-0.1-0.03-0.2,0.09c-0.9,1.06-2.36,0.3-2.26,0.3c0.92-0.62,1.64-0.21,2.36-0.41
		c0.1-0.62-0.31-1.13-1.03-1.44c-0.69-0.3-2.28-1.76-1.75-1.24c-10.75,0-30.47-8.95-31.44-8.23c-3.49,2.63,16.1,10.3,28.45,11.22
		c0.73,0,1.61-0.05,1.97,1.03c-4.86,0.97-24.72,3.21-21.24,6.7c7.62-4.11,16.15-3.3,24.18-4.94c0.17-0.17-0.34,0.56-1.71,1.02
		c-20.97,7.03-24.73,25.73-28.05,32.37c-8.05,16.1,8,24.61-11.34,10.41c-2.08-1.53-3.51-3.4-4.23-5.88
		c-2.69-9.27-3.63-18.77-0.72-28.04c9.02-28.81,17.56-21.19,18.14-48.97c0.06,0,0.13,0.01,0.2,0.01
		c15.92,1.01,31.62-0.11,47.33,0.09c3.3,3.2,7.11,2.78,10.93,2.06c4.54,1.55,9.28,1.34,14.02,1.96c0.1,5.77-0.52,11.24-1.13,16.7
		c1.24,1.24,3.2,0.1,4.64,1.34c0.6,2.86,0.52,4.44,0.52,6.19c-12.24,3.76-23.81,4.77-36.49,5.26
		C169.96,477.66,188.83,475.81,202.02,471.69z M207.91,457.67c-1.49,0.75,0.91,4.66-7.11,2.59c-0.93-2.89-0.72-5.67-0.41-8.56
		c12.21-3.06,1.95-1.49-0.21-2.58c-0.01-0.11-0.52-4.18-0.02-4.01c3.07,0.58,5.87-0.78,8.47-1.15c0,12.93-5.07,11.62,21.24,11.85
		c1.63,0.01,2.66-0.28,4.74,0.62C225.33,456.94,216.88,458.8,207.91,457.67z M234.5,453.03c-2.47,0-4.39,0.31-6.91-0.21
		c1.24-2.99-0.21-5.88,0.21-8.66c2.68,0,5.05,0,7.73,0C235.23,447.05,234.92,449.83,234.5,453.03z M245.23,453.03
		c-7.5,0-8.25-0.05-8.35,0.02c0.72-3.2,0.41-6.08,0.72-8.97c1.96-1.13,3.3-2.89,4.85-4.43c-0.62-2.27,0.72-4.02,1.65-5.36
		c0.52-1.44-0.72-2.06-0.41-3.09c1.48-3.39,2.88-3.38,1.55-7.83c-0.31-1.03-0.72-1.96-0.93-2.89c0-1.34,1.24-2.16,1.03-3.5
		c-1.16-4.53-1.39-5.35-4.58-5.42c-1.64-0.04-3.24,0.16-3.24-0.04c1.21-3.9,0.39-7.71,0.39-11.98c3.39,0.11,6.64-0.93,10.21-0.31
		C247.49,417.36,245.43,435.3,245.23,453.03z M254.81,429.63c-2.58,0.31-3.71-0.52-3.92-2.68c-0.47-4.97,4.77-3.72,6.97-3.53
		C255.23,424.7,255.61,427.69,254.81,429.63z M285.02,430.35c2.06-2.78,4.54,1.24,6.8-0.62c3.4,2.27,7.01,3.61,11.13,5.77
		C286.4,435.5,283.91,435.41,285.02,430.35z M676.04,319.78c-2.42-0.02-1.98-1.76-6.53-1.76c-2.15,0,1.4-0.03-8.96-0.03
		c0-2.12-4.6-0.44,37.73-4.85C689.64,324.67,703.84,320,676.04,319.78z M518.71,328.09c9.59,0.74,21.36,9.39,45.26,5.98
		c8.54-1.22,21.24-3.25,29.79-7.53c-0.98,9.47-5.04,9.16-7.32,18.04c-4.56,0.35-17.12-2.11-62.46-8.45
		c-28.38-3.97-60.7-3.95-85.46-7.01c-13.15-1.62-13.03-2.06-35.87-3.81c-0.62-6.6-2.78-12.68-2.37-19.07
		c3.81-1.75,3.81-1.8,7.32-1.86c2.34-0.03,6.64-2.36,14.29-2.29c4.29,0.04,6.04,0.94,13.99,0.94c25.73-0.02,44.69-4.38,60.68-0.92
		c0.62,4.85,2.88,8.77,5.57,12.78C509.21,325.47,517,323.79,518.71,328.09z M574.6,269.65c-35,0.47-23.92,1.07-27.63-1.03
		c-0.72-0.31-1.24-0.93-1.75-1.34c-6.25,0-22.84-5.3-29.79-8.04c-2.49-1.24-3.74,1.62,2.89,4.43c22.41,9.52,25.27,5.08,25.77,7.42
		c-2.26,1.22-12.59,1.75-17.62,3.56c-0.14,0-4.99,1.87-3.52,3.35c3.22-3.22,18.87-3.85,24.33-4.95c-0.1,0-0.37,0.56-1.75,1.03
		c-19.88,6.71-24.34,24.32-28.35,33.09c-7.17,15.7,8.8,24.54-11.85,8.97c-6.22-4.69-6.83-23.56-4.12-33.3
		c2.04-7.34,10.78-24.07,12.06-24.84c6.79-4.67,6.14-29.95,6.6-35.26c1.37-15.91-4.65-30.5-3.21-30.5
		c25.55,3.78,50.45,4.78,75.36,2.35c0,1.12,0.83,11.69,1.03,17.73c0.42,12.7-0.12,29.66,1.86,39.69c0.65,3.29,0.93,6.7,0.93,10.21
		c-11.75,3.61-23.71,4.95-35.77,5.57c13.18,1.78,25.96-0.26,38.66-3.81c1.23,1.22,11.08,1.95,12.38,2.07
		c-2.36,2.46-3.49,5.45-4.73,8.33C606.26,274.47,583.25,269.53,574.6,269.65z M547.78,270.16c-0.6,0.71-1.44,0.68-2.28,0.3
		C546.22,269.92,546.91,270.16,547.78,270.16z M635.73,286.43c-3.45-6.19-27.52-11.75-27.63-11.75c0.21-4.64,4.95-5.57,6.39-8.97
		c7.32-0.21,14.44-0.43,21.55-1.24c2.98-0.34,4.81,1.63,21.44,0.52c13.91-0.93,16.78,1.83,32.68,1.55
		c10.01-0.18,22.3,0.77,30.62,6.19c16.47,10.74,15.37,10.03,15.37,10.36c0,3.12,1.75,5.8,2.05,9.44c-1.13,0-2.7,15.35-4.12,21.03
		c-0.93,3.71-3.3,6.6-3.71,10.41c-4.07,0-5.97-1.28-20.2-2.06c-17.61-0.97-12.89,0.36-9.17-7.83c2.28-5.04,5.43-4.85,6.96-7
		c0.15-0.24,0.53-0.94,0.53-1.04c1.38-3.85-3.44,1.81-5.33,3.3c-2.37,0.21-4.64,1.87-7.22,2.16c-3.71,0.43-7.53,0.56-11.24,0.52
		c-23.02-0.28-27.02,2.94-34.53,3.5c-14.82,1.11-11.75,4.04-9.68-11.76C641.47,296.13,639.45,293.12,635.73,286.43z M750.56,470.04
		c-0.31-1.34,0.1-2.47,0.72-3.3c0.1-1.34-1.44-1.96-0.41-3.4c0.19,0,6.61,2.09,14.54,3.81c1.65,3.81,1.86,6.7,0.82,10.31
		C747.21,484.09,753.98,484.75,750.56,470.04z"/> <path d="M243.89,456.74l0.1-0.1C243.92,456.63,243.89,456.65,243.89,456.74z"/> <path d="M887.87,207.78c-67.08-6.7-53.46-5.42-59.27-6.39c-2.31-2.1-2.52-3.74-6.91-1.03c-1.86,1.15-1.21,0.52-17.22-6.91
		c-1.34-0.62-2.27-1.65-3.4-2.47c-3.71-0.62-6.91,0.41-9.38,2.99c-5.57-0.93-10.93-1.75-15.88-2.58c-1.16-0.58-2.45-3.98-3.81-2.16
		c-0.86,0.39-1.68,0.96-2.16,1.75c1.03,1.65-1.44,2.58-0.52,3.92c-5.01,2.82-5.91-7.12-0.21-6.39c0.93,0.12,1.86,0.52,2.89,0.72
		c-0.21-0.72,0.1-1.65-0.62-2.37c-10.21-5.11-14.3,13.2-1.86,12.58c-0.93,7.73-2.68,15.15-4.33,22.68c-2.89,0.72-5.98,0.1-8.56,1.75
		c0,2.77,9.03,2.68,10.82-1.13c1.69-3.59,4.33-20,3.81-24.33c2.79-3.71,1.2-3.09,6.49-1.86c13.23,3.07,12.82,3.02,14.02,4.02
		c2.43,2.02,5.47,3.07,8.66,3.4c6.5,0.68,13.09,1.03,19.79,0.72c1.44,2.78,3.64,3.97,6.6,2.06c0.43-0.27,67.72,7.1,67.83,7.11
		c2.52,0.31,4.73,0.6,5.26-1.96C900.67,208.31,895.56,208.55,887.87,207.78z M799.39,200.98c-2.38-0.53-3.7-3.83-1.52-5.26
		c1.94-1.26,3.92,1.75,5.88,0c3.26,1.88,7.04,3.53,10.51,5.57C810.18,201.55,801.71,201.5,799.39,200.98z"/> <path d="M122.45,593.22c-9.8-1.42-19.69-2.93-29.69-3.2c-8.62-0.23-10.07-2.37-25.57-2.37c-13.74,0-20.03-4.62-24.64,6.8
		c4.03-0.19,5.11-5.32,11.75-4.43c8.05,1.07,16.08,0.61,24.23,1.13c4.33,0.28,22.84,4.15,40.82,2.99c1.65-0.11,3.2,0.62,4.95,0.1
		C124.1,593.12,123.17,593.33,122.45,593.22z"/> <path d="M728.08,490.96c-0.01,0.07-0.06,0.1-0.02,0.14C728.23,491.19,728.21,491.22,728.08,490.96z"/> <path d="M677.47,502.3l0.1,0.1C677.57,502.31,677.63,502.3,677.47,502.3z"/> <path d="M730.97,186.34c-1.55-1.86-2.99,0-4.43,0.52c-3.92-0.82-7.32-3.2-11.65-3.92c1.34,2.68,4.33,4.02,14.33,7.22
		c0.65,0.65,0.46,2.12,0.21,2.89c0.3,0.9,1.64,0.56,1.55,1.65c0.31-0.21,0.62-0.41,1.13-0.72c4.4,2.93,7.65,5.11,12.37,4.02
		c1.85-0.43,3.61-0.93,5.15,0c2.59-0.69,3.64-3.4-0.1-4.02c-1.55,1.24-3.61,1.85-5.67,2.16c-6.43,0.98-5.56-1.67-10.82-2.99
		c-1.44-1.55-1.24-4.23-3.81-4.85C729.73,187.48,730.97,187.68,730.97,186.34z"/> <path d="M155.33,382.82c20.75,9.8,40.01,2.05,32.47-0.21C180.64,386.62,174.38,383.75,155.33,382.82z"/> <path d="M539.43,32.43c7.32,2.58,14.12,0.52,20.82-2.06c0.21-1.65-1.03-0.52-1.34-1.03c-0.84-1.01,2.43-1.73-2.47-1.24
		c0.31,0.52,1.03,0.21,1.13,0.93c-1.3,1.56-1.44,0.74-23.09-0.93c6.19,2.06,12.27,2.58,18.45,3.2
		C548.51,32.95,543.97,32.64,539.43,32.43z"/> <path d="M143.07,240.15c7.32,2.58,14.12,0.52,20.82-2.06c0.21-1.65-1.03-0.52-1.34-1.03c-0.83-1,2.56-1.7-2.58-1.24
		c5.33,3.2-6.8,1.08-21.85,0c6.19,2.06,12.37,2.68,18.56,3.09C152.24,240.57,147.71,240.26,143.07,240.15z"/> <path d="M368.72,464.88c0.9-2.3,3.09-8.48,3.4-11.96c8.14-2.37,16.7-1.96,24.95-3.71c-8.76,0.31-17.52,0-26.08,2.78
		C371.09,456.53,368.72,460.45,368.72,464.88z"/> <path d="M57.71,573.43c-5.33,0-3.82,5.89-3.71,7.11c1.24,0.31,2.16,0.63,3.2,0.72C63.01,581.79,63.38,573.43,57.71,573.43z
		 M55.34,577.97c-0.23-2.1,0.6-3.2,2.78-3.04c2.08,0.15,2.91,3.37,0.72,4.59c-0.59,0.33-1.08,0.38-1.65,0
		C56.96,578.8,58.41,577.09,55.34,577.97z"/> <path d="M452.74,365.71c-5.46-0.22-3.96,5.69-3.81,7.11c1.13,0.31,2.27,0.62,3.4,0.72C457.59,374.01,458.5,365.95,452.74,365.71z
		 M451.81,370.15c-0.3-0.49-0.84,0.2-1.65-0.1c0.61-2.09,0.97-3.04,2.78-2.78c1.24,0.18,1.83,0.83,1.96,2.06
		c0.21,2.04-0.77,2.04-2.68,2.68C451.5,371.49,452.74,370.66,451.81,370.15z"/> <path d="M571.39,42.33c0.52,0.72-0.41,0.93-0.62,1.55c1.24,1.03,2.78,1.13,4.23,1.65c2.77-0.83,3.01-3.41-0.52-5.67
		c-2.47,0.52-4.95,0.93-7.63,1.96C568.61,43.15,570.15,41.3,571.39,42.33z"/> <path d="M175.02,249.95c0.41,0.82-0.52,0.93-0.72,1.55c1.34,0.93,2.99,1.13,4.33,1.55c4.05-1.62,1.36-3.84-0.52-5.57
		c-2.47,0.82-5.05,0.72-7.53,2.16C172.24,250.77,173.79,248.92,175.02,249.95z"/> <path d="M70.6,577.04c-0.1-1.75-1.45-3.27-3.2-3.61c-2.48-0.48-3.81,0.41-5.36,3.92C65.5,584.28,70.8,580.57,70.6,577.04z
		 M64.92,579.16c-2.03-1.88-0.32-5.01,2.48-4.19c1.56,0.46,1.84,2.14,1.36,3.26C68.09,579.81,65.93,580.11,64.92,579.16z"/> <path d="M462.22,373.55c4.55-0.79,4.35-6.95,0.1-7.73c-2.59-0.47-3.81,0.41-5.26,3.71C458.41,372.72,459.95,373.94,462.22,373.55z
		 M458.82,369.42c0.83-2.37,2.64-2.76,4.07-1.81C466.42,369.94,459.81,375.09,458.82,369.42z"/> <path d="M72.66,578.38c-0.21,1.03-1.13,1.55-0.72,2.47c1.75,0.21,1.86-2.06,3.4-2.16c1.34,0.21,0.31,2.06,1.75,2.47
		c1.34-2.37,0.31-4.95,0.72-7.22C75.87,572.39,68.5,573.18,72.66,578.38z M72.97,575.91c0.92-1.02,1.87-1.11,3.09-0.62
		C76.74,577.67,74.05,577.66,72.97,575.91z"/> <path d="M466.45,367.36c-0.72,1.44,0.41,2.37,1.03,3.3c0.16,0.81-1.74,3.15,0.21,2.47c1.14-0.4,1.34-1.96,2.68-2.06
		c1.34,0.21,0.21,2.06,1.75,2.47c1.24-2.27,0.31-4.85,0.62-7.22C471.57,365.59,467.54,365.18,466.45,367.36z M470.99,368.7
		c0,0.76-1.36,0.94-2.05,0.66c-1.28-0.52-1.45-2.43,2.05-1.79C470.99,368.08,471.09,368.39,470.99,368.7z"/> <path d="M730.96,194.78c0.03,0,0.08,0.01,0.11,0.01C730.96,194.68,730.96,194.65,730.96,194.78z"/> <path d="M716.12,192.42c-0.17,1.85,3.77,2.14,12.16,4.02c1.32,0.3,2.63,0.1,2.68-1.66C722.09,193.76,717.55,191.44,716.12,192.42z"/> <path d="M741.48,201.91c-3.09,0.11-5.15-2.58-8.25-3.09c2.37,4.74,11.65,6.29,17.32,3.09
		C747.26,201.91,744.37,201.81,741.48,201.91z"/> <path d="M170.9,242.94c2.27,0.21,4.73,0.26,7.11,0.82c2.36,0.56,3.81,2.89,6.29,3.81C182.45,242.32,176.16,240.36,170.9,242.94z"/> <path d="M580.26,40.37c-0.31-5.26-7.32-7.63-13.2-4.95C572.11,35.01,576.55,36.35,580.26,40.37z"/> <path d="M588.71,161.5c1.86,3.92,6.6,4.12,12.27,1.03C596.85,161.7,592.83,163.25,588.71,161.5z"/> <path d="M521.6,146.65c-1.75-1.34-5.98-2.27-10.31-2.27C513.55,145.86,520.9,149.79,521.6,146.65z"/> <path d="M226.15,524.88c1.65-1.96,1.79-2.49,0.31-6.39c-0.71-1.86-0.82-4.02-2.58-5.88C221.52,517.34,227.55,519.66,226.15,524.88z
		"/> <path d="M518.4,25.11c-3.97,4.61-3.94,15.14-2.89,21.65C515.52,29.35,517.05,31.87,518.4,25.11z"/> <path d="M525.21,26.15c1.13,4.23,6.49,9.59,10.82,10.62C532.12,33.46,528.2,30.27,525.21,26.15z"/> <path d="M119.15,254.38c0-18.53,1.81-15.18,2.89-21.65C118.06,237.34,118.1,247.87,119.15,254.38z"/> <path d="M128.84,233.66c0.93,4.12,6.19,9.48,10.82,10.62C134.77,240.16,132.2,238.14,128.84,233.66z"/> <path d="M530.98,16.35c7.53,1.26,6.8,1.54,2.27-0.72c2.47-1.24,4.95-1.65,8.04-2.27C537.27,13.26,533.87,13.26,530.98,16.35z"/> <path d="M540.77,150.67c2.37,1.44,4.95,1.65,7.73,1.75C545.31,150.47,544.07,150.16,540.77,150.67z"/> <path d="M144.82,221.08c-3.92-0.21-7.22-0.1-10.21,2.99C142.73,224.75,130.64,223.71,144.82,221.08z"/> <path d="M550.57,83.15c-0.41-2.47-1.13-4.85-2.27-7.01C545.82,75.73,548.76,81.24,550.57,83.15z"/> <path d="M154.3,290.77c-0.62-2.47-1.13-4.85-2.58-7.22C150.9,285.82,151.62,287.78,154.3,290.77z"/> <path d="M557.27,102.02c0,0.52,0.41,0.82,0.93,0.93c0.41-3.61-1.34-6.6-3.2-9.59C555,97.68,557.02,97.62,557.27,102.02z"/> <path d="M159.05,303.76c1.34,2.16,1.55,4.74,2.68,6.91c0.52-3.71-1.24-6.7-2.99-9.59C158.74,301.69,158.77,303.21,159.05,303.76z"/> <path d="M231.21,541.89c0.21-2.58-1.24-4.12-3.4-5.77C228.63,538.59,228.84,540.86,231.21,541.89z"/> <path d="M224.4,505.7c-1.86,1.96-1.55,4.43-2.06,6.7C223.99,510.45,225.23,508.38,224.4,505.7z"/> <path d="M542.84,61.2c0,2.37,1.55,3.61,3.2,4.74C545.72,63.88,544.9,62.12,542.84,61.2z"/> <path d="M207.6,402.62c-2.27-1.03-4.54-2.16-7.63-1.24C202.65,403.03,205.23,402.31,207.6,402.62z"/> <path d="M149.87,273.55c-0.72-1.86-1.34-3.61-2.68-4.95C144.51,268.9,147.48,272.36,149.87,273.55z"/> <path d="M191.11,525.08c2.27,0.93,3.2,3.09,5.57,2.37C195.74,525.08,193.99,524.77,191.11,525.08z"/> <path d="M516.55,135.52c-2.78-1.96-4.85-3.4-7.32-5.15C510.98,133.25,512.12,134.08,516.55,135.52z"/> <path d="M367.9,452.51c-1.86-1.13-2.58-1.24-5.57-1.24C364.19,452.61,365.94,453.13,367.9,452.51z"/> <path d="M686.64,193.66c1.03,0.72,1.96,1.55,3.3,0.72C688.7,192.42,688.7,192.42,686.64,193.66z"/> <path d="M440.27,443.54c2.06,0.62,3.92-0.31,6.39-0.62C443.98,442.31,442.22,443.54,440.27,443.54z"/> <path d="M712.93,200.16c1.55-1.13,1.55-1.13,1.44-3.2C713.03,197.58,712.93,198.71,712.93,200.16z"/> <path d="M185.74,524.05c-1.34-0.93-2.37-1.24-3.61-1.03C183.17,524.67,183.17,524.67,185.74,524.05z"/> <path d="M538.92,116.86c-1.13-2.06-1.13-2.06-3.92-2.68C536.24,115.42,537.37,116.14,538.92,116.86z"/> <path d="M556.13,19.75c1.34,1.13,2.58,2.37,4.43,2.58C559.43,20.79,557.68,20.37,556.13,19.75z"/> <path d="M147.5,380.04c1.03,1.03,1.65,2.16,3.3,1.65C150.08,380.25,149.15,379.94,147.5,380.04z"/> <path d="M159.87,227.37c1.24,1.24,2.58,2.37,4.43,2.58C163.17,228.4,161.42,227.99,159.87,227.37z"/> <path d="M158.63,301.08c0.21-1.86-0.52-3.4-1.86-5.15C156.37,298.4,157.6,299.74,158.63,301.08z"/> <path d="M553.25,88.72c-0.62,1.96,0.62,3.3,1.65,4.74C555.1,91.61,554.18,90.16,553.25,88.72z"/> <path d="M463.46,439.73c2.06,0,4.23,0,6.29,0C467.69,439.32,465.52,438.39,463.46,439.73z"/> <path d="M167.91,320.25c-0.82-1.24-1.44-1.96-2.99-2.27C165.33,319.74,166.26,320.15,167.91,320.25z"/> <path d="M606.54,163.56c-1.65-0.93-2.68-1.34-4.43-0.52C603.66,164.08,604.79,163.77,606.54,163.56z"/> <path d="M561.7,110.47c-0.1,0.31-0.41,0.72-0.31,0.82c0.52,0.82,1.24,1.24,2.58,1.13C563.35,111.3,562.73,110.68,561.7,110.47z"/> <path d="M420.78,441.07c1.55,0.93,2.37,1.34,3.81,0.93C423.57,440.97,422.53,440.86,420.78,441.07z"/> <path d="M563.04,26.66c-1.44,0.62-2.78,0.41-3.92,1.13C560.46,28.1,561.91,28.41,563.04,26.66z"/> <path d="M166.57,234.59c-1.24,0.31-2.58,0.1-3.71,0.93C164.92,235.72,164.92,235.72,166.57,234.59z"/> <path d="M463.56,439.83c-1.65,0-3.2,0-4.85,0C460.37,440.14,462.02,440.86,463.56,439.83z"/> <path d="M455.52,440.76c-1.03,0-2.06,0-3.09,0.1C455.99,440.86,455.52,440.91,455.52,440.76z"/> <path d="M124.2,229.33l-0.1-0.1C124.06,229.47,124,229.41,124.2,229.33z"/> <path d="M122.04,232.73c1.19-0.79,1.79-1.97,2.02-3.33C122.73,230.04,122.14,231.24,122.04,232.73z"/> <path d="M576.65,130.37c-0.41-0.82-0.93-1.24-1.96-1.03c-0.31,0.72,0.41,0.93,0.72,1.24C575.82,130.88,576.24,130.78,576.65,130.37
		z"/> <path d="M180.38,338.19c-0.52-0.93-1.03-1.44-2.27-1.03C178.63,337.98,179.15,338.6,180.38,338.19z"/> <path d="M224.2,531.78c0,1.34,0.41,1.96,1.65,2.47C225.95,533.02,225.54,532.3,224.2,531.78z"/> <path d="M610.77,164.18c-0.52-0.72-1.03-0.93-1.75-0.93C609.02,163.49,608.43,164.96,610.77,164.18z"/> <path d="M164.3,229.95c0.62,1.03,1.44,1.55,3.09,1.13C166.16,230.57,165.44,229.84,164.3,229.95z"/> <path d="M144.61,378.29c-0.1-1.55-0.82-1.96-2.16-2.16C142.76,377.46,143.48,377.77,144.61,378.29z"/> <path d="M563.76,23.36c-1.24-0.52-2.06-1.24-3.09-1.13C561.29,23.26,562.11,23.77,563.76,23.36z"/> <path d="M221.72,529.93c-0.52,1.44,0.31,1.34,1.34,1.24C222.75,530.34,222.44,529.93,221.72,529.93z"/> <path d="M472.74,439.52c0.52,0,1.13,0,1.75,0C473.97,438.9,473.36,439.21,472.74,439.52z"/> <path d="M124.1,229.12l0.1,0.1C124.2,229.09,124.22,229.15,124.1,229.12z"/> <path d="M679.94,191.5c0.21,0.72,0.52,1.24,1.34,0.41C680.97,191.08,680.46,191.19,679.94,191.5z"/> <path d="M504.39,140.78c0.52,1.13,1.03,1.24,1.75,0.93C505.93,140.78,505.42,140.57,504.39,140.78z"/> <path d="M742,193.25c-0.82,0.52-0.52,1.13-0.1,1.75C742.51,194.49,742.62,193.87,742,193.25z"/> <path d="M714.27,189.54c1.34,0.31,1.24-0.31,1.24-1.24C714.58,188.3,714.58,188.92,714.27,189.54z"/> <path d="M233.47,510.14c-0.31-0.1-0.62,0-0.82,0.41C232.93,512.23,234.55,511.21,233.47,510.14z"/> <path d="M674.27,189.54c-0.1,0.62,0.21,0.72,0.72,0.72C675.44,190.26,675.07,189.06,674.27,189.54z"/> <path d="M627.12,351.78c-1.49,2-1.61,4.28-1.61,6.56C626.09,355.19,626.78,353.1,627.12,351.78z"/> <path d="M622.63,379.73c-3.78,24.96-12.21,37.6-11.34,55.56c0.4,8.25-1.46,20.4-0.72,32.37c0,0.48,0.1,1.13-0.21,1.44
		c-4.52,1.65-10.19,0.02-12.27,5.36c0.11,2.34,1.68,4.51,1.68,5.06c0-0.41-0.84-2.4-1.06-3.36c-0.44-1.95,7.07-2.66,9.58-3.14
		c1.13,0.52,0.72,1.55,1.24,2.16c0.52,0.41,1.03,0.41,1.65,0.1c0.49-0.39-0.55-2.43,1.24-1.24c1.79,1.49-1.57,1.72,0.21,7.63
		c-4.43,1.65-9.9,0.62-13.2,4.74c0.21,1.55,1.13,1.55,1.86,1.96c0.28-1.66,10.4-3.32,12.06-3.61c0.35-0.08,0.77,0.05,0.96,0.67
		c0.21,0.71,0.82-0.03-13.02,2.94c0,0.93-1.35,1.45-0.52,2.58c0.61,0.83,1.45,0.64,2.27,0.52c14.93-2.24,14.58-3,15.05-1.24
		c-3.81,1.24-8.14,0.52-11.96,2.89c2.06,3.4,5.15,0.93,7.53,1.96c0.52,0.41-0.1,1.55,0.72,2.06c3.61,1.86,7.01,0.62,10.51-1.24
		c4.23,1.34,6.6,5.77,10.62,6.91c1.13,3.92,2.27,7.53,3.3,11.13c-2.99,0.31-4.43-1.96-6.8-2.58c-2.89,0.52-5.36,1.86-7.53,4.33
		c3.3,0.93,5.05-2.06,7.94-2.27c1.13,0.72,2.58,1.44,4.02,2.27c-4.85,1.86-14.43,3.4-20.51,3.4c-0.31-0.52,0.21-1.24-0.93-1.86
		c-2.99,1.24-6.6,1.23-10.21,1.34c-12.02,0.37-14.34-10.27-16.91-10.1c-0.82,1.24,0.41,1.86,0.52,2.78
		c-0.41,0.82-1.44,1.34-1.13,2.47c-6.6-0.72-6.6-0.72-10.31-7.53c2.47-3.4,2.47-8.25,6.19-11.85c0.41-1.03,0.09-2.68,0-4.33
		c-0.43-8.31,2.99-3.84,2.99-13.92c-0.93-0.1-1.24,0.31-1.34,0.72c-0.21,2.58-1.67,4.52-2.99,6.6c-2.66,4.18-0.04,6.43-3.81,13.71
		c-1.55,2.99-2.16,6.39-4.02,9.07c0.62,2.06,1.72,3.62,2.37,5.36c1.77,4.76,6.18,3.71,11.13,6.19c5.91-3.49,6.06,4.26,16.8,3.71
		c5.33-0.27,8.08,1.56,20.2-0.31c4.94-0.76,9.79-2.18,14.74-3.3c0.93-0.21,1.75-0.62,2.37-1.34c-1.34-4.85-2.58-9.69-3.92-14.64
		c-3.2-1.65-5.97-4.14-8.97-6.49c-5.03-3.94-7.76-9.57-11.44-14.43c-3.86-5.1,3.22-5.27-4.33-10.31c0-5.36-0.05-10.72,0-16.08
		c0.02-2.58,1.13-5.26-0.62-7.73c-0.05-0.11,0.59-16.17,0.82-19.69c0.46-7.04,6.01-24.73,6.08-24.95c5.42-1.35,7.73,1.17,32.78,4.64
		c11.34,1.57-0.16-2.03,33.71,4.74c3.12,38.2,3.11,14.04,4.23,37.52c-0.93,0.31-1.44-0.93-2.68-0.41c-1.86,4.02-4.02,8.14-2.99,13.2
		c-3.09,4.54-4.33,10.21-7.42,15.26c-0.1,1.13,1.96,1.96,0.62,3.5c14.17,11.07,25.27,5.51,39.38,5.36c3.24-0.03,2.59,0.9,8.25,2.78
		c0.19,0.62,0.33,1.23,0.46,1.85c-2.33,0.32-17.05,4.59-45,9.49c-1.22,0.21-2.82,0.22-2.98,2.18c1.21,0.08,2.41-0.11,3.6,0.61
		c1.49,0.9,3.45,0.99,4.64,0.52c-1.58-0.66-4.1-1.6-4.23-1.65c30.59-4.46,23.69-5.28,35.15-7.01c2.78-0.42,5.46-1.15,8.25-1.86
		c1.2-0.31,2.49-0.41,3.04-1.83c-0.28-0.16-0.56-0.29-0.85-0.36c0.03-0.14,0.07-0.3,0.07-0.47c-0.08-6.85,0.95-4.58-1.24-5.67
		c-3.9-2.81-8.54-2.42-13.92-1.44c-10.16,1.84-24.31,1.5-30.82-6.39c3.3-4.85,4.95-10.51,7.53-15.77c-1.12-3.62,0.4-6.76,1.75-10.31
		c1.65,1.96,3.27,3.52,4.23,5.77c2.25,5.29,8.24,5.3,8.61,5.11c11.14-10.16,11.31-9.31,14.6-11.5c0.72-1.44-0.52-2.06,0.21-2.99
		c1.38,1.8,3.82,2.33,5.13,4.01c0-0.08-0.33-3.08-0.39-3.61c0-0.43-4.39-4.58-7.63-6.49c-1.24-3.4-1.34-18.25-0.1-23.92
		c3.61,5.05,4.63,8.95,3.09,4.12c-0.33-1.03,0.82-1.65,0.1-2.68c-2.16-0.62-3.42-3.04-5.67-3.81c-5.61-1.93-11.23-3.94-17.22-4.54
		c-8.5-0.84-75.19-12.15-75.46-12.27c1.18-10.62,5.46-15.63,5.46-39.54c-0.49,2.59-0.78,5.23-0.72,7.9
		C624.89,370.76,623.31,375.19,622.63,379.73z M624.27,493.54c-1.03,0-1.86,0-2.69,0C622.43,493.34,623.19,492.21,624.27,493.54z
		 M712.62,416.02c-0.87,5.79-2.2,25.32,1.96,29.48c-2.47,6.19-7.63,9.69-12.16,13.71c-1.96-0.31-3.3-1.13-4.85-2.27
		c0-1.86-1.86-2.89-2.58-4.74c-0.47-28.03-0.23-2.68-2.89-40.93C699.12,411.69,705.92,413.03,712.62,416.02z"/> <path d="M718.7,460.35c2.63,2.25,3.89-0.12,5.48-1.07c0-0.08-0.65-6.1-0.66-6.17C722.24,455.54,719.44,458.12,718.7,460.35z"/> <path d="M724.59,462.98c-0.13-1.18-0.01-0.89-0.22-0.47C724.68,463.27,724.59,463.19,724.59,462.98z"/> <path d="M727.37,485.06c0.27,0.09,1.25-3.18,0.61-5.23c-1.68-5.34-1.37-11.12-3.38-16.7c0.41,4,0.71,8,1.22,11.96
		C726.27,478.62,727.37,474.36,727.37,485.06z"/> <path d="M724.47,459.11c-0.36,0.2-0.33-0.19,0.02,2.96C724.5,462.33,725.17,460.59,724.47,459.11z"/> <path d="M719.1,423.81c3.13,10.91,3.46,23.18,3.93,23.65C722.71,430.71,718.34,421.16,719.1,423.81z"/> <path d="M675.41,334.27c-6.8,0-13.5,0-20.2,0c15.46,3.14,17.77-0.4,18.76,2.58C674.89,336.33,674.99,335.41,675.41,334.27z"/> <path d="M641.21,344.14c0.13,1.13,0.08,0.75,0.9,0.75c0.41-3.71,0.72-7.42,1.13-11.03c1.13-0.93,2.47,0.1,3.5-0.72
		c-0.92-0.92-2.98-0.3-3.2-2.47c-1.09,0.39-1.9,1.79-3.09,1.55c2.89,2.17,0.95-0.58,1.13,6.94
		C641.65,341.4,641.03,342.55,641.21,344.14z"/> <path d="M723.03,338.29c5,1.67,18.34-0.7,7.56-0.7C727.79,337.59,724.65,337.84,723.03,338.29z"/> <path d="M637.56,328.7c0.49,1.47-2.61,0.59,10.21,1.75C643.7,327.91,637.78,328.7,637.56,328.7z"/> <path d="M711.55,339.48c8.48,0.17-0.31-0.59-10.06-1.7C704.73,338.7,708.1,339.41,711.55,339.48z"/> <path d="M690.15,336.02c-2.47-0.85-4.89-1.63-7.42-1.72C675.61,334.06,685.71,336.42,690.15,336.02z"/> <path d="M673.86,346.85c0-1.49,0.1-0.71,0.1-9.9C672.86,340.05,672.4,344.16,673.86,346.85z"/> <path d="M756.43,340.56c0.52,3.71,1.13,7.32,1.65,11.03C758.66,347.69,757.54,344.34,756.43,340.56z"/> <path d="M716.43,354.37c0.29,0,0.21,0.47,0.21-4.43C716.36,349.66,716.43,350.03,716.43,354.37z"/> <path d="M742.72,343.14c0-3.46,0.15-3.09-0.41-3.09C742.64,343.37,742.29,343.14,742.72,343.14z"/> <path d="M655.61,331.9c-0.3-0.32-0.63-0.4-0.82,0c0.21,0.93,0.93,0.62,1.55,0.62C656.4,331.89,655.96,332.02,655.61,331.9z"/> <path d="M279.04,541.99c-4.16,0-9.14,0-20.22,0c16.58,3.37,18.76-0.71,18.76,2.58C278.53,544.05,278.67,543.02,279.04,541.99z"/> <path d="M246.88,541.63c0.99-0.63,3.6-0.13,3.36-0.62c-0.98-1.17-3.05-0.61-3.05-2.73c-1.11,0.73-1.86,1.68-2.89,1.34
		c-0.21,1.03,0.82,0.72,1.13,1.55c-0.21,3.61-0.41,7.53-0.72,11.44C246.77,550.55,246.5,541.87,246.88,541.63z"/> <path d="M326.77,546.53c3.92,0,7.83,0.52,11.75-1.03C325.07,545.5,326.77,545.15,326.77,546.53z"/> <path d="M241.31,537.35c3.3,0.31,6.7,0.52,10.21,0.82C248.75,536.32,244.29,535.81,241.31,537.35z"/> <path d="M305.22,545.39c4.33,1.34,8.87,1.96,13.4,2.27C318.09,546.59,321.82,547.32,305.22,545.39z"/> <path d="M293.78,543.74c-3.2-1.24-6.49-2.16-10-1.55C286.98,543.33,290.27,544.05,293.78,543.74z"/> <path d="M277.59,554.46c0-3.3,0-6.6,0.1-9.9C276.63,547.25,276.14,551.55,277.59,554.46z"/> <path d="M360.06,547.97c1.63,10.05,1.62,13.52,1.78,9.77C361.99,554.36,361.25,551.15,360.06,547.97z"/> <path d="M320.07,557.45c0,1.55,0,3.09,0,5.46C320.48,560.55,320.38,559,320.07,557.45z"/> <path d="M345.94,547.76c0.1,1.03,0.1,2.06,0.31,3.71C346.66,549.72,346.46,548.59,345.94,547.76z"/> <path d="M258.42,539.62c0.26,0.53,0.63,0.79,1.75,0.41C259.55,539.72,259.14,539,258.42,539.62z"/> <path d="M287.8,560.03c0,0.62,0,1.03,0,1.44C288.11,561.06,288.11,560.65,287.8,560.03z"/> <path d="M730.14,499.93c-0.41,0-0.93,0.1-1.24,1.03c10.22-0.52,20.28-1.43,30-4.64C757.14,494.81,759.64,496.89,730.14,499.93z"/> <path d="M765.92,492.2c6.13-0.85,13.08-1.76,17.63-3.61C763.06,491.42,765.92,491.03,765.92,492.2z"/> <path d="M701.07,508.37c-2.35,2.84-3.02,6.27-3.43,9.94C696.75,526.18,699.79,511.81,701.07,508.37z"/> <path d="M703.75,506.73c2.06,0.31,3.72-0.99,5.67-1.44C723.35,502.09,708.97,503.36,703.75,506.73z"/> <path d="M787.98,487.05c2.07,0.55,2.38,0.68,4.49,0.11C793.15,486.98,793.91,487.05,787.98,487.05z"/> <path d="M695.51,505.39c-0.31-1.03-1.03-1.03-2.16-0.72C693.96,505.39,694.58,505.7,695.51,505.39z"/> <path d="M623.04,316.33c0,0.1,0.41,0.21,0.93,0.52c0-4.09-1.98-8.13-3.5-11.55C617.78,308.97,622.92,311.1,623.04,316.33z"/> <path d="M594.06,463.85c1.58-3.15,0.59-8.86,1.44-12.27C594.37,453.75,593.75,459.21,594.06,463.85z"/> <path d="M623.86,328.19c1.19,2.72,1.36,4.56,3.09,6.29C629.78,333.91,626.22,329.87,623.86,328.19z"/> <path d="M618.3,304.89c2.37-2.06,3.09-4.12,2.47-7.53C618.91,299.94,619.12,302.42,618.3,304.89z"/> <path d="M594.38,474.37c1.03-2.68,0.82-4.64-0.31-7.11C593.84,469.63,592.48,471.62,594.38,474.37z"/> <path d="M587.89,317.47c1.65,1.03,2.78,2.58,4.85,2.27C591.91,317.47,590.26,316.95,587.89,317.47z"/> <path d="M582.01,316.23c-1.45-0.67-2.46-1.21-4.12-0.52C579.43,316.82,580.42,317.63,582.01,316.23z"/> <path d="M592.52,422.62c0.41,0.41,0.31,0.11,0.31-4.64C592.42,417.98,592.52,417.27,592.52,422.62z"/> <path d="M622.52,326.44c-0.52-1.13-0.62-1.96-1.96-2.16C620.56,325.61,620.98,326.23,622.52,326.44z"/> <path d="M619.12,323.55c0.23-1.02-0.46-1.16-1.34-1.55C617.78,323.34,618.3,323.65,619.12,323.55z"/> <path d="M629.12,302.42c-0.41,1.03,0,1.34,0.72,1.44C630.56,302.93,630.15,302.62,629.12,302.42z"/> <path d="M549.85,265.72c-0.9-1.19-1.04-2.91-2.37-3.71c-0.72,1.24,0.72,2.16,0.21,3.5c-0.48,0.57-1.59,0.14-2.35,0.39
		c-0.78,0.21-0.68,1.2,0.15,1.31c5.09,0.68,12.23-0.44,11.28-0.59C554.47,266.28,552.16,266.02,549.85,265.72z"/> <path d="M581.97,244.76c0.79-0.09,1.73-0.52,3.13-1.31c-1.24-1.34-0.82-3.3-1.86-4.64c-0.83-0.83-1.06,2.13-1.96,3.3
		c-0.39,0.51-1.77,0.33-2.13,1.46C579.09,243.77,580.66,244.91,581.97,244.76z"/> <path d="M521.19,282.73c4.64-1.34,8.76-4.02,13.92-6.08C531.81,276.65,524.18,280.15,521.19,282.73z"/> <path d="M516.49,285.45c1.85-0.42,3.41-1.24,4.7-2.72C519.18,283.04,517.73,283.97,516.49,285.45z"/> <path d="M516.34,285.61c0.18-0.22,0.24-0.19-0.1-0.1L516.34,285.61z"/> <path d="M543.56,255.31c-0.46,0.9,0.16,1.44,1.03,1.96C544.95,256.16,544.63,255.66,543.56,255.31z"/> <path d="M516.34,280.05c1.6-0.39,2.96-1.31,4.12-2.47c-1.65,0.31-3.2,0.82-4.33,2.16c-0.82,0.1-1.44,0.52-1.96,1.34
		C515.47,281.51,516.27,279.92,516.34,280.05z"/> <path d="M516.18,285.63c-0.73,0.07-1.03,0.56-1.38,0.91C516.02,286.37,516.6,285.55,516.18,285.63z"/> <path d="M730.56,290.45c-1.03-1.63-0.54-3.96-2.16-5.25C726.23,286.75,726.85,288.5,730.56,290.45z"/> <path d="M726.12,282.52c-2.58,1.96-3.5,4.23-5.36,6.08C723.65,287.57,724.89,286.23,726.12,282.52z"/> <path d="M715.92,290.77c-0.31-0.03-0.6-0.07-0.82-0.06C714.05,290.74,714.39,292.54,715.92,290.77z"/> <path d="M493.46,314.79c-13.8-0.77-19.98-1.01-36.9-2.58C458.02,313.67,482.56,315.42,493.46,314.79z"/> <path d="M412.74,307.06c10.1-0.1,20.1,2.16,30.2,1.44C432.84,308.6,422.84,306.13,412.74,307.06z"/> <path d="M456.45,312.31c-0.51-0.38-1.01-0.48-1.55-0.46C452.15,311.95,455.65,312.11,456.45,312.31z"/> <path d="M461.71,321.39c0.41-0.52,0.41-1.03,0.1-1.75C461.29,320.25,461.4,320.77,461.71,321.39z"/> <path d="M653.55,166.76c-1.65-3.4-3.3-5.67-6.91-5.98C647.16,162.84,647.16,162.84,653.55,166.76z"/> <path d="M601.7,127.58c1.18,0.07,1.13-0.4,1.13-1.44C602.01,126.24,601.6,126.55,601.7,127.58z"/> <path d="M655.51,169.75c-0.31-0.41-0.52-0.72-0.72-0.93C653.63,168.05,653.25,170.5,655.51,169.75z"/> <path d="M718.91,215.72c-3.69-0.68-6.23-1.07-7.63,1.34C713.86,217.47,716.23,217.06,718.91,215.72z"/> <path d="M527.79,48c-2.37-2.37-3.81-5.36-5.46-8.25C523.04,43.26,524.59,46.14,527.79,48z"/> <path d="M217.07,424.15c0.92,0.62,0.1,2.25,0.1,2.78c0.12,0.78,1.14,0.43,1.14,1.35c0.05,0,1.5-0.11,1.87-0.11
		c1.34,0.82,2.68,1.86,4.23,2.68c6.91,3.65,9.11-0.67,13.4,1.13c4.06-1.56,0.61-4.94-1.24-3.71c-2.37,1.96-5.26,1.84-8.04,2.06
		c-3.05,0.24-4.86-3.3-7.73-3.3c-1.22-1.72-1.8-4.16-4.03-5.05c0.41-0.93,1.75,0,1.86-1.34c-1.23-1.53-1.19-1.57-4.43,0.1
		c-3.81-0.7-7.39-3.11-11.66-3.92C203.99,419.67,204.29,419.71,217.07,424.15z"/> <path d="M203.89,426.74c0,1.78,8.71,2.99,12.37,3.81c0.93,0.21,1.86,0,2.47-0.93c0-0.05-0.39-1.16-0.4-1.22
		C214.6,429.44,205.41,425.22,203.89,426.74z"/> <path d="M218.35,428.39h-0.03C218.34,428.41,218.55,428.39,218.35,428.39z"/> <path d="M177.09,436.64c-2.06-1.34-4.12-0.1-5.98,0C173.97,437.9,174.65,438.02,177.09,436.64z"/> <path d="M122.55,349.22c-2.47,0.41-3.81,2.47-5.77,3.61C119.36,352.52,121.21,351.28,122.55,349.22z"/> <path d="M178.22,428.29c-1.03-1.96-2.37-1.24-3.92-1.44C175.33,428.6,176.36,429.11,178.22,428.29z"/> <path d="M90.91,409.32c1.55-0.31,2.58-0.41,3.71-1.86C92.76,407.67,91.83,407.87,90.91,409.32z"/> <path d="M202.24,431.17c-1.13,1.34-1.13,1.34-0.93,2.99C202.75,433.44,202.34,432.31,202.24,431.17z"/> <path d="M165.24,435.67c-0.77,0.01-1.08,0.15-1.25,0.97C166.06,437.82,166.67,435.65,165.24,435.67z"/> <path d="M135.13,344.99c-1.24-0.52-1.75,0-2.47,1.24C134.2,346.44,134.82,346.02,135.13,344.99z"/> <path d="M108.64,355.82c-1.58-0.7-2.43-0.46-3.4,0.52C106.57,356.85,107.19,355.92,108.64,355.82z"/> <path d="M229.97,426.94c-0.95,0.84-0.8,1.38-0.21,1.97C230.65,428.42,230.42,427.82,229.97,426.94z"/> <path d="M158.99,436.61c0.99,0.51,1.52-1.65-1.18-1C157.71,436.32,158.34,436.34,158.99,436.61z"/> <path d="M151.92,436.02c-0.93-0.82-1.75-0.62-2.78-0.41C149.99,436.46,150.84,436.4,151.92,436.02z"/> <path d="M203.27,422.31c-0.93,0.21-1.03,0.72-0.93,1.55C203.27,423.65,203.58,423.34,203.27,422.31z"/> <path d="M111.21,355.09c0.37-0.09,0.61-0.41,0.41-1.03C110.46,353.73,109.46,355.55,111.21,355.09z"/> <path d="M333.88,498.28c-0.21-1.96-0.41-4.02-1.86-5.57C329.26,493,331.02,496.27,333.88,498.28z"/> <path d="M328.83,491.06c-0.61,0.38-4.04,4.96-4.12,5.06C328.8,494.34,331.29,489.5,328.83,491.06z"/> <path d="M319.55,498.49c-0.82-0.1-1.34-0.21-1.44,0.62C318.73,499.52,319.04,499.11,319.55,498.49z"/> <path d="M151.31,469.73c-0.72,1.24,0.72,2.16,0.31,3.4c-0.72,0.93-1.94,0.02-2.89,0.72c-0.43,0.32-0.63,1.02,1.54,1.22
		c3.44,0.31,6.89-0.07,10.41-0.7c-1-0.15-6.95-0.84-7.07-1.02C152.8,472.15,152.67,470.63,151.31,469.73z"/> <path d="M188.84,451.07c-1.24-1.44-1.13-3.2-1.65-4.85c-0.31,0-0.52,0-0.82,0c-0.3,0.99-0.76,2.1-1.03,2.99
		c-0.52,1.03-2.27,0.62-2.58,2.27C184.84,453.04,186.69,452.61,188.84,451.07z"/> <path d="M124.92,490.45c4.64-1.34,8.76-3.92,13.09-6.19C133.17,485.5,128.74,487.35,124.92,490.45z"/> <path d="M124.92,490.34c-1.96,0.1-3.09,1.55-4.43,2.58C120.77,492.65,123.47,492.28,124.92,490.34z"/> <path d="M123.69,485.6c-1.75,0.1-2.89,0.82-3.81,1.86C120.44,488.02,122.24,486.93,123.69,485.6z"/> <path d="M147.08,462.81c-0.06,0.85,0.06,1.58,0.83,1.97C148.22,463.85,148.22,463.85,147.08,462.81z"/> <path d="M118.32,488.84c0.87,0.01,1.31-0.55,1.76-1.19C119.49,487.06,117.21,488.83,118.32,488.84z"/> <path d="M60.19,519.93c3.31,2.6,44.69,3.01,35.76,2.52C68.56,520.94,86.77,521.97,60.19,519.93z"/> <path d="M16.27,514.36c3.5,0.72,26.18,2.06,30.2,1.75C36.48,516.22,26.58,513.85,16.27,514.36z"/> <path d="M65.24,529c0.62-0.52,0.41-1.03,0.21-1.55C64.93,527.87,65.13,528.49,65.24,529z"/> <path d="M57.92,519.72c0.82,0.1,1.55,0.1,2.27,0.21C59.57,519.41,58.85,519.31,57.92,519.72z"/> <path d="M131.42,255.63c-1.96-2.06-3.4-4.64-4.95-7.01C127.12,251.85,128.8,254.05,131.42,255.63z"/> </g> </svg> 