<?xml version="1.0" encoding="utf-8"?> <!-- Generator: Adobe Illustrator 23.0.1, SVG Export Plug-In . SVG Version: 6.00 Build 0)  --> <svg version="1.2" baseProfile="tiny" id="Layer_1" xmlns="http://www.w3.org/2000/svg" xmlns:xlink="http://www.w3.org/1999/xlink" x="0px" y="0px" viewBox="0 0 900 600" xml:space="preserve"> <g> <path d="M595.36,246.35c-0.08,0.96,0.13,1.74,0.91,2.43c0.51-0.51-0.02-0.16-0.91-2.53c0,0.88-0.09-5.8,0.77-8.38
		c-1.96,0.98-1.53,5.28-1.37,7.47C594.66,245.64,595.16,245.94,595.36,246.35z"/> <path d="M712.63,539.6l-0.1-0.1C712.36,539.66,712.45,539.6,712.63,539.6z"/> <path d="M596.78,227.85l-0.1-0.1C596.71,227.87,596.73,227.85,596.78,227.85z"/> <path d="M577.88,188.73l-0.1-0.1C577.8,188.69,577.83,188.78,577.88,188.73z"/> <path d="M589.7,236.54c-0.04,0-0.01,0.05,0,0.1V236.54z"/> <path d="M565.04,192.47l-0.1-0.1C564.91,192.5,564.87,192.47,565.04,192.47z"/> <path d="M568.48,183.27c-0.16,0.2-0.23,0.19,0.1,0.1L568.48,183.27z"/> <path d="M589.6,192.87l-0.1-0.1C589.5,192.92,589.41,192.92,589.6,192.87z"/> <path d="M570.6,170.33h-0.1C570.54,170.45,570.45,170.43,570.6,170.33z"/> <path d="M571.51,173.97l-0.1-0.1C571.25,174.05,571.1,174.2,571.51,173.97z"/> <path d="M828.08,103.5c-0.78,0.38-1.13,0.56-1.28,0.64c0.41-0.22,0.86-0.41,1.27-0.63C828.17,103.47,829.84,101.74,828.08,103.5z"/> <path d="M735.49,82.85c-2.4,19.96-4.38,65.68-7.02,168.6C731.2,186.78,734.24,113.58,735.49,82.85z"/> <path d="M826.74,104.17c0.01-0.01,0.04-0.02,0.06-0.03C826.78,104.16,826.76,104.16,826.74,104.17z"/> <path d="M541.5,202.81c-0.01,0.02-0.01,0.05-0.02,0.07C541.73,202.64,541.69,202.59,541.5,202.81z"/> <path d="M894.99,18.4c-0.84,0-34.17,531.35-34.17,545.06c-1.92,1.42-4.45,1.21-6.47,2.02c-0.69-0.48,31.03-522.01,31.03-522.11
		c1.46-26.02,2.5-28.2-0.2-27.6c-0.67,2-33.16,548.91-33.16,550.72c-4.04-0.81-6.97-3.64-10.61-5.46c-0.1-2.43-0.2-4.95-0.3-7.58
		c-29.21-9.81-58.23-19.61-87.44-29.42c0.71-4.04,2.22-7.58,3.34-11.12c1.42-0.61,2.33,0.09,3.34,0.4
		c13.04,4.1,67.64,22.35,81.48,27.19c2.52-4.68,43.63-730.5,26.38-465.3c-5.69,87.4-26.56,455.71-28.61,454.69
		c-8.82-2.87-77.9-25.3-80.26-26.48c4.77-21.47,7.35-16.22,10.61-42.46c1.38-11.09,0.66-14.11,2.73-19.21
		c1.92-4.74,0.98-8.08,0.91-8.9c-1.62,1.35-1.11,0.42-1.52,2.83c-2,11.81-2.33,5.87-3.54,15.87c-1.46,12.1-1.36,18.51-4.95,29.52
		c-2.56,7.84-9.13,30.72-15.06,46.9c-2.56,6.98-7.13,24.5-4.65,31.44c0.11,0.3,0.71,0.51,1.21,0.91c-0.2,1.31-0.61,2.53-1.52,3.94
		c-5.32-2.19-10.03-2.7-11.42-15.26c-1.62,0-1.21,1.72-2.32,2.32c-1.31-0.3-2.93,0.61-4.45-0.3c0-1.5,10.51-27.06,4.95-52.77
		c-1.02-4.71-1.51-6.24-0.2-24.46c0.26-3.56,1.23-5.3,2.43-9.1c1.61-5.12,1.7-2.54,3.34-6.37c3.55-6.75,3.65-7.78,6.77-8.9
		c4.07-1.45,5.73-2.89,11.32-4.55c3.24-0.96,1.15-2.09-0.91-1.21c-7.61,3.24-6.36,0.7-17.69,6.37
		c-4.14,2.07-31.16,10.01-51.45,10.01c6.7-3.09,12.08-8.98,14.05-12.33c3.01-5.1,0.6-0.59,4.65-12.84
		c5.84-17.65-8.38-29.92-3.23-28.2c31.3,8.46,42.65,20.8,53.48,20.22c3.63-0.2,5.8-2.22,5.28-2.22c5.1-0.47,2.66-0.18,7.46-1.21
		c4.55,4.14,4.55,4.14,6.67,7.78c0.81-0.3,0.5-1.01,0.3-1.42c-2.86-6.08-2.39-4.78-5.36-8.49c8.38-8.85,4.07-4.03,9.5-11.63
		c5.84,1.62-3.75-0.64,25.47,6.77c10.02,2.54,12.07,5.2,22.64,6.37c11.93,1.32,14.42,6.89,20.82,4.04
		c-1.75-1.75-2.16-1.11-3.64-2.22c-4.67-3.54-11.36-5.19-17.18-6.07c-14.78-2.22,0.83-1.63-44.28-11.73
		c2.02-2.02,1.72-4.35,1.52-6.47c-0.39-4.07,0.4-6.6,0.4-7.99c0-35.47,2.93-3.06,2.93-71.27c0-5.07,1.29-4.34,2.12-19.41
		c0-1.96,4.26,0,14.96,2.22c14.31,2.98,17.15,3.7,29.52,6.67c0,5.55-6.06,102.59-6.07,102.7c0,3.72,3.54,3.49,3.54,0.1
		c0.01-0.11,25.43-399.52,23.86-401.72c-0.62-1.25-2.83-0.36-2.83,1.42c0.49,7.4-18.09,292.45-18.09,294.47
		c-1.21,0.61-2.32,0.29-3.34,0c-19.33-5.58-38.25-6.92-42.56-9.5c-0.98,0.59-1.13,0.27-1.82,16.78c-0.45,4.03-1.59,1.15-1.62,4.55
		c-0.67,74.12-3.54,41.5-3.54,82.08c0,6.52-0.05,4.94-1.21,4.55c0-2.16,2.36-7.91-2.83-17.18c-4.81-8.58,2.51-5.54-20.42-11.63
		c-0.62-11.74,0.59-37.24,1.11-43.77c0.97-12.11-1.42-3.63,0.91-55.5c0.33-7.26,1.14-3.64,1.21-7.38
		c0.18-8.97-0.45-11.52,0.81-14.76c0.39-1.02,0.2-2.33,0.3-3.64c17.61,3.11,17.9,3.3,22.04,2.02c0.12-0.04,37.6-10.18,39.02-11.12
		c0.78-0.52,0.44-2.02-0.61-2.02c-1.38-0.23-38.65,12.03-42.46,11.42c-0.76-0.12-15.77-2.79-18.3-3.74
		c2.47-2.47,8.14-2.22,11.42-3.54c2.02-0.81,3.94-1.62,6.07-2.12c4.53-0.75,3.6-1.67,4.04,1.42c0.08,0.54,0.07,3.79,2.02,3.13
		c1.67-0.67,1.51-1.46,1.72-3.13c0.47-3.72-1.76-2.08,10.92-5.86c1.1-0.33,2.12-0.2,3.13,0.51c0.1,1.62,0.1,3.13,0.2,4.65
		c0.26,1.56,2.65,1.55,3.03,0.4c0.49-1.22,0.61-3.65,0.61-4.55c2.93-0.61,7.68-0.3,19.31,1.42c0,8.8-2.46,51.74-2.73,53.37
		c-1.11,0.51-2.02-0.01-2.93-0.1c-7.71-0.81-10.29-2.9-11.73-0.51c-0.86,1.15-16.26,1.47-15.37,4.45
		c1.86,1.02,16.24-1.12,20.12-2.33c12.5,2.34,9.02,0.72,10.51,3.84c0.53,1.1,1.82,1.31,2.73,0.4c0.4-0.4,0.61-1.01,1.01-1.62
		c1.72-0.27,5.06,0.92,7.38,0.71c0.51,0,0.91-0.61,1.52-0.91c-1.15-1.96-2.39-1.5-8.9-3.03c-0.54-4.32,14.55-276.14,14.15-278.9
		c-0.28-1.91-1.9-3.09-3.54-0.91c-0.14,0.22-2.71,54.26-4.45,83.8c-2.41-0.67-16.44-10.23-17.89-11.22c0-1.01,0-1.82,0-2.63
		c4.14-72.18,5.13-70.49,2.32-70.86c-2.44-0.33-1.4-1.15-5.36,58.63c-0.28,4.26-0.21,10.56-1.01,11.83
		c-2.53-1.11-10.51-6.17-15.06-9.6c-0.26-1.06,1.43-52.65,2.73-58.43c0.45-2-1.62-2.75-2.63-1.92c-1.93,1.58-1.3-2.5-3.44,46.2
		c-0.14,3.23-0.08,5.92-0.4,11.12c-0.81-0.2-1.42-0.2-1.82-0.51c-1.62-1.21-3.64-1.82-4.65-3.84c-0.77-1.35-1.93-0.69-7.48-4.95
		c-8.83-6.78-17.67-4.79-26.08-6.47c-0.87-2.09,1.79-37.73,1.31-42.96c0-0.58-1.33-0.94-1.62,0c-0.37,1.2,0.43,0.93-1.82,39.02
		c-0.34,5.74-0.13,3.69-6.67,4.35c-0.72-1.23-0.67-0.89,0.3-21.94c1.18-25.61,1.87-27.06-1.82-25.68c1.11,6.1-0.86,38.67-1.01,44.78
		c-0.08,3.33-5.57,2.23-8.39,2.12c-0.56-2.09,0.15-10.2,0.3-12.84c2.3-39.33,1.9-33.78,0.2-36.49c-1.84,4.14-0.58,14.84-3.03,49.13
		c-2.47,0.18-30.58-0.6-32.45-0.71c-0.54-5.92-0.3-5.74-4.65-6.47c-0.73-1.46-0.92-2.34-2.53-2.53c-7.05-0.81-10.07-1.09-12.23,1.01
		c-1.12,1.09-1.06-1.55-5.96,1.72c-2.53-1.01-2.44-0.83-4.14,0.4c-1.63,1.19-2.02,2.93-2.33,4.55c-2.83,0.51-10.61,0.4-13.95-0.1
		c-0.61-1.11,0.18-2.6-0.91-3.64c-0.83-0.79-1.62-1.72-2.02-2.83c1.72-0.71,1.82,0.91,2.63,1.62c2.11-2.11,0.23-3.06-1.82-4.65
		c9.04-11.63,1.81-23.63,3.44-30.53c1.57-6.68-4.68-10.87-6.07-6.17c-2.04,6.9,1.31,7.9-3.44,15.47c-3.89,6.2-3.74,13.39-1.01,18.3
		c2.09,3.75,3.72,0.22,0.51,3.44c-1.49,1.87-6.99-0.16-6.07,7.08c0,0.4,0.1,0.71,0.2,1.01c-2.33,0.61-7.18,0.71-12.64,0.1
		c-0.51-1.72-1.01-3.54-1.42-5.26c-1.72-1.01-3.46-1.59-4.75-2.83c-2.29-2.2-3.84,0.07-6.87-1.21c-3.64-1.54-5.74,0.2-9.2,0.2
		c-2.66,0-4.51,0.86-4.45,3.54c0.08,3.29-0.25,1.87,0.71,4.75c-5.59,0.62-44.4-1.52-49.94-0.91c-14.17,1.57-39.11,24.26-47.31,28.61
		c-5.49,2.91-0.22,12.17,3.94,9.2c30.02-21.38,38.24-26.91,51.66-26.79c4.89,0.05,30.82,0.77,34.77,1.21
		c1.57,2.35,0.06,4.75,2.22,6.27c5.83,4.09,7.02,8.63,8.49,10.11c0.1-2.83-1.82-5.86-7.58-11.63c-1.8-14.37-2.99-13.55,7.08-13.55
		c0.3,0,0.61,0.3,0.91,0.4c-0.81,2.22-3.64,1.21-4.75,3.23c3.06,1.15,2.49,0.35,3.13,4.85c2.43,1.62,3.84,4.75,7.58,5.26
		c-0.3-2.22-2.22-2.73-2.73-4.04c0.1-0.2,0.1-0.4,0.2-0.4c0.91-0.3,1.82-0.3,2.83,0.1c0,0.61-0.1,1.11-0.1,1.82
		c2.83-0.2,5.46-0.4,8.49-0.71c1.31-1.84,4.42-1.61,2.63,3.94c-1.74,5.38-1.21,9.8-1.21,11.83c0.2-0.4,0.6-0.71,0.71-1.21
		c0.29-1.42,0.51-2.83,0.81-4.25c0.46-3.19,1.52-2.74,3.03-7.28c1.41-4.23-0.37-4.11,3.54-4.04c41.29,0.68,36.28,1.05,37.71,1.62
		c0,14.9,3.23,8.23,3.23,27.9c1.83,34.85-5.77,28.42-2.93,58.73c0.65,6.94-0.16,11.2,1.21,16.17c0.92,3.34,0.47,4.06-5.16,17.79
		c-5.06,12.35-4.27,19.5-4.55,21.43c-1.29,8.97-5.61,6.72-10.92,14.05c-5.87,8.12-8.14,14.77-9.6,23.55
		c-0.62-0.34-2.93-1.72-3.03-2.02c-4.18-9.41-2.44-9.53-6.17-16.88c-2.36-4.65,4.27-4.81,9.4-16.17c1.65-3.65-0.86-1.49-3.84-13.85
		c-1.85-7.66-4.19-7.01-4.65-8.39c0-0.97,0.62-2.39,0.71-2.93c0.97-6.06-5.15-3.77-9.4-8.49c-0.2-1.11-0.31-2.42-0.51-3.74
		c-0.21-1.41-1.62-2.02-2.43-3.03c2.88-10.44-0.02-6.94,1.11-10.92c2.37-11.13,4.48-18.71,4.65-27.8
		c0.29-15.78-0.98-26.77-1.42-28.91c-2.51-12.32-0.45-21.33-1.52-21.33c-2.55,0-2.68-2.35-1.31,30.43
		c0.77,18.51,6.86,15.21-4.35,48.83c-0.51,1.21-0.4,2.33,0.1,3.54c-0.61,0.81-1.21,1.72-1.92,2.73c-4.95-3.03-9.7-6.47-15.77-7.38
		c-0.54-4.86-0.21-18.95,2.12-32.75c2.03-12.05,0.87-11.9,2.12-17.29c1.51-6.53,3.55-19.67,3.13-26.28c0-0.4-0.4-0.71-0.91-1.52
		c-2.27,18.91-2.49,16.88-8.19,43.47c-0.72,3.36,0.7-1.4-1.31,10.01c-2.1,11.9,2.02,14.15-0.4,23.35c-0.3,0.1-0.71,0.3-1.01,0.2
		c-5.86-0.4-11.02,2.21-16.48,3.64c-1.92,0.5-3.34,2.22-5.46,2.63c-0.4,0.1-0.71,0.61-1.01,1.01c-10.91,18.04-5.55,1.97-16.98,28.41
		c-1.01,0.71-2.12,0.81-3.13-0.51c-5.76,5.76-5.8,9.58-7.28,16.07c-2.43,10.69,1.8,14.05,3.64,45.29c0.7,11.92,1.57,13.6,0.3,15.97
		c0.4,0.51,0.61,0.91,0.91,1.31c-0.88,2.64-11.23,14.61-12.13,15.87c0.71,0.3,1.21-0.1,1.62-0.51c3.61-3.21,1.67-2.27,4.55-3.23
		c-0.22,1.05-3.45,5.05-3.54,5.16c5.09-1.85,3.4-4.22,11.73-8.69c9.45-5.08,17.19-12.83,15.97-23.45
		c-2.39,2.17,0.09,4.47-3.94,10.41c-0.2,0.29-0.68,0.5-1.07,0.69c3.86-10.85,3.21-19.3,1.98-18.68c-0.71,0-0.25-0.54,0-2.93
		c0.36-3.4-0.74-16.61-3.74-23.65c-3.35-7.86-2.6-16.82,3.64,8.69c2.26,9.25,2.25,14.92,2.63,17.18c1.04,0,1.01-0.93,1.01-3.84
		c0-13.48-2.41-19.13-3.84-24.87c0.4-0.1,0.71-0.2,0.81-0.1c1.31,0.81,2.73,1.62,3.94,2.63c4.72,3.93,8.64,3.31,15.16,9.6
		c0.64,2.56-2.71,8.66-3.94,11.02c-5.1,9.79-3.3,17.59-2.02,29.42c0.19,1.73,1.6,4.57,2.53,5.96c2.62,3.95,1.76,2.16,7.48,7.88
		c14.42,61.28,28.99,62.21,21.94,80.06c-8.42,21.31-18.53,21.22-19.21,47.92c-0.32,12.57,4.38,17.16,11.92,26.97
		c-5.84-0.23-4.49,4.43-4.34,13.57c0.25,14.52-4.28,12.3,11.83,19.81c1.93,0.9,5.03,1.24,7.08,1.92c1.15,8.03-1.82,5.8,8.69,9
		c7.43,2.26,3.94,3,14.76,0.51c0.2,0.2,0.3,0.3,0.3,0.4c-2.97,47.58-6.16,30.73-8.39,42.76c-1.84,9.92-4.04,10.59-4.04,11.93
		c-0.4,4.24-2.65,4.46-2.22,8.69c5.46,3.17,14.09,6.61,19.41,6.07c0.1-0.01,7.07-0.81,7.48-1.01c4.04-2.36,10.3,1.25,19.61-0.61
		c7.49-1.5,7.93-7.55,9.5-13.04c4.22,4.22,7.65,7.78,13.04,10.01c2.79,1.4,0.3,1.45,4.95,2.53c19.17,3.29,7.9,0.64,24.97,1.11
		c-2.24,7-3.94,3.97-12.03,26.59c-0.32,0.9-0.1,1.52,0.91,2.12c1.56,0.78,1.45-0.18,1.01,2.02c2.33,2.76,20.24,10.47,26.38,11.42
		c2.08,0.32,2.74-0.55,6.17-3.64c1.72,0.4,3.34,1.31,4.85,2.12c24.96,11.65,36.45-6.66,31.44-13.34c-1.01,0.61-1.03,1.51-1.21,2.43
		c-1.09,5.51-4.67,10.71-10.11,11.32c-3.74,0.42-7.38,1.11-11.12,1.62c-2.22-1.82-4.85-2.74-7.58-3.34
		c-12.09-2.64-3.77-5.43-13.95-0.1c-5.32-2.03-7.21-2.14-11.52-6.57c-3.96-4.06-9.23-3.46-11.22-4.95
		c-0.11-3.92,1.82-4.11,4.95-15.16c1.12-3.94,2.54-3.87,4.14-7.08c1.31-2.63,2.93-4.95,4.85-7.38c1.92,0.61,4.14,0,6.47,0.91
		c1.24,6.21,1.26,7.11,3.23,8.29c10.43,6.22,11.21,7.1,14.15-1.72c1.62,1.72,1.74,1.61,2.22,3.64c0.32,1.31,0.81,2.53,2.22,3.34
		c0.51-0.3,1.11-0.71,1.82-1.11c0.83,3.53,4.05,2.89,4.75,3.84c1.33,1.81,3.44,2.12,5.26,2.83c1.92-0.3,3.84-0.61,5.76-1.01
		c4.52,0.97,4.9,4.44,6.98,8.59c0.61-2.33,0.51-4.25-0.2-6.17c-2-5.36-7.48-3.44-7.58-3.44c-6.71-1.22-6.88,0.8-19.71-12.03
		c-4.97-4.97,0.61-28.38,3.54-33.26c1.04,0.26-7.6-2.67,85.52,28.71c1.07,2.29-0.8,9.08,1.62,8.39c2.34-0.88,7.96,6.88,15.06,4.35
		c5.59-2,5.31-1.06,7.68-3.03C860.71,558.74,898.31,19.23,894.99,18.4z M758.62,506.24c2.93,0.61,78.34,25.27,81.38,26.69
		c0.4,1.82,0.4,1.82-0.2,3.54c-8.2-2.05-78.61-25.55-81.98-27.29C757.61,508.06,758.01,507.05,758.62,506.24z M731.23,454.59
		c5.34-2.67,3.74-2.12,4.85-2.12c-5.48,9.13-2.66,4.82-4.95,7.88C730.72,458.13,730.82,456.41,731.23,454.59z M587.28,61.16
		c-19.24,0-40.19-1.94-41.85-0.91c-3.06,1.9-7.2,0.64-13.75,6.07c-3.18,2.63-8.42,4.94-14.15,8.69
		c-7.24,4.75-14.86,10.58-17.79,12.53c-2.43-0.81-3.44-2.22-3.23-4.55c3.69-2.95,36.06-24.54,36.19-24.67
		c9.13-8.17,22.8-3.94,55.6-3.94C588.02,58.69,588.27,58.51,587.28,61.16z M714.24,586.41c-0.1-0.1-0.2-0.1-0.3-0.1
		C713.94,585.94,714.59,586.06,714.24,586.41z M722.33,457.52c2.12-0.51,4.04-1.11,6.27-1.82c0.89,10.35-1.26,14.72-2.02,18.3
		c-2.18,10.26,2.83,24.28-0.3,25.68c-1.72-0.61-3.74-1.01-5.66-2.32C721.12,484.11,721.62,470.86,722.33,457.52z M720.11,458.33
		c-0.66,44.92-4.25,40.06,2.63,42.76c4.94,1.94,6.95,2.74,6.87,5.86c-0.24,10.23,2.32,9.25-9.6,5.96c-1.11,1.52-0.71,3.13-0.91,4.65
		c-0.1,0.51-0.4,1.01-0.61,1.72c-3.44-1.42-6.67-2.83-10.01-4.14c0.8-32.88,2.43-53.2,2.43-54.89
		C711.39,459.77,710.16,460.19,720.11,458.33z M723.54,516.76c-0.81,0.3-1.52,0.51-2.43,0.81c-0.1-1.01-0.61-1.82,0.4-2.83
		C722.33,515.14,723.24,515.44,723.54,516.76z M695.54,478.75c0.14-1.9,0.76-9.1,1.31-16.28c12.73-2.29,11.84-3.55,11.73,1.21
		c-1.25,53.72-2.55,51.83-1.42,52.97c4.35,0.71,7.78,3.74,12.03,4.55c7.97-3.65,8.63-4.31,10.11-2.53c-0.51,2.63,0.1,5.56-0.81,8.49
		c-7.18,5.47-8.5,2.23-18.3,6.07c-3.43,1.34-6.77,1.21-10.31,1.31c-0.4-0.61-0.81-1.01-1.11-1.52c-2.62-4.37-4.31-15.69-4.75-21.83
		c-0.32-4.45,1.03-1.61,2.02-22.34C696.37,482.23,695.19,483.37,695.54,478.75z M769.44,385.04c6.79,11.89,7.29,20.37-1.72,33.86
		c-0.93,1.4-2.63,1.72-3.74,2.73c-3.3,3-4.79,0.62-5.86,3.03c-8.92,0.16-23.39-7.44-36.29-13.34c-12.73-5.82-15.82-4.73-20.42-6.98
		c-4.43-2.16-9.1-3.84-13.85-5.26c-8.04-2.4-3.27-3.42-6.77-2.02c0-5.86,0.34-2.98-0.51-8.9c-1.31-9.18-1.35-24.44-0.81-27.7
		c3.14-1.05-2.58,0.14,33.66,9.91c11.43,3.08,15.83,3.03,30.02,7.88C746.84,379.53,762.18,383.26,769.44,385.04z M683.11,322.87
		c-0.7-4.55-0.91-9.1-1.52-13.65c1.97-2.19,9.89-9.37,8.39-12.94c-0.35-0.84,1.33-6.98,0.61-10.72c-1.35-6.97-3.44-13.65-8.29-19.21
		c1.73-17.35-0.19-41.3,4.35-59.44c6.01-24.04,2.64-28.99,5.26-47.31c1-18.07-1.45-29.26-5.56-48.02
		c-0.88-4.02-4.44-28.06-2.02-31.13c11.82-15.02,8.61-7.77,11.12-14.05c32.27,1,28.49,0.48,30.33,1.21
		c-0.66,9.03-13.82,296.06-14.05,298.41c-2.49,0-16.51-3.69-19.51-4.45c-8.55-2.18-8.44-3.83-12.53-4.45
		C678.81,343.76,686.59,345.39,683.11,322.87z M744.67,68.74c0.7,6.77-12.69,300.69-12.94,301.74c-2.12,0.1-3.84-0.51-5.96-1.11
		c0-1.21-0.02-2.33,0-3.34c0.99-44.47,1.88-82.33,2.7-114.59c-2.55,60.45-4.83,113.44-5.13,117.32c-3.44-0.51-6.57-1.11-9.6-2.43
		c1.16-16.22,13.33-292.24,13.44-293.25c0.95-8.43-1.46-5.05,8.9-5.05c0,0.26-0.21,5.65-0.59,14.82
		C737.82,63.46,740.55,68.37,744.67,68.74z M780.35,239.48c-14,3.11-16.19,5.45-19.81,6.27c-2.4,0.54-2.59,1.28-6.17,4.14
		c0.68,1.03,2.08,2.51,1.11,3.44c-1.85,1.78-1.1,3.24-1.21,16.68c-0.46,55.36-2.28,28.66-0.4,56.81c0.31,2.51-1.63,17.41-1.31,29.72
		c0.27,10.32-1.23,12.81-0.2,16.58c0.3,1.11,0.51,2.32-0.2,3.44c-3.54-0.51-15.57-4.14-18.2-5.46c0-7.09,13.49-300.8,13.65-302.65
		c9.87,0,11.21,0.85,37.71,18.9c2.54,1.73,2.06,1.24,2.02,3.74C787.33,91.18,781.01,236.84,780.35,239.48z M798.95,231.29
		c-0.23,3.75-0.21,4.78-1.42,4.75c-17.67-0.44-10.62,36.6-7.28-128.78c0.12-5.79-0.63-2.78-0.3-6.77c0.72-8.82,0.2-8.75,1.11-9.1
		c3.84,1.92,13.65,8.49,15.67,10.51c0,4.53,0.19,3.96,0.36,2.56C806.48,112.62,804.44,141.89,798.95,231.29z M821.8,236.14
		c-0.41,3.04-0.55,1.73-3.54,1.42c-16.08-1.68-12.67-0.85-16.07-1.82c0-0.24,6.93-127.79,8.79-131.51
		c3.84,2.43,7.48,4.85,11.22,7.18c1.92-1.11,3.84-2.33,6.17-3.74C828.47,108.53,822.11,233.8,821.8,236.14z M773.08,65.4
		c9.89,7.46,55.43,35.25,55.8,37.3c1.91,1.27-1.75,3.7-3.94,4.75c0.1-1.45,1.37-2.07,1.76-3.26c0.02-0.01,0.04-0.02,0.05-0.03
		c-0.11,0.05-0.01-0.02,0.01-0.16c-2.73,0.61-2.63,3.34-3.84,5.36c-3.98-2.39-51.22-33.57-51.35-33.66
		c-2.64-1.7-7.13-8.27-19.51-9.4c-5.66-0.52-11.33-1.01-16.98-0.3c-2.14,0.27,2.01-0.45-16.58-1.01c-30.13-0.91-25.47-0.59-28-1.01
		c-1.01-2.22-1.72-4.45-1.01-6.98C767.65,59.13,764.53,58.96,773.08,65.4z M685.74,47.81c1.43,0,1.21,0.08,1.21,0.51
		C685.6,47.98,685.74,48.37,685.74,47.81z M681.79,50.14c2.22-0.37,7.37,0.22,9.4,0.81c1.81,5.07-1.48,4.6-2.63,3.74
		c-5.22-3.48-1.28-2.28-7.38-3.64C681.59,50.44,681.69,50.14,681.79,50.14z M676.64,48.12c0.91,0.1,2.12-0.2,3.23,0.51
		c-0.4,1.11-0.81,2.12-1.21,3.03C672.6,52.95,674.75,49.33,676.64,48.12z M670.27,48.93c0.81-0.2,1.52-0.4,2.73-0.71
		c-0.3,1.62,0.2,2.83,0.3,4.04c0.2,1.31-0.81,2.73,0,4.25c1.31,0.4,2.93,0.3,3.84,1.92c-0.1,1.62,0.81,3.54-0.91,5.16
		c-2.02-1.42-1.01-4.14-2.53-5.86c-0.4,0.4-0.71,0.61-0.81,0.91c-0.2,0.91-0.61,1.53-1.72,1.42c-2.12-0.21-1.17-3.26-1.52-4.65
		C669.26,53.27,669.56,51.35,670.27,48.93z M664.91,51.86c0.71-0.2,1.62-0.3,2.83-0.51c0,2.53,0,4.55,0,6.47
		c-1.11,0.81-2.12,0.81-3.34,0.61C663.9,56.31,663.4,54.18,664.91,51.86z M645.91,51.55c-0.1,0.61,0,0.91-0.2,1.21
		c-0.4,0.91-1.53,1.41-1.42,0.81C644.49,52.47,645.76,51.67,645.91,51.55z M646.31,38.72c0.51,0.51,0.2,0.71-0.2,1.01
		c0,1.52-0.81,2.73-2.12,4.25c0.25-2.24-0.83-0.87,2.12-4.25C646.21,39.42,646.21,39.02,646.31,38.72z M643.89,21.73
		c0.71,1.11,1.12,1.62,1.21,2.12c0.43,2.32,1.13,4.75,0.71,7.18c-0.39,2.23-0.3,4.65-1.92,7.18
		C640.34,29.53,639.11,32.59,643.89,21.73z M639.44,34.37c2.75,4.13,2.57,4.9,2.83,8.29c0,0.85-0.84,0.73-0.94,0.83
		C639.78,39.63,638.62,37.16,639.44,34.37z M640.75,48.32c1.42-0.2,1.92,0.2,2.93,1.92c-1.92,2.83-2.33,3.03-4.85,1.92
		C638.83,50.93,638.6,48.75,640.75,48.32z M636,48.22c0.51-0.51,1.11-0.91,1.82-0.2c-0.2,1.62-0.51,3.23-0.91,5.46
		C634.89,50.64,634.79,49.63,636,48.22z M613.36,47.31c-0.81,0-1.72,0.4-2.22-0.61C612.35,46.3,612.35,46.3,613.36,47.31z
		 M618.01,48.72c0.2,2.75,1.58,5.81-2.93,3.64c-1.83-0.88-3.31-0.2-3.64,1.92c-0.12,0.75,0.4,1.92-1.21,3.54
		c-0.28,0.42-1.9,0.41-1.92-0.51c-0.05-2.53-0.2-4.95,0.4-7.58C611.74,49.03,614.67,47.92,618.01,48.72z M600.72,61.06
		c-1.66-1.15-1.85-4.48,0.1-4.04C601.03,58.23,601.43,59.54,600.72,61.06z M600.32,52.46c0,0.51-0.1,1.11-0.1,1.62
		c-0.1,0-0.1,0-0.2,0C599.71,52.23,599.95,52.46,600.32,52.46z M600.72,51.15c-0.3-2.22-0.3-2.22,0.4-3.44
		C601.03,48.93,600.92,49.73,600.72,51.15z M597.89,51.05c-0.51,0.51-1.11,1.01-1.62,1.42c-1.14-0.57-0.97-0.16-0.3-3.34
		c0.21-1.01-0.2-2.12,0.51-3.23c1.42-0.91,2.93-0.2,4.65-0.2C597.79,46.2,598.4,48.93,597.89,51.05z M606.28,55.8
		c0.09,0.57,1.36,2.69,0.3,3.74c-1.92,0.3-1.92,0.3-3.74-0.4c-1.52-6.17-1.11-9.91,1.42-13.65c2.43,0.2,2.43,0.2,4.65,1.82
		C605.37,49.33,605.76,52.57,606.28,55.8z M608.1,62.07c1.42-1.62,1.41-1.64,3.64-2.22c2.87-0.75-0.22-2.31,2.12-4.65
		c13.51,0,24.99,1.22,29.01-0.51c0.83,2.49,9.44,0.79,18.5,1.92c2.7,5.4,1.83,3.15,7.28,3.44c0.91,1.82,2.83,1.62,4.65,1.92
		c0.2,0.51,0.2,0.91,0.2,1.31C672.36,64.04,677.61,63.69,608.1,62.07z M609.21,167.4c0.1,0.1,0.2,0.2,0.3,0.2
		C608.47,168.13,608.53,167.4,609.21,167.4z M597.29,163.26c-1.93,0.55-1.12,0.5-1.62,0C595.99,162.93,595.71,163.03,597.29,163.26z
		 M558.34,179.33c-0.08,0.33-0.21,0.62-0.57,0.61C557.8,179.56,557.96,179.34,558.34,179.33z M556.24,180.74
		c0.29-0.39,0.93-0.5,1.43-0.68c0.07,1.02,0.48-0.13-3.85,9.88c-0.2,0.3-0.51,0.61-1.11,1.31
		C552.6,186.91,554.08,183.65,556.24,180.74z M557.61,184.3c-0.18,0.47-0.37,0.93-0.56,1.4C557.15,185.2,556.87,184.52,557.61,184.3
		z M551.59,189.54c0.3,2.43,0.51,4.04,0,5.56C549.32,195.1,550.79,191.84,551.59,189.54z M536.43,283.04
		c1.45-1.85,4.68-7.43,6.27-6.37C540.88,279,539.67,281.93,536.43,283.04z M544.11,278.49c0-2.29,2.9-3.46,5.39-3.82
		C549.1,275.36,547.85,276.88,544.11,278.49z M542.9,275.06c0.61-1.52,1.01-2.73,2.33-3.34c0-1.11,0.4-1.82,1.52-2.12
		c0-0.61,0-1.11,0.71-1.42c0,0.51-0.1,1.11-0.71,1.42c-0.2,0.91-0.4,1.82-1.52,2.12C544.62,273.64,544.62,273.64,542.9,275.06z
		 M548.46,265.86c0.38-0.69,0.04-1.64,1.01-1.98C549.57,264.78,549.65,265.66,548.46,265.86z M549.67,269.6
		c0.7-2.79,1.15-3.05,4.14-10.41C553.82,263.33,552.81,266.87,549.67,269.6z M553.93,270.9c0.04-0.95,0.53-1.63,1.3-2.11
		C555.28,269.83,554.62,270.42,553.93,270.9z M552.28,215.03c-0.1-0.92-0.2-1.89,0.62-2.64
		C552.86,213.31,553.11,214.28,552.28,215.03z M553.92,233.01c2.63,6.79,1.36,10,0.3,17.39c-4.26-9.19-1.85-6.58-3.22-8.8
		c0.18,3.31-0.86,2.72,0.09,5.27c0.75,2.01,0.4,4.35,1.52,6.27c-0.19,2.91-0.65,8.47-3.01,10.59c0.57-3.27,3.29-14.8,0.08-13.93
		c0.31,4.06,0.43,2.69-0.4,7.68c-0.61-6.17-0.2-12.23-1.62-18.7c-0.61,1.52-0.4,2.73-0.4,3.84c0,21.26,1.29,20.88-3.84,27.8
		c-1.46-3.16,4.94-10.11,0.71-32.45c-0.1-1.62,0.1-3.34-1.11-4.55c1.42,14.89,1.99,17.07,0.4,22.95c0-4.44-1.09-16.94-3.13-27.6
		c-3.56-18.57,0.38-24.95,1.23-25.95c0.06-0.21,0-0.55,0.19-0.64c1.93-0.99,3.03-3.23,5.26-3.84c1.01-1.92,2.63-1.52,4.65-1.21
		c-1.42,1.11-3.03,1.21-3.54,2.73c0.18,0.14-0.51,0.29,0.04,0.78c-0.02,0.01-0.02,0.02-0.04,0.03c-3.94,4.35-4.45,9.6-4.04,15.16
		c0.8-1.6-0.18-10.75,8.19-15.16c1-0.53,0.61-1.31,0.51-2.02c0.71-0.1,1.42-0.1,2.02-0.2c3.34,3.03,3.44,3.44,2.43,7.28
		c-0.2-0.4-0.4-0.81-0.61-1.21C547.89,211.42,546.83,214.7,553.92,233.01z M548.26,200.51c0-0.17,0-0.33,0-0.51
		C548.47,200.17,548.47,200.33,548.26,200.51z M553.07,212.12c0.16-0.4,0.32-0.81,0.49-1.21
		C553.65,211.4,553.68,211.91,553.07,212.12z M553.82,210.56h0.1C553.81,210.56,553.75,210.64,553.82,210.56z M557.76,216.23
		c-1.31,0-1.82-0.91-1.82-2.12c0.2-3.27,1.56-4.16,1.74-4.52C558.09,211.76,558.75,213.94,557.76,216.23
		c0.3-0.4,0.71-0.91,1.01-1.31c0.81,1.01,1.31,1.92,1.52,3.34C559.07,217.74,558.16,217.34,557.76,216.23z M560.19,214.41
		c0-0.25-0.06-0.5,0.26,0.04C560.39,214.41,560.26,214.41,560.19,214.41z M560.59,215.42c-0.1-0.3,0-0.71-0.1-0.91
		c1.73-0.43,2.46,2.82,4.95,7.18C563.44,221.43,563.39,220.17,560.59,215.42z M565.64,218.05c0.77,0.79,6.14,6.24,6.44,7.17
		C568.39,225.33,565.65,220.72,565.64,218.05z M572.42,225.73c-0.07-0.15-0.1-0.25-0.15-0.37
		C572.49,225.37,572.74,225.32,572.42,225.73z M572.62,222.49c0.08,0.17,0.18,0.27,0.31,0.41
		C572.65,222.93,572.35,223.04,572.62,222.49z M573.52,224.09c-5.17-5.17,15.57,8.77,22.64,11.83c0.56,0.28,0.38,0.57-0.04,1.93
		c1.35-0.78,2.74-1.52,4.49-1.12c0.1,0,0.2-0.3,0.51-0.71c-0.4-0.13-7.07-2.7-9.2-3.74c-0.41-0.2-0.61-0.6-0.9-0.9
		c11.96,1.22,6.02,3.33-22.45-13.76c-2.33-1.4-4.25-3.16-4.25-5.86c0.61,0.3,0.91,0.4,1.21,0.51c10.11,7.06,25.29,13.93,34.37,19.71
		c-1.52,0-2.33,0-3.13,0c0.4,0.2,0.81,0.61,1.21,0.61c5.02-0.84,7.8,1.9,8.69-0.1c-9.65-4.13-9.7-3.87-9.97-4.65
		c-1.89,0.17-1.1-0.9-7.32-3.64c-2.68-1.18-19.63-8.98-20.02-10.92c-1.72-0.57-1.71-0.27-0.2-0.66c0,0.53-0.27,0.34,1.87,0.27
		c-2.15-0.71-1.87-0.97-1.87-0.42c-1.52-0.75-6.33-3.32-7.08-3.74c-0.72,0.72-1.36,0,1.31,2.22c-0.4,1.42-1.31,1.72-2.83,1.72
		c-0.89-0.89-1.89-2.08-2.88-3.17c2.81-8.49,2.01-6.33,2.68-8.35c8.19,1.82,16.28,0.81,24.26-1.31c-3.33,0.1-16.65,1.25-19.21,0.61
		c0.3-1.01,1.01-0.81,1.62-0.91c5.55-0.89,22.26-4.89,22.42-6.64c-3.1,0.85-30.55,8.93-30.2,5.53
		c21.28-14.18,52.26-9.52,50.24-17.59c-0.91,0.2-1.82,0.3-2.63,0.51c-0.49-0.49-0.32-1.58-1.37-1.32c0.03-0.02,0.05-0.05,0.07-0.08
		l-0.1,0.1c0,0,0.01,0,0.01-0.01c-1.96,2.9-5.63,3.8-11.04,5.24c-15.94,4.25-16.04,4.76-16.62,3.46c-15.93,6.37-14,7.49-16.42,7.17
		c0.23-1.4,3.09-1.97,3.49-3.45c-0.47,0-0.92-0.01-1.38-0.1c-0.29,1.07-1.14,1.4-2.1,1.42c0.29-0.96-0.51-0.39-0.04-1.27
		c0.77-0.69,0.09-0.55,2.04-0.55c-0.28-0.66,0.31-0.97,0.64-1.33c-1.2-0.18-3.23,0.92,4.28-7.19c-3.76,0.81-10.37,8.62-12.49,13.28
		c-1.22-1.43-2.05-1.69-1.08-2.66c1.3,0.77,0.78,1.31,2.09-0.88c6.98-14.18,23.83-26.49,7.38-14.15c-0.19,1.35-1.21,1.97-2.01,2.81
		c0.08-1.29,0.77-2.23,2.01-2.81c1.48-3.71,6.6-7,6.28-8.61c-9.81,8.14-11.21,12.7-12.83,13.76c0.24-1.75,0.57-2.62,1.5-4.94
		c-0.64,0-0.69,0.16-0.2-0.77c0,0.19,0,0.39,0,0.57c0.49-0.5,0.77-0.91,0.38-1.32c7.19-9.89,2.35-4.08,11.34-12.32
		c13.31-4.05,8.2-3.62,21.43-3.23c-2.63,1.76-6.74,1.18-14.05,8.59c-2.11,2.14-5.61,4.17-6.37,5.36c1.22,0.49,1.11,0.42,1.2,0.29
		c0.09,0.51,0.02,0.36,0.49-0.11c0.69,0.69,2.01-3.41,10.76-6.44c6.8-2.35,6.35-1.92,15.57-4.75c10.06,5.69,8.13,4.19,11.32,6.77
		c3.66,2.96,1.77,9.26,6.37,12.13c0.28-3.58,5.89-1.6,5.26,0.3c-0.2,1.01-0.51,2.12-0.61,2.93c-0.51,0.4-1.11,0-1.21,1.11
		c2.93,3.41,5.55,4.19,6.37,10.21c1.61,11.83,9.89,4.56-6.77,24.16c-0.81-0.81-1.52-1.52-2.22-2.12c-0.28-0.28-1.01,0.11-1.01,0.61
		c0.48,1.68-0.15,0.82,5.66,12.43c1.35,2.36,0.03,1.18,2.73,7.78c1.36,3.33,1.11,2.27-2.57,1.92c0-0.01-0.02-0.04-0.06-0.1l-0.1,0.1
		c0.1,0,0.16,0.02,0.16,0c2.5,4.04,1.46-0.7-4.32,12.01c-4.86,10.69-3.24,12.59-6.98,15.26c-11.17,8-7.14,5.7-10.92-1.11
		c0,2.32,0,4.04,0,6.07c-2.73-0.3-4.89-1.59-6.57-3.54c-6.07-7.02-6.35-10.54-6.07-14.15c0.96-12.23,0.53-9.55,1.11-10.72
		c0.51-0.4,1.52,0,1.72-1.31c-1.72-3.13-2.22-6.98-4.65-10.31c3.85,1.16,3.33,1.11,3.23,0.71
		C588.9,233.16,590.4,238.41,573.52,224.09z M589.8,231.29c0.51-0.3,0.91-0.71,1.11,0.1C590.54,231.39,590.18,231.38,589.8,231.29z
		 M560.79,196.31c0.17-0.08,0.33-0.17,0.51-0.25C561.29,196.37,561.23,196.57,560.79,196.31z M561.9,191.39c0,0.15,0,0.31,0,0.48
		C561.58,191.86,561.45,191.97,561.9,191.39z M562.02,191.15c0.03-0.39,0.21-0.63,0.6-0.6C562.65,191,562.41,191.13,562.02,191.15z
		 M589,165.48l-0.3,0.1C588.69,165.45,588.63,165.48,589,165.48z M577.47,272.43c0.33,3.48,0.64,3.06,1.01,8.19
		c-2.64-3.86-5.83-9.19-4.75-14.15c1.5-6.9,1.05-10.46,1.72-13.95c3.49-18.3,3.23-16.76,3.94-18.2c2.53,1.52,4.35,3.23,5.76,5.36
		c-1.49,5.94-3.78-3.76-5.66,21.94C579.13,266.6,576.84,265.73,577.47,272.43z M585.76,295.38c-1.85-5.74-0.83-7-3.23-9.91
		c-2.77-3.36-3.03-10.36-2.02-14.66c4.17-17.76,2.06-17.32,3.34-20.32c1.12-2.63,1.62-5.26,2.22-7.99c0.1-0.2,0.51-0.4,0.91-0.81
		c0.1,0.81,0.4,1.42,0.3,1.92c-0.81,2.63-0.76,5.26-0.81,7.88c-0.11,5.54-1.42,2.57-0.51,8.9c1.35,9.33,7.54,17.64,17.29,16.98
		c1.62-0.11,2.93-1.01,4.35-1.62c13.35-4.81,8.36-17.39,18.2-29.82c1.21,0.3,2.33,0.71,3.64,1.01c-0.3,0.71-0.51,1.31-0.81,1.72
		c-17.69,24.07,5.05,58.9,32.35,53.78c3.23-0.1,5.66-1.72,6.98-4.75c-6.05,3.03-16.63,1.16-20.82-0.1
		c-6.92-2.08-13.16-8.91-18.2-14.96c-1.19-1.43-1.85-3.13-1.82-5.05c0.05-3.34-0.1-6.77,0.2-10.11c0.31-3.38,2.5-14.46,3.74-14.46
		c1.44,0.26,0.59-0.08,4.45-9.3c8.79-21.01,11.83-22.65,17.39-29.21c0-6.08-0.08,1.1,4.75-17.69c5.1-19.83,9.17-23.54,7.18-32.85
		c-0.64-2.97,1.1,3.45-1.21-16.98c-1.27-11.18,0.05-12.8,1.01-21.63c5.72-52.64-4.13-49.34-0.51-59.84c4.25,0.1,8.39,0.1,12.74,0.2
		c-0.3,2.43-3.03,3.74-2.43,6.67c2.3-1.64,0.51-0.1,5.96-7.38c0.85-1.27,1.21-1.37,1.21-8.79c0-0.4-0.4-0.81-0.61-1.11
		c-1.1,0.4-4.69,2.68-5.96-0.71c2.43-1.21-1.26-0.91,9.5-0.91c4.98,7.16,1.41,10.46,6.27,13.55c2.88-0.82,2.07-0.88,2.43,0.91
		c-3.03,1.11-5.32,2.95-7.08,5.56c-3.65,5.43-5.36,4.6-5.36,9.4c0,14.66,0.34,19.14,1.52,24.36c5.09,22.59,4.31,28.87,6.47,31.03
		c1.89,1.89,0.85,15.43,0.51,18.6c-0.44,4.04-1.72,8.09-0.61,12.13c0,39.88-5.81,20.01-8.49,66.62c-1.1,19.03-0.61,19.02-1.21,20.22
		c-1.28,2.24-1.71,3.94-0.91,25.47c0.19,5.23-1.92,5.94-8.9,14.25c-0.51,0.6-1.42,1.01-1.31,2.02c3.33,0,13.09-8.28,11.52-13.44
		c-0.62-2.05-0.73-3.31,0.81-12.84c1.42-8.8,13.26,22.4,5.26,30.63c-1.74,1.79-3.15,4.02-5.36,5.36c-2.25,1.37,0,3.86,0,11.42
		c-10.3,6.39-30.99,10.68-40.03,12.43c-4.08,0.79-8.54,2.88-15.97,0.2c-5.72-2.06-5.48,0.17-10.72-0.81
		c-9.83-1.84-13.38-2.5-16.48-4.85C595.15,323.1,586.72,298.36,585.76,295.38z M599.31,382.21c6.6-11.9,11.14-17.74,8.49-29.42
		c-2.27-9.97-5.9-10.6-8.69-20.22c-0.2-0.51-0.51-1.11,0.2-1.82c18.52,4.04,16.89,2.95,17.69,5.76c7.16,20.59,4.43,15.1,6.17,17.18
		c-0.02-0.1-3.03-18-3.03-18.6c6.11-1.15,11.29,2.45,16.28,0.91c4.31-1.33,22.12-3.15,31.24-7.28c12.93-5.86,11.34-6.77,12.64-5.96
		c0.41,1.84,0.93,12.71,0.3,16.48c-1.18,7.08-8.48,1.2-2.73,52.97c-5.1,2.32-8.03,4.1-15.47,5.66c-20.01,4.18-27.39,5.44-37.2,2.53
		c-15.09-4.48-18.38-5.84-25.27-12.53C598.15,384.35,597.61,385.27,599.31,382.21z M593.75,435.79c-3.89-5.28-5.96-11.94-5.96-15.67
		c0-7.76-0.44-17.74,3.03-23.86c3.57-6.29,4.19-7.32,5.46-8.59c4.45,6.27,11.02,9.2,17.18,12.74c16.03,5.46,22.7,6.27,47.21,1.42
		c19.77-3.92,17.65-11.79,19-2.33c1.72,0.71,3.44,0.61,4.85,1.92c-2.26,6.23-1.02,3.45-2.12,6.77c2.02-1.62,2.53-4.25,3.84-6.47
		c0.7,0.5,1.28,0.88,1.88,1.28c-0.1-0.1-0.08-0.07,0.02-0.04c0,0.01-0.01,0.03-0.02,0.04c-1.1,2-0.51,4.29-2.69,9.44
		c-0.18,0.35-0.13,0.79-0.11,1.23c2.16-1.94,3.21-7.39,2.84-10.71c6.19,1.95,6.56,1.81,7.18,3.81c0.65,2.11,1.38,4.15,1.92,6.17
		c6.45,23.87-2.92,33.3-2.93,33.76c-0.05,2.23-1.82,3.34-3.13,4.65c-5.2,5.2-8.81,9.5-27.8,8.9c-20.01-0.64-23.9-3.26-36.59-10.61
		c-7.79-4.51-7.15-6.48-11.63-7.38c0.81,4.07,1.37,2.1-5.36,1.11C606.78,442.92,597.32,440.64,593.75,435.79z M625.89,486.33
		c-4.35-1.31-8.49-2.53-12.84-3.84c0-7.6-1.3-3.58,12.74-0.91C625.89,483.2,626.9,484.71,625.89,486.33z M612.85,473.29
		c-2.73-0.89-2.01,0.08-1.31-7.08c0.42-4.29,0.01-9.23,1.21-12.33c0.61-0.2,1.01-0.4,1.62-0.61c-16.97-6.79-18.8-7.91-18.8-5.56
		c15.14,6.4,13.11,4.45,15.87,6.07c-0.61,6.37-0.51,12.64-1.42,19c-3.05-0.44-2.07,0.25-11.02-2.73c-3.07-1.02-5.06-2.06-5.26-5.05
		c-0.31-4.79-0.97-9.63-0.71-10.41c1.29-5.37-0.6-8.83,1.72-10.82c0.49-0.42,0.71-1.19,1.1-1.8c1.49,0.12,2.73,1.13,4.05,1.7
		c16.06,6.87,14.48,0.5,20.42,4.85c5.71,4.18,6.64,4.41,8.59,6.37c-1.42,1.72-2.93,0.3-5.16,0.3c2.93,1.62,5.16,1.11,7.48,0.51
		c8.89,3.81,7.8,2.85,8.69,3.74c0.61,2.73,1.21,5.16,1.92,8.19c0-1.92,0.6-3.23-0.3-4.65c-0.73-1.15-0.36-3.5,1.42-2.93
		c14.7,4.7,14.05,1.3,17.59,4.25c2.28-1.37-0.57-0.61,9.7-0.61c-2.59,1.73-13.82,2.86-25.07,7.08c-1.61,0.61-12.19,3.26-18.4,5.26
		C623.03,477.23,622.03,476.3,612.85,473.29z M671.58,547.49c-3.41,5.54-10.1,5.2-17.79,4.75c-12.04-0.7-13.87,2.99-24.06-0.51
		c-3.17-1.09-4.5-1.11-6.87-2.53c0.81-2.32,1.23-4.64,2.32-6.67c5.9-10.94-0.05-12.28,8.59-21.43c1.01,0.61,2.12,1.01,3.64,1.62
		c0,2.02,0.9,3.55,2.12,4.95c0.9,1.03,2.2,4.29,3.34,5.56c1.19,1.34,3.54,1.82,4.85-0.4c0.2-0.4,0.61-0.81,0.71-1.21
		c2.21-9.05,0.86-5.45,1.62-9.6c0-0.67,1.42-0.8,1.72-0.2c0.4,0.71,0.49,1.63,0.91,2.33c4.34,7.15,7.05,13.03,12.94,11.63
		c2.24-0.32,6.74,2.29,8.09,3.64C674.13,542.29,673.78,545.3,671.58,547.49z M636.81,485.93c3.59-1.2-6.42,1.87,21.33-7.38
		c0.4-0.1,0.81,0.1,1.31,0.1c-0.87,2.62-6.02,16.94-8.69,19.11c0.1,0.61,0.2,1.11,0.3,1.62c-1.21,1.62-2.36,3.24-1.62,5.56
		c0.19,0.61-0.3,1.83-0.91,2.22c-2.93,1.89-3.04,11.05-3.23,14.46c0,1.74-1.92,1.21-1.92,2.63c3.59,2.75,3.53-1.74,3.84-2.83
		c0.71,2.38,0.53,2.48-0.71,10.51c-0.61,0-1.11,0.2-1.52,0c-1.42-0.81-2.53-2.12-2.53-3.74c0-2.73-1.62-4.75-2.22-6.98
		c-1.92-1.11-4.25-0.91-5.86-2.63C637.89,488.17,635.72,489.96,636.81,485.93z M673.71,537.18c-3.41-1.7-2.01-2.63-6.57-3.34
		c-4.42-0.68-8.05-1.98-9.7-6.27c-1.36-3.51-3.13-5.16-7.58-9.6c0.91-5.49,0.19-5.76,2.43-11.32c4.85-12.04,4.69-14.61,8.79-22.24
		c1.74-3.23,1.56-4.51,2.22-7.18c8.85-3.4,8.01-3.5,7.99-1.72C670.83,507.99,669.24,525.38,673.71,537.18z M673.91,537.38
		c0,0,0,0.02,0.01,0.06C673.85,537.34,673.83,537.3,673.91,537.38z M723.44,548.5c-0.89,3.38-7.86,5.05-11.02,4.85
		c-4.78-0.29-3.72,0.87-11.12,0.3c-2.03-0.15-4.05-0.67-6.07-0.91c-1.52-0.18-2.83-0.71-4.04-1.42c-8.21-4.74-9.75-5.31-10.41-6.47
		c-13.27-17.95-7.58-32.8-7.58-71.77c2.43-2.93,5.66-2.93,8.59-3.34c0.37,0.56,0.29-0.8,0.91,10.61c0.39-17.76,7.66-15.6-26.48-3.74
		c-20.76,7.21-23.93,8.96-28.2,9.4c-0.61-1.72-1.01-3.23-0.91-4.95c5.21-1.96,26.73-8.87,41.45-13.14
		c9.47-2.75,8.61-3.84,10.82-3.84c15.54-1.08,12.76-0.83,15.06-0.51c-0.94,4.23,0.28-0.6-1.92,17.49c-0.16,1.35,1.7,7.71,0.1,18.4
		c-2.14,14.3-0.14,24.63,2.53,30.73c3.2,7.32,5.8,9.81,16.88,9.81c0.17,0,0.27-0.21,0.41-0.39c-0.55,0.04-1.08,0.18-1.63,0.09
		c-0.1-0.02-3.27-1.08-3.74-1.31c-3.22-1.61,0.48-0.81,2.22-1.92c2.66-1.7,8.03-2.2,9.91-3.34c2.45-1.48,5.16-1.42,7.99-2.63
		c0.1,2.83-0.2,5.36-2.02,7.38C726.68,538.64,725.73,539.8,723.44,548.5z"/> <path d="M550.89,241.4c0.26,0.53,0,0.05,0-3.03C549.82,241.03,551.23,241.05,550.89,241.4z"/> <path d="M82.45,166.79l-0.1-0.1C82.23,166.81,82.3,166.74,82.45,166.79z"/> <path d="M81.64,162.85l-0.1-0.1C81.61,162.97,81.49,162.95,81.64,162.85z"/> <path d="M45.55,282.03l0.1,0.1C45.58,281.99,45.66,281.98,45.55,282.03z"/> <path d="M406.43,10.31c-0.6,0.9-34.07,536.46-34.07,545.16c-2.12,1.11-4.45,1.11-6.77,2.02C376.86,366.02,399.33,6.47,397.13,7.38
		c-0.65,0.27-33.77,546.16-33.16,551.03c-2.76,0-0.53-0.11-11.02-5.36c-0.1-2.33-0.1-4.85-0.2-7.48
		c-29.11-9.81-58.02-19.51-87.14-29.32c-0.28-2.09,2.52-10.03,3.44-11.52c3.76,0.83,72.48,23.82,72.58,23.86
		c13.22,4.18,11.91,4.97,12.43,2.33c0.01-0.1,31.58-517.53,30.63-519.08c-2.29,1.14-32.34,511.09-32.35,511.2
		c-7.72-1.72-77.72-25.06-81.17-26.69c0.72-4.33,5.59-19.43,7.38-24.16c3.46-9.13,3.32-30.92,5.76-37.1
		c2.92-7.38,0.51-11.04-0.2-7.88c-3.59,15.97-2.96,9.11-4.04,19.51c-1.05,10.09-0.51,13.42-4.85,28.1
		c-13.86,46.88-21.81,61.33-19.71,76.42c-0.2,0.1-0.1,1.01,0.91,1.11c0.61,1.52-0.3,2.83-0.91,4.35c-3.74-0.91-7.08-2.12-8.9-5.76
		c-3.21-6.43-1.63-5.28-2.93-9.2c-1.31,0.2-1.31,1.52-2.12,2.22c-1.42-0.3-2.93,0.51-4.65-0.3c0.5-2.49,5.8-16.98,6.27-33.26
		c0.62-21.68-3.28-18.7-2.33-29.82c0.92-10.73-0.08-13.74,2.02-19.71c0.18-0.52,1.87-5.74,2.22-6.17
		c7.32-8.84-0.5-10.14,22.14-17.69c0.16-1.27-1.37-1.16-2.33-0.71c-3.8,1.8-8.1,2.18-12.03,3.74c-9.45,3.75-5.16,2.99-8.79,3.94
		c-5.13,1.34-31.47,9.74-47.61,8.39c4.85-2.22,8-5.75,11.12-9.2c4.81-5.33,4.03-8.89,5.46-12.43c4.64-11.53,2.12-20.23-3.44-31.34
		c1.11-0.4,1.82,0.11,2.53,0.3c24.57,6.71,38.73,17.76,48.93,19.71c6.73,1.29,7.94-2.55,13.24-2.43c0.91,0.02,1.82-0.51,3.03-0.81
		c6.27,6.27,4.29,3.76,6.87,8.19c0.39-3.93-2.91-7.37-5.05-10.41c12.13-12.13,7.1-12.06,11.42-10.82c27.51,7.91,22.8,5.1,31.74,8.79
		c12.5,5.16,16.02,2.33,27.8,7.78c2.92,1.35,4.25,1.31,7.08-0.1c-8.67-5.61-12.36-7.12-21.94-8.39c-10.01-1.32-6.65-3.12-24.97-7.28
		c-6.67-1.51-13.34-3.13-20.12-4.75c-0.47-8.76,2.04-8.16-4.85-20.72c3.28-5.9,0.47-1.16,2.83-13.44c0.42-2.2,0.18-4.67,0.4-14.35
		c0.36-15.51,0.87-12.61,0-14.05c-1.17,2.91-0.43,8.14-1.31,9.4c-1.13,1.61-0.81,3.23-0.81,4.85c0,9.47-0.99,9.08-0.71,16.98
		c0.09,2.53,0,5.05-0.61,7.78c-1.11,0-1.52-1.11-2.43-1.31c-8.56-1.9-13.5-3.91-16.48-4.65c1.21-3.82-0.44-4.75,0-8.29
		c0.65-5.27,0.23-6.07,0.81-23.15c0.19-5.49,0.94-13.11,1.01-15.16c0.47-13.01-1.01-15.52-0.1-25.68
		c1.36-15.2-1.08-13.49,2.73-28.71c1.24,0.29,27.19,21.45,27.29,21.53c-0.93,2.41-1.59,18.98-1.62,19.41
		c-1.57,1.57-1.62,0.66-1.62,3.34c0,17.5-0.59,39.23-2.63,55.29c-1.21,9.54-0.38,16.55-0.51,17.29c-0.91,3.94-0.01,7.99-0.4,11.93
		c-0.24,2.4,2.53,2.45,2.53,0.3c0.21-3.19,0-7.7,0.1-9.1c0.3-2.33,0.71-4.55,0-6.77c0.51-3.64,0.35-7.18,0.4-10.82
		c0.04-2.98,1.78-7.86,1.62-11.73c-0.52-12.36,1.55-18.72,1.11-44.88c-0.09-5.38,1.82-8.67,1.92-19.11c0-0.3,0.2-0.71,0.3-1.21
		c6.8,0.62,5.63,2.81,20.12,13.34c4.14-1.11,7.28-3.34,9.4-6.98c5.05,0.81,9.7,2.33,14.76,3.34c0.54,4.89-1.79,29.21-5.86,101.9
		c0,4.05,2.24,3.61,3.13,2.43c0.82-0.82,22.54-355.62,22.54-355.73c2.05-38.27,4.18-49.81,0-48.02c-1.53,0.44-0.37-7.63-5.96,83.8
		c-14.39,235.11-12.37,213.39-15.37,212.89c-15.59-3.69-12.05-1.93-22.95-10.82c0.38-2.07,1.63-1.37,11.12,0.3
		c0.2,0.61,0.41,1.31,0.71,1.92c0.73,1.51,2.01,1.61,3.03,0.2c1.13-1.54-0.82-1.68,5.66-0.61c2.75,0.45,2.35,0.66,3.64-0.91
		c0-1.28-1.58-1.31-4.95-2.12c-1.22-0.29-2.33-0.51-3.74-0.71c0-12.15,14.77-276.56,13.95-280.01c-0.46-1.93-3.38-1.7-3.44,0.51
		c-2.83,119.03-5.6,109.4-10.01,196.72c-1.3,25.76-1.18,24.1-1.42,25.27c-16.76-2.03-15.83-1.04-19.11-2.02
		c-0.69-1.49,12.09-211.33,12.23-217.84c0.03-1.49,0.09-3.44-1.62-3.44c-3.17,0-1.59-2.74-8.09,108.16
		c-0.18,3.02-6.36,109.99-6.77,112.91c-2.2,0.2-4.53,0.12-5.36,0.81c-2.43,1.62-5.26,1.52-8.19,2.22
		c-0.74-5.17,10.11-222.86,9.6-223.5c-0.88-1.11-3.46-0.12-3.64,2.02c-0.01,0.11-9.9,221.78-9.91,221.89
		c-8.51,2.13-12.37,2.91-16.17,5.16c-2.8,1.4-4.55,0.21-9.81,5.46c0.12,0.18,0.61,1.31,1.21,1.92c-0.3,1.82-0.51,3.54-0.81,5.46
		c-18.18-4.71-15.76-2.43-15.67-6.77c1.1-50.55,2.1-92.44,2.97-126.25c-1.08,28.72-2.43,62.57-4.08,101.08
		c-1.44,33.5-1.08,24.13-1.52,27.6c-2.02,0.4-3.94,0.2-6.07,0.2c-0.71-4.95,8.19-204.18,8.29-209.25
		c0.73-38.68,2.27-34.11-1.11-35.38c0,0.02-6.47,194.01-9.81,244.02c-3.54,0.2-6.37-0.1-9.2-1.11c0-7.99,12.55-242.02,9.6-244.23
		c-1.57,4.71-10.06,242.06-12.03,244.02c-6.27-0.61-12.74-1.72-19.21-2.43c0-6.4,0.23-5.58-3.94-6.98c-1.01-2.31-0.29-2.74-9.3-3.94
		c-5.39-0.72-4.37,1.74-6.57,1.11c-1.82-0.71-3.23,0.2-4.65,1.31c-0.61-0.4-1.21-1.01-1.82-1.01c-1.22-0.2-5.1,2.03-4.95,5.05
		c-1.57,0.65-36.33-3.44-23.55-3.44c3.13-0.2,5.01-2.72,4.14-5.76c-0.43-1.51-1.31-2.83-2.02-4.45c3.87-7.41,5.35-11.19,2.53-28.81
		c1.67-2.05,6.32-94.01,9.6-143.34c3.03-45.52,3.81-45.79,0.2-46.1c-4.05-0.34-2.93-0.19-7.38,74.2
		c-7.42,123.98-6.87,111.08-5.76,115.14c-1.72,1.52-1.72,3.74-1.72,6.07c-5.43,5.85-8.61,12.96-6.17,20.52
		c-1.75,2.34-3.89,3.69-1.92,8.69c1.12,2.86,1.61,1.67-0.81,3.74c-1.82,0.3-3.64-0.2-5.56-0.61c-1.72-2.53-1.56-5.64-2.53-8.29
		c-0.95-2.61-2.63-4.95-3.03-7.78c4.91-6.32,12.55-13.17,9.81-17.69c-2.47-4.08-4.1-12-4.95-14.56c-0.44-1.1-1.52-1.86-3.44-3.54
		c1.21-4.85,1.5-6.79-2.32-8.29c-4.45-1.75-6.85-2.46-6.67-5.16c0.42-3.37-1.22-4.02-12.84-11.63c-9.41-6.16-19.49-4.68-20.42-4.35
		c-4.93,1.78-10.41,2.32-14.86,5.46c-0.51,0.3-1.11,0.51-1.52,0.61c-14.42,21.63-7.43,5.23-17.79,29.42
		c-3.21,0.4-2.43,1.22-2.43-1.82c-0.2-0.1-0.51-0.2-0.61-0.2c-2.49,2.49-0.76,2.43-3.34,5.36c-4.15,4.72-6.25,21.98-2.93,30.83
		c0.3,1.01,0.51,2.02,0.81,3.23c-0.91,0.4-1.62,0.81-2.43,1.01c-9.79,3.26-10.3,5.56-17.99,7.58c-0.81,0.21-1.62,0.51-2.33,0.91
		c-8.76,6.09-22.08,11.86-22.85,14.46c-1.06,3.58,2.03,8.75,5.36,6.98c14.94-7.96,20.48-11.77,26.18-13.85
		c8.96-3.26,12.85-7,15.47-7.38c0,11.76,3.94,9.22,0.81,30.93c-0.52,3.59-2.02,3.29-10.72,15.47c0.71,0.71,1.01,0.2,1.31-0.1
		c9.74-8.52,1.89,0.4,2.18,1.38c3.97-1.94,4.3-4.71,9.14-7.45c6.5-3.68,12.98-7.72,16.38-14.35c3.16,1.41-5.28,9.15,9.7,30.12
		c2.71,3.79,1.37,3.5,3.74,5.66c7.26,6.62,3.55,4.93,7.99,8.9c5.69,5.08,14.47,15.49,16.48,22.95c0.74,2.74,5.03,11.15,6.67,15.26
		c7.63,19.1-15.8,35.27-18.09,52.57c-3.26,24.58,1.44,25.75,10.01,38.31c-2.89,1.45-4.96,0.39-3.84,13.55
		c0.31,3.59-0.46,6.08-0.51,9.4c-0.09,6.92,4.55,7.1,11.52,10.61c2.42,1.22,7.11,2.09,7.88,2.33c0.3,2.33,0.51,4.35,0.81,6.57
		c18.17,5.81,13.06,5.11,22.85,2.93c0.38,2.65,0.29-2.68-2.53,29.21c-0.69,7.8-4.45,7.02-5.66,14.25
		c-1.42,8.51-3.84,10.16-3.84,11.22c-0.71,5.68-4.61,8.12-1.31,9.81c6.15,3.16,13.22,6.19,20.02,5.05c5.1-0.85,5.58-0.35,7.78-1.82
		c22.39,1.82,23.35,1.04,27.19-13.04c3.52,4.02,6.98,7.79,12.64,10.21c2.35,0.78,2.39,2.2,3.94,2.33c2.81,0.23,8.22,1.98,12.84,1.82
		c4.71-0.16,6.47-0.45,13.65-0.81c-2.44,7.92-4.78,7.41-5.66,10.92c-0.81,3.23-2.34,6.16-3.84,9c-1.23,2.32-1.61,4.76-2.63,7.08
		c-0.53,1.21,0.76,2.01,2.02,2.43c-0.37,1.48-0.29,2.43,4.14,4.45c27.35,12.44,22.4,8.44,28.2,4.95c5.48,2.35,4.95,2.6,12.84,4.75
		c12.45,3.39,26-2.3,24.06-15.16c0-0.3-0.4-0.51-0.91-1.31c-1.9,4.76-0.84,7.53-6.57,12.43c-2.05,1.75-12.91,2.8-15.57,3.13
		c-2.63-1.92-5.76-2.73-8.9-3.64c-9.28-2.7-4.81-4.13-12.43,0.1c-11.07-2.06-10.99-9.3-20.42-10.41c-0.91-0.11-1.82-0.51-2.63-0.81
		c0.1-3.74,2.24-6.67,3.23-10.01c2.07-6.95,2.39-7.62,3.74-9.3c3.56-4.42,1.55-3.63,6.98-10.41c2.02,0.71,4.45-0.4,6.57,1.11
		c1.66,8.31-0.15,6.52,11.02,12.43c3.69,1.64,4.15-1.39,5.86-4.95c0.2-0.41,0.3-0.91,0.4-1.52c2.88,3.14,1.38,6.26,4.55,7.38
		c0.4-0.4,0.91-0.81,1.42-1.31c1.21,4.12,3.76,2.43,5.16,4.25c1.13,1.48,4.17,2.43,5.36,2.43c7.56-1.16,8.25-1.68,11.83,6.67
		c0.91-0.1,1.01-0.81,0.91-1.31c-0.2-1.42-0.3-2.93-0.81-4.25c-1.86-4.83-7.37-3.1-7.78-3.23c-1.72-0.81-3.54-0.69-5.36-0.81
		c-1.89-0.13-1.55-0.17-12.33-9.3c-4.06-3.44-4.65-6.48-3.03-17.59c0.73-5.03,2.82-14.33,4.85-17.39c1.05,0-5.24-2.04,85.72,28.61
		c1.01,2.73-0.91,5.46,0.51,8.09c0.81,0.1,1.61,0.12,2.33,0.4c0.7,0.28,8.09,5.55,11.42,4.75c2.22-0.53,10.14-2.46,9.5-3.74
		C373.56,549.62,409.67,10.77,406.43,10.31z M270.07,498.66c3.28,0.41,80.81,26.04,81.78,26.69c0.2,1.21,0.1,2.33-0.51,3.64
		c-23.05-7.68-80.21-26.12-82.18-27.6C269.46,500.68,269.76,499.77,270.07,498.66z M242.57,447.11c6.28-3.53,6.59-4.16,0.91,4.55
		c-0.2,0.31-0.61,0.51-1.31,1.11C242.37,450.75,242.37,449.03,242.57,447.11z M226.3,578.93c-0.13,0-0.4,0.28-0.4-0.1
		C226.02,578.82,226.3,578.55,226.3,578.93z M234.08,450.04c2.12-0.71,4.04-1.31,6.17-1.92c0.37,3.34,0.05,11.13-1.52,15.47
		c-3.69,10.2,1.34,21.02-0.61,28.81c-2.12-0.81-3.94-1.52-5.86-2.22C232.2,489.55,233.13,454.77,234.08,450.04z M231.55,450.95
		c-0.2,13.55-1.11,26.99-1.31,40.94c12.94,4.85,11.02,4.73,11.02,13.44c0,0.91-0.4,1.82-0.61,2.73c-3.13-0.91-5.96-1.72-8.9-2.63
		c-2.22,1.62-0.3,4.35-1.82,6.47c-12.05-4.96-10.11-3.36-10.11-6.77c0.77-13.88,1.65-44.48,2.33-52.57
		C225.28,452.06,228.22,451.56,231.55,450.95z M235.09,509.18c-0.71,0.4-1.42,0.91-2.43,0.51c0-0.71,0-1.42,0-2.32
		C234.18,507.56,234.79,508.16,235.09,509.18z M208.4,454.89c3.84-0.71,7.58-1.72,11.63-2.22c0.3,2.74-2.94,50.82-1.82,56.41
		c4.55,0.61,7.99,3.64,12.33,4.55c11.41-5.19,9.91-4.97,9.91,4.14c0,0.81-0.2,1.72-1.01,2.22c-1.92,1.42-4.05,2.89-6.47,3.03
		c-10.32,0.6-11.67,4.43-21.63,3.84c-2.99-3.32-4.74-12.65-5.26-17.08c-1.53-13.2,0.78-7.56,1.31-26.59
		C207.61,475.45,206.12,475.46,208.4,454.89z M281.99,378.47c10.5,18.19-0.56,33.01-5.96,35.48c-1.82,1.82-4.35,2.13-6.57,2.73
		c-6.22,1.68-26.31-8.6-35.68-12.84c-12.64-5.71-13.25-4.19-20.82-7.18c-16.46-6.49-16.65-6.3-20.02-8.79
		c-3.08-27.73-1.27-24.53-2.73-31.03c-3.06-6.11,61.72,13.38,72.28,15.87C282.11,377.33,281,376.98,281.99,378.47z M149.27,298.21
		c-2.01-0.63-2.64-4.64-5.66-4.85c1.98,5.67,4.08,5.72,4.85,6.17c1.13,6.01,2.5,7.55,3.6,11.48c-5.04-5.04-26.41-16.13-27.76-28.97
		c-3.24-30.78,7.8-26.46,28.61-30.02c3.28-0.56,8.36,2.48,17.18,1.92c3.8-0.24,3.35,2.53,4.55,2.83c4.35,1.66,5.51,5.54,8.59,13.65
		c3.41,8.98,2.43,14.37,4.35,20.12c2.38,7.13,12.01,9.11,18.09,25.17c2.73,7.2,7.08,20.49,8.19,13.85
		c0.5-4.76-5.37-19.22-17.49-31.34c5.59-9.32,5.16-9.72,5.16-19.91c17.61,35.21,15.93,37.22,17.29,59.74
		c0.19,3.09-0.51,3.73-2.32,8.09c-11.17,1.91-11.46,1.89-12.74,1.72c-11.58-1.51-14.43-6.25-25.88-15.47
		C146.56,307.16,151.26,298.71,149.27,298.21z M152.5,311.45c-0.1-0.1-0.19-0.19-0.29-0.29C152.35,311.18,152.5,311.27,152.5,311.45
		z M168.88,247.87c2.33,0.3,4.25,0.51,6.67,0.91c-0.51,0.91-0.71,1.42-1.01,2.02C172.62,249.99,170.8,249.48,168.88,247.87z
		 M193.85,294.77c-7.84-7.51-1.74-9.65-8.49-24.87c-1.03-2.32-1.62-4.75-2.43-7.68c4.65,2.83,9.2,4.75,11.63,9.5
		C200.41,278.35,198.83,287.84,193.85,294.77z M196.98,264.14c-0.1,0.61-0.1,1.01-0.2,1.92
		C195.02,263.65,194.62,264.14,196.98,264.14z M192.13,346.73c2.38,1.43,3.78,1.35,5.66,2.02c7.86,2.79,13.64,0.18,19.61-0.61
		c3-0.39,1.9-2.37,2.73-4.45c0.87-2.17,0.4-2.14,0.4-12.94c0-8.97,0.49-20.6-7.08-31.64c-2.03-2.96,2.33,3.47-11.73-24.46
		c-1.55-3.08-3.45-10.58-1.11-12.84c1.49-1.44,2.91-2.85,4.45-4.25c0.8-0.72,1.82-1.21,2.63-1.92c3.43-3.43-1.81-3.76,10.92-1.82
		c3.04,0.46,6.27,0,9.4,1.11c0,3.07-4.19,100.51-5.16,103.41c-4.41-0.2-6.19-2.06-12.03-2.93c-12.58-1.88-14.19-2.98-21.23-4.95
		C188.17,342.82,187.58,343.98,192.13,346.73z M248.74,273.74c0.32,1.2-1.94,18.24-1.42,23.35c0.24,2.28-1.15,1.68-1.42,8.79
		c-0.13,3.54-2.08,51.89-2.73,57.11c-2.12-0.4-4.14-0.4-5.96-1.42c0-7.06,4.54-104.72,4.55-104.83c8.25,1.79,6.87-0.94,6.87,7.68
		C248.64,267.58,247.89,270.59,248.74,273.74z M265.32,278.09c-0.25,28.05-1.14,27.92-0.2,35.89c1.07,9.17-1.38,28.23-0.91,33.76
		c0.36,4.24-0.3,8.39-0.4,12.64c-0.16,6.53,0.89,6.42,0,8.79c-5.05-1.14-16.23-4.5-18.09-5.46c0-9.85,4.37-102.5,4.65-105.43
		c6.17,0.81,11.02,3.03,15.06,6.87c0,0.3-0.1,0.71-0.1,1.01C263.86,273.03,265.34,275.87,265.32,278.09z M234.48,361.39
		c-2.93-0.4-5.76-1.21-9-2.22c0-1.82,4.34-102.18,4.95-103.72c1.62,0.2,3.03,0.2,4.45,0.51s2.93-0.4,4.14,0.61
		C239.36,257.89,235.31,359.86,234.48,361.39z M332.94,237.55c-0.58,12.16,0.61-10.37-1.42,27.8c-1.2,22.51-0.79,20.76-1.82,21.53
		c-4.25-0.3-8.59-1.62-12.94-1.92c-0.71,0.61-1.31,1.01-2.02,1.52c-7.78-6.27-15.67-12.43-23.25-18.7
		c-0.3-6.47-0.51-12.53-0.71-18.6c-1.77-0.66-1.41,1.1-1.21,14.76c0.07,4.94-4.81-3.6-19.21-11.83c0.2-2.43,0.4-4.75,0.61-7.28
		c15.76,2.87,13.9,1.72,15.57,2.33c2.21,0.8,3.12,0.79,26.79-5.76C333.97,235.68,333.56,234.47,332.94,237.55z M332.34,233.41
		c0.61,0,0.6,0.21,0.3,0.51c-0.2-0.1-0.3-0.2-0.51-0.3C332.23,233.51,332.23,233.41,332.34,233.41z M271.58,240.28
		c3.03-0.81,5.96-1.76,9.1-2.43c3.91-0.83,5.15-2.51,11.22-2.93c0.35,2.8,0.19,3.52,0.4,4.04c0.45,1.12,3.64,3.49,3.64-4.55
		c11.36-3.47,12.06-3.99,13.85-2.53c0,2.77-0.6,5.86,1.72,5.86c2.36,0,1.42-2.81,2.33-5.96c5.36,0.2,10.51,0.71,15.57,1.42
		c0.3,0,0.51,0.4,0.91,0.71c-0.1,0.03-38.72,11.82-41.85,11.12c-11.81-2.66-13.42-2.34-18.3-3.84
		C270.98,240.59,271.28,240.28,271.58,240.28z M284.32,264.34c40.64,32.37,39.35,31.16,42.46,34.27c-0.65,1.62-0.49,1.12,0.91,1.52
		c-1.62,1.92-3.03,3.13-5.05,3.44c0.51-1.92,2.43-2.53,3.74-3.54c-3.23,0.2-4.75,2.43-5.76,5.36c-12.79-9.3-52.74-44.44-62.98-47.51
		c-16.66-6.08-31.62-3.86-52.77-8.09c-0.61-2.22-1.11-4.35,0-6.57C273.06,250.79,262.09,246.64,284.32,264.34z M203.25,233.71
		c-0.75,0.19-0.48,0.52-1.31,0.1C202.93,233.32,202.14,233.44,203.25,233.71z M207.19,237.25c0,1.31,0,2.53,0,3.64
		c-3.49,1.58-4.64-3.6-8.9-4.35c-0.3-0.1-0.61-0.51-1.01-0.91C200.32,235.33,203.35,235.84,207.19,237.25z M200.22,239.58
		c1.21,2.33,2.3,4.55,2.12,7.18c-0.18,2.77,1.53,7.41,4.35,6.47c0.61-0.2,0.71,0.51,0.71,1.11c-6.58,3.29-3.04,0.77-12.37,9.56
		c-8.61-8.59-12.58-5.76-17.35-11.48c0.3-1.01,0.71-2.02,0.91-2.93c4.25,0,10.21,0.81,12.74,1.82c-2.35,3.29-4.61,5.28-2.43,5.76
		c0.92-0.62,5.51-5.92,6.07-6.57c1.32-1.56,1.67-3.57,2.12-7.18c0.3-2.43-0.5-3.29-3.03-3.23c-0.71,0.01-1.01,0.4-1.52,0.81
		c-0.25,0.25-1.72-0.07-1.72-1.11C191.23,238.11,192.81,238.69,200.22,239.58z M192.73,232.7c1.21,0.3,2.22,0.61,3.23,0.91
		c-0.61,1.11-1.11,2.12-1.62,3.13C189.22,237.6,189.8,234.8,192.73,232.7z M185.76,234.42c0.37-1.53,0.71-1.72,3.23-1.52
		c-0.1,0.81-0.61,1.72-0.3,2.33c0.71,1.43-0.1,1.67-0.1,5.56c1.52,0.71,3.23,0.71,3.94,2.63c-0.51,1.42,0.3,3.44-1.42,4.65
		c-2.1-1.23-0.4-4.72-1.92-5.96c-1.54,1.54-2.12,2.46-2.93,1.92c-0.81-0.4-1.1-1.21-1.01-2.12
		C185.8,236.49,184.53,239.53,185.76,234.42z M180.71,235.53c1.01-0.4,2.02-0.61,2.93,0.2c-0.2,1.92-0.4,3.84-0.61,5.96
		c-1.31,0.3-2.43,0.61-3.54,0C179.49,239.58,178.99,237.35,180.71,235.53z M151.69,232.1c1.3-2.17,2.33-3.27,0.81-3.84
		c-0.51,0.51-0.91,1.01-1.42,1.62c0-2.53,0-2.53,3.34-4.14C156.64,228.84,156.01,232.1,151.69,232.1z M155.03,221.15
		c-0.05,1.28-0.16,0.77-0.71,1.04C154.32,221.66,154,221.86,155.03,221.15z M155.19,220.93c0.18-0.54,0.36-1,0.55-1.36
		C155.56,220.04,155.88,220.67,155.19,220.93z M157.15,202.28c-0.71-0.61-1.01-1.31-1.21-2.12c-0.1-0.2,0.3-0.51,1.01-1.42
		C157.05,200.46,157.05,201.37,157.15,202.28z M156.24,196.61c0.75,0.32,0.94,1.82,0.1,1.82
		C155.66,198.43,155.3,197.02,156.24,196.61z M151.79,208.64c2.99-5.8,2.75-5.42,3.34-5.26c1.72,4.65,0.91,11.63-1.82,15.47
		C151.4,213.75,149.98,212.15,151.79,208.64z M148.96,215.11c1.01,1.92,2.43,3.74,1.82,6.27c-1.62-0.71-1.62-0.71-1.72-1.21
		C148.46,218.45,148.46,216.83,148.96,215.11z M148.66,224.72c0.54,0.27,0.28,0.33-0.4,1.01
		C148.04,225.51,147.86,225.52,148.66,224.72z M147.25,232.3c0,0,0,0.1,0,0.2C147.14,232.4,147.02,232.11,147.25,232.3z
		 M145.43,234.52c1.52,1.01,3.34,1.52,5.26,0.51c0.3,0.91,0.81,1.31,1.72,1.42c7.69,0.9,20.4,2.87,24.16,3.34
		c0.61,1.31,1.21,2.43,1.72,3.64c1.72,0.61,3.44,0.51,5.46,0.2c1.35,3.82,5.37,1.24,4.25,4.04c-3.02,0,0.71,0.52-19.41-2.02
		c-25.69-3.24-27.58-4.39-29.62-10.31C144.9,234.74,142.62,236.4,145.43,234.52z M108.33,156.18c-0.51,0-1.01,0-1.52,0
		C107.32,155.07,107.82,155.27,108.33,156.18z M80.12,158.91c3.47-3.47,16.1-6.54,24.16-4.35c-11.43,1.4-13.1,8.37-20.92,12.94
		c0.61,0.51,1.11,0.91,1.52,1.31c-0.27-0.27,4.38-4.99,10.82-6.97c0.38-0.12,15.67-4.72,15.77-4.75
		c13.94,7.97,12.05,5.89,14.56,14.96c0.4,1.46,1.65,3.54,2.63,3.54c1.08-2.16,2.25-1.55,4.65-1.01c1.05,0.35,1.52,3.98-0.81,5.66
		c1.11,2.89,3.09,2.11,5.05,6.37c1.87,4.05,0.89,7.2,3.34,10.21c1.63,2.01,1.53,3.95,0.3,5.96c-4.62,7.55-6.24,8.57-8.09,10.41
		c-1.72,1.72-0.96,1.37-3.13-0.81c-0.4-0.3-0.91-0.3-1.31,0.4c0,1.78,6.27,11.96,6.27,14.66c0,5.99,2.67,12.2,7.66,16.57
		c-7.37,1.05-8.52,0.62-11.22,2.43c-7.65,5.13-10.95,6.94-12.53,9.7c-4.19,7.31-25.11,3.78-22.24-11.73
		c5.31-3.54,6.33-8.78,2.32-14.25c-3.52-4.8-3.59-3.83-1.15-4.23c-0.42-1.01-3.3-2.45-8.96-6.89c-6.15-4.83-3.09-3.8-2.83-3.54
		c9.61,5.4,13.8,8.7,20.12,11.73c1.98,0.95,1.98-0.1,1.17,3.58c2.88-2.88,1.46-1.86,3.88-1.86c0.51,0,1.11,0.3,1.52-0.61
		c-5.32-3.19-17.84-5.71-6.17-4.55c-1.74-1.09-35.89-16.31-30.63-19.81c0.71,0.4,3.52,3.32,33.97,19.31
		c0.84,0.44,1.11,1.31,0.92,1.31l0.01,0.01c-0.41,0.01-0.87,0.06-1.29,0.08c0.43,0.3,0.88,0.76,1.31-0.06
		c0.1,0.1,0.09,0.08,0.05-0.03c5.35,0.39,5.15,1.46,7.3,0.61c-0.42-1.4-41.98-18.9-36.54-20.09c-0.52-0.81-1.38-0.55-2.07-0.84
		c-0.05,0.1,0.34,0.18-5.76-3.03c-0.1-0.1-0.4,0.2-0.71,0.3c1.85,2.22,1.77,1.25,1.31,3.54c-2.84,0-3-0.82-4.95-2.12
		c0,3.19,0.67,3.4,2.18,7.08c-0.99,0.03-1.65-0.59-2.21-1.32c-3.45-0.83-1.66-4.23-1.08-6.16c1.61,0.54,1.3,0.74,0.81-1.21
		c5.56-15.57-3.78-2.63,25.68-9c-2.96-0.65-13.12,1.23-20.32,0c16.92-2.79,31.71-8.51,25.57-7.28c-12.76,3.65-10.7,3.84-28.51,6.67
		c-0.71,0.11-1.11-0.2-1.31-1.01c0.71-0.61,1.42-1.11,2.12-1.72c-0.4-0.2-0.71-0.4,0-0.71c0,0.24,0,0.44,0,0.71
		c0.59-0.09,1.24-0.02,1.39-0.71c-1.91,0-1.34,0.2,0.03-2.22c-1.84,0-1.62,0.27-0.81-1.31c-0.51-0.2-0.51-0.51,0-0.71
		c0.27-0.27,0.2-0.41,0.2,0.61c0.48,0,1.04-0.08,1.53-0.09c0.04-0.51,0.3-0.7,0.75-0.71c1.02-1.76,0.89-1.07-0.86-1.42
		c0.1,0.61-0.2,0.81-0.71,0.71c0,0.51-0.3,0.71-0.71,0.71c0.17-0.17,0.36-0.36,0.51-0.51c0-0.51,0.2-0.81,0.71-0.71
		c0-0.93-0.1-0.45,5-6.41c-1.65-0.43-7.75,6.09-8.85,7.42c-0.58,0.7-0.81,1.74-1.92,1.81c3.47-10.41,23.41-26.94,7.38-14.34
		c-0.09,0.36-0.34,0.62-0.76,0.54c4.4-6.84,6.56-7.25,6.34-8.75c-10.75,8.31-15.66,20.78-11.34,8.63c0,0.07,0,0.12,0,0.2
		c1.2-0.45-0.06-2.34,4.55-7.99C76.31,161.86,78.41,160.63,80.12,158.91z M101.45,157.49h-0.3
		C101.51,157.37,101.45,157.36,101.45,157.49z M72.54,232.8c-0.02-0.24-0.56-5.53-0.1-6.37c1.56,0,22.66,2.09,23.76,3.44
		c1.4,1.73,2.83,3.54,2.53,6.27C94.87,236.69,74.31,233.28,72.54,232.8z M100.44,223c0.37-0.19,0.75-0.36,0.88,0.17
		C101.06,223.11,100.79,223.09,100.44,223z M83.66,214.3c0.21,0,0.27-0.02,0.39,0.1C83.96,214.31,83.86,214.3,83.66,214.3z
		 M83.97,218.04c-3.13-1.17-5.9-2.26-6.57-7.28c2.02,2.12,4.14,4.25,6.17,6.37C83.76,217.44,83.76,217.84,83.97,218.04z
		 M84.07,214.41c0.1,0.1,0.23,0.29,0.52,0.67C84.13,215.02,83.99,214.83,84.07,214.41z M76.99,214c-0.51,0-0.81,0.1-0.81,0.1
		c-1.92-2.22-3.34-4.85-4.55-7.58C73.28,206.37,73.86,207.74,76.99,214z M68.4,198.53c0.13-0.4,0.07-0.38,0.2,0H68.4z M69.21,189.34
		c-0.13,0.25-0.07,0.26-0.2,0H69.21z M73.11,174.44c0.29-1.16,0.72-2.14,1.93-2.64C74.88,173.03,73.95,173.72,73.11,174.44z
		 M70.12,170.13c0.2-0.2,0.51-0.51,0.71,0c-0.78,0-0.62-0.28-0.61,1.42C69.39,171.55,69.43,171.84,70.12,170.13z M67.69,172.56
		c0.36-0.47,1.06-0.59,1.65-0.84c-0.87,1.98-3.97,9.87-4.78,11.05C63.66,178.73,66.06,174.3,67.69,172.56z M68.5,185.55
		c0.09,0.65-0.02,1.11-0.54,1.41C67.9,186.41,67.95,185.84,68.5,185.55z M67.49,189.03c-1.72-0.81-1.72-0.81-1.62-1.92
		C68.59,187.11,67.8,186.73,67.49,189.03z M63.65,181.96c-0.96,6.21,0.89,5.72-2.02,5.36C62.33,185.6,61.93,183.78,63.65,181.96z
		 M27.96,242.61c-3.4,2.11-10.76,6.29-19.61,10.72c-2.63-1.82-2.63-1.82-2.53-4.75c2.69-1.49-2.04,1.12,17.89-10.21
		c9.67-5.5,5.41-2.35,10.41-4.85c17.75-8.87,15.42-9.37,16.68-1.42C44.06,236.2,37.21,236.88,27.96,242.61z M52.63,225.22
		c-1.52-8.73-3.68-16.95-0.81-26.69c0.41-1.38,0.7-2.95,1.85-4.06c0.07,0.2,0.15,0.42,0.27,0.73c0.27-1.36,0.74-1.11,0.01-1.11
		c0.5-0.78,0.22-0.25,0.5,0.3c1.21-2.22,4.14-2.63,5.26-4.85c4.96,0,4.33-0.68,0.61,2.63c0.93,0.93-5.08,3.86-4.46,12.78
		c1.36-2.43,1.22-3.16,2.44-5.8c2.79-6.06,6.19-4.82,6.67-7.68c0-0.3,0.81-0.4,1.21-0.71c2.02,1.52,3.74,3.13,3.34,5.96
		c-5.26,1.84-10.15,8.18-8.19,15.47c3.92,14.54,7.16,16.2,5.56,26.28c-0.71-6.35-0.37-2.52-0.91,3.94
		c-1.52-2.22-1.92-4.35-3.13-6.17c-1.71,2.57-0.63-1.35,0.2,6.17c0,2.39,1.42,0.37,1.42,3.44c-0.54,4.06-1.26,8.84-4.04,12.23
		c0.52-3.1,3.23-8.37,2.02-15.26c-0.63-1.9-0.91-0.29-0.91,1.21c0,6.53-0.26,4.09-0.61,5.46c0-5.76-0.61-11.32-1.11-16.88
		c-3.31,10.75,3.41,22.79-5.26,30.23c3.33-15.91,3.07-14.22,2.33-24.16c-0.43,7.39-1.31,2.82-1.31,10.61
		C54.41,241.69,53.83,232.14,52.63,225.22z M65.65,202.96c-0.06,0.45,0.04,1.01-0.5,1.26C65.08,203.7,65.19,203.26,65.65,202.96z
		 M64.92,204.39c-0.13,0.3-0.27,0.6-0.41,0.9C64.53,204.91,64.57,204.58,64.92,204.39z M57.24,263.79
		c-0.38-1.27,0.29-0.76,1.56-3.29c-0.2,0.61,0.2,1.72-1.01,1.72C57.98,262.9,57.87,263.39,57.24,263.79z M47.68,275.46
		c1.62-2.27-0.46,0.17,5.36-6.47c0.1,0,0.4,0,1.01-0.1C51.01,273.95,50.51,274.45,47.68,275.46z M54.25,267.48
		c0.97-1.36,1.3-2.99,2.86-3.48C55.86,266.86,55.83,266.88,54.25,267.48z M60.72,267.88c-5.88,3.67-4.94,3.34-5.36,3.34
		c0.9,0-0.43-1.88,2.53-3.23c1.07-0.49,2.24-0.88,3.42-1.27C61.11,267.1,61.01,267.59,60.72,267.88z M60.82,262.22
		c1.33-3.12,5.17-12.47,4.35-10.01C65.47,256.26,63.95,259.59,60.82,262.22z M65.28,263.72c0.04-0.35,0.26-0.54,0.57-0.57
		C65.69,263.31,65.47,263.53,65.28,263.72z M65.96,263.04c-0.15-1.02,0.31-1.69,1.22-2.08C67.15,261.89,66.54,262.47,65.96,263.04z
		 M67.3,260.81c0.07-0.48,0.01-0.94,0.19-1.32c4.13-8.58,1.55-18,1.52-18.7c-0.1-1.92,0.2-3.84,0.1-5.76c0-1.52-0.38-3.14-0.51-4.65
		c-1.34-16.84-5.75-14.46-4.75-23.76c0-0.21,0.21-0.37,0.4-0.57C64.12,210.84,78.93,251.12,67.3,260.81z M71.63,224.31
		c-5.02-18.59-3.97-9.95,9.2-4.45c3.52,1.47,6.47,3.84,9.1,6.77C83.86,225.83,77.8,225.12,71.63,224.31z M72.44,252.21
		c-0.3-1.52-0.49-3.02,0.4-4.55c0.41-0.7,0.71-1.92,0.4-2.43c-1.31-1.92-0.73-3.94-0.61-5.96c0.08-1.32-0.4-2.63,0.61-3.94
		c6.3,0,17.14,2.76,23.65,2.33c1.61,1.61-0.47,3.02-2.73,3.34c-8.51,1.19-11.62,0.58-15.87,4.75
		C75.48,248.51,73.09,252.37,72.44,252.21z M88.92,296.99c-15.57-20.76-14.34-18.16-13.34-35.38c0.47-8.08,5.72-17.74,13.24-15.67
		c0,0.4,0,0.71,0,1.11c-2.21,12.68,0.4,21.93,0.2,27.39C88.37,292.76,98.22,309.39,88.92,296.99z M114.59,333.89
		c-0.95-1.54-5.31-9.72-3.74-10.61c5.66,1.21,11.42,2.22,17.08,3.84c1.06,3.34,2.48,8.19,4.45,12.84c0.81,1.92,0.61,4.25,2.33,6.67
		c-1.34-9.67-0.95-6.4-2.93-18.7c8.67-1.73,6.24,2.96,21.63-0.4c2.73-0.6,5.46-0.71,7.99-1.72c0.1-1.21-0.61-1.41-1.31-1.42
		c-4.65-0.05-9.41-0.75-14.05,0.51c-6.25,1.69-10.75-2.26-15.57-1.72c-8.33,0.94-14.55-3.57-20.02-1.72
		c-4.35,1.48-3.65-6.81-12.33-15.37c-0.81-0.8-1.42-1.62-1.62-2.73c-0.21-1.21-0.69-2.33-0.91-3.44
		c-4.44-22.91-1.43-15.67-2.53-22.24c-2.32-20.58-3.06-20.95-1.52-30.93c0.23-1.51,1.31-2.22,2.93-2.12c0,1.21-0.2,2.33-0.1,3.54
		c0.56,6.67,2.8,7.03,4.04,10.21c5.35,3.1,11.45,7.36,19,1.52c22.15-17.14,16.12-11.19,27.8-14.15c4.58-1.16,6.41,1.61,16.07,3.54
		c1.42,0.28,2.83,1.11,4.95,1.92c-5.28,0-10.77-3.25-14.15-2.12c-3.44,1.15-11.08,0.71-18.9,4.45c-3.19-2.21-8.46,2.62-10.51,7.38
		c-4.29,9.95,0.43,30.63,11.52,40.03c3.77,3.2,7.81,6.13,11.73,9.1c2.64,2,5.46,3.54,8.79,4.04c15.85,21.13,30.16,25.45,31.24,29.42
		c4,14.72,0.57,16.34,3.44,36.69c0.86,6.08,1.4,3.62-2.33,5.66c-6.23,3.41-10.92,4.25-35.08,8.29
		c-12.13,2.03-40.01-8.59-42.36-17.39C119.55,360.24,124.75,350.33,114.59,333.89z M99.43,410.72c0-6.1,0.03-16.75,3.13-21.94
		c4.8-8.01,4.49-8.29,5.36-8.29c2.25,1.13-0.93,2.2,17.18,12.33c3.98,0.97,15.25,6.05,29.01,4.35c34.11-4.23,30.66-8.4,36.29-9.81
		c0.4,1.72,0.71,3.34,1.01,4.85c1.82,0.3,3.44,0.51,4.75,1.72c-2.4,5.59-1.67,3.85-1.91,6.15c1.53-1.61,2.14-3.77,3.22-5.94
		c3.03,1.21,5.76,2.32,8.69,3.44c0.91,2.93,1.95,5.75,2.83,8.69c2.97,9.95,3.5,23.8-2.53,31.94c-1.67,2.26,0.36,1.55-2.73,4.55
		c-6.39,6.22-6.86,7.04-10.21,7.78c-7.61,1.69-7.81,2.59-11.63,2.53c-11.38-0.17-25.93-0.51-34.98-6.07
		c-3.66-2.25-10.87-5.46-15.57-9.81c-2.79-2.58-4.05-1.96-4.6-1.93c0.28,0.5,0.58,1.15,0.86,1.63c-6.13,0-16.77-4.61-17.69-4.95
		C106.07,430.49,99.43,420.79,99.43,410.72z M122.58,464.8c-0.81,0.3-1.51,0.69-2.43,0.51c-4.03-0.8-7.88-2.12-11.73-3.54
		c-2.64-1.32-3.57-1.88-3.23-22.24c0.04-2.16,0.88-2.54,2.73-4.85c8.21,3.56,13.21,5.9,18.5,4.85c3.42-0.68,4.9,1.17,13.75,7.18
		c0.3,0.2,0.51,0.61,1.11,1.31c-1.82,0-3.23,0-4.55,0c2.22,0.71,4.45,1.11,6.37,0.3c14.72,6.17,5.7,0.38,10.92,10.82
		c0.1-1.11,0.53-2.45-0.61-3.64c-0.69-0.72-0.61-2.02,0-3.13c2.47,0,1.93,1.33,15.26,3.13c0.81,0.11,1.82,0,2.53,0.4
		c2.99,1.68,0.88-1.59,10.41,1.01c-0.71,0.2-1.11,0.29-1.62,0.4c-36.99,8.09-41.59,13.22-47.41,11.12
		C125.16,465.76,123.95,466.17,122.58,464.8z M137.44,478.95c-4.25-1.31-8.49-2.53-12.84-3.84c-0.1-1.52-0.2-3.03,0.4-4.75
		c6.11,2.33,4.84,2.16,12.33,3.94C137.64,475.92,138.15,477.33,137.44,478.95z M148.05,478.24c7.58-2.53,15.06-5.05,22.64-7.68
		c0.49,1.31,0.29,0.46-5.56,14.96c-0.7,1.72-1.42,3.23-2.73,4.25c0,0.91,0.2,1.72,0,2.02c-3.17,3.62-0.16,6.05-2.43,7.58
		c-3.08,2.09-2.65,10.88-3.23,15.67c-4.19,1.67-0.02,3.85,1.31,1.52c0.4-0.81,0.61-1.72,0.91-2.63c0.47,0,0.66-0.6-0.91,10.11
		c-0.61,0-1.42,0.2-1.72,0c-1.21-0.81-2.43-2.02-2.43-3.44c0-2.73-1.52-4.75-2.22-7.28c-4.75-1.43-5.36-1.83-5.96-2.73
		C147.35,501.67,148.04,478.35,148.05,478.24z M182.32,485.52c-0.51,5.46-0.89,10.81-0.51,16.28c0.61,8.6-2.55,3.2,2.93,27.19
		c0,0.07-0.95-0.15-1.21-0.4c-2.05-2.52-4.31-2.11-7.58-2.93c-8.67-2.17-3.94-5.62-14.56-15.06c0.3-4.14,0.61-7.88,2.22-11.52
		c4.76-10.7,3.63-12.78,8.59-21.94c4.57-8.43-2.45-5.89,10.31-10.61C181.69,483.15,182.76,480.85,182.32,485.52z M183.54,539.1
		c-1.44,1.92-2.6,4.69-7.68,5.36c-7.72,1.02-11.05-0.31-17.99,0.1c-6.24,0.37-7.72,3.51-23.65-2.73c0.81-2.53,1.4-4.96,2.53-7.18
		c5.42-10.69-0.1-11.54,8.39-21.03c1.31,0.61,2.53,1.11,3.84,1.62c0.1,2.02,1.12,3.63,2.33,5.16c0.93,1.17,1.86,3.98,3.13,5.26
		c3.25,3.25,5.5-1.05,5.66-2.02c2.41-10.85,0.56-8.63,2.53-10.21c3.88,6.79,8.67,17.96,15.67,14.46c2.43,1.31,5.05,2.12,6.98,4.04
		C185.66,534.55,185.36,536.97,183.54,539.1z M184.87,529.29c0.49,0,0.6,0.24,0.69,0.51C185.13,529.8,184.93,529.64,184.87,529.29z
		 M234.69,542.13c-6.35,5.85-18.7,3.78-27.09,3.13c-3.05-0.23-4.56-1.23-13.55-6.47c-8.58-5-11.58-25.93-10.11-32.95
		c0.58-2.78-0.97-2.02-0.2-14.05c1.93-30.41-1.17-26.77,6.97-29.21c4.05-0.81,3.01-1.54,3.74,7.18c0.39-2.08,1.04-7.79,0.3-10.01
		c-3.54,1.01-7.04,1.06-10.11,2.93c-5.79,3.53-44.03,15.82-45.08,15.87c-1.43-5.73-1.63-4.83,1.82-5.96
		c0.12-0.04,48.65-15.84,51.05-16.07c10.77-1.07,12.4-1.28,13.34-0.81c-1.29,12.89-1.88,17.3-1.01,24.06
		c1.66,12.86-5.17,19.84,0.51,38.82c1.35,4.52,4.15,10.76,8.59,12.33c2.53,0.9,5.05,1.82,8.09,1.31c-1.62-1.21-3.54-1.01-4.85-2.43
		c1.42-0.3,2.74-0.18,3.84-0.81c3.56-2.02,7.73-1.96,10.31-3.44c2.33-1.72,4.95-1.62,7.99-3.03c-1.11,3.03,0,5.86-2.63,7.68
		C238.34,531.19,237.27,531.13,234.69,542.13z"/> <path d="M254.43,117.07C259.66-22.23,258.49-40.72,254.43,117.07L254.43,117.07z"/> <path d="M55.76,205.11l0.1,0.1C55.83,204.91,55.92,204.85,55.76,205.11z"/> <path d="M69.41,208.74l-0.1-0.1C69.32,208.67,69.38,208.74,69.41,208.74z"/> <path d="M81.64,205.21l0.1-0.1C81.57,205.17,81.55,205.08,81.64,205.21z"/> <path d="M79.42,176.19c-0.09,0.09-0.03,0.05,0.1,0.1L79.42,176.19z"/> <path d="M107.11,230.98l0.1,0.1C107.29,230.74,107.33,230.76,107.11,230.98z"/> <path d="M97.81,226.03l0.1-0.1C97.76,225.96,97.75,225.91,97.81,226.03z"/> <path d="M126.73,435.18l-0.1,0.1C126.81,435.28,126.79,435.27,126.73,435.18z"/> <path d="M194.15,400.2h0.1C194.3,399.99,194.25,400.11,194.15,400.2z"/> <path d="M779.24,256.56c-2.27,1.14-1.31-2.02-1.31,29.42c0,2.33-0.61,4.55-0.2,7.28C781.11,277.86,779.24,260.15,779.24,256.56z"/> <path d="M778.74,305.38c-1.3-5.79-1.42-1.73-1.11-0.4c0.62,2.62,0.34,3.16-0.1,18.7C777.54,323.58,779.49,308.76,778.74,305.38z"/> <path d="M775.1,354.51c-0.61,2.43-0.61,2.43,1.31,15.06c0.2-1.72,0.39-2.63,0.3-3.44C775.46,354.14,775.84,355.26,775.1,354.51z"/> <path d="M289.17,295.88c0.05,6.17,0.1,12.33,0.2,18.4C291.14,291.62,289.16,294.21,289.17,295.88z"/> <path d="M270.27,435.28c0-0.2-0.61-0.2-1.11-0.51c0,3.13-1.01,5.96-0.91,8.79C270.89,437.15,271.14,438.17,270.27,435.28z"/> <path d="M757.41,442.66c-0.1,1.01,0.29,1.82,0,2.83c-0.43,1.51-0.2,3.13-0.4,4.55c1.82-2.93,1.82-2.93,2.22-7.58
		C758.55,442.12,758.65,442.24,757.41,442.66z"/> <path d="M604.36,80.36c-0.3,0.2-0.71,0.3-0.81,0.51c-0.51,2.02-0.4,4.14,0.2,6.97C605.07,85.22,605.17,83.6,604.36,80.36z"/> <path d="M249.14,478.55c-1.01,3.64-0.1,7.18,0.81,10.72C249.75,485.62,249.44,482.08,249.14,478.55z"/> <path d="M733.45,539.5c-0.4,0.3-0.81,0.61-0.81,0.81c0.1,1.62-0.4,3.03-0.71,4.55c-0.2,0.4-0.1,0.4,1.01,1.31
		c0.2-0.51,0.5-0.91,0.4-1.31C732.93,543.14,734.16,541.42,733.45,539.5z"/> <path d="M737.8,486.43c-0.71,3.13-0.3,6.37,0.1,9.5C738.4,492.7,737.9,489.56,737.8,486.43z"/> <path d="M243.88,538.29c0,0.33,1.01-0.15,1.01-0.61c0.1-1.72,0.3-3.54-0.4-5.36c-0.1,0.4-0.4,0.91-0.3,1.21
		C244.71,535.15,242.67,536.67,243.88,538.29z"/> <path d="M738,479.96c-1.21,1.21-1.31,2.22-1.01,3.23C738.24,483.55,738,482,738,479.96z"/> <path d="M561.9,256.86c-0.2-1.62-0.3-2.33-0.51-3.23C559.98,254.64,560.09,254.84,561.9,256.86z"/> <path d="M249.24,472.68c-0.71,0.91-0.91,1.92-0.4,3.13C250.05,474.81,249.24,473.69,249.24,472.68z"/> <path d="M250.76,494.42c-0.38-2.3-1.88-0.94-0.81,0.4C250.01,494.94,250.76,495.49,250.76,494.42z"/> <path d="M604.26,101.69c-0.76,0.38-0.67,0.18-0.3,0.91C604.48,102.34,604.64,102.45,604.26,101.69z"/> <path d="M603.55,91.79c0.78-0.39,0.25-3.04-0.4-0.4C603.15,91.48,603.35,91.69,603.55,91.79z"/> <path d="M738.81,502.81c0-0.81,0-1.42,0-2.63C738,501.39,737.9,502,738.81,502.81z"/> <path d="M253.29,498.97c-0.6,0.6,0.68,0.92,1.11,1.21C253.79,498.97,254,498.82,253.29,498.97z"/> <path d="M288.97,286.88c0-1.51,0.26-1.31-0.1-1.31C288.87,287.08,288.83,286.88,288.97,286.88z"/> <path d="M250.25,465.91c-0.1,0.1-0.2,0.1-0.3,0.2c-0.4,0.4-0.1,0.43-0.1,0.91C250.77,466.1,250.25,466.59,250.25,465.91z"/> <path d="M734.26,536.57c0.34-0.67,0.51-0.59,0.1-1.21C733.74,535.98,733.9,535.51,734.26,536.57z"/> <path d="M741.74,507.05c0.2,0.2,0.61,0.2,0.81,0.4c-0.45-1.35,0.19-1.01-0.81-1.01C741.74,506.65,741.64,506.95,741.74,507.05z"/> <path d="M246.01,528.79c0.65-0.65,0.38-0.01,0.1-1.42C245.57,528.45,245.59,527.95,246.01,528.79z"/> <path d="M756.9,451.05c0-0.3,0.1-0.61,0.2-0.91C756.7,450.54,756.7,450.54,756.9,451.05z"/> <path d="M265.72,445.19c0-0.13,0.28-0.4-0.1-0.4C265.43,444.97,265.55,445.19,265.72,445.19z"/> <path d="M738.71,473.9c0.1,0-0.1-0.1-0.2-0.2c-0.38,0.76-0.13,0.68,0,0.81C738.6,474.3,738.6,474.1,738.71,473.9z"/> <path d="M753.77,453.38c0-0.1,0.1-0.2,0.1-0.3s-0.1-0.2-0.1-0.3c0,0.1,0,0.2-0.1,0.3C753.67,453.17,753.77,453.27,753.77,453.38z"/> <path d="M287.55,379.28v-0.3C287.29,379.11,287.3,379.02,287.55,379.28z"/> <path d="M603.65,96.54c0,0-0.1,0.1-0.2,0.2c0.1,0.2,0.1,0.4,0.2,0.51C603.93,96.97,603.93,97.08,603.65,96.54z"/> <path d="M254.4,500.18c0.27,0.27,0.23,0.28,0.1-0.1l-0.06,0.06C254.44,500.14,254.42,500.15,254.4,500.18z"/> <path d="M742.85,507.96c0.51-0.51,0-0.4-0.2-0.51C742.75,507.66,742.75,507.76,742.85,507.96z"/> <path d="M268.15,443.77c0-0.1,0.1-0.1,0.2-0.1C268.15,443.67,268.15,443.67,268.15,443.77z"/> <path d="M44.64,282.03c0.1,0,0.2,0,0.3,0C44.84,281.93,44.74,281.93,44.64,282.03z"/> <path d="M529.96,288.5l0.1-0.1C529.93,288.27,529.96,288.25,529.96,288.5z"/> <path d="M673.1,248.27c0.1,2.53,0.4,4.95,0.71,8.29c1.27-2.32,1.57-2.44,1.01-7.78c-0.51-2.83-1.01-5.66-2.43-9.1
		C671.69,243.22,673,245.64,673.1,248.27z"/> <path d="M669.06,81.88c-1.43-0.48-2.92,3.53-0.71,7.48C669.95,87.07,670.83,82.47,669.06,81.88z"/> <path d="M672.9,161.03c0-0.1-0.1-0.2-0.2-0.3c-1.52,1.92-1.62,2.33-0.81,4.45C672.38,164.2,672.3,164.02,672.9,161.03z"/> <path d="M654.9,211.27c0.61,0,1.11,0.2,1.31,0C660.59,207.45,657.92,206.44,654.9,211.27z"/> <path d="M672.19,261.11c0.82,0,0.66,0.28,1.31-2.02c0-0.1-0.51-0.2-1.01-0.51C672.39,259.49,672.29,260.3,672.19,261.11z"/> <path d="M675.43,154.56c-0.33,0.33-0.21,0.02,0,1.72C675.8,154.79,676.12,154.91,675.43,154.56z"/> <path d="M671.58,268.18c0.1,0.1,0.2,0.2,0.3,0.4C672.34,267.67,671.89,267.57,671.58,268.18z"/> <path d="M677.85,150.42c-0.1,0-0.2,0-0.3-0.1C677.55,150.77,677.85,150.87,677.85,150.42z"/> <path d="M689.38,418.4c0.3-0.1,0.51-0.1,0.51-0.2c0.91-4.25,1.62-8.49,0.4-12.84c-0.1-0.51-0.61-0.91-1.11-1.62
		C688.26,406.64,690.14,406.18,689.38,418.4z"/> <path d="M685.23,413.75l0.1,0.1C685.33,413.63,685.33,413.65,685.23,413.75z"/> <path d="M613.16,402.23c-1.28-1.54-2.87,1.77-2.33,3.74C611.74,404.45,612.45,403.34,613.16,402.23z"/> <path d="M684.49,415.51c-0.99,0.25-1.19,1.11-1.38,1.98C683.88,417.01,684.35,416.35,684.49,415.51z"/> <path d="M684.62,415.47l-0.1-0.1C684.52,415.56,684.41,415.51,684.62,415.47z"/> <path d="M611.64,438.92c0.2,0.3,0.4,0.51,0.51,0.71c0.1-0.1,0.3-0.2,0.3-0.4c0-0.2-0.1-0.51-0.2-0.61
		C612.25,438.72,611.94,438.82,611.64,438.92z"/> <path d="M610.43,407.38c-0.1,0-0.2-0.1-0.3-0.3C610.12,408.99,610.34,407.64,610.43,407.38z"/> <path d="M685.33,413.95l-0.1-0.1C685.26,414,685.2,414,685.33,413.95z"/> <path d="M685.24,413.98c-0.81,0.22-0.82,0.8-0.72,1.38C685.19,415.08,685.31,414.62,685.24,413.98z"/> <path d="M682.91,417.69c0.1,0,0.2-0.1,0.3-0.1C683.01,417.49,683.01,417.59,682.91,417.69z"/> <path d="M624.07,357.34c-0.09-0.31-0.61-0.51-1.01-0.71c-1.12,0-0.06,3.66,1.01,5.16C624.58,360.17,624.51,358.75,624.07,357.34z"/> <path d="M622.96,372.3c1.52-1.42,1.31-2.73,1.11-4.45C622.93,369,622.96,367.95,622.96,372.3z"/> <path d="M609.62,380.19c-0.4,1.21-0.1,2.02,0.71,2.83C610.53,381.81,610.83,380.9,609.62,380.19z"/> <path d="M610.22,391.51c1.11-1.21,0.4-2.02,0.2-2.83C609.72,389.39,610.02,390.2,610.22,391.51z"/> <path d="M623.37,376.45c0.1-0.2-0.2-0.4-0.51-0.81c-0.1,0.71-0.2,1.11-0.3,1.52C623.22,377.32,622.97,377.64,623.37,376.45z"/> <path d="M636.1,388.98c-0.66-0.66-0.71,0.1-0.51,0.51C635.8,389.29,635.9,389.18,636.1,388.98z"/> <path d="M629.63,396.16c-0.1,0.2-0.3,0.3-0.4,0.51c0.1,0.1,0.3,0.2,0.4,0.2C630.02,396.09,629.78,396.31,629.63,396.16z"/> <path d="M608.91,376.35c0-1.33-0.09-1.11-0.51-1.11c0,0.4,0.1,0.81,0.1,1.11C608.61,376.35,608.71,376.35,608.91,376.35z"/> <path d="M621.85,382.41c0.23-0.23,0.03-0.4-0.3-0.4c0.1,0.1,0.1,0.2,0.1,0.3C621.75,382.31,621.85,382.41,621.85,382.41z"/> <path d="M620.54,386.46c0-0.44-0.2-0.3-0.3-0.2C620.23,386.64,620.41,386.58,620.54,386.46z"/> <path d="M610.22,198.84c-0.2,1.42-1.11,2.02-2.43,2.02c-1.42-0.1-2.22,0.71-3.13,1.52c-1.2,0.8-0.49,3.08-1.52,4.25
		c-2.18,2.49-2.4,4.59-1.31,7.48c1.52-0.61,0.4-2.53,1.92-2.83c1.52,7.08,0.64,5.55,9.7,7.28c1.52,0.29,2.53-0.51,3.44-1.52
		c1.42,0.1,3.03,0.1,4.45,0.3c-1.21-1.31-3.03-1.52-4.55-2.22c-3.8,2.17-1.15,1.19-4.35-0.4c-0.71-0.4-1.62-0.51-2.33-0.81
		c-0.51-1.01-1.21-1.92-0.2-3.13c1.02,1.22,2.11,2.94,3.64,1.42c0.87-0.87-0.2-2.41-0.81-2.83c-4.97-3.43-2.54-5.25-6.57-4.75
		c0.91,3.64,1.42,6.98,1.11,10.41c-1.99-0.22-2.65-7.81-1.62-11.32c3.83-3.58,7.18,0.71,9.7-4.35c0.2-0.51,0.3-1.21-0.4-1.62
		c-0.51,0.3-1.11,0.61-1.62,1.01c-1.03-1.55,1.58-4.47-1.82-6.97c0.51-1.01,0.91-1.82,1.42-2.63c0.88-1.62,1.34-4.58-0.4-4.14
		c-4.18,10.04-7.29,10.28-13.14,11.63c5.34,0.89,6.46-1.65,9.3-1.82c1.85,5.1-15.75,6.04-30.53,8.39c3.61,0.57,5.79-0.15,19.81-1.62
		C606.61,200.67,607.97,198.84,610.22,198.84z M611.64,193.78c0.1,2.63,0.1,2.63-1.82,3.13
		C609.92,195.7,610.33,194.49,611.64,193.78z"/> <path d="M598.5,172.86c-3.18,0.53-30.16,14.43-33.66,19.11c5.5-1.83-9.89,3.76,29.72-15.67c1.71-0.84,3.44-1.62,5.05-3.03
		C599.1,173.06,598.8,172.76,598.5,172.86z"/> <path d="M597.79,190.65c-0.1,0.3-0.2,0.71-0.3,1.11c2.63-0.2,4.75-1.62,7.18-2.63c2.93,0.84,2.22,0.13,2.22,2.02
		c3.59-1.03,3.85-5.44,6.37-9.4c-4.68,0-1.41,1.78-13.24,6.57c-2.61,1.06-3.08,0.57-5.96,2.22
		C595.47,191.36,596.58,190.04,597.79,190.65z"/> <path d="M603.96,248.57c0-4.68-0.04-4.69,4.35-7.99c0.4,0.61,0.91,1.21,1.42,1.82c0.87,1.16,1.48,2.59,2.94,3.06
		c-0.88-1.62-0.24-0.81-3.14-5.79c2.77-4.62,1.45-5.57,2.49-7.03c-1.75-0.62-1.24-0.18-4.71-4.6c-0.1,1.56,0.37,1.43,2.63,5.05
		c-1.21,1.72-2.02,3.54-1.82,5.66c-1.42,1.21-2.73,2.33-4.14,3.44C602.14,243.82,601.9,247.26,603.96,248.57z M610.73,234.93
		c-0.61,1.21-0.91,1.72-1.21,2.22C609.01,236.24,609.31,235.73,610.73,234.93z"/> <path d="M613.29,246.17c-0.12-0.16-0.32-0.33-0.5-0.57c0.1-0.1,0.1-0.06-0.13-0.13C612.89,245.92,612.82,246.18,613.29,246.17z"/> <path d="M612.14,232.7l-0.1-0.1C612.01,232.68,611.94,232.62,612.14,232.7z"/> <path d="M597.49,166.79c-5.34,1.29-10.61,2.93-14.96,6.47c-0.2,0.1-0.2,0.4-0.2,0.51c15.44-5.62,15.07-5.01,16.66-5.8
		C598.68,167.36,598.28,166.6,597.49,166.79z"/> <path d="M595.26,169.42l0.1-0.1C595.33,169.35,595.33,169.29,595.26,169.42z"/> <path d="M598.98,167.97c0.01,0.01,0.01,0.03,0.02,0.04C599.12,167.89,599.16,167.88,598.98,167.97z"/> <path d="M604.06,223.81c0.51-1.21-1.11-2.22-0.1-3.34c0.91-0.1,2.02-0.2,3.74-0.4c-2.58-1.17-0.16-0.98-9.7-2.12
		c-0.1,0-0.1,0.1-0.2,0.2c1.01,1.52,3.03,0.91,4.35,1.92C602.74,222.49,602.74,222.49,604.06,223.81z"/> <path d="M600.62,180.64c2.04,0.68,3.24-0.69,4.78-0.97c0.7-1.5,1.39-3.09,2.29-4.59C606,175.22,606.52,176.51,600.62,180.64z"/> <path d="M605.37,179.73l0.2-0.1C605.38,179.66,605.41,179.66,605.37,179.73z"/> <path d="M602.74,215.52c-7.88-2.42-7.2-2.1-8.39-0.91c-0.1,0.71,0.61,0.51,0.91,0.71c0.3,0.2,0.61,0.3,1.01,0.4
		C603.63,216.49,601.36,216.9,602.74,215.52z"/> <path d="M608.91,227.55c-0.71-0.51-0.91-0.71-1.01-0.71c-1.21,0.2-2.02-1.42-2.83-1.11c-2.26,1.03-5.15-0.95-1.21,1.52
		C601.25,230.72,605.47,226.83,608.91,227.55z"/> <path d="M599.1,168.01c-0.11,0.07-1.77,0.96-1.52,0.71c-1.34,1.34-1.18-0.24-3.64,2.22C604.31,168.96,598.79,168.32,599.1,168.01z"/> <path d="M596.07,237.55c-0.04,0.31-0.06,0.2,0.1,0.1L596.07,237.55z"/> <path d="M601.53,205.81c-0.91-0.91-0.91-0.91-5.46-1.21C598.09,205.91,598.19,205.91,601.53,205.81z"/> <path d="M616.69,239.37c0.29,0.29,0.82,1.34,1.82,0.91c0.1,0,0.1-0.2,0.2-0.2C617.24,239.2,617.45,239.18,616.69,239.37z"/> <path d="M570.8,205.21c0,0.29-0.29,0.2,1.92,0.2C572.72,205.14,573.01,205.21,570.8,205.21z"/> <path d="M565.64,204.3c0.33-0.33,0.07,1.51,2.74,0.21C565.14,204.14,565.54,204.16,565.64,204.3z"/> <path d="M564.23,190.65l-0.1-0.1C564.05,190.67,563.99,190.61,564.23,190.65z"/> <path d="M603.35,173.16c-0.81-0.2-1.31,0.1-1.42,0.91C602.54,173.97,603.25,173.97,603.35,173.16z"/> <path d="M613.46,229.14c0,0.65-0.01,1.28-0.1,1.84C614.33,230.21,614.36,229.89,613.46,229.14z"/> <path d="M565.56,204.21c-0.6-0.7-1.36-0.62-2.04-0.72C563.99,204.42,564.81,204.24,565.56,204.21z"/> <path d="M571.31,212.99l0.1-0.1C570.94,212.89,570.96,212.9,571.31,212.99z"/> <path d="M589.4,192.57c0.61,0,1.11,0,1.92,0C590.41,191.86,590.01,192.47,589.4,192.57z"/> <path d="M600.82,256.26l-0.1,0.3C600.99,256.56,600.95,256.64,600.82,256.26z"/> <path d="M605.88,192.17c-0.08,0.08,0.02,0.04,0.16-0.08C605.89,192.12,605.81,192.17,605.88,192.17z"/> <path d="M581.05,174.38c0.01-0.01-0.09,0-0.34,0l0.1,0.1C580.94,174.41,581.05,174.38,581.05,174.38z"/> <path d="M582.32,173.87c-0.42,0.16-0.85,0.33-1.27,0.51C581.56,174.39,582.08,174.36,582.32,173.87z"/> <path d="M592.43,214.1V214C592.01,214.14,592.05,214.1,592.43,214.1z"/> <path d="M571.59,213.1c0.11,0.09,0.19,0.16,0.12,0.09C571.77,213.19,571.69,213.15,571.59,213.1z"/> <path d="M562.71,203.18c0.24,0.08,0.4,0.16,0.51,0.23c-0.06-0.08-0.13-0.18-0.21-0.33C563.02,203.08,562.81,203.18,562.71,203.18z"/> <path d="M563.22,203.41C563.43,203.68,563.53,203.6,563.22,203.41L563.22,203.41z"/> <path d="M572.11,180.34c-0.3,0.2-0.51,0.51-0.81,0.81c0.1,0.1,0.19-0.14-1.42,0.51C571.46,181.39,571.46,181.3,572.11,180.34z"/> <path d="M572.32,180.14c0.04,0,0.06,0,0.07,0.01C572.47,180.12,572.47,180.09,572.32,180.14z"/> <path d="M572.39,180.15c-0.07,0.04-0.22,0.09-0.37,0.09C572.25,180.24,572.42,180.18,572.39,180.15z"/> <path d="M594.83,226.6c-0.01,0.01-0.03,0.02-0.07,0.04C594.91,226.59,594.91,226.59,594.83,226.6z"/> <path d="M594.83,226.6c0.02-0.01-0.06,0.02-0.19,0.03C594.72,226.62,594.79,226.61,594.83,226.6z"/> <path d="M597.08,227.45c0.1-0.1,0.3-0.1,0.4-0.2C597.17,227.4,596.11,227.45,597.08,227.45z"/> <path d="M578.19,188.12c-0.05,0.01-0.2,0.03-0.41,0.1C578.06,188.22,578.24,188.14,578.19,188.12z"/> <path d="M601.13,225.53c0.1,0.1,0.1,0.2,0.2,0.3c0.2,0.1,0.4,0.1,0.61,0.2c-0.2-0.1-0.3-0.3-0.51-0.4
		C601.33,225.53,601.23,225.63,601.13,225.53z"/> <path d="M611.15,226.68c-0.51-0.18-0.87-0.37-1.23-0.65C610.17,226.63,610.65,226.72,611.15,226.68z"/> <path d="M566.25,188.22l0.1,0.1C566.48,188.06,566.52,188.09,566.25,188.22z"/> <path d="M568.48,183.27c0.3-0.2,0.51-0.4,0.81-0.61C569.11,182.49,569.26,182.49,568.48,183.27z"/> <path d="M569.18,182.46l0.1,0.1C569.42,182.36,570.71,180.93,569.18,182.46z"/> <path d="M593.75,171.04c0.1,0,0.2,0,0.3,0C593.85,170.94,593.75,170.94,593.75,171.04z"/> <path d="M570.6,170.03l-0.1,0.1C570.88,170,570.87,170.03,570.6,170.03z"/> <path d="M569.89,179.73v-0.1C569.76,179.88,569.74,179.88,569.89,179.73z"/> <path d="M569.89,179.53l0.1,0.1C571.41,178.21,570.14,179.28,569.89,179.53z"/> <path d="M571.31,178.22c-1.21,1.21-0.66,0.61,0.1,0.1L571.31,178.22z"/> <path d="M572.11,177.61l-0.1-0.1C570.52,179.01,572.01,177.71,572.11,177.61z"/> <path d="M572.01,177.41l0.1,0.1C573.74,176.42,572.65,176.99,572.01,177.41z"/> <path d="M572.92,176.8l0.1,0.1C572.97,176.74,573.01,176.68,572.92,176.8z"/> <path d="M579.9,175.39h0.2C579.97,175.26,580.03,175.26,579.9,175.39z"/> <path d="M580,175.28c0.3-0.2,0.61-0.51,0.91-0.71C580.73,174.4,580.9,174.39,580,175.28z"/> <path d="M572.01,173.06c-0.2,0.2-0.4,0.51-0.71,0.71C571.41,173.87,571.35,174.05,572.01,173.06z"/> <path d="M603.35,172.86c0,0,0,0.2-0.1,0.2C603.63,173.06,603.6,173.11,603.35,172.86z"/> <path d="M621.44,217.24c-0.08,0.08-0.08,0.08-0.1,0.1C621.61,217.47,621.58,217.5,621.44,217.24z"/> <path d="M612.04,232.6c0.16-0.24,0.32-0.43,0.49-0.65C612.22,232.05,611.96,232.19,612.04,232.6z"/> <path d="M612.53,231.95c0.07-0.02,0.14-0.04,0.22-0.06C612.62,231.76,612.69,231.76,612.53,231.95z"/> <path d="M613.36,231.18c0.04-0.03,0.06-0.07,0.1-0.09C613.33,230.95,613.36,230.93,613.36,231.18z"/> <path d="M613.36,231.18c-0.24,0.19-0.44,0.43-0.71,0.62C613.09,231.79,613.36,231.56,613.36,231.18z"/> <path d="M612.75,228.25l-0.1,0.1C612.89,228.36,612.97,228.47,612.75,228.25z"/> <path d="M612.88,228.39c0.14,0.14,0.29,0.29,0.44,0.44C613.28,228.58,613.14,228.44,612.88,228.39z"/> <path d="M613.33,228.83c0.02,0.07,0.03,0.14,0.03,0.23c0.04,0.03,0.07,0.05,0.1,0.08C613.46,228.92,613.49,228.99,613.33,228.83z"/> <path d="M612.65,228.25l0.1-0.1C612.56,227.97,612.7,228.07,612.65,228.25z"/> <path d="M612.04,227.45c0.17,0.17,0.41,0.41,0.61,0.61C612.63,227.76,612.38,227.53,612.04,227.45z"/> <path d="M611.19,226.69C611.17,226.69,611.17,226.69,611.19,226.69L611.19,226.69z"/> <path d="M611.34,226.64c-0.05,0.05-0.11,0.05-0.14,0.05c0.01,0,0.03,0,0.07,0.01l-0.03,0.03c0.24,0.35,0.03,0.08,0.2-0.1
		C611.41,226.64,611.37,226.64,611.34,226.64z"/> <path d="M611.94,227.55c-0.16-0.24-0.37-0.43-0.57-0.65C611.47,227.21,611.7,227.39,611.94,227.55z"/> <path d="M622.15,242C622.15,241.9,621.95,241.7,622.15,242L622.15,242z"/> <path d="M622.15,242c0.03,0.01,0.06,0.02,0.1,0.03C622.25,241.86,622.28,241.88,622.15,242z"/> <path d="M622.86,242.81c0.09-0.56-0.24-0.69-0.61-0.78C622.23,242.44,622.5,242.63,622.86,242.81z"/> <path d="M613.36,246.25l0.1-0.1C613.21,246.19,613.31,246.1,613.36,246.25z"/> <path d="M609.82,226.03c-0.2-0.3-0.4-0.51-0.61-0.81C609.78,226.35,609.72,226.13,609.82,226.03z"/> <path d="M613.56,246.45v-0.2C613.43,246.25,613.43,246.2,613.56,246.45z"/> <path d="M609.11,225.32C609.21,225.32,609.01,225.12,609.11,225.32L609.11,225.32z"/> <path d="M606.77,191.29c0.07-0.01,0.13-0.03,0.22-0.03C606.89,191.16,606.91,191.11,606.77,191.29z"/> <path d="M606.29,191.82c0.16-0.18,0.32-0.35,0.48-0.54C606.45,191.35,606.33,191.54,606.29,191.82z"/> <path d="M606.18,191.96c-0.05,0.05-0.1,0.09-0.14,0.12c0.19-0.03,0.24-0.01,0.23-0.04l0.02,0.02
		C606.28,191.92,606.35,191.68,606.18,191.96z"/> <path d="M564.84,189.84c-0.2,0.2-0.51,0.51-0.71,0.71C565.13,189.88,564.94,189.94,564.84,189.84z"/> <path d="M566.35,188.33c-0.65,0.43-0.3,0.2-1.52,1.42C565.23,189.61,566.22,188.53,566.35,188.33z"/> <path d="M708.89,382.61c-8.09-1.18-5.58-3.3-17.89-5.46c-4.26-0.75-4.47-2.93-8.9-1.21c-0.1,1.11,0.91,1.11,1.31,1.62
		c2.09,3.48-2.95,0.59,26.59,9.3c5.38,1.59,6.51,3.16,10.01,2.63c0.61-0.09,1.21,0.1,1.92,0.2
		C718.9,386.66,719.34,384.14,708.89,382.61z"/> <path d="M735.17,393.33c-2.27-1.02-2.38-2.19-8.09-2.63c-1,0-1.7,1.52-0.2,2.02c1.77,0.59,4.43,0.59,6.57,2.43
		c2.01,1.73,5.16,1.72,8.19,0.91c-0.2-0.4-0.4-0.91-0.61-1.21C740.04,393.86,737.42,394.34,735.17,393.33z"/> <path d="M765.19,408.69c1.68,0.72,2.92-1.42,1.52-2.43c-2.57-0.64,1.44-3.39,1.72-3.64c1.17-1.17,0.68-2.38-0.51-2.63
		C762.54,398.85,759.73,406.87,765.19,408.69z"/> <path d="M748.71,398.08c0.44,7.08,0.49,15.28,1.82,5.76c0.96-6.9,0.45-5.24,2.32-9c-1.82,0.4-1.82,0.4-3.54,2.32
		c-1.52-0.71-2.83-1.72-4.65-1.21C744.14,398.08,747.15,397.91,748.71,398.08z"/> <path d="M758.01,389.59c6.99-1.4,7.09-1.23,7.88-2.02C767.2,386.27,765.33,383.09,758.01,389.59z"/> <path d="M748.81,418.7c0.51-4.04,0.4-4.45-1.01-6.17C747.2,414.76,747.4,416.68,748.81,418.7z"/> <path d="M724.86,538.09c-0.1,0.1,0.1,0,0.4-0.1C724.96,538.09,724.76,538.09,724.86,538.09z"/> <path d="M713.08,539.21c0.07-0.01,0.1-0.01,0.05-0.01C713.18,539.15,713.15,539.18,713.08,539.21z"/> <path d="M713.08,539.21c-0.08,0.02-0.2,0.04-0.35,0.09C712.88,539.3,713,539.25,713.08,539.21z"/> <path d="M602.64,453.88c-1.21,1.31-0.61,2.73-0.3,4.14C602.44,456.61,602.54,455.19,602.64,453.88z"/> <path d="M597.99,455.3c0-1.05,0.04-0.91-0.1-0.91C597.89,455.48,597.86,455.3,597.99,455.3z"/> <path d="M603.05,453.27c0-0.1-0.2-0.3-0.2-0.51c0,0.1-0.1,0.2-0.1,0.3c-0.1,0.3-0.1,0.61-0.2,0.71
		C602.74,453.58,602.95,453.48,603.05,453.27z"/> <path d="M543,233.41c0-0.81-0.1-1.52-0.1-2.53C542.39,231.89,542.6,232.7,543,233.41z"/> <path d="M554.42,240.59c-0.41,0-0.1-0.1-0.1,1.31C554.74,241.9,554.42,242,554.42,240.59z"/> <path d="M550.08,236.34c0-1.05,0.04-0.91-0.1-0.91C549.98,236.48,549.94,236.34,550.08,236.34z"/> <path d="M541.79,203.08c0.2,0.2,0,0-0.1-0.3C541.79,203.08,541.79,203.39,541.79,203.08z"/> <path d="M652.48,492.29c-0.1-0.1-0.2-0.2-0.2-0.3c0,0.23-0.28,0.22,0.1,0.61C652.38,492.5,652.48,492.39,652.48,492.29z"/> <path d="M653.09,487.14c-0.14-0.27-0.1-0.25-0.1,0H653.09z"/> <path d="M134.71,348.35c-1.21,2.22-0.1,3.54,0.3,4.95C136.89,353.53,135.96,350.01,134.71,348.35z"/> <path d="M120.96,372.1c0.1,1.31,0.2,2.12,0.3,3.34C121.97,373.92,121.97,373.92,120.96,372.1z"/> <path d="M135.12,364.52c0.61-1.62,0.91-2.83,0-4.14C134.1,361.79,134.61,363,135.12,364.52z"/> <path d="M122.28,383.73c0-0.81,0-1.52,0-2.33c-0.2,0-0.4,0-0.51,0.1C121.77,384.07,121.87,383.73,122.28,383.73z"/> <path d="M134.21,369.88c0.69,0,0.28,0.23,0.61-1.72c-0.2,0-0.4,0-0.51,0C134.31,368.77,134.21,369.27,134.21,369.88z"/> <path d="M120.05,367.15c-0.6,0.6-0.42,0.36-0.1,1.31C120.31,368.11,120.23,367.84,120.05,367.15z"/> <path d="M132.49,378.37c-0.2,0-0.3-0.1-0.4-0.1C132.08,379.55,132.21,379.21,132.49,378.37z"/> <path d="M147.65,381.2c-0.2,0-0.4-0.2-0.51-0.1c-0.1,0.1-0.2,0.4-0.3,0.51C147.35,381.86,147.65,381.77,147.65,381.2z"/> <path d="M121.27,299.93c-0.1,0.1,0,0.2,0,0.3c0.1,0,0.1,0,0.2,0.1C121.47,300.17,121.78,299.93,121.27,299.93z"/> <path d="M117.73,287.69h0.1C117.69,287.27,117.73,287.31,117.73,287.69z"/> <path d="M141.18,389.08c0.1-0.2,0-0.51,0-0.61c-0.1,0.2-0.3,0.3-0.4,0.51c-0.1,0.1,0,0.2,0,0.3
		C140.88,389.18,141.18,389.18,141.18,389.08z"/> <path d="M141.08,388.38l0.1,0.1C141.45,388.34,141.48,388.38,141.08,388.38z"/> <path d="M201.02,410.72c1.72-4.04,1.82-9.2,0.3-13.95c-0.06-0.01-2.39-0.4-2.43-0.4c0.1,4.25-1.82,7.88-3.34,11.63
		C199.07,408.43,201.02,384.06,201.02,410.72z"/> <path d="M121.67,399.39c2.96-4.57,2.73-4.28,3.13-5.76C122.28,395.05,122.18,396.87,121.67,399.39z"/> <path d="M123.79,431.94c0.14-0.14,0.4-0.21-0.2-1.11C123.18,431.24,123.09,431.24,123.79,431.94z"/> <path d="M121.47,400.71c-0.13,0.13-0.1,0.06-0.1,0.3L121.47,400.71z"/> <path d="M195.59,408.13c-0.62,0.31-0.63,0.89-0.63,1.37C195.51,409.22,195.72,408.68,195.59,408.13z"/> <path d="M195.67,408.09l-0.1-0.1C195.61,408.19,195.54,408.13,195.67,408.09z"/> <path d="M194.96,409.5c-0.2,0.2-0.51,0.51-0.71,0.71C195.25,409.54,195.06,409.61,194.96,409.5z"/> <path d="M194.35,410.21h-0.1C194.11,410.36,194.1,410.34,194.35,410.21z"/> <path d="M154.32,279.61c-0.1,0.4-0.2,0.61-0.2,0.71c8.31,7.53,13.13,7.35,13.24,7.38C166.12,286.45,155.78,280.34,154.32,279.61z"/> <path d="M214.06,331.77c-0.3,1.21-0.4,2.33,0.2,3.44C215.68,334.29,215.58,333.38,214.06,331.77z"/> <path d="M161.8,257.17c0.71,0,1.42-0.1,2.02-0.1c0.66-1.54-1.58-0.75-4.04-0.3C160.5,257.12,159.27,257.17,161.8,257.17z"/> <path d="M191.42,339.65c-0.46-0.92-1.34-1.55-2.22-1.11c0.61,0.51,1.31,0.91,1.92,1.42C191.22,339.85,191.32,339.75,191.42,339.65z
		"/> <path d="M214.87,337.63c0.3-0.1,0.51-0.3,1.01-0.51c-0.3-0.3-0.51-0.51-0.71-0.71C214.47,336.42,214.67,337.01,214.87,337.63z"/> <path d="M138.55,286.48c0.2,0.3,0.4,0.51,0.71,0.71c0.1-0.3,0.3-0.61,0.2-0.71C139.1,285.75,138.78,286.18,138.55,286.48z"/> <path d="M174.34,290.73c0-0.52-0.33-0.2-0.71-0.2c0,0.2,0.1,0.3,0.1,0.51C173.93,290.93,174.13,290.83,174.34,290.73z"/> <path d="M180.2,291.03c-0.52,0-0.29-0.62-0.91,0C179.87,291.32,179.96,291.27,180.2,291.03z"/> <path d="M148.66,276.68c0,0.1,0.1,0.2,0.1,0.3c0.34-0.34,0.41-0.3,0.1-0.61C148.86,276.57,148.76,276.57,148.66,276.68z"/> <path d="M189.2,338.54c-0.13-0.27-0.1-0.3-0.1,0.1L189.2,338.54z"/> <path d="M167.52,287.68c0.04,0.07,0.07,0.14,0.14,0.21C167.67,287.81,167.66,287.75,167.52,287.68z"/> <path d="M167.52,287.68c-0.02-0.03-0.03-0.06-0.06-0.09C167.46,287.65,167.49,287.67,167.52,287.68z"/> <path d="M123.39,178.32c0.07-0.04,0.1-0.01,0.1-0.1L123.39,178.32z"/> <path d="M116.11,187.92c-1.42,0.3-2.83,0-3.74,1.21c-1.17,0-2.25,0-3.44,0c1.21,0.39,2.31,0.6,3.53,0c2.62,0.3,4.13-0.6,7.69-2.02
		c0.61,0.81,0.11,1.32-0.2,1.72c-3.18,4.03-7.51,3.42-29.32,6.47c3.31,0.83,18.66-0.03,31.64-4.75c-0.81,1.72-1.42,2.73-3.03,2.83
		c-1.9,0-4.14,1.59-4.14,3.74c0,2.52-0.49,1.47-1.92,3.54c-1.04,1.51-0.58,2.81-0.1,5.46c2.69,0.67,0.15-9.73,3.54,3.13
		c2.83,1.01,5.56,1.39,8.29,1.72c1.52,0.19,2.53-0.61,3.54-1.52c1.31,0.2,2.63,0.4,4.35,0.61c-1.31-1.52-2.93-1.82-4.45-2.22
		c-0.71,0.3-1.42,0.71-2.22,1.01c-2.55-1.92-1.98-1.76-4.65-2.53c-1-1.43-0.61-3.84,0.1-3.13c0.34,0.42,1.83,3.03,3.44,1.42
		c0.51-0.51,0.62-1.53,0.1-1.92c-2.8-2.14-6.02-8.36-6.87-4.95c-0.1,0.4-0.1,1.01,0.1,1.42c1.01,2.83,0.4,5.66,0.91,8.79
		c-2.22-2.12-2.83-6.67-1.62-11.73c1.52-1.01,3.03-2.02,5.26-1.52c1.82,0.41,3.53-0.91,4.25-2.73c0.2-0.51,0-1.11,0-1.82
		c-0.86,0.58-1.46,0.97-2.12,1.35c-0.08-5.26,0.39-4.47-1.62-7.42c0.71-2.02,2.63-3.74,1.92-6.17c-0.87-0.68-1.28,0.2-1.84,0.37
		C122.75,182.8,120.13,185.91,116.11,187.92z M122.78,188.73c-0.1,0.2-0.71,0.2-1.11,0.3c0.1,0.4,0.1,0.71-0.4,0.3
		c0.1-0.1,0.3-0.2,0.4-0.3c-0.3-1.11,0.2-1.92,1.21-2.63C123.29,187.21,123.39,188.02,122.78,188.73z"/> <path d="M76.69,183.98c0.61-0.1,1.21-0.1,1.72-0.4c16.4-9.82,31.36-16.02,32.35-17.99C108.36,164.39,78.36,180.83,76.69,183.98z"/> <path d="M116.72,172.35c-3.93,5.24-23.62,7.07-26.18,9.4c22.53-4.29,24.16-1.62,30.73-8.19c-1.11-1.11-2.12,0-3.03-0.1
		c-0.3-0.61-0.61-1.21-0.91-1.72c0.14-0.14,0.1-0.2,0-0.1c3.04-7.09,4.58-6.8-4.95,1.21c0.91,0,1.42,0.1,1.92,0.1
		C115.1,172.86,115.91,172.56,116.72,172.35z"/> <path d="M109.33,182.97c0,1.23-0.55,1.45,4.04-0.2c2.34-0.84,1.97-1.74,4.56-0.25c0.09,0.45,0.11,0.97,0.18,1.43
		c2.62-1.13,4.97-5.92,4.87-5.82c-0.17-1.37,0.18-1.7,1.41-3.74c-0.81-0.71-1.31,0-1.82,0.2c-0.51,0.2-1.22,0.4-1.62,0.81
		C115.52,181.03,97.8,183.89,109.33,182.97z"/> <path d="M118.03,183.98l0.1,0.1C118.08,183.88,118.16,183.93,118.03,183.98z"/> <path d="M105.5,183.17l0.1,0.1C105.64,183.12,105.7,183.17,105.5,183.17z"/> <path d="M124,224.72l-0.1-0.1C123.86,224.77,123.76,224.76,124,224.72z"/> <path d="M122.28,229.87c0.29-0.81,0.72-1.62,0.61-2.32c-0.18-1.16,0.63-1.86,0.96-2.8c-2.55,0.54-3.27-3.05-2.58,1.08
		c-0.91,1.42-1.82,2.93-1.72,4.85c0,3.05-6.47,3.44-4.95,7.08c0.39,1.17,0.4,2.55,1.24,3.55c0.54-1.17-0.14-2.26-0.54-3.35
		c0.61-2.32,2.73-3.44,4.45-5.16c2.71,4.06,3.07,4.75,4.14,4.85C122.49,234.38,120.89,233.71,122.28,229.87z M121.37,228.76
		c0-0.87-0.32-0.81,0.1-0.81C121.47,228.23,121.75,228.76,121.37,228.76z"/> <path d="M107.82,161.44c0.54-0.27,0.67-0.44,1.01-0.1c-0.1,0-0.2,0.1-0.3,0.1c-0.9-0.3-1.67,1.01-1.88,1.61
		c1.77-0.11,3.44-0.42,4.91-1.51c0.3-0.91-0.51-0.61-0.81-0.91s-0.51-0.71-0.91-1.01c-2.82-1.88-14.08,3.91-17.32,6.72
		C94.09,166.8,94.87,165.14,107.82,161.44z"/> <path d="M92.36,166.29l0.1,0.1C92.57,166.32,92.55,166.35,92.36,166.29z"/> <path d="M104.59,162.95c1.25,1.12,1.73-0.09,2.02,0.2c0.04-0.16,0.09-0.1-0.07-0.1C105.96,163.05,105.47,162.95,104.59,162.95z"/> <path d="M115.4,216.02c-0.1-1.21-0.2-2.12-0.2-3.03c1.11-0.91,2.43,0.51,3.44-0.91c-0.91-0.61-1.82-1.01-2.93-1.11
		c-14.45-2.17-2.92,1.01-2.22,1.52C114.7,216.14,113.87,215.1,115.4,216.02z"/> <path d="M104.89,206.82c2.83,1.82,5.96,2.02,9.6,1.72c-0.61-0.61-0.91-1.01-1.31-1.11C106.09,205.66,106.79,205.74,104.89,206.82z"/> <path d="M114.59,218.75c0.3,0.4,0.51,0.71,0.91,1.21c-4.07,2.71-0.88,1.44,3.44,0C116.98,218.33,117.55,218.38,114.59,218.75z"/> <path d="M90.64,181.96l-0.1-0.1C90.37,181.94,90.32,181.88,90.64,181.96z"/> <path d="M107.42,196.82c2.83,1.62,3.03,1.72,6.07,1.42C111.76,196.72,109.84,197.32,107.42,196.82z"/> <path d="M106.1,236.85c1.4-5.23,0.7-4.1,1.11-5.76C106,233.71,106,233.71,106.1,236.85z"/> <path d="M82.61,183.91c0.16-0.01,1.92,0.34,7.79-2.01c-0.83-0.18-1.69-0.37-2.8-0.56C82.1,183.89,83.51,182.92,82.61,183.91z"/> <path d="M82.6,183.93c0-0.01,0.01-0.01,0.01-0.01C82.6,183.92,82.59,183.92,82.6,183.93z"/> <path d="M78.2,186.1c1.67-0.19,3.15-0.79,4.26-2.12C80.64,183.94,79.27,184.64,78.2,186.1z"/> <path d="M100.75,226.94c-1.01-0.3-2.02-0.61-2.93-0.91c0.51,0.61,0.91,1.42,1.52,1.82C100.6,228.7,101.53,226.94,100.75,226.94z"/> <path d="M75.37,183.98l0.1-0.1C75.41,183.88,75.41,183.92,75.37,183.98z"/> <path d="M76.28,182.66l-0.1-0.1C76.07,182.67,76.17,182.64,76.28,182.66z"/> <path d="M74.67,184.69l0.1-0.1C74.68,184.58,74.67,184.6,74.67,184.69z"/> <path d="M75.37,184.08l-0.1,0.1C75.37,184.18,75.37,184.2,75.37,184.08z"/> <path d="M76.63,184.18c-0.41,0-0.84,0-1.26,0c-0.04,0.52-0.32,0.71-0.8,0.71c-0.1-0.1-0.76,1.31-0.81,1.42
		C75.13,186.11,76.02,185.33,76.63,184.18z"/> <path d="M76.79,184.18l-0.1-0.1C76.62,184.21,76.56,184.18,76.79,184.18z"/> <path d="M74.67,184.69c0,0-0.17,0.09-0.11,0.18C74.59,184.81,74.62,184.75,74.67,184.69z"/> <path d="M118.64,220.77c0.61,1.82,1.21,2.73,2.22,3.23C121.42,223.45,120.63,222.48,118.64,220.77z"/> <path d="M81.74,197.32c-0.91-0.1-1.82-0.2-2.73-0.4C79.82,197.93,80.73,197.52,81.74,197.32z"/> <path d="M115,165.38c-0.81-0.3-1.21,0.2-1.42,0.81C114.39,166.49,114.9,166.19,115,165.38z"/> <path d="M76.08,196.31c0.17,0,0.26,0.06,0.1-0.1L76.08,196.31z"/> <path d="M79.01,197.02c-0.76-0.76-1.78-0.64-2.74-0.7C77.16,197.42,76.2,196.62,79.01,197.02z"/> <path d="M83.06,173.32c-0.69,0.37-1.31,0.79-2.02,1.05C81.92,174.38,82.57,173.97,83.06,173.32z"/> <path d="M83.36,173.16l-0.1-0.1C83.07,173.38,82.87,173.4,83.36,173.16z"/> <path d="M108.13,184.28c1.32,0,0.98-0.2,1.42-0.2c-0.24,0-0.2,0.03-0.2-0.11c-0.1,0.03-0.16-0.05,0,0.11
		C107.93,184.08,108.13,184.02,108.13,184.28z"/> <path d="M107.62,224.31c0.61,0.1,1.11,0.2,1.62,0.4C108.83,224.11,108.43,223.81,107.62,224.31z"/> <path d="M74.26,196.11c0.81,0,1.31,0.1,1.82,0.2C75.68,195.91,75.27,195.5,74.26,196.11z"/> <path d="M84.67,198.13c0.1,0,0.3,0.1,0.51,0.1c0.1-0.1,0.3-0.2,0.4-0.2C85.36,198.03,85.43,197.75,84.67,198.13z"/> <path d="M107.82,241.29c0-0.3,0-0.4-0.1-0.61C107.72,240.89,107.82,241.09,107.82,241.29z"/> <path d="M117.63,184.38c0.2-0.1,0.3-0.2,0.61-0.3C117.13,184.45,117.39,184.15,117.63,184.38z"/> <path d="M125.41,221.58l-0.1,0.1C125.43,221.75,125.41,221.84,125.41,221.58z"/> <path d="M125.41,221.75c0,0.53-0.01,0.97-0.1,1.24C126.08,222.61,126.11,222.23,125.41,221.75z"/> <path d="M97.11,191.56l-0.2,0.1C97.15,191.66,97.11,191.69,97.11,191.56z"/> <path d="M121.67,218.85c-0.05-0.05,0.25,0.05,0-0.1l-0.05,0.04c-0.01-0.02-0.03-0.05-0.05-0.07
		C121.62,218.93,121.48,219.05,121.67,218.85z"/> <path d="M121.82,218.83c0.45,0.25,0.9,0.44,1.26,0.63C122.82,218.94,122.34,218.8,121.82,218.83z"/> <path d="M113.68,218.35c0.1,0.1,0.1,0.3,0.3,0.3c0.1,0.1,0.4,0,0.51,0.1c-0.2-0.1-0.3-0.3-0.51-0.4
		C113.89,218.25,113.79,218.35,113.68,218.35z"/> <path d="M111.46,217.74c0.1,0,0.2,0,0.3,0c0,0,0-0.1,0.1-0.1C111.5,217.64,111.59,217.61,111.46,217.74z"/> <path d="M82.45,205.21c-0.3-0.1-0.51-0.1-0.61-0.2c0.2,0.1,0.3,0.3,0.51,0.4c0.1,0.1,0.2,0,0.3,0.1
		C82.55,205.41,82.55,205.21,82.45,205.21z"/> <path d="M75.27,187.52c0.58,0,1.23,0.08,1.38-0.69C76.1,186.91,75.55,186.95,75.27,187.52z"/> <path d="M73.91,188.24c0.57,0.09,1.18,0.11,1.47-0.63C74.8,187.52,74.22,187.63,73.91,188.24z"/> <path d="M73.74,188.33c0.09,0,0.14,0.02,0.17-0.08C73.69,188.24,73.79,188.16,73.74,188.33z"/> <path d="M109.28,224.68c-0.1,0.1-0.05,0.03,0.19,0.03C109.3,224.61,109.38,224.57,109.28,224.68z"/> <path d="M78.3,186.2l-0.1-0.1C78.15,186.25,78.16,186.17,78.3,186.2z"/> <path d="M76.66,186.83c0.47,0,1.26,0.26,1.52-0.64C77.62,186.14,76.79,186.3,76.66,186.83z"/> <path d="M103.27,184.38l0.3,0.1C103.58,184.22,103.65,184.26,103.27,184.38z"/> <path d="M105.69,183.35c0.04-0.02,0.08-0.05,0.11-0.08C105.74,183.27,105.72,183.3,105.69,183.35z"/> <path d="M105.6,183.47c0.05-0.05,0.07-0.09,0.09-0.13C105.48,183.46,105.21,183.47,105.6,183.47z"/> <path d="M75.98,182.56c0.3-0.2,0.61-0.4,0.81-0.61C76.61,181.78,76.76,181.78,75.98,182.56z"/> <path d="M77.45,181l0.04,0.04c0.27-0.27,0.28-0.23-0.1-0.1c-0.2,0.2-0.51,0.51-0.71,0.81C77.5,181.22,77.52,181.09,77.45,181z"/> <path d="M81.13,172.35c0.2-0.2,0.51-0.4,0.71-0.61C81.66,171.56,81.92,171.57,81.13,172.35z"/> <path d="M81.84,171.65c0.2-0.2,0.51-0.51,0.71-0.71C81.55,171.61,81.74,171.54,81.84,171.65z"/> <path d="M82.45,170.94c0.3-0.2,0.61-0.4,0.91-0.61C83.14,170.11,82.95,170.6,82.45,170.94z"/> <path d="M83.36,170.33c1.31-1.31,0.32-0.53-0.1-0.1L83.36,170.33z"/> <path d="M84.07,169.62c0.2-0.3,0.51-0.51,0.81-0.81C84.63,168.94,83.86,169.42,84.07,169.62z"/> <path d="M91.95,167.3c-0.13,0-0.1-0.03-0.1,0.1L91.95,167.3z"/> <path d="M92.56,166.49c-1.05,1.05-0.87,1.07,0.1,0.1L92.56,166.49z"/> <path d="M83.04,165.95c0.07-0.03,0.14-0.05,0.22-0.07C83.15,165.78,83.18,165.73,83.04,165.95z"/> <path d="M82.55,166.59c0.16-0.23,0.32-0.42,0.49-0.64C82.75,166.05,82.55,166.19,82.55,166.59z"/> <path d="M83.46,165.68c-0.1,0-0.2,0.1-0.3,0.1C83.36,165.78,83.46,165.78,83.46,165.68z"/> <path d="M80.33,175.28l-0.1-0.1c-0.2,0.3-0.4,0.51-0.61,0.81C79.92,175.89,80.12,175.59,80.33,175.28z"/> <path d="M81.03,174.48c-0.09,0.14-0.18,0.26-0.26,0.36c0.1-0.08,0.22-0.16,0.36-0.26L81.03,174.48z"/> <path d="M80.77,174.84C80.11,175.36,80.26,175.51,80.77,174.84L80.77,174.84z"/> <path d="M83.36,172.96c0.14-0.14-0.13,0.03-0.2,0.1C83.36,173.06,83.36,172.96,83.36,172.96z"/> <path d="M124.74,221.11c0.22,0.19,0.4,0.42,0.57,0.68C125.23,221.37,125.07,221.17,124.74,221.11z"/> <path d="M124.6,220.98c-0.14,0.14-0.16,0.09,0.14,0.13C124.69,221.07,124.65,221.02,124.6,220.98z"/> <path d="M124.01,220.3c0.23,0.26,0.4,0.52,0.5,0.78C124.58,220.65,124.38,220.38,124.01,220.3z"/> <path d="M123.79,220.37c0.09-0.1,0.07-0.11,0.21-0.07C122.96,219.25,122.94,219.09,123.79,220.37z"/> <path d="M121.21,218.23c-0.05-0.06-0.09-0.11-0.14-0.18C120.91,218.19,120.92,218.1,121.21,218.23z"/> <path d="M121.2,218.23c0.13,0.16,0.25,0.32,0.37,0.5C121.55,218.48,121.42,218.33,121.2,218.23z"/> <path d="M120.82,218c0.05,0.05,0.09,0.09,0.14,0.14C120.96,218.06,120.9,217.99,120.82,218z"/> <path d="M120.76,218.04c0.02-0.02,0.04-0.03,0.06-0.04C120.49,217.67,120.76,217.94,120.76,218.04z"/> <path d="M124,237.68c-0.04,0.5,0.23,0.69,0.61,0.69C124.51,237.99,124.4,237.72,124,237.68z"/> <path d="M124,237.68c0-0.04-0.01-0.07,0-0.12C123.89,237.66,123.85,237.68,124,237.68z"/> <path d="M124.7,238.57c0-0.1,0-0.2,0-0.3C124.6,238.46,124.7,238.57,124.7,238.57z"/> <path d="M115.84,241.31l-0.03-0.02c-0.14,0-0.13-0.01,0.02,0.04c-0.07,0.14,0.03,0.01,0.18,0.06l-0.16-0.07
		C115.84,241.33,115.84,241.31,115.84,241.31z"/> <path d="M107.82,241.29c0.27,0.13,0.23,0.16,0.1-0.1L107.82,241.29z"/> <path d="M124.46,224c-0.19,0.23-0.42,0.43-0.67,0.52C124.12,224.43,124.37,224.34,124.46,224z"/> <path d="M124.46,224c0.05-0.06,0.1-0.13,0.14-0.19C124.44,223.64,124.54,223.66,124.46,224z"/> <path d="M125.41,223.1c-0.4,0.2-0.61,0.4-0.91,0.61C124.72,223.92,124.91,223.43,125.41,223.1z"/> <path d="M220.84,375.03c-6.08-0.1-7.33-3.01-16.88-5.16c-6.61-1.49-6.5-2.86-10.31-1.52c-0.1,1.21,0.91,1.11,1.31,1.72
		c2.41,3.61-2.7,0.96,13.85,5.36c22.22,5.9,18.77,7.07,24.56,6.47c-0.3-0.4-0.71-0.71-0.91-1.11
		C229.56,376.23,222.57,375.06,220.84,375.03z"/> <path d="M276.23,401.01c2.13,0.85,1.9-0.22,2.83-1.52c-0.81-0.61-1.21-1.01-1.82-1.42c0.59-2.35,3.7-2.69,3.23-4.55
		c-0.21-1.72-3.39-1.56-5.26,0.1C272.71,395.87,273.1,399.5,276.23,401.01z"/> <path d="M244.49,384.53c-1.58-1.07-5.95-1.93-6.57-1.31c-2.47,2.47,3.25,1.74,7.08,4.55c1.7,1.25,4.05,1.57,6.27,1.31
		c0.71-0.08,1.21-0.51,1.92-0.81C251.45,385.02,248.89,387.51,244.49,384.53z"/> <path d="M260.56,393.43c0.23,2.12,0.4,4.35,1.01,6.57c1.31-10.92,0.91-9.08,2.83-12.43c-0.61-0.61-1.2-0.4-1.62,0.1
		C261.41,389.32,260.29,390.9,260.56,393.43z"/> <path d="M276.33,377.86c-2.53,0.42-1.73,0.85-6.67,4.04c6.36-1.21,6.37-1.18,7.38-1.52C278.31,379.63,277.6,377.86,276.33,377.86z"/> <path d="M260.36,411.12c0.1-2.02,0.4-4.14-0.91-6.17C258.44,407.28,259.15,409.3,260.36,411.12z"/> <path d="M256.12,388.58c0.2,1.42,1.31,1.72,2.33,1.82c0.51,0.1,1.21-0.4,2.02-0.71C259.05,388.28,257.73,388.07,256.12,388.58z"/> <path d="M269.66,381.91c-0.13,0.27-0.16,0.23,0.1,0.1L269.66,381.91z"/> <path d="M233.53,382c0.09,0.19,0.15,0.51,0.15,0.11C233.62,382.05,233.57,382.02,233.53,382z"/> <path d="M233.53,382c-0.02-0.04-0.04-0.07-0.06-0.09C233.47,381.95,233.5,381.97,233.53,382z"/> <path d="M224.38,531.82c0.1,0,0.4,0.11,0.4-0.2c-0.1,0-0.2-0.1-0.3-0.1C224.48,531.62,224.48,531.72,224.38,531.82z"/> <path d="M107.52,440.23c2.93,1.31,5.87,2.71,8.9,3.84c10.35,3.87,6.07-3.27,6.07,20.62c1.11-1.24,0.76-13.75,1.82-17.99
		c0.91-0.1,1.72-0.3,2.53-0.4c-0.85-0.85-15.05-6.06-16.17-6.47C107.63,438.72,107.11,439.83,107.52,440.23z"/> <path d="M113.38,453.88c0.3-2.53,0.61-5.36,1.01-8.09C112.98,448.62,113.18,451.45,113.38,453.88z"/> <path d="M109.64,445.79c0,0.82-0.05,0.71,0.2,0.71C109.84,445.68,109.9,445.79,109.64,445.79z"/> <path d="M142.39,450.95c-0.14-0.27-0.1-0.25-0.1,0H142.39z"/> <path d="M57.58,221.48c-0.4,1.42-0.1,2.43,0.51,3.34C59.82,224.57,58.54,223.01,57.58,221.48z"/> <path d="M55.66,205c-1.01,1.42-0.51,2.93-0.4,4.45C55.76,207.94,55.86,206.42,55.66,205z"/> <path d="M62.84,236.24c0-1-0.1-0.75-0.1-0.91C62.21,235.86,62.84,235.85,62.84,236.24z"/> <path d="M53.23,197.22v-0.4C52.97,196.95,52.98,196.84,53.23,197.22z"/> <path d="M60.11,192.77c0-0.3,0-0.61,0-0.91C59.4,192.17,59.5,192.47,60.11,192.77z"/> <path d="M164.94,479.15c-0.26,0-0.23-0.05-0.1,0.2L164.94,479.15z"/> <path d="M69.41,208.64l0.2-0.1C69.23,208.54,69.27,208.51,69.41,208.64z"/> </g> </svg> 