<?xml version="1.0" encoding="utf-8"?> <!-- Generator: Adobe Illustrator 23.0.1, SVG Export Plug-In . SVG Version: 6.00 Build 0)  --> <svg version="1.2" baseProfile="tiny" id="Layer_1" xmlns="http://www.w3.org/2000/svg" xmlns:xlink="http://www.w3.org/1999/xlink" x="0px" y="0px" viewBox="0 0 900 600" xml:space="preserve"> <g> <path d="M530.63,101.69c-0.26,0.2-0.28,0.18,0.07,0.08C530.74,101.67,530.73,101.69,530.63,101.69z"/> <path d="M569.47,6.45c-0.01,0-0.01,0-0.02,0C569.47,6.46,569.44,6.47,569.47,6.45z"/> <path d="M777.91,522.39c-1.27-3.15-53.56-100.2-56.78-107.66c-0.53-1.22,2.06-5.33-5.5-9.17c-0.83-5.64-3.17-10.89-4.79-16.37
		c-2.3-7.79-2.66-6.73-6.61-6.73c-0.29-0.74-0.61-1.38-0.8-2.07c-2.42-9.14-5.34-11.13-4.95-13.15c0.12-0.62,0.07-0.26-4.73-12.1
		c-0.81-2,1.39-4.16-3.03-6.48c-0.21-0.11-0.38-0.31-0.4-0.33c-0.54-2.09-1.09-3.99-1.51-5.93c-0.75-3.47,0.41-6.03-1.89-8.95
		c-2.04-2.59,0.72-4.48-2.47-8.74c-3.54-4.73,1.07-6.28-1.91-11.75c-0.59-1.08-1.05-2.24-1.58-3.38c2.36-5.04,3.47-3.49-0.13-15.12
		c1.94-0.9,3.16-2.39,3.96-4.13c1.28-0.13,2.38-0.24,3.4-0.36c1.6-2.25,1.6-2.25,0.62-3.49c-2.03,2.28-1.35,2.16-3.68,2.03
		c-4.32-0.23-7.84-2.24-10.51-6.3c-0.57,0.71-0.94,1.62-1.54,1.84c-2.23,0.8-2.75,2.31-2.2,4.57c2.58,1.69,5.26,3.46,8.02,5.29
		c1.36,4.73,1.11,3.25,1.11,5.75c0,0,0,0,0,0c-0.37-0.57-1.32-1.87-3.54-4.58c-1.11-1.36-2.42-2.49-4.42-2.52
		c-0.66-2.58-0.52-2.41-1.79-2.43c-2.5-0.04-2.78-1.53-6.33-7.42c0.63-1.17,4.37-7.27,2.52-10.53c-5.22-9.18-6.56-9.55-11.9-10.04
		c-5.7-10.05-11.25-20.25-15.9-25.08c-8.65-9-16.13-19.04-17.61-31.47c0.04,0.04,0.05,0.05,0-0.01c0,0,0,0,0-0.01
		c0.01,0.02,0.03,0.03,0.05,0.05c0-0.02,0-0.05,0-0.07c-0.03-0.02-0.04-0.02-0.05-0.03c0-0.02-0.01-0.03-0.01-0.05
		c-6.44-6.92-3.85-16.62-1.86-25.7c5.57-4.56,6.26-5.05,6.28-5.1c1.74,0.17,4.07,11.45,7.54,11.6c6.46,5.34,8.64,5.51,14.2,24.15
		c3.45,11.54,5.46,18.76,10.99,29.31c7.85,14.98,6.92,14.12,11.81,18.31c2.74,2.35,4,4.51,7.95,6.1c0,4.65-0.41,7.88,2.61,11.43
		c1.39,1.63,2.17,3.57,3.33,5.07c-0.44,1.21-1.17,1.35-1.92,1.12c-0.1,0-2.86-0.83-4.21-1.53c-3.4-1.78-2.33-4.36-6.29-5.34
		c-0.59-0.15-0.79-0.1-1.48-0.29c-2.65-0.69-1.8-0.93-2.51-0.39c1.18,2.69,5.12,1.14,6.32,5.29c0.44,1.53,2.07,1.05,4.83,4.4
		c2.01,2.45,9.82,2.18,13.26,0.64c0.95-1.43,0.04-3.16,0.66-4.68c2.98-2.84,5.36-4.56,5.96-7.45c0.33-1.59-0.6-2.47-0.89-2.47
		c-2.12,5.05-3.55,6.06-7.18,8.24c-6.59-1.55-6.42-1.53-6.52-1.53c-2.65-2.78-5.5-5.42-4.54-11.26c0.47-2.86,3.58-3.74,6.98-4.75
		c0.65-0.19,1.43,0.22,2.31,0.39c-0.2,2.7,1.26,7.8,3.49,6.46c0.35-2.41-2.39-3.69-2.26-6.06c1.67-2.32,4.45,5.47,6.87,7.58
		c1.18-3.14,0.7-3-1.57-7.14c-3.18-5.79-10.46-2.9-16.09-0.32c-13.9-2.4-25.19-35.74-29.35-49.21c-0.88-2.85-3.1-19.03-12.4-25.05
		c-4.8-3.1-3.65-1.75-10.02-15.49c1.38-3.03,2.78-6.52,2.58-9.84c-0.14-2.27,1.95-6.35-2.31-11.25c-4.18-4.8-0.46,0.58-0.03,3.95
		c1.64,12.86-4.77,18.63-10.5,25.47c-0.27,3.09-0.69,6.22-2.42,9.15c-14.68-0.49-22.62,2.58-29.07,0.86
		c-3.53-4.87,0.33-0.55-4.75-22.82c-4.37-19.19-0.45-1.47,1.27-19.05c0.24-2.5-0.23-1.17-1.05-6.55
		c-0.93-6.09-1.48-13.89-5.88-20.21c-7.19-10.34-15.43-18.79-16.76-19.46c-8.97-4.54-11.28-3.13-16.75-2.7
		c0.56-1,1.92-3.83,3.69-3.79c2.82,0.06,5.65-0.29,8.15,1.76c1.92,1.57,9.34,5.59,13.55,9.85c14.15,14.34,16.1,19.31,24.26,21.51
		c6.21,1.68,7.27,2.85,10.33,1.34c6.06,6.1,7.29,7.46,9.13,8.41c4.08,2.13,14.75,10.3,14.85,10.4c0-5.07-15.07-12.8-17.29-15.42
		c-0.27-2.5-0.15-7.59-5.89-18.38c-3.28-6.16-6.09-4.29-15.47-9.6c-4.51-2.55-3.55-0.25-6.88-5.67c-1.27-2.06-1.56-9.98,3.71-16.32
		c1.88-2.26,4.35-4.66,4.25-4.66c9.11,1.35,5.08,1.86,13.64,1.08c2.44-0.22,4.87-2.89,4.26-6c-0.14-0.72-0.31-1.45-0.49-2.33
		c2.07-1.34,1.76-3.3,1.01-5.38c2.48-1.27,1.82-3.21,1.82-6.6c9.2-5.23,1.46-5.49,0.93-15.6c2.13-1.39,2.13-0.81,0.42-2.48
		c5.79-5.42,2.91-11.36-0.53-23.41c-2.57-8.99-10.32-10.89-13.29-12.46c-9.49-4.99-21.32-6.43-27.43-5.26
		c-3.87,0.74-2.66,0.63-14.89,8.16c-7.79-1.79-13.86-3.92-17.17,0.61c-8.92,12.21-10.51,14-9.93,19.84
		c1.03,10.55,2.6,10.77,2.57,13.53c-0.15,15.2,5.25,22.24,0.37,35.81c-0.49,1.37-2.48,6.76-1.04,6.47c0.6-0.12,0.63-0.42,3-5.63
		c0,4.51-1.3,9.18-2.97,13.36c0.18-0.13,0.98,0.21,2.95-3.1c0.93-1.56,2.38-2.92,2.29-4.96c0.02,0.02,0.04,0.04,0.06,0.06
		c-0.34-1.35-1.2-0.15-0.31-4.57c2.38-11.82,3.49-13.76,2.25-37.19c0-0.1-0.16,0.4-0.79,2.14c-1.91-0.19-0.47-0.42-0.39,4.07
		c0.04,2.24,0.21,9.99-0.34,14.23c-2.39-11.01-3.17-13.62-2.6-16.57c0.15-0.8-1.22-6.08-1.76-9.87c-1.3-9.29-1.39-13.56,3.5-20.18
		c1.65-2.23,7.05-4.85,11.24-4.18c-0.1,0.31-0.19,0.6-0.3,0.9c1.01-0.21,2.1-0.72,2.97-0.46c1.14,0.34,3.61,0.02,3.79-0.12
		c-4,6-2.33,1.94-5.48,6.01c-4.81,6.23-4.26,9.62-5.83,20.86c-1.45,10.37,1.64,16.9-0.84,25.99c-0.22,0.79-0.29,3.37-0.29,3.47
		c-0.42-3.6,0.15-6.8-0.69-9.91c-1.33,15.92-3.56,16.24-2.64,21.39c2.01-4.35,2.01-4.46,2.01-4.36c0.48,1.58,0.31,3.03-2.86,16.73
		c-1.06,4.6-2.62,5.76-3.54,8.77c0.81,0,1.22-0.43,1.75-1.07c9.47-11.72,10.47-23.02,10.04-22.6c-0.91,0.88-0.94,2.12-1.33,3.21
		c-2.19,6.21-4.43,9.84-4.43,10c0.67-5.97,2.5-12.87,3.81-22.16c1.58-11.26-0.42-13.31-0.01-22.7c0,1.06,5.43,25.12,4.05,33.41
		c-1.06,6.36-1.27,5.53,0.09,8.24c-0.39,6.09-2.77,6.13-10.41,17.68c-6.36,9.61-6.66,18.29-7.61,24.69
		c-1.84,12.4,4.48,26.97,14,49.28c6.81,15.96,7.35,21.95,9.69,28.23c1.36,3.66,1.4,5.02,1.65,20.76
		c0.26,16.59-27.5,24.59-28.65,56.02c-0.29,7.99-1.75,7.06-0.55,12.15c3.95,16.72,7.18,18.15,16.3,41.5
		c1.18,3.02,2.39,26.44,3.72,37.12c6.43,51.64,4.18,33.72,2.24,51.82c-0.65,6.03-4.33,14.11-6.69,18.49
		c-14.18,26.33-3.3,68.34-3.39,78.5c-0.11,12.81,1.55,21.01,1.55,25.01c-6.96,2.36-6.2,2.25-7.83,7.53
		c-0.27,0.89-1.16,4.92-1.9,6.82c-2.8,7.18,0.04,11.3-2.66,15.66c-0.05,5.14-6.2,10.06,2.96,13.55c9.4,3.58,10.95,3.5,13.63,2.98
		c3.02-0.59,6.06-1.37,8.64-3.04c5.54,1.33,5.31,4.47,15.28,6.03c26.6,4.16,34-3.4,46.31-8.7c1.79-3.53-1.83-8.04-4.42-12.03
		c4.03,0,19.72,0.35,21.98-0.25c17.04-4.45,18.35-3.43,15.97-17.78c-0.65-0.23-1.42-0.7-2.23-0.78c-5.61-0.5-10.95-2.36-16.49-3.14
		c-3.68-0.52-5.44-2.21-10.02-6.76c-7.61-7.57-10.13-4.15-13.98-10.68c-1.95-3.31-4.41-6.29-7.47-8.61
		c-5.2,1.96-4.55,5.48-0.93-34.95c1.29-14.43,9.51-34.39,8.27-58.16c-0.26-5,1.24-9.39,3.1-13.97c3.88-9.52,1.08-5.99,3.04-16.77
		c0.09-0.52,7.82-40.23,8.63-61.68c0.1-2.6-0.37-9.28-0.39-9.31c-2.52-3.81,1.31-4.17-8.4-66.41c0.49,0.13,0.8,0.12,0.92,0.27
		c2.41,2.85,4.81,5.72,6.21,9.25c2.73,6.94,0.83,12.66,18.61,21.33c-0.33,5.23,1.88,8.41,6.91,10.03c2.11,4.03,4.65,7.83,7.96,11.06
		c0.9,0.88,1.93,3.22,4.95,5.55c2.57,1.98,0.1,2.05,5.29,5.58c6.42,4.37,2.51,5.25,7.96,9.06c6.54,4.57-0.33,0.63,13.69,14.09
		c1.05,1.01,2.39,1.85,4.28,1.49c0.13-0.48,0.3-1.04,0.48-1.69c4.09-2.66,3.03-2.53,4.95-1.15c-0.22,0.67-0.41,1.24-0.59,1.8
		c1.56,1.47,2.46-0.53,3.23,3.43c-2.05-0.74-2.53-0.91-3.8-0.63c-2.14,0.46-0.83,0.66-2.84-0.81c-0.16-0.12-0.62-0.07-0.95-0.1
		c-0.07,0.54-0.31,1.13-0.18,1.64c0.81,3.43,2.42,6.52,4.15,9.55c0.49,0.85,1.38,1.18,2.7,0.38c-0.67-1.19-1.33-2.35-2.05-3.64
		c0.92-0.3,1.69-0.55,2.76-0.89c-2.78-4.42-1.44-1.66-2.94-2.79c-0.35-0.17-0.64-0.84-0.77-1.23c1,0.56,1.82,0.44,2,1.45
		c0.86,0,3.29,1.95,4.23,2.86c-1.68,3.04-1.19,1.73-2.13,5.44c-1.32,0.55-1.7,1.29-0.89,1.98c2.73,2.33,2.82,9.08,7.3,11.83
		c1.88,1.16,1.31,1.57,1.42,3.85c0.22,4.63,1.74,5.47,9.47,13.8c2.11,2.27,4.39,3.72,3.75,6.45c-1.3,5.51,3.07,6.03,4.85,9.25
		c57.54,104.06,55.78,107.14,58.21,106.82C777.6,524,778.26,523.25,777.91,522.39z M690.55,281.15c0,0.64,0,1.33,0,2.04
		c-1.78,0.8-3.44,1.04-5.23,0.7c1.17-2.25,1.17-2.25-0.33-5.14C687.12,279.14,688.81,280.09,690.55,281.15z M537.64,73.35
		c0-1.65-0.05-1.44,0.14-1.44C537.79,73.56,537.84,73.35,537.64,73.35z M545.11,56.02c0-2.37-0.06-2.06,0.18-2.06
		C545.29,56.32,545.35,56.02,545.11,56.02z M545.87,66.44c0-1.47-0.04-1.28,0.12-1.28C546,66.63,546.04,66.44,545.87,66.44z
		 M589.88,109.32c5.05,2.15,7.93,3.04,9.76,5.74c5.78,8.52,4.93,13.75,6.02,14.48c0.5,0.25-0.05,1.09-0.17,0.45
		c0-0.2-0.02-0.65-0.21-0.75c-1.26-0.66-0.42,0.09-3.13-3.35C587.17,106.95,588.07,109.32,589.88,109.32z M591.87,5.9
		c0.24,0,0.25-0.06,0.2,0.11c4.25,1.99,5.83,2.32,4.6,3.36c-4.47-2.15-4.58-3.33-4.69-3.4c-0.31-0.23-0.33,0.19-0.9-0.38
		C591.39,5.62,591.28,5.5,591.87,5.9z M587.47,4.07c-0.41,0.38-0.24,0.33-0.86,0.08C587.3,3.92,587.09,3.92,587.47,4.07z
		 M588.19,5.97c0.18,0.24,0.28,0.01,0.99,0.27c-0.58,0.29-0.47,0.41-0.88-0.1c-0.11-0.22-1.89-0.28-1.99-0.29
		C587.44,4.83,587.82,5.97,588.19,5.97z M582.91,4.51c0.69,0.34,0.88-0.23,1.67,0.56c0.47,0.47,0.63,0.42-1.39-0.45
		c-0.08,0.01-0.1,0.02-0.1,0.02c-0.22-0.06-1.52-0.32-7.72-1.19C581.2,2.7,581.42,4.24,582.91,4.51z M583.35,7
		c-0.47,0.19-0.58,0.28-0.68,0.27C581.43,7.13,582.63,7.07,583.35,7z M579.32,6.3c-0.13,0.09-0.26,0.17-0.39,0.27
		c-0.41-0.13-0.99-0.2,0.06-0.35C579.09,6.19,579.21,6.26,579.32,6.3z M575.61,5.57c-0.26,0.14-0.2,0.15-0.26-0.01L575.61,5.57z
		 M571.81,2.47c2.28,0.21,1.99,0.09,1.95,0.48C571.43,2.8,571.76,2.97,571.81,2.47z M572.26,4.2c-2.73,0.63-2.91,0.68-2.92,0.68
		c1.59,0.64,1.97,0.75,1.86,0.75c-1.34,0.61-1.66,0.78-1.74,0.82c12.24,2.23,12.72,1.6,14.6,3.64c3.25,0.46,10.74,5.64,11.49,5.64
		c0.02-0.01,0.03-0.01,0.04-0.02c0,0,0.01,0,0.01,0c0.17-0.08,0.17-0.09,0.05,0.04c0.27,0.34,1.35,2.85,3.75,3.1l-0.08-0.11
		c0.32-0.08,0.43-2.11-1.37-3.69c-0.08-0.07-2.5-2.38-3.25-3.14c0.03,0.02,0.07,0.02,0.17,0.04c0.06,0,0.96,1.02,0.99,1.02
		c2.83,0.77,4.02,3.14,5.52,5.51c-2.5,0.31-2.3-0.11-1.14,1.67c1.7,0.1,3.16-1.01,4.71-0.24c4.19-2.82,4.82,11.74,6.17,15.61
		c1.6,4.58-4.79,1.43-3.87,8.96c1.04,8.52,4.49,9.71,3.2,12.14c-0.99,0.38-1.98,1.27-3.24,0.06c-0.44-0.43-2.92-0.09-2.95,1.15
		c-0.04,0.39-0.1,0.3,1.66,0.88c0.28,1.62,0.54,3.18,0.81,4.73c-1.6,1.48-2.04,1.7-3.49,1.5c-2.73-0.38-4.27-1.34-4.37,0.22
		c2.83,2.61,5.86-0.39,6.86,3.51c-3.5,3.87-1.66,1.17-1.83,6.89c-0.03,1.03-0.65,2.03-1.7,2.23c-9.86,1.84-4.56-0.66-15.32-1.02
		c-0.44,0.59-0.72,1.19-1.17,1.56c-13.95,11.22-6.7,20.5-6.13,22.72c1.71,6.6,5.06,3.4,19.02,24.67c3.62,5.52-0.77,2.54-7.13,0.78
		c-4.49-1.25-5.97-3.07-16.03-13.56c-0.86-0.9-7.21-7.58-8.73-9.9c12.55,1.8,14.29-0.64,0.6-0.55c-2.04,0.01-2.49-0.61-10.46-5.41
		c-5.32-3.2-2.64-2.55-10.27-3.18c7.85-9.78,3.52-1.5,7.43-14.85c0.49-1.66,0.9-3.28,2.36-4.52c1.44-1.23,0.53-3.01,2.62-3.53
		c-2.04-4.82-2.87-4.34-3.52-8.26c3.7-2.07,2.54-1.17,3.74-3.4c-1.11-0.27-1.96-0.39-2.76-0.66c-2.76-0.96-2.1-1.94-2.64,0.39
		c-1.58-2.11-1.78-2.72-1.77-5.13c2.36,1.11,4.8,2.27,7.33,3.46c1.5,3,0.79,4.13,5.57,3.15c0.52-0.11,1-0.47,1.49-0.76
		c-0.46-2.65,0.1-2.39-2.7-0.83c-1.27-0.51-2.03-1.23-2.57-2.29c-6.28-12.22-5.09-9.06-5.28-11.63c4.27,1.85,1.36,0.18,3.01,4.5
		c0.34,0.89,1.02,1.68,1.66,2.4c0.51,0.57,1.13,0.37,2.18-0.59c-0.72-1.96-2.21-3.9-1.57-6.45c0.77-0.68,1.67-1.49,2.74-2.45
		c1.37,2.46,1.25,1.08-0.85,4.01c1.41,5.9,0.89,4.17,1.66,5.71c3.26-2.28,3.3-2.35,0.54-4.84c-1-0.9,2.74-3.28-0.76-6.73
		c-1.47-1.45-3.2-4-4.98-1.45c-2.27,3.24-2.77,5.33-2.74,2.62c0-0.33,0.99-2.5,1.88-3.53c5.3-6.19,6.33,1.96,9.84,3.89
		c1.56,0.86,4.32,1.24,5.2-0.92c-2.99-0.19-3.72-0.22-3.61-0.22c1.49-0.33,12-6.58,13.11-7.15c-0.31-2.48,1.05-3.4,3-4.81
		c0.61-3.12,0.49-2.65,0.43-2.85c-2.24,0.41-4.46,1.29-7.37,0.35h0.01c6.5-2.16,6.46-2.59,7.36-0.36c0.27,0,1.31-1.79,1.44-2.32
		c0.23-0.69,0.31-2.43,0.38-3.65c-4.23,0.59-7.88-1.98-7.78-1.98c3.56-0.32,3.23,0.75,6.56-0.02c6.41-1.49,5.7,3.48,8.85,0.12
		c-3.71-3.9-11.66-7.15-11.89-7.05c-1.55,0.62-2.8-0.55-4.22-0.68c0.07-0.07,0.1-0.12-0.01,0c0,0.73-1.94,0.62-2.27,0.62
		c-0.55-0.82-2.4-0.79-2.3-0.68c-1.58-1.28,0.32-0.34-9.39-3.81c-1.14-0.4-1.91-0.89-2.01-0.89C567.14,2.57,571.47,4.2,572.26,4.2z
		 M594.49,11.67c0.03,0.04,0.05,0.05,0.07,0.08C594.52,11.71,594.49,11.67,594.49,11.67z M550.72,62.09
		c0.28-0.28,0.14-0.02,0.09,0.08c-0.33-0.22-0.56,1.58-2.4,1.59c0-0.61,0.39-9.14,0.39-9.35C552.16,60.13,548.75,60.78,550.72,62.09
		z M550.25,48.88c0.14-0.06,0.28-0.11,0.42-0.17c1.89,2.64,0.89,1.94,5.35,3.72c0.3,0.3,0.53,0.4,0.78,0
		c0.66,0.72,1.63,1.35,1.03,2.86c-4.51-2.58-4.7-2.7-4.92-2.95c-0.86-0.97,0.06-1.33-1.36-1.83
		C550.01,50.19,550.36,49.5,550.25,48.88z M551.29,63.75c2.38,2.83-0.08,15.79-0.65,19.48c-0.22,1.44-0.94,2.76-1.92,3.97
		c-0.19-0.33-0.4-0.51-0.4-0.69c0.05-3.72-0.33-7.42,0.21-11.14C549.03,72.05,546.85,66.01,551.29,63.75z M555.45,73.23
		c0-1.93,0-3.11,0-4.3C556.08,70.12,556.22,71.33,555.45,73.23z M559.04,43.88c0.58-1.63,1.31-2.67,2.43-3.53
		c0.37,0.25,0.65,0.44,1.39,0.92C559.57,44.05,560.6,43.32,559.04,43.88z M569.49,37.71c1.96,0,1.71-0.06,1.71,0.19
		C569.23,37.9,569.49,37.97,569.49,37.71z M584.86,17.64c0.31-0.19,0.2-0.17,0.53-0.06C585.11,17.76,585.21,17.75,584.86,17.64z
		 M585.58,13.26l-0.14-0.17C585.74,13.04,585.69,13,585.58,13.26z M584.18,12.29c-0.13,0.28-0.06,0.28-0.25,0.03L584.18,12.29z
		 M553.63,12.72c2.5-2.1,4.91-3.93,7.74-5.08c10.16,2.45,7.35,1.8,14.15,2.94c0.57,0.74,1.38,0.81,2.23,0.75
		c0.4,0.69,1.09,0.75,1.81,0.77c2.97,0.08,3.98,2.03,3.88,2.03c-0.89,0.12-0.86,0.14-0.97,0.14c0.11,0.08,2.98,2.26,3.09,2.26
		c-7.93-1.18-7.27-1.93-7.11-1.43c-1.77,1.01,0.36,0.87-11.21-3.37c-4.49-1.64-6.96-2.61-8.31-1.29c-0.42,0.42-0.5,0.86-0.43,1.12
		c0.37,1.3,2.09,0.32,4,1c10.8,3.87,14.11,4.31,16.85,6.66c-1.27,0.36-2.1,0.94-2.22,2.27c10.79,1.78,11.1-2.59,9.79,2.07
		c-2.84,0-2.21-1.17-7.41-0.13c-5.43,1.08-8.46,0.35-11.27-1.1c-9.51-4.92-8.28-4.44-8.61-4.11c-1.38,1.38-0.42,0.19,3.2,2.88
		c0.52,0.39,1.28,0.58,1.4,1.37c0.28,0.14,1.13-0.23,1.5,0.72c0.16,0,0.12-0.05,0.07,0.08c0,0.01,0,0.01,0,0.01
		c1.73,0.1,2.86,1.58,4.62,1.84c2.96,0.44,5.39,2.39,5.29,2.39c-12.28,0.78-5.25-0.58-11.49-0.58c0,0.01,0.03,0.03,0.07,0.06
		c-4.03-2.01-5.93-2.28-6.23-2.52c-7.87-6.13-7.99-5.87-5.97-7.63c13.96,10.65,14.59,6.39,13.02,6.39c-0.18-0.03-0.5-0.02-0.7-0.44
		c-0.27-0.55-3.56-0.56-6.82-4.02c0.46-0.02,0.93-0.03,1.4-0.05c0-0.82,0.29-0.75-1.43,0.02c-0.01-0.01-0.02-0.02-0.02-0.02
		c-2.66-1.06-3.1-1.43-4.51-3.97C555.07,14.15,554.9,14.7,553.63,12.72z M538.81,11.29c0,0.51-0.39,0.69-0.62,0.69
		c0,0.15,0.07,0.09-0.2,0.2c-0.05,0.07-0.06,0.15-0.23,0.09C538.55,11.98,537.77,11.31,538.81,11.29c0-0.08-0.02-0.08,0.09-0.08
		c0.3-1.1,0.93-0.78,2.33-0.14C538.33,11.26,538.88,11.29,538.81,11.29z M544.29,9.65c-8.2,0.23-1.11-2.42,8.1,0.8
		c-0.56,0.89-1.05,1.63-1.48,2.27C549.35,10.5,547.04,9.58,544.29,9.65z M561.93,27.67c0.03-1.16,0.07-1.26,0.82-1.43
		c0.29,0.69,1,0.56,1.56,0.73c0.42,0.29,2.52,1.33,3.16,1.54c8.22,2.7-2.2,3.03,12.53,2.48c-1.97,2.14-5.48,0.83-9.61,2.09
		c-3.3,1.01-6.55-0.58-10.83-2.56c-5.08-2.35-6.04-3.43-6.38-2.28c0,0.01,0,0.01,0,0.01c-0.05-0.09-0.78,0.13-1.06-0.05
		c-1.36-0.86-2.67-1.79-3.57-3.24C551.28,13.89,549.86,23.65,561.93,27.67z M553.14,28.34c0.02-0.02,0.03-0.04,0.03-0.05
		C553.17,28.66,553.18,28.52,553.14,28.34z M548.11,27.94c8.84,4.28,14.06,4.46,18.6,7.19c-1.19,0-2.01,0.22-2.43-0.03
		c-2.07-1.25-3.88-0.67-5.9,0.62c-3.72,2.39-2.11,6.36-4.29,8.36c-0.7,0.64,0.52,2.72,1.36,4.82c1.61,4.02,1.49,3.4,0.53,3.4
		c-2.56-3-4.37-3.74-4.89-5.54c0.56,0,0.99,0,1.54,0c-5.29-6.65-5.58-7.27-5.22-10.66c1.12-0.05,1.75,1.48,3.13,0.88
		c-1.56-1.53-3.37-2.88-3.41-5.41c6.27,4.01,6.1,3.94,6.6,4.04C559.58,36.86,547.5,33.1,548.11,27.94z M545.14,24.75
		c0.99,4.41-1.69,7.89,0.68,18.11c0.82,3.55,1.3,6.81,1.03,10.49C542.23,45.28,542.81,32.29,545.14,24.75z M685.35,336.69
		c0.11,0.77,0.21,1.51,0.22,2.31c0.06,4.8-0.79,1.08-3.16-0.03c-1.66-0.78-2.19-2.01-3.63-6.62c-0.13-0.41-0.1-0.96-0.17-1.86
		C681.39,332.46,683.24,334.67,685.35,336.69z M682.91,330.87c-5.34-4.05-6.59-6.05-6.96-12.17
		C678.64,321.49,685.03,327.04,682.91,330.87z M680.75,316.27c0,9.43-1.79,0.34-5.55,0.19c-0.83-4.89-0.51-3.2-1.63-7.75
		C676.82,311.21,678.56,313.95,680.75,316.27z M673.49,307.44c-0.7-2.06-0.89-2.85-0.58-4.36c0.47-2.35,0.45-1.85,0.9-1.3
		c5.01,6.3,5.72,6.18,4.56,8.39C675.65,307.99,675.65,307.99,673.49,307.44z M672.5,286.51c2.33-2.42,1.93,0.44,8.98,3.32
		c-0.18,1.43-0.61,2.08-1.32,1.99C679.56,291.75,675.39,290,672.5,286.51z M671.82,293.72c4.05,2.8,5.64,6.9,8.5,10.12
		c1.06,1.19,0.08,1.89-0.72,2.67c-5.53-7.78-5.05-7.57-7.33-7.88c-1.02-0.14-0.81,0.11-0.9-1.27
		C671.29,296.17,671.27,295.01,671.82,293.72z M657.8,264.97c-0.37,2.99,0.87,5.95,1.55,5.62c0.94-0.46,0.73-0.47,0.19-4.26
		c3.16,2.27,2.57,4.26,4.68,5.65c0.25,0.12,0.31,0.74,0.33,1.02c0.41,6.04-2.15,7.23-6.01,9.8c-1.8,0.13-3,0.21-4.5,0.33
		c-1.54-1.66-6.61-6.58-9.31-11.93c1.62-2.73,3.82-4.69,6.56-5.53C653.33,265.03,655.45,263.69,657.8,264.97z M622.22,215.75
		c1.55,4.11,2.61,4.65,2.99,5.97c1.76,6.04,6.84,11.37,10.44,15.74c4.38,5.32,12.94,21.04,14.82,22.3c0.97,0.64,1.19,1.74,1.19,2.91
		c-2.16,1.28-4.29,2.52-6.52,3.84c-4.66-2.63-6.76,0.64-11.18-1.03c-8.19-3.09-7.32-1.31-21.93-24.17
		c-2.16-3.38-1.47-5.45-1.48-8.26c-0.01-2.71-0.4-6.33,0.31-8.47c0.5-1.51,1.29-3.25,0.57-5.02c-0.12-0.29,2.25-10.81,4.44-16.76
		C622.66,211.16,618.55,206.02,622.22,215.75z M614.61,191.29c1.15,8.8-2.41,8.57-4.26,20.21c-1.32,8.28-2.29,11.22-2.24,18.45
		c0.05,6.97-8.79-20.64-17.21-34.12c-0.36-0.58-0.6-1.24-1.01-2.08C598.21,192.93,606.16,191.63,614.61,191.29z M547.8,190.6
		c-7.68-17.57-2.76-9.1-7.12-19.79c-5.69-13.97-5.94-12.13,1.15-6.75c6.56,14.56,7.09,15.89,8.6,18.61
		c3.95,7.17,5.87,6.89,4.84,8.44C555.17,191.22,548.33,191.79,547.8,190.6z M553.84,228.4c0.96-3.82,0.98-7.66,0.26-11.49
		c-1.44-7.64-2.38-15.37-4.38-23.11c4.98,0.69,3.22,0.5,8.25,0.91c4.18,5.23,2.38,8.04,7.72,13.56c1.14,1.17,3.22,9.93,3.43,10.93
		c2.96,14.38,16.16,18.91,35.04,44.1c1.4,1.87,1.43,1.08,1.26,5.03c-0.04,0.91,0.24,1.91-0.58,2.93c-1.72-1.91-2.4-1.55-9.95-2.4
		c-4.91-0.55-2.98-0.27-4.28-3.79c-0.35-0.94-1.25-1.7-1.36-1.76c0.19,3.37,0.23,2.33-0.11,4.51c-13.53-1.17-35.93-6.03-48.06-14.39
		C552.78,240.03,549.19,246.91,553.84,228.4z M533.9,486.75c-2.81-32.19,15.35-51.1,13.17-55.04c-0.7-1.26-0.51-2.17,1.24-9.04
		c1.05-4.11,2.99-5.94,2.08-12.68c-0.46-3.43-1.61-6.81-1.21-10.35c0.04-0.36-0.08-0.74-0.18-1.09
		c-3.38-11.78-4.18-32.63-5.75-55.63c-0.86-12.64-6.78-8.96,6.88-11.04c11.5-1.75,11.12-2.67,14.63-2.57
		c2.44,0.07,1.35,0.42,2.54-0.01c0.99-2.18,7.3-1.08,27.96,0.01c0.46-0.38,0.61-1.26,2.07-0.92c-0.19,1.94,0.27,3.97-0.77,5.98
		c-2.05,3.98-0.49,11.87-5.02,39.52c-1.52,9.27-5.75,27.95-5.68,40.6c0.05,9.86,1.11,5.76-8.3,22.52
		c-5.98,10.65-7.82,22.78-9.69,31.98c-2.32,11.45-12.55,33.14-10.21,78.21c-2.42,4.07-4.53,4.91-5.35,7.7
		c-0.07,0.23,0.27-0.1-8.59,6.9c-5.01-4.63-1.12-7.13-1.96-15.66c-0.04-0.36,0.23-0.99-0.7-1.09c-2.46,7.09,0.47,9.74-2.3,14.51
		c0.95,1.27,1.89,2.5,2.87,3.8c-2.31,1.24-2.83-0.64-3.42-3.47c-1.11-5.28-0.66-4.74,0.09-6c2.32-3.91-1.9-18.53-1.34-26.25
		C537.49,520.42,536.9,521.12,533.9,486.75z M566.61,536.78c-4.15,1.38-2.88,5.6-5.31,7.09c-1.54,0.94-1.25,0.77-1.47,0.28
		c-2.11-4.68,0.07-36.79,3.48-44.62C565.58,494.31,566.61,468.42,566.61,536.78z M609.18,587.67c-0.42,0.36-0.66,0.66-0.98,0.8
		c-12.17,5.18-13.96,10.2-41.2,8c-10.13-0.82-6.53-2.93-15.63-5.42c-2.08-0.57-3.88-0.58-5.72,0.54c-2.39,1.46-5.25,1.24-7.92,1.76
		c-12.65-2.96-8.88-1.9-13.92-4.47c0-2.91,4.46-10.87,4.33-14.43c-0.17-4.52,0.36-10.77,3.35-19.33c0.78-2.23,2.27-3.32,5.1-3.06
		c-2.26,0.83-1.49,2.45-1.34,8.62c0.06,2.3,2.08,6.28,4.82,6.17c1.48-0.06,4.29-1.12,6.32-3.03c7.83-7.37,9.43-7.8,9.45-10.22
		c0.01-0.66,5.16-5.64,5.26-5.74c1.72-1.67,3.51-1.63,4.97-0.24c2.24,2.13,4.41,4.36,4.8,7.9c-2.32,1.4-4.57,2.91-7.18,3.81
		c-3.48,1.21-5.78,2.9-3.35,5.67c11.03-5.4,10.75-5.94,12.11-6.41c0.15,0.53,0.43,0.98,0.31,1.14c-0.28,0.38-0.69,0.74-1.13,0.9
		c-3.06,1.08-4.91,3.72-7.27,5.7c-0.46,0.39-0.01,2.25,2.35,0.94c8.88-4.92,6.75-3.95,8.15-4.28c5.43,4.15-2.06,1.53-4.84,7.96
		c6.11-1.12,7.2-1.46,7.26-1.55c0.01,0,0.01,0,0.02,0c-0.5,0.28-0.46-0.02-0.03,2.27c1.14-0.22,2.15-0.32,3.08-0.65
		c3.44-1.24,1.55-2.55,4.6,0.62c-5.72,2.42-3.95,1.51-5.9,3.15c1.02,0.06,3.31,0.36,4.12-0.22c3.17-2.27,2.4-2.16,3.38-0.86
		c-1.32,0.75-2.57,1.46-4.09,2.32c1.59,0.29,2.49,0.45,3.3,0.4c7.72-0.47-3.88-4.12,17.08,2.99
		C606.34,580.59,605.91,582.02,609.18,587.67z M614.66,552.2c0.02-0.01,0.22,0.19,0.2,0.23c-0.53,0.9-0.45,0.64-1.03,0.37
		C614.14,552.58,614.39,552.38,614.66,552.2z M611.12,548.94c0.1,0.04,0.19,0.07,0.29,0.11c-0.07,0.22,0.01,0.17-0.31,0.25
		C611,549.29,611,549.4,611.12,548.94z M594.31,532.69c7.19,10.15,7.05,8.26,7.65,10.47c-1.21,0.81-2.33-1.31-5.06,0.43
		c-1.73,1.73-1.55,1.34,0.78,1.7c-0.15,0.98-1.99,2.23-1.05,2.86c0.26,0.17,5.37,0.08,8.17-2.33c0.48-0.41,1.07-0.36,1.54,0.42
		c-1.84,1.29-4.37,1.86-5.03,4.57c4.48,1.08,6.76-1.68,8.33-0.92c-0.67,1.24-2.22,1.79-2.32,3.57c2.4,0.34,3.89-0.24,4.99,0.22
		c-0.76,0.6-1.74,1.06-1.53,2.4c2.53,0.93,4.73-0.4,7.21-1.46c0,3.9-0.91,1.37,8.13,3.63c5.03,1.26,9.91,3.39,15.2,3.5
		c1.15,0.02,1.77,5.5,1.89,6.66c0.37,3.66-2.63,3.82-14.36,6.9c-2.72,0.71-16.63,0.75-21.22,0.33c-2.43-0.22-10.04,0.98-16.14-2.56
		c-0.69-0.4-0.69-0.52-6.5-5.26c-2.59-2.11-1.4-1.02-3.29-2.17c-9.49-5.83-5.88-16.1-17.33-22.46c0.59-1.26,0.72-2.52,1.93-3.43
		c2.92,4.91,8.01,13.46,14.24,10.81c3.68-1.56,6.18-2.15,7.48-5.59c1.14-3.01,2.6-5.91,2.46-9.28
		C590.38,533.53,592.82,533.17,594.31,532.69z M611.99,328.11c1.62,44.72,0.68,26.35-2.02,48.27c-1.35,10.95-6.42,31.92-5.02,39.11
		c0.6,3.09-6.29,11.04-5.51,23.71c0.55,9.03-1.22,18.57-4.8,37.31c-0.61,3.21-1.6,2.74-2.84,8.83c-0.93,4.56-0.26,7.07-1.43,17.48
		c-0.54,4.83-1.88,7.82-1.7,21.55c0.01,0.48-0.45,7.19-0.3,11.12c0.13,3.35-0.46,4.63-1.66,9c-6.25,2.96-7.13,3.56-8.43,3.62
		c-1.66,0.08-3.99-0.88-5.22-2.77c-3.91-6.01-4.46-6.05-4.34-8.82c1.68-37.34-0.93-34.87-1.5-52.91c-0.13-4.05,0.36,1.47,5.39-23.59
		c0.59-2.96,3.7-8.3,4.28-15.78c0.56-7.22,11.97-16.92,12.33-27.49c1.08-31.4-0.49-12.34,5.83-41.91
		c3.94-18.46,2.59-45.65,5.38-48.68c3.74,0,7.42,0,11.26,0C611.81,326.92,611.97,327.52,611.99,328.11z M608.98,293.1
		c0.32,4.67,3.42,30.52,1.96,30.49c-10.37-0.24-9.14,0.36-10.59-0.27c-0.19-2.55-0.07-22,0.02-22.38c0.37-1.5,0.37-3.23,2.21-4.01
		c0.34-0.14,0.36-1.02,0.5-1.59c-0.1,0,0.32,0.09-1.35-0.44c-4.5,6.32-3.53-1.37-3.93,28.51c0,0.1-0.17,2.71-0.28,2.71
		c-8.31,1.57-5.21-0.77-17.05-1.04c-9.95-0.23-15.18-1.75-19.84,0.58c-1.17,0.59-0.47,0.45-1.4,0.37
		c-1.37-1.86-3.91-13.02-4.5-16.48c-0.48-2.84,1.15-6.7-0.1-10.7c-0.19-0.61,0.08-1.36,0.16-2.21c1.57,0,2.91,0,4.26,0
		c0.1,0-1.5-0.73-2.8-0.49c-1.15,0.21-1.57-0.87-2.5-1.29c-0.26,0.6-0.57,1.03-0.61,1.48c-1.66,19.37,5.5,30.82,4.23,30.82
		c-6.07,1.07-11.96,1.88-17.72,3.9c-0.49-1.21-0.65-2.46-1.36-3.18c-2.04-2.05-3.22-8.63-7.1-15.12
		c-6.5-10.89-4.93-19.18-4.88-31.91c0.01-3.74,0.42-4.91,8.68-19.98c1.25-2.28,2.85-4.34,4.83-5.95c0.42,0.15,0.67,0.19,0.88,0.33
		c20.33,13.15,59.41,15.61,61.74,16.89c1.11,0.61,2.24,1.28,3.51,1.79c-0.16,1.05-5.36,25.14-0.54,10.41
		c0.37-1.14,0.95-2.37,0.95-2.47C608.94,285.41,608.72,289.39,608.98,293.1z M622.92,290.63c-0.83-0.6-0.36,0.1-4.85-8.75
		c-1.03-5.66-3.72-10.41-7.68-14.65c-9.36-10.04,4.28,1.36-24.33-28.64c-18.98-19.9-15.11-22.84-18.22-29.77
		c-1.54-3.41-2.97-3.73-3.63-5.87c-0.28-0.92-0.08-1.94-0.91-4.24c-1.96-5.43-9.35-11.01-22.96-46.6
		c-1.89-4.95-3.36-6.48-6.39-11.32c-0.55-0.88-1.33-1.4-2.71-0.9c1.8,3.8,1.97,1.25,3.62,5.48c7.14,18.26,5.29,14.04,1.53,11.89
		c-1.33-0.76-1.9-1.83-2.37-3.2c-2.65-7.72-5.11-14.85-5.2-22.04c-0.06-4.63,1.46-15.98,3.83-19.61c5.74-8.79,6.34-10.1,8.88-10.71
		c11.83-2.82,16.72,2.97,23.32,10.18c9.46,10.33,14.8,19.95,14.33,39.46c-0.02,1.04-0.45,1.94-1.92,1.82
		c-1.2-2.66-1.88-4.73-2.89-6.93c-2.4-5.24-1.53-4.43-2.2-6.54c-0.88-2.79-2.49-0.79-2.39-0.06c1.17,8.41,1.66,5.25,3.42,11.36
		c9.88,34.27,6.81,36.38,11.87,41.29c1.15,1.11,9.97,14.61,11.22,18.04c4.31,11.8,21.57,52.61,33.53,56.02
		c4.5,1.28,3.74,2.44,8.57,1.98c2.76-0.26,4.11-1.13,5.09,0.43c-2.13,3.87-1.5,1.04,2.01,7.29c1.31,2.34,6.39,8.94,11.29,8.96
		c2.37,3.66-0.35,4.89-0.8,4.04c-0.15-0.29-0.07-0.68-0.17-0.85c-0.56-0.93-1.64,1.59-8.81-2.41c-1.52-0.85-4.34-2.86-4.75-0.99
		c2.83,2.59,6.92,3.3,9.66,6.26c-0.94,2.32-0.53,2.65-3.88,3.16c-3.52-1.79-8.82-4.84-8.79-2.21c2.35,1.27,5.04,1.97,7.15,3.73
		c-0.93,2.63-2.5,1.65-8.88,0.51C631.32,295.15,635.76,299.87,622.92,290.63z M644.62,299.36c-1.08,1.55-2.29,2.1-3.92,1.52
		c-3.49-1.24-2.34-0.29-4.52-3.2C639.24,297.69,641.84,298.55,644.62,299.36z M648.17,316.33c-6.48-6.93-4.68-5.56-5.7-8.62
		c-5.66-1-6.24-1.55-7.53-7.33c0.24,0.09,7.23,2.83,7.38,3.03c3.01,3.07,2.06,5.93,3.93,9.19c0.21,0.42-0.07,0.59,1.63-1.83
		C647.89,312.46,648.67,314.16,648.17,316.33z M656.63,326.62c-0.13-0.89-2.66-2.27-3.75-3.43c-2.79-2.97-2.32-3.74-2.42-6.31
		c-0.04-1.15-0.26-2.1,0.1-3.28c4.02,1.89,2.3,6.22,5.27,9.97c1.11-1.96-0.38-3.78,0.1-5.65c1.99,1.1,1.21,1.31,3.82,9.98
		c0.19,0.62,0.78,1.12,1.27,1.79c1.26-1.96-1.24-4.34-0.67-6.27c2.24,0.8,2.27,2.47,4.1,9.53
		C658.74,329.62,656.95,328.93,656.63,326.62z M652.65,312.23c-0.27-2.88-1.83-4.99-3.44-7.04c-4.03-5.13-2.49-2.96-0.95-7.1
		c1.79-4.81,3.97-0.41,5.6-7.35c2.72,0.33,5.97,1.19,6.01-3.11c0.01-1.58-0.36-3.49,1.96-3.52c2.69,2.54-0.52,1.4,7.52,8.95
		c0.02,0.22,0.5,11.54,1.28,15.44c0.83,4.15,0.8,0.23,3.45,11.83c3.52,15.43,1.57,9.75,2.72,13.35c2.93,9.2,2.3,5.58,2.3,8.6
		c-9.02-8.99-2.2-6.48-12.18-16.13C656.41,315.99,665.04,322.12,652.65,312.23z M667.45,338.47c-4.97-3.61-1.43-5.34-1.4-6.08
		c0.02-0.42-0.57-3.37-0.76-4.32c4.39,4.21,2.48,3.22,4.94,6.11c1.91,2.24,2.01,4.9,2.29,7.78
		C670.68,340.69,669.03,339.62,667.45,338.47z M681.61,353.24c-4.37-2.67-2.23-0.38-8.2-7.45c2.37-1.17,0.36-3.41,1.12-5.16
		c2.6,1.31,1.32,5.76,4.68,9.63c-0.54-5.49-0.57-4.93-0.47-4.9c0,0.33,0.54,0.33,2.13,2c1.31,1.37,2.6,2.63,4.57,2.93
		c0.2,0.03,0.34,0.5,0.54,0.83C683,351.95,684.42,351.2,681.61,353.24z M686.34,348.26c-4.7-2.86-3.56-1.12-4.68-7.06
		C686.1,345.31,688.13,346.35,686.34,348.26z M691.68,353.76c-1.03-0.87-1.22-1.55-1.03-2.9C691.5,351.8,691.85,352.5,691.68,353.76
		z M706.72,384.66c-0.3,0.3-0.04,0.31-0.89,0.03C706.6,384.38,706.42,384.35,706.72,384.66z M695.41,373.06
		c-0.93-1.47-1.37-3.14-0.07-4.33C696.45,369.43,696.32,368.77,695.41,373.06z M697.53,372c1.73,2.63,3.82,7.52,3.87,10.18
		C699.14,380.29,696.82,374.41,697.53,372z M703.1,389.51c-1.24-2.28-0.23-5.87,1.42-4.38C704.05,386.6,703.58,388.05,703.1,389.51z
		 M705.19,388.84c1.47-0.54,2.42,0.02,3.1,1.39c1.78,3.55,2.93,7.84,3.94,11.97C708.06,397.8,702.91,393.07,705.19,388.84z"/> <path d="M569.35,4.88C569.35,4.88,569.35,4.88,569.35,4.88C569.35,4.88,569.35,4.88,569.35,4.88z"/> <path d="M569.33,4.88c0,0,0.01,0,0.01,0.01C569.35,4.88,569.35,4.88,569.33,4.88z"/> <path d="M595.62,15.79c0.02-0.02,0.03-0.03,0.04-0.05c-0.02-0.03-0.04-0.05-0.05-0.04c0,0,0,0-0.01,0
		c-0.01,0.01-0.01,0.03-0.01,0.07C595.6,15.78,595.61,15.79,595.62,15.79z"/> <path d="M569.45,6.45c0,0,0.01,0,0.01,0C569.46,6.45,569.45,6.45,569.45,6.45z"/> <path d="M528.29,92.65c0.01-0.04,0.03-0.07,0.04-0.11C528.31,92.56,528.29,92.59,528.29,92.65z"/> <path d="M142.58,78c0.09-0.09,0.11-0.1,0.09-0.13c0.01,0.01,0.01,0.01,0.02,0.02c0.02-0.11,0.03-0.21,0.04-0.32
		c-0.12,0.19-0.14,0.22-0.11,0.26c-0.01-0.01-0.01-0.01-0.03-0.02C142.6,77.83,142.58,78,142.58,78z"/> <path d="M283.01,277.48c1.72-4.4,1.47-5.5-2.7-7.28c-4.32-6.51-1.57-23.17-9.3-26.65c-1.18-4.39-0.9-5.74-4.27-7.31
		c-0.6-4.96-0.81-9.84-2.85-14.19c0-0.37,1.03-4.73,0.14-9.79c-0.17-0.94-0.16-1.97,0.09-2.9c1.2-4.38-0.91-3.56-0.44-10.75
		c0.48-7.43-2.91-7.42-1.2-12.38c2-5.82-1.86-6.93-0.28-11.28c2.33-6.39-2.15-5.53,6.05-12.41c0.93-0.78,1.33-1.7,1.42-2.81
		c0.21-2.55,1-4,0.7-4.45c-1.27-1.96,0.37-4.48-1.2-6.36c-0.27-0.32-0.71-0.47-1.48-0.96c0.23,1.16,0.5,1.85,0.47,2.52
		c-0.04,0.74-0.66,2.37-0.66,2.72c0,0.22,0.76,0.83,0.74,2.41c-0.02,1.17-0.53,2.79-0.45,3.85c0.19,2.67,1.28,1.13-4.52,5.56
		c-1.24-0.88-0.95-2.12-1.36-3.31c0.1-0.02,2.89-0.48,2.79-0.48c-5.09-4.07-8.36-3.26-12.31-1.23c-0.08,0.04,0.02,0.54,0.05,0.86
		c3.24,0.66,4.77-2.06,7.22-0.31c-0.08,2.58-2.5,6.08-3.51,8.43c-0.15,0.34,0.07,0.86,0.15,1.43c2.51-0.88,2.85-3.28,4.15-4.86
		c3.21,0.49-3.32,8.9-5.38,11.85c-1.17-0.64-0.97-1.71-1.03-2.66c-0.93-14.29-0.69-11.63-1.13-12.9c-2.49-1.08-0.02,6.21-0.9,9.56
		c-4.64,3.16-7.04,8.22-10.51,12.61c-7.31-7.02-6.58-8.49-7.52-11.62c13.05-13.73,3.75-9.85,7.92-23.8c0.12-0.4,0.01-0.16,6.36-6.89
		c3.76-0.55,2-0.11,5.56-1.37c1.76,1.93-0.82,2.89-3.48,4.58c-0.39,1.64-0.12,3.39-1.6,4.51c-0.24,0.18-0.41,0.78-0.31,1.03
		c0.78,2.13-0.55,3.82-1.07,5.73c0,0.1-0.09-0.04,1.35,0.85c0.13,1.64-0.53,3.72,1.69,4.62c1.03-0.86-0.08-1.31-0.08-2.9
		c0-2.05,2.36-1.77,6.21-2.93c3.94-1.18,5.43,2.22,8.92,0.98c0-0.1,0.55,0.29-6.31-3.14c-8.44,1.78-9.79,2.45-9.64,0.79
		c0.07-0.76,1.1-1.43,1.83-1.65c7.15-2.23,7.81-1.4,14.04,0.07c0.41-0.71,0.09-1-0.49-1.23c-5.58-2.18-4.44-1.03-5.36-3.14
		c-2.35,1.54-3.95,1.96-9.09,2.42c-0.77-1.08,0.2-2.11,1.29-2.49c8.34-2.92,9.34-1.22,13.29-1.16c-2.67-2.66-6.33-2.14-12.82-0.68
		c-0.69-0.6-0.62-1.17,0.01-1.65c1.91-1.47,2.47,0.1,3.98-2.12c0.47-0.7,1.25-0.16,3.59-0.63c3.2-0.65,4.23,1.29,6.19,3.58
		c0.79-0.25,1.07-0.75,0.74-1.53c-1.37-3.16-1.85-1.4-0.63-5.48c1.52-5.1-2-13.31-9.26-12.63c-2.93,0.28-7.65,1.88-9.34,4.56
		c-2.09,3.31-0.92,7.76-0.64,9.59c-6.51,12.04-9.27,4.54-7.09,22.19c-2.65,1.84-3.82,5.08-6.48,6.98
		c-4.29-5.31,0.14-6.26-3.93-13.54c-2.33-4.17-0.1-6.33-1.15-8.54c-4.66-9.74,1.58-25.97-19.27-21.31
		c-1.81,0.41-4.69,3.21-5.47,3.94c-1.22-1.91-1.41-2.29-1.44-2.34c0.81-0.78,1.23-1.55,0.88-2.61c-2.97-9.27,1.53-17.55-20.92-22.78
		c-4.69-4.87-2.16-13.43,1.04-17.76c0.89-1.21,0.44-0.55,5.22-5.79c6.29,1.49,8.4,2.33,14.17,1.04c5.21-1.17,3.32-7.91,3.18-7.91
		c1.7-2.4,1.64-2.57,1.1-5.67c0.09,0,0.82-0.49,1.21-1.07c0.71-1.04,0.48-1.2,0.48-5.65c9.2-4.49,1.32-5.97,0.93-15.38
		c0.58-0.39,1.08-0.71,1.57-1.03c0.19-0.89-0.86-0.79-1.06-1.36c0.57-1.09,0.89-0.94,1.83-2.35c3.08-4.64,0.83-10.01-2.44-21.12
		c-2.73-9.26-9.88-10.69-13.27-12.48c-7.96-4.2-20.9-7.13-28.92-4.93c-3.61,0.99-1.86,0.68-5.51,2.93c-10.09,6.22-5.91,5-14.36,3.4
		c-9.23-1.74-9.44-0.6-18.61,13.44c-3.42,5.24-1.92,13.51-0.05,19.1c1.45,4.35-0.61,2.75,2.47,20.7c1.71,9.99-0.85,14.82-3.12,23.77
		c-0.21,0.82,0.65,1.11,1.11,0.39c0.34-0.52,2.04-4.36,2.44-5.23c-0.14,5-1.2,9.03-3.06,13.46c1.37-0.7,2.04-1.56,2.56-2.41
		c1.85-3.03,2.85-3.9,2.78-5.8l0.05,0.05c-0.62-1.86-1.49,1.11,0.38-7.88c2.62-12.6,2.26-15.19,1.57-33.82
		c-1.04,2.52-0.66,2.15-1.62,1.93c0.72,6.03,0.57,12.07,0.13,18.12c-0.03-0.11-3.22-12.49-2.64-16.47
		c0.33-2.25-7.84-24.52,3.93-31.73c1.89-1.16,6.25-3.03,9.15-2.5c-0.48,1.37-0.47,1.13-0.23,1.09c0.83-0.15,1.94-0.67,2.82-0.41
		c0.97,0.29,3.32,0.07,3.72-0.05c-3.99,5.91-2.28,1.87-5.41,5.92c-4.87,6.3-4.26,9.73-5.83,20.86c-1.46,10.37,1.68,16.9-0.84,25.99
		c-0.34,1.24-0.16,3.23-0.28,3.23c-0.47-3.33,0.15-6.54-0.71-9.66c-1.12,13.34-3.42,18.19-2.83,20.58c0.25,1.02-0.24,1.69,2.18-3.59
		c0.48,1.59,0.21,2.99-2.86,16.74c-0.93,4.19-3.49,7.61-3.52,8.74c-0.11,0.01-0.6,0.23-0.01,0.08c0.01-0.02,0.01-0.04,0.02-0.06
		c2.27-0.02,11.64-15.34,11.64-22.18c0.46-5.09-0.64,2.69-5.64,11.54c0-0.1,0.25-2.23,0.31-2.53c7.22-39.47,2.83-25.47,3.48-42.16
		c5.4,30.8,3.04,22.8,4.13,26.43c1.65,5.44-2.39,10.39-0.04,15.13c-0.09,3.49-1.48,6.26-3.82,8.72c-3,3.16-10.11,13.3-12.14,21.64
		c-4.16,17.09-0.98,18.77-1.92,24.4c-3.28,19.78-0.37,35.97,1.43,55.44c2.29,24.72,0.25,23.32,14.23,30.79
		c2.67,1.42,3.43-1.1,7.41-3.93c-1.29,22.89-7.17,17.23-18.93,35.67c-8.59,13.47-7.24,23.28-7.7,27.76
		c-0.54,5.23-2.75,0.97,2.32,17.99c4.63,15.55,15.36,25.27,15.53,48.48c0.08,11.43,6.33,54.52,6.01,60.01
		c-0.25,4.38-1.17,4.02-1.97,12.28c-1.93,20.01-17.67,19.49-13.16,68.06c1.21,13.07-1.08-7.42,2.73,25.24
		c0.94,8.06-0.39,2.23,1.19,20.86c0.32,3.81,0.69,3.39,0.79,7.94c0.01,0.24-3.78,0.64-6.34,2.9c-8.12,23.81-2.89,21.9-6.1,27.03
		c-0.18,6.4-7.17,9.76,4.44,14.27c19,7.39,16.43-4.98,25.41,1.41c6.59,4.68,15.36,4.07,20.84,4.78c15.8,2.06,28.31-6.34,32.7-8.24
		c2.92-1.26,6.19-1.43,1.2-9.91c-0.06-0.1-2.26-3.46-2.37-3.46c8.7-0.48,19.43,0.58,24.5-0.9c13.87-4.05,15.87-2.57,13.46-17.17
		c-0.65-0.24-1.43-0.71-2.23-0.79c-5.6-0.5-10.93-2.38-16.49-3.14c-3.72-0.51-5.51-2.28-10.01-6.75
		c-7.6-7.55-10.15-4.18-13.99-10.68c-1.95-3.3-4.4-6.3-7.47-8.62c-1.19,0.44-2.2,0.81-3.44,1.27c-0.87-6.36,1.05-19.89,2.51-36.2
		c0.75-8.42,7.26-32.75,8.25-44.75c1.27-15.44-2.7-14,4.33-30.23c2.03-4.68,0.16-4.67,1.79-13.56c5.64-30.82,4.64-25.12,4.94-30.73
		c0.42-7.64,6.57-27.18,2.64-54.03c-0.9-6.15-1.26-10.58-1.32-10.7c-1.32-2.57-0.87-5.35-1.08-8.05c-0.39-4.85-0.93-9.67-2.05-14.41
		c-5.33-22.4-1.68-15.97-0.49-32.22c1.1-15.01-0.78-29.62,0.7-32.52c0.74-1.44,0.26-2.98,0.38-4.5c0.12-1.49,0.86-3.5,1.35-5.22
		c10.07-2.12,17.16-7.92,22.03-16.74c1.33,0.64,1.86,1.72,2.05,2.96c0.71,4.55,8.48,16.84,11.1,20.14c1.92,2.43-0.92,5.12,4.57,8.85
		c3.4,2.31,3.38,3.99,6.45,4.8c2.55,0.67,1.95,4.11,4.91,6.21c1.48,1.05,2.39,2.98,1.97,4.93c-1.29,6,4.52,14.67,9.51,19.13
		c3.16,12.95-0.56,1.73,72.81,187.54c0.89,2.27,1.74,5.35,3.52,4.5c0.74-0.35,1.09-1,0.91-1.85
		C352.08,452.25,285.23,283.79,283.01,277.48z M255.51,129.3c1.85,0.04,1.28,0.39,2.39-1.57c4.21,1.16,8.01,6.9,5.42,11.89
		c-6.16,0.76-6.63,0.85-6.73,0.85c-0.47-0.9-0.97-1.85-1.43-2.75c-2.46-0.35-3.85,1.98-6.29,1.31c-0.22-0.84-0.51-1.64-0.65-2.48
		C247.5,132.4,249.59,129.18,255.51,129.3z M137.74,73.33c0-1.62-0.05-1.41,0.15-1.41C137.89,73.54,137.94,73.33,137.74,73.33z
		 M257.96,176.93c0.75-1.02,1.42-2.17,2.42-3.12c-0.02,3.63-2.02,5.34-4.81,8.37c-0.09,0.1-0.37,0.05-0.56,0.06
		C255.01,176.89,255.16,180.73,257.96,176.93z M243.22,186.23c2.21-4.21,4.92-8.05,8.09-11.57c0.12-0.13,0.45-0.09,0.8-0.15
		c0.26,1.49,1.08,5.35,0.8,8c-0.79,7.45,0.88,8.67,0.06,10.71c-1.49,3.73,0.68,7.16,0.1,13.84c-6.74-6.74-1.93-4.5-7.27-13.21
		C243.17,189.57,241.93,188.68,243.22,186.23z M229.24,162.67c-0.27,0.35-0.05,0.32-0.88,0.04
		C228.83,162.24,228.69,162.28,229.24,162.67z M212.36,128c-0.04,0.11,0.03-0.07-0.72,2.06c1.46-0.63,2.69-0.58,3.67-1.52
		c0.34-0.32,1.09-0.66,1.64-0.57c4.66,0.71,5.02,4.05,6.25,9.41c0.12,0.53-0.08,1.14-0.14,1.93c-6.8,0-11.54-0.09-13.95,1.56
		c-4.7,3.24-3.2,1.77-5.11-3.04C202.3,133.59,207.37,126.63,212.36,128z M201.99,127.65c0,0.01,0,0.02-0.02,0.02
		C201.97,127.66,201.98,127.65,201.99,127.65z M198.96,121.4c-4.37-4.98-7.92-10.02-12.32-14.3c-0.12-0.12-0.1-0.39-0.26-0.98
		C195.4,109.18,198.89,110.81,198.96,121.4z M196.62,8.14c0.37,0.19,0.85,0.6,0.1,1.24c-0.83-0.4-4.84-2.65-4.59-3.37
		C189.01,4.45,194.58,7.08,196.62,8.14z M186.66,4.05c0.99,0,0.79-0.04,0.87,0.19C186.5,4.24,186.66,4.3,186.66,4.05z M186.67,5.61
		c1.26-0.63,0.77,0.45,2.56,0.6c-0.99,0.53-0.53-0.14-1.08-0.14C187.73,5.64,185.86,6.15,186.67,5.61z M183.23,4.63
		c0.5,0,1.11-0.01,1.41,0.44c0.68,0.68,0.18,0.06-1.76-0.47c-0.33-0.19,0.47-0.06-7.46-1.14C179.72,2.88,180.47,3.4,183.23,4.63z
		 M183.06,7.19c-0.95,0-0.83,0.04-0.83-0.11C183.19,7.08,183.06,7.04,183.06,7.19z M179.2,6.22c-0.08,0.39,0.06,0.32-0.39,0.28
		c-0.43-0.04-0.33-0.01-0.33-0.07C178.55,6.25,178.41,6.3,179.2,6.22z M175.67,5.57c-0.26,0.14-0.2,0.15-0.26-0.01L175.67,5.57z
		 M171.95,2.63c2.25,0,1.99-0.09,1.95,0.34C171.61,2.75,171.95,2.85,171.95,2.63z M172.33,4.2c-2.73,0.63-2.91,0.68-2.92,0.68
		c1.59,0.64,1.97,0.75,1.86,0.75c-1.34,0.61-1.66,0.78-1.74,0.82c12.25,2.23,12.72,1.59,14.6,3.64c3.27,0.46,10.75,5.64,11.49,5.64
		c0.26-0.12,0.24-0.14,0.07,0.06c0,1.15,3.76,3.49,3.76,3.02c-0.07-0.11-0.12-0.11,0.06-0.11c0.42-2.89-1.97-3.8-4.6-6.65
		c-0.16-0.21-0.11-0.1-0.23-0.16c-0.05-0.03-0.06-0.14-0.09-0.21c2.51,2.87,4.01,0.95,6.6,6.85c-2.13,0.23-2.04-0.18-0.84,1.65
		c1.66,0.07,3.12-1.08,4.67-0.27c0.68-0.44,1.32-0.55,2,0.09c1.93,1.82,1.2-0.4,3.36,11.05c1.19,6.3,1.76,6.32-1.02,7.89
		c-1.94,1.09-2.37,3.3-2.05,5.51c1.32,9.16,6.4,12.41,1.3,12.79c-0.4,0.03-0.82-0.5-1.26-0.59c-1.52-0.31-3.23,0.07-2.98,1.49
		c2.09,0.67,1.47-0.4,2.45,5.32c-1.4,2.53-4.44,1.19-6.79,0.85c-1.96-0.28-1.22,2.2,2.91,2.1c1.68-0.04,2.46,0.78,2.87,2.25
		c-3.15,3.48-2.35,1.83-1.67,5.79c0.08,0.48-0.26,3.03-1.87,3.33c-9.76,1.81-4.84-0.67-15.11-1c-3.75,3.72-6.25,5.7-8.08,9.49
		c-1.33,2.76-1.68,1.89-1.82,3.86c-0.55,7.63,1.58,8.06,2.35,11c0.59,2.23,1.86,4.09,3.57,5.58c6.36,5.57,15.42,17.41,17.88,24.55
		c0.79,2.28,0.84,7.78-0.15,7.31c-7.97-3.78-15.6-13.35-15.74-14.01c-0.57-2.65,3.94,2.72-18.55-21.28
		c3.78,0.01,7.05,0.86,10.34,0.11c-0.49,0-1.99-0.98-9.59-0.93c-2.11,0.01-2.57-0.67-10.8-5.57c-5.74-3.42-3.19-2.57-10-2.94
		c0.7-0.87,3.16-4.09,4.69-5.41c1.37-1.19,0.66-2.8,1.12-4.16c2.15-6.33,2.02-8.18,4.02-9.86c0.76-0.64,0.97-1.94,1.48-2.92
		c0.62-1.19,1.76,0.4,0.58-1.96c-3.48-6.97-2.39-3.54-2.95-6.91c3.7-2.07,2.54-1.17,3.74-3.4c-3.29-0.78-2.02-0.26-5.04-1.76
		c-0.13,0.57-0.22,0.96-0.35,1.48c-1.63-2.16-1.77-2.73-1.77-5.13c2.36,1.11,4.79,2.26,7.25,3.42c0.77,1.18,0.83,2.88,2.33,3.58
		c5.66-0.61,4.92-0.62,4.45-3.26c-3.75,2.07-3.08,2.9-10.04-10.89c-0.19-0.37-0.08-0.88-0.14-1.74c1.08,0.47,1.83,0.79,2.45,1.05
		c0.31,2.49,0.18,4.36,2.21,5.87c0.62,0.46,1.15,0.35,2.22-0.62c-1.75-3.69-1.27-2.2-1.82-6.24c0.98-0.89,1.89-1.69,2.95-2.65
		c1.25,2.24,1.21,1.35-0.06,2.95c-1.3,1.63-0.77,0.87-0.12,3.37c0.52,2.01-0.07,1.29,1.01,3.4c3.28-2.3,3.28-2.35,0.53-4.85
		c-1.16-1.06,3.71-3.03-2.59-8.6c-2.43-2.15-3.79,1.41-5.72,4.47c-0.05-0.83-0.27-1.38-0.09-1.76c5.54-12.01,8.61-1,11.66,0.67
		c1.7,0.93,4.34,1.15,5.2-0.92c-2.89-0.19-3.77-0.22-3.6-0.22c1.49-0.33,11.99-6.57,13.15-7.17c-0.18-1.18,0.07-1.17,0.53-2.6
		c0.43-1.35,1.86-1.18,2.46-2.34c0-0.3,0.63-2.71,0.53-2.73c0.17-0.02,0.44-0.39,0.98-1.47c0.35-0.87,0.49-0.51,0.71-4.48
		c-4.22,0.59-7.88-1.98-7.78-1.98c3.56-0.32,3.23,0.75,6.56-0.02c2.86-0.66,5.59,0.16,6.02,1.1c-0.1-0.07-0.08-0.03,0.02,0.04
		c0.03,0.07,0.04,0.14,0.04,0.21l0.14-0.06h0.01c-0.04-0.04-0.08-0.07-0.11-0.1c0.39,0.19,1.39,0.38,2.77-1.11
		c-3.93-3.89-11.68-7.11-11.93-7c-1.85,0.78-3.65-1.22-4.49-0.38c-0.53,0.45-1.34,0.25-2,0.32c0-0.71-2.4-0.79-2.3-0.68
		c-1.64-1.3,0.48-0.29-9.4-3.81c-1.14-0.4-1.91-0.89-2.01-0.89C167.21,2.57,171.53,4.2,172.33,4.2z M151.41,63.65
		c2.29,3.88-0.44,19.87-1.33,21.42c0,0.11-0.76,1.09-1.66,2.05c0.13-3.69-0.44-7.24,0.13-10.83
		C149.3,71.56,146.65,66.55,151.41,63.65z M151.29,50.39c-1.18-0.47-0.82-0.56-0.97-1.51c0.14-0.06,0.28-0.11,0.42-0.17
		c1.89,2.64,0.89,1.94,5.35,3.72c0.3,0.32,0.53,0.39,0.78,0c0.66,0.72,1.62,1.35,1.07,2.72C149.16,51.11,154.53,51.47,151.29,50.39z
		 M150.18,60.66c-0.16,0.68,0.33,1.62,0.79,1.3c-0.12,0.28-0.06,0.22-0.18,0.14c-0.48,0.97-1.23,1.66-2.3,1.66
		c0.13-3.14,0.27-6.16,0.4-9.35C150.51,57.14,150.74,58.17,150.18,60.66z M155.53,72.61c0-1.33,0-2.49,0-3.65
		C155.84,70.15,156.6,71.37,155.53,72.61z M159.11,44.05c0.56-2.07,1.74-3.12,1.8-3.23c0.56-0.56,0.93-0.24,1.6,0.52
		C162.63,41.59,161.23,43.06,159.11,44.05z M169.55,37.72c1.92,0,1.72-0.06,1.72,0.17C169.3,37.89,169.55,37.95,169.55,37.72z
		 M179.32,26.52c0.12,0,3.35-1.2,5.43-1.77c1.74-0.48,1.65,1.43,2.06,1.39c-0.01,0.02-0.08,0.12-0.08,0.12
		C186.55,25.69,183.32,27.81,179.32,26.52z M184.99,17.66c0.1-0.21-0.02-0.2,0.39-0.12C185.27,17.76,185.38,17.74,184.99,17.66z
		 M185.79,13.08l-0.21,0.13C185.53,12.96,185.48,13.01,185.79,13.08z M184.01,12.42l0.1-0.22
		C184.29,12.45,184.33,12.39,184.01,12.42z M138.96,11.21c0,0.06,0,0.05-0.01,0.02c-0.17,0.52-0.19,0.67-0.7,0.78
		c0.03,0.12,0.05,0.11-0.2,0.18c-0.09,0.14-0.07,0.08-0.24,0.08c0.82-0.31,0.08-0.98,1.06-0.98
		C138.86,11.18,138.94,11.2,138.96,11.21c0-0.2,0.14-1.07,1.47-0.52C141.68,11.2,141.81,11.04,138.96,11.21z M144.32,9.73
		c-9.16,0.25,1.14-2.42,7.95,1.03c-0.51,0.79-0.96,1.46-1.35,2.05C150.8,12.31,148.58,9.61,144.32,9.73z M152.73,21.7
		c11.66,9.04,8.24,4.99,10.08,4.57c0.26,0.63,1.38,0.72,1.55,0.73c-3.72-1.98-5.88-2.26-6.24-2.55c-7.74-6.16-7.99-5.9-5.91-7.68
		c3.81,3.42,8.01,6.18,13.16,7.36c0-0.04,0.5-0.91,0.46-0.91c-0.07-0.22-1.19,0.36-1.42-0.56c-0.31-0.77-3.03,0.05-6.77-3.91
		c0.14,0,1.29-0.05,1.42-0.05c-0.04-0.81,0.31-0.76-1.44,0.02c-0.01,0-0.02-0.01-0.03-0.02c-4.7-1.9-3.98-3.98-4.55-3.98
		c2.11-0.59,1.92,0,0.7-1.87c2.2-2.16,4.83-3.94,7.85-5.16c9.97,2.4,6.97,1.72,13.94,2.9c0.57,0.74,1.38,0.81,2.23,0.75
		c0.4,0.68,1.1,0.68,1.81,0.78c2.06,0.27,2.06,0.3,3.83,2.02c-1.37,0.18-1.46-0.26,1.82,2.11c-0.61,0.23-0.24,0.34-2.05-0.08
		c-5.2-1.2-4.74-1.01-4.58-1.16c-0.31-0.36-0.19-0.21-0.1,0.06c-2.46,1.37-5.19-1.99-16.92-5.15c-3.05-0.82-3.83,2.21-2.32,2.32
		c3.17,0.22-0.13-1.03,15.29,4.4c1.71,0.6,3.38,1.31,4.84,2.55c-1.57,0.42-2.13,1.23-2.22,2.26c11.35,1.94,11.24-3.09,9.78,2.08
		c-4.12,0,0.84-1.29-11.12,0.28c-6.72,0.88-13.93-5.73-14.55-5.1c-1.65-0.72-1.53-0.61-1.39-0.76c-0.18,0-0.22-0.03-0.09,0.1
		c-0.18,0.18-0.58,0.59-0.7,0.71c0.01-0.01,0.02-0.02,0.05-0.05c0.2,0.79,0.92,0.66,1.46,0.84c2.09,1.38,3.75,2.29,3.75,2.95
		c1.56,0,1.26,0.63,1.54,0.63c-0.02,0.03-0.03,0.06-0.05,0.09c0,0.01,0,0.01,0,0.01c1.72,0.14,2.87,1.6,4.64,1.86
		c1.74,0.26,3.5,0.99,5.27,2.39c0.1,0-5.83,0.87-8.92-0.26c-0.75-0.27-2.68-0.32-2.52-0.32c0,0.1,2.53,1.39,3.23,1.61
		c8.22,2.7-2.2,3.03,12.53,2.48c-1.97,2.14-5.48,0.83-9.61,2.09c-6.21,1.91-17.21-7.32-17.21-4.59c0,0.1-0.01-0.04-0.03-0.14
		c0.06-0.24-0.7,0.08-1.03-0.12c-1.36-0.86-2.67-1.78-3.57-3.23C150.32,17.78,150.05,19.63,152.73,21.7z M148.17,27.96
		c9.66,4.68,22.85,6.87,17.07,7.25c-1.28,0.08-1.4-0.8-3.22-0.8c-2.21,0-4.94,1.63-6.12,4.85c-0.58,1.6-0.32,3.49-1.76,4.82
		c-1.43,1.31,5.94,12.03,0.79,7.01c-4.45-4.33-3.38-2.89-3.79-4.32c0.56,0,0.99,0,1.54,0c-5.29-6.66-5.58-7.27-5.22-10.66
		c1.12-0.04,1.72,1.46,3.13,0.88c-1.56-1.53-3.37-2.88-3.41-5.41c7.83,4.98,5.48,3.76,8.21,4.31
		C149.96,31.98,147.81,31.05,148.17,27.96z M145.2,29.39c-1.42,12.77,2.5,13.91,1.7,23.91C139.3,39.77,147.03,12.91,145.2,29.39z
		 M145.94,66.53c-0.07-1.59-0.12-1.42,0.11-1.42C146.15,66.7,146.21,66.53,145.94,66.53z M145.4,54.27c0,3.5,0.05,2.77-0.12,1.88
		C145.19,55.73,144.85,54.19,145.4,54.27z M146.8,95.55c2.88,0.04,4.32,0.08,6.03,1.35c4.45,3.29,11.57,6.47,16.45,12.74
		c0.96,1.24,8.89,8.72,13.54,14.92c3.28,4.37,13.65,16.63,19.07,17.28c1.39,0.17,2.08,1.21,1.94,2.9c-8.16,7.7-3.81,1.53-7.2,10.85
		c-2.44,6.73-1.81,6.93-13.17,13.56c-10.46,6.1-11.51,6.52-14.26,7.27c-10.8,2.94-8.61,2.55-9.96,2.3c3.6-9.22,1.27-5.32,7.25-8.23
		c5.9-2.87,11.65-7.32,13.77-13.49c0.59-1.71,1.74-2.34,2.07-5.6c0.72-7.1-3.29-22.15-4.81-25.82c-2.34-5.68-16.5-22.21-18.92-23.44
		c-8.19-4.17-10.78-3.53-16.55-2.67C143.24,96.4,143.84,95.5,146.8,95.55z M145.04,226.36c-2.27,0.76-7.94-3.4-9.73-4.96
		c-3.58-3.14-2.27-5.12-3.96-16.24c-1.49-9.8-3.97-22.32-3.29-29.24c1.09-11.06-1.45-7.94,0.86-33.94c0.85-9.53,0.21-1.28-0.01-9.25
		c-0.14-5.2,1.3-16.62,4.22-21c4.15-6.22,6.58-12.67,16.67-10.42c8,1.78,8.19,3.36,14.35,9.89c12.45,13.19,11.77,16.99,13.24,23.6
		c5.27,23.71-0.84,26.93-13.5,33.99c-2.72,1.52,3.22-6.35,0.5-19.75c1.82-1.03,3.81-1.53,5.18-3.52c-5.84-1.42-7.22,2.56-6.1-3.34
		c-0.1,0-0.47,0.1-0.57,0.2c-3.95,4.18-3.34,3.52-3.51,4.2c0.66,0.93,1.29,0.06,1.91-0.15c1.15-0.39,4.31,15.21-6.32,35.64
		c-7.32,4.09-6,5.23-9.36,7.31c-2.35,1.45-2.3,3.52-2.2,3.52c1.68,0-0.06-0.07,7.31-5.42c5.85-4.25,17.36-8.84,17.46-8.87
		c0.67-0.22,1.19,0.31,2.64-0.15c0.92-0.29,11.51-6.57,12.35-7.09c8.07-4.95,15.21-8.99,15.76-18.35c0.27-4.5,2.9-4.02,11.36-9.8
		c4-2.73,7.21-2.07,13.34-1.49c0.66,0.06,1.07,0.58,1.16,1.28c0.41,3.19-7.78,1.04-7.98,3.46c2.72,0.75,4.08,0.72,8.51-0.18
		c1.66,3.7,1.82,2-2.3,5.06c-0.57,0.43-0.62,1.03,0.08,1.7c3.72-1.12,3.01-1.2,3.72,0.3c-0.83,1.67-2.89,2.26-3.09,4.1
		c0.43,0.67,0.95,0.67,1.33,0.34c1.29-1.13,6.79,1.03,0.08,4.49c-5.27,2.72-4.2,6.62-9.23,8.42c-2.15,0.77-12.36,1.31-14.73,5.59
		c-0.15,0.28-0.62,0.4-0.96,0.55c-5.01,2.3-15.36,15.64-25.9,26.23C151.25,226.29,148.45,219.22,145.04,226.36z M204.88,181.11
		c3.27-1.92,6-4.03,7.01-7.73c10.06-2.22,5.22-1.89,9.52-4c1.24,6,2.08,3.44-4.28,10.63c-0.1,3.1-0.8,6.17-2.3,9.18
		c-32.99,0.97-26.51,5.5-15.57-8.79c1.31-1.71,4.89-4.46,5.84-4.92c1.29-0.62,2.08-0.23,2.7-0.54c0.1-0.1-0.03,0.11-0.05,0.17
		c0,0.1-5.06,3.53-6.53,4.87c-0.35,0.32-0.58,0.72-0.52,1.36C202.87,181.99,203.26,182.06,204.88,181.11z M219.07,179.73
		c5-3.51,4.74-3.37,4.79-3.27c0.48,0.58,1.69,1.59,0.23,3.04c-0.36,0.21-0.27,0.18-4.82,2.76
		C218.94,180.93,218.91,181.52,219.07,179.73z M226.25,164.26c0.12,3.37,0.49,7.05,0.01,10.64
		C222.52,171.9,221.51,164.52,226.25,164.26z M134.94,499.91c-6.39-45.12,14.76-63.79,11.84-69.43c-0.35-0.67,1.99-9.62,2.52-10.78
		c3.48-7.65-0.78-13.63-0.09-20.2c0.03-0.3-2.87-11.68-3.57-22.8c-3.42-54-3.04-35.17-4.37-43.43c1.25-0.61,28.13-4.08,28.23-4.08
		c2.7-0.05,25.92-0.87,26.22,1.68c1.62,13.85-8.2,65.54-8.59,68.67c-3.68,29.48,2.47,15.92-6.39,32.28
		c-3.29,6.07-4.06,5.3-6.31,12.21c-1.35,4.15-2.94,7.63-3.64,10.96c-3.85,18.31-3.57,19.32-4.86,22.22
		c-1.81,4.07-2.69,7.81-5.41,22.44c-4.81,25.92-3.44,37.38-2.85,46.02c0.26,3.87-4.26,5.4-5.24,9.11c-0.08,0.31,0.43-0.16-8.63,7.04
		c-5.34-4.4-0.49-7.32-2.21-17.15c-0.43,0.64-0.77,0.92-0.81,1.24c-0.33,2.58-1.02,5.22-0.78,7.76c0.21,2.22-0.01,4.11-1.2,5.96
		c1.01,1.3,1.92,2.45,2.84,3.63c-2.52,0.89-2.76,1.02-4.13-8.21c1.91-1.7,1.77-4.94,1.29-9.1
		C135.52,517.9,138.55,525.34,134.94,499.91z M166.66,536.52c-5.1,3.64-3.39,8.7-6.83,7.59c-0.76-2.35-0.62-14.92-0.52-17.38
		c0.81-20.21,3.42-22.67,6.16-36.38C167.36,501.07,166.66,501.11,166.66,536.52z M209.22,587.67c-2.32,1.81-6.24,2.54-11.65,6.12
		c-5.83,3.85-23.58,3.24-30.53,2.67c-10.13-0.82-6.53-2.93-15.63-5.42c-2.02-0.55-3.83-0.61-5.72,0.54
		c-2.39,1.46-5.26,1.24-7.9,1.78c-12.82-3-8.77-1.88-13.92-4.47c0-1.94-0.63,1.22,3.72-11.15c1.44-4.1-0.49-6.72,2.21-16.54
		c1.57-5.73,1.64-9.55,6.85-9.14c-2.26,0.85-1.49,2.51-1.34,8.62c0.05,2,1.91,7.26,6.32,5.88c3.44-1.08,4.25-2.14,11.72-9.04
		c1.23-1.13,2.54-2.07,2.55-3.92c0-0.32,0.34-0.71,0.56-0.94c4.23-4.32,6.61-7.94,9.67-5.04c2.24,2.13,4.41,4.36,4.8,7.9
		c-2.32,1.4-4.57,2.91-7.18,3.81c-3.48,1.21-5.78,2.9-3.35,5.67c12.5-6.18,10.49-5.85,12.1-6.41c0.19,0.67,0.85,1.43-0.83,2.04
		c-3.04,1.12-4.91,3.72-7.27,5.7c-0.35,0.29-0.05,1.51,0.95,1.42c1.61-0.15,7.18-4.2,9.56-4.76c4.83,4.46-2.05,1.53-4.83,7.96
		c5.83-1.07,7.12-1.44,7.27-1.55c0,0,0.01,0,0.01,0c-0.54,0.3-0.44,0.06-0.03,2.27c1.14-0.23,2.16-0.31,3.08-0.65
		c3.46-1.26,1.57-2.53,4.59,0.61c-5.72,2.43-3.88,1.47-5.89,3.15c4.04,0.3,3.28,0.42,6.77-2.08c0.98,1.32,1.52,0.58-3.38,3.35
		c2.97,1.01,5.21,0.13,7.09-1.14C208.53,581.3,204.28,578.66,209.22,587.67z M214.77,552.15c0.27,0.63,0.36,0.9-0.4,0.9
		c-0.12,0-0.23-0.21-0.36-0.33C214.26,552.54,214.51,552.36,214.77,552.15z M211.44,549.2c-0.36,0.12-0.24,0.12-0.54-0.07
		C211.17,548.9,211.05,548.85,211.44,549.2z M194.35,532.64c7.2,10.18,7.05,8.29,7.65,10.5c-1.53,0.97-1.82-0.84-3.48-0.3
		c-1.13,0.37-2.27,0.91-2.73,2.08c-0.04,0.09-0.24,0.02,1.91,0.36c-0.17,1.11-1.55,1.57-1.23,2.71c0.74,0.51,5.7,0.06,8.34-2.17
		c0.51-0.43,1.1-0.32,1.55,0.43c-1.84,1.28-4.37,1.86-5.05,4.65c5.26,0.84,6.7-1.78,8.35-0.99c-0.68,1.24-2.22,1.79-2.32,3.57
		c2.6,0.39,3.67-0.3,5,0.23c-1.14,0.99-1.14,1-1.57,2.39c2.56,0.94,4.76-0.39,7.24-1.45c0,0.98,0,1.62,0,2.31
		c16.72,2.67,16.17,4.67,23.34,4.82c1.16,0.02,1.77,5.56,1.9,6.63c0.45,3.63-2.77,3.85-14.36,6.89c-2.72,0.71-16.63,0.75-21.22,0.33
		c-4.9-0.45-5.69,1.32-15.32-2.15c-1.18-0.43-1.3-0.76-7.32-5.67c-3.1-2.53-5.67-2.48-9.27-8.86c-5.56-9.87-2.73-10.9-11.34-15.76
		c0.59-1.26,0.72-2.52,1.93-3.43c8.71,14.66,12.03,11.68,17.99,9.16c1.83-0.77,3.03-2.1,3.73-3.95c1.45-3.84,2.55-5.52,2.46-9.28
		C190.47,533.49,192.87,533.11,194.35,532.64z M213.22,322.35c0.7,5.33,1.5,10.35,1.18,15.51c-1.05,16.98-0.59,18.26-2.1,25.65
		c-3.16,15.36-2.36,17.8-5.09,29.41c-1.5,6.37-3.02,19.1-2.15,22.94c0.25,1.1-1.15,3.59-1.69,4.88c-5.02,11.91-3.64,15.5-3.88,26.01
		c-0.1,4.4-4.24,29.68-5.73,32.59c-3.44,6.74-1.54,12.08-4.11,28.65c-1.67,10.77-0.47,28.3-1.81,32.66
		c-1.49,4.87,0.07,3.49-8.27,7.22c-1.71,0.76-4.89-0.09-6.45-2.49c-9.21-14.15-0.29,0.61-5.4-53.38c-0.18-1.94-0.77-9.32-0.03-11.31
		c3.45-9.32,4.29-19.46,5.9-23.49c5.12-12.77,1.68-12.7,5.55-18.8c2.45-3.86,6.04-10.14,6.33-10.56c7.7-11.2,0.73-22.81,7.31-43.99
		c6.83-21.98,5.08-47.65,6.47-56.73c1.82-1.42,3.68-2.03,5.69-2.31C209.31,324.21,210.02,323.39,213.22,322.35z M212.13,318.24
		c-5.41,2.86-12.84,7.49-12.82,5.17c0.06-8.24-0.08-8.32,1.57-9.4c1.82-1.2,4.83-1.81,4.43-3.72c-1.7,1.16-3.36,2.41-5.58,3.2
		c-2.15-6.67,0.98-0.82-2.87-15.2c-0.31,0.67-0.64,1.43-1.02,2.28c1.16,3.51,1.66,7.18,1.39,10.93
		c-1.13,15.88-0.79,15.38-1.53,15.63c-2.85-0.78-3.9-1.37-8.17-1.37c-0.93,0-19.96-0.03-20.88,0.3c-4.5,1.58-8.33,1-11.39,1.52
		c-16.45,2.78-12.33,3.04-15.69,3.27c-0.36-0.98-0.45-2.13-1.07-2.77c-1.48-1.5-2.02-3.39-2.69-5.25
		c-4.47-12.41-10.24-15.97-9.62-30.9c0.48-11.33-0.47-13.12,1.64-17.3c9.13-18.05,1.89-7.23,15.33-5.88
		c5.26,0.53,17.96,3.35,25.65,2.22c3.69,2.8,11.18,3.47,15.73,3.14c6.3-0.45,8.31,1.2,15.23-0.14c4.76-0.93,5.49-0.25,6.24-0.07
		c-0.37,2.63-5.34,25.2-0.54,10.47c0.54-1.65,1.14-2.72,1.04-2.72C210.91,291.53,209.57,307.51,212.13,318.24z M205.74,271.25
		c-7.74,0.19-15.31,0.81-22.72-2.07c-1.21-4.97-1.08-5.4-2.15-5.93c0.14,1.91,0.28,3.73,0.43,5.73c-1.08,0-1.94,0.08-2.77-0.02
		c-9.62-1.21-10.92-0.05-15.64-0.43c-6.65-0.53-24.49-2.33-27.57-8.25c8.91-11.27,13.91-14.29,14.71-17.68
		c0.25-1.07,0.05-1.59,0.18-2.07c0.03-0.1,1.79-4.4,2.96-9.83c2.1-9.72-2.13-5.5,9.46-13.45c2.56,0.31,2.04,0.64,1.78-1.2
		c10.07-11.36,7.09-4.81,11.1-6.81c-0.58-0.53-1.16-1.06-1.86-1.71c11.56-11.67,11.49-12.83,13.74-14
		c7.08,0.46,20.03-2.53,27.26-2.05c0.86,5.67-0.73,8.06-1.59,10.28C205.28,221.71,210,249.41,205.74,271.25z M223.03,207.06
		c-4.38,2.99-10.62,7.83-9.25,2.9c1.25-4.52,5.21-16.43,3.76-21.35c-0.37-1.25,0.14-2.7,0.93-3.88c3.02,0,4.36-3.29,7.22-3.69
		c0.68-0.09,3.38,4.19,4.51,8.5c0.69,2.65,3.02,5.26,3.45,5.84C230.86,200.53,227.49,204.03,223.03,207.06z M243.39,203.88
		c-0.11,1.85-0.68,3.37-0.49,4.22c-0.14-0.24-0.16-0.17-0.12-0.33c-5.47-3.42-1.56-6.92-5.72-11.76c-0.06-0.06-0.78-1.03-0.87-1.16
		c-2.15-3.18-3.23-0.9-4.21-7.1c0-0.49-0.4-2.36-0.4-2.46c-7.7-10.56-2.44-0.66-2.44-17.42c3.9,5.95,1.8,16.48,2.5,17.53
		c0.07,0.07,1-0.54,1-0.69c0.78-0.91,0.05-3.1,0.61-7.04c1.81,1.41,1.9,3.16,1.93,4.89c0.24,12.87-0.71,11.33,1.65,10.79
		c0.09-3.28,0.17-6.43,0.27-9.93c1.59,1.06,2.22,2.39,3.1,3.78c-1.09,2.01-0.44,4.31-0.43,6.44c0.02,2.35-0.54,4.45,1.25,6.68
		c1.34-6.09,0.51-5.83,1.32-7.04C243.54,195.21,243.94,194.59,243.39,203.88z M252.23,222.6c-12.96-17.29-7.01-10.42-7.01-15.52
		c0.09-0.86,0.29-1.72,0.43-2.57c0.14-0.86-0.07-1.81,0.41-2.58c4.54,5.21,1.6,12.64,3.68,15.21c0.23,0.28,0.63,0.55,1.21,1.08
		c-0.63-8.03-1.23-11.89,2.4-3.98C251.66,216.65,253.24,219.61,252.23,222.6z M255.38,192.81c-0.6-2.88-0.9-5.57-0.55-7.87
		c5.64-4.41,5.36-6.36,5.9-2.78c-3.92,5.32-4.99,6.3-4.37,8.28c1.79-0.64,1.68-2.98,3.4-3.55c0.53,2.03-0.28,3.53-1.3,5
		c-1.08,1.56-3.87,5.89-2,6.05c0.97,0.09,1.37-3.48,3.55-4.91c2.88,3.17-4.01,4.85-2.89,10.72c1.68-1.44,1.62-3.77,3.4-4.97
		c1,7.4-3.08,8.06-1.63,11.31c0.77-1.39,1.44-2.59,2.24-4.02c1.23,3.99-2.19,5.88-2.13,8.48c1.16-0.51,0.71-0.18,2.17-1.36
		c1.1,2.54-0.8,3.85-1.77,5.84c-3.25-2.32-3.28-6.18-4.8-8.47c0.34-8.2,0.86-10.07-0.38-13.4
		C253.61,195.48,254.4,194.88,255.38,192.81z M261.38,219.41c-0.17,0.85-0.25,0.57-0.6,0.24c0.13-0.16,0.23-0.32,0.35-0.46
		C261.21,219.26,261.39,219.36,261.38,219.41z M259.96,224.54c-1.26,0.79,0.23,1.81-0.11,2.86c-0.39,0.52-0.89,1.19-1.42,1.91
		c-2.75-0.82-1.52-0.21-4.16-1.89c0-14.67-0.36-6.04,2.79-7.25c0.34-0.13,1.06,0.52,1.48,0.94c2.07,2.07,0.52,2.03,3.57,1.51
		c1.02,2.16,1.67,4.14,1.45,6.54C262.33,227.27,262.07,224.73,259.96,224.54z M263.58,234.02c-1.65-0.5-1.06-0.96-1.48-1.73
		c0.28,0.24,0.21,0.15,0.21,0.26C264.16,232.07,263.78,231.8,263.58,234.02z M265.45,238.91c1.89-1.83,3.5,1.94,3,4.34
		c-0.01,0.09-0.17,0.14-0.52,0.42C266.25,241.59,266.06,241.36,265.45,238.91z M274.28,260.33c-1.87,0-6.66-11.61-6.78-11.87
		c0.51-0.65,1.14-0.9,1.77-0.87c3.93,0,3.98,11.19,5,12.73c1,0,1.04-0.11,1.04,1.49C275.26,261.74,274.36,260.44,274.28,260.33z"/> <path d="M169.54,6.45c-0.01,0-0.01,0-0.02,0C169.53,6.46,169.5,6.47,169.54,6.45z"/> <path d="M138.95,11.22c0-0.01,0-0.01,0.01-0.02c0,0,0,0-0.01,0C138.95,11.21,138.95,11.22,138.95,11.22z"/> <path d="M164.35,27.01C164.35,27.01,164.35,27.01,164.35,27.01C164.38,27.01,164.38,27.01,164.35,27.01z"/> <path d="M159.07,18.77C159.02,18.82,159.03,18.81,159.07,18.77L159.07,18.77z"/> <path d="M169.4,4.88c0,0,0.01,0,0.01,0.01C169.41,4.88,169.42,4.88,169.4,4.88z"/> <path d="M169.51,6.45c0,0,0.01,0,0.01,0C169.52,6.45,169.52,6.45,169.51,6.45z"/> <path d="M169.41,4.88C169.41,4.88,169.41,4.88,169.41,4.88C169.41,4.88,169.41,4.88,169.41,4.88z"/> <path d="M265.88,148.14c0.26-0.04,0.38,0.19-0.63-0.91C264.96,147.23,264.84,147.01,265.88,148.14z"/> <path d="M629.55,185.37c-0.81,0.9-1.23-0.17,0.5,6.27c0.1,0.39,0.59,0.65,1.19,1.27C631.47,190.14,631.07,187.89,629.55,185.37z"/> <path d="M247.45,169.62c0.34-0.71,0.96,0.42-3.14-5.94C243.44,165.83,245.49,169.15,247.45,169.62z"/> <path d="M661.52,260.34c-0.23-1.73-0.93-3.19-2.4-4.29C657.01,256.72,659.08,260,661.52,260.34z"/> <path d="M533.63,84.47c1.55-1.27,1.49-3.61,1.39-3.5C533.58,82.57,533.63,83.25,533.63,84.47z"/> <path d="M622.29,206.24c0.21-1.33,0.25-1.36-1.09-2.53C621.11,205.95,620.8,205.4,622.29,206.24z"/> <path d="M631.11,194.07c-0.21,0.78-0.43,0.32,0.61,1.7C632.37,195.12,631.9,194.55,631.11,194.07z"/> <path d="M655.78,249.93c0.22,0.23,0.45,0.48,0.71,0.76c0.09-0.26,0.62-0.97-0.29-1.13C656.08,249.53,655.92,249.8,655.78,249.93z"/> <path d="M632.43,198.94c0.15,0.2,0.05,0.21,0.22,0.03c0.43-0.43,0.28-0.39-0.16-1.07C632.21,198.43,632.04,198.4,632.43,198.94z"/> <path d="M655.07,247.91c0.74-0.3,0.67-0.08,0.35-0.92C654.74,247.24,654.81,247.09,655.07,247.91z"/> <path d="M142.73,77.54c0,0.06,0.32-0.54,0.38-0.64C143.26,76.61,142.86,76.11,142.73,77.54z"/> <path d="M542.68,77.57c0-0.3,0.38-0.18,0.38-1.03C542.93,76.65,542.68,76.68,542.68,77.57z"/> <path d="M542.68,77.57c-0.17,0.23-0.11,0.26-0.14,0.43C542.67,77.86,542.65,77.92,542.68,77.57z"/> <path d="M657.93,252.95c-0.04,0-0.15,0.42-0.08,0.62C658.17,254.48,658.67,252.95,657.93,252.95z"/> <path d="M239.27,170.4c0.43-0.07,0.4,0.01,0.28-0.33C239.26,170.11,239.31,170.03,239.27,170.4z"/> <path d="M240.79,168.57c0.32,0.16,0.47,0.22,0.47-0.1C241.26,168.16,241.25,168.3,240.79,168.57z"/> <path d="M241.34,168.25c0.15-0.2,0.17-0.17-0.1-0.09C241.26,168.29,241.2,168.34,241.34,168.25z"/> <path d="M266.34,148.31c0-0.01-0.09-0.16-0.14-0.18C265.96,148.07,266.17,148.19,266.34,148.31z"/> <path d="M603.23,289.39c0.01-0.06,0.01-0.12,0.02-0.18C603.12,289.34,603.13,289.29,603.23,289.39z"/> <path d="M559.05,71.02c-0.03,0-0.06,0.01-0.09,0.02C559.11,71.34,559.05,70.92,559.05,71.02z"/> <path d="M566.54,59.76c0.04-0.04-0.1,0.06-0.1,0.1c0.15,0.04,0.15,0.03,0.11-0.11C566.55,59.75,566.55,59.75,566.54,59.76z"/> <path d="M595.63,544.99c-0.07,0.11-0.04,0.1,0.06,0.06C595.7,545.01,595.76,544.99,595.63,544.99z"/> <path d="M535.11,80.55c-0.07,0.18-0.09,0.11,0.05,0.26C535.14,80.7,535.11,80.65,535.11,80.55z"/> <path d="M535.03,80.95c0.16-0.16,0.13-0.12,0.02-0.24C535.05,80.77,535.05,80.85,535.03,80.95z"/> <path d="M163.49,142.06c-0.01,0.03-0.01,0.07-0.02,0.1C163.6,142.16,163.59,142.17,163.49,142.06z"/> <path d="M203.3,289.22c0-0.01,0-0.01,0-0.01c-0.35,0.35-0.35,0.27-0.01,0.18C203.28,289.33,203.28,289.28,203.3,289.22z"/> <path d="M205.27,310.17c0.12,0.47,0.42-0.83,1.51-0.83C205.92,309.34,206.2,309.2,205.27,310.17z"/> <path d="M179.99,201.12c0,0.01,0,0.01,0,0.02c-0.01,0.02-0.02,0.02-0.06,0.07c0,0,0.01,0,0.01,0c0,0.01,0,0.01,0.02,0
		c0.05,0,0.17,0.02,0.06-0.09C180,201.11,180,201.12,179.99,201.12z"/> <path d="M159.04,71.09c0.09,0.06,0.12,0.07,0.07-0.07C159.01,71.02,159.02,71.05,159.04,71.09z"/> <path d="M166.6,59.76c-0.1,0.1-0.22,0.07,0.02,0.13C166.61,59.85,166.61,59.8,166.6,59.76z"/> <path d="M180.01,10.57c0.03,0,0.06-0.05,0.07-0.07l0.01-0.01C179.71,10.31,180.07,10.52,180.01,10.57z"/> <path d="M195.75,545.05C195.75,544.89,195.54,545.12,195.75,545.05L195.75,545.05z"/> <path d="M135.18,80.57c-0.02,0.04-0.04,0.08-0.06,0.13C135.06,81.07,135.26,80.91,135.18,80.57z"/> <path d="M133.69,84.46c0,0.11,1.38-1.06,1.42-3.54C135.11,81.07,133.42,82.29,133.69,84.46z"/> <path d="M182.28,14.26c0.27,0,0.17-0.04,0.09-0.09C182.07,14.12,182.16,14.14,182.28,14.26z"/> <path d="M257.06,129.44c0.36,0.46,0.76,0.59,2.01,0.59C258.56,129.38,257.87,129.43,257.06,129.44c0-0.02-0.03-0.04-0.07-0.09
		c0,0-0.01,0-0.02,0.01c-0.02,0.02-0.03,0.05-0.05,0.08C257.02,129.44,257.06,129.44,257.06,129.44z"/> <path d="M571.07,423.29c1,2.86-0.42,2.58,0.44,4.87c0.84,2.25,0.34,2.68,2.34-3.95c-2.34-1.68-1.78-4.24-2.25-4.32
		c-0.87-0.08-0.84,0.53-0.84,0.85C570.77,421.59,570.79,422.49,571.07,423.29z"/> <path d="M566.92,458.97c0.87-2.7,0.39-5.19-0.16-7.63c-1.16,2.21-1.09,4.38-0.76,6.8C566.04,458.41,566.48,458.59,566.92,458.97z"/> <path d="M549.57,425.37c1.39-1.54,1.67-2.9,1.91-4.95c0.11-0.92,0.17-0.96-0.33-0.74c-0.11,0-2.64,4.89-2.5,5.62
		C548.8,426.06,548.66,426.38,549.57,425.37z"/> <path d="M551.56,419.46c0,0-0.01,0.06-0.01,0.11C551.67,419.53,551.66,419.56,551.56,419.46z"/> <path d="M542.19,525.88c-1.38,1.4-1,2.73-0.47,4.66C542.87,528.67,542.85,527.46,542.19,525.88z"/> <path d="M541.57,542.68c0.87-0.84,0.81-1,0.13-2.33c-0.08,0-0.2,0-0.27,0c-0.02,0-0.03,0-0.03,0
		C541.05,543.57,541.01,543.22,541.57,542.68z"/> <path d="M541.73,518.71c-0.69,1.56-0.57,2.56,0.45,3.61C542.84,520.89,542.65,519.92,541.73,518.71z"/> <path d="M541.56,532.84c-0.44,1.05-0.6,1.97-0.15,3.08C542.6,534.15,542.6,534.15,541.56,532.84z"/> <path d="M561.27,433.45c0.17-0.83,0.25-1.14,0.04-1.61c-0.8-1.6-0.78-1.15-0.92-0.4C560.22,431.77,560.37,432.76,561.27,433.45z"/> <path d="M560.56,430.64c0.04,0.04,0,0.1,0.08-0.07C560.38,430.53,560.39,430.5,560.56,430.64z"/> <path d="M564.51,440.89c0.45,2.68,0.34,1.92,0.77,3C565.81,442.33,565.8,442.32,564.51,440.89z"/> <path d="M571.03,433.04c-0.14-0.05-0.38,0.16-0.57,0.27c0.24,0.41,0.5,0.83,0.83,1.38C571.65,433.91,571.82,433.32,571.03,433.04z"/> <path d="M543.9,462.46c-1.56,1.37-1.28,0.48-1.28,3.16C543.55,465.03,543.35,464.03,543.9,462.46z"/> <path d="M542.64,465.77c0-0.23,0-0.13-0.09-0.08C542.48,466.05,542.57,465.72,542.64,465.77z"/> <path d="M542.27,466.09c-0.05,0-0.32,0.41-0.32,0.81c0,0.53,0.13,0.95,0.32,1.5C542.53,465.87,542.7,465.58,542.27,466.09z"/> <path d="M563.43,437.38c0.28-0.83-0.02-0.77-0.02-0.92C562.21,434.7,562.76,438.6,563.43,437.38z"/> <path d="M551.68,419.2c0.01-0.03,0.01-0.04,0.01-0.05C551.69,419.12,551.69,419.13,551.68,419.2z"/> <path d="M551.56,419.46l0.09,0.08C551.68,419.13,551.76,419.06,551.56,419.46z"/> <path d="M562.84,435.82c-0.36-0.27-0.24-0.28-0.09,0.09C562.87,435.79,562.77,436.09,562.84,435.82z"/> <path d="M571.55,203.13c-2.27-4.04-1.66-1.68-3.05-6.95C564.49,193.64,567.89,206.03,571.55,203.13z"/> <path d="M537.67,133.7c0.11-0.33,0.32-0.6,0.25-0.76C531.45,119.6,534.35,131.66,537.67,133.7z"/> <path d="M577.55,182.61c-0.49,1.96,0.09,2.93,2.85,4.42C579.82,184.84,578.95,183.61,577.55,182.61z"/> <path d="M629.47,283.46c0,1.07,2.72,2.76,3.99,4.29C632.89,285.36,632.37,284.82,629.47,283.46z"/> <path d="M629.39,283.29c-0.04-0.01-0.1,0-0.15,0.01c0.04,0.06,0.05,0.08,0.06,0.08l0,0c0,0,0,0,0,0c0,0,0,0,0,0
		C629.54,283.53,629.44,283.46,629.39,283.29z"/> <path d="M637.83,280.52c0.29,1.27,0.97,1.14,2.29,1.03c0-0.88-2.06-1.52-2.47-1.76C637.54,279.8,637.72,280.02,637.83,280.52z"/> <path d="M634.99,288.24c-1.03,1.5,1.07,1.55,2.36,1.86C636.92,288.45,635.77,288.66,634.99,288.24z"/> <path d="M540.06,136.31c0.3,1.21,0.93,1.74,2.37,1.9C541.85,137.02,541.27,136.4,540.06,136.31z"/> <path d="M544.79,140.9c-0.7,0,0.58,1.88,1.47,0.99c0.35-0.27,0.3-0.19-0.04-0.63C545.78,140.82,545.91,140.79,544.79,140.9z"/> <path d="M572.96,203.88c-0.04,0.41,0.33,0.65,0.49,0.92c0.21,0.35,0.43,0.79,1.12,0.8C575.71,205.61,573.1,202.27,572.96,203.88z"/> <path d="M637.35,278.81c-0.49-0.82-0.85-0.51-1.19-0.33C635.52,278.81,638.14,280.59,637.35,278.81z"/> <path d="M637.47,279.68l-0.01,0.01c0.21,0.12,0.17,0.12,0.11-0.11c-0.04,0-0.07-0.01-0.11-0.01
		C637.46,279.66,637.46,279.69,637.47,279.68z"/> <path d="M574.47,181.25c0.77-0.56,0.9-0.27-0.03-1.66C573.87,180.05,573.83,179.66,574.47,181.25z"/> <path d="M650.75,292.23c-0.85-0.82-1.16-0.46-1.64,0.35C649.94,292.82,649.43,292.93,650.75,292.23z"/> <path d="M628.96,283.3c0.46,0.15,0.16-0.17,0.03-0.39C628.93,283.03,628.83,283.3,628.96,283.3z"/> <path d="M554.35,273.55c-1.11,1.35-1.97,6.4-0.15,9.29C555.01,277.9,555.72,275.38,554.35,273.55z"/> <path d="M559.32,290.95c-2.99-0.03-6.78,0.39-9.56,1.35C555.16,292.62,567.42,291.04,559.32,290.95z"/> <path d="M555.76,264.21c-1.21,2.53-1.2,5.06-1.05,7.91C556.2,270.13,557.47,264.98,555.76,264.21z"/> <path d="M606.06,286.58c-1.91,3.35-3.47,10.55-0.91,4.51C606.27,288.45,606.06,286.27,606.06,286.58z"/> <path d="M606.15,286.4c0.35-0.3,0.25-0.22-0.09-0.08C606.1,286.67,606.01,286.63,606.15,286.4z"/> <path d="M544.28,324.45c1.3-0.52,2.56-0.83,3.29-2.1C545.33,323.38,544.28,323.68,544.28,324.45z"/> <path d="M544.15,324.53l-0.02-0.03c-0.14,0.09-0.25,0.07,0.09,0.11c0.02-0.05,0.03-0.11,0.06-0.16
		C544.14,324.48,544.12,324.49,544.15,324.53z"/> <path d="M603.93,293.52c-0.04,0.07-0.08,0.14-0.12,0.21C603.64,294.86,604.04,293.41,603.93,293.52z"/> <path d="M603.51,295.01c0.13,0,0.24-0.75,0.26-0.85C603.74,294.16,602.95,295.75,603.51,295.01z"/> <path d="M603.18,295.41c0.13-0.27,0.13-0.19-0.1-0.09C603.08,295.39,603.06,295.37,603.18,295.41z"/> <path d="M548.28,322.11c0.34,0,0.89-0.43,0.79-0.43C547.75,322.27,547.91,322.16,548.28,322.11z"/> <path d="M547.69,322.14c-0.16,0.29-0.19,0.22,0.09,0.1C548.23,322.07,547.98,322.17,547.69,322.14z"/> <path d="M542.75,325.18c0.41-0.2,0.82-0.41,1.24-0.62C543.39,324.48,542.93,324.52,542.75,325.18z"/> <path d="M542.64,325.24c-0.02-0.01-0.04,0.01-0.14,0.09l0.2-0.04c-0.02-0.02-0.03-0.02-0.04-0.03c0.01,0.01,0.02,0.01,0.04,0.02
		c0.01-0.04,0.03-0.06,0.03-0.1C542.63,325.2,542.61,325.21,542.64,325.24z"/> <path d="M603.14,289.31c-0.05,0.05-0.11,0.1-0.16,0.16C603.3,289.39,603.24,289.42,603.14,289.31z"/> <path d="M549.2,321.55c0.03-0.02,0.08-0.02,0.12,0.03c0.13-0.19,0.17-0.29-0.09-0.09C549.22,321.51,549.21,321.52,549.2,321.55z"/> <path d="M549.2,321.55C549.1,321.6,549.07,321.81,549.2,321.55L549.2,321.55z"/> <path d="M578.1,542.89c-1.2-0.8-1.09,0.83-3.41-1.64c-0.57,0-1.22,0.2-1.56,0.66c-1.68,2.25,2.28,4.3,4.81,3.33
		C579.27,544.73,579.53,543.84,578.1,542.89z"/> <path d="M574.59,541.14c0.03,0.03,0.03,0.03,0.05,0.05C574.59,541.14,574.82,541.14,574.59,541.14z"/> <path d="M576.02,541.16c0.63-1.87,0.32-3.63-0.05-5.62c-1.18,1.91-1.15,0.44-1.27,5.57C574.7,541.18,574.56,541.16,576.02,541.16z"/> <path d="M575.84,528.75c-0.14,1.78-0.23,2.97-0.26,3.31C576.82,531.33,577.01,530.57,575.84,528.75z"/> <path d="M594.87,426.64c0.54,1.04,0.77,1.45,1.21,2.35C596.54,426.43,596.45,426.26,594.87,426.64z"/> <path d="M576.88,522.64c-0.77,1.52-0.72,2.31,0,3.85C576.88,524.96,576.88,524.16,576.88,522.64z"/> <path d="M595.35,419.51c0.14-1.48,0.23-1.24-0.29-1.28C594.95,419.76,594.93,419.48,595.35,419.51z"/> <path d="M568,60.08c-1.76-0.22-1.4-0.24-1.4,0.05c0.11,6.04,0.58,7.17,8.07,10.52c1.39,0.62,2.84,1.11,4.42,1.04
		C567.64,64.25,569.19,66.89,568,60.08z"/> <path d="M579.22,71.78h0.01c0.02,0.03,0.07,0.05,0.12,0.07c0.02,0-0.02-0.16-0.02-0.17C579.1,71.71,578.96,71.62,579.22,71.78z"/> <path d="M599.68,40.71c-9.15,2.74-4.04,2.79-2.46,3.57c0.59,0.29,0.43,1.37,1.29,1.59c0.58,0.15,1.13,0.38,1.85,0.62
		c0.97-3.66,0.17-2.25,2.79-5.11C601.79,40.51,600.72,40.4,599.68,40.71z"/> <path d="M592.94,38.08c0.88-0.08,1.53-0.01,2.05-0.22c3.91-1.62,5.84,0.66,9.75,2.17c0.24,0.09,0.62-0.21,0.96-0.35
		C602.56,34.77,594.8,34.65,592.94,38.08z"/> <path d="M559.18,71.2c-0.71-0.47,2.67,3.4,2.22,8.24c-0.02,0.22,0.14,0.46,0.3,0.94C562.45,77.18,562.14,72.68,559.18,71.2z"/> <path d="M568.86,70.1c0,0.51-0.13,0.86,0.04,1.09c0.83,1.56,0.81,3.5,2.05,4.88C570.96,72.84,570.9,72.12,568.86,70.1z"/> <path d="M570.95,76.08c-0.01,0.06-0.01,0.12,0,0.18C571.05,76.16,571.05,76.18,570.95,76.08z"/> <path d="M573.56,81.23c0.3-0.3,0.27-0.1,0-0.88C573.31,80.64,573.25,80.42,573.56,81.23z"/> <path d="M570.95,76.26c0.41,0.82,0.3,0.67,0.08-0.08L570.95,76.26z"/> <path d="M579.87,10.41l0.09,0.16C580.14,10.39,579.87,10.51,579.87,10.41z"/> <path d="M564.43,89.89c0.05,0.06,0.1,0.12,0.15,0.17C564.53,89.98,564.54,89.89,564.43,89.89z"/> <path d="M564.3,89.76c-0.47-0.29-0.05,0.04-0.1,0.09C564.52,89.89,564.47,89.97,564.3,89.76z"/> <path d="M563.96,89.42c0.02,0.06,0.02,0.14,0.06,0.17C564.1,89.63,564.12,89.69,563.96,89.42z"/> <path d="M579.49,71.9c-0.18-0.09-0.12-0.03-0.06,0.37C579.7,72.09,579.63,71.9,579.49,71.9z"/> <path d="M593.24,177.31c2.38,1.44,4.47,1.71,6.27,1.13c8.11-2.59,18.06-8.8,17.75-17.08c-1.7,6.34-9.18,10.94-14.68,14.61
		C598.76,178.53,597.09,177.31,593.24,177.31z"/> <path d="M586.84,256.02c0.04,0.58,0.03,1.03,0.12,1.46C587.21,258.57,589.15,256.59,586.84,256.02z"/> <path d="M586.75,252.38c-0.09-0.54-0.17-1.08-0.28-1.72C585.47,251.41,585.47,251.41,586.75,252.38z"/> <path d="M595.43,545.49c0.05-0.13,0.1-0.28,0.15-0.42C595.07,545.21,595.04,545.1,595.43,545.49z"/> <path d="M542.26,15.7c2.9-2.76-1-1.29-3.91,3c-2.72,4.02-2.77,9.23-2.14,9.8C537.56,23.16,538.02,19.74,542.26,15.7z"/> <path d="M534.89,41.21c-0.18-0.41-0.13-0.42-0.2,0.04L534.89,41.21z"/> <path d="M543.39,14.22c0.65-0.13,0.69-0.69,0.58-0.69C543.62,13.63,543.36,13.8,543.39,14.22z"/> <path d="M543.38,14.32C543.38,14.14,543.14,14.32,543.38,14.32L543.38,14.32z"/> <path d="M543.98,13.51c0.08-0.02,0.1-0.03,0.08-0.05c0.01,0.01,0.01,0.01,0.02,0.02c0.01-0.04,0.03-0.08,0.04-0.12
		c-0.11,0.02-0.14,0.02-0.13,0.04c0,0-0.01-0.01-0.01-0.01C543.99,13.44,543.98,13.47,543.98,13.51z"/> <path d="M662.04,272.1c0-0.14-0.4-0.42-0.48-0.38c-0.26,0.13-0.45,0.39-0.67,0.6c0.22,0.2,0.45,0.42,0.84,0.78
		C661.96,272.43,662.05,272.3,662.04,272.1z"/> <path d="M581.63,14.07c0.83,0.29,0.27-0.29-0.26-0.34C581.45,13.86,581.51,14.04,581.63,14.07z"/> <path d="M582.25,14.24c-0.01,0.01-0.01,0.01-0.01,0.02c0.1,0,0.28-0.03,0.17-0.03c-0.07-0.05-0.08-0.06-0.11-0.04
		c0.01-0.01,0.01-0.01,0.01-0.02c-0.07-0.01-0.14-0.01-0.21-0.01C582.2,14.25,582.22,14.27,582.25,14.24z"/> <path d="M561.31,15.77c0.95,0.5,1.38,0.7,1.5,0.74l-0.01,0.02c0.68,0.43,0.86,0.58,0.09-0.1l-0.06,0.07
		c-0.17-0.15-2.14-1.26-1.8-0.92C561.4,15.84,561.48,15.6,561.31,15.77z"/> <path d="M559.05,17.26c-0.16-0.16,0.02,0.06,0.02,0.67C559.78,17.93,559.8,18.12,559.05,17.26z"/> <path d="M566.91,30.32c-0.23-0.16-0.55-0.19-0.83-0.22C567.7,30.74,567.02,30.32,566.91,30.32z"/> <path d="M567.26,30.71c0.72,0.45,0.75,0.56,0.1-0.09C567.04,30.48,567.13,30.48,567.26,30.71z"/> <path d="M564.78,29.07c0.25,0.11,0.15,0.15,0.32,0C565.1,29.06,564.83,29.07,564.78,29.07c-0.37-0.2-0.75-0.4-1.11-0.59
		C563.81,29.14,564.24,29.07,564.78,29.07z"/> <path d="M563.48,28.32c-0.35-0.53-0.83-0.71-1.44-0.55h-0.01C562.5,28.65,563.59,28.42,563.48,28.32z"/> <path d="M563.56,28.42C563.56,28.42,563.56,28.42,563.56,28.42C563.56,28.42,563.56,28.42,563.56,28.42
		c0.01,0.01,0.01,0.01,0.01,0.01c0.03,0.02,0.06,0.03,0.09,0.05c-0.02-0.09-0.02-0.13-0.03-0.14c0,0,0-0.01,0.01-0.01
		c-0.05,0.01-0.09,0.02-0.13,0.03C563.54,28.39,563.55,28.41,563.56,28.42z"/> <path d="M561.99,27.71c-0.08-0.04-0.06-0.03-0.06,0.08C562.08,27.76,562.03,27.79,561.99,27.71z"/> <path d="M564.99,29.17c0.8,1.09,0.61,0.88,1.1,0.92C565.31,29.81,565.29,28.89,564.99,29.17z"/> <path d="M171.31,426.83c-0.16,0.59,0.32,1.44,0.56,2.37c1.09-0.81,1.17-1.83,1.97-4.98c-1.45-1.25-2-3.08-2.1-4.99
		C169.43,421.72,172.21,423.52,171.31,426.83z"/> <path d="M166.96,459c0.88-2.72,0.51-5.2,0.03-8.47c-1.16,3.04-1.54,6.89-0.83,7.78C166.31,458.49,166.51,458.59,166.96,459z"/> <path d="M151.53,420.42c0.11-0.92,0.17-0.96-0.33-0.74c-0.04,0-0.11,0.07-0.12,0.1c-3.02,6.03-2.42,4.82-2.23,6.29
		C150.86,424.5,151.28,422.58,151.53,420.42z"/> <path d="M151.61,419.47c0,0.12-0.06,0.12,0.08,0.07L151.61,419.47z"/> <path d="M142.3,525.81c-1.45,1.49-1.06,2.68-0.57,4.62C143.06,528.61,142.78,527.42,142.3,525.81z"/> <path d="M142.57,520.47c-0.07-0.45-0.16-0.89-0.25-1.33c-1.31,1.1-0.93,2.05-0.06,3.49C142.31,522.74,142.67,521.19,142.57,520.47z
		"/> <path d="M141.33,543.27c1.25-0.84,1.41-1.08,0.47-2.73C141.13,539.36,141.33,539.01,141.33,543.27z"/> <path d="M141.66,535.1c0.95-1.06,0.82-1.2-0.14-2.34C141.11,536.1,141.02,535.82,141.66,535.1z"/> <path d="M161.33,433.45c0.17-0.83,0.24-1.14,0.04-1.61c-0.8-1.59-0.79-1.16-0.93-0.4C160.32,431.68,160.43,432.75,161.33,433.45z"/> <path d="M165.3,441.74c-1.05-1.43-0.87-1.42-0.08,2.46C165.7,442.8,165.84,442.48,165.3,441.74z"/> <path d="M171.33,433.15c-0.37-0.24-0.43-0.05-0.82,0.13c0.23,0.42,0.48,0.84,0.81,1.4C171.63,434.06,171.85,433.49,171.33,433.15z"/> <path d="M142.69,465.77C142.69,465.41,142.43,465.97,142.69,465.77L142.69,465.77z"/> <path d="M143.96,462.44c-1.64,1.45-1.27,0.46-1.27,3.19C143.6,465.03,143.4,464.03,143.96,462.44z"/> <path d="M142.58,465.86c-0.72,0.72-0.7,1.2-0.24,2.53C142.44,467.31,142.51,466.58,142.58,465.86z"/> <path d="M162.77,436.51c-0.07,0.22-0.01,0.85,0.52,1.16c0.27-0.33,0.42-0.82,0.19-1.18C162.76,435.76,162.89,435.81,162.77,436.51z
		"/> <path d="M162.81,435.91c0.02,0.01,0.04,0.03,0.06,0.04C162.92,435.78,162.93,435.79,162.81,435.91z"/> <path d="M151.95,418.92c0.03-0.08-0.13-0.24-0.13-0.32C151.74,419.29,151.67,419.48,151.95,418.92z"/> <path d="M151.74,419.27c-0.04,0.06-0.08,0.13-0.11,0.19C151.73,419.57,151.7,419.61,151.74,419.27z"/> <path d="M160.66,430.7c0.07-0.17,0.09-0.13-0.16-0.16C160.6,430.62,160.61,430.6,160.66,430.7z"/> <path d="M162.9,435.82c-0.07-0.06-0.15-0.13-0.23-0.19C162.85,435.95,162.76,435.95,162.9,435.82z"/> <path d="M219.96,161.26c-1.67,0.09-1.67,0.09-4.72,2.25C217.55,164.11,218.71,163.33,219.96,161.26z"/> <path d="M147.34,169.51c-0.31,2.1-0.52,3.39,0.89,4.74C148.59,172.54,148,171.41,147.34,169.51z"/> <path d="M215.22,154.31c-0.21,0.15-1.76,1.33-2.06,1.56C214.55,155.89,214.55,155.89,215.22,154.31z"/> <path d="M209.94,166.16c-0.78,0.26-0.63,0.13-0.39,0.84C210.28,166.56,210.14,166.69,209.94,166.16z"/> <path d="M166.31,134.38c-0.25,0.03-0.22-0.06-0.08,0.34C166.22,134.82,166.28,134.49,166.31,134.38z"/> <path d="M210.31,158.67c0.4-0.72,0.37-0.54,0.01-0.76C210.02,158.52,209.95,158.39,210.31,158.67z"/> <path d="M207.3,160.59c0.25-0.64,0.27-0.52-0.04-0.72C206.97,160.51,206.97,160.41,207.3,160.59z"/> <path d="M145.22,162.05c-0.02,0.1-0.04,0.2-0.06,0.32C145.42,162.48,145.42,162.61,145.22,162.05z"/> <path d="M144.12,159.23c-0.22-0.29-0.14-0.3-0.1,0.09C144.1,159.24,144.39,159.6,144.12,159.23z"/> <path d="M213.29,164.77c-0.26,0.16-0.27,0.1,0.02,0.19L213.29,164.77z"/> <path d="M163.58,142.14l0.11-0.2C163.45,142.09,163.47,142.03,163.58,142.14z"/> <path d="M143.37,192.96c-0.15,0.07-0.3,0.15-0.45,0.22C143.38,193.58,143.37,193.27,143.37,192.96z"/> <path d="M143.36,192.86c0.03,0.09-0.03,0.11,0.06,0.07C143.39,192.87,143.44,192.86,143.36,192.86z"/> <path d="M201.8,294.92c-1.26,1.56-1.96,3.29-1.72,5.41C202.5,295.88,204.78,295.97,201.8,294.92z"/> <path d="M204.02,293.5c1.04-1.93,2.25-4.36,2.1-6.93C204.82,288.85,204.19,290.89,204.02,293.5z"/> <path d="M144.43,324.14c-0.01,0.04-0.1,0.3-0.06,0.3c1.34-0.5,2.58-0.87,3.26-2.12C147.32,322.46,143.61,324.13,144.43,324.14z"/> <path d="M147.74,322.12c-0.14,0.23-0.14,0.22,0.09,0.1C148.17,322.08,148.08,322.16,147.74,322.12z"/> <path d="M144.33,324.44c-0.17,0.07-0.28,0.13-0.3,0.13C144.32,324.61,144.25,324.68,144.33,324.44z"/> <path d="M203.41,294.46c-0.07,0.18-0.1,0.39-0.13,0.6C204.21,293.08,203.41,294.35,203.41,294.46z"/> <path d="M203.15,295.33c0,0.08-0.02,0.05,0.1,0.09C203.29,294.98,203.33,294.93,203.15,295.33z"/> <path d="M203.9,293.75c-0.23,0.34-0.03,0.15,0.1,0.09C204.07,293.12,203.96,293.8,203.9,293.75z"/> <path d="M196.13,296.3l0.04-0.33C195.98,296.01,196.01,295.94,196.13,296.3z"/> <path d="M149.29,321.48c-0.04,0.08-0.1,0.13-0.15,0.19C149.44,321.56,149.39,321.58,149.29,321.48z"/> <path d="M148.33,322.11c0.18,0,0.58-0.15,0.81-0.44C147.8,322.23,147.91,322.16,148.33,322.11z"/> <path d="M142.8,325.16c0.03,0,0.87-0.43,1.24-0.6C142.7,324.36,142.93,325.16,142.8,325.16z"/> <path d="M142.77,325.28c0.04-0.16,0.06-0.12-0.08-0.05L142.77,325.28z"/> <path d="M206.2,286.4c0.07-0.06,0.14-0.13,0.21-0.2c-0.38,0.15-0.3,0.06-0.3,0.36C206.15,286.5,206.17,286.45,206.2,286.4z"/> <path d="M202.56,304.94c0.37-0.03,0.53-0.22,0.53-0.56C202.54,304.96,202.46,304.94,202.56,304.94z"/> <path d="M203.09,304.17c0.02,0.19-0.06,0.32,0.1,0.1C203.45,303.97,203.18,304.26,203.09,304.17z"/> <path d="M201.84,305.73c0.15-0.21,0.3-0.43,0.44-0.63C201.96,305.19,201.79,305.38,201.84,305.73z"/> <path d="M202.45,305.04c0.09-0.14,0.15-0.08-0.08-0.08C202.21,305.17,202.3,305.07,202.45,305.04z"/> <path d="M201.78,305.84c-0.01,0-0.01,0-0.01-0.01l-0.13,0.06c0.17,0,0.22,0,0.21-0.01c0.01,0,0.01,0,0.01,0.01
		c-0.01-0.07-0.01-0.11-0.02-0.16C201.78,305.81,201.76,305.82,201.78,305.84z"/> <path d="M149.38,321.56c0.1-0.14,0.14-0.23,0.05-0.18C149.25,321.5,149.26,321.44,149.38,321.56z"/> <path d="M142.57,325.33l0.2-0.04C142.67,325.21,142.72,325.21,142.57,325.33z"/> <path d="M177.07,542.65c-1.15,0.06-1.82-0.9-2.32-1.4c0,0,0,0,0,0c0,0,0-0.03,0-0.07c0.05,0,0.29-0.03,1.32-0.03
		c0.59-1.72,0.37-3.67-0.05-5.62c-1.13,1.84-1.14,0.48-1.26,5.59c0,0.01-0.01,0.02-0.01,0.03c0,0,0-0.01,0-0.01
		c-0.03,0-0.07,0-0.1,0c0.06,0.06,0.08,0.09,0.1,0.1c-2.11,0.09-2.41,2.05-1.28,3.15c0.65,0.64,2.79,1.49,4.53,0.84
		C180.15,544.43,178.75,542.56,177.07,542.65z"/> <path d="M176.49,529.49c-0.82,0.94-0.82,0.94-0.63,2.43C176.77,531.47,177.08,530.77,176.49,529.49z"/> <path d="M194.93,426.63c0.37,0.72,0.72,1.41,1.2,2.34C196.52,426.9,196.77,426.14,194.93,426.63z"/> <path d="M176.52,522.92c-0.27,2.24-0.28,1.53,0.06,2.93C177.08,524.51,177.03,524.51,176.52,522.92z"/> <path d="M195.4,419.55c0-1.47,0.09-1.25-0.29-1.25C195.12,419.78,195.02,419.55,195.4,419.55z"/> <path d="M204.15,252.04c0.79-0.75,1.31-1.25,1.85-1.76c0.68-4.07,0.68-4.07-0.13-5.44C203.47,245.01,203.44,249.62,204.15,252.04z"/> <path d="M175.61,252.76c1.25,2.74,1.57,3.24,4.3,5.11C180.45,255.87,177.76,252.35,175.61,252.76z"/> <path d="M175.56,252.72c0.03-0.03-0.01-0.05-0.15-0.23c0.03,0.1,0.06,0.19,0.09,0.29c0,0,0,0,0,0l-0.01,0.01
		c0.12-0.03,0.15,0.01,0.09-0.09L175.56,252.72z"/> <path d="M205.59,238.33c0.2,6.84,0.52,1.41,1.11-5.52C205.81,234.76,205.54,236.57,205.59,238.33z"/> <path d="M173.8,249.22c-0.08-1.88-0.08-1.87-0.94-2.73C172.33,247.06,172.81,247.45,173.8,249.22z"/> <path d="M173.52,220.89c1.5,0.21,1.25,0.29,1.37-0.21C173.44,220.15,173.75,220.08,173.52,220.89z"/> <path d="M183.41,211.11c0.06-0.27,0.16-0.18-0.06-0.49C183.21,210.99,183.26,210.84,183.41,211.11z"/> <path d="M180.25,201.4c0.39,0.48,1.05-0.08,0.42-0.14C179.92,201.18,180.08,201.18,180.25,201.4z"/> <path d="M175.64,209.42c-0.03-0.24-0.01-0.26-0.12-0.18C175.62,209.29,175.59,209.32,175.64,209.42z"/> <path d="M173.68,68.23c-5.56-3.09-4.75-3.18-5.63-8.15c-0.57-0.07-1.01-0.12-1.44-0.18c0.85,5.95-0.48,6.62,6.73,10.1
		c1.74,0.84,3.67,1.73,5.73,1.68C179.17,71.67,175.34,69.15,173.68,68.23z"/> <path d="M179.39,71.84c0.03,0,0-0.13-0.01-0.16C179.24,71.69,178.93,71.61,179.39,71.84z"/> <path d="M198.93,40.98c-5.58,2.33-5.78,1.88-4.89,2.27c2.92,1.26,3.3,0.63,3.81,2.02c0.29,0.81,1.47,1.27,2.75,0.97
		c0.33-2.17,0.62-3.91,2.95-4.58C201.77,40.48,200.4,40.36,198.93,40.98z"/> <path d="M192.73,38.31c6.72-1.64,5.13-1.43,11.87,1.66c1.03,0.47,2.82-1.31-2.85-3.51C197.45,34.79,194.27,36.05,192.73,38.31z"/> <path d="M159.14,71.19c0,0.15,0.03,0.42,0.12,0.54c3.03,4.15,1.78,6.55,2.49,8.64C163.45,73.39,159.14,70.75,159.14,71.19z"/> <path d="M170.9,73.55c-0.31-1.57-0.39-1.9-1.98-3.45c0,0.43-0.12,0.83,0.02,1.09C169.32,71.9,171.72,80.11,170.9,73.55z"/> <path d="M173.6,80.36c-0.22,0.79-0.25,0.54,0.05,0.89C173.89,80.46,173.89,80.66,173.6,80.36z"/> <path d="M171.28,76.81c-0.15-0.5-0.17-0.62-0.28-0.72C171,76.34,170.96,76.18,171.28,76.81z"/> <path d="M164.49,89.89c0.05,0.06,0.1,0.12,0.15,0.17C164.59,89.98,164.59,89.89,164.49,89.89z"/> <path d="M164.37,89.75c-0.28-0.14-0.29-0.22-0.1,0.1C164.6,89.9,164.52,89.94,164.37,89.75z"/> <path d="M164.09,89.59c0.1,0.1,0-0.06-0.06-0.17C164.05,89.48,164.05,89.56,164.09,89.59z"/> <path d="M179.41,71.86c0.08,0.33,0.04,0.52,0.19,0.29C179.77,71.97,179.62,71.91,179.41,71.86z"/> <path d="M195.51,545.45c0.17-0.5,0.31-0.39-0.3-0.27C195.43,545.42,195.51,545.54,195.51,545.45z"/> <path d="M135.93,28.95c1.8-3.36,0.81-8.04,7.38-14.62C140.76,14.65,135.59,20.46,135.93,28.95z"/> <path d="M134.8,40.9l-0.05,0.36C135,41.2,134.98,41.29,134.8,40.9z"/> <path d="M143.44,14.31c0.07-0.09,0.1-0.12,0.1-0.12c0,0,0,0,0,0c0.32-0.08,0.51-0.27,0.5-0.62c0,0.01,0.01-0.02,0.08-0.09
		c0.08-0.16,0.03-0.12-0.09-0.09c0.03,0.11,0.01,0.17,0.01,0.19c-0.49,0.65-0.59,0.62-0.51,0.62c-0.01,0-0.06,0.02-0.16,0.04
		C143.3,14.32,143.3,14.34,143.44,14.31z"/> <path d="M182.16,14.15c-0.52-0.48-0.35-0.37-0.74-0.41C181.64,14.04,181.49,14.1,182.16,14.15z"/> <path d="M161.35,15.77c1.19,0.61,1.43,0.74,1.51,0.73c-0.03,0.04,0.07,0.07,0.58,0.39c-0.16-0.15-0.34-0.32-0.5-0.47
		C162.36,16.14,160.4,15.11,161.35,15.77z"/> <path d="M208.75,130.52c-0.09-0.12-0.03-0.3-0.74,0.7c0,0,0.24,0.21,0.26,0.21C209.03,130.71,208.94,130.77,208.75,130.52z"/> <path d="M259.17,130.15c0.38,0.17,0.32,0.19,0.1-0.1C258.98,130.04,259.06,129.96,259.17,130.15z"/> <path d="M259.99,130.5c-0.17-0.07-0.36-0.15-0.54-0.23C259.78,130.68,259.63,130.61,259.99,130.5z"/> <path d="M167.89,31.08c-0.16-0.15-0.33-0.3-0.48-0.44C166.76,30.37,167.79,31.08,167.89,31.08z"/> <path d="M166.44,30.11c-0.38-0.05-0.52-0.16,0.76,0.42C167.01,30.26,166.61,30.11,166.44,30.11z"/> <path d="M165.79,30.01l-0.03,0.03c0.71,0.11,0.35,0.02,0.1-0.1l-0.03,0.03c-0.11-0.23-0.59-0.92-0.73-0.92
		c-0.27,0-0.23-0.02-0.01,0.09C165.48,29.67,165.69,29.92,165.79,30.01z"/> <path d="M164.88,29.05c-0.39-0.18-0.78-0.37-1.15-0.56C163.89,29.14,164.39,29.08,164.88,29.05z"/> <path d="M163.68,28.35c-0.18,0.04-0.16-0.02-0.09,0.09C163.79,28.54,163.72,28.55,163.68,28.35z"/> <path d="M163.54,28.35c-0.5-0.88-1.22-0.57-1.45-0.57C162.55,28.61,163.64,28.45,163.54,28.35z"/> <path d="M162.04,27.72c-0.06,0-0.06-0.07-0.06,0.08c0.04-0.02,0.07-0.02,0.1-0.02C162.06,27.73,162.05,27.72,162.04,27.72z"/> <path d="M159.04,17.93c0,0.04,0,0.08,0,0.13C159.18,18.03,159.14,18.03,159.04,17.93z"/> <path d="M559.08,18.03c0-0.11-0.01-0.09-0.1-0.09C558.98,18.04,558.96,18.11,559.08,18.03z"/> <path d="M159.14,18.02c0-0.02-0.01-0.05-0.01-0.08c0.1,0,0.43,0,0.57,0c-0.88-1.02-0.66-0.98-0.57-0.01
		C159.01,17.92,159.01,17.9,159.14,18.02z"/> </g> </svg> 