<?xml version="1.0" encoding="utf-8"?> <!-- Generator: Adobe Illustrator 23.0.1, SVG Export Plug-In . SVG Version: 6.00 Build 0)  --> <svg version="1.2" baseProfile="tiny" id="Layer_1" xmlns="http://www.w3.org/2000/svg" xmlns:xlink="http://www.w3.org/1999/xlink" x="0px" y="0px" viewBox="0 0 900 600" xml:space="preserve"> <g> <path d="M701.09,197.65c0.31-1.05,3.29-11.09,3.96-11.99c5.18-1.73,6.09-0.94,10.06-3.66c1.53-3.06,3.12-5.51,1.32-8.13
		c-2.59-3.77-1.16-6.86-3.56-9.65c-2.03-0.1-3.56-1.52-4.67-2.95c-8.65,0-3.3,2.21-11.18,2.34c-2.64,0.04-5.45,0.31-6,2.34
		c-0.5,1.86-5.34,2.11-3.96,8.03c0,0.2-0.1,0.51-0.1,0.71c0.2,0.3,0.61,0.41,0.71,0.71c0.54,2.17,2.04,8.53,2.34,11.18
		c-11.89,7.05-4.38,2.6-27.54,15.34c-19.99,11-28.86,16.91-40.85,19.31c-1.93-6.2-1.73-20.53,0.2-25.91
		c0.21-0.11,0.34-0.18,0.42-0.23c0.17,0.24,2.87,0.61,24.37-2.81c11.01-1.75,3.4-0.02,10.36-1.52c5.12-1.1,6.13-1.96,8.74-2.44
		c3.47-0.63,4.32-2.03,5.49-2.03c-0.46,0.46,0.7-0.71,1.22-0.91c5.4-2.16,4.36-0.44,6.91-4.27c1.42-2.44,3.15-4.48,6.2-4.88
		c0.81-0.1,1.02-0.81,1.42-1.42c-3.25-0.51-5.69,0.51-7.52,3.25c-3.82,5.73,0,2.01-12.91,7.72c-3.33,1.47-8.47,2.76-8.94,2.95
		c-4.56,1.78-5.4,0.71-9.65,1.63c-5.19,1.11-18.45,3.25-26.01,3.25c-0.1-2.66,0.24-2.38,2.64-15.85c0.66-0.44,3.93-2.13,4.67-3.15
		c2.77-3.78,8.38-6.55,9.55-18.19c0.67-6.63-0.57-13.77-5.28-18.6c-5.16-5.28-3.5-3.67-3.76-9.45c-0.3-6.72-3.42-16.36-8.94-17.68
		c-14.59-3.49-13.21-5.23-21.44-13.92c0.81-3.86,1.83-7.93,2.74-11.89c3.03-2.16,4.19,2.02,7.93-6.3
		c5.14-11.46,7.12-15.62,7.52-21.03c0.62-8.47-2.24-7.8,0-16.77c1.3-5.19-2.4-22.95-7.32-27.13c-4.95-4.21-13.65-8.46-21.54-8.74
		c-12.84-0.46-8.54-0.7-14.53-3.66c-6.03-2.98-15.38-0.72-16.97,9.15c-4.65,28.8-3.95,30.23-8.13,44.1
		c-4.71,15.64-3.08,22.72,0.51,29.98c2.18,4.41,3.59,8.82-0.61,11.28c-8.73,5.12-12.7,6.9-18.39,8.33
		c-11.64,2.93-21.25,12.78-19.61,16.06c1.34,2.68-2.31,15.72-0.71,22.76c1.04,4.58-2.15,10.63,0.3,13.31c0.1,0.2-0.1,0.71-0.1,1.12
		c-1.89,0.63-5.26-2.47-7.01,1.22c-1.01,2.14-1.32,4.37-0.51,6.71c0.1,0.2,0.41,0.3,0.71,0.51c1.9-1.9,0.01-3.13,2.34-7.01
		c0.81,0,1.73-0.19,2.44,0c2.73,0.75,3.91,0.2,3.86-2.85c-0.01-0.51,0.51-1.02,0.81-1.83c0.51,0.51,0.91,0.81,1.02,1.22
		c0.67,4.36-1.32,1.79-1.83,5.89c-0.34,5.46,0.66,4.68-3.76,5.08c-2.98,5.71,1.98,9.26,2.7,12.05c-1.5-1.59-2.21-3.69-3.41-5.55
		c-1.32-2.03-2.64-4.06-3.05-6.4c-2.38-0.26,0.57,5.9,1.32,7.01c2.62,3.88,0.3,7.27,0.3,20.73c0,5.9-7.6,6.27,1.52,27.13
		c1.83,1.83,4.47,2.34,5.69,4.88c1.12,0.1,2.34,0.2,3.66,0.3c0.14,1.36-0.97,217.83-2.85,222.13c-6.38,14.61-9.77,16.51-5.18,49.69
		c0.78,5.67,2.15,41.09,1.52,51.72c-1.52,0.81-2.85,1.42-4.17,2.13c-1.75,9.21-1.63,10.37-5.18,16.66
		c-1.27,2.25-1.3,1.74-1.52,12.09c-0.05,2.28-0.84,2.76-2.34,5.39c1.27,1.27,2.26,3.74,10.26,4.47c1.46,0.13,5-0.09,6.1,0.61
		c0.96,0.61,1.59-0.14,2.26-0.38c6.91,7.22,16.92,6.68,27.72,6.68c4.53,0,3.43,0.75,6.71,0c9.69-2.21,13.5-3.36,16.06-6.91
		c37.22-4.51,52.74-8.98,59.24-6.71c8.42,2.94,11.49,3.59,14.73,3.25c4.8-0.51,13.38,3.47,24.08-2.03c4.67-2.4,8.37-2.17,7.52-7.11
		c-0.08-0.47-1.03-6.21-1.73-6.91c-0.22-0.44-1.12-0.03-1.12,0.2c0,3.64,1.63,5.47,0.61,8.54c-14.77,7.15-5.28,3.3-14.84,3.96
		c-19.1,1.33-17.06,1.05-28.96-2.13c-1.62-0.43-3.35-0.51-4.06-2.54c-0.1-0.41-1.02-0.81-1.52-0.81c-7.41-0.67-17.41,4.42-25.2-2.44
		c4.39-8.78,1.17-6.76,3.05-12.19c0.81-2.36,1.42-6.69,2.74-11.99c0.1-0.3,0.51-0.41,0.91-0.81c2.14,3.91,2.08,2.46,1.02,5.28
		c7.92,3.17,11.04-4.03,16.06-11.79c3.69-5.72,5.77-1.95,8.64-3.86c0.51-1.73-1.32-1.42-1.93-2.34c-1.29-3.37-0.92-4.37-1.32-40.04
		c-0.07-6.25,0.37-4.68,1.83-18.7c0.8-7.68,0.14-7.41,0.51-8.64c1.97-6.58,0.48-20.48-1.63-27.94c-1.46-5.18,0.46-5.25,1.93-11.48
		c1.02-4.35,0.71-8.41,0.71-12.6c2.32-2.32,2.06-2.79,2.54-4.67c3.42-13.43,2.4-6.74,3.86-15.45c2.27-13.53,5.27-30.97,5.08-43.49
		c-0.9-58.38-0.79-35.54-4.78-64.63c-0.48-3.51-1.81-11.28-1.83-12.6c-0.12-9.86-1.82-25.78-5.79-34.96c-1.59-3.68-2-6.53-5.08-19.1
		c5.41-2.71,19.51-4.6,67.37-35.26c0.31-0.2,0.81-0.41,1.42-0.71c3.42,14.81,3.36,15.92,4.37,17.27c1.57,2.11,0.92,3.25-0.81,13.82
		c-57.16,348.56-53.03,333.92-55.89,331.06c-4.55-5.2-1.69-2.81-9.04-9.25c-1.92,1.92-0.69,1.85,0.91,3.45
		c1.02,1.02,2.03,2.03,3.35,3.25c-5.67,2.31-13.63,4.87-10.77,7.32c7.97-2.66,9.86-4.54,13.62-3.56c0.2,0.61,0.51,1.22,0.81,2.03
		c-4.8,2.4-4.88,2.31-7.11,4.27c-0.26,0.13-0.13,1.22,0.61,1.22c1.58-0.4,1.63-0.06,8.13-2.95c1.83,0.41,3.35,0.81,4.57,2.24
		c-0.61,1.22-1.85-0.26-7.52,3.05c-0.89,0.59-0.7,2.33,0.91,2.03c2.95-0.54,12.19-3.77,13.11-0.71c-0.41,0.1-0.81,0.31-1.22,0.51
		c-1.67,0.79-3.86,1.06-3.66,2.85c0.28,1.65,4.52,0,8.54-1.22c8.01,4.93,10.38,6.71,14.02,6.71c0.22,0,1.11-0.62,0.51-1.22
		c-2.79-1.86-3.78-0.74-6.5-3.05c-2.01-1.44-3.39-1.21-8.33-5.08c-1.57-1.23-9.3-5.98-10.47-6.71c0.16-0.43,9.15-52.42,20.06-116.17
		c7.8-52.03,18.65-124.01,33.28-220.68c0.45-2.94,1.02-5.89,1.52-8.84c0.81-0.41,1.52-0.71,2.24-1.12
		c0.14,0.21-8.75,58.27-19.34,126.79c11.78-69.48,21.65-128.77,21.27-129.74c0.81-0.51,1.82-0.81,2.03-1.93
		c1.59-8.42,6.5-14.02,6.5-18.7c-3.29,2.43-7.33,13.92-9.15,18.6c-1.38,0.46-2.39,2.06-2.95,2.85c-1.32-0.51-2.02-1.42-2.34-2.85
		c-6.6-29.91-10.22-35.06-2.24-35.06c4.14,5.69-3.09,8.14,2.64,7.32c1.6,1.07,1.25,0.9,3.66,0.1c0.67-1.68-0.45-2.16-0.61-4.78
		c-0.19-3.06-2.6-3.67-5.39-4.06c0.1-0.3,0.2-0.71,0.3-0.71c2.03-0.71,4.17-1.12,6.4-0.81c1.52,2.74,1.63,6.1,3.76,9.35
		c0-1.42,0.2-2.03,0-2.64c-2.56-9.73-1.44-3.23-1.83-8.33c2.34,3.45,1.52,7.32,3.76,9.86c0.81-0.1,0.92-0.61,0.81-1.12
		c-2.26-10.34-2.5-9.12,0.71-9.65c1.83,3.35,1.63,7.32,3.66,10.97c0.61-3.15-1.22-5.49-1.02-8.13c1.32-1.32,2.22,0.97,2.44,2.85
		c0.29,2.53,1.1,3.15,3.45,8.33c-0.71,1.12-1.32,2.13-2.03,3.45c-1.02,0.51-2.33,1.34-3.66,1.63c-4.87,1.07-9.45,3.15-14.53,3.45
		c-1.02-2.85-1.42-5.79-2.13-8.54c-1.77-0.2-0.65,1.74,0.2,7.52c0.84,5.69,1.03,8.3,2.03,13.31c0.65,1.94,2.38,2.02,1.93-0.3
		c-2.51-13.16-2.84-9.39,4.47-11.38c-1.02,4.47-3.05,8.13-3.45,12.19C699.37,198.9,700.49,199.72,701.09,197.65z M611.88,110.66
		c0-1.04,3.02,0.9,7.72,2.03c7.03,1.69,8.54,11.95,8.54,19.21c-7.48-5.82-14.45-18.05-16.26-20.93
		C611.88,110.97,611.88,110.76,611.88,110.66z M598.46,9.15c1.73,0.7,2.13,1.22,3.35,3.35c-0.83,0-0.72,0.25-3.06-1.36
		c-0.1,1.11,0.65,1.7,1.33,2.17c0.2-0.2-0.46,0.46,0.76-0.76c1.13,1.53,0.39-0.09,2.69,1.78c3.32,2.7,0.13-0.35,1.42-1.52
		c1.52,1.22,2.24,2.85,3.15,4.37c0.1,0.1,0.3,0.1,0.51,0.2c0.2-0.41,0.3-0.71,0.61-1.12c3.61,3.35,3.78,6.51,6.81,17.99
		c0.84,3.19-2.32-0.46-7.21,2.13c0.2,1.38,2.81,0.91,4.17,0.61c1.22-0.2,2.34-0.1,3.76,0.71c-0.61,1.52-0.71,3.25-2.13,4.47
		c-0.48-0.3-0.3-0.07-0.3-0.3c0-0.2-0.2-0.41-0.3-0.61c0-0.1-0.2,0-0.3,0c0,0.34,0.2,0.54,0,0.41c0.68,0.68-3.11-1.16-5.39,1.73
		c0.3,0.2,0.51,0.3,0.71,0.41c1.02,0.3,0.51,1.22,0.81,1.83c0.91,1.52,2.34,1.83,3.56,0.61c0.61-0.51,1.02-1.22,1.63-2.03
		c1.57,7.07,2.16,14.21-0.61,20.93c-8.4,20.36-5.33,17.71-18.19,18.29c7.19,2.54,2.59-0.67,1.93,17.07
		c3.4,3.06,1.18,0.52,8.94,11.69c2.04,2.94,2.95,6.61,5.89,8.94c0.3,0.2,0.41,0.71,0.51,1.02c2.71,8.3,2.85,7.06,2.85,13.72
		c0,2.83-4.52,4.88-6.91,4.78c-0.91-1.22-1.54-2.53-2.54-3.35c-1.34-1.1-0.51-2.74-1.22-4.17c-2.43,1.39-0.4,1.98-6.4-1.63
		c-0.3-0.1-0.81,0-1.73,0c3.56,3.25,7.52,5.28,9.86,9.45c-10.78,1.54-22.13-10.55-38.82-25.1c-2.76-2.4-3.45-4.21-6-7.62
		c-11.6-15.52-10.45-11.09,0-19.51c5.25-4.23,7.78-12.54,7.72-18.09c-0.03-3.21-0.43-2.89,1.73-3.25c-0.91-2.95-1.83-5.79-2.74-8.64
		c-0.81,0.2-1.42,0.41-2.34,0.61c-3.12-2.88-7.93-6.55-7.32-11.61c1.33-0.36,1.66-1.82,2.54-2.81c0.3,0.41,0.61,0.71,0.91,0.91
		c-0.2,1.22-2.24,1.63-1.22,3.35c1.29-0.19,2.09-1.64,3.46-1.52c0.1-0.41,0.3-0.81,0.41-1.22c4.43,0.55,5.42,1.82,5.69,0.2
		c-0.71-0.51-2.13-0.71-1.42-2.24c-0.61-0.3-1.22-0.51-2.03-0.81c1.63-0.81,3.66,0.2,4.78-2.03c-5.82,0.39-4.51,0.27-8.03-0.81
		c1.52-0.2,2.95-0.2,4.37-0.2c2.22,0,5.78-1.53,4.47-2.85c-4.63,3.08-8.71,1.21-13.72,2.64c-1.02-2.03-0.91-2.03-0.51-3.45
		c4.49,0.93,15.2,1.23,17.58-2.34c-0.81,0-1.32-0.1-2.03-0.2c1.32-0.91,2.34-1.73,3.86-2.74c-1.51-0.14-2.87-0.07-2.34-0.61
		c3.02-3.36,3.73-3.31,2.95-3.96c-1.93,0.91-3.66,2.54-6.2,2.44c0.71-1.63,2.95-0.51,3.35-2.34c-3.25,0.3-3.25,0.3-5.49-0.91
		c5.31-1.14,5.29-0.89,4.88-1.83c-6.2,1.03-5.71,0.91-11.69,0.91c2.83,2.2,7.29,1.62,6.5,3.45c-1.73,0-3.45,0-4.98,0
		c-5.93-5.47-7.81-6.22-4.98-9.45c1.18,0.68,2.16,1.83,3.69,1.73c-1.67-2.65-6.36-2.03,0.68-8.13c2.59,1.56,0.54,2.35,6.1,4.37
		c5.97,2.16,7.21,3.17,10.36,2.54c0.1-0.41,0.1-0.81,0.2-1.32c0.3-0.1,0.61-0.3,0.91-0.51c0.3-0.2,0.91-0.3,0.51-1.12
		c-1.32,0.61-2.54,1.22-3.76,1.73c-1.08-0.2-5.86-0.67-7.35-2.47c4.31-0.38,5.97,2.63,8.36,0.23c1.71-1.71,6.61,0.15-3.05-3.25
		c-0.76-0.19-1.7,0.06-2.56,0.09c-1.27-1.18-2.46-2.27-3.74-3.44c1.33-1.9,2.17-1.45,10.67,1.52c6.57,2.3,6.43,2.56,7.11,2.34
		c1.81-0.72,2.88,0.55,6.71,2.85c2.54-0.2,2.54-0.2,4.88,1.32c0.3-0.3,0.71-0.51,1.12-0.81c-0.08-0.11-0.1-0.51-0.2-0.61
		c-7.21-5.84-8.5-5.13-6.42-5.93c-0.69-1.71-1.76-0.94-4.65-3.11C593.18,7.42,595.93,8.12,598.46,9.15z M553.45,92.58
		c0.32-3.87-0.42-3.7,2.24-1.42C554.97,91.66,554.46,91.97,553.45,92.58z M567.27,71.74c0,1.57,0.09,1.32-0.3,1.32
		C566.96,71.5,566.86,71.74,567.27,71.74z M566.96,64.83c0-0.1,0.1-0.2,0.1-0.3c0,0.1,0.1,0.2,0.1,0.3s-0.1,0.2-0.1,0.3
		C567.06,65.04,566.96,64.94,566.96,64.83z M564.01,61.79c-1.27-3.39-0.91-2.34-0.51-2.74C564.5,60.54,565.86,62.05,564.01,61.79z
		 M558.63,27.44c-0.1-1.02-0.3-1.93,0.61-2.54c1.52,1.22,3.05,2.34,4.57,3.45c-0.33,0.41-0.96,1.27-0.61,0.91
		c0.71,0.2,1.32,0.61,2.03,0.71c4.61,0.66,6.04,0.64,6.81,1.93c-7.46,0.93-7.21,0.35-7.21,1.32c2.54,0.81,5.18-0.1,8.33-0.3
		c-7.1,3.55-10.41,0.99-13.62-0.61c-1.42-0.61-1.73-1.83-1.12-3.35c1.63,0.3,2.34,2.54,4.47,2.13
		C561.27,29.78,559.85,28.56,558.63,27.44z M558.61,33.63c-0.23-0.04-0.18-0.14-0.18-0.29C558.52,33.42,558.53,33.6,558.61,33.63z
		 M558.72,33.66c1.95,0.4,5.23,3.53,11.7,1.61c0.61-0.1,1.22-0.2,1.83-0.2c0.41,0,1.02-0.61,1.52,0.3
		c-5.58,2.06-6.85,0.73-12.8,1.32C558.13,36.97,557.71,35.88,558.72,33.66z M561.04,42.71c-0.49,1.62-0.96,3.23-1.43,4.86
		C558.56,45.51,558.96,44.1,561.04,42.71z M561.12,42.6c1.1-1.84,1.43-1.18,3.35,1.22C561.5,42.85,562.17,42.96,561.12,42.6z
		 M567.88,11.38c1.42-1.02,1.43-1.02,2.03-0.71c1.65,0.85,2.93,2.28,4.79,2.59c0.47,2.24,1.69,1.78-1.94,1.78
		c-0.66,0-0.87,0.44-0.99,1c-1.9-0.15-3.42-0.88-4.2-2.82c-0.47,0-0.75-0.27-0.63-0.72c0.37-0.05,0.63,0.14,0.73,0.62
		C571.11,13.97,571.22,14.73,567.88,11.38z M577.12,14.74c0.1,0,0.2-0.1,0.2-0.1c0.2,0.1,0.3,0.3,0.51,0.41
		C577.4,15.04,577.77,15.38,577.12,14.74z M583.12,10.88c0.39-0.39,0.38-0.1,0.61-0.1c-0.1,0-0.2,0.1-0.3,0.2
		C583.32,10.98,583.22,10.88,583.12,10.88z M590.79,9.67c0.18,0.04,0.15,0.14,0.15,0.29C590.86,9.88,590.84,9.79,590.79,9.67z
		 M575.8,4.17c1.51,0.38,1.12,0.43,1.12,0.91c-0.34,0.17-0.43,0.38-1.12-0.3C575.7,4.68,575.8,4.37,575.8,4.17z M585.66,8.13
		c-0.61-0.21-1.22-0.3-1.73-0.1c-1.73,0.81-3.65,0.34-5.49,0.91c-1.41,0.44-2.03-0.1-3.15-1.63
		C583.69,4.06,598.56,12.63,585.66,8.13z M574.48,4.27c0.3,0.61,0.41,1.12-0.41,1.52c-1.63-0.91-3.15-1.93-4.78-2.95
		c-0.1-0.1-0.1-0.41-0.2-0.71C571.64,1.12,573.26,2.24,574.48,4.27z M558.73,12.2c0-4.59,5.99-14.02,13.01-6
		c-3.13,0-2.65-0.42-1.83,1.63c-0.89,0.79-1.89,1.49-3.17,1.04c-0.34,2.94-3.16,0.64-5.57,4.85c-1.52,3.05-3.02,4.14-3.35,4.47
		C557.6,14.73,558.73,13.53,558.73,12.2z M549.59,65.65c1.21-4.68,1.52-9.55,3.45-14.02c0.29-0.43,2.02-8.44,2.24-12.5
		c0-1.12,0.1-2.24,0.91-3.35c0.71,1.42,1.2,2.74,1.02,4.06c-0.48,3.51,1.09,14.02,3.76,16.26c1.22,1.02,1.62,2.54,0.51,3.86
		c-1.02,1.22-0.81,2.44-0.51,3.76c2.27,9.78,1.95,12.38,4.27,15.65c1.09,1.54,0.79,2.93-0.1,4.37c-0.31,0.5-0.71,1.02-1.73,0.41
		c0.69-2.19-0.58-4.05-2.24-10.26c-6.31-23.67-3.74-24.24-6-23.68c-1.14,3.41,0.05,7.66,1.52,16.36c0.76,4.51-0.06,5.97,2.44,11.99
		c2.42,5.84,2.81,6.83,2.34,8.23c-0.3,0.71-1.02,1.32-1.93,1.22c-1.02-1.02-0.71-2.34-1.02-3.45c-1.03-3.79-0.33-2.86-3.15-5.28
		c-2.13-6.1-2.74-12.09-1.12-18.9c-0.71,0.71-1.21,1.02-1.32,1.32c-2.93,8.28,2.11,22.02,2.13,22.15c0.81,0.51,0.71,1.32,0.71,2.13
		c0.53,0.53,0.48,0.26,0.2,0.81c0-0.1-0.1-0.2-0.1-0.3c0-0.2,0-0.41-0.1-0.3c-0.71-0.51-0.61-1.32-0.71-2.13
		c-0.71-0.3-0.71-0.91-0.71-1.52c-1.21-0.48-0.93-1.49-2.22-3.27c0.48,6.11,1.4,4.84,1.4,7.54
		C548.23,80.5,548.18,71.07,549.59,65.65z M546.84,99.99c1.73-0.91,3.25-2.44,5.18-2.85c8.08,12.62,8.54,11.76,8.74,13.11
		c0.39,2.63,6.45,8.02,7.32,8.74c23.15,19.36,29.98,26.6,41.46,23.98c2.04-0.47,11.24,0.59,8.23-12.8
		c-1.74-7.72-5.47-12.15-12.09-22.56c-1.59-1.59,2.88,0.86,6.81,8.43c6.19,11.93,13.6,16.58,23.07,28.15
		c1.74,2.9,1.7,12.79,1.22,13.51c-0.81,1.02-0.68,2.24-0.81,3.45c-0.59,5.45-3.21,7.17-7.11,11.89c-1.75,2.12-3.56,4.27-5.89,5.69
		c-0.81,2.54-0.81,5.28-2.03,7.52c-22.46-2.72-38.93-0.68-52.23,1.42c-18.89,2.98-15.39,1.42-25.2,2.24
		c-1.32-1.93-1.73-4.47-3.76-6.1c4.27-4.93,7.72-6.32,6-16.66c-1.42-0.51-2.64-1.02-3.76-1.42c-0.61-1.73-1.22-3.25-1.93-5.08
		c1.32-1.32,2.53-3.07,4.17-4.17c9.19-6.15,14.89-39.09,3.05-55.08C547.04,101.01,546.54,100.7,546.84,99.99z M523.88,342.65
		c1.08,17.36,2.24,16.47,2.24,26.72c0,50.8,2.38,31.74-2.85,59.24c-0.41,2.13-1.02,3.05-2.95,5.08
		c-0.28-4.14,1.63-206.12,1.63-207.91c12.58-11.56,11.48-9.72,11.48-13.72c0-24.05-1.25-20.33,5.39-27.33
		c1.83,3.86,3.57,7.42,4.37,11.38c1.11,5.49,1.64,12.32,2.13,13.21c1.12,2,0.61,3.37,0.61,14.73c0,6.11-1.77,8.53-7.82,22.86
		c-1.84,4.35-0.59,2.72-9.65,30.79C523.75,292.29,523.02,328.82,523.88,342.65z M528.65,364.7c-0.32-14.27-2.81-5.44-1.73-37.9
		c15.11-2.14,36.26,0.99,51.01,4.67c-1.93,9.65-3.54,12.01-3.05,16.46c1.38,12.41-16.58,59.83-19.82,80.58
		c-0.35,2.21,0.07,1.85-10.36,19.92c-1.04,1.81-2.62,3.11-1.93,4.78c0.4,0.98,1.44,0.26,2.74,0c0.46,4.38-7.74,46.44-10.06,50.71
		c-2.03,3.73-2.32,6.25-6.71,26.62c-1.76,8.16,0.33,10.66-1.42,17.68c-10.98,9.76-8.14,8.57-8.03-13.41
		c0.49-96.14-0.18-91.87,2.64-98.16c1.56-4.3,2.81-0.82,3.35-4.67C528.86,406.64,529.82,417.06,528.65,364.7z M515.24,187.79
		c-0.91-0.61-0.61-1.42-0.71-2.24c-0.27-0.14-0.31-0.1,0.2-0.1c1.24,4.34,2.67,4.89,2.85,9.45c0.61-0.41,1.22-0.91,1.93-1.42
		c1.34,1.34,3.52,3.82,4.93,2.54c0.01,0.38-0.24,0.53-0.66,0.61c-0.41,1.22-0.71,2.44-1.12,3.66c2.24,1.6,1.68-1.19,9.04-7.21
		c0.54,4.31-1.2-2.93,0,18.7c0.16,2.83-1.03,3.39-8.23,9.96c-0.3,0.2-0.81,0.3-1.52,0.61c-0.1-1.52-0.11-2.64-0.1-3.86
		c0.2-19.66,1.39-17.49-3.46-18.7c0-1.73-1.22-3.15-0.91-4.88C515.19,193.76,515.14,190.19,515.24,187.79z M520.32,222.64
		c-0.03,1.18-1.33,1.17-1.32,0.1c0.17-22.32-0.03-20.44,1.12-20.73C520.62,205.52,520.37,220.56,520.32,222.64z M510.97,172.14
		c-1.41-1.13-1.63-2.03-1.12-3.56c5.38-1.34,4.06-0.66,5.69-8.64c0.46-2.23,0.51-4.57,1.93-6.71c1.52,0.41,3.25-0.1,4.47,1.22
		c-1.47,6.98-2.15,8.53-1.22,11.79c0.41-0.3,0.91-0.41,1.02-0.61c1.61-4.82-0.26-1.53,1.83-11.28c-2.82-2.54-4.49-1.93-6.71-2.13
		c-1.22,1.32-2.95,0.81-4.47,1.32c-0.1-0.41-0.21-0.61-0.2-0.81c0.76-35.42,1.72-37.27,10.26-42.37c9.22-5.51,8.62-3.37,15.95-6.61
		c2.25-0.99,4.57-2.03,7.11-3.05c1.32,2.64,2.74,5.08,3.66,7.62c5.09,14.15,2.83,27.88-2.44,41.36c-0.66,1.7-0.46,1.82-8.64,10.16
		c-0.3,0.31-0.91,0.41-1.32-0.1c0.51-0.41,1.02-0.81,1.73-1.32c0-10.34,0.41-10.2-1.22-10.47c-1.41,5.63-0.08,7.26-1.22,10.26
		c-2.34-2.99-5.78-2.63-7.01-3.25c-0.83,1.95-0.81-0.14-0.81,13.31c0,0.3,0.2,0.61,0.51,1.32c1.02-4.37,0.71-8.54,1.12-12.8
		c3.07,1.02,4.88,1.47,4.88,3.86c0,10.87-0.1,8.79,0.91,10.57c1.12-3.15,0-6.1,0.91-8.84c1.93-0.2,2.85,0.81,3.76,2.24
		c0,0.65-0.2,8.85,0.3,10.57c0.91-0.2,0.91-0.81,0.91-1.42c0.39-6.68-0.12-4.54,0.71-5.79c2.51,0.63,1.59,0.4,1.83,4.88
		c0.23,4.36-1.16,5.61-13.41,17.68c-5.2,5.13-5.03,4.85-5.76,5.05c14.44-17.14,15.37-17.3,15.62-19.38
		c-5.75-1.02-5.14-0.05-6.3,0.91c1.22,0.3,2.13,0.51,3.05,0.71c-0.1,1.83-1.73,1.42-2.64,1.93c-1.63,2.99-0.37,1.49-9.76,12.19
		c-0.62,0.7-1.42,1.22-2.13,1.73c-1.42-0.81-2.64-1.52-3.86-2.13C512.87,174.59,512.87,173.65,510.97,172.14z M511.89,180.07
		c0,0.1-0.1,0.2-0.1,0.3C511.43,179.59,511.76,179.94,511.89,180.07z M508.53,179.76c2.64,2.95,3.45,5.79,3.35,9.15
		c-0.91,1.02-2.03,2.24-3.35,3.76C508.53,188.2,508.53,184.23,508.53,179.76z M517.27,222.54c-0.01,0.71-0.2,1.32-0.41,2.13
		c-0.81,0-1.42,0.2-1.93,0c-0.63-0.31-4.93-2.54-5.59-3.86c-2.77-5.62-6.48-15.08-2.95-20.32c7.23-10.74,5.82-11.43,7.32-8.43
		C518.21,202.73,517.48,196.73,517.27,222.54z M513.72,586.02c-0.01,1.42-0.51,2.64-1.52,3.56c-6.5,0.61-9.96-0.1-12.7-2.64
		c4.45-6.03-0.06-10.88,4.78-19.51c0.81-0.41,1.42-0.61,2.03-0.91c1.34-12.1,0.86-12.69,3.45-13.21c1.18,3.78-0.34,3.67-0.81,5.18
		c-0.5,1.58,0.47,3.93,2.95,3.05C514.54,560.59,513.9,558.18,513.72,586.02z M514.53,502.59c-0.56,58.85,0.48,55.6-2.24,56.37
		c0-1.21-0.02-2.42,0.1-3.63c1.56-15.03-1.59-40.71-0.51-49.59c0.81-3.24-6.92-44.5,3.05-49.49
		C514.93,474.9,514.76,478.06,514.53,502.59z M516.08,590.62c-0.06-0.1,4.21-821.18,1.29-2.98
		C517.37,589.28,517.53,589.87,516.08,590.62z M557.41,592.73c5.12-1.99,4.88-1.78,5.39-1.52
		C561.78,593.13,559.65,593.85,557.41,592.73z M618.99,582.77c-1.13,0-2.17,0-3.29,0C616.76,582.1,617.83,582.38,618.99,582.77z
		 M567.47,589.98c-0.41,0.1-0.81-0.1-1.93-0.2C571.05,586.72,673.97,575.19,567.47,589.98z M603.14,549.64
		c-5.05,0.92-3.38,4.98-5.89,9.45c-3.46,6.16,0.5,10.02-4.17,17.27c-0.2,0.51-0.3,1.12-0.41,1.63c7.79,4.55,7.09,4.46,4.67,4.88
		c-34.99,6.09-27.97,4.37-31.7,4.37c-0.81-1.73-1.42-3.25-2.03-4.67c-3.18-1.16-6.22-1.84-9.65-4.57
		c-8.12-6.47-10.15-9.14-11.99-12.91c-6.33-12.92-6.34-13.43-7.62-13.01c-0.1,0.1-0.41,0.51-0.3,0.61c1.43,4.3,2.3,4.15,1.63,5.28
		c-4.27,0.35-10.07,2.66-13.82,6.4c-0.51,0.41-0.41,1.12,0.3,1.73c4.47-3.25,9.45-5.39,15.24-6c1.05,2.1,1.31,1.34-1.63,2.64
		c-8.94,3.98-9.19,4.02-9.04,5.49c4.06,0.81,10.21-4.56,13.11-2.95c2.22,3.11,0.57,2.45-6.71,5.49c-2.29,1.14-1.03,2.92,2.74,1.63
		c6.82-2.34,4.95-1.63,6.4-1.63c0.41,0.91,1.32,1.63,0.81,3.05c-4.04,1.47-5.69,1.35-5.69,3.25c0,1.65,7.94,0.47,9.51-1.92
		c1,0.2,7.91,7.76,11.02,8.53c0.91,0.22,1.83-0.1,2.74-0.2c1.83,2.74,1.93,3.05,1.63,5.69c-2.95,0.81-5.89,1.83-8.74,3.25
		c0.2,0.51,0.3,1.02,0.41,1.42c-13.79,6.08-29.15-0.97-33.94-1.93c-2.57-2.4-1.52-2.18-1.52-31.91c0-2.03,0.6-3.37,2.44-4.37
		c3.27-1.78,6.92-6.76,11.38-4.78c0.61,0.2,1.22,0.41,1.93-0.2c-0.33-1,0.72-0.81-2.74-2.54c-0.61-0.3-1.32-0.41-1.73-0.51
		c0-33.77,19.56-67.55,16.26-94.3c-0.3-2.43,0.23-2.82,7.52-17.17c5.01-9.86,2.26-8.91,17.68-58.94c6.61-21.43,5.07-33,5.69-35.36
		c6.34-23.94,4.49-18.81,4.78,13.11c0.16,17.51,5.37,25.82,9.04,53.65c1.78,13.48-0.34,7.65,1.73,16.56
		c2.86,12.34,3.15,12.86-1.73,34.55c-2.2,9.77-0.8,3.45,8.74,42.07c1.89,7.66,0.71,6.07,0.71,8.54
		C603.95,541.19,606.55,549.64,603.14,549.64z M623.76,242.26c0.89,3.29,2.28,1.71,3.15,6.81c0.89,5.19,1.66,10.26,2.44,15.45
		c0.11,0.71,0.41,1.42-0.3,2.34c-3.35,0-6.71,1.42-10.47,1.32c0.43-1.95,1.06-3.19-0.41-3.35c-0.51,1.22-1.22,2.44-2.24,3.96
		c-7.82,1.95-15.1,3.17-23.68,3.35c-15.51,0.33-55.22-13.35-55.89-8.64c55.1,13.36,57.13,12.27,80.07,7.52
		c14.5-3,10.22-2.54,12.6-2.54c1.3,3.25,0.39,17.01,1.42,18.09c2.62,2.73,0.27,13.37,2.95,15.24c0.64,0.45,2.94,16.58,2.13,23.07
		c-4.67,0-2.54-1.02-9.35-1.02c-0.1,0-42.15,1.03-41.26,5.49c1.87,0.62,3.76-1.07,6.2-1.32c7.74-0.81,17.86-1.45,27.84-1.93
		c6.6-0.32,8.33-0.2,16.66,1.42c0.34,2.73,0.25,34.3,0.1,35.46c-2.57,39.04-9,40.49-11.48,54.36c-0.62,3.48,1.22,3,1.22,5.49
		c0,5.84-0.46,9.05-4.67,17.27c-1.88,2.82-1.01,3.89,0.41,3.76c0.51,0,0.91-0.2,1.52-0.3c1.22,5.28,2.85,10.35,1.83,15.85
		c-0.26,1.42,0.03,9.15-0.1,13.01c-0.33,9.59-2.74,18.7-3.35,30.69c-0.36,7.01,0.81,4.18,0.81,8.23c0,9.45-0.41,18.9,0.3,28.66
		c-6.76,3.29-8.44,13.48-15.85,15.95c-3.88-3.24-0.17,0,0.2-6.71c0-2.42,0.35-1.79,1.63-2.64c-0.1-2.44,1.12-4.98,0.3-8.23
		c-1.12,2.03-0.61,3.76-1.42,5.69c-2.51-14.69-3.86-18.86-3.15-23.27c0.64-3.98-5.19-28.64-6.1-33.23
		c-2.57-13.06-7.6-18.09-5.28-29.57c1.16-5.76,2.54-11.96,2.85-17.17c1.99-1.99,5.57,10.08-0.3-12.7
		c-3.43-13.3,2.78-6.36-7.42-49.28c-4.06-17.11-2.9-22.62-3.96-50.6c-0.22-5.7-3.63-2.42,2.24-7.11c1.02,0.1,1.63,0.31,2.13,0.1
		c2.77-1.17,5.49-2.54,7.82-4.47c-1.17-0.83-1.39,0.14-7.21,3.05c-0.41,0.1-0.91,0-1.63,0c0.09-0.11,4.38-5.57,4.47-5.69
		c1.25-2.01-0.59-3.31-3.45,0c-9.52,11-8.38,12.75-10.47,14.84c-4.75-1.59-39.36-7.8-51.21-4.78c0-49.21,9.28-57.03,8.94-60.77
		c-0.36-2.37-0.07-1.66,8.74-26.01c4.24-11.73,3.23,2.02,3.45-20.83c0.12-11.76-2.84-17.19-2.54-19.71
		c1.13-9.47-10.4-3.3,30.48-8.13c14.7-1.74,4.31-1.83,38.82-1.83c2.13,0,4.27,0.2,6.4,1.02c0.41,1.32,0.23,2.44,0,3.66
		C616.77,212.15,616.43,215.17,623.76,242.26z M696.93,170.32c0.22,0.42,0.52,0.81,0,1.51
		C696.93,171.23,696.93,170.76,696.93,170.32z"/> <path d="M680.63,335.31c-5.77,34.06-12,70.56-17.7,103.85C626.11,684.89,657.46,485.12,680.63,335.31z"/> <path d="M605.07,15.55l0.1-0.1C605.09,15.41,605.11,15.37,605.07,15.55z"/> <path d="M595.92,10.77c-0.1-0.1-0.2-0.41-0.3-0.41c-0.15,0-0.61,0.1-0.51,0c-0.11,0-0.1-0.01-0.1,0.1
		C595.21,10.26,594.91,11.28,595.92,10.77z"/> <path d="M564.62,21.04c-0.24,0.04-0.19-0.08-0.1,0.1L564.62,21.04z"/> <path d="M552.13,78.96l-0.1,0.1C552.16,79.23,552.18,79.41,552.13,78.96z"/> <path d="M259.88,47.76c-0.03-0.01-0.06,0-0.1-0.01C259.78,47.75,259.73,47.76,259.88,47.76z"/> <path d="M247.18,78.86l-0.1,0.1C247.21,79.18,247.18,79.15,247.18,78.86z"/> <path d="M290.36,10.37c-0.2,0-0.51,0.1-0.61,0c0.24,0.47,0.24,0.74,0.91,0.41C290.57,10.67,290.47,10.37,290.36,10.37z"/> <path d="M289.75,10.37C289.62,10.4,289.57,10.55,289.75,10.37L289.75,10.37z"/> <path d="M361.6,573.32c-1.69,0,1.54,5.87,0.2,8.74c-5.72,2.86-8.6,4.64-9.96,4.37c-3.25-1.02-6.5-0.05-9.76,0
		c-12.91,0.2-11.2,1.31-17.27-0.71c-7.49-2.5-9.79-1.82-10.97-4.67c-0.65-1.94-10.47,0.76-18.6,0.41c-2.95-0.13-5.59-1.22-8.03-3.45
		c0.3-0.81,0.6-1.73,1.02-2.54c2.44-4.74,0.31-5.52,2.13-10.16c0.69-1.76,0.59-3.88,2.54-11.69c0-0.3,0.51-0.41,0.91-0.71
		c2.82,4.83,1.72,3.18,1.32,4.37c-0.3,0.61,0,1.32,0.51,1.42c5.94,1.14,6.77-0.37,12.09-7.52c3.22-4.34,4.19-8.76,8.74-8.03
		c1.28,0.1,2.55-0.1,3.73-0.75c-0.56,2.98,2.42,2.91,4.91,6.65c-2.75,2.25-10.8,2.94-11.28,6.81c5.16,0.86,8.54-4.53,14.23-3.05
		c0.2,0.51,0.51,1.22,0.81,1.93c-2.44,1.93-6,2.03-7.42,4.98c0.81,1.12,1.72,0.8,2.44,0.51c6.47-2.6,6.84-4.48,11.08-0.41
		c-2.74,1.22-6.3,0.81-8.13,3.66c0.67,3.34,5.58-1.23,12.6-0.71c0.71,0.1,1.32,0.51,2.03,0.71c-0.51,1.12-1.63,1.02-2.44,1.42
		c-1.37,0.86-2.95,1.73-2.54,2.54c0.29,0.39,0.87,0.81,1.52,0.81c9.38-2.56,4.87-3.13,15.34,2.95c1.73,1,4.44,2.11,6.5,1.42
		c0.2-0.91-0.41-1.51-1.12-1.63c-4.18-0.65-7.21-3.86-10.97-5.39c-7.8-6.6-13-6.57-18.39-14.84
		c12.45-182.29,11.95-200.59,17.99-200.59c2.44-0.3,2.66-2.53,3.25-4.27c4.8-14.15,4.97-14.28,4.37-15.95
		c-0.6-0.9,1.5-2.18,1.73-6.1c0-0.61,0.61-1.22,1.12-2.13c-1.12-3.15-2.34-6.4-3.56-9.65c0-0.23-6.12-7.87-7.93-10.97
		c-1.69-3.67-8.26-3.85-9.35-6.91c-2.22-6.24-5.18-12.3-6.3-18.9c-4.28-25.19-0.85-14.19-5.08-31.91
		c-1.15-4.79,1.21-9.24-3.66-19.71c-6.66-14.32-1.83-0.14-1.83-46.44c1.83-2.03,3.26-4.46,5.39-6.3c0.82-0.71,1.42-1.73,1.93-2.64
		c4.1-8.41,3.48-12.04,3.05-17.58c-1.02-13.19-10.88-12.12-8.84-20.02c-0.11-7.01-2.97-16.94-8.84-18.49
		c-13.23-3.49-13.33-4.8-17.78-9.65c-6.17-6.72-3.8-2.39-2.34-10.47c0.41-2.24,0.81-4.47,1.22-6.81c9.09-0.36,7.22,2.04,15.85-17.17
		c2.68-5.97,3.13-12.35,2.13-16.97c-1.5-6.98,1.85-11.14,0.41-14.23c0.1-5.69-2.03-10.87-3.45-16.26c-0.2-1.02-1.12-1.83-1.52-2.85
		c-2.55-6.48-16.41-11.69-23.98-12.19c-12.24-0.82-7.08,0.68-13.21-3.15c-6.01-3.74-15.78-1.29-17.48,6.2
		c-2.62,11.53-2.34,14.82-5.28,31.7c-2.95,16.95-4.84,14.33-6.3,28.96c-1.26,12.56,7.62,18.92,4.98,24.79
		c-17.71,9.32-16.29,9.23-23.88,11.18c-10.48,2.7-17.72,10.01-19.21,13.72c-0.69,2.06,0.5,1.45,0.1,5.59
		c-1.21,12.45-1.84,15.74-0.91,19.21c1.09,4.06-1.11,1.9-1.52,25.3c-0.22,12.5,4.03,12.74,4.47,31.5c0.12,5.15-2.39,8.94-3.35,10.87
		c-4.12,11.66-3.96,10.22-2.64,12.19c-2.97,30.39,0.7,30.69-3.35,59.75c-0.89,6.42-1.52,1.51-1.52,17.17c0,5.2-2.74,6.17-2.74,6.71
		c-0.61,3.15-3.56,5.18-4.37,8.23c-1.02,0.2-1.93,0.41-2.85,0.61c-2.87,4.31-1.18,11.78,1.12,15.34
		c7.72,11.95,6.87,16.97,11.69,21.64c3.46,3.35-0.23-3.39,3.76,105.27c0.22,6.1-2.64,7.61-1.93,16.16c0,23.38,3.25,17.12,3.25,77.33
		c-5.02,2.51-3.8,0.6-6,13.31c-6.01,9.02-3.95,7.72-4.78,18.09c0,1.48-1.75,4.1-2.24,4.88c0.61,0.61,0.91,1.32,1.52,1.63
		c4.37,2.19,9.07,4.07,16.36,2.74c4.76,3.7,8.21,6.13,15.14,6.5c3.77,0.2,7.99,0.91,11.28,0.71c2.03-0.12,4.05-0.67,6.1,0.2
		c1.21,0.51,12.38-2.51,16.26-4.67c1.43-0.8,2.44-1.93,2.74-3.86c2.7-0.49,54.27-6.76,56.8-6c10.84,3.29,12.53,3.96,17.17,3.96
		c4.87,0,15.46,2.7,23.78-1.93c5.94-3.3,10.26-0.51,6.4-13.62C362.61,573.62,362,573.42,361.6,573.32z M313.94,509
		c1.2,3.62-0.32,16.8,0.81,31.5c-6.71,3.35-8.74,14.24-15.95,15.95c-0.51-0.71-1.02-1.22-1.52-1.83c3-2.5,1.16-5.24,2.24-7.21
		c0.51,0.1,0.81,0.1,1.12,0.1c0.98-6.83,0.9-7.03,0.51-7.82c-2.44,0,0.3,16.26-4.47-10.57c-1.18-6.63-0.09-3.92-0.71-10.47
		c-2.73-28.99-12.92-47.48-11.79-55.58c1.45-10.32,3.11-15.84,3.45-21.85c0-0.2,0.2-0.3,0.3-0.51c3.92,3.36,3.13,3.77,0.2-8.94
		c-3.28-14.23,0.14-17.3-8.13-52.54c-3.82-16.3-2.97-22.04-4.06-50.6c-0.22-5.9-3.49-2.21,2.54-7.32c1.39,1.24,2.89-0.02,9.25-3.66
		c0.3-0.2,0.91-0.41,0.41-1.22c-7.51,3.75-7.3,4.4-8.94,3.96c3.24-3.84,6.22-6.75,4.78-7.62c-1.59-0.8-2.42,0.8-3.56,1.93
		c-4.07,4.81-8.16,9.56-9.76,14.23c-1.16,2.31-28.34-7.49-51.52-4.27c-0.8-5.06,0.88-25.96,1.22-30.08
		c0.87-10.72,3.49-20.37,7.82-30.48c57.36,11.81,48.81,14.5,91.66,4.98c0.61-0.1,1.22,0,2.03,0c1.22,10.6,0.07,16.48,1.32,17.99
		c1.4,1.67,0.95,3.32,1.63,12.4c0.49,3.45,0.9,0.69,1.73,4.57c1.08,5.1,2.38,18.11,1.63,21.14c-3.68,0.82-3.2-1.15-9.35-0.91
		c-9.08,0.34-18.83,0.92-30.79,2.03c-3.82,0.36-7.77,1.01-10.97,3.15c2.33,1.69,2.31-0.77,7.01-1.12c48.4-3.62,35.14-0.78,44-0.51
		c0.28,3.11,0.2-2.08,0.2,33.23c0,4.91-1.41,17.59-2.85,25.61c-3.75,20.93-4.23,16.26-6.81,23.98c-4.84,14.52,0.55,5.28-0.91,17.58
		c-0.73,6.16-3.69,11.04-5.28,14.23c-0.82,1.64,1.12,2.34,2.64,1.83c1.08,1.72,2.71,10.08,2.34,13.01
		c-0.59,4.57-0.25,15.8-0.91,22.86C316.33,481.76,312.43,504.45,313.94,509z M217.91,395.69c0.05,8.18,1.38,10.75,0.2,17.38
		c-2.77,15.61-3.16,17.29-4.17,19c-4.06,6.93-7.7,16.66-7.72,16.77c-0.72,0-0.42,5.8-1.73-90.44c7.55-9.71,8.86-19.01,10.77-20.12
		c0.2,1.71,0.83,14.26,1.93,21.54C218.4,367.76,217.78,372.74,217.91,395.69z M214.56,319.28c1.73,1.12,2.16,1.72,2.34,3.35
		c0.23,2.13-0.1,3.15-1.63,4.47C214.85,325.15,215.48,325.73,214.56,319.28z M215.07,317.25c-5.24-1.18-0.14,1.06-1.83-8.54
		c-0.7-3.98-2.29-4.36-2.03-9.86c1.54-33.06,19.79-52.38,18.39-74.89c-0.73-11.76,0.62-16.67-1.12-19.1
		c-0.6-1.21-1.05-6.91,0.61-10.36c1.18-2.45,0.59-4.06,2.03-4.06c2.01,4.03,2.28,6.29,4.17,9.55c0.71,1.23,0.62,3.73,1.12,7.52
		c0.62,4.78,1.46,1.01,1.32,7.42c-0.62,28.4-0.72,6.89-13.41,49.18C213.4,300.49,218.39,290.66,215.07,317.25z M209.17,323.45
		c-0.48-1.63-0.91-3.35-1.42-5.39c2.33,1.56,0.21,1.6,3.05,5.39c0.51-0.91,0.81-1.52,1.12-2.24c2.13,1.73,1.63,3.76,1.63,5.59
		c0,0.61-0.3,1.12-1.22,1.22c-0.1-0.51-0.1-1.12-0.3-1.63c-0.2-0.61-0.61-1.22-1.12-2.54c-0.81,2.24-0.1,4.17-2.44,4.78
		C207.95,326.8,209.71,325.27,209.17,323.45z M311.5,226c0.61,2.5,3.55,17.51,4.78,18.49c2.53,2.38,2.35,4.61,4.98,22.05
		c0,0.1-0.2,0.3-0.41,0.71c-3.45,0.2-6.91,1.32-10.47,1.42c0-1.32,1.12-2.44,0.1-3.66c-1.73,1.12-1.32,3.25-2.95,4.57
		c-24.78,5.78-32.5,2.36-39.73,0.81c-31.33-6.69-33.47-7.63-39.83-7.11c-1.87,0,0.95-5.98,9.15-28.15c1.12-3.03,2.44-1.91,2.44-4.67
		c1.3-22.04-3.02-30.84-2.44-33.84c0.31-1.62-0.71-2.95-0.51-4.78c40.63-2.14,33.79-3.91,46.44-4.27c1.77-0.05,24.8-0.7,29.47,0.91
		c0.84,2.96-2.64,15.41-2.64,19.1C309.87,213.8,310,219.89,311.5,226z M320.28,542.23c-0.63-1.05-1.9-1.36-2.99-2.14
		c-1.32-11.19-0.35-19.53-1.02-36.89c-0.39-10.14,0.78-11.58,2.95-34.24c1.49-15.59-3.03-24.22-2.85-27.64
		c0.31-5.74,3.25-2.36,3.25-21.44c1.63-0.51,1.97-1.82,2.24-3.15c2.86-14.04,1.57,1.4,6.81-34.04c4.24-28.69,0.77-36.87,2.95-37.6
		c2.99,7.78,1.66,5.08,6.5,8.54C322.49,572.48,327.57,545.06,320.28,542.23z M341.27,356.57c-0.81,14.64-12.93,184.91-13.11,191.34
		c-1.42-0.51-1.32-1.42-1.32-2.24c0.07-1.26,12.39-187.75,13.31-191.44C341.37,354.85,341.37,355.76,341.27,356.57z M352.86,328.43
		c-3.81,0.4-2.9,0.35-2.34-2.03c1.23-5.23-1.12-6.58,4.78-2.95C354.59,325.17,354.28,327,352.86,328.43z M318.31,186.67
		c-2.78,45.58-1.88,22.79,3.96,42.48c1.23,4.13-0.2,3.45,0.61,7.11c1.42,9.25,3.48,18.29,3.96,27.64c0.01,0.1,3.04,21.73,9.45,33.63
		c9.94,1.99,7.49,4.85,14.84,13.11c3.15,3.54,2.8,4.63,3.66,7.21c0.59,1.76,1.26,2.95,0.51,2.95c-4.13-0.79-2.85-3.14-3.66-4.47
		c-1.61-2.65-4.06-3.76-7.21-4.17c3.4,4.31,5.95,2.83,2.54,4.88c-2.02-1.01-2.79-1.73-4.88-1.42c-0.68,0.1-0.89,0.67-0.81,1.35
		c-0.95-0.37-1.9-0.66-2.85-1.05c-2.03,1.83-1.42,4.47-2.13,6.71c-6.27,6.27-5.76,4.18-0.1,17.68c0.94,2.81,2.72,5.57,5.69,5.89
		c2.59,0.29,2.06,1.47,3.56-1.02c6.94-14.21,6.38-14.59,7.72-13.41c-1.93,5.59-3.96,11.28-6,16.97c-3.31,1.93-4.32,3.3-5.69,1.93
		c-0.25-1.99-0.09-4.37-1.93-3.56c-0.2,1.12-0.41,2.34-0.61,3.66c-4.8-1.96-3.19-3.82-6.81-9.86c-1.51-2.51-1.52-3.08-1.52-21.75
		c1.83-1.22,4.06,0.2,5.59-1.12c0.39-2.14-1.63-1.66-5.89-1.93c-0.05-0.32-5.75-34.07-5.79-37.29c-0.13-9.66-1.7-26.64-6.2-35.16
		c-0.29-0.55-7.61-23.18-5.59-40.54c0.27-2.34,2.09-13.77,2.13-13.92c3.25-12.44,0.36-10.87,3.15-10.87
		C318.2,180.13,318.75,179.4,318.31,186.67z M341.48,317.09c1.15,0.29,4.17,0.92,4.17,1.98c0.1,1.73,0.89,3.34,0.1,4.98
		c-2.1,4.37-2.49,5.29-4.67,6.1c-0.81,0.3-1.63,0-2.03-1.12C341.66,325.54,341.99,327.4,341.48,317.09z M347.07,319.58
		c0.81,0.3,0.91,0.3,1.02,0.41c3.49,4.89-1.76,11.19-2.74,8.23C346.46,325.68,348.89,323.34,347.07,319.58z M335.28,329.14
		c-0.41,0.2-1.02,0.1-1.83,0.2c2.31-5.78,4.44-2.74,5.18-11.69c0.62,0,1.02,0.48,1.02,0.61
		C340.38,323.37,339.92,326.04,335.28,329.14z M337.21,330.15c2.34,2.24,4.57,2.03,6.91,0.1c1.87,0.99,3.56,0.81,5.05-0.68
		c0.9,3.1,1.42-0.03-6.68,15.11c-2.44-0.81-2.55-0.91-3.15-1.83c-1.04-1.61-3.96-8.84-4.57-11.48
		C335.58,330.97,336.4,330.56,337.21,330.15z M315.97,116.25c1.65,2.91,4.33,6.12,4.06,15.85c-5.08-3.15-12.19-13.01-16.46-21.54
		C313.17,113.86,314.58,113.79,315.97,116.25z M270.75,4.07c1.35,0.9,1.03,0.53,0.51,1.32C270.23,4.36,270.41,4.52,270.75,4.07z
		 M285.28,9.56c-0.61-0.1-1.22,0-1.73-0.2c-2.31-0.63-3.88-1.8-5.08-1.32c-1.73,0.81-3.67,0.26-5.49,0.91
		c-1.33,0.48-1.93-0.1-3.05-1.52C278.58,5.26,285.21,8.78,285.28,9.56z M278.37,10.67c-0.2,0.2-0.41,0.31-0.61,0.1
		C278.15,10.39,278.15,10.67,278.37,10.67z M268.62,3.56c2.86,4.17-1.66,1.24-5.39-1.32C265.77,1.53,267.42,1.82,268.62,3.56z
		 M253.38,12.2c0-4.67,6.04-13.96,13.01-6c-3.13,0-2.65-0.42-1.83,1.63c-1.92,1.71-2.52,1.03-3.19,1.03c0,0.72,0.18-1.25-1.79-1.04
		c0.37,1.02,0.99,1.11,1.71,1.04c-0.15,1.32-1.13,1.8-2.11,2.01c-3.41,0.75-3.54,4.15-6.6,7.21
		C252.04,15.5,253.38,13.26,253.38,12.2z M262.52,11.38c1.51-2.72,3.6,1.51,6.93,1.92c0.11,0.48,0.3,0.97,0.59,1.74
		c-2.77,0-3.29-0.27-3.53,1c-1.95-0.13-3.51-0.85-4.3-2.82c-0.47,0-0.75-0.27-0.63-0.72c0.37-0.05,0.63,0.14,0.73,0.62
		C265.75,13.97,265.86,14.73,262.52,11.38z M257.85,29.27c0.71,0.2,1.32,0.61,2.03,0.71c4.61,0.66,6.04,0.64,6.81,1.93
		c-7.01,0.88-7.21,0.22-7.21,1.32c2.54,0.81,5.18-0.1,8.33-0.3c-7.08,3.54-10.34,1.03-13.62-0.61c-1.42-0.61-1.73-1.83-1.12-3.35
		c1.63,0.3,2.34,2.54,4.47,2.13c-1.63-1.32-3.05-2.54-4.27-3.66c-0.1-1.02-0.3-1.93,0.61-2.54c1.52,1.22,3.05,2.34,4.57,3.45
		C258.12,28.91,257.48,29.63,257.85,29.27z M253.37,33.68c1.45,0.16,4.99,3.55,11.59,1.59c0.61-0.1,1.22-0.2,1.83-0.2
		c0.51,0,1.12-0.71,1.52,0.1c-3.46,2.24-7.36,0.99-12.7,1.52C252.78,36.97,252.37,35.88,253.37,33.68z M253.07,33.54
		c0,0,0-0.1,0-0.2C253.23,33.49,253.28,33.75,253.07,33.54z M243.82,70.83c0.49-12.34,5.14-19.19,6.3-31.91
		c0-1.12,0.1-2.24,0.91-3.35c0.71,1.32,1.21,2.64,1.02,3.96c-0.54,3.76,0.63,7.21,1.32,10.77c0.42,2.13,0.94,4.14,2.64,5.79
		c1.03,1,1.32,2.44,0.3,3.66c-1.02,1.22-0.93,2.44-0.61,3.76c2.04,8.3,1.72,12.81,5.18,17.17c-0.65,2.16-0.95,4.11-2.24,3.56
		c-1.94-9.72-5.59-18.25-7.42-33.53c-0.1-0.51-0.3-0.91-1.12-0.91c-1.12,4.49,0.26,10.16,1.32,16.36c0.87,5.09-0.16,6.36,2.54,12.4
		c3.47,7.78,3.04,7.78,0.51,9.35c-1.43-0.95-1.07-4.76-2.24-6.71c-0.41-0.81-1.42-1.42-2.13-2.03c-2.13-6.1-2.74-12.09-1.12-18.9
		c-4.87,5.56-0.85,16.98,0.09,21.99c-0.87-0.57-0.77-1.57-1.92-3.14c0,5.47,1.32,4.84,1.32,7.16
		C244.64,83.38,243.61,76.24,243.82,70.83z M257.95,58.64c0.71,1.22,1.22,2.03,1.73,2.85C258.25,60.77,258.25,60.77,257.95,58.64z
		 M250.73,86.78c0-0.14-0.33-0.57-0.04-0.68C250.96,86.31,251.04,86.47,250.73,86.78z M250.53,91.15c-0.81,0.51-1.32,0.91-1.83,1.22
		c-0.71-1.02-0.61-1.73-0.1-2.85C249.31,90.14,249.72,90.44,250.53,91.15z M249.41,82.51c0.35,0.32,0.33,0.76,0.4,1.23
		C249.44,83.43,249.41,82.97,249.41,82.51z M250.14,84.11c0.41,0.45,0.4,1.05,0.39,1.66C250.2,85.31,250.2,84.72,250.14,84.11z
		 M259.27,86.78c2.46-2.07,5.82-9.95,5.69-16.77c-0.04-2.34-0.4-2.2,1.63-2.54c-0.91-2.95-1.83-5.79-2.74-8.64
		c-0.81,0.2-1.42,0.41-2.34,0.61c-3.12-2.88-7.93-6.55-7.32-11.61c1.33-0.36,1.66-1.82,2.54-2.81c0.3,0.41,0.61,0.71,0.91,0.91
		c-0.2,1.22-2.34,1.63-1.32,3.35c1.29-0.2,2.09-1.74,3.45-1.53c1.09-2.17-1.02-1.41,5.08-0.19c0.51,0.2,0.91-0.1,1.02-0.71
		c-0.51-0.3-1.12-0.71-1.63-1.02c0-1.52,0.76-1.02-1.93-2.03c1.63-0.81,3.66,0.2,4.78-2.03c-5.82,0.39-4.51,0.27-8.03-0.81
		c1.52-0.2,2.95-0.2,4.37-0.2c2.19,0,5.84-1.58,4.57-2.85c-4.18,2.54-7.62,1.64-14.02,2.44c-2.41-6.02,0.88-0.85,13.41-3.35
		c1.52-0.3,2.95-0.81,3.96-2.34c-1.8-0.45-3.97,0.92,1.83-2.95c-1.12-0.1-1.73-0.1-2.64-0.2c3.92-3.92,3.92-3.9,3.35-4.37
		c-2.03,1.02-3.76,2.64-6.2,2.34c1.89-1.57,3.09-0.77,3.25-2.24c-3.25,0.3-3.25,0.3-5.49-0.91c5.1-1.09,5.34-0.9,4.88-1.93
		c-3.76,0.71-7.72,1.12-11.69,1.02c2.01,1.15,6.49,1.77,6.81,2.85c-2.24,0.81-2.24,0.81-5.28,0.3c-5.74-5.22-7.63-6.2-4.78-9.25
		c1.18,0.59,2.16,1.82,3.69,1.73c-1.67-2.65-6.36-2.03,0.68-8.13c2.59,1.56,0.54,2.35,6.1,4.37c5.97,2.16,7.21,3.17,10.36,2.54
		c0.1-0.41,0.1-0.81,0.2-1.32c0.3-0.1,0.61-0.3,0.91-0.51c0.3-0.2,0.91-0.3,0.51-1.12c-1.32,0.61-2.54,1.22-3.76,1.73
		c-1.04-0.19-5.85-0.68-7.35-2.46c4.31-0.43,6.07,2.61,8.46,0.22c1.71-1.71,6.61,0.15-3.05-3.25c-4.12-0.92-0.43,2.29-6.5-3.35
		c1.5-2.14,2.46-1.34,15.75,3.35c3.8,1.9-0.11-2.14,9.15,3.56c1.73-1.32,3.05,0.1,4.37,1.22c0.96-0.77,1.42-0.81,1.28-1.02
		c-0.38-1.21-5.16-4.53-6.87-5.28c-0.3-0.1-0.41-0.41-0.61-0.71c0.36-0.17,0.63-0.35,0.89-0.45c-0.69-1.71-1.76-0.94-4.65-3.11
		c2.85,0.1,5.59,0.8,8.13,1.83c1.73,0.7,2.13,1.22,3.35,3.35c-0.65,0-0.64,0.27-2.97-1.37c-0.19,1.11,0.65,1.69,1.33,2.17
		c-0.17,0.02,0.09,0.15,0.64,0.72c1.26,1.68,1.41,0.35,1.41,2.95c0.41,0.1,0.91,0.3,1.32,0.41c-0.19-1.08-0.21-1.13-1.22-1.86
		c-0.01-0.45-0.27-0.72-0.71-0.76c0-0.27,0-0.55,0-0.73c-0.85,0-0.71,0.17-0.71-0.71c-0.37,0-0.59-0.02-0.7-0.01
		c0.11-0.11,0.65-0.65,0.74-0.74c0.98,1.33,0.35-0.16,4.24,2.84c0.11-0.85-1.08-1.63-0.12-2.58c1.52,1.22,2.24,2.85,3.15,4.37
		c0.1,0.1,0.3,0.1,0.51,0.2c0.2-0.3,0.41-0.61,0.61-1.02c3.68,2.76,4.04,7.02,6.91,17.88c0.77,2.91-1.96-0.19-7.52,2.03
		c1.74,2.78,4.4-0.69,8.03,1.42c-0.1,1.83-0.81,3.25-1.83,4.67c-0.24-0.18-0.45-0.29-0.64-0.4c0.12-0.23-0.15-0.47-0.27-0.72
		c0-0.1-0.2,0-0.3,0c0,0.1,0.11,0.55,0.12,0.6c-1.97-0.1-3.92-0.24-5.3,1.53c0.51,0.51,0.91,0.91,1.22,1.32
		c0.12,0.12,1.57,4.14,3.86,1.52c2.34-2.68,1.37-2.93,2.24,1.42c2.31,11.62-1.04,17.16-6.1,29.27c-4.06,9.73-4.81,4.04-12.8,6.71
		c1.54,5.41-1.73,8.22-1.32,13.72c0.11,1.42-0.61,2.85,0,4.27c2.08,0.42,1.93,1.88,9.35,12.3c1.82,2.55,2.34,5.89,5.18,7.72
		c0.32,0.11,4.57,9.51,3.15,15.65c-0.31,2.2-4.1,3.94-6.6,4.06c-3.97-5.29-3.32-4.25-3.66-7.62c-2.16,1.54-0.88,1.73-6.3-1.52
		c-0.3-0.1-0.81,0-1.83,0c1.42,1.02,2.34,1.73,3.25,2.54c6.62,5.9,6.55,5.91,6,6.81c-6.77,0.72-14.08-4.14-19.31-8.54
		c-1.32-1.11-20.36-17.25-21.14-18.8c-2.03-4.67-11.1-12.5-12.19-18.7C249.77,94.6,247.94,96.31,259.27,86.78z M261.71,71.85
		c0.31,0.61,0.45,0.02,0.1,1.42C261.45,72.55,261.4,72.46,261.71,71.85z M261.71,64.73c0,0.1,0.1,0.1,0.2,0.2
		c-0.1,0-0.1,0.1-0.1,0.1C261.71,64.94,261.71,64.83,261.71,64.73z M255.58,42.81c-0.49,1.62-0.96,3.23-1.43,4.86
		C253.1,45.61,253.51,44.21,255.58,42.81z M255.66,42.7c1.11-1.85,1.44-1.17,3.35,1.22C256.02,42.94,256.76,43.08,255.66,42.7z
		 M272.48,14.84c0,0.26,0.1,0.2-0.51,0.2C271.97,14.85,271.89,14.55,272.48,14.84z M285.38,9.67c0.25,0.04,0.2,0.14,0.2,0.29
		C285.59,9.88,285.51,9.79,285.38,9.67z M244.03,97.35c4.66,7.66,5.51,8.62,7.52,11.18c2.6,3.9-0.1,2.61,4.06,6.71
		c37.34,36.75,40.65,27.94,48.78,27.94c2.61,0,5.63-2.94,5.79-6.81c0.27-6.39-3.21-13.98-6.61-18.8c-0.61-0.87-5.79-8.32-5.79-9.86
		c9.17,7.86,4.26,11.51,24.39,30.08c2.11,1.95,3.66,4.47,5.49,6.71c1.59,2.38,1.35,10.65,1.32,12.5c0,0.26-0.75,2.2-0.91,3.76
		c-0.57,5.61-2.72,7.24-11.52,17.41c-1.89,0.31-1.48,1.1-2.09,3.22c-2.19,7.55,1.49,4.47-10.87,4.17
		c-77.53-1.88-72.83,22.98-70.83-25.2c0.91-1.02,1.95-2.61,3.45-3.56c6.2-3.92,13.42-24.38,7.82-44.81
		c-2.1-7.68-5.04-10.46-5.59-11.38C240.47,99.28,242.2,98.06,244.03,97.35z M195.56,302.61c1.91-2.44,0.42-4.8,1.73-15.04
		c3.51-27.62,2.84-62.48,6-73.67c2.47-8.78,4.07-8.99,3.66-16.16c-0.14-2.44-0.21-9.98-1.02-13.41c-1.96-8.37-3.56-20.14-2.54-28.05
		c1.08-8.39-0.15-10.37,2.64-35.06c1.3-11.48,15.01-13.37,30.99-20.22c9.38,17.98,8.03,28.5,2.85,45.32
		c-1.26,4.08-3.66,7.32-6.61,10.26c-0.41,0.41-0.81,0.91-1.63,0.41c0-11.25,1.85-11.35-0.1-11.79c-0.3,0.3-0.72,0.61-0.81,1.02
		c-2.86,11.98-1.34,6.13-0.71,13.92c0.35,4.41,1.98,6.2,0.71,9.65c-1.81,4.92,1.27,14.51-5.49,27.03c-1.97,3.65,0.36,2.98-2.03,7.93
		c-0.1,0.2-0.1,0.61-0.1,0.91c1.42,0.3,1.32-1.42,2.54-1.52c0.71,4.95,2.05,3.81,2.03,6.91c-0.05,7.52,0.81,15.04-1.02,22.46
		c0,8.53-7.87,23.05-9.35,27.33c-14.86,43.13-5.53,41.8-6,50.1c-0.29,5.14-1.14,5.46,1.15,5.95c-0.28,0.66-0.56,1.31-0.84,1.97
		c-1.73,0.41-1.22-1.93-2.54-2.13c-8.67,0-3.01-0.02-2.44,3.96c0.68,3.4,1.21,6.51-1.63,8.23c-2,1.22-1.32-0.9-1.32-5.18
		c0-5.2,1.18-5.47-2.74-6.5c-2.28-0.6-0.14-0.75-2.95-3.05c-0.81,0.51-0.2,1.32-0.41,1.93c-0.84,2.51-3.63,1.5,2.44,3.15
		c1.63,2.13,2.03,4.37,1.52,7.01c-3.25-0.46-0.18-0.8-7.32-3.86c-1.33-0.66-1.2-1.14-1.73-3.35c-0.81-3.44-0.94-2.97-2.44-4.47
		C191.9,310.44,194.54,306.88,195.56,302.61z M200.84,353.52c-7.95-7.26-5.97-11.91-13.92-23.37c-2.22-3.2-3.41-10.42-1.22-13.21
		c5.39,0,4.32-0.34,4.78,1.02c1.38,9,7.6,6.5-1.52,6.5c-1.71,0-2.05,2.44,2.74,2.44c5.85,0,2.74,2.18,5.49-1.12
		c1.42,1.12,2.24,2.85,4.98,2.85c-3.52,1.64-5.18,3.08-8.54,1.22c-6.64-3.69-2.76-0.09-2.34,2.44c0.65,2.82,2.73,5.87,4.88,9.25
		c4.63,7.28,3.45,6.55,4.37,8.33c2.79,5.38,9.37-10.45,11.48-16.16c0.3-0.81,0.61-1.63-0.81-2.13c-2.07,2.07-5.24,11.97-8.64,16.06
		c-4.67-7.52-8.84-12.19-9.45-15.95c6.66,1.11,5.28-0.84,11.28-0.71c2.34,0.05,4.57-1.12,7.01-0.51c0.63,0.16,2.83-1.5,3.15-1.73
		c0.38,1.88,0.69-0.63-2.64,9.45c-1.74,5.28-4.47,10.16-7.42,14.73C202.87,352.71,202.87,352.71,200.84,353.52z M192,586.83
		c3.38-2.71-0.55-9.93,4.17-18.7c3.07-1.54,1.05,1.61,3.35-12.6c0.18-1.12,0.91-1.63,2.13-1.52c0.3,1.52,0.64,2.87-0.41,4.17
		c-0.99,1.24-0.91,2.64,0.1,3.66c2.35,2.35,0.42,10.34,1.42,28.35C198.11,591.07,189.64,589.2,192,586.83z M204.8,590.29
		c-0.51-6.1-3.72-224.1-3.76-230.16c-0.02-3.93-0.12-3.14,1.42-4.67c0.93,5.6,3.57,233.67,3.56,233.82
		C205.92,589.58,205.41,589.78,204.8,590.29z M208.36,451.38c6.41-18.04,5.21-15.47,8.54-17.38c4.31-26.6,3.66-17.05,3.66-67.37
		c0-9.3-1.79-13.01-1.83-17.68c-0.18-23.15-0.18-20.01,0-21.85c17.27-1.52,34.04,0.51,50.71,4.78c-1.93,9.64-3.52,12.01-3.05,16.46
		c1.42,13.48-16.91,57.35-19.71,80.99c-0.24,2.02-1.05,3.54-11.58,21.75c-1.07,1.85-0.98,1.63-0.41,3.35
		c0.91-0.3,1.73-0.51,2.44-0.71c0,1.52,0.1,2.85,0,4.17c0,1.88-0.87,0.78-1.22,4.37c-0.88,9.06-0.98,8.29-2.95,17.78
		c-9.43,45.48-2.15,3.71-12.4,50.2c-1.9,8.64,0.32,11.93-1.63,18.6c-11.18,9.15-10.96,8.75-11.79,8.23c0-1.02-0.09-2.24-0.1-3.45
		C205.92,441.76,204.61,461.94,208.36,451.38z M249.31,593.44c1.83-0.81,3.45-1.42,5.89-2.24
		C254.26,593.57,250.91,594.88,249.31,593.44z M255.41,582.97c-3.48-1.04-6.79-2.15-9.55-4.47c-7.06-5.93-9.41-7.91-11.79-12.7
		c-6.94-14.02-6.06-12.36-7.32-13.62c-1.29,1.29-0.94,0.13,0.2,3.56c2.46,5.75-1.55-0.76-13.21,8.84c-0.5,0.41-0.61,1.02,0.3,1.63
		c4.57-3.05,9.55-5.28,15.24-5.79c1.09,2.73,1.11,1.19-2.13,2.74c-8.56,4.11-8.95,4.09-8.64,5.18c1.88,2.15,9.69-4.51,13.41-2.64
		c0.3,0.61,0.51,1.42,0.91,2.34c-0.64,0.32-8.32,3.51-8.43,3.56c-0.85,0.42-0.21,1.63,0.3,1.63c4.35,0,6.99-2.24,9.55-1.73
		c1.29,2.15,0.83,1.83,1.02,2.74c-2.25,1.35-5.46,1.18-5.89,3.35c-0.1,0.51,0.91,1.12,1.73,1.02c0.51,0,0.92-0.09,1.42-0.2
		c5.5-1.24,4.93-1.14,6.81-3.25c10.77,10,10.82,9.17,14.02,8.64c4.38,7.88-0.5,4.81-7.21,8.94c0,0.61,0.1,1.12,0.1,1.63
		c-16.83,5.61-25.62-0.38-34.14-1.93c-0.41-2.34-3.25-2.13-4.57-3.96c0-34.83-3.64-24.58,9.96-35.46c3.89-3.11,5.39-2.06,8.33-1.32
		c1.21-2.22,0.33-1.66-4.06-3.86c0-30.89,20.06-75.08,16.26-94.1c-0.48-2.38,0.05-1.96,9.65-21.34c2.02-4.07,2.61-9.7,6.1-21.95
		c9.6-33.76,14.84-45.22,15.04-65.54c0.01-1.53,1.75-10.44,4.57-17.78c0.54,6.49,0.34,21.27,0.41,28.96
		c0.16,17.31,4.87,25.03,8.94,52.94c1.47,10.1,0.38,10.45,1.42,15.14c3.05,13.75,4.57,9.62-1.42,36.38c-2,8.93-0.93,5.38,6.1,31.91
		c7.31,27.59,0.85-0.76,5.79,36.38c1.61,12.11,2.61,13.79,1.63,21.14c-2.94,0.73-4.56,1.45-5.18,4.47
		c-1.41,6.86-3.68,6.46-3.45,13.21c0.12,3.56-0.71,6.71-2.64,9.65c-0.3,0.41-0.2,1.02-0.3,1.42c2.24,1.42,4.17,2.64,6.71,4.27
		c-2.3,0.3-30.09,3.56-34.14,3.56C256.63,585.31,256.02,584.19,255.41,582.97z M279.29,586.73c-21.7,2.44-21.7,3.05-21.24,1.42
		c0.91-0.1,46.03-5.12,46.03-4.17C298.54,584.7,286.36,585.94,279.29,586.73z M309.98,583.48c-2.73,0-2.74,0.07-2.74-0.2
		C310.39,583.28,309.98,583.21,309.98,583.48z"/> <path d="M299.81,15.55l0.1-0.1C299.77,15.35,299.87,15.38,299.81,15.55z"/> <path d="M259.27,21.04c-0.24,0.04-0.19-0.08-0.1,0.1L259.27,21.04z"/> <path d="M661.36,582.16c6.92-4.84,7.52-2.48,7.52-4.17c-0.61-0.3-1.22-0.8-1.83-0.71C663.75,577.76,658.75,581.18,661.36,582.16z"/> <path d="M357.23,578.09c-2.66,1.09-6.44,3.79-3.96,4.78c2.03-1.63,4.27-3.15,7.01-3.35C361.13,577.64,358.41,577.61,357.23,578.09z
		"/> <path d="M711.66,179.25c-0.61,0.1-1.12,0.41-1.83,0.71C711.63,183.04,714.77,178.36,711.66,179.25z"/> <path d="M703.74,180.07c1.02,0.61,1.93,0.71,2.85,0C705.67,178.64,705.26,178.64,703.74,180.07z"/> <path d="M621.94,411.04c-0.3,0.2-0.71,0.3-0.91,0.51c-4.07,4.6-7.46,6.47-9.76,9.15C608.53,424.8,622.3,416.92,621.94,411.04z"/> <path d="M608.01,468.25c1.32-14.74-7.18-25.11-3.66-15.95C608.16,462.17,605.53,466.47,608.01,468.25z"/> <path d="M581.29,205.17c4.48-3.58,0.8-1.15,11.99-10.36C592.8,190.93,583.98,199.78,581.29,205.17z"/> <path d="M593.79,308c2.95-4.98,4.27-10.47,4.78-16.06c0-0.1-0.1-0.2-0.41-0.81c-2.15,4.77,0.45,2-5.39,17.38
		C593.28,308.31,593.69,308.2,593.79,308z"/> <path d="M533.23,304.65c-0.99,3.18-2.63,13.94-1.52,16.16c0.2-0.1,0.41-0.1,0.51-0.2C534.32,301.98,534.09,304.65,533.23,304.65z"/> <path d="M557.82,240.43c1.17,4.7,5.53,12.5,7.62,14.94c0.69-0.46,0.85,0.58-7.01-15.14C558.26,240.22,557.82,240.29,557.82,240.43z
		"/> <path d="M600.9,234.33c0.65,1.83,3,4.93,4.27,3.66c0.71-0.71,0.62-0.85-2.85-6.3C600.9,232.5,600.47,233.12,600.9,234.33z"/> <path d="M599.28,415.61c-0.2-4.37-0.3-8.13-0.81-12.09c-0.51,0.3-0.91,0.41-0.81,0.61C598.01,416.08,598.04,414.2,599.28,415.61z"/> <path d="M605.07,225.49c0-3.5,0.1-4.22,0.1-10.97c-1.32,0.61-0.82,1.63-0.91,2.44c-0.11,0.91-0.2,1.93-0.2,2.95
		C604.05,223.51,603.69,224.57,605.07,225.49z"/> <path d="M577.12,222.34c0.61-3.66,0.3-6.4,0.41-9.86C575.55,214.96,575.99,219.19,577.12,222.34z"/> <path d="M609.13,474.65c0.41-0.41,0.81-0.61,0.91-0.91c0.4-1.7,0.35-5.59-1.93-5.59C608.42,470.28,608.73,472.31,609.13,474.65z"/> <path d="M619.9,259.83c2.03-1.12,2.85-2.64,3.35-7.01C618.96,261.1,619.9,259.21,619.9,259.83z"/> <path d="M559.24,197.65c-1.02-1.42-1.93-2.85-2.95-4.27c-0.81,0.2-0.71,0.71-0.61,1.12C556.5,196.22,557,196.83,559.24,197.65z"/> <path d="M538.51,277.31c-1.22,1.22-1.52,2.34-1.32,4.88C538.51,279.85,538.51,279.85,538.51,277.31z"/> <path d="M559.24,280.67c1.73,0.5,3.45,0.81,5.69,1.42C560.82,279.78,553.89,279.12,559.24,280.67z"/> <path d="M621.22,287.78c2.34,0,4.67,0,7.11,0C626,287.27,623.56,287.37,621.22,287.78z"/> <path d="M609.03,482.98c-0.81,1.22-0.81,2.03-0.2,3.45C609.84,485.12,609.74,484.2,609.03,482.98z"/> <path d="M609.23,480.85c0.81-1.22,0.81-1.22,0.61-2.74C609.03,478.71,609.03,478.71,609.23,480.85z"/> <path d="M555.89,204.56c0.41,1.73,0.41,1.73,2.34,3.25C557.71,205.88,557.71,205.88,555.89,204.56z"/> <path d="M609.03,533.99c0.81-1.22,0.81-1.22,0.2-3.05C608.22,532.27,608.22,532.27,609.03,533.99z"/> <path d="M561.17,211.26c-0.81-0.81-0.81-0.81-2.34-1.12C559.28,211.15,561.17,212.57,561.17,211.26z"/> <path d="M562.08,202.52c-0.41-1.63-0.41-2.74-1.83-3.05C560.05,200.8,560.46,201.61,562.08,202.52z"/> <path d="M575.19,237.38c-0.2,0.2-0.3,0.3-0.3,0.41c0,2.67,1.71,0.92,0.81-0.2C575.6,237.58,575.5,237.58,575.19,237.38z"/> <path d="M535.05,294.49c0.28,0,0.2,0.33,0.2-2.74C534.97,291.74,535.05,291.34,535.05,294.49z"/> <path d="M599.38,283.61c-0.71,0.81-0.61,1.73-0.2,2.64C599.17,285.34,599.28,284.43,599.38,283.61z"/> <path d="M570.01,260.75c-0.58,0.73,0.24,1.31,0.81,2.64C570.82,261.26,570.82,261.26,570.01,260.75z"/> <path d="M571.84,265.02c0,1.19-0.17,0.74,0.41,1.32c0.29-0.29,0.25-0.16-0.1-1.22C572.14,265.02,571.94,265.02,571.84,265.02z"/> <path d="M609.03,525.66c0.48-0.72,0.49-0.43-0.3-1.22C608.27,525.35,608.21,524.43,609.03,525.66z"/> <path d="M554.77,279.65c1.12,0.1,1.83,0.2,2.44,0.3C556.6,279.14,555.89,279.24,554.77,279.65z"/> <path d="M595.82,393.36c0-0.73,0.27-0.93-0.51-1.32C594.93,393.19,595.05,392.97,595.82,393.36z"/> <path d="M608.42,520.99c0,1.33-0.07,1.12,0.2,1.12C608.62,520.81,608.68,520.99,608.42,520.99z"/> <path d="M574.89,233.62c0.1,0.1,0.2,0.2,0.2,0.3C575.62,232.86,574.89,232.95,574.89,233.62z"/> <path d="M581.09,205.27l0.3-0.1C581.26,205.17,581.33,205.14,581.09,205.27z"/> <path d="M599.48,283.51l-0.2,0.1C599.4,283.61,599.36,283.63,599.48,283.51z"/> <path d="M534.44,440.41c0.87-0.87,0.63,0.61,3.05-10.77c0.27-0.82-1.17-2.1-1.83-1.22c-0.2,0.3-0.51,0.61-0.51,0.91
		C533.15,438.68,532.72,439.4,534.44,440.41z"/> <path d="M536.38,462.25c2.03-1.73,3.45-4.27,5.28-9.15c-1.99-0.4-1.41-1.19-5.28,7.72C536.17,461.24,536.38,461.74,536.38,462.25z"/> <path d="M552.74,411.75c0.1-0.2-0.2-0.61-0.41-0.91c-0.91-0.91-3.85,4.53-4.47,6.2C549.99,415.71,552.13,413.48,552.74,411.75z"/> <path d="M546.03,417.54c-1.22,0.41-1.93,1.22-2.54,2.24C545.42,419.98,546.23,419.37,546.03,417.54z"/> <path d="M534.24,470.08c0,1.22-0.1,1.22,0.3,0C534.44,470.18,534.34,470.08,534.24,470.08z"/> <path d="M598.67,43.7c-0.42-4.22-0.02-3.13-2.13-3.56c0.35,0.69,0.46,0.94,0.71,1.32c-13.1,0.53-4.38,0.34-8.83,1
		c0.08,0.29,0.09,0.67,0.18,1.14c0.82-0.2,1.64-0.3,2.35-0.51c0.73,1.1,1.18,5.11,4.88,2.64c1.15-0.77,0.91-0.01,0.91-2.34
		c0.61,0.3,1.02,0.61,1.52,0.81C598.36,44.1,598.67,43.9,598.67,43.7z"/> <path d="M589.93,41.67l-0.1,0.1C589.88,41.77,589.87,41.78,589.93,41.67z"/> <path d="M588.3,42.48c0.04-0.01,0.08-0.01,0.12-0.02C588.37,42.36,588.46,42.32,588.3,42.48z"/> <path d="M605.88,42.58c1.09,15.79,7.8,11.26,2.85,15.45c-0.61,0.51-1.52,0.81-1.32,1.93c1.02,0.71,1.73-0.3,2.74-0.2
		c1.89-4.42,1.99-2.15-3.66-16.46c0.2-2.03,1.52-3.25,1.63-4.98C606.08,40.04,605.75,40.65,605.88,42.58z"/> <path d="M597.34,65.85c-1.12-0.3-1.12-0.2-2.13,1.02c2.8,2.1,6.28,0.91,11.58,0.91c1.22,0,2.34,0.41,3.56,0.61
		c0.41,0,0.81-0.3,1.52-0.61c-0.61-0.51-0.92-0.91-1.32-1.02C600.15,63.98,602.8,67.67,597.34,65.85z"/> <path d="M602.83,37.09c-0.2-0.41-0.2-0.81-0.41-0.81c-6.12-1.98-13.69-4.35-16.77,1.32c0.71-0.2,1.12-0.2,1.32-0.41
		C592.13,33.04,598.34,37.84,602.83,37.09z"/> <path d="M583.32,15.45l0.1-0.1C583.14,15.43,583.23,15.39,583.32,15.45z"/> <path d="M566.76,21.04c-0.71-0.3-1.52,0.2-2.24,0.3c1.89,1.26-0.51-0.3,8.33,1.12c0,1.59-1.63,0.72-6.71,1.52
		c6.33,1.44,7.22-0.83,12.19,0c0.3,0.1,0.71-0.1,1.02-0.2C579.22,22.26,578.39,22.03,566.76,21.04z"/> <path d="M584.64,109.85c-0.87-0.44,0.65,0.02-17.27-3.96c0,0.1,0,0.3-0.1,0.41c1.02,0.41,1.93,1.02,2.95,1.32
		C589.65,112.24,584.74,109.85,584.64,109.85z"/> <path d="M563.91,50.71c-0.96,2.21,2.21,2,1.42,4.17c-0.1,0.41,0.51,1.02,0.81,1.63c1.32-0.61,1.73-1.93,1.12-2.64
		C564.63,50.81,566.47,44.85,563.91,50.71z"/> <path d="M589.62,108.43c-0.96-1.92-1.09,3.24,1.63,4.78c1.03,0.58,2.24,0.81,3.35,1.12c0.61,0.1,1.42,0.2,1.93-0.91
		C590.11,111.4,592.54,112.44,589.62,108.43z"/> <path d="M601,71.13c-0.23,2.33,6.88,2.87,8.74,0.3c-0.51-0.1-0.91-0.3-1.12-0.3C606.08,71.74,603.54,70.42,601,71.13z"/> <path d="M600.09,57.62c-0.1,0.41-0.41,0.71-0.3,0.91c0.3,0.91,0.91,1.52,1.83,1.52c1.72,0,4.88-0.11,4.88-1.83
		c-0.48-1.43-3.12-0.27-4.47,0.41C601.31,58.43,600.8,58.03,600.09,57.62z"/> <path d="M589.11,81.6c-4.52-1.29-4.58-2.07-6.81-1.93C587.92,83.66,598.37,84.25,589.11,81.6z"/> <path d="M565.74,18.09c2.85,1.63,6,1.73,9.76,2.34C572.96,19.21,568.59,18.29,565.74,18.09z"/> <path d="M588.5,42.28c-0.27,0.27,1.42-0.65,4.57-2.54C590.4,39.86,586.33,41.55,588.5,42.28z"/> <path d="M596.94,108.33c0.68,0,1.38-1.85-0.2-2.64C596.47,107.81,596.41,108.06,596.94,108.33z"/> <path d="M578.34,76.52c0.71,0.81,1.52,1.52,2.44,2.54C580.17,77.43,580.17,77.43,578.34,76.52z"/> <path d="M606.39,63.31c-0.69-2.77-1.91,0.07-0.51,0.3C605.98,63.61,606.39,63.41,606.39,63.31z"/> <path d="M611.88,40.45c-1.05,0-0.91-0.04-0.91,0.1C612.05,40.55,611.88,40.58,611.88,40.45z"/> <path d="M594.7,39.94c0.91,0.1,1.42,0.1,1.83,0.3C595.69,39.4,595.39,39.82,594.7,39.94z"/> <path d="M584.34,15.75c-0.37-0.37-0.71-0.1-0.91-0.3C583.83,16.27,584.02,15.91,584.34,15.75z"/> <path d="M571.13,89.63c0,0.3,0,0.41,0.2,0.61C571.23,90.03,571.23,89.83,571.13,89.63z"/> <path d="M578.24,76.62c-0.16-0.25-0.81-1.21-0.81-0.81C577.73,76.11,577.94,76.32,578.24,76.62z"/> <path d="M571.13,89.63c-0.27-0.13-0.23-0.16-0.1,0.1L571.13,89.63z"/> <path d="M605.98,16.87c-0.16,0.04-0.1-0.08-0.1,0.1L605.98,16.87z"/> <path d="M605.87,16.87c-0.03-0.45-0.22-0.71-0.6-0.71C605.27,16.63,605.45,16.9,605.87,16.87z"/> <path d="M606.29,17.07c-0.22-0.11-0.35-0.2,0,0.2C606.29,17.18,606.29,17.07,606.29,17.07z"/> <path d="M572.45,176.61c10.76,1.7,21.49,2.04,29.98-5.39c-0.91,0-1.32-0.11-1.73,0c-0.89,0.24-7.7,4.97-18.7,4.88
		c-4.38-0.04-2.26-1.02-5.18-1.02c-7.68,0.68-10.72-5.13-12.3-3.56C566.32,174.53,569.61,176.16,572.45,176.61z"/> <path d="M557.61,166.65c-0.21-0.41-0.21-0.76-0.91-0.41C557.14,167.12,557.36,166.65,557.61,166.65z"/> <path d="M560.05,168.38c-0.38-0.38-0.2-0.1-0.41-0.1C559.65,168.68,559.66,168.38,560.05,168.38z"/> <path d="M531.7,176.41c0-0.3-0.3-0.61-0.51-1.02c-1.42,0.3-2.64,0.81-3.86,1.42C528.62,179.17,531.3,177.75,531.7,176.41z"/> <path d="M528.96,154.66c-1.42-1.63-2.74-1.83-4.98-0.71c1.42,1.32,3.35,0.61,4.98,1.02C528.96,154.87,528.96,154.66,528.96,154.66z
		"/> <path d="M535.46,107.82c-0.3-0.2-0.81,0-1.52,0c1.93,1.93,2.64,2.34,4.98,2.85C538.1,109.04,536.78,108.43,535.46,107.82z"/> <path d="M537.09,146.53c1.63-0.71,0.91-1.83,1.32-3.15C536.68,144.3,537.09,145.31,537.09,146.53z"/> <path d="M523.67,174.88c-0.3-0.3-0.61-0.61-1.02-0.91c-0.3,0.3-0.61,0.51-0.81,0.81C522.97,175.35,522.8,175.76,523.67,174.88z"/> <path d="M538.1,140.54c0,0.3,0.2,0.61,0.2,0.91c0.3,0.1,0.51,0.1,0.61,0.1c0.39-1.56,0.18-1.57-0.3-2.54
		C538.41,139.72,538.2,140.13,538.1,140.54z"/> <path d="M540.34,137.18c0.29-0.88,0.32-1.16-0.2-1.42c-0.39,0.39-0.1,0.52-0.1,1.42C540.14,137.18,540.24,137.18,540.34,137.18z"/> <path d="M529.16,179.56c0,0.1-0.1,0.2-0.1,0.3c0.1,0.3,0.3,0.3,0.3,0c0.1-0.1,0-0.2,0-0.3
		C529.26,179.56,529.16,179.56,529.16,179.56z"/> <path d="M527.64,183.01c0.1,0.1,0.1,0.1,0.2,0.2c0.33-0.33,0.23-0.18,0-0.41C527.74,182.81,527.64,182.91,527.64,183.01z"/> <path d="M676.1,186.67c1.52,0.51,2.03-0.71,2.74-1.52C677.52,184.94,676.91,185.76,676.1,186.67z"/> <path d="M671.42,186.87c0.35,1.06,0.44,0.9,1.02,0.61c-0.1-0.1-0.2-0.3-0.41-0.41C671.73,186.98,671.52,186.98,671.42,186.87z"/> <path d="M551.41,75.1l-0.1,0.1C551.42,75.3,551.46,75.41,551.41,75.1z"/> <path d="M552.02,78.86c0-2.57,0.28-2.64-0.6-3.55C551.48,76.47,551.26,77.71,552.02,78.86z"/> <path d="M551.32,75c-0.06-0.07-0.11-0.14-0.11-0.2C551.21,74.9,551.21,75,551.32,75z"/> <path d="M551.32,75c0.03,0.03,0.06,0.06,0.09,0.1C551.41,75.01,551.34,75,551.32,75z"/> <path d="M508.02,211.16c1.52-1.02,1.63-1.12,1.12-2.85C507.62,209.33,507.62,209.33,508.02,211.16z"/> <path d="M510.36,204.86c0.37-0.37,0.15-0.31-0.1-0.81C510.03,204.51,509.5,204.43,510.36,204.86z"/> <path d="M566.76,8.74l-0.1,0.1c0.01,0,0.02,0,0.03,0.01c-0.12,0-0.05,0.01-0.03,0.1l0.08-0.09l0.02-0.03
		C566.72,8.84,566.75,8.78,566.76,8.74z"/> <path d="M566.62,8.85c-0.32-0.83-0.9-1.13-1.79-1.03C565.21,8.87,565.86,8.94,566.62,8.85z"/> <path d="M598.67,11.18l0.06-0.06c0.05,0.05,0.02,0,0.04-0.04c0-0.14,0.02-0.12-0.08-0.02C598.39,10.95,598.39,10.91,598.67,11.18z"/> <path d="M600.9,14.13c1.59,1.58,1.32,0.93,1.32,2.85c0.41,0.1,0.91,0.3,1.32,0.41c-0.19-1.08-0.21-1.13-1.22-1.86
		c-0.01-0.45-0.27-0.72-0.71-0.76c0-0.27,0-0.55,0-0.73c-0.85,0-0.71,0.17-0.71-0.71C599.86,13.32,599.91,13.14,600.9,14.13z"/> <path d="M295.75,449.25c-1.8,2.02,2.82,4.25,2.95,15.95c0.05,4.35,1.26,0.4,2.03,8.94c0,0.2,0.2,0.41,0.41,0.91
		c0.3-0.41,0.81-0.61,0.81-0.91c0.57-5.75-1.15-4.04-1.83-7.42C299.74,461.04,299.71,456.01,295.75,449.25z"/> <path d="M313.84,411.55c-1.83,1.47,1.96-1.69-8.43,7.52c-2.67,2.37-2.27,1.93-2.85,3.66C307.91,421.39,314.92,414.06,313.84,411.55
		z"/> <path d="M290.26,292.35c-0.9-0.11-1.08,1.55-1.22,1.83c-1.95,9.34-0.98,5.73-4.47,14.94C287.6,308.17,290.38,296.77,290.26,292.35z
		"/> <path d="M224.82,305.76c-1.12,4.78-1.47,9.55-1.52,14.43c0,0.2,0.2,0.51,0.71,1.42c1.89-18.31,1.84-15.93,1.52-16.56
		C225.33,305.36,224.92,305.56,224.82,305.76z"/> <path d="M289.35,404.74c0.73,11.99,0.14,9.8,1.73,11.58c-0.1-4.67-0.1-8.43-1.02-13.21C289.65,404.13,289.35,404.43,289.35,404.74z
		"/> <path d="M228.78,282.49c1.33,0.15,0.97-0.94,1.93-4.47C228.99,278.94,228.99,280.67,228.78,282.49z"/> <path d="M320.24,287.98c-8.78,0-9.77,0.41-1.32,0.41C319.32,288.49,319.73,288.08,320.24,287.98z"/> <path d="M249.82,280.67c1.93,1.16,4.05,1.48,6.18,1.43C254.04,281.22,251.97,280.56,249.82,280.67z"/> <path d="M300.63,481.86c1.42-1.12,1.52-2.13,0.3-3.25C300.83,479.53,300.73,480.54,300.63,481.86z"/> <path d="M300.83,535.11c1.12-1.42,0.81-2.44,0.3-3.76C300.12,532.88,300.12,532.88,300.83,535.11z"/> <path d="M301.24,484c-0.3,0.1-0.61,0.1-0.71,0.2c-0.3,0.81-0.71,1.73,0.51,2.95C301.36,485.68,301.65,485.65,301.24,484z"/> <path d="M226.75,295.3c0.29,0,0.2,0.41,0.2-2.74C226.68,292.55,226.75,292.22,226.75,295.3z"/> <path d="M291.18,284.43c-0.61,0.71-0.81,1.42-0.2,2.44C290.97,285.85,291.08,285.04,291.18,284.43z"/> <path d="M300.83,526.07c0.6-0.24,0.42-0.17,0.1-1.12C300.38,525.32,300.02,525.26,300.83,526.07z"/> <path d="M247.28,280.46c1.02,0.1,1.83,0.1,2.44,0.3C249.11,279.95,248.4,280.06,247.28,280.46z"/> <path d="M286.91,392.75c0.1,0.41,0.1,0.81,0.2,1.22c0.26,0,0.9,0.17,0.51-1.02C287.45,392.62,286.91,392.42,286.91,392.75z"/> <path d="M300.22,521.6c0,0.1-0.1,0.2-0.1,0.3c0,0.1,0.1,0.2,0.1,0.3C300.58,521.84,300.36,521.74,300.22,521.6z"/> <path d="M320.34,287.78c0,0.1-0.1,0.1-0.2,0.1C320.24,287.98,320.34,287.88,320.34,287.78z"/> <path d="M291.08,284.32c0.1,0,0.2-0.1,0.2-0.1C291.18,284.22,291.18,284.32,291.08,284.32z"/> <path d="M256.22,282.09c-0.18,0.03-0.39-0.05,0,0.1c0.1-0.1,0.03-0.07,0.2,0.1C256.3,281.91,256.35,281.96,256.22,282.09z"/> <path d="M226.35,440.91c0.63-0.63,0.91-0.16,2.95-10.67c0.4-1.19-1.64-2.81-2.44-0.41C225.11,437.67,224.16,439.98,226.35,440.91z"/> <path d="M228.99,462.35c5.23-9.92,4.43-8.01,3.76-9.35c-2.64,2.44-4.27,6.1-4.57,9.76C228.48,462.56,228.88,462.56,228.99,462.35z"/> <path d="M244.54,412.46c0.1-0.3-0.2-0.71-0.2-1.02c-1.93,0.81-3.35,2.74-4.67,6.2C241.89,416.32,243.72,414.39,244.54,412.46z"/> <path d="M238.24,418.56c-1.52-0.2-1.52-0.2-3.15,2.54C236.81,420.39,237.83,419.98,238.24,418.56z"/> <path d="M226.04,471.7c0.27,0,0.2,0.14,0.2-0.91C225.97,470.79,226.04,470.61,226.04,471.7z"/> <path d="M273.7,205.37c3.44-3.25,4.04-4.35,11.28-10.06C284.98,191.71,276.49,198.64,273.7,205.37z"/> <path d="M292.6,234.63c0.71,1.93,1.93,3.45,3.76,4.47c2.11-1.76,1.15-1.22-2.34-6.71C292.7,233.11,292.29,233.62,292.6,234.63z"/> <path d="M250.12,243.07c2.86,6.7,5.28,10.87,7.21,12.5c-0.71-2.34-5.69-12.3-7.52-14.73C249.11,241.65,249.82,242.36,250.12,243.07
		z"/> <path d="M296.77,225.39c0.34-20.86-1.83-4.59-0.41,0.3C296.56,225.59,296.76,225.49,296.77,225.39z"/> <path d="M268.41,222.24c0.41-0.1,0.71-0.2,0.71-0.3c0.41-2.74,0.3-5.49-0.1-8.23C268.01,216.44,267.81,219.29,268.41,222.24z"/> <path d="M313.43,259.22c1.11-1.83,1.42-2.95,1.42-5.49c-1.02,2.54-2.54,4.37-3.45,6.91C313.02,259.83,313.12,259.73,313.43,259.22z
		"/> <path d="M250.94,198.26c-0.71-1.63-1.93-2.95-2.85-4.37c-0.81,0.2-0.81,0.71-0.61,1.12C250.32,199.25,249.96,198.5,250.94,198.26z"/> <path d="M248.09,204.96c-0.41,1.83,0.71,2.64,1.93,3.66C250.22,207.85,250.56,208.14,248.09,204.96z"/> <path d="M253.88,202.83c-0.41-1.32-0.41-2.44-1.73-2.74C252.26,202.12,252.26,202.12,253.88,202.83z"/> <path d="M266.99,237.68c-0.2,0.71-0.41,1.12-0.41,1.52c0,0.78,1.46,0.98,1.12-0.41C267.7,238.5,267.4,238.29,266.99,237.68z"/> <path d="M250.43,210.35c0.71,1.32,1.32,1.83,2.95,2.03C252.48,211.33,252.06,210.67,250.43,210.35z"/> <path d="M262.11,261.77c0.1,0.61,0.1,1.32,0.2,2.24C263.13,262.88,263.13,262.27,262.11,261.77z"/> <path d="M263.44,265.93c0.1,0.3,0.3,0.51,0.51,0.81c0.1-0.2,0.3-0.51,0.3-0.51C263.58,265.57,263.6,265.77,263.44,265.93z"/> <path d="M262.01,261.87c0-0.73,0.05-0.66-0.2-0.91C261.37,261.84,261.78,261.41,262.01,261.87z"/> <path d="M266.89,234.53c0.16-0.32,0.36-0.81,0-0.81C266.73,234.04,266.53,234.53,266.89,234.53z"/> <path d="M206.84,307.19c0.1-0.3-0.2-0.61-0.51-1.12c-1.52,0.91-1.63,2.74-2.74,3.76c-1.12,1.02-2.24,2.03-3.56,3.35
		c0.61,0.3,1.12,0.71,1.32,0.61C204.27,312.41,206.12,310.24,206.84,307.19z"/> <path d="M208.97,149.48c0.91-4.67-1.02-8.94-1.32-13.31c-2.75-1.57,0.9,7.58,0.81,12.5C208.46,148.97,208.77,149.28,208.97,149.48z
		"/> <path d="M207.24,298.75c0.2-2.44,1.32-4.88,0.81-7.52c-1.22,1.73-1.73,4.57-1.63,8.74C206.84,299.36,207.24,299.06,207.24,298.75z"/> <path d="M225.53,108.73c4.49,2.99,3.19,2.28,5.28,2.74C228.28,108.43,227.26,107.92,225.53,108.73z"/> <path d="M209.48,193.28c1.22-1.52,1.22-1.52,0.51-4.06c-0.3,0.2-0.71,0.3-0.81,0.61C208.97,190.84,208.87,191.85,209.48,193.28z"/> <path d="M210.49,183.01c0.99,0,0.92-2.13,0.1-2.13c-0.7,0-0.64,1.06-0.51,1.73C209.99,182.81,210.29,182.91,210.49,183.01z"/> <path d="M208.16,282.29c0.46,0.46,1.32-0.6,0.61-2.03C208.2,280.26,207.56,281.55,208.16,282.29z"/> <path d="M211.51,173.87c-1.22,1.12-0.81,2.13-1.02,3.56C211.51,176.2,211.71,175.29,211.51,173.87z"/> <path d="M208.16,287.98c0.1-1.22,0.1-2.13,0.2-2.95C207.45,285.85,207.24,286.76,208.16,287.98z"/> <path d="M219.74,212.38c-0.41,0.51-0.71,0.71-0.81,0.91s-0.1,0.61-0.2,1.02C219.94,214.01,219.74,213.29,219.74,212.38z"/> <path d="M233.46,138.51c-0.47,0.93-0.64,0.88,0.1,1.63C234.5,139.19,233.92,139.44,233.46,138.51z"/> <path d="M221.16,209.53l-0.1-0.2C220.93,209.59,220.9,209.53,221.16,209.53z"/> <path d="M291.48,45.22c0-2.69-0.31-1.75,1.52-1.02c0.4-0.4,0.65,0.03,0-3.86c-1.89,0-2.18-0.82-1.02,1.12
		c-12.47,0.5-4.81,0.4-8.83,1c0.08,0.29,0.09,0.67,0.18,1.14c0.81-0.2,1.63-0.3,2.34-0.51c0.73,1.1,1.16,5.08,4.88,2.64
		C290.87,45.52,291.18,45.32,291.48,45.22z"/> <path d="M284.67,41.67l-0.1,0.1C284.62,41.77,284.62,41.78,284.67,41.67z"/> <path d="M283.15,42.38l-0.1,0.1C283.15,42.45,283.21,42.49,283.15,42.38z"/> <path d="M305.71,67.07c-10.88-3.38-7.17,0.74-13.92-1.02c-2.1-0.55-3.48,2.13,3.45,2.13c3.41,0,6.75-0.96,9.65,0.3
		c0.61,0.1,1.12-0.2,1.22-0.91C305.91,67.37,305.81,67.07,305.71,67.07z"/> <path d="M301.85,59.65c4.04-0.31,2.59,0.59,4.47-3.56c-5.06-13.91-6.34-11.28-3.35-17.68c-2.98,1.66-2.94,3.38-1.22,9.25
		C305.26,57.63,307.49,54.41,301.85,59.65z"/> <path d="M290.77,36.08c6.05,1.51,4.98,1.12,6.81,1.12c-0.2-0.51-0.3-1.02-0.51-1.12c-6.1-1.86-13.92-4.2-16.66,1.52
		C283.12,36.7,284.31,34.46,290.77,36.08z"/> <path d="M278.17,15.35c-0.29,0.08-0.19,0.04-0.1,0.1L278.17,15.35z"/> <path d="M272.17,22.26c-11.81-1.58-11.25-1.29-12.77-0.75c0.98,0.76,0.8-0.21,8.1,0.96c0,1.59-1.63,0.72-6.71,1.52
		c6.33,1.44,7.22-0.83,12.19,0c0.3,0.1,0.71-0.1,1.02-0.2C273.9,22.66,272.99,22.37,272.17,22.26z"/> <path d="M259.17,21.34l-0.2,0.3C259.5,21.49,259.46,21.52,259.17,21.34z"/> <path d="M277.15,110.76c-0.82-0.98,1.66,0.39-17.78-4.47C262.93,108.83,272.99,111.17,277.15,110.76z"/> <path d="M286.81,113.41c-3.15-0.14-4.21-2.11-5.69-5.08c-1.63,5.71,6.56,8,7.11,5.79C288.03,113.41,287.32,113.51,286.81,113.41z"/> <path d="M258.66,50.71c-0.96,2.21,2.21,2,1.42,4.17c-0.1,0.41,0.51,1.02,0.81,1.63c1.32-0.61,1.73-1.93,1.12-2.64
		C259.36,50.8,261.21,44.86,258.66,50.71z"/> <path d="M295.24,71.24c2.25,2.67,7.24,2.21,9.25-0.1c-1.83,0-3.25,0-4.67,0C298.49,71.24,297.17,70.52,295.24,71.24z"/> <path d="M283.76,81.5c-4.17-1.25-4.64-1.96-6.81-1.83c1.13,0.7,4.32,3.35,10.36,3.35C285.99,82.01,284.88,81.91,283.76,81.5z"/> <path d="M294.73,57.82c-0.79,2.91,5.35,1.98,6.4,0.41c-1.73-1.32-3.05,0.1-4.78,0.51C295.75,58.43,295.24,58.13,294.73,57.82z"/> <path d="M260.79,17.79c2.03,1.63,3.66,2.03,9.15,2.44C266.69,18.7,263.64,18.8,260.79,17.79z"/> <path d="M287.82,39.74c-2.65,0.12-6.75,1.81-4.57,2.54C282.98,42.54,284.68,41.62,287.82,39.74z"/> <path d="M288.53,109.04c1.12-1.12,1.12-1.12-0.1-2.44C288.43,107.31,288.53,108.12,288.53,109.04z"/> <path d="M306.52,40.45c-0.3,0-0.61,0.1-1.02,0.1C305.5,40.78,306.93,40.45,306.52,40.45z"/> <path d="M300.73,62.9c0-0.2-0.1-0.41-0.3-0.61c-0.51,0.51-0.29,0.42,0.1,0.81L300.73,62.9z"/> <path d="M289.86,40.04c1.22,0,2.2,0.64,0.1-0.41C289.96,39.74,289.86,39.94,289.86,40.04z"/> <path d="M280.3,91.05c-0.1,0.61,0.2,0.91,0.91,0.91C280.91,91.66,280.61,91.36,280.3,91.05z"/> <path d="M278.98,15.75c-0.4-0.4-0.43-0.06-0.91-0.3C278.48,16.28,278.67,15.91,278.98,15.75z"/> <path d="M274.41,83.33c0.1,0.1,0.1,0.41,0.2,0.41c0.2,0,0.41-0.1,0.61,0C274.78,83.51,275.06,83.33,274.41,83.33z"/> <path d="M280.2,91.05c-0.1-0.2-0.2-0.41-0.2-0.51C279.59,91.05,280,90.95,280.2,91.05z"/> <path d="M273.09,76.52c-2-2,0.35,0.63,2.34,2.64C274.54,76.12,272.7,76.91,273.09,76.52z"/> <path d="M275.32,83.84v-0.2C275.2,83.76,275.2,83.71,275.32,83.84z"/> <path d="M272.28,75.81l-0.1-0.1C272.17,75.96,272.14,75.94,272.28,75.81z"/> <path d="M300.53,16.97c0-0.47-0.18-0.74-0.6-0.71C299.96,16.7,300.15,16.97,300.53,16.97z"/> <path d="M299.93,16.26c0-0.04-0.01-0.06-0.01-0.1C299.79,16.28,299.78,16.26,299.93,16.26z"/> <path d="M300.93,17.07c-0.11-0.11-0.43-0.23,0,0.2C300.93,17.18,300.93,17.07,300.93,17.07z"/> <path d="M264.66,177.22c3.87,0.57,7.83,1.26,11.89,1.02c5-0.3,15.91-3.04,17.38-6.71c-1.42-0.1-2.24,0.71-3.15,1.12
		c-6.74,3.49-17.51,5.06-20.22,3.25c-1.99-1.33-4.74,1.24-11.28-2.95c-0.81-0.52-1.63-0.91-2.44-1.32
		C255.09,173.37,261.34,176.73,264.66,177.22z"/> <path d="M249.41,166.96c-0.45-0.9-0.51-0.3-0.91-0.3C248.81,167.28,248.69,167.32,249.41,166.96z"/> <path d="M251.95,169.09c-0.5-1.01-0.21-0.41-0.61-0.41C251.74,169.48,251.54,169.3,251.95,169.09z"/> <path d="M336.29,312.47c0.3-1.12,0.61-2.44-0.91-3.86c-0.51,2.34-0.81,3.96-1.22,5.59C335.79,314,335.99,313.89,336.29,312.47z"/> <path d="M332.94,298.35c-1.83-1.02-2.64-0.2-3.56,0.2C329.12,300.15,331.3,298.98,332.94,298.35z"/> <path d="M339.34,308.91c0.2,0,0.51-0.71,0.41-0.81c-1.67-1.67-1.45-0.84-2.13-0.61C337.62,308.41,338.53,309.12,339.34,308.91z"/> <path d="M187.22,323.04c0.51-1.02,0.61-1.93-0.1-3.05C186.21,322.33,186.21,322.33,187.22,323.04z"/> <path d="M246.77,76.22c-0.1-0.3-0.51-0.71-0.61-1.22c0.1,1.17-0.26,2.44,0.62,3.53C246.79,77.77,246.86,76.96,246.77,76.22z"/> <path d="M246.77,78.76c0.11-0.11,0.13-0.07,0.01-0.23C246.77,78.6,246.77,78.68,246.77,78.76z"/> <path d="M245.97,75c0.03,0.03,0.06,0.06,0.09,0.1C246.06,75.01,245.99,75,245.97,75z"/> <path d="M245.86,74.79c0,0.1,0,0.2,0.1,0.2C246.06,75,245.86,74.97,245.86,74.79z"/> <path d="M257.54,29.17c0.1,0,0.1,0.1,0.1,0.2C257.75,29.27,257.64,29.17,257.54,29.17z"/> <path d="M293.41,11.08c-0.27-0.13-0.23-0.16-0.1,0.1c0.12-0.12,0.08-0.12,0.18-0.05C293.54,10.91,293.52,10.97,293.41,11.08z"/> </g> </svg> 