<?xml version="1.0" encoding="utf-8"?> <!-- Generator: Adobe Illustrator 23.0.1, SVG Export Plug-In . SVG Version: 6.00 Build 0)  --> <svg version="1.2" baseProfile="tiny" id="Layer_1" xmlns="http://www.w3.org/2000/svg" xmlns:xlink="http://www.w3.org/1999/xlink" x="0px" y="0px" viewBox="0 0 900 600" xml:space="preserve"> <g> <path d="M513.28,207.58c0.01,0.01-0.01,0.03-0.03,0.06C513.25,207.64,513.26,207.62,513.28,207.58z"/> <path d="M609.19,184.87c-4.09-6.04,0.69-11.51-8.65-16.6c-2.67-1.46-5.87-6.32-4.28-6.72c1.12,0.2,0.51,1.93,1.73,2.14
		c0.71-1.63-0.61-3.16,0.1-4.79c2.34-1.63,4.48-3.56,7.13-4.58c1.22,0,2.14,0.92,3.87,0.31c3.72-5.85,9.96-2.53,10.28-9.57
		c0.19-4.26-4.32-4.97-5.91-5.5c-3.56-4.17-8.65-3.56-12.93-5.5c-0.61-0.81-1.12-1.93-2.55-2.24c-1.22-0.1-2.14,0.51-2.95,1.63
		c-0.2,1.32-0.41,2.65-0.71,4.17c2.34-0.31,1.43-2.65,2.75-3.36c0.87,0.09,1.27,0.66,1.49,1.32c-2.36-0.07-1.53,2.96-3.22,3.36
		c-8.45-0.1-16.6-2.34-25.05-3.36c-3.96-4.87-4.93-7.45-7.33-6.41c2.95,3.77,7.03,6.72,7.53,11.91c-3.26,2.65-3.67,6.62-5.91,9.57
		c-4.23,1.33-15.24,7.33-17.92,11c-24.26,33.24-14.05,22.3-37.67,47.04c-2.83,2.97-6.53,5.29-8.76,8.65
		c-1.95,2.95-4.98,4.69-6.92,7.53c-1.12,1.63-2.87,1.87-4.68,1.02c-6.28-2.96-9.72-5.46-10.08-11.71
		c-1.49-26.01-3.58-10.38-4.48-53.66c-0.21-9.87,1.7-20.08,0.92-27.8c-0.52-5.09,0.84-10.1,1.93-15.07
		c1.31-5.91,2.81-6.16,7.13-12.93c1.18-1.86,2.85-2.93,4.89-3.16c6.73-0.74,12.94,0.1,17.51,5.8c4.95,6.18,19.96,15.17,18.84,43.58
		c-0.44,10.99-9.41,14.2-16.49,18.53c2.24-6.92,3.26-13.44,1.53-20.26c1.73-1.02,3.87-1.43,5.19-3.26c-2.04-1.63-4.38,0.2-6.21-0.51
		c-0.92-1.32,0.92-2.14,0-3.56c-1.43,1.63-3.05,3.05-4.07,4.89c1.22,1.12,1.73-0.81,2.75-0.31c0.31,5.09,0.82,10.18,0,15.27
		c-1.89,11.81-6.81,17.96-5.7,19.75c-7.23,4.17-12.22,8.65-13.75,12.93c1.02-0.81,1.74-1.32,2.44-2.04
		c10.09-10.22,19.91-9.23,30.34-21.28c4.35-4.35,12.34-8.41,14.05-17.11c2.55-2.65,2.34-6.11,2.85-9.67c4.28,0,8.45-1.12,12.73-0.61
		c-1.02,1.83-3.16,0.61-4.38,1.73c4.38,1.02,5.19,0.71,7.74-3.05c-2.8-1.63-12.06,0.62-12.5-1.27c3.85-1.45,3.85-4.57,3.14-8.09
		c3.87,1.22,7.74,1.63,10.69,3.16c1.73,2.34-0.31,3.87-0.41,5.7c2.04,0.51,2.44-1.93,4.79-1.22c-2.55-2.04-3.36-4.07-4.07-6.11
		c-2.34-1.53-4.89-1.93-7.43-2.75c3.16-2.85,8.55-5.09,11.3-4.99c-0.41,2.85-4.17,2.24-5.7,5.29c3.16-1.02,5.19-0.51,6.82,1.93
		c0.1,1.73,0.81,3.46,1.22,5.29c-1.22,2.75-2.75,5.5-2.14,9.98c1.22-2.85,2.34-0.1,3.67-1.53c0.41-2.85,3.67-4.48,4.58-7.53
		c-3.94-7.1-4.61-9.85-5.66-6.62c-0.79-1.29-1.6-2.67-2.89-3.46c0.61-1.53,2.24-2.34,1.73-4.68c-4.17-0.51-8.04,0.61-11.71,2.85
		c-4.42-5.62-9.81-12.97-14.15-18.02c-3.06-3.56-7.03-6.21-9.57-10.18c-0.1-0.1-0.51,0-0.71,0c0,5.71,4.1,2.59,19.14,24.84
		c0.64,0.95,1.49,1.8,1.05,3.19c-0.41,1.29-3.13-1.7-5.43-1.35c0,1.01,1.74,0.74,1.32,1.93c-0.82,0.29-1.81-0.53-2.85-0.71
		c-0.51-1.53-1.52-2.48-3.26-3.05c-4.24-1.4-16.94-16.47-22.3-21.99c3.16,0,7.02,0,10.49,0c-2.71-2.13-10.49,0.04-13.64-2.34
		c-3.47-2.63-7.68-4.12-11.2-6.72c-1.74-1.29-3.87-0.24-5.8-0.81c0-0.2-0.1-0.41,0-0.41c4.79-3.46,5.55-8.87,7.03-14.05
		c1.94-6.81,2.55-2.45,3.97-8.15c1.04-0.12,1.35,1.4,1.84,1.15c1.09-0.75-3.01-3.99-4.23-8.24c-0.62-2.19,2.78-2.05,3.47-4.03
		c0.67-1.91-1.62-0.06-4.86-2.83c-0.62,0.72,0.3,1.21-0.3,2.04c-1.74-1.33-1.35-3.64-1.93-5.4c9.75,5.09,6,0.83,9.16,6.62
		c4.1,0.46,4.76,0.42,5.09-1.85c0.38-2.61-1.23,0.46-3.16-0.18c-3.4-3.3-4.88-8.82-7.43-12.83c1.63-1.12,2.04,0.41,2.85,0.51
		c0.5,4.73,1.21,5.74,4.29,5.7c0.77-0.01-1.62-4-1.8-4.9c-0.28-1.37,0.1-1.12,3.12-4.47c2.02,1.83-0.72,2.65-0.92,4.28
		c1.8,2.82,0.02,8.38,4.28,3.05c0.1-1.65-1.61-1.88-2.24-3.05c0.79-1.71,1.44-2.92,0.61-4.89c-4.61-5.99-5.37-5.04-8.55,1.32
		c0-3.87,0.92-5.19,4.89-7.33c3.61,0,2.89,3.4,6.21,5.91c1.91,1.44,3.2,1.62,5.8-0.92c-1.59-0.19-3.27,0.79-4.48-0.71
		c5.29-0.51,9.06-4.28,12.93-5.91c2.51-5.04,6.62-8.79,6.31-14.36c-1.41-0.61-3.42,1.17-4.72-0.85c2.35-0.36,6.06-2.48,9.62,0.64
		c4.58-0.97,0.2-3.81,7.14,0.81c1.43-1.12,3.36-0.41,5.8-0.71c3.63,1.3,2.15,9.86,4.79,17c-1.55,3.71-4.59,0.67-4.31,7.55
		c0.22,5.33,4.38,11.28,3.58,11.98c-3.17,2.82-4.13-2.12-6.71,1.44c0.39,1.29,1.33,0.52,2.14,0.92c-0.43,3.71,0.95,4.28,0.48,5.02
		c-1.89,2.55-6.11,0.17-8.01,0.89c1.21,2.52,3.69,1.53,5.5,2.04c3.84,2.74-1.21,3.3-0.69,5.53c0.58,2.49,1.02,4.29-1.34,5.97
		c-11.26,1.13-6.27-1.22-14.76-1.22c-4.34,3.61-10.22,10.47-10.15,13.99c0.07,3.32-0.45,6.57,2.31,9.33
		c0-11.57,0.25-11.84,8.55-20.97c7.57,0.45,6.35,2.81,14.36,0.81c2.54-0.63,3.91-2.96,3.56-5.7c-0.09-0.71-0.31-1.43-0.51-2.34
		c1.83-1.32,2.14-3.05,0.92-5.09c0.81-0.81,1.83-1.32,2.04-2.55c0.41-1.32-0.92-2.95,0.1-4.48c3.67-1.83,3.67-1.83,4.28-5.5
		c-1.83-2.85-3.26-6.01-3.46-9.67c0.71-0.51,1.43-1.02,2.14-1.53c-0.61-0.2-1.22-0.51-1.73-0.71c0.1-0.1,0-0.2,0.1-0.31
		c1.14-1.71,4.73-3.82,3.16-10.59c-3.56-15.35-5.47-20.23-12.42-23.42c-6.16-2.83-15.81-8.53-30.34-7.33
		c-2.04,0.17-4.16,0.33-5.7,1.53c-3.33,2.59-7.53,3.77-10.28,7.03c-19.05-6.8-17.54,2.46-23.01,8.25
		c-9.16,9.69-1.35,20.57-1.73,28.71c-0.19,4.07,0.51,8.15,1.32,12.22c3.38,16.92-4.42,24.41-2.34,27.19
		c1.83-1.53,1.63-4.07,3.26-5.91c-0.2,4.68-1.53,8.76-2.65,12.93c4.79-4.58,6.52-10.59,8.55-16.49c-1.32,9.06-2.04,18.12-7.43,26.57
		c6.31-3.97,13.24-18.43,13.13-26.68c-9.91,27.53-4.66,11.38-2.24-6.82c1.31-9.82-2.53-44.93,3.67,1.32
		c1.61,12.03-2.42,14.89,0.1,17.41c0.59,8.64-14.06,15.76-17,36.65c-2.24,15.93,0.53,12.85-0.51,18.23
		c-3.25,16.88-1.09,31.96,2.55,70.56c0.6,6.39,1.77,11.46,13.95,16.09c1.07,0.54,2.5-1.07,6.72-4.89
		c-2.63,11.4-0.94,15.71-8.04,22.4c-10.83,10.21-19.23,24.65-18.94,39.61c0.13,6.56-2.72,3.85,0.71,15.68
		c4.12,14.17,14.35,30.7,15.48,39.3c1.94,14.77,1.37,20.89,2.34,27.49c3.69,25.08,2.84,28.41,4.38,36.96
		c2.2,12.19-1.08,14.23-1.12,19.45c-0.13,17.13-13.36,19.14-14.15,52.34c-0.26,11.13,2.14,31.05,3.56,41.95
		c1.11,8.53-0.3,9.96,2.14,29.43c-9.64,2.59-5.83,3.52-9.57,13.34c-2.95,7.75-0.67,11.51-2.14,14.66c-1.23,2.64-1.55,5.69-2.65,8.45
		c-1.04,2.64-0.33,4.11,2.14,5.6c10.76,6.52,17.77,5,25.05,1.22c6.18,1.82,7.28,7.9,32.07,7.23c10.89-0.3,20.26-5.29,29.83-10.49
		c0.32-7.06-7.44-12.37-3.97-11.51c6.41,1.02,12.93,0.12,19.35,0c4.58-0.09,9.16-2.05,13.64-3.56c7.07-2.38,4.83-8.71,3.87-14.97
		c-4.89-0.41-9.47-1.94-14.25-2.55c-5.6-0.71-10.08-3.06-13.85-7.13c-7.75-8.38-10.29-4.17-14.46-11.2
		c-1.93-3.26-4.38-6.21-7.33-8.45c-1.14-0.16-4.35,2.94-3.77-1.12c2.4-34.82,3.29-38.03,7.13-56.1c8.26-38.9,0.45-33.86,6.21-47.75
		c4.84-11.69,1.11-8.84,6.21-32.28c3.48-16,0.65-5.96,4.58-30.24c4.96-30.66-1.18-45.37-2.04-61.5c-0.82-15.34-6.6-23.49-4.07-33.29
		c2.34-9.1,2.3-23.37,1.93-32.68c-0.82-20.64,7.35-33.36,6.92-41.03c4.48-4.58,9.49-8.34,12.83-13.44
		c3.79-5.79,9.27-9.98,13.85-15.07c0.64-0.96,1.26-0.19,5.5,3.77c-0.41,6.11,2.65,10.39,7.84,13.44c0.12,2.2-5.77-7.24,99.07,155.17
		c61.15,94.74,62.6,100.25,63.94,92.86C766.38,428.57,609.26,184.98,609.19,184.87z M566.22,140.99c-1.12,1.22-2.14,2.34-3.26,3.56
		c0-1.73,0-1.73,1.22-3.77C564.19,140.32,559.28,125.29,566.22,140.99z M501.57,68.29c0.53,1.92,0.82,3.57-0.61,4.79
		C501.16,71.86,501.36,70.53,501.57,68.29z M507.37,40.49c2.4,0.87,0.13,2.17-1.73,3.56C505.55,42.47,506.29,41.55,507.37,40.49z
		 M535.98,150.56c-3.05,3.56-6.44,6.6-8.86,10.39c-3.68,5.76-9.17,9.17-13.75,13.75c-2.35,2.35-5.48,3.67-8.96,5.8
		c4.62-11.54,1.53-6.47,9.58-10.67c10.21-5.33,13.47-12.43,13.99-21.45c0.35-6.03-5.89-9.99,8.2-2.7
		C536.08,147.1,535.37,148.83,535.98,150.56z M535.78,128.67c3.87,5.98,4.73,6.96,3.77,10.79c2.47-2.15,2.52-2.55,1.02-7.23
		c0.74,0.37,2.35,2.1,2.3,3.99c-0.07,2.8-1.5,3.53-1.19,4.86c0.31,0.94-4.55,0.98-5.9,2.25c-5.53-2.48-8.74-4.69-7.13-10.08
		C529.71,129.7,532.11,128.16,535.78,128.67z M494.63,87.22c-1.01,1.65-0.35-3.21-0.35-18.17c0-2.23,1.25-3.58,3-5.02
		C499.19,69.05,497.52,82.48,494.63,87.22z M495.66,61.37c-0.1,0.2,0.51,0.71,0.81,1.12c-4.16,4.88-1.53-0.56-1.53-7.84
		C495.76,56.89,497.39,59.03,495.66,61.37z M495.66,48.64c1.43-0.1,1.53,1.02,2.14,2.04C495.97,50.68,496.07,49.46,495.66,48.64z
		 M508.54,34.67c-1.21-0.44-6.78,0.89-7.28,6.54c-0.13,1.42-1.12,2.44-1.53,3.56c0,2.75,2.14,4.58,2.75,7.03
		c-0.21,0.55-0.99,0.29-1.22,0.41c0.67,1.12,2.95,0.7,2.44,2.95c-2.22-0.53-4.13-1.49-5.6-3.26c1.03-0.86,1.76,0.53,2.6,0.49
		c1.91-0.1-2.79-2.71-3.92-5.38c0-0.31,1.22,0.41,1.32-0.51c-2.55-2.95-5.5-5.91-5.29-10.39c1.18-0.21,1.66,1.51,3.25,1.02
		c-1.22-1.73-3.36-3.05-3.46-6.11c2.88,2.88,5.57,4.84,9.37,5.6c-3.36-2.85-7.64-3.77-8.45-8.25c3.36,1.14,18.71,6.43,18.71,6.54
		C510.77,36.51,509.71,35.09,508.54,34.67z M517.51,33.03c-3.27,0.35-2.91,0.96-4.57,0.56c-1.17-0.28-9.2-3.52-13.21-5.93
		c-0.5-0.11-0.88,0.66-1.55,0.55c-0.39-0.06-2.08-1.25-3.24-2.79c-0.19-1.72,0.73-3,1.12-5.7c8.83,6.87,7.38,5.79,15.37,10.59
		c-0.81-1.93-2.24-1.93-2.85-3.16c0.47-0.1,1.19-0.16,1.42-0.2c1.56,1.99,5.99,1.78,7.24,4.07c2.94,0.79,6.39,0,9.77,0.31
		C523.38,33.15,521.28,32.62,517.51,33.03z M525.7,26.75c2.14-0.2,3.87-2.24,6.72-1.22C530.18,27.46,528.04,27.46,525.7,26.75z
		 M539.85,12.09c1.83,0.1,2.34,1.12,2.85,2.14C541.89,13.61,541.17,13,539.85,12.09z M545.76,16.97c0.71,0.36,1.33,0.7,1.02,1.63
		C545.62,18.18,545.67,18.19,545.76,16.97z M543.11,9.03c-0.07,0.22-0.41,0.75-0.41,0.81c-2.14-1.32-4.38-2.65-6.52-3.97
		C538.83,6.39,541.28,7.4,543.11,9.03z M529.67,5.27c-3.67-0.61-7.33-1.32-11.81-2.04C522.44,2.82,526.1,3.64,529.67,5.27z
		 M527.53,7.2c-0.51,0-0.92,0-1.63,0C526.61,6.79,527.02,6.89,527.53,7.2z M517.86,3.84c-0.33,1.28-3,0.85-3.67,1.63
		c15.57,3.57,8.36,0.34,18.02,4.68c10.74,4.83,12.29,8.92,8.15,5.91c-4.21-3.06-10.28-6.73-15.37-5.81
		c-1.65,0.3-2.9-1.37-14.87-4.79C512.56,2.62,513.78,2.31,517.86,3.84z M499.94,12.7c3.36-2.65,6.31-5.99,11.51-3.97
		c3.97,1.54,8.53,1.57,12.42,3.56c1.14,0.58,4.69-1.34,6.21,3.97c-3.5,0-5.91-2.7-5.91-0.31c-3.35,0-20.05-10.01-19.75-3.97
		c10.63,2.39,22.25,7.3,21.54,7.47c-1.62,0.25-2.92,0.26-3,1.89c8.14,3.2,12.61-3.21,9.47,2.55c-1.14,0,0.35-1.32-9.27,0
		c-9.49,1.3-18.19-7.62-21.02-8.24c-0.57-1.25-2.19-1.34-2.1-1.54C500.05,13.66,499.56,12.95,499.94,12.7z M529.84,18.32
		c-1.36,0.17-2.24,0.21-2.91-1.24C528.22,17.18,529.31,17.19,529.84,18.32z M499.02,15.76c-0.09-1.01,0.61-1.24,0.88-1.51
		c0.42,0.96,1.11,1.52,2.14,1.5c0.15,0,0.59,1.53,2.33,1.53c0.16,0.55,0.26,1.1,0.36,1.74c1.32,1.43,3.67,1.53,4.99,3.26
		c3.56,2.14,7.53,3.36,12.22,5.19c-5.99,1.23-6.61,0.58-12.01-0.61c0.1,0-0.65-0.84-2.43-1.22c-4.44-0.96-7.02-3.78-10.08-6.52
		c-0.31-1.02,0.01-1.73,0.81-1.93c3.79,3.03,11.86,8.2,13.53,7.22C511.26,22.6,505.66,22.19,499.02,15.76z M483.75,73.28
		c-0.43-2.75,0.18-3.6,0.18-3.48C483.89,70.46,483.75,73.23,483.75,73.28z M486.3,31.12c-3.48,29.08,1.6,23.25-2.21,37.77
		c0.27-4.36,0.1-9.11-0.33-12.63c-0.72,9.77-2.08,19.08-5.09,28.31c3.25-14.51,4.32-28.78,2.12-43.67
		c-1.72,7.39,0.28,14.84-0.92,22.6c-0.51-5.6-3.04-10.79-2.55-16.6c0.33-3.82-1.33-2.78-2.55-16.6c-0.57-6.48,2.92-13.95,7.84-16.19
		c0.51-0.61,0.92-1.22,1.43-1.83c0-1.73,1.93-1.73,2.44-2.95c3.97-0.99,7.58,0.04,11.51,1.22c0,1.54-1.08,2.66-1.92,2.94
		c0-0.11,0.07-0.32,0.05-0.62c-0.15-2.54-5.68-3.1-8.5-2.83c-1.12,0.61-1.93,2.04-3.46,2.34c-3.88,4.66,1.62-1.02,5.91,0.41
		c-0.24,2.49-9.13,3.77-8.25,17.72c0.92-5.55,2.74-11.61,7.03-15.28c1.32-0.31,2.04-1.83,3.56-2.14c1.04,0.29,2.24,0.55,3.46,0.43
		C496.15,17.48,488.08,16.24,486.3,31.12z M491.08,24.61c1.34,2.11-1.81,9.18,0.61,18.12c0.91,3.36,0.71,6.92,1.02,10.39
		C488.15,44.12,488.92,34.57,491.08,24.61z M491.28,54.14c0.2,1.36,0.51,2.1,0,2.95C490.88,56.28,490.88,55.46,491.28,54.14z
		 M490.37,95.88c3.46-0.51,6.7-0.18,9.77,2.14c3.14,2.37,6.61,4.29,9.77,6.72c1.82,1.4,21,21.52,20.81,21.62
		c-2.13,1.09-4.12,2.43-5.03,4.65c-3.34-1.29,3.8-2.06-18.12-25.66C496.04,92.94,481.57,104.78,490.37,95.88z M613.16,149.85
		c0.51-1.93,2.24-2.95,2.95-4.68C616.32,147.51,615.09,148.83,613.16,149.85z M612.41,143.05c0,1.05,1.58,1.38,1.67,2.41
		c-0.2,0.92-0.31,1.83-1.73,2.44C611.81,146.26,612.05,144.77,612.41,143.05z M603.39,136.92c-1.71,0.26-3.05-0.21-4.5-1.21
		C600.4,135.8,601.85,135.86,603.39,136.92z M598.76,140c-0.22-0.55,2.12-1.78,3.59,3.62c-0.66,1.98-3,3.1-1.83,5.6
		c1.83-0.51,0.92-3.16,2.75-3.46c0.88,1.09-0.48,2.02-0.1,3.36c1.27,0.18,2.16-0.46,2.02-2.16c-0.3-3.47,0.33-5.02-0.29-9.35
		c5.4,1.47,2.16,0.5,2.29,8.09c0.01,0.79,0.11,1.62,0.36,2.48c2.44-2.95,1.12-6.62,3.16-9.16c0.17,2.53-0.64,5.91-0.48,8.63
		c0.11,1.88,0.52,2.43,0.43,2.62c-0.63,0.83-1.81,0.07-2.39,0.97c0,0.41,0.82,0.93-0.51,1.53c-3.67,0.2-8.04,0.51-10.28,5.29
		c-2.12-2.97-1.53-5.43-3.87-8.54c1.02-1.32,2.44-1.53,3.67-2.44c1.1-1.39,1.52-3.38,2.39-5.09
		C599.76,141.85,599.73,141.9,598.76,140z M481.81,508.66c-5.2-41.85-1.01-47.91,11.61-76.06c-1.02-1.73-0.68-3.55-0.1-5.5
		c0.97-3.24,1.53-6.51,2.75-9.67c1.82-4.74-2.57-23.48-4.07-35.64c-1.23-9.95-1.78-25.4-2.75-38.69c-0.68-9.35-1.93-6.7-1.93-9.77
		c14.26-2.19,37.6-6.28,53.76-3.05c2.57,2.82-3.69,44.72-5.5,53.76c-7.05,35.15-1.17,31.82-6.21,42.46
		c-4.56,9.63-11.26,14.61-16.09,45.21c-0.57,3.59-13.6,38.94-9.57,75.24c-3.87,5.6-8.04,10.89-14.25,14.66
		c-0.71-1.02-1.43-1.83-1.83-2.44c-1.02-4.79,1.63-9.47-0.2-14.76c-2.06,6.18-0.62,10.51-2.34,15.17c0.41,1.53,1.63,2.34,2.65,3.46
		c-0.28,0.98-1.32,1.16-1.66,0.91c-1.94-1.48-1.55-3.49-2.51-8.64c2.93-3.49,1.19-8.38,0.2-16.9
		C481.63,520.09,484.49,530.25,481.81,508.66z M512.56,536.35c-4.78,1.66-2.72,7.79-6.84,7.83c-1.42,0.01-0.51-35.21,2.97-43.16
		c1.5-3.43,1.63-7.07,2.75-10.39C513.48,505.91,512.16,521.08,512.56,536.35z M555.12,587.99c-14.06,6.33-14.26,8.91-28.81,9.05
		c-30.31,0.3-15.05-3.62-32.17-6.62c-9.9,5.24-20.06,1.42-24.84-1.93c2.37-3.84,2.81-7.19,4.28-11.1c1.51-4.03-1.89-5.89,4.38-23.83
		c1.07-1.07,2.27-1.8,4.6-2.1c0.66-0.08,0-0.12-0.93,1.2c-2.4,3.44-0.64,21.99,11.08,10.57c3.2-3.12,8.07-6.89,8.65-8.35
		c1.1-2.76-2.22,0.36,7.03-8.04c5.38-0.92,6.99,5.19,8.35,8.35c-7.6,4.96-8.72,3.81-10.69,5.7c-1.42,1.36-1.37,2.59,0,3.87
		c4.07-2.14,8.25-3.87,12.01-6.52c0.72,0.82,0.79,1.43-0.2,1.83c-3.22,1.29-5.42,3.98-8.04,6.31c0.51,1.53,1.53,1.32,2.44,0.81
		c10.43-5.79,7.75-5.18,10.49-2.44c0,1.98-4.07,0.56-7.13,5.91c6.23,0.21,8.99-3.17,8.09-1.29c-0.31,0.65-0.91,1.13-0.76,1.81
		c7.67,0.25,4.63-4.37,7.53,0c-1.12,1.94-3.71,1.31-5.19,2.95c0.71,1.43,2.04,0.41,2.95,0.92c0.43-0.43,1.15-0.89,1.51-1.12
		c2.93-1.89,0.39-1.88,2.88-0.1c-1.4,0.65-2.89,1.86-4.48,1.73c0.2,0.51,0.3,1.14,1.12,1.22c2.34,0.25,4.38-0.61,6.11-1.93
		C555.33,583.21,547.57,575.92,555.12,587.99z M560.72,551.93c0,1.3-2.19,1.35-2.65,1.39C558.88,552.8,559.5,551.93,560.72,551.93z
		 M539.65,532.48c1.73,1.73,7.12,8.5,7.74,10.59c-1.05,1.05-1.27-0.63-1.77-0.83c-0.78-0.32-6.93,3.32-4.48,3.19
		c1.01-0.05,1.79-1.1,2.9-0.62c-0.41,1.22-1.83,1.73-2.14,3.26c5.14,0.73,10.68-3.47,9.9-2.42c-1.27,2.02-4.21,2.28-4.81,5.07
		c2.91,1.11,5.4-0.92,8.15-0.92c0.41-0.92,1.32-0.81,2.24-1.53c-0.42,1.06-1.05,1.53-2.24,1.53c0,1.67-5.79,3.93,0.81,3.59
		c4.22-0.21,0.03,0.47,0.31,2.62c2.47,1,4.82-0.49,7.03-1.53c1.24,0.83,0,1.43,0.1,2.14c1.83,0.92,0.64-0.29,8.45,1.53
		c5.2,1.21,10.18,3.16,15.48,3.46c4.57,13.2-0.95,8.8-12.93,13.44c-1.22,0.61-13.06,0.73-14.04,0.71c-5.52-0.07-7.07-0.7-8.64-0.69
		c-1.8,0.01-5.07,1-10.64-0.95c-7.19-2.51-10.03-7.17-12.39-8.25c-4.92-2.25-8.77-9.59-10.49-14.36c-1.43-3.97-3.67-6.92-7.94-8.35
		c0.51-1.43,0.71-2.75,1.93-3.87c6.89,17.23,23.72,14.12,24.33-4.89C537.61,532.99,538.73,532.99,539.65,532.48z M559.91,339.74
		c-0.8,4.93,0.49,11.05-2.44,26.37c-11.45,59.8-3.59,43.45-9.47,57.43c-6.16,14.64,1.75,8.33-6.62,47.35
		c-3.22,14.99-4.14,11.75-4.17,17.31c-0.05,8.86-1.79,17.61-2.55,26.37c-0.44,5.09-0.2,10.18-0.41,15.27
		c-0.71,17.21-0.57,13.8-9.98,18.33c-5.88-0.8-6.95-6.34-9.77-9.67c1.96-29.38-0.91-45.92-0.92-46.02
		c-1.2-17.1,2.01-13.38,3.77-27.08c0.72-5.6,3.68-10.59,4.48-16.09c2.26-15.51,12.91-21,13.34-33.29c1-28.53,0.34-16.12,1.73-24.13
		c2.04-11.73,6.61-20.01,7.13-44.39c0.14-6.72,0.51-13.44,0.92-20.26c4.07-3.26,9.57-1.83,13.13-4.99
		C559.96,322.78,560.51,336,559.91,339.74z M557.96,318.55c-4.38,1.73-8.25,4.48-12.73,6.01c-0.99-3.41,0.72-6.63-0.1-9.27
		c0.11,0,6.07-2.67,8.15-6.82c-0.1,0.1-4.55,3.87-7.74,5.29c-0.91-2.34-1.36-4.51-0.2-6.72c-1.81-1.81-1.92-7.88-3.46-11.61
		c-0.57,14.89,3.07,3.65-0.2,32.17c-3.36-1.63-6.62-1.82-9.98-1.73c-7.4,0.19-17.06-0.17-18.33,0.1c-9.19,2-18.83,1.54-27.58,5.3
		c-7.19-12.94-4-10.55-8.55-18.02c-3.53-5.8-5.67-12.91-5.19-21.08c0.62-10.63-1.18-12.9,3.36-21.08
		c7.63-13.74-0.77-3.16,16.09-1.93c4.25,0.31,11.82,2.78,23.11,1.93c6.4,4.57,15.81,2.26,24.64,3.46c4.4,0.6,9.8-1.91,12.41-0.62
		c0.38,0-3.22,16.09-3.25,16.2c1.99-1.29,1.56-3.63,2.94-4.8c-0.04,3.08-2.33,7.25-2.33,9.17c-0.35,0.15-1.98,0.9-2.04,0.92
		c-0.61,1.63-1.93,3.05-1.43,5.19c1.21-0.67,0.91-1.93,1.89-2.91c3.25-2.76,3.45-7.13,4.82-10.73c0.93-2.46-2.31,0.66-0.2-5.2
		C556.76,287.36,555.06,309.84,557.96,318.55z M553.7,234.56c0.1,12.12-0.1,24.13-2.24,36.45c-7.53,0.31-15.17,0.81-22.6-1.93
		c-0.55-1.25-0.77-3.79-1.48-5.61c-1.28-3.28-0.42,4.16-0.36,5.51c-12.67-0.55-36.96,0.71-45.92-8.25
		c3.81-6.63,13.75-14.21,14.66-17.72c1.91-7.39,4.89-14.66,4.07-22.2c2.04-3.16,3.98-5.79,6.82-7.74c1.86-1.28,6.21-4.92,6.59-5.44
		c-0.01,0.01-0.04-0.03-0.17-0.16c0.1-0.1,11.24-11.58,14.15-14.97c13.38,2.82,32.53-3.02,32.95-1.02
		C562.25,201.49,553.45,204.88,553.7,234.56z M560.71,189.34c-15.3-0.19-17.46,1.93-30.81,0.81c-0.21,0,15.17-22.46,15.46-23.2
		c0.6-1.54,1.63-3.06,3.77-4.48c14.14-9.42,13.44-8.45,17.72-9.88c0.22-1.77,1.43-3.2,2.44-4.79c6.61,4.41,7.29,19.89-6.41,32.17
		C562.68,185.25,560.81,189.35,560.71,189.34z M573.95,177.86c-3.86,6.11-9.87,10.78-10.68,11.6c-0.61-3.56,1.43-6.52,1.43-9.77
		c10.77-6.54,10.65-14.31,11.3-22.4c0.24-3.02-1.98-5.66-4.99-9.67c0.31-0.92,1.43-0.81,1.53-1.73c-0.53-0.71-1.48-0.3-2.3-0.69
		c-1.11-0.53,3.7-3.25,1.08-6.74c5.19-0.41,9.37,1.21,13.75,1.83c4.18,0.6,8.55-0.71,12.73,0.71c-0.42,2.1-0.71,3.63-2.04,5.8
		c-2.72-1.15-5.8,0.54-8.26-2.33c-2.13,1.12-4.47-0.19-6.5,0.8c-0.04,0-0.54-0.58-0.57-0.61c-3.35-3.66-8.46,2.08-1.38,6.83
		c1.17,0.78,2.66,1.32,3.67,2.34c-2.53,2.51,2.86-5.07-5.69,7.63c-0.21,0.3-0.2,0.71,0.1,1.02c4.03-2.48,4.68-3.61,5.6-8.64
		c0.38,0.27,1.02,0.39,1,0.57c0,1.53,3.81,6.58,5.5,8.48C582.47,166.94,575.83,174.87,573.95,177.86z M592.69,151.89
		c-0.3,0.6-0.86-0.13-1.78-0.38c-0.17-0.05-0.35-0.12-0.42-0.31C590.16,150.04,593.2,150.87,592.69,151.89z M587.91,149.75
		c-0.71,1.12-1.63,2.14-2.44,3.16c-1.63-0.92-3.16-1.93-4.78-2.75c-1.96-1.15-4.18-3.91-1.73-5.09c5.52,4.83,3.06,6.56,4.99,3.67
		c0.6,0,0.79,0.81,1.53,1.02C587.61,148.83,587.91,148,587.91,149.75z M586.79,153.82c3.36,2.65,4.38,6.11,6.01,9.16
		C590.45,160.44,587.2,158.5,586.79,153.82z M589.64,153.51c3.16,0.71,4.07,2.24,4.58,7.64
		C592.69,158.71,591.17,156.16,589.64,153.51z M602.57,179.89c-4.63-3.7-7.59-11.75-2.84-9.37c-1.35,2.63,0.13,4.4,2.04,6.41
		c0.99-0.64,0.23-1.26,0.26-1.83c0-0.1,0.04-0.2,0.03-0.2c-0.79-0.21-0.79-1.02-1.2-1.62c1.49,0,1.39,1.34,1.47,1.49
		C604.16,177.14,604.26,177.03,602.57,179.89z"/> <path d="M384.68,464.27C263.09,353.98,264.29,355.03,262.29,347.68c-0.83-3.05-3.36-4.48-6.41-4.99
		c-3.89-0.97,1.96,4.42-16.8-16.29c1.32-1.12,1.63-2.65,2.34-3.67c2.55-0.41,4.89,0.51,7.13-0.71c-0.75-3.02,1.72-2.32,3.97-6.82
		c0.72,0.84,1.08,2.48,1,2.57c-1.2,1.4-3.53,2.99-4.97,4.26c0.81,1.73,2.55,0.31,3.26,0.92c3.26,0.92,5.04-0.61,4.99-3.97
		c-0.08-5.42,3.33-3.45,7.13-3.67c2.86-1.43,5.73-3.76,4.68-6.82c-1.39-4.08-6.38-3.45-8.86-3.26c-1.22-2.04-4.15-2.45-5.09-4.68
		c-1.69-3.99-4.91-6.07-8.55-7.84c-20.24-9.84-10.33-45.01-23.83-72.8c1.63-6.11,2.88-12.21,4.89-18.12
		c0.72-2.13,1.61-4.27,1.12-6.52c-1.16-5.32,1.57-11.66,1.83-15.27c11.54-6.61,13.02-21.25,10.08-26.47
		c-9.51-16.9-15.22-11.99-23.62-22.71c-2.72-3.47-11.58-15.42-15.88-20.26c-1.93-2.17-9.57-8.97-9.57-10.18
		c-0.09-0.09-0.4-0.03-0.61-0.01c0-11.81,0.63-12.33,8.55-20.96c1.63,0.31,3.26,0.1,4.79,0.81c3.05,1.43,6.3,0.88,9.47,0.1
		c2.64-0.64,4.01-2.96,3.67-5.7c-0.09-0.71-0.31-1.43-0.51-2.34c1.83-1.32,2.24-3.16,1.02-4.99c0.76-1.66,2.32-1.16,1.83-4.79
		c-0.7-5.23,3.21-0.3,4.48-7.94c-1.83-2.85-3.26-6.01-3.46-9.67c4.21-3.01,0.56-0.99,0.41-2.95c3.56-2.55,4.06-6.41,3.16-10.28
		c-3.58-15.35-5.47-20.23-12.42-23.42c-6.16-2.83-15.81-8.53-30.34-7.33c-2.04,0.17-4.17,0.31-5.7,1.53
		c-3.35,2.66-7.53,3.87-10.39,7.13c-2.85-1.22-5.6-1.61-8.25-2.14c-10.07-2.01-10.46,5.73-14.76,10.28
		c-9.16,9.69-1.35,20.57-1.73,28.71c-0.19,4.07,0.51,8.15,1.32,12.22c3.41,17.05-4.52,24.8-2.34,27.29
		c1.93-1.53,1.73-4.07,3.46-6.11c-0.41,4.79-1.43,8.96-2.75,13.13c4.89-4.48,6.52-10.59,8.55-16.49c-0.1,4.42-2.31,19.08-7.03,26.07
		c5.8-3.36,12.73-17.82,12.73-26.17c-1.93,4.99-3.05,10.18-6.01,14.46c6.8-37.16,3.17-22.02,3.77-43.27
		c2.59,13.28,5.54,27.59,3.26,36.45c-0.47,1.84-0.41,3.46,0.92,4.58c-1.22,5.19-1.23,5.19-4.58,9.37
		c-24.58,30.63-8.67,55.4-6.82,72.7c1.94,18.11,13.65,21.19,15.07,51.62c0.11,2.34,1.63,4.48,1.53,6.82
		c-0.3,6.82-2.42,13.06-7.43,17.82c-10.79,10.23-19.59,24.8-19.24,40.12c0.13,5.88-2.4,3.74,0.41,14.25
		c4.13,15.46,14.66,31.88,15.78,40.42c1.94,14.77,1.37,20.89,2.34,27.49c3.28,22.35,3.05,29.12,4.38,36.96
		c2.29,13.52-1.08,13.67-1.12,19.45c-0.13,17.57-12.58,18.43-14.15,50.5c-0.63,12.89,2.35,34.1,3.56,44.19
		c0.95,7.94,0.22,15.91,1.43,23.83c1.41,9.29,0.58,3.03-6.01,8.45c-1.02,3.67-1.74,7.22-2.95,10.49
		c-2.76,7.45-0.67,10.79-2.14,14.66c-1.04,2.74-1.4,5.71-2.65,8.45c-0.7,1.53-0.2,2.95,0.81,4.58c8.35,4.58,17,8.25,26.47,1.83
		c9.33,4.98,9.16,5.93,22.71,7.13c17.64,1.56,24.92-2.82,38.59-9.57c2.82-1.39-2.69-9.54-4.48-12.12c3.97,0.61,7.74,0.68,11.4,0.31
		c7.68-0.79,2.98,2.37,22.2-3.56c7.52-2.32,5.49-8.05,4.48-14.76c-0.61-0.31-1.12-0.7-1.73-0.71c-5.09-0.1-9.78-2.1-14.66-2.75
		c-3.57-0.48-6.87-1.49-9.27-4.38c-0.37-0.45-6.32-6.6-11.51-8.55c-5.88-2.22-4.29-6.3-12.32-13.13c-1.43-1.43-2.25,1.43-3.97,0.51
		c-0.95-1.42,0.88-18.69,1.12-20.36c2.49-17.13-2-1.44,5.8-37.88c8.16-38.11,0.92-33.5,6.31-47.75c1.95-5.15,3.15-6.81,2.95-9.57
		c-0.29-4.07,0.41-8.14,1.32-12.12c3.17-13.84,4.3-28,6.72-41.95c1.75-10.08,1.73-20.47,1.32-31.26c1.53,1.43,3.26,0.81,4.89,1.22
		c14.14,12.07,13.91,11.33,15.68,14.46c3.28,5.79,8.65,8.86,15.48,11.3c0.1,0.1,119.01,110.45,120.66,111.59
		c0.92,0.64,2.57-0.2,2.24-1.83C386.41,465.69,385.48,464.99,384.68,464.27z M263.12,309.3c1.09,0.07,1.59,0.77,2.13,1.64
		c0,1.44-1.59,1.99-1.66,1.71C262.65,308.96,262.47,309.25,263.12,309.3z M248.14,318.16c-1.03,0.81-1.02,1.93-1.53,3.16
		c-2.94-0.52-4.85-0.4-4.28-0.58c5.22-1.6,5.43-6.8,7.74-10.52C250.82,313.39,250.71,316.14,248.14,318.16z M253.13,320.9
		c0.2-1.22,1.73-1.73,1.73-3.05C256.08,320.29,255.77,320.8,253.13,320.9z M255.06,314.9c-1.76-3.36-2.16-4.68-1.73-8.25
		c0.61-0.61,1.43-0.61,2.24-0.51C256.65,308.41,256.53,312.3,255.06,314.9z M219.32,247.59c0.05,8.87-1.26,14.65-2.04,23.32
		c-8.65,0.92-17.11,0.31-25.66-1.83c-1.57-27.42-1.67-16.87-3.77-28.92c-1.87-10.72-3.73-10.26-3.58-15.73
		c0.1-3.62,0.71-2.83,2.57-3.67c0.44-0.29-1.77-0.35-2.34-1.27c-1.22-5.64-1.9-9.79-2.03-10.18c2.45,0.43,2.48,0.91,4.89,0.31
		c-4.63-2.9-5.26-2.94-5.77-5.39c-0.4-1.93-0.03-4.14-0.22-5.71c0-0.67,2.48,0.51,4.57,0.51c-1.42-2.85-5.14-1.11-2.95-5.7
		c4.16,0.41,8.44-0.83,12.82-0.1c5.91,0.99,9.04,0.29,30.14-1.93C227.53,204.39,219.02,198.55,219.32,247.59z M223.19,312.86
		c-6.59,0-11.94,4.54-14.97-9.37c-0.25-1.14-1.78-6.96-2-6.19c-0.02,0.09-0.42,1.42-0.51,1.37c-5.1-2.62-6.61-3.24-7.37-5.06
		c-2.68-6.45-6.13-20.17-5.67-20.64c1.71-1.76,6.62,3.43,20.74,0.78c6.76-1.27,3.15,0.62,0.61,16.39c1.95-1.24,1.55-3.65,2.96-4.82
		c-0.01,0.01-0.01,0.01-0.02,0.02c0.07,0.04,0.12,0.07,0.18,0.1c0-0.29,0.07-0.37-0.08-0.2c-0.12-1.28,0.01-2.48,0.82-3.55
		C221.35,287.15,222.99,306.44,223.19,312.86z M220.68,280.64c3.46,5.02,8.63,18.72,11.58,30.49c-2.24,0.61-4.48,1.22-7.13,1.93
		c-0.92-5.6-0.51-11.1-1.32-16.39C223.05,291.78,220.37,280.03,220.68,280.64z M215.15,317.85c-1.02-0.1-1.32-0.81-1.73-1.83
		C214.92,315.94,215.27,316.49,215.15,317.85z M215.62,20.12c6.07-0.58,3.5,7.53,6.66,17.01c-0.61,1.83-2.24,2.04-3.56,3.16
		c-2.24,5.8,1.43,10.89,3.16,16.09c-3.3,3.3-4.1-1.93-6.92,1.63c0.41,1.32,1.32,0.51,2.14,0.92c-0.1,1.63-0.1,3.36,0.81,4.79
		c-2.42,2.93-5.35,0.64-8.34,1.02c1.32,2.65,3.77,1.63,5.6,2.14c3.41,2.43-0.25,3.11-0.71,5.09c0.77,3.43,1.25,3.83-1.22,6.31
		c-11.19,1.12-6.87-1.25-14.16-1.22c-1.74,0.01-8.16,6.58-10.88,13.34c0.2,2.82-0.78,6.83,2.25,9.98c0.23,6.7,4.73,4.11,19.23,25.96
		c0.75,1.13,1.37,1.94,0.71,3.36c-3.05-1.63-6.41-2.25-9.57-3.36c-4.57-1.6-14.61-13.47-22.81-22.3c12.27,0,10.85,0.06,10.61-0.1
		c-3.7-2.11-10.53,0.23-13.87-2.34c-3.39-2.61-7.54-4.17-11.1-6.72c-1.84-1.32-3.97-0.1-5.8-0.81c0.1-0.2,0-0.31,0.1-0.41
		c7.31-5.29,5.64-15.79,9.57-18.84c1.72-1.33,0.81-4.07,2.08-3.2c0.81,0.56,0.75,1.48,1.5,0.73c0.32-0.32-2.85-3.68-4.18-7.01
		c-1.58-3.95,3.26-2.35,3.26-5.8c-2.38-0.29-3.82-0.98-4.99-1.93c-0.61,0.7,0.29,1.37-0.31,2.04c-1.73-1.32-1.32-3.56-1.93-5.4
		c9.61,4.81,6.2,1.19,9.16,6.62c4.52,0.49,4.89,0.45,5.19-2.75c-0.69-0.34-1.25,0.46-1.98,0.72c-2.9,1.06-5.75-8.12-8.72-12.84
		c1.63-1.12,2.04,0.4,2.85,0.51c0.41,4.79,1.22,5.8,4.38,5.7c0-2.29-2.55-4.18-1.83-6.11c1.22-1.32,2.14-2.24,3.05-3.26
		c1.96,1.79-0.71,2.68-0.92,4.17c0.71,1.53,0.92,3.36,1.22,5.29c1.55-0.12,2.29-0.86,3.05-2.14c0.1-1.63-1.53-1.83-2.24-3.05
		c0.51-1.32,1.53-2.75,0.61-4.89c-5.81-7.57-5.28-3.09-8.86,1.53c0.28-5.82,6.28-10.38,8.55-5.09c0.92,2.15,3.65,5.03,5.85,4.4
		c0.78-0.22,1.62-0.82,2.7-1.85c-1.63-0.2-3.36,0.81-4.48-0.61c5.09-0.71,8.96-4.28,12.83-6.01c2.55-5.09,6.62-8.76,6.31-14.36
		c-1.42-0.6-3.4,1.16-4.73-0.85c1.53-0.19,5.98-2.55,9.62,0.63c1.24-0.28,2.31-0.83,2.85-1.97c0,0.05,0.42,0.3,0.46,0.33
		c4.42,2.89,3.64,2.52,4.22,2.16C213.11,19.91,214.37,20.24,215.62,20.12z M159.25,28.38c1.02,0.29,16.68,5.76,18.84,6.52
		c-1.85,1.66-3.14-0.32-4.59-0.41c-2.51,0-6.22,2.41-6.6,6.72c-0.13,1.42-1.12,2.34-1.53,3.56c0,2.85,2.04,4.68,2.75,7.03
		c-0.32,0.79-2.01-0.08-0.77,0.86c0.49,0.49,2.43,0.48,2.1,2.57c0,0.84-7.68-3.41-4.97-3.48c0.9-0.02,1.58,1.24,2.41,0.59
		c-0.92-1.93-3.26-2.55-4.38-5.19c0-0.41,1.22,0.31,1.32-0.61c-2.55-2.95-5.5-5.91-5.29-10.39c1.08-0.15,1.56,1.16,2.79,1.08
		c1.59-0.11-2.86-2.14-2.99-6.19c2.72,2.38,4.74,4.67,9.37,5.6C165.3,34.23,160.12,33.17,159.25,28.38z M176.85,29.96
		c1.02,0.48-2.55-2.32-2.79-2.81c-0.11-0.17-0.12-0.06,1.17-0.29c1.29,1.94,5.53,1.6,7.41,4.14c0.69,0.69,7.15,0.12,9.69,0.33
		c-4.92,2.46-7.61,0.82-12.22,2.24c-2.08,0.83-13.03-4.74-14.97-5.91c-0.71-0.1-1.02,0.81-1.83,0.51c-4.34-2.76-3.24-3.51-1.63-8.35
		C166.35,23.67,170.96,27.17,176.85,29.96z M191.43,26.95c2.04-0.61,3.77-2.24,7.03-1.53C195.8,27.46,193.67,27.46,191.43,26.95z
		 M160.06,77.05c1.03-5.4-2.22-9.96,2.85-13.13c1.88,5.44,0.23,19.38-3.26,24.03C160.06,84.07,159.38,80.62,160.06,77.05z
		 M162.19,62.5c-0.4,0.81-1.33,1.74-2.33,1.82c0-3.26,0.81-6.41,0.71-9.67c0.85,2.34,2.43,4.38,0.8,6.73
		C161.3,61.61,161.87,62.07,162.19,62.5z M161.08,48.23c1.32,0.61,1.83,1.32,2.34,2.55C161.69,50.78,161.69,49.56,161.08,48.23z
		 M167.4,68.9c0.41,1.73,0.51,3.05-0.51,4.28C166.89,71.74,166.67,70.43,167.4,68.9z M171.16,43.85c0.24-1.85,1.04-2.94,3.05-3.56
		C173.82,42.78,172.26,43.09,171.16,43.85z M211.18,16.77c0.81,0.4,1.28,0.85,1.43,1.73C211.18,18.91,210.97,18.2,211.18,16.77z
		 M206.39,11.99c0.81,0.61,1.53,1.12,2.95,2.14C207.41,14.02,206.9,13,206.39,11.99z M209.14,9.24c-1.58,0,0.32,1.56-7.23-3.26
		C204.56,6.39,206.8,7.4,209.14,9.24z M196.11,5.06c-4.48,0.2-7.94-1.63-11.81-1.63C188.17,2.82,191.83,3.53,196.11,5.06z
		 M193.16,7.13c0,0.18-1.25,0.01-1.43-0.03c0-0.06,0-0.14,0-0.2C192.94,7.14,193.16,6.81,193.16,7.13z M182.77,4.96
		c-0.81,1.32-2.44,0.92-3.97,1.53c16.71,3.52,9.17,0.56,18.33,4.68c1.39,0.62,10.28,5.24,10.28,6.76
		c-1.74,0.58-9.74-8.23-17.68-6.64c-1.3,0.14-5.08-2.06-14.69-4.7C177.41,3.81,178.65,3.4,182.77,4.96z M165.4,14.28
		c0.23-0.23-0.51-1.13-0.05-1.48c3.89-2.99,6.46-5.91,11.51-3.97c3.97,1.53,8.53,1.57,12.42,3.56c1.16,0.6,4.7-1.34,6.21,3.96
		c-2.84,0.27-6.22-2.85-5.79-0.32c0,0.49-9.16-3.21-14.08-5.11c-2.34-0.9-5.68-1.57-5.68,1.15c9.3,2.07,26.07,7.86,19.72,7.7
		c-0.75-0.02-0.78,0.55-1.19,1.57c3.45,1.33,6.87,1.21,10.28-0.1c0.64,0.64-0.61,2.48-0.61,2.75c-6.56-2.87-9.53,3.93-24.03-4.48
		c-1.37-0.79-2.46-1.94-4-2.39c-0.41,0-0.36-1.04-2.35-1.48c-0.41-0.92-1.35-1.23-2.3-1.55c0.53,1.3,1.3,1.63,2.29,1.63
		c0.42,1.02,1.18,1.51,2.24,1.52c0.16,0.55,0.26,1.1,0.36,1.74c1.32,1.43,3.67,1.53,4.99,3.26c3.56,2.14,7.53,3.36,11.81,5.09
		c-8.6,1.78-8.65-0.59-11.9-0.59c-1.95-2.33-3.22,0.84-11.76-7.04c-0.84-0.77-0.8-0.67-0.88-1.08c-0.09-0.52-0.05-0.9,0.35-1.24
		c1.24-1.06,5.01,4.98,14.2,7.21c-0.54-2.22-5.45-1.8-12.72-9.07C164.35,14.85,165.06,14.62,165.4,14.28z M194.74,19.34
		c-1.31,0.16-2.2,0.24-2.91-1.24C193.1,18.19,194.2,18.19,194.74,19.34z M149.37,73.28c-0.43-2.75,0.18-3.6,0.18-3.48
		C149.51,70.44,149.37,73.27,149.37,73.28z M151.92,31.14c-3.63,30.4,1.76,21.32-2.22,37.83c0.18-4.53,0.03-8.35-0.33-12.68
		c-1.45,14.3-2.27,23.92-5.4,28.31c4.48-18.17,3.97-30,2.44-43.69c-1.71,7.33,0.27,14.92-0.92,22.6c-0.51-5.6-3.04-10.79-2.55-16.6
		c0.33-3.82-1.33-2.78-2.55-16.6c-0.61-6.9,3.37-14.05,7.12-15.85c3.86-1.85,0.48-8.54,16.1-3.9c0,2.11-1.91,3-1.83,2.85
		c-0.03,0-0.05,0-0.08,0.01c0.49-3.07-5.72-3.67-8.57-3.26c-1.12,0.51-1.93,1.93-3.46,2.24c-3.88,4.65,1.73-1,5.8,0.41
		c0.15,1.68-5.13,3.15-7.23,9.66c-1.03,3.21-1.12,9.62-0.72,7.58c2.4-12.51,7.47-14.91,7.01-14.91c1.27-0.35,2-1.81,3.49-2.12
		c2.29,0.62,2.91,0.44,3.57,0.42c-0.51,0.15,0.77,1.06-1.73,2.84C154.66,19.97,152.63,25.23,151.92,31.14z M156.3,24.51
		c2.27,0.57-1.95,8.3,1.12,19.14c0.89,3.13,0.61,6.09,0.92,9.47C153.7,44.01,154.64,34.48,156.3,24.51z M156.7,56.89
		c0-0.71,0-1.43,0-2.14c0.61,0.1,0.41,0.61,0.41,0.92C157.11,57.53,157.19,56.89,156.7,56.89z M153.63,98.76
		c2.34-4.69,8.99-3.24,12.55-0.43c2.84,2.25,6.12,3.86,8.96,6.11c5,3.96,8.76,9.16,13.44,13.44c3.66,3.35,4.66,9.74,20.57,12.92
		c1.57,0.31,1.77,0.38,3.8-0.58c0.77-0.36,6.1,7.14,11.27,9.54c4.79,2.23,8.34,6.23,12.32,9.57c5.32,4.47,3.4,21.67-7.94,30.65
		c0,3.26-0.81,6.31-2.14,9.67c-18.57,0-18.49,1.21-24.57,1.21c-3.9,0-5.67-0.85-10.34-0.8c-2.86,0.03-3.55,0.36-4.95,0.38
		c-1.09,0.01-2.24-0.08-3.5-0.08c0-7.84-0.61-15.37-1.12-22.91c9.16-3.67,11-11.4,11.91-19.75c-4.8-18.49,1.93-18.25-20.67-42.36
		c-5.12-5.46-11.46-7.05-18.73-5.6C153.14,99.73,152.57,100.62,153.63,98.76z M160.98,210.74c0.46-5.25-6.48-20.34-8.96-24.64
		c-5.85-10.16-4.04-18.08-6.72-23.83c-1-2.15-0.9-4.89-1.53-7.23c-9.43-34.95,3.99-47.52,6.92-51.62
		c2.05-2.86,14.43-3.92,21.18,3.97c6.94,8.11,15.41,15.18,17.21,26.88c1.7,11.02,5.41,21.21-6.72,31.16
		c-1.47-7.33-0.86-10.08-2.34-13.95c2.34-4.48,4.48-8.86,3.46-14.56c-1.91,4.96-2.67,8.64-5.19,12.12
		c-0.1,6.62-0.22,13.44,0.71,20.26c2.79,20.37-0.44,28.76,2.04,44.29c0.55,3.46,1.36,7.01,0.61,10.69
		c-0.83,4.06,3.39,4.53,4.89,20.06c0.41,4.28,1.81,8.45,2.14,12.83c3.47,45.75,12.85,39.03,16.8,44.29c0,5.6,4.59,9.84,6.31,15.17
		c0.49,1.51,4.24,1.84,3.46,9.37c-2.79,0.29-5.19-0.5-7.53-2.14c-0.54-2.41-0.99-5.21-3.26-5.91c-2.44-0.61-4.38-2.24-6.82-2.75
		c-0.71,0.81,0.61,1.53,0.41,2.34c-2.16,0.09-6.59,0.4-7.54,0.4c-1.71-2.33,0.86-4.07,0.42-6.2c-0.38-1.84-1.32-3.87,0-5.4
		c-2.65-10.59-8.14-19.55-12.93-28.81c-9.09-17.58-13.52-43.65-13.75-46.23c0.35-0.09,0.68,0.07,1,0.12
		C169.06,232,159.4,228.85,160.98,210.74z M213.21,328.24c-0.41,1.12-0.81,1.73-2.04,1.73
		C211.69,329.15,212.09,328.54,213.21,328.24z M189.49,327.93c5.79-1.41,5.78-3.73,4.8-7.65c4.94-0.98,6.43-1.24,9.98,0
		c0.8,0.67,0.99,1.87,0.99,2.92c0,2.87-2.39-0.08-17.9,7.27c-3.32-0.74-6.94-2.09-6.66-5.47c0.1-1.28,1.46-4.71,2.38-4.71
		c0.61,0,1.22,0.1,2.04,0.1c0.61,1.93,2.55,2.44,3.87,3.26C190,325.18,189.39,326.61,189.49,327.93z M190.31,321.52
		c2.34,0.71,2.24,2.04,1.83,3.77C191.53,324.06,191.02,323.04,190.31,321.52z M198.55,329.15c9.58-3.45,6.3-3.19,11.3-1.53
		c-0.81,1.63-3.38,3.21-5.4,4.07C197.65,329.55,198.55,329.97,198.55,329.15z M163.22,239.25c1.83,10.49,5.5,19.55,7.64,29.12
		c-1.02,0.81-2.14,0.6-3.16,0.2c-9.41-3.68-12.95-0.93-20.67-7.74C148.23,255.76,160.35,248.48,163.22,239.25z M146.52,320.29
		c-2.63-8.13-8.78-12.16-8.65-26.88c0.16-19.45-0.25-14.88,6.92-29.22c8.13,6.73,11.11,3.88,21.13,6.61
		c0.56,0.15,3.29,1.24,6.16,0.52c1.22,4.79,4.47,8.66,6.52,13.13c1.21,2.65,2.57,5.07,4.48,7.23c3.36,3.82,6.93,16.38,4.79,26.17
		c-2.95,1.27-5.62-0.76-8.18,2.7c-1.3,1.76-2.09,3.87-1.6,6.67c-9.37-0.51-18.02,1.22-26.47,3.67
		C151.37,330.64,148.3,325.79,146.52,320.29z M145.3,482.08c-1.03-27.47,14.57-47.84,13.62-49.74c-0.98-1.61-0.72-3.34-0.18-5.14
		c7.99-26.96-1.5-10.79-4.17-86.55c-0.11-3.09-2.3-6.86-1.91-7.24c4.07-1.52,10-0.8,19.83-3.66c3.06-0.89,6.19-0.88,9.06,0.61
		c1.82,0.94,4.28,0.41,5.4,2.65c7.61-1.9,7.16-3.67,13.95-0.2c3.99,2.03,5.37,0.83,7.64-0.31c-2.55,6.72-1.84,13.03-2.55,19.24
		c-3.9,34.56-9.16,45.91-8.65,66.08c0.08,3.16-0.71,5.9-2.44,8.76c-2.34,3.87-3.97,8.25-6.82,11.91
		c-0.81,1.21-6.66,16.32-9.06,32.58c-0.33,2.25-12.26,34.91-10.39,70.46c0.1,1.83,0.81,3.67,0.51,5.8
		c-7.59,10.78-8.04,9.86-13.95,14.46c-2.13-3.04-2.25-2.04-2.3-4.56c-0.08-4.13,1.65-8.37-0.04-13.05
		c-1.59,4.88-0.98,12.96-2.24,15.48c0.33,1.63,1.99,2.35,2.55,3.46c-0.71,1.65-2.82,1.31-3.46-3.46c-0.33-2.48-0.8-4.3-0.69-4.4
		c2.18-2.71,1.63-5.74,1.3-8.93C149.92,542.77,145.45,486.14,145.3,482.08z M174.32,541.55c-0.51,1.32-1.02,2.85-3.16,2.65
		c-0.31-1.33-0.36-2.69-0.35-4.04c0.41-47.37,3.86-31.41,6.14-49.62c1.13,7.56,1.33,15.29,1.31,22.93
		C178.19,550.78,179.22,528.73,174.32,541.55z M220.75,588.17c-13.82,6.35-14.53,8.93-28.81,9.07c-30.91,0.31-15.29-4.15-32.17-6.62
		c-9.77,5.17-20.04,1.55-24.84-1.93c1.48-2.29,4.08-10.16,4.35-11.37c1.15-3.87-1.48-6.54,3.6-21.49c0.48-1.4,0.6-3.34,5.16-4.11
		c1.34-0.23-0.15-0.06-1.04,1.78c-1.81,3.75,0.02,21.09,11.44,9.95c5.26-5.13,8.44-6.91,8.81-8.85c0.35-1.85-0.92-0.46,6.87-7.54
		c4.55-0.78,7.08,3.92,8.35,8.35c-7.6,4.96-8.71,3.82-10.69,5.7c-1.45,1.38-1.38,2.6,0,3.87c4.07-2.14,8.25-3.87,12.01-6.52
		c0.71,0.81,0.81,1.46-0.2,1.83c-3.52,1.31-5.74,4.41-8.15,6.21c0.51,1.53,1.53,1.32,2.44,0.81c8.62-4.79,8.29-5.67,10.45-2.39
		c0.72,1.44-4.47,0.85-7.09,5.85c5.89,0,8.35-2.65,8.22-1.81c-0.14,0.89-1.08,1.41-0.89,2.41c2.24,0.2,4.17-0.51,6.11-2.24
		c0.47,0.65,0.86,1.22,1.3,1.86c0.85,1.24-3.99,1.84-5.07,3.13c0.61,1.43,2.04,0.41,2.95,0.92c0.98-0.97,2.55-1.44,3.05-2.34
		c0.75,0.75,0.35,0.44,1.32,1.32c-1.54,0.68-2.83,1.84-4.48,1.73c0.2,0.51,0.3,1.14,1.12,1.22c2.34,0.25,4.38-0.61,6.11-1.93
		C222.44,584.01,213.24,576.48,220.75,588.17z M226.45,552.14c-0.55,1.5-1.69,1.28-2.66,1.39
		C224.37,553.28,225.1,552.14,226.45,552.14z M205.37,532.59c2.13,2.21,5.85,6.8,7.74,10.59c-1.58,1.45-1.29-3.8-7.13,2.04
		c1.53,0.92,2.34-1.12,3.67-0.31c-0.4,1.13-1.92,1.51-2.04,3.16c3.58,0.5,9.82-2.39,9.98-2.55c-1.21,2.12-4.31,2.38-4.89,5.19
		c2.95,1.12,5.42-0.92,8.15-0.92c0.24-0.95,1.27-0.74,1.83-1.12c-0.2,1.12-1.12,1.02-1.83,1.12c-0.21,1.32-2.15,1.7-2.24,3.56
		c1.7,0.64,5.24-0.11,4.91,0.4c-0.35,0.84-1.62,0.97-1.56,2.46c2.55,0.92,4.89-0.51,6.92-1.63c1.32,0.93,0.12,1.52,0.31,2.24
		c0.6,0.89-0.45-0.63,8.35,1.43c5.2,1.21,10.18,3.16,15.68,3.46c0.7,3.1,1.98,6,0.78,8.89c-0.42,1.27-3.84,1.79-4.35,1.9
		c-10.87,2.35-9.35,3.04-11.81,3.05c-6.42,0.05-12.93,0.79-19.35-0.31c-1.83-0.31-3.67,0.3-5.5,0.2
		c-11.14-0.59-16.16-8.3-18.73-9.47c-4.92-2.25-8.78-9.59-10.49-14.36c-1.43-3.97-3.67-6.92-7.94-8.35c2.6-7.2,1.03-2.71,7.13,3.97
		c5.68,6.23,14.6,3.45,16.7-2.85C204.33,533.75,199.34,535.2,205.37,532.59z M217.49,398.9c-1.03,5.19-1.45,10.58-1.02,15.99
		c0.41,5.12-6.32,10.69-5.5,25.56c0.45,8.22-1.44,16.74-4.58,34.31c-1.33,7.44-2.9,5.04-3.46,13.64c-1.62,24.67-1.33,13-2.44,25.56
		c-0.65,7.32-0.14,20.95-1.08,25.84c-1.32,6.91-3.16,4.87-9.41,8.37c-6-0.91-7.03-6.32-9.88-9.77c0.97-13.07,0.88-27.63-0.92-46.02
		c-1.6-16.37,2.05-13.42,3.77-26.68c0.74-5.7,3.62-10.89,4.48-16.49c1.56-10.2,3.86-11.1,11.51-25.35
		c3.52-6.56,0.78-20.28,3.46-31.67c3.7-15.72,8.19-28.1,7.23-58.95c15.54-1.79,15.48-3.83,15.83-3.14
		C229.23,338.76,218.65,393.03,217.49,398.9z M218.8,324.37c1.74-0.5,3.32-0.61,5.2-0.1c0.61,1.12,0.31,2.14,0.2,3.46
		c-2.21,0.7-4.52,1.51-7.31,2.5C215.92,330.48,219.87,327.06,218.8,324.37z M226.45,327.32c-0.61-0.71-0.71-1.32-0.2-2.14
		C227.4,325.74,227.33,326.45,226.45,327.32z M227.67,323.25c-2.24-3.36-5.5-1.73-8.65-1.83c-4.79-10.79-3.29-3.25,10.49-7.64
		c7.66-2.44,13.58-1.31,17.18-5.16c0.28-0.35-6.16,1.65-11.78,2.21c-4.18-3.28,0.33-9.89-15.17-36.04
		c-0.9-5.76,1.49-10.68,1.93-15.99c1.29-15.43-1.46-40.53,1.43-31.87c7.99,30.17,7.4,57.43,14.56,61.09c0,1.24-1.23,0.83-1.32,1.63
		c0.68,0.69,1.87,0.01,2.85,0.41c7.46,6.49,10.79,3.99,13.03,8.86c0.9,1.94,2.34,3.46,3.77,4.99c2.57,1.03,1.72,1.31,4.89,7.64
		c-1.22,0.81-1.73,0-2.55-0.61c0-2.79-0.93-5.26-2.34-7.03c-1.02,0.31-1.93,0.51-2.85,0.71c-0.92-0.2-1.12-1.73-2.95-1.32
		c-1.47,0.74-2.4,4.41-2.3,4.36c1.78-0.53,1.39-2.33,2.81-2.83c0.79,0.89,0.83,1.89,0.61,3.05c-5.4,0.71-4.68,5.7-6.62,9.06
		c-13.39,2.97-12.29,4.16-15.88,3.77C227.88,321.41,228.49,322.53,227.67,323.25z M237.85,324.77c-0.71-0.51-1.12-1.12-1.22-2.14
		C238.19,322.86,238.78,323.32,237.85,324.77z M229.71,325.49c1.73,0.71,2.24,1.93,2.85,3.05
		C229.51,328.44,229.51,328.44,229.71,325.49z M230.73,322.23c1.21-0.6,1.94-0.32,2.34,1.02c0.31,1.02,2.15,0.83,2.24,2.44
		C232.56,325.79,231.95,323.65,230.73,322.23z M235.51,331.49c-0.12-0.09-1.88-1.05-1.04-1.48c0.19-0.1,0.36-0.03,0.55,0.06
		C236.14,330.62,235.51,329.58,235.51,331.49z M236.02,328.74c0.92,0.31,1.32,0.92,1.53,1.83
		C235.64,330.02,235.69,330.5,236.02,328.74z M237.55,327.84c-0.01-0.91,0.12-0.41,1.02,0.7
		C237.94,328.46,237.55,328.32,237.55,327.84z M260.87,353.28c-3.36-1.43-6.31-3.26-8.65-6.31c0.41-0.51,0.71-0.81,0.81-0.92
		c3.87-0.17,5.02,3.01,8.03,4.68C261.24,351.67,261.59,352.29,260.87,353.28z"/> <path d="M492.71,169.3c-0.31,1.93,0.31,3.56,1.22,5.09C494.13,172.66,494.34,170.82,492.71,169.3z"/> <path d="M489.65,158.71c-0.31,0.71-0.1,1.12,0.92,1.32C490.47,159.22,490.37,158.71,489.65,158.71z"/> <path d="M512.05,135.59c0.29-0.59,0.59-1.01,0.31-2.14C512.05,133.86,512.05,133.86,512.05,135.59z"/> <path d="M517.5,428.53c0.87,1.44,0.7,1.2,2.28-4.48c-1.88-0.72-1.53-2.86-2.65-5.09c-1.32,2.24-0.31,3.67,0.1,5.29
		C517.58,425.61,516.67,427.16,517.5,428.53z"/> <path d="M512.56,458.56c1.32-3.26,1.02-6.41-0.51-9.67C512.05,452.29,511.02,455.42,512.56,458.56z"/> <path d="M497.49,418.55c-1.12,2.24-2.34,4.38-2.44,7.03C496.78,423.54,497.7,421.3,497.49,418.55z"/> <path d="M489.13,462.44c-1.52,2.03-0.91,4.16-1.42,6.2C488.06,466.61,489.95,465.06,489.13,462.44z"/> <path d="M487.72,525.76c-0.71,1.53-0.71,2.85-0.1,4.58C488.92,527.81,488.95,527.83,487.72,525.76z"/> <path d="M487.41,518.43c-0.31,1.43-0.51,2.65,0.61,3.97C488.83,520.79,488.84,519.54,487.41,518.43z"/> <path d="M487.62,531.67c-0.51,1.93-0.81,3.05-0.2,4.38C488.33,534.22,488.33,534.22,487.62,531.67z"/> <path d="M487.52,539c-0.53,1.83-0.7,3.01,0.1,4.79C488.6,542.02,488.37,540.75,487.52,539z"/> <path d="M510.73,440.85c-0.11,1.99-0.04,1.98,1.03,3.26C511.93,442.71,512.04,441.57,510.73,440.85z"/> <path d="M507.57,433.11c0-1.29-0.36-2.17-1.53-3.05C506.25,432.29,506.25,432.29,507.57,433.11z"/> <path d="M509.42,438.06c0.04-0.23,0.97-1.52-1.03-2.91C507.77,437.17,509.42,438.16,509.42,438.06z"/> <path d="M517.25,434.53c0.61-0.91,0.3-1.43-0.61-1.93C516.03,433.7,516.31,434.12,517.25,434.53z"/> <path d="M487.92,325.38c1.45,0.29,2.14-0.52,2.95-0.91C496,322.06,491.52,322.02,487.92,325.38z"/> <path d="M493.12,322.64c1.53,0,2.34-0.92,3.26-1.83C495.15,321.21,493.83,321.41,493.12,322.64z"/> <path d="M547.28,305.94c1.02-0.2,1.83-0.51,2.34-1.73C548.3,304.21,547.69,304.92,547.28,305.94z"/> <path d="M520.85,541.51c1.99-1.62,2.08-3.54,0.26-5.76c-0.53,1.4-0.5,2.85-0.4,4.35c0.16,2.28,0.23,0.89-0.95,1.09
		c-2.35,0.4-0.9,4.12,2.47,4.12c1.38,0,2.59-0.19,2.85-1.53C524.38,541.58,521.9,543.02,520.85,541.51z"/> <path d="M521.73,529.23c-0.31,0.81-0.41,1.63,0,2.44C522.64,530.35,522.64,530.35,521.73,529.23z"/> <path d="M541.28,425.78c-0.94,1.6,0.28,2.76,0.72,2.76C542.42,428.54,543.11,427,541.28,425.78z"/> <path d="M541.28,417.73c-1.02,0.61-1.02,1.32-0.51,2.44C541.68,419.26,541.89,418.55,541.28,417.73z"/> <path d="M522.95,525.97c0.24-1.42,0.47-2.22-0.51-3.05C522.16,524.3,521.7,525.11,522.95,525.97z"/> <path d="M551.77,244.74c-2.24,2.04-2.55,2.85-2.44,6.62c0.06,0.09,0.61,0.45,0.71,0.51c0.42-0.41,1.58-0.99,2.14-2.34
		C551.87,248.1,552.9,246.5,551.77,244.74z"/> <path d="M520.91,252.89c1.65,2.24,2.82,3.92,4.99,5.7C525.24,253.98,523.68,253.07,520.91,252.89z"/> <path d="M551.65,233.3c-0.2-0.57,0.07-1.07-0.6,8.39c0.41,0,0.71,0,1.02-0.1C551.67,238.83,552.64,236.09,551.65,233.3z"/> <path d="M518.77,207.99c-0.96,0.96,0.11,2.61,3.05,1.63C520.97,209.1,520.03,208.11,518.77,207.99z"/> <path d="M513.39,207.73c0.84,1.12,1.36,1.82,2.64,0.97C515.35,207.37,514.43,207.46,513.39,207.73z"/> <path d="M517.86,245.86c0.31,1.32,0.71,2.24,2.34,3.16C519.79,247.29,519.38,246.47,517.86,245.86z"/> <path d="M509.7,216.1c-0.65-0.49-1.42,0.51-0.3,1.35c0.62,0.46,0.93,0.63,1.73,0.21C510.4,216.93,510.36,216.6,509.7,216.1z"/> <path d="M516.64,243.32c-0.1,0.61,0.2,0.92,0.92,1.12C517.55,243.52,517.14,243.32,516.64,243.32z"/> <path d="M527.12,201.88c-0.1-0.2-0.1-0.51-0.2-0.61C526.19,200.76,525.88,202.5,527.12,201.88z"/> <path d="M514.6,64.83c-0.75-3.38-0.07-3.97-1.02-4.68c0,0.1-0.9,1.04-0.92,2.92c-0.05,6.02,8.04,7.58,13.13,9.7
		C522.74,69.11,517.45,68.5,514.6,64.83z"/> <path d="M549.42,41.51c-5.83-1.32-12.82,2.68-6.97,2.68c1.94,0-0.46,2.11,4.24,2.62C546.06,44.36,547.59,42.94,549.42,41.51z"/> <path d="M551.66,39.99c-2.8-4.2-8.37-5.72-12.93-1.72c-0.99,0.75,4.41-0.82,5.79-0.82C550.54,40.45,550.47,40.78,551.66,39.99z"/> <path d="M506.55,72.99c-0.7-1.07-0.36-0.63-1.01-0.31c3.5,8.51,0.61,6.29,0.61,10.78C508.94,79.18,508.77,76.36,506.55,72.99z"/> <path d="M516.43,76.23c0.41-3.97,0.1-4.89-2.14-5.8C514.98,72.38,515.53,73.79,516.43,76.23z"/> <path d="M511.04,91.1c-0.41-1.53-1.02-2.14-1.93-2.65C509.1,89.78,509.81,90.28,511.04,91.1z"/> <path d="M519.79,81.83c0.2-0.71,0.41-1.32-0.61-1.43C518.54,81.25,518.94,81.45,519.79,81.83z"/> <path d="M514.27,574.27c-1.08-0.6-2.46-0.76-3.85-0.24c-1.3,0.48-2.01,1.58-2.8,2.58c-0.42,0.42-3.34-7.97-9.32-0.74
		c-0.15,4.19,2.09,5.85,4.65,5.77c2.75-0.08,3.97-2.75,4.26-2.46c2.69,2.65,1.85,3.81,8.91,2.7
		C515.46,580.02,518.16,576.44,514.27,574.27z M502.79,579.93c-3.59,0-3.1-6.25,0.81-5.01
		C506.09,575.71,505.65,579.73,502.79,579.93z M512.87,578.51c-1.04,0.19-0.26,2.19-1.1,1.91c-3.04-0.53-2.58-4.84,0.13-4.87
		c1.71-0.02,2.69,0.82,2.8,2.85C513.89,579.01,513.42,578.23,512.87,578.51z"/> <path d="M491.18,572.49c-0.14,0.91-1.27,7.86,0.24,7.84c1.46-0.02,0.48-2.14,2.1-2.24c1.3,0.31,1.35,2.27,2.75,2.65
		c1.65,0.44,0.69-1.19,0-2.75C500.4,574.74,496.33,571.02,491.18,572.49z M492.71,575.05c0.91-1.72,2.12-0.63,3.77-0.2
		C494.47,576.46,494.42,576.46,492.71,575.05z"/> <path d="M550.95,174.59c-7.35,5.21-10.48,2.03-11.51,3.05c4.29,2.34,7.18,1.06,12.52-1.83c5.1-2.76,12.02-8.72,10.89-14.36
		C561.66,167.04,555.62,171.27,550.95,174.59z"/> <path d="M183.89,429.34c2.01-6.02,1.45-5.28,1.04-5.58c-1.43-1.03-1.29-2.88-1.95-4.82c-1.61,2.09-0.41,3.74-0.1,5.41
		C183.27,425.96,181.87,427.94,183.89,429.34z"/> <path d="M178.6,458.77c0.71-3.46,0.61-6.62-0.81-9.77C177.07,456.12,177.07,456.94,178.6,458.77z"/> <path d="M163.12,418.55c-1.12,2.24-2.34,4.38-2.44,7.03C162.41,423.54,163.32,421.3,163.12,418.55z"/> <path d="M153.99,467.36c1.21-3.06,1.24-6.75-0.13-2.55C153.6,465.61,152.52,471.07,153.99,467.36z"/> <path d="M153.34,525.87c-0.92,1.32-0.61,2.75-0.2,4.58C154.57,527.8,154.57,527.8,153.34,525.87z"/> <path d="M153.14,518.54c-0.59,1.53-0.27,2.74,0.51,4.28C154.46,520.67,154.57,519.45,153.14,518.54z"/> <path d="M153.04,532.38c-0.2,1.22-0.61,2.34,0,3.56C154.16,533.91,154.16,533.91,153.04,532.38z"/> <path d="M153.14,543.48c0.81-2.24,0.81-2.24-0.1-3.97C152.73,540.73,152.53,542.06,153.14,543.48z"/> <path d="M176.36,440.85c-0.1,1.93-0.1,1.93,1.02,3.26C177.59,442.64,177.63,441.64,176.36,440.85z"/> <path d="M173.3,433.53c0-1.63-0.31-2.65-1.53-3.46C171.36,431.88,171.89,432.72,173.3,433.53z"/> <path d="M174.01,435.25c-0.4,1.2,0.19,2,1.02,2.95C175.54,436.77,175.13,435.96,174.01,435.25z"/> <path d="M182.87,434.43c0.66-0.91,0.35-1.45-0.61-1.83C181.74,433.55,181.77,434.13,182.87,434.43z"/> <path d="M162.3,212.47c-1.32,3.87,1.21,5.48,2.85,7.74c0.31,1.73,0.41,3.67,2.44,5.8C167.6,220.47,165.05,216.8,162.3,212.47z"/> <path d="M153.65,176.93c-0.75,0.75-1.51-0.5,4.28,6.01C157.32,180.19,155.89,178.26,153.65,176.93z"/> <path d="M175.85,148.22c3.11-2.42,1.48-5.28-0.51-0.31C175.44,148.32,175.64,148.42,175.85,148.22z"/> <path d="M168.82,227.64c-1.47,0.55-1.32,1.38-0.81,2.65C169.03,229.78,169.53,229.17,168.82,227.64z"/> <path d="M168.41,232.63c-1.02,1.02-0.81,1.63,0.51,1.83C169.43,233.85,169.64,233.24,168.41,232.63z"/> <path d="M196.41,312.86c-0.27,1,0.1,1.85,1.22,2.34C197.44,314.41,198.25,312.96,196.41,312.86z"/> <path d="M186.48,541.51c1.99-1.62,2.08-3.54,0.26-5.76c-0.53,1.4-0.5,2.85-0.4,4.35c0.16,2.28,0.23,0.89-0.95,1.09
		c-2.4,0.41-0.85,4.12,2.47,4.12c1.38,0,2.59-0.19,2.85-1.53C190.01,541.58,187.53,543.02,186.48,541.51z"/> <path d="M187.35,528.62c-0.1,1.32-0.71,2.14,0.31,3.16C188.37,530.75,188.68,529.94,187.35,528.62z"/> <path d="M206.9,425.88c-0.74,1.26-0.24,2.2,1.02,2.85C208.42,427.1,207.99,426.42,206.9,425.88z"/> <path d="M206.7,417.63c-0.61,0.81-1.02,1.53-0.31,2.34C207.11,418.96,207.11,418.96,206.7,417.63z"/> <path d="M188.17,523.22c-0.39,1.07-0.75,1.89,0.1,2.74C188.98,525.05,188.98,524.14,188.17,523.22z"/> <path d="M180.33,64.93c-0.81-4.03-0.22-4.19-1.02-4.79c-0.2,0.1-0.51,0.1-0.61,0.31c-3.07,8.2,8.65,10.46,12.83,12.32
		C188.47,69.31,183.48,68.6,180.33,64.93z"/> <path d="M205.78,43.14c0.71,1.83,2.34,0.51,3.26,1.32c0.81,1.53,0.81,1.53,3.36,2.55c-0.51-2.65,0.51-4.28,2.95-5.29
		C211.38,39.99,208.73,42.02,205.78,43.14z"/> <path d="M203.95,38.66c2.34-0.51,4.07-0.81,5.7-1.22c1.81,0.4,10.74,5.5,6.66,1.24C213.56,35.81,207.13,34.17,203.95,38.66z"/> <path d="M172.89,77.96c0.1,1.9-1.91,6.78-0.89,5.12c2.59-4.18,2.43-7.07-0.34-10.82C170.45,73.49,172.68,74.1,172.89,77.96z"/> <path d="M179.61,70.23c1.53,2.14,1.32,4.48,2.85,6.31C182.57,72.57,182.26,71.55,179.61,70.23z"/> <path d="M174.52,88.35c0.51,1.43,1.02,2.04,2.14,2.65C176.37,89.71,175.73,89.05,174.52,88.35z"/> <path d="M184.71,80.31c-0.62,0.8,0.04,1.15,0.61,1.63C185.72,81.02,185.72,80.41,184.71,80.31z"/> <path d="M205.83,177.93c6.52,4.32,25.23-8.67,22.76-17.19c-1.87,6.55-5.92,9.62-12.37,14.08c-1.65,1.14-3.52,2.28-5.47,2.78
		C206.65,178.66,203.86,176.63,205.83,177.93z"/> <path d="M215.25,251.77c1.22-0.41,2.14-1.02,2.44-2.04c0.2-3.16,0.2-3.16-0.61-4.99C214.54,246.68,215.05,249.22,215.25,251.77z"/> <path d="M217.38,241.69c0.27-3.18,0.88-5.83,0.2-8.65C217.28,235.89,216.46,238.74,217.38,241.69z"/> <path d="M192.14,202.08c0.11,0.09,0.49-0.13,0.61-0.2c-0.08-0.15-0.09-0.37-0.18-0.5C192.26,200.87,191.42,201.36,192.14,202.08z"/> <path d="M156.5,324.47c0.93-0.49,1.93-0.71,2.34-1.73c-0.31,0.06-1.32,0.11-2.59,0.75C154.89,324.19,151.8,326.95,156.5,324.47z"/> <path d="M158.74,322.64c1.53,0,2.34-0.92,3.26-1.83C160.78,321.21,159.45,321.41,158.74,322.64z"/> <path d="M177.27,573.42c-2.33-0.95-4.07-0.2-6.21,2.55c-3.06-4.75-6.01-5.11-9.37-0.51c0.31,3.36,0.8,4.3,2.75,5.19
		c2.73,1.25,4.58-0.51,6.41-2.34c1.74,3.57,4.39,3.72,7.16,3.23c0.1-0.02,1.39-0.19,1.39-0.3
		C179.72,578.14,181.16,574.99,177.27,573.42z M166.07,579.12c-2.8,0-3.65-4.56-0.1-5.09C169.32,573.53,169.63,579.12,166.07,579.12
		z M176.09,577.62c-1.36,0.68,0.05,1.48-0.67,2.21c-3.04-0.58-2.87-3.38-1.87-4.34c1.19-1.13,4.24-1.02,4.42,1.79
		C177.59,578.56,176.6,577.3,176.09,577.62z"/> <path d="M160.47,572.4c-2.1-0.94-4.04-1.15-6.31-0.51c0,7.23-0.4,7.6,0.86,7.63c1.21,0.03,0.47-2.01,1.78-2.14
		c1.41-0.13,1.45,2.77,4.08,2.66c-0.41-1.02-0.71-1.83-1.02-2.65C160.98,575.96,162.2,574.43,160.47,572.4z M156.2,573.72
		c1.43-0.41,2.44-0.41,3.26,0.61C157.75,576.33,157.51,576.26,156.2,573.72z"/> <path d="M242.13,308.28c1.32-1.32,2.04-2.44,0.61-3.87C242.64,305.63,241.32,306.45,242.13,308.28z"/> <path d="M244.98,304c0.81,0.92,1.53,1.02,2.65,0.41C246.61,303.7,245.9,303.39,244.98,304z"/> <path d="M232.05,286.49c-1.02-0.71-1.43-0.2-1.73,0.71C231.34,287.71,231.75,287.3,232.05,286.49z"/> <path d="M231.34,294.23c0.83,0.08,1.36-0.08,1.93-1.22C231.85,293.11,231.85,293.11,231.34,294.23z"/> <path d="M243.15,302.17c0.51-0.2,0.81-0.41,0.31-1.12C243.35,301.36,242.44,301.46,243.15,302.17z"/> <path d="M217.17,285.46c-0.19,3.23-1.92,5.91-2.41,8.97c-2.98,1.28-3.42,3.4-3.67,6.71c0,0.52,1.19-2.09,1.52-2.64
		c1.62-2.69,2.03,0.43,5.41-11.91C218.19,285.94,217.74,285.75,217.17,285.46z"/> <path d="M201.1,290.87c0.51,0.92,1.12,1.73,2.65,2.04C203.13,291.48,202.22,291.07,201.1,290.87z"/> </g> </svg> 