<?xml version="1.0" encoding="utf-8"?> <!-- Generator: Adobe Illustrator 23.0.1, SVG Export Plug-In . SVG Version: 6.00 Build 0)  --> <svg version="1.2" baseProfile="tiny" id="Layer_1" xmlns="http://www.w3.org/2000/svg" xmlns:xlink="http://www.w3.org/1999/xlink" x="0px" y="0px" viewBox="0 0 900 600" xml:space="preserve"> <g> <path d="M609.28,54.82l0.1-0.1C609.21,54.72,609.25,54.73,609.28,54.82z"/> <path d="M580.06,107.35c0.75-21.29,0.5-27.05,0.5-33.32c-0.32,1.13-0.07-0.85-0.2,20.61C580.35,96.63,579.13,102.84,580.06,107.35z
		"/> <path d="M598.87,57.72c-0.04,0.02-0.14,0.06-0.1,0.1L598.87,57.72z"/> <path d="M634.9,336.21l-0.1,0.1C634.91,336.31,634.82,336.37,634.9,336.21z"/> <path d="M783.8,537.36c1,0.8,1.8,1.4,2.5,2c1.2,2.4,0.4,5.1,1.2,7.31c3.3,4.24,24.85,1.09,27.62,0.3
		c34.37,12.98,26.91,9.21,28.42,7.41c5.31-6.38-0.9-1176.04-0.9-3c0,2.24,2.17,3.56-26.92-6.6c-2.25,0-4.35,3.24-2.5-4.6
		c-0.8-0.9-0.3-2.5-1.5-3.3c-1.8,0.4-0.9,2.3-2.1,3.2c-8.66,1.73-9.59,0.66-11.41,3c2.6-0.8,4.5-0.45,6.4-0.3
		c1.8,0.14,3.8-0.6,5.5,0.2c1.18,3.95-0.93,2.74-18.81,3.6c-0.8,0.1-1.5-0.2-2-1.4c0.82-2.85-1.74-5.88,0.7-7.51
		c-2.7-0.8-2.7-0.8-4.8-2.9c-2.6,0.7-5.4,1.1-8.31,0.4c0-1.1-0.53-1.77,0.5-2.8c1.75-0.47,3.61-1.59,4.72-2.71
		c1.13,0.98,2.26,0.87,3.48,0.31c1.1-2,1.13-4.1,1.1-6.1c-0.12-8.75,0.56-18.42-2.8-22.62c-2,0.5-3.71-0.46-5.6-0.7
		c-2.01-0.26-4,0.2-6.1-0.5c-0.3-1.3-1-2.6,0.2-4.1c4.4-0.9,8.9-1.2,13.51-0.8c1.02-1.09,1.93-3.98,5.91-1.8
		c5.55,3.04,11.17-1.88,11.11,2.4c-0.17,10.75-1.84,26.42,0.5,28.42c2.4-0.9,5.1-0.3,7.71-0.8c2.6-0.5,5.2-0.9,8.01-0.2
		c0.1,1.6,0.2,3.1-0.4,4.7c-5,0.4-10.01,0.7-15.11,1.1c-0.4-1.7-0.6-3.3-2.1-4.1c-1.3-0.6-2.5-1.66-4.2-1.5
		c-2.8,0.26-4.77,2.31-5.4,5.5c-0.66,3.31,0.1,4.6,4,6.4c-1.62,1.28-2.41,1,0.6,2c-0.13,0.97-5.3,1.03,13.41,0.8
		c0.3,0,0.6-0.3,0.5-0.7c-3.32-1.88-8.79,1.62-6.8-3c0.4-0.8,0.1-1.9,1.1-2.4c4.6-0.4,9.31-1.15,14.01-1.1c1.3,0.01,2.5-0.3,3.3-1.8
		c0.17-3.16,0.82-6.35-2.6-6.4c-12.44-0.21-10.97,1.14-13.71-0.4c0-14.87-0.3-15.93,0.3-19.41c0.31-1.81-0.04-7.82-1.1-9.31
		c-0.5-0.7-1.3-1.2-1.7-1.5c-0.4-7.31-0.2-285,0.2-288.2c1.5-0.6,2.51-1.9,3.4-3.3c1.01-1.59,0.3-3.2-0.4-4.6
		c2.9-4.36,0.57-6.55,1.3-8.01c2.51-5.86-1.91-5.41-0.4-8.61c0.46-0.98,1.28-1.38-1.5-5.9c-4.36-7.08-2.8,14.52-2.8-131.09
		c0-2.26,0.19-4.7-1.2-4.7c-2.02,1.16-0.19,126.25-1.1,131.69c-0.8,0.2-1.4,0.71-2.2,0.5c-1.5-0.39-1.8-2-2.7-2.9
		c-0.7,0.1-1.3,0.4-1.9,1.3c-0.5,0.6,0.3,1.9-0.6,2.8c-2.34,1.41-1.63,8.33-1.8-128.29c0-3.32,0.08-4.1-0.9-4.1
		c-2.96,4.65,0.2,133.24-1.6,136.4c-5.59,3.47-9.29,11.79-11.91,12.21c-3.2,0.52-6.3,1.8-9.71,1.8c-37.36,0-6.75,1.1-43.63-2.7
		c-7.45-0.77-18.27-3.4-22.32-4.6c-7.44-2.21-7.67,0.52-13.81-2c-5.34-2.19-8.5-1.9-10.81-5c-0.9-1.2-2.5-1.8-3.1-3
		c-0.2-1.6,1.2-2.5,1.1-3.9c-1.21-3.62,0.21,0.96-2.2-9.91c-0.84-3.78-1.42-2.76-6.6-9.61c-4.55-6.01-8.06-8.19-9.91-10.51
		c-14.27-17.95-18.36-17.4-20.21-26.92c2.88-4.53,0.24-8.53,3.4-12.61c1.5-1.93,1.93-5.86,7.81-5.4c2.2,0.17,4.3,0.1,6.5,0.1
		c2.5,0,4.8-0.5,6.7-2.4c0.8-2,0.5-4.2,0.2-6.4c2.41-3.79,2.08-2.87,1-6.1c0.4-0.8,1.62-1.2,1.8-2.3c0.23-1.4-1.2-2.9,0.2-4.4
		c1.6-0.8,3.7-0.7,4.9-2.1c1.67-3.75-7.8-11.51-4.7-19.01c0.5-1.2,0.92-2.4,0.7-3.7c-0.75-4.51-1.13-9.1-2.8-13.41
		c-2.43-6.26-2.68-8-5.1-10.11c-8.08-7.04-6.79-5.15-15.31-8.81c-4.4-1.89-4.4-0.77-10.81-0.4c-7.28,0.42-17.94,2.32-23.22,7.41
		c-2.57,2.48-5.73,2.94-7.91,8.21c-2.5,1.25-1.02-0.31-8.81-2.1c-18.25-4.2-13.63,25.79-15.11,36.73c-0.74,5.48-1.3,16.22,0.6,24.12
		c0.45,0.18,0.81,0.29,1.1,0.45c0.2,5.98-0.3,12.18,1.3,18.86c0.97-41.85,2.15-23.93,1.9-39.13c-0.09-5.24-1.41-3.06-1-5.8
		c0.45-3,0.2-6.1,1-9.01c-0.4-0.6-0.7-1.1-1-1.6c1.84-19.09,3.28-24.47,10.51-22.42c1.12,0.32,2.47-0.28,3.41,0.8
		c-1.96,0-1.1-0.28-1.1,1.4c-0.9,0.9-2.8,0.3-3.5,2.1c1.33,0,2.7-0.6,3.9-0.2c1.2,0.3,2.4,1,3.9,0.4
		c4.21-9.36,23.29-11.85,25.88-14.39c0.02,0,0.09-0.02,0.22-0.02l-0.1-0.1c-0.07,0.07-0.11,0.1-0.12,0.11
		c-3.22,0.1-14.43,4.01-18.18,5.88c-0.12,0.12-0.52-0.04-0.9-0.1c8.3-7.4,13.42-7.5,29.22-10.41c4.15-0.76,8.32,0.09,12.2,1.7
		c-1.14,0.58,1.97,2.05,2.51,3.5c-4-1.7-7.71-3.6-12.01-3.2c-0.17,1.68,2.9,0.25,10.61,4.7c7.97,4.61,6.41,6.72,7.57,6.57
		c1.49-0.19,1.2-0.19,1.56,0.04c2.25,1.46,2.57,1.53,2.78,2.39c3.93,11.18,1.51,11.62,3.9,16.41c-2.7,6.5-1.56,7.19,0.5,12.21
		c1.02,2.49,2.3,4.8,4.2,6.8c1.17,2.34-5.78,2.28-8.31,3c0.47,2.04,3.53,0.25,2.7,5.6c-1.7,1.6-4,0.9-5.9,1.6
		c-0.2,0.3-0.3,0.6-0.5,0.9c1.38,1.58,2.91-0.1,4.3,0.1c1.06,0.49,1.54,1.59,0.9,2.5c-3.35,4.76-0.6,7.7-2.6,9.71
		c-2.63,2.19-13.82-3.19-18.51,3.3c-5.17,7.15-2.94,7.61-4.2,9.61c-1.54,2.44-1.7,5-1.2,7.31c0,2.96-4.85-0.94,5,12.21
		c1.45,1.09,0.55,0.66,0.28,0.39c-1.14-1.03-0.67,0.09-2.18-1.19c-6.52-5.55-15.2-14.07-25.82-17.49c-8.21-2.65-9.31-0.18-6.8-4.72
		c4.1-7.45,3.8-16.28,3.8-24.22c0.6-0.8,1-1.2,1.4-1.7c-1.44-2.89-3.95-3.46-7.61-7.91c-1.25-1.52-4.03-6.35-2.22-7.34
		c-2.86-4.3-1.47-9.97-2.78-13.98c-0.56-1.72-0.2-3.7,0.4-5.5c2.96,1.19-0.39,10.17,12.31,16.41c0.16,0.08,0.39,0.03,0.57,0.01
		c-0.27-1.11-4.62-3.66-5.16-6.07c1.56,0.59,3.02,1.17,4.49,1.76c1.81,0.6,1.65,0,2,0c-3.1-2.41-6.74-4.23-9.11-7.61
		c1.37-0.22,2,1.05,4.7,2.4c3.93,1.96,4.01,2.1,4.8,2.1c-0.09-0.88-0.83-1.03-1.4-1.4c-12.65-8.36-9.86-7.47-13.51-9.3
		c-1.91,0.52-2,4.44-2,6.4c0,9.96-6.1,7.9-6.1,38.93c-5.56-11.35,1.21-26.09,0.4-27.72c-2.81,4.68-5.82,19.11-2.8,30.82
		c0.84,3.25-0.4,8.89-0.9,11.61c-0.85-0.45-0.02-1.62-0.7-2.2c-1.15,4.51-1,10.06-2.4,14.31c-0.43-2.55,1.7-14.51,1.7-36.73
		c-1.49,0.21-0.64-0.68-2.3,26.22c-0.19,3.11-1.16,8.74-0.7,10.5c1.89,7.15-0.92,11.8,0.2,13.11c1.23-1.73-0.12-1.12,3.6-9.11
		c0.35-0.06,2.48,1.96,2-2.3c-0.46-2.3-1.05-2.63,0.7-3.5c0-5.56,2.02-6.45,3.3-14.81c0.15-1,1.77-13.39,1.5-15.91
		c-0.77-7.17,1.35-16.86,2.8-19.61c1.52,0.51,0.33,3.99,4.1,9.21c5.47,7.56,7.65,7.06,7.51,10.21c-0.26,5.59-0.64,19.69-4.1,24.12
		c-6.38,8.15-9.48,15.53-10.21,16.41c-2.07,2.51-2.13,5.39-3.4,8.81c-1.69,4.55-1.52,7.94-1.4,13.21c0.38,16.99,1.38,8.81,2.9,18.71
		c2.63,17.11,9.37,31.51,17.21,51.04c3.69,9.18,0.43,16.95,0.6,25.22c0.1,4.99-12.67,19.79-14.81,21.21
		c-4.63,2.71-12.18,9.99-12.31,10.21c-6.01,10.64-8.67,4.42-9.21,30.02c-0.22,10.59,1.17,12.03,1.6,15.51
		c0.93,7.46-3.44,9.1-8.31,19.11c-3.19,6.55-6.69,12.16-8.31,18.41c-0.72,2.8-19.62,55.6-19.71,56.04
		c-0.52,2.36-2.29,2.83-10.01,13.31c-1.95,2.65-6.8,4.4-8.81,4.9c-17.02,4.28-23.82,14.89-36.23,28.92
		c-5.29,5.98-5.01,5.07-4.48,5.68c1.96,2.31-1.73,1.68,24.4-20.69c9.79-8.38,26.27-16.51,26.52-16.51
		c8.85-2.95,9.21-11.82,11.21-13.91c4.19-4.38-1.46,2.76,21.11-58.64c10.99-29.89,14.81-25.85,14.81-32.72
		c0-1.83,1.28-5.37,0.2-9.41c-1.3-4.85-1.64-25.17,2-30.42c2.18-3.14,8.34-12.53,13.91-15.41c7.6-3.93,10.03-8.86,10.81-7.31
		c4.73,5.45,11.11,9.61,19.11,11.91c5.8,1.67,10.53,5.36,16.51,6.6c2.68,1,0.72,3.84,2,6.5c1.6-1.6,0.3-3.6,1.4-5.3
		c1.2-0.21,13.31,1.68,13.41,1.7c1.79,2.99-1.48-0.83,2.2,20.91c2.22,13.14,4.07,15.35,5.6,32.62c0,3.2-1.11,2.32-22.52,9.01
		c-5.77,1.8-4.43-0.8-5.2,1.6c11.58,0.36,20.53-3.58,27.22-5.8c1.2,0.7,1.11,1.8,1.2,2.8c0.2,2.23,2.41,19.95-0.4,39.23
		c-0.39,2.66-1.24,13.62-0.8,16.31c1.36,8.27,0.03,20.52-0.1,20.91c-0.7,0.8-1.7-0.4-2.8,0.6c-1.4,2.4-1.6,5.9-4.2,8.01
		c0.48,0.64,0.66,1.11,1.5,0.9c2.38-1.7,3.9-4.22,5.2-6.5c2.2,3.8,2.76,6.61,2.1,10.21c-0.3,1.63-0.19,4.66-2.2,9.11
		c-4.47,9.88-0.86,9.49-4.5,23.42c-1.61,6.15-1.09,10.15-4.1,19.31c-6.18,18.77-3.51,13.63-8.91,44.23c-6.9-0.6-13.61-1.7-20.21-2.4
		c-0.27-0.36-0.53-0.56-0.58-0.74c-0.05-0.1-0.91-10.13-0.12-15.97c0.49-3.6,0.21-7.41-0.4-11.01c-1.08-6.31-1.4-12.61-2.3-18.91
		c-0.39-2.71,3.03-22.61,3.4-24.52c3.14-15.93,6.08-16.3,7.21-21.21c5.24-22.98-8.24-36.32-16.21-58.24c2.39-4.57,3.37-6,3.63-6.33
		c-0.01,0.01-0.01,0.02-0.02,0.02c5.4-8.1,5.82-17.53,12.31-24.22c0.49-0.51,0.9-1.2,1.3-1.8c0.89-1.31,1.5-2.6,1.1-4.3
		c2.06-2.06,1.52-1.69,7.81-12.41c0.48-0.96,1.32-1.75,1.12-2.96c0,0-0.01,0-0.01,0c0.01-0.01,0.03-0.02,0.07-0.03l-0.1-0.1
		c0.02,0.1,0.02,0.13,0.02,0.14c-2.85,1.04-5.39,5.81-8.21,10.57c-0.9,1.35-0.2,1.23-1.08,3.14c-1.09,2.35-0.63,0.44-7.33,10.97
		c-4.53-0.16-6.04-2.12-14.01-5.1c-11.11-4.15-16.57-5.71-19.91-7.61c-13.14-7.45-13.38-8.95-15.01-7.91
		c0.9,1.8,11.69,10.74,21.31,13.81c12.24,3.91,16.84,7.09,23.12,7.21c1.57,0.03,1.64,0.11,3.4,1.2
		c-5.19,18.83-35.75,53.59-39.83,60.04c-6.56,10.38-26.72,25.75-27.82,33.42c-3.76,3.29-6.72,4.72-8.31,6.5
		c-3.26,3.69-13.6,10.31,7.31-3.4c2.71-1.78,2.19-4.09,5.4-7.31c3.08-4.1-0.43-2.07,9.61-12.11c8.35-8.35,9.21-8.3,9.21-9.51
		c0.11-1.7-0.19-0.68,16.41-19.41c10.71-12.09,14.7-20.47,16.41-20.81c3.94,7.88-4.6-5.52,12.4,29.13
		c2.61,5.31,3.4,15.78,2.96,21.69c-1.15,15.51-5.78,5.96-10.67,48.17c-0.64,5.51,1.39,6.9,1.1,16.71c-0.26,8.78,0.32,5.86,0.5,15.29
		c0.23,12.13,1.55,17.14-1.99,16.63c-13.35-1.92-86.56-10.69-86.66-10.71c-3.94-2.19-3.24-4.75-10.21-1.7
		c-6.36-1.06-5.34-3.05-10.51-2.8c-7.41,0.36-7.68-2.35-15.51-1c-1.2-1.3-2.7-2.2-4.6-2.2c-1.57,0-5.36-1.93-7.63,0.04
		c-0.24,0.16,0.11-0.21-0.38-0.94c-0.7-0.2-1.4-0.5-2.1-0.7c0-1.69,16.91-13.94,19.61-15.11c8.42-3.65,27.55-19.57,27.92-19.81
		c7.22-4.64,12-11.43,14.75-14.04c-0.28,0.22-0.87,0.62-1.33,0.82c-3.44,1.25-5.6,4-6.2,4.3c-4.32,2.19-7.93,6.03-13.31,10.61
		c-3.88,3.3-0.98,0.94-8.01,4.9c-11.07,6.25-8.53,6.81-24.92,17.41c-14.2,9.19-11.71,12.31-15.21,7.91c-0.1-2.3-0.4-4.7-1.1-7.21
		c-2.8-3.2-6.3-6-7.71-10.61c10.9-14.83,12.14-14.31,11.71-15.81c-1.64,0.58-0.81,0.26-13.81,13.61c-1.65,0-6.95,1.71-8.51,5
		c-2.58,5.44-6.19,5.4-7.61,9.41c-0.2,0.7,0.4,1.5-0.2,2.6c-7.79,8.34-3.13,4.65-6,3.6c-1.3,0-2.8-0.9-4.4-0.7
		c-2.88,1.44-12.11,14.97-19.41,19.61c-0.91,0.58-1.9,1.1-2.4,1.9c-0.6,1.1-2.3,0.8-2.4,2.2c0.5,1.4,1.6,2.4,1.9,3.8
		c0.5,2.3,1.8,4.2,3.5,5.8c4.09,4.49,4.8,5.18,7,6.2c14.91,6.93,13.36,5.29,16.31,7c7.82,4.54,3.81,4.74,4.8,6.3
		c3.08,4.86,3.96,3.62,13.61,11.81c5.38,4.57,8.22,2.55,14.01,5.5c6.04,3.08,8.69,0.97,12.51,4.6c3.5-1.1,4.5-4.2,5.9-7
		c-0.4-1.2-0.2-2.5-0.1-3.6c-1-2.3-3-3.7-4.2-5.5c-0.3-0.8,0.11-1.61-0.5-2.3c-2.57-2.93-6.2-4.9-8.01-8.71
		c0.6-3.2-0.69-6.11-1.8-9.11c-1.67-4.51-0.01-3.32-2.9-9.71c-1.37-3.01-2.5-7.96-1.6-11.41c0.42-1.6,1-3.49,0.1-5.19
		c1.26,0.06,2.44,1.16,3.9,0.79c1.3-0.32,2.4-1.4,3.2-1.4c7.31,2.2,13.81,2,20.21-1c18.79,10.52,17.43,0.26,20.91,2
		c1.47,4.42,3.74,5.93,9.51,4c1.43-0.48-5.55-3.26,87.56,10.31c3.89,0.57,1.62,0.51,2.2,25.72c0.11,4.6,2.07,4.11,2.4,0.9
		c0.89-8.68-0.71-21.81,1.3-25.82c6.6,0.8,13.21,1.7,19.71,2.5c1.84,0-0.87,8.8-0.6,20.21c0.05,2.1-0.1,4.1-0.7,6
		c-2.8,3.3-9.91,7.51-12.01,7c-3.99-3.33,0.53-3.58-3.1-8.81c-0.9,0.4-0.7,1.5-1.2,2.2c-0.5,0.8-1.7,0.7-1.9,1.7
		c-0.6,1.3,1,2.5,0.2,3.9c-2.1-1-2.16-1.01-2.5-2.9c-0.25-1.42-1.58-1.75-2.6-3.6c-0.2-0.5-0.7-0.6-1.4-0.4
		c-10,13.99-1.93,16.47-9.21,33.92c-0.5,0.7-1.6,0.7-1.5,1.7c4.51,4.39,21.39,7.99,24.52,5.9c3.78-3.36,4.22-0.89,11.51-3.1
		c4.61-1.4,4.15-1.12,9.61,1.6c2.4,1.2,4.8,1.8,7.21,0.6c3.7,1.1,7.21,1.11,10.71,0.3c3.6-0.84,5.41,0.29,11.31-0.9
		c11.31-2.28,13.74-5.4,14.91-5.4c1.5-0.3,2.4-1.3,3.2-2.6c-0.9-4-1.8-8.11-3.5-12.21c-6.19,0.39-15.59-3.18-18.61-3.7
		c-10-1.74-25.27-25.62-28.62-25.62c-4.64,3.32-4.71,7.43-2.2-14.11c0-2.16-2.16-1.88,52.84,4.9c45.73,5.64,41.43,4.2,37.53,8.01
		c-6.7,6.54-5.52,19.26-0.4,27.72c2.29,3.79,1.8,3.91,3.8,5.6c2.71,2.28,7.93,5.36,11.71,4.8c5.51-0.81,13.31-2.7,14.31-8.21
		c-0.96-0.48-13.72,12.2-26.42,0.6c-1.89-1.73-1.78-2.25-3.8-12.21c-1.27-6.25-1.67-14.09,3.5-18.11c1.69-1.32,2.48-3.44,4.3-4.7
		c2.45-1.7-0.82-9.54-3.8-11.81c-2.28-1.73-3.63-4.18-5.4-6.3c-1.52-1.82-1.69-5.39-1.8-10.71c-0.1-4.51,2.41-8.25,7.31-10.11
		c7.52-2.35,7.79-3.9,16.11-3.9c3.7,0,6.06,1.43,10.11,5.3c2.04,1.96,4.2,3.9,6.2,6.4c11.85,0,6.7-1.08,8.41,13.41
		c0.51,4.3,0.5,8.61,0.4,12.71c-2.8,3-6.6,1.5-10.01,2.5c0.3,1.3,0.98,2.2,0.9,3.4c-0.67,10.12,2.58,18.14-1.7,28.62
		c-1.02,2.49-1.7,5.1-3.6,7.1c-0.2,0.3-0.9,0.6-0.4,1.2c7.68-5.55,8.87-16.13,8.41-17.51c-0.83-2.48,0.09-8.06-0.8-13.71
		c-0.37-2.31-0.3-4.5-0.1-6.6c0.6-0.6,1-0.6,1.7-0.1c0.4,1.1-0.3,2.9,1.3,3.9C778.7,537.26,781.4,537.86,783.8,537.36z
		 M797.81,532.95c-4.06,0.88-5.44-4.82-2.4-7.21c2.19-0.13,5.2,0.09,5.2,2.28C800.62,530.09,798.86,531.36,797.81,532.95z
		 M800.54,535.25c-0.91,0-0.82-1.27,0.15-1.14C801.2,534.18,801.36,535.44,800.54,535.25z M577.16,88.39
		c-0.29-13.96-0.37-18.02,0.58-23.04c0.91-4.8-0.57-6.82,0.62-9.04C578.91,59.06,578.71,86.14,577.16,88.39z M593.7,30.55
		c-0.05-0.05-0.12-0.11-0.15-0.13C595.38,30.36,594.28,31.13,593.7,30.55z M644.81,16.74c0.63,0,1.14,0.11,1.33,0.55
		C644.54,17.29,644.81,17.44,644.81,16.74z M646.33,17.49c0-0.09,0.62-0.05,0.85,0.04C648.53,18.08,646.82,18.48,646.33,17.49z
		 M647.77,18.2c2.04,0.25,3.01,2.23,3.62,2.84C649.67,20.7,648.54,19.67,647.77,18.2z M439.66,497.33c2.4-1.8,5.1-3.2,6.9-5.6
		c1.2,0.2,1.58,1.33,1.9,1.9c0.4,1-1,1.6-0.4,2.6c0.53,0.53,1.04-0.15,1.88,0.04c0.75,0.22,3.25,4.28,7.83,6.56
		c4.4,0,5.82-2.98,8.11,0.2c-0.99,2.96-13.74,8.28-26.32,2.4C438.56,502.53,438.86,499.93,439.66,497.33z M470.88,526.85
		c-4.53,3.14-5.51,2.58-4.1,4.7c1.6,0.2,2.7-1.2,4.2-1.7c0.8,0.7,0.81,1.71,1.1,2.6c0,0.96-1.24,1.38-1.1,2.3
		c0.77,1.55,2.13-1.56,3.8,4.9c1.73,6.7,5.84,7.48,9.61,13.91c2.44,4.17,4.37,5.13,1.2,9.01c-8.65,0-17.44-2.16-18.51-2.8
		c-4-2.9-8.76-4.51-13.01-7c-2.13-1.25-3.7-3-5.5-4.6c-0.4-0.4-0.6-1.1-0.7-1.7c-0.76-8.13-11.12-10.07-14.31-12.01
		c-3.88-2.36-8.17-3.25-9.51-3.8c-1.61-0.67-1.65-0.72-7.81-7.21c-0.27-2.96-3.55-5.94-2.94-6.42c4.47-3.56,5.39-2.05,14.75-13.59
		c2.16-2.66,5-4.7,6.1-7.71c1.38-0.59,2.38-0.6,3.46,0.08c0.17,0.17-0.56,3.91-0.64,6.68c-0.15,4.97,0.73,5.42,4.68,6.94
		c6.79,2.62,12.46,1.4,15.61,1.4c1.5,0,3.1-0.1,4.4-1c1.6-1.1,3.5-1.3,4.7-2.5c2.59,0.17,1.89,1.52,0.3,8.51
		c-2.4,1.5-5.7,0.5-7.81,2.5c-0.77,3.34,5.13,1.52,8.71,0.8c0.63,0.45,0.64,1.06,0.2,1.4c-3.94,2.19-3.43,1.29-5.4,4.1
		c2.5,2.2,4.7,0.2,7.1-0.3C470.31,524.76,470.88,525.51,470.88,526.85z M469.78,505.13c0.65-0.78,1.03-0.58,1.2,0.4
		C471.28,505.53,470.2,505.83,469.78,505.13z M468.68,500.13c-1.65,1.58-2.37-2.71-3.1-2.24c-4.45,2.85-4.91,3.35-6.76,2.38
		c-1.9-1-4.83-3.37-6.54-5.94c-1.76-2.64-4.85-5.79-3.3-8.11c1.41,0.94,1.98,6.01,11.39,11.78c1.25,0.76,2.7,0.14,1.12-1.07
		c-6.69-5.15-8.94-5.92-11.81-13.21c0.7-1.2,1.9-1.1,2.9-1.9c3.29-5.35,2.17-4.31,4.2-3.9c0.6-0.3,0.2-1.1,0.6-1.6
		c1.11-0.8,2.1-0.2,3.3,0c1.9,4.5,5,8.21,8.51,11.61c-0.3,0.7-0.5,1.3-0.6,1.8c0.42,0.32,0.47,0.65,0.2,1.1
		c-0.01-0.04-0.2-1.1-0.2-1.1c-6.15-4.31-8.63-11.86-10.1-10.01c-1.01,1.27,5.45,9.81,12.31,14.91
		C473.63,496.74,472.7,496.27,468.68,500.13z M473.99,501.73c-1.19-0.74-0.71-1.08-0.26-1.58c0.89-0.91,2-1.37,3.26-1.12
		C476.49,500.63,474.69,500.53,473.99,501.73z M482.29,502.03c0.09-0.35,0.27-0.69,0.65-0.77
		C482.81,501.64,482.55,501.76,482.29,502.03z M483.09,501.13c-0.06-0.69,0.32-0.69,0.9-0.5
		C483.9,501.18,483.47,501.14,483.09,501.13z M484.99,502.83c4.09-1.79,6.97-2.47,8.41,0.4
		C485.56,503.59,485.42,503.69,484.99,502.83z M500.91,502.33c0.3-0.3,0.6-0.4,0.9,0.1C501.47,502.76,501.15,502.68,500.91,502.33z
		 M504.81,503.83c4.53-1.74,4.01,1.11,5.8,1.6C508.29,505.61,506.75,505.13,504.81,503.83z M644.14,547.85
		c0.48-1.79,1.67-3.1,2.98-4.4c3.24,0.65,3.33,2.02,6.2,6.8c-0.8,2.4-3.8,3.9-2.8,7.1c2.4-0.6,3.7-2.4,5.2-3.6
		c1.1-0.3,2-0.2,2.7,0.8c0.1,1.7-1.4,3.4-0.6,5.4c1.4,0.72,3.35-2.09,4.41-2.21c0.97,0.28,1.53,1.27,1.3,1.5
		c-1.94,1.94-2.69,3.57-0.9,5.9c0,0.1,1.87-2.18,3.32-3.69c0.41-0.43,2.37,1.71,3.49,2.4c0,3.16-0.88,1.95,4.4,6.1
		c1.23-0.71,0.4-1.68,0.84-2.39c0.18-0.36-1.06,0.29-1.64-0.71c-2.23,0-0.48-1.46-0.03-0.08c0.03,0.1-0.1,0.03,1.73,0.68
		c17.65,6.25,13.41,2.16,18.11,3.6c1.81,3.76,2.41,8.56,2.1,8.77c-15.82,8.92-7.46,3.83-28.92,7.35c-2.67,0.44-16.27-2.25-18.71-3.4
		c-1.7-0.3-2.9,0.41-4.1,0.6c-22.35,3.53-14.56,4.17-33.82-0.5c-0.6-1.3-0.01-2.2,0.3-3.1c5.6-16.28,0.11-21.31,6.2-29.42
		c0.6,0,0.7,0.6,0.9,1c3.61,6.25,5.57,3.43,10.41,6.5C630.93,559.08,642.7,553.2,644.14,547.85z M799.72,491.82
		c-2.81,0.56-5.53,0.85-8.01-0.6c-0.83-1.25-1.1-289.09-1.1-289.2c1.5-2.2,3.7-1.8,5.4-2.3
		C801.31,202.19,799.72,176.39,799.72,491.82z M601.38,103.15c8.66,1.4,12.19,4.05,21.01,8.71c2.77,1.46,3.38,3.94,8.81,8.31
		c34.24,27.55,42.17,36.72,39.33,48.73c-5.68-3.43-5.35-7.29-25.52-22.42c-0.47-9.34-8.38-18.69-15.51-24.02
		c-7.46-5.57-8.86-7.3-12.01-8.61c-5.03-2.08-15.23-5.79-20.55-4.61C596.27,109.24,601.3,103.25,601.38,103.15z M641.21,143.68
		c-2.9-2.81-3.66-5.11-7-12.41c-0.1-0.27-0.03-0.63-0.01-1C640.07,136.19,644.32,146.68,641.21,143.68z M633.45,129.69
		c-0.13-0.48,0.53,0.18,0.65,0.48C634.2,130.27,633.62,130.34,633.45,129.69z M595.07,112.36c2.44-1.83,13.04,0.31,15.81,1.6
		c16.28,7.61,11.43,5.65,9.87,6.81c-0.59,0.44-0.51,1.35,0.34,1.69c5.95,2.83,9.33,7.94,15.41,18.31
		c4.36,7.45,27.83,24.11,33.72,30.72c4.02,4.51,7.07,4.93,8.53,6.89c0.9,1.21,1.76,0.59,5.08,2.01
		c50.73,10.38,21.43,5.01,56.64,9.61c13.6,1.78,7.24-0.3,25.02,0.4c3.8,0.15,7.5-0.93,11.21-1.7c5.59-1.16,14.94-16.6,15.46-16.61
		c1.48-0.04,2.78,1.01,4.35,0.6c3.93-1.01,4.81-1.83,8.21,5.3c-0.72,1.44-1.1,2.57-3.6,0.9c0-0.4-0.1-0.9-0.1-1.6
		c-2.4,0.1-4.7-0.2-6.7-1.4c-0.46,0.46-0.46,0.58-0.1,1.1c3.13,3.8,7.73,3.41,8.61,6.4c0.5,0.1,1,0.2,1.4,0.2
		c0.88,1.17,0.05,2.24,0.1,3.13c0,0.24-1.01,0.81-1.6,0.37c-6.06-3.94-10.22-3.21-7.81-1.4c4.61,1.84,1.26-0.39,9.41,4
		c-0.3,0.5-0.6,0.8-0.9,1.2c-0.39,0.88,0.96,1.43,0.4,2.4c-3.37,0.3-6.55-0.98-9.53-2.27c-0.25-0.08-0.93,1.16,0.42,2.07
		c4.32,2.92,8.51-0.1,8.91,5.1c-0.72,1.56-1.15,3.85-2.5,4.3c-1.1-1.1-1.4-2.9-2.8-3.8c-1.5-0.5-2.9,0.1-4.4,0.2
		c-1.03-0.69-0.75-1.24-2.2-0.1c-6.38,5.01-9.76,0.56-14.91,1.4c-12.09,1.98-8.44-0.12-27.82,4c-13.57,2.88-14.72,0.93-35.12,3.2
		c-4.45,0.49-15.95,2.67-28.82,0.1c-8.54-1.71-0.58,0.66-12.71-5.4c-31.3-15.65-25.81-14.78-54.74-34.42
		c-7.4-5.02-9.1-8.91-14.41-10.81c2,3.4,5.5,6.8,15.91,15.01c0.49,3.46,1.17,1.85,1.9,1.7c1.08,0,0.19-0.08,8.41,5.4
		c-1.9,2.4-4.07,3.74-7.21,3.61c-6.41-0.25-15.85-3.27-21.42-8.01c-3.5-2.98-4.08-4.55-6.7-5.6
		C587.5,147.33,584.16,129.58,595.07,112.36z M662.02,201.42c-0.5-0.6-0.6-1.3-0.3-2.1C662.41,200.2,662.42,200.23,662.02,201.42z
		 M596.07,173.9c4.93,5.5,9.68,8.73,18.61,10.81c6.91,1.61,12.17-0.61,17.71-4.3c3,1.6,5.1,4.4,8.01,6.2
		c12.67,7.86,12.93,6.3-10.31,6.3c-12.64,0,0.8,0.9-27.12-0.1C599.45,186.25,597.3,180.11,596.07,173.9z M653.72,269.86
		c0,0.1-1.69,0.15-8.92-1.09c-1.7-0.29-3.6-0.1-4.9-1.6c-0.2-0.29-0.75-0.2-1.1-0.3c-6.48-1.19-15.42-5.59-16.81-5.9
		c-5.25-1.19-15.74-6.25-20.01-11.51c-0.15-1.67,2.12-2.65,4-7.91c1.82-5.07,6.57-7.72,5.1-16.21c-1.22-7.09,0.67-9.38-1.5-14.91
		c-0.67-1.71-5.1-13.16-5.1-15.01c1.16-0.94,1.06,0.3,7.61,0.3c20.78,0,12.48-0.97,41.03-0.6c1.98,0.03,1.98-0.01,5.1,2.1
		c2.02,12.79,1.3,12.88,2.3,14.31c0.4,0.48,0.77-0.03-1,21.21c-0.67,8.04-3.17,11.47-4.4,21.62
		C654.27,261.28,655.09,268.47,653.72,269.86z M770.89,497.73c-0.43,0.09-0.79-0.08-1-0.4c-2.89-3.77-9.02-7.86-10.78-8.6
		c-1.46-0.61-2.3-0.51-3.23-0.51c-4.76-0.5-9.57-0.26-20.31,5.5c-7.3,3.92-7.57,11.5-4.4,18.51c1.27,2.81,1.83,6.89,6.3,10.51
		c1.59,1.28,2.1,2.73,2.8,5.2c1,1.1,3.1,1.4,2.2,3.5c-1.11,0.56-95.25-11.51-95.36-11.6c-1.74-1.41,0.51-8.27,3.19-25.63
		c0.91-5.87-1.3-3,2.9-14.01c5.06-13.25,3.4-21,6-25.92c0.21-0.4,0.4-0.9,0.4-1.4c-0.2-2.5,0.6-4.8,0.9-7.21
		c0-4.11-0.2-6.5,1.7-9.91c1.52-2.72,2.8-6.26,2.8-9.41c2.05-6.54-0.69-7.67-0.1-12.71c0.58-4.95-0.76-11.93-0.8-18.91
		c-0.19-32.21,4.27-31.36,1.8-54.34c-0.23-2.13-2.71-23.06-3.3-25.32c-12.04-45.54-2.34-49.37-6.2-56.14c0-2.19,2.07-9,2.5-10.41
		c6.28-20.31,3.21-25.15,4.7-28.02c0.32-0.62-0.43-19.68,1.75-19.4c0.31,0.04,12.51,6.45,14.26,7.4c1.4,0.75,3.08,1.3,4.7,1.3
		c5.3,0,9.69,2.69,22.42,1c44.86-5.96,27.22-1.56,45.23-5.2c11.77-2.38,10.01-1.05,20.31-3.3c5.72-1.25,5.51,1.42,8.51,0.3
		c3-0.6,2.02,0.94,7.21-0.3c0.7,1.8,0.5,3.2,0.8,4.7c0.8,337.49,1.12,274.84-2.4,286.3c-3.83,1.74-4.98-2.79-14.71,1.39
		C770.69,495.73,771.3,496.83,770.89,497.73z M782.88,503.27c0.25-0.84,0.33-1.27,0.33-1.1c0.4,1.38,0.97,2.47,0.99,3.46
		c0.05,3.1,0.79,6.2,0.7,9.41c-0.32,11.47,0.92,15.05-2.03,13.73c0-0.02-0.01-0.05-0.01-0.09c-1.48-9.64,0.33-9.1-0.96-15.94
		C780.66,506.15,782.56,504.34,782.88,503.27z"/> <path d="M618.13,360.8C618.22,360.71,618.23,360.67,618.13,360.8L618.13,360.8z"/> <path d="M785.81,495.23l0.1-0.1C785.89,495.13,785.83,495.21,785.81,495.23z"/> <path d="M795.51,537.86c0.22-0.09,0.19,0.04,0.1-0.1L795.51,537.86z"/> <path d="M39.28,24.8c0.08-0.03,0.1-0.02,0.1-0.1L39.28,24.8z"/> <path d="M32.68,44.71l-0.1-0.1C32.62,44.81,32.53,44.75,32.68,44.71z"/> <path d="M231.02,540.36c1.81,5.22-2.52,8.87,8.81,9.41c2.32,0.11,15.22-0.57,20.31-1.8c8.61,3.9,17.81,7,27.32,9.61
		c0.3-1.5,0.9-2.8,2-3.8c0-1179.77-2.03-0.34-3.1,0.2c-27.41-7.63-23.61-8.81-29.02-7.81c-0.6-1.6-0.1-3.2,0.4-4.8
		c-0.91-2.27-1.05-3.9-2.2-3.3c-1.11,0.58-0.2,2.3-1.6,3.1c-1.6,0.1-3.51,0.29-5.3,0.8c-1.7,0.49-3.8,0-5.7,1.5
		c4.2,0.1,7.91,0.1,11.51,0.2c0.7,1.1,0.7,1.9,0,2.9c-15.97,1.52-13.36,0.41-18.11,1c-3.9,0.49-1.93-3.36-3.2-7.81
		c2.19-2.73-0.06,0.58-3.4-4.1c-1.6,0.3-2.9,0.63-4.3,0.8c-1,0.12-4.2-0.2-4.4-0.5c-0.2-0.9-0.3-1.7,0.6-2.8
		c1.88,0,5.21-2.78,5.21-2.36c0.97,1.2,2.03,0.65,3.18,0.17c2.44-7.31-0.26-12.71,1-18.91c0.1-0.5,0.2-1.1,0-1.5
		c-1.57-2.68-0.5-6.53-3.2-8.11c-1.8,0.5-3.7-0.6-5.7-0.8s-4.1,0.5-5.9-0.6c-0.3-1.3-0.6-2.5,0.3-3.8
		c6.12-1.57,13.28-1.08,13.01-0.8c2.16-1.89,2.79-3.7,6-2c8.06,4.25,12.78-5.09,11.21,7.41c-0.89,7.11-0.5,14.21-0.4,21.32
		c0.1,0.8,0,1.5,1,2.1c2.4-0.7,5.1-0.2,7.71-0.7c2.6-0.5,5.2-0.9,8.11-0.1c-0.4,6.04,1.39,4.51-5.3,4.9
		c-3.54,0.21-4.98,0.6-10.41,0.9c-0.2-1.5-0.3-3.2-1.8-4c-1.3-0.8-2.6-1.78-4.2-1.7c-2.7,0.13-4.92,2.2-5.6,5.3
		c-0.72,3.3,0.1,4.6,3.9,6.6c-0.96,1.3-1.26,0.94,0.1,1.5c-0.3,0.11-0.43,0.18-0.94,0.35c0.27,0.19,0.57,0.56,0.85,0.56
		c3.87,0.04,16.36-0.09,12.41-1.4c-1.4-0.3-2.7-0.29-4.1-0.1c-2.59,0.35-2.15-0.6-2.42-0.6c0.99-1.19,0.65-2.84,1.72-4.2
		c19.16-2.18,17.51,0.32,17.51-7.11c0-1.95-1.26-2.27-3.2-2.3c-9.85-0.18-10.39,0.82-12.61-0.1c-0.9-1.2-0.55-16.43-0.4-18.91
		c0.78-12.69-2.51-10.33-2.9-12.31c0-350,1.4-298.8-2.8-305.82c-0.6-1-2-0.2-2.8-1.2c-0.22-0.11,0.36-2.5-1.7,1.1
		c-1.9-1.14-1.13-0.8-1.7-0.8c-6.35,5.23-10.76,2.13-12.41,2.1c-7.27-0.14-5.08,0.51-10.91,1c-14.9,1.26-9.8,1.21-20.61,3.1
		c-17.92,3.13-17.4,1-20.41,1.6c-19.76,2.27-29.21,3.93-42.03,1.9c-10.14-1.61-4.01-0.83-11.81-4.6
		c-11.75-5.69-28.26-13.75-38.43-22.42c-7-5.97-19.31-12.74-25.02-18.11c-6.04-5.68-5.91-5.18-8.41-5.5
		c4.9,5.6,10.41,10.31,16.21,14.71c0.2,0.7,0.5,1.4,0.7,2.2c2.05-0.34,1.21-1.17,5.9,2.4c1.2,0.91,2.7,1.6,3.8,2.8
		c-5.02,5.98-14.12,2.7-21.82-0.4c-7.74-3.12-8.66-7.19-13.41-9.71c-6.95-25.47-9.97-37.91,0.8-56.44
		c1.14-2.29,13.61,0.37,15.91,1.5c11.44,5.64,11.31,5.27,11.71,6.2c-0.1,0.1-4.24,1-0.7,2.8c5.12,2.61,6.22,4.43,13.91,16.71
		c4.94,7.9,26.41,24.74,26.52,24.82c6.2,4.13,7.78,8.21,12.41,11.11c7.12,4.45-0.56,2.79,19.31,6.9c36.69,7.6,40.16,6.1,43.53,7
		c3.09,0.83,6.31,0.46,9.41,1.2c1.2,0.29,2.6,0.3,3.8,0.1c9.69-1.6,11.65,0.87,24.22-1.7c6.12-1.25,8.49-5.81,16.91-16.71
		c0.6,0.3,1.1,0.5,1.5,0.7c2.9-0.1,5.6-1.8,8.21-0.2c1.62,1.73,4.35,5.38,1.7,6.7c-3.84-0.43-1.22-1.74-3.2-2.4
		c-0.6,0-1.8,0.1-2.9,0s-1.8-1.4-3.2-0.8c1.82,3.86,3.7,1.96,10.71,8.01c-0.1,1-0.1,2-0.8,3c-3.1-0.9-5.8-3.5-9.41-3
		c0,1.6,1,2,2,2.1c3,0.5,5.4,2.1,8.01,3.4c-0.4,0.5-0.7,0.8-0.9,1.1c-0.4,1.1,1,1.6,0.4,2.6c-3.4,0-6.7-0.9-9.61-2.4
		c-3.01,2.15,6.69,3.81,8.11,4.1c2.98,3.98-0.83,4.59-0.2,7.61c3.6-1.8,4.2-3.5,3-7.51c1.3-2.2,2-4.5,0.9-7.1
		c0.4-1.5,1.2-2.9,1.2-4.4c-1.7-3.7-1.7-3.7-0.7-6.4c-6.58-19.13-5,25.66-5-123.69c0-3.09,0.16-4.9-1-4.7
		c-1.17,0.47-0.9-5.78-0.9,119.28c-1.8,1.3-3.6,1.7-5.4,0.7c-4.56,3.04-4,2.03-4-3.1c-0.17-122.52,0.39-115.91-0.7-116.38
		c-2.04,2.91-1.2,48.61-1.2,121.89c0,5.22-1.72,1.29-7.81,10.71c-0.51,0.79-3.48,4.43-4.9,4.6c-17.7,3.35-6.09,0.62-25.42,2
		c-5,0.36-36.41-3.35-49.94-7.41c-7.92-2.37-8.31,0.54-13.81-1.9c-8.17-3.63-5.52,0.29-13.81-8.01c-0.3-1.6,1-2.6,0.9-3.4
		c-1.74-9.31-2.03-12.74-4.4-14.91c-3.17-2.9-5.52-7.87-10.71-12.41c-3.19-2.79-5.15-5.66-11.41-12.71
		c-8.99-10.13-10.98-10.83-12.01-17.41c3-6.26,0.37-8.45,3.2-12.41c1.56-1.87,1.98-6.02,7.71-5.7c16.73,0.94,13.55-2.92,13.81-9.01
		c0.5-0.8,1.4-1.6,1.6-2.8c0.2-1.2-0.6-2.2-0.5-3.4c0.7-0.7,1.6-1.2,1.8-2.7c-0.9-4.48-1-3.38,3.8-5.1
		c5.67-2.03-7.58-11.8-3.3-20.61c2.45-5.04-4.97-23.01-5-23.12c-0.43-1.39-1.42-2.38-2.5-3.3c-4.34-3.69-5.51-5.17-8.21-6.1
		c-8.38-2.91-10.38-4.37-13.41-3.4c-3.47,1.11-4.72-0.84-18.11,2.68c-6.97,1.83-9.42,5.22-11.41,6.7c-4.16,2.56-4.04,2.9-6.2,6.6
		c-3.26,1.09-0.24-0.66-9.61-2.5c-17.23-3.38-13.14,26.53-14.31,36.73c-1.23,10.76-0.61,21.8,0.6,23.82
		c2.72,3.85,0.33,16.34,2.2,17.51c2.37-41.92,2.4-42.22,2.4-0.06c0.98-0.57,1.07,0.1,0.8-37.27c-0.02-2.11-1.45-0.94-0.3-9.81
		c0.77-5.93-0.89-2.97-0.4-7.81C26,15.04,28.01,15.85,36.58,17.69c-0.5,0.5-0.4,1.1-0.3,1.7c-0.9,1-2.9,0.4-3.7,2.8
		c2.9-2.1,5.3,0.3,8.01-0.3c4.39-9.48,22.46-11.38,23.46-13.6c-8.15,0.77-24.25,9.58-12.35,1.69c7.33-4.86,8.66-3.53,20.41-6.5
		c5.32-1.35,10.51-1.3,15.91,0.5c-0.1,0.9,0.59,1.41,1.3,1.9c3.28,2.26,0.2,2.36-1.8-0.3c-1.48-0.6-8.19-2.76-7.91-0.8
		c7.11,1.6,13.61,4.3,18.11,10.31c1.9-0.3,2.9,1.2,4.2,1.7c3.59,8.86,2.18,12.21,4.2,17.51c-0.83,2.08-2.36,4.19-0.9,8.41
		c2.98,8.64,6.26,9.68,5.6,11.21c-1.19,1.19-6.21,1.74-7.91,1.7c-0.1,0-0.3,0.3-0.4,0.4c0.3,1.3,1.8,1,2.4,2.2
		c0,1.16,1.87,4.08-2.1,4.5c-2.61,0.28-3.91,0.23-3.7,1.5c1.3,1.6,2.8-0.4,3.7-0.1c4.06,1.74-1.65,4.66-0.5,8.51
		c0.42,1.4-0.2,2.7-0.7,3.9c-3.92,2.18-13.01-2.12-17.31,2.1c-6.31,6.19-4.49,9.79-5.7,11.31c-2.03,2.19-0.5,6.07-1.6,8.41
		c0.1-0.1-3.01-0.42,3.7,8.31c0.6,0.78,1.55,1.38,1.31,2.53c-1.88-1.47-4.02-2.67-5.51-4.43c-4.01-4.71-15.42-13.15-25.82-15.01
		c-9.27-1.66,0.9,2.44,1.3-23.82c0.13-8.53,3.6-4.45-1.2-8.81c-3.92-3.56-6.32-5.02-8.01-11.21c-0.1-0.35-0.1-0.68,0-0.96
		c0.01,0.6,0.08,1.11,0.7,1.47c0-1.38-1.29-1.26-0.2-2.11c-2.29-3.21-1.45-7.7-1.9-10.29c-0.21-1.2-0.6-2.4-0.9-3.7
		c0.4-1.5,0.1-3.2,0.8-4.8c2.68,2.01-0.39,8.71,10.71,15.71c0.27,0.09,0.61,0.02,0.97,0.01c-0.37-1.5-2.52-2.53-3.37-3.81
		c-2.24-3.35,2.16,1,6.4,0.7c-2.48-1.49-7.72-4.73-8.96-7.31c1.62-0.11,5.25,3.57,8.15,3.79c-0.14-1.28-5.71-3.11-12.9-9.5
		c-0.4-0.4-1.1-0.5-1.6-0.8c-0.47,0.19-0.85,0.29-1.31,0.47c-1.01,8.69-0.35,9.99-2.39,14.44c-5.24,11.4-3.11,28.33-4.9,29.12
		c-1.28-5.12-2.4-5.43-0.5-16.61c0.38-2.26,1.26-4.52,1.01-6.96c-0.11,0.03-0.19,0.06-0.24,0.08c0.15-0.16,0.45-0.69,0.43-2.07
		c-0.96,0.51-0.6,1.46-0.6,2.23c-0.18,0.21-0.28,0.51-0.4,0.81c-5.3,16.26-0.48,27.88-0.9,30.42c-0.1,0.6-0.6,0.7-1.2,1
		c0.7,1.8,0.7,3.7,0.3,5.6c-0.9-0.6-0.11-2.31-1-3.2c-0.34,5.84-0.22,4.4-0.58,5.06c-0.84,1.53-0.66,10.06-1.93,10.88
		c-0.27-3,3.28-33.55,0.91-36.16c-0.42,4.47-0.11,12.57-2.5,37.03c-1.89,19.36-1.72,11.46,3,2.9c3.95,0.66-0.9,1.74,4.1-13.71
		c2.2-6.81,1.85-9.76,3.1-19.11c0.74-5.56-1.85-7.17,2.4-22.52c0.1-0.5,0.3-0.9,0.9-1.1c0.3,1.4,0.7,2.8,1,4.1
		c1.75,7.59,10.09,12.05,10.11,14.41c0.04,5.48-0.44,20.61-4.1,25.32c-3.77,4.85-1.91,3.38-11.21,18.11
		c-0.21,0.34-4.56,10.09-3.7,21.11c0.23,2.91-0.19,5.8,0.7,8.71c2.25,7.38,4.94,27.67,12.01,41.93c4.55,9.17,5.02,12.33,12.41,31.12
		c0.78,2,1.62,4.36,0.7,10.21c-1.21,7.67-1.98,6.52-5.5,12.01c-3.77,5.89-4.68,3.38-6.9,6.9c-14.68,23.33-10.75,45.53,6.4,65.95
		c-0.7,1.7-0.6,3.7-1,5.7c-1.57,7.93,0.26,13.38-0.1,21.32c-1.49,32.53,1.81,46.55,3.8,59.14c1.03,6.51-0.29,7.62-1.6,17.01
		c-0.04,0.32-0.34,12.5-7.31,26.22c-5.03,9.92-0.02,54.3,2.6,63.84c1.7,6.2,0.97,17.02,1.9,23.92c0,1.36-0.45,1.16-2.2,3.2
		c-0.3,2.6,0.9,5.2-0.9,7.41c0.5,4.5,1,9.01,1.4,13.61c-2.7-0.8-4.38,0.11-5.6,2.3c-1.18,2.11-2.15,4.11-1.8,6.5
		c0.03,0.21,0.47,5.52-1.3,8.11c-0.61,0.79-2.57,9.54-6.4,14.51c-1.85,2.4-0.44,5.7,1.7,7.31c0.5,0.5,1.4,0.6,1.5,1.5
		c-0.1,1.4-1.5,2.4-1.2,4.1c2.4,4.31,12.2,7.16,17.71,7.1c4.91-0.05,1.53,0,8.31,0.7c4.36,0.45,9.21-1.65,14.01-0.5
		c11.19,2.68,9.03,1.84,34.82,3.6c5.4,0.37,3.19-0.03,21.01-3c1.8-0.3,2.8-1.2,3-3.1c-2.46-4.3,0.7-3.77-5.5-17.21
		c-0.8-0.7-1.79-0.5-2.1-1.3c-0.87-2.21-0.3-4.9-2.3-6.5c-15.08-3.57-10.57-2.45-22.12-9.21c-6.78-3.96-8.32-6.97-17.01-20.01
		c1.2-1,2.3-1.8,3.3-2.6c6.2,0.7,12.33,0.7,18.31-0.5c6.48-1.3,8.99,2.49,12.81-0.8c3.31-2.85,4,4.79,11.11,1.3
		c4.96-2.44,7.65-1.7,51.54-1.7c0.8,0,1.8-0.3,2.6,0.5c-0.1,1.6-1.4,2.5-2.5,3.5c-7.07,6.43-5.68,19.49-0.3,28.32
		c2.02,2.83,1.11,3.51,3.6,5.3c3.48,2.5,7.48,5.34,11.71,4.7c10.55-1.59,13.29-4.63,15.21-9.31c-0.2-0.1-0.4-0.2-0.4-0.2
		c-3.94,3.94-5.33,4.8-14.11,6.8c-4.2,0.96-10.2-2.36-12.81-4.8c-2.51-2.35-1.56-2.64-3.8-11.71c-1.33-5.39-1.79-14.07,2.4-17.71
		c2.09-1.82,3.4-4.3,5.5-5.8c0.6-1.3,0.63-2.51,0.3-3.6c-2.66-8.95-2.8-4.47-10.41-15.21c-4.51-19.27,4.96-18.85,10.61-21.62
		c4.51-2.21,13.08-3.61,17.11-0.6c3.9,2.91,7.31,6.2,10.51,9.71c2.6,0.7,5.6-0.3,8.01,1c0.6,1.5,0.4,2.7,0.3,4
		c-0.48,6.48,0.94,9.48,0.6,16.71c-0.14,0.82,0.74,3.46,0.1,4.9c-1.23,1.73-5.11,2.26-7.51,2c-0.9-0.1-1.8-0.3-2.6,0.9
		c0.4,0.9,0.91,1.8,0.9,3c-0.08,9.19,1.83,19.29-0.7,25.72c-1.21,3.07-2.28,6.13-3.36,9.21c0.63,0.03,1.08-0.34,1.46-0.8
		c7.24-8.83,4.76-16.26,4.5-28.42c-0.13-6.33-0.27-6.39,0.8-7.31c1.6,1,0.4,3.5,2.2,4.4C229.47,538.37,228.15,537.86,231.02,540.36z
		 M238.02,529.65c0.3-2.64,1.69-2.56,2.81-2.56c1.44,0,2.86,0.27,3.99,1.86c0,2.39-1.64,3.71-2.9,5.5
		C238.16,533.86,237.62,533.19,238.02,529.65z M243.62,536.17c1.06-1.17,1.1-1.19,1.85,0.58
		C244.79,536.67,244.09,536.71,243.62,536.17z M240.42,187.71c5.5,2.29,3.3-22.16,3.3,305.72c-2.86,0.57-8.5,0.9-8.51-2
		c-0.1-100.57-0.3-201.14-0.5-301.61C236.72,188.11,236.72,188.11,240.42,187.71z M20.97,50.21c0.19-1,0.5-2,0.2-3
		c-0.7-1.9,0.1-3.6,0.6-5.3C21.77,96.25,17.95,65.74,20.97,50.21z M39.16,18.66c-0.7,0.4-1.04-0.83,0.22-0.16
		C39.31,18.56,39.23,18.62,39.16,18.66z M90.22,5.08c-0.74,0-0.41-1.01,0.6,0C90.63,5.08,90.39,5.08,90.22,5.08z M90.92,7.78
		c0-0.11-0.08-0.47,0.2,0.1C91.12,7.88,90.92,7.88,90.92,7.78z M90.95,5.22c-0.06-0.19,1.61,0.22,2.07,1.46
		C91.95,6.68,91.18,6.27,90.95,5.22z M93.82,7.48c-0.4,0-0.79-0.2-0.7-0.79c0.52,0.02,0.79,0.23,0.7,0.78
		c0,0.07,0.67-0.08,0.75,0.49C94.66,8.61,93.82,7.99,93.82,7.48z M94.66,8.38c0.36,0,0.58,0.2,0.63,0.55
		C95.29,9.09,94.79,8.73,94.66,8.38z M95.58,9.24c0.21,0.06,0.33,0.24,0.43,0.43C95.88,9.54,95.73,9.39,95.58,9.24z M46.9,30.64
		c-0.14-0.08-0.24-0.16-0.4-0.24C46.91,30.15,46.91,30.38,46.9,30.64z M26.17,97.45c-0.37-0.74-0.29-1.22,0.19-1.6
		C26.34,96.36,26.26,96.83,26.17,97.45z M29.07,85.14c-0.34-0.17-0.32-0.47-0.31-0.75C29.11,84.58,29.34,84.77,29.07,85.14z
		 M84.63,131.02c-1.77-1.54-5.01-9.03-6.02-12.06c-0.65-0.26-1.1-0.8-1.1-1.6c0.67,0.25,1.1,0.67,1.1,1.6
		C81.24,119.83,89.72,135.43,84.63,131.02z M86.31,132.23c-0.04-0.24-0.03-0.33,0.32-0.1C86.77,132.2,86.37,132.47,86.31,132.23z
		 M45.69,90.94c4.2,1.2,8.41,2.2,12.21,4.4c20.54,11.94-5.55-7.34,36.73,28.72c4.37,3.72,0.28,0.45,4.2,4.3
		c7.83,7.68,10.73,9.64,14.81,17.21c1.69,3.14,2.62,8.46,0.5,11.01c-1.7-1.5-3.3-2.7-4.7-4c-9.24-10.56-18.37-16.06-20.41-18.11
		c-0.18-9.86-9.05-19.09-16.91-25.12c-3.78-2.9-12.42-11.84-31.02-12.51C41.64,95.57,44.3,92.42,45.69,90.94z M39.98,161.79
		c0.3,0,0.36,0.13,0.35,0.36C40.33,162.31,40.4,162.21,39.98,161.79z M40.38,162.49c1.26,0.36,3.06,2.49,3.2,2.7
		c7.56,7.11,21.26,11.5,31.82,3.9c3.16-2.27-1.81-0.69,18.01,11.21c-1.41,1.1-46.14,1.01-46.48,0.3
		C44.18,174.91,41.34,168.8,40.38,162.49z M55.79,203.12c-1.59-4.96-1.77-3.67-2.1-5.3c-6.28-19.6-8.59-14.51,3.4-14.51
		c1.05,0,28.4-0.79,28.52-0.8c3.5-0.18,7.1,0.38,10.61,0.2c2.2-0.11,4,0.4,5.8,1.9c3.52,15.1,3.25,27.71,3.7,39.23
		c0.13,3.27,1.18,16.33-0.6,21.42c-2.21,1.1-7.21-2.67-10.61-3.2c-1.1-3.1-0.3-6.6-3.1-8.91c-0.85,0.4-0.53,1.02-0.4,1.6
		c0.44,1.95,0.9,6.27,0.69,6.16c-26.67-8.89-26.22-7.67-31.61-10.67c-2.61-1.45-3.77-0.53-4.7-2.4
		C58.04,220.84,57.82,209.44,55.79,203.12z M38.98,271.79c-0.8-8.18-2.43-9.97-0.6-17.71c3.62-15.33,9.44-14.47,14.11-23.04
		c10.6,5.96,9.9,2.52,15.61,5.7c7.71,4.3,29.46,8.63,30.42,9.41c1.82,1.48,4.1,1.8,6.5,2.7c-0.29,11.9-5.25,17.8-2.9,42.73
		c1.44,15.23,0.42,19.2,0.6,19.72c-1.14,0.86-14.79,0.37-16.41,0c-21.35-4.8-32.29-2.87-34.52-5.1c-0.38-0.58-0.17-1.4,0.2-1.7
		c0.79-0.64,0.49-1.42,0.49-2.2c0-0.76,11.93-0.6-1.19-1.29C44.48,292.3,40.05,282.7,38.98,271.79z M46.2,474.42
		c-0.6-3.04,0.14-8.8-0.7-15.91c-2.71-23,15.49-49.18,8.3-81.17c-2.81-12.5-1.47-50.28-1.99-55.45c-1.03-10.26-0.98-10.76-0.4-12.91
		c0.1,0.01,38.13,4.34,38.23,4.4c4,2.3,8.41,1.6,12.61,1.7c1.53,1.02,0.1,13.56,0.02,14.98c-0.63,11.06,0.04,16.41-1.52,22.05
		c-4.29,15.54-3.74,15.91-4.8,17.11c-1.16,1.31,0.28,0.98-3.6,14.31c-0.58,2.01-1.18,4.11-1.7,6.2c-0.65,2.62-4.07,10.08-3.88,10.45
		c3.25,4.65-0.41,17.56-1.77,22.69c-0.63,2.37-1.03,4.72-2.75,6c-2.58,1.92-0.7,6.97-3.2-4.3c-1.71,5.83,1.2,11.42,1.18,16.18
		c-0.01,1.92-2.47,24.45-2.48,24.55c-1.29,11.13-2.49,11.45-4.2,27.52c-1.44,13.5-3.43,15.06-3.4,24.68
		c0.01,3.12,0.46,5.64-1.79,4.98c-0.65-0.19-1.27-0.68-2.01-0.73c-1.48,1.21-2.01,0.76-14.71-1
		C51.18,520.34,50.78,497.69,46.2,474.42z M91.72,413.48c-0.4,2.78-1.44,3.95-0.61,6.61c0.05,0.1-3,7.02-3.98,8.88
		c-3.74,7.07-3.9,14.9-4.4,16.41c-0.61-5.07,0.04-10.46,0.5-15.31c3.22-4.63,6.88-11.84,7.21-15.21c1.25-13.11-0.51-9.87-0.64-13.83
		c-0.12-3.58,6.33-18.21,7.84-24.2c5.94-23.59,5.59-23.35,5.99-20.72c0.99,6.39-7.21,32.11-9.39,38.34
		c-1.33,3.8-2.33,3.83-2.32,7.37C91.92,405.18,92.61,407.35,91.72,413.48z M82.28,453.13c0,0.28-0.07,0.58-0.27,0.87
		C81.57,452.67,82.31,451.62,82.28,453.13z M70.18,526.05c-0.29,0-0.31-0.19-0.38-0.8C70.42,525.12,71.32,526.05,70.18,526.05z
		 M67.3,527.54c-5.9,0.8-11.81,1.1-17.81,1.2c-0.4-1.59-0.3-3.29-0.3-4.89c1.9-1.26,12.84,0.51,15.13,0.79
		C66.68,524.93,67.18,525.04,67.3,527.54z M47.99,531.85c7.48-1.13,20.2-2.14,20.24-1.99c0.54,1.97,1.08,3.72,1.67,5.39
		c0.2-2.1,0.6-4,0.2-6.3c0.1-0.03,4.22-1.54,4.22-0.71c0.97,3.83,1.04,3,1.78,12.22c0.1,0.2-0.1,0.5-0.3,0.9
		c-1.3,0.2-2.5-0.8-3.6-0.5c-0.76-0.41-1.08-1.14-1.5-1.58c-0.71-0.76-0.91-0.19-0.76,0.28c0.96,3.05-3.37,1.1-12.14,2
		c-2.7,0.28-5.5,0.4-8.31,0.6c-0.95,0-1.01-0.28-1.9-8.91C47.49,532.75,47.49,532.25,47.99,531.85z M52.49,548.36
		c-2.48-0.31-4.53-1.73-3.43-4.02c0.09-0.28,17.69-0.88,19.44-0.88c-0.5,1.6-1.3,2.6-2.4,3.3c-3.4,0.6-7,1.2-10.71,0.9
		C54.09,547.46,53.29,548.56,52.49,548.36z M52.29,553.47c-1.83-0.46-3.35-2.8-1.24-2.75C52.67,550.76,53.13,552.11,52.29,553.47z
		 M55.49,550.47c4.6-1,9.51-0.3,14.11-1.8c0.1-1-0.5-2.3,1.1-2.9c0.75,0.75,0.31,0.12,2.2,6.1c-2,2-3.49,4.33-5.9,5.9
		c-3.52,2.3-10.32,0.51-13.61-2.9C55.39,553.97,54.79,551.97,55.49,550.47z M33.18,578.18c4.64-6.14,6.22-14.97,6.8-15.81
		c3.2-4.62-0.85-11.51,3.45-16.07c1.16-1.23,2.98-0.66,3.44,1.06c-5.52,4.6-3.63,5.7-3.99,9.68c-0.65,7.06-5.83,15.18-5.71,20.54
		c0.02,1.19-0.4,2.48-0.99,3.4C34.56,580.78,33.86,579.68,33.18,578.18z M110.23,568.08c0.57-0.58,7.59,1.64,9.41,2.3
		c0.9,1.1,0.9,2.4,1.4,4c-0.05-0.01-0.09-0.03-0.14-0.04C104.47,569.31,107.67,570.69,110.23,568.08z M104.23,565.28
		c2.76,0.55,2.93,1.72,1.8,3.7c-1.3,0.28-2-0.35-3-1C102.93,566.78,103.33,565.98,104.23,565.28z M97.82,560.77
		c0.8,0.6,1.4,1,1.9,1.4c0.4,1.7-0.7,2.9-0.8,4.3c-0.73,0.15-1.46,0-1.7-0.7C95.9,561.96,92.62,565.5,97.82,560.77z M92.82,558.87
		c-0.9-0.3-1.4-1-1.7-1.9C92.73,556.88,93.15,557.21,92.82,558.87z M88.72,559.27c0,4.71-9.87,8.62-4.8,10.31
		c3.1-0.4,4.6-3.2,6.6-5.4c1.19-0.3,1.4,0.88,2.09,1.19c0.68,0.68-3.37,3.46-3.89,5.01c0,2.43,2.7,2.36,4.4,0.9
		c0.71-0.71,1.89-1.89,2.7-2.8c7.79,3.66,1.59,4.11,1.2,7.91c0.28,1.41,1.9,1.82,2.8,1.1c2.48-1.65,2.91-2.47,4.3-4.1
		c1.19-0.22,2.6,0.46,2.47,1.27c-0.2,1.34-1.71,1.87-2.07,3.03c2.9,1.7,4.2,1.3,7.81-2.9c2.1,2.7,5.3,3.11,8.41,3.6
		c5.06,0.8,3.53-0.49,5,5.4c3.91,12.52,7.2,10.64-20.91,13.41c-3.46,0.34-3.9,0.16-18.11-2.4c-2.56-0.46-8.2-0.45-12.71-2.1
		c-3.65-1.34-4.32,0-9.41,0c-0.8,0-1.6,0-2.3,0.2c-6.17,2.24-18.96,0.23-25.92-4.4c1.9-4.94,3.26-7.27,3.1-10.01
		c-0.18-3.08,1.02-5.37,3.2-11.91c0.62-1.23,2.81-0.23,2.7-5.2c-0.02-0.87-0.28-7.89,0.06-8.86c0.4-1.14,1.37-0.91,2.04-0.05
		c1.41,1.79,3.7,2.8,4.6,5c1.4,0.7,2.5,1.7,3.4,2.7c3.94,0.93,8.72,3.25,13.21-0.6c6.35-5.44,9.91-7.02,11.51-11.81
		c1.57,1.64,2.85,3.57,5.2,7.11c-1.38,3.18-6.23,6-8.11,7.51c-2.64,2.11-2.12,3.7-0.1,4.3c2.2-0.2,3.9-1.9,5.7-3.2
		C87.02,560.51,87.52,556.88,88.72,559.27z M88.21,552.58c-0.32,0.32-0.33,0.23-0.36-0.15c0-0.05,0-0.09-0.01-0.11
		C87.9,552.39,88,552.47,88.21,552.58z M83.91,543.06c-0.43,3.17,2.93,6.93,3.31,7.47c0.86,1.21,0.46,1.49,0.59,1.75
		c-0.11-0.03-0.51,0.23-1.89-1.7c-3.37-4.21-3.19-5.45-5.1-5.6c-0.71,1.07-1.4,2.02-2.6,2.6c-2.5,1.2-3.5,5.22-3.5-2.1
		c0.7-1.2,2-0.7,3-1.5c0.3-0.5,0.8-1.2,1.3-1.9C81.02,541.54,82.48,541.43,83.91,543.06z M80.71,535.25
		c-1.37,2.12-0.96,1.75-2.3,1.21c-0.58-1.61-0.59-3.35-0.3-5C79.93,531.23,82.11,533.09,80.71,535.25z M81.71,537.16
		c-1,1.16-2.92,2.46-2.92,1.03c0-0.43,0.41-0.74,0.65-1.12C80.22,537.07,80.79,537.16,81.71,537.16z M87.61,533.55
		c2.34-1.4,1.5,0.11,2.4,0.5c6.45-0.72,6.7-0.74,6.7,0.4C90.13,535.67,86.61,533.55,87.61,533.55z M115.4,534.59
		c-1.33,0.64-2.9,0.14-4.57-0.04c0.66-0.66,1.59-1.29,4.42-1.29C115.84,533.66,116.13,534.24,115.4,534.59z M214.8,499.13
		c-1.14,0-9.01-9.78-14.61-9.41c-7.2,0-6.59-0.47-14.11,2.5c-5.96,2.35-10.98,4.36-12.51,9.61c-2.03,6.97,3.19,17.93,6.79,21.49
		c2.38,2.35,2.31,1.5,3.67,5.85c1.09,3.47,4.32,2.78-31.28,2.78c-19.21,0-15.63,0.4-20.51,0.4c-6.1-4-9.01-4.1-12.91-0.3
		c-6.5-1.4-9.31-0.9-12.11,1.4c-8.4,0.35-5.67-2.4-13.11-2.4c-2.3,0-4.6,0-7.21,0c-2.2-2.3-5.1-3.8-8.41-3.7
		c-0.72-0.23-1.2-0.87-1.9-1.37c-1.22-0.87-1.7-0.43-3.1-0.03c-0.19-0.26-0.4-0.52-0.4-0.7c0.6-2.81-0.67-2.32,0.5-11.11
		c2.34-17.51,4.25-33.69,9.51-50.54c3.98-12.74,2-12.79,4.3-28.92c0.19-2.31,1.15-1.26,5.2-12.71c0.87-2.47-0.17-2.58,0.2-3.7
		c1.3-2.7,0.79-5.81,1.4-8.61c0.51-2.36-1.88-6.87,1.1-12.91c7.6-15.39,10.81-30.53,10.81-41.23c0-2.84,0.46-9.86,0.4-10.61
		c-9.32-122.19,3.87-60.9,0.9-139.4c-0.67-17.79-4-19.71,0.2-17.61c5.1,3.1,10.61,5.39,15.81,8.31c3.1,1.74,3.65,0.89,10.41,2.1
		c16.04,2.88,37.16-3.66,45.83-3.1c9.37,0.61,15.46-2.34,29.82-3.7c5.59-0.53,9.07-2.63,12.31-1.1c2.9,1.16,3.9-0.79,6,0.2
		c1.36,0.64,2.7-0.2,4.6-0.2c0.42,1.68,0.9,301.51,0.9,301.61c-1.3,0.8-2.7,1.3-3,2.7c-3.82,1.74-5.88-2.77-14.71,1.4
		C214.6,497.03,215.4,498.23,214.8,499.13z M227.31,503.53c2.25,0,1.7,22.18,1.7,25.62c-0.53,1.06-1.5,0.93-2.2,1.44
		c-0.31-8.02-0.5-5.73-0.5-7.03C227.76,515.69,223.66,509.7,227.31,503.53z"/> <path d="M52.99,41.31l0.1-0.1C52.93,41.21,52.96,41.2,52.99,41.31z"/> <path d="M55.19,34.7l0.1-0.1C55.13,34.6,55.19,34.54,55.19,34.7z"/> <path d="M238.72,537.46l0.1,0.1C238.86,537.52,238.77,537.48,238.72,537.46z"/> <path d="M23.57,91.84l0.1,0.1C23.67,91.72,23.7,91.78,23.57,91.84z"/> <path d="M64.16,8.24c-0.1-0.1-0.05-0.08-0.12,0.05c0.58-0.12,1.44-0.11,2.36-0.11C65.04,7.79,64.99,7.78,64.16,8.24z"/> <path d="M211.5,570.48l0.1,0.1C211.66,570.41,211.67,570.51,211.5,570.48z"/> <path d="M873.17,437.59c-2.01-430.61-1.39-401.95-2.3-403.08c-2.93-1.3,0.85,522.77,0.9,522.87
		C874.76,560.36,873.72,556.14,873.17,437.59z"/> <path d="M305.57,551.07c0.15-1.05-1.6-392.68-1.6-392.78C300.44-283.69,300.54,584.94,305.57,551.07z"/> <path d="M859.06,28.8c-2.62,0.65-1.92-4.97-1.6,53.14C863.4,1171,860.89,36.12,859.06,28.8z"/> <path d="M314.67,35.8c-1.71-0.16-1.21,1.11-1.2,8.11C315.4,1211.56,318.76,37.56,314.67,35.8z"/> <path d="M867.36,587.39c-4.55-3.81-3.99-7.06-5.9-7.41c-5.37,3.07-4.61,0.97-8.51,3.5c-12.27,7.99-5.08,0.21-17.31,9.11
		c-10.49,1.23-10.94,5.74-26.02,3.7c-10.89-1.47-23.07-7.26-24.22-8.41c-0.98-1.47-3.22-4.71-3.6-6.3
		c-3.63-15.23,7-29.37,8.01-31.72c0.16-0.64-0.78-2.29-3,1.1c-6.56,10.01-10.5,22.1-7.21,31.62c1.01,2.93-1.02,6.27,4.4,9.41
		c14.36,8.31,24.85,6.4,36.13,6.4c0.6,0,1.41,0.11,1.9-0.1c2.63-1.13,5.4-1.03,8.11-1.7c11.36-2.82,5.63-1.67,14.11-6.1
		c2.31-1.21,1.03,0.69,3.8-1.1c8.5-5.49,8.61-4.92,13.21-5.9c1.2,2.8,3.34,4.75,5.6,6.6c0.71,0.58,1.2,1.6,1.9,2.3
		c1.5,1.5,3.23,2.29,3.4,0.1C870.67,590.89,869.16,588.9,867.36,587.39z"/> <path d="M311.37,588.99c-3.36-2.24-4.17-6.59-5.6-7.31c-7.72,3.43-1.46-1.13-12.01,5.5c-5.96,3.75-1.46-1.63-14.11,6.8
		c-12.37,1.5-17.38,9.15-46.23-2.7c-13.5-5.55-8.39-26.49-0.3-39.03c1.32-2.32-0.43-3.04-2.2-0.3c-13.06,20.23-6.63,33.03-6.8,34.72
		c-0.91,8.88,19.06,13.31,28.02,13.31c17.01,0,10.77-0.15,28.12-3.4c1.9-0.24,0.77-0.46,8.91-5.2c1.41,0.35,2.04,0.25,9.21-4.4
		c2.07-1.35,4.4-1.6,6.8-1.9c1.4,2.1,2.62,4.28,4.7,5.6c2.02,1.28,2.7,4.1,5,4.8c0.8,0,1.2-0.3,1.4-1.1
		C313.98,591.64,312.87,589.99,311.37,588.99z"/> <path d="M66.7,42.01l-0.1-0.1C66.62,41.97,66.63,42.01,66.7,42.01z"/> <path d="M53.59,45.71c0.15,0.05,0.06,0.09,0.1-0.1L53.59,45.71z"/> <path d="M56.78,44.14l0.01-0.03C56.65,44.25,56.68,44.21,56.78,44.14z"/> <path d="M191.89,556.87c6.79,1.13,8.18-3.74,6.5-6.3c-1.62-2.49-4.98-2.88-7.1-0.7C188.55,552.66,189.11,556.1,191.89,556.87z
		 M193.18,554.57c0.57,0.01,1.14,0.1,1.71,0.1C195.26,556.03,192.99,555.84,193.18,554.57z M193.49,549.96c1.5,0.6,2.9,1.2,2.7,3.3
		c-1,0.4-1.3-0.6-2-0.7c-0.16-0.02-2-0.3-1.8-0.3C192.08,551.3,192.4,550.47,193.49,549.96z M192.28,552.35
		c0,0.97-0.03,1.42,0.6,2.04c0.13,0.13-0.35,0.02-0.45-0.41c-0.08-0.32,0.05-0.27-0.2-0.4
		C191.52,553.22,191.65,552.79,192.28,552.35z"/> <path d="M316.38,573.98c-1.95-2.43,0.13-1.4-4.4-6.1c-0.2-0.2-0.5-0.2-0.7-0.3c-0.6,0-0.9,0.2-1.3,1.5c2.4,2.2,3.48,5.63,5.9,8.01
		c2.58,2.53,3.5,6.2,5.9,8.71c1.6,0.16,2.08-1.08,1.3-2.2C320.84,580.35,319.28,576.68,316.38,573.98z"/> <path d="M747.98,555.37c6.18,1.35,9.04-4.83,5.2-7.61C747.35,543.54,742.19,554.11,747.98,555.37z M748.28,552.67
		c0.18,0.18,0.2,0.04,0.2,0.32C748.41,552.88,748.34,552.78,748.28,552.67z M748.59,553.17c0.74,0,1.42-0.01,2.19-0.09
		C750.86,554.46,749.47,554.31,748.59,553.17z M749.36,548.57c0-0.44,5.09,2.33,1.7,4.24c0-2.19-1.28-1.75-2.88-1.75
		C748.41,551.07,747.36,549.8,749.36,548.57z"/> <path d="M873.37,573.68c-3.92-4.5-1.94-4.25-6.2-7.91c-2.79,2.32,0.4,2.58,1.8,5.9c1.17,2.76,3.13,3.32,5.5,7.71
		c0.98,1.81,1.9,3.5,3.3,5c0.5-0.2,0.9-0.2,1.2-0.4c1.31-1.31-1.76-4.23-3-6.6C875.37,575.98,874.34,574.8,873.37,573.68z"/> <path d="M880.87,564.07c-0.9-0.5-1.8-0.9-2.8-1.4c-4.08,2.4-7.5-0.67-12.61-0.3c-1.01,0-1.75,1.26-0.8,2.2
		c6.19,0.31,6.79,1.66,9.71,1.4c2.4-0.21,4.8,0.1,6.6,1.9C882.73,566.82,882.53,567.39,880.87,564.07z"/> <path d="M321.98,564.17c-4.62,3.46-13.02-3.91-13.7,1.71c8.05,0.92,8.31,1.57,12.3,1.49c2.88-0.06,3.09,1.3,4.6,1.8
		c1.94-0.24,0.74-2.05-0.3-3.7C323.88,565.08,322.98,564.68,321.98,564.17z"/> <path d="M308.17,565.88l0.1,0.1C308.27,565.89,308.32,565.88,308.17,565.88z"/> <path d="M753.08,507.33c-0.62-3.61-5.61-5.74-7.91-2c-1.62,2.64,2.21,5.85,3.8,6.3C751.63,511.49,753.33,508.79,753.08,507.33z
		 M747.7,506.12c-1.17,0,0.77-1.85,0.87-0.38c0,0.48,0.94-0.8,2.02,1.89c-0.1,0.5-0.3,1-1.1,1.1
		C748.31,504.8,748.74,505.95,747.7,506.12z"/> <path d="M194.69,505.63c-3.49-2.14-7.78,2.65-4.4,5.5c0.7,0.6,1.5,1.3,2.4,2.1C196.98,512.91,199.27,508.44,194.69,505.63z
		 M191.79,507.03c1.8,0.3,1.8,0.3,2.9,2.2C193.16,512.3,193.67,507.98,191.79,507.03z"/> <path d="M61.5,31.8c-3.1-0.34-6-1.8-9.41-2.9c3.5,3,6.8,4.1,17.81,5.8c4.61-1.97,5.24-1.81,5.56-2.73
		c-0.79-0.16-1.1-0.91-1.77-1.57c-0.4,0.7-1.1,1.2-2,1.4c-0.08,0.48-0.37,0.74-0.7,0.9c-0.39,0.98-1.07,0.71-2.1,0.6
		c0.67-0.52,1.29-0.76,2.1-0.6c0.1-0.38,0.37-0.57,0.7-0.9C70.72,29.86,70.27,32.77,61.5,31.8z"/> <path d="M72.1,68.63c-1.02-1.02-1.26-0.97-2.3-3.4c-0.2-0.4-1.47-2.72-1.8-3.8c-0.87-2.81,0.17-3.22-1.2-3.9
		c-2.1,4.5,0.6,7.51,3.1,10.41c0.6,5.6,0.8,6.6,2.4,9.01c0.6-2.1-1.1-4-0.4-6c0.5-0.1,1-0.3,1.5-0.4
		C73.3,69.63,72.6,69.23,72.1,68.63z"/> <path d="M93.92,43.41c1.05-3.15,4.02-0.29,0.48-0.08C94.23,43.34,94.07,43.36,93.92,43.41c1.2,1.3,2.8,2.2,4.7,2.8
		c0-2.2,1.3-3.8,1.6-5.5c1-0.7,2.2-1,2.4-2.3c-4.1,0.3-7.61,1.8-10.71,4.7C92.72,43.21,93.32,43.31,93.92,43.41z"/> <path d="M308.97,579.09c0-12.11,0.59-11.09-0.7-12.96c-0.55,0.27-1.02,0.49-1.3,1.15C306.64,571.96,306.15,582.84,308.97,579.09z"/> <path d="M308.37,566.08l-0.2-0.1C308.28,566.16,308.26,566.13,308.37,566.08z"/> <path d="M864.36,577.98c0.7-2.6,0.8-9.41,0.2-13.51c-0.8,0.1-1.4,0.4-1.9,1.1C862.29,568.87,861.72,580.1,864.36,577.98z"/> <path d="M55.49,55.52c-10.87-15.22-1.23-3.13-12.81-16.21c-0.19,3.21,5.79,7.53,10.41,14.71c0.3,0.6,0.8,1,1.3,1.4
		C54.69,55.72,55.09,56.22,55.49,55.52z"/> <path d="M73.6,27.7c0.1,1-1,1.1-1.1,1.9c2.96-0.3,5.14-1.96,6.73-4.4c-0.64,0.02-1.3-0.32-2.03-0.6c-2.91,2.57-5.9,0.44-9.09,0.41
		C68.19,25.81,68.37,25.6,73.6,27.7z"/> <polygon points="68.02,24.97 68.02,24.97 68.02,24.98 	"/> <path d="M68.02,24.97C67.35,24.8,67.82,25.02,68.02,24.97L68.02,24.97z"/> <path d="M68.1,24.9l-0.08,0.08C68.07,24.96,68.1,24.94,68.1,24.9z"/> <path d="M79.41,25.2l-0.1-0.1C79.25,25.18,79.16,25.24,79.41,25.2z"/> <path d="M29.57,46.61c1.36-6.11,3.89-9.72,3.5-11.41c-3.2,4.8-5.8,12.21-5.8,16.61C28.27,50.21,29.15,48.51,29.57,46.61z"/> <path d="M88.61,16.09c0-0.09-0.01-0.12-0.1-0.1L88.61,16.09z"/> <path d="M239.62,91.14c2.98-0.81,0.31-3.22,1-5.3c0.1-0.4-0.3-0.9-1-1.1C236.08,85.83,237,90.16,239.62,91.14z"/> <path d="M796.41,95.24c1.4-1.8-0.6-3.9,0.3-5.9C792.2,86.76,792.76,97.07,796.41,95.24z"/> <path d="M42.58,132.87c2.3,2.6,5,4.4,8.81,4.1c-0.5-1.5-1.8-1.4-2.9-1.7c-1.39-0.76-4.47-3.91-5.7-3.8
		C42.38,131.97,42.28,132.47,42.58,132.87z"/> <path d="M217.51,520.64c0,2.7,0.1,5.6-1,8.11C219,531.6,221.29,520.22,217.51,520.64z"/> <path d="M64,11.69c-8.91,1.1-11.51,2-14.01,4.6C60.55,12.27,63.22,13.25,64,11.69z"/> <path d="M38.98,25c-0.04,0.02-0.08,0.03-0.12,0.05C38.91,25.15,38.86,25.12,38.98,25z"/> <path d="M36.98,23.59c-2.64,1.58-6.78,3.28-7.94,7.4c2.48-1.65,2.78-3.38,9.82-5.94C38.55,24.17,37.96,23.59,36.98,23.59z"/> <path d="M93.82,33.9c0.72,1.08,1.42,0.68,10.41,0.1C101.32,31.9,98.72,31.9,93.82,33.9z"/> <path d="M773.2,527.95c2.34-1.17,2.5-5.44,1.8-8.21c-0.1-0.4-0.5-0.9-1.4-0.5C773.21,529.72,770.83,526.17,773.2,527.95z"/> <path d="M75.21,14.89c0.87,0.42,10.02,4.79,10.71,4.1C81.92,15.17,72.77,13.7,75.21,14.89z"/> <path d="M77.91,21.28c0-1.89,5.64-0.47-3.8-3.09c0.12-0.12,0.07-0.11-0.07-0.03l0.07-0.07c-0.3,0-0.2-0.02-0.11,0.09
		c-0.44,0.26-1.59,1.08-1.89,1.31C78.14,22.23,77.91,20.79,77.91,21.28z"/> <path d="M73.2,38.81c-3.67,2.27-6.47,1.45-7.5,2.22c-0.26,0.26-1.78-1.61-3.31-1.82c-2.36,1.28-3.57,3.53-5.61,4.93
		c-0.48,1.39-0.09,2.78-0.19,4.27c-1.76-0.29-1.52-2.29-2.91-2.66c-0.24,2.17,2.31,2.61,2.31,6.86c1.2-0.5,0.3-2,1.5-2.2
		c1.32,0.66,3.1,3.39,3.3,5.6c0.62,6.83,7.18-0.35,3.8-1.1c-0.6,0.5-1.1,1.2-1.7,1.8c-0.7-1-0.49-2.01-0.8-3
		c-0.29-0.91-1.1-1.7-0.9-2.8c-0.39,0-0.69-0.26-0.69-0.78c0.43,0.1,0.7,0.22,0.7,0.77c1.81-0.2,1.09,1.9,2.6,1.9
		c0.5-0.7,1.8-0.9,2-2.3c-0.2-0.5-0.4-1-0.6-1.6c0.2-0.9,1.3-1.5,1.2-2.7c-1.17-2.11-1.36-2.79-1.67-3.06
		c-0.94-0.82,0.03-0.49,0.17,0.15c1.7,0.1,2.7,1.9,4.8,2c0.5-0.3,1.2-0.7,1.2-1.7c-1.2-0.3-2.4-0.6-3.6-0.9
		c-0.69-0.17-0.41-0.6-0.9-0.81c0-0.05-0.01-0.06-0.01-0.09c-0.53,0-0.43-0.55-0.66-0.7c0.68,0,0.56,0.71,0.75,0.71
		c2.47,0.01,4.8,0.6,6.83-1.61C73.6,39.81,74,39.41,73.2,38.81z M62.94,41.33c0.38,0.48,0.24,0.38-0.91,0.38
		C61.89,41.71,62.49,40.76,62.94,41.33z M62.6,43.81c0.56,0,0.49,0.74,0.63,1c-0.62,0-0.83,0-1.43,0
		C61.77,44.28,62.13,44,62.6,43.81z M59.19,45.31c0.6,0.5,0.21,1.3,0.3,1.9c0.1,0.63,0.1,1.33,0.1,1.98
		C58.93,47.6,57.73,46.19,59.19,45.31z M59.76,49.47c0.26,0.09,0.45,0.24,0.56,0.48C60.16,49.79,59.97,49.62,59.76,49.47z
		 M62.7,49.71c0-0.03-0.02-0.08-0.05-0.15C63.03,49.73,62.88,49.71,62.7,49.71z M65,46.21c0.24,1.34-1.15,0.69-1.91,2.05
		c-0.21,0.38-0.37,0.78-0.54,1.14c-0.97-0.12-1.56-0.8-1.95-1.59c-0.82-1.28-0.11-1.97,1.2-2.9c-0.06-0.22,0.07,0.05,0.45,0.42
		c0.32,0.31,0.66,0.41,1.07-0.4C64.31,45.52,64.56,45.34,65,46.21z"/> <path d="M43.48,46.51c0.55,2.39,5.91,10.35,6.8,8.11C45.6,50.15,44.71,46.51,43.48,46.51z"/> <path d="M118.44,174.7c1.1,2.2,3.3,1.9,6,2.3C121.95,174.95,119.16,171.81,118.44,174.7z"/> <path d="M73,35.2c-2.4,0.8-4.3,2.5-6.6,3.4C69.4,39.01,71.6,37.8,73,35.2z"/> <path d="M229.71,496.53l-0.1,0.2C229.81,496.69,229.81,496.73,229.71,496.53z"/> <path d="M229.78,496.7c0.56,1.47-0.31,3.18,1.13,4.53C231.15,500.37,233.73,495.82,229.78,496.7z"/> <path d="M51.39,54.82c2,4.4,2,4.4,3.6,5.1C53.49,56.72,53.29,56.42,51.39,54.82z"/> <path d="M58.09,108.65c-1.4-1.1-3-1.1-5.3-0.9c1.8,1.5,3.3,1.6,4.9,1.6C57.79,109.35,57.89,108.95,58.09,108.65z"/> <path d="M786.31,499.33c1.88-1.5,2.16-4.72-0.4-4.2C786,496.43,785.71,497.83,786.31,499.33z"/> <path d="M777.2,496.43c-0.2,1.2,0.2,2,1.5,2.1C779.86,496.6,778.16,495.14,777.2,496.43z"/> <path d="M625.09,544.06c2.3-1,2.3-1,1.7-3.5C625.69,541.36,625.09,542.26,625.09,544.06z"/> <path d="M215.3,185.71c1.3,1,2.3,0.9,3.9-0.2C217.51,184.11,216.5,185.21,215.3,185.71z"/> <path d="M70.2,28.5c-1.3-0.4-2.5-0.7-3.7-1C67.5,28.4,68.7,29.2,70.2,28.5z"/> <path d="M23.57,96.45c0-1.4,0-2.9,0-4.4C22.87,93.54,23.17,95.04,23.57,96.45z"/> <path d="M222.61,500.03c0.7-1,0.6-1.8-0.6-2.8C221.11,499.03,221.11,499.03,222.61,500.03z"/> <path d="M48.69,19.09c-1-0.2-1.9-0.3-3.2,0.5C46.74,19.59,48.37,19.83,48.69,19.09z"/> <path d="M225.51,498.63c-1.26,1.57,1,2.45,1,0.9C226.51,498.93,226.11,498.63,225.51,498.63z"/> <path d="M781.8,499.03c0.84-0.56,0.61-1.9-0.1-1.9C781.19,497.13,780.53,498.48,781.8,499.03z"/> <path d="M766.59,565.98c-1,0.1-1.2,0.7-1.3,1.5C765.5,567.58,766.86,567.34,766.59,565.98z"/> <path d="M86.31,15.08c0.05,0,0.07,0.03,0-0.1c-0.25,0.34,0.38-0.6-1.47-0.6C85.06,15.17,85.64,15.18,86.31,15.08z"/> <path d="M86.36,15.09c0.75,1.68,1.04,1.38,2.07,0.76c-0.37-0.07-0.55-0.32-0.65-0.66c0.47,0.02,0.74,0.24,0.81,0.66
		c-0.1-0.08-0.06-0.07-0.17,0c1.41,0.28,1.44,1.61,2.48,1.33c0.5-0.8-0.8-1.3-0.3-2c2.7,1.5,2.7,1.5,5.2,1.1
		c-0.27-2.43-6.58-3.47-9.01-3.2c0.1,0.96,1.01,1.19,1,2C87.7,14.98,88.11,15.09,86.36,15.09z"/> <path d="M626.29,536.26c1.2-0.6,1.2-1.2,0.6-1.9C626.29,534.75,626.09,535.25,626.29,536.26z"/> <path d="M54.99,43.31c-0.38-0.96-1.14-1.44-2.25-1.39C53.15,42.93,53.93,43.22,54.99,43.31z"/> <path d="M52.59,41.91c0.23,0,0.14,0.06,0.1-0.1L52.59,41.91z"/> <path d="M79.11,21.59c-0.5-0.17-0.79-0.26-1.11-0.35c-0.05,0.63-0.87,0.8-0.8,1.45C78.06,22.76,78.72,22.46,79.11,21.59z"/> <path d="M77.11,22.69l0.1,0.1C77.18,22.68,77.25,22.69,77.11,22.69z"/> <path d="M27.37,33.4c-0.46,0.64-0.58,1.38-0.59,2.19C27.36,34.99,27.37,34.15,27.37,33.4z"/> <path d="M73,14.19c0.8,0,1.4,0.1,1.9,0.1C74.41,13.89,73.9,13.59,73,14.19z"/> <path d="M77.11,30.4c0.6-0.1,0.9-0.5,0.9-1.3C77.31,29.4,77.21,29.8,77.11,30.4z"/> <path d="M627.69,528.25c-0.6,0.5-0.7,0.9-0.1,1.5C628.19,529.25,628.29,528.75,627.69,528.25z"/> <path d="M32.88,42.71l-0.1-0.1C32.78,42.83,32.75,42.77,32.88,42.71z"/> <path d="M60.7,136.87c-0.5-0.6-0.9-0.7-1.5-0.2C59.59,137.37,60.09,137.37,60.7,136.87z"/> <path d="M244.72,580.99c0.7,0.13,1.09-0.6,1.7-0.3c8.57-0.2,2.65-13.22-2.5-9.91c-0.7,1-1.59,2.11-2.3,3.3
		c-1.27,2.12-0.3,5.7,2.4,6c0.53,0,1.06,0.31,1.59,0.52C245.32,580.61,244.9,580.37,244.72,580.99z M244.31,574.78
		c0-2.35,3.64-1.78,2.7,4.1C246.14,576.24,245.97,576.15,244.31,574.78z"/> <path d="M801.18,579.06c-0.13,0.02-0.43,0.03-0.97,0.03C800.69,579.75,800.98,579.51,801.18,579.06z"/> <path d="M801.18,579.06c0.02,0,0.03-0.01,0.05-0.01c-0.01,0-0.03-0.01-0.03-0.01C801.19,579.04,801.19,579.05,801.18,579.06z"/> <path d="M801.23,579.05c0.52,0.22,2.27-0.02,2.99-0.16c1.4-0.6,2.3-1.5,2.4-3.1c0-0.8,0.1-1.6-0.1-2.3
		c-0.66-2.99-4.07-6.13-6.7-4.3c-0.8,1-1.63,2.08-2.3,3.3C794.56,577.83,801.72,578.86,801.23,579.05z M800.12,573.38
		c0.33-2.67,3.52-0.97,3.1,2.8c0,0.18-0.25,0.29-0.44,0.45c-0.14,0.14,0.01,0-0.16,0.35c-0.3,0-0.2-0.1,0.1-0.3
		C802.52,575.16,801.51,574.02,800.12,573.38z"/> <path d="M793.01,536.66c0.5,0.5,0.89,0.4,1.4,0.4C793.97,536.23,795.07,536.25,793.01,536.66z"/> <path d="M217.11,512.84c0.13-0.38,0.15-0.27-0.1-0.4L217.11,512.84z"/> <path d="M54.49,136.07c0.4,0.4,0.4,0.4,0.8,0C54.61,135.85,54.81,135.75,54.49,136.07z"/> <path d="M76.11,23.09c0.5,0.3,0.8,0.1,1-0.4C76.71,22.79,76.31,22.59,76.11,23.09z"/> <path d="M67.8,25c-0.03-0.02-0.03-0.02-0.05-0.03C67.66,24.95,67.64,24.95,67.8,25z"/> <path d="M48.09,108.55h-0.3C48.16,108.81,48.09,108.81,48.09,108.55z"/> <path d="M72.8,81.14c0.37-0.37,0.1-0.41,0.1-0.6C72.52,80.92,72.8,80.91,72.8,81.14z"/> <path d="M28.27,32.6l0.1,0.1C28.37,32.37,28.39,32.51,28.27,32.6z"/> <path d="M29.04,30.99c-0.45,0.45-0.66,0.65-0.66,1.5c0.68-0.66,0.49-1.39,0.59-1.29C28.99,31.13,29.02,31.06,29.04,30.99z"/> <path d="M54.89,35c0.2,0.2,0.4,0.6,0.8,0.3C55.59,34.9,55.19,35,54.89,35z"/> <path d="M26.47,36.7c0-0.26,0.08-0.58,0.16-0.86C26.29,35.95,26.03,36.17,26.47,36.7z"/> <path d="M26.63,35.84c0.14-0.03,0.15-0.01,0.15-0.25C26.6,35.77,26.71,35.66,26.63,35.84z"/> <path d="M53.39,45.71l0.1-0.1C53.3,45.57,53.39,45.51,53.39,45.71z"/> <path d="M53.37,45.57c-0.04-0.62-0.31-1.09-0.68-1.46C52.88,44.68,52.72,45.33,53.37,45.57z"/> <path d="M56.34,43.99c-0.43-0.35-0.82-0.67-1.45-0.58C55.15,44.1,55.78,43.97,56.34,43.99z"/> <path d="M56.59,44.01c-0.34-0.04-0.28-0.04-0.1,0.1L56.59,44.01z"/> <path d="M83.71,14.09c0.4,0.1,0.7,0.1,1,0.2C84.51,14.09,84.31,13.79,83.71,14.09z"/> <path d="M84.81,14.29l-0.1,0.1C84.88,14.39,84.84,14.41,84.81,14.29z"/> <path d="M71.8,17.19c0.17,0.08,0.39,0.11,0.58,0.17C72.19,17.25,72.14,16.94,71.8,17.19z"/> <path d="M211.1,187.11l0.1,0.2C211.63,187.31,211.58,186.79,211.1,187.11z"/> <path d="M132.15,176.6c0.11-0.11,0.13-0.2-0.2-0.2C131.84,176.51,131.82,176.6,132.15,176.6z"/> <path d="M63.7,167.6l-0.1,0.3C63.86,167.9,63.82,167.97,63.7,167.6z"/> <path d="M73.9,18.09c-0.4-0.48-0.94-0.5-1.5-0.6C72.76,18.03,73.35,18.08,73.9,18.09z"/> <path d="M28.19,32.83c0.23-0.04,0.21,0,0.08-0.13C28.24,32.74,28.21,32.79,28.19,32.83z"/> <path d="M27.47,33.5c0.35-0.09,0.54-0.39,0.72-0.67C27.83,32.9,27.64,33.16,27.47,33.5z"/> <path d="M79.48,25.07c0.07-0.11,0.1-0.14,0.03-0.07C79.51,24.94,79.51,24.99,79.48,25.07z"/> <path d="M210.64,571.36c0.48-0.05,0.66-0.33,0.66-0.78C211.03,570.67,210.76,570.94,210.64,571.36z"/> <path d="M209.8,571.98l0.1,0.1C209.94,571.91,210,572.01,209.8,571.98z"/> <path d="M210.6,571.28c-1.33,0.66-0.12,1.07-0.02,0.18l0.02,0.02c0.01-0.04,0.03-0.08,0.04-0.12
		C210.56,571.36,210.6,571.41,210.6,571.28z"/> <path d="M72.4,29.5c-0.05,0.05-0.1,0.12-0.14,0.2C72.34,29.69,72.4,29.66,72.4,29.5z"/> <path d="M72.2,29.7c0,0,0,0.1,0,0.2C72.2,29.73,72.34,29.7,72.2,29.7z"/> <path d="M209.7,572.68c0-0.2,0.1-0.4,0.1-0.6C209.8,572.28,209.1,572.18,209.7,572.68z"/> <path d="M76.41,31.2c0-0.09,0.02-0.12,0.02-0.12c0,0-0.03,0.02-0.12,0.02C76.31,31.25,76.22,31.25,76.41,31.2z"/> <path d="M77.01,30.3c-0.27,0.18-0.53,0.37-0.58,0.78C76.83,31.03,77.01,30.75,77.01,30.3z"/> <path d="M76.29,31.23c-0.44,0.09-0.76,0.22-0.68,0.76l-0.1-0.09c-0.02,0.06-0.09,0.06,0.1,0.1c0,0,0,0,0,0c0,0,0,0,0,0
		c0,0,0,0,0.01,0l0,0C75.97,31.91,76.24,31.65,76.29,31.23z"/> <path d="M32.88,42.71c0.05-0.05,0.07-0.12,0.09-0.19C32.92,42.54,32.88,42.59,32.88,42.71z"/> <path d="M33.08,42.31c-0.05,0.05-0.08,0.13-0.11,0.21C33.1,42.47,33.08,42.6,33.08,42.31z"/> <path d="M52.69,44.11c0.13,0,0.15,0.03-0.1-0.1L52.69,44.11z"/> <path d="M773.5,515.94l-0.2,0.1C773.43,516.17,773.37,516.19,773.5,515.94z"/> <path d="M217.01,509.14c0.13,0.26,0.07,0.25,0.2,0H217.01z"/> <path d="M73.8,85.74l-0.2-0.1C73.6,85.9,73.55,85.86,73.8,85.74z"/> <path d="M477.89,457.9c0.14,0.14,0.11,0.12,0.01-0.01L477.89,457.9z"/> <path d="M475.38,458.5c-0.43-0.03-0.69,0.24-0.69,0.7C475.15,459.29,475.35,458.95,475.38,458.5z"/> <path d="M475.49,458.5l-0.1-0.1C475.39,458.58,475.33,458.46,475.49,458.5z"/> <path d="M476.15,457.82c-0.24,0-0.51,0.13-0.61,0.39C475.33,458.77,475.96,458.39,476.15,457.82z"/> <path d="M476.28,457.8l-0.04-0.05C478.17,455.89,475.46,457.8,476.28,457.8z"/> <path d="M794.31,536.26c0,0.04,0,0.08,0,0.12C794.42,536.34,794.46,536.4,794.31,536.26z"/> <path d="M237.12,538.36c0.57,0.47,1.13,0.22,1.7,0.21c0.21,0,0-0.05,0-0.69C238.24,538.01,237.59,537.7,237.12,538.36z"/> <path d="M238.92,537.86l-0.1-0.1C238.82,537.89,238.79,537.89,238.92,537.86z"/> <path d="M604.98,279.37c-1.74-0.16-0.53,2.57-5.4,0.8c-1.5-0.64-3.77-0.18,1.16,1.53c2.82,0.98,2.26,0.88,1.05,5.26
		c-0.31,1.13-0.77,3.29-0.4,4.4c2.06-2.06,2.02-7.7,3.6-8.3c1.4-0.3,2.7,1.3,4.3,0.4c-0.92-1.37-3.03-1.24-4-2.4
		C604.98,280.58,605.58,279.87,604.98,279.37z"/> <path d="M518.96,431.9c0-0.37,0.26,0.31,1.29-0.37c6.76-4.47,11.84-4.25,9.57-6.45c-2.06-2-10.89,5.08-10.89,6.63
		c0-0.01-0.42,0.14-0.45,0.19C518.42,432,518.91,432.48,518.96,431.9z"/> <path d="M641.7,447.09c1.9-3.2,1.85-6.7,1.3-10.21c-0.11-0.7-0.8-1.3-2.1-0.7c-0.49,3.33,0.3,7.36,0.3,11.01
		C641.5,447.19,641.7,447.19,641.7,447.09z"/> <path d="M539.93,413.17c0.8,0.1,1.3-0.2,1.7-0.7c1.9-2.7,3.7-5.4,3.5-9.01c-1.2,3.4-4.6,5.3-5.8,8.81
		C539.53,412.57,539.73,412.87,539.93,413.17z"/> <path d="M537.93,446.29c0.3-0.1,0.8,0,1-0.2c4.4-5,4.62-8.42,4.47-8.42c-0.64-0.27-5.81,7.53-5.81,7.63
		C537.52,445.8,537.74,445.91,537.93,446.29z"/> <path d="M610.98,262.76c-0.6,0.1-0.99,0.31-1.2,0.8c-1.8,4.19-0.89,0.58-3.1,7.21c0.1-0.1,0.52-0.12,0.6-0.2
		C608.58,269.04,611.66,264.79,610.98,262.76z"/> <path d="M633.2,419.17c2.2-2.5,2.5-4.4,1.2-8.01C633.8,413.87,632.7,416.07,633.2,419.17z"/> <path d="M563.95,418.97c1.26-0.94-0.04-2.35-1.11-1.5c-4.91,3.9-4.89,3.68-4.61,4.08C558.38,421.71,562.3,420.2,563.95,418.97z"/> <path d="M595.07,312c-2.56,3.39-2.5,5.17-2.5,9.13C592.77,318,595.37,315.6,595.07,312z"/> <path d="M517.32,434.68c-0.46-3.22-3.94,1.38-5.3,3.09C514.11,437.29,516.02,436.48,517.32,434.68z"/> <path d="M507.81,442.49c1.62-1.62,3.7-2.41,4.1-4.8C509.44,439.61,507.81,438.97,507.81,442.49z"/> <path d="M581.56,309.9c-1.2-0.4-2.3-0.9-3.7-0.8c-1.38,0.25-1.78,1.34,0.4,1.43C580.41,310.61,581.04,310.5,581.56,309.9z"/> <path d="M634,406.26c0.2-2.2,1.2-3.7,0.4-5.6C633.1,402.46,633.1,402.46,634,406.26z"/> <path d="M544.64,435.58c0.7-0.7,1.2-1.5,0.7-3C543.94,434.68,543.84,435.28,544.64,435.58z"/> <path d="M591.54,325.14c0.26,0.23,0.38,0.59,0.68-0.77c0.1-0.45-0.03-0.78-0.26-1.05C590.93,324.49,590.92,324.65,591.54,325.14z"/> <path d="M502.31,448.69c0.9-0.6,1.6-1.1,1.8-2.1C502.41,446.59,502.41,446.59,502.31,448.69z"/> <path d="M598.37,300.49c0.74,0,0.26,0.92,1.1-3C598,298.04,597.7,299.15,598.37,300.49z"/> <path d="M545.94,400.96c1.3-1.5,1.3-1.5,1.3-2.7C546.16,398.81,545.76,399.52,545.94,400.96z"/> <path d="M545.84,427.08c1-0.3,1.3-0.9,0.7-1.9C545.41,425.48,545.25,426.12,545.84,427.08z"/> <path d="M637.6,467.31c-0.61,0.8-0.48,1.43,0.1,2.1C638,468.71,638.4,468.11,637.6,467.31z"/> <path d="M550.06,392.09c0-0.14-0.07-0.29-0.22-0.44C549.36,392.62,550.06,392.54,550.06,392.09z"/> <path d="M639.8,458.9c-0.38,0.38-0.1,0.38-0.1,0.6C640.08,459.12,639.8,459.12,639.8,458.9z"/> <path d="M577.44,311.57c-0.03,0.09,0.02,0.16,0.22,0.23C578.35,311.8,577.66,311.01,577.44,311.57z"/> <path d="M607.16,290.45c-0.64-0.4-0.85-0.46-1.19-0.67C606.15,290.44,606.65,290.42,607.16,290.45z"/> <path d="M607.39,290.58l0.09-0.1C607.07,290.48,607.09,290.37,607.39,290.58z"/> <path d="M606.08,289.68c-0.2,0-0.5-0.1-0.7-0.1C605.6,289.69,605.85,289.77,606.08,289.68z"/> <path d="M606.58,270.67c-0.2,0.3-0.3,0.4,0,0.3C606.58,270.97,606.58,270.77,606.58,270.67z"/> <path d="M597.38,280.07c0.03-0.01,0.06-0.01,0.09-0.02l0.01,0.02v-0.02c0.11-0.04,0.09,0.08-0.11-0.28
		C597.47,280.05,597.48,279.97,597.38,280.07z"/> <path d="M607.57,290.77c-0.09-0.09,0-0.19-0.2-0.19C607.58,290.79,607.62,290.97,607.57,290.77z"/> <path d="M601.28,291.28C601.08,291.58,601.38,291.38,601.28,291.28L601.28,291.28z"/> <path d="M643.36,308.85c0.27,0,0.24-0.22,0.24-0.12C643.6,308.57,643.7,308.5,643.36,308.85z"/> <path d="M643.21,308.9c-0.4,0.4-0.58,0.12-0.1,0.6C643.11,309.3,643.21,309.1,643.21,308.9z"/> <path d="M642,312.9c-0.1,0.2-0.1,0.4-0.2,0.6C642,313.4,642.6,313.5,642,312.9z"/> <path d="M641.7,313.4c-0.31,0.09-0.57,0.3-0.66,0.63C640.98,314.34,641.7,314.14,641.7,313.4z"/> <path d="M641.02,314.18c-0.04,0.01-0.07,0.02-0.12,0.02C641.04,314.33,640.99,314.33,641.02,314.18z"/> <path d="M634.15,335.54c-0.17-0.24-0.25-0.31-0.25-0.03c0,0,0.01,0.01,0.02,0.01C634.27,335.66,634.22,335.65,634.15,335.54z"/> <path d="M552.14,386.25c-0.25,0.25-0.27,0.2,0,0.2C552.27,386.45,552.27,386.5,552.14,386.25z"/> <path d="M607.48,148.78c-4.55-1.23-9.11-7.57-9.11-4.3C600.68,147.75,602.61,148.95,607.48,148.78z"/> <path d="M675.13,188.01c1.4,0.5,2.8,1.3,4.9,0.7c-1.8-1.1-2.8-2.6-4.5-3.1C674.33,186.71,674.23,187.61,675.13,188.01z"/> <path d="M610.18,120.96c2.66,0.89,3.9,1.15,3.9-0.3c-1.55-0.72-3.18-1.12-4.8-0.6C609.58,120.46,609.78,120.86,610.18,120.96z"/> <path d="M774,196.92c-1.16,0.1-2.23,0.39-3.2,1.23C770.36,198.59,776.28,199.2,774,196.92z"/> <path d="M615.19,148.98c0.39,0.19,0.43,0.44,0.86,0.43C617.51,149.38,615.79,148.06,615.19,148.98z"/> <path d="M619.39,180c0-0.1-0.1-0.2-0.1-0.3c-0.15,0.15-0.35,0.25,0,0.6C619.29,180.2,619.39,180.1,619.39,180z"/> <path d="M610.08,148.28c0.31,0.46,0.8,0.27,0.8,0C610.88,148.17,610.69,147.88,610.08,148.28z"/> <path d="M770.69,198.22v-0.1C770.57,198.37,770.55,198.36,770.69,198.22z"/> <path d="M767.19,199.22c0,0.07,0,0.13,0,0.2C767.45,199.42,767.44,199.47,767.19,199.22z"/> <path d="M609.77,58.74c0-0.09,0.01-0.03,0.01-0.12C609.68,58.72,609.64,58.74,609.77,58.74z"/> <path d="M610.21,41.9c-2.66-0.74-0.56,1.59,4.56,2.73c2.59,0.58-2.72-0.56,10.73,2.38c2.85-1.29,6.87-1.99,8.21-5.5
		c-1.01,0.65-1.87,2.1-3.1,2.1c-0.12-0.12-0.79-0.79-0.9-0.9c-2.29,1.92-1.62,1.48-2.6,0.5C619.33,46.54,610.33,41.93,610.21,41.9z
		 M627.75,44.24c-0.79,0.72-1.07,0.96-2.46,1.27C625.91,44.55,626.71,44.36,627.75,44.24z"/> <path d="M619.6,54.06c0.61,0.4,2.81,2.7,5.59,3.36c0.9-0.4,1.5-0.8,1.5-1.8c0.1,0-4.3-0.98-4.4-1c0.1,0-2.1-2.77-4.21-3.3
		c-1.4,0.9-2.6,2.2-3.8,3.4c-3.56,3.56-1.51,5.42-2.09,6c-1.36,0-1.22-1.79-2.41-1.98c-0.21,1.7,1.39,2.04,1.56,4.13
		c0.05,0.55,0.1,1.1,0.45,1.55c1.2-0.1,0.6-1.3,1.3-1.7c5.1,4.08,2.47,7.29,5.2,8.51c2.44-0.17,3.65-3.02,2.49-4.01
		c-1.3-0.1-1.2,1.7-2.7,1.7c0.4-2.4-0.71-4.3-2-6.2c-0.1-0.15-0.46-1.35-0.2-1c-0.53-0.53,2.34,1.78,3.01,3.11
		c0,0.1,0.4,0.1,0.6,0.2c0.8-0.7,2.1-1,2.2-2.4c-0.2-0.5-0.5-1.1-0.7-1.6c0.5-0.9,1.5-1.5,1.4-2.6
		C621.7,56.85,621.11,57.08,619.6,54.06z M615.09,60.78c-0.87-1.21-1.03-2.42,0-3.63C615.09,58.36,615.09,59.57,615.09,60.78z
		 M619.13,53.71c1.07,0.8-0.09-0.24-1.82,0.47C617.36,54.08,618.12,53.06,619.13,53.71z M618.89,60.52c0,0.56-0.15,1.09-0.2,1.4
		c-1.67-0.52-2.6-2.2-2.6-3.1c0.41-1.42,2.41-3.53,2.59-2.44c0.06,0.36-0.49,0.76-0.3,1.14c0.81,0.4,2.11-0.7,2.51,1
		C620.89,59.52,619.25,59.57,618.89,60.52z"/> <path d="M629.4,82.34c-3.5-3.4-5.5-7.71-6.2-12.71c-2.36,3.99-1.63,5.4,2.5,10.31c0.5,3.1,0.7,6.1,2.3,9.41
		c0.6-2.6-0.5-4.5-0.5-6.3C628.19,82.54,629,83.24,629.4,82.34z"/> <path d="M658.42,50.41c-2.33,1.16-6.54,0.37-8.21,3.7c0.41,0.24,1.8-0.49,1.8,0.7c0,1.12-1.31,0.76-1.7,1.4
		c1.3,1.1,2.6,2.1,4.4,2.3c0.4-2.01-0.63-0.27,1.3-5.1C656.81,52.11,658.62,52.21,658.42,50.41z"/> <path d="M611.17,67.33c-0.89-1.03-1.52-1.95-2.14-2.85c-8.42-12.29-2.03-2.26-9.16-11.46c-0.31-0.4-0.7-0.7-1-1.1
		c-0.09,0.09-0.24,0.18-0.35,0.26c-0.55,0.28,2.05,3.67,2.44,4.14C609.74,67.13,610.43,69.15,611.17,67.33z"/> <path d="M583.56,63.22c2.05-3.75,0.32,0.2,4.89-13.95c2.58-7.99-5.46,9.13-5.46,13.52C582.99,63.01,583.11,63.22,583.56,63.22z"/> <path d="M623.59,37.2c-0.1,0.1-0.15,0.14-0.01,0.09C623.75,37.25,623.73,37.34,623.59,37.2z"/> <path d="M623.71,37.29c1.78,1.41,4.12,1.63,6.08,2.71c-0.2,1.1-1.6,1.1-1.8,2.5c4.36-1.98,6.05-2.83,6.09-4.41
		c0.1,0.1,0.64-0.71,0.71-0.99c-0.88,0.88-0.49,1.29-1.8-0.3c-0.85,0.85-1.88,1.27-3.04,1.3C628.14,38.16,623.71,36.65,623.71,37.29
		z"/> <path d="M643.7,25.17c-1.26,0-1.49-0.7,2.49,4.01c0.66,0.66,0.75-0.4,0.92-1.08c-0.37,0-0.67-0.41-0.76-0.68
		c0.42,0.04,0.76,0.23,0.76,0.67c0,0.03,0.01-0.02,0.27-0.02c0.73,0,1.14,0.52,1.72,0.63C654.22,29.27,650.61,25.17,643.7,25.17z"/> <path d="M606.08,28.8c6.95-3.31,10.59-2.88,13.61-4.8C614.06,24.41,604.16,26.88,606.08,28.8z"/> <path d="M592.94,35.72c-0.1,0-7.44,3.56-6.87,6.08c0.21-0.14,4.19-2.26,8.01-4.6C594.29,37.2,594.64,35.97,592.94,35.72z"/> <path d="M649.81,46.01c0.77,1.74,2.56,0.2,9.81,0.2C657.78,44.72,654.79,43.51,649.81,46.01z"/> <path d="M634.19,33.29c-0.09-0.69,0.72-0.73,0.91-1.39c-1.88-0.5-3.57-1.57-5.54-1.5c-0.26,0.85-1.28,0.43-1.66,1.1
		C630.95,33.07,631.15,33.09,634.19,33.29z"/> <path d="M626.89,52.21c-3.93,0.98-4.04,0.43-4.5,1.4c2.4,1.41,7.1,0.37,7.1-2.6C628.72,51.37,627.63,51.85,626.89,52.21z"/> <path d="M633.7,28.3c7.36,3.14,7.4,3.32,7.91,2.3C635.03,26.6,630.5,26.93,633.7,28.3z"/> <path d="M629.3,47.11c-1.96,0.12-2.54,1.26-3.6,1.9c-0.96,0.44-1.76,0.91-3.41,1.8C625.05,51.85,628.59,49.33,629.3,47.11z"/> <path d="M605.98,67.53c2.92-0.97,0.3,0.17-2.6-3.8c-0.6-0.7-0.91-1.78-2.1-2C602.09,64.36,603.69,66.2,605.98,67.53z"/> <path d="M607.48,66.92c-0.06,0.02-0.11,0.04-0.16,0.07C607.42,67.05,607.37,67.04,607.48,66.92z"/> <path d="M611.18,71.93c-1.16-1.34-1.77-3.23-3.23-4.47c-1.63-1.39,0.9,3.01,1.93,4.47C610.32,72.55,610.69,72.65,611.18,71.93z"/> <path d="M634.19,33.36C634.2,33.47,634.25,33.39,634.19,33.36L634.19,33.36z"/> <path d="M634.19,33.36c0-0.01,0-0.03,0-0.05c-0.02,0.02-0.03,0.03-0.05,0.05C634.16,33.36,634.18,33.36,634.19,33.36z"/> <path d="M632.8,34.4c-0.3,0.4-1.2,0.3-0.9,1.3c0.69-0.46,2.35-0.62,3.2-1.9c-0.38-0.1-0.67-0.28-0.96-0.38
		c-0.08,0-0.05-0.02,0-0.06C634,33.37,633.65,33.55,632.8,34.4z"/> <path d="M640.3,26.69c0.11,0,0.08-0.01,0-0.09C640.14,26.76,640.19,26.69,640.3,26.69z"/> <path d="M640.38,26.68c0.8,0.8,1.69,1.45,2.82,1.42C643.49,28.09,642.68,26.36,640.38,26.68z"/> <path d="M584.88,90.75c-0.07,0.51,0.05,0.77,0.28,1.29C585.16,89.44,585.24,88.15,584.88,90.75z"/> <path d="M601.88,31.9c3.2-0.29,3.71-0.07,2.5-0.33C603.13,31.3,602.99,31.4,601.88,31.9z"/> <path d="M624.68,40.78c0.24,0,3.05-0.47-1.19-0.47C624.08,40.63,624.36,40.77,624.68,40.78z"/> <path d="M610.29,55.68c0.38,0.24,1.23,0.34,1.49,0.34C610.15,53.92,608.99,54.87,610.29,55.68z"/> <path d="M601.28,61.62l0.1-0.1C601.22,61.48,601.28,61.46,601.28,61.62z"/> <path d="M601.27,61.5c-0.04-1.22-0.67-1.88-1.59-2.07C600,60.51,600.27,61.22,601.27,61.5z"/> <path d="M648.01,55.32c1.2,0.2,2,0,2.1-1.3C649.31,54.02,648.51,54.12,648.01,55.32z"/> <path d="M632.5,27.24c0.1,0-0.01-0.89-2.2-0.64C630.86,27.34,631.67,27.39,632.5,27.24z"/> <path d="M632.6,27.3l0.1-0.1C632.49,27.24,632.55,27.23,632.6,27.3z"/> <path d="M623.42,40.21c0.18,0-0.26-0.3-0.36-0.34C622.31,39.44,621.05,40.25,623.42,40.21z"/> <path d="M622.69,19.69c0.14-0.07,0.55-0.37,0.6-0.4C622.97,19.39,622.75,19.58,622.69,19.69z"/> <path d="M629.57,26.12c-0.49,0.25-0.31,0.15,0.83,0.38C630.18,26.22,629.93,25.87,629.57,26.12z"/> <path d="M639.4,26.2c0.4,0.1,0.6,0.2,0.9,0.3C640.07,26.26,639.84,26.01,639.4,26.2z"/> <path d="M599.07,57.72l-0.1,0.1C599.09,57.88,599.07,57.98,599.07,57.72z"/> <path d="M599.77,59.42c0.07-0.49-0.05-0.99-0.42-1.32c-0.34-0.3-0.31-0.25-0.26,0.26C599.13,58.81,599.28,59.21,599.77,59.42z"/> <path d="M608.98,57.34c-0.01,0.5,0.02,0.95,0.71,1.15c-0.01,0-0.01,0.02-0.01,0.13c0.08-0.08,0.03-0.03,0.1-0.1
		c-0.05,0-0.08-0.03-0.09-0.03C609.78,57.61,608.99,56.82,608.98,57.34z"/> <path d="M629.46,30.29c0.03,0.14,0.06,0.11,0.11,0.11C629.58,30.3,629.66,30.29,629.46,30.29z"/> <path d="M628.9,29.79c-1.87-0.41-0.18,0.46,0.56,0.5C629.36,30.03,629.23,29.86,628.9,29.79z"/> <path d="M612.83,51.27c-0.49,0-0.15,0.04-0.35,0.04C612.48,51.81,613.08,51.22,612.83,51.27z"/> <path d="M582.46,47.61c0,0.37-0.1,0.89-0.1,1.1C582.47,48.41,582.96,48.24,582.46,47.61z"/> <path d="M635.11,36.94c-0.43,0.45-0.2,0.18,0.69-0.04C635.42,36.71,635.24,36.81,635.11,36.94z"/> <path d="M585.16,42.51c-0.39,0.39-0.5,0.88-0.57,1.48C585.08,43.59,585.26,42.98,585.16,42.51z"/> <path d="M607.98,41.51c1.15,0.29,1.06,0.39,0.93,0.21C608.69,41.39,608.36,41.39,607.98,41.51z"/> <path d="M623.44,37.25c0.1-0.1,0.07-0.04-0.15-0.15C623.4,37.32,623.34,37.36,623.44,37.25z"/> <path d="M643.35,28.24c0.1,0.18-0.03,0.45,0.36,0.06c-0.08,0-0.22-0.07-0.37-0.14C643.08,28.04,643.27,28.11,643.35,28.24z"/> <path d="M628.09,29.6C627.69,29.3,628.09,29.8,628.09,29.6L628.09,29.6z"/> <path d="M585.37,42.51c0.47,0.06,0.69-0.27,0.69-0.7C585.61,41.81,585.37,42.09,585.37,42.51z"/> <path d="M585.36,42.61c0-0.04,0.01-0.06,0.01-0.1C585.24,42.51,585.2,42.45,585.36,42.61z"/> <path d="M584.46,44.23C584.29,44.47,584.41,44.36,584.46,44.23L584.46,44.23z"/> <path d="M584.51,44.16c0.08,0.08,0.08,0.11,0.08-0.17c0,0-0.11,0.11-0.13,0.12c0.03,0.03,0.02,0.07,0,0.12
		C584.48,44.21,584.49,44.19,584.51,44.16z"/> <path d="M583.36,45.91c-0.13,0.25-0.16,0.2,0.1,0.2L583.36,45.91z"/> <path d="M582.06,48.91c0.06,0,0.12-0.06,0.16-0.14C582.38,48.37,582.16,48.81,582.06,48.91z"/> <path d="M609.08,57.02c-0.1,0-0.2-0.1-0.3-0.1C608.78,57.02,608.88,57.02,609.08,57.02z"/> <path d="M636.7,256.16c-1.1,3.2,0.5,5.8,1.9,8.51C637.03,259.17,638.7,256.82,636.7,256.16z"/> <path d="M634.9,205.92c-0.3,1.6-0.3,1.6,2.4,1.9C636.9,206.92,636.1,206.42,634.9,205.92z"/> <path d="M637.4,197.32c-0.4,1.9-0.3,2.1,1.7,2.1C639.01,198.4,638.29,197.79,637.4,197.32z"/> <path d="M635.2,250.55c-0.2,0.7,0,1.2,0.7,1.4C635.9,251.05,635.9,251.05,635.2,250.55z"/> <path d="M642.3,201.42c-0.57,0.57-0.09,0.61,0.4,1.1c0.1-0.2,0.3-0.3,0.3-0.5C643.01,201.63,642.7,201.42,642.3,201.42z"/> <path d="M793.91,340.52c-0.55,1.06-0.13,1.44,1.2,2.5c1.06-0.98,1.57-1.99,1.8-3.4C796.74,339.62,794.95,338.54,793.91,340.52z"/> <path d="M795.61,249.85c0.24,0,1.3-1.56,0.9-3.4C793.41,246.29,793.23,249.9,795.61,249.85z"/> <path d="M793.89,432.93c-0.57,1.91,2.27,2.42,2.62-0.85C795.2,431.64,794.18,431.97,793.89,432.93z"/> <path d="M794.41,490.02c0.3,0,0.5,0,0.8,0C796.15,487.97,793.74,483.3,794.41,490.02z"/> <path d="M473.49,541.06c-0.5,0-0.9,0.3-1,0.9C473.89,542.36,473.86,542.33,473.49,541.06z"/> <path d="M442.36,503.43c3.4-1.4,4.8-3.1,4.6-5.8c-2.9,1-4.5,2.3-5.6,4.8C441.46,502.93,441.86,503.23,442.36,503.43z"/> <path d="M62.6,398.06c0.8-3,0.7-5.2-0.6-8.81c-0.16,2.85-0.52,4.11-0.2,8.31C61.8,397.86,62.1,398.26,62.6,398.06z"/> <path d="M63,435.68c0.51-2.66,0.7-4.7-0.1-7.21C61.41,429.22,61.86,430.86,63,435.68z"/> <path d="M78.31,414.97c-0.92,3.44-0.9,3.47-0.1,6.1C79.32,419.02,79,417.19,78.31,414.97z"/> <path d="M83.24,400.97c0.02-0.92,0.54-0.45,0.58-1.9c0-0.01-0.01-0.01-0.01-0.01c0.1-0.08-0.04-0.03,0.31-0.2
		c-0.39,0.13-0.32-0.12-0.32,0.19c-0.08,0.01-0.39,0.37-0.57,1.47c0-0.1,0.12-0.24-0.81,0.74c-0.97,1.03-0.74,1.4-0.9,1.88
		C83.25,403.14,83.25,401.03,83.24,400.97z"/> <path d="M59.99,463.3c-0.7,0.7-0.6,1.4-0.1,2.3C61.03,463.96,60.95,463.99,59.99,463.3z"/> <path d="M62.2,446.49c0.85-1.13-0.85-1.87-0.72-0.73C61.52,446.12,61.75,446.42,62.2,446.49z"/> <path d="M60.9,382.45c0-0.6,0.5-1.4-0.7-1.5C59.9,381.66,60.21,382.06,60.9,382.45z"/> <path d="M60.6,454.7c0.26,0,0.23,0.1,0.1-0.4L60.6,454.7z"/> <path d="M75.61,243.35c-1.5,2.9-2,4.8-1.8,7.51C75.21,248.45,75.81,246.15,75.61,243.35z"/> <path d="M73.7,258.26c0.6-0.85,0.37-1.66-0.1-2.6C73.1,256.8,72.25,258.48,73.7,258.26z"/> <path d="M71.6,261.76c-3.11,0-2.7-0.1-2.7,0.3C70.65,262.06,71.19,262.49,71.6,261.76z"/> <path d="M75.31,266.57c-1.3-1-1.3-1-2.5-0.6C73.51,266.78,74.33,267.05,75.31,266.57z"/> <path d="M76.61,299.89c0,1,0,1.9,0,2.8C76.71,301.79,77.11,300.79,76.61,299.89z"/> <path d="M59.39,298.19c-0.8-0.88-1.68-0.94-2.5-0.3c0.3,0.1,0.5,0.3,0.7,0.3C58.19,298.19,58.79,298.19,59.39,298.19z"/> <path d="M77.51,273.57c-0.04,0.1-0.07,0.2-0.1,0.3C77.54,273.87,77.51,273.93,77.51,273.57z"/> <path d="M239.72,344.21c0.9-0.8,1-1.9,1.3-2.9C239.17,339.46,235.85,343.66,239.72,344.21z"/> <path d="M239.52,251.45c1-1.7,1-1.71,1-3.6C238.3,247.53,236.89,250.73,239.52,251.45z"/> <path d="M238.32,434.18c-1.05,1.7,1.71,3.13,2.4-0.7C239.52,433.14,238.77,433.06,238.32,434.18z"/> <path d="M239.32,491.92c0.56-1.73,0.08-3.08-0.9-4.6C238,489.11,238.17,490.51,239.32,491.92z"/> <path d="M81.61,195.92c-0.6-1.1-1.2-2-2.5-2.1C77.72,195.01,79.83,195.56,81.61,195.92z"/> <path d="M83.1,187.31c0.1,0,0.11-1.12-1.29-2c-0.47,0.15-0.91,0.45-0.7,0.9C81.53,187.1,82.11,187.7,83.1,187.31z"/> <path d="M87.71,227.54c0.7-0.8,0.1-1.2-0.5-1.6C86.8,226.76,86.84,227.24,87.71,227.54z"/> <path d="M86.28,222.22c0.78-0.1-0.3-1.19-0.37-1.29C85.72,221.31,85.72,222.22,86.28,222.22z"/> <path d="M87.01,190.21c0.15-0.6-0.25-1.48-1.3-0.6C86.21,189.81,86.21,190.51,87.01,190.21z"/> <path d="M89.82,230.84c0.67-1.34-1.11-1.2-0.5-0.3C89.42,230.74,89.62,230.74,89.82,230.84z"/> <path d="M81.51,196.02l0.2,0.1C81.58,195.86,81.64,195.89,81.51,196.02z"/> </g> </svg> 