<?xml version="1.0" encoding="utf-8"?> <!-- Generator: Adobe Illustrator 23.0.1, SVG Export Plug-In . SVG Version: 6.00 Build 0)  --> <svg version="1.2" baseProfile="tiny" id="Layer_1" xmlns="http://www.w3.org/2000/svg" xmlns:xlink="http://www.w3.org/1999/xlink" x="0px" y="0px" viewBox="0 0 900 600" xml:space="preserve"> <g> <path d="M865.11,482.87c-3.5-3.64-8.24-1.15-9.27-2.58c1.28-0.91,2.56-1.66,4.12-1.3c4.1,0.95,13.92-8.02,18.05-15.49
		c4.68-8.49-3.15-28.11-9.22-31.57c-4.05-2.31-46.41-0.59-50.52-0.56c-12.65,0.07-13.64-4.84-32.3-6.26
		c-0.41-0.03-0.87,0.35-1.52,0.64c1.02,1.54,2.34,1.44,3.73,1.58c3.05,0.32,11.3,2.5,13.34,3.8c8.06,5.16,4.38,24.08,7.41,26.12
		c1.62,1.09,3.1-1.26,3.24-2.96c0.84-10.27-0.56-14-3.16-20.25c8.47,0.15,4.98,1.42,5.91,4.32c1.47,4.55,0.81,8.92,1.16,15.65
		c0.17,3.27,3.63,3.41,4.11,0.39c1.04-6.55,1.83-13.11-2.08-19.42c10.52-0.3,17.87-0.4,26.38-0.7c22.83-0.79,21.03-5.15,28.01,9.66
		c1.09,2.31,1.78,4.8,2.94,7.08c5.28,10.43-6.43,27.42-37.82,29.39c-1.58,0.1-3.31,0.03-4.78-0.49c-4.68-1.66-9.53-2.75-14.2-4.43
		c-5.01-1.8-3.85,0.49-6.88,0.59c-5.33,0.17-14.97,4.22-15.66,5.7c-0.9,1.93-2.39,1.9-4.08,1.52c-1.57-0.36-3.32-0.39-4.68-1.13
		c-5.48-2.99-19.02,2.24-27.76,4.54c-3.52,0.93-1.98,2.98-3.99,5.46c-1.66,2.04-3.89,3.78-3.91,6.77c0,0.11-0.13,0.23-0.2,0.34
		c-3.59,5.37,2.72,5.7-6.05,5.89c-16.15,0.36-14.39,1.12-27.78-0.6c-13.69-1.76-27.39-0.91-39.66,5.75c-3.2,1.74-2.38,0.23-9.4-0.21
		c-6.05-0.38-8.2-4.44-14.28-3.4c-1.19,0.2-1.61,0.02-18.1-3.95c-2.53-0.61-1.68,2,0.47-37.65c1.39-25.67,2.65-51.76,5.15-85.19
		c3.07-1.56,6.05-3.09,8.85-4.51c6.35,1.33,3.34,0.24,5.13,4.02c0.65,1.37,5.7,12.25,6.69,12.84c2.26,1.34,3.68,3.53,5.56,5.25
		c23.48,21.39,22.6,11.13,41.07,21.43c0.76,0.42,20.93,12.93,31.34,21.65c0.9,0.75,2.23,2.45,2.04,2.26
		c0.33,0.33-9.54,4.01-6.2,11.8c1.22,2.86,2.57,5.76,5.17,7.58c0.8,10.76-2.73,12.31-0.86,15.01c2.41,3.47,8.12,10.87,12.35,10.91
		c3.66,0.04,0.18-2.71-1.29-4.14c-7.52-7.29-9.41-8.23-7.86-11.83c1.74-4.03,1.61-11.84-1.63-14.88c-2.99-2.79-4.33-6.5-1.32-9.42
		c1.56-1.51,3.27-2.4,2.51-4.13c3.37,2.53,5.16,5.36,6.02,8.14c-1.17-0.08-5.03-0.59-5.13,0.45c-0.26,2.7,3.46,0.92,9.72,4.87
		c6.31,3.98,16.69,16.85,20.22,12.33c0.85-1.09,7.9-0.56,15.62-10.72c2.83-3.73,2.69-7.76,0.6-11.74
		c-2.56-4.86,0.45-6.78-4.42-13.55c-2.31-3.22,0.06-6.44-8.08-4.53c-2.49,0.58-1.85,1.64-3.66,0.49
		c-1.48-0.94-13.61-13.32-22.07-24.67c-44.18-59.3-15.51-27.18-55.7-66.69c-8.02-7.88-6.5-7.88-18.88-20.48
		c-2.9-2.95-6.27-4.26-8.16-6.49c-2.19-2.58-4.95-3.78-8.25-3.16c-13.5,2.55-16.09,2.81-21.18,4.8c-2.8,1.1-4.1-1.83-10.09,1.35
		c-9.46,5.03-48.59,5.73-77.69,17.42c-26.57,10.68-49.48,20.53-70.53,35.51c-19.77,14.06-16.2,11.85-43.88,19.09
		c-20.78,5.43-29.25,0.07-47.98,13.08c-17.61,12.23-20.34,10.93-24.92,12.92c-6.35,2.77-15.83,3.71-19.87,1.64
		c-3.14-1.6,5.02,1.36-32.54-13.53c-4.73-1.87-1.08-2.39-4.91-3.55c-41.21-12.52-32.96-11.58-38.45-10.29
		c-25.58-19.36-42.58-21.56-47.7-24.36c-9.74-5.32-39.8-2.93-40.54,22.81c-0.56,19.47,2.83,16.91-10.55,39.56
		c-3.26,5.52-7.94,9.45-13.43,12.5c-3.44,1.91-10.46,1.12-14.29,0.71c-4.16-0.45-3.35-2.2-10.19-4.59
		c-5.43-1.89-11.69-4.5-11.89-4.5c-1.58-5.14-9.23-4.51-17.66-9.25c-2.54-1.43-7.06-2.15-9.58-0.99c-10.41,4.79-3.13,3.18-10.4,3.06
		c-19.02-0.32-16.38,1.96-28.44,2.35c-1.07,0.04,0.22,0.12-7.11,1.98c-6.93,4.01-10.17,5.32-12.48,8.88
		c-2.12,3.26-7.61,13.06-6.12,16.56c0.3,0.72-0.15,1.75-0.28,2.73c-4,0.51-5.36,4.04-7.83,6.23c-1.54,1.36-6.44,26.09,11.81,23.31
		c1.2-0.18,2.15,0.06,2.72,1.13c-0.61,1.71-18.41,10.75-21.1,13.86c-0.78,0.9-0.33,1.52,0.79,1.94
		c17.54-11.77,17.85-12.02,22.39-12.94c0.1,0-0.67-0.68,5.89,5.98c-2.73,0.84-8.4,2.27-6.07,4.2c3.14-0.69,6.39-1.39,9.44-2.07
		c10.58,4.14,5.59,2.46,34.76-0.72c20.39-2.22,24.97,0.53,34.24,0.43c21.99-0.22,31.92,5.99,36.95,5.33
		c-2-3.73-11.68-4.29-11.35-6.45c11.4-7.08,6.04-4.65,15.47-8.1c4.17,0,22.44,23.4,27.23,29.19c2.95,1.94,3.84,5.29,5.73,7.95
		c-2.29,2.45-5.43,2.62-7.92,3.98c-9.06-3.68-45.83,0.94-56.59,2.8c-10.91,1.89-54.13-1.04-74.62-1.44
		c-17.44-0.35-18.95,0.57-22.43-1.25c-2.69-1.4-5.14-2.93-7.06-5.29c-3.26-4-4.06-2.25-5.41-3.98c-2.89-3.71-5.59-8.05-3.07-11.99
		c0.81-1.27,3.3-4.84,1.81-4.84c-1.35-0.23-9.23,6.15-3.06,14.96c12.36,17.66,20.03,14.55,49.34,16.25
		c87.94,5.11,64.81-0.06,77.32-1.2c3.16-0.29,35.13-2.82,38.04-1.43c0.27,0.13,0.46,0.4,0.43,0.98c-5.81,2.53-11.19,0.69-29.81,2.96
		c-6.66,0.81-11.93,3.75-16.02,3.75c-10.85,0-11.91-0.27-14.66,1.29c-11.53,6.56-24.73,5.03-26.08,8.06
		c-0.26,0.57,0.27,1.62,1.17,1.87c3.94,1.07,5.02-0.18,0.47,2.12c-0.09,0.47-0.27,0.79-0.18,0.98c1.95,4.09,3.45,3.78,13.12,4.37
		c0.08,0.73,0.47,3.74,1.5,3.74c6.56,2.64,20.5,2.17,30.3-2.68c2.62-1.3,5.03-1,9.87-0.38c3.53,0.45,30.78,2.64,32.58,1.71
		c5.07-2.61,10.14,4.16,17.89-9.44c5.32,0.17,1.85,0.2,14.62-10.44c5.65,2.24,8.98,7.63,18.58,8.9c14.78,1.94,21.59-1.28,23.22-1.23
		c5.57,0.16,16.08-7.32,20.85-11.61c5.88-5.29,22.09-2.73,24.9-7.12c50.56-0.99,46.29-1.89,60.76-1.15c19.58,1,18.3,3.16,30.98,5.2
		c8.11,1.3,13.09,0.62,17.97,2.33c39.45,13.8,30.15,11.3,79.22,17.89c47.22,6.34,72,11.96,95.46,13.38c0.5,0.03,1,0.27,1.53,0.43
		c0.63,3.41,0.88,3.42,0.38,4.04c-18.33,2.16-12.62,0.1-17.15,0.22c-5.58,0.15-7.57,1.95-8.86,6.46c-1.11,3.87,1.14,5.6,5.03,9.3
		c2.31,2.2,5.13,3.43,8.39,3.45c7.95,0.05,10.57,2.54,37.3,8.49c2.53,0.56,5.58,0.09,8.92-2.41c0.13,0,1.38,1.81,2.73,2.5
		c1.89,0.97,11.13,3.55,22.14,1.61c46.62-8.18,43.91-1.69,52.39-7.24c1.92-1.26,2.3-6.03,0.71-8.14c-1.29-1.71,0.39-2.94-2.8-4.77
		c-15.26-8.74-23.46-2.48-38.24-7.47c-5.18-1.75-7.49-1.73-12.74-3.65c-0.1,0-0.06,0.31,0.94-3.87c20.16-0.61,17.86,1.31,23.8,0.32
		c13.23-2.2,14.73-5.52,18.94-5.25c34.14,2.21,59.96-22.42,63.19-22.14c2.68,0.23,9.11-4.66,14.6-6.84
		c1.87,0.36,8.79,5.93,22.56,3.42c0.03-0.01,10.68-0.37,14.86-1.19c21.55-4.23,14.7,4.15,41.8,2.46
		c18.85-1.17,26.85-8.23,30.83-9.85c6.18-2.51,10.45-10.7,12.11-17.16C876.9,478.21,869.68,487.63,865.11,482.87z M801.42,482.9
		c0.65-0.77,1.28-1.4,2.33-2.07c2.86-1.8,8.44-2.36,8.54-2.36c7.43-1.09,6.46,1.15,16.63,3.31c0.28,0,1.68,0.97,1.82,1.1
		c-24.4,7.29-18.83,6.76-32.52,2.04C800.88,482.78,800.81,483.62,801.42,482.9z M631.8,501.37c-2.29,0.2-1.9,2.86,1.08-53.2
		c3.91-73.58,1.91-29.4,4.01-63.22c0.2-3.18,0.29-2.39,1.93-3.59C639.35,382.92,632.39,499.79,631.8,501.37z M627.56,500.36
		c-2.47,0.09-4.49-0.7-6.7-1.39c-0.57-2.61,6.69-111.45,6.7-111.55c1.88-2.36,4.09-2.92,6.5-3.51
		C634.09,384.01,628.35,495.91,627.56,500.36z M780.11,431.1c0.61,0.79,0.45,2.01,1.59,2.59c0.81,0.42,1.39,1.24,2.03,1.81
		c-2.49-0.69-4.43-2.04-6.27-3.88C778.35,430.75,779.18,430.79,780.11,431.1z M646.41,312.61c7.6-0.65,14.19-3.39,19.95,1.03
		c2.99,2.29,4.19-1.53,17.61,14.12c22.3,26,31.73,31.42,37.11,39.27c16.49,24.05,34.04,51.02,54.21,67.92
		c2.37,1.99,4.17,2.84,11.04,7.08c-0.32,0.86-0.64,1.65-1,2.62c0.42,0.8,1.15,1.66,1.34,2.64c0.28,1.44,1.3,1.48,2.43,1.61
		c0.99,2.43,0.99,4.55-0.37,6.62c-3.46,5.26-14.51,14.45-19.8,10.03c-8.11-6.78-15.11-10.73-15.97-15.44
		c-0.68-3.77-3.21-5.71-9.66-10.92c-4.91-3.97-3.82-4.36-7.4-6.73c-13.94-9.21-16.32-9.95-18.12-12.01
		c-2.67-3.06-17.57-8.5-22.81-9.86c-9.33-2.41-22.97-14.58-29.26-21.56c-2.46-2.73-4.53-6.63-5.82-7.63
		c-1.4-1.08-2.13-2.68-2.58-4.45c1.91-1.06,4.44-0.42,6.12-2.51c-0.81-0.35-1.47-0.79-2.19-0.93c-13.62-2.65-7.3-3.38-33.11,9.27
		c-0.29-3.61-0.47,3.86,1.89-33.96c0.58-9.27-0.19-13.94,2.29-19.89c2.75-6.59,3.15-10.28,4.37-12.09
		C638.25,314.52,643.85,312.83,646.41,312.61z M635.06,314.58c0.17,0.21,0.34,0.42,0.51,0.65c-3.31,4.99-4.4,10.63-6.5,16.03
		c-1.71,4.4,0.12-7.71-14.28,213.94c-0.34,5.28,0.7,13.86,5.69,16.2c0.62,0.29,1,0.79,1.53,1.23c-0.52,0.78-1.42,0.96-2.11,0.35
		c-7.63-6.69-6.35-8.72-6.74-18.68c-0.35-9.13,11.66-202.87,11.67-202.97c0.39-4.39,1.75-8.67,1.64-13.13
		C631.35,314.47,629.81,316.39,635.06,314.58z M623.62,567.28c0.48,0.82,0.94,1.63,0.32,2.69c-0.23,0.4,2.04,0.71-24.63-1.09
		c-0.96-0.06-2.21-0.38-3.55-1.05c-0.33-0.22-0.82-1.11-0.95-1.36c0.93-0.79,0.07-0.64,3.07-0.69
		C626.68,565.34,622.12,565.04,623.62,567.28z M484.7,369.89c4.62-3.4,10.95-7.39,14.91-9.68c64.57-37.33,98.75-33.65,118.78-41.13
		c5.7-2.13,6.89-1.43,8.45-1.31c-4.84,18.43-3.93,9.62-7.31,66.51c-0.34,5.74-0.4,5.35-4.48,9.38c-7.72,7.62-9.79,10.18-14.4,14.1
		c-5.43,4.62-48.28,32.47-66.84,39.92c-5.49,2.2-13.02,4.52-20.31,5.73c-6.34-6.22-11.79-17.51-14.81-25.8
		c-2.94-8.08-13.89-49.29-13.92-49.46C484.26,375.44,484.42,372.66,484.7,369.89z M406.78,393.94c-0.09,0.16-0.07,0.2-0.15,0.2
		C406.25,394.14,406.22,393.83,406.78,393.94z M281.55,392.49c26.42,8.28,23.28,7.15,24.25,8.12c-1.5,5.69-3.18,11.45-5.22,16.99
		c-2.01,0.46-8.93-8.96-12.58-13.02C273.24,388.14,267.95,388.23,281.55,392.49z M110.54,425.87c0.1,0,3.2,0.5,3.3,0.5
		c1.05,0.2,2.31,0.71,3.43,1.49c-2.69,0.57-3.71,0.26-5.53-1.13c-1.91-1.46-0.98-0.4-2.05-1.04
		C110.19,425.44,110.16,425.24,110.54,425.87z M104.21,423.21c-8.15,0-6.35,0.45-8.8-1.79C95.98,420.14,101.06,419.69,104.21,423.21
		z M91.65,422.49c0-0.1,0.52-0.36,0.62-0.3c0.41,0.23,0.74,0.58,1.14,0.91C92.29,424.1,91.58,422.63,91.65,422.49z M39.81,449.12
		c3.23-0.11,7.82,3.1,10.48,5.58c-12.63-0.4-2.62,0.51-17.88-2.58C33.03,449.23,32,449.38,39.81,449.12z M41.44,457.48
		c-2.03,1.38-2.03,1.38-3.69,0.42C38.34,457.35,37.47,457.48,41.44,457.48z M32.6,454.58c1.39-0.08,2.94-0.16,4.84-0.27
		c-1.23,2.41-3.28,2.61-5.14,3.16C31.53,456.38,31.86,455.63,32.6,454.58z M28.24,479.52c0.84-4.53,0.68-3.43,0.68-4.21
		c-1.59,1.48-1.08,0.78-1.93,3.63c-1.8-0.76-2.79-2.11-3.22-3.59c-1.17-4.02-2.12-9.58,0.17-13.06c4.89-7.43,4.15-4.06,4.76,0.99
		c-2.2,2.7-4.2,1.89-4.68,6.95c1.93-1.23,2.39-3.65,4.87-3.91c-1.72,3.87-1.94,3.22,0.41,3.22c0.5,1.16,0.61,2.24,0.53,2.98
		c-0.34,3.2-1.9,2.68,0.09,2.9c0.3,1.37,0.17,1.86,0.82,3.21c0.7,1.45,1.64,2.47,1.64,2.47C31.73,480.54,30.38,481.63,28.24,479.52z
		 M41.68,483.39c-0.59,1.41-0.58,1.14-1.15,0.95C40.12,484.2,40.85,483.79,41.68,483.39z M111.88,491.57
		c-3.15,0.12-15.01-0.87-32.38,0.34c-2.4,0.17-4.76,0.99-7.12-0.19c-0.99-0.5-4.61,1.72-5.93,2.34c-1.77,0.83-2.35,0.46-2.56,0.67
		c-0.98-0.08-3.46,1.04-2.6,0.51c2.95-1.8,0.75,1.31,4.77-2.65c-1.44-1.23-2.9-0.94-4.32-0.45c-7.13,2.48-6.52,3.8-12.47,1.2
		c3.5-1.87-0.93,0.42,11.27-2.24c-4.75-0.47-4.75-0.47-7.05-2.63c-1.53,0.17-3.09,0.89-4.9-0.22c2.84-2.13,4.48-2.82,2.9-3.82
		c-3.47,1.93-5.58,2.46-5.55,3.88c0.03,1.35,1.9,1.64,3.51,2.2c-2.32,1.67-3.71,1.78-5.74,0c-2.18-1.9-4.81-3.57-1.42-5.19
		c0.83-0.39,1.63-0.59,2.37-1.08c1.88,1.33,3.59,1.11,5.09-0.47c-0.36-0.91-0.74-1.85-1.12-2.78c-1.78,0.52-3.39,1.02-5.01,1.49
		c0,0.14-0.48,0.73-1.15,0.75c-0.23,0.01-0.34,0-0.41,0c0.63-0.28,1.24-0.52,1.41-0.59c1.77-2.95,7.02-3.43,4.62-5.37
		c-0.86,0.34-1.67,0.76-2.46,1.23c-8.55,5.09-5.39,5.92-9.5,3.03c4.36-2.3,9.15-3.27,12.41-7.4c-2.68-0.26-2.55,2.54-8.75,4.2
		c-5.6,1.5,3.08-1.96,8.98-6.73c-1.68,0-0.74-0.84-8.75,3.93c-2.32,1.38-6.36,2.85-5.96,0.04c3.18-1.28,15.83-4.01,18.08-11.5
		c-0.95-0.46-0.94-1.35-1.03-2.46c-3-0.56-6.03-0.08-9.07,0c-1.47,0.04-2.95,0.15-4.54,1.28c2.09,0.3,4.76,0.31,2.88,1.17
		c-0.16,0.11-0.52,0.16-0.65,0.22c-2.57,0.66-2.57,1.27-2.46,1.16c-0.75,1.13,9.9-0.56,10.08-0.58c-2.09,2.45-7.87,2.81-10.04,4.72
		c2.78,0.4,5.35-0.83,8.2-1.32c-3.43,3.16-7.27,4.6-12.05,4.57c-0.74-1.23-1.02-2.59-0.78-4.26c1.12-0.37,2.24-0.74,3.4-1.12
		c2.65-4.49-0.01-0.1-3.22-2.19c-0.89-1.37-0.41-3.02-0.99-4.68c0.95-0.26,1.68-0.73,2.12-0.53c2.32,1.06,4.06,0.4,11.14-0.22
		c7.63-0.67,4.48,0.58,8.14-0.24c-1.84-2.55-1.46-0.83-1.46-7.75c-3.87-3.13-8.66-4.62-12.98-7.01c-1.93,2.16-3.69,0.75-5.76,0.28
		c0.19-1.04,0.35-1.88,0.54-2.88c10.52,1.55,9.69,4.43,12.33,3.21c0.39-0.18,1.23,0.36,1.78,0.72c3.15,2.04,3.11,2.7,3.57,1.86
		c0.65-1.21-3.13-2.7-4.26-4.96c-0.37-0.74-5.08-2.51-8.34-2.36c-1.08,0.05-2.16,0.07-3.08-1.12c1.06-2.72,3.19-2.99,3.19-3.03
		c-0.18-0.09-0.11-0.08,0-0.08c0-3.32,4.44-3.5,7.29,0.79c-1.27-0.25-2.54-0.6-3.82-0.74c-0.59-0.06-3.47-0.12-3.47,0.03
		c1.83,1.22,1.42,0.96,9.4,3.06c0.79-0.65,1.58-1.29,2.35-1.91c-4.93-4.32-2.98-2.75-8.04-5.87c8.06,1.25,6.53,4.15,9.72,3.47
		c-2.3-4.25-11.04-8.09-1.53-6.54c1.05-0.87,1.4-2.7,3.49-2.46c1.1,0.71,2.41,1.54,4.31,2.76c-0.41-1.34-0.62-2.01-0.9-2.91
		c1.78-0.3-0.11-0.75,6.35,1.33c0.58-1.85-1.9-1.5-1.89-2.9c1.55-0.62,2.89,0.21,4.22,0.74c6.95,2.74,4.91,0.43,7.23,2.15
		c-0.82,0.49-1.44,0.87-2.09,1.25c0.15,0.18,0.27,0.47,0.44,0.5c4.57,0.83,4.55,0.99,6.6,0.04c0.76-0.35,0.9-1.72,0.64-1.59
		c-0.39-0.52-1.73,1.07-5.37-3.05c0.86-1.17,1.87-0.72,3.1-0.44c2.68,5.96,2.64,2.19,5.76,1.62c1.1-0.28-0.94,0.22,7.43-0.27
		c6-0.35,6.24,0.69,9.8,0.51c2.68-0.13,6.32,0.49,9.7,2.24c7.53,3.88,26.65,4.94,33.28,16.29c3.77,6.46,6.84,10.15,6.61,18.22
		c-0.03,1.11-1.29,4.51-1.53,5.82C145.07,483.57,125.85,491.03,111.88,491.57z M189.28,517.84c-2.08-4.51-5.27-7.83-14.33-19.49
		c-12.28-15.8-22.08-11.31-9.54-15.82c2.9-1.04,3.11,1.32,5.84-1.5c2.1-2.17-10.57-0.77-20.66,4.52c-5.52,2.9-11.04,3.7-17.93,4.28
		c16.84-9.72,15.89-17.91,17.74-20.41c5.88-7.9-0.35-14.91-3.92-23.55c-1.69-4.09-4.18-4.69,3.11-3.29
		c6.38,1.23,10.38,2.08,11.33,2.11c1.54,0.04,2.12-1.68,0.49-2.37c-4.06-1.73-3.87,1.32,6.17-9.72
		c11.15-12.27,3.37-11.44,17.85-6.11c16.67,6.14,31.98,22.04,37.83,37.26c6.36,16.54,6.24,15.99,4.94,17.17
		c-11.97-1.16-8.85,0.03-14.53-5.05c-0.27,2.32,1.95,2.79,2.29,4.58c-0.46,0.38-13.65,3.29-14.45,5.87
		c1.97,1.18,5.88-1.74,8.51-1.02c2.87,0.59,2.81-2.91,16.11-1.84c-1.91,5.61-5.35,7.76-10.56,13.6
		c-7.35,8.24-45.84-13.57-49.91-13.57c7.97,7.31,12.78,9.37,21.85,12.62c16.31,5.84,18.33,4.5,24.6,4.5
		c-2.7,4.65-13.75,16.19-19.66,20.56C190.93,520.56,189.95,519.31,189.28,517.84z M202.01,542.75c-5.19,5.82-2.94,0.31-8.48,6.18
		c-6.87,7.26-6.14,6.2-24.77,7.15c-4.89,0.25-4.77-1.66-10.2-1.74c-8.44-0.12-18.84-0.46-26.83,2.05
		c-3.91,1.23-17.96,4.31-21.37,2.24c-2.35-1.43-3.85-0.62-3.05-1.72c2.26-3.47,10.61-0.64,16.83-5.49c1.86-1.45,1.85-0.6,8.99-1.39
		c7.15-0.79,4.85-0.42,7.95-1.71c-15.75-3.96-21.96,9.54-46.38,3.91c3.71-2.33,15.92-3.55,21.05-5.53c9.13-3.5,0.35-1.95,18.05-4.44
		c0.92-0.13,1.66-0.16,2.11-1.29c-2.59-0.16,0.64-0.45-13.49,1.01c-8.68,0.89,4.86,1.69-25.05,6.6c-0.63,0.1-1.28,0.01-2.33,0.01
		c0.42-0.68,0.6-1.3,0.92-1.39c0.41,0,3.78-1.56,6.23-1.57c5-0.03,9.33-1.93,13.69-4.34c6.66-3.68,13.67,0.13,29.22-4.7
		c1.48-0.46,9.69-1.92,13.12-1.07c1.49,0.37,2.6,0.07,14.44-1.34c4.18-0.5,10.63-4.85,17.05-7.05c5.89-2.02,4.74-0.45,5.22-4.37
		c6.23-5.68,10.8-9.39,19.79-20.61c3.72-4.65,5.46-4.64,9.2-9.55c5.3-6.98,4.15-7.75,9.12-13.26
		c13.46-14.91,13.41-18.31,16.68-20.04c4.4-2.33,8.08-7.99,11.47-10.06c0.77-0.47,1.21-1.79,2.73-7.46
		c0.14-0.52-0.15-1.04-1.03-1.16c-0.71,1.77-1.43,3.59-2.22,5.56c-13.25-1.14-20.27-14.45-43.71-31.49
		c-2.59-1.89-2.57,0.09-7.35-1.59c-0.43-0.15-0.98-0.02-1.67-0.02c0.3,0.6,0.38,1.12,0.65,1.23c5.42,2.29,4.09-0.02,8.46,3.17
		c14.17,10.31,14.5,15.71,28.02,26.1c15.1,11.6,16.42-2.38-7.23,25.07c-8.74,10.14-3.26,11.73-12.32-8.75
		c-10.45-23.63-27.19-30.65-48.76-39.6c1.86-3.82,3.2-6.77,4.1-6.1c7.72,5.74,24.26,10.28,35.22,8.22
		c13.93-2.61-15.67-1.18-34.52-10.97c-0.69-9.7,2.33,3.5,1.97-25c-0.09-6.68,0.9-12.82,6.06-16.79c8.1-6.22,13.42-5.84,24.01-6.58
		c6.74-0.47,31.22,13.14,35.64,15.6c20.1,11.14,32.45,26.09,46.5,41.45c7.65,8.36,4.57,3.38,7.07,6.99
		c5.61,8.09,6.72,3.74,8.28,9.94c1.71,6.77,3.17,11.46-1.6,16.65c-7.28,7.92-7.87,9.21-8.76,9.38c-5.3,1.05-10.04,13.45-46.62,42.1
		c-3.39,2.66-0.34,2.02-5.24,4.8c-11.95,6.79-23.2,16.13-27.96,18.44C213.61,531.96,207.36,536.75,202.01,542.75z M291.33,526.41
		c-18.71,3.12-12.83,0.38-29.73,13.33c-6.33,4.85-14.02,4.73-28.15,4c-7.35-0.38-14.27-3.9-17.48-7.34
		c-2.22-2.38,16.55-9.64,48.89-34.88c6.45-5.04,2.44-2.37,5.88-5.45c33.91-30.32,4.86-12.69,22.58,29.78
		C292.53,526.07,291.94,526.31,291.33,526.41z M363.96,523.51c-4.67,0-12.5,0.57-16.13,0.6c-2.67,0.02-5.22-0.35-46.59,0.46
		c-2.41,0.05-3.55,0.05-5.28,1.28c-4.43-9.77-7.74-26.63-5.08-39.42c1.77-8.49,0.95-9.9,3.21-12.77c4.16-5.3,4.99-7.07,6.07-7.41
		c1.89-0.6,1.78-1.27,12.75-12.79c1.35-1.42,2.39-3.81,2.68-4.83c4.07-11.2-11.21-25.68-13.22-28.2c2.01-6.08,4.02-12.19,6.07-18.4
		c2.76-0.29,8.91,5.15,26.7,11.25c7.68,2.64,8.12,2.4,9.35,3.53c1.54,1.41,11.61,1.92,15.55,1.08
		c11.71-2.51,22.45-11.26,34.86-17.75c3,48.19,1.52,32.72,7.94,81.41c0.34,2.61-1.27,2.2-0.55,6.26
		c3.21,18.21-5.24,32.24-5.46,40.42C390.18,529.65,383.96,523.52,363.96,523.51z M487,544.87c0.1,0.62,0.01,1.27,0.01,2.17
		c-0.81,0-1.46,0.07-2.09-0.01c-53.68-6.76-42.75-4.66-69.07-13.4c-6.7-2.22,0.38-2.1-15.35-4.82c-0.63-7.84,4.92-12.34,5.05-30.85
		c0.12-16.08,3.28,8.96-7.09-79.89c-1.65-14.11-2.36-7.86-0.7-19.54c7.78-6.33,7.39-1.18,18-5.39c2.51-0.99,1.95-0.74,18.16-3.67
		c7.69-1.39,15.17-3.62,22.77-5.35c7.95-1.81,14.74-5.65,21.42-9.99c6.15-3.99,1.48-2.21,7.36,19.47c6.99,25.74,8,32.35,15.26,46.27
		c9.54,18.27,15.06,14.56,9.3,17.97c-10.43,6.18-11.02,10.51-11.48,11.37c-0.46,0.87-1.57,1.34-1.86,2.58
		c4.17-1.42,4.33-1.56,4.29-1.56c1.5-5.16,4.93-6.91,16.06-14.18c16.45-2.35,28.42-6.44,45.13-16.71
		c65.46-40.19,45.37-37.26,56.7-44.43c-1.39,17.5-5.42,94.24-6.56,101.69c-12.89-1.74-53.73-20.83-53.83-20.89
		c-19.62-12.02-57.51-5.43-57.54-5.33c-0.12,0,0.67,1.31,2.15,1.65c0.62,0.14-0.13,0.07,8.07,0.17c-2.36,4.78-6.23,9.31-12.57,23.37
		C490.93,512.6,483.53,523.17,487,544.87z M489.97,547.42c-1.87-30.17,8.01-36.59,10.06-44.76c1.43-7.71,10.48-22.83,16.1-30.32
		c2.31-0.44,15.03-0.56,24.76,1.01c7.9,1.28,12.16,3.35,39.49,16.1c14.43,6.73,18.68,6.89,31.7,11.04
		c0.67,11.99-4.04,40.93-1.33,53.16c0.34,1.55-0.37,3.37,0.82,4.67c1.89,2.06,5.27,3.37,2.14,3.37
		C578.95,561.68,498.12,549.87,489.97,547.42z M592.58,568.7c-3.14,0.61-3.8,0.19-4.72-2.65c0.78-0.55,1.53-0.62,2.46-0.51
		c2.15,0.24,1.69,0,2.24,3.09C592.57,568.65,592.58,568.67,592.58,568.7z M614.85,592.83c-0.17-2.78-0.35-4.95,1.22-7.21
		C617.7,588.37,617.91,591.55,614.85,592.83z M613.64,579.42c-18.39-1.77-17.07-1.55-17.19-1.92c12.84-2,9.52-1.82,19.48-1.81
		c0.34,0,0.69,0.3,1.26,0.59C616.11,577.81,614.48,578.47,613.64,579.42z M620.45,590.1c0.06-0.4-0.01-0.25,0.22-0.29
		c0.04-0.02,0.05-0.04,0.08-0.06C620.63,589.85,620.5,589.99,620.45,590.1z M619.37,586.32c-1.2-0.45-1.67-1.46-1.46-2.57
		c0.27-1.45-0.67-2.21-1.39-3.34c1.09-0.97,2.25-1.88,3.26-2.93c1.32-1.38,1.01-3.25-0.91-3.81c-5.05-1.48-10.85-0.51-15.56,0.38
		c-12.5,2.36-15.94,0.45-19.11,2.43c-1.89,1.18-7.56-0.82-14.03-0.82c2.69,2.31,1.94,2.53,20.16,4.53
		c18.57,2.04,19.27,1.49,21.36,3.04c-2.2,5.11-1.89,3.89-1.8,10.74c-6.34-1.5-14.17-3.25-25.81-6.57
		c-11.56-3.29-14.25,0.71-21.13-7.8c-1.51-1.87-0.48-5.1,1.75-6.08c3.62-1.59,2.88,0.99,13.99,0.14c4.7-0.36,12.37-1.35,13.66-1.35
		c29.79,0.03,30.34-0.27,32.97,1.23C623.23,578.04,621.31,582.15,619.37,586.32z M622.58,586.52c-0.12,0.02-0.27,0.02-0.42,0.02
		c-0.13,0.19-0.1,1.13-0.13,1.13c-0.33-0.44-0.85,0.58,3.43-8.24c0.05-0.1,0.22-0.14,0.56-0.34c-0.05,0.87,0.13,1.69-0.18,2.28
		C625.62,581.79,622.87,586.52,622.58,586.52z M661.62,576.85c-5.14,0.75-13.67-0.5-18.51-1.33c-10.1-1.74-12.05,12.8-15.62,14.39
		c-0.95,0.42-1.09,1.46-1.1,2.44c-0.01,1.1-0.02,1.95,1.11,2.31c1.92-2.43,1.03-3.84,2.22-3.84c17.35-0.08,35.6-5.04,42.65-6.16
		c11.54-1.83,18.02,2.31,16.99-1.7c-0.72-2.8-12.88,0.07-18.79-5.63c7.59-0.03,14.67,0.76,21.17,4.57c2.01,1.18,0.79,0.19,1.69,3.28
		c0.41,1.42,0.84,2.73,0.33,4.13c-1.97,1.58-4.08,2.13-6.47,2.07c-10.23-0.27-19.5,1.81-21.69,1.82
		c-15.95,0.02-25.94,7.21-41.45,2.46c-4.57-1.4,4.12-9.62,4.66-15.43c0.6-6.4,5.32-8.24,11.84-9.32
		C643.69,570.37,648.57,572.65,661.62,576.85z M670.69,581.67c-11.54,3.43-32.91,7.51-39.4,7.3c2.27-4.94,5.37-8.92,9.13-11.8
		C669.88,582.57,668.13,578.75,670.69,581.67z M627.59,565.19c0.38,2.11,0.67,3.85-0.93,5C627.17,568.66,626.06,567.1,627.59,565.19
		z M630.34,570.54c-0.15-1.82,0.1-3.58,0.4-5.5c2.56-0.21,4.94-1.01,7.75-0.51c-1.37,2.82-3.31,4.73-5.9,5.91
		c-0.64,0.29-1.48,0.12-2.24,0.14c0,0.1,0.11-0.03-0.95,0.82c-0.01,0-0.01,0-0.02,0c0,0,0,0,0,0
		C629.22,571.16,630.34,570.65,630.34,570.54z M630.48,572.73c-0.73,0.61-1.39,1.16-2.19,1.82c-0.82-1.93-0.42-1.89,1.08-3.14
		C629.37,571.44,629.57,571.64,630.48,572.73z M638.98,569.13c0.43-0.28,0.31-0.02,0.42-0.8c0.38-1.14-0.11-0.48,1.02-1.48
		c0.43,2.15-1.07,1.82-1.16,2.2L638.98,569.13z M749.39,535c-55.28,31.88-55.78,18.41-69.71,22.41c-7.95,2.29-17.02,5.69-25.05,3.92
		c-2.84-0.62-18.67-1.59-23.16,0.49c-3.8,1.76-9.11-0.29-10.89-4.26c-4.65-10.35-3.16-11.58-0.6-52.72c0.03-0.52,0.21-1.03,0.4-1.97
		c43.31,9.94,38.96,7.31,41.77,9.83c1.65,1.48,2.17,1.56,15.95,3.58c1.03,0.15,2.11,0.02,3.12,0.02c0.89-1.46-1.05-2.14-0.63-3.7
		c14.36-5.92,19.11-7.63,34.84-4.8c11.1,1.99,13.57-0.58,21.24,0.32c6.52,0.77,36.78-2.66,42.44-6c0.33-0.19,0.46-1.52-0.2-1.62
		c-0.47,0-1.94-0.37-3.19-0.2c-5.96,0.8-4.51,1.12-10.66,1.44c2.7-4.1,6.47-5,10.67-6.26c5.47,3.44,5.59-1.03,13.51,4.25
		c-4.05,4.52-2.07,2.52-3.68,5.68c-1.69,3.3-1.34-0.23-1.34,8.39c0.74,1.11,2.88,2.13,1.46,4.64
		C778.09,521.44,765.62,525.64,749.39,535z M785.3,521.26c-0.25,1.93-0.53,2.92-1.12,3.45c-1.1,1-5.32,0.96-7.33,0.46
		C779.39,523.19,782.23,522.8,785.3,521.26z M881.92,508.76c-2.14,6.4-4.24,9.05-9.13,14.02c-2.88,2.93-15.7,7.2-26.69,8.28
		c-5.38,0.53-10.75,0.57-16.13,0.49c-6-0.09-2-2.6-9.75-2.83c-18.49-0.57-14.49-0.14-23.34,0.88c-6.41,0.74-8,0.37-9.8,1.79
		c-0.86,0.68-1.3,0.73-14.69-1.1c-1.31-0.18-2.58-0.62-3.66-1.5c1.58-1.54,1.58-1.54,5.36-2.87c2.39,1.98,5.37,2.26,8.52,2.12
		c1.11-0.05,2.26,0.63,3.8,1.1c5.26-4.08,5.12-12.79,2.34-18.85c-2.94-6.42,3.77-8.43,3.89-10.45c0.14-2.16-5.74-4.74-7.86-5.13
		c-2.97-0.55-5.17-0.31-10.46-0.71c-4.8-0.36-12.04,3.27-11.02,8.52c-3.71,0.94-7.36,1.62-11.37,1.8c0.15-0.78,0.12-1.35,0.38-1.73
		c4.2-6.11,4.85-3.71,6.77-9.93c4.58-3.8,4.07-3.76,6.67-4.5c21.91-6.24,14.61-1.94,21.53-2.45c7.84-0.58,9.61,4.54,15.95,4.87
		c2.44,0.13,6.66,2.47,16.28-0.4c14.76-4.41,30.05-8.8,43.92-5.8c0.19,1.35-0.12,1.87,0.81,2.07c11.23,2.43,11.91,2.97,17.65,19.58
		C882.22,506.94,882.16,508.03,881.92,508.76z"/> <path d="M22.81,163.46c2.04,1.32,6.09,7.68,16.76,7.51c4.87-0.08,93.09,7.13,98.57,1.65c2.15-2.15,27.26-2.88,30.31-2.89
		c7.02,0,6.85-1.53,13.06,0.69c-1.1,1.26-2.36,1.45-4.02,1.59c-15.15,1.28-9.48,0.25-13.27,0.51c-21.79,1.51-21.35,5.15-32.93,5.08
		c-6.95-0.04-7.82-0.18-10.27,1.13c-7.33,3.93-19.6,6.28-24.36,6.63c-2.81,0.21-2.42,3.42,0.15,3.65c0.1,0.01,2.5,0.27,2.5,0.02
		c3-4.9,7.88-0.15,22.45-8.18c3.13-1.73,3.93-1.16,12.63-1.44c12.13-0.39,18.18-4.84,28.64-3.9c3.07,0.28,6.41-0.24,14.06-1.19
		c6.07-0.76,16.7-8.53,22.28-7.99c0.18,0,0.07-3.24,0.92-3.92c14.08-11.43,19.32-21.47,23.81-24.62c4.53-3.18,6.65-8.24,9.72-12.74
		c5.18-7.59,10.3-11.52,19.55-25.04c4.14-0.82,8.35-7.83,12.94-10.82c0.25-0.16,0.54-0.5,0.69-0.97c2.52-7.9,2.01-6.35,1.37-7.86
		c-1.95,1.71-1.17,4.62-3.39,6.07c-7.62-1.25-15.24-7.55-20.83-12.87c-14.54-13.84-23.94-19.92-23.02-19.31
		c-8.54-1.27-7.65-1.26-7.89-0.92c-0.8,1.39,3.49,2.21,4.49,2.28c9.38,0.62,24.88,28.06,42.81,33.66
		c0.86,2.17-6.56,6.32-11.73,12.46c-4.57,5.42-7.88,9.68-11.98,14.6c-2.6-5.98-3.77-10.38-6.4-16.34
		c-10.47-23.81-27.53-30.81-48.72-39.56c0.93-2.23,1.89-4.35,3.53-6.31c16.15,10.09,34.86,10.18,39.26,6.81
		c-20.25-3.22-24.82-3.33-37.76-9.18c-0.43-1.86-0.28-3.43,0.26-4.96c2.98-8.36-0.29-24,3.2-31.71
		C195.58,3.2,218.64,1.53,223.8,4.33c4.38,2.38,4.48-0.12,31.58,15.21c20.48,11.59,33.98,28.45,46.49,42.08
		c6.07,6.61,2.84,1.57,6.42,6.5c5.01,6.89,6.09,3,7.66,8.91c1.59,5.97,3.41,11.14-1.17,16.36c-16.26,18.54-4.8,3.09-18.53,18.22
		c-18.72,20.62-38.2,33.89-38.58,34.87c-0.72,1.89-2.41,2.81-4.06,3.74c-11.57,6.54-22.98,15.96-27.97,18.42
		c-9.79,4.82-14.96,10.28-21.36,17.24c-5.21-0.75-4.97,5.21-12.35,8.7c-2.5,1.18-2.6,1.02-19.16,1.75c-4.5,0.2-2.51-1.77-9.76-1.99
		c-7.88-0.24-19.25-0.12-26.81,2.32c-7.52,2.43-12.81,2.2-15.46,2.72c-3.91,0.77-4.02-0.31-8.44-1.66
		c0.39-4.36,9.42-0.87,17.13-6.29c2.12-1.49,12.77-1.28,15.69-2.48c0.41-3.43-14.52,0.01-19.66,2.29c-12.15,5.39-27.99,0.73-26,0.73
		c37.06-7.87,14.78-5.79,37.83-9.34c0.79-0.12,4.09-0.99,3.98-0.99c-1.57-0.69,0.77-0.97-15.13,0.51c-0.77,0.07-1.63,0.35-2.23,0.82
		c-5.36,4.13-24.69,6.23-24.8,6.2c-0.21,1.33-2.81,0.47-2.99,2.62c1.93,4.58,5.11,3.73,12.96,4.49c2.11,4.99,1.1,4.13,10.55,5.05
		c13.78,1.34,20.97-5.15,25.43-4.88c4.95,0.29,19.27,2.17,36.2,2.36c4.04,0.05,2.47-1.27,7.56-0.68c4.15,0.48,9.93-2.53,11.52-7.16
		c1.25-3.63,2.85-0.19,5.59-2.89c7.18-7.05,8.54-8.51,10.12-9.15c4.37,0.6,7.99,7,17.61,8.53c31.99,5.1,44.12-14.29,49.41-15.1
		c18.01-2.75,18.9-2.45,20.65-4.94c37.77,0,60.03-2.98,77.18,0.93c10.62,2.42,14.02,3.48,18.96,3.88
		c15.11,1.22,12.15,1.51,26.14,6.23c26.25,8.86,16.68,5.61,35.05,9.13c7.17,1.37,53.95,7.55,56.26,7.93
		c75.32,12.38,66.88,6.51,68.36,14.42c-4.98,0.62-11.21,1.75-16.09,0.44c-2.33-0.62-7.23,0.16-8.74,2.79
		c-1.64,2.87-2.78,6.19-0.53,8.64c3.95,4.31,6.87,7.57,12.29,7.6c7.57,0.04,10.38,2.35,37.7,8.55c3.37,0.76,6.3-0.74,9.1-2.66
		c1.78,5.7,18.03,5.43,24.56,4.33c40.9-6.9,53.17-2.45,53.94-10.4c0.46-4.77-1.27-4.39-1.43-6.51c-0.27-3.54-8.35-6.14-11.55-6.94
		c-13.89-3.47-15.21,0.9-29.48-3.89c-5.16-1.73-8.05-1.78-12.39-3.67c0.33-1.06,0.92-2.91,1.24-3.91
		c0.27-0.69,19.83-0.17,21.54,0.18c6.9,1.41,17.71-2.39,21.87-4.43c3.74-1.83,6.18,0.53,20.37-1.84
		c26.39-4.41,42.68-21.26,47.95-21.15c0.85,0.02,4.73-2.4,10.69-5.57c0.93-0.49,1.95-0.83,2.91-1.22
		c6.67,4.07,13.78,4.71,21.18,3.69c2.67-0.37,11.24-0.33,15.65-1.35c21.11-4.88,17.57,6.22,48.61,1.69c13.72-2,20.76-7.72,24.39-9.2
		c7.22-2.94,12.41-15.36,11.63-17.84c-1.97-6.27-3.58-12.74-8.44-17.64c-1.52-2.91-4.21-3.99-7.19-4.63
		c-8.39-1.8,1.83-1.68,9.47-12.5c3.43-4.85,1.77-17.49-4.38-21.18c-3.11-1.87-4.72-4.74-8.88-9.27
		c-8.68-9.46-22.21-12.64-31.15-10.62c0.09,0.7,0.15,1.2,0.23,1.89c-42.76,9.74-27.81,13.53-48.43,7.67
		c-3.33-0.95-1.8-2.54-5.61-2.54c-6.36,0-3.87-0.35-21.49,4.39c-1.25,3.91,0.62-0.43-12.16,7.34c-5.95,3.62-3.83,9.08-2.91,13.28
		c-4.28,0.36-8.53,0.49-12.83-0.23c-25.24-4.22-25.56-2.14-46.68-2.91c-8.8-0.32-14.78,3.98-21,7.33c-3.45,1.86-2.98,1.56-6.02,0.45
		c-26.29-9.55-27.2-9.26-29.7-12.74c-1.64-2.29-3.87-3.74-6.93-3.16c-0.21,0.04-0.47-0.22-0.92-0.43
		c-1.19-4.63-73.96-56.32-104.19-60.67c-4.96-0.71-55.17-28.52-112.72,0.38c-25.42,12.76-15.32,12.11-38.27,20.44
		c-16.52,5.99-18.19,2.87-29.6-1.83c-25.59-10.53-25.91-10.24-26.19-11.2c-0.74-2.56-3.7-2.04-11.27-4.51
		c-30.45-9.91-24.74-9.12-29.28-7.75c-3.9-2.68-7.57-5.45-11.45-7.85c-5.85-3.61-28.32-15.17-33.75-15.04
		c-1.14,0.03-4.42-3.85-12.47-3.74c-42.02,0.55-27.28,34.93-32.44,47.31c-2.6,6.24-5.92,12.08-9.41,17.83
		c-3.25,5.36-7.91,9.11-13.3,12.07c-3.85,2.12-10.91,0.86-15.49,0.38c-1.09-0.11-4.51-2.73-7.08-3.75
		c-4.36-1.74-8.78-3.34-13.59-5.15c-0.87-4.71-11.65-5.68-16.64-8.71c-2.76-1.67-7.76-2.84-10.43-1.63c-8.3,3.76-4.5,3.58-9.17,3.23
		c-14.96-1.12-18.97,2.11-26.43,2.03c-3.78-0.04-6.97,2-10.6,2.13c-0.24,0.01-3,2-5.5,3.3c-2.78,1.45-5.1,3.08-6.82,5.57
		c-2.22,3.21-7.82,13.37-6.16,16.92c0.24,0.52-0.01,2.39-1.15,2.67c-3.31,0.82-4.51,3.68-7.2,6.38c-1.22,1.63-5.41,20.52,7.22,22.88
		c1.72,0.32,3.34,0.79,5.13,0.13c1-0.37,2.01,0.15,2.46,1.39c-19.5,12.34-24.13,14.04-20.58,15.4c6.06-2.8,15.24-11.82,22.58-12.73
		c0.72,0.69,5.11,4.46,5.34,6.03c-1.87,0.56-8.22,2.26-5.42,4.02c10.42-2.24,8.54-2.37,12.81-0.74c8.09,3.09,33.81-5.19,56.48-2.18
		c9.85,1.31,19.94-0.89,38.74,4.69c6.14,1.82,6.24,1.16,7.46,0.95c-3.73-3.24-8.16-3.77-12.15-5.77c13.81-8.7,6.55-4.81,16.11-8.52
		c8.54,5.24,9.94,8.68,27.18,29.24c3,3.58,0.77-1.3,5.62,7.95c-1.64,1.92-2.38,1.68-7.3,3.76c-2.34-0.47-8.23-2.28-15.73-1.19
		c-5.38,0.78-10.86,0.53-14.09,0.82c-42.58,3.75-14.79,5.11-64.34,3.38c-47.7-1.67-36.37-1.52-54.5-1.62
		c-5.53-0.03-10.47-3.77-12.56-6.35c-3.41-4.19-4.02-2.16-5.38-3.99c-3.14-4.24-6.05-8.62-2.43-13.05c2.36-2.9,1.9-5.4-1.43-2.16
		C10.47,148.98,16.18,159.15,22.81,163.46z M615.33,233.04c-0.38-3.09-0.67-5.54,1.57-6.36
		C617.92,231.17,617.87,231.37,615.33,233.04z M595.8,217.99c3.54-0.54,17.45-3.11,21.06-1.73c1.44,0.56-1.19,2.19-1.29,2.28
		C613.73,220.14,616.14,220.02,595.8,217.99z M619.61,226.93c-2.77-3.14,0.16-4.31-3.08-5.89c2.57-2.22,3.79-3.12,4.21-4.02
		c1.4-3.05-2.94-3.72-6.28-3.76c-8.51-0.1-12.64,2.43-24.87,2.56c-5.77,0.06-4.11,1.76-7.79,1.36c-6.42-0.7-7.02-1.16-10.75-1.16
		c0.48,0.67,0.68,1.25,1.02,1.36c12.33,3.94,34.35,3.67,40.14,6.13c-2.2,4.85-2.33,5.61-1.83,10.63
		c-3.73,0.23-28.69-8.27-36.09-8.07c-5.02,0.13-8.28-2.76-11.11-6.35c-1.8-2.29,0.58-7.48,5.74-6.19c8.98,2.23,10.95-1.57,43.5-0.93
		c12.22,0.24,10.87,0.11,13.23,1.56C625.65,214.17,619.94,226.21,619.61,226.93z M588.56,205.38c4.53,0.34,3.52-0.55,4.46,3.51
		C591.21,210.47,587.42,208.57,588.56,205.38z M595.48,206.68c0.01-1.09-0.04-0.88,1.5-0.99c1.12-0.08,17.45-0.27,18.78,0.31
		c3.1,1.36,2.19,0.16,8.7,2.06c0.04,0.74,0.08,1.48,0.12,2.13c-0.38,0.23-0.61,0.48-0.82,0.47
		C598.84,209.52,595.46,209.52,595.48,206.68z M621.22,229.88C621.21,229.98,621.14,230.04,621.22,229.88
		c0.08-0.79,0.02-0.14,0.53-0.66C621.75,229.34,621.51,229.3,621.22,229.88z M622.53,227.14c3.68-8.66,3.05-7.78,3.57-6.48
		c0.44,1.11,0.57,0.51-3.27,6.97C622.65,227.36,622.5,227.21,622.53,227.14z M671.4,221.97c-13.25,3.77-26.24,6.12-39.96,7.66
		c2.48-4.92,5.03-8.76,9.3-12.11C675.15,223.66,665.27,218.48,671.4,221.97z M661.03,216.91c-4.29,1-9.81,0.32-17.53-1.06
		c-9.72-1.74-11.11,11.07-16.19,14.93c-0.75,4.79,1.04,4.71,1.45,3.26c1.8-6.28-4.16,1.19,42.25-8.66
		c8.84-1.88,14.3-0.08,17.64-0.24c1.63-0.08,1.7-2.59,0.18-2.83c-9.18-1.48-13.31-0.47-18.07-4.68c8.07,0,15.87,0.89,22.54,5.33
		c0.27,2.26,1.48,4.36,0.78,6.76c-4.02,3.53-5.17,0.57-25.21,3.51c-7.12,1.04-4.04-0.78-23.5,3.31c-7.08,1.49-13.92,1.55-20.73-0.51
		c-4.97-1.51,4.15-8.98,4.79-16.2c0.55-6.18,6.07-7.37,12.05-8.64C643.52,210.74,658.62,216.07,661.03,216.91z M630.75,213.1
		c-0.67,0.58-1.35,1.16-2.1,1.83c-0.56-1.76-0.53-2,0.64-2.67C630.08,211.8,630.38,212.29,630.75,213.1z M630.5,210.87
		c0.85-6.23,0.56-4.02,0.77-5.58c0.57-0.01,7.57-0.98,7.24-0.03c-0.72,2.1-2.01,3.22-3.71,4.5
		C633.31,210.76,633.52,210.85,630.5,210.87z M627.21,210.91c-0.35-6.6-0.12-5.39,0.17-4.99
		C628.75,207.79,628.71,207.92,627.21,210.91z M638.91,209.58c1.02-1.43,1.53-2.16,2.05-2.89
		C640.93,207.72,641.09,208.8,638.91,209.58z M766.28,168.83c-16.25,8.14-55.86,33.85-75.93,27.79c-3.59-1.08-18.08,7.31-31.38,4.72
		c-4.74-0.92-18.97-1.17-20.87-0.07c-2.83,1.65-5.91,0.65-10.69,0.89c-5.05,0.26-11.75-3.28-12.55-8.1
		c-1.39-8.35,1.21-20.84,1.21-34.85c0.04-0.71,0.11-1.44,0.17-2.31c7.24,0.63,15.25,8.56,43.49,6.54c5.34-0.38,14.6-2.75,19.38-3.76
		c10.43-2.21,7.43-0.09,11.67-2.56c2.12-1.24,2.11-0.71,19.45-2.8c0.88-0.11,1.63-0.3,9.08-4.23c1.44-0.76,1.92-0.85,16.33-1.96
		c6.75-0.52,6.26,0.97,12.84,0.33c8.99-0.88,26.05-2.53,34.99-5.61c0.68-0.23,1.07-0.76,1.05-1.94c-4.35-1.56-10.09,1.21-14.44,1.12
		c0.82-1.06,1.25-1.91,1.92-2.45c5.3-4.35,12.54-4.67,19.29-3.65c0,2.44-0.6,1.46,3.03,4.07c-3.59,3.71-1.87,1.87-3.52,5.34
		c-0.44,0.93-1.37,1.45-1.5,3.56c0,0.03-0.02,3.48-0.02,3.58c-0.06,3.17,1.82,2.19,1.96,4.22
		C791.48,160.49,788.93,157.48,766.28,168.83z M768.35,142.62c-9.5,1.98-11.27,2.35-11.25,0.81c0.05-4.11,15.82-13.96,18.51-9.7
		C773.59,135.9,767.38,136.94,768.35,142.62z M755.44,144.69c-8.66,1.22-5.53-0.27-28.26,2.19c-0.25,0.03-0.49-0.09-0.81-0.16
		c0.8-1.2,2.06-1.51,3.38-2.04c10.14-4.04,3.76-6.04,23.99-12.66c3.45-1.13,8.19-2.65,11.91-1.43
		C769.06,131.7,753.96,135.69,755.44,144.69z M790.31,161.93c-0.4,2.05-0.73,2.87-1.69,3.27c-0.93,0.39-4.14,0.83-6.61,0.21
		C784.4,163.57,787.05,162.48,790.31,161.93z M874.67,127.7c4.39,1.32,7.32,5.12,8.96,9.35c3.58,9.23,6.07,12.2-2.42,22.22
		c-12.36,14.6-47.59,12.22-47.49,12.22c-3.89,0-1.24-2-6.48-2.43c-18.74-1.55-17.71,0.18-24.24,0.62
		c-15.61,1.05-8.72,2.63-13.14,2.29c-3.9-0.3-12.67-0.7-16.46-3.37c1.74-1.41,3.78-1.73,5.46-2.7c3.87,1.93,2.8,2.27,8.4,2.22
		c2.84-0.02,4.34,2.44,6.07-0.45c3.12-5.21,2.88-10.92,1.15-15.57c-0.72-1.92-2.04-3.42-1.11-6.07c1.62-4.59,2.01-3.32,3.51-4.59
		c2.26-1.92-0.55-3.57-2.86-5.52c0.5-0.09,0.86-0.21,1.17-0.24c0.3-0.03,0.39,0.03,1.53,0.03c7.79,0,10.18-3.93,13.98-1.93
		c0.73,0.39,1.22,0.22,19.08-2.24c19.37-2.67,20.85-0.52,24.86-1.68C861.03,127.98,862.55,124.06,874.67,127.7z M639.41,102.45
		c13.01,7.77,20.37,7.65,23.25,8.86c3.81,1.6,6.94-0.48,10.61-2.38c9.51-4.92,9.26-5.78,19.77-5.74c29.02,0.1,26.77,0.25,28.59,0.78
		c16.42,4.76,27.24,3.89,35.82,1.78c16.78-4.14,15.98-4.29,16.25-5.41c-2.9-1.9-5.59,0.61-8.44,0.53c-0.16-0.88,0.55-1.15,1.01-1.36
		c1.69-0.79,3.39-1.81,5.2-2.12c4.11-0.71,8.28-1.11,12.38,0.31c1.4,0.49,1.76-0.54,1.52-1.08c-1.77-4.08-19.17-4.19-22.46,2.67
		c0.09,0.71,0.19,1.47,0.3,2.36c-3.4,0.46-6.72,0.92-9.99,1.36c-1.5-1.83-2.06-3.81-1.83-5.92c0.45-4.09,1.96-4.27,12.59-9.43
		c2.48-1.21,6.25-2.56,6.6-3.02c2.32-3.05,5.95-2.7,9.06-3.68c3.95-1.25,11.55,4.55,25.41,5.65c0.52,0.04,1.17,0.06,1.58-0.2
		c3.15-1.99,6.92-1.98,10.28-3.3c2.91-1.14,28.44-10.06,33.25-9.11c14.37,2.85,19.81,11.92,24.21,16.33c5.1,5.11,6.36,4.56,7.2,7.4
		c1.51,5.09,1.01,10.12-0.77,15.06c-2.46,3.07-5.34,5.66-8.76,7.63c-5.8,0.54-7.23,2.57-21.86,8.19c-6.1-3.03-20.46-0.29-27.17,0.99
		c-9.62,1.84-12.62-0.48-19.88,2.61c-2.93,1.25-5.15,1.3-13.59,1.03c-0.61-0.02-1.21-0.3-2.26-0.59c3.77-2.83,1.87-1.65,3.77-3.89
		c0.51-0.61,1.31-1,1.74-1.65c2.67-4.15-1.35-20.98-1.98-21.4c0.46,0.11,0.35,0.07,0.35,0.17c4.91-1.02-1.63-4.94-5.89-7.61
		c-1.1,0.6-2.12,1.15-3.38,1.83c1.62,2.68,0.71,1.65,3.1,3.68c-0.4,6.23,3.61,3.45,4.49,19.94c0.09,1.68-0.25,3.2-1.6,4.58
		c-8.83-2.03-28.15-0.74-33.42,1.39c-1.83,0.74-9.67,0.4-20.67,9.4c-3.72,3.05-3.59,2.41-14.73,8.25
		c-10.19,5.35-6.51,4.27-21.5,6.06c0.39-1.02,0.68-1.74,1.03-2.62c-4.59-0.44-3,3.16-16.27,5.59c-14.83,2.71-9.39,5.15-44.75,2.02
		c-6.68-0.59-14.11-3.1-21.2-5.13c-0.63-5.42,1.18-30.9,6.37-47.47c1.25-3.98,3.73-5.36,6.91-6.85
		C633.25,99.2,636.35,100.63,639.41,102.45z M629.19,94.6c0.21-0.04,0.5,0.16,0.73,0.29c1.48,0.88-5.27,3.55-8.67,7.05
		c-6.15,20.71-7.09,46.14-8.07,63.35c-1.33,23.32-4.05,23.38,0.85,33.58c0,1.29,0.63,1.04,1.9,2.26c-0.03,0.26-0.02,0.22,0.5,0.87
		c1.18,0.24,0.55,0.55,1.25,1.25c-0.18-0.06-0.27-0.01-0.27-0.27c-0.29-0.29-0.92,0.02-0.83-0.87c-0.11,0-0.53-0.24-0.62-0.5
		c-0.07-0.2,0.02-0.17-0.15-0.34c-0.06-0.05-0.88-0.85-0.95-0.89c-0.75,0.13-0.62-0.52-0.78-0.68c0-0.3-2.62-0.23-3.2-3.63
		c-1.58-9.22-0.43-18.81,0.31-30.6C614.53,112.83,614.2,97.46,629.19,94.6z M523.04,35.39c4.41,1.02,8.3,3.6,12.82,4.79
		c-0.04-0.54-0.07-0.91-0.1-1.26c-0.86,0.29-1.69-3.36,30.93,16.02c35.98,21.37,42.47,28.73,49.82,32.06
		c2.92,1.32,5.4,3.46,7.63,6.18c-10.37,8.78-10.53,14.96-12.48,29.43c-1.7,12.67-1.28,25.93-2,28.34
		c-4.91-1.16-13.27-4.92-30.88-9.3c-7.5-1.87-20.75-9.59-50.17-13.26c-14.1-1.76-15.01-2.97-22.15-2.68
		C493.23,109.8,505.57,48.6,523.04,35.39z M402.37,39.06c13.16-9.24,30.35-15.59,46.43-15.63c15.25-0.03,23.56-1.37,46.95,3.66
		c8.77,1.89,15.96,3.64,23.88,6.93c0.23,0.93-0.36,1.16-0.88,1.65c-15.88,15.16-24.56,58.55-19.38,76.34
		c0.48,1.64,0.62,2.09,0.82,4.36c0.6,7.07,6.57,17.25,7.96,13.58c0.22-0.59,0.29-1.25,0.43-1.9c25.91,6.43,52.69,8.67,100.97,26.45
		c1.52,3.03-1.14,2.68-1.36,31.47c-0.06,7.31-1.37,11.62,2.55,15.14c3.38,3.37-102.85-10.12-115.56-13.51
		c-2.83-20.23,3.72-31.97,10.22-45.62c-0.41-0.66-0.78-1.2-1.1-1.71c0.42-2.71,3.83-3.87,3.45-6.93c-0.01-0.08-0.2-0.14-0.52-0.35
		c-4.52,2.74-8.78,13.73-11.31,19.43c-6.25,14.09-4.57,24.02-3.8,34.58c0,0.12-1.59,0.25-2,0.2c-54.25-6.48-43.53-4.84-69.86-13.58
		c-3.85-1.28-1.51-2.27-10.04-3.88c-4.97-0.94-4.34-0.44-4.59-1.29c-1.88-6.51,4.43-5.28,5.34-35.94c0.29-9.7-8.69-82.49-8.79-83.03
		C401.36,44.78,402.37,46.21,402.37,39.06z M346.06,55.33c1.25,0.44,2.6,0.49,3.59,1.66c0.44,0.53,1.53,0.69,2.22,0.73
		c15.42,0.85,15.18,2.36,43.74-15.22c1.2-0.74,2.59-1.57,3.97-1.76c1.88,12.87,1.2,27.83,4.1,49.58
		c4.45,33.46,4.56,31.95,3.81,33.97c-1.39,3.75,3.35,10.35-2.6,31.46c-1.16,4.13-3.06,8.05-2.89,12.62
		c-7.25,1.56-15.39-6.23-39.18-4.6c-16.16,1.11-13.4-0.4-25.42-0.13c-36.82,0.81-35.44,1.21-36.58,2.49
		c-3.11-8.75-3.61-11.44-4.66-16.43c0-0.1,1.81,16.41,1.83,16.54c-27.36,3.93-13,2.69-34.09,15.15c-6.19,3.66-21.56,3.07-28.15,2.12
		c-5.91-0.86-10.98-3.39-15.47-7.66c0.86-0.7,1.46-1.43,2.23-1.85c32.9-17.68,67.16-50.23,69.11-51.85
		c1.89-1.58,1.06-4.23,3.42,17.08c0-0.13-0.3-4.94,0.34-9.65c1.95-7.8,1.12-12.68,3.99-16.13c4.34-5.21,4.35-6.69,6.88-7.7
		c0.96-0.38,3.18-3.32,11.71-12.2c3.02-3.15,1.97-3.54,3.03-6.42c2.67-7.27-7-20.36-12.77-25.64c-1.16-1.06-1.14,0.05,5.29-19.42
		C317.16,42.09,315.29,44.58,346.06,55.33z M279.87,30.27c34.3,11.44,29.59,9.13,30.6,10.03c0.84,0.75-3.89,14.67-4.17,15.45
		c-1.59,4.59,1.18,4.02-27.37-25.34C279.38,30.35,279.66,30.19,279.87,30.27z M115.83,65.78c0.28,0.1,0.21,0.43,0.5,0.43
		c0.01,0.03,0.03,0.05,0.05,0.07c2.17-0.35,3.79,0.78,5.91,1.03c-0.07,1.29-0.71,1.22-1.16,1.11c-1.72-0.42-3.74-0.2-4.76-2.15
		c-0.21,0.05-0.1-0.06-0.18-0.06c-0.79,0.1-0.69-0.06-1.01-0.35C115.41,65.83,115.67,65.71,115.83,65.78z M100.78,60.93
		c3.17-0.66,5.72-0.18,8.36,2.11c-7.9,0.49-5.95,0.86-8.76-1.38C100.56,61.33,100.64,60.96,100.78,60.93z M96.94,62.38
		c0.16-0.35,0.83,0.34,1.49,0.89C97.38,64.17,96.5,63.32,96.94,62.38z M51.86,77.2c-1.3,0.34-1.13,0.08-8.46-1.4
		C46.66,72.63,47.69,74.03,51.86,77.2z M38.13,89.91c12.3-2.63,17.57,5.04,15.83,4.97c-0.1,0-7.09-0.23-7.19-0.31
		C43.07,91.75,35.15,94.21,38.13,89.91z M46.49,97.82c-1.17,1.01-2.39,1.33-3.64,0.45C43.14,97.62,42.44,97.71,46.49,97.82z
		 M37.62,94.72c1.52,0,2.95,0,4.69,0c-1.19,2.05-3.07,2.29-4.66,2.93C36.6,96.77,36.85,95.95,37.62,94.72z M33.28,119.99
		c0.2-1.6,0.39-3.02,0.59-4.43c0-0.14-0.77,0.04-1.26,1.37c-0.22,0.6-0.41,1.22-0.69,2.03c-1.94-1.02-3.18-2.47-3.36-4.35
		c-0.18-1.83-2.76-7.54,0.53-12.33c4.64-6.75,3.78-4.91,4.63,1.18c-1.96,1.94-4.86,3.17-4.65,6.58c0.9,0.26,1.82-1.7,2.66-2.55
		c0.46-0.46,1.02-0.83,1.49-1.21c1.84,1.06-1.23,1.94-0.96,3.58c0,0.01,0,0.02,0,0.02c-0.07,0.02-0.39,0.27-0.97,0.77
		c-0.1,0.53-0.16,0.48,0.11,0.11c0.56-0.53,0.84-0.81,0.87-0.87c0.04,0.02,0.3-0.08,1.91-0.43c1.35,2.05,0.17,5.04,0.44,5.32
		c1.21,3.06,0.11,3.75,2.85,6.06C35.63,121.54,34.58,120.45,33.28,119.99z M38.37,113.07c-0.91-1.49-0.86-2.89-0.69-4.4
		c3.01-1.02,3.65-0.82,4.25-2.71c3.24-0.2,6.48-0.4,10.38-0.64c-3.38,2.18-6.89,2.42-9.97,4.21c1.61,0.67,1.9,0.33,8.35-1.1
		C46.13,111.88,42.95,113.05,38.37,113.07z M82.4,132.33c-5.62,0.34-4.82-1.27-7.8,0.19c-5.31,2.61-2.32,1.46-6.24,2.68
		c0.14-0.13,0.72-0.65,2.89-2.47c0.1,0-0.46-2.66-9.39,1.45c-2.55,1.17-4.98,0.78-7.32-0.5c-0.07-0.04-0.07-0.23-0.17-0.61
		c1.91-0.93,3.55,0.25,10.09-1.72h0.01c-2.12-0.47-4.57-0.08-5.66-2.64c-1.56,0-3.14,0-4.68,0c-0.6-1.65,4.63-2.58,2.23-4.12
		c-6.42,3.52-8.11,3.69-1.95,6.15c0.1,0-2.6,2.4-5.27,0.28c-1.25-1-2.4-2.11-3.47-3.06c-0.02-1.17,0.33-2.06,1.44-2.41
		c1.09-0.34,1.99-1.34,3.39-0.74c2.71,1.16,3.35-0.82,4.18-0.82c-0.35-0.91-0.73-1.85-1.15-2.93c-2.33,0.88-7.5,2.69-6.74,2.69
		c-0.3,0-0.1,0.94-1.01,0.94c-0.12,0-0.25-0.32-0.37-0.5c2.09-1.36,0.16,0.48,2.43-1.61c2.85-2.63,7.65-3.5,5.09-5.12
		c-3.4,1.42-6.11,4.13-9.6,5.97c-0.67-0.55-1.31-1.1-2.2-1.86c4.32-2.16,9-3.05,12.02-6.98c-3.02,0.55-3.1,1.73-6.28,3.16
		c-1.07,0.48-2.25,0.75-3.9,1.27c1.23-1.97,9.37-5.18,10.21-7.26c-0.67,0.06-1.09-0.02-1.38,0.14c-10.73,5.86-11.16,6.82-13,3.97
		c0.86-0.36,1.65-0.93,2.5-1.03c5-0.6,12.61-5.32,14.02-7.36c2.2-3.19,1.8-2.5,0.39-6.16c-4.64,0.46-9.34-0.21-14.34,1.9
		c9.81,0.86,1.48,0.36,0.58,2.69c-4.98,0-4.22,0.4-4.9-5.24c0.82-0.16,1.66-0.61,2.22-0.38c1.33,0.56,2.59,0.48,3.94,0.32
		c14.21-1.7,13.32,0.13,14.66-0.95c0.36-1.06-0.88-1.21-1.09-1.88c0-1.9,0-3.73,0-5.62c-4.5-3.84-13.45-7.23-13.45-7.06
		c-0.78,1.79,0,1.38-4.76,0.3c-1.16-1.49,0.16-2.67,0.16-2.88c3.93,0.01,7.39,1.28,10.52,3.39c0.59-0.21,1.08-0.39,1.87-0.68
		c5.13,3.47,4.8,3.4,5.12,2.92c0.8-1.18-3.1-2.7-4.2-4.94c-0.37-0.76-4.76-2.54-8.34-2.39c-1.21,0.05-2.44,0.08-3.24-1.43
		c0.76-0.82,1.55-1.67,2.3-2.47c12.16,3.22,9.98,3.31,12.76,0.73c-4.42-3.35-4-3.16-5.06-3.9c-0.21-0.14-3.37-1.83-3.37-2.03
		c7.14,0.71,8.33,5.01,9.64,3.83c0.96-0.86-0.23-1.5-5.44-6.29c1.26-0.93,1.26-0.93,4.52-0.52c0.86-0.95,1.36-2.6,3.32-2.35
		c1.47,0.29,2.14,2.32,3.93,2.21c0.39-0.35,0.53,0.13-0.68-2.25c0.53-0.15,1.02-0.47,1.43-0.39c1.47,0.29,4.4,1.79,5.31,1.36
		c0-1.43-1.53-1.32-2.11-2.19c1.59-2.12,6.2,2.43,10.41,1.58c0.21-0.04,1.27,0.81,1.21,0.81c-0.9,0.46-1.61,0.84-2.34,1.22
		c0.18,0.28,0.27,0.62,0.42,0.65c4.25,0.81,6.08,1.39,7.27-0.66c0.9-1.55-1.29,0.78-5.12-4.27c0.56-0.56,0.37-0.42,2.8-0.42
		c0.67,1.25,0.99,3.05,2.94,3.15c1.38-0.48,2.78-1.43,4.11-1.32c1.5,0.12,2.9-0.22,4.33-0.2c25.64,0.32,13.73,1.9,34.07,6.64
		c5.32,1.24,16.47,5.41,20.4,11.99c4.06,6.82,7.1,10.43,6.8,18.57c-0.02,0.54-1.82,10.2-6.52,16.02
		c-4.63,5.73-11.9,8.48-18.53,10.46C111.82,134.55,125.72,129.68,82.4,132.33z M174.95,132.94c-8.93-9.4-15.98-5.78-4.48-10.37
		c2.54-1.01,2.33,1.61,6.43-1.59c-4.26-2.55-17.08,2.38-23.38,5.7c-4.18,2.2-13.3,3.13-16.34,3.49c14.24-8.82,14.65-12,17.11-17.94
		c1.95-4.71,2.31-3.39,2.71-5.33c2.05-9.88-0.73-9.38-7.59-24.96c8.41,0.41,17.51,4.53,18,1.94c0.24-1.29-1.86-1.73-3.69-2.43
		c8.06-6.79,13.6-14.76,16.85-18.92c15.68,6.59,24.79,8.81,39.09,26.39c6.72,8.26,8.79,15.57,13.73,28.61
		c0.85,2.23,0.78,3.92-1.59,3.55c-7.7-1.18-8.6-0.18-11.12-3.32c-0.66-0.82-1.08-1.58-2.22-1.46c-0.05,1.86,2.03,2.36,2.48,4.16
		c-4.89,1.82-10.36,2.4-15.22,6.19c1.23,0,2.19,0.15,2.84-0.03c9.72-2.76,4.18-0.13,10.53-2.26c3.8-1.27,7.66-1.14,11.41-0.78
		c1.66,2.18-6.9,10.05-10.03,13.64c-6.69,7.67-47.72-13.44-49.32-13.67c-0.4,1.31,1.44,1.35,3.33,3.22
		c5.52,5.47,17.87,9.7,25.38,11.89c8.64,2.53,8.8,2.14,17.08,2.14c-2.72,4.8-14.09,16.62-19.61,20.45
		C193.06,159.06,193.73,152.71,174.95,132.94z"/> <path d="M830.81,446.68c-0.7-3.22-1.85-12.04-4.93-10.98c-0.79,0.27-1.34,1.57-1.29,2.02c1.23,10.27,1.04,13.22,3.52,13.2
		C830.15,450.92,830.28,448.66,830.81,446.68z"/> <path d="M834.8,449.2c2.46,0.14,3.32-7.45,0.17-11.19c-0.64-0.76-2-0.4-2.26,0.54C832.37,439.78,832.23,449.05,834.8,449.2z"/> <path d="M845.01,442.12c-1.16-3.01-1.12-4.2-3.15-3.89c-0.35,0.05-0.93,0.7-0.92,1.13c0.11,5.1,0.36,6.17,2.05,6.51
		C844.33,446.13,844.64,443.55,845.01,442.12z"/> <path d="M171.8,148.51c-1.33-2.45-4.02-3.03-4.49-2.26C166.74,147.19,169.13,149.39,171.8,148.51z"/> <path d="M166.41,508.4c-1.35-2.46-2.27-2.9-4.35-1.99c0.27,1.44,1.58,1.61,2.6,2.08C165.22,508.75,165.86,509.11,166.41,508.4z"/> <path d="M23.32,513.47c-1.77,0.73-2.2,4.54-0.01,4.37C23.57,516.84,24.81,512.86,23.32,513.47z"/> <path d="M28.63,153.53c-1.4,0.22-1.48,1.39-1.65,2.4c-0.15,0.89-0.08,1.84,1.24,2.28C29.11,156.31,29.34,153.42,28.63,153.53z"/> <path d="M34.48,144.46c1.08-1.49,0.57-1.39,0.02-1.88c-0.9,1.02-1.2,0.94-0.67,2.01C33.87,144.65,34.38,144.6,34.48,144.46z"/> <path d="M29.9,502.94c-1.26-1.18-1.52,1.74-1.62,2.3C29.01,504.63,30.6,503.6,29.9,502.94z"/> <path d="M160.93,143.91c0.16,0.4,0.05,0.31,0.35,0.24C161.33,143.72,161.39,143.84,160.93,143.91z"/> <path d="M35.25,499.93c-0.32-0.32-0.16-0.29-0.49-0.03C35.04,500.18,34.89,500.22,35.25,499.93z"/> <path d="M156.01,503.86c0.26,0.26,0.12,0.31,0.45,0.06C156.22,503.64,156.33,503.65,156.01,503.86z"/> <path d="M39.92,139.95c-0.32,0.25-0.31,0.18-0.05,0.48C40.16,140.2,40.19,140.25,39.92,139.95z"/> <path d="M29.1,153.27c-0.19,0.29-0.17,0.24-0.17,0.31C29.03,153.64,29.01,153.62,29.1,153.27z"/> <path d="M37.29,469.57c-0.06-0.01-0.13-0.01-0.19-0.02C37.18,469.65,37.17,469.69,37.29,469.57z"/> <path d="M295.17,141.15c0.12,1.94,0.76,6.99,1.01,8.39C296.29,150.2,294.72,133.71,295.17,141.15z"/> <path d="M451.19,389.16c-2.35,0.29-13.48,1.17-14.77,3.65c2.11,0.86,3.86-0.68,6.2-0.66c1.71,0.02,0.61-0.33,2.73,9.71
		c0.65,3.1,0.85,6.31,2.08,9.91c0.8-6.69-2.5-15.8-2.12-20.29c10.5-2.63,11.8-1.34,12.48-2.64
		C456.99,388.24,458.46,388.26,451.19,389.16z"/> <path d="M465.49,503.23c0,0.08,0.94-1.15,1.18-1.7c6.9-15.99,10.78-15.83,11.6-18.96C475.21,482.49,466.06,497.7,465.49,503.23z"/> <path d="M465.36,503.45c0.08,0.06,0.06,0.12,0.03,0.14c0.01-0.01,0.02-0.02,0.07-0.05C465.49,503.27,465.54,503.18,465.36,503.45z"/> <path d="M465.39,503.59C465.36,503.62,465.37,503.62,465.39,503.59L465.39,503.59z"/> <path d="M422.07,477.9c2.57,0.65,4.83,0.67,6.99-0.56C425.07,476.46,424.42,476.64,422.07,477.9z"/> <path d="M435.17,476.6c1.29,0.62,0.46,0.95,6.03,0.08c0.38-0.06,0.71-0.49,1.54-1.12C439.9,475.44,437.72,475.2,435.17,476.6z"/> <path d="M414.68,479.06c1.56,0.06,2.81-0.69,4.05-1.63C413.66,475.8,413.45,479.01,414.68,479.06z"/> <path d="M425.48,534.89c-0.08-3.02-0.04-5.48-0.76-8.41C424.08,530.76,423.98,532.36,425.48,534.89z"/> <path d="M482.44,447.02c1.46,1.98,3.08,3.77,5.46,4.67C486.33,449.17,482.91,446.86,482.44,447.02z"/> <path d="M488.2,451.93c0.76,1.52,2.85,3.01,4.39,3.74C493.05,455.89,491.54,453.46,488.2,451.93z"/> <path d="M488.07,451.77c0.01-0.02-0.02-0.03-0.17-0.08c0.03,0.05,0.07,0.1,0.1,0.15c0.01-0.01,0.01-0.01,0.01-0.01
		c-0.01,0.02,0.03,0.03,0.19,0.1c-0.04-0.06-0.08-0.11-0.12-0.17C488.08,451.76,488.08,451.76,488.07,451.77z"/> <path d="M474.41,470.49c-7.33,0.38,0.96,0.71,2.06,0.34C477.38,470.38,477.93,470.31,474.41,470.49z"/> <path d="M488.93,479.55c2.19-1.51,2.19-1.51,2.83-3.23C490.24,476.93,489.5,477.9,488.93,479.55z"/> <path d="M465.57,471.45c0,0.22-0.32,0.16,2.99,0.16C468.51,471.17,469.05,471.27,465.57,471.45z"/> <path d="M492.96,455.93c0.65,1.25,1.69,1.95,3.05,2.23C495.36,456.92,494.4,456.11,492.96,455.93z"/> <path d="M496.07,458.3c0.19,0.02,0.34,0.16,0.09-0.09C495.93,458.16,495.98,458.1,496.07,458.3z"/> <path d="M492.7,455.74c0.06,0.09,0.1,0.13,0.14,0.16C492.91,455.82,492.92,455.84,492.7,455.74z"/> <path d="M492.82,455.91c0.01-0.01,0.01-0.01,0.02-0.01c0,0,0,0,0,0C492.83,455.9,492.83,455.91,492.82,455.91z"/> <path d="M492.84,455.9C492.98,456,492.97,455.78,492.84,455.9L492.84,455.9z"/> <path d="M450.13,474.49c-0.7-0.16-1.35-0.2-2.01-0.02c-2.2,0.61,0.25,1.11,2.06,0.64C451.29,474.81,451.71,474.84,450.13,474.49z"/> <path d="M463.94,507.3c0.63-0.63,1.52-2.41,1.43-3.65C465.38,503.55,464.29,504.12,463.94,507.3z"/> <path d="M477.7,470.26c-0.36,0,3.09,0.09,3.59-0.16C484.08,469.17,478.81,469.62,477.7,470.26z"/> <path d="M482.07,469.56c0.6-0.08,0.32-0.05,0.66-0.1C482.22,469.43,482.22,469.44,482.07,469.56z"/> <path d="M477.68,470.28c-0.1-0.01-0.19-0.01-0.28,0c0.01,0.01,0.01,0.01,0.02,0.02c-0.03-0.03-0.05,0-0.21,0.09
		c0.09-0.01,0.19-0.01,0.28-0.01c-0.01-0.01-0.01-0.01-0.01-0.01C477.5,470.38,477.52,470.35,477.68,470.28z"/> <path d="M473.36,447.61c-0.89-0.95-1.65-1.89-2.93-2.11C470.59,445.5,471.56,447.43,473.36,447.61z"/> <path d="M474.31,448.61c-0.01,0.01-0.02,0.03-0.04,0.05c0.94,1.09,0.4,0.75,2.47,1.47c1,1.24,0.29,0.74,2.4,1.63
		c0.3,0.26,0.15,0.06,0.07-0.07c0.07-0.1,0.1-0.01-1.61-0.71c-0.93-1.19-0.46-0.85-2.49-1.56c-0.66-0.77-0.72-0.89-0.77-0.84
		c-0.03-0.15-0.64-0.95-0.98-0.99c0.05,0.06,0.09,0.1,0.13,0.14C474,448.35,474.24,448.59,474.31,448.61z"/> <path d="M486.13,468.86c-0.1,0.02-3.29,0.6-3.39,0.6C483.72,469.45,485.02,469.78,486.13,468.86z"/> <path d="M487.83,468.38c-0.52-0.26-0.95-0.19-1.32,0.29C488.7,468.56,488.2,468.63,487.83,468.38z"/> <path d="M486.24,468.77c0.06-0.02,0.12-0.03,0.17,0.03c0.1-0.17,0.17-0.11-0.09-0.11C486.29,468.73,486.27,468.75,486.24,468.77z"/> <path d="M486.24,468.77C486.13,468.82,486.06,468.94,486.24,468.77L486.24,468.77z"/> <path d="M455.05,396.83c0.04,0.26,0.2,0.46,0.37,0.58c0.43,0.22,0.63,0.63-0.3-0.88C454.96,396.32,455.05,396.28,455.05,396.83z"/> <path d="M454.98,396.02c-0.24-0.24-0.15,0.09,0.05,0.35C455.03,396.25,455.02,396.12,454.98,396.02z"/> <path d="M454.65,395.77c0.32,0.24,0.13-0.31-0.01-0.75C454.56,395.21,454.21,395.62,454.65,395.77z"/> <path d="M478.29,482.47c-0.03,0.1-0.02,0.08,0.07,0.08C478.53,482.2,478.58,482.17,478.29,482.47z"/> <path d="M466.23,441.34c-0.11,0.08-0.04,0.02,0.72,0.81c0.39,0.39,0.7,0.68,0.84,0.77c-0.01,0.01-0.02,0.03-0.04,0.05
		c0.98,0.98,0.79,0.9,0.94,0.76c-0.74-0.74-0.81-0.89-0.87-0.84c-0.12-0.16-0.57-0.64-1.54-1.58c-0.01,0.01-0.02,0.01-0.02,0.02
		c-0.07-0.09-0.31-0.35-0.77-0.82c-1.2-1.04-1.01-1.05-0.92-0.67C465.39,440.64,466.05,441.23,466.23,441.34z"/> <path d="M480.06,444.49c-0.1-0.1-4.8-4.85-4.76-4.88C469.38,434.1,479.96,444.59,480.06,444.49z"/> <path d="M482.32,446.87c0.02-0.64-0.76-0.79-0.47-0.5C482,446.53,482.16,446.7,482.32,446.87z"/> <path d="M482.32,447.04c0.09,0,0.15-0.02,0.09-0.08C482.27,446.82,482.36,446.84,482.32,447.04z"/> <path d="M481.53,446.11c0.01-0.46-0.25-0.68-0.69-0.71C480.87,445.84,481.1,446.06,481.53,446.11z"/> <path d="M481.63,446.12c-0.12,0-0.09-0.08-0.09,0.09C481.78,446.21,481.74,446.27,481.63,446.12z"/> <path d="M496.3,458.36c0.17,0.21,0.35,0.42,0.52,0.63C496.8,458.65,496.62,458.45,496.3,458.36z"/> <path d="M496.84,459.13C496.85,458.91,496.81,459.06,496.84,459.13L496.84,459.13z"/> <path d="M498.68,460.01c-0.12-0.34,0.19-0.15-1.75-0.89c-0.06,0.06-0.08,0.04-0.09,0.01c0,0.03,0,0.05-0.01,0.09
		C498.82,459.92,498.52,459.76,498.68,460.01z"/> <path d="M480.62,445.27c0.1,0,0,0.02-0.28-0.29C479.77,444.35,480.13,445.18,480.62,445.27z"/> <path d="M480.05,444.49l-0.1,0.09C480.15,444.77,480.02,444.69,480.05,444.49z"/> <path d="M480.74,445.39c0.07-0.07,0.09-0.04,0.1-0.01c0-0.01-0.01-0.03-0.01-0.08C480.64,445.3,480.54,445.19,480.74,445.39z"/> <path d="M480.84,445.38C480.84,445.41,480.84,445.4,480.84,445.38L480.84,445.38z"/> <path d="M468.89,444.11c0.28,0.28,0.48,0.44,0.56,0.48l-0.03,0.03c0.98,1.06,1.51,1.41,0.1-0.11l-0.05,0.05
		c-0.04-0.08-0.26-0.34-0.77-0.84C468.58,443.84,468.52,443.78,468.89,444.11z"/> <path d="M232.12,376.65c0.17-2.81-6.87-6.06-9.29-7c-0.63-0.25-1.02,0.3-1.03,1.04c3,2.43,7.11,3.52,9.57,7.15
		C231.76,377.24,232.1,376.96,232.12,376.65z"/> <path d="M195.82,408.5c-0.31,0.44-0.49,0.86-0.21,1.28c0.66,0.99,7.06,2.7,5.94,0.16C199.78,409.49,197.85,409.02,195.82,408.5z"/> <path d="M196.83,544.66c1.66-0.76,2.76-1.99,3.54-3.57c0.07-0.14-0.24-0.48-0.31-0.67C196.83,541.61,196.16,542.46,196.83,544.66z"/> <path d="M202.8,537.96c1.82-0.72,3.37-1.62,4.37-3.39C204.37,535.09,204,535.34,202.8,537.96z"/> <path d="M142.63,539.95c-0.35,0.11-0.69,0.59-0.69,0.84c-0.02,0.3,0.35,0.89,0.56,0.9c3.27,0.15,3.08-0.41,4.35-1.4
		C143.97,539.65,143.99,539.54,142.63,539.95z"/> <path d="M231.85,380.42c0.86-0.15,0.02-2.02-0.83-2.02c-0.13-0.03-0.26-0.06-0.38-0.09c-0.12,0.2-0.36,0.45-0.36,0.66
		C230.39,379.83,231.17,380.53,231.85,380.42z"/> <path d="M231.38,384.19c-0.04,0.22,0.6,0.77,1,1.17c0.63-0.63,0.84-0.41-0.38-1.66C231.7,383.39,231.43,383.97,231.38,384.19z"/> <path d="M154.17,539.92c-0.52,0.88-0.25,0.68,1.27,0.41C155.61,540.34,154.84,538.79,154.17,539.92z"/> <path d="M210.27,530.51c-0.17,0.32-0.39,0.71-0.59,1.11c-0.02,0.04,0.21,0.26,0.24,0.24c1.35-0.69,1.27-0.68,0.91-1.3
		C210.79,530.51,210.6,530.54,210.27,530.51z"/> <path d="M215.97,526.46c-1.11,0.65-0.89,0.51-0.48,1.17c0.25-0.32,0.49-0.61,0.7-0.91C216.21,526.69,215.99,526.45,215.97,526.46z"/> <path d="M150.66,540.31c0.33,0.28,0.1,0.3,0.95-0.01C151.3,540.02,151.42,539.98,150.66,540.31z"/> <path d="M219.83,523.32c0.18,0.21,0.18,0.38,0.51,0.04C220.04,523.02,220.15,523.07,219.83,523.32z"/> <path d="M592.71,392.51c16.39-4.49,13.57-3.61,15.31-5.85c-1.25,0-2.03-0.15-2.72,0.02c-8.45,2.1-11.99,2.88-14.59,5.04
		C591.14,392.59,591.9,392.74,592.71,392.51z"/> <path d="M585.92,392.21c-1.74-0.33-3.28-0.69-4.64,1.03C583.23,393.77,584.67,393.39,585.92,392.21z"/> <path d="M557.66,397.62c-2.07,0.11-2.07,0.11-2.68,1.51C556.14,399.32,557,399.01,557.66,397.62z"/> <path d="M577.07,393.97c-1.14-0.37-1.84-0.5-2.35,0.78C574.37,395.6,574.07,395.63,577.07,393.97z"/> <path d="M566.89,396.07c-0.56,0-0.41,0.12-0.66,0.46c0.11,0.05,0.27,0.16,0.31,0.13C567.34,395.95,567.04,396.07,566.89,396.07z"/> <path d="M567.18,395.98c-0.04,0.04-0.1,0.09-0.05,0.09C567.31,396.07,567.3,396.1,567.18,395.98z"/> <path d="M567.38,395.98c0.03-0.02,0.07-0.02,0.1-0.03C567.58,395.91,567.71,395.6,567.38,395.98z"/> <path d="M567.19,395.97l0.08,0.1C567.43,395.92,567.43,395.97,567.19,395.97z"/> <path d="M370.64,517.93c-25.05-1.81-18.18-2.74-24.87-2.8c4.25,4.53,28.62,5.77,32.17,4.15c0.3-0.14,0.48-0.56,0.82-1
		C375.98,517.47,373.29,518.12,370.64,517.93z"/> <path d="M386.63,443.59c-13.23,1.92-20.98-0.22-23.79,2.05c1.01,0.93,2.2,0.94,3.32,0.95c1.51,0.01,17.54,0.26,21.04-1.44
		c0.4-0.2,0.79-0.72,1.45-1.28C387.65,443.72,387.12,443.52,386.63,443.59z"/> <path d="M355.77,484.52c1.01,0.72,2.24-0.5,4.16-1.78c1.16,0.82,2.06,1.55,3.06,2.13c0.54,0.32,1.45-0.44,1.3-1.06
		c-0.35-1.39-0.79-2.76-1.23-4.35C356.63,480.13,354.36,483.52,355.77,484.52z"/> <path d="M330.04,515.79c0.23,0.43,0.32,0.82,0.48,0.86C339.61,518.87,343.56,514.86,330.04,515.79z"/> <path d="M357.11,445.49c0.07-0.03,0.01-0.55,0.01-0.7c-3.49-0.49-3.98-0.58-6.02,1.34C352.94,446.56,355.81,446.27,357.11,445.49z"/> <path d="M343.7,446.66c-2.41,1.02-2.57,1.23-3.08,2.98c2.5-0.59,3.43-1.04,5.93-2.94C345.56,445.81,344.63,446.27,343.7,446.66z"/> <path d="M334.95,452.66c-4.64-1.04-5.77,0.77-6.51,1.67c-0.13,0.16,0.16,0.66,0.28,1.11C334.18,453.05,334.03,453.84,334.95,452.66
		z"/> <path d="M375.67,483.93c2.27,0.5,4.22,0.65,6.38-0.11C379.7,483.37,377.97,483.27,375.67,483.93z"/> <path d="M315.41,513.03c0.2,0.44,0.02,0.97,1.78,0.47c0.14-0.04,0.18-0.44,0.27-0.69C316.65,512.43,317.23,512.29,315.41,513.03z"/> <path d="M328.48,515.73c-1.33,0.08-2.16,0.12-2.99,0.17C326.94,516.32,326.94,516.32,328.48,515.73z"/> <path d="M307.49,510.11l-0.08-0.32C307.22,510.14,307.19,510.05,307.49,510.11z"/> <path d="M320.77,459.45l-0.28,0.08C320.82,459.67,320.74,459.69,320.77,459.45z"/> <path d="M689.21,375.68c8.66,3.14,13.22,7.97,15.41,8.04c-0.41-3.93-9.34-8.46-13.28-9.75
		C687.72,372.77,686.96,374.86,689.21,375.68z"/> <path d="M767.02,454.04c0.47,0.09,1.08-0.49,2.05-0.98c-2.25-1.27-3.87-2.13-5.43-3.09c-1.57-0.96-2.39-2.92-4.38-3.48
		c-0.14,0.46-0.44,0.91-0.32,1.16C760.58,451.09,763.27,453.3,767.02,454.04z"/> <path d="M663.95,319.61c0.08,1.27,2.02,4.29,3.19,5.56C669.3,319.32,663.79,317.12,663.95,319.61z"/> <path d="M710.21,387.68c-1.64-1.77-2.28-2.58-2.68-2.53c-1,0.12-1.77,0.29-1.55,1.27C705.98,386.61,708.62,389.59,710.21,387.68z"/> <path d="M671.39,372.17c-2.26-0.48-3.54-0.91-5.09,0.09C668.25,373.86,668.76,373.55,671.39,372.17z"/> <path d="M758.56,443.19c-0.53-1.75-2.12-1.73-3.73-2.66C755.1,442.93,755.76,443.33,758.56,443.19z"/> <path d="M747.34,431.46c-2.49-1.99-2.49-1.99-4.43-1.88C744.19,431.07,744.19,431.07,747.34,431.46z"/> <path d="M715,392.64c1.56,0.03,0.33-2.38-0.89-1.69c-0.19,0.11-0.38,0.27-0.54,0.36C713.56,392.03,714.27,392.63,715,392.64z"/> <path d="M751.72,436.21c-0.28-1.28-1.32-1.5-2.24-1.87C749.18,435.78,749.18,435.86,751.72,436.21z"/> <path d="M719.87,396.6c0.29,0,0.65-0.3,1.09-0.52c-0.31-0.32-0.61-0.79-0.86-0.84c-0.38-0.07-1.16,0.16-1.08,0.6
		C719.09,396.18,719.49,396.6,719.87,396.6z"/> <path d="M667.24,331.57c0.65-0.54,0.4-1.06-0.21-1.64C666.21,331.27,667.05,331.73,667.24,331.57z"/> <path d="M726.1,402.63c-0.34,0.31-0.35,0.18-0.04,0.52C726.41,402.84,726.4,403,726.1,402.63z"/> <path d="M710.33,523.22c-1.26-0.6-13.27-2.97-13.78-2.6c-0.91,0.65-0.68,1.35-0.3,1.44c3.32,0.8,7.4,1.87,11.95,1.71
		C711.97,523.64,710.94,523.51,710.33,523.22z"/> <path d="M688.71,517.81c-0.57-1.49-2.55-1.75-4.23-1.28c-0.31,0.09-0.53,0.59-0.64,0.89c-0.23,0.66,1.41,1.28,2.08,1.5
		c3.39,1.15,0.32,3.41,6.39,3.66C692.1,520.68,689.61,520.17,688.71,517.81z"/> <path d="M675.69,555.6c1.83-0.95,3.01-2.12,3.86-4.18c0.24-0.49,0.02-0.94-0.04-1.67C676.95,551.88,676.07,552.85,675.69,555.6z"/> <path d="M678.28,540.97c-0.65,2.06,0.31,3.41,1.71,4.79c0.41-0.45,0.67-0.73,0.95-1.04C678.7,540.53,679.3,541.37,678.28,540.97z"/> <path d="M686.84,554.88c1.07,0.76,1.91,0.45,3.03-0.22c0.71-0.43,1.69-0.71,1.45-2.14C689.3,552.72,687.78,553.06,686.84,554.88z"/> <path d="M718.96,523c-0.37,0.06-0.61,0.49-1.02,0.9c0.94,0.7,0.19,0.75,2.62,0.37C720.54,522.95,719.72,522.88,718.96,523z"/> <path d="M693.54,550.94c0.09,0.09,0.2,0.26,0.28,0.26c1.77-0.26,1.47-0.12,1.15-1.22C693.31,550.7,693.65,550.5,693.54,550.94z"/> <path d="M725.88,523.38c0.99,0.66,1.84,0.8,2.69-0.03C727.77,522.64,726.95,522.56,725.88,523.38z"/> <path d="M91.82,450.15c0.14-0.15,1.05-1.11,1.2-1.26c-1.57-2.72-1.56-2.07-0.55-3.25c1.85-2.17,1.64-4.46-0.59-6.15
		c-1.73-1.32-1.83-0.79,0.92-4.5c-0.1-1.3-0.36-2.26-1.88-2.53c-1.49,2.79-2.39,4.52-2.61,4.77c-0.37,0.4-1.63,0.73-0.56-1.93
		c0.45-1.13,1.1-2.31,1.4-3.92c-2.32,1.2-2.35,3.09-2.87,4.63C84.05,442.52,88.15,449.17,91.82,450.15z"/> <path d="M91.54,466.62c-5.64,4.66-6.76,5-6.87,7.82c-0.12,2.9,0.98,11.84,3.04,10.82c0.1-2.39-1.98-4.5-1.13-7.34
		c2.05,2.34,1.98,5.54,4.33,7.67c0.94-2.17-0.22-3.52-1.05-6.01c0-1.85,5.6-1.95,0.5-8.56C92.86,468.03,93.27,468.06,91.54,466.62z"/> <path d="M127.27,446.99c-0.27,0.67-0.62,1.13-0.6,1.57c0.34,5.5-3.24,5.28-1.93,13.73c0.79,5.13,2.55,8.13,1.36,11.44
		c-0.09,0.24,0.56,0.79,0.98,1.33c0.5-0.71,0.94-1.07,1.01-1.5c0.25-1.67,1.44-24.19,0.02-25.85
		C127.94,447.5,127.61,447.31,127.27,446.99z"/> <path d="M133.16,450.11c-0.09,2.94,2.76,12.46-1.19,19.23c-0.18,0.31,0.1,0.9,0.24,1.85c1.3-1.44,2.66-2.35,3.15-3.6
		c2.74-7.06,1.55-9.55-1.12-16.67C134.11,450.56,133.53,450.38,133.16,450.11z"/> <path d="M81.22,463.22c-1.1-0.04-1.5,0.54-1.71,1.17c-2.13,6.33-2.94,16.59,0.09,23.33c0.54-2.22,0.02-3.75-0.08-4.94
		C78.71,473.69,82.33,466.57,81.22,463.22z"/> <path d="M80.3,431.19c-3.38,0.31-3.58,14.35,1.04,20.13c0.19,0.24,0.69,0.24,1.63,0.53C77.21,435.49,80.49,434.99,80.3,431.19z"/> <path d="M114,467.26c-1.37,3.08-3.2-0.3-4.64,1.22c4.7,4.84,8.11-2.87,4.45-6.2C111.53,464,112.35,465.35,114,467.26z"/> <path d="M95.73,445.24c0.72-1.72,0.53-3-0.03-4.62C94.23,443.2,93.88,443.74,95.73,445.24z"/> <path d="M114.51,455.19c-1.62-0.26-2.27,2.86,0.66,3.13C115.28,457.5,115.95,455.42,114.51,455.19z"/> <path d="M75.82,487.51c-1.69-0.37-1.89,0.49-2.19,0.87c1.84,0.55,1.84,0.55,3.33,0.16C76.69,487.89,76.28,487.61,75.82,487.51z"/> <path d="M90.42,451.28c-0.38-0.05-0.44,0.75-0.32,0.86c0.64,0.57,1.24,1.11,2.1,0.71c0.34-0.16,0.32-0.18,0.15-0.54
		C91.98,451.52,91.2,451.39,90.42,451.28z"/> <path d="M84.09,465.31c2.2-0.24,2.32-0.41,4.39-2.16C86.6,463.43,85.19,463.72,84.09,465.31z"/> <path d="M111.77,451.77c-1.67,0.32-1.65,0.34-2.7,1.53C110.37,453.43,111.2,452.8,111.77,451.77z"/> <path d="M113.43,452.32c0.69,0.46,1.05,1.66,2.38,0.58C115.13,452.28,114.73,451.3,113.43,452.32z"/> <path d="M110.2,462.54c0.29,0.21,0.13,0.35,0.71-0.45c0.12-0.17,0.24-0.34,0.33-0.53c0.05-0.11-0.17-0.62-0.55-0.56
		C110.16,461.03,109.24,461.84,110.2,462.54z"/> <path d="M61.13,429.02c0.73,0,1.3,0,2.04,0C62.37,428.1,61.85,428.14,61.13,429.02z"/> <path d="M55.01,429.22c0.24,1.18,1.56,1.28,1.5,0.97C56.34,429.24,54.91,429.12,55.01,429.22z"/> <path d="M52.21,431.23c0.71,0.83,0.71,0.83,1.69,0.66C53.42,431.34,52.99,430.86,52.21,431.23z"/> <path d="M93.95,477.22c0.64-0.92,0.68-0.3,0.19-2.36C93.47,477.08,93.58,476.42,93.95,477.22z"/> <path d="M93.86,461.83c-1.45,0-1.26-0.09-1.26,0.29C94.07,462.19,93.86,462.26,93.86,461.83z"/> <path d="M54.67,429.06c0.21,0.12,0.19,0.15,0.33,0.15C54.96,429.06,55.01,429.1,54.67,429.06z"/> <path d="M164.27,445.33c1.69,0.91,3.33,1.32,5.14,1.41C167.74,444.8,163.61,442.92,164.27,445.33z"/> <path d="M183.63,476.82c1.07-0.44,0.96-0.36,0.86-0.53c-0.11-0.2-0.22-0.45-0.33-0.44c-4.36,0.15-3.63,0.26-4.89,1.2
		C181.28,477.62,181.52,477.69,183.63,476.82z"/> <path d="M198.06,486.6c-1.11-0.6-1.43-0.2-2.32,1C197.23,489.26,199.28,487.26,198.06,486.6z"/> <path d="M190.45,488.67c-1.32-0.3-0.96-0.31-1.3,0.44c0.04,0,0.55,0.27,0.92,0.3C190.17,489.42,190.25,489.1,190.45,488.67z"/> <path d="M804.14,497.26c-0.46-1.51-4.37-2.34-4.02,3.08c1.51,23.96,1.71,25.99,3.73,25.76c1.66-0.18,1.19-3.52,1.19-14.07
		C805.14,512.03,805.13,500.54,804.14,497.26z"/> <path d="M809.87,498.84c-2.04,0.21-1.84,2.61-1.86,4.33c-0.12,14.47-0.1,19.56,2.28,19.51c3.2-0.06,2.87-16.35,2.74-19.53
		C812.97,501.38,812.12,498.61,809.87,498.84z"/> <path d="M816.82,504.3c-0.16,2.92-0.46,9.84-0.46,14.91c0,1.42,1.82,1.92,2.86,0.59c2.37-2.37,2.81-13.44,2.48-16.57
		C821.16,498.09,816.82,496.91,816.82,504.3z"/> <path d="M825.21,515.47c0.7,4.02,4.59,2.88,4.59-0.12c0.43-2.81,0.83-9.78-0.4-12.25C828.07,500.45,822.75,501.34,825.21,515.47z"/> <path d="M834.79,503.8c-0.69,0.81-0.96,2.86-1.35,4.37c0.17,0.87,0.89,4.56,1.21,5.84c0.24,0.96,1.5,1.55,1.85,1.2
		c0.49-0.25,1.18-0.7,1.35-1.22c0-0.15,1.42-3.95,0.53-8.36C837.87,503.11,835.74,502.68,834.79,503.8z"/> <path d="M274.05,518.6c-1.46-0.17-1.52,6.76,0.46,6.76c1.13,0,1.14-1.42,1.41-2.68C275.05,518.79,275.09,518.72,274.05,518.6z"/> <path d="M273.72,507.52c0.33-0.08,0.56-0.3,1.38-0.88c-0.64-0.49-0.99-0.78-1.34-1.05c-0.24,0.39-0.58,0.77-0.67,1.19
		C273.05,507.01,273.57,507.56,273.72,507.52z"/> <path d="M26.37,470.65c0.15-0.22,0.18-0.24,0.13-0.29c0.04,0.03,0.05,0.02,0.15-0.08c-0.07,0.02-0.13,0.02-0.22,0.01
		C26.41,470.43,26.39,470.56,26.37,470.65z"/> <path d="M26.33,470.72c0.01-0.02,0.02-0.04,0.04-0.07C26.32,470.72,26.3,470.76,26.33,470.72z"/> <path d="M26.37,470.65C26.35,470.75,26.35,470.78,26.37,470.65L26.37,470.65z"/> <path d="M27.3,469.71c-0.21,0.19-0.42,0.38-0.64,0.58C26.99,470.29,27.24,470.11,27.3,469.71z"/> <path d="M27.41,469.62c0.01,0,0.01-0.02,0.03-0.07c-0.03,0-0.07,0-0.1,0C27.34,469.68,27.24,469.78,27.41,469.62z"/> <path d="M36.78,469.72C36.67,469.74,36.63,469.75,36.78,469.72L36.78,469.72z"/> <path d="M36.83,469.69c-0.04,0.04-0.19,0.07,0.34-0.04C37.06,469.53,37.13,469.52,36.83,469.69z"/> <path d="M36.78,469.72C36.64,469.81,36.68,469.78,36.78,469.72L36.78,469.72z"/> <path d="M472.47,138.33c-0.35,0.6-0.4,1.02,0.44,1.65c5.22-3.86,10.12-8.09,15.62-11.56c14.55,2.09,12.5,1.7,14.21,0.4
		c-0.78-0.39-1.21-0.76-1.69-0.85c-8.79-1.64-10.26-1.96-13.84-0.55C480.07,130.24,473.45,136.66,472.47,138.33z"/> <path d="M473.43,106.5c-5.29-11.85-6.86-14.06-8.96-19.61c-4.48-11.85-7.98-22.99-10.92-30.76
		C452.36,62.42,469.45,105.3,473.43,106.5z"/> <path d="M473.44,106.5c0.04,0.09,0.05,0.12,0.07,0.13c0,0,0,0-0.01,0.01c0.15,0.22,0.29,0.44,0.43,0.67
		c-0.23-0.52-0.29-0.7-0.33-0.74c0,0,0.01-0.01,0.01-0.01C473.54,106.54,473.49,106.51,473.44,106.5z"/> <path d="M482.37,38.38c5.7,1.15,5.51,0.64,6.21,0.31c-0.45-0.36-0.67-0.62-0.84-0.66c-15.46-3.16-39.72-9.66-48.28-4.89
		C462.48,33.14,451.46,32.14,482.37,38.38z"/> <path d="M429.63,33.69c0.64-0.26,1.26-0.6,1.89-0.89c-4.22-1.86-24.59,7.76-24.48,8.43C407.33,43.14,408.36,42.46,429.63,33.69z"/> <path d="M478.05,113.92c2.57,4.22,6.21,7.73,10.42,10.5c0.97,0.64,2.09-0.25,1.67-0.67c-12.8-12.76-10.62-10.58-12.17-11.77
		C477.85,112.32,477.39,112.85,478.05,113.92z"/> <path d="M460.67,98.28c0.86,0.32,0.64,0.17,0.25-0.52C445.01,69.76,454.9,92.49,460.67,98.28z"/> <path d="M501.83,40.65c-0.77,0-1.19,0.44-1.41,1.18c7.35,1.97,9.8,2.65,10.07,2.65C512.45,44.26,510.68,41.75,501.83,40.65z"/> <path d="M480.74,123.96c-1.15-0.19-2.41-0.3-3.58-0.18c-7.12,0.72-11.72,1.1-5.33,1.31C474.84,125.19,477.79,124.62,480.74,123.96z
		"/> <path d="M451.5,125.96c2.6,0.24,5.03,0.52,7.21-0.65c-1.12-0.63-2.3-0.95-3.84-0.91C451.94,124.48,452.44,124.78,451.5,125.96z"/> <path d="M469.19,140.14c-1.66,1.51-1.99,2.24-2.16,4.71c1.71-1.45,3.13-2.77,4.05-4.73C469.99,139.78,469.9,139.49,469.19,140.14z"/> <path d="M478.07,128.98c1.88-0.69,1.88-0.76,2.88-1.82c-3.05,0.28-3.79,0.55-6.25,2.63C475.81,130.29,476.65,129.69,478.07,128.98z
		"/> <path d="M463.48,149.58c-1.36-0.02-1.27,0.72-0.85,2.15c0.95-0.26,1.32-0.92,1.4-1.75C464.08,149.59,464.19,149.59,463.48,149.58z"/> <path d="M423.18,126.37c-0.78,0.45-1.21,0.34,3.49,0.34C425.32,125.96,424.43,125.65,423.18,126.37z"/> <path d="M459.5,159.87c0.97-0.68,0.95-0.42,0.41-1.18C458.95,159.54,459.06,159.21,459.5,159.87z"/> <path d="M437.66,126.69c0.82-0.1,1.35-0.03,0.21-0.45c-0.41-0.21-1.13-0.11-1.13,0.1C436.06,127.02,436.69,126.82,437.66,126.69z"/> <path d="M436.43,126.83c-0.14,0-0.14-0.02-0.23,0.26C436.44,126.9,436.36,126.95,436.43,126.83z"/> <path d="M461.37,98.56c0.13,0.24,0.1,0.26,0.09-0.09C461.23,98.37,461.31,98.45,461.37,98.56z"/> <path d="M237.25,16.5c-0.79-2.38-2.71-3.22-9.16-6.63c-0.25-0.13-0.72,0.13-1.43,0.29c0.56,0.65,0.88,1.22,1.36,1.53
		c1.66,1.07,4.56,2.63,5.72,3.46c2.27,1.63,1.74,2.44,2.01,2.44C236.49,17.49,237.38,17.23,237.25,16.5z"/> <path d="M205.52,51.43c0.68,0.14,1.31-0.15,1.52-0.94c-2.1-0.94-4.63-1.73-6.88-1.3C201.5,51.25,203.65,51.05,205.52,51.43z"/> <path d="M205.81,180.5c-2.35,0.41-3.69,0.88-4.48,3.09c-0.23,0.64,0.38,1,1.07,1.03C203.82,183.39,205.02,182.45,205.81,180.5z"/> <path d="M151.92,180.64c-0.64-0.35-1.04-0.75-1.5-0.82C145.12,179.01,146.39,184.25,151.92,180.64z"/> <path d="M212.34,174.47c-3.32,0.99-3.52,1.25-4.93,3.98C209.78,177.35,211.27,176.38,212.34,174.47z"/> <path d="M235.66,17.62c0.06,0.08,0.12,0.18,0.12,0.08C235.71,17.49,235.76,17.68,235.66,17.62z"/> <path d="M237.54,20.09c-2.13-2.81-1.59-2.67-2.48-1.09C236.19,20.43,236.19,20.43,237.54,20.09z"/> <path d="M160.02,179.68c-0.21-0.04-0.54,0.06-0.67,0.22c-0.08,0.12,0.07,0.62,0.14,0.62c0.29,0,0.61-0.1,0.98-0.18
		C160.26,180.03,160.17,179.71,160.02,179.68z"/> <path d="M215.95,170.92c-0.91-0.57-1.8,0.88-0.88,1.19C215.44,172.26,216.53,171.24,215.95,170.92z"/> <path d="M220.9,166.35c-1.1,1.43-1,1.11-0.41,1.59C221.35,166.35,221.25,166.67,220.9,166.35z"/> <path d="M237.43,25.02c0.19-0.67-0.05-1.06-0.4-1.2C236.58,23.65,235.93,24.77,237.43,25.02z"/> <path d="M237.73,25.16c-0.05-0.02-0.23-0.13-0.28-0.13C237.4,25.15,237.4,25.13,237.73,25.16z"/> <path d="M155.83,180.48c0.07,0.3-0.04,0.24,0.42,0.32C156.14,180.24,156.22,180.3,155.83,180.48z"/> <path d="M224.98,163.9c0.09-0.08,0.18-0.16,0.28-0.23C224.97,163.33,225.01,163.27,224.98,163.9z"/> <path d="M383.64,158.83c-1.19-2.76-6.69,1.44-29.92-3.39c-0.9-0.19-1.83-0.11-3.29-0.19C354.87,159.52,377.28,161.51,383.64,158.83
		z"/> <path d="M377.58,86.61c4.87-0.02,11.57,0.2,15.77-2.09c-0.93-2.17-1.35,0.14-17.9,0.14c-7.44,0-7.55,0.28-7.5,1.43
		C370.43,86.6,368.09,86.66,377.58,86.61z"/> <path d="M361.53,124.9c1.43-0.17,2.17-1.73,3.67-1.98c1.12,0.48,1.71,2.79,3.9,1.83c0.4-1.86-0.68-3.39-1.18-5.1
		C361.67,119.37,358.4,125.26,361.53,124.9z"/> <path d="M343.33,157.12c0.67-0.08,0.41-0.18,1.26-0.96c-4.5-0.44-9.29-0.46-14.76,0.11C340.15,157.51,338.89,157.67,343.33,157.12z
		"/> <path d="M340.37,92.28c-3.06,0.27-8.25,0.24-6.62,3.12C339.6,93.25,339.44,93.57,340.37,92.28z"/> <path d="M345.66,89.91c2.26-0.64,4.21-1.41,5.97-3.06C348.57,86.23,346.54,87.26,345.66,89.91z"/> <path d="M362.22,85.3c-2.66-1.14-4.36-0.8-6.12,0.9C359.06,86.76,360.44,86.54,362.22,85.3z"/> <path d="M380.4,124.27c2.77,0.32,4.69,0.33,6.63-0.22C385.11,123.67,383.16,123.31,380.4,124.27z"/> <path d="M320.48,153.39c0.19,0.47,0.17,0.45,2.07,0.08c0.06-0.01,0.07-0.23,0.11-0.35C321.68,152.39,320.48,152.51,320.48,153.39z"/> <path d="M325.87,99.77c-0.43-0.12-0.33-0.1-0.45,0.12C325.84,100.01,325.77,100,325.87,99.77z"/> <path d="M312.38,149.91c-0.05,0-0.2-0.02-0.24-0.02C312.26,150.18,312.19,150.19,312.38,149.91z"/> <path d="M306.19,140.74c0.34,0.17,0.27,0.15,0.08-0.08C306.04,140.5,306.06,140.47,306.19,140.74z"/> <path d="M804.26,127.92c1.56,1.03,3.44-1.81,3.75-2.72c2.79-8.09,2.82-17.06,1.54-25.45c-1.12-7.37-5.69-5.27-6.01-2.5
		c-0.23,1.99,1.4,10.25,1.44,21.53C805.02,125.45,802.19,126.56,804.26,127.92z"/> <path d="M812.25,124.25c1.28,1.35,1.54,1.5,2.27,1.39c1.69-0.42,2.91-1.06,3.65-3.02c2.32-6.1,1.57-17.48,0.37-24.31
		c-0.81-4.61-5.12-3.21-5.01-0.75c0.21,4.84,4.2,21.58,0.54,25.09C813.62,123.1,813.03,123.61,812.25,124.25z"/> <path d="M828.32,118.47c0.39-1.93,0.41-0.94,0.8-13.8c0.19-6.43-5.04-6.62-5.39-3.25c-0.19,1.84,0.19-0.15,0.19,19.69
		C823.92,123.67,826.44,125.56,828.32,118.47z"/> <path d="M833.4,117.65c4.8,0.75,6.59-19.82,0.95-16.9c-1.25,0.65-1.07,1.52-1.12,5.02c-0.14,10.92-1.08,8.05-0.94,10.37
		C832.35,117.16,832.92,117.65,833.4,117.65z"/> <path d="M663.75,125.12c6.22,2.88,6.7,5.95,9.35,6.53c-0.32-3.39-2.01-5.9-4.65-7.71c-2.34-1.61-13.96-6.08-14.63-3.86
		C653.27,121.93,658.95,122.9,663.75,125.12z"/> <path d="M845.81,112.34c2.8-6.32-1.36-11.2-3.36-10.06c-1.08,0.62-1.13,1,0.82,9.89C843.46,113.04,845.37,113.34,845.81,112.34z"/> <path d="M691.12,114.34c-3.34-0.64-6.27,0.9-9.37,1.34c-0.13,0.02-0.2,0.38-0.3,0.6C682.44,118.62,689.12,115.93,691.12,114.34z"/> <path d="M673.32,133.83c2.84,1.61,3,3.07,5.61,4.14c-0.84-1.89-1.95-5.36-4.33-5.95c-0.07,0-1.31-0.2-1.41-0.22
		C673.05,131.79,672.29,133.24,673.32,133.83z"/> <path d="M673.23,131.7c-0.13-0.03-0.13-0.07-0.09,0.08C673.27,131.68,673.18,131.75,673.23,131.7z"/> <path d="M775.41,105.21c7.44-1.6,0.17-4.51-3.29-0.49C774,105.47,774.01,105.51,775.41,105.21z"/> <path d="M706.42,145.03c-2.63-0.2-3.96,0.36-5.63,2.55C703.2,147.69,704.91,146.85,706.42,145.03z"/> <path d="M672.85,155.63c2.52-0.16,4.14-0.96,4.66-3.41C675.12,152.99,674.07,153.51,672.85,155.63z"/> <path d="M766.92,105.61c-0.84-0.72-1.56-0.7-2.19-0.02C763.3,107.11,766.33,108.44,766.92,105.61z"/> <path d="M714.13,138.6c-1.36-0.42-2.24-0.09-2.94,1.01C712.43,140.03,713.41,139.99,714.13,138.6z"/> <path d="M699.99,114.28c-1.57,0-1.33-0.09-1.33,0.29C700.24,114.57,699.99,114.66,699.99,114.28z"/> <path d="M707.58,113.26c0.01-0.1-0.16-0.2-0.35-0.33c-0.27-0.18-0.07-0.3-0.74,0.7C706.67,113.67,707.5,114.06,707.58,113.26z"/> <path d="M720.53,137.04c-0.63-0.43-0.35-0.43-0.94,0.01C720.49,137.35,720.19,137.32,720.53,137.04z"/> <path d="M700.26,160.97c0.74,0.77,1.02,1.31,1.4,1.4c2.58,0.62,12.29,2.53,13.84,1.08c-3.91-1.75-8.07-1.77-12.03-2.58
		C702.54,160.68,701.86,160.9,700.26,160.97z"/> <path d="M680.72,194.05c-0.14,0.23-0.12,0.44-0.12,1.5c2.61-1.28,2.89-1.53,4.5-5.41C682.96,190.75,681.97,191.94,680.72,194.05z"/> <path d="M695.94,192.66c-3.09,0.84-3.06,0.85-4.12,2.62c0.43,0.06,0.76,0.2,0.87,0.2C693.25,195.62,697.79,193.83,695.94,192.66z"/> <path d="M685.03,185.89c1.23-1.37,1.4-0.23-1.28-4.9C682.7,182.9,682.91,183.23,685.03,185.89z"/> <path d="M725.65,163.39c-0.99,0-1.82,0-2.8,0C724.05,165.3,724.55,165.12,725.65,163.39z"/> <path d="M730.87,163.91c0.92,0,1.74,0,2.85,0C732.03,162.68,732.03,162.68,730.87,163.91z"/> <path d="M698.8,191.43c0.68,0.26,1.34,0.01,1.49-0.64C700.3,188.96,697.59,190.96,698.8,191.43z"/> <path d="M97.37,80.03c-2.2-2.29-2.62-0.52,0.63-5.28c-0.44-0.8-0.88-1.56-1.4-2.52c-2.9,2.74-2.88,6.77-4.43,5.08
		c1.67-4.5,2.34-5.29,1.11-5.23c-0.85,0.05-2.14,4.78-2.23,5.11c-1.21,4.57,0.44,8.39,3.43,11.76c0.56,0.63,1.51,0.91,2.1,1.24
		c1.25-0.51,1.48-1.16,1.05-2.05c-1.06-2.17-1.3-1.25,1.22-3.81c0.67,0.41,1.2,0.75,1.87,1.17c0.6-1.62,0.71-2.95-0.04-4.47
		C97.67,84.46,99.84,82.6,97.37,80.03z"/> <path d="M96.51,106.8c-1.77,1.45-3.5,2.87-5.23,4.31c-3.18,2.65-1.3,10.31,0.44,14.04c0.11,0.23,0.51,0.34,0.99,0.64
		c0.02-2.85-2.04-5.13-1.22-8.2c1.81,2.49,3.15,8.31,4.35,7.89c1.74-0.62-0.87-4.66-0.95-6.21c4.84-3.78,1.99-5.68,0.48-8.17
		C97.8,108.21,98.42,108.07,96.51,106.8z"/> <path d="M130.82,93.23c-3.83,7.55,2.1,15.78,0.18,20.72c2.65,3.01,2.28-3.48,2.38-7.14c0.42-14.99,1.03-16.68-0.55-19.4
		C130.58,87.75,132.5,89.93,130.82,93.23z"/> <path d="M137.23,90.57c2.18,3.85,2.71,14.31-0.14,18.74c-0.29,0.45-0.22,1.04,0.54,1.35c1.15-1.16,2.73-2.04,3.17-3.83
		c1.89-7.7,1.26-7.78-1.23-15.21C138.95,89.75,138.34,90.36,137.23,90.57z"/> <path d="M86.44,103.51c-3.69-4.59-5.56,25.59-1.35,23.48c-0.12-0.98-0.18-2.04-0.4-3.06C83.08,116.53,87.6,104.95,86.44,103.51z"/> <path d="M85.17,71.39c-5.18,0.72-0.62,23.93,2.59,19.93c-4.01-11.41-1.75-6.48-3.12-13.42C84.21,75.7,85.53,73.62,85.17,71.39z"/> <path d="M119.02,107.47c-0.87,2.83-3.56-0.4-4.62,1.34c5.88,4.34,7.54-3.54,4.62-6.38C116.85,104.38,116.85,104.61,119.02,107.47z"/> <path d="M118.15,96.83c0.19,1.09,1,1.74,2.05,1.47c0.08-0.82,0.17-1.7,0.3-3.01C118.94,95.6,118.04,95.77,118.15,96.83z"/> <path d="M78.31,128.35c1.4,1,2.53,1.02,3.64,0.54C80.81,127.34,80.82,127.32,78.31,128.35z"/> <path d="M93.45,103.77c-1.49-0.49-2.44-0.02-3.76,0.82c-0.34,0.21-0.67,0.63,0.05,1.26C90.84,105.24,92,104.59,93.45,103.77z"/> <path d="M116.81,91.57c-1.25,0.29-2.15,0.67-2.68,1.66C115.85,93.05,115.85,93.05,116.81,91.57z"/> <path d="M98.75,118.03c1.09-1.49,0.98-0.75,0.85-2.97C98.4,116.56,98.59,115.73,98.75,118.03z"/> <path d="M59.28,69.43c1.15,0.77,1.79,1.29,2.45,0.77C60.79,69.41,60.12,68.75,59.28,69.43z"/> <path d="M97.42,92.65c-0.65-0.99-1.35-1.55-2.56-0.93C95.5,92.87,96.28,93.29,97.42,92.65z"/> <path d="M56.55,71.37c2.55,1.54,1.92,1.52,2.77,0.54C58.06,71.21,58.75,71.37,56.55,71.37z"/> <path d="M119.47,91.96c-0.34,0.36-1.06,0.73-0.03,1.35c0.99,0.6,1.19-0.33,1.07-0.45C120.31,92.63,119.71,92.15,119.47,91.96z"/> <path d="M114.72,102.24c0.92,0.58,0.71,0.68,1.15-0.08c0.29-0.5,0.52-0.6-0.11-0.89C115.62,101.19,115.69,101.18,114.72,102.24z"/> <path d="M98.78,102.06c-1.46,0-1.23-0.09-1.23,0.29C99.01,102.35,98.78,102.45,98.78,102.06z"/> <path d="M66.63,68.94c1.14,0.59,0.71,0.51,1.43-0.09C66.47,68.64,67.04,68.64,66.63,68.94z"/> <path d="M189.48,116.37c-3.31-0.78-3.81-0.64-5.01,1.23C186.39,118.02,187.96,117.37,189.48,116.37z"/> <path d="M170.01,84.41c-0.62-0.1-0.35-0.07-1.02,0.87c2.87,1.58,4.71,1.3,4.55,1.14C172.82,84.91,171.43,84.64,170.01,84.41z"/> <path d="M173.56,86.45c0.04,0.11,0.1,0.07,0.38,0.17C173.66,86.42,173.7,86.42,173.56,86.45z"/> <path d="M201.65,128.34c2.84,0.49,1.84-3.34-0.37-1.64C200.49,127.3,200.82,128.19,201.65,128.34z"/> <path d="M195.46,128.9c-1.07-0.38-0.91-0.5-1.34,0.22C195.08,129.74,194.94,129.84,195.46,128.9z"/> <path d="M807.18,136.09c-1.78,0.31-2.15,2.46-2.07,4.27c0.12,2.83,0.77,25.66,3.44,25.95c2,0.22,1.77-3.84,1.77-14.71
		C809.29,151.35,811.59,135.6,807.18,136.09z"/> <path d="M813.13,140.69c-0.2,0.94-0.21,0.44,0.15,16.87c0.16,7.26,3.41,6.1,3.83,2.78c0.64-5.02,1.5-10.69,0.97-16.83
		C817.55,137.39,813.58,138.54,813.13,140.69z"/> <path d="M821.82,143.49c-0.12,4.94,0.25,9.9-0.53,14.83c-0.58,3.6,5.98,6.71,5.41-14.94C826.55,137.98,821.97,137.43,821.82,143.49
		z"/> <path d="M832.68,142.14c-1.98,0-2.72,2.55-2.76,3.86c-0.24,7.68,0.04,9.17,0.93,11.15c0.64,1.43,2.43,1.51,3.23,0.17
		C835.74,154.52,836.24,142.14,832.68,142.14z"/> <path d="M838.67,148.66c-0.02,2.16,0.5,6.58,2.64,6.54c2.3-0.04,2.57-6.52,2.25-8.11C842.36,141.02,838.73,142.35,838.67,148.66z"/> <path d="M278.78,165.22c0.09,0.23,0.73,0.4,1.04,0.31c1.84-0.49,1.12-4.83-0.26-7.12C277.14,159.74,277.74,162.68,278.78,165.22z"/> <path d="M279.09,148.11c0.22-0.68,0.49-1.11,0.47-1.53c-0.04-1.34-2.25-0.88-1.46,0.64C278.24,147.48,278.6,147.68,279.09,148.11z"/> </g> </svg> 