<?xml version="1.0" encoding="utf-8"?> <!-- Generator: Adobe Illustrator 23.0.1, SVG Export Plug-In . SVG Version: 6.00 Build 0)  --> <svg version="1.2" baseProfile="tiny" id="Layer_1" xmlns="http://www.w3.org/2000/svg" xmlns:xlink="http://www.w3.org/1999/xlink" x="0px" y="0px" viewBox="0 0 900 600" xml:space="preserve"> <g> <path d="M618.74,23.6l-0.1-0.1C618.6,23.62,618.54,23.56,618.74,23.6z"/> <path d="M678.05,14.14l0.1,0.1C678.16,14.2,678.09,14.17,678.05,14.14z"/> <path d="M646.51,7.02l-0.1-0.1C646.23,7.02,646.2,7.02,646.51,7.02z"/> <path d="M636.95,32.45c-0.17,0-0.25-0.09-0.1,0.1L636.95,32.45z"/> <path d="M607.04,33.67l-0.1-0.1C606.9,34,606.83,34,607.04,33.67z"/> <path d="M635,38.98c0.43,0.78,1.08,1.18,2.06,1.1c-0.48-0.86-1.24-1.26-2.18-1.3c0.12,0.28,0.15,0.14,0,0.19
		C634.91,39.09,634.9,39.09,635,38.98z"/> <path d="M709.69,571.58c-7.79,0-7.77-1.83-9.97-1.83c-6.73-0.8-10.37-3.51-12.51-4.58c-5.01-1.11-3.53-3.94-13.43-13.84
		c0.56-7.25,20.75-198.79,20.76-198.9c0.43-5.12,2.15-5.29,5.09-17.09c5.56-22.34,5.86-17.94,6.41-21.37
		c0.77-4.82-1.57-2.8,3.76-7.12c1.84-1.5,6.1-6.51,4.58-9.67c-2.49-5.19-3.01-6.31-8.04-13.02c-2.18-2.91-5.32-10.11-5.09-10.78
		c0.56-1.63,0.42-0.36-5.6-18.01c4.21-4.7,2.97-22.83,3.26-29.5c0.17-4.11,0.64-4.77,1.02-14.65c0.43-11.36-0.85-10.7-0.41-18.52
		c0.25-4.38,0.6-4.03-4.68-21.26c-1.85-6.03-0.27-3.76,4.58-10.17c5.87-7.76,4.37-11.99,4.37-15.26
		c-1.35-10.45-5.87-13.12-12.92-19.03c-9.78-8.19-10.94-8.08-11.5-10.38c-1.13-4.71-16.35-12.54-16.48-21.47
		c-0.05-3.56,0.41-7.12-0.41-10.58c-0.2-0.61,0.02-1.42,0.2-2.14c2.08-7.95,1.9-6.46,2.95-8.04c2.87,1.26,3.59,2.2,13.33,2.03
		c1.22-0.02,2.35-0.59,3.46-1.02c1.85-0.7,1.53-1.94,1.53-7.12c1.73-1.53,2.34-3.36,1.02-5.49c0.71-0.81,1.32-1.53,1.83-2.03
		c0.41-1.73-0.81-3.26,0.51-4.58c10.17-2.54,3.34-3.63,0.2-14.65c-1.44-5.07,2.54-5.86,0.81-11.29c-0.26-0.81,0.07-4.37-2.24-11.09
		c-1.83-5.35-2.25-7.07-4.17-8.85c-9.11-8.45-10.94-7.24-13.43-8.55c-2.98-1.57-6.1-1.94-9.46-1.63c-5.49,0.5-10.89,0.8-16.28,2.14
		c-5.44,1.35-13.99,6.37-17.5,12.51c-0.81-0.2-1.63-0.2-2.14-0.51c-2.26-1.39-4.68-2.12-7.22-2.54
		c-16.03-2.64-12.64,19.53-15.26,41.1c-1.06,8.73,1.32,15.44,5.49,24.62c2.7,5.93,0.15,7.62,1.22,9.77c2.5-3.75,0.91-0.95,0.33,4.11
		c-0.01-0.01-0.01-0.03-0.02-0.04c0,0.1-0.1,0.2-0.1,0.2c0.11,0.11,0.11,0.16,0.11-0.05c0.97-0.41,1.81-1.01,2.12-2.08
		c0.95-3.28,2.43-6.41,3.05-9.77c1.95-10.54-1.15-20.11-0.41-26.96c1.37-12.62,1.63-16,3.36-19.33c1.18-2.94-1.94-0.27,2.81-9.69
		c-1.38-0.18-1.6-0.14-2.1,1.04c-2.9,6.85-4.4,10.39-6.61,21.16c-1.92,9.35-3.79,16.18-2.34,21.98c0.48,1.94,0.2,4.07-0.2,6.1
		c-4.24-16.97,0.99-18.12-2.34-20.65c0-2.41-0.14-0.04,1.89-19.3c-0.99,1.67,0.02,0.24-2.71,10.55c-0.41-2.24-0.49-3.66-0.1-5.09
		c3.69-13.42,1.71-22.8,8.65-24.72c4.23-1.17,16.22,3.14,7.12,1.12c-0.1,0.61-0.1,1.02-0.1,1.32c-2.14,0.51-2.14,0.51-3.46,1.73
		c2.14-0.31,4.07-0.1,5.9,0.61c0.41,0.1,0.92-0.1,1.42-0.1c4.4-8.51,17.81-9.13,22.65-12.32c-2.86-0.09-8.25,2.23-15.59,4.12
		c2.47-2.7,9.61-6.6,14.92-7.16c2.07-0.22,23.38-5.35,25.84,0.81c0.41,1.02,1.93,1.22,2.54,2.75c-4.88-2.34-9.36-4.58-14.24-3.26
		c8.75,1,18.6,7.4,18.42,9.94c4.24,2.7,5.77-0.71,7.73,13.36c0.97,6.95,1.02,6.53,0.71,7.02c-3.47,5.41,1.53,12.27,4.99,17.7
		c-2.85,1.53-5.8,1.22-8.85,1.83c0.92,0.81,1.73,1.42,2.54,2.03c0.5,3.01,0.73,3.99-2.34,4.37c-3.67,0.82-2.18-0.36-4.07,1.53
		c3.52,0.78,1.93,0.2,3.76-0.1c1.76-0.39,2.35,2.33,0.61,4.07c-2.49,2.49,0.31,3.36-1.93,7.83c-10.36,1.15-12.27-2.09-18.01-1.02
		c-3.53,7.05-1.93,11.09-1.93,25.13c2.44,1.93,3.66,4.68,5.19,7.12c0,3.22-16.48-15.89-37.44-11.7c-0.31,0.1-0.61,0.51-1.32,1.12
		c8.16,0.82,15.04-1.57,24.82,5.09c31.21,21.24,41.68,33.95,42.63,34.49c4.15,3.02,5.15,13.4,5.49,16.89c0.18,1.8-0.69,3.2-2.75,5
		c0-2.44,1.21-2.81,0.51-7.03c-0.1-0.41-0.51-0.81-1.12-1.73c0,7.1-1.35,8.58-7.63,15.57c-0.63,0.7-1.63,1.02-2.44,1.53
		c0.61,1.02,2.24,0.1,2.44,1.32c0.49,1.94,2.34,0.27,2.34,4.99c0,4.54,4.66,1.6-20.45,5.19c-0.2-0.61-0.51-1.12-0.41-1.53
		c1.53-4.86,0.5-9.14-3.05-24.42c4.05-4.3,3.7-17.28,2.75-22.99c-2.45-14.69-7.54-20.19-20.45-26.15
		c-4.65-2.15-8.37-4.98-13.63-4.37c-0.51,0.1-0.92,0.31-0.92,1.02c1.42,1.22,3.26,1.39,4.99,1.83c2.56,0.66,4.88,2.14,7.63,2.14
		c9.47,6.03,10.78,6.4,12.11,8.14c7.44,9.72,9.32,21.01,8.44,33.17c-0.26,3.64-0.98,3.96-1.73,5.09
		c-4.58-21.57-3.8-20.46-5.39-20.86c-0.2,0-0.71,0.41-0.71,0.71c-0.23,2.94-0.33,0.87,5.29,31.54c2.53,13.8,2.28,23.04,9.87,35.1
		c4.7,7.47,5.56,14.95,7.33,24.72c0.79,4.37,1.18,2.33,2.24,6.82c1.94,8.19,10.66,46.9,13.53,51.99c5.91,10.49,5.9,10.79,7.12,11.39
		c0.94,0.31,0.73,2.45,4.37,6.21c3.43,3.55-0.71,8.39-4.58,11.29c-0.31,0.2-0.61,0.71-1.12,0.2c2.13-2.99,1.37-2.18,1.63-3.46
		c-1.62,0.5-1.62,0.5-2.64,1.52c0-1.32-0.1-2.75,0-4.07c-1.43,0-1.53,2.24-2.65,4.48c-0.97,1.94-0.44,0.11-3.76,7.02
		c-0.36,0.74-1.11,0.38-2.34,0.2c0.11-2.7,3.76-7.58,3.76-13.74c-1.97,2.51-0.18,1.57-5.9,13.53c-4.89,0-3.65,0.26-5.09-0.81
		c0.36-2.55,3.9-3.13,3.66-6.71c0-1.42,0.31-2.65,0.92-3.56c-3.61-6.16-6.97-10.57-6.51-17.6c6.51-4.8-4.2-13.79-16.08-37.14
		c-2.58-5.08-0.95-4.85-2.95-8.14c-3.96-6.53-7.81-11.93-10.78-18.21c-2.52-5.33-1.59-5.97-2.14-10.99
		c-1.34-12.45-0.11-8.59-1.22-11.5c-1.52-3.99-2.97-5.39-1.73-7.12c1.28-1.28-3.7-6.25-18.11-36.83c-5.5-11.66-3.27-13.06-5.8-13.84
		c-1-0.25-1.53-4.49-3.36-8.14c-0.51,0.61-0.92,1.02-0.92,1.32c1.01,8.05,9.87,25.69,10.78,28.88c-2.39-0.15-7-1.71-8.34-4.77
		c-6.45-14.67-6.8-23.39-6.92-30.73c-0.26-15.91,8.97-21.23,10.07-25.64c-1.27-0.56-1.22-0.2-6.41,4.99c0,0.58-0.11,1.05-0.71,1.27
		c-0.01-0.56-0.04-1.1,0.61-1.37c0-2.48,4.57-11.25,5.7-13.43c0.81-1.57,1.24,0.38,2.75-1.93c5.27-8.08,4.19-15.04,4.07-26.66
		c-0.05-5.19-1.32-3.46-2.24-5.29c-4.42-6.78-5.77-8.72-6.31-10.17c-3.17-8.5-2.07-16.06-2.75-17.91c-0.74-2.02-0.2-3.87,0-5.8
		c0-0.31,0.41-0.51,0.61-0.81c2.42,1.45-1.1,7.75,9.77,15.16c0.17,0.17,0.57,0.12,0.88,0.11c-0.03-0.07-0.06-0.13-0.09-0.2
		c0.18,0,0.08,0.06,0.04-0.11l-0.06,0.06c-0.7-1.48-2.25-2.2-3.09-3.52c-2.93-3.91,4.03,1.97,5.49,0.51
		c-6.82-4.78-7.12-5.09-8.44-7.83c6.13,3.83,6.56,4.38,8.06,4.56c-1.36-2.01-7.05-4.65-11.82-9.34c-0.41-0.4-1.22-0.61-1.93-0.92
		c-1.22,1.73-1.24,3.56-1.42,5.39c-0.67,6.55-1.25,6.29-4.58,14.85c-1.48,4.93-3.02,4.43-2.75,10.07c0.18,3.77-0.31,7.63,0.81,11.29
		c0.02,0.1,0.7,17.97-3.05,29.1c1.84-1.38,5.19-8.54,5.19-16.48c0-16.06-1.74-24.93,2.34-35.51c0.2-0.51,0.31-1.22,1.12-1.12
		c0.81,5.6,1.89,8,5.19,12.72c4.45,6.36,1.62,3.17,6.41,9.16c0,26.4-1.97,20.97-8.85,35.2c-15.69,32.43-3,50.12,0,60.64
		c3.39,11.87,6.59,14.02,8.55,22.89c0.2,0.92,0.61,1.73,0.92,2.54c0.92,0.31,1.53,0.51,2.24,0.71c8.92,17.22,9.25,16.71,9.87,20.35
		c2.39,14.13-1.08,25.01,0.2,28.28c0.91,3.62-12.57,23.49-14.96,26.35c-6.06,7.28-4.79,23.33-5.29,29
		c-0.71,8.01,6.88,20.35,12.82,25.74c0.64,5.64-1.3,14.03-1.63,20.04c-1.51,27.69,1.28,51.83-0.31,53.62
		c-2.39,2.7-0.64,12.79-3.26,19.53c-0.1,0.41-0.1,0.71-0.1,1.12c-1.67,19.22-1.24,16.56-5.9,26.45c-0.27,0.27-4.68,8.4-5.09,15.87
		c0,0.45-2.23,7.06-0.31,20.76c0.69,4.92,4.73,23.49,6.21,44.77c0.43,6.22,1.95,4.74,1.63,11.09c-0.59,11.74,0.5,14.29,0.92,25.84
		c-5.22,3.87-4.08,5.73-5.6,24.42c-1.83,4.27-1.22,8.85-2.24,13.23c-0.99,2.96,12.91,8.84,16.99,7.12c3.9-1.65,4.93,1.42,16.99-1.32
		c2.43-0.55,5.25-0.03,7.73,0.41c0.1,0.1,1.64,3.23,4.58,2.03c3.46-1.41,16.44,5.13,28.89-1.02c5.79-2.86,9.14-0.28,16.69-6
		c1.22-0.61,1.53-3.96-2.75-1.53c-7.72,4.39-7.99,1.48-15.87,5.09c-7.86,3.6-16.66,1.68-26.15,0.1c-0.2-3.66,0.81-14.35,2.34-24.52
		c5.38-4.04,5.02-6.36,7.94-8.85c1.22,0.61,1.93,1.42,2.34,2.65c-2.59,1.24-6.06,4.49-6.82,7.33c-0.4,1.49,1.46,3.02,2.75,2.14
		c7.99-5.46,2.72-11.25,9.46-3.76c-2.11,3.7-2.4,3.67-2.75,6.1c0,2.06,1.98,2.08,2.75,1.32c1.7-1.7,2.29-4.25,3.56-4.78
		c0.2,0.31,0.71,0.71,0.71,1.02c0.1,0.92-0.2,1.73-0.2,2.54c0,0.39,1.16,1.48,1.93,0.71c2.15-2.58-1.69-2.58,19.23,2.03
		c0.55,2.56,0.71,4.5,1.83,7.73c0.27,0.77,2.23,1.01,2.23-1.42C716.13,578.77,715.96,571.58,709.69,571.58z M610.29,56.46
		c0.71,8.95,1.12,17.91-1.12,26.66c0-3.1,1.74-6.13,0.31-16.58C608.54,59.68,609.31,50.58,610.29,56.46z M603.07,56.26
		c-0.41,0-0.31,0.64-0.31-4.27c0.1,0,0.2,0,0.31,0C603.34,53.89,603.34,54.36,603.07,56.26z M674.8,6.61
		c-0.21-0.2-0.31-0.61-0.51-0.81c-0.92,0.1-1.42-0.41-2.03-1.12c1.12-0.1,1.83,0.1,2.03,1.12c0.41,0.1,0.92,0.1,1.32,0.41
		C677.04,7.11,681.08,12.61,674.8,6.61z M697.89,156.12c0.07,0.95-0.4,1.71-1.31,2.03C696.68,157.29,696.98,156.54,697.89,156.12z
		 M696.46,158.3c-0.02,0.4-0.2,0.62-0.63,0.55C696.05,158.62,696.24,158.45,696.46,158.3z M691.48,163.28
		c-0.03-0.39,0.21-0.57,0.61-0.59C692.12,163.15,691.89,163.27,691.48,163.28z M692.42,162.45c1.07-1.15,2.07-2.24,3.13-3.31
		C694.98,160.84,694.19,161.7,692.42,162.45z M694.33,252.01c-7-29.16-8.27-35.37-8.45-36.46c-0.01,0-0.04-0.04-0.1-0.16
		c-0.62-1.42,1.32-3.05-0.41-4.37c-5.25-19.69-10.77-19.73-13.53-32.15c2.46-1.84,16.57-2.99,20.55-3.36
		c7.93,23.8,3.29,29.12,3.26,32.46c-0.15,16.77-0.43,18.94,0.41,21.06c1.13,2.89,1.13,4.65-0.81,19.94
		C695.16,249.67,694.74,250.48,694.33,252.01z M700.03,313.46c0.81-0.71,1.63-1.32,2.65-2.14c1.39,1.74,1.52-0.23-4.58,16.28
		C697.79,322.82,699.83,318.24,700.03,313.46z M697.89,314.89c-0.44,0.45-0.34-0.03-0.51-0.2
		C697.92,314.68,697.67,314.67,697.89,314.89z M693.82,336.76c-6.09-15.7-5.56-14.52-5.39-14.85c2.03-0.31,4.07-0.1,6.21,1.02
		C693.31,334.89,696.14,332.12,693.82,336.76z M689.75,336.96c-0.71-0.36-0.82-0.87-0.61-1.57
		C689.35,335.97,689.53,336.51,689.75,336.96z M689.86,314.17c2.22,0.37,2.9-1.35,6.1,0.71c-1.88,6.58,1.52,2.95-8.55,4.78
		c-2.24-3.66-2.75-6-1.83-8.75c0.31,0.41,0.81,0.61,0.92,1.02C686.97,313.67,688.33,314.07,689.86,314.17z M629.01,164.11
		c1.15-1.15,4.59,1.39,5.16-1.99c2.44,4.82,7.96,16.43,8.58,17.97c-1.53,0.81-3.05,1.02-4.78,1.02
		C634.2,175.81,631.56,170.01,629.01,164.11z M646.01,235.63c-0.31-2.09,1.99-5.22,2.03-7.33c0.54-25.37-0.38-28.33-8.75-45.07
		c1.83-0.41,3.26-0.81,4.88-1.22c1.83,2.65,3.9,5.08,4.68,8.24c1.25,5.05,4.04,9.14,3.26,16.28c-1.22,11.04,7.64,26.69,13.73,34.59
		c1.33,1.72,0.57,0.83,4.37,10.07c-5.19-1.63-8.95-4.17-13.12-5.49c-4.17-1.32-8.34-2.44-12.41-3.66
		C643.69,239.56,646.4,238.26,646.01,235.63z M636.54,397.09c0.14,0,0.12-0.06,0,0.31V397.09z M636.03,399.13
		c0,2.23-0.31,2.24-0.31,0C635.83,399.13,635.93,399.13,636.03,399.13z M633.08,424.05c0,0.28,0.28,0.13-0.1,0.51
		C632.98,424.46,633.08,424.26,633.08,424.05z M634.1,430.46c0.65-2.74,1.33-5.49,1.83-8.24c0.98-5.41,0.4-9.37,2.03-14.75
		c3.71-12.25-1.29-49.39,2.44-86.68c0-1.71,5.8-0.98,10.07-1.12c16.09-0.51,44.01,3.01,20.25-1.12c-5.7-0.99-9.68-0.81-29.91-0.81
		c-0.92-1.53-0.61-3.05-0.71-4.58c4.68-0.81,9.46,0.41,14.04-0.81c-4.27-0.61-8.55-0.31-12.82-0.51
		c-3.91-4.88-7.93-7.71-12.51-16.38c-3.33-6.3-0.67-9.56-0.61-14.55c0.06-4.89,0.15-13.02,2.34-16.89
		c12.33-21.79,11.71-21.86,14.85-20.76c5.95,2.09,8.2,3.13,26.76,11.7c2.05,3.83,4.35,9.63,7.73,14.85c1.64,2.53,2.83,5.4,4.17,8.14
		c0.5,1.02,0.62,2.04,0.41,3.15c-1.53,7.82,2.24,12.99,2.24,14.45c-0.81,0.61-1.93,0.31-2.95,0.51c-1.12,0.31-2.13,0.53-3.26,0.61
		c-4.82,0.33-5.44,6.31-4.68,10.99c0.2,1.22,1.32,1.63,2.24,2.24c-0.61-14.08-0.74-11.41,10.48-12.21c2.65,2.65,2.25,5.7,1.12,8.55
		c-0.91,2.29-3.07,2.91-5.29,3.36c-2.22,7.22,2.43,13.7,4.45,24.54c-0.11-0.16-0.18-0.36-0.27-0.53
		c-5.03-11.13-4.47-9.02-3.56-11.29c-0.92-2.77-5.75-12.72-6.61-12.72c-0.72,3.94,1,6.32,6.41,21.87
		c4.76,13.69,4.61,13.06,6.41,15.16c-3.21,23.91-0.06,14.09-14.85,50.67c-1.48,3.65-0.44,3.55-1.93,14.04
		c-0.39,1.55-2.77,5.32-4.58,9.16c-6.23,13.22-6.09,13.39-6.31,24.32c-0.25,12.96,0.37,16.77-0.41,18.62
		c-1.57,3.72-5.62,37.03-5.6,37.14c1.5,5.55-1.26,16.82,0.2,25.44c0.49,2.89-0.86,9.8,1.22,15.26c0.14,0.37-0.01-0.51,1.42,8.55
		c-3.98,10.29-3.54,11.98-13.12,17.6c-3.36-0.92-6-2.85-8.65-5.09c-0.52-0.39,0.14-0.02-3.66-6.1c1.52-2.53,1-1.02,1.42-3.97
		c0-2.45,1.29-1.59,1.02-10.07c-1.11-34.76-9.37-62.69-9.56-73.46c-0.05-2.85,0.27-5.69-0.1-8.44c-0.74-5.51,4.14-24.89,4.48-25.23
		C633.69,433.82,633.72,432.1,634.1,430.46z M686.19,386.1c0-3.52-0.14-3.05,0.41-3.05C686.27,386.39,686.82,386.1,686.19,386.1z
		 M685.58,393.12c0-4.32-0.07-3.87,0.2-3.87C685.79,393.57,685.85,393.12,685.58,393.12z M684.77,399.84c0-4.52-0.09-4.07,0.2-4.07
		C684.97,400.29,685.06,399.84,684.77,399.84z M684.36,406.15c-0.68,0.68-0.31-1.42-0.31-3.15
		C684.54,402.99,684.03,402.82,684.36,406.15z M670.93,511.14c-4.4,38.85-1.67,35.58-9.26,32.46c-3.39-7.21-2.09-36.63-1.63-44.56
		c0.21-3.52,5.6-35.53,5.6-42.73c0-18.21-0.17-18.62,0.71-21.47c2.79-8.97,5.35-11.53,7.33-18.31c2.21-5.76,2.22-3.94,2.54-6.71
		c1.55-13.45,0.36-8.55,7.12-20.14C684.39,389.66,670.94,511.04,670.93,511.14z M682.63,420.39c0-4.53-0.07-4.07,0.2-4.07
		C682.84,420.84,682.92,420.39,682.63,420.39z M681.82,426.9c0-4.52-0.09-4.07,0.2-4.07C682.02,427.36,682.09,426.9,681.82,426.9z
		 M681.51,430.26c-0.32,3.51,0.01,3.26-0.41,3.26C681.11,430.1,680.97,429.72,681.51,430.26z M680.39,440.74
		c0-4.1-0.07-3.97,0.2-3.97C680.6,441.18,680.67,440.74,680.39,440.74z M679.68,447.25c0-4.45-0.09-3.87,0.2-3.87
		C679.88,448.36,679.97,447.25,679.68,447.25z M678.97,454.07c0-4.63-0.09-4.17,0.2-4.17C679.17,454.53,679.26,454.07,678.97,454.07
		z M678.16,461.29c0-4.8-0.08-4.17,0.2-4.17C678.36,461.91,678.45,461.29,678.16,461.29z M677.54,467.9c0-4.64-0.04-4.17,0.1-4.17
		C677.65,468.37,677.69,467.9,677.54,467.9z M676.22,481.84c-0.8-7.63,0.41-0.35,0.41-11.39
		C677.6,474.15,676.65,473.74,676.22,481.84z M675.31,488.46c0-4.63-0.09-4.17,0.2-4.17C675.51,488.91,675.6,488.46,675.31,488.46z
		 M674.59,494.97c0-4.93-0.08-3.97,0.2-3.97C674.8,495.55,674.88,494.97,674.59,494.97z M673.37,508.8
		c-1.24-4.72,0.41-4.38,0.41-11.39C674.58,505.04,673.37,497.76,673.37,508.8z M672.36,515.52c0-1.32,0-2.75,0-4.17
		C672.86,512.77,672.76,514.09,672.36,515.52z M671.46,523.21c0.09-1.8,0.19-3.53,0.28-5.35
		C672.04,519.7,672.32,521.54,671.46,523.21z M671.31,524.14c-0.29,6.51,0.08,4.2-0.78,5.93
		C670.52,542.61,669.38,532.79,671.31,524.14z M669.1,546.45c-0.51-0.81-0.51-1.63,0-2.44c0.1-1.83,0.2-3.66,0.31-5.6
		C670.44,543.34,669.1,541.6,669.1,546.45z M662.89,545.74c-0.1-0.1-0.2-0.31-0.31-0.41C663.11,544.8,663.2,545.74,662.89,545.74z
		 M683.55,409.61c0,3.89,0.07,3.46-0.2,3.46C683.34,409.15,683.28,409.61,683.55,409.61z M624.13,476.75
		c-2.11-7.73-2.04-15.48-1.93-22.38c0.03-2.05,3.02-13.04,6.41-18.92c0.28-0.28,0.18,0.11,0.41-0.51c0.02-0.05-0.77,3.18-1.12,4.17
		c-4.36,12.22-3.64,24.42-2.03,38.46C624.74,478.08,624.33,477.37,624.13,476.75z M626.47,486.22c-0.41,0-0.31,0.63-0.31-4.17
		C626.57,482.05,626.47,481.42,626.47,486.22z M628.51,503.82c-7.6-51.87,9.57,42.57,4.78,48.73
		C629.99,531.43,632.44,530.68,628.51,503.82z M632.98,554.18c-0.13,0.38-0.07,0.4-0.2,0H632.98z M630.95,554.28
		c0.2,0,0.41,0.2,1.12,0.51c-2.95,3.44-3.19,1.71-3.66,9.77c-0.2,1.42-0.2,2.95-0.71,4.37C626.9,567.34,626.41,554.28,630.95,554.28
		z M663.91,593.65c-1.47,0.49-0.34-1.67-12.01-0.2c-8.93,1.13-20.42,2.28-27.88-3.26c-1.12-4.77,1.22-4.54,1.73-6.41
		c1.79-6.55,4.78-14.41,4.17-19.13c-0.39-2.99-0.04-6.23,2.85-7.12c3.85,4.2,0.09,6.22,14.14,12.01c4.51-2.26,8.1-5.16,10.38-7.63
		c4.8-5.22-0.67-3.2,8.34-14.96c1.12,1.22,2.03,2.24,2.95,3.26c0,3.28,0.27,4.56-1.32,6.71c-0.59,0.8-3.14,4.61-3.56,5.6
		c-0.51,1.02-0.63,2.15,0,3.15c0.39,0.62,1.02,0.71,3.15,0.71C667.17,568.73,664.48,592.21,663.91,593.65z M667.37,596.4
		c-0.81,0.41-1.42,0-1.22-0.41c-0.41-2.48,27.37-266.14,27.37-250.28C692.88,352.92,667.38,596.3,667.37,596.4z M672.56,561.3
		c-0.1-2.24,0.2-3.97,2.14-5.6c0.51,0.51,0.81,0.92,1.32,1.42C675,558.76,674.09,560.08,672.56,561.3z M701.86,574.63
		c-1.22-0.29-2.65-0.31-4.07-2.03c1.73,0.1,2.85-0.1,3.76,0.31c11.66,3.18,8.93-1.44,11.5,3.05
		C710.2,576.46,709.57,576.46,701.86,574.63z"/> <path d="M685.88,215.55C685.92,215.53,685.8,215.08,685.88,215.55L685.88,215.55z"/> <path d="M456.46,209.48c-1.23-0.62-2.78-3.48-8.04-4.68c-8.52-1.95-17.83-5.44-25.74-2.65c-5,1.77-8.11,1.48-11.29,4.99
		c-3.4,0.28-12.47-15.97-23.3,0c-3.81,5.63-5.91,8.99-6.31,13.73c-0.48,5.66-1.43,13.57,1.22,20.65c1.76,4.71-4.74-1.99-36.73-6.1
		c-4.68-0.6-19.7-2.25-25.44-1.73c-19.53,1.78-23.51,1.89-31.64,4.78c-5.42,1.93-4.33-0.94-38.25,9.16c-4.3,1.28-4.7,1.17-8.44,2.14
		c-7.8,2.02-16.95,7.93-17.6,8.04c-4.35,1.04-17.85,6.12-22.08,8.44c-10.46,5.76-13.22,13.1-17.3,24.32
		c-2.22,6.1-2.03,14.33-2.03,18.72c0,11.49,7.84,19.7,15.97,26.55c1.93,1.63,3.15,3.97,5.7,4.99c0.48,0.24,0.72,1.38,3.87,4.37
		c6.78,6.47,8.53,15.71,25.03,33.17c5.6,5.92,8.78,11.06,15.16,16.79c6.69,6,10.63,14.3,15.26,26.35
		c4.45,11.58-14.47,24.61-6.92,63.28c4.01,20.53,4.02,18.5,3.97,21.87c-0.26,15.85,3.47,24.56,2.34,43.04
		c-0.1,0.51,0.1,1.12,0.2,1.63c1.83,0.31,1.22-1.73,2.54-2.03c0,1.73,0,3.46,0,5.09c0,0.51-0.81,0.92-1.12,0.61
		c-0.93-0.62,0-1.73,0.1-1.93c-0.81-0.41-1.63-0.61-2.44-0.92c-2.72,4.75-3.21-0.05-3.87,10.48c0,1.73-0.1,3.46-1.02,5.6
		c-0.33-3.99-0.87-13.66,2.44-15.87c0.81-0.61,1.63-0.31,2.44-0.2c-0.92-0.71-1.73-1.93-3.46-1.22c-1.84,2.3-3.11,1.78-3.76,18.72
		c-0.22,5.81-2.14,8.62-2.14,12.51c0,3.86-0.61,3.08-0.61,6.21c4.17,5.04,9.17,5.6,13.63,6.61c3.58,0.81,3.27-1,6.71-0.61
		c10.53,1.18,17.75-3.24,19.84,0.51c0.8,1.43,2.36,1.87,3.76,1.02c1.74-1.06,2.68-0.86,11.8,1.02c13.51,2.78,19.75-3.23,24.93-3.56
		c6.35-0.4,10.68-4.23,11.8-5.09c0.5-0.5,0.05-1.62-0.92-1.83c-1.01-0.23-1.83,0.52-2.65,1.02c-2.22,1.35-4.58,2.42-7.12,2.65
		c-9.47,0.85-9.69,5.43-21.98,4.27c-13.56-1.28-13.31-1.46-13.63-2.54c9.72-25.51,5.8-18.06,10.28-20.86
		c3.52-2.52,3.82-6.38,4.88-7.12c1.32,1.32,2.44,2.54,3.56,3.66c-1.77,3.35-4.14,6.78-1.73,7.83c1.89,0.82,3.41-2.53,4.88-5.29
		c0.41,0.31,0.81,0.51,1.22,0.81c-0.1,0.81-0.41,1.53-0.41,2.24c0,1.05,1.14,2.52,2.34,1.02c1.83-2.29-0.84-2.03,9.87,0.41
		c9.39,2.14,8.88,1.06,9.36,3.87c0.52,3,0.85,7.32,2.75,6.51c0.95-0.47,0.92-1.32,0.92-2.24c-1.02-3.06-0.18-5.08-1.22-9.05
		c-1.82-6.93-7.44-2.73-14.04-5.9c-2.01-0.96-6.2,0.07-14.04-4.88c-2.1-1.05-3.42-0.54-5.9-5.29
		c14.83-40.79,14.51-39.92,15.36-40.19c1.62-0.5,0.3,0.64,12.21-28.69c1.14-2.81-0.15-2.92,2.44-7.12c9.76-3.73,6.87-5.16,9.77-6.92
		c1.33-0.81,2.75-1.53,4.07-2.34c0.41-3.76,0.1-8.34-0.61-11.6c-0.33-1-0.22-1.42,0.1-12.01c5.59-7.83,3.53-10.51,8.34-24.42
		c4.43-12.81,5.45-18.48,6.92-24.21c3.95-15.41,11.04-19.52,8.24-35.71c-0.45-2.57,0.7-21.77,0.71-21.87
		c1.69-20.99,9.04-29.51,12.21-36.73c1.79-4.09,3.24-8.3,4.99-12.51c2.3-5.56-1.98-9.92-0.1-11.8c20.43,0,16.85-2.68,24.11-3.76
		c2.43-0.36,4.89,0.24,7.33,0.1c3.89-0.22,11.21,7.47,18.11,4.78c1.53-1.73,1.73-3.76,2.54-5.9c2.24-0.71,3.46-2.34,2.75-4.88
		c0.92-0.41,1.63-0.81,2.34-1.12c0.92-1.42,0.2-3.46,2.03-4.27c1.93-0.2,4.27,1.42,5.9-1.02c-1.12-10.62-1.02-8.09-1.02-12.31
		c0-5.32,4.46-5.11,4.58-10.78c0.03-1.28,1.42-3.54,1.42-10.48c0-6.39,0.25-7.96-1.02-10.38
		C463.43,216.83,460.94,212.33,456.46,209.48z M333.05,570.66c12.07,3.02,8.27-1.28,11.09,2.95c-0.31,0.2-0.51,0.51-0.61,0.51
		c-2.87-0.34-5.47-0.73-12.92-2.34c-0.51-0.11-0.92-0.61-1.53-1.02C330.51,570.25,331.73,570.46,333.05,570.66z M462.47,219.45
		c-1.17-1.57-2.43-3.12-3.07-5.05C461.23,215.27,462.11,217.46,462.47,219.45z M457.07,212.04c0.65,0.83,0.93,0.7,0,0.7
		C457.07,212.5,457.07,212.27,457.07,212.04z M407.63,207.96c-1.06,0.28-1.39-0.51-1.85-1.03
		C406.53,206.88,407.25,207.11,407.63,207.96z M373.75,242.65c7.19,1.23,11.29,9.74,14.96,18.11c0.17,0.53,0.12,1.06,0.11,1.59
		c-0.38-0.56-0.72-1.15-0.72-2.1c-6.59-11.02-23.27-18.98-36.32-10.78c-6.91,4.34-9.58,9.61-13.53,16.89
		c-4.07,7.51-1.22,12.21-2.65,14.96c-1.43,2.76,10.41,18.87,20.96,17.6c0.31-0.1,0.61,0,1.22,0.1c-0.1,0.61-0.1,1.22-0.2,1.73
		c-3.92,14.57-1.42,17.19-4.78,19.53c-12.86,8.97-22.58,8.06-30.73,2.14c-6.17-4.48-2.55-10.62-4.99-19.13
		c-2.14-2.73-4.56-1.04-8.95-1.63c-0.41-3.46-0.33-3.67,0.81-6.41c1.88-4.5-0.97-45.41-1.32-57.69
		C337.84,234.81,343.5,237.47,373.75,242.65z M353.09,345.51c1.7,6.58-4.73,15.85-7.02,28.39c-1.16,6.33-1.15,25.09-1.12,29.81
		c0.08,13.44,2.82,6.7-0.41,35.71c-0.51,0.61-1.01,1.33-1.42,2.03c-4.94,8.49-8.98,8.83-9.46,12.72c0,0.1-1.18,5.65-1.32,6.1
		c-1.93,6.38-3.03,3.07-2.85,13.84c0.02,0.92,1.12,1.83,1.83,2.85c-1.72,7.11-9.63,22.56-8.75,27.57
		c0.51,1.7-15.85,43.56-16.58,45.17c-1.17-0.39-4.41-3.27-4.99-3.87c-2.53-2.61-4.05-3.15-7.12-4.17c0.1,0.31,0.31,0.61,0.41,0.92
		c0,0.2-0.2,0.31-0.31,0.51c-0.1-0.2-0.41-0.31-0.41-0.41c0-7.32-2.49-17.83,0.71-34.69c2.56-13.46,1.91-17.46,3.66-24.93
		c3.76-16.01,1.85-35.29,9.26-60.54c1.01-3.46,0.55-5.54,0.71-7.94c0.41-6.06-1.53-7.18-11.29-24.52
		c-6.67-11.85-10.62-48.01-32.96-71.22c-9.33-9.7-11.63-10.77-11.19-13.84c0.1-0.49-0.18-1.34-1.02-1.6c0-0.49,0-0.98,0-1.45
		c-0.85,0-0.71,0.16-0.71-0.61c0.25,0.25,0.51,0.45,1.32,0.71c0.92,0.71,1.83,1.42,2.95,2.24c4.48-1.63,9.28-2.19,13.84-3.97
		c1.72-0.67,18.16-0.86,19.94-0.31c9.56,3,11.66,4.9,15.57,4.68c3.76-0.21,7.53-0.2,11.4-1.12c-2.87,7.54,2.21,25.31,16.58,26.86
		c9.2,0.99,13.76-2.29,22.08-7.83C354.33,323.47,352.89,344.71,353.09,345.51z M335.9,467.6c-1.53,0.61-2.34,1.93-3.56,3.15
		c-0.51-3.76-0.1-4.78,2.85-7.33C337.38,463.65,337.47,466.81,335.9,467.6z M335.7,461.8l-0.31,0.1
		C335.39,461.64,335.31,461.67,335.7,461.8z M332.54,478.38c2.04,1.63,1.9,0.85,1.02,3.05c-6.76,13.94-7.01,23.43-9.26,24.93
		C323.36,502.99,323.17,501.44,332.54,478.38z M331.32,466.07c-0.3,0.3-0.12-0.76,0-1.12c0.2,0,0.31,0,0.41,0
		C332.09,466.02,331.42,465.97,331.32,466.07z M309.75,549.8c-0.41,0.92-0.41,2.14-1.53,2.75c-2.35-1.05-2.83,0.06,13.33-40.19
		c0.29-0.72,0.61-1.42,1.02-2.34C324.87,511.75,319.04,525.52,309.75,549.8z M251.32,303.49c-0.61,1.83-0.26,1.1-0.55,0
		C250.96,303.49,251.13,303.49,251.32,303.49z M260.81,246.31c27.43-7.82,8.88-3.19,44.36-8.55c1.27,5.31,0.66,11.07,1.12,26.35
		c1.67,56.05,1.44,33.41-21.87,33.98c-17.04,0.42-7.91-2.17-30.01,3.36c-1.12-1.22-2.14-2.34-3.15-3.46
		c0.81-2.24,2.75-3.76,2.44-6.51c-0.61,0.41-1.11,0.61-1.32,0.92c-0.79,1.14-1.22,2.54-2.54,3.66c-4.05-4.42-2.75-3.92-4.68-3.15
		c-10.07-8.95-15.06-20.76-18.11-33.88C237.71,251.91,244.11,251.07,260.81,246.31z M204.04,336.15
		c-4.03-3.94-13.87-12.41-15.67-17.19c-3.7-8.26-3.9-19.89-1.22-27.88c5.42-16.16,13.64-21.64,27.27-27.27
		c9.54-3.94,5.03-1.34,10.58-3.56c1.77,0.66,2.7,21.74,22.28,36.42c3.53,2.65,3.11,4.33,3.4,4.62c-0.35,0.19-0.57,0.46-0.04,0.72
		c0,1.89,0.22,1.29-1.12,2.9c-1.12-0.61-2.24-1.22-3.36-1.83c-2.18,1.55,5.73,3.17,5.1,6.17c-0.27-0.11-0.57-0.3-1.03-0.57
		c-0.28,1.12,0.89,1.65,1.08,2.51c-1.91-0.08-2.48,0.18-23.46,8.78c-1.01,0.42-1.93,1.22-2.95,0.1c-0.51,1.12-0.92,1.91-1.93,2.34
		c-6.79,2.87-13.96,8.35-14.14,9.36C208.35,334.43,206.08,334.93,204.04,336.15z M263.56,503.21c-14.44-63.53,5.83-61.47,4.07-82.61
		c1.63,3.15,1.62,5.7,0.61,8.34c-11.8,30.82-9.61,31.43-5.9,61.55C263.95,503.58,263.56,499.48,263.56,503.21z M266.51,512.87
		c-0.48-3.54,1.56-3.87,0.31-13.43c-1.96-14.91-7.8-42.19-3.05-49.45c2.08-3.18,2.6-6.27,4.27-11.6c1.83-5.83,3.04-2.19,3.97-6.71
		c1.06-5.16,0.94-11.55-2.03-15.87c-16.77-24.33-38.54-39.33-53.31-64.81c-4.36-8.72-1.7-2.9-10.48-12.72
		c1.02-1.32,2.33-2.05,3.46-2.85c8.91-6.27,6.46-5.71,9.67-7.22c30.96-14.61,31.8-13.22,32.38-16.65c1.09,0.48,1.64,1.49,2.31,2.31
		c9.97,12.3,19.87,15.15,38.05,70.91c3.07,9.41,10.21,20.25,13.53,26.66c1.37,2.64,0.21,6.55-0.51,9.16
		c-2.03,7.39-0.91,8.82-2.95,12.21c-0.81,1.35-0.89,4.06-1.83,9.26c0,0.4-0.79,1.2-0.41,0.81c0.56,5.27-1.21,4.2-2.85,26.86
		c-2.33,32.31-7.03,26.63-5.39,68.27c0.37,9.35-1.05,4.9-0.41,10.07c-5.39,10.07-3,9.32-5.39,11.29c-7.24,5.98-7.9,6.43-9.36,5.7
		c-7.58-3.21-8.37-6.36-8.85-7.22C271.07,548.5,271.83,551.76,266.51,512.87z M289.2,590.4c-3.77,0-9.09,2.08-20.35,1.73
		c-7.68-0.24-17.81-2.77-13.12-9.16c2.01-3.34,4.42-13.16,5.09-16.99c0.57-5.74-1-9.48,2.75-10.58c3.08,1.89,0.68,7.53,14.35,11.8
		c3.78-1.15,8.39-5.64,11.19-8.44c3.15-3.6-1.52-0.1,7.22-13.84c1.42,0.41,1.93,1.63,2.75,2.44c3.77,3.77,3.16,1.23-3.36,11.29
		c-0.6,0.92-1,1.94-1.32,2.95c-0.29,0.92,0.1,1.63,0.81,2.24c2.14,2.14,5.16-3.15,10.17-10.28c0.61,0.61,1.12,1.02,1.73,1.63
		c-7.39,8.62-7.17,9.74-4.48,12.82c-1.12,4.07-7.53,20.86-8.85,23.1C292.25,590.91,290.73,590.4,289.2,590.4z M313.01,561.81
		c-0.92,0.51-1.63,1.02-2.75,1.63c0-1.42,0.51-2.24,1.22-3.56C312.19,560.79,312.5,561.2,313.01,561.81z M297.44,593.45
		c-0.29,0.92-0.81,1.12-2.54,0.92c3.15-9.98,27.87-76.64,29.61-77.22C326.33,517.15,300.26,584.33,297.44,593.45z M393.28,294.74
		c-6.13,17.76-15.84,31.37-16.79,61.55c-0.31,2.15,2.37,9.91-1.12,20.55c-11.97,36.53-16.49,60.61-17.8,64.81
		c-0.8,2.54-3.84,4.29-3.66,10.07c0.25,7.91-0.74,13.27,0.31,15.97c0.31,0.81,0,1.83,0,2.75c-1.63,1.12-3.15,2.14-4.68,3.15
		c-4.77,3.18-1.37,3.32-4.48,3.56c0.1-0.71,0.1-1.32,0.2-2.03c-6.61,2.2-14.8,36.87-18.42,40.49c-5.45-2.18,0.11-4.8,1.93-15.46
		c1.8-10.56,6.12-17.99,8.14-22.79c-2.53-0.42-3.49-0.23-3.76-1.83c-0.39-2.24,0.1-4.07,1.53-5.8c4.79,0.53,2.34-1.11,2.34,4.78
		c0,0.37,1.42,1.03,1.42,0.31c1.67-5.85,1.34-3.4-0.1-7.73c0-3.98-0.61-5.09,3.05-5.09c1.12,1.12,1.12,3.05,3.05,3.66
		c-0.1-1.02,0.01-1.94-0.2-2.65c-1.53-5.05,0.34-7.44-2.03-10.68c-1.57,1.85-0.1,6.16-0.92,8.44c-1.32,0.41-1.83-1.42-3.36-0.81
		c-1.02,0.41-2.34,0.1-3.66,0.1c0-2.44,0.71-4.78,1.22-7.12c4.58-3.15,7.12-7.94,10.07-12.41c3.36-6.05,0.73-53.85,1.73-60.43
		c0.55-3.62,2.38-7.96,1.73-9.26c-0.43-0.71-0.19-1.51,3.97-13.84c1.71-5.07,3.85,5.24,3.56-30.62c-0.14-16.62,3.32-18.3,1.73-21.26
		c-0.54-0.72,0.58-3.77,0.92-4.88c0.7-3.05,0.99-3.74-0.81-5.09c-0.77-9.22-0.14-8.66-2.44-6.82c-2.34-0.81-4.07-3.15-6.82-2.75
		c-0.55,1.21-0.39,1.35,7.02,5.39c0.41,1.53,0.31,3.15-0.41,4.99c-7.79,0-19.06-7.09-19.03-15.36c0.06-13.6,9.46-29.59,22.79-32.76
		c4.74-1.13,6.03-0.58,14.04,2.85c5.7,2.44,10.17,6.21,13.12,11.7c2.03,3.77,4.48,7.22,6.31,11.09c0.2,0.31,0.81,0.51,1.22,0.81
		c-1.65,1.38-0.64,1.77-3.56-1.73c-0.1,0.92-0.19,1.32-0.1,1.73c0.43,1.92,2.52,2.76,2.65,4.27
		C393.77,285.81,396.3,285.98,393.28,294.74z M389.04,262.68c0.36,0.14,0.34,0.11,0.07,0.11
		C389.07,262.75,389.06,262.72,389.04,262.68z M463.58,241.12c-0.95,3.52-0.22,4.88-1.42,5.8c-2.36,1.81-3.04,4.27-2.95,7.12
		c0.42,13.21,5.96,12.4-6.82,10.07c-0.53,1.74,2.06,1.28,1.12,4.58c-1.23,4.32-6.38-1.24-7.22,1.73c0.81,1.73,2.75,0.51,4.07,1.53
		c2.02,2.69-3.5,2.44-4.37,8.24c-0.11,0.71-0.92,1.32-1.53,2.14c-10.49-2.33-11.21-5.88-15.67-6.71c-1.14-0.21-3.29,0.04-3.87-0.31
		c-2.43-1.44-5.16,0.68-19.33,4.48c-3.37,0.9-12.78,1.24-10.07-2.75c4.14-6.1,2.69-32.86-0.2-6.82c-1.93-0.32-1.32-7.73-12.31-24.21
		c4.7,0,0.6,1.66,7.12,1.12c-3.05-2.34-3.07-2.44-4.27-6.51c-2.57-8.7-1.74-20.03-0.81-20.96c2.14-2.4,5.3-10.75,8.95-14.55
		c3-3.12,8.94-1.28,11.49,1.71c-0.81-0.05-0.91,0.68-0.91,1.24c-1.22,0.41-2.44-0.92-3.56,0.41c4.16,1.51,3.49,1.5,6,3.26
		c2.76-2.3,5.16-4.4,13.33-4.27c31.42,0.48,3.53-2.06-4.48-0.81c0.71-0.92,1.63-1.1,2.44-1.32c9.71-2.62,15.09-0.9,26.35,0.81
		c3.87,0.59,12.21,4.14,12.21,6.1c0,0.64,0.53,0.93,0.92,1.32c0-0.19,0-0.49,0-0.78c0.43,0.11,0.62,0.31,0.71,0.68
		c0.42,0,0.62,0.15,0.62,0.55c-0.23-0.2-0.84-0.99-1.33-0.24c0.37,0.92,0.44,1.64,0.67,2.94c-6.83-5.59-7.83-6.82-9.84-6.53
		c5.11,3.95,11.86,9.37,12.93,15.8c1.83,0.1,2.34,1.83,3.46,2.95C464.91,232.98,464.69,237.05,463.58,241.12z M459.01,217.01
		c-0.21,0-0.25,0.03-0.3-0.06C458.79,216.98,458.88,217.01,459.01,217.01z"/> <path d="M448.53,210.09l-0.1,0.1C448.64,210.16,448.65,210.18,448.53,210.09z"/> <path d="M652.01,40.49c-0.31,0-0.71-0.2-1.02-0.2c-5.19-0.61-4.11-4.08-7.12-3.87c-0.92,0.71-1.85,1.41-2.75,2.24
		c-5.71,5.26-0.49,8.11-4.89,5.15c-0.1,1.45,1.17,1.09,1.43,4.52c0,0.1,0.31,0.2,0.51,0.41c0.34-1.38,0.47-1.32,0.81-1.83
		c2.44,2.34,2.54,2.54,3.05,5.09c0.46,1.59,1.05,4.94,3.46,2.85c0.77-0.67,2.23-3.05,0.71-3.05c-1.12-0.2-0.92,1.83-2.44,1.12
		c0.3-2.97-1.44-4.67-2.39-6.8c1.36,1.08,2.65,2.16,3.92,3.24c2.24-1.42,2.24-1.42,1.42-3.56c0.51-0.81,1.12-1.53,1.53-2.24
		c-0.2-1.12-1.42-1.63-1.02-2.75c-0.42,0.08-0.62-0.12-0.62-0.53c0.76,0.76,2.55,1.55,3.37,1.75
		C651.09,42.53,651.7,42.02,652.01,40.49z M641.22,45.83c-1.48-2.23-1.48-2.53,0-4.11C641.22,43.03,641.22,44.43,641.22,45.83z
		 M646.4,40.02c-0.32,0.04-0.47-0.19-0.49-0.56C646.24,39.46,646.39,39.65,646.4,40.02z M644.89,38.56c-0.49,0-0.46,0.05-0.71-0.2
		C644.5,38.35,644.09,37.81,644.89,38.56z M646.92,43.54c-2.77,1.84-1.64,1.15-2.65,3.15c-2.9-2.17-3.48-3.48,0-5.8
		c0.1,0.41,0,1.32-0.2,1.73C645.09,42.63,646.31,41.81,646.92,43.54z"/> <path d="M650.79,32.25c0.89,0.3,5.17-1.12,6.49-2.42c-2.16-1.4-1.36-1.11-3.54-0.02c-0.41,1.02-1.12,1.73-2.85,1.32
		c1.12-0.81,1.83-1.32,2.85-1.32c-1.14-2.85,0.16,2.8-16.65-2.11C637.48,29.64,648.74,31.72,650.79,32.25z"/> <path d="M657.3,29.81c-0.03,0.03,0.05,0.07,0.1,0.1L657.3,29.81z"/> <path d="M637.05,27.57l-0.1,0.1C637.17,27.73,637.05,27.7,637.05,27.57z"/> <path d="M682.94,37.74c0.09,0,0.1-0.28,0.1-0.5c-1.63,0.14-5.97-0.25-8.04,2.94c0.71-0.2,1.53-0.31,2.44-0.31
		c-0.41,1.22-0.61,1.42-1.93,2.03c1.42,0.81,2.44,1.93,4.27,2.14c-0.1-0.41-0.2-0.71-0.1-1.02C680.5,41.1,680.7,38.76,682.94,37.74z
		"/> <path d="M622.81,126.46c-0.31,1.32-0.2,2.54,1.02,3.76c2.47-4.32,0.92,2.57,5.7,4.27c-4.5-9-2.85-8.75-4.07-10.28
		C624.64,125.34,623.11,125.14,622.81,126.46z"/> <path d="M636.24,51.78c0.2,0.2,0.51,0.2,1.22,0.41c-8.06-11.83-3.77-5.88-12.01-15.77c0,3.26,4.82,6.68,8.85,13.23
		C634.81,50.46,635.53,51.07,636.24,51.78z"/> <path d="M667.98,197.68c0.51,0.2,0.92,0.41,1.12-0.51c-4.86-2.92-3.93-2.05-8.55-7.02c-2.33,0.26,0.69,4.8,3.66,6.21
		C665.45,196.94,666.76,197.27,667.98,197.68z"/> <path d="M649.67,56.57c-1.4,5.59,2.46,11.5,10.48,12.41C658.6,66.32,651.94,67.93,649.67,56.57z"/> <path d="M677.89,14.63c0.02,0,0.04,0.01,0.06,0.02C677.95,14.38,677.97,14.38,677.89,14.63z"/> <path d="M668.8,12.51c4.58,4.58,3.61,4.56,4.06,2.01c0,0.01,0.01,0.01,0.01,0.02c1.39,0.56,4.15,2.72,5.03,0.08
		C674.36,13.27,671.71,11.95,668.8,12.51z M672.8,14.45c-0.11,0-0.27,0-0.45,0C672.6,14.04,672.71,14.28,672.8,14.45z"/> <path d="M654.45,27.47l0.1,0.1C654.72,27.4,654.68,27.44,654.45,27.47z"/> <path d="M650.07,23.4c2.03,0.81,3.97,1.63,5.9,2.44c-0.38,0.47-0.84,1.03-1.31,1.6c2.04-0.25,3.81-1.33,5.38-2.51
		c0.28-0.18,0.22-0.63,0.29-0.94c-0.77-0.09-0.57-0.13-1-1.2C655.95,25.8,653.67,22.8,650.07,23.4z"/> <path d="M646.51,10.68c-4.81-0.1-9.61,0.58-13.63,3.26C636.47,13.47,635.93,12.98,646.51,10.68z"/> <path d="M645.7,165.53c-0.81-1.32-1.63-2.65-2.44-3.97s-0.71-3.05-2.44-4.07c-0.81,2.34,0.5,3.87,1.42,5.49
		C643.35,164.93,643.87,165.22,645.7,165.53z"/> <path d="M685.18,32.55c-3.56-2.34-6.82-1.22-10.48-0.2C677.65,33.06,680.09,33.06,685.18,32.55z"/> <path d="M657.5,13.63c10.17,4.84,9.25,4.27,10.48,4.27C664.12,14.5,654.14,12.03,657.5,13.63z"/> <path d="M660.55,19.43c0.2-0.2,0.41-0.61,0.71-1.02c-7.83-2.61-7.62-2.79-5.31-1.64c-0.55,0.38-1.03,0.75-1.51,1.13
		C656.38,18.92,658.21,19.84,660.55,19.43z"/> <path d="M649.57,39.17c3.83,0.86,6.42-1.9,5.7-2.44c-2.34,0.61-4.58,1.12-6.82,1.73C648.85,38.66,649.16,39.08,649.57,39.17z"/> <path d="M647.63,36.32c3.15,0.2,5.29-0.81,7.12-2.75c0.1-0.2-0.1-0.51-0.1-0.92C652.41,33.88,650.28,35,647.63,36.32z"/> <path d="M631.97,97.47c-1.32,0.31-1.93,1.12-1.93,2.44c1.4,0,0.35-0.02,3.66-1.53C632.78,97.36,632.47,97.16,631.97,97.47z"/> <path d="M633.39,50.97c-0.32,0-0.3,0-0.1,0.1L633.39,50.97z"/> <path d="M628.2,46.7c0.2,1.93,1.65,3.12,3.15,4.17c0.36,0.26,1.11,0.15,1.77,0.11c-1.54-0.71-2.61-1.79-3.6-3.16
		C629.22,47.31,628.61,47.1,628.2,46.7z"/> <path d="M704.51,292.4c0.41,2.44,0.41,2.44,2.03,3.66C706.44,293.32,706.24,293.01,704.51,292.4z"/> <path d="M638.58,58.4c-1.53-2.14-2.14-3.97-3.87-5.09c0.53,1.32-0.43,0.65,2.54,4.48C637.36,57.99,637.66,57.99,638.58,58.4z"/> <path d="M658.11,21.57c1.12,0.2,1.83-0.51,2.75-0.92C660.31,19.28,660.97,19.07,658.11,21.57z"/> <path d="M670.22,15.97c-0.51-1.63-1.42-2.03-2.44-2.24C667.88,14.95,669,15.16,670.22,15.97z"/> <path d="M699.62,290.06c0.2-1.02,0.1-1.83-0.92-2.44C698.4,288.84,698.91,289.45,699.62,290.06z"/> <path d="M631.76,17.19c0-0.28,0.33-0.2-2.75-0.2C629.01,17.57,628.74,17.19,631.76,17.19z"/> <path d="M620.67,20.96c-1.42,0.51-1.42,0.51-1.83,2.44C619.35,22.58,620.57,22.28,620.67,20.96z"/> <path d="M650.69,168.07c0.2,0.2,0.51,0.51,0.92,1.02c0.31-0.51,0.51-0.81,0.51-1.02C651.66,167.17,651.14,167.62,650.69,168.07z"/> <path d="M651.5,74.68c0.41,1.22,0.51,1.73,0.71,2.34C652.72,76.2,652.62,75.59,651.5,74.68z"/> <path d="M694.43,141.62c-0.1,0.1-0.2,0.1-0.31,0.1c0,0.61,0.1,1.22,0.1,1.83C695.12,142.67,694.61,142.16,694.43,141.62z"/> <path d="M628.1,46.8l0.1-0.1C628.04,46.66,628.1,46.59,628.1,46.8z"/> <path d="M628.09,46.66c-0.04-1.03-0.45-1.7-1.52-1.99C626.96,45.45,627.17,46.31,628.09,46.66z"/> <path d="M673.48,40.8c0.3,0.6,1.68,0.3,1.42-0.71c-0.31,0.1-0.81,0.1-1.22,0.2C673.58,40.29,673.37,40.69,673.48,40.8z"/> <path d="M636.14,141.21c-0.41-0.31-0.61-0.61-0.81-0.71c-0.1-0.1-0.51,0.2-0.51,0.31C635.23,142.06,635.23,141.67,636.14,141.21z"/> <path d="M703.18,296.57c-0.46-0.92-0.44-0.41-0.92-0.41C702.73,297.09,702.7,296.57,703.18,296.57z"/> <path d="M646.51,7.22c0.41-0.1,1.02-0.1,1.83-0.1C647.43,6.31,646.92,6.61,646.51,7.22z"/> <path d="M614.26,17.4c0.51-0.1,1.02-0.1,1.83-0.2C615.08,16.58,614.67,16.79,614.26,17.4z"/> <path d="M651.91,26.35c-0.81,0-1.32-0.1-1.83-0.1C650.58,26.65,651.09,26.96,651.91,26.35z"/> <path d="M607.04,31.74c0,0.81,0,1.32,0,1.93C607.34,33.06,607.85,32.55,607.04,31.74z"/> <path d="M671.64,199.41c0.2,0,0.41-0.1,0.61-0.1c-0.54-0.54,0.01-0.51-0.81-0.1C671.54,199.21,671.54,199.41,671.64,199.41z"/> <path d="M648.55,166.34c-0.58-0.29-0.07-0.63-0.92-0.2C647.86,166.59,647.87,166.68,648.55,166.34z"/> <path d="M632.98,137.86c0.39,0,0-0.54,0-0.71C632.6,137.14,632.87,137.62,632.98,137.86z"/> <path d="M649.06,67.35v-0.31C648.94,67.29,648.93,67.22,649.06,67.35z"/> <path d="M634.81,53.21c-0.14-0.04-0.07-0.07-0.1,0.1L634.81,53.21z"/> <path d="M634.72,53.18c0.05-0.55-0.15-1.01-0.72-1.29C634.1,52.37,633.93,52.95,634.72,53.18z"/> <path d="M626.67,44.66l0.1-0.1C626.65,44.52,626.72,44.46,626.67,44.66z"/> <path d="M626.69,44.52c0.08-0.63,0.02-1.1-0.73-1.38C626.06,43.62,626.07,44.19,626.69,44.52z"/> <path d="M635.51,42.37c-0.2,1.75,0.86,1.03,0.63,1.37C636.41,43.93,636.41,42.81,635.51,42.37z"/> <path d="M635.53,42.22l-0.1,0.1C635.55,42.36,635.48,42.45,635.53,42.22z"/> <path d="M625.56,42.63c0.84,0.84,0.28,0.23,0.1-0.31C625.56,42.42,625.56,42.63,625.56,42.63z"/> <path d="M635.02,41.61c-0.3,0.3,0.02,0.37,0.51,0.61C635.32,42.12,635.22,41.81,635.02,41.61z"/> <path d="M637.36,32.55c0.1,0,0.2-0.1,0.31-0.1c-0.34-0.11-0.54-0.19-0.66-0.24C637.12,32.28,637.28,32.4,637.36,32.55z"/> <path d="M637,32.21C636.85,32.13,636.77,32.12,637,32.21L637,32.21z"/> <path d="M635.66,26.9c0.16,0.76,0.81,0.77,1.39,0.67C636.77,27,636.22,27.05,635.66,26.9z"/> <path d="M635.54,26.85c-0.01,0-0.01,0-0.02,0c0.05,0.02,0.1,0.03,0.14,0.05C635.62,26.71,635.65,26.74,635.54,26.85z"/> <path d="M635.52,26.85C635.12,26.72,634.52,26.74,635.52,26.85L635.52,26.85z"/> <path d="M649.16,25.94c0.13,0,0.3,0.2,1.02,0.2C649.67,26.15,650.11,25.46,649.16,25.94z"/> <path d="M667.78,13.63c-0.25,0-0.42-0.31-1.02-0.31C667.1,14.01,667,13.63,667.78,13.63z"/> <path d="M655.87,12.82c0.14,0,0.27,0.2,0.92,0.2C656.44,12.84,656.35,12.34,655.87,12.82z"/> <path d="M637.56,40.29c-0.2,0-0.41-0.1-0.61-0.2C637.05,40.39,636.95,40.8,637.56,40.29z"/> <path d="M683.34,36.73c-0.09,0.17-0.17,0.28-0.26,0.45l-0.04-0.04c0,0.1-0.02,0.14,0.1,0.1C683.01,37.11,683.82,37.32,683.34,36.73
		z"/> <path d="M634.1,51.78c-0.2-0.31-0.51-0.51-0.92-0.61C633.69,51.51,633.88,52,634.1,51.78z"/> <path d="M654.55,15.97l-0.1-0.1C654.58,16.13,654.55,16.12,654.55,15.97z"/> <path d="M614.16,17.29c-0.05,0.05-0.07,0.12-0.09,0.19C614.12,17.47,614.16,17.42,614.16,17.29z"/> <path d="M613.96,17.7c0.05-0.05,0.08-0.13,0.11-0.21C613.93,17.53,613.96,17.4,613.96,17.7z"/> <path d="M650.18,23.3C649.77,22.99,650.18,23.4,650.18,23.3L650.18,23.3z"/> <path d="M660.55,23.91c-0.13,0.13-0.08,0.13-0.2,0c-0.03,0.05-0.02,0.1,0.1,0.1l-0.1,0.1C660.48,24.11,660.43,24.15,660.55,23.91z"/> <path d="M700.84,292.4c0.1-0.1,0.2-0.2,0.31-0.31C700.56,292.1,700.65,292.21,700.84,292.4z"/> <path d="M660.05,27.37c-0.28,0.28-0.24,0.2-0.1,0.2C660.05,27.57,660.05,27.47,660.05,27.37z"/> <path d="M659.74,27.67c0.03-0.03,0.06-0.06,0.09-0.09C659.78,27.59,659.74,27.61,659.74,27.67z"/> <path d="M654.45,27.57c0,0.1-0.1,0.2-0.1,0.31C654.45,27.87,654.45,27.77,654.45,27.57z"/> <path d="M659.64,27.57c-0.31,0.2-0.51,0.41-0.81,0.61l0.1,0.1C659.13,28.18,659.44,27.87,659.64,27.57z"/> <path d="M658.82,28.28c-0.32,0.48-1.12,1.02-1.32,1.63C657.83,29.43,658.62,28.89,658.82,28.28z"/> <path d="M674.19,201.44c-0.63-0.63-0.09-0.01-0.31,0.2C673.98,201.65,674.09,201.55,674.19,201.44z"/> <path d="M665.64,273.48c1.36-11.98,3.57-14.11,2.54-16.99c-0.2,0-0.71,0.14-0.71,0.31c-4.96,18.77,0.5,16.79-7.73,16.28
		c1.53,1.63,3.87,0.61,5.49,1.93c0.31,0.31,1.32-0.1,2.03-0.1c0.83,0,1.56,0.13,1.77,0.12c0.59,0.31,1.1,0.78,1.9-0.02
		c-0.61,0-1.22,0-1.83,0C669.08,274.92,668.17,274.56,665.64,273.48z"/> <path d="M641.73,452.44c4.63-17.36,3.88-15.03,2.75-15.97c-1.83,5.49-3.87,10.58-3.15,16.28
		C641.53,452.54,641.73,452.54,641.73,452.44z"/> <path d="M639.6,554.38c-0.51,0-0.92,0.71-0.61,1.12c3.79,6.01,3.71,6.33,4.58,5.9c0.83-0.41,0.09-1.52-3.26-6.82
		C640.21,554.38,639.8,554.48,639.6,554.38z"/> <path d="M667.07,408.49c5.92-8.14,4.93-5.93,4.68-8.14C668.19,403.73,665.21,408.49,667.07,408.49z"/> <path d="M642.55,309.8c-0.1,0.1-0.1,0.41-0.2,0.71c2.75,0.71,4.99-0.2,7.83-2.03C647.65,308.48,648.61,308.11,642.55,309.8z"/> <path d="M665.23,280.9c-1.45,0.87-0.32,1.01-5.49,0.61c1.67,1.43,3.66-0.54,5.49,2.34c0.61-1.53,2.14-0.61,3.15-1.22
		C666.15,282.12,666.15,282.12,665.23,280.9z"/> <path d="M659.33,430.87c-0.31,2.34-0.2,4.68,1.53,6.61C660.96,435.14,660.76,432.8,659.33,430.87z"/> <path d="M638.68,547.06c-0.71,3.15-0.71,3.76,0.31,5.6C640.1,550.62,640,548.69,638.68,547.06z"/> <path d="M639.7,536.27c0-0.71,0-1.42,0-2.85C638.27,535.46,638.27,535.56,639.7,536.27z"/> <path d="M640.51,473.5c0-1.64,0.13-2.14-0.51-2.14C639.27,471.36,638.78,472.88,640.51,473.5z"/> <path d="M641.73,459.87c-1.12,1.32-1.32,2.24-0.81,3.36C641.83,462.41,642.14,461.49,641.73,459.87z"/> <path d="M639.6,542.78c0-0.71,0-1.32,0-2.85C638.48,542.07,638.48,542.07,639.6,542.78z"/> <path d="M639.9,480.21c0.2-0.2,0.41-0.51,0.71-0.81c-0.41-0.31-0.61-0.51-0.81-0.61C639.26,480.39,639.55,479.52,639.9,480.21z"/> <path d="M665.74,410.62c-0.92,0.92-0.92,0.92-0.71,2.24C665.95,411.95,665.95,411.95,665.74,410.62z"/> <path d="M639.39,526c-0.61,1.53-0.71,2.65,0.2,4.27C640,528.74,640.31,527.52,639.39,526z"/> <path d="M664.22,307.15c0.27,0,0.2,0.32,0.2-2.14C664.15,305.02,664.22,304.7,664.22,307.15z"/> <path d="M664.42,289.45c0-0.61,0-1.32,0.1-1.93C664.38,287.52,664.42,287.24,664.42,289.45z"/> <path d="M662.28,420.29c0.81-0.51,0.92-1.02-0.31-2.03C661.98,419.27,661.47,419.88,662.28,420.29z"/> <path d="M644.68,431.58c0.61-0.61,0.51-1.22-0.1-2.03C644.17,430.36,643.87,430.97,644.68,431.58z"/> <path d="M659.74,281.41c-0.41-0.1-0.81-0.2-0.51-0.1C658.82,281.31,659.33,281.31,659.74,281.41z"/> <path d="M693.42,192.19c-1.66,3.99,0.16,1-3.97,8.14c1.53-0.34,1.51,0.4,4.27-4.78c0.31-0.71,0.31-1.63,0.41-2.44
		C694.13,192.69,694.23,192.08,693.42,192.19z"/> <path d="M683.45,308.98c2.71-1.5,2.54-6.41,0.92-8.04c-1.06-1.06-2.77-1.76-3.26-0.31C683.85,303.19,683.95,303.59,683.45,308.98z"/> <path d="M277.7,450.71c2.7-7.08,1.38-17.61-0.31-14.24c-0.52,1.04-0.54,0.13-0.2,12.21C277.3,449.39,277.5,450,277.7,450.71z"/> <path d="M275.57,558.76c0.31-2.95-1.83-4.48-3.05-6.21c0-2.95,0-5.8,0-9.05c-1.63,1.02-1.44,2.14-1.53,3.26
		c-0.24,3.15-0.13,6.43,1.73,9.16C273.42,556.93,273.84,558.35,275.57,558.76z"/> <path d="M299.78,443.08c0-4.84,0.06-8.95-1.53-12.82c-0.1-0.2-0.51-0.41-1.02-0.92C299.57,444.49,296.78,444.58,299.78,443.08z"/> <path d="M277.5,462.41c0.51-1.12,0.51-2.24,0.1-3.76C275.94,459.64,276.26,462.04,277.5,462.41z"/> <path d="M273.84,521.72c0.31-1.42,0.81-2.54,0-3.76C272.62,518.98,272.62,518.98,273.84,521.72z"/> <path d="M274.55,470.24c0.77-1.15,0.95-0.62,0.51-1.93c-0.1-0.2-0.61-0.31-0.61-0.2C273.67,469.67,273.81,469.5,274.55,470.24z"/> <path d="M272.31,536.17c-0.81,1.32-0.81,2.54-0.1,3.76C272.72,538.71,273.02,537.49,272.31,536.17z"/> <path d="M273.13,527.01c-0.92,0.92-0.51,1.63-0.1,2.44C273.63,528.74,273.94,527.93,273.13,527.01z"/> <path d="M272.82,476.14c0,0.61,0,1.22,0,1.83C274.14,476.86,274.14,476.86,272.82,476.14z"/> <path d="M295.41,422.83c-0.2,1.02-0.2,1.63,0.41,2.44C296.12,424.46,296.32,423.75,295.41,422.83z"/> <path d="M292.25,416.93c-0.15,0.08-0.34-0.03,0,1.32C292.25,418.36,293.51,418.82,292.25,416.93z"/> <path d="M294.39,399.43c0-1.92,0.1-1.63-0.31-1.63C294.41,399.45,293.92,399.43,294.39,399.43z"/> <path d="M344.55,466.78c-0.61,3.87-0.51,4.58,1.32,6.61c2.34-0.61,0.61-2.75,1.53-3.87c2.75-1.57,1.93-0.78,1.93-1.83
		C348.59,467.61,345.51,467.03,344.55,466.78z"/> <path d="M364.59,363.92c-0.51,1.53-0.99-0.73,1.63,10.48c0,0.1,0.41,0.2,0.71,0.41c0.51-3.46-0.1-6.71-1.22-9.97
		C365.61,364.43,365,364.23,364.59,363.92z"/> <path d="M353.91,367.28c-0.71-0.21-1.63,0-2.54,0c0.81,1.12,0.81,1.12,1.42,1.42c6.08,1.84,10.71-0.2,9.26-0.2
		C359.5,367.28,356.56,368.07,353.91,367.28z"/> <path d="M370.29,283.14c-0.2,0.1-0.61,0.1-0.61,0.31c-0.76,2.53-0.49,7.93,1.73,9.36C370.39,282.3,371.06,283.92,370.29,283.14z"/> <path d="M362.86,324.55c-0.71,2.75-0.51,4.99,1.63,6.82C363.76,324.47,364.18,325.87,362.86,324.55z"/> <path d="M369.17,377.35c-1.32,2.54-1.12,3.87,0.31,4.99c0.81-1.22,0.51-2.54,0.41-3.76C369.88,378.17,369.47,377.86,369.17,377.35z
		"/> <path d="M355.64,370.84c-0.71,0-1.42,0.2-1.42,1.22c1.32,0.31,2.65,0.71,3.97-0.31C357.47,370.54,356.55,370.74,355.64,370.84z"/> <path d="M354.62,282.53c-0.55,0.55-1.07,2.26,0.61,2.44c0-0.41,0.2-0.92,0.31-1.32C355.54,282.84,354.93,282.23,354.62,282.53z"/> <path d="M352.08,279.38c-0.61,1.02-0.41,1.63,0.61,1.93C353.2,280.4,353.2,279.68,352.08,279.38z"/> <path d="M369.17,337.88c-0.2-0.31-0.31-0.51-0.41-0.71c-0.2,0.2-0.51,0.31-0.71,0.51C368.39,338.53,368.42,338.13,369.17,337.88z"/> <path d="M373.34,295.66c-0.32,0.32-0.23,0.28,0.41,0.92C374.24,296.08,374.04,296.71,373.34,295.66z"/> <path d="M376.09,300.85c0.76,0.38,0.74,0.46,1.02-0.1c-0.2-0.2-0.51-0.31-0.71-0.51C376.29,300.44,376.19,300.54,376.09,300.85z"/> <path d="M366.12,331.98c-0.47,0.47-0.83,0.39,0,1.22C366.33,332.76,366.89,333.13,366.12,331.98z"/> <path d="M341.19,284.97c0.1,0,0.2-0.1,0.31-0.1c0-0.1-0.1-0.1-0.1-0.2C341.39,284.77,341.29,284.87,341.19,284.97z"/> <path d="M401.35,232.35C401.46,232.23,401.41,232.27,401.35,232.35L401.35,232.35z"/> <path d="M412.51,233.9c-0.81-2.34-2.54-4.27-2.54-7.43c2.55,2.55,3.88,4.48,6.18,5.03c-2.29-2.7-4.47-5.5-5.87-8.89
		c-1.46-5.84,2.96,4.43,7.12,5.9c-11.1-13.87-7.73-12.33-10.89-14.85c-1.02,0.41-1.73,0.91-2.54,1.02
		c-3.46,0.46-4.78,4.76-4.78,8.04c0,9.82-2.96,5.78,0,20.55c-5.75-6.34-5.19-12.17-5.19-21.06c-4.01,13.59,2.62,18.64,1.12,20.14
		c-2.44-3.56-4.37-7.33-4.78-11.7c-1.22,0.2-1.01,1.02-0.92,1.73c1.09,8.17,1.93,7.26,4.07,10.68c-7.43,0.78-4.67-16.72-5.39-20.55
		c-1.96,6.79-3.08,22.14,5.09,22.28c0.71,0.01,1.42,0,2.03,0c7.41,6.48,3.91-0.89,6.71,8.55c0.3,1.02-0.71,1.93-0.1,3.05
		c5.27-3.95,0.63-3.02,1.93-6.92c1.02,0,1.93,0,3.05,0c1.2,2.41,3.77,9.07-0.2-3.97c-0.1,1.02-0.2,2.03-0.31,3.05
		c-2.44-0.41-4.12-1.42-4.48-3.87c-0.08-0.52-2.51-5.34-0.61-12.11c0-0.07,0.07-0.16,0.13-0.23c-0.01,0.01-0.01,0.02-0.03,0.03
		c0.2-1.22-0.31-2.65,1.12-3.76c0.31,0.41,0.71,0.82,0.81,1.22c1.25,4.7,3.6,9.05,4.58,13.84c0.2,0.98,0.4,2.04,1.4,2.57
		c-0.11-1.64-2.32-10.61-2.42-10.71c-1.73-2.03-2.03-4.68-2.95-6.92c-0.51-0.41-1.12-0.81-1.73-1.22c4.1-11.49-0.5-3.47,3.56-11.09
		c0.05-0.14,1.85-1.55,1.22,1.42c-1.26,6.02,0.71,10.99,4.37,15.57C411.49,233.7,412.1,233.7,412.51,233.9z M401.62,220.98
		c-0.2,0.31-0.51,0.51-0.81,0.92c-0.61-2.03,0.14-3.64,1.22-5.19c0.21-0.3,0.71-0.31,1.12-0.51
		C403.7,216.75,404.01,216.55,401.62,220.98z"/> <path d="M409.25,246.41l0.1-0.1C409.22,246.24,409.21,246.17,409.25,246.41z"/> <path d="M416.38,231.56c-0.3-0.07-0.28-0.12-0.1,0.1L416.38,231.56z"/> <path d="M422.79,239.19C422.71,239.09,422.6,239.01,422.79,239.19L422.79,239.19z"/> <path d="M421.97,237.56l0.1,0.1C422.05,237.61,422.1,237.56,421.97,237.56z"/> <path d="M425.63,239.09c0,0.03,0.02,0.05,0.02,0.08C425.8,239.22,425.71,239.09,425.63,239.09z"/> <path d="M422.68,239.19l-0.1-0.1C422.58,239.15,422.63,239.17,422.68,239.19z"/> <path d="M437.76,231.88c0.47,0,0.42,0.01,0.32-0.05C438.26,231.58,437.94,231.75,437.76,231.88z"/> <path d="M434.89,230.75c-1.63,0.61-3.15,1.63-5.39,0.71c1.32-0.31,2.14-0.51,2.95-0.71c-7.4-1.08-10.6-4.54-14.14-6.31
		c0.22,1.42,0.45,1.31,10.89,8.14c1.11,0.73,6.24,0.89,8.57-0.7C436.67,231.92,435.63,232.02,434.89,230.75z"/> <path d="M447.61,248.35c0.81,0.1,1.22,0.2,1.63,0.2c2.6-0.43,1.8-0.64,2.44,0c-0.19,2.87-4.92-1.54,0.41,4.37
		c1.02-1.22,2.16-2.12,2.85-3.36c0.84-1.51,2.95-0.51,3.66-2.14C454.94,246.62,451.38,246.11,447.61,248.35z"/> <path d="M423.6,267.27c-4.45-4.12-3.79-8.4-3.46-12.41C413.65,266.4,432.17,275.21,423.6,267.27z"/> <path d="M433.98,224.95c-0.71-0.51-1.73-0.71-2.54-1.12c1.12,1.83,3.26,2.75,4.58,4.27c-0.2,0.92-1.63,0.2-1.53,1.42
		c1.93-0.2,3.87-0.1,5.6-1.02c-0.2-0.51-0.71-1.12,0.1-1.63c0.07,0,0.04-0.1,0.02-0.19C437.8,227.06,435.9,226.34,433.98,224.95z"/> <path d="M455.55,223.01c-0.42-0.42-0.62-0.39-0.2-0.81c0,0.1,0.1,0.2,0.1,0.31C455.44,222.71,455.44,222.91,455.55,223.01
		c1.48,0,0.38,1.94,4.58,2.14c-0.5-1.24,0.04-0.95-3.97-3.97c-0.93-0.7-1.93-1.42-3.46-1.32
		C455.5,225.47,454.92,225.52,455.55,223.01z"/> <path d="M452.49,240.82c2.54,1.73,5.7,1.73,8.24,3.05c0.1,0.1,0.31-0.2,0.51-0.31C458.6,240.92,457.58,240.51,452.49,240.82z"/> <path d="M431.94,210.3c-7.53-1.73-10.78-1.93-14.35-0.51C429.34,209.79,428.41,211.03,431.94,210.3z"/> <path d="M425.13,237.36c-0.42-0.14-1.02,0.46-1.02,0.2c0,0.25-1.14-1.62-2.44-3.36c-1.52,0.51-2.2,0.76-7.02,2.75
		c-0.31,0.81-0.61,1.73-0.81,2.54c-0.2,0.41-0.51,0.71-0.92,1.42c-0.51-1.83-1.02-3.26-1.42-4.68c-0.62,3.71,1.06,3.95,0,7.12
		c-0.1,0.1,0.2,0.31,0.31,0.51c0.51-0.41,1.02-0.81,1.73-1.32c0.92,2.14,1.66,3.98,1.12,6.1c-1.52,5.96,5.37,3.2,4.17,0.81
		c-1.22-0.71-1.63,1.32-2.85,0.71c0.71-3.54,0.59-2.5,0.22-6.65c1.17,0.85,1.05,2.35,1.81,3.4c3.05-0.71,3.05-0.71,2.75-2.95
		c2.87-2.46,2.3-0.3,1.84-4.83c-0.61-0.33-0.62-1-0.72-1.58c0.48,0.48-0.72-1.2-1.93-0.83c1.55-1.73,1.73-0.42,2.13,0.86
		c0.7,0.24,0.63,1,0.72,1.59c1.09,0.99,2.17,1.97,3.15,2.96c1.02,0,1.83,0,2.03-1.12c-0.6-0.79-2.06-0.53-2.32-1.85
		c-1.3-0.27-1.35-0.33-1.54-1.51c0.77,0.01,1.26,0.58,1.57,1.42c2.92,0.38,3.98,1.07,5.84-0.11c0.2-0.1,0.2-0.51,0.71-1.42
		C429.5,238.58,427.36,237.97,425.13,237.36z M415.98,243.07c-0.6-0.98-0.95-4.04,0.77-4.78
		C416.37,239.85,415.61,241.42,415.98,243.07z M421.06,238.07c-2.39,3.76-1.52,0.58,0.92,3.56c-2.54,1.02-2.54,1.02-3.36,2.65
		C415.22,240.04,418.06,239.32,421.06,238.07z"/> <path d="M430.82,234.51c-4.53,0.91-4.88,0.13-5.39,1.02c1.51,1.13,5.64,0.97,7.53-0.92C431.94,233.9,431.33,234.31,430.82,234.51z"/> <path d="M438.76,220.17c-0.53,0-0.99,0.07-1.42,0.09c2.37,2.12,3.58,3.84,6,2.35c-1.32-0.81-2.34-1.93-3.87-2.44
		C439.29,220.44,439.02,220.45,438.76,220.17z"/> <path d="M437.23,220.16l-0.1,0.1C437.37,220.27,437.36,220.26,437.23,220.16z"/> <path d="M444.66,219.25c-0.22,0.22,2.22,3.55,5.19,4.88C448.22,221.49,447.61,220.88,444.66,219.25z"/> <path d="M418.61,265.64c-2.34,0.51-3.56,1.12-5.9,3.36C416.99,267.37,417.19,267.37,418.61,265.64z"/> <path d="M405.59,244.28c-0.71-1.53-1.32-3.15-1.93-4.68C401.47,235.23,404.08,245.79,405.59,244.28z"/> <path d="M397.35,252.93c-0.31,1.53-0.51,2.65,1.02,4.27C398.37,253.17,398.71,254.29,397.35,252.93z"/> <path d="M440.18,215.79c4.6,4.6,4.32,3.62,4.48,3.46C443.54,217.62,442.12,216.4,440.18,215.79z"/> <path d="M438.86,224.64c1.12,0.41,2.34,0.71,3.87,0C441.38,224.45,441.59,224.3,438.86,224.64z"/> <path d="M402.84,238.27c0.03-1.25,0.25-2.49-0.71-3.46C402.33,235.89,401.78,237.27,402.84,238.27z"/> <path d="M402.84,238.48l0.1-0.1C402.83,238.29,402.84,238.16,402.84,238.48z"/> <path d="M387.99,217.72c-0.61,1.02-0.92,1.63-1.22,2.24C387.69,219.86,387.99,219.15,387.99,217.72z"/> <path d="M416.68,211.62c-1.32-0.2-2.03-0.2-2.75-0.31C414.55,211.92,415.26,211.92,416.68,211.62z"/> <path d="M400.91,206.33c-1.78,0.36-1.63-0.14-1.63,0.61C401.06,206.58,400.91,207.08,400.91,206.33z"/> <path d="M412.41,234c0.03,0.02,0.06,0.04,0.09,0.06C412.55,233.82,412.51,233.9,412.41,234z"/> <path d="M412.5,234.06c-0.11,1.01,0.56,1.59,1.33,2.08C413.83,235.16,413.26,234.47,412.5,234.06z"/> <path d="M439.17,230.44c-0.44,0.53-0.72,0.91-0.99,1.25C438.65,231.59,439.17,231.57,439.17,230.44z"/> <path d="M402.23,234.71c-0.32-0.56-0.51-1.18-0.63-1.76C401.58,233.59,401.6,234.25,402.23,234.71z"/> <path d="M401.62,232.37l-0.1,0.1C401.61,233.12,401.62,233.14,401.62,232.37z"/> <path d="M441.4,227.69l0.31,0.1C441.71,227.53,441.79,227.57,441.4,227.69z"/> <path d="M452.09,222.91c0.71-0.81,0.41-1.12-0.2-1.32C451.99,221.89,451.99,222.3,452.09,222.91z"/> <path d="M386.67,221.28c0-0.61,0-0.92,0-1.32C386.57,220.27,386.06,220.57,386.67,221.28z"/> <path d="M394.5,220.06h-0.1C394.4,220.45,394.36,220.49,394.5,220.06z"/> <path d="M413.22,211.11c0.31,0.1,0.51,0.1,0.71,0.1C413.73,211.21,413.43,211.11,413.22,211.11z"/> <path d="M447.61,209.58c0.2,0.1,0.41,0.2,0.71,0.2C448.12,209.69,447.81,209.69,447.61,209.58z"/> <path d="M439.47,220.16l0.1-0.1C439.27,220.06,439.32,220.05,439.47,220.16z"/> <path d="M438.76,220.17c0.15-0.08,0.37-0.09,0.59-0.09C438.61,219.55,438.76,219.42,438.76,220.17z"/> <path d="M438.66,219.55c0.12,0.06,0.1,0.15,0.1-0.1L438.66,219.55z"/> <path d="M450.46,220.06c-0.2-0.2-0.41-0.51-0.71-0.71C449.65,219.45,449.45,219.39,450.46,220.06z"/> <path d="M409.46,246.41c0.03,0.03,0.07,0.06,0.11,0.08C409.54,246.45,409.51,246.41,409.46,246.41z"/> <path d="M409.57,246.49c0.02,0.04,0.05,0.08,0.09,0.13C410.05,246.62,409.78,246.6,409.57,246.49z"/> <path d="M451.07,220.59c-0.01-0.37-0.27-0.53-0.71-0.53C450.62,220.24,450.88,220.42,451.07,220.59z"/> <path d="M451.07,220.78l0.1-0.1C451.01,220.52,451.09,220.62,451.07,220.78z"/> <path d="M451.99,221.49c-0.09-0.38-0.28-0.64-0.7-0.61C451.29,221.31,451.42,221.58,451.99,221.49z"/> <path d="M451.28,220.88c0-0.15,0-0.11-0.11,0C451.21,220.87,451.24,220.88,451.28,220.88z"/> <path d="M416.02,222.15c-0.1-0.1-0.05-0.06-0.05,0.05C417.66,223.89,416.12,222.05,416.02,222.15z"/> <path d="M416.78,223.12c0.04-0.01,0.07,0,0.11-0.01C416.9,222.98,416.89,223.01,416.78,223.12z"/> <path d="M417.6,223.73c-0.09-0.47-0.28-0.66-0.7-0.62C416.93,223.54,417.13,223.73,417.6,223.73z"/> <path d="M417.5,223.83c0.04-0.01,0.06,0,0.1-0.01C417.6,223.69,417.62,223.7,417.5,223.83z"/> <path d="M417.6,223.82c-0.04,0.44,0.24,0.62,0.71,0.62C418.31,223.97,418.03,223.77,417.6,223.82z"/> <path d="M428.48,225.25l-0.1-0.2C428.49,225.38,428.48,225.42,428.48,225.25z"/> <path d="M430.62,226.68c0.14-0.14,0.21-0.19-0.65-0.77c0.12-0.12-0.69-0.39-1.49-0.55C430.34,226.1,429.9,225.95,430.62,226.68z"/> <path d="M440.23,226.63c0.1-0.1,0.06-0.05-0.05-0.05c-0.13,0-0.13-0.03,0,0.1l0.01-0.01c0,0,0,0.01,0.01,0.02
		C440.31,226.69,440.34,226.73,440.23,226.63z"/> <path d="M431.43,227.39c-0.31-0.2-0.51-0.51-0.81-0.71C430.95,227.17,431.25,227.57,431.43,227.39z"/> <path d="M413.83,236.14l-0.1,0.1C415.18,237.21,414.63,236.94,413.83,236.14z"/> <path d="M415.97,231.76c0.27,0.13,0.24,0.16,0.1-0.1L415.97,231.76z"/> <path d="M440.29,215.69l-0.2-0.2C440.21,215.87,440.15,215.82,440.29,215.69z"/> <path d="M438.76,219.35C438.45,219.25,438.66,219.45,438.76,219.35L438.76,219.35z"/> <path d="M303.75,266.56c-1.9,1.46-2.75,2.85-3.05,5.19C307.45,266.68,305.17,265.47,303.75,266.56z"/> <path d="M294.08,283.45c1.12-1.02,1.32-1.83,0.92-2.95C293.47,281.11,293.68,282.02,294.08,283.45z"/> <path d="M293.78,265.54c0.2-0.81,1.22-1.32,0.51-2.75C292.96,264.52,292.86,265.03,293.78,265.54z"/> <path d="M260.71,283.65c0-1.23-2.2-0.27-1.32,0.61C259.9,284.57,260.51,284.26,260.71,283.65z"/> <path d="M297.65,277.14c0.61,0.31,1.05-0.74,1.32-1.42c-0.2-0.1-0.41-0.31-0.71-0.51C297.85,275.75,296.83,276.73,297.65,277.14z"/> <path d="M287.47,276.94c0.33-1.31,0.65-1,0.1-1.73c-0.6,0.2-1.16,0.28-0.81,1.32C286.76,276.63,287.06,276.73,287.47,276.94z"/> <path d="M289.91,268.7c-0.71,1.12-0.71,1.12,0.1,2.44C290.52,270.12,290.73,269.31,289.91,268.7z"/> <path d="M256.64,287.92c-0.2-0.41-0.31-0.61-0.41-0.71c-0.31,0.2-0.71,0.41-1.02,0.71C255.62,288.59,255.38,288.56,256.64,287.92z"/> <path d="M333.46,273.07c-2.34-0.41-4.68-0.61-7.02,0.1C328.78,273.58,331.12,273.48,333.46,273.07z"/> <path d="M312.5,273.07c-0.39-0.39-0.24-0.2-0.51-0.2c0.1,0.1,0.1,0.2,0.2,0.31S312.4,273.07,312.5,273.07z"/> <path d="M222.76,304.61c34.37,5.8,28.99,2.36,13.23,0.51C222.88,303.58,222.88,303.46,222.76,304.61z"/> <path d="M219,298.91c11.99,1.24,9.87,1.26,12.01,1.42C242.72,301.24,222.96,298.12,219,298.91z"/> <path d="M219.41,303.19c-0.1,2.54-0.31,5.29,1.22,8.55C220.91,302.99,220.85,302.75,219.41,303.19z"/> <path d="M225.92,289.55c1.93-1.93,2.75-3.15,3.56-5.39C227.44,285.79,226.94,286.5,225.92,289.55z"/> <path d="M238.79,296.01c-1.64-1.61-2.67-2.21-4.93-2.8C235.12,294.87,236.85,295.68,238.79,296.01z"/> <path d="M242.71,298.3c-0.78-1.47-2.03-1.9-3.58-2.11C239.94,297.61,241.23,298.11,242.71,298.3z"/> <path d="M239.12,296.2c-0.14-0.19,0.03-0.09-0.34-0.18C238.98,296.2,238.92,296.16,239.12,296.2z"/> <path d="M234.57,300.64c0.51,0.51,1.02,0.71,1.83,0.1C235.68,300.74,235.18,300.64,234.57,300.64z"/> <path d="M238.33,301.56l-0.31,0.1C238.39,301.66,238.33,301.69,238.33,301.56z"/> <path d="M233.96,293.11c-0.16,0.03-0.14-0.02-0.1,0.1L233.96,293.11z"/> <path d="M233.82,293.13c-0.22-0.72-0.81-0.72-1.5-0.53C232.7,293.08,233.18,293.28,233.82,293.13z"/> <path d="M244.77,299.74c0.11-0.73-0.64-0.61-0.54-0.71c-0.01,0,0.04,0-0.1,0l0.01,0.01c-0.12,0-0.04,0.01-0.01,0.09
		C244.23,299.01,244.52,299.36,244.77,299.74z"/> <path d="M244.08,299.03c-0.31-0.63-0.79-0.82-1.48-0.63C242.98,299.06,243.45,299.11,244.08,299.03z"/> <path d="M245.05,299.93c-0.08,0-0.19,0-0.31,0C245.05,299.93,245.35,300.13,245.05,299.93z"/> <path d="M232.33,292.5l0.1-0.1C232.28,292.35,232.39,292.35,232.33,292.5z"/> <path d="M232.35,292.37c0.07-0.38-0.21-0.56-0.56-0.66C231.76,292.11,232.03,292.28,232.35,292.37z"/> <path d="M231.36,291.58c-0.12-0.04-0.23-0.08-0.26-0.09C231.2,291.53,231.28,291.56,231.36,291.58z"/> <path d="M231.36,291.58c0.19,0.06,0.42,0.13,0.43,0.13C231.79,291.43,231.74,291.66,231.36,291.58z"/> <path d="M225.82,289.45c-0.13,0.27-0.16,0.24,0.1,0.1L225.82,289.45z"/> <path d="M244.74,299.93l0.1-0.1C244.73,299.66,244.79,299.72,244.74,299.93z"/> </g> </svg> 