<?xml version="1.0" encoding="utf-8"?> <!-- Generator: Adobe Illustrator 23.0.1, SVG Export Plug-In . SVG Version: 6.00 Build 0)  --> <svg version="1.2" baseProfile="tiny" id="Layer_1" xmlns="http://www.w3.org/2000/svg" xmlns:xlink="http://www.w3.org/1999/xlink" x="0px" y="0px" viewBox="0 0 900 600" xml:space="preserve"> <g> <path d="M788.54,488.95c-2.36-3.12-2.4-2.8-8.75-7.25c-5.49,1.7-6.63,1.49-9.6,4.09c-8.97,7.87-4.41,3.89-20.49,5.42
		c14.01-14.83,11.33-13.32,13.58-14.46c0.46-0.23,5.85-6.38,6.41-14.93c0.38-5.85-2.54-7.36-5.56-10.21
		c-4.39-4.13-8.4-1.25-9.7-1.39c-2.45-0.26-4.3,1.14-7.04,3.16c-4.91,3.61-6.16,3.37-11.49,4.76c-9.8,2.55-15.17,3.43-24.51,2.61
		c-9.96-0.88-13.22-0.89-15.13-2.86c-15.59-67.74-11.52-64.61-21.84-89.72c3.94-6.8-8.68-33.33-11.22-34.19
		c-2.72-0.92,0.71-2.29-7.34-6.37c-1.14-4.13-6.82-11.15-11.07-10.43c-0.6,0.1-8.53-1.12-15.68-1.89
		c-9.34-1.01-13.18,0.54-25.4,3.84c-47.54,12.82-58.66,14.99-108.84,48.73c-3.33,2.24-2.75-0.49-5.56,2.59
		c-7.7,8.4-17.13,9.47-23.75,19.59c-3.77,0.31-2.48-0.6-5.58,2.65c-3.38,0.96-14.76,5.04-16.56,7.42c-1.57,2.08-3.75,2.71-9.18,5.42
		c-36,17.99-16.59,14.74-64.93,29.2c-2.55,0.76-2.12-0.86-4.37,0.65c-3.76,2.53-10.13,7.31-21.02,11.59
		c-1.57,0.62-0.51,0.73-8.54-2.86c-0.98-0.44-2.15-0.65-2.94-1.31c-2.29-1.91-5.13-1.81-7.77-2.45c-1.17-0.28-2.54-0.38-3.45,0.47
		c-2.06,1.9-18.47,5.84-25.8,21.5c-1.52,3.24-15.87,44.04-17.29,45.09c-4.17,0.59-12.61-2.83-20.03-3.42
		c-3.19-0.25-1.72-2.88-1.72-2.99c1.7-2.58,2.08-5.51,1.85-8.61c-0.06-0.74,1.62-7.89-1.73-13.63c-1.8-3.09-3.73-2.3-10.8-1.96
		c-4.64-3.99-4.62-2.32-8.2-1.11c-1.73-2.06-2.72-3.66-5.42-2.42c-6.71,3.1-3.35-8.21-8.73-7.98c-16.07,8.38-18.22,10.58-25.82,7.27
		c-2.76-1.2-4.69-0.2-11.29,0.86c-11.09,1.78-13.67,4.69-17.37,5.57c-5.24,1.25-7.31,4.35-13.2,11.66
		c-0.68,0.84-1.33,1.72-1.71,2.72c-6.48,17.48-6.19,17.14-5.83,19.11c2.64,14.36,0.13,11.31,4.96,28.25
		c3.84,13.48,10.12,10.76,0.67,11.13c-5.44,0.21-10.23,2.33-14.75,5.16c-0.92,0.57-0.58,0.85-3.53,3.37
		c-0.66-0.36-1.18-0.64-1.74-0.94c-28.48,8.97-27.76,17.18-15.1,17.54c5.72,0.16,11.44,0.27,17.03-0.84c0.1,0-1.57-0.61-1.83-0.63
		c-3.38-0.32-13.61-1.17-13.61-1.17c-2.9-0.44-1.66-3.99,1.32-5.33c10.11-4.54,7.51-3.39,11.12-4.73c-0.28,4.64,2.41,5.81,2.58,6.89
		c0.1,0,0-0.02-0.67,1.22c2.5,3.01,18.24,3.95,22.12,4.04c13.08,0.29,18.71,3.94,40.5,1.71c6.03-0.62,24.1,1.78,29.77,1.29
		c1.75-0.15,3.26,0.5,4.46,2.05c-0.25,0.66-0.52,1.31-0.74,1.89c-4.8,1.35-9.81,0.6-14.78,2.14c0.58,0-0.34,1.24,3.89,0.79
		c20.09-2.11,20.23-2.3,23.6-2.6c3.51-0.31,1.75,1.65,10.7,2.55c3.32,0.33,6.72,0.39,10.05,0.11c8.38-0.71,3.62-12.81-8.58-16.88
		c-3.52-1.17-3.26-1.13-3.36-1.13c0.59-0.41,1.15-0.5,1.66-0.39c7.01,1.64,15.03,4.54,18.06,11.1c2.12,4.59-0.43,5.71-1.3,7.53
		c-0.52,1.09-3,0.81-3.82,2.52c3.41,0.64,7.51-1.21,13.11-3.21c1.2,1.28,0.09,2.94,0.98,4.16c1.97-1.14,1.93-1.19,2.38-7
		c-4.4-8.11-4.22-7.77-4.18-7.89c0-0.05-0.04-0.13-0.1-0.22c0.83,0.18,0.96,1.41,2.7,1.41c1.67-16.15-46.24-16.77-51.2-17.35
		c0.21-1.8,6.23-5.23,11.24-5.76c5.24-0.56,10.5-0.09,15.75-0.84c3.26-0.47,6.67,0.17,10.13,0.32
		c11.11,22.81,7.98,10.27,17.79,19.56c11.55,3.38,21.17,8.99,44.55,9.56c0.36,0.01,0.87,0.1,1.05-0.09
		c1.37-1.53,3.15-0.86,4.74-0.88c30.51-0.54,20.02-0.87,25.52-0.74c28.64,0.65,34.76,1.26,43.84-0.23c7.53-1.24,9.91,4.51,25.15,4.5
		c5.43,0,2.24,1.05,8.9,0.71c29.49-1.5,3.31-0.63,45.26-0.58c18.97,0.03,34.72-5.34,34.72-3.43c-1.13,1.93-7.02-0.22-6.94,8.57
		c0.05,5.31,0.3,8.34,15.73,8.43c11.24,0.06,12.6,1.72,26.19,1.53c5.22-0.07,8.88,0.66,12.19,0.15c5.96-0.91,1.06-7.93,8.85-6.58
		c1.65,0.29,3.27,0.93,4.7-0.57c0.72-0.76,2.22,1.23,9.33-3.59c5.49,1.69,9.89-0.51,13.49-4.55c4,0.22,3.76-2.34,4.18-3.08
		c0.65-1.14,5.53-4.36,2.18-5.94c-1.23-0.58-4.8-1.16-7.19-2.17c-6.58-2.77-9.57-2.85-15.71-3.33c-7.81-0.61-7.48-2.84-13.46-3.59
		c-5.01-0.63-3.26-3.05-7.37-3.22c-9.72-0.4-10.52-0.02-11.4-0.65c-2.85-2.02-4.62-0.63-9.31-2.14c-4.49-1.44-4.46-2.94-15.66-23.48
		c-0.3-0.55-0.59-1.72-0.64-1.78c11.34-1.5,18.66-3.45,28.35-3.09c1.89,0.07,3.81-0.31,5.7-0.55c0.31-0.04,0.59-0.37,0.84-0.53
		c1.44-3.66,1.22-2.99,1.22-3.08c12.32,0,9.82,0.31,11.72-0.91c1.58-1.01,2.81-2.48,4.81-2.95c1.02-0.24,1.89-1.4,2.63-2.31
		c1.81-2.19-1.52-3.27-1.77-3.87c-0.67-1.6-2.08-1.83-3.48-2.18c-11.57-2.88-10.65-3.31-14.25-3.32
		c-10.51-0.04-10.45-3.33-19.93-4.15c-10.51-0.91-14.06-5.23-21.41-3.33c-1.46,0.38-9.35-18.57-9.77-20.02
		c0-0.92,11.29-4.92,16.54-11.22c1.84-2.2-0.37-1.73,1.85-4.82c19.24-26.86,15.17-23.3,25.25-29.65c7.02-4.42-2.76,5.67,49.35-28.53
		c7.2-4.72,7.66-7.52,10.13-9.59c10.52-8.77,15.75-20.9,12.95-12.22c-3.24,10.03-2.55,17.32-2.78,19.5
		c-0.64,5.9,2.1,11.04,4.74,16.71c5.11,10.97-2.49-3.69,22.87,43.63c7.67,14.32,7.7,21.67,17.26,39.07
		c0.96,1.75,1.68,6.73,1.97,8.73c0.73,5.11,1.13,4.38,5.33,5.45c0.91,2.72-3.14,1.9-2.59,6.02c1.64,12.32,6.15,10.06,8.18,23.94
		c0.9,6.1,5.08,5.97,5.19,10.31c0.05,2.07,2.34,3.22,4.34,3.66c13.76,3.01,21.11-2.77,34.11-10.21c2.28-1.3,10.81-9.74,13.7-15.01
		c8.22-2.54,12.81-3.51,19.8-8.61c11.39-8.32,28.18-21.21,28.42-36.49C789.56,492.72,790.48,491.53,788.54,488.95z M112.94,573.15
		c-0.05-1.6,1.19-2.05,2.12-2.93C118.51,572.75,116.59,576.09,112.94,573.15z M706.99,464.41c1.25-0.6,2.38-0.41,3.44-0.11
		c1.01,1.19-2.34,6.62,0.61,7.62c2.47,0.83,2.58-3.3,3.47-6.85c1.19-0.58,2.18-0.47,3.3,0.15c-0.36,2.86-1.11,6.29,1.17,6.71
		c1.79,0.33,2.18-2.12,2.7-4.07c1.01-3.75,0.2-2.49,1.75-3.66c0.71,1.72-0.23,7.55,2.46,7.32c1.43-0.12,1.6-1.81,1.63-3.12
		c0.15-5.39-0.8-4.29,2.47-4.94c0.66,2.16-0.69,4.6,1.57,6.36c0.44-0.28,1.1-0.47,1.32-0.89c1.27-2.41,1.5-4.78,1.86-6.68
		c6.85-1.85,7.91-1.81,11.14-3.88c11.54-7.4,3.52-2.74,12.09-5.7c2.93,1.12,8.59,3.42,8.54,6.86
		c-0.19,12.72-19.25,28.74-22.96,33.33c-6.35,1.18-6.66,0.91-9.84,1.83c-1.46,0.42-3.08,0.3-4.62,0.46
		c-10.6,1.11-14.36-6.57-21.72-6.18c-8.2-14.73-6.77-13.08-4.98-13.04C705.91,476,706.31,468.86,706.99,464.41z M702.69,463.16
		c-0.09,4.7-2.6,11.52-3.14,9.79c-1.31-4.24-0.75-2.09-2.99-11.24C701.14,462.79,701.83,462.96,702.69,463.16z M493.6,371.31
		c25.05-12.61,44.46-31.04,103.93-46.42c5.45-1.41,2.42-1.68,6.14-2.67c24.97-6.64,19.51-6.41,43.78-1.69c1.37,1.4,2.73,3,3.87,5.32
		c-9.08-1.08-1.16-4.85-20.01-2.37c-6.98,0.92-9.1,1.3-14.96,3.64c-37.24,14.86-49.92,4.53-120.51,50.68
		C492.2,372.92,491.21,372.51,493.6,371.31z M444.32,404.11c7.58-4.56,2.17-4.24,15.13-8.15c0.92,4.76-0.49,20.26-0.7,24.3
		c-0.28,5.28,2.55,8.02,3.19,12.36c0.14,0.96-0.4-1.73,9.66,16.59c-0.88,2.48-0.88,2.48,0.63,4.72c0.48-2.09,0.46-1.86,0.38-1.94
		c-0.65-0.78,1.15,1.14,1.37,1.54c19.83,35.34,17.41,31.66,17.71,32.69c-10.04,2.71-17.72,1.29-17.83,1.3
		c-0.91,0.05-1.5,0.43-3.63,0.45c-0.99,0.01-0.92-1.13-1.59-2.09c-0.59-0.85-2.01-1.73-4.74-4.87c-2.22-2.56-0.39-2.4-7.7-16.55
		c-0.32-0.63-0.56-1.3-0.95-2.21c3.18-0.05,4.96-1.81,10.89-6.55c-1.77-0.56-9.58,4.61-11.66,4.82c-1.1-1.39-8.13-16.37-8.56-17.29
		c-2.79-6.01-4.43-12.34-5.64-18.87C439.28,418.98,440.08,406.67,444.32,404.11z M510.08,526.72c0.71-0.45,1.42-0.54,2.22-0.52
		c1.85,0.04,1.36-0.21,2.6,2.02C514.03,529.05,511.97,528.38,510.08,526.72z M516.95,531.92c4.33,7.64,8.51,15.42,12.75,23.11
		c-0.4,0.38-0.55,0.65-0.72,0.66c-3.7,0.22-7.4,0.61-11.1,0.59c-13.89-0.08-22.61,1.4-23.66,1.45c-9.63,0.44-41.08-7.31-59.15-6.65
		c-6.86,0.25-7.67-1.86-12.6-2.51c-8.96-1.19-12.58-6.54-29.35-9.05c3.16-2.04,2.02,0.76,21.06-4.43c6.39-1.74,6.38,0.1,14.27-0.61
		c8.45-0.76,24.46-0.2,29.04-0.46c9.96-0.57,43.43-9.03,49.72-7.52C507.61,530.5,511.93,530.7,516.95,531.92z M475.47,528.64
		c-11.1,2.6-14.38,3.05-17.26,2.03c-1.94-0.68-7.91,0.18-16.12,0.76c-4.34,0.31-4.02-1.03-9.65-0.08
		c-3.63,0.61-7.27,0.62-10.91,0.61c-12.81-0.02,0.07-0.45-20.27,3.3c-2.38,0.44-10.93,1.49-13.95,0.91
		c8.16-5.58,14.69-12.42,21.2-19.28c11.03-11.64-0.12-4.39,28.81-7.24c2.11-0.21,4.43-0.37,6.59-1c6.28-1.83,40.39,3.09,59.57,0.47
		c0.16-0.02,0.88,0.1,1.06,0.39c2.81,4.46,2.23,2.62,3.79,7.64c0.4,1.28,0.78-0.01,3.68,5.77
		C507.41,524.79,497.94,523.38,475.47,528.64z M459.72,505.79c-7.85-0.44-7.46-1.61-21.75,1.18c-6.74,1.31-13.52,1.72-21.02,1.04
		c0.98-1.2,1.54-2.14,2.34-2.8c16.3-13.59,13.88-12.18,32.53-15.59c4.51-0.82,22.39,3.18,26.77,1.39c2.45-1,3.41-0.72,14.9-1.05
		c1.73,1.99,7.61,12.51,9.17,16.43C495.23,508.02,486.61,507.31,459.72,505.79z M280.92,510.58c7.9-18.29,3.8-13.53,7.23-21.25
		c7.98-17.98,9.82-21.94,10.81-26.25c0.68-2.95,7.94-12.32,19.75-16.88c9.04-3.49,6.75-2.9,22.77,3.61
		c14.51-4.09,18.75-10.25,23.82-11.13c20.77-3.6,51.7-19.36,53.72-20.89c5.73-4.33,18.46-10.49,19.46-10.62
		c1.16,1.16-3.28,8.83-0.39,20.42c0.36,1.45,1.02,1.34,1.48,1.83c1.32,1.42,0.06,5.03,11.39,28.85c12.94,27.19,8,20.69,13.78,28.66
		c-0.34,0.28-0.51,0.56-0.67,0.55c-6.58-0.37-24.2-1.94-31.07,2.85c-15.3,10.67-25.6,23-29.95,26.84c-1.5,1.33-6.08-13.6-6.65-15.42
		c-2.32-7.37-3.4-8.64-7.14-16.76c0.53-1.53,3.54-3.87,2.18-5.11c-0.5-0.46,0.11-0.65-3.52,1.47c-8.27-17.12-7.32-19.16-22.79-41.28
		c-0.12-0.17-1.19-0.39-1.27,0.51c-0.4,4.31,3.9,1.17,27.27,54.67c-3.46,5.07-24.31,14.54-24.31,16.47c1.15,0.2,2.07-0.46,2.97-0.93
		c19.38-10.2,16.19-8.93,20.61-12.34c3.01-2.32,0.85-1.39,8.08,15.71c2.54,6.01,3.16,4.66,0.7,7.23
		c-4.02,4.2-12.1,11.32-15.68,12.44c-5.62,1.75,3.5,4.44-11.35,1.33c-2.23-0.47-0.01-1.2-10.06-3.63
		c-38.46-9.28-18.39,0.94-32.49-11.22c-12.89-11.11-16.04-12.22-20.18-12.23c-17.62-0.05-29.74,11.32-30.9,9.01
		C278.33,516.75,278.18,516.92,280.92,510.58z M150.74,573.71c-1.42,0-5.63-0.15-6.99-0.83c-5.62-3.75-11.24-6.87-5.52-10.04
		c2.14,1.15-0.57,2.29,12.69,9.7C153.42,573.93,153.62,573.71,150.74,573.71z M157.38,572.35c-10.87-3.44-18.52-9.17-16.24-10.61
		c0.45-0.33,1.07,0.03,2.56-1.46c-0.82-0.64-1.41-1.11-2.15-1.69c4.73-2.38,9.38-4.46,15.43-4.04c-4.17,1.33-9.01,2.81-11.86,6.1
		c-0.24,0.28-0.19,0.81-0.31,1.43c2.29-0.6,4.95-5.61,17.57-5.61c0.09,1.02,1.17,0.29-7.02,3.28c-1.45,1.74-6.12,5.95-1.39,9.57
		C154.36,569.63,162.52,573.98,157.38,572.35z M160.54,554.6c0.04-0.06,0.07-0.12,0.1-0.18
		C160.84,554.73,160.97,554.73,160.54,554.6z M247.61,575.15c3.31,0.5,6.51,0.54,9.59,2.38c-2.23,2.1-4.83,2.2-7.48,2.7
		C249.58,579.89,250.24,581.5,247.61,575.15z M264.21,584.59c-5.27,0.95-11.23-0.18-16.47-1.17c5.16-1.24,9.3-2.14,10.97-3.68
		c1.19-1.1,1.17-2.88-0.19-3.72c-2.81-1.72-5.37-2.03-11.44-2.46c-3.06-0.21-2.58-0.47-11.01-3.05c-3.51-1.07-4.44-0.68-1.54-1.29
		C259.59,563.95,271.67,583.24,264.21,584.59z M246.71,563.52c14.19,1.03,28.22,7.27,32.8,19.95c-1.23,1.12-2.66,1.55-4.18,2.06
		c-1.36-0.81,2.02-4.14-2.63-9.93c-7.77-9.67-21.52-11.78-33.91-9.69c1.52,0.98,0.69,0.51,2.38,1.31c-1.97,0.83,0.79,0.15-6.41,0.62
		c-9.56,0.62,1.27,2.52-19.7,0.66C230.89,559.65,222.18,561.75,246.71,563.52z M266.98,534.08c-1.35,8.47-2.44,3.43-0.92,15
		c-8.6-0.41-27.35-1.4-34.48,4.31c-6.41,5.12-13.57,11.03-22.08,10.9c-6.07,2.15-13.05,1.1-15.24,2.12
		c-3.72,1.74-9.08,0.22-9.52-0.42c0.86-2.78,6.09-0.76,12.63-5.14c7.37-4.93,14.65-18.35,11.43-15.97
		c-0.44,0.32-3.88,7.16-9.68,11.13c-1.78,0.89,2.8-4.31,3.48-11.65c0.1,0-8.97,15.39-12.05,15.06c0.13-1.06,4.17-6.33,7.57-14.59
		c-2.05,0-0.53,2.03-16.43,23.32c2.37,1.56,4.82,1.93,7.29,2.21c0.86-0.8,1.75-1.24,2.92-1.08c10.9,1.48,10.99,1.39,12.43,0.87
		c2.12-0.77,2.02-0.7,24.97,2.19c6,0.76-16.23,1.65-5.62,1.86c12.14,0.24,15.18-0.84,20.36,4.37c1.1,1.1,0.67,2.76-0.82,3.09
		c-16.9,3.67-5.63-0.16-12.5-3.21c-6.82-3.03-24.56-2.95-33.37-4.49c-8.16-1.43-38.05,1-35.19-1.56c0.61-0.55,1.77,0,2.06-1.23
		c-1.12-0.77-5.1-1.41-7.64-2.59c-4.53-2.11-1.54-7.92,7.59-9.26c1.61,1.22,2.99,2.76,4.69,3.4c1.97,0.74,3.12,2.55,5.1,3.16
		c1.79,0.55,3.51,1.34,5.21,2c2.7-3.04-6.14,1.34-13.4-19.5c-9.38-26.9-9.69-23.15-3.52-5.26c4.91,14.23,5.29,13.13,4.74,13.59
		c-0.47,0.3-0.79-0.15-0.97-0.4c-9.57-12.82-8.62-13.02-13.52-36.13c-0.7-3.29-1.35-6.61-0.95-9.99
		c1.11-9.44,2.34-17.82,10.68-22.53c-1.72,2.12-8.23,9.76-7.64,12.26c1.5-0.62,2.65-4.6,4.68-5.34c1.56-3.13-5.91,12.16-4.23,18.81
		c0.04,0.18,0.46,3.79,0.46,3.19c0.81-10.94,5.68-24.52,14.89-29.8c-1.5-2.57-1.61-1.63,0.9-3.89c0-1.03-0.15-1.82,0.59-2.09
		c12.98-4.7,13.02-2.85,24.77-6.33c3.04,1.42,5.69,3.58,12.19,1c14.01-5.58,14.42-12.41,16.15-4.76c1.67,7.42,1.21,6.31,1.03,8.36
		c1.33,1.53,2.53-3.16,2.92-3.16c9.82-3.23,5.61,4.7,7.88,7.84c1.22,1.68,3.39-0.76,1.54-3.52c-1.74-2.6,0.92-5.63,5.83-1.82
		c2.81,2.19,5.3,0.44,6.86,0.57c1.18,0.1,2.34,0.49,3.58,0.77c1.16,1.17,1.4,2.64,1.34,4.25c-0.14,3.71,0.11,7.4-0.71,11.09
		c-0.43,1.96-0.32,4.03-0.78,6.03c-1.25,5.42,1.16,5.65,22.31,10c-0.55,3.03-2.49,5.12-3.64,7.59c0.26,1.29,0.52,2.57,0.79,3.96
		C270.62,526.05,267.9,528.25,266.98,534.08z M565.76,595.99c-17.31,0-25.44-0.85-29.83-1.2c-7.86-0.63-14.03,0.37-19.71-1.08
		c-2.26-0.57-0.99-0.76-0.52-3.29c0.54-2.93-1.02-4.53,2.68-5.15c0.13-0.02,4.47-3.01,4.78-0.4c-4.41,0.22-4.42,0.13-4.72,0.51
		c-2.83,4.04,7.21,2.15,9.41,2.27c0.63,0.03,10.7,2.6,23.19,0.72c3.69-0.56,4.92,0.34,10.6,2.74c0,1.68-0.39,3.55,1.16,4.08
		c0.44,0.15,1.05-0.18,1.67-0.31c-0.12-1.11-0.21-2-0.31-2.9c1.9-0.07,1.9-0.08,3.54,0.71C567.7,594.28,566.74,594.86,565.76,595.99
		z M545.61,562.95c3.42,1.25-1.01-0.45,10.14,2.07c7.14,1.62,9.22,0.73,11.03,2.52c2.64,2.61,3.5,0.68,18.56,5.06
		c5.57,1.62,8.11-0.12,19.66,5.66c-1.71,0.76-10.28-1-12.39-2.04c-3.48-1.72-9.25-0.83-20.8-3.89c-0.85-0.23-3.08-0.67-3.89-0.13
		c-2.78,1.86,4.52,2.83,12.52,4.8c-7.01,2.65-14.55-1.52-15.85-0.21c-2.14,2.14,5.59,4.09,8.65,4.08c18.31-0.03,8.7,2.91,26.66,2.91
		c-3.34,5.2-8.06,3.2-16.39,2.11c-0.23-0.03-0.5,0-0.71-0.08c-3.73-1.41-7.79-1.13-11.58-2.19c-6.08-1.7-7.27-3.65-8.46-1.87
		c-1.51,2.26,11.42,5.42,15.47,7.24c-2.42,0.64-4.28,0.74-5.96,0.44c-6.65-1.21-9.81-1.36-13.89-3.44
		c-1.65-0.84-3.42-1.16-5.24-0.82c-3.57,0.66-19.74,1.22-23.08-0.96c-2.24-1.47-3.98-0.72-9.43-5.44
		c-6.31-0.67-8.52-1.18-11.99-0.37c-8.61,2.02-21.92,1.99-22.89,1.79c-10.21-2.15-49.54,3.45-69.99-1.81
		c2.82-0.9,5.14-1.25,6.39-3.43c-0.74-1.09-1.59-0.57-2.33-0.39c-3.75,0.95-6.33,0.37-9.59-0.72c-1.6,0.48-0.81,1.73-1.44,2.59
		c-0.85-0.09-1.77-0.19-2.69-0.29c-2.79,2.63-4.29-1.4-53.31-0.16c-5.32,0.13-11.56,1.14-15.39,1.22
		c-14.36,0.28-14.52,0.13-15.46,0.4c-7.11,2-30.14-6.58-37.12-9.97c-3.18-1.54-4.41-0.99-7.19-4.95c-5.38-7.64-7.6-13.86-8.6-20.34
		c-0.45-2.91,0.9-2.62,2.04-7.09c2.73-10.67,17.26-22.2,31.04-22.31c3.35-0.03,11.4-0.09,14.38,2.2c24.63,18.96,7.64,7.43,5.27,7.94
		c-0.09,1.79,2.67,2.39,1.46,3.02c-0.57,0.29-2.99-0.69-4.97-1.22c-0.53-0.14-1.11-0.08-2.15-0.13c0.67,0.82,1.91,3.26,7.05,3.77
		c2.53,0.25,40.41,8.05,41.54,8.56c8.85,3.98,26.17,5.69,47.48,12.96c1,0.34,7.37,2.18,8.37,1.87c4.17-1.3,6.11,2.87,14.31,2.32
		c7.44-0.5,14.67,0.69,21.11,1.66c54.47,8.13,23.62,4.73,61.7,3.1c3.7-0.16,6.94,0.87,9.99-0.05c0.75-0.23,6.41,0.26,7.5,0.4
		C537.38,559.57,539.96,560.87,545.61,562.95z M592.03,579.37c0.02,0.03,0.34,0.12,2.48,0.26c-1.48,0.69-1.89,0.19-2.53-0.24
		c-1.76,0.21-3.46-0.48-4.98-1.1c1.81-0.33,3.65-0.2,4.98,1.1C592,579.37,592.02,579.37,592.03,579.37z M536.03,556.81
		c-2.23-0.25,1.39,7.58-69.3-122.81c-7.5-13.83-5.38-12.08-4.84-39.47c0.04-2.31,3.3-2.75,1.36,7.07c-0.73,3.7-1.11,7.55-0.05,16.1
		c0.85,6.87,0.35,7.44,4.29,14.62C467.53,432.43,535.63,554.81,536.03,556.81z M502.01,488.33c3.92-1.12,3.11-0.87,3.76-1.07
		c1.49,2.4,6.67,14.1,7.81,17.63C510.9,505.65,512.09,506.64,502.01,488.33z M514.83,507.43c4.66,9.64,6.27,15.23,6.86,15.91
		c-0.27-0.18-0.85-1.53-0.85-1.68c-0.85,0-0.59-1.25-0.7-1.31c0-0.18-0.37-0.11-0.53-0.33c-2.17-3.81-4.32-7.63-6.57-11.63
		C513.71,508.03,514.18,507.77,514.83,507.43z M524.78,529.38c0.86-0.63,1.76-0.93,3-0.62c0.08,0.98,0.16,2,0.24,3.02
		C525.99,532.24,525.53,531.07,524.78,529.38z M531.11,532.79c-0.65-2.42-1.02-1.54,1.95-3.81c3.01,0.2,3.01,0.2,5.94,2.01
		C536.11,531.65,533.71,532.19,531.11,532.79z M559.75,528.83c-0.88,0.19-11.63,0.95-14.64,0.77c0.31-1.41,0.54-2.41,0.76-3.39
		C556.82,525.6,564.22,527.88,559.75,528.83z M568.13,515.44c0.45,0,0.75,0.07,0.89,0.5c0.61,0.3-0.26,0.08,2.33,0.25
		c1.27,0.08,0.37,0.27,1.57,0.67c1.38,0.07,1.18,0,1.07,0.4c-2.34-0.87-1.8-0.3-3.73-0.64c-0.65-0.11-1.32-0.97-2.64-1.21
		C567.42,514.75,567.51,515.44,568.13,515.44z M544.89,510.46c3.18,0.22,12.63,3.08,15.63,4.07c0.15,0-7.58,0.14-7.74,0.14
		c1.1,1.06,0.52,1.23,3.66,1.38c6.25,0.29,7.87-0.23,10.88,1.54c3.33,1.96,10.41,2.16,13.05,3.33c0.37,1.24-0.87,1.25-1.12,1.88
		c-1.71,0-1.83-1.16-6.27-1.75c-6.73-0.89-8.14-3.15-13.24-2.89c-5.5,0.28-4.84-1.34-8.27-1.83c-0.23-0.03-0.54,0.37-0.98,0.71
		c0.6,0.42,1.01,0.92,1.51,1.03c2.68,0.59,5.25,1.62,8.05,1.72c3.79,0.13,7.05,2.44,13.11,3.57c0.75,0.14,1.44,0.56,2.44,0.95
		c-2.95,2.31-2.92,1.23-7.05,1.35c-8.77,0.26-10.95-1.81-17.83-1.67c-3.82,0.08-6.27,0.37-9.12-1.22c-1.88-1.05-3.79-1.99-6.08-1.91
		c-0.89,0.03-1.81-0.6-2.73-0.81c-5.19-1.18-2.81-0.17-2.81,0.14c2.49,2.49,5.36,2.19,5.14,2.19c1.97,0,5.8,1.73,6.27,2.36
		c0.83,1.12,1.58,2.29,2.49,3.63c-0.98,0.52-1.8,0.93-2.74,1.43c-2.77-2.03-5.9-3.01-9.45-3.11c-2.93-6.39-2.67-5.74-2.67-6.12
		c0.06-0.46,0.47-0.91,0.26-1.11c0.01,0,0.02,0,0.04,0.01c-2.32-2.16-1.7-1.58-6.31-11.71
		C528.28,504.42,536.92,509.92,544.89,510.46z M527.78,525.48c0.52,1.15-0.53,2.51-1.93-0.66c-3.48-7.91-15.25-34.63-15.07-35.54
		C510.23,488.58,502.92,470.53,527.78,525.48z M544.76,445.01c-0.07,1.4-0.53-0.07-8.73,11.82c-3.4,4.93-7.46,11.51-10.14,14.86
		c-4.52,5.64-19.25,11.35-25.74,13.11c-3.82-6.48-26.26-47.33-29.69-53.6c-2.27-4.15-4.38-8.5-4.29-14.26
		c0.48-30.9-2.5-25.64,24.38-42.83c1.73,0.87,2.54,2.72,3.58,4.59c-1.74,2.15-11.97,8.43-15.23,10.1
		c-7.78,3.99-8.95,3.29-11.43,5.08c0.85,0.37,1.4,0.82,1.83,0.74c12.1-2.37,18.2-8.32,29.7-15.56c6.95,7.31,8.99,18.11,27.01,35.65
		c8.36,8.14,9.53,11.81,21.44,26.22C546.05,442.01,544.86,443.12,544.76,445.01z M672.24,501.68c-1.64-4.73-4.76-9.8-6.35-14.08
		c-5.2-14.02-10.98-20.71-15.54-30.76c-5.1-11.26-11.22-21.9-13.42-25.87c0.57-1.72,0.81-1.51-0.57-3.48
		c-8.1-11.54-8.44-27.53-4.2-40.43c0.72-2.2,1.35-6.54,2.4-12.65c-1.52,1.22,0.52-1.29-9.98,13.35
		c-8.6,11.99-14.23,14.24-18.44,17.31c-5.49,4.02-2.21,2.36-38.77,25.46c-12.14,7.67-3.2,0.32-15.58,7.94
		c-0.81,0.5-1.67,1.02-2.71,1.65c-21.08-29.8-27.14-27.78-42.05-51.79c-6.55-10.54-6.95-10.19-4.37-11.72
		c49.72-29.34,51.26-27.66,104.7-43.66c7.27-2.18,4.2-2.32,21.45-5.89c8.78-1.82,10.7-0.93,16.82,1.18
		c5.1,1.76,10.2,3.51,15.06,6.14c8.53,13.6,9.71,21.55,10.68,25.62c0.39,1.64-0.16,3.23-0.83,4.89c-4.21-3.81-3.48-3.25-4.06-3.25
		c-0.11,0.25-0.43,0.67-0.34,0.82c1.05,1.73,2.23,3.37,4.49,4.07c5.87,18.36,7.15,20.93,12.16,46.44c1.29,6.57,1.63,2.77,2.83,9.18
		c10.06,53.63,5.12,37,14.04,62.59c0.11,0.32,0.3,0.76,0.56,0.89c2.21,1.12,2.79,3.5,4.13,5.28c1.62,2.14,1.6,0.78-0.18,6.6
		c-2.87,9.39-0.95,8.52-3.43,16.47c-0.36,1.14-1.12,2.13-1.5,3.26c-0.8,2.34-2.27,3.96-4.06,5.23c-5.31,3.78-5.86,2.59-11.68-0.46
		C682.72,515.53,675.1,509.93,672.24,501.68z M676.09,518.76c-1.46-6.45-1.62-6.04,2.53-0.45
		C677.87,519.25,677.09,519.05,676.09,518.76z M784.4,504.06c-9.55,16.95-25.83,26.32-43.56,34.83c-3.72,1.78-0.5,1.32-12.65,12.61
		c-2.8,2.6-22.55,12.97-26.58,12.12c-16.11-3.37-3.15,1.81-13.35-9c0.81-10.67-7.13-14.45-8.58-23.08
		c-0.89-5.33-2.52-2.81,0.79-6.29c1.61,0.25,0.04-0.36,4.34,1.85c6.04,3.1,8.73,0,12.08-1.48c3.35-1.49,2.2-2.8,3.66-5.72
		c7.84-15.68-0.35-5.29,9.09-28.28c3.16,2.25,5.88,4.2,8.93,6.39c0.13,5.25-1.48,9.23,0.69,10.48c2.62,1.51,3.36-5.78,3.71-8.45
		c0.67-1.13,2.18-1.03,2.75-2.26c0.23-0.51,0.68-0.33,1.12-0.05c1.32,0.84-1.96,8.03,0.65,9.36c3.37,1.72,3.03-5.06,3.03-8.61
		c1.43-0.47,2.65-0.47,4.04-0.05c-0.16,1.28-0.38,2.45-0.44,3.63c-0.18,4,2.25,4.19,3.02,2.91c1.38-2.28,1.45-4.56,1.86-7.38
		c0.94-0.14,1.85-0.28,2.82-0.44c0.73,2.25-0.26,4.39,0.28,7.18c0.12,0.59,1.07,1.43,1.57,1.26c4.24-1.44-0.03-11.72,4.45-9.38
		c0.06,1.68-0.04,4.35,1.61,4.42c1.82,0.07,1.74-3.49,1.74-5.31c5.56-2.09,11.81,1.95,16.56-2.57c3.29-3.13,6.81-6.03,11.01-8.33
		c2.94,2.13,5.62,4.65,7.78,7.69C788.34,494.3,785.79,501.59,784.4,504.06z"/> <path d="M112.64,251.08c4.73,1.7,21.1,0.88,21.6,0.48c1.96-1.56-9.01-1.29-13.58-1.92c-2.79-0.39-2.68-2.62-0.78-4.41
		c1.59-1.5,9.81-4.74,12.49-5.67c1.82,8.7,4.07,5.01,2.19,7.94c3.92,4.05,26.21,3.99,30.97,4.78c25.51,4.28,27.17-0.99,52.01,1.89
		c10.65,1.24,11.22-0.7,13.8,2.44c-1.11,2.88,0.48,1.83-7.94,2.94c-2.45,0.33-5.02-0.02-7.35,1.13c0.47,1.22,1.42,0.93,2.18,0.85
		c25.83-2.51,26-3.12,27.47-2.35c4.4,2.33,18.32,4.02,21.44,1.11c2.36-2.21,0.47-6.83-1.76-9.22c-4.39-4.72-8.39-5.8-13.25-7.6
		c1.74-1.39,11.94,1.82,17.32,7.42c2.5,2.6,4.55,6.76,1.92,9.57c-0.48,0.51-0.75,1.21-1.07,1.74c-1.1,0.43-2.12,0.79-3.1,1.23
		c-2.08,0.93,2.06,2.05,10.9-1.79c2.59-1.12,2.16,0.11,2.52,3.99c0.81-0.63,2-0.82,2.42-4.34c0.57-4.76-0.25-2.5-3.98-10.79
		c0-0.11-3.2-3.2-0.84-0.94c1.43,1.37,0.39,0.64,3.28,2.43c0.1-0.97,0.34-1.65,0.21-2.25c-0.71-3.47-4.64-5.42-4.84-6.58
		c-0.01,0-1.46-0.45-1.62-0.55c-24.79-12.4-50.71-5.47-44.07-9.75c3.95-2.55,5.07-3.57,8.27-4.04c10.03-1.49,11.85-0.19,16.76-1.14
		c3.21-0.62,9.36,0.17,11.23,0.36c2.19,4.12,2.91,5.75,5.41,9.69c1.03,1.61,4.04,5.33,4.04,5.43c5.26,0,6.25,3.21,8.6,4.4
		c1.33,0.67,2.95,0.64,4.41,1.24c19.98,8.25,39.67,8.53,40.59,8.03c2.93-1.58,15.98,0,26.46-1.3c12.81-1.59,29.5,2.41,49.56-0.66
		c2.96-0.45,3.32,0.46,8.92,2.27c11.7,3.8,14.35,1.29,20.12,3.26c0.44,0.15,12.44-0.62,12.54-0.63c9.77-0.89,35.11,1,41.99-0.6
		c0.69-0.16,1.43-0.09,2.15-0.07c13.25,0.34,26.81-5.44,26.78-2.38c-3.92,1.12-6.82,1.96-6.94,7.2c-0.16,7.44-0.01,8.31,16.98,9.36
		c35.62,2.2,39.19,3.28,40.59-1.4c1.4-4.68,1.53-3.72,8.33-3.22c1.01-0.39,1.88-0.97,2.76-1.01c3.15-0.12,5.68-1.56,8.15-3.41
		c5.16,0.34,6.53,1.79,12.86-3.7c1.92-1.66,2.35-0.42,3.79-1.63c0.95-0.81,0.44-2.14,3.48-4.62c1.28-1.05,1.44-3.18-0.28-3.82
		c-1.28-0.47-1.83,0.2-10.56-3.44c-2.71-1.13-5.45-1.3-10.59-1.76c-9.53-0.85-9.03-2.95-14.53-3.72c-5.82-0.81-3.75-3.07-7.35-3.29
		c-11.62-0.7-11.76-0.66-13.52-2.14c1.24-0.96,1.34-1.07,1.83-0.6c1.5,1.45,3.33,1.59,5.03,0.97c1.44-0.53,3.08-0.3,4.41-1.35
		c1.76-1.4,16.3,1.2,20.26-2.37c3.41-3.07,2.29-3.65,0.21-5.27c1.94-4.6-5.75-3.3-15.21-6.21c0.62-4.1,4.61-5.13,14.32-45.97
		c2.56-10.77,8.18-15.62,10.91-30.73c0.71-3.91,2.65-7.54,5.53-24.91c0.41-2.46,2.39-15.13,2.39-15.23
		c18.2,30.02,36.69,49.18,43.14,61.6c6.96,13.4,16.22,25.57,16.92,27.48c3.79,10.3,1.65,9.2,7.78,9.69c1.37,2.61-2.81,2.5-1.66,6.31
		c0.97,3.21,2.03,6.48,4.3,8.99c8.06,8.95,6.16,15.21,10.97,18.61c4.91,3.47,1.65,4.71,5.13,6.62c3.05,1.68,14.14,1.29,22.75-4.97
		c13.89-10.09,14.68-12.02,17.13-15.64c1.48-2.18,3.37-4.21,4.29-6.62c2.63-6.89,8.05-5.62,16.44-12.27
		c10.95-8.68,27.5-27.63,26.73-41.58c-0.43-7.81,0.37-8.38-11.93-14.53c-5.68,2.94-5.44,2.24-7.36,4.01
		c-4.2,3.86-5.05,7.36-8.6,7.82c-3.87,0.5-9.5,1.69-10.76,1.72c-1,0.02-0.84-0.02-0.84,0.09c-0.23,0.23-0.2,0.28-0.07-0.07
		c0.31,0-0.59,0.08,0.87-1.8c7.64-9.81,6.9-11.6,8.21-12.62c4.1-3.19,6.45-12.62,5.46-17.94c-1.12-6.05-3.96-6.24-6.64-8.3
		c-4.68-3.6-8.16-0.53-10.45-0.18c-1.44,0.22-2.64,0.95-3.74,1.99c-6.54,6.23-5.33,5.77-18.62,11.03
		c-11.29,4.46-27.98,5.54-33.57,3.7c-23.08-58.84-24.42-69.08-35.26-85.42c0.77-1.85,0.52-3.74-0.15-5.56
		c-4.59-12.48-6.59-15.07-14.23-25.24c-2.39-3.19-1.12-4.86-4.16-5.97c-3.75-1.37-0.76-4.1-5.58-7.9c-5.84-4.6-7.49-7.05-11.23-7.34
		c-5.92-0.46-3.1,0.29-7.47,0.26c-4.7-0.03-9.37,0-13.91,1.42c-5.17-0.37-8.94,6.92-11.08,7.31c-1.7,0.31-2.48,1.51-3.55,2.83
		c-20.7,25.48-28,31.96-51.16,83.73c-1.14,2.56-2.73,8.12-3.84,10.45c-7.62,16.03-8.35,24.59-14.43,36.41
		c-0.71,1.38-1.79,2.63-2.2,4.08c-0.79,2.75-2.37,4.94-4.17,7.03c-1.05,1.21-1.1,2.36-2.28,3.25c-4.93,3.71-2.35-1.27-13.72-2.38
		c-3.43-0.33-11.93-2.05-16.92-3.22c-17.85-4.17-20.77-2.3-28.72-4.63c-4.1-1.2-7.42-0.44-14.61-1.56
		c-5.43-0.85-5.49-4.44-17.44-7.24c-4.33-1.02-10.98-1.92-12.32-2.49c-8.61-3.68-10.89-1.94-13.42-4.66
		c-3.74-4.03-3.83-5.73-7.94-7.63c-11.33-5.22-16.4-3.23-18.48-3.56c-4.97-0.8-15.31,3.7-18.47,6.83c-2,1.98-5.93,6.5-8.06,8.69
		c-15.57,15.94-12.57,15.06-16.52,19.41c-26.08,28.65-24.86,28.75-28.29,28.27c-12.75-1.78-13.2-2.84-19.03-3.55
		c-6.37-0.78-0.82-3.04-0.75-9.28c0.06-4.97,1.81-12.34-3.17-17.84c-2.98-0.77-5.92-0.53-8.85,0.04c-4.32-3.2-4.64-3.25-8.74-1.28
		c-1.65-1.88-2.62-3.65-5.2-2.47c-7,3.2-3.61-8.28-8.92-7.95c-1.28,0.66-5.87,2.95-6,3.08c-20.71,11.23-15.36,1.93-25.2,3.97
		c-6.38,1.32-11.88,1.75-18.1,4.52c-11.57,5.16-7.67,0.71-18.69,14.15c-1.27,1.54-0.69,0.11-7.13,18.38
		c-0.88,2.49,0.83,5.63,1.08,11.31c1.04,23.82,11.84,31.6,8.35,31.15c-5.81-0.75-12.44,1.47-17.07,4.06
		c-2.98,1.67-2.32,2.13-5.15,4.49c-0.67-0.35-1.2-0.62-1.69-0.87c-2.01,0.56-4.08,0.84-5.9,1.69c-2.25,1.04-13.02,6.34-14.34,7.27
		C109,246.85,109.68,250.01,112.64,251.08z M264.65,259.63c-3.4,1.02-10.7,0.16-14.54-0.57c-4.09-0.77-2.95,0.1,5.9-2.66
		c4.16-1.3,4.37-4.2,2.15-5.48c-2.4-1.39-5.15-1.71-10.78-2.17c-4.07-0.34-3.2-0.76-10.65-2.91c-3.55-1.03-5.41-0.77-1.61-1.58
		c2.22-0.48,9.9-0.48,12.18-0.36C262.11,244.7,270.02,258.02,264.65,259.63z M247.66,250.44c3.07,0.15,6.08,0.46,9.08,1.83
		c0.26,1.54-0.66,1.45-6.91,3.32C249.79,255.48,247.72,250.59,247.66,250.44z M279.59,258.61c-1.53,1.17-2.98,1.65-4.38,2.09
		c-0.46-0.48,3.31-11.35-13.96-18.04c-5.88-2.28-13.12-3.15-22.83-1.5c1.16,0.48,1.79,0.73,2.86,1.18
		c-9.82,0.91-10.81,0.82-12.41,1.85c-0.63,0.41-2.04,0.37-2.14,0.31c-16.86-1.04-11.63-0.14-3.12-5.86
		c2.13-1.43,4.13-1.88,6.43-1.63C245.92,238.68,271.45,237.58,279.59,258.61z M565.89,271.12c-7.3,0-40.86-1.44-41-1.44
		c-13.02-0.57-9.66-2.01-9.45-3.01c1.17-5.68-1.54-5.24,5.66-7.59c0.6-0.2,1.06,0.01,1.83,0.07c-0.6,0.94,0.42,0.64-4.74,1.12
		c0.1,0-0.06,0.01-0.26,0.11c-0.1,0-0.09-0.14,0.1,1.92c0.81,0.31,1.67,1.42,7.9,0.64c5.09-0.63,4.33,0.82,8.09,0.96
		c18.73,0.73,18.72-1.92,23.49,0.61c4.54,2.41,4.23,0.84,4.04,2.69c-0.45,4.31,2.8,3.69,2.86,2.07c0.02-0.67-0.21-1.36-0.36-2.1
		c1.37-0.5,2.46-0.25,3.54,0.46C567.84,269.31,566.61,270.05,565.89,271.12z M556.99,234.23c-0.73-0.26-0.64-0.06-0.37-0.75
		C557.12,233.97,557.33,233.42,556.99,234.23z M577.6,232.23c-17.91,0.14-21.71,1.07-13.14-6.04c2.78,1.33,5.69,1.92,8.7,2.02
		c0.63,0.02,0.57,0.01,9.17,2.4C581.5,231.24,581.17,232.2,577.6,232.23z M581.45,226.76c0.08,0.58,0.42,0.48-1.81,0.34
		C579.68,226.65,579.28,226.76,581.45,226.76z M578.17,226.23c-0.72,0.24-0.51,0.19-0.78,0.01
		C578.08,226.01,577.83,226.02,578.17,226.23z M574.56,225.23c-3.83,0.81-5.57,0.67-8.32-0.58
		C567.05,222.38,566.91,222.84,574.56,225.23z M666.91,200.68c-0.3-1.56-1.45-2.72-1.22-4.31c-1.49-0.75,0.86-0.1,3.11,2.84
		C670.03,200.83,670.03,200.44,666.91,200.68z M736.74,171.48c2.21-0.42,1.59-3.35,1.11-5.57c5.08-2.67,12.17,0.03,16.02-5.01
		c2.76-3.61,5.82-7,9.63-9.92c3.13,1.61,6.01,3.7,8.63,6.15c2.09,1.96,0.42,10.13-0.48,12.86c-4.48,13.65-14.27,21.53-21.08,28.17
		c-7.74,7.54-16.98,10.16-20.49,17.64c-4.36,9.29-14.89,16.06-21.16,20.55c-7.89,5.66-11.56,4.64-18.72,4.64
		c-0.93-3.07-2.94-5.05-5.69-6.56c-0.43-4.68-2.51-8.6-5.55-12.15c-6.66-7.77-3.98-4.4-8.29-13.67c1.8-2.52,1.23-3.14,5.9-1.14
		c1.95,0.83,3.96,0.71,6.02,0.47c1.41-0.17,2.25-0.83,7.17-4.64c1.82-1.41,0.49-2.56,1.71-5.67c3.85-9.87,1.31-12.87,1.84-15.87
		c2.34-13.2,2.08-10.99,2.85-12.99c3.13,1.59,6.2,3.16,9.58,4.86c1.01,4.01-0.03,11.07,2.99,10.37c2.25-0.52,1.72-6.7,1.72-9.39
		c0.55-0.84,2-0.99,2.37-2.29c0.05-0.18,0.65-0.23,0.95-0.29c1.86-0.36-1.04,9.49,2.86,9.26c3.02-0.18,1.74-5.14,1.2-9.17
		c1.14-0.23,2.28-0.48,3.45-0.72c1.15,1.96-0.36,4.58,1.38,6.63c0.63,0.74,2.08,0.68,2.45-0.2c1.13-2.74,0.83-4.47,0.83-7.6
		c0.82-0.34,1.68-0.68,2.6-1.06c1.05,1.81,0.61,3.85,1.16,6.31c0.64,2.84,3.5,2.19,3.52-0.15c0.03-3.46-0.58-6.67-0.68-7.33
		c2.56-1.39,1.73-1.42,2.46,1.18C735.1,169.57,735.51,171.71,736.74,171.48z M686.47,154.35c4.91-1.07,1.16-12.59,4.04-12.59
		c0.53-0.14,1.02-0.11,2.34-0.03c0.12,5.48-0.19,6.84,1.41,7.13c1.85,0.33,2.14-1.28,2.34-3.23c0.5-4.98-1.03-4.34,3.03-4.64
		c0.95,1.49,0.21,3.23,0.87,5.39c0.55,1.78,2.99,1.88,3.4,0.04c0.88-3.93,0.1-5.25,0.95-6.59c1.46-0.31,0.96,1.04,1.9,4.54
		c0.58,2.14,2.26,2.59,3.03,1.61c0.95-1.21,0.39-3.19-0.25-7.38c4.58-2.02,1.24-0.4,4.05,4.66c0.7,1.27,2.83,0.81,2.66-6.22
		c-0.01-0.36-0.01-0.71-0.01-1.08c6.34-2.94,8.06-2.84,13.98-8.76c3.91-3.91,4.71-2.59,5.37-3.06c0.7-0.49,1.16-0.71,1.38-0.82
		c2.37-1.08,7.81,1.39,9.65,3.22c4.68,4.67-5.41,22.42-9.36,27.75c-6.35,8.58-4.41,5.29-7.39,10.34
		c-28.14,11.45-25.81-0.39-36.52,1.67C681.66,151.23,685.4,154.58,686.47,154.35z M684.82,141.68c0.66,3.72-0.41,7.16-0.77,10.71
		c-1.1-0.68-0.61,0.5-5.62-11.45C678.54,140.95,684.38,141.63,684.82,141.68z M623.42,18.9c1.07,5.02,7.92,8.18,14.84,25.8
		c0.55,1.4,0.15,2.99-0.14,4.51c-1.86-0.39-2.6-2.37-4.36-2.52c-0.97,0.72-0.18,1.37,0.78,2.27c4.86,4.57,1.18-3.75,9.94,14.12
		c6.86,13.99,11.03,26.95,13.66,33.64c1.58,4.03,1.09,0.06,3.86,7.99c11.91,34.18,12.83,39.79,16.71,47.05
		c9.13,17.07,6.21,11.08,8.94,13.53c0.98,0.87-0.13,0.11,4.52,4.99c-2.59,20.19,0.05,15.46-1.67,22.25
		c-1.54,6.06-2.15,7.86-7.32,11.37c-1.86,1.26-3.25,0.44-8.41-1.2c-1.17-3.42-3.34-5.81-5.6-8.11
		c-12.24-12.55-11.9-19.2-33.24-45.86c-0.03-0.03-9.16-13.28-13-18.52c-9.13-12.46-8.45-9.53-7.79-12.08
		c-4.76-5.99-9.21-9.99-11.48-22.58c-2.77-15.37,1.45-25.07,4.1-32.72c0.71-2.04-0.84-2.96-1.83-0.9
		c-13.92,29.08,5.83,29-24.79,106.61c-5.21,13.2-4.2,12.61-5.78,12.15c-24.32-7.01-37.63-10.68-58.26-30.29
		c-0.51-0.48-1.11-0.64-1.63-0.1c-0.43,0.97,0.52,1.55,1.87,2.88c25.98,25.76,43.83,26.33,59.72,30.49
		c-0.57,3.49-8.39,26.19-9.89,29.84c-4.22,10.3-10.29,11.58-12.73,16.28c-0.21,0.41-0.13,0.33-5.13,3.64
		c-2.17-2.17-17.38-21.28-20.31-25.62c1.49-2.68,2.99-5.36,4.57-8.19c2.93,1.76,5.56,4.12,9.52,4.73c-1.1-1.92-1.92-1.2-6.55-4.39
		c-3.76-2.59-4.48-3.98-6.21-4.36c-0.06,1.5,1.29,1.89,1.57,2.86c0.08,0.82-2.49,4.75-4.39,6.6c-0.73-0.62-1.33-1.01-1.75-1.61
		c-7.07-10.22-21.08-24.63-20.86-29.69c0.25-5.69,0.53-6.23,0.53-6.13c2.04,8.73,1.41,10.03,8.91,19.18
		c0.45,0.55,0.35,0.52,2.03,0.65c-5.6-10.06-9.14-10.99-9.14-23.44c5.8-7.4,3.06-8.47,5.78-15.35
		c11.69-29.58,25.69-71.05,49.6-97.99c9.48-10.68,9.06-12.75,13.09-16.16c10.38-8.76,8.28-13.61,16.46-16.01
		c-0.12,0.11-0.13,0.12-0.03,0.06c0.03,0.37-0.08,0.79-0.03,1.16c0,0.62,1.04,1.42,2.43,0.52c0.54-0.35,1.02-0.81,1.76-1.43
		c-1.7-0.81-0.61-0.9-4.14-0.26c0.43-0.3,2.65-1.98,5.85-4C604.66,10.34,610.22,13.54,623.42,18.9z M522.89,97.66
		c2.02-4.27-0.77-1.7,2.9-8.34c16.11-29.15,18.17-39.07,35.6-60.65c9.13-11.3,10.08-14.33,12.51-15.52
		c2.02-0.99,7.72-6.84,8.88-7.52c2.86-1.69,13.39-2.37,19.38-2.23c1.97,0.04,4.13,0.12,5.66-1.25c2.88,1.09,3.65,3.84,6.09,6.72
		c1.08,1.27,2.39,2.33,3.83,3.7c-1.5,0.05-2.6-0.47-3.67-0.92c-4.24-1.81-6.61-0.92-12.75-1.63c-1.7-0.2-3.4,0.31-4.78,1.15
		c-7.45,4.51-6.26,3.41-8.19,5.13c-5.15,4.57-6.57,5.68-8.14,8.05c-6.22,9.39-31.85,31.76-43.74,61.42
		c-6.1,15.23-9.97,18.43-19.85,46.61c-0.96,2.73-3.74,10.63-5.63,14.28c-2.76-1.61-3.49-2.68-5.41-5.91
		C516.98,108.39,512.44,119.74,522.89,97.66z M497.73,154.02c2.09-3.4,5.35-6.27,6.1-10.75c1.45,0.88,0.68,0.72,6.13,5.47
		c-4.47,11.16-5.8,13.12-4.14,15.87c-2.55,2.31-2.11,1.76-2.43,7.42c-0.39-0.18-0.7-0.23-0.78-0.4c-3.1-6.07-2.94-5.59-2.61-6.5
		c0.4-1.08,0.32-1.01-1.25-1.5c-2.2-4.25-2.55-6.54-2.55-6.41c1.53,1.64,4.08,6.15,5.52,5.91
		C503.89,162.6,498.69,158.46,497.73,154.02z M495.6,161.86c8.5,20.63,50.37,70.19,51.35,73.79c-0.77,0.29,0.18,0.48-3.89-0.57
		c-7.12-12.05-11.11-16.69-26.76-35.83c-4.62-5.66-6-9.48-10.27-15.15c-9.42-12.52-7.33-6.56-12.63-23.42
		C492.81,158.77,494.22,158.49,495.6,161.86z M487.63,191.83c0.35-2.74,2.01-26.85,2.66-30.85c2.79,2.25,1.12,5.11,2.28,6.24
		c0.1,0.1,7.84,12.46,7.84,13.22c0.33,5.97,8.64,21.52,9.64,21.54c-6.67-15.92-11.59-25.63-1.96-11.9
		c14.58,20.78,17.52,20.88,11.33,23.13c-4.09,1.49-1.86,2.31-8.29,4.86c-9.7,3.85-13.17,1.77-13.86,3.91
		c0.3,0.88,1.07,0.98,1.77,0.87c15.36-2.3,9.27-3.75,25.49-9.91c2.91,2.27,11.97,15.79,14.76,19.81c-3.09,0.95-3.79-2.15-8.86-1.82
		c-7.67,0.5-8.41,0.58-12.2,0.53c-21.31-0.28-22.35,2.25-27.1,1.24C488.86,230.26,485.2,210.67,487.63,191.83z M280.74,189.89
		c6.87-9.2,7.15-9.65,8.76-10.93c20.12-15.9,29.75-37.67,40.06-44.97c1.58-1.12,2.03-3.24,3.92-4.08c3.73-1.66,4.54-4.15,7.61-5.32
		c21.3-8.12,33.44,11.43,35.91,11.13c1.63-0.2,3.05,0.6,4.51,1.04c22.03,6.62,17.91,0.47,16.73,13.23
		c-2.62,28.43,0.23,34.83-2.61,44.45c-0.3,1.03-0.64,2.11-0.62,3.16c0.17,9.14-3.06,16.17-0.04,16.07
		c1.49-0.05,1.51-1.49,2.12-11.13c0.83-13.18,2.17-7.48,2.1-17.07c-0.08-11.79-0.54-25.91,1.51-33.6c3.01,1.7,12.61,6.98,16.58,8.98
		c-1.54-5.5-12.13-10.84-16.27-10.73c-0.31-2.79,0.55-5.31,0.51-8.13c8.94,1.9,10.31,6.46,20.56,7.29
		c6.89,0.56,7.11-0.77,11.05,0.27c6.18,1.63,25.63,5.13,25.73,5.15c7.41,1.16,8.53,0.43,13.9,1.67c13.32,3.06,8.5,1.18,13.47,2.57
		c0.4,5.7-0.01,6.44-0.13,18.36c-0.14,13.48-3.15,13.88-2.12,35.12c0.68,14.11,2.15,16.1,2.37,19.58
		c-1.82,0.79-2.68-0.15-14.91-2.15c-38.62-6.32-36.5-2.13-44.56-4.94c-3.4-1.18-8.72-1.72-10.75-2.78
		c-12.23-6.4-25.78-8.35-41.1-11.3c-7.59-1.46-1.34-3.33-38.88-8.86c-3.67-4.05-3.85-4.52-10.42-9.71
		c-13.44-10.62-13-9.49-21.68-10.95c-4.15,1.09-8.61,0.62-12.63,2.44c-6.54,2.95-8.93,6.08-10.56,7.34
		C280.44,190.82,280.34,190.41,280.74,189.89z M280.22,196.56c7.62-3.78,10.67-8.69,23.9-8.61c11.95,0.07,10.99,1.12,25.49,12.49
		c-0.36,0.88-0.85,0.62-1.21,0.44c-5.5-2.77-5.58-3.28-6.61-2.57c-0.12,1.35,1.49,1.69,1.95,2.83c-4.31,0-2.83-1.19-7.44-1.19
		c0.59,0.86,0.58,0.97,0.98,1.38c1.4,1.22,3.08,1.94,4.88,2.12c12.71,1.28,75.63,16.73,87.66,20.98c1.28,0.45,9.67,3.14,11.85,2.35
		c0.97-0.35,4.22,0.97,5.46,1.45c8.18,3.17-1.05-1.87,42.39,4.68c29.44,4.44,15.21,3.36,42.08,1.55c2.14-0.14,4.3,0.15,6.43-0.48
		c0.86-0.25,1.9,0.04,2.84,0.14c7.57,0.81,4.88-0.38,8.91-0.16c5.65,0.31,6.34,0.35,8.44,1.25c1.97,0.85,8.36,3.58,10.51,3.53
		c3.42-0.07,3.44,1.11,13.73,2.47c5.71,0.76,2.98,1.89,8.89,3.33c2.51,0.61,6.27,0.7,8.46,1.53c9.76,3.69,14.32,1.26,25.65,7.53
		c0.1,0-1.86,0.19-2.29,0.12c-2.51-0.39-7.45-1.1-9.8-2.12c-4.83-2.1-10.88-1.25-21.12-4.08c-3.84-1.06-3.46-0.51-5.43,0.28
		c2.51,1.73-0.64,0.7,12.48,3.94c1.77,0.44,1.89,0.26-0.27,0.57c-8.91,1.29-9.49-0.47-14-0.61c-0.54-0.02-1.07,0.93-0.49,1.62
		c3.47,4.14,14.53,1.65,21.93,4c6.26,1.99,9.47,1.62,13.46,1.72c0.1,0-2.18,3.48-6.12,3.24c-0.1-0.01-10.97-1.29-11.07-1.33
		c-3.27-1.26-6.79-1.2-10.16-1.93c-5.5-1.19-6.7-2.38-7.77-2.74c-2.46-0.83-4.75,2.07,4.94,4.9c11.91,3.49,8.28,3.18,9.21,3.18
		c-3.06,1.15-11.56-0.81-12.65-0.94c-9-1.1-5.59-3.57-14.93-2.99c-4.7,0.3-17.59,1.16-21.3-1.15c-1.33-0.82-5.2-1.99-6.7-3.36
		c-3.64-3.33-11.57-3.33-16.14-2.22c-8.05,1.95-21.3,1.73-21.82,1.6c-7.2-1.77-49.97,2.53-69.24-1.71c0,0,0,0,0.01,0
		c4.96-2.09,4.96-2.1,5.89-4.1c-4.12,0.36-6.16,1.27-10.64-0.19c-2.02-0.66-2.31-0.37-2.13,2.04c-0.69,0.74-2.75-0.54-3.33,0
		c-2.38,2.2-3.1-1.31-53.73-0.25c-5.61,0.12-33.74,2.05-34.75,1.86c-22.89-4.32-33.18-10.9-35.12-11.35
		c-5.98-1.41-15.96-22.85-12.53-27.77c1.64-2.35,0.98-6.83,5.83-11.76C276.38,201.35,276.83,200.71,280.22,196.56z M593.41,255.12
		c0-0.08-0.01-0.16-0.02-0.25C594.6,254.99,594.61,254.88,593.41,255.12z M592.01,254.42c-1.87,0.52-3.27-0.54-4.76-0.91
		C588.94,253.14,590.49,253.29,592.01,254.42z M156.28,211.92c-1.45-3.84-1.59-7.96-2.64-11.9c-1.55-5.82-2.89-12.22-1.65-18.07
		c0.84-3.97,1.06-12.54,8.32-18.07c0.34-0.26,1.26-0.64,1.61-0.91c-0.16,0.24-0.02,0.2-0.28,0.2c-0.64,0.43,0.74-0.09-1.46,2.32
		c-1.26,1.38-6.61,8.13-5.42,9.71c3.7-5.09,3.68-5.38,4.53-5.38c0.18,0,0.2-0.43,0.2-0.32c0,1.44-6.24,12.21-4.4,19.21
		c0.12,0.45,0.34,3.11,0.34,3.21c0.22-6.02,2.25-13.58,6.27-20.48c7.3-12.54,10.19-7.02,7.48-11.46c0.72-0.65,1.48-1.33,2.24-2.01
		c-0.04-1.05-0.22-1.7,0.46-1.96c3.87-1.48,10.74-3.82,14.86-4.14c10.63-0.84,8.09-3.48,11.38-1.5c7.17,4.31,18.64-2.78,24.87-8.24
		c0.44,0.39,0.91,0.62,1.09,0.98c1.07,2.28,1.87,6.79,2.15,8.66c0.13,0.87-0.09,1.8-0.16,2.79c1.11-0.12,1.63-0.65,1.96-1.32
		c0.05-0.1,0.77-2.03,0.77-2.13c3.69-1.2,6.63-1.74,7.05,2.12c0.57,5.2,0.56,5.01,0.75,5.27c0.67,0.88,1.73,1.42,2.23,0.44
		c1.29-2.54-1.77-3.92-0.73-6.09c0.56-1.18,2.33-1.44,3.52-0.87c2.74,1.3,4.13,3.47,6.8,2.6c2.2-0.72,4.22-0.15,6.36,0.38
		c0.9,1.06,1.32,2.27,1.26,3.64c-0.18,3.82,0.17,7.65-0.69,11.45c-0.47,2.07-0.36,4.27-0.83,6.39c-0.27,1.23,0.05,2.58,0.1,3.78
		c2.87,1.94,5.93,2.59,8.97,3.25c16.23,3.51,15.83,2.21,14.23,4.92c-2.44,4.12-4.68,6.01-3.87,9.87c-3.44,2.84-6.23,5.61-7.03,11.65
		c-0.84,6.29-2.47,2.98-0.78,14.21c-2.06,0.32-26.85-2.53-35.03,4.82c-8.24,7.4-14.17,9.67-21.12,10.53
		c-3.11,0.38-2.51,1.25-11.36,1.57c-6.3,0.23-4.9,1.41-6.19,1.36c-2.6-0.09-5.22-0.06-7.73-0.82c1-6.19,10.81,5.14,25.18-21.55
		c0.1,0-0.86-0.57-1.74,0.96c-1.85,3.22-6.56,8.92-9.55,10.45c0.19-2.33,0.53,1.36,4.65-13.59c-1.86,0.89-2.43,8.43-12.26,16.91
		c-0.72-0.47-0.26-0.83-0.05-1.22c6.14-11.56,6.96-11.9,6.96-13.72c-1.19,0.75-1.62,1.89-2.23,2.89
		c-14.66,24.13-13.27,17.73-13.91,20.94c0,0.29,4.03,1.32,4.33,1.39c4.69,1.08,2.88-0.86,5.82-0.57c9.85,0.99,10.36,1.63,12.79,0.74
		c2.42-0.88,24.94,1.97,25.38,2.74c-0.94,0.57-10.93,0.34-10.82,0.34c8.11,3.42,19.36-2.07,25.08,5.67
		c0.78,1.05,0.25,2.55-1.03,2.83c-3.26,0.72-6.57,1.15-9.9,1.55c-0.03-3.52-0.12-5.51-12.23-6.96c-12.78-1.53-12.3-0.33-23.23-2.2
		c-8.49-1.45-32.44,0.73-36.06-1.39c6.02-2.55,3.05-0.47-4.78-3.85c-5.48-2.37-1.5-8.57,7.51-9.41c1.94,2.23,4.45,3.58,7.08,4.77
		c1.89,2.56,5.27,2.03,7.39,3.9c2-1.89-0.4-0.97-4.61-4.69c-7.74-6.85-12.94-29.62-15.71-33.25c0.81,6.46,5.61,19.44,8.09,24.96
		C170.2,237.64,156.38,220.73,156.28,211.92z M160.65,229.9c-0.03,0-0.05-0.11-0.08-0.18c0.09-0.02,0.19-0.03,0.28-0.05
		C160.9,229.77,161.05,229.95,160.65,229.9z M141.54,236.69c0.81-0.22,2.23-0.41,1.68-1.54c-0.22-0.44-0.91-0.8-1.34-1.2
		c2.99-2.7,9.61-4.56,15.65-4.2c0.11,0-14.61,3.27-12.26,7.37c4.79-3.66,8.03-5.67,17.55-5.4c-1.23,1.42-2.7,1.29-3.83,1.86
		c-3.26,1.64-3.11,0.15-5.97,4.14c-2.69,3.75-0.33,6.07,3.2,8.23c0.76,0.46,1.86,1.16,2.4,1.48c-0.31-0.09-1.03,0.11-1.61-0.07
		C144.66,243.52,138.38,237.55,141.54,236.69z M138.46,237.63c3.32,5.76,8.82,7.95,14.52,11.15c-7.65,0.25-10.04-0.05-16.21-6.01
		C134.49,240.56,136.95,238.99,138.46,237.63z M115.18,245.48c1.71,1.15,1.87,2.3,1.41,3.91c-1.42,0.11-2.59-0.22-3.75-1.25
		C113.08,246.81,113.97,246.12,115.18,245.48z"/> <path d="M366.76,511.68l0.06,0.07C366.83,511.65,366.83,511.72,366.76,511.68z"/> <path d="M466.19,455.63c-0.1,0.1-0.11,0,0.07,0.09C466.24,455.38,466.27,455.41,466.19,455.63z"/> <path d="M510.15,202.08C510.14,202.1,510.15,202.1,510.15,202.08L510.15,202.08z"/> <path d="M510.15,202.08c0-0.01,0-0.03,0.02-0.08c-0.15,0-0.1-0.01-0.08,0.06C510.15,202.01,510.15,202.05,510.15,202.08z"/> <path d="M684.31,511.32c0.05-0.09,0.01-0.71-0.1-0.89c-1.98-3.22-2.93-7.07-5.86-9.75c-0.86-0.78-1.17-4.17-3.41-5.48
		c-1.79,1.65,1.23,3.51,2.4,8.58C678.42,508.48,683.59,514.21,684.31,511.32z"/> <path d="M654.37,376.02c-0.9,0.01-1.21,1.07-0.94,1.85c3.8,11.22,3.98,12.49,5.67,13.54C661.2,387.31,656.79,375.99,654.37,376.02z
		"/> <path d="M626.8,368.53c-3.68,2.38-7.22,5.8-7.35,6.59c-0.52,3.01,5.56-3.51,8.21-5.43c0.24-0.17,0.31-0.6,0.6-1.18
		C627.61,368.51,627.11,368.33,626.8,368.53z"/> <path d="M661.02,398.93c-2.13,0.39-0.46,5.6,1.98,7.7C663.89,403.72,662.71,398.62,661.02,398.93z"/> <path d="M662.36,355.91c-0.28-0.53-0.8-0.86-1.66-0.47C659.54,358.82,664.59,360.11,662.36,355.91z"/> <path d="M672.1,489.27c-0.23,0.22-0.54,0.59-0.49,0.81c0.3,1.25,0.84,2.38,2.32,2.87C674.9,490.53,672.58,488.81,672.1,489.27z"/> <path d="M697.99,503.06c1.56-1.26,1.43-2.27,1.33-4.02c-0.04-0.68-0.12-1.46-1.27-1.47C697.74,499.73,697.77,498.35,697.99,503.06z
		"/> <path d="M697.61,490.62c-0.25,0.09-0.57,0.12-0.61,0.26c-0.44,1.36,0.19,2.41,1.27,4.09C698.63,492.28,698.51,492.2,697.61,490.62z
		"/> <path d="M663.99,410.04c-0.67,0.08-1,1.9,0.47,2.45C665.56,411.55,664.72,409.96,663.99,410.04z"/> <path d="M668.36,482.94c-0.34,0.02-0.68,1.15,0.07,1.72c0,0.17,1.81,0.55,1.22-1.14C669.43,483.09,668.81,482.92,668.36,482.94z"/> <path d="M637.32,363.92c-0.22,0.67-0.41,1-0.39,1.33c0.07,0.78,1.79,0.59,1.32-0.54C638.15,364.46,637.75,364.28,637.32,363.92z"/> <path d="M634.75,370.13c0.01,0.3-0.04,0.67,0.11,0.9c0.23,0.36,0.82,0.09,1.03-0.43c0.14-0.36-0.04-0.92-0.12-0.93
		C635.51,369.66,634.74,369.78,634.75,370.13z"/> <path d="M665.63,415.8c-0.88,0.34-0.77,0-0.54,1.54C666.07,416.94,665.93,417.32,665.63,415.8z"/> <path d="M606.93,386.05c0.68,0.23,0.57,0.42,0.87-0.35C607.16,385.45,607.39,385.35,606.93,386.05z"/> <path d="M613.51,380.94c-0.03,0.04,0.28,0.44,0.36,0.42c0.2-0.06,0.5-0.3,0.71-0.44c-0.14-0.22-0.27-0.42-0.42-0.65
		C613.93,380.48,613.69,380.69,613.51,380.94z"/> <path d="M665.74,421.36c0.24,0.24,0.12,0.29,0.42,0.04C665.92,421.11,666.02,421.11,665.74,421.36z"/> <path d="M333.25,454.09c11.91,1.68,11.7,4.35,13.83,4.54c1.16-2.35-3.06-5.69-6.69-6.64c-6.33-1.66-19.91-2.62-21.64-0.38
		C317.17,453.68,323.03,452.65,333.25,454.09z"/> <path d="M373.26,444.93c10.76,1.85,9.1,1.26,10.77,0.52c-0.59-0.64-0.78-1.01-1.08-1.14C373.45,440.31,369.36,444.25,373.26,444.93
		z"/> <path d="M339.91,524.55c2.55-0.65,12.34-4.28,13.87-5.14c0.38-0.21,0.67-0.57,1.45-1.26c-1.24,0.11-1.97,0.03-2.59,0.25
		C338.26,523.62,339.8,523.11,339.91,524.55z"/> <path d="M345.22,461.61c4.61,11.77,3.41,9.47,5.1,10.49c0.53-2.86-0.78-4.95-1.7-7.08C348.09,463.78,347.56,462.36,345.22,461.61z"/> <path d="M393.36,472.22c-3.01,2.24-3.15,2.48-2.44,4.92C392.82,474.97,393.56,474.09,393.36,472.22z"/> <path d="M399.42,445.35c2.51,0.94,3.7-0.78,3.03-1.55c-0.54-0.62-1.8-0.86-3.17,0.07C398.86,444.16,398.95,445.18,399.42,445.35z"/> <path d="M395.04,445.6c0.51-0.56,0.98-0.89,1.2-1.35c0.26-0.52-0.88-1.37-1.98-0.76C392.96,444.21,394.33,444.95,395.04,445.6z"/> <path d="M390.35,445.11c-0.8-1.4-1.09-1.41-2.35-0.02C388.8,445.9,389.56,445.85,390.35,445.11z"/> <path d="M347.96,475.3c0,1.36-0.02,1.63,0.03,1.98C347.99,478.42,350.63,476.66,347.96,475.3z"/> <path d="M366.66,511.76c-0.55,0.18-1.34,0.04-1.44,0.76C365.08,513.53,365.06,513.33,366.66,511.76z"/> <path d="M366.75,511.68c-0.02,0.03-0.05,0.06-0.09,0.1C366.85,511.75,366.84,511.78,366.75,511.68z"/> <path d="M347.37,487.26c-0.75,0.2-0.74,0.65-0.32,1.19C348.35,487.73,347.81,487.14,347.37,487.26z"/> <path d="M348.71,482.81c0.27-0.61,0.41-0.43-0.31-0.83C348.13,482.65,347.98,482.53,348.71,482.81z"/> <path d="M401.06,482.95c-0.12,0.12,0.17,0.43,0.31,0.43c0.86-0.41,0.62-0.49,0.25-1.03C401.44,482.56,401.23,482.74,401.06,482.95z
		"/> <path d="M515.09,573.8c-6.7,0.71-7-1.45-10.18-0.32c-4.44,1.56-0.76,1.52,4.24,2.86C516,577.7,516.59,573.64,515.09,573.8z"/> <path d="M407.98,554.61c-2.54-0.9-2.32,4.86,3.31,2.45C410.45,555.55,409.22,555.05,407.98,554.61z"/> <path d="M292.08,521.4c-0.76,1-0.65,0.76-0.31,1.05c0.29,0.25,0.59,0.51,0.81,0.47c1.58-0.31,2.9-1.02,3.24-2.82
		C294,519.56,293.33,519.75,292.08,521.4z"/> <path d="M431.21,573.58c-1.03,0.66-0.53,2.06,0.2,2.13C436.62,576.21,433.57,572.08,431.21,573.58z"/> <path d="M283.62,521.06c-0.36,0.13-0.59,0.57-0.94,0.92c2.2,1,2.22,0.97,3.27-0.56C285.26,520.75,284.43,520.76,283.62,521.06z"/> <path d="M424.49,575.47c0.96,0.48,1.75,1.17,2.39,0.27c0.14-0.17,0.16-0.72,0-0.9C426.28,574.15,425.76,574.29,424.49,575.47z"/> <path d="M494.34,575.4c1.93,0.49,1.93,0.49,2.86-0.93C495.41,574.31,495.41,574.31,494.34,575.4z"/> <path d="M416.93,556.51c-0.9,0-1.67,0-2.51,0C415.26,557.99,415.66,558.02,416.93,556.51z"/> <path d="M421.92,557.13c1.17,0.23,0.78,0.37,1.72-0.63C422.05,556.35,422.53,556.27,421.92,557.13z"/> <path d="M488.26,575.26c0,0.24,0.64,0.46,0.92,0.62c0.22-0.24,0.62-0.51,0.58-0.65C489.49,574.19,488.23,574.66,488.26,575.26z"/> <path d="M206.32,536.2c1.76,0.49,2.82,2.08,2.82,2.19c0.93,0.93,0.35,0.47,1.66,0.89c6.36,2.06,6.11-2.17,11.37-5.28
		c-4.61-5.76-3.35-2.92-6.24-1.95c-3.33-4.07-4.23-2.46-9.32,2.54C206.31,534.89,206.23,536.2,206.32,536.2z M211.59,536.18
		c0.75-1.42-0.6-2.14-0.62-3.36c0.51-0.46,1.11-1,1.68-1.49c0.35,0.15,0.64,0.18,0.73,0.34c2.14,3.61,1.64,3.22,4.74,2.27
		c-3.95,7.96-7.23,3.27-9.34,1.32C209.62,533.65,209.98,534.46,211.59,536.18z"/> <path d="M214.48,543.6c0.44-0.22,1.09-0.03,2.11-0.03c-1.65,2.26,0.53,0.51-6.32,5.04c-0.43,0.29-0.87,0.43-0.37,1.16
		c8.15-4.33,7.53-4.95,10.9-4.94c0.65,0,0.91-0.41,0.82-1.06c-2.5-0.37-3.53-0.28-3.44-1.63c4.81-3.8,4.95-4.15,6.66-4.35
		c1.17-0.13,4.78-0.9,5.37-1.93c0.67-1.17-0.3-3.9-3.54-4.77c-1.96-0.53-3.2,0.83-0.84,2.21c1.13,0.66,2.2,0.73,1.62,1.92
		c-2.69,0.57-3.51-0.44-7.63,2.4c-1.86,1.28-3.53,2.8-5.06,3.4c-2.34,0.93-4.77-0.37-5.01-2c-1.19-1.25-2.42-0.65-3.35-2.31
		c-0.43-0.76,0.08-0.31-0.84-0.54c-2.85-0.95,4.59-4.68,5.6-10.54c-5.33-6.52-0.65,2.46-6.03,6.56c-1.33,1.01-2.37,2.21-2.53,3.88
		c6.57,7.01,5.46,5.1,6.99,6.59C211.07,544.1,212.58,544.56,214.48,543.6z"/> <path d="M188.06,513.53c-0.86,1.28,1.64-0.07,4.18,4.99c-2.53,1.24-2.27,0.7-0.69,2.01c1.36,1.13,4.42,4.7,3.28,5.74
		c-1.31,1.19-1.01-2.59-3.34-3.9c0.06,3.44,1.83,4.03,1.6,10.16c-0.42,11.56-4.17,14.24-4.07,17.92c4.06-3.61,6.33-18.06,7.41-23.93
		c0.31-1.68-2.19-7.03-2.88-8.4C192.7,516.44,188.92,512.24,188.06,513.53z"/> <path d="M188.92,550.53c0.12,0.12,0.09,0.14,0.09-0.08C188.98,550.48,188.96,550.5,188.92,550.53z"/> <path d="M206.15,536.12c0.11,0.11,0.12,0.14,0.12,0.04C206.23,536.15,206.19,536.13,206.15,536.12z"/> <path d="M207.57,493.01c0.49-1.97-1.41-1.64-2.46-5.68c1.22,0.36,2.08,0.61,2.74,0.8c0.6,0.87-0.89,2.02,0.75,2.51
		c1.47-2.59,3.52-5.01,2.81-6.8c-1.94,0.73-0.46,0.93-7.68-1.64c-0.86-1.27-1.21-3.41-3.65-3.78c3.65,9.2-0.47,3.79,5.09,12.28
		C207.64,494.44,207.11,494.86,207.57,493.01z"/> <path d="M248.87,510.43c-2.52,0.24-2.47,14.55-16.83,15.61c-0.24,0.02-0.48,0.27-0.73,0.42c1.39,1.88,8,0.49,11.55-2.66
		C248.72,518.59,250.31,510.3,248.87,510.43z"/> <path d="M225.69,544.92c-13.55,10.16-14.17,9.4-14.31,11.61c0,0.51-5.46,4.26-7.89,6.61c0.84,0.76,1.49,0.24,1.59,0.24
		c1.69-0.56,6.56-4.9,8.51-6.82C221.11,549.11,227.89,546.46,225.69,544.92z"/> <path d="M185.14,513.37c-1.42,0.65-1.39,0.47-1.09,1.39c0.36,0.36,0.32,0.25,0.18,0.55c-0.33-0.99-0.18-0.81-2.7-0.95
		c5.02,6.55,1.51,5.85,1.2,14.65c1.75-2.1,2.53-5.33,3.84-9.87c1.52,0.7,1.68,2.72,3.98,3.1
		C188.44,519.12,187.34,516.01,185.14,513.37z"/> <path d="M224.83,549.76c-2.45,1.8,0.87,1.36-1.59,3.91c-3.58,3.7-7.13,5.75-12.48,9.38c2.81,0.29,11.54-6.19,13.34-8.4
		c1.65-2.02,1.14-2.05,1-3.94c10.02-5.46,4.3-3.55,10.82-6.92C233.46,543.13,234.96,542.32,224.83,549.76z"/> <path d="M160.53,563.37c0.88,2.97,11.16,7.46,21.42,5.96c-4.65-1.59-3.46-0.79-7.54-1.52
		C160.18,565.25,163.38,562.96,160.53,563.37z"/> <path d="M166.45,501.87c5.18-5.37,5.98-5.53,4.71-6.51c-1.08,0.88-2.2,1.81-3.33,2.74c0.66-3.72,4.13-3.68,2.52-9.55
		c-1.6,0.8-2.44,1.98-2.91,3.74C167.07,493.64,165.04,501.23,166.45,501.87z"/> <path d="M164.7,533.06c-0.38,6.94,2.41,13.73,5.42,20.04c0.21,0.45,0.56,1.07,1.54,0.63c-0.16-0.85-0.52-1.69-0.88-2.48
		C165.68,540.2,167.04,535.88,164.7,533.06z"/> <path d="M195.3,491.74c0.97-6.13-1.12-8.59-0.14-14.08c0.11-0.44-1.22-2.15-2.13,1.92c-0.92,4.1,0.16,8.15,1.78,11.99
		C194.83,491.64,195.01,491.65,195.3,491.74z"/> <path d="M174.66,503.31c0.06-0.17-0.09-0.43-0.16-0.72c-2.41-0.09-7.2,17.1-7.2,17.78C167.3,523.28,171.48,511.92,174.66,503.31z"/> <path d="M167.26,521.11C167.24,521.13,167.24,521.13,167.26,521.11L167.26,521.11z"/> <path d="M167.32,521.03c0-0.15,0.02-0.2-0.09-0.08c0.07,0.06,0.05,0.12,0.03,0.16C167.27,521.09,167.28,521.07,167.32,521.03z"/> <path d="M172.4,521.67c-0.04,0-0.06,0.02-0.1,0.02C172.4,521.78,172.4,521.81,172.4,521.67z"/> <path d="M175.72,511.56c-1.33,5.88-2.48,6.72-3.33,10.1c1.12-0.17,1-1.45,1.91-2.05c1.36-0.79-0.37,1.94,0.78,3.35
		c2.05-5.7,3.21-7.71,1.19-9.59C175.88,513.01,175.9,512.18,175.72,511.56z"/> <path d="M205.1,530.08c1.16-1.49,1.31-1.79,1.4-2.93c0.24-3.08-1.14-7.95-4.73-7.52C206.35,528.01,204.07,527.69,205.1,530.08z"/> <path d="M196.27,520.99c4.56,6.44,2.57,3.25,5.71,9.73c1.57-2.57-1.47-7.67-3.55-9.77C197.79,520.31,197.18,520.12,196.27,520.99z"/> <path d="M171.1,500.41c0.11-0.08-0.04-0.39-0.08-0.6c-2.71,1.4-2.92,2.67-3.59,6.05C167.18,507.06,166.41,508.25,171.1,500.41z"/> <path d="M178.52,512.2c-0.07-0.09-0.4,0.01-0.6,0.03c0.49,2.24,0.81,2.89,3.07,5.78C180.64,515.55,179.79,513.79,178.52,512.2z"/> <path d="M186.34,531.75c0.88-2.23,2.36-4.32,1.62-7.78C187.26,526.92,186.38,529.15,186.34,531.75z"/> <path d="M175.87,559.58c0.18-2.29-0.08-4.53-1.06-6.91C174.66,555.2,174.73,557.47,175.87,559.58z"/> <path d="M258.66,521.38c-0.21,0.07-0.31,0.47-0.55,0.83c1.57,0.6,2.79-0.07,4.1-0.94C260.63,520.8,259.64,521.05,258.66,521.38z"/> <path d="M182.98,511.68c-1.91-2.68-1.47-0.19,0.8,2.08C183.63,513.31,183.66,512.76,182.98,511.68z"/> <path d="M183.9,513.94c0-0.07-0.08-0.12-0.13-0.17C183.81,514.06,183.8,513.98,183.9,513.94z"/> <path d="M246.4,527.47c0.9-0.37,1.57-0.64,2.74-1.13C247.16,526.47,247.16,526.47,246.4,527.47z"/> <path d="M166.93,522.06c0.39,1.54,0.29,0.07,0.29-0.73C167.22,520.94,166.8,521.68,166.93,522.06z"/> <path d="M172.39,521.77l-0.09-0.07C172.33,521.98,172.25,522.05,172.39,521.77z"/> <path d="M171.57,523.31c0.16-0.13,0.11-0.06,0.22-0.28c-0.07,0.03-0.11,0.07-0.17,0.1L171.57,523.31z"/> <path d="M171.77,523.02C172.13,523.02,172.84,520.89,171.77,523.02L171.77,523.02z"/> <path d="M202.73,542.99c0.02,0.02,0.02,0.03,0.04,0.05C202.78,542.93,202.78,542.99,202.73,542.99z"/> <path d="M202.73,544.03c0.32-0.38,0.41-0.57,0.04-1C202.75,543.14,202.73,543.4,202.73,544.03z"/> <path d="M202.73,544.04c-0.03,0.03-0.07,0.07-0.09,0.11c0.03,0.02,0.04,0.04,0.06,0.05l-0.06-0.04c-0.04,0.3-0.03,0.17,0.09,0.07
		l-0.02-0.02C202.74,544.25,202.73,544.21,202.73,544.04z"/> <path d="M189,550.62l-0.08-0.09C188.77,550.88,188.69,550.89,189,550.62z"/> <path d="M517.1,425.12c-3.78,1.79-7.94,6.54-13.51,9.61c-4.13-9.39-3.06-8.95-5.51-13.11c0.64,5.92,3.83,10.95,4.08,14.21
		c-1.91,0.98-2.05,1.86-3.52-2.82c-4.98-15.84-2.84-10.33-4.72-14.3c-1.74,3.16-1.24,0.58,5.21,18.91
		c-8.85,5.87-12.05,6.86-13.15,8.73c2.12,0,10.38-5.59,13.6-7.2c0.5,0.27-0.02-0.4,2.49,3.35c0-2.04-0.77-2.11-0.96-3.53
		c0-1.78,1.49-1.92,2.85-1.21c0.59-3.45,1.91-1.44,9.34-8.89c0.58-0.58-0.87,0.52,13.04-9.37c0.13,0-1.83,0-2.11,0.18
		C521.44,421.53,518.88,424.28,517.1,425.12z"/> <path d="M478.25,433.38c0,0.06-0.39,0.5-0.42,0.78c0,3.31,15.14,39.15,1.11-0.5C478.89,433.56,478.49,433.47,478.25,433.38z"/> <path d="M469.9,400.2c-0.73,4.83,0.17,13.26,2.32,17.24C469.78,396.77,470.13,398.68,469.9,400.2z"/> <path d="M481.66,431.32c-1.25,1.67-0.84,2.29,0.92,4.86C482.61,434.49,483.03,432.78,481.66,431.32z"/> <path d="M502.3,442.81c0.05,0.05,0.35,0.09-0.03-0.04C502.27,442.79,502.3,442.81,502.3,442.81z"/> <path d="M502.02,442.68c0.33,0.12,0.26,0.15,0.09-0.1C502.01,442.42,502.06,442.45,502.02,442.68z"/> <path d="M429.38,529.93c2.69,0.22,3.99-0.3,5.36-2.53C431.95,527.67,431.4,527.73,429.38,529.93z"/> <path d="M439.19,525.01c0.7,0.43,0.4,0.4,1.05-0.01C439.64,524.59,439.86,524.56,439.19,525.01z"/> <path d="M437.63,526.59l0.16-0.21C437.48,526.32,437.53,526.27,437.63,526.59z"/> <path d="M670.28,191.35c1.84,1.81,2.18,1.28,3.67,1.23c0-1.28,1.03,0.48-5.92-9.02c-3.5-1.88-3.22-5.97-6.01-5.81
		c-0.04,1.71-0.64,0.23,2,4.18C665.97,184.85,665.46,186.6,670.28,191.35z"/> <path d="M627.46,73.22c2.01,3.72,2.89,3.8,3.48,4.21c0.46-9.29-8.32-18.24-7.91-13.15C623.09,65.04,627.15,72.65,627.46,73.22z"/> <path d="M541.97,175.05c-0.65-0.07-1-0.19-1.06-0.11c-2.26,3.04-3.13,6.67-4.14,10.22c-0.47,1.62-1.28,3.31-0.4,5.43
		C538.15,188.53,536.72,187.38,541.97,175.05z"/> <path d="M593.92,68.73c1.01,1.77,4.23-4.91,4.82-6.69c0.41-1.22,0.3-1.01-0.46-2.55C597.46,60.61,593.3,67.49,593.92,68.73z"/> <path d="M636.43,91.53c1.06-1.14,0.75-1.98,0.29-3.25c-0.54-1.5-0.8-3.27-2.47-4C631.53,85.02,634.2,89.79,636.43,91.53z"/> <path d="M628.51,44.38c0.35,0.23,1.15-0.52,1.06-1.06c-0.24-1.09-0.86-1.87-2.12-2.29C626.05,42.11,627.04,43.42,628.51,44.38z"/> <path d="M686.92,181.5c0.6-2.5,0.21-4.04-0.76-5.42c-0.92,0.36-1.04,0.87-0.78,1.59C685.78,178.8,685.34,180.26,686.92,181.5z"/> <path d="M660.65,175.39c1.28-1.13-0.13-2.2-1.49-3.42c-0.09-0.09-0.49,0.06-0.61,0.16C657.63,172.91,659.07,174.83,660.65,175.39z"/> <path d="M592.57,75.59c-0.25-0.13-1.5,0.82-1.21,2.17c0.23,1.1,1.12,1.28,1.88,0.34c0.23-0.29,0.32-0.81,0.55-1.47
		C593.38,76.25,593.03,75.73,592.57,75.59z"/> <path d="M685.12,173.07c0.25-1.58,0.25-1.58-1.38-3.95C683.27,171.36,683.36,171.57,685.12,173.07z"/> <path d="M589.43,84.87c-0.49-0.2-0.95,0.59-0.96,1.18c-0.01,0.57,0.41,1.43,0.89,1.24c0.46-0.21,0.79-0.68,1.36-1.21
		C590.14,85.5,589.81,85.03,589.43,84.87z"/> <path d="M585.89,91.07c-0.53-0.07-1.24,0.37-1.17,0.95c0.04,0.38,0.29,0.76,0.6,1.26C587.11,93.39,587.2,91.25,585.89,91.07z"/> <path d="M607.13,57.38c0.44,0,1.51-1.73-0.47-2.55C606.59,55.66,606.22,57.38,607.13,57.38z"/> <path d="M655.35,168.63c-0.1-1.06-0.02-1.63-0.24-2.04c-0.14-0.26-0.81-0.46-1.13-0.35C652.41,166.81,654.93,168.31,655.35,168.63z
		"/> <path d="M639.33,97.4c0.68-1.24,0.34-2.04-0.84-2.56C637.82,96.01,638.15,96.83,639.33,97.4z"/> <path d="M608.69,52.76c0.8-0.28,1.01-1.6-0.35-1.69C607.55,51.89,608,53.01,608.69,52.76z"/> <path d="M641.04,101.92c0.42-0.56,0.56-0.19-0.26-1.55C639.91,101.36,639.87,100.96,641.04,101.92z"/> <path d="M520.76,185.45c0.07-0.96-0.39-1.6-1.27-1.98C519.38,183.47,519.51,184.51,520.76,185.45z"/> <path d="M521.61,186.27l-0.06,0.05c0.25,0.18,0.24,0.22,0.1-0.09l-0.03,0.02c-0.04-0.1-0.49-0.55-0.88-0.81c0,0.05,0,0.1-0.01,0.16
		C521.3,186.08,521.55,186.26,521.61,186.27z"/> <path d="M519.35,183.28c-0.24-1.07-0.14-0.78-0.5-0.95C518.62,182.97,518.49,182.7,519.35,183.28z"/> <path d="M519.39,183.42c0.17,0.04,0.08,0.09,0.08-0.08C519.39,183.3,519.27,183.19,519.39,183.42z"/> <path d="M598.99,18.94c1.15,0.41,0.76,0.42,1.3-0.25C599.06,18.39,599.38,18.44,598.99,18.94z"/> <path d="M642.43,105.97c-0.26-0.3-0.18-0.27-0.45-0.03C642.24,106.24,642.15,106.21,642.43,105.97z"/> <path d="M372.76,149.33c4.1-1.85-1.53-21.51-5.06-16.04C373,139.46,371.07,148.49,372.76,149.33z"/> <path d="M406.86,198.67c1.91,0.56,5.22-1.05,6.51-4.49c-0.67-0.11-1.14-0.34-1.51-0.23c-2.35,0.68-4.31,2.09-6.09,3.73
		C406.18,198.07,406.49,198.56,406.86,198.67z"/> <path d="M368.43,158.77c0.25,0.73,0.19,0.73,0.78,0.45c1.05-0.5,1.45-1.64,1.64-2.77c0.08-0.48-0.35-1.03-0.57-1.61
		C368.77,156.15,367.87,157.12,368.43,158.77z"/> <path d="M446.39,174.37c1.25,0.34,2.52,0.52,3.89,0.15c0.06-0.51,0.13-0.67,0.08-0.73C447.77,170.62,444.19,173.78,446.39,174.37z"/> <path d="M438.34,173.67c4.22,0.86,3.48-1.98,0.48-2.35C437.3,171.14,436.56,173.31,438.34,173.67z"/> <path d="M484.52,175.76c-1.28-1.05-2.71-1.23-4.76-0.85C481.55,176.19,483.14,177.21,484.52,175.76z"/> <path d="M419.03,188.45c-0.08,0.06-0.1,0.2-0.14,0.3C421.88,192.54,423.02,185.47,419.03,188.45z"/> <path d="M432.9,170.73c0.12-0.2,0.37-0.42,0.34-0.59c-0.28-1.47-2.02-2.06-2.56-1.28C430.26,169.57,431.3,170.95,432.9,170.73z"/> <path d="M426.2,165.82c-1.03-3.23-4.32-1.86-3.04-0.53C423.94,166.09,424.89,166.35,426.2,165.82z"/> <path d="M424.77,201.83c-1.23-1.18-2.99,0.49-2.2,1.27C423.21,203.74,424.75,203.33,424.77,201.83z"/> <path d="M362.29,165.42c-0.41,0.48-0.7,0.76-0.89,1.1C361.07,167.08,363.42,168.07,362.29,165.42z"/> <path d="M366.77,163.2c-0.41-0.24-0.63-0.44-0.88-0.5c-0.1-0.02-0.42,0.29-0.4,0.4c0.07,0.25,0.27,0.47,0.43,0.7
		C366.16,163.64,366.38,163.47,366.77,163.2z"/> <path d="M416.65,191.3c-0.78,0.26-0.68,0.08-0.48,0.75C417.01,191.77,416.83,191.9,416.65,191.3z"/> <path d="M515.66,249.13c-0.57-0.02-1.24-0.17-1.89-0.13c-7.85,0.49-3.14-2.08-11.05,0.47c1.82,1.62-0.08,0.12,6.08,1.9
		C513.47,252.71,516.12,250.69,515.66,249.13z"/> <path d="M411.24,231.94c-1-1.31-2.23-1.93-3.61-2.24c-0.48-0.11-1.06,0.65-1.12,0.65C405.38,231.76,409.77,234.49,411.24,231.94z"/> <path d="M292.33,197.92c1.74-0.29,3.62-1,3.37-2.75C291.85,194.33,290.81,198.17,292.33,197.92z"/> <path d="M431.66,251c4.74,0.22,1.96-3.83-0.38-2.33C430.25,249.34,430.41,250.94,431.66,251z"/> <path d="M285.74,196.35c-0.19-0.24-0.61-0.3-1.06-0.5c-1.26,0.44-1.83,0.5-1.8,1.16C282.97,198.6,286.81,197.74,285.74,196.35z"/> <path d="M497.83,249.66c-2.66-0.5-2.75-0.21-3.44,1.09C495.65,251.37,496.55,250.76,497.83,249.66z"/> <path d="M427.28,250.46c-0.34-0.36-0.92-0.86-1.41-0.86C423.89,249.59,424.88,252.68,427.28,250.46z"/> <path d="M417.11,231.57c-0.97-0.01-1.55-0.03-2.12,0.01C413.72,231.68,415.38,234.13,417.11,231.57z"/> <path d="M489.82,250.09c-1.2-0.42-0.85-0.49-1.25,0.52C489.77,250.8,489.46,250.93,489.82,250.09z"/> <path d="M423.4,231.87c-0.48-0.56-0.94-0.44-1.47,0.05C422.39,232.62,422.88,232.65,423.4,231.87z"/> <path d="M209.77,224.34c-0.14,0.23-0.16,0.15,0.09,0.08C209.99,224.25,210,224.3,209.77,224.34z"/> <path d="M192.27,193.59c-2.38,1.19-2.32,0.7-0.81,2c1.95,1.67,5.2,5.47,2.75,6.15c-1.67-3.65-1.78-4.57-2.89-3.9
		c1.23,4.78,3.87,12.22-1.19,23.62c-0.93,2.09-1.49,4.75-0.93,4.09c4.43-5.25,5.69-17.67,6.97-22.72
		c1.51-5.97-7.21-16.89-8.19-13.82C190.77,190.98,190.77,190.98,192.27,193.59z"/> <path d="M188.85,225.98c-0.02,0.03,0.03,0.01,0.05-0.01c0.04-0.02,0.1-0.05,0.13-0.06l0.02,0.02v-0.03
		C189.05,225.5,188.95,225.98,188.85,225.98z"/> <path d="M206.27,209.34c0,0.69-0.01,1.4-0.01,2.09c2.09,0.26,3.27,2.63,2.76,2.12c0.48,0.48-2.8-1.05-2.82-2.04
		c0.02,0,0.04,0,0.06,0.01c0-0.03,0.01-0.06,0.01-0.09c-0.18-0.04-0.12-0.02-0.08,0.07c-1.66-0.01-1.63-1.99-0.01-2.26
		c0.41-1.73,3.14-2.44,5.11-8.86c-2.26-1.83-1.47-1.31-3.09-1.85c-0.79,11.84-3.61,6.08-5.62,12.41c2.45,3.16,5.3,5.81,8.59,7.99
		c2.08,1.38,4.73-1.87,5.04,0.69c-4.03,3.1-5.16,3.19-6.26,4.7c5.19-1.05,6.4-4.33,9.4-4.23c2.18,0.07,1.94-0.32,2.59-1.11
		c-2.77-0.38-3.77-0.27-3.81-1.7c8.66-6.7,3.72-2.64,11.13-5.5c2.36-0.91,0.88-3.99-1.42-5.13c-1.1-0.54-2.96-1.14-3.23,0.12
		c-0.35,1.68,4.15,2.63,2.97,3.31c-0.41,0.2-0.84,0.57-1.23,0.54c-3.51-0.3-5.21,1.54-9.39,3.81c-2.8,2.96-4.67,2.23-6.07,1.11
		c-3.03-2.42,0.56-0.25,2.9-0.59c0.32,0,3.15-0.48,3.29-0.75c0.69-1.03,0.7-1.19,1.44-2.19c3.19-4.32,4.92-1.08,1.66-5.35
		c-1.53-2-2.94-0.43-4.11,0.55c-3.69-4.36-4.06-2.07-7.72,0.85C207.75,208.57,207.19,209.34,206.27,209.34z M209.46,209.22
		c2.42,2.32,2.15,2.21,2.36,1.54c0.33-1.05-0.86-1.71-0.76-2.85c0.41-0.37,1.01-0.9,1.55-1.4c0.35,0.14,0.65,0.16,0.74,0.31
		c2.28,3.69,1.74,3.32,5.14,2.07c-0.67,1.2-1.28,2.25-2.03,3.06c-1.58,1.7-3.68,1.82-4.36,1.32c-1.08-0.81-3.05-2.88-3.05-2.99
		C208.99,210.15,209.28,209.7,209.46,209.22z"/> <path d="M207.22,169.18c1.04-1.04,0.23-2.16,0.48-3.12c-0.02,0.01-0.04,0.01-0.06,0.02c0-0.24-0.85-0.2-1.17-0.62
		c-0.52-0.78-0.86-1.68-1.32-2.6c1.14-0.51,1.92,0.08,2.86,0.53c-0.42,2.91-0.64,2.93,0.35,2.41c0.79-0.79,2.84-3.95,3.33-6.17
		c0.04-0.17-0.17-0.4-0.28-0.64c-0.63,0.23-1.27,0.47-1.43,0.53c-6.73-2.45-6.07-2.16-6.22-2.43c-1.77-3.07-1.82-3.09-3.61-3.44
		c0.77,1.73,1.25,2.3,1.63,5.28C202.28,162.92,203.81,163.31,207.22,169.18z"/> <path d="M249.5,186.61c0.07-0.41-0.11-0.85-0.17-1.28c-1.81,0.17-1.63,2.55-3.96,7.06c-5.63,10.91-15.58,7.77-13.86,9.49
		C233.44,204.09,246.86,201.64,249.5,186.61z"/> <path d="M225.91,221.3c0.37-0.35,0.45-0.79-0.28-1.18c-15.77,11.78-14.58,9.8-14.17,10.75c0.55,1.27-2.32,2.24-8,7.37
		c2.2,1.98,7.46-5.43,17.3-12.5C222.47,224.53,225.81,221.4,225.91,221.3z"/> <path d="M183.91,197.31c-0.62,2.64-0.17,0.21-1.39,6.97c2.39-2.93,2.74-6.66,4.33-10.07c2.51,3.14,2.66,3.63,3.38,2.81
		c-4.71-8.31-4.22-8.1-5.78-8.51c-0.52-0.14-0.37-0.34-0.62,1.3c0.11,0,0.06,0.04,0.14,0.2c0.06,0.04,0.13,0.09,0.19,0.13
		c-0.06-0.02-0.14-0.02-0.17-0.06c-0.1-0.2-0.22-0.1-0.16-0.27c-0.62-0.01-1.2-0.86-1.86-0.08
		C182.4,191.16,185.13,192.1,183.91,197.31z"/> <path d="M232.47,219.32c-9.95,7.25-7.72,5.47-9.12,6.83c3.81,2.47-10.02,9.08-10.59,11.19c2.5-0.24,11.91-6.61,12.48-9.41
		c0.9-4.4-4.08,1.47,10.16-9.05C234.32,218.13,233.54,218.55,232.47,219.32z"/> <path d="M212.71,237.38l-0.03-0.03c-0.03,0.11-0.12,0.15,0.05,0.07c0.01,0.01,0.01-0.01,0.04-0.07c0,0-0.01,0-0.01,0
		c-0.03,0-0.05,0-0.07,0C212.7,237.37,212.7,237.36,212.71,237.38z"/> <path d="M166.43,177.06c6.31-6.53,5.21-5.11,5.39-6.78c-0.7,0.43-1.99,1.16-2.26,1.43c-1.54,1.36-1.4,0.42-1.72,1.17
		c0-1.99,4.15-3.48,2.55-8.95c-0.43,0.17-0.98,0.21-1.19,0.51c-1.7,2.45-1.76,2.04-3.2,9.36c-0.11,0.57-0.05,1.2,0.03,1.79
		C166.1,176.08,165.67,176.75,166.43,177.06z"/> <path d="M173.89,242.82c-14.28-2.43-11.05-5.46-13.52-4.06c5.56,5.47,20.47,7.75,21.58,5.92
		C181.31,243.09,182.59,244.3,173.89,242.82z"/> <path d="M181.62,243.84c0.02,0,0.05,0,0.07,0.01c0.01,0.02,0.01,0.02,0.01,0c0,0,0,0,0.01,0c0,0,0,0,0,0c0-0.01,0-0.03,0.01-0.06
		c-0.05-0.02-0.09-0.04-0.14-0.05c0.01,0.01,0.01,0.01,0.01,0.01C181.57,243.73,181.6,243.77,181.62,243.84z"/> <path d="M171.74,229.64c-1.25-6.23-1.67-1.59-5.9-19.02C163.77,202.09,165.01,223.95,171.74,229.64z"/> <path d="M194.56,166.42c0.05,0.19,0.42,0.29,0.73,0.5c1.33-5.23-1.41-9.12,0-14.45c-0.7-0.49-1.11-0.45-1.36-0.2
		c-0.34,0.35-1.73,4.11-1.29,6.92C193.02,161.63,193.9,164.01,194.56,166.42z"/> <path d="M174.56,177.47c-3.17,2.31-7.19,15.86-7.19,18.61C168.72,194.43,174.56,179.51,174.56,177.47z"/> <path d="M167.25,196.23C167.25,196.68,167.52,195.89,167.25,196.23L167.25,196.23z"/> <path d="M174.49,194.98c0-1.23,0.14,1.97,0.25,3.68c3.46-8.48,3.11-7.78,0.6-12.18c-0.62,5.78-2.9,8.74-2.9,9.92
		C172.37,197.28,172.05,196.9,174.49,194.98z"/> <path d="M172.31,196.96C170.59,200.63,172.97,196.3,172.31,196.96L172.31,196.96z"/> <path d="M205.36,205.01c2.07-1.55,1.41-8.97-2.39-10.49c-0.41-0.16-0.75,0.02-1.02,0.68C206.21,201.31,204.07,205.97,205.36,205.01
		z"/> <path d="M202.63,205.67c-0.15-1.04-0.2-2.1-0.49-3.1c-0.87-3.06-4.22-9.11-5.75-6.32C203.35,206.08,201.02,206.2,202.63,205.67z"/> <path d="M175.93,234.83c-0.04-2.29,0.08-4.6-1.08-6.87C174.61,230.43,174.75,232.71,175.93,234.83z"/> <path d="M170.51,176.36c0.81-0.81,0.57-1.06,0.57-1.33c-2.62,0.97-3.23,3.09-3.73,5.96C168.84,179.74,169.43,177.88,170.51,176.36z
		"/> <path d="M167.25,181.09l0.08,0.08C167.37,180.9,167.43,180.96,167.25,181.09z"/> <path d="M177.65,187.71c2.4,4.56,1.28,2.62,3.06,5.46C180.49,190.45,180.11,188.6,177.65,187.71z"/> <path d="M186.13,206.44c2.12-3.26,2.34-4.22,1.62-6.62C187.18,202.14,186.66,204.29,186.13,206.44z"/> <path d="M261.95,195.91c-1.4,0.18-2.64,0.23-4.47,1.22C260.37,197.74,260.89,197.57,261.95,195.91z"/> <path d="M182.95,187.8c1.27,0.73,0.92,0.48-0.76-1.98C181.63,186.73,182.32,187.49,182.95,187.8z"/> <path d="M183.95,188.39C184.3,188.51,183.59,187.89,183.95,188.39L183.95,188.39z"/> <path d="M247.54,201.55c-1.02,0.02-1.15,0.48-1.04,1.04C249.11,201.42,249.45,201.52,247.54,201.55z"/> <path d="M212.63,237.46c-0.4,0.18-0.8,0.37-1.2,0.54C211.94,238,212.37,238.04,212.63,237.46z"/> <path d="M211.28,238.07c0.18-0.07,0.24-0.08-0.09-0.08C211.11,238.35,211.08,238.35,211.28,238.07z"/> <path d="M158.58,204.76C158.56,204.6,158.56,204.64,158.58,204.76L158.58,204.76z"/> <path d="M158.58,204.76C158.52,204.66,158.49,204.62,158.58,204.76L158.58,204.76z"/> <path d="M158.62,205.06c0.08,0.1,0.2,0.29,0.09-0.07C158.5,204.66,158.59,204.73,158.62,205.06z"/> <path d="M167.21,181.41C167.15,181.52,167.13,181.56,167.21,181.41L167.21,181.41z"/> <path d="M167.24,181.1c-0.01,0.11-0.02,0.22-0.03,0.3C167.35,181.13,167.37,181.22,167.24,181.1z"/> <path d="M167.24,196.85c0.05-0.22,0.02-0.31,0.02-0.46C166.45,197.2,167.18,197.05,167.24,196.85z"/> <path d="M209.67,224.49c-0.03,0.01-0.05,0.01-0.07,0.03C209.51,224.58,209.46,224.85,209.67,224.49z"/> <path d="M171.71,198.49l-0.07-0.07C171.53,198.62,171.51,198.61,171.71,198.49z"/> <path d="M511.39,204.84c0.04-0.53-0.08-1.17-0.54-1.17C511.04,204.06,511.22,204.46,511.39,204.84z"/> <path d="M511.36,205.07c0.28,0.04,0.27,0.03,0.08-0.08C511.36,204.81,511.4,204.79,511.36,205.07z"/> <path d="M510.72,203.48c0.1-1.07-0.58-1.46-0.58-1.36C510.02,202.73,510.17,203.21,510.72,203.48z"/> <path d="M510.81,203.53c-0.08-0.03-0.09-0.1-0.09,0.08C510.87,203.64,510.91,203.74,510.81,203.53z"/> <path d="M500.22,156.42c0.3,0.03,0.26,0.08,0.14-0.22L500.22,156.42z"/> <path d="M206.2,536.24c0.02,0,0.04,0,0.06,0C206.12,536.1,206.13,536.09,206.2,536.24z"/> <path d="M206.26,209.24c0.01-0.01-0.03,0.01-0.1,0.01c-0.01,0.03-0.01,0.06-0.02,0.09c0.01-0.01,0.01-0.01,0.02-0.02
		c-0.04,0.04,0.01,0.01,0.11,0.01c0-0.03,0-0.08,0-0.11C206.27,209.23,206.27,209.24,206.26,209.24z"/> </g> </svg> 