<?xml version="1.0" encoding="utf-8"?> <!-- Generator: Adobe Illustrator 23.0.1, SVG Export Plug-In . SVG Version: 6.00 Build 0)  --> <svg version="1.2" baseProfile="tiny" id="Layer_1" xmlns="http://www.w3.org/2000/svg" xmlns:xlink="http://www.w3.org/1999/xlink" x="0px" y="0px" viewBox="0 0 900 600" xml:space="preserve"> <g> <path d="M662.03,555.57c-0.02-0.01-0.03-0.02-0.05-0.03C662.11,555.67,662.12,555.66,662.03,555.57z"/> <path d="M729.87,437.29c3.18-8.48-3.95-13.41-8.24-11.4c-3.23,1.51-2.98,0.9-4.48,0.71c0.24-0.48,0.78-1.87,2.14-2.65
		c11.42-6.54,13.05-0.23,14.06-2.52c0.31,0.5,0.8,0.9,0.9,1.4c6.84,25.78,3.66,14.98,3.66,24.02c4.27-7.11,1.2-20.45-2.65-27.78
		c-4.22-8.05-14.11-7.14-15.06-4.88c-1.27,3.02-11.59,3.05-13.23,16.18c-21.43,0-22.89,2.14-34.19,12.41
		c-1.02,0.81-2.24,1.53-2.24,3.05c0,0.76-4.17,4.15-9.16,3.97c-2.29-0.08-14.46-0.88-16.89-2.65c-25.45-18.4-15.42-16.1-42.23-19.84
		c-4.43-6.27-47.9-8.18-54.34-9.57c-8.73-1.88-28.52-9.57-31.34-12.11c-1.14-5.14-1.29,0.06-8.34-7.53
		c-5.28-5.68-10.14-9.05-13.13-16.08c-2.54-5.08-5.43-9.76-10.38-12.62c-2.47-1.42-11.44-6.27-14.14-7.22
		c-10.6-3.73-27.09-4.96-36.12,0.51c-1.38,0.83-2.67,1.7-4.25,2.14c1.15-0.18,1.85,0.54,2.7,1.14c-1.36-8.9,41.5-10.36,55.89,10.27
		c2.28,3.27,3.33,4.73,3.77,5.29c0.53,0.92,1.95,3.25,5.29,8.55c-0.99,1.41-0.87-0.79-4.88,2.65
		c-16.75,14.35-19.06,16.37-24.73,28.09c-1.4,2.89-1.7,3.46-2.44,3.46c-0.22,0-38.16-24-41.31-26.25c1.2-9.63,2.85-6.54,2.85-31.65
		c0.99,0.01,2.06,0.14,2.85-1.52c-3.42,0.94-2.85,2.75-2.85-0.01c-8.75-4.37-5.86-0.64-8.45-3.15c-6.3-6.14-17.02-14.16-24.32-17.1
		c-14.9-5.98-23.61-10.79-29.92-13.23c-22.07-8.54-20.02-6.4-29.82-17.71c-10.85-12.52-12.32-12.51-15.67-16.89
		c-5.33-6.97-11.3-13.43-18.93-18.01c-0.31-0.31-0.92-0.71-0.92-1.02c-0.31-5.92-42.77-20.59-49.96-25.13
		c-12.27-7.74-21.81-10.69-33.78-19.84c-0.48-0.96-0.46-0.7,2.14-2.65c-0.2-1.02-0.41-1.93-0.61-2.95
		c-6.74-4.21-23.83-11.4-26.15-18.11c-0.1-0.41-0.51-0.71-0.71-1.02c-2.65,0.92-5.09,1.93-7.02,3.87
		c-10.39,10.39-11.36,11.49-10.58,13.84c0.14,0.68-2.12,4.72-2.54,10.48c-1.42,0.92-2.54,1.73-3.66,2.54
		c-0.31,1.53-0.51,2.75-0.61,3.77c-11.68,15.01-13.35,20.59-16.59,33.07c-1.02,3.93-0.59,8.91-0.2,15.37
		c0,4.36,10.9,11.5,19.64-2.04c4.21-6.53,4.29-7.67,7.22-9.26c12.3-6.66,12.61-8.99,14.04-9.46c11.45-3.12,8.76-3.33,11.6-1.63
		c159.15,112.05,108.33,74.36,130.05,99.32c19.7,22.64,56.63,56.28,86.39,60.34c2.34,0.32,4.68,0.71,6.92,1.53
		c-1.9,12.38-1.65,29.1,2.65,39.99c4.48,11.35,4.59,25.79,9.87,41.21c0.78,2.27,0.72,16.47-0.71,21.47
		c-2.46-0.7-8.08-5.75-33.28-10.48c-10.02-1.88-19.32-2.63-29.41-1.83c-4.91,0.39-18.77-0.54-21.88-3.15
		c-0.9-0.76-5.57-0.99-11.6-2.14c-10.33-1.97-9.66-1.39-10.43-4.12c0.49-0.49,0.98-0.89,1.37-1.27c-1.02-4.09-7.65-3.44-20.15-10.68
		c-3.51-2.03-4.46-1.69-5.6-3.46c-2.12-3.3-4.56,0.24-6.31,2.24c-3.69,4.21-3.59,2.8-4.99,5.49c-9.17,17.71-5.32,22.85-12.21,29.1
		c-3.35,3.04-10.9,13.08-9.46,20.56c1.31,6.79,5.62,14.17,8.65,17.2c2.81,2.81,4.31,1.46,7.63,2.75c7.07,2.75,10.19-1.03,13.03-3.87
		c-0.71-1.93-0.61-4.07-1.63-6.11s-0.61-4.17,1.12-5.9c3.05-2.67,4.13-4.17,6.92-4.17c3.44,0,3.15-1.47,5.29-1.83
		c3.04-0.72,10.33-4.05,12.52-5.8c-0.61-1.63-1.22-3.15-1.12-5.09c10.11,0.84,10.97,0.27,17.91,2.34
		c28.83,8.61,28.36,6.61,36.43,10.89c26.27,13.94,42.12,10.89,49.35,14.65c7.95,4.14,10.09,4.92,12.21,4.48
		c0.68-0.14,8.27,2.15,16.38,0.2c1.32-0.32,2.65-0.41,3.77,0.31c12.79-6,10.68-4.68,14.14-14.14c3.87-10.59,5.5-11.83,7.73-19.33
		c9.88-19.75,1.93-79.88,1.93-79.98c3.46,0.2,6.32,1.51,8.95,3.46c2.24,1.66,4.21,2.07,19.23,13.84c5.7,4.46,14.62,7.63,21.88,9.67
		c4.24,1.19,5.96,3.93,15.37,6.61c0.81,0.31,1.73,0.61,2.75,1.02c0.92,3.77,3.77,6.61,4.38,10.79c6.34,4.53,14.48,11.72,28.29,8.55
		c0.82-0.19,1.83-0.2,2.44,0.1c2.85,1.42,5.8,2.95,8.45,4.88c0,4.66-0.69,4.65,0,12.92c1.2,14.47,9.1,45.24,13.84,57.9
		c1.37,3.67,3.55,4.06,7.12,8.34c1.88,2.26,3.21,1.79,6.51,1.83c16.18,0.18,27.48,3.15,50.98-3.66c5.6-1.62,11.42-1.85,16.99-3.15
		c0.89-0.21,2.92,0.9,7.43-0.51c4-1.25,3.17,0.73,11.4,0.2c7.89-0.5,8.46-0.46,10.07-1.63c4.07-2.96,6.86-2.46,7.12-6.72
		c0.07-1.15,0.31-2.15,1.83-5.19c-0.41-0.61-0.81-0.81-1.22-0.41c-1.53,1.53-2.29,3.36-2.24,5.49c0.07,2.92-1.15,1.81-7.63,5.7
		c-0.55,0.33-7.51,1.23-14.14-0.1c-0.29-0.87-0.7-1.37-0.92-1.73c-2.67,3-5.43,2.12-11.8,3.05c-26.08,3.82-37.35,8.9-54.34,7.43
		c-14.75-1.28-17.67-0.23-18.72-1.02c-5.35-6.42-6.09-7.66-6.82-10.18c-5.71-19.87-10.5-27.95-12.01-58.61
		c-0.88-18.02,1.13-7.86,1.32-35.62c0.02-2.57-0.36-2.32-0.92-3.05c-1.18,1.67,0.25,5.49-1.73,5.49
		c-11.86-1.98-25.15-21.08-19.13-43.45c2.51-9.34,10.37-10.6,21.27-12.01c2.75-0.36,3.89,0.2,18.42,4.68
		c6.04,1.86,9.82,3.51,13.43,7.94c6.37,7.8,9.85,14.13,3.66,22.08c-0.61-0.41-1.12-0.81-1.93-1.53c0,5.31,1.22,1.36,1.22,11.3
		c0,0.18,0.31,3.81,0.31,6.82c0,37.1-5.57,26.19-4.58,41.21c2.86,43.47,0.47,36.07,9.26,38.46c14.06,2.95,19.8,2.01,29,2.85
		c2.24,0.2,4.17-0.1,7.12-0.92c-5.79-2.89-16.03,0.25-40.81-6.61c-0.2-0.1-0.31-0.41-0.61-0.71c1.54-6.54,0-9.6,0-18.93
		c9.75,3.66,17.76,6.22,23.81,7.84c1.43,0.38,2.46,1.3,2.7,1.55c1.31,0.7,2.71,1.41,4.12,2.21c-1.06,4.86,8.65,10.99,13.13,13.23
		c0,1.12-0.33,1.74,0.31,1.73c2.64-0.06,19.9-1.24,21.88-3.26c11-11.2,8.34-12.99,15.37-12.11c1.12-2,2.1-5.7-0.2-5.7
		c-10.34,0.69-9.55,1.13-28.8,4.07c-4.99,0.76-9.77,2.34-14.55,3.77c0,0.41,0,0.71,0.1,0.81c3.74,3.69,7.43,7.33,11.7,10.48
		c-0.81,0.92-1.53,0.41-2.04,0.1c-13.01-7.92-10.45-6.39-14.35-9.97c0-1.83,0.2-3.26,1.12-4.48c39.41-5.63,44.74-7.3,51.39-5.29
		c1.73,0.52,3.56,0.51,5.09,1.12c-1.92,12.98,0.42,6.73-11.09,6.21c-0.31-0.1-0.51,0.2-0.81,0.31c0,1.24,4.03,1.16,5.9,1.83
		c4.99,1.79,7.8-0.59,10.28,2.54c-0.31,1.12-0.61,2.24-0.81,3.26c-1.12,0.31-2.04-0.71-3.05,0.31c0.81,0.51,1.53,1.02,2.44,1.63
		c-0.44,5.78-0.35,4.7-2.44,4.17c-0.61,0.81-1.12,1.53-0.61,2.54c2.88-0.96,1.5-1.53,4.27,2.04c2.07-1.38-0.62-3.04-0.1-4.78
		c0.51-1.73,0.31-3.66,1.63-5.09c1.02-1.11,1.22-2.54,0.71-3.97c-1.53-1.42-3.15-2.54-5.09-3.36c0.41-3.36,0.71-6.51,1.12-9.77
		c-2.24-1.42-5.19-0.92-7.12-2.24c-1.02-2.34-1.93-4.38-2.95-6.51c1.42-2.65,1.59-5.53,0.1-8.34c-0.99-1.89-1.6-2.12-11.4-3.15
		c-2.5-0.26-1.01,0.54-16.18,5.6c-0.61,0.2-1.52,0.41-1.83,0.92c-0.89,1.44-2.44,1.93-3.77,2.65c-23.78,12.77-11.91,6-22.59,8.14
		c0.51,0.51,0.71,1.02,0.92,1.02c5.24,0.75,5.18-1.48,7.94,3.46c5.59-0.27,13.14-0.82,17.81-4.07c1.39-1.11,17.44-5.34,21.17-7.63
		c1.01-0.62,2.15-0.42,2.95,0.31c4.75,4.29,5.18,5,4.48,6.41c-1.73,0.41-3.46,0.51-5.19-0.2c-0.2-0.92-0.41-1.73-0.61-2.54
		c-0.2-0.49-1.72-1.15-2.14,1.53c-0.57,3.67,0.47,1.78-1.53,2.44c-26.66,4.44-29.1,2.93-32.26,4.99c-0.91,0.45-1.48,0.23-9.06,0.81
		c-3.15-2.45-2.75-2.04-2.75-2.44c4.62-0.33,4.62-1.38,2.44-1.73c-4.74-0.77-8.35-0.84-9.86-3.38c2.94,1.01,4.58,2.09,4.77,0.53
		c-1.56-1.56,4.94,2.78-22.69-11.4c-4.76-2.44-5.48-2.4-3.46-13.03c3.63-19.14,2.75-6.36,3.36-35.11c7.56,2.1,13.94,2.66,14.86,3.15
		c1.1,4.38-1.89,13.07,3.36,18.32c2.54,1.12,5.09,0.1,7.63-0.2c3.05,2.24,3.05,2.44,7.22,0.92c0.1,0,0.2,0,0.31,0.1
		c3.5,4.08,5.03-0.72,7.53,1.42c1.85,4.17,2.62,7.28,5.09,5.8c6.25-3.12,13.53-10.23,20.05-7.12c2.87,1.37,6.62-1.81,7.43,0.61
		c0,1.02-1,1.93-0.61,3.26c1.62,5.57,3.26,10.99,5.9,16.18c0.71,0.1,1.42,0.2,2.24,0.41c0.51-4.07-0.2-7.94-0.2-11.91
		c0.41-0.1,0.71-0.2,1.22-0.31c0-10.23,0.5-15.13-2.75-5.39c-0.31,0.92,0,2.14-1.02,3.26c-0.64-2.22-0.81-6.37-0.51-7.94
		c1.42-0.92,2.85-1.53,4.58-1.73c0.05,0.71,0.97,11.1,1.83,12.11c-0.75-14.99-0.75-11.74-0.2-12.82c0.61-0.1,0.81,0.31,0.92,0.81
		c3.57,27.87,1.25,12.89-0.71,11.8c0.93,3.55,7.14,26.5,9.06,23.3c-1.14-4.75-1.19-4.26-0.43-4.26c-0.09-0.58-0.12-1.13-0.8-1.32
		c0.03,0.12,0.03,0.09,0.09,0.79c-0.17-0.69-0.91-0.9,0.02-1.81l-0.1,0.1c0.31-2.14-0.62-4.17-1.02-6.31
		c-4.27-22.96,0.69-0.62,5.8,1.42c0.51,0.2,1.12,0.2,1.63,0.2c0.71,0.81,1.32,1.53,2.04,2.24c0.62,0.82,1.86,0.23,0.51-1.12
		c-3.86-4.29-8.41-17.32-6.61-29.92c7.52-9.81,7.41-9.68,7.73-10.99c5.89-18.64,3.46-12.02,2.45-22
		C741.37,445.12,732.02,442.32,729.87,437.29z M713.48,554.42c0.2-0.1,0.41,0,0.51-0.1c0.41-0.51,0.81-0.71,1.53-0.1
		c-2.27,0-1.53,0.51-2.24,0.51C713.38,554.62,713.38,554.42,713.48,554.42z M711.96,556.25c-2.15,2.68-2.86,1.42-4.27,0.71
		C710.03,555.4,709.61,555.73,711.96,556.25z M706.97,560.52c0.74,0.56,0.26,0.34,0,1.12C706.4,561.07,706.01,561.49,706.97,560.52z
		 M682.96,566.12c-1.74-1.31-3.36-2.95-5.09-4.38c0-1.56,2.02-1,3.97-0.61c2.65-1.73,3.06-1.85,6.92-2.04
		c4.53-0.22-3,0.31,16.89-3.26c0.1,0.81,0.2,1.53,0.31,2.34c-1.63,1.63-1.56,0.44-2.44,3.97c-1.42,0-2.34,1.02-3.26,2.04
		c1.32,0.92,2.34-0.51,3.56-0.71c0,0.51,0.2,0.92,0.1,1.22c-1.12,2.75-2.75,4.97-6,5.39c-9.54,1.25-6.13,0.9-8.55-0.71
		C688.51,568.89,686.15,568.54,682.96,566.12z M685.5,548.01c0.1,0,0.1,0.1,0.2,0.2C684.8,548.66,684.88,548.01,685.5,548.01z
		 M694.96,543.53c0.71,0.1,1.32,0.1,1.83,0.1C696.29,543.94,695.78,544.65,694.96,543.53z M698.42,542.92
		c1.24-1.33,5.62-3.2,7.33-3.77c0.71-0.31,1.12,0.1,1.32,1.12C704.53,542.21,701.58,541.9,698.42,542.92z M716.23,540.68
		c-6.66-3.63-4.86,0.19-7.53-3.15c-4.16-1.45-4.85,0.22-27.47,9.16c-12,4.74,6.62-5.37,24.32-12.82c3.56,0.81,7.33-0.31,10.99,0.81
		C718.16,536.71,717.86,538.75,716.23,540.68z M656.96,545.99c-0.63,0.1-1.23,0.19-1.35-0.64
		C656.21,545.29,656.67,545.41,656.96,545.99z M655.44,545.27c-0.53,0.06-1.02-0.07-1.23-0.62
		C654.74,544.66,655.24,544.71,655.44,545.27z M653.95,544.34c0.21,0.21-0.05,0.08-0.2-0.1
		C653.85,544.24,653.95,544.34,653.95,544.34z M654.26,548.51c1.02-0.1,1.73,0.41,2.24,1.42c4.71,2.35-4.28-3.13,10.07,5.9
		c0.1,0.1,0.2,0.41,0.31,0.61c-0.2,0.1-0.41,0.31-0.51,0.31c-11.31-7.07-9.63-6.13-9.97-6.82
		C655.38,549.94,654.67,549.53,654.26,548.51c-1.08,0-1.77-0.39-2.1-1.33C653.21,547.12,653.96,547.45,654.26,548.51z
		 M651.97,547.08c-0.98,0.04-1.63-0.42-1.93-1.31C650.94,545.74,651.65,546.19,651.97,547.08z M649.83,545.66
		c-0.98,0.04-1.62-0.42-1.92-1.3C648.81,544.4,649.52,544.78,649.83,545.66z M647.7,544.24c-0.99,0.05-1.64-0.34-1.94-1.31
		C646.66,543.05,647.31,543.36,647.7,544.24z M645.51,542.8c-1.47-0.08-2.5-0.98-3.36-2C643.7,540.87,644.65,541.78,645.51,542.8z
		 M641.9,540.65c-0.9-0.13-1.54-0.58-2.01-1.29C640.94,539.31,641.59,539.69,641.9,540.65z M639.66,539.22
		c-0.81-0.12-1.53-0.51-1.92-1.3C638.63,537.88,639.34,538.27,639.66,539.22z M637.53,537.81c-0.73-0.05-1.23-0.43-1.89-1.1
		C636.8,536.71,637.39,537.01,637.53,537.81z M635.64,539.15c1.81,0.72-1.03-1.11,17.6,11.19c0.31,0.31,0.51,0.71,0.92,1.02
		c-5.39-1.35,2.67,1.59-18.32-6C635.13,542.71,635.13,542.21,635.64,539.15z M728.65,436.68c-1.38-0.28-1.27-1.48-1.51-3.94
		C728.16,433.84,728.54,435.11,728.65,436.68z M723.96,429.97c0.92,0.31,0.81-0.01,0.81,0.51c1.21,0,1.74,0.77,2.14,1.85
		c-0.73-0.65-1.39-1.29-2.14-1.85c-0.11-0.11-0.24,0.03-0.92-0.31L723.96,429.97z M725.49,434.24c-2.65,0.2-2.85,0-2.95-3.56
		C723.86,432.2,724.58,433.22,725.49,434.24z M720.2,429.97c0.38,0.38,0.6,0.41,0,0.71C719.93,430.55,719.93,430.5,720.2,429.97z
		 M469.26,423.35c7.96-13.05,12.37-16.4,27.78-30.53c13.69,13.69,24.85,17.98,37.35,23.4c13.11,5.69,19.67,4.51,30.43,5.8
		c-0.81,1.22-1.32,2.04-1.83,2.44c-13.86,16.56-13.94,44.99-16.28,52c-1.17,0.11-77.8-49.08-78.76-49.76
		C467.94,425.39,468.64,424.36,469.26,423.35z M547.26,480.09c-0.8-0.19-1.51-0.5-1.82-1.34
		C546.24,478.94,546.93,479.25,547.26,480.09z M545.17,478.53c-0.39-0.15-0.77-0.31-1.16-0.47
		C544.47,478.02,544.9,478.09,545.17,478.53z M543.78,477.9c-0.14-0.15-0.28-0.35-0.42-0.55
		C543.62,477.46,543.8,477.62,543.78,477.9z M543.07,477.19c-0.5,0.05-0.93-0.07-1.28-0.54
		C542.3,476.61,542.78,476.73,543.07,477.19z M541.57,476.52c-0.8-0.27-1.52-0.59-1.91-1.35
		C540.55,475.27,541.33,475.51,541.57,476.52z M539.43,475c-0.8-0.19-1.51-0.5-1.82-1.34C538.41,473.85,539.1,474.16,539.43,475z
		 M537.38,473.53c-0.51,0.05-0.95-0.07-1.3-0.55C536.6,472.85,537.09,472.98,537.38,473.53z M535.93,472.87
		c-0.34-0.17-0.61-0.37-0.55-0.73C535.72,472.31,536,472.5,535.93,472.87z M535.24,472.02c-0.52,0.12-1.02,0-1.3-0.55
		C534.45,471.42,534.89,471.54,535.24,472.02z M533.73,471.35c-0.85-0.13-1.6-0.53-1.98-1.38
		C532.67,469.99,533.41,470.37,533.73,471.35z M531.63,469.95c-0.95-0.1-1.71-0.34-1.91-1.47
		C530.49,468.77,531.24,469.08,531.63,469.95z M529.64,468.44c-1.19,0.33-1.35-0.63-1.5-0.63
		C529.16,467.51,529.53,468.44,529.64,468.44z M525.74,466.6c-1.02-0.2-1.83-0.51-2.14-1.53c-1.12,0-1.93-0.31-2.14-1.53
		c-0.61,0.2-1.12,0-1.53-0.61c-0.92-0.2-1.73-0.61-2.14-1.53c-1.02,0-1.83-0.41-2.14-1.42c-1.63,0-2.75-1.02-3.66-2.14
		c-0.92-0.1-1.73-0.41-2.14-1.42c-1.02,0-1.83-0.31-2.14-1.42c-1.53,0-2.75-0.81-3.56-2.14c-1.02,0.1-1.73-0.41-2.14-1.42
		c-1.53-0.1-2.65-0.92-3.56-2.14c-1.02,0-1.73-0.41-2.14-1.42c-2.24,0-1.73-1.42-2.44-1.42c-2.09-0.79-3.79-1.98-5.28-3.56
		c2.44,0.71,3.87,1.63,5.79,3.56c1.02-0.1,1.83,0.41,2.14,1.42c1.12-0.1,1.83,0.31,2.14,1.42c1.63,0,2.75,0.81,3.56,2.14
		c1.02,0,1.83,0.41,2.14,1.42c1.53,0.1,2.65,0.92,3.56,2.14c1.02,0,1.83,0.41,2.14,1.42c1.02-0.1,1.83,0.31,2.14,1.42
		c1.63,0,2.75,1.02,3.66,2.14c1.02,0.1,1.83,0.41,2.14,1.42c1.12,0,1.93,0.31,2.14,1.53c0.61-0.2,1.22,0,1.53,0.61
		c0.92,0.2,1.73,0.51,2.14,1.42c1.02,0.1,1.83,0.51,2.14,1.53c0.61-0.2,1.12,0.1,1.63,0.51c1.44,0.99-0.36,1.06,0,0
		C526.86,467.21,526.35,467.11,525.74,466.6z M488.59,442.88c-0.01-0.01-2.06-1.29-5.71-3.56c0.31-0.01,0.75-0.08,0.94,0.11
		C485.44,440.55,487.47,441.06,488.59,442.88z M464.38,427.01c1.01,0.62,2.24,0.92,2.75,2.14c2.95,1.12,6.21,3.26,7.84,5.09
		c0.8,0,4.02,1.51,5.7,3.66c1.1-0.1,1.8,0.29,2.11,1.36C436.92,410.76,143.45,228.54,464.38,427.01z M253.43,258.2
		c8.21,4.92,19.84,9.37,34.29,15.77c13.8,6.12,33.67,29.08,33.99,29.61c27.55,38.57,44.97,27.78,80.49,50.17
		c28.03,17.67,14.59,10.97,23.2,13.13c1.63,6.61-0.2,23.51-3.46,30.73c-1.56-0.62,8.32,6.92-142.67-90.36
		c-17.24-11.11-22.08-13.39-33.78-24.32c-12.34-11.53-21.77-15.97-37.75-22.18c-7.8-9.92-9.19-14.53-12.62-15.98
		c0.71-3.56,2.44-6.41,3.97-9.57c4.95-1.1,7.67-1.73,12.72-1.73C215.12,239.52,238,248.97,253.43,258.2z M241.02,281.91
		c-0.73,0.73,0.16,0.84-1.53,0C197.99,255.89,226.31,270.93,241.02,281.91z M217.64,267.5c-0.16-0.04-0.28-0.04-0.13-0.04
		C217.35,267.38,217.45,267.43,217.64,267.5z M182,218.21c1.51-2.17,4.04-4.47,7.12-5.49c1.71,4.56,6,5.22,9.06,7.73
		c7.19,5.9,11.17,5.51,17.1,9.46c-0.9,1.8-5.03-0.04-7.84,1.83c-1.74,1.45-8.5-0.16-10.18,3.05c-0.74,1.41-1.64,2.74-2.14,4.17
		c-2.74,7.81,2.7,9.21,4.58,14.65c0.49,1.43,2.14,2.34,2.24,3.97c3.3,3.3-28.61-18.08-30.02-18.83
		C177.13,218.45,173.77,229.99,182,218.21z M168.97,239.68c6.47,3.13,137.68,86.83,137.78,86.9c-0.22,1.99-1.94,0.41-4.27-1.02
		c-23.64-14.52-120.07-75.74-120.18-75.81c-4.17-2.66-2.07-2.61-5.29-4.17C165.84,240.16,166.22,243.54,168.97,239.68z
		 M303.52,328.93C303.37,328.88,303.15,328.73,303.52,328.93L303.52,328.93z M193.8,267.05c-6.26-5.22-5.6-4.58-7.73-4.27
		c0.1,2.95,2.85,3.56,4.17,5.8c-2.92,1.67-1.55,0.96-4.88-0.71c-2.77-1.58-2.83-1.02-4.27-0.81c0.1,2.54,2.04,3.56,3.56,5.09
		c-0.61,0.71-1.22,1.42-1.83,2.24c-1.47-0.11-3.46-1.75-5.19-2.24c-0.51-0.2-0.92,0-2.14,0.81c0.31,1.73,1.93,2.34,3.05,3.66
		c-2.81,3.12-5.97-1.92-7.53,1.83c1.51,2.52,2.81,0.17-4.48,10.28c-0.89,1.24-2.22,4.25-2.85,5.39c-5.35,1.41-8.27,3.07-11.6-1.22
		c-1.05-1.35-1.58-22.04,6-34.29c3.15-5.09,6.21-10.28,10.99-14.35c2.65,0.31,4.88,1.63,7.22,2.75c3.28,4.3,24.43,15.55,26.97,18.32
		C200.31,267.66,197.06,266.74,193.8,267.05z M214.56,272.14c25.45,16.05,80.51,49.27,91.07,63.19c-0.51,0.51-0.81,0.92-1.22,1.32
		C304.22,336.55,169.03,243.43,214.56,272.14z M215.39,277.2c0.15,0.06,0.31,0.12,0.45,0.18
		C215.68,277.34,215.53,277.29,215.39,277.2z M217.59,278.62c0.1,0.07,0.18,0.16,0.22,0.3
		C217.74,278.81,217.66,278.71,217.59,278.62z M218.43,279.23c0.21,0.01,0.42,0.06,0.6,0.2
		C218.82,279.36,218.63,279.29,218.43,279.23z M222.5,282.07c0.32,0.12,0.62,0.25,0.94,0.38
		C223.07,282.45,222.74,282.33,222.5,282.07z M223.82,282.72c0.13,0.14,0.25,0.28,0.37,0.42
		C223.99,283.06,223.85,282.92,223.82,282.72z M224.56,283.41c0.22,0.1,0.36,0.25,0.38,0.5
		C224.82,283.74,224.7,283.58,224.56,283.41z M225.2,284.12c0.46-0.04,0.89,0.02,1.16,0.47
		C225.98,284.42,225.59,284.27,225.2,284.12z M226.69,284.83c0.22,0.1,0.38,0.26,0.39,0.52
		C226.94,285.19,226.82,285.02,226.69,284.83z M227.33,285.53c0.42-0.06,0.78,0.07,1.09,0.37
		C228.05,285.79,227.69,285.67,227.33,285.53z M228.7,286.2c0.13,0.15,0.25,0.33,0.39,0.52C228.87,286.62,228.72,286.46,228.7,286.2
		z M229.42,286.92c0.84,0.06,1.48,0.5,1.94,1.25C230.51,288.03,229.88,287.6,229.42,286.92z M231.64,288.36
		c0.77,0.14,1.39,0.58,1.86,1.26C232.64,289.57,232.02,289.19,231.64,288.36z M233.81,289.81c0.22,0.1,0.38,0.26,0.39,0.52
		C234.07,290.18,233.95,290.01,233.81,289.81z M234.36,290.53c0.5-0.11,0.93,0.07,1.28,0.55C235.15,291.13,234.72,291,234.36,290.53
		z M235.8,291.26c0.14,0.15,0.27,0.35,0.42,0.55C235.96,291.71,235.78,291.54,235.8,291.26z M236.52,292
		c0.92,0.05,1.54,0.48,1.93,1.2C237.61,293.2,236.99,292.69,236.52,292z M238.82,293.47c0.7,0.14,1.27,0.54,1.71,1.13
		C239.77,294.52,239.2,294.18,238.82,293.47z M240.81,294.86c0.31,0.08,0.56,0.2,0.54,0.56
		C241.06,295.33,240.83,295.17,240.81,294.86z M241.57,295.62c0.99-0.09,1.6,0.35,1.91,1.23
		C242.69,296.73,242.06,296.23,241.57,295.62z M243.68,297.08c0.86-0.04,1.5,0.39,1.89,1.2
		C244.71,298.24,244.09,297.81,243.68,297.08z M245.81,298.51c0.88,0.04,1.51,0.54,1.98,1.22
		C246.85,299.84,246.21,299.28,245.81,298.51z M248.01,299.95c1.12,0.46,2.23,0.78,2.69,1.97
		C249.57,301.56,248.4,301.23,248.01,299.95z M250.91,302.17c0.86-0.04,1.5,0.39,1.89,1.2C251.94,303.33,251.32,302.9,250.91,302.17
		z M253.03,303.59c0.89,0.03,1.53,0.47,1.93,1.23C253.96,304.91,253.4,304.42,253.03,303.59z M255.26,305.06
		c1.07,0.28,2.11,0.69,2.55,1.83C256.67,306.6,255.7,306.21,255.26,305.06z M258.12,307.15c0.9-0.01,1.45,0.41,1.82,1.21
		C259.11,308.37,258.51,307.89,258.12,307.15z M260.4,308.71c2.05,0.81,3.21,1.66,4.37,3.09
		C263.03,311.21,261.52,310.23,260.4,308.71z M265.23,312.11c0.92-0.09,1.47,0.41,1.84,1.23
		C266.16,313.36,265.61,312.93,265.23,312.11z M267.55,313.69c2.13,0.76,3.3,1.65,4.59,3.28
		C270.29,316.38,268.72,315.28,267.55,313.69z M306.75,341.84c-79.03-54.88,2.11-1.42,2.23,1.02
		C308.17,342.56,307.36,342.35,306.75,341.84z M424.08,428.03c-21.65-4.83-43.47-13.93-81.71-51.39
		c-27.21-26.65-12.46-18.34-21.88-25.34c-3.89-2.89-6.58-4.56-8.75-8.75c-0.7-1.36-6.39-11.19-7.95-13.48
		c2.82,1.54,20.64,11.93,116.93,73.21c-0.74,5.93-5.49,18.68-4.99,21.67c2.37-4.14,4.22-11.16,7.53-20.25
		c14.04,8.85,27.78,17.5,41.42,26.15c-1.73,4.88-3.36,9.36-4.99,14.04c-4.02-0.42-17.68-8.36-18.21-8.55
		C439.07,434.53,436.76,430.86,424.08,428.03z M317.23,547.4c-6.97-5.45-7.14-5.71-8.55-6.21c-0.89-0.32-1.91,0.85-1.32,1.73
		c0.53,0.79,0.74,0.94,5.29,5.49c-2.34,2.34-3.11-1.3-7.94-2.44c-0.82-0.19-1.53,1.02-1.12,1.73c2.1,3.15,2.73,2.39,0.61,3.66
		c-1.93-1.22-3.77-2.65-6-0.41c1.79,1.79,0.3,0.85,2.95,2.44c-1.21,2.43-3.87,1.82-3.87,3.36c0.2,1.83-0.61,3.66,0.61,5.49
		c0.69,1.03,1.85,3.76,2.14,5.8c-4.77,4.97-11.38,1.44-14.25,1.12c-3.95-0.44-5.76-3.7-7.12-7.22c-4.48-11.64-7.06-13.26,7.12-31.24
		c5.73-7.27,5.38-23.75,13.33-30.43c1.55-1.3,2.65-3.05,4.17-4.68c1.74,1.74,1.07,2.49,3.15,3.56
		c20.32,10.38,23.13,7.46,23.59,11.42c-5.81,5.52-12.62,4.55-13.72,11.99c-3.12,21.11,7.94,12.14,7.94,21.57
		C322.12,545.87,319.17,545.77,317.23,547.4z M482.59,528.06c-5.94,26.29-6.24,27.1-8.04,30.53c-2.95,5.6-2.73,7.42-5.39,8.75
		c-3.59,1.54-4.67,2.95-7.22,2.95c-0.55,0-18.76,2.79-22.08,1.42c-15.69-6.47-13.36-7.22-16.28-7.22
		c-12.58,0-46.3-12.42-47.01-13.13c-1.63-1.83-3.97-2.03-6.11-2.65c-20.72-6-32.65-10.97-47.52-10.28
		c-1.63,0.08-3.05-0.81-4.17-1.93c-0.9-0.9-1.04-1.26-0.71-10.89c0.1-1.12,0.51-2.14,0.71-3.15c0.31-1.53,1.43-2.52,2.75-3.05
		c13.93-5.62-1.52-5.24,21.88-1.12c6.8,1.2,10.31,4.15,24.52,5.49c5.25,0.5,5.99-3.14,44.98,3.87c3.87,0.7,17.65,4.64,22.49,7.73
		c0.69,4.14,0.19,3.77,0.92,3.77c0.96-2.24,0.69-4.03,2.24-4.99c1.39-0.86,1.75-9.51,1.42-13.03c-1.27-13.9-2.09-11.14-4.07-27.07
		c-2.37-19.09-6.28-22.68-7.73-36.23c-2.85-26.6-2.85-25.27,4.27-18.83c11.76,10.63,27.22,16.69,31.04,16.69
		c-0.24-0.19-30.44-15.26-35.62-24.32c10.08,0.34,3.99,1.84,16.59,7.94c14.22,6.88,33.35,18.93,38.46,18.93
		c0,0.71,0.1,1.32,0.1,2.14c-2.75,0.61-5.29-0.31-8.45-0.41c2.04,1.67,6.27,2.03,8.85,2.54
		C485.3,468.51,487.16,507.84,482.59,528.06z M588.01,509.74c-8.8,3.17-17.27-0.03-23.61-1.63c-1.72-0.43-3.05-1.32-3.87-2.95
		c-1.83-3.66-3.96-7.13-5.6-10.89c-1.31-3.02-2.56-2.81-12.82-6.21c-5.07-1.68-2.38-1.95-6-2.95c-25.2-6.93-24.76-14.92-44.88-25.74
		c-1.52-0.82-6.73-2.28-8.95-3.66c-8.43-5.25-10.03-2.21-20.45-10.18c0.41-2.14,1.02-4.07,1.93-6.21c3.26-0.2,6.51-0.1,10.07-1.53
		c-10.16-0.31-9.91,0.83-8.65-3.36c0.59-2.66,0.69-3.52,2.44-2.44c44.33,27.23,41.88,25.91,42.84,28.59
		c6.89,15.49,12.44,14.35,10.99,12.41c-0.46-0.7-5.16-3.5-9.26-12.21c-0.15-0.31,0.03-0.1,0.05-0.02c1.09-0.45,1.79,0.44,2.49,1.04
		c0.12,0.07,28.97,18.12,31.14,19.74c0.81,2.34-0.61,4.78,0.51,7.22c1.3-0.7,0.77-1.2,1.63-5.49c1.71,0.28,40.7,25.27,40.81,25.34
		C589.03,509.64,588.42,509.64,588.01,509.74z M547.51,480.32c0.39,0.15,0.77,0.31,1.16,0.47
		C548.22,480.82,547.79,480.75,547.51,480.32z M548.93,480.99c0.12,0.17,0.23,0.35,0.35,0.52
		C549.08,481.38,548.96,481.22,548.93,480.99z M549.62,481.75c0.5-0.05,0.93,0.07,1.28,0.54
		C550.38,482.33,549.91,482.21,549.62,481.75z M551.14,482.44c0.7,0.26,1.37,0.58,1.77,1.31
		C552.13,483.55,551.46,483.25,551.14,482.44z M553.21,483.93c0.86,0.11,1.56,0.42,1.87,1.25
		C554.3,484.97,553.68,484.6,553.21,483.93z M555.44,485.44c0.35,0.14,0.69,0.27,1.03,0.42
		C556.08,485.87,555.74,485.76,555.44,485.44z M557.51,486.85c0.71,0,0.52,0.1,0.69,0.1C557.86,487.29,557.9,487.15,557.51,486.85z
		 M560.64,488.17c0.37,0,0.27-0.06,0.43,0.24C560.92,488.32,560.76,488.23,560.64,488.17z M561.51,488.87
		c0.43,0.17,0.86,0.33,1.37,0.42C562.36,489.38,561.83,489.38,561.51,488.87z M567.33,492.65c0.63,0.23,1.25,0.54,1.6,1.12
		C568.23,493.53,567.65,493.24,567.33,492.65z M569.52,494.25c0.15,0.06,0.31,0.12,0.45,0.18
		C569.8,494.39,569.65,494.34,569.52,494.25z M573.94,497.13c0.25,0.02,0.5,0.09,0.66,0.28
		C574.39,497.32,574.17,497.23,573.94,497.13z M574.98,497.8c0.08,0.04,0.16,0.09,0.21,0.14
		C575.13,497.87,574.98,497.83,574.98,497.8z M576.82,498.45c0.09,0,0.19,0.05,0.23,0.19C576.96,498.58,576.88,498.51,576.82,498.45
		z M583.14,502.51c0.3,0.12,0.59,0.25,0.89,0.38C583.69,502.87,583.36,502.84,583.14,502.51z M594.32,515.54c0-0.2,0-0.31-0.1-0.41
		c0,0,0.1,0,0.1,0.1c0,0.77,1.16-0.14,1.3,0.85C595.24,515.89,594.78,515.64,594.32,515.54z M595.87,516.26c0.34,0,0.68,0,1.1,0
		C596.36,516.78,596.13,516.48,595.87,516.26z M597.58,514.02c-2.14-0.2-2.44-0.41-4.88-2.34c0.51-0.1,0.71-0.1,0.81-0.1
		C598.03,514.01,597.58,513.5,597.58,514.02z M596.87,508.52c0.51-0.41,1.02-0.81,1.83-1.73
		C598.26,509.43,598.2,509.85,596.87,508.52z M624.85,444.01c-20.52-7.02-24.58-5.09-30.12-4.38c-7.83,1.01-13.2,1.55-16.48,9.36
		c-3.09,7.35-2.92,17.98,0.31,25.34c1.48,3.39,1.52,6.22,5.29,12.21c4.17,6.62,8.24,9.36,15.77,10.99c0.81,1.73,0.2,3.46,0.2,5.19
		c-2.04,1.42-3.97,2.75-6.11,4.17c-3.03-1.63-45.17-28.62-45.28-28.7c-0.1-2.54-0.49-4.98,0.61-7.43c0.52-1.15,0.63-5.23,2.04-10.58
		c5.5-20.87,6.96-28.43,16.38-37.85c8.44,0.4,17.84,1.37,25.74,4.38c15.09,5.75,21.05,2.68,28.19,6.61
		c7.35,4.05,6.71,5.11,7.63,5.39c2.35,0.74,3.52,2.3,8.14,5.6c-0.28,6.54,6.16,15.46,4.07,17.81
		C636.78,453.22,633.24,446.88,624.85,444.01z M642.15,463.85c0.61,1.22,0.41,2.24,0.2,3.66
		C641.64,465.99,641.13,465.07,642.15,463.85z M714.09,514.63c1.38-0.46,0.4-3.2,0-4.68c0.51-0.1,0.81-0.2,1.32-0.31
		c0.4,2.88,0.79,5.66,0.91,8.54C714.88,516.74,713.7,516.78,714.09,514.63z M717.45,520.02c0,1.12,0,2.34,0,3.77
		c-1.42-0.92-1.53-2.24-1.73-3.26c-0.2-0.7,0.39-1.51,0.6-2.31C716.32,518.64,717.45,518.9,717.45,520.02z M736.28,529.18
		c-0.15-0.31-0.31-0.5-0.5-0.7C736.1,528.55,736.2,528.85,736.28,529.18z M734.89,526.97c0.5,0.27,0.69,0.74,0.61,1.25
		C735.01,527.95,734.76,527.53,734.89,526.97z M734.77,526.71c-0.99-0.17-1.22-0.95-1.32-1.84
		C734.26,525.25,734.52,526,734.77,526.71z M733.28,524.61c-1.1-0.61-4.14-6.92-4.53-7.85c-1.23-2.91-1.25-9.29-1.32-10.28
		c-1.83,0.1-1.02,1.73-1.83,2.54c-0.69-3.79-2.06-3.37,4.78-6c0.87,2.17-2.4,6.64,2.14,18.72C732.8,522.71,733,523.67,733.28,524.61
		z M734.85,495.6c0-0.24-0.02-0.19,0.05-0.25C734.87,495.43,734.85,495.5,734.85,495.6z M735.12,495.1
		c5.99-9.16,4.72-7.79,5.72-8.45C740.26,491.28,736.48,495.2,735.12,495.1z M742.28,477.08c-0.13,2.85-0.61,5.7-0.92,8.55
		c0,0.31-0.31,0.61-0.51,0.92c0,0.21-0.02-0.1-0.31-0.92c-1.3-0.19-1.89,3.42-4.04,4.46c0.87-3.72,4.36-9.77,2.41-16.97
		c-0.81,6.49-1.82,10.97-4.99,16.79c-4.92,9.04-7.14,5.39-5.19,8.65c-2.41,3.37-1.48,1.73-1.83,3.46
		c-10.05,4.07-6.04,2.37-20.66,6.31c-2.61-0.87-5.15-2.58-10.38,0.1c-3.89,1.99-7.63,4.38-10.89,7.63
		c-1.72-0.91-1.63-1.74-3.46-9.97c-0.51-0.2-0.92,0.31-1.12,0.81c-1.04,2.08,0.18,1.92-3.97,2.85c-2.8,0.63-2.6-2.42-3.26-5.6
		c-0.46-2.23-2.79-1.78-2.14,0.51c0.1,0.61,0.6,1.22,0.81,1.93c0.39,1.33-0.51,2.58-1.83,2.44c-3.58-0.36-3.56-2.82-8.14-1.73
		c-1.22,0.2-2.65-0.1-3.77-0.2c-1.12-1.02-1.53-2.14-1.53-3.36c0-17.08,3.39-14.27-17.3-18.62c-1.12-2.54-1.42-5.19-1.73-7.94
		c3.29-4.53,3.98-4.28,4.48-6.92c0.6-3.14,1.83-0.51,1.83-5.9c0-6.87-3.25-12.78-4.27-17.4c2.65,0.61,3.26,0.92,4.88,2.34
		c2.57,2.57,13.77,3.16,17.4,2.85c8-0.68,12.84-4.52,15.06-11.19c5.84-2.99,12.12-6.29,24.52-7.73c5.76-0.67,0.27-1.67,10.99-1.02
		c-3.89,3.89-12.8,0.87-20.15,18.62c0,2.2,1.91-2.9,8.24-9.87c0.41,1.93-3.13,6.43-2.04,9.36c2.28-3.99,4.68-9.05,8.75-12.11
		c-0.09,1.26-1.85,3.5-5.29,12.11c1.59,0.16,4.35-8.83,10.48-16.28c0.85-0.85,0.71-1.9,0.71-2.85c-1.53-0.38-1.47-0.63-4.38-1.12
		c-0.34-7.39,7.46-11.17,14.14-14.55c4.06-2.06,9.06,1.61,10.21,5.31c-5.67-2.72-11.35-1.3-15.5,2.42
		c-2.97,2.67-2.09,4.78-1.22,8.24c10.74,3.99,13.38,19.92,18.48,28.08c-0.32-2.86-4.44-14.29-8.81-21.46
		c1.65-0.94,7.97,9.13,9.06,11.19C736.8,452.42,742.5,472.17,742.28,477.08z"/> <path d="M735.06,459.78c-0.15-0.2-0.2-0.39-0.1,0.1L735.06,459.78z"/> <path d="M512.26,460.78c-0.02,0.01-0.04,0.01-0.05,0.02C512.26,460.83,512.27,460.81,512.26,460.78z"/> <path d="M433.04,366.06c-0.12-0.09-0.14-0.15-0.1,0.1L433.04,366.06z"/> <path d="M426.52,98.64l-0.1,0.1C426.55,98.87,426.57,98.94,426.52,98.64z"/> <path d="M741.47,85.21c-0.24-0.36-0.22-0.35-0.1,0.1L741.47,85.21z"/> <path d="M751.03,104.54c0.42-1.32,0.54-2.66,0.1-4.17c-1.18-4.04,0.02-5.75-3.46-19.44c-3.09-12.12-8.73-13.28-10.28-17.91
		c3.47-5.06-0.89-13.73-8.55-11.09c-8.23,2.84-0.9-5.82,9.16-4.99c4.35,0.87,2.62,1.79,3.46,0.1c-0.03-0.02-0.07-0.04-0.1-0.07
		c0.92,0.25,0.94,1.21,1.12,1.9c6.14,23.19,2.65,16.42,2.65,23.1c4.71-4.71,2.88-37.13-14.14-34.29c-0.81,0.2-1.93,0.51-2.24,1.02
		c-1.47,3.19-12.26,3.28-14.04,15.77c-21.47,0-20.72-0.04-33.68,10.68c-1.22,1.01-3,1.63-3.05,3.66c-0.01,0.52-4.65,3.98-9.36,3.56
		c-2.9-0.26-14.42-1.36-16.69-3.26c-7.56-6.33-8.38-6.2-8.85-7.73c-0.1-0.31-0.41-0.6-0.71-0.71c-1.85-0.67-3.46-2.04-5.29-2.85
		c-18.57-8.25-7.9-6.86-24.12-9.46c-1.32-0.21-2.42-0.53-3.46-1.63c-1.61-1.69-21.36-6.86-32.05-7.43c-1-0.05-15.67-1.92-15.77-1.93
		c-12.98-0.87-24.79-3.18-45.59-13.23c-11.46-5.54-7.8-7.27-13.53-9.87c-3.67-1.66-1.94-3.13-8.34-6
		c-25.71-11.55-31.99-8.54-43.25-5.6c-3.08,0.8-0.29,0.54-7.22,3.77c-10.93,5.09-18.01,14.02-20.86,22.69
		c-4.49,13.65-5.56,11.73-0.2,45.18c1.08,6.71-1.49,2.81,1.93,14.45c0.39-0.98,0.48-1.48,0.1-10.28c-0.09-2.04,0.41-4.07-1.12-5.9
		c-0.41-0.41-0.31-1.12-0.31-1.73c-1.09-16.76-1.35-13.22-0.52-16.04c-3.22-10.99,3.18-29.29,6.32-32.6
		c8.03-8.48,9.88-9.69,12.62-11.09c18.28-9.35,37.76-10.21,55.05,1.02c-0.71,0.81-1.42,1.42-1.83,2.14
		c-0.06,0.1-7.73,45.63-7.73,54.64c0,0.41,0.41,0.81,0.71,1.42c0.31-0.51,0.61-0.81,0.61-1.12c0.41-5.7,2.04-11.09,2.85-16.69
		c5.6-38.87,4.8-33.3,7.33-38.77c9.4,6.26,9.56,11.41,25.13,16.48c18.84,6.14,21.72,7.56,36.12,9.46
		c12.3,1.62,14.96,0.81,12.01,3.77c-15.51,15.51-20.03,61.7-19.03,63.7c2.22-1.48,4.21-47.09,23-65.13c7.19,0,17.21,1.62,26.25,5.29
		c9.92,4.02,13.87,3.27,20.66,5.9c5.52,2.14,18.16,8.96,22.08,13.03c0.31,6.51,4.97,14.66,4.27,18.18c-3-0.8-3.41-13.45-15.87-18.39
		c-21.33-8.45-26.04-6.31-34.9-5.29c-15,1.73-17.34,21-12.72,33.68c0.97,2.67,1.9,8.34,6.11,14.55c5.65,8.33,11.51,8.3,14.25,9.67
		c0.2,1.73-0.1,3.56-0.31,5.29c-2.85,1.12-4.99,2.95-7.02,4.99c-14.72,3.27-12.26,3.3-28.7-1.32c-1.52-0.43-2.63-1.33-3.46-2.85
		c-8.9-16.17-0.94-11.6-18.42-18.01c-4.46-2.03-1.87-1.91-5.9-3.15c-15.96-4.94-19.55-9.97-32.97-20.25
		c-3.46-2.65-7.45-4.31-11.5-5.9c-8.1-3.19-0.43-1.8-10.38-5.39c-7.59-2.74-3.46-1.01-10.48-22.59c-0.1-0.42-0.58-1.12-1.22-1.12
		c-1.56,0.78,0.05-0.27,5.9,24.83c-19.65,0-48.11-13.78-49.76-13.55c12.15,8.7,21.02,9.8,39.48,15.18
		c2.22,0.65,9.57,1.39,11.91,1.63c6.48,18.51,10.29,87.96,7.94,91.99c-9.43,0-40.62-3.3-43.15-3.87
		c-1.62-2.56-17.27-49.49-17.91-53.32c-3.08-13.01-2.81-11.72-3.54-12.39c3.6,32.78,17.03,51.82,14.53,54.32
		c-8.77,0.31-6.98-3.32-14.35-4.27c-0.1-0.01-17.71-2.22-17.81-2.24c-7.02-1.38-10.68-0.94-17.1-1.83c-0.1-0.01-47.63-9-47.93-10.18
		c2.14-0.61,2.65-2.44,3.36-4.17c-1.68-3.54-5.85-3.55-7.12-4.78c-2.25-2.18-10.5-5.99-14.76-11.19c-1.42-1.73-2.54-1.73-4.38-0.41
		c-2.24,2.24-2.48-1.28-5.09,2.14c-2.74,3.19-7.88,7.7-11.19,14.04c-1.85,4.33,1.07,1.41-1.73,7.02c-0.76,1.51-4.11,6.93-6.41,7.43
		c-1.01,0.22-1.73,1.12-1.63,2.14c0.6,3.21-8.52,8.8-12.11,20.86c-1.12,3.78-3.74,14.23-2.65,18.01c1.07,3.69-0.05,5.88,0.31,8.04
		c5.72,4.09,4.39,2.97,4.78,5.09c0.43,2.37,0.74,3.38,8.45,2.54c10.59-1.15,7.4-1.14,17.1-15.06c2.76-3.55-0.38-4.39,3.56-6.11
		c16.28-7.1,16.77-8.52,18.52-8.75c2.97-0.4,5.15-4.37,8.04-5.9c16.01,4.57,49.32,22.18,49.66,22.39c5.8,3.53,12.3,5.17,20.96,9.36
		c10.71,5.18,18.18,10.14,30.32,11.8c8.36,1.15,7.47,4.23,11.7,4.48c3.66,0.22,7.33,0.88,11.09,0.51c1.73-0.17,3.36-0.6,4.99-0.51
		c6.26,0.36,12-6,12.92-6c1.53-0.1,2.14-1.12,2.65-2.14c0.76-1.52,2.42-5.72,2.75-5.8c1.51-0.24,2.03-0.25,4.07-11.3
		c2.14-11.59,1.51-4.54,2.14-12.31c0.43-2.98-10.65-3.98,108.98,7.22c1.02,0.1,2.04,0.31,3.26,0.51
		c9.06,33.22,3.44,24.92,15.98,37.96c8.6,0,23.47,2.92,33.48,1.73c6.79-0.81,7.46,0.13,11.4-0.81c17.31-4.16,17.18-4.09,19.64-4.27
		c2.75-0.21,5.48-0.33,8.14-1.42c0.51-0.21,1.12-0.21,1.73-0.1c4.53,0.79,6.6-1.62,10.28-0.71c3.96,0.97,8.54,0.21,13.94-0.1
		c3.11-0.18,4.74-2.41,7.73-3.56c4.11-1.58,1.69-3.98,4.68-9.16c0.57-0.99-0.78-1.48-1.12-0.81c-4.07,4.39-0.15,6.85-4.38,8.45
		c-3.32,1.26-6.31,5.14-19.64,2.54c-0.2-0.41-0.2-0.61-0.31-0.81c-0.72-2.16-0.55,1-6.72,1.32c-24.46,1.29-36.12,10.52-79.58,5.09
		c-4.92-6.97-5.65-7.29-6.61-10.99c-6.51-25-7.63-26.72-8.04-33.48c-0.22-3.68-1.68-18.67-1.83-25.85
		c-0.31-14.79,5.03-38.38,1.42-37.35c-0.2,1.42-0.31,2.95-0.51,4.38c-2.96,1.73-9.19-3.09-11.6-6
		c-12.33-14.9-12.19-42.45,2.44-46.61c3.16-0.9,5.84-1.09,12.01-2.04c2.32-0.36,3.08-0.04,19.54,5.8c4.58,1.63,8.34,3.66,11.09,7.02
		c11.92,14.57,6.83,18.33,4.27,22.59c-0.35,0.69-1.33-0.38-1.73-0.92c-0.81,0.61-0.51,1.12-0.41,1.73c0.41,1.63,0.62,3.25,1.12,4.88
		c0.12,0.38-0.26,34.86-4.07,40.91c-3.39,5.37-1.61,14.41-0.71,43.45c0.16,0.94-1.31,5.21,3.26,6c2.27,0,1.65,1.02,19.03,3.66
		c9.82,1.49,11.14,0.63,12.82,1.02c2.33,0.54,4.48-0.1,6.72-0.61c-0.2-1.02-0.91-0.93-1.63-1.02c-2.23-0.26-2.24-0.2-3.66-2.14
		c-1.02,0-2.21,0.7-2.75-0.71c-0.39-1.03-0.51-2.04,0.31-3.05c0.92,0.1,1.73,0.1,2.44,0.2c1.94,3.13,6.77,7.13,10.07,6.82
		c7.86-0.73,18.85-1.62,20.35-3.15c11.09-11.29,8.24-12.9,15.37-12.11c0.81-1.22,1.32-2.44,0.81-3.97
		c-47.61,9.52-29.24,6.26-36.02,7.22c-1.49,1.28-3.51,2.33-2.65,4.07c1.27,3.04,2.6,2.79,6.21,6.11c-0.41,0.2-0.71,0.41-0.81,0.41
		c-3.66-1.32-6.72-3.87-10.18-5.8c-0.1-0.71-0.31-1.22-0.31-1.83c0-0.61,0.1-1.12,0.1-1.63c2.54-1.02,4.99-1.83,7.63-1.32
		c0.41-1.02,1.53-1.12,2.24-1.53c29.53-9.19,31.66-10.24,36.63-8.34c1.08,0.41,3.2,0.46,5.8,1.32c-0.41,2.85-0.81,5.39-1.22,8.14
		c-3.77-0.31-7.02-2.75-10.79-1.42c0.77,1.68,2.76,0.72,6.11,1.83c4.64,1.86,7.46-0.9,10.18,2.54c-0.31,1.12-0.51,2.24-0.81,3.26
		c-1.12,0.2-2.04-0.71-3.05,0.31c0.81,0.51,1.53,1.02,2.34,1.53c-0.21,1.78,0.63,5.76-2.34,4.27c-0.81,1.22-0.81,1.22-0.71,2.54
		c2.6-0.74,1.49-1.79,4.17,2.04c2.25-1.25-0.67-2.99-0.1-4.88c0.61-1.63,0.41-3.55,1.73-4.99c1.02-1.11,1.12-2.54,0.61-4.07
		c-1.63-1.12-3.26-2.24-4.99-3.46c0.31-3.15,0.71-6.31,1.02-9.57c-2.44-1.32-5.29-1.02-7.12-2.14c-1.02-2.54-1.93-4.58-2.85-6.51
		c1.56-3.64,1.26-9.6-2.14-10.28c-9.66-1.33-9.63-1.93-12.31-0.71c-15.08,5.86-14.91,5.35-15.98,7.02c-0.2,0.31-0.82,0.5-1.22,0.71
		c-4.29,2.2-8.43,4.52-12.72,6.72c-3.94,2.02-6.49-1.14-12.72-0.1c-0.12,0.06-18.33-0.78-25.13-2.14c0-10.08-0.44-16.42,2.24-25.44
		c4.35-14.67,2.62-23.91,3.66-31.24c14.54,3.92,12.64,2.61,14.76,3.77c-0.69,9.7-1.14,14.9,2.75,18.52c2.54,0.71,5.09,0.2,7.43-0.2
		c1.26,0.94,1.96,2.28,4.88,1.93c1.4-0.17,1.99-1.27,2.54-0.71c3,4.37,4.67-0.24,7.43,1.83c1.91,4.3,2.11,7.16,4.88,5.9
		c0.46-0.31,9.54-5.41,12.72-6.61c5.96-2.26,6.57,1.83,12.52,0.2c0.71-0.2,1.53,0.1,2.95,0.31c-1.42,1.53-1.51,3.05-1.12,4.58
		c4.6,17.82,6.62,15.23,6,18.32c-0.2,0.51,0.1,0.92,0.71,0.92c1.91-4.3,0.06-14.52,1.32-15.37c1.08,1.08,0.81,1.6,0.81-4.88
		c0-6.09,0.14-5.8-0.41-5.8c-1.21,0-2.48,6.84-3.36,9.16c0-8-2.68-8.9,4.48-10.58c1.29,18.07,0.56,1.45,1.93-0.61
		c0.1,0.1,0.31,0.1,0.31,0.2c1.38,14.11,1.53,11.98,1.53,16.99c-0.45,0.22-0.28,0.66-2.34-5.19c-0.15,3.49,2.03,9.7,5.39,20.05
		c1.87,4.86,1.47,3.9,3.05,5.09c-0.77-5.45-1.39-5.44,0.51-4.48c-1.51-3.91-0.48-0.07-3.56-17.4c-0.09-0.51-0.31-1.12,0.41-1.53
		c4.39,10.98,5.72,10.58,8.14,11.5c0.81,0.31,1.22,1.32,1.93,2.04c0.2,0.2,0.51,0.1,1.02,0.2c-0.2-0.51-0.31-0.92-0.51-1.12
		c-4.43-5.2-8.3-21.3-5.8-30.22C748.37,115.82,745.98,120.29,751.03,104.54z M485.44,75.44c-0.4-1.18,0-1.58,1.12-1.02
		c35.95,15.28,26.24,22.62,54.95,31.14c5.16,1.53,5.31,4.06,14.86,7.12c3.65,1.17,2.42-0.05,7.12,9.87c0.29,0.62,0.1,1.42,0.2,2.24
		c3.87,3.26,7.94,6.39,12.82,8.24c14.39,5.46,22.27-1.28,27.68-4.88c0,3.32-0.94,7.21-1.83,14.86c-1.06,9.12,0.46,16.59,0.81,21.57
		c-1.75,0-105.48-7.21-107.66-7.94C495,152.49,497.05,109.45,485.44,75.44z M603.69,167.43c-3.1,0.44-4.45,0.7-71.23-4.68
		c-36.99-2.98-36.62-1.61-36.94-3.87c5.8,0,83.82,5.89,106.13,7.33C602.36,166.31,603.18,166.11,603.69,167.43z M444.54,161.12
		c0.8,0.83,1.02,1.93,0.71,3.15c-0.41,0.1-0.81,0.2-1.32,0.2c-11.61-0.86-10.91-0.26-19.94-7.12c0.51-0.92,1.12-0.62,1.63-0.61
		C440.26,157.1,440.83,157.3,444.54,161.12z M442.6,155.32c0,1.83-39.62-1.85-42.23-3.15C402.22,152.25,441.35,154.07,442.6,155.32z
		 M417.67,149.01c5.21,0.97,7.49,0.43,9.87,2.65c-2.27,0.25-0.11,0.42-19.84-0.92c-24.7-1.68-23.43-0.79-53.53-9.87
		c-2.56-0.77-5.29-1.53-7.33-3.66C411.76,153.43,396.5,145.07,417.67,149.01z M345.73,139.65c7.77,4.48,28.83,8.8,42.84,13.23
		c7.22,2.28,30.73,4.87,36.73,9.16c-0.54,1.63,0.57-0.43-95.65-7.84c-1.42-2.04-0.92-4.07-1.12-6c0.92-1.32,2.24-2.04,3.36-2.85
		c3.37-2.43,4.27,0.54,9.46,1.32c-1.73-1.53-3.97-1.42-4.78-3.26C342.64,138.42,342.2,137.61,345.73,139.65z M344.91,130.08
		c1.09,0.69-0.27,1.76-1.02,1.02c-0.31-0.51-0.51-1.22-0.81-1.73C343.69,129.68,344.41,129.77,344.91,130.08z M336.2,125.29
		c-0.06-0.04-0.19-0.09-0.35-0.09C336.03,125.2,336.25,125.27,336.2,125.29z M328.53,120.21c-0.51,0.51-0.41,0.1-0.51-0.2
		c-1.12,0.2-1.73-0.2-1.93-1.42C328.53,119.33,326.96,119.43,328.53,120.21z M322.93,115.84c0.31,0.1,0.51,0.31,0.71,0.51
		C322.81,116.63,322.48,116.06,322.93,115.84z M312.86,123.06c2.49-2.78,1.78-1.03,5.49-6.82c4.96,1.65,2.25,2.68,6.41,5.39
		c20.81,13.56,19.06,8.82,16.38,11.5c-0.41,0.81-1.02,1.93-1.53,3.15c-0.36,1.08,0.92,2.2-1.32,3.26
		c-3.25,1.54-1.32-1.34-11.91,6.31c-0.89,0.64-2.89,3.15-1.42,5.39c0.4,0.61,0.71,1.22,1.02,1.73c-0.51,1.02-1.32,0.71-1.93,0.61
		c-18.11-1.34-19.08-0.73-22.18-5.6C306.62,133.74,305.41,131.39,312.86,123.06z M301.06,143.52c0.31,1.22,0.2,2.04-0.81,2.75
		C299.33,145.04,300.14,144.43,301.06,143.52z M285.49,193.58c-4.78-1.65-1.59-1.17-2.65-11.3c-0.27-2.62,0.07-4.98,0.41-6
		c2.12-10.59-1.04-5.91,12.31-25.54c1.32-0.2,1.32,0.71,1.63,1.22c-2.11,4.21-4.94,4.05-7.22,9.77
		C286.45,170.53,285.49,164.79,285.49,193.58z M490.94,175.77c-3.01,24.53-1.51,15.36-4.38,22.9c-1.8,4.73-3.69,4.77-12.01,10.79
		c-2.24,1.62-2.88,0.17-4.78,1.12c-4.82,2.02-10.36,0.61-11.3,0.61c-3.46,0.2-6.62-1.1-9.87-1.83c-1.32-0.3-2.34-1.02-2.75-2.24
		c-2.02-1.01-8.26-0.3-21.67-6.82c-21.14-10.28-14.36-4.87-48.54-23.3c-32.06-17.29-36.02-14.22-42.94-16.38
		c-5.42-2.71,26.05,1.45,101.05,7.63c2.13,0.18,3.32,0.59,13.74,7.53c3.11,2.07,3.28,3.97,4.68,7.84c0.71-2.75-1.22-4.78-0.41-7.02
		c-1.63-1.73-2.44-3.77-2.04-6.21c1.02-0.91,1.26-0.4,11.3,0.41C492.42,173.31,491.3,172.82,490.94,175.77z M442.81,169.77
		c0.43-0.85-0.44-0.92,4.48-0.1c0.92,1.12,1.02,2.14,1.02,3.46C446.26,172.11,444.54,170.89,442.81,169.77z M603.69,181.27
		c-4.32-0.38-296.55-25.47-300.9-26.05c2.14,2.32,3.59,2.55,24.02,3.66c2.24,0.12,3.87,1.02,4.68,2.95
		c2.24,1.02,4.38,1.93,6.41,2.85c-1.32,2.65-2.34,3.46-7.22,5.6c-5.98-1.33-10.09-7.76-12.62-10.18c-0.19,5.68,3.8,7.81,8.85,11.6
		c-3.64,1.82,0.58,1.98-11.7-3.56c-0.71-0.32-1.53-0.51-2.34-0.81c-0.72,7.47,10.17,5.89,2.75,8.85c-1.47-0.23-0.94-0.67-5.39-3.46
		c-0.31-0.1-0.31-0.1-1.42,0.81c0.31,1.93,1.93,2.95,3.05,4.27c-0.44,1.96-1.53,0.49-4.17-0.1c-0.82,0-1.65,1.09-1.02,2.04
		c0.51,0.61,1.12,1.12,1.73,1.63c-0.2,1.63-1.53,2.04-2.44,2.65c-0.31,1.22,1.02,1.32,1.22,2.24c-0.1,1.42-1,2.65-1.63,3.87
		c-3.16,6.13-3.21,7.01-5.49,7.53c-8.52,1.93-10.42,1.71-12.01,1.83c-0.48-1.44-1.12-28.68,1.73-33.48
		c4.65-7.83,4.54-8.37,9.26-11.91c1.42,0.51,2.65,0.92,3.87,1.32c-3.17-3.17-4.77-2.15-6.61-8.85c0.95-1.26,1.94-0.13,2.75,1.22
		c1.02,2.14,2.83,3.49,4.78,4.78C307.86,155.25,631.13,181.27,603.69,181.27z M605.21,178.52c-6.87,0-108.93-9.54-110-9.97
		c-0.31-2.04-0.2-4.07,0.1-6.51c1.08-0.23,105.62,7.17,108.88,7.63C604.9,171.62,607.28,178.52,605.21,178.52z M711.14,184.32
		c-0.87,0.87-0.64,0.44-1.12,0.2C710.73,183.46,710.69,183.87,711.14,184.32z M685.5,188.49c0.72-0.64-0.24-0.14,11.4-3.15
		c3.3-0.47,2.81,0.14,3.15-0.2c2.14-1.53,4.78-1.53,7.33-2.24c0.34,2.73,0.8,1.73-3.66,4.27c1.53,1.22,2.44-0.31,3.77-0.41
		c0,0.41,0.19,0.91,0,1.32c-2.75,5.83-5.15,5.1-13.23,6.11C692.73,191.37,689.19,192.68,685.5,188.49z M672.07,187.78
		c-1.91-1.02-1.34-0.27-30.93-3.05c-0.46,0-1.03-1.16,0.51-1.12c11.03,0.28,28.76,3.56,31.34,2.04c0.9-0.53,1.73,0.2,2.14,1.53
		C674.1,187.98,673.09,188.09,672.07,187.78z M709.31,157.25c3.46,0.71,7.22-0.41,10.79,0.71c1.63,2.75,1.63,3.15-0.31,6
		c-3.26-1.83-3.26-1.83-6-1.63c-0.82-0.82-2.39-3.43-8.04-1.02c-25.03,10.7-24,9.85-24.93,9.67
		C690.97,165.27,694.35,163.55,709.31,157.25z M710.74,163.36c-0.2,0.2-0.2,0.51-0.41,0.61c-4.89,1.96-2.47,0.95-8.04,1.93
		c1.12-1.12,2.43-1.54,3.56-2.04C711.44,161.43,709.3,161.92,710.74,163.36z M700.36,167.02c-0.51,0.31-0.92,0.92-1.83-0.1
		C699.24,167.02,699.85,167.02,700.36,167.02z M689.26,171.6c-0.1,0-0.31,0.1-0.51,0.2c-0.17,0-0.32-0.41,0.31-0.41
		C689.16,171.4,689.16,171.5,689.26,171.6z M680.62,174.55c-1.5,0-1.62,0.29-3.56-0.1C676.59,172.59,679.34,172.36,680.62,174.55z
		 M668.81,171.5c-5.31,0.92-28.59-0.4-28.59-1.93C641.47,168.31,666.67,171.1,668.81,171.5z M640.01,172.01
		c4.53,0.53,7.34-0.18,13.13,2.14c3.23,1.29,4.21,1.25,18.93,1.42c1.15,0.01,3.37,0.71,4.68,0.41c3.88-0.88,11.6-1.34,14.96-3.36
		c3.05-2.15,20.44-7,23-8.65c0.81-0.52,1.85-0.22,2.65,0.61c4.85,5.05,4.18,3.5,4.48,6.31c-1.83,0.51-3.46,0.61-5.6-0.2
		c-0.1-0.71-0.1-1.42-0.31-2.04c-0.3-1.21-1.91-1.27-2.14,0.1c-0.36,3.21,0.34,3.36-1.73,3.36c-0.41,0-0.92,0.1-1.02,0.31
		c-0.81,2.04-2.74,1.84-4.38,2.34c-13.49,4.12-17.27,4.96-18.62,5.6c-4.48,2.11,1.23,0.47-10.48,2.34
		c-0.81-1.32,1.02-2.85-0.81-3.66c-1.32,1.32-0.81,3.15-1.22,4.68c-1.46,1.32-1.3,1.09-23.2-0.92c-14.66-1.34-9.41-0.86-11.91-1.22
		C640.22,178.42,639.81,175.37,640.01,172.01z M639.91,186.15c10.07,1.02,20.15,1.63,30.32,2.75c0.1,2.04,0.2,3.56,0.2,5.19
		c-10.48,0.2-20.45-2.24-30.53-5.39C639.58,187.37,639.43,187.59,639.91,186.15z M735.77,161.93c0,0.16,0.1-0.06,0.1,0.84
		C735.33,162.33,735.59,162.3,735.77,161.93z M740.35,121.74c0-0.41-0.2-0.71-0.1-0.81c5.44-6.88,4.61-7.23,5.96-8.15
		C745.65,116.64,743.25,119.34,740.35,121.74z M734.75,57.53c1.25,0.83,0.79,0.1,2.24,4.07C735.79,62.35,735.92,61.05,734.75,57.53
		c-0.73-1.21-1.15-1.37-2.85-2.34C734.14,55.29,734.14,55.39,734.75,57.53z M731.09,56.1c0.92,1.22,2.14,1.93,2.34,3.36
		C730.99,59.16,730.58,58.75,731.09,56.1z M728.65,54.78c0.06,0.11,0.59,1,0,0.71C728.65,55.22,728.22,55.21,728.65,54.78z
		 M649.25,84.65c0.79,1.38,0.43,2.85,0.43,4.32C648.34,88.53,648.96,86.9,649.25,84.65z M722.44,148.09
		c-1.29,0.16-1.26-2.57-1.53-5.6c-0.08-0.92-1.63-1.02-1.22-2.24c-0.14-0.29-0.57-0.45-0.1-0.92c0,0.17,0.1-0.09,0.1,0.92
		c2.19-2.19-1.92-5.9,1.12-5.9c0.41,2.85,0.54,5.92,1.22,8.75C722.83,146.44,722.44,147.99,722.44,148.09z M741.37,154.51
		c-0.78-0.39-1.27-1.07-1.5-2.03C740.96,152.8,741.26,153.6,741.37,154.51z M739.22,150.91c0,0.1,0.94,0.3,0.63,1.49
		C739.85,152.26,739.01,152.28,739.22,150.91z M739.18,150.8c-0.31-0.28-0.77-0.49-0.97-0.77c-4.43-8.86-4.88-8.45-4.88-18.42
		c-2.93,1.96-1.13,6.27-2.34-1.02c1.63-1.32,3.56-1.63,5.29-2.34C737.61,130.25,732.77,132.61,739.18,150.8z M733.73,124.49
		c-0.41,1.12-2.65,1.22-1.53,3.15c-22.54,7.04-5.03,1.15-21.27,5.7c-1.91-0.48-4.35-3.11-10.07-0.51c-4.19,1.9-8.14,3.97-11.6,7.33
		c-0.41-0.41-0.92-0.61-1.02-1.02c-1.02-2.85-1.63-5.9-1.83-9.26c-1.38,0.69-0.74-0.16-2.24,2.85c-6.44,2.3-5.07-0.64-6.21-4.27
		c-0.17-1.03,0.11-2.24-1.42-2.24c-0.83,0-0.61,1.84-0.51,2.44c0.08,0.51,2.05,3.3-0.61,3.77c-1.46,0.25-2.35-0.25-3.66-1.12
		c-3.13-2.41-3.65,0.3-8.95-1.12c-1.02-0.92-1.34-2.04-1.32-3.26c0.05-2.95-0.27-5.79,0.41-8.65c1.89-8.01-3.86-7.38-17.1-10.68
		c-0.92-2.54-1.32-5.29-1.42-8.04c1.02-1.22,2.14-2.34,3.05-3.56c1.61-1.61,1.31-3.47,3.05-5.6c2.64-3.23-1.54-16.48-2.75-20.45
		c1.08-1.89,4.66,2.87,7.33,3.46c13.36,2.94,24.96,3.88,30.22-8.75c18.85-8.99,22.55-5.8,28.19-7.84c2.33-0.84,4.88-0.51,7.53,0.61
		c-4.52,3.23-8.71,0.83-15.67,9.26c-2.11,2.56-3.56,5.6-5.29,8.75c1.42-0.1,1.73-1.02,2.04-1.63c1.09-2.18,4.46-6.45,6.46-7.26
		c-5.25,16.15-0.13,3.04,5.24-2.21c0.6-0.58,1.27-0.99,1.86-1.48c0.18,0.83-0.45,1.42-0.84,2.09c-1.77,2.99-3.46,6-4.68,9.36
		c0.92,0.1,1.12-0.51,1.32-0.92c11.65-18.77,10.06-14.08,10.68-17.2c-1.32-1.63-3.36-0.92-4.78-1.93
		c0.24-6.62,7.88-10.79,14.35-13.64c5.86-2.58,10.55,3.21,10.58,6.28c-1.88-1.25-3.96-2.17-6.41-1.9c-3.05,0.34-6.14,1.08-8.65,3.05
		c-3.62,2.84-2.71,5.48-2.24,8.75c10.71,4.17,13.7,23.21,17.32,28.14c-3.57-14.91-7.74-19.88-7.74-21.05
		c9.55,5.61,12.38,25.76,14.54,36.57c0.35,1.05-0.32,9.98-1.78,12.05c-0.09-0.26-0.18-0.55-0.36-1.06
		c-0.41,0.61-0.81,0.92-1.12,1.32c-0.61,0.71-0.81,1.93-2.04,2.14c-0.27,0.46-0.47,0.84-0.65,1.28c-0.07-0.53-0.06-1.02,0.65-1.28
		c-0.5-1.99,2.62-4.51,2.75-11.8c0.01-0.31-0.17-1.53-0.61-1.53c-1.38,0.34-0.06,5.02-5.29,13.84
		C733.51,125.77,731.53,120.82,733.73,124.49z M707.72,66.38c0.05-0.13,0.08-0.24,0.16-0.41C708.23,66.32,707.99,66.37,707.72,66.38
		z"/> <path d="M431.71,59.56l-0.1,0.1C431.89,59.63,431.84,59.69,431.71,59.56z"/> <path d="M604.91,490.11c-1.02,2.95-0.19,5.59,0.41,8.24c0.62,2.74,0.81,3.05,2.14,4.48c0-2.24-1.12-10.58-1.63-12.21
		C605.82,490.51,605.52,490.41,604.91,490.11z"/> <path d="M725.8,425.18c9.38,7.94,6.36,8.18,8.85,11.09C734.04,431.09,730.48,426.51,725.8,425.18z"/> <path d="M639.5,102.91c-0.83-4.68-0.65-5.1-2.34-8.14C636.26,93.86,633.61,95.45,639.5,102.91z"/> <path d="M735.36,50.1c-0.2-0.1-0.61,0.1-1.02,0.1c4.68,4.48,5.29,4.38,8.14,10.79c0.1-0.2,0.31-0.41,0.41-0.61
		C742.12,55.77,739.2,52.42,735.36,50.1z"/> <path d="M630.24,582.2c0,0.1,0.1-0.1,0.61-0.41c-0.61-1.63-1.32-3.15-2.04-4.68c-0.32-0.49-1.62-0.85-1.93,0.1
		C626.38,579.35,628.01,581.69,630.24,582.2z"/> <path d="M608.47,157.96c0.34,2.23,1.22,4.07,3.26,5.9C609.9,154.04,608.31,156.89,608.47,157.96z"/> <path d="M631.97,479.32c0.37-1.96-0.83-6.81-2.34-6.31C627.85,473.01,630.1,479.03,631.97,479.32z"/> <path d="M638.89,209.45c-1.22-1.12-2.54-1.83-4.58-2.85C635.64,209.25,636.76,209.86,638.89,209.45z"/> <path d="M625.67,214.24c2.95,1.53,2.95,1.53,5.39,1.12C629.53,215.05,628.21,213.83,625.67,214.24z"/> <path d="M636.76,585.55c-0.1,0.31-0.2,0.81,0,0.92c3.82,3.19,3.32-1.22,0.61-1.22C637.16,585.35,636.86,585.45,636.76,585.55z"/> <path d="M727.53,197.85c-1.02-0.31-1.83,0.2-2.44,0.92c-0.2,0.2,0,0.61,0.1,1.02c1.02-0.31,1.83-0.61,2.85-0.92
		C727.73,198.36,727.73,197.96,727.53,197.85z"/> <path d="M718.77,199.79c3.76,0,3.46,0.2,3.46-0.71C720.36,198.87,718,198.24,718.77,199.79z"/> <path d="M723.35,206.81c1.12,0.61,2.24,0.61,3.36,0C725.59,205.38,724.78,205.38,723.35,206.81z"/> <path d="M633.6,585.66c0.51-1.12,0.31-1.83-0.92-2.24C631.54,582.84,631.06,585.66,633.6,585.66z"/> <path d="M719.69,583.42c1.12,0.71,2.24,0.71,3.36,0.1C722.03,582.1,721.22,581.99,719.69,583.42z"/> <path d="M718.57,575.89c-2.75-0.51-2.75-0.51-3.56,0.31C717.66,576.6,717.66,576.6,718.57,575.89z"/> <path d="M659.45,568.26c4.47,1.4,4.13,1.06,5.09,0.1C662.71,567.85,661.38,567.54,659.45,568.26z"/> <path d="M721.32,575.99c1.42,0.2,1.42,0.2,3.26-1.12C722.44,574.46,722.44,574.46,721.32,575.99z"/> <path d="M598.29,487.46c0.2,0.61,0.41,1.22,0.71,1.73c0.1,0.1,0.81,0.2,0.92,0.1c1.14-1.14-0.09-1.6-1.02-2.34
		C598.7,487.05,598.5,487.26,598.29,487.46z"/> <path d="M623.43,593.09c1.32,1.22,2.75,1.02,4.38,0.61C624.75,592.37,624.75,592.37,623.43,593.09z"/> <path d="M602.46,103.22c0.31,0.92,0.51,1.83,1.73,1.83C604.5,103.32,604.4,103.12,602.46,103.22z"/> <path d="M607.04,109.53c-0.48-1.44,0.24-0.34-1.73-2.04C605.11,110.04,605.31,110.24,607.04,109.53z"/> <path d="M595.75,482.68c0.81,0.98,1.4,1.96,1.93,1.42C598.23,483.01,597.72,482.15,595.75,482.68z"/> <path d="M426.63,98.44c-0.41-4.09,0.11-2.84-0.68-4.07C426.07,95.79,425.77,97.19,426.63,98.44z"/> <path d="M425.81,94.16c0.04,0.07,0.08,0.14,0.13,0.2C425.91,94,425.96,94.02,425.81,94.16z"/> <path d="M612.34,165.49c-0.84,0,0.08,1.22,0.51,1.93c0.31-0.1,0.51-0.2,0.71-0.41C613.41,166.72,612.91,164.92,612.34,165.49z"/> <path d="M425.71,91.11c-0.41,1.12-0.61,2.04,0.2,2.95C425.81,93.14,425.71,92.23,425.71,91.11z"/> <path d="M743.2,64.45c0-0.41,0-0.71,0-1.12C743.14,63.49,742.98,64.45,743.2,64.45z"/> <path d="M607.96,504.86c0.1,0.31,0.1,0.71,0.2,1.12c0,0.1,0.2,0.1,0.41,0.31C608.6,506.18,609.22,504.23,607.96,504.86z"/> <path d="M705.75,585.76c-0.18,0.37-0.11,0.09,0.31,0.51C706.37,585.64,706.35,585.76,705.75,585.76z"/> <path d="M632.38,481.05c0.27-0.53,0.73-0.39-0.51-1.63C632.09,480.3,631.6,480.66,632.38,481.05z"/> <path d="M611.93,513c0.2,0.2,0.2,0.41,0.41,0.51c0.1,0,0.31-0.1,0.51-0.1c-0.1-0.2-0.1-0.51-0.31-0.51
		C612.34,512.8,612.13,513,611.93,513z"/> <path d="M615.49,169.97c0.1-0.1,0.1-0.2,0.2-0.31c-0.2-0.1-0.51-0.31-0.71-0.41C614.98,169.82,614.94,169.42,615.49,169.97z"/> <path d="M644.08,209.86c0,0,0.31-0.2,0.51-0.41c-0.31-0.2-0.61-0.41-0.92-0.51C643.42,209.33,643.35,209.13,644.08,209.86z"/> <path d="M709.31,209.05c-0.18,0.37-0.11,0.09,0.31,0.51C709.92,208.95,709.95,209.05,709.31,209.05z"/> <path d="M424.57,56c0.27,0.46,0.69,0.59,1.2,0.6C425.56,56.07,425.08,56,424.57,56z"/> <path d="M424.56,56c-0.02-0.04-0.05-0.06-0.07-0.1c-0.06-0.02-0.12-0.06-0.17-0.08c0.08,0.13,0.05,0.2,0.09,0.17
		C424.38,56.01,424.42,56,424.56,56z"/> <path d="M424.31,55.82c-0.2-0.42-0.6-0.45-1.05-0.49C423.6,55.49,423.96,55.67,424.31,55.82z"/> <path d="M422.96,55.19v0.1C423.4,55.38,423.31,55.34,422.96,55.19z"/> <path d="M425.97,56.74c0.2,0.5,0.67,0.51,1.17,0.56C426.86,56.88,426.45,56.81,425.97,56.74z"/> <path d="M425.77,56.6c0.03,0.11,0.04,0.13,0.19,0.13C425.9,56.61,425.95,56.6,425.77,56.6z"/> <path d="M632.79,484.1c0.1,0.2,0.2,0.31,0.31,0.41c0-0.1,0.1-0.2,0.1-0.31C632.97,483.98,632.98,483.72,632.79,484.1z"/> <path d="M457.25,163.05c-0.18,0-0.34,0.17,0,0.51C457.25,163.41,457.48,163.28,457.25,163.05z"/> <path d="M661.79,557.88c0.1-0.61,0.2-1.02,0.31-1.42C661.48,556.66,661.28,556.96,661.79,557.88z"/> <path d="M654.87,567.03c0.1,0,0.2,0.1,0.31,0.1c0-0.1,0.1-0.2,0.2-0.1C655.16,566.82,655.18,566.73,654.87,567.03z"/> <path d="M732,537.02l0.1-0.1C731.94,536.91,732,536.89,732,537.02z"/> <path d="M732.54,538.37c0.07,0.22,0.04,0.23,0.12,0.12c0.15,0.15,0.1,0.02,0.03-0.02l0.02-0.02
		C732.64,538.42,732.59,538.39,732.54,538.37z"/> <path d="M732.54,538.36c-0.18-0.45-0.36-0.9-0.54-1.34C732,537.48,731.92,538.03,732.54,538.36z"/> <path d="M639.5,106.47c0-0.1,0.2-0.2,0.2-0.2c0-0.2-0.1-0.31-0.2-0.51C639.23,106.04,639.23,105.93,639.5,106.47z"/> <path d="M428.94,58.14c0.31,0.51,0.78,0.61,1.35,0.61C430.01,58.12,429.42,58.13,428.94,58.14z"/> <path d="M428.76,58.14c0.05,0,0.11,0,0.17,0C428.86,58,428.86,58.04,428.76,58.14z"/> <path d="M430.47,58.85c0.38,0.19,0.8,0.44,1.24,0.61C431.46,58.86,430.98,58.84,430.47,58.85z"/> <path d="M430.19,58.85c0.09,0,0.19,0,0.28,0C430.24,58.73,430.33,58.71,430.19,58.85z"/> <path d="M427.14,57.29c0.12,0.17,0.06,0.13,0.27,0.13C427.33,57.3,427.35,57.33,427.14,57.29z"/> <path d="M427.42,57.43c0.33,0.49,0.88,0.52,1.45,0.61C428.59,57.49,427.99,57.44,427.42,57.43z"/> <path d="M732.72,538.64c0.1,0.1,0.1,0.1,0.2,0.1C732.69,538.52,732.8,538.59,732.72,538.64z"/> <path d="M412.79,559.2c3.36,1.63,6.82,2.09,10.38,2.14c0.41,0.01,0.92-0.1,1.02-0.92C414.97,558.93,413.13,557.84,412.79,559.2z"/> <path d="M442.19,527.45c0.98-4.91,1.27-5.09,0.71-6.11C440.97,524.91,440.77,526.13,442.19,527.45z"/> <path d="M325.99,521.65c1.32,0.31,2.75,0.51,4.78,0.92C327.8,518.85,325.82,519.96,325.99,521.65z"/> <path d="M402.92,555.74c1.16,0.77,0.79,0.57,3.05,1.32C407.4,555.63,405.08,555.02,402.92,555.74z"/> <path d="M442.5,515.14c0,1.33,2.27,1.4,1.42-2.54C442.5,513.31,442.5,514.22,442.5,515.14z"/> <path d="M332.7,522.97c0.61,1.22,1.32,1.02,2.24,0.71C334.33,522.67,333.72,522.26,332.7,522.97z"/> <path d="M337.89,523.69c0.71,0.92,0.71,0.92,1.63,0.51C339.11,523.58,338.71,523.08,337.89,523.69z"/> <path d="M342.37,524.3c1.02,0.71,1.83,1.42,3.05,0.81C344.61,524.3,343.79,523.69,342.37,524.3z"/> <path d="M444.13,509.34c0.43,1.29,0.28,0.67,0.81,0.41C444.62,509.1,444.84,508.98,444.13,509.34z"/> <path d="M438.02,546.89c0.1,0.31,0.2,0.51,0.31,0.81c0.1-0.1,0.31-0.2,0.51-0.41C438.1,546.56,438.29,546.62,438.02,546.89z"/> <path d="M445.65,503.23c-0.77,0.38-0.25,0.57,0.1,0.92C446.06,503.84,446.15,503.48,445.65,503.23z"/> <path d="M299.73,301.95c-3.05-1.42-5.9-3.36-9.57-3.66C293.82,300.6,299.73,305.1,299.73,301.95z"/> <path d="M208.45,236.12c-1.52-0.55-2.7,1.14-0.81,2.04c5.02,2.37-0.73-0.73,6.41,3.66c-0.1-0.31,0-0.71-0.1-1.02
		C212.73,238.56,210.82,236.97,208.45,236.12z"/> <path d="M307.67,303.78c-1.83-0.92-3.46-1.02-5.8-0.81C304.11,305.11,305.53,305.21,307.67,303.78z"/> <path d="M219.85,244.36c-2.24-2.54-2.75-2.75-5.9-2.44C215.78,243.04,217.31,244.56,219.85,244.36z"/> <path d="M236.85,253.72c-1.22-1.32-2.75-1.83-4.27-2.65c-0.1,0.51-0.31,0.92-0.2,1.12C233.59,253.62,234.61,254.03,236.85,253.72z"/> <path d="M409.33,362.3c-0.41-0.11-0.81,0.1-1.63,0.2c0.51,0.71,0.61,0.92,0.81,1.12C411.36,365.52,412.34,363.1,409.33,362.3z"/> <path d="M224.53,247.21c-1.12-1.02-1.12-1.02-2.54-1.22C222.5,247,223.11,247.41,224.53,247.21z"/> <path d="M417.87,368.3c-1.73-1.22-1.73-1.22-3.56-1.12C415.23,368.1,416.35,368.71,417.87,368.3z"/> <path d="M228.91,250.26c0-0.1,0.1-0.41,0-0.51c-1.17-1.17-1.74,0-1.42,0C228.27,250.14,228.91,250.66,228.91,250.26z"/> <path d="M273.89,287.71c0.1-0.29-0.54-1.29-1.12-0.71c0.2,0.41,0.51,0.71,0.71,1.12C273.68,287.91,273.78,287.81,273.89,287.71z"/> <path d="M404.24,359.55c-0.2-0.2-0.41-0.41-0.81-0.71c-0.2,0.41-0.31,0.71-0.31,0.92c0.31,0.1,0.61,0.31,0.92,0.31
		C404.04,360.06,404.34,359.65,404.24,359.55z"/> <path d="M285.79,295.44l0.1-0.2C285.64,295.37,285.66,295.31,285.79,295.44z"/> <path d="M414.31,366.88c-0.14-0.14-0.11-0.14,0.01,0.06C414.31,366.92,414.31,366.9,414.31,366.88z"/> <path d="M414.41,367.08c-0.05-0.05-0.07-0.09-0.09-0.14C414.32,367.01,414.33,367.08,414.41,367.08z"/> <path d="M695.27,458.56c-0.01-0.04-0.05-0.1-0.1-0.1L695.27,458.56z"/> <path d="M698.42,458.66c-2.24-2.75-4.78-4.88-8.04-6.31c-1.22-0.41-2.24,0.92-3.56,0.41c0.45-1.36-0.58-0.15,3.15-3.05
		c0.71-0.71,0.96-1.11,0.92-1.28c0.05-0.03,0.29-0.18,1.32-0.57c-0.9-0.11-1.32,0.37-1.32,0.54c0,0.01,0,0.01,0,0.01
		c-0.16-0.32-1.77,0.5-3.36,1.81c-1.34,1.1-2.75,1.93-4.48,1.93c-0.2,0-0.41,0.41-0.61,0.71c3.99,1.2,3.63,0.24,0.51,3.36
		c-2.35,2.35-2.37,0.98-6.92,3.26c-1.63,0.93-0.08,4.48,3.56,4.27c0.55,0,1.06-0.94,0.51-1.22c-1.58-1.19-2.46-0.72-2.34-1.93
		c2.91-0.73,3.78-0.44,6.41-2.54c0.46-0.46,1.66-0.97,1.66-0.94c-0.1,0.1-0.36,1.81-3.48,3.89c2.22,2.96,2.25,3.66,5.09,1.53
		c1.91,1.91,1.64,1.23,2.85,1.83c1.31-0.87,3.74-2.34,3.46-2.34c0.1-0.78,0.58-1.36,1.42-1.49c-0.01,0.02-0.01,0.04-0.01,0.07
		l0.1-0.1c-0.06,0-0.08,0.01-0.09,0.03c0-2.76,0.5-1.76-1.93-3.45c1.02,0.15,1.6,0.63,1.97,1.38c2.28,0.41,0.73,1.25-0.05,2.23
		c0.25-0.25,0.16,1.37-1.35,1.41c0.01-0.01,0.02-0.04,0.03-0.08l-0.1,0.1c0.04,0,0.06,0,0.07-0.02c-0.69,1.8-1.3,3.5-2,5.2
		c0.51,1.12,1.12,1.83,2.65,1.83C694.45,460.23,696.84,464.19,698.42,458.66z M692.32,456.29c-1.87-0.74-3.85-0.38-5.72,0.02
		C687.57,454.69,690.89,454.11,692.32,456.29z M692.72,460.39c-0.51-0.31-0.92-0.61-1.42-0.92c-1.17,1.17,1.8,1.56-1.42,3.46
		c-1.89-3.15-2.18-2.34-4.07-2.34c0.78-1.09,2.69-6.69,7.22-1.02C693.03,459.68,692.83,459.98,692.72,460.39z"/> <path d="M709.41,471.79c-3.77-3.05-4.07-3.56-3.66-5.6c1.22,0.51,0.81,2.44,2.54,2.95c-0.37-2.2-3.66-7.76-0.2-18.72
		c0.9-2.84,1.05-3.99,0.83-4.08l0.19-0.19c-0.37,0.12-0.34,0.08-0.22,0.19c-0.46-0.05-2.2,3.61-2.74,6.83
		c-0.61,3.66-0.83,7.42-1.63,10.99c-0.52,2.34-0.2,4.17,1.02,6.11c0.78,1.04,0.57,3.3,4.78,6.11c0.2,0.2,0.71,0,1.22,0
		C706.73,472.51,707.78,472.77,709.41,471.79z"/> <path d="M698.02,498.86c-0.61-0.1-1.22-0.2-1.63-0.31c-0.61-0.81,0.41-1.73-1.02-2.04c-0.41,1.93-2.14,3.36-2.04,5.8
		c1.88-0.81,0.47-1.15,6.61,1.02c0.81,0.92,1.12,2.34,2.85,2.54c-2.22-6.67,0-3.73-6.21-12.41
		C694.8,495.51,698.49,496.96,698.02,498.86z"/> <path d="M678.27,452.05c2.03-0.29-1.24,1.68,11.09-8.04c0.31-0.31,0.92-0.71,0.92-1.02c-0.2-1.53,1.12-1.93,1.93-2.75
		c1.84-1.84,3.97-3.31,3.97-3.66c0-3.21-10.06,8.34-15.57,12.52C679.69,449.8,678.78,450.62,678.27,452.05z"/> <path d="M660.87,482.27c2-2.39,0.63-0.4,2.95-6.21c2.79-6.98,8.74-6.81,11.8-8.34C663.84,466.24,659.75,478.32,660.87,482.27z"/> <path d="M716.23,474.84c-2.63-2.54-1.53-5.68-1.22-8.45c1.28-6.38-0.87-0.91-2.65,5.29c-0.89-0.78-1.77-1.58-2.56-2.36
		c-0.11,0.77-0.72,0.01,3.89,6.74c0.1,0.2,0.41,0.1,0.81,0.2c0.1-0.41,0.2-0.81,0.31-1.22c0.41,0.31,0.92,0.41,1.53,0.61
		C716.33,475.25,716.33,474.94,716.23,474.84z"/> <path d="M709.8,469.33c0-0.02,0.02-0.15,0.02-0.18C709.7,469.27,709.7,469.22,709.8,469.33z"/> <path d="M725.8,490.31c0.93,0.46-0.31,1.15,2.85-1.22c-0.71,2.34-2.75,4.27-1.02,6.82c1.32-0.31,1.63-1.22,1.83-2.14
		c0.81-2.75,1.42-5.6,0.81-8.85C728.65,486.95,727.22,488.58,725.8,490.31z"/> <path d="M728.54,455.61c3.18,10.87,0.17-10.78-4.99-13.53c0,0.61,0,0.92,0.1,1.22C725.8,447.26,727.29,451.34,728.54,455.61z"/> <path d="M707.58,506.49c-0.1,0.1,0.2,0.31,0.41,0.61c2.09-1.29,1.4-8.3-1.32-12.21C705.39,497.44,708,500.86,707.58,506.49z"/> <path d="M728.33,469.51c0-0.05,0.01-0.12,0.01-0.17c-0.03,0.13-0.04,0.21-0.04,0.26c-0.28,0.69-1.35,3.68-4.84,14.4
		c-0.1,0.31,0.1,0.71,0.2,1.32c2.85-4.56,4.58-12.55,4.67-15.71C728.38,469.5,728.43,469.3,728.33,469.51z"/> <path d="M722.34,470.87c0-1.02,0-1.73,0-3.15c-1.63,3.56-3.05,6.61-0.31,9.57C724.89,466.8,724.59,469.26,722.34,470.87z"/> <path d="M689.37,436.78c-3.49,1.6-10.12,6.73-10.58,9.06c-0.1,0.3,0.36,0.68,0.58,1.07C681.03,442.48,689.19,438.72,689.37,436.78z
		"/> <path d="M679.29,447.06l0.1-0.1C679.37,446.92,679.37,446.86,679.29,447.06z"/> <path d="M700.05,472.3c-2.24-2.85-2.95-5.6-3.36-8.85C694.57,466.92,696.15,471.97,700.05,472.3z"/> <path d="M704.22,470.77c-1.73-2.54-3.36-4.99-5.39-7.94C699.27,468.43,703.73,472.74,704.22,470.77z"/> <path d="M672.88,453.57c8.06-6.85,5.49-4.36,6.51-5.9c-3.54,1.77,2.28-1.88-8.85,6C671.46,454.39,672.17,454.18,672.88,453.57z"/> <path d="M666.06,455.1c-2.54,0-5.09,0.2-8.14,0.71C662.4,456.73,664.03,456.63,666.06,455.1z"/> <path d="M726.81,487.15c1.83-1.42,2.44-3.36,2.24-5.6C725.78,488.11,726.44,486.05,726.81,487.15z"/> <path d="M711.55,467.11c0-1.42,0.1-2.85,0.2-4.27c-0.92,0.92-0.61,2.24-1.02,3.36C710.63,466.6,710.74,467.21,711.55,467.11z"/> <path d="M717.55,473.01c0,1.32,0.81,2.34,1.53,3.56c0.31,0.41,0.61,0.71,1.12,0.1C719.39,475.35,718.98,473.82,717.55,473.01z"/> <path d="M720.4,441.87c0-1.73,0.31-2.85-1.32-4.38C719.69,439.23,719.59,440.35,720.4,441.87z"/> <path d="M715.32,476.88c0.61,0.81,0.92,1.12,1.42,1.83C716.64,477.39,716.23,477.18,715.32,476.88z"/> <path d="M650.6,453.47c-0.41,0-0.71,0.1-1.12,0.1c0,0.1,0,0.31,0,0.31C651.64,454.42,650.7,453.47,650.6,453.47z"/> <path d="M711.96,461.21c0,0.71-0.1,1.22-0.1,1.73C712.26,462.43,712.47,462.02,711.96,461.21z"/> <path d="M717.48,472.65c0.03,0.05,0.08,0.15,0.17,0.25C717.6,472.81,717.53,472.7,717.48,472.65z"/> <path d="M717.45,472.7c0-0.04,0-0.05,0-0.06C717.42,472.62,717.41,472.62,717.45,472.7z"/> <path d="M689.67,436.78c0.2-0.2,0-0.1-0.2,0.1C689.67,436.78,689.98,436.68,689.67,436.78z"/> <path d="M735.16,461.61c0.25-0.5,0.35-0.59-0.31-0.92C734.91,460.75,735.16,461.6,735.16,461.61z"/> <path d="M729.97,458.76c0.06,0.06,0.01,0.01-0.06-0.09C729.96,458.8,729.97,458.9,729.97,458.76z"/> <path d="M728.55,469.11C728.6,468.98,728.59,469.01,728.55,469.11L728.55,469.11z"/> <path d="M728.44,469.45c0.04-0.13,0.08-0.25,0.11-0.33c0,0.01-0.01,0.02-0.01,0.03C728.54,468.94,728.54,469.14,728.44,469.45z"/> <path d="M714.2,428.64c-0.1,0-0.1-0.1-0.1-0.2c-0.1,0-0.2,0-0.31,0c0.1,0.1,0.1,0.2,0.2,0.31
		C713.99,428.74,714.09,428.64,714.2,428.64z"/> <path d="M724.27,469.14c0.05-0.15,0.03-0.15-0.01-0.08C724.26,469.08,724.27,469.09,724.27,469.14z"/> <path d="M724.17,469.45c0-0.15,0.05-0.32,0.09-0.39C724.24,468.96,724.17,469.19,724.17,469.45z"/> <path d="M697.91,452.66c-0.13-0.13-0.31-0.18-0.31,0.2C697.74,452.99,697.91,453.04,697.91,452.66z"/> <path d="M679.39,447.57l0.1,0.1C679.5,447.46,679.5,447.5,679.39,447.57z"/> <path d="M679.9,447.26c-0.2-0.1-0.31-0.2-0.51-0.31C679.73,447.63,679.12,447.63,679.9,447.26z"/> <path d="M692.52,447.57c-0.13,0.27-0.06,0.18-0.31,0.28C692.47,447.89,692.41,447.92,692.52,447.57z"/> <path d="M504.06,447.57c0.41,0.71,0.81,1.42,1.42,2.34C505.9,448.49,505.29,447.88,504.06,447.57z"/> <path d="M481.68,434.24c0,0.1,0,0.2,0,0.31c2.15,0,1.83,0.15,1.83-0.51C482.9,434.04,482.29,434.14,481.68,434.24z"/> <path d="M500.91,443.09c-0.3-0.6-0.24-0.77-0.71-0.31C500.63,443,500.91,443.58,500.91,443.09z"/> <path d="M501.01,443.6c0,0.1,0.1,0.1,0.2,0.1c-0.2-0.1-0.31-0.2-0.41-0.31C500.81,443.5,500.81,443.6,501.01,443.6z"/> <path d="M330.26,348.97c-0.1-0.1-0.41-0.2-0.61-0.31c-0.92,1.63,0.61,2.34,1.32,3.66c-0.92,4.71,1.72,10.1,3.46,11.5
		c0.1,0.2,0.61,0,0.92-0.1c0.99-0.99-0.3-1.56-2.54-8.95C332.21,352.83,331.18,350.9,330.26,348.97z"/> <path d="M336.26,366.37c-0.59,0.59-0.08,2.75,3.77,3.05C336.77,365.57,337.06,365.58,336.26,366.37z"/> <path d="M340.33,371.76c0.31,1.12,1.02,1.83,2.24,2.04C342.78,372.27,341.86,371.35,340.33,371.76z"/> <path d="M329.04,345.51c-0.86,0.58-0.85,0.14-0.1,1.63C330,346.42,329.74,346.91,329.04,345.51z"/> <path d="M460.31,402.8c0.32-1.93-0.68-1.63-12.62-4.58c-1.6-0.39-3.57,0.61-1.93,1.42C461.1,403.57,458.95,403.14,460.31,402.8z"/> <path d="M473.23,407.78c-2.72-1.97-5.9-2.85-9.46-3.26c10.79,6,7.54,4.67,10.68,4.99C473.84,408.6,473.64,408.08,473.23,407.78z"/> <path d="M434.36,367.18c1.12,1.73,1.12,3.26,2.44,4.07C436.19,368.91,436.19,368.91,434.36,367.18z"/> <path d="M433.85,369.83c-0.1-0.68-0.02-1.47-0.73-2.07C433.03,368.61,433,369.35,433.85,369.83z"/> <path d="M433.12,367.76c0.01-0.05,0.01-0.11,0.02-0.17C433.03,367.69,433,367.68,433.12,367.76z"/> <path d="M434.56,372.07l0.1-0.1C434.52,371.87,434.46,371.69,434.56,372.07z"/> <path d="M433.85,369.93c0.09,0.66,0.02,1.32,0.66,1.9C434.41,371.16,434.57,370.39,433.85,369.93z"/> <path d="M431.71,374.91c-0.1-0.41-0.2-0.92-0.2-1.42C431.1,374.1,431.2,374.61,431.71,374.91z"/> <path d="M432.63,377.56c0.1,0,0.2-0.1,0.31-0.1c-0.26-0.39-0.42-0.64-0.51-0.81C432.52,376.86,432.63,377.2,432.63,377.56z"/> <path d="M432.43,376.65C432.32,376.41,432.25,376.34,432.43,376.65L432.43,376.65z"/> <path d="M434.87,372.57c-0.1-0.2-0.2-0.41-0.41-0.51C434.56,372.27,434.77,372.47,434.87,372.57z"/> <path d="M436.7,371.35c0.06,0.06,0.31,0.9,0.31,0.92C437.25,371.77,437.36,371.68,436.7,371.35z"/> <path d="M433.34,396.89c0.44,0.22,0.35,0.57,0.92,0C433.68,396.61,433.6,396.63,433.34,396.89z"/> <path d="M431.61,375.02c0.05,0.01,0.08,0.03,0.12,0.05C431.7,374.89,431.76,374.87,431.61,375.02z"/> <path d="M431.73,375.07c0.07,0.56,0.04,1.1,0.69,1.37C432.23,375.96,432.3,375.32,431.73,375.07z"/> <path d="M573.06,454.59c0.41,0,0.81-0.51,1.73-1.12c-2.85-1.63-5.39-1.42-7.73-1.83C565.31,451.64,569.55,454.59,573.06,454.59z"/> <path d="M601.96,431.29c2.04,1.63,4.07,1.63,6.51,1.02C606.03,431.09,604.81,430.88,601.96,431.29z"/> <path d="M611.32,432.82c2.14,1.42,2.14,1.42,3.36,0.1C613.56,432.61,612.54,432.1,611.32,432.82z"/> <path d="M560.34,450.32c0.61,0.61,1.22,1.12,2.14,0.51C561.46,450.01,561.46,450.01,560.34,450.32z"/> <path d="M556.57,448.79c0,0.36,0.49,0.16,0.81,0C556.86,448.53,556.85,448.51,556.57,448.79z"/> <path d="M696.39,561.74c-0.51-0.61-0.92-1.12-1.42-1.83C694.86,561.44,694.86,561.44,696.39,561.74z"/> <path d="M697.91,563.17c-0.1,0-0.2-0.1-0.31-0.1c-0.1,0.1-0.2,0.1-0.2,0.2c-0.1,0,0.1,0.1,0.1,0.2
		C697.61,563.37,697.81,563.27,697.91,563.17z"/> <path d="M528.08,90.6c-6.18-4.86-6.12-9.25-10.79-14.96c1.62,6.47,5.45,13.97,11.09,16.79C528.51,91.94,529.18,91.33,528.08,90.6z"/> <path d="M490.63,36.67c-0.92-1.02-2.04-0.92-3.05-0.92c-1.32,0-1.63-1.32-2.54-1.53c-1.02,0.41-1.83,0.81-2.85,1.32
		c0.71,0.41,1.42,0.81,2.14,1.22c1.02,1.63,0.2,3.87,1.73,5.49c1.83-1.42-0.31-3.36,0.71-4.88
		C487.99,36.67,489.41,37.69,490.63,36.67z"/> <path d="M481.37,53.66c1.81,11.03,1.71,9.53,2.65,10.28c0.2-0.92,0.51-1.53,0.51-2.14c-0.2-3.36-1.02-6.61-2.04-9.77
		c0-0.1-0.41-0.1-0.81-0.31C481.58,52.44,481.27,53.05,481.37,53.66z"/> <path d="M471.5,35.96c0.31,0,0.51-0.2,1.22-0.61c-5.73-1.15-7.87,0.95-9.26-1.83C464.65,37.67,454.76,37.82,471.5,35.96z"/> <path d="M547.72,74.01c0.29-2.34-4.87-0.23-6.61,1.63c-0.2,0.31-0.31,0.71-0.51,1.12c0.31,0.2,0.41,0.31,0.41,0.31
		C548.4,74.11,547.16,74.57,547.72,74.01z"/> <path d="M575.7,79.92c1.73,0.51,2.95,1.32,5.19,0.2C580.04,79.61,578.26,78,575.7,79.92z"/> <path d="M512.71,68.42c0.92,1.22,1.83,2.24,2.75,3.56C515.66,69.54,515.26,69.03,512.71,68.42z"/> <path d="M539.48,63.53c-1.22-1.22-1.83-1.02-2.95,1.02C537.85,64.96,538.76,64.75,539.48,63.53z"/> <path d="M477.81,62.31c-0.04-0.05-0.07-0.1-0.12-0.15C477.69,62.5,477.7,62.42,477.81,62.31z"/> <path d="M477.69,62.16c-0.08-1.81-1.05-3.28-2.12-4.73C475.76,59.2,476.46,60.78,477.69,62.16z"/> <path d="M536.22,77.07c2.21,0.92,2.76-1.27,2.04-1.63c-0.81-0.41-1.32,0.1-1.73,0.71C536.32,76.35,536.32,76.76,536.22,77.07z"/> <path d="M471.4,25.88c0.92,1.22,0.71,2.65,2.14,3.26C473.03,26.7,473.03,26.7,471.4,25.88z"/> <path d="M533.68,64.65c-0.41,0.1-1.02,0-1.22,0.31c-0.43,0.32-0.99,1.73-0.1,1.73C533.11,66.6,534.46,65.82,533.68,64.65z"/> <path d="M506.51,63.53c0.41,0.51,0.71,0.92,1.22,1.63C507.93,63.94,507.73,63.53,506.51,63.53z"/> <path d="M470.59,54.37c-0.19-0.77-0.58-1.44-1.31-1.94C469.25,53.33,469.73,53.91,470.59,54.37z"/> <path d="M469.26,52.24l-0.1,0.1C469.36,52.49,469.23,52.46,469.26,52.24z"/> <path d="M467.52,49.94c-0.39-0.58-0.84-1.22-1.31-1.87C466.21,48.92,466.58,49.67,467.52,49.94z"/> <path d="M467.63,50.1l0.1-0.1C467.55,49.97,467.42,49.84,467.63,50.1z"/> <path d="M475.67,57.33c-0.24-0.34-0.44-0.72-0.66-1.08C475.05,56.66,475.11,57.09,475.67,57.33z"/> <path d="M474.86,56c0.15,0.17,0.21,0.5,0.1-0.1L474.86,56z"/> <path d="M474.34,31c-0.04-0.05-0.11-0.14-0.19-0.23C474.24,30.95,474.33,31.12,474.34,31z"/> <path d="M474.35,30.97c0,0.02,0,0.02-0.01,0.03C474.39,31.06,474.41,31.08,474.35,30.97z"/> <path d="M474.25,30.66c-0.05-0.01-0.08-0.03-0.12-0.04C474.16,30.79,474.11,30.81,474.25,30.66z"/> <path d="M473.43,29.24c0,0.58,0.01,1.15,0.69,1.38C474.06,30.06,474.09,29.52,473.43,29.24z"/> <path d="M467.74,50.1c-0.09,0.58,0.01,1.06,0.62,1.37C468.42,50.93,468.3,50.47,467.74,50.1z"/> <path d="M464.79,46.54c-0.65-1.62-0.6-1.42-0.71-1.42C464.76,46.82,464.45,46.71,464.79,46.54z"/> <path d="M478.01,63.33c0.25-0.5,0.35-0.59-0.31-0.92C477.76,62.47,478.01,63.32,478.01,63.33z"/> <path d="M464.68,46.64c0.2,0.2,0.51,0.41,0.81,0.61C464.67,46.42,464.82,46.51,464.68,46.64z"/> <path d="M466.31,47.96c-0.31-0.31-0.51-0.51-0.92-0.61C465.9,47.69,466.09,48.18,466.31,47.96z"/> <path d="M468.46,51.64c-0.02-0.02-0.04-0.04-0.06-0.06l0.05-0.05c-0.04-0.02-0.05-0.04-0.09-0.05
		C468.36,51.64,468.08,51.58,468.46,51.64z"/> <path d="M468.46,51.64c0.24,0.24,0.44,0.43,0.7,0.6C469.07,51.97,468.9,51.66,468.46,51.64z"/> <path d="M464.17,45.01h-0.2C464.23,45.14,464.17,45.15,464.17,45.01z"/> <path d="M472.11,56.71c-0.2-0.2-0.37-0.93-0.81-1.53C472,56.95,471.84,56.71,472.11,56.71z"/> <path d="M470.48,54.48c0.31,0.2,0.51,0.51,0.92,0.61C470.9,54.75,470.7,54.26,470.48,54.48z"/> <path d="M703.21,84.09c0.03-0.02,0.09-0.09,0.1-0.1L703.21,84.09z"/> <path d="M701.48,93.35c0.28-2.8-0.11-5.3,2.14-6.92c1.12-0.81,1.93-2.04,2.34-3.56c-2.04-2.34-4.34-4.42-6.92-6.11
		c-1.26-0.82-1.82-0.28-4.88,0c2.34-3.28,5.52-3.48,5.29-5.09c-4.75,2.85-6,4.07-9.16,4.48c-0.1,0-0.1,0.31-0.2,0.51
		c0.81,0.61,2.24-0.31,2.85,1.22c-7.47,6.22-3.46,2.4-9.16,4.88c-2.11,0.92-0.49,4.68,3.05,4.68c0.41,0,0.71-0.51,1.22-0.92
		c-6.97-4.65-1.89-0.34,3.97-5.09c0.48-0.39,1.14-0.67,1.72-0.97c-0.76,1.88-2.41,3.16-4.16,4.53c1.42,0.61,1.53,2.44,3.36,2.54
		c0.61-0.31,1.22-0.71,2.04-1.22c0.71,1.02,1.53,1.73,3.05,1.93c1.77-1.55,5.47-4.38,5.19-4.38c0-1.41-0.03-1.31,0.1-1.22l-0.1-0.1
		c1.96,1.38-0.11,0.13-4.07,8.04C698.67,92,700.17,93.24,701.48,93.35z M700.75,80.93c-3.24-1.57-3.36-1.62-6.69-0.69
		C696.66,77.86,698.53,78.71,700.75,80.93z M698.22,83.17c1.13,2.82,0.62,2.9-0.81,3.77c-2.29-3.28-1.67-2.86-4.17-2.54
		c0.6-2.4,3.62-4.71,5.7-2.54c0.6,0.62,1.22,1.12,2.14,1.93C699.44,84.8,699.34,82.87,698.22,83.17z M701.86,81.94
		c0.32,0.15,0.61,0.3,0.9,0.44C702.42,82.32,702.1,82.21,701.86,81.94z"/> <path d="M716.84,71.27l-0.1-0.1C716.67,71.34,716.69,71.33,716.84,71.27z"/> <path d="M716.03,96.2c-0.61-1.12-2.14-1.42-2.04-2.85c-1.53-0.51-1.63-1.63-1.32-3.36c0.92,1.22,1.42,2.24,1.32,3.36
		c4.94,1.24-4.61,0.3,2.71-22.03c-3.08,0.96-4.88,15.82-5.35,18.47c-0.55,3.03,0.92,3.92,1.63,6.11c0.73,2.23,2.34,3.77,4.17,5.19
		c0.31,0.2,0.81,0.1,1.83,0.2C714.12,97.96,714.65,97.57,716.03,96.2z"/> <path d="M704.63,120.42c-1.19-1.49-1.11-2.86-2.24-2.44c0,0.61,0,1.32,0,2.04c1.32,0.31,1.63,1.32,2.04,2.24
		c-0.61,1.12-1.22,0.51-1.93,0.1c0-0.81,0-1.63-0.1-2.34c-1.31,1.22-3.52,4.8-3.05,6.21c1.54-0.92,1.14-0.72,6.31,1.22
		c1.42,1.93,1.42,1.93,3.05,2.65c-0.31-1.02-0.91-1.93-1.02-2.95C707.4,124.59,706.36,122.35,704.63,120.42z"/> <path d="M667.39,104.44c0,0.1,0.1,0.2,0.31,0.51c1.49-1.49,0.47,0.05,2.04-3.97c3.73-9.6,11-8.56,12.41-9.97
		C675.38,89.8,668.5,94.46,667.39,104.44z"/> <path d="M686.11,75.74c2.39-0.96,6.48-5.19,11.19-7.94c0.31-0.2,0.81-0.51,0.81-0.71c0.05-2.14,2.04-2.75,3.26-3.97
		c0.82-0.82,2.39-2.07,3.26-2.65c-1.15-1.02-0.73-1.09-13.43,9.97C685.47,75.44,686.33,74.62,686.11,75.74z"/> <path d="M716.94,94.06l-0.1,0.1C716.88,94.2,716.89,94.12,716.94,94.06z"/> <path d="M732,115.43c1.96,0.33,1.38-0.17,2.65-1.02c0.2-0.1,0.51-0.1,0.92-0.2c-2.34,3.87-2.34,3.87-1.83,7.12
		c2.62-1.05,3.57-7.63,2.75-10.79C735.06,112.17,733.63,113.7,732,115.43z"/> <path d="M731.49,67.6c2.82,7.33,2.49,5.6,5.6,16.48c0-7.91-2.38-12-4.48-16.08C732.41,67.61,732.11,67.09,731.49,67.6z"/> <path d="M713.38,130.9c0,2.08,4.41-3.57-0.71-11.8C712.06,123.16,713.79,127.03,713.38,130.9z"/> <path d="M735.57,94.16c0,0.02,0,0.03,0,0.05C735.69,93.92,735.71,93.87,735.57,94.16z"/> <path d="M735.57,94.21c-0.75,1.74-5.53,12.41-5.19,15.82c1.89-2.83,0.35,0.76,5.09-13.84C735.65,95.63,735.58,94.88,735.57,94.21z"/> <path d="M729.26,95.69c0.1-0.81,0.2-1.63,0.41-3.05c-1.83,2.44-2.14,4.68-2.34,7.02c0.51,0.92,1.02,1.63,1.53,2.54
		c1.16-3.48,1.43-5.17,1.63-6.72C730.17,95.59,729.76,95.69,729.26,95.69z"/> <path d="M704.02,94.77c0.79,1.14,1.02,1.32,3.05,1.42c-2.34-2.44-2.44-5.39-3.46-8.45C702.49,90.91,702.55,92.67,704.02,94.77z"/> <path d="M687.23,70.25h0.2C687.28,70.23,687.29,70.14,687.23,70.25z"/> <path d="M687.26,70.19c1.07-2.72,3.58-3.77,8.42-7.67C702.84,56.73,682.89,68.73,687.26,70.19z"/> <path d="M697.2,60.79c0,0.22-0.09,0.15,0.1,0.1L697.2,60.79z"/> <path d="M710.53,95.48c0.2,0.1,0.51-0.2,0.92-0.41c-4.16-6.01-0.89-0.32-5.09-8.24C705.6,90.34,708.66,94.74,710.53,95.48z"/> <path d="M686.31,72.28c0.27-0.14,0.17-0.55,0.31-0.41c0.14-0.25,0.15-0.23-0.02-0.14c0.01-0.02,0.01-0.04,0.02-0.06
		c-2.55,0.13-5.52,3.57-8.34,4.78C678.93,79.06,682.56,75.05,686.31,72.28z"/> <path d="M674.61,78.29c-3.46-0.31-6.11-0.1-9.57,0.1C668.51,79.51,671.25,79.81,674.61,78.29z"/> <path d="M719.59,86.33c-1.73,3.66-1.73,3.66-1.12,6.31C718.98,89.89,719.28,88.06,719.59,86.33z"/> <path d="M727.32,62.52c0.51,2.24,0.81,3.87,1.22,5.6C728.65,64.65,728.54,64.35,727.32,62.52z"/> <path d="M735.57,107.8c-1.32,1.53-1.32,1.53-2.44,4.07C734.95,110.75,734.95,110.75,735.57,107.8z"/> <path d="M724.68,98.54c0.2,1.32,0.71,2.44,2.04,3.56C726.1,99.66,726.1,99.66,724.68,98.54z"/> <path d="M657.01,76.46c1.7,0.68,1.63,0.34,1.63-0.2c-0.51-0.2-1.12-0.41-1.83-0.61C656.91,76.15,656.91,76.46,657.01,76.46z"/> <path d="M687.41,70.38c-0.25,0.43-0.45,0.85-0.68,1.29C688.76,70.68,688.9,71.01,687.41,70.38z"/> <path d="M687.43,70.35h-0.1C687.45,70.39,687.39,70.39,687.43,70.35z"/> <path d="M742.08,85.41c0.1,0.51,0.1,1.02,0.2,1.53C742.69,86.33,742.89,85.82,742.08,85.41z"/> <path d="M705.75,76.86c0-0.99,0.31-0.92-0.1-0.92C705.65,76.93,705.34,76.86,705.75,76.86z"/> <path d="M735.67,107.59c0,0.08,0,0.19,0,0.31C735.77,107.59,735.87,107.29,735.67,107.59z"/> <path d="M731.19,93.96c-0.47,0.38-0.59,0.93-0.6,1.49C731.27,95.2,731.19,94.54,731.19,93.96z"/> <path d="M730.58,95.59c0-0.05,0.01-0.09,0.01-0.14C730.44,95.48,730.48,95.48,730.58,95.59z"/> <path d="M724.78,97.83c-0.1-0.1-0.31-0.1-0.41-0.2c0,0.67,0.18,0.37,0.41,0.81C724.68,98.23,724.78,98.03,724.78,97.83z"/> <path d="M745.23,97.62l0.1,0.31C745.46,97.54,745.5,97.62,745.23,97.62z"/> <path d="M698.12,60.48c-0.33,0-0.04-0.26-0.71,0.41C698.1,60.89,697.98,60.61,698.12,60.48z"/> <path d="M716.94,71.16c0-0.31,0.1-0.51,0.1-0.71C716.94,70.66,716.94,70.96,716.94,71.16z"/> <path d="M723.66,103.02c-0.03-0.03-0.07-0.07-0.1-0.1C723.56,102.91,723.56,103.02,723.66,103.02z"/> <path d="M723.35,102.71c0.07,0.07,0.13,0.13,0.2,0.2C723.46,102.81,723.46,102.71,723.35,102.71z"/> <path d="M722.54,102.1c0.76,0.76,0.71,0.61,0.81,0.51C723.15,102.4,722.95,102.2,722.54,102.1z"/> <path d="M721.72,99.86c0.51,0.2,0.81,0.81,1.73,0.31c-1.78-2.67-2.82-1.66-0.92-11.19c-1.73,2.24-2.24,4.88-3.05,7.53
		c-2.93-2.6-2.65-2.42-2.65-2.14c0.81,2.44,2.19,4.44,3.66,6.51c0.2,0.28,0.82,0.31,1.24,0.39c-0.1,0.1,0.74,0.68,0.91,0.73
		C721.8,101.16,721.29,100.71,721.72,99.86z"/> <path d="M699.54,71.78l0.2-0.1C699.36,71.67,699.41,71.65,699.54,71.78z"/> <path d="M722.23,53.66c0.16-0.16,0.34-0.24,0-0.41c0,0-0.1,0.1-0.2,0.2C722.13,53.56,722.13,53.66,722.23,53.66z"/> <path d="M716.83,93.98c-0.02-0.04-0.05-0.08-0.09-0.13C716.34,93.86,716.62,93.87,716.83,93.98z"/> <path d="M716.94,94.06c-0.03-0.03-0.07-0.06-0.11-0.08C716.86,94.03,716.89,94.06,716.94,94.06z"/> <path d="M433.85,198.87c-4.59-1.53-2.43-1.27-6.61-2.04c0.51,0.81,0.61,1.12,0.81,1.12c4.42,2.42,9.24,4.33,14.25,3.97
		c0.31,0,0.61-0.51,0.92-0.81C441.03,198.93,441.27,201.34,433.85,198.87z"/> <path d="M458.07,179.23c-1.99,5.98-1.7,6.53-0.51,7.12c2.23,0,1.76-5.63,1.32-7.84C458.48,178.83,458.07,179.03,458.07,179.23z"/> <path d="M424.39,194.19c1.42,1.22,1.42,1.22,2.75,1.02C426.52,194.19,425.61,193.99,424.39,194.19z"/> <path d="M413.09,184.93c-0.46,0-0.16,1.5,0.81,0.92c0.1-0.1,0.1-0.41,0.31-0.81C413.8,184.93,413.4,184.83,413.09,184.93z"/> <path d="M420.32,190.53c-1.33-0.44-1.61,1.28,0.71,0.81C420.72,191.04,420.52,190.63,420.32,190.53z"/> <path d="M457.97,173.13c0,0.6-0.6,0.21-0.1,1.22C458.11,173.85,458.35,173.9,457.97,173.13z"/> <path d="M701.07,186.76c0.1,0.1,0.2,0.1,0.31,0.1C701.37,186,700.7,186.76,701.07,186.76z"/> <path d="M668.51,192.05c-1.93-1.73-2.85-1.83-5.29-0.92C666.39,193.52,668.26,192.15,668.51,192.05z"/> <path d="M654.46,188.8c-0.49,0-0.63-0.22-0.41,0C654.16,188.9,654.26,188.8,654.46,188.8z"/> <path d="M658.84,189.71c0.1-0.1,0.2-0.1,0.2-0.1c-0.35-0.35-0.23-0.27-0.41-0.1C658.74,189.61,658.74,189.61,658.84,189.71z"/> </g> </svg> 