<?xml version="1.0" encoding="utf-8"?> <!-- Generator: Adobe Illustrator 23.0.1, SVG Export Plug-In . SVG Version: 6.00 Build 0)  --> <svg version="1.2" baseProfile="tiny" id="Layer_1" xmlns="http://www.w3.org/2000/svg" xmlns:xlink="http://www.w3.org/1999/xlink" x="0px" y="0px" viewBox="0 0 900 600" xml:space="preserve"> <g> <path d="M610.95,310.16l0.1-0.1C610.73,310.05,610.83,310,610.95,310.16z"/> <path d="M652.09,352.52l-0.1,0.1C652,352.61,652.01,352.63,652.09,352.52z"/> <path d="M772.47,516.93c-22.91,0.4-80.44,1.93-134.8,3.44C709.85,519.15,749.87,518.11,772.47,516.93z"/> <path d="M844.28,576.33c0.71-2.14-1.52-6.09-2.76-8.8c-3.22-7.01-2.06-5.43-10.64-11.15c-8.21-15.5-13.27-18.85-19.96-35
		c-1.09-2.63-2.71-1.91-5.12-2.35c-2.36-0.43-2.6-3.38-1.23-4.81c2.56-2.66-0.93-4.25-0.61-8.49c0.01-0.11,3.76-33.13,3.07-55.77
		c-0.16-5.34-1.33-10.58-0.51-12.08c0.85-1.27-3.81-11.69-6.14-14.84c-5.37-7.29-4.61-9.73-5.83-14.22
		c-5.15-18.87-2.41-8.58-6.96-20.77c-11.98-32.1-53.03-63.73-55.77-67.03c1.38-4.84-12.5-27.35-14.63-30.91
		c-6.21-10.34-12.01-11.83-9.41-17.81c7.96,3.98,21.55,11.4,31.11,12.69c3.24,0.44,15.05,3.11,16.89,0
		c14.23-24.18,3.45-26.51,5.63-42.78c1.41-10.5-1.61-22.3-1.23-27.32c0.25-3.36-0.34-13.46-0.82-13.92
		c-1.76-1.7-3.59-15.9-3.48-22.31c0.08-4.58-2.21-12.77-3.79-17.09c-0.71-1.95-1.01-4.23-3.58-4.91
		c-0.91-0.24-3.96-8.25-16.17-10.13c-8.91-1.37-11.68-4.41-25.58-11.36c-2.05-1.02-4.21-1.72-6.24-2.87
		c-8.78-4.92-10.61-5.69-10.64-8.8c-0.06-5.18-0.36-12.92,2.46-18.63c0.65-1.31,0.73-2.96,1.13-4.4c2.67-9.81,2.01-9.01,4.4-7.57
		c2.05-1.84,3.83-3.59,4.4-6.45c0.25-1.25,2.94-4.07,3.27-5.94c0.69-3.83,0.22-7.76-2.76-10.75c-1.84-0.51-2.05,1.74-3.79,1.33
		c0-15.21,1.4-28.85-6.55-36.33c-5.34-5.02-7.2-5.14-6.14-7.78c0.5-1.23-0.63-5.21-1.33-6.14c-1.67-2.22-3.89-3.66-6.65-3.99
		c-15.33-1.84-15.35,8.62-17.91,7.98c-3.28-1.21-8.78,2.16-11.97,3.68c-5.34,2.56-6.65,7.58-7.78,9.01
		c-2.03,2.57-2.57,5.73-2.97,8.8c-0.53,4.09-1.33,8.19-1.64,12.38c-1.01,13.95,1.01,10.99-2.15,17.29
		c-3.11,3.11,0.91,9.16,2.35,13.82c1.3,4.2,2.53,8.53,5.53,9.62c1.01,2.02,2.4,8.79,6.24,14.94c0.81,1.3,0.61,0.66,0.61,10.23
		c-5.39,7.79-11.28,9.13-17.7,12.28c-11.99,5.88-16.08,9.93-27.32,11.77c-9.84,1.61-13.72,9.57-15.04,10.03
		c-2.95,1.03-5.38,12.9-5.94,15.96c-1.67,9.23,0.56,8.33-2.56,23.33c-1.2,5.75-3.2,10.29-4.81,28.45
		c-0.24,2.72-1.81,42.88-1.13,46.67c1.01,3.03,1.71,0.52,2.76,4.81c1.54,6.29,3.34,14.92,6.45,13.41c1.93-0.94,3.89-0.56,5.94-0.61
		c9.17-0.23,16.16-4.43,16.89-2.97c-3.36,2.31-5.5,2.59-8.39,8.7c1.02,0.41,1.74,0.82,2.56,1.13c2.95-2.26,4.1-6.18,6.65-8.19
		c3.14,6.92,6.31,11.59,14.02,13.41c7,1.65,10.78,7.57,53.01,7.57c6.45,0,12.58-1.86,18.11-5.01c9.25-5.28,17.49-5.86,20.98-13.82
		c1.8-1.8,13.15,21.69,15.25,25.79c-0.52,0.26-3.02,1.18-3.27,1.43c-1.33,1.84-3.59,2.45-5.42,3.38
		c-22.84,11.57-28.26,19.4-38.68,30.6c0.58,2.01,4.73-2.6,6.14-4.2c12.25-13.89,26.59-20.44,37.25-26.51
		c1.56-0.89,3.17-1.43,5.32-1.13c5.59,6.99,7.78,7.81,20.77,22.82c27.69,31.99,37.32,41.74,42.06,71.84
		c0.41,2.6,0.85,1.84,3.27,5.83c5.42,8.92,5.56,9.32,5.94,11.77c1.03,6.64,2.86,17.14,3.07,23.03c0.13,3.47-1.99,48.76-3.89,54.44
		c-3.68,1.23-9.93,1.54-14.84,0.92c-0.73-3.65,0.17-10.35-4.71-21.29c-2.5-5.59-0.65-6.3-2.66-10.54
		c-1.07-2.26-10.31-18.38-11.56-20.57c-6.24-9.36-3.27-6.31-3.68-31.31c0.61-0.1,1.13-0.1,1.74-0.2c0-5.54-0.06-5.4-21.29-17.81
		c-2.83-1.66-8.23-4.78-11.36-6.45c-0.31-3.89-2.43-6.87-4.3-10.03c-0.3-0.51-0.92-0.82-1.54-1.33c-0.92,2.05,0.17,2.59,3.38,9.01
		c-0.51,0.72-0.92,0.31-1.33,0.1c-3.79-2.25-7.62-4.56-10.95-7.47c-3.67-3.21-2.53-0.79-5.12-2.87
		c-27.38-22-28.31-34.19-34.59-37.86c-1.54-0.9-3.27-1.33-4.2-3.07c-0.51-0.82-1.54-0.92-2.46-0.82
		c-22.06,2.52-16.35,2.06-24.87,8.39c-4-11.4-10.13-11.87-13.92-16.07c-8.15-9.02-25.22-18.48-36.02-17.09
		c-1.64,0.21-3.27,0.1-4.91,0.1c-0.51,0-1.13-0.31-1.94-0.51c0.61-2.46,0.92-4.91,2.97-6.75c-0.2-0.31-0.6-0.81-0.2-1.64
		c3.23-6.66-1.18-6.13,18.31-5.43c-2.12-2.26-9.52-0.99-15.24-1.63c1.15-5.75,2.39-6,4.91-10.54c-1.33-0.31-2.44,0.11-3.27,1.23
		c-2.22,2.99-4.21,6.03-5.42,9.52c-12.28,35.36-1.99,6.5-35.1,69.18c-11.97,22.67-7.46,33.92-15.96,42.57
		c-8.87,9.03-20.36,22.53-23.13,34.59c-20.07,87.46-17.48,66.92-20.36,64.27c-4.09-2.17-7.85,0.08-11.56,2.87
		c-0.62,0.31-0.33,0.92,0,1.74c-1.42,0.47-1.73,0.1-3.58,2.35c-10.18,12.4-10.03,12.94-12.28,14.02c-0.82,2.97-0.51,5.73,0.2,8.39
		c-5.46,7.1-5.87,7.95-2.97,8.6c1.66,0,0.04,1.13,7.88,2.15c0.82,0,1.84-0.41,2.56,0.61c-0.92,2.56-2.24,4.92-4.5,6.75
		c-5.86,4.74-5.54,8.39-6.34,8.39c-4.05,0.37-4.96,16.22-5.42,20.47c0,1.04,0.48,2.71,1.74,3.07c1.36,0.39,1.49-0.91,3.07-1.43
		c5.53,0.86,13.25,1.74,27.94,1.74c4.55,0,9.14,0.42,10.44-3.79c0.72-0.1,1.33-0.1,2.15-0.2c0-0.72,0.29-1.53,0-2.15
		c-1.77-3.73-0.67-7.25,0.41-16.68c5.73-0.92,9.31-4.91,13.3-8.29c-1.8-6.29-0.81-18.4-0.92-20.57c-0.51-10.28,2.65-9.66,0.51-13
		c-0.6-0.93-1.23-0.92-2.46-0.2c0.92,2.87,1.01,2.96,0.31,4.71c-2.26,5.57-0.51,12.99-0.51,16.17c0,3.99-1.27,9.33,0.1,12.08
		c-7.82,7.26-11.33,5.61-12.28,7.27c-3.24,19.41-0.23,17.16-2.87,19.14c-1.84,1.64-3.99,2.5-6.55,2.35
		c-2.77-0.16-5.53-0.1-8.29-0.82c-2.35-3.58-5.01-6.96-8.8-8.9c-3.37,0.52-7.63,0.95-10.85,5.32c-0.52,0.71-0.41,1.13,0.92,2.15
		c3.18-2.5,5.73-5.32,9.82-5.32c2.35,1.84,4.4,3.99,6.45,6.45c-0.51,0.31-0.82,0.61-1.13,0.61c-13.27,0.15-16.05,0.67-18.93-1.02
		c-1.77-8.68,1.22-16.81,2.35-17.4c1.6-0.83,3.03-4.06,4.71-4.81c3.88-1.74,8.46-12.85,9.62-13.82c1.75-1.46,2.12-2.84,4.2-11.15
		c1.02,2.05,2.25,2.46,3.99,2.25c8.2-0.51,15.17,2.07,17.6,0.61c0-1.64,0-1.64-0.51-1.94c-7.21-3.28-10.89-2.45-17.09-3.07
		c2.47-3.57,16.91,0.11,19.03,0.31c0.84,0.28,3.74-2.62-5.12-4.91c-10.58-2.73-13.22,0.17-14.22-1.64c0.2-0.31,0.41-0.92,0.72-1.02
		c1.94-0.51,3.86-0.87,5.83,0.1c3.13,1.54,2.73-2.93,4.61-4.3c3.58-0.61,7.16-1.33,11.05-0.61c-0.64,4.17-1.27,1.64,0.51,6.55
		c1.02,0.31,1.74,1.23,2.87,0.72c4.79-8.77-1.09-0.2,3.99-14.22c0.3-0.82,0.82-1.54,1.13-2.15c0.05-0.01,56.84-1.67,117.6-3.36
		c-34.72,0.59-76.89,1.22-128.14,1.92c-4.91,0.07-5.14-0.86-7.16-3.17c0-0.61,0.51-1.02,0.92-0.61c2.78,2.78-5.5,2.94,189.94-3.27
		c14.36-0.46,99.07-1.7,108.58-3.38c0.65-0.87,1.78-1.59,2.15-0.31c-2.35,2.35-4.24,3.96-31.49,5.38c6-0.1,9.63-0.13,10.2-0.06
		c0.93,4.33,0.81,3.74-0.1,4.2c-3.39,0.89-2.79,2.57-2.97,10.03c-0.02,0.82,0.1,1.64-0.2,2.25c-0.61,1.02-0.62,2.15-0.72,3.27
		c-0.47,5.83-2.8,9.09-2.97,10.54c-0.66,5.6-3.14,5.06-1.33,7.88c1.56,2.44,3.75,3.25,10.64,6.34c5.39,2.42,7.32,1.07,8.7,1.54
		c1.87,4.1,2.35,4.72,2.05,6.14c-1.58,7.4,7.29,13.95,13.82,16.37c13.51,5.02,33.2,1.3,35-3.07
		C843.66,580.53,843.56,578.48,844.28,576.33z M637.25,76.32c0.26,0.26,0.25,0.16,0,0.41C637.1,76.58,636.88,76.69,637.25,76.32z
		 M637.35,85.83c-2.25-2.15-2.25-4.4-1.64-6.86C638.41,79.71,637.52,82.79,637.35,85.83z M710.11,141.2c1.8,0,5.07,1.57,15.96,5.42
		c5.95,2.11,7.58,0.7,11.46,3.58c1.94,1.44,4.2,2.56,5.83,4.3c4.61,4.91,7.81,10.64,8.39,17.5c0.55,6.42,2.07,9.66,3.17,16.78
		c4.79,30.79,4.58,56.6,4.4,57.51c-1.23,3.99-0.05,7.99,0.41,11.97c0.66,5.67,0.09,6.18-1.33,16.58c-0.38,2.76-3.64,7.45-4.81,8.9
		c-24.41-2.22-16.71-3.19-24.36-5.94c-6.4-2.29-30.61-14.33-32.03-16.48c-2.86-4.33-8.49-7.57-9.11-8.49
		c-1.36-1.7-3.7-1.67-6.24-2.15c-8.65-1.64-8.5-3.27-9.62-2.15c-0.51,1.43,1.54,1.54,1.43,2.97c-3.99,0.1-7.98,0.51-11.97-0.1
		c0.36-3.94,6.5-0.9,7.06-5.63c0.68-3.42-0.22-2.99,2.25,1.13c1.33-2.25,1.64-4.71,1.43-10.85c2.66-1.54,5.42-2.97,7.98-4.81
		c2.56-1.84,5.53-2.87,8.19-4.5c0.42-3.34,1.57-4.28-0.41-6.65c1.23-1.13,2.25-2.46,2.25-4.4c1.23,0.92,1.24,2.05,1.02,2.97
		c-2.05,8.89-2.58,7.51-2.87,8.08c-0.2,4.81,2,8.43,5.73,11.26c4.88,3.7,10.04,6.81,15.96,8.6c8.82,2.66,9.94,4.35,18.52,5.42
		c2.24,0.56,0.45-0.98,7.78,0c1.64,0.22,3.19,0.66,4.81-0.1c1.28-0.6,3.96,0.34,6.96-0.82c-0.2-0.41-0.31-0.72-0.41-0.72
		c-14.65-1.25-14.38-0.88-14.84-1.84c-5.69-11.96-10.41-22.66-8.19-42.57c1.29-11.51-0.2-5.79-0.2-13.82
		c-0.61-0.72-1.54-1.64-2.35-2.56c-0.92,0.1-0.92,0.72-0.92,1.33c0,3.08,3.19,2.56,1.64,5.94c-5.01-3-8.59-18.28-8.6-20.67
		C714.43,158.01,709.36,141.95,710.11,141.2z M688.01,212.22c1.02-0.61,1.54-1.02,2.05-1.43c1.23,1.13,0.72,2.15,0.2,3.38
		C689.54,213.65,688.93,213.04,688.01,212.22z M722.8,230.74c2.35,6.14,4.5,11.77,6.65,17.6c-1.09,0.18-14.16-1.15-16.37-3.07
		C713.34,241.17,721.08,237.86,722.8,230.74z M722.5,228.18c-0.1,0.1-0.1,0.2-0.1,0.31C722.11,228.21,722.5,227.57,722.5,228.18z
		 M711.65,175.69c0.72,6.42,3.87,20.09,9.01,24.05c3.28,2.19-0.12,4.86,1.23,25.58c-5.53,8.29-3.02,7.87-4.3,9.21
		c-2.16,2.27-7.46,8.29-10.75,8.29c-4.11-1.42-12.91-7.34-15.25-8.9c-2.05-7.19-1.81-2.65,1.74-13.3c0.31-0.72,0.19-1.54,0.31-2.25
		c0.27-1.64-1.12-3.07-0.31-4.81c0.91-1.95-1.73-4.11,0-5.01c4.33-2.26,7.03-6.89,11.67-16.48
		C711.75,178.09,704.18,109.15,711.65,175.69z M703.97,138.03c0.82,0.31,1.54,0.72,2.46,1.13c0.2,2.53,1.3,4.96,1.02,7.7
		c-1.51-1.39-0.93,0.36-3.68-7.9C703.67,138.74,703.87,138.54,703.97,138.03z M701.93,71.61c0.09,1.5-0.59,1.45-1.26,1.35
		C701.05,72.58,701.35,72.18,701.93,71.61z M700.19,73.55c0.09-0.17,0.25-0.29,0.36-0.45c0.19,0.7-0.11,0.51-0.36,0.76
		C700.19,73.76,700.08,73.66,700.19,73.55z M702.95,74.47c1.02,1.74,0.51,3.58,0.51,5.22c0,0.79-0.39,1.38-1.16,1.7
		c-0.25-1.35-1.23-2.25-2.22-3.23C700.6,76.62,701.52,75.5,702.95,74.47z M700.9,82.56c0.09-0.37,0.76-0.65,1.26-0.93
		c-0.95,2.72-1.98,7.21-4.12,8.81c-0.1-0.1-1.81-0.88-1.13-2.25C697.81,85.03,699.81,86.93,700.9,82.56z M696.09,60.86
		c0.38-1.51-0.16-1.25,0.82-1.74C697.3,60.3,697.3,59.66,696.09,60.86z M696.4,56.87c-0.2,0.2-0.41,0.31-0.82,0.61
		c0.2-0.41,0.2-0.82,0.31-1.13C695.99,56.26,696.84,56,696.4,56.87z M696,60.96c-0.4,0.4-0.11,0.16-0.11,0.01
		C695.93,60.97,695.97,60.97,696,60.96z M666.72,22.69c3.07-2.76,6.54-3.64,10.54-2.46c3.11,0.92,2.26-0.4,5.12,2.46
		c-0.2,1.13-1.23,0.82-1.74,1.23c-3.35,2.68,0.71,0.04,2.87,0.72c0.41,0.82,0.72,1.64,1.13,2.56c-0.31,0.1-0.51,0.31-0.61,0.2
		c-1.02-0.82-2.05-1.43-3.38-1.54c-0.41,0-0.82-0.51-1.23-0.72c-2.03,0.87-6.29,0.95-3.06-2.06c-1.4-0.14-2.21,1.26-3.29,1.75
		c-0.67-0.78-0.46-1.26,2.66-3.68c-0.51-0.72-1.02-0.31-1.54-0.1c-1.84,0.61-2.87,2.05-3.79,3.58
		C666.94,24.41,664.77,24.65,666.72,22.69z M675.01,31.29c-2.61,7.38-2.47,7.15-3.27,7.47c0.1-2.43,0.1-4.95,0-7.49
		c3.44-0.51,0.25-5.04,5.73-2.84c1,3.01-1.45,7.31-3.38,9.82C675.09,33.74,675.27,32.61,675.01,31.29z M666.01,34.05
		c-0.1,0-0.31,0-0.31,0c-0.2-0.41-0.41-0.82-0.51-1.23C665.19,32.08,667.07,32.99,666.01,34.05z M663.04,27.6c0.92,0,1.54,0,2.35,0
		c-0.51,1.64-0.82,3.07-2.66,4.2C662.83,30.16,662.94,28.94,663.04,27.6z M658.64,31.7c0.39-4.33-0.21-3.29,2.25-3.99
		c1.13,4.71,2.56,9.01,2.15,13.71c-0.61,0.41-0.92,0-1.13-0.41C659.72,37.72,657.97,35.52,658.64,31.7z M648.21,32.61
		c0.23,4.15,0.96,7.24-0.93,4.72C645.76,35.81,645.5,32.61,648.21,32.61z M638.38,61.48c1.43,0.61,1.94,1.64,2.25,3.17
		C637.92,63.64,638.38,64.44,638.38,61.48z M641.45,96.27c-1.43-2.05-1.43-2.05-1.54-4.91c-0.16-0.33-0.54-0.31-0.1-0.31
		C639.81,91.52,641.8,92.73,641.45,96.27z M644.92,99.65c-1.29-7.87-4.71-11.24-4.71-15.56c0-1.43,0-2.97-0.31-4.5
		c-0.72-3.58,0-7.06,0-10.54c-0.27-3.82,3.9-2.95,3.27-6.34c-0.19-1.03-0.31-2.05-0.41-2.97c-1.13-0.72-0.92,0.61-1.54,0.82
		c-0.2-0.2-0.72-0.51-0.72-0.61c0.66-2.8-2.44-5.93-1.74-8.39c0.7,0.49,1.38,0.99,1.98,1.48c0.3-1.15-0.46-2.05-0.64-3.12
		c-0.11-0.61,0-1.23,0-1.84c0.72,0.1,1.13,0.2,1.64,0.31c0.1-0.2,0.31-0.51,0.2-0.61c-1.99-2.98-2.64-3.26,0.1-5.22
		c0.31-1.33-0.92-2.46,0.2-3.68c1.58,0.39,3.14,4.3,5.22,4.3c0.53-2.11-0.98-0.05-3.07-7.37c6.02,8.02,4.46,6.76,6.34,4.5
		c-0.72-2.64-0.82-5.39-2.53-7.74c0.42-1.1,1.22-1.89,2.22-2.29c2.39,0.48,0.1,7.38,4.2,9.93c1.13,0.71,1.54,2.25,3.17,2.97
		c0-2.17-2.79-3.15-2.25-5.53c0.39-1.75-1.21-0.36-2.56-9.11c0.82-0.2,1.54-0.31,2.15-0.41c1.92,2.77,0.04,4.52,0.2,5.01
		c1.54,3.38,2.87,7.06,5.12,9.93c2.15,0.61,4.5-0.41,6.24,1.23c1.05-1.58-0.45,1.39,0.72-10.13c0.2-1.95,0.61-3.89-0.31-5.63
		c0.41-1.02,0.92-1.22,1.64-1.13c3.18,0.43,3.16,0.6,2.87,3.89c0.1,0-1.09,2.2-1.23,2.46c-0.31-0.72-0.51-1.23-0.72-1.84
		c-1.13,2.35-1.13,2.35-1.33,10.64c0.82,0.31,1.64,0.72,2.46,1.02c6.22-2.26,8.83-14.12,8.9-14.22c0.4-0.79,1.43,0.12,1.43,0.31
		c0.17,2.34-0.95,3.38-4.61,10.03c0.99,0.99,1.06,0.44,5.63-7.47c0,3.38-1.94,5.42-3.48,7.68c0.61,0.82,0.92,0.11,1.13-0.1
		c4.06-4.19,4.24-11.57,6.34-7.37c-1.02,2.76-3.99,4.61-4.4,7.88c0,0,0.2,0.1,0.41,0.41c0.41-0.61,0.92-1.02,1.33-1.64
		c0.92-1.23,1.43-2.76,2.87-3.48c0.2-0.82,0.51-1.64,0.82-2.66c1.38,0.59,1.34-0.32,5.53,4.5c0.81,0.93,0.61,1.23-0.2,3.07
		c-1.28,0-0.49-2.05-2.15-2.05c-0.92,0-1.13,0.92-1.54,1.54c-0.31,0.41-0.72,0.72-1.02,1.02c-0.37,2.62-0.78,3.28,2.87,0
		c0,1.43,0,2.46,0,3.79c0.51,0.61,1.23,1.33,1.64,2.15c1.14,2.65-0.25,7.71,2.05-5.63c3.82,5.41-2.49,8.87-0.72,13.61
		c1.64-0.51,1.64-2.15,2.35-3.27c1.48,3.46-1.56,2.78-2.76,8.19c0.31,0.41,0.61,0.92,1.02,1.43c0.41,0.51,0.82,0.82,1.33,1.33
		c0.14,3.43,0.13,8.51,0.41,9.01c1.42,2.48,1.71,9.3,0.51,11.87c-4.77,10.24-3.32,33.33-21.9,37.86c-2.15,0.52-4.09,1.32-6.34,1.23
		c-6.14-0.25-8.82-2.71-12.89-5.01C648.93,113.91,645.55,103.43,644.92,99.65z M671.67,38.96c-0.02,0.05-0.03,0.09-0.04,0.12
		C671.64,39.06,671.65,39.02,671.67,38.96z M649.33,128.82c1.33,1.23,0.1,3.48,1.74,4.4c1.42-0.36-0.01-0.74,1.33-8.39
		c1.03-5.89-0.6-6.24,2.46-4.71c7.41,2.96,11.72,7.66,18.01,4.81c11.77-5.33,8.2-3.39,13.1-7.88c0.31,0.82,0.73,1.54,0.72,2.15
		c-0.21,9.99,4.85,11.95,14.02,17.19c3.51,15.45,5.18,19.38,4.4,29.78c-0.87,11.63-1.65,6.52-1.13,10.85
		c1.27,10.39-1.9,16.56-7.47,25.48c-0.95,1.52-2.15,2.76-3.79,3.48c-7.57-3.24-6.4-2.49-13.92-8.6c0.31-2.35-1.44-4.19-2.25-6.45
		c-0.82-2.26-2.96-2.19-5.01-1.84c0.51-1.94,1.74-3.68,1.84-5.12c-1.53-1.19-2.09,0.57-4.5,4.2c-0.82,0.31-1.84,0.72-3.07,1.23
		c-1.64,3.07-2.35,6.55-2.87,10.03c-8.86,3.43-10.78,3.57-16.89,9.41c-2.16,0.22-2.12-1.5-6.04-3.79
		c-4.26-2.84-7.98-8.49-7.98-14.02c0-24.31-1.05-27.83,5.42-52.09C651.01,129.91,642.62,134.91,649.33,128.82z M675.93,196.15
		c-1.13,0.1-2.25,0.2-3.48,0.2c-0.31-1.54-0.1-2.97,0.1-4.4c0.21-1.46,2.62-1.59,2.87,0.1C675.6,193.29,675.73,194.52,675.93,196.15
		z M669.38,196.26c-1.23,0.31-2.25,0.72-3.38,1.02c-0.1-2.66,0.51-5.01,2.05-7.47C669.79,192.06,669.18,194.21,669.38,196.26z
		 M631.83,141.4c8.66-4.95-4.97,2.89-3.27,46.05c0.14,3.58,0.98,7.01,3.27,9.93c0.42,0.54,4.95,9.19,6.55,9.72
		c2.76,0.61,3.99,3.58,6.75,4.09c2.59,0.86,0.23,4.18,2.87,6.55c1.25,1.12,0.7,1.42-1.64,16.78c-4.91,3.89-10.34,7.27-15.96,9.21
		c-5.42-0.72-8.8-4-12.18-7.27c-7.46-7.21-0.04-7.24-2.56-33.67c4.46-1.27,8.42-18.16,10.03-20.26
		C627.53,180.13,624.89,174.91,631.83,141.4z M626.61,245.68c-1.12,0.65-13.92,5.48-19.24,6.24c-1.96-1.71,2.33-3.47,5.01-13.1
		c1.46-5.25,0-4.39,3.27-0.51c2.02,2.39,2.71,2.04,3.58,5.73c0.29,1.23,0.41,2.56,1.64,3.27c1.84-0.31,0.82-2.25,1.94-3.07
		C623.84,244.66,624.87,245.07,626.61,245.68z M585.16,289.07c-2.56-5.12-5.52-9.86-7.47-15.04c-1.09-2.9-0.94-4.79-1.43-5.53
		c-2.17-3.66-0.15-8.24-0.2-11.15c-0.15-7.88,1-7.77,0.61-9.82c-1.46-7.66-0.78-16.08,1.02-32.95c1.23-11.52,4.17-14.93,4.5-18.42
		c0.95-9.93,2.87-12.69,3.89-21.7c0.89-7.85,5.69-16.65,13.1-21.29c6.35-3.97,4.19-1.55,13.41-4.61c5.04-1.67,10.03-3.58,15.25-5.42
		c0,3.47-4.67,26.23-4.3,32.65c0.31,5.25-3.3,17.47-8.29,24.46c-0.61-0.72-1.13-1.23-1.74-1.94c-0.56,1.31-0.84,1.01-0.92,4.61
		c-0.62,26.76,0.71,10.08-3.68,32.34c-1.29,6.53,1.3,2.23-5.63,16.58c-0.51,0.1-0.92,0.41-1.23,0.31c-2.76-0.61-5.53,0-8.29,0
		c-1.74,0-3.48,0.31-4.61,2.15c2.25,0.82,3.79-1.12,5.73-0.61c11.15,2.91,22.73-0.88,33.16-6.04c3.06-1.52,9.42-3.53,16.17-8.49
		c3.75-2.76,4.18-5.87,5.22-7.16c3.34-3.59-0.76-4.36,0.51-7.37c0.83-1.96,0.9-6.43-1.64-11.05c-0.62-1.12-0.72-2.56-1.13-3.99
		c2.87-2.87,5.93-5.34,9.93-6.04c10.7-1.88,9.36-6.49,18.22-4.2c0.2,1.79-3.55,0.37-10.54,5.42c-4.43,3.2-10.21,5.76-10.64,7.06
		c2.4,2.8,16.85-12.2,24.46-7.88c4.86,2.76,7.41,2.6,7.16,4.81c-0.72,0.92-1.64,0.42-2.46,0.31c-3.18-0.46-6.24,0.09-9.41,0.31
		c-1.43,0.1-2.76,1.23-4.09,1.84c-0.51,2.87-3.37,2.98-5.22,4.09c-3.91,2.37-4.46,2.06-7.57,4.4c0.5,1.67,1.75,0.95,3.68,0.1
		c10.59-4.67,12.76-7.48,18.32-5.53c2.56,0.9,5.12,1.33,7.57,0.31c2.62,1.21-0.17,3.57-1.02,4.71c-6.66-1.11-2.84-0.23-10.34,1.02
		c-5.93,0.99-8.87,4.04-14.43,8.39c1.13,0.1,1.63,0.4,1.94,0.2c1.01-0.64,2.03-1.24,2.87-1.94c6.21-5.25,10.76-4,14.43-5.22
		c2.76-0.72,2.76-0.82,6.55,0c0.1,0.72,0.31,1.54,0.51,2.15c-0.31,0.41-0.41,0.72-0.61,0.82c-17.93,10.35-11.96,7.27-14.74,8.6
		c-4.73,2.27-4.47,6-5.73,12.28c-1.51,2.02-1.15-0.72-11.97,6.75c-1.13,0.78-2.44,1.23-3.66,1.83c0.24-1.03,2.29-1.38,1.31-2.96
		c-1.64,0.72-3.16,1.46-4.71,2.15c-1.42,0.64-3.38,0.51-4.5,1.94c0.73,1.49-0.5,1.6,7.51-0.98c-20.11,17.78-21.64,15.68-35.55,24.52
		C606.02,284.18,595.39,288.29,585.16,289.07z M679.51,212.22c1.69-0.45,3.48-1.02,4.81,0.31
		C683.43,212.53,685.84,212.22,679.51,212.22z M708.27,293.99c-3,1.72-10.52,7.47-25.69,11.87c-10.37,3-39.21,0.16-49.33-2.35
		c-11.47-2.85-14.07-6.09-15.35-6.34c-3.56-0.7-6.63-7.05-7.68-10.44c1.43-1.13,2.79-2.43,3.99-3.79c1.15-1.31,2.95-1.97,4.4-2.97
		c1.52-1.05,2.98-2.33,4.61-3.27c2.42-1.41,7.43-2.48,8.7-5.01c0.41-0.72,1.42-1.04,2.15-1.54c14.32-9.74,9.7-8.49,24.15-16.89
		c21.08,5.34,19.43-3.92,28.86,3.17c12.02,9.04-0.18,0.25,19.03,14.22c-0.2,2.35-0.31,4.91-0.51,7.47c2.25,1.33,3.08,3.67,4.61,5.42
		C712.69,286.4,711.13,292.34,708.27,293.99z M482.01,529.05c0,0.28-0.1,0.18-0.21,0.21C481.86,529.2,481.93,529.12,482.01,529.05z
		 M471.87,541.54c7.66-9.99,10.62-13.86,9.62-10.85c-0.95,1.74-7.23,13.13-9.01,14.02C471.77,543.18,471.77,543.18,471.87,541.54z
		 M476.07,549.11c1.05,0,1.39,3.23-0.61,2.66c-0.72-0.2-1.33-0.51-2.25-0.92C473.92,549.11,474.94,549.01,476.07,549.11z
		 M476.79,555.35c-2.66,0.72-5.22,1.02-8.08-0.82c0.72-1.13,1.33-1.84,1.94-2.56c3.2,1.75,2.75,1.56,6.86,2.15
		C477.2,554.64,477.09,555.25,476.79,555.35z M486.71,545.73c-0.38,0-0.12-0.48,0-0.72C486.71,545.3,487.11,544.93,486.71,545.73z
		 M492.24,534.99c-3.85,1.05-2.8,0.77-5.32,2.66c-0.48,2.42,0.76-1.45-3.79,9.72c-0.93,1.86-2.32,0.85-1.33-1.13
		c1.33-3.07,2.61-6.19,5.12-8.6c0.31-0.3,0.31-0.92,0.61-1.23c6.97-9.18,7.15-9.1,8.08-9.01
		C496.03,527.83,496.07,526.97,492.24,534.99z M494.7,533.96c0.31-0.61,0.61-1.23,1.13-2.05
		C496.43,533.15,496.03,533.76,494.7,533.96z M494.29,525.16c-2.42,3.28-7.01,9.05-8.9,12.08c-5.73,9.16-4.19,10.44-6.34,13.41
		c-2.27-4.21-0.8-3.17-3.99-3.17c-0.58-1.16,0.6,0.87,10.85-18.83c1.17-2.25,3.37-6.44,5.63-7.57c0.61,0.51,1.23,0.92,2.15,1.64
		c0-1.23,0-2.05,0-2.87c2.56,1.02,2.66,1.13,3.99,3.99C496.54,524.86,496.54,524.86,494.29,525.16z M516.8,524.14
		c0-0.66,0.41,0.1,0.31,0.2C516.99,524.58,516.3,525.13,516.8,524.14z M503.39,523.63c3.79,0,7.06,0.1,10.54,0.2
		c0.79,0.59,0.55,2.31,1.9,2.62c-0.02,0.05-0.04,0.09-0.06,0.14c-2.05,9.22,1.4,8.1-1.94,9.21c-1.19-9.52-5.6-5.05-8.8-6.65
		c-2.26-1.29-0.88-1.44-5.42-0.2C500.02,526.19,501.35,524.35,503.39,523.63z M646.56,359.28c3.27-2.35,6.65-4.81,9.93-7.27
		c8.33,3.43,10.48-2.33,18.63,1.74c1.64,0.82,3.17,1.64,4.81,2.46c20.93,43.11,68.8,55.19,81.05,68.05
		c-0.48,16.23-0.34,7.93,0.1,15.04c0,4.73-2.26,10.67,2.76,21.08c1.81,3.75,3.29,3.76,4.61,6.96c5.05,12.33,7.55,13.11,8.6,16.07
		c1.97,5.58,4.61,14.69,5.42,21.18c-0.97,1.08-254.29,7.34-255.74,7.16c0.65-3.27,8.19-11.23,11.77-16.27
		c1.88-2.65,7.72-9.91,9.31-10.44c3.88-0.86,5.19-4.5,11.36-13.82c2.54-3.84,1.95-0.56,4.3-8.08c2.04-5.45-0.74-4.36,0.41-7.68
		c5.96-17.12,6.77-13.93,11.97-19.14c1.31-1.31,3.43-3.71,3.79-3.79c2.78-0.62,2.45-2.26,7.06-8.08c3.16-3.99-0.47-1.81,5.32-6.75
		C614.7,398.38,635.18,383.54,646.56,359.28z M782.46,506.95c-1.41,3.53,10.43-0.05-190.35,6.75c-0.61,0.02-65.87,2.04-66.72,1.84
		c-0.82-2.72-2.66-1.19,80.74-4.09C606.83,511.43,781.29,506.67,782.46,506.95z M515.88,517.9c-0.93,0.58-1.34,0.41-8.29,0.41
		c-0.61,0-1.23-0.31-1.94-0.51c9.83-42.63,6.07-28.55,8.7-40.22c5.4-23.92,6.07-30.86,17.7-44.62c0.55-0.65,9.95-11.48,10.75-11.77
		c4.75-1.7,9.36-16.27,10.03-23.84c0-5.18-3.2-2.62,10.85-28.14c3.48-6.32,0.96-4.11,2.97-7.27c22.16-34.89,12.34-21.5,22.92-36.23
		c5.64,0,11.02-0.64,19.14,2.66c22.31,9.07,26.2,19.22,30.19,20.47c2.56,2.66,5.01,5.32,6.45,9.01
		c-19.11,33.45-50.99,53.35-59.15,64.16c-4.75,6.29-8.03,7.82-8.9,8.7c-12.73,12.73-13.02,13.04-12.28,15.25
		c0.2,1.17-2.84,5.5-4.09,15.35c-0.44,3.44-2.61,5.57-7.98,14.53c-3.44,5.74-18.31,17.28-31.31,39.5
		C518.73,520.26,518.09,516.52,515.88,517.9z M536.04,517.28c-76.95,2.29,239.63-7.74,246.53-6.75
		C780.8,512.74,589.17,515.7,536.04,517.28z M805.65,540.11c0.77-0.17,0.69-0.52,2.09-0.72c3.37-0.48,5.83,0.47,9.01-1.43
		C819.17,541.35,820.44,540.49,805.65,540.11z M791.27,516.26c12.02-0.71,9.76-1.48,10.44,1.23c-2.83,0-2.69-1.1-9.82,5.32
		C791.09,522.22,791.27,517.25,791.27,516.26z M786.56,520.46c0.41-1.13,0.1-2.46,0.2-3.58c0.82-0.72,1.54-0.61,2.46,0
		c0.83,11.25,2.18,8.1-2.76,12.69c-0.31-0.61-0.62-0.92-0.61-1.23C785.89,525.67,785.33,523.01,786.56,520.46z M841.31,581.86
		c-3.51,3.01-19.15,2.88-24.15,2.46c-6.67-0.57-13.54-4.6-13.71-5.12c-1.13-2.66-3.72-4.17-5.01-6.65
		c-0.32-0.61-0.51-1.33-0.82-1.94c1.85-3.69,4.56,0.67-1.74-9.82c-1.94-0.82-4.4-0.2-6.45-1.43c-3.23-1.69-9.53-3.5-12.69-6.14
		c0.29-6,2.42-6.05,3.58-13.92c1.39-5.58,1.64-2.33,1.64-13.41c0-1.24-0.51-3.48,2.05-3.48c0.8,3.62-1.15,7.67,2.66,10.13
		c2.38-1.79,2.15-3.6,6.86-6.34c1.03-0.6,1.86-1.42,2.46-2.66c2.64-5.49,8.31-2.11,13.2-2.25c0.61,1.64,1.21,3.28,1.84,4.91
		c0.6,1.56,4.23,5.2,0.2,4.61c-6.54-0.97-8.19-1.04-10.95-0.61c-4.59,0.71-3.09,5.54-0.41,4.4c2.68-1.14,4.9-0.61,14.53-0.61
		c1.25,2.5-6.42,0.53-13.71,2.25c-1.87,0.44-1.78,3.59,0.41,3.79c2.72,0.25,3.87,0.24,4.49,0.12c-0.62,0.71-2.03,1.33-1.11,2.85
		c0.61,1.33,1.84,1.33,2.97,1.33c3.27,0,6.56,0.08,9.82-0.2c3.09-0.27,2.17-3.48,4.91,1.54c11.59,21.2,13.54,12.3,17.6,22.72
		C842.04,574.18,842.13,574.8,841.31,581.86z"/> <path d="M676.35,23.09c0.1,0,0.17,0,0.19,0.01C676.42,22.98,676.47,22.98,676.35,23.09z"/> <path d="M640.73,53.19l0.1-0.1C640.75,53,640.76,53.04,640.73,53.19z"/> <path d="M266.89,545.53c0.69-5.94,0.31-11.67-2.76-16.89c0.2-0.72,0.41-1.23,0.51-1.84c-0.82-2.15-3.17-1.94-4.91-3.48
		c0.51-0.72,0.82-1.43,0.72-1.64c2.16-3.23-1.49-2.02,0-9.11c0.36-1.71,1.92-11.45,2.15-15.35c2.45-41.52,4.43,1.61,4.09-60.79
		c-0.04-6.97-1.84-7.64-1.33-9.41c1.61-7.1-6.33-10.32-9.01-53.52c-0.96-15.46-5.8-25.96-14.33-45.74
		c-1.24-2.47-1.15-0.18-2.66-3.99c-3.21-8.11-4.01-9.4-3.27-11.87c0.56-1.87-0.16-5.99-1.13-13.92c-0.77-6.37,0.51-5.19-0.61-8.19
		c-6.79-18.17-9.21-12.57-19.24-27.22c-1.33-1.94-1.64-3.89-0.31-6.04c1.81,0.45,10.17,6.23,22,10.13
		c8.34,2.75,13.5,3.17,16.58,3.79c3.61,0.72,8.17,0.97,9.72-2.35c2.69-5.77,3.68-4.8,5.22-10.85c1.57-6.18,2.27-9.24,1.43-13.51
		c-0.65-3.34-2.09-12.95-1.64-16.58c1.95-15.65-1.86-20.57-1.13-32.24c0.69-10.85-4.21-13.05-4.4-31.42
		c-0.08-7.77-4.11-21.42-5.83-22.1c-2.53-0.72-6.03-9.32-17.91-10.95c-11.43-1.57-12.39-6.16-27.12-12.28
		c-4.14-1.72-6.36-3.1-12.69-6.86c-2.94-1.74-1.88-3.59-2.46-10.64c-0.53-6.58,1.49-9.44,3.58-16.89c2.6-9.25,1.88-7.95,2.76-8.39
		c3.42,1.71,1.01,1.1,2.97-0.41c3.61-2.8,1.65-4,4.5-7.68c2.96-3.8,2.38-9.04,0.41-12.49c-2-4-3.31,0.03-5.22-0.2
		c0-20.29,0.57-21.74-2.25-29.78c-3.35-9.52-12.16-10.16-10.44-14.43c0.5-1.23-0.63-5.21-1.33-6.14
		c-3.53-4.69-10.48-5.01-16.07-3.38c-3.31,0.97-5.57,3.98-7.16,7.06c-4.38,1.1,0.4-2.57-13.3,3.99
		c-10.66,5.1-13.03,27.26-12.69,38.89c0.13,4.5,0.2,4.5-1.84,8.6c-2.13,2.13-0.8,6.49,0.51,9.21c1.72,3.56,1.69,4.41,3.27,8.9
		c2.1,5.95,3.35,3.93,4.5,6.24c5.89,19.78,6.52,7.7,7.16,24.36c-7.17,10.52-16.65,10.61-26.4,16.99
		c-16.97,11.11-22.68,3.89-32.34,16.07c-0.41,0.51-0.72,1.33-1.23,1.43c-2.05,0.41-2.44,2.05-2.97,3.58
		c-5.42,15.55-3.87,18.93-4.3,23.44c-1.38,14.67-4.57,19.88-6.04,35.2c-2.13,22.16-0.51,22.57-1.43,32.24
		c-0.29,3-1.86,20.51,0.82,22c2.98,1.36,3.34,18.7,8.39,16.27c3.19-1.53,7.57,1.03,21.08-3.89c0.41-0.2,0.92-0.82,1.43-0.1
		c-0.2,0.2-0.31,0.51-0.51,0.61c-0.72,0.45-3.98,2.11-4.91,3.38c-11,14.87-8.97,24.74-10.03,31.62
		c-3.69,23.98-8.37,29.75-8.19,59.66c0.07,10.8,2.22,34.78-1.23,39.91c-11.45,17.03-13.8,49.22-10.34,56.59
		c0.78,1.95,1.3,12,3.48,26.71c3.51,23.76,7.02,25.89,0.72,25.89c-4.09-0.45-4.85,1.93-5.94,4.09c-4.14,2.26-2.67,0.54-4.3,6.34
		c-5.79,20.58-8.8,25.19-3.79,30.29c0.45,0.46-0.88,2.11-1.33,2.56c-6.42,5.62-7.96,5.94-7.47,8.49c0.22,1.13-3.68,3.27-3.68,13.3
		c0,2.35-0.51,4.91,1.74,6.65c0.38,0.38-0.88,0.73,4.5,6.45c1.54,1.63,3.58,2.64,6.04,2.66c20.63,0.14,28.77,1.93,33.98-3.27
		c1.84-1.84,1.4-1.95,1.74-12.79c0.36-2.13-1.51-1.94-1.23-6.96c0.75-6.39-2.63-2.99,8.8-10.75c-2.53-7.32,0.28-2.05-0.51-24.15
		c-0.13-3.57-2.46-12.27-5.63-9.41c-1.22,1.22-2.59,3.55-4.2,1.94c-0.2-2.05,1.23-4.2-0.31-6.14c-5.42-1.13-8.8-1.02-12.08,0.51
		c-0.2,2.25-1.59,4.13-2.97,5.94c-0.4,0.52-0.92,0.82-1.54-0.1c3.46-8.65,0.56-3.66,4.3-8.8c2.25,0,11.85-0.25,13.61,0.31
		c1.02,1.94-0.72,4.2,1.13,5.83c2.19-1.46,0.35-4.67,2.15-6.14c141.88,0,132.28-0.11,133.55,0.2c1.48,2.74-0.91,3.12-2.87,5.42
		c-3.41,4.01-2.97,8.2-2.97,16.78c0,5.06-2.57,4.75-1.84,8.8c0.86,4.83-1.77,6.34-0.61,9.82c2.05,1.74,4.3,3.58,6.65,5.53
		c-1.18,11.82-3.13,13.6-1.74,16.68c0.03,0.07,0,5.86,0,5.94c4.46,5.35,20.22,8.55,27.94,8.19c7.15-0.34,5.69-2.26,12.08-2.97
		c0.82-0.09,1.54-0.31,2.25-0.51c4.43-7.87,3.14-22.64-1.23-28.55C273.68,564.53,265.52,557.4,266.89,545.53z M143.58,59.64
		c0.41,0,0.1,0.02,0.1,0.41c-0.1,0-0.2-0.1-0.2-0.2C143.48,59.84,143.58,59.74,143.58,59.64z M143.89,69.15
		c-2.15-2.87-2.15-2.87-1.74-6.65C144.68,63.28,144.14,64.31,143.89,69.15z M75.32,522.09c5.56-1.85,4.14-0.08,1.74,11.56
		c-0.21,1.02-0.3,2.26-0.92,2.87c-2.33,2.25-2.71,8.92-6.14,14.63C67.46,550.57,67.45,551.99,75.32,522.09z M84.94,535.81
		c1.7,0.34,1.96-1.73,3.99-5.12c0.73-1.22,1.64-2.46,2.46-3.79c2.35,0,4.71,0,7.06,0c1.56,4.9-1.69,8.01,4.91,8.29
		c0.72-1.02,1.02-2.76,2.66-3.27c1.43,1.94,1.83,3.27,1.74,5.83c-0.74,20.35,1.04,14.07-0.2,24.46c-4.79,3.32-3.77,3.18-6.65,1.94
		c-2.85,1.97-1.02,5.59-1.02,24.97c0,1.54-1.03,2.33-2.25,2.76c-1.65,0.58-3.38,1.14-5.12,1.33c-26.04,2.8-24.85,1.03-26.4,0
		c2.93-5.27,10.74-8.71,16.27-3.17c1.04,0.83,2.01,2.01,3.17,1.23c1.26-0.94,0.83-3.53-1.54-4.3c-9.86-3.21-15.04-0.85-20.16,4.91
		c-2.87-1.23-3.85-2.87-3.68-5.53c0.15-2.36,0.05-4.81,0.1-7.16c0.03-1.53-0.2-2.76-1.64-3.58c0.57-5.54,3.6-11.29,9.72-16.07
		c2.54-1.98,2.69-4.37,5.53-12.18c2.27-0.32,1.32,0.66,2.76-1.74c2.56,1.94,2.56,1.94,5.53,1.94c4.66,0,6.95,0.36,12.79-1.02
		c1.72-0.41,1.84-2.98,0.1-3.48c-6.22-1.31-8.73-1.02-12.38-1.02c-1.84,0-3.79-0.31-5.42,1.74c-0.51-2.87,0-5.01,0.92-7.16
		c0.71-1.96,2.49-2.09,5.32-2.66C83.92,534.48,84.43,535.19,84.94,535.81z M80.34,532.43c0.31-4.4,1.54-8.08,1.74-12.08
		c-0.92-0.1-2.05-0.31-3.27-0.61c1.11-2.96-0.1-2.35,4.61-2.35c0.82,2.35,1.02,4.81,1.33,7.37
		C83.2,527.01,82.48,529.77,80.34,532.43z M218.59,269.43c0,7.03-2.72,8.05-6.04,10.23c-7.7,5.08-22.99,11.56-31.42,11.56
		c-15.52,0-41.8-0.79-54.75-9.21c-3.25-1.63-3.56-0.72-6.34-5.01c-0.5-0.76-2.32-4-3.07-6.24c2.98-1.55,1.33-2.53,12.79-9.82
		c3.18-1.59,7.3-2.34,9.31-5.42c0.7-1.07,3.86-1.99,16.17-11.97c3.05-2.48,6.45-4.4,9.82-6.24c7.27,1.94,14.43,2.66,22,0
		c4.84,0.92,14.2,8.67,15.56,9.82c14.15,12.05,9.43,2.57,10.03,14.53C215.42,264,216.65,267.07,218.59,269.43z M219,125.75
		c2.92,1.19,18.14,6.36,19.03,6.34c3.89-0.05,6.56,2.44,9.52,4.3c10.59,6.67,11.42,24.25,13,30.5c2.96,11.67,6.72,59.33,5.53,64.47
		c-0.55,2.36-0.2,6.06,0.1,7.57c2.06,14.15-0.82,12.63-0.82,19.14c0,3.43-1.75,5.06-4.61,9.82c-7.26,0-5.68-0.84-14.02-1.54
		c-6.43-0.54-5.32-2.54-10.75-4.4c-3.95-1.35-30.39-13.89-32.03-16.48c-1.8-2.83-4.61-4.61-6.96-6.86
		c-2.35-2.25-4.91-3.48-8.08-3.68c-0.82-0.1-1.54-0.51-2.25-0.51c-2.55,0-3.38-1.02-7.06-2.25c-1.54,1.84,0.82,2.15,0.92,3.48
		c-3.99,0.2-8.08,0.41-12.18-0.1c1.09-3.98,6.57-1.03,7.16-5.22c0.1-0.72,0.41-1.43,0.72-2.46c0.61,1.23,1.02,2.15,1.54,3.17
		c1.54-2.15,1.54-2.66,1.54-10.85c0.11-0.07,15.76-9.42,16.48-10.13c0-1.55,1.27-3.87-0.41-5.73c0.92-1.43,1.64-2.66,2.46-3.89
		c0.61,1.64,0.74,2.15,0.51,2.97c-1.97,7.17-1.69,6.16-2.46,6.55c-1.88,9.83,11.55,17.93,20.88,20.77
		c8.3,2.53,10.51,4.33,18.83,5.53c0.82,0.12,4.43-0.57,5.94-0.2c4.41,1.07,8.7-0.36,13.1-0.41c0.31,0,0.61-0.31,1.13-0.61
		c-1.25-1-5.43-0.55-9.11-0.92c-1.69-0.17,0.81-0.08-6.14-0.72c-9.24-18.48-9.52-27.45-8.39-43.6c0.76-10.84-0.04-5.66-0.61-13.71
		c-0.72-0.82-1.64-1.64-2.66-2.66c-1.01,3.23,0.32,2.93,1.64,6.45c0.1,0.2-0.31,0.61-0.61,1.13c-4.28-3.21-8.47-16.85-8.49-21.49
		c-0.07-14.35-3.56-28.35-4.61-34.08C217.77,124.72,218.39,125.44,219,125.75z M194.85,196.26c0.82-0.61,1.43-1.02,1.94-1.43
		c1.64,1.02,0.92,2.15,0.2,3.27C196.08,197.79,195.77,196.87,194.85,196.26z M220.02,229.51c-0.29-4.59,8.33-7.46,9.52-15.04
		c1.86,3.95-0.25,0.19,6.96,18.22C233.17,232.35,222.73,231.42,220.02,229.51z M210.71,121.96c2.41,0.91,2.52,0.82,2.87,2.87
		c4.72,27.93,4.06,20.06,5.01,34.59c0.33,4.96,3.86,20.48,8.29,23.64c0.82,0.51,1.43,1.43,2.35,2.35
		c-0.5,10.48-1.21,16.03-0.2,24.66c-0.41,0.2-1.02,0.31-1.13,0.61c-0.92,2.15-2.76,3.99-2.76,6.55c0,1.37-5.69,7.9-11.15,9.72
		c-5.42-2.35-10.23-5.73-15.25-9.01c-2.16-5.77-2.02-3.34,1.64-13.41c0.48-0.96,0.38-1.2-0.51-11.56c1.78-1.78,3.55-1.81,6.14-6.34
		c7.5-13.15,7.69-13.59,8.29-20.16c0.13-1.43,0.52-2.87,0.31-4.2c-0.7-4.4,0.19-8.8,0.1-13.2c0-0.1-0.38-17.53-1.13-18.52
		c-1.64-2.46-2.15-5.42-3.17-8.08C210.4,122.37,210.51,122.27,210.71,121.96z M208.46,54.83c0.09,1.5-0.58,1.45-1.26,1.36
		C207.59,55.8,207.98,55.4,208.46,54.83z M206.72,56.77c0.4-0.75,0.27-0.14,0.41,0c0,0.1-0.31,0.2-0.41,0.31
		C206.72,56.98,206.62,56.87,206.72,56.77z M209.28,57.69c1.13,1.84,0.61,3.68,0.61,5.32c0,0.79-0.39,1.38-1.16,1.7
		C208.04,60.88,203.97,63,209.28,57.69z M207.33,65.88c0.09-0.37,0.76-0.65,1.26-0.93c-0.96,2.73-1.98,7.21-4.12,8.81
		c-0.1-0.1-1.81-0.88-1.13-2.25C204.25,68.35,206.24,70.25,207.33,65.88z M203.34,42.44c0.39,1.18,0.39,0.54-0.82,1.74
		C202.89,42.73,202.35,42.94,203.34,42.44z M203.04,39.89c-1.51,2.27-0.7-0.9-0.1-0.31C203.04,39.68,203.04,39.89,203.04,39.89z
		 M202.45,44.28c-0.05,0.07-0.09,0.14-0.24,0.21c0.1-0.1,0.1-0.2,0.1-0.2C202.37,44.29,202.41,44.29,202.45,44.28z M190.96,10.41
		c-0.31,0.1-0.51,0.31-0.61,0.2c-2.45-1.96-2.85-1-4.39-2.12C190.41,7.48,189.38,6.85,190.96,10.41z M173.05,6.01
		c3.07-2.76,6.54-3.64,10.54-2.46c3.11,0.92,2.26-0.4,5.12,2.46c-0.2,1.13-1.23,0.82-1.74,1.23c-0.19,0.16-2.43,2.84-5.42,1.13
		c-0.2-1.13,0.72-1.54,1.33-2.05c-1.54-0.31-2.35,1.23-3.48,1.84c-1.61-1.88,5.87-4.73,1.13-3.79c-1.84,0.51-2.66,2.25-3.99,3.58
		C173.45,7.72,171.05,8.02,173.05,6.01z M178.19,22.07c0.04-1.29,0.12-5.76,0.17-7.39c3.26-0.52,0.19-5.01,5.64-2.83
		c0.98,2.93-1.4,7.15-3.27,9.62C183.12,5.91,180.13,21.2,178.19,22.07z M172.23,15.84c0.74,1.49,0.62,1.17-0.31,1.64
		C171.6,15.86,171.6,16.15,172.23,15.84z M169.47,11.33c0.82-0.82,1.43-0.82,2.25-0.2c-0.31,1.33-0.82,2.66-2.46,3.99
		C169.37,13.48,169.37,12.25,169.47,11.33z M165.48,11.95c0.1-0.41,0.82-0.72,1.74-1.33c1.23,5.01,2.56,9.41,2.15,14.43
		c-1.46-0.88-0.66-0.27-2.97-3.68C164.38,18.38,164.87,15.12,165.48,11.95z M154.64,16.03c0.23,4.15,0.96,7.24-0.93,4.72
		C152.19,19.23,151.93,16.03,154.64,16.03z M144.81,44.8c0.31,0.1,0.61,0,0.72,0.1c0.72,0.82,1.64,1.43,1.84,2.97
		C144.3,46.84,144.81,47.62,144.81,44.8z M146.04,74.37c0.1,0,0.2,0,0.2,0c0,0.03,0.03,0.08,0.05,0.13
		C146.25,74.42,146.17,74.37,146.04,74.37z M147.88,79.49c-2-2.72-1.42-4.35-1.55-4.9C146.7,75.18,148.19,76.5,147.88,79.49z
		 M147.67,71.92c-1.62-3.4-0.6-5.25-1.33-8.9c-0.72-3.58,0-7.06,0-10.54c-0.1-1.43,0.61-2.76,1.94-3.48
		c2.06-1.31,1.27-2.66,0.92-5.83c-1.13-0.72-0.92,0.61-1.54,0.82c-0.2-0.2-0.72-0.51-0.72-0.61c0.66-2.8-2.44-5.93-1.74-8.39
		c0.7,0.49,1.38,0.99,1.98,1.48c0.3-1.15-0.46-2.05-0.64-3.12c-0.11-0.61,0-1.23,0-1.84c0.72,0.1,1.13,0.2,1.64,0.31
		c0.39-0.79,0.47-0.07-1.54-3.27c0-1.64,1.13-2.05,1.84-2.56c0.31-1.33-0.92-2.46,0.2-3.68c1.58,0.39,3.14,4.3,5.22,4.3
		c0.38-1.51-1.05-1.55-2.15-4.3c-2.24-5.57-1-2.86,3.99,3.38c0.51-0.72,0.92-1.33,1.43-1.94c-0.72-2.64-0.82-5.39-2.53-7.74
		c0.71-1.85,3.08-3.69,3.45-0.55c0.36,3.06,0.33,6.54,2.97,8.19c1.13,0.71,1.54,2.25,3.17,2.97c0-1.43-0.92-1.94-1.43-2.76
		c-1.92-3.08,0.05-2.18-1.33-4.5c-1.34-2.25-1.64-4.71-2.05-7.37c0.82-0.2,1.54-0.31,2.15-0.41c2,2.88,0.02,4.47,0.2,5.01
		c1.64,3.38,2.87,7.06,5.22,9.93c2.15,0.61,4.5-0.41,6.24,1.23c0.2-0.31,0.41-0.51,0.41-0.72c-0.83-6.42,1.55-12.12,0-15.04
		c0.67-1.68,1.48-1.13,3.99-0.72c1.44,1.57,0.54,3.66-0.61,5.73c-0.31-0.72-0.51-1.23-0.72-1.84c-1.13,2.35-1.13,2.35-1.33,10.64
		c0.82,0.31,1.64,0.72,2.46,1.02c4.37-1.59,8.13-9.37,8.49-13.2c0-2.33,3.65-1.78,0.72,3.17c-1.22,2.05-2.35,4.09-3.48,6.14
		c0.99,0.99,1.07,0.44,5.63-7.47c0,3.38-1.94,5.53-3.48,7.68c1.39,1.86,4.88-6.69,5.73-8.6c1.02-0.2,1.33,0.41,1.74,1.23
		c-1.13,2.66-3.89,4.81-3.99,8.29c0.41-0.61,0.92-1.02,1.33-1.64c0.82-1.09,1.32-2.43,2.44-3.21c-0.6,1.62-1.22,3.23-1.92,4.85
		c1.23,0.72,2.25,1.33,3.48,0.41c-0.1-0.92-0.41-1.84-0.41-2.87c0-2.98,1.09-3.53-0.75-2.64c0.1-0.1,0.82-2.58,0.85-2.68
		c1.38,0.59,1.34-0.32,5.53,4.5c0.81,0.93,0.61,1.23-0.2,3.07c-1.28,0-0.49-2.05-2.15-2.05c-0.92,0-1.13,0.92-1.54,1.54
		c-0.31,0.41-0.72,0.72-1.02,1.02c-0.1,0.72-0.2,1.43-0.31,2.05c1.67,0.83,3.87-5.6,3.07,1.64c2.39,3.34,1.42,1.28,2.25,5.42
		c0.51-3.27,0.92-5.83,1.43-8.8c3.83,5.43-2.48,8.9-0.72,13.61c1.64-0.51,1.64-2.15,2.35-3.27c1.53,3.58-1.68,2.75-2.87,8.39
		c0.61,0.82,1.43,1.74,2.35,2.87c0.17,3.67,0.1,8.26,0.41,8.8c1.42,2.48,1.71,9.3,0.51,11.87c-4.77,10.23-3.32,33.33-21.9,37.86
		c-2.15,0.52-4.09,1.32-6.34,1.23c-6.14-0.25-8.82-2.71-12.89-5.01C152.23,95.57,152.68,82.39,147.67,71.92z M150.03,119.4
		c2.94-1.95,1.77-1.66,6.34-6.65c1.02,1.54-0.1,3.58,1.74,4.61c0.47-0.7,0.43,1.31,1.43-14.74c12.64,5.9,13.32,7.18,19.24,5.83
		c0.41-0.09,0.82-0.1,1.13-0.31c2.35-1.94,5.54-2.33,8.08-3.99c4.15-2.71,4.54-4.38,5.12-2.66c2,8.52,0.82,9.92,3.58,11.97
		c13.56,10.11,10.02,2.47,14.43,22.92c2.59,12.02-0.2,11.5-0.2,32.44c0,5.33-2.06,8.89-7.37,17.6c-1,1.65-2.35,2.97-4.2,3.89
		c-0.61-0.41-1.12-1.03-1.84-1.23c-5.77-1.56-9.48-6.12-11.36-7.06c-3.65-8.77-2.8-8.9-7.37-8.9c0,0-0.1-0.2-0.31-0.31
		c0.41-1.74,1.64-3.27,1.43-4.81c-0.72-0.72-1.42-0.4-1.74,0.1c-3.2,5.05-1.54,3.52-5.63,5.22c-1.64,2.97-2.15,6.55-2.97,10.03
		c-6.32,2.4-11.7,3.86-16.48,9.31c-1.13,0.2-2.14-0.32-2.66-1.02c-1.41-1.9-11.39-5.66-11.67-17.81
		c-0.37-16.27,0.31-32.34,5.01-48.1C144.54,122.35,143.4,123.78,150.03,119.4z M182.67,180.19c-3.49,0.35-3.86,0.97-3.48-3.99
		c0.24-1.69,2.77-1.9,2.97,0.1C182.28,177.53,182.47,178.76,182.67,180.19z M176.22,180.29c-1.23,0.41-2.35,0.82-3.79,1.33
		c0.31-2.35,0.97-4.49,1.54-6.55c0.11-0.41,0.72-0.61,1.13-0.72C176.34,174.36,175.95,178.11,176.22,180.29z M141.63,124.01
		c-3.81,12.4-6.35,12.68-6.65,41.34c-0.06,5.99,0.44,11.96,3.38,15.66c0.82,1.04,5,9.16,6.14,9.62c3.07,1.23,4.91,4.3,8.49,4.91
		c0.31,1.33,0.61,2.15,0.31,2.66c0,1.13,0.21,2.04,1.02,2.76c1.57,1.4,1.03,1.55-1.33,17.09c-6.34,4.91-10.03,7.06-16.48,9.52
		c-5.79-2.17-5.95-1.65-11.15-6.86c-3.52-3.02-4.75-6.54-3.38-12.08c2.27-9.17,0.71-17.43,0.41-21.59c3.09-2.11,4.79-7.1,7.68-14.84
		c5.22-13.99-0.16,4.09,8.39-46.46C139.28,124.62,140.2,124.42,141.63,124.01z M132.63,229.41c0,0.31,0,0.51,0,0.82
		c-4.46,1.95-13.28,5.12-18.32,5.63c-0.72-1.23-0.2-2.04,0.31-2.66c9.59-11.78,1.23-19.61,10.64-8.08c1.41,1.73,0.73,6.29,3.27,6.04
		C129.46,227.45,129.18,227.88,132.63,229.41z M92.31,272.5c-2.46-4.81-5.25-9.24-7.16-14.22c-0.85-2.22-1.5-5.98-1.84-6.55
		c-2.36-3.27,0.27-5.28-0.2-13.41c-0.1-1.67,0.95-5.61,0.51-8.19c-1.32-7.85,0.05-20.56,0.82-28.04
		c1.76-17.21,4.95-17.96,5.32-24.05c0.21-3.38,0.81-6.55,1.74-9.72c1.11-3.79,1.31-7.68,2.05-11.56
		c2.88-15.08,12.67-19.53,13.1-19.96c5.38-3.76,5.43-1.75,11.67-3.89c16.37-5.62,15.39-5.73,16.37-5.73
		c0.76,1.14-2.14,10.16-3.38,22.82c-1.14,11.71-0.58,12.49-1.02,14.43c-1.14,4.96-4.36,16.33-7.98,19.96
		c-0.41-0.61-0.82-1.23-1.54-2.05c-0.81,1.82-1.11,1.52-1.13,6.04c-0.08,27.21-5.05,31.32-4.2,36.02c0.3,1.19-4.63,10.44-5.42,11.67
		c-0.31,0.1-0.72,0.31-1.02,0.2c-2.76-0.72-5.52,0.05-8.29,0c-1.64-0.03-3.17,0.51-4.61,2.15c3.29,0.94,2.76-1.31,7.78-0.2
		c5.02,1.1,10.03,1.14,15.04-0.31c10.9-3.14,24.35-8.95,31.83-14.02c4.77-3.24,4.74-6.07,5.01-6.34c1.64-2.15,2.66-4.3,1.13-6.96
		c-0.2-0.31-0.2-0.82,0-1.13c1.14-1.73,0.11-3.68,0.61-5.53c0.83-3.01-2.87-4.08-2.87-10.64c8.31-8.06,10.65-3.83,19.55-9.41
		c2.77-1.74,5.53-1.23,8.7-0.31c-2.73,2.73,1.21-2.62-19.24,10.34c-0.82,0.52-1.94,0.72-2.05,1.94c0.82,0.61,1.43,0.3,2.15-0.1
		c21.17-11.65,16.28-10.25,28.14-4.91c2.03,1.13,1.35,2.74,0.2,2.35c-3.27-0.72-6.55,0.05-9.82,0c-2.19-0.03-5.22,1.75-5.22,2.15
		c-0.49,2.67-8.65,5.11-12.89,8.29c0.49,4.92,13.59-8.42,21.8-5.42c2.68,0.98,5.32,1.54,7.88,0.41c1.33,0.61,1.33,1.54,0.82,2.35
		c-3.09,4.94-1.16,0.13-9.01,2.76c-7.25,2.43-4.73-1.25-16.68,8.19c-0.2,0.1-0.2,0.41-0.41,0.92c1.18,0,0.85,0.77,4.5-2.15
		c5.83-4.66,10.93-3.83,13.41-4.71c2.17-0.77,4.4-1.02,6.86-0.31c0.31,0.72,0.61,1.54,0.82,2.15c-2.05,2.74-5.48,3.52-9.01,5.73
		c-11.85,7.43-9.37,3.9-12.18,16.27c-1.46,1.46-3.81,0.95-11.15,6.04c-1.02,0.7-1.92,1.61-3.33,1.54l0.05-0.1
		c-0.12,0.04-0.1,0.09-0.03-0.3c0.27-0.56,0.9-1.15-0.29-1.85c-4.07,3.43-8.84,2.16-8.8,5.2c7.59-1.51,13.41-6.44,1.94,2.68
		c-8.1,6.44-11.41,9.24-18.01,12.69C123.59,260.81,108.81,272.5,92.31,272.5z M191.17,196.77c-0.5,0-0.25,0.04-0.73-0.34
		C191.1,196.29,190.74,196.34,191.17,196.77z M190.04,196.34c-1.13-0.09-2.26-0.18-3.48-0.29
		C188.69,195.57,188.82,195.55,190.04,196.34z M84.22,494.77c-7.75-46.57-5.67-48.84-1.64-63.45c3.37-12.21,2.94-10.96,4.4-13.71
		c6.27-11.84,4.13-18.07,6.24-25.99c0.63-3.13-5.85-45.91,6.45-74.5c13.94-8.29,14.89-7.89,27.53-4.71
		c20.44,5.14,28.04,31.87,28.04,24.77c-0.62-4.34-6.27-13.11-10.95-17.91c-9.19-9.43-25.66-14.55-37.46-8.49
		c-7.57,3.88-7.06,4.64-7.06,2.05c2.3-20.7,1.85-23.38,14.63-39.81c6.48,12.97,9.26,11.3,17.6,14.74
		c14.44,5.94,33.81,6.12,49.43,6.24c6.45,0.05,12.49-1.83,18.11-4.91c12.58-6.89,19.15-6.02,21.18-16.17
		c2.56,0.98,3.35,1.55,7.78,11.05c3.73,8.01,4.23,11.49,3.58,17.29c-6,0.37-13.5-3.13-16.58,0.61c5.73,0.92,11.36-0.41,16.99,1.23
		c2.08,18.69,10.63,30.41,19.65,63.55c5.29,19.43,4.26,43.04,7.27,45.03c6.62,4.38,6.12,48.37,4.4,58.13
		c-1.09,6.2-4.29,27.6-4.61,31.93c-1.29,17.7,3.07,15.86-14.74,15.86c-2.91,0-0.91,0.77-5.94-16.89c-0.69-2.44-3.21-8.7-3.38-9.31
		c-4.85-17.6-5.3-16.27-2.05-15.45c-4.1-9.83-9.68-16.95-9.11-26.51c0.12-2.03-0.82-4.23-0.31-7.06c1.75-9.65,1.11-5.41,2.76-16.99
		c3.33,1.11,4.43-0.45,3.68-2.35c-0.59-1.49-0.45-1.43-6.86-8.49c-12.92-14.26-1.96-14.03-18.32-33.57
		c-2.33-2.78,0.6-1.86-2.15-4.61c-7.31-7.31-15.88-15.76-23.74-35.41c1.02-3.17,2.07-6.34,3.17-9.41
		c4.68-13.05,23.97-28,46.87-20.36c0.41,0.1,0.82,0.31,1.13,0.2c5.41-1.35-8-6.8-20.47-5.53c-16.06,1.64-27.23,15.91-30.6,27.63
		c-1.47,5.12-0.57,6.89-4.71-2.56c-4.5-1.33-8.29,0.3-12.08,1.74c-6.59,2.51-2.67-1.39-7.06,7.16
		c-7.45,14.52-13.98,23.09-17.4,38.27c-2.04,9.06-13.41,43.02-13.51,43.08c-1.27,0.74-0.55,0.32-4.81,9.31
		c-3.95,8.34-2.45,4.67-3.07,8.08c1.13-0.72,1.94-1.23,2.87-1.94c0.1,0.92,0.19,1.54,0.2,2.15c0.36,20.88,2.3,17,1.02,20.36
		c-0.04,0.12-9.89,20.29-15.96,40.63c-1.27,4.26-1.18,8.1-1.94,16.48c-1.47,0.55-1.01-0.14-1.54-8.08
		c-1.54,2.87-0.61,5.63-1.43,8.29c-3.91,0.8-7.91-0.05-11.82,0.48C85.23,497.67,85.31,501.31,84.22,494.77z M124.03,454.86
		c-1.37-4.59-0.06-4.88-1.64-21.9c-0.45-4.85,2.07-1.52,6.14-13.61c9.61-28.57,10.64-31.74,10.64-37.86
		c0-7.75,15.76-31.42,20.88-44.21c3.99-2.66,8.29-2.76,12.49-2.87c11.73,31.28,17.33,31.52,27.73,45.44
		c12.21,16.35,12.24,26.65,22,41.14c-1.54,5.66-1.71,22.54-1.54,32.65c0.06,3.27,2.33,11.28,7.78,18.42
		c-2.52,5.03,10.39,35.77,9.41,41.86c-3.69,0.53-130.91,0.75-132.73,0.1c-1.41-11.49,2.88-18.05,6.34-26.3
		c5.57-13.25,2.34-8.42,5.12-14.22C119.96,466.6,124.9,457.76,124.03,454.86z M238.85,515.95c-1.06,1.7-0.3,1.76-4.81,1.74
		c-138.13-0.48-128.1-0.01-129.05-1.43C105.96,515.62,235.2,515.35,238.85,515.95z M227.19,521.07
		c-182.21,0-130.96,0.78-140.71-4.09c0.41-0.41,0.51-0.1,0.51,0.2c3.96,2.11,171.98,1.53,172.64,1.64c0.3,2.42-1.66,2.56-2.9,3.44
		C256.53,520.61,257.37,521.07,227.19,521.07z M256.52,522.51c-0.6,0.91-5.31,0.75-6.3,0.71c-2.97-0.14-5.32,1.23-7.68,3.17
		c-0.31-1.23-0.2-2.35,0.41-3.68C247.37,522.21,251.99,522.69,256.52,522.51z M276.31,589.12c-0.07,1.54-0.72,2.97-1.13,4.3
		c-3.07,1.02-5.94,2.03-8.8,2.97c-0.47,0.15-15.98,1.56-28.76-4.61c-1.22-5.1-0.85-7.26,0.72-16.68c1.63-9.82,3.21-4.36,0.2-11.87
		c-2.02,1.51-1.92,2.33-4.81-0.92c-2.11-2.38-0.1-2.81-0.1-8.39c0.42-3.75,2.17-3.28,1.84-8.39c-0.57-8.83-1.08-10.83,1.23-14.02
		c0.82-1.13,1.33-2.46,2.66-3.48c0.51,1.13,1.02,2.05,1.54,3.17c-0.92,0.51-1.54,1.02-2.15,1.33c-0.1,0.31-0.1,0.41-0.1,0.51
		c1.61,2.23,1.12,5.78,2.25,6.34c2.5-0.19,2.92-2.67,5.01-9.11c1.18-3.61-0.34-3.27,5.32-3.27c1.14-0.07,5.39-0.07,9.52,0.2
		c7.99,10.84,1.4,17.85,6.04,34.08c1.94,0.51,2.87,2.15,3.89,3.99C276.39,573.58,277.17,570.17,276.31,589.12z"/> <path d="M147.16,36.61l0.1-0.1C147.18,36.42,147.19,36.46,147.16,36.61z"/> <path d="M502.27,555.15c2.05-4.11-17.6-5.49-17.09-0.2c0.23,2.44,4.86,1.4,10.13,0.92c0,0.29-0.14,0.2,5.01,0.2
		C501.14,556.07,501.86,555.97,502.27,555.15z"/> <path d="M495.92,563.54c4.02-0.59,7.05-4.83-7.47-4.5c-4.24,0.1-4.9,4.61-0.1,4.61C494.64,563.64,494.82,563.7,495.92,563.54z"/> <path d="M482.72,567.43c-0.42,1.66,2.54,1.9,5.12,2.46c3.58-0.55,4.15-0.42,4.5-1.84C492.34,566.15,482.72,564.48,482.72,567.43z"/> <path d="M696.91,321.82c1.33,0.31,2.35-0.63,3.58-1.02c6.93-2.2,8.26-3.14,5.72-0.7c2.54,0.35,10.31-4.49,18.12-4.01
		c-2.11-2.11-4.5-0.49-7.06-0.61c-0.1-0.41-0.2-0.72-0.41-1.23C714.63,314.91,698.21,319.88,696.91,321.82z M715.43,316.09
		c-0.27,0-0.1,0.2-0.51-0.2C715.29,315.89,715.18,315.84,715.43,316.09z M712.77,316.7c0,0.1,0.1,0.2,0.2,0.31
		C712.58,317.01,712.63,316.7,712.77,316.7z M710.73,317.32c-0.16,0.16,0.01,0.4-0.73,0.4C710.4,317.26,710.35,317.32,710.73,317.32
		z M709.71,317.85c-0.56,0.73-1.28,0.71-2.08,0.61C708.19,317.81,708.98,317.9,709.71,317.85z"/> <path d="M706.02,320.08l0.1,0.1C706.24,320.06,706.27,320.12,706.02,320.08z"/> <path d="M785.53,427.33c-0.66-0.99-9.48-3.45-11.15-11.26c-0.11-0.51-0.61-0.92-1.13-1.54
		C773.13,422.48,783.49,430.4,785.53,427.33z"/> <path d="M663.75,327.96c-0.31,4.2-0.2,14.22,0.2,15.76c0.1,0.1,0.41,0.2,0.61,0.31C665.19,339.42,664.98,333.39,663.75,327.96z"/> <path d="M612.69,313.12c-6.14-2.25-11.67-2.46-17.29-1.64c-0.31,0.1-0.61,0.51-1.23,1.13
		C605.42,311.95,599.59,311.67,612.69,313.12z"/> <path d="M620.16,317.73c-0.2,1.13,0.62,1.53,1.13,1.94c9.18,7.58,8.41,7.03,9.41,7.37C629.5,324.64,622.12,317.73,620.16,317.73z"/> <path d="M688.62,332.77c4.5-2.97,7.27-5.53,8.39-7.57C693.84,327.04,690.36,330.11,688.62,332.77z"/> <path d="M791.67,419.04c-0.1-0.2-0.51-0.41-0.82-0.61c-1.02,3.07-0.92,4.4,0.51,5.63C792.29,422.42,792.08,420.78,791.67,419.04z"/> <path d="M724.03,313.02c-0.92-2.56-2.35-4.71-4.09-6.86C720.76,308.83,722.09,311.08,724.03,313.02z"/> <path d="M649.73,343.01c-2.05-1.64-5.63-3.27-7.88-3.38C644.41,341.27,646.77,342.9,649.73,343.01z"/> <path d="M716.46,299.1c1.13,1.84,1.74,3.38,3.27,4.4c0.1-1.74-1.33-2.76-2.15-4.09C717.48,299.31,717.17,299.31,716.46,299.1z"/> <path d="M767.52,430.09c1.02,1.74,1.54,3.38,3.17,4.2C769.77,431.53,769.67,431.32,767.52,430.09z"/> <path d="M725.36,383.53c0.41,2.46,0.41,2.46,1.84,4.09C727,385.99,726.79,384.55,725.36,383.53z"/> <path d="M788.81,504.49c0-1.98,0.47-4.78-1.13-3.79c0.2,1.23,0.51,2.56,0.72,3.79C788.5,504.39,788.71,504.39,788.81,504.49z"/> <path d="M723.31,377.29c-1.64,0.72-1.64,1.23,0,2.66C723.31,378.93,723.31,378.11,723.31,377.29z"/> <path d="M661.5,311.18c-1.43,0.92-1.13,2.25-0.82,4.4C662.06,310.9,661.76,312.21,661.5,311.18z"/> <path d="M786.76,487.2c-0.49,0-0.93,0.71-0.1,1.74c0.1,0.1,0.2,0.1,0.31,0.2C786.97,489.04,787.73,487.75,786.76,487.2z"/> <path d="M601.43,304.32c-1.64-0.2-2.56-0.31-3.38,0.61C599.18,305.65,600,305.24,601.43,304.32z"/> <path d="M787.48,496.92c0.82-0.82,0.72-1.43,0-2.46C787.48,495.38,787.48,496.1,787.48,496.92z"/> <path d="M648.11,347.63c0.07-1.09-0.86-1.6-1.34-2.27C646.77,346.24,647.34,347.03,648.11,347.63z"/> <path d="M648.19,347.72c-0.11-0.07-0.09-0.14-0.09,0c0,0.12-0.13-0.14,0.79,0.52C648.83,347.89,648.64,347.68,648.19,347.72z"/> <path d="M651.17,351.5l0.1-0.1C651.12,351.3,651.19,351.38,651.17,351.5z"/> <path d="M649.73,349.15c-0.1,1.08,0.57,1.7,1.44,2.2C651.3,350.22,650.61,349.64,649.73,349.15z"/> <path d="M776.53,448.1c-0.65,0.65-0.72,0.51,0.31,1.54C777.69,448.78,777.23,449.16,776.53,448.1z"/> <path d="M720.04,370.74c0,0.31,0,0.61,0,1.02c0.31-0.2,0.61-0.2,0.82-0.41C720.86,370.45,720.37,370.74,720.04,370.74z"/> <path d="M778.47,453.94c0.33-0.33,0.61,0.29,0.1-1.23c-0.2,0.1-0.41,0.1-0.61,0.2C778.17,453.22,778.27,453.63,778.47,453.94z"/> <path d="M596.42,315.68c-0.41,0.1-1.02,0.2-1.64,0.31C595.6,316.5,596.01,316.09,596.42,315.68z"/> <path d="M706.02,320.18c-0.53,0.27-0.31-0.1-0.92,0.51C705.7,320.7,705.63,320.96,706.02,320.18z"/> <path d="M650.96,343.21c-0.61,0-0.92-0.1-1.33-0.1C649.94,343.52,650.25,343.72,650.96,343.21z"/> <path d="M695.48,322.54l0.1,0.1C695.58,322.54,695.64,322.49,695.48,322.54z"/> <path d="M695.59,322.52c0.5-0.07,1.13-0.04,1.32-0.8C696.33,321.72,695.65,321.64,695.59,322.52z"/> <path d="M695.38,322.54c-0.2,0.1-0.51,0.2-0.2,0.1C694.86,322.85,695.17,322.74,695.38,322.54z"/> <path d="M615.45,312.71c0.1,0.1,0.18,0.23,0.21,0.3c0,0,0,0-0.01-0.01c0.04,0.09,0.04,0.08,0.02,0.03
		C615.82,313.16,615.64,312.91,615.45,312.71z"/> <path d="M610.85,309.75c0.43,0,0.52,0.6,1.02,0.1C611.74,309.72,611.69,309.75,610.85,309.75z"/> <path d="M770.59,434.39c0.1,0,0.2,0.1,0.31,0.1C770.8,434.39,770.8,434.29,770.59,434.39z"/> <path d="M651.98,352.11c-0.03-0.46-0.24-0.81-0.81-0.61C651.26,351.88,651.46,352.15,651.98,352.11z"/> <path d="M651.99,352.22l0.1-0.1C651.93,352.15,651.99,352.04,651.99,352.22z"/> <path d="M649.64,349.06c-0.26-0.2-0.46-0.46-0.73-0.63C649.01,348.79,649.19,349.13,649.64,349.06z"/> <path d="M649.84,349.04c-0.07,0.02-0.13,0.02-0.19,0.02C649.77,349.15,649.68,349.2,649.84,349.04z"/> <path d="M648.92,348.43l0.1-0.1C648.83,348.19,648.92,348.2,648.92,348.43z"/> <path d="M646.87,345.26h-0.2C646.79,345.39,646.74,345.39,646.87,345.26z"/> <path d="M631.57,328.07c-0.04-0.07-0.09-0.11-0.15-0.11C631.46,328,631.51,328.03,631.57,328.07z"/> <path d="M631.62,328.27c0,0,0.1,0,0.2,0C631.47,327.91,631.62,328.14,631.62,328.27z"/> <path d="M631.52,327.86c-0.03-0.03-0.06-0.06-0.09-0.09C631.43,328,631.37,328.01,631.52,327.86z"/> <path d="M630.7,327.14c0.28,0.18,0.47,0.38,0.73,0.62C631.44,327.38,631.23,327.14,630.7,327.14z"/> <path d="M615.55,312.61c-0.2-0.2-0.51-0.41-0.82-0.61C615.57,312.83,615.42,312.75,615.55,312.61z"/> <path d="M614.02,311.18c0.72,1.07,0.58,0.95,0.72,0.82C614.63,311.59,614.33,311.38,614.02,311.18z"/> <path d="M614.12,311.08l-0.2-0.1C614.05,311.23,613.99,311.21,614.12,311.08z"/> <path d="M719.63,303.61c0.26,0.08,0.5,0.31,0.76,0.49C720.29,303.78,720.13,303.52,719.63,303.61z"/> <path d="M720.39,304.1c0.08,0.29,0.01,0.2,0.27,0.33C720.48,304.08,720.71,304.36,720.39,304.1z"/> <path d="M553.03,413.21c0.31-0.61,0.61-1.54-0.51-1.94c-0.89,0.89,0.64-2.04-5.53,10.03c-0.79,1.55-1.55,5.88,1.33,6.55
		c0-2.7-1.35-5.8,1.84-9.82C551.29,416.59,552.21,414.85,553.03,413.21z"/> <path d="M576.36,402.46c-0.02-0.72-0.31-1.54-1.43-1.23c-1.23,3.27-1.02,9.62,0.72,13.1C576.48,410.37,576.53,410.12,576.36,402.46
		z"/> <path d="M610.64,387.32c-0.41,0.2-0.92,0.31-1.02,0.51c-1.33,3.07-1.74,6.34-2.25,9.52c0,0.41,0.51,0.82,0.92,1.43
		C610.02,396.62,611.65,389.9,610.64,387.32z"/> <path d="M561.93,446.47c-0.1-0.1-0.85-1.1-1.33-0.61c-2.25,1.94-4.5,3.89-5.73,6.75c0.31,0.2,0.61,0.41,0.61,0.41
		C558.04,451.28,560.09,449.03,561.93,446.47z"/> <path d="M559.17,435.01c0.31,0,0.61-0.1,0.72-0.2c5.83-5.82,7.14-6.88,5.94-8.08C557.75,435.84,558.68,434.52,559.17,435.01z"/> <path d="M519.77,511.66c0.51-0.82,0.92-1.54,1.43-2.25C519.26,510.33,519.05,510.84,519.77,511.66z"/> <path d="M612.79,367.87c-1.23,0.61-1.13,1.64-0.61,3.07C612.59,369.82,613.51,369.2,612.79,367.87z"/> <path d="M522.33,506.54c0.41-1.54,0.61-2.46,0.82-3.38C521.4,503.67,521.71,504.7,522.33,506.54z"/> <path d="M551.7,459.05c0.92-0.51,1.33-1.23,1.33-2.87C551.18,458.13,551.08,458.54,551.7,459.05z"/> <path d="M611.87,374.32c-1.13,1.23-1.23,2.15-0.61,3.38C611.97,376.78,612.38,375.86,611.87,374.32z"/> <path d="M576.05,418.22c1.02,0,1.42-0.51,1.23-1.23c-0.11-0.41-0.51-0.61-1.23-1.43C576.05,416.89,576.05,417.51,576.05,418.22z"/> <path d="M611.26,382.2c-0.12-0.06-1.36-0.5-0.72,1.43C611.44,383.18,610.85,383.82,611.26,382.2z"/> <path d="M577.49,421.91c-0.1,0.51,0.1,1.02,0.72,0.92c0.2,0,0.51-0.41,0.92-0.72C578.46,421.58,577.9,420.67,577.49,421.91z"/> <path d="M524.27,498.76c0.72-0.92,1.02-1.54,0.2-2.46C524.37,497.12,524.37,497.74,524.27,498.76z"/> <path d="M547.81,464.07l-0.1-0.1C547.74,464.1,547.69,464.11,547.81,464.07z"/> <path d="M547.08,465.42c-0.23,0.33-0.3,0.39,0.01,0.08c0.77-0.29,0.73-0.84,0.63-1.41C546.94,464.22,546.99,464.85,547.08,465.42z"/> <path d="M577.49,397.76c0.04-0.09,0.08-0.17,0.12-0.26C577.27,397.73,577.15,397.59,577.49,397.76z"/> <path d="M578.2,396.32l-0.1-0.1C578.01,396.44,577.84,397.28,578.2,396.32z"/> <path d="M577.98,396.77c-0.12,0.24-0.25,0.48-0.37,0.73C577.86,397.33,577.94,397.05,577.98,396.77z"/> <path d="M577.38,397.76c0,0.18-0.03,0.19,0.1,0.1L577.38,397.76z"/> <path d="M577.38,397.92c-0.69,0.39-0.38,0.52-0.2,0.86C577.45,398.51,577.38,398.56,577.38,397.92z"/> <path d="M548.07,463.82c-0.03,0.06-0.16,0.16-0.16,0.25C547.98,464,548.03,463.92,548.07,463.82z"/> <path d="M578.3,396.42l0.1-0.2C578.15,396.35,578.17,396.29,578.3,396.42z"/> <path d="M655.87,229.41c-0.51-2.25-1.74-3.89-3.07-5.83c-1.23,1.33-0.72,2.25-0.31,3.17C653.42,228.49,653.83,228.8,655.87,229.41z
		"/> <path d="M581.37,265.64c-0.1-0.1-0.31,0.2-0.51,0.41c1.64,2.46,2.05,2.66,4.71,2.25C584.55,266.76,583.11,265.95,581.37,265.64z"/> <path d="M624.66,152.86c-0.82-1.33-1.74-1.43-2.56-1.43c-1.02-0.2-2.15-0.51-3.27,0.51C620.57,153.17,622.31,153.17,624.66,152.86z
		"/> <path d="M615.25,195.33c0.93,0.93,2.32-1.19,1.02-3.79C614.84,194,614.84,194,615.25,195.33z"/> <path d="M660.68,236.98c0.51-1.54,0.41-1.84-0.31-2.25c-0.31-0.2-0.72-0.2-1.02-0.1C658.08,235.39,660.3,236.68,660.68,236.98z"/> <path d="M593.86,267.48c0.82,0.72,1.54,1.02,2.87,0.1C595.09,266.46,595.09,266.46,593.86,267.48z"/> <path d="M643.08,256.53c-0.02-0.04-0.03-0.07-0.05-0.04c-0.09-0.1-0.02-0.08-0.09,0.02c-1.04,0-1.56-0.26-2.62,1.86
		C643,258.54,642.38,256.53,643.08,256.53z"/> <path d="M589.56,268.5c0,0.61,0.51,0.82,1.02,0.72c0.2,0,0.41-0.41,0.61-0.61c-0.31-0.31-0.61-0.61-1.02-1.02
		C589.87,267.99,589.56,268.2,589.56,268.5z"/> <path d="M636.74,261.03c-0.52-1.05-0.36-0.46-1.02,0.2C636.2,261.56,635.86,261.47,636.74,261.03z"/> <path d="M615.25,186.84c-0.57,0.57-0.46-0.01-0.2,1.74C615.76,187.14,615.63,187.6,615.25,186.84z"/> <path d="M751.76,269.02c2.15,0.41,3.71-0.18,5.01-1.43c0.52-0.5,0.41-1.13-0.51-2.05C751.42,267.96,752.93,266.97,751.76,269.02z"/> <path d="M713.49,150.82c2.35-0.2,4.3,0.31,6.45-1.84C717.38,149.18,715.43,148.36,713.49,150.82z"/> <path d="M754.12,251.62c-0.51-1.54-0.51-1.54-2.66-0.92C752.28,251.72,752.28,251.72,754.12,251.62z"/> <path d="M723.11,184.38c-0.61,0.51-0.51,1.02,0,1.54C723.72,185.41,723.62,184.9,723.11,184.38z"/> <path d="M748.28,199.43l-0.1-0.31C748.05,199.51,748.02,199.43,748.28,199.43z"/> <path d="M743.68,268.71l-0.1,0.31C743.96,268.89,743.95,268.98,743.68,268.71z"/> <path d="M667.54,166.58c2.69,2.37,4.91,3.54,11.97-0.31c0.72-2.15,2.87-2.55,4.61-3.48c10.58-5.65,11.14-6.65,13.92-6.65
		c0.31,0,0.72-0.31,1.13-0.51c-0.85-1.28-0.91-0.25-0.1-2.66c-1.13-0.72-1.95-0.21-2.66,0.2c-15.76,9.26-15.98,9.39-16.27,10.23
		c-0.79,2.26-2.77,2.54-4.5,3.07c-1.95,0.59-3.97,0.58-5.83-0.72c-0.61-0.42-1.33-0.51-2.25-0.92c-0.2,0.72-0.41,0.92-0.31,1.02
		C667.34,166.17,667.34,166.48,667.54,166.58z"/> <path d="M665.39,164.84c0-2.31-14.45-3.96-18.52-4.61c-0.92-0.2-1.94-0.2-2.76,1.02c6.65,2.05,13.33,2.15,19.85,3.68
		C664.37,165.04,664.88,164.84,665.39,164.84z"/> <path d="M684.94,144.27c0-0.2-0.41-0.51-0.72-0.92c-0.41,0.51-0.82,0.82-0.92,1.23c-2.66,7.21-1.92,6.04-1.54,7.57
		C683.71,149.49,684.89,146.73,684.94,144.27z"/> <path d="M680.54,154.5c-1.33,1.94-1.33,2.35,0.1,4.71C681.05,157.37,681.36,155.93,680.54,154.5z"/> <path d="M653.01,141.81c0.51-0.51,0.04-2.15-1.13-2.15C650.98,140.82,652.55,142.27,653.01,141.81z"/> <path d="M689.13,135.57c0.82-0.82,0.82-1.74-0.1-3.07C688.21,135.06,688.21,135.57,689.13,135.57z"/> <path d="M642.78,157.78c-1.33-0.1-2.35-0.2-3.89-0.31C641.14,158.8,641.14,158.8,642.78,157.78z"/> <path d="M655.47,146.42c-0.1-0.31-0.31-0.51-0.51-0.82c-0.2,0.1-0.31,0.2-0.61,0.41C655.3,146.65,655.12,146.76,655.47,146.42z"/> <path d="M688.32,140.28c-0.56,0-0.62-0.35-0.2,1.74C688.32,140.99,688.32,140.69,688.32,140.28z"/> <path d="M669.79,182.34c0.27,0,0.23,0.05,0.1-0.2L669.79,182.34z"/> <path d="M656.49,76.11c2.48,0.93,2.06,0.9,2.87-0.31c-2.05-5.12-10.95-6.65-14.94-2.05c3.24-0.93,4.05-1.98,4.81-0.92
		c-1.43,0.82-2.76,1.74-4.4,2.76c0.82,0.61,1.43,1.02,1.84,1.23c1.43-0.2,1.94-1.94,3.48-1.64c0.72,1.64,2.15,2.35,4.09,2.46
		C654.95,77.14,655.77,76.62,656.49,76.11z"/> <path d="M677.98,70.38c-1.57,0.45-2.87,2.79-5.22,5.53c0.2,0.31,0.61,0.61,1.02,0.92c0.82-0.72,1.64-1.23,2.76-2.05
		c0.92,2.05,2.97,1.43,4.61,1.94c0.61-0.72,1.23-1.54,1.74-2.15c1.74-0.2,3.07,1.64,4.91,0.41c-1.64-1.74-4.09-1.74-5.73-3.27
		c2.48-0.9,5.94,1.88,5.94,0.51C684.94,70.18,681.56,69.77,677.98,70.38z"/> <path d="M678.59,105.28c0.2-0.1,0.51-0.61,0.51-0.82s-0.51-0.72-0.72-0.61c-2.56,0.9-9.54-2.05-13.82-1.13
		c-2.45,0.53-4.81,1.54-7.27,1.84C654.88,106.99,675.04,105.92,678.59,105.28z"/> <path d="M675.52,108.76c-0.41,0-0.82-0.2-1.13,0c-3.17,2.11-11.23,1.83-14.63,0.2c-0.61,1.13-0.1,1.43,0.41,1.54
		c1.64,0.61,3.17,1.45,4.91,1.74C673.65,113.65,676.69,108.76,675.52,108.76z"/> <path d="M672.66,67.52c15.71-3.04,13.04-0.22,16.58-1.74C675.45,61.54,664.1,69.17,672.66,67.52z"/> <path d="M660.99,69.05c-0.51-1.13-0.61-1.64-1.02-1.84c-4.91-2.87-10.13-3.58-15.56-1.54c-0.1,0.1-0.1,0.61-0.31,1.02
		C649.84,65.37,655.16,66.29,660.99,69.05z"/> <path d="M673.37,94.94c2.21,0,2.92-3.44,1.02-4.71c-0.92,1.23,0.72,2.76-1.23,3.68c-1.13-1.13-2.46-1.74-4.09-0.1
		C670.51,95.25,671.94,95.04,673.37,94.94z"/> <path d="M687.7,41.11c-0.1-0.92-0.41-1.84-0.41-2.87c0-0.92,0.2-1.84,0.31-3.07c-2.27,0.76-0.99,0.41-3.38,5.53
		C685.45,41.42,686.47,42.03,687.7,41.11z"/> <path d="M655.77,78.67c-1.74-0.51-2.87-0.72-3.99,0.41C653.11,79.8,654.24,79.9,655.77,78.67z"/> <path d="M666.01,94.94c0-1.33-0.82-1.64-1.74-1.43C663.21,93.81,662.7,95.77,666.01,94.94z"/> <path d="M670.71,70.79c-0.31,0.72-1.02,1.43-0.61,2.35c1.02-1.43,1.02-1.43,1.33-3.07C671.12,70.38,670.71,70.59,670.71,70.79z"/> <path d="M690.67,63.42c0-0.61,0-1.33-0.1-2.25C689.27,62.9,689.77,63.78,690.67,63.42z"/> <path d="M644.82,45.1c0-0.65,0.63-0.46-0.51-1.02C643.88,44.93,644.15,44.43,644.82,45.1z"/> <path d="M661.91,76.21c-0.41-0.72-0.72-1.13-1.13-1.84C660.58,75.91,660.58,75.91,661.91,76.21z"/> <path d="M681.05,76.83c0,0.01,0,0.02,0.01,0.02C681.17,76.71,681.21,76.67,681.05,76.83z"/> <path d="M680.03,78.06c1.68,0.84,1.27-0.42,1.03-1.21C680.76,77.3,680.4,77.68,680.03,78.06z"/> <path d="M660.89,94.12c0.2,0.2,0.31,0.51,0.51,0.82c0.65-0.65,0.75-0.07-0.2-1.02C661.09,93.92,660.89,94.12,660.89,94.12z"/> <path d="M669.28,91.16c0.1,0-0.2-0.2-0.31-0.41c-0.67,0.67-0.99,0.45-0.31,1.13C668.87,91.57,669.18,91.36,669.28,91.16z"/> <path d="M669.18,76.83c-0.39,0.77-0.1,0.51-0.1,0.82C669.42,76.97,669.18,77.22,669.18,76.83z"/> <path d="M661.71,90.34c-0.35,0.18-0.51,0.2-0.51,1.02c0.1-0.31,0.31-0.51,0.61-0.72C661.81,90.64,661.71,90.44,661.71,90.34z"/> <path d="M641.65,51.96c0.67,0,0.31-0.22,0.31-0.41C641.85,51.65,641.65,51.56,641.65,51.96z"/> <path d="M643.39,47.15c-0.2-0.31-0.31-0.51-0.41-0.61C643.08,46.74,643.18,46.95,643.39,47.15z"/> <path d="M660.58,91.77c0,0.1,0.2,0.31,0.31,0.51c0.39-0.39,0.2-0.77,0.2-1.02C660.99,91.46,660.68,91.57,660.58,91.77z"/> <path d="M640.52,53.39c0.1,0,0.2,0,0.31,0.1C640.83,53.39,640.73,53.29,640.52,53.39z"/> <path d="M688.32,299.82c-0.2,0.2,0.2,0.61,0.41,1.33c3.78-2.27,5.74-9.84,4.71-12.79C692.2,284.83,692.09,294.07,688.32,299.82z"/> <path d="M632.34,290.92c-0.79,4.06,1.32,9.55,3.27,11.15c0.92-2.19-0.19-1.46-2.15-13.2C632.95,289.89,632.44,290.4,632.34,290.92z
		"/> <path d="M658.94,297.47c2.96-0.89,1.94-1.43,5.94-0.1c0.92-0.82,1.84-1.13,2.15-2.46C663.74,292.77,658.18,293.66,658.94,297.47z"/> <path d="M689.65,283.14c0.2-0.61,0.51-1.13,0.41-1.43c-0.51-2.05-1.53-3.89-3.48-4.71c-1.85-0.77-1.75-1.43-3.99-3.99
		c-0.31,0.92-0.51,1.33-0.31,1.64c2.04,4.09,2.77,1.13,6.34,7.68C688.72,282.63,689.13,282.73,689.65,283.14z"/> <path d="M636.23,277.92c-1.25,1.83-1.33,2.87-0.51,4.81c1.23-2.15,2.46-4.2,3.58-6.45C637.66,275.87,636.93,276.89,636.23,277.92z"/> <path d="M692.2,262.57c-2.35,1.74-3.27,3.89-4.09,6.55c0.51-0.1,0.72-0.1,0.82-0.1C692.86,262.34,692.58,265.18,692.2,262.57z"/> <path d="M673.37,262.98c-0.41-0.2-0.92-0.51-1.33,0c1.74,2.56,2.35,3.07,4.09,3.17C674.91,264,674.81,263.9,673.37,262.98z"/> <path d="M640.52,271.47c-0.71,0.83-1.54,1.64-0.82,3.17c1.99-1.99,1.72-1.82,2.97-3.38C641.75,270.65,641.04,270.86,640.52,271.47z
		"/> <path d="M838.44,575.51c-2.56-1.64-5.12-3.68-8.49-3.07c-8.31,8.31-6.66,5.66-6.96,8.9c1.31-0.92,1.17-0.73,7.16-6.24
		c1.95-1.79,4.77-0.12,5.32,0.82c0.9,1.54,2.25,2.35,4.09,2.56C840.08,577.05,839.36,576.03,838.44,575.51z"/> <path d="M818.69,549.01c2.21-0.41,2.33-2.47,1.23-2.76c-1.95-0.52-7.33-0.1-8.19,0c-3.08,0.36-3.08,2.73-1.84,3.27
		C812.07,550.34,814.96,549.69,818.69,549.01z"/> <path d="M820.43,551.67c-2.61-0.67-8.39-1.17-8.39,1.33c0,3.33,9.95,2.01,9.31,0.1C821.25,552.59,820.84,551.77,820.43,551.67z"/> <path d="M98.96,417.92c1.59-0.53,0.78-1.76-1.13-6.45c-2.14-5.28,1.51-5.52,0.61-11.77c0-0.51-0.2-1.02-1.13-1.02
		c-0.1,0.51-0.42,1.02-0.51,1.54c-0.33,1.74-0.22,3.58-0.82,5.22c-1.68,4.59,0.37,8.36,2.35,12.18
		C98.45,417.81,98.76,417.81,98.96,417.92z"/> <path d="M230.46,410.34c-0.03,1.43,1.13,2.25,1.74,3.27c1.95,3.27,4.9,4.96,8.49,5.73c0.51,0.11,1.02,0.2,1.23-0.72
		c-2.3-2.46-2.12,0.19-9.52-7.78c-0.31-6.14-0.31-6.14-1.43-6.86C229.95,406.04,230.51,408.19,230.46,410.34z"/> <path d="M185.84,314.97c0.03-0.03,0.07-0.07,0.1-0.1C185.9,314.89,185.84,314.91,185.84,314.97z"/> <path d="M186.67,314.15l0.1-0.1c-1.03,1.03-0.82,0.49-0.82,2.46c5.82-6.04,13.19-9.72,20.76-13.41c-1.11-1.35-1.18-1.13-0.51-1.13
		c0.1-0.1,0.1-0.31,0.2-0.41c-0.35,0-0.03-0.23-0.72,0.31c-0.14-0.14-0.11-0.13-0.01,0.01c-0.04,0.03-0.07,0.06-0.12,0.09
		c-3.74,2.87-6.96,3.56-11.83,6.34c-5.76,3.3-6.82,4.62-6.97,5.01C187.01,313.59,187.13,313.87,186.67,314.15z"/> <path d="M186.75,313.34c0-0.01,0-0.01,0.01-0.02c-0.03-0.03-0.06-0.06-0.09-0.09C186.72,313.27,186.74,313.31,186.75,313.34z"/> <path d="M186.75,313.34C186.7,313.49,186.81,313.46,186.75,313.34L186.75,313.34z"/> <path d="M135.39,306.47l0.1,0.1C135.49,306.49,135.48,306.5,135.39,306.47z"/> <path d="M134.57,305.65l0.1,0.1C134.74,305.71,134.77,305.69,134.57,305.65z"/> <path d="M136.62,305.45c-0.51-0.31-1.23-0.2-1.84-0.31c0.09,0.18,0.16,0.37-0.04,0.55c1.31,0.31,16.63,11.08,17.54,18.39
		C154.6,326.41,154.06,316,136.62,305.45z"/> <path d="M125.16,299.31c-3.67-3.67-16.54-4.01-18.2-2.56c1.57,0,3.13,0,4.69,0.1c0.85,0,3.04,1.13,3.79,1.13
		c2.91,0.16,3.86,1.23,7.17,1.73l-0.01,0.01c0.4,0,0.98-1.15,1.52-0.09c0,0.12,0.18,0.09-1.4,0.09c0.21,0.76,0.76,0.72,1.4,0.62
		C124.13,299.51,124.26,299.6,125.16,299.31z"/> <path d="M106.74,296.75l0.1,0.1C107.01,296.72,107,296.75,106.74,296.75z"/> <path d="M232.71,435.62c-0.72,2.46-0.68,3.51,1.13,7.27c0.59,1.24,1.02,2.76,2.87,3.27c0.41-2.87-0.77-5.14-1.64-7.47
		C234.68,437.66,234.45,436.23,232.71,435.62z"/> <path d="M250.21,416.79c1.02-1.33,1.14-1.33,1.02-4.09c-0.09-2.15,0.61-4.5-1.64-6.86c-1.02,3.27-0.51,6.04-0.51,8.8
		C249.09,415.46,249.29,416.38,250.21,416.79z"/> <path d="M253.9,443.6c0.2,0.1,0.51,0.1,0.92,0.2c0.72-2.97,0.41-5.94,0.1-8.9c-0.1-0.41-0.61-0.82-0.92-1.23
		c-1.33,1.54-1.13,3.17-1.13,4.91S252.77,442.07,253.9,443.6z"/> <path d="M125.77,296.65c-0.2-0.2-0.31-0.61-0.61-0.92c-4.99-3.08-13.82-5.55-17.09-3.68c3.87,1.16,7.65-0.16,15.96,4.09
		C124.54,296.44,125.16,296.54,125.77,296.65z"/> <path d="M117.18,402.77c1.01,0.93,2.25,1.64,3.99,0.41c-1.43-1.23-2.66-2.15-3.68-3.17c-1.13-1.13-1.23-2.97-2.97-3.99
		C113.8,399.09,115.31,401.05,117.18,402.77z"/> <path d="M213.99,297.36c5.63-0.72,11.26-2.25,16.99-2.46C226.98,293.99,217.88,295.21,213.99,297.36z"/> <path d="M201.81,371.76c1.33-2.15,0.79-4.29,0.1-6.55C201.12,362.61,198.61,362.53,201.81,371.76z"/> <path d="M98.55,432.24c0.61,0.1,1.13-0.2,0.92-0.72c-0.61-1.84-0.23-3.69,0.2-5.53c0.19-0.82,0-1.74,0-2.56
		C97.63,426.31,97.53,427.64,98.55,432.24z"/> <path d="M136.72,367.46c0.51-0.31,1.12-0.51,1.23-0.82c0.7-2.05,0.6-4.19-0.1-6.24c-0.1-0.31-0.72-0.51-1.23-0.82
		C136.01,362.35,135.8,364.8,136.72,367.46z"/> <path d="M166.4,318.04c-0.51,3.89-0.92,7.78-1.33,11.77c0.2-0.1,0.61-0.1,0.61-0.2C166.91,325.92,167.01,322.03,166.4,318.04z"/> <path d="M102.03,503.57c0.2-1.84,0.31-3.79-0.51-5.94c-0.88,1.17-0.61,0.88-0.61,5.32C100.9,503.47,101.21,503.88,102.03,503.57z"/> <path d="M134.98,305.86l-0.1-0.1C134.88,305.88,134.92,305.88,134.98,305.86z"/> <path d="M134.9,305.87c-1.44,0.19-3.61-2.4-5.17-2.27c1.55,2.08,4.05,2.8,6.38,4.72c-0.27-0.89-0.38-1.32-0.47-1.69
		C135.24,306.52,134.94,306.32,134.9,305.87z"/> <path d="M176.74,327.86l0.1,0.1C176.91,327.86,176.94,327.86,176.74,327.86z"/> <path d="M177.45,327.86c5.33-3.46,6.96-10-0.55,0.01C177.08,327.9,177.3,327.94,177.45,327.86z"/> <path d="M112.98,448c1.21-1.3,2.64-4.41,1.84-4.81C114.41,442.78,112.33,444.44,112.98,448z"/> <path d="M135.19,350.17c0.89-1.12,0.86-3.99-0.2-3.99c-1.12,0-0.94,1.46-0.72,3.48C134.37,349.86,134.88,349.96,135.19,350.17z"/> <path d="M129.36,303.41c-1.63-1.68-2.76-2.28-5.13-2.88C125.91,302.11,126.93,302.64,129.36,303.41z"/> <path d="M129.36,303.41c0.21,0.24,0.18,0.18,0.37,0.18C129.66,303.49,129.66,303.5,129.36,303.41z"/> <path d="M111.55,454.35c2.12-4.24-1.2-5.16-0.82-1.02C110.73,453.63,111.24,453.94,111.55,454.35z"/> <path d="M113.39,394.58c0.61-1.33,0.1-2.35-0.72-3.27C111.34,392.43,111.45,392.95,113.39,394.58z"/> <path d="M103.36,489.76c0-0.37-2.04-0.32-0.72,2.87C103.87,491.6,103.77,490.68,103.36,489.76z"/> <path d="M168.04,298.28c0.2-1.02,0.41-1.94,0.61-3.07C167.02,295.47,166.4,298.47,168.04,298.28z"/> <path d="M185.84,314.25c0.69-0.36,0.61,0.4,0.61-0.8c-0.95,0.24-0.43,0.77-0.61,0.58c0,0.07,0,0.11,0,0.14
		c-1.77,0.35-2.58,1.84-3.79,2.94c0.72-0.54-0.54,0.55,3.79-2.18C185.84,314.78,185.84,314.43,185.84,314.25z"/> <path d="M243.56,476.55c1.22,0-0.03-3.01-0.61-1.84C242.74,475.53,242.95,476.35,243.56,476.55z"/> <path d="M240.49,458.85c0.2,0.92-0.2,1.84,1.23,2.35C241.72,459.67,241.72,459.67,240.49,458.85z"/> <path d="M135.19,355.7c0.1,0,0.31,0,0.41,0c0.83-1.66,0.57-0.97-0.2-1.74C134.66,355.41,134.82,354.97,135.19,355.7z"/> <path d="M111.24,387.42c-0.33,1-0.74,0.52,0.61,2.15C111.85,387.25,112.33,388.51,111.24,387.42z"/> <path d="M183.51,319.62c-1.16,0.61-1.56,1.62-1.45,2.92C183.53,322.05,183.68,320.89,183.51,319.62z"/> <path d="M183.59,319.57l-0.1-0.1C183.52,319.63,183.47,319.65,183.59,319.57z"/> <path d="M242.64,468.27c0.51-1.23,0.1-1.74-0.82-2.46C241.62,466.93,241.92,467.55,242.64,468.27z"/> <path d="M121.78,409.22c0.25-1.23,0.63-0.9-0.2-2.15c0-0.1-0.31,0-0.31,0C120.9,408.57,120.59,408.33,121.78,409.22z"/> <path d="M210.61,301.87c-0.1-0.1-0.1-0.2-0.1-0.31c-0.64,0.21-0.69-0.05-1.84,0.72C208.91,302.77,208.54,302.9,210.61,301.87z"/> <path d="M109.19,460.59c0.37-1.47,0.76-1.05-0.2-1.54C108.61,460.59,108.54,460.26,109.19,460.59z"/> <path d="M239.16,454.76c0.31,0.41,0.61,0.82,1.02,1.33C240.59,455.06,240.08,454.65,239.16,454.76z"/> <path d="M254.1,428.76c0-1.24,0.5-0.96-0.61-1.33C253.31,428.13,252.73,428.31,254.1,428.76z"/> <path d="M185.03,317.22l-0.1-0.1C184.96,317.34,184.82,317.32,185.03,317.22z"/> <path d="M183.59,319.57c0.87-0.58,1.35-1.26,1.32-2.28C184.07,317.8,183.59,318.49,183.59,319.57z"/> <path d="M130.38,299.61c-0.68-0.57-1.27-1.14-2.18-1.38C128.63,299.23,129.41,299.52,130.38,299.61z"/> <path d="M179.91,320.29c0.37-0.75,1.16-1.24,1.23-2.16C180.74,318.86,180.29,319.53,179.91,320.29z"/> <path d="M181.24,317.93c0.03-0.05,0.07-0.09,0.1-0.13c-0.15,0.02-0.2,0.02-0.19,0.04l-0.01-0.01
		C181.16,318.07,181.08,318.31,181.24,317.93z"/> <path d="M125.67,296.75c0.06,0,0.1,0.02,0.15,0.02C125.75,296.62,125.81,296.61,125.67,296.75z"/> <path d="M128.02,298.18c0.48,0.08-0.66-1.35-2.19-1.41C126.53,298.45,128.22,297.98,128.02,298.18z"/> <path d="M105.1,296.85c0.82,0.61,1.33,0.1,1.74-0.2C106.33,296.85,105.82,296.85,105.1,296.85z"/> <path d="M104.46,480.73c0.03,0.03,0.03-0.02,0.11-0.21c-0.07,0.05-0.13,0.1-0.19,0.13c0,0.21-0.06,0.18,0.1,0.1L104.46,480.73z"/> <path d="M104.37,480.81c-0.52,0.32-0.68,0.81-0.19,1.68C104.27,481.76,104.35,481.27,104.37,480.81z"/> <path d="M109.4,383.84c-0.1,0.2-0.41,0.41-0.41,0.61c0,0.2,0.31,0.41,0.41,0.61C110.13,384.34,109.66,384.61,109.4,383.84z"/> <path d="M198.23,353.65c0,0-0.2,0.1-0.2,0.2c0,0.41,0.1,0.82,0.1,1.23c0.1,0,0.31,0,0.51,0
		C198.64,354.23,199.03,353.65,198.23,353.65z"/> <path d="M104.9,480.24c0,0-0.1-0.2-0.1-0.31C104.64,480.38,104.39,480.82,104.9,480.24z"/> <path d="M199.97,359.89c0-0.22,0.43,0.14,0-0.72C199.78,359.36,199.65,359.25,199.97,359.89z"/> <path d="M124.14,300.43l0.1-0.1C124.11,300.33,124.14,300.34,124.14,300.43z"/> <path d="M176.43,328.17c0.1-0.1,0.2-0.2,0.31-0.31C176.53,327.86,176.43,327.96,176.43,328.17z"/> <path d="M179.81,320.29c-0.25,0.12-0.33,0.14,0.1,0H179.81z"/> <path d="M181.96,317.01c-0.17,0.35-0.41,0.54-0.61,0.79C181.72,317.72,181.96,317.44,181.96,317.01z"/> <path d="M185.84,316.4c-0.04,0.04-0.06,0.06-0.1,0.1C186,316.5,185.98,316.53,185.84,316.4z"/> <path d="M185.13,317.22c0.18-0.27,0.37-0.47,0.61-0.72C185.38,316.51,185.21,316.79,185.13,317.22z"/> <path d="M186.46,314.25l0.1-0.1C186.44,314.15,186.46,314.12,186.46,314.25z"/> <path d="M186.56,313.43l-0.1-0.1C186.46,313.48,186.43,313.47,186.56,313.43z"/> <path d="M134.88,305.04C134.68,304.94,134.88,305.24,134.88,305.04L134.88,305.04z"/> <path d="M130.28,299.72l0.2,0.1C130.35,299.56,130.41,299.58,130.28,299.72z"/> <path d="M162.61,213.35c-2.77-7.92-4.09-4.98-3.68-3.79C159.53,211.3,160.36,212.94,162.61,213.35z"/> <path d="M88.11,249.47c-0.61,1.43,0.2,1.84,0.92,2.35c1.02,0.82,2.15,1.23,3.48,0.61C91.49,250.8,89.95,250.08,88.11,249.47z"/> <path d="M131.3,136.7c-1.74-1.84-3.68-1.54-6.34-1.02C127.41,137.1,129.15,137.41,131.3,136.7z"/> <path d="M122.19,179.57c1.64-1.23,1.64-1.33,0.72-3.79C121.78,177.02,121.58,178.14,122.19,179.57z"/> <path d="M100.7,251.41c0.82,0.72,1.64,1.02,2.97,0.31C102.13,250.49,102.13,250.49,100.7,251.41z"/> <path d="M168.04,220.3c-0.26-2.63-3.21-1.91-1.54,0.1C167.01,220.92,167.53,220.92,168.04,220.3z"/> <path d="M96.3,252.23c0.31,1.23,0.92,1.33,1.94,0.61C97.94,251.62,97.22,251.52,96.3,252.23z"/> <path d="M122.19,170.67c-0.84,0.84-0.99,0.26-0.2,1.43C122.6,171.49,122.81,171.6,122.19,170.67z"/> <path d="M147.16,242.41c1.79-0.19,1.84-0.21,2.13-1.91C148.15,240.64,147.55,241.32,147.16,242.41z"/> <path d="M149.29,240.5c0.15-0.04,0.12,0,0.12-0.15C149.26,240.39,149.33,240.3,149.29,240.5z"/> <path d="M142.97,245.58c0.62-0.31,0.78-0.28,0.41-1.02C142.15,245.37,142.57,244.79,142.97,245.58z"/> <path d="M259.12,251.82c-0.2,0.2-0.2,0.72-0.31,1.02c3.85,0.73,5.6-1.77,4.81-2.56C263.03,249.12,260.04,250.7,259.12,251.82z"/> <path d="M226.57,133.52c-4.42-1.2-4.91,0.01-6.45,1.13C222.89,134.85,224.73,134.96,226.57,133.52z"/> <path d="M260.86,235.86c0-1.74-0.2-1.74-2.56-1.13C259.01,235.65,259.01,235.65,260.86,235.86z"/> <path d="M230.67,169.14c-0.41-0.31-0.61-0.51-0.92-0.61c-0.2,0.2-0.41,0.41-0.41,0.51C229.87,170.11,229.59,169.95,230.67,169.14z"/> <path d="M254.92,183.26c-0.1-0.1-0.2-0.31-0.2-0.41c-0.25,0.25-0.31,0.3,0.1,0.72C254.82,183.46,254.92,183.36,254.92,183.26z"/> <path d="M250.73,252.74c-0.1-0.1-0.46-0.05-0.1,0.31c0.1,0.1,0.2-0.1,0.31-0.1C250.83,252.85,250.83,252.74,250.73,252.74z"/> <path d="M180.01,152.76c0.11-0.03,4.99-0.71,6.14-2.46c1.81-2.76,4.77-2.98,11.05-6.86c10.05-6.21,8.39-0.62,8.39-6.65
		c-2.39-0.28-8.33,3.86-11.97,6.24c-2.66,1.74-6.24,2.25-7.57,5.73c-2.66,1.94-6.96,2.97-9.21,1.23
		C171.29,146.3,174.17,154.16,180.01,152.76z"/> <path d="M205.59,139.97c0.06-0.06,0.04-0.05,0-0.03V139.97z"/> <path d="M172.85,148.46c-5.1-2.78-11.95-3.44-20.16-4.4c-0.51,0-1.02,0.41-2.25,0.92c7.16,2.35,14.02,2.56,20.67,3.99
		C171.41,148.98,171.72,148.77,172.85,148.46z"/> <path d="M189.53,135.06c3.19-7.74,2.48-6.32,1.33-7.47c-1.43,2.66-2.76,5.12-2.66,8.7C189.02,135.57,189.43,135.37,189.53,135.06z"/> <path d="M187.58,138.84c-1.39-0.69-1.73,2.77-0.51,4.3C188.2,141.51,188.1,140.17,187.58,138.84z"/> <path d="M196.08,116.64c-1.33,1.74-1.33,1.74,0,3.07C196.59,118.68,196.69,117.76,196.08,116.64z"/> <path d="M148.59,142.63c0.51,0,0.92-0.2,0.61-1.02c-0.92,0-2.05,0-3.27,0C147.77,142.73,147.77,142.73,148.59,142.63z"/> <path d="M159.75,126.05c0.41-1.23,0.2-1.94-1.02-2.46C158.32,124.72,158.62,125.54,159.75,126.05z"/> <path d="M194.75,124.21c-0.54,1.08-0.64,0.5,0.41,1.02C195.85,124.54,195.28,124.74,194.75,124.21z"/> <path d="M162.2,130.35c-0.45-0.89-0.65-0.89-1.13-0.41C162.24,130.72,161.88,130.83,162.2,130.35z"/> <path d="M164.66,60.05c0.61,0.2,1.23-0.72,1.02-1.23c-0.46-1.86-4.87-5.13-9.62-4.4c-0.6,0.09-6.11,1.2-4.61,2.46
		c1.43-0.1,2.56-1.54,4.5-0.92c-4.87,2.92-4.06,2.41-4.3,3.38c1.85,1.11,0.93,1.16,5.01-1.23c0.72,2.25,2.25,2.66,4.09,2.87
		C164.08,58.6,162.24,59.64,164.66,60.05z"/> <path d="M184.41,53.8c-1.57,0.45-2.87,2.79-5.22,5.53c1.19,0.8,0.6,1.21,2.35-0.1c2.5-1.87-0.67-0.35,5.95,0.81
		c-0.03,0.03-0.07,0.09-0.02,0.06c-0.29,0.44-0.64,0.81-1.01,1.18c1.67,0.84,1.28-0.4,1.04-1.2c0.13-0.11,0.57-0.57,1.84-2.09
		c1.74-0.2,3.07,1.64,4.91,0.41c-1.64-1.74-4.09-1.74-5.73-3.27c2.48-0.9,5.94,1.88,5.94,0.51C191.37,53.6,187.99,53.19,184.41,53.8
		z"/> <path d="M163.64,88.7c1.3,0.7,1.97,1.09,15.66,0.41c4.84-0.24,3.55,0.53,6.45-0.92c-0.1-0.31-0.1-0.51-0.2-0.72
		c-6.95,0-2.75-0.08-8.7-1.13c-7.98-1.4-6.99,1.33-12.28,1.33C164.15,87.68,163.53,87.78,163.64,88.7z"/> <path d="M176.94,93.51c-1.84-0.2-3.79-0.35-5.63,0c-1.95,0.37-3.48-1.23-5.63-0.82c0.31,0.51,0.41,0.92,0.61,1.02
		c1.02,0.31,2.25,0.51,3.17,1.02c3.51,1.95,10.58,1.54,12.79-2.66C180.22,91.77,178.78,93.61,176.94,93.51z"/> <path d="M195.77,49.4c-3.07-2.81-14.74-1.89-18.52-0.1c-0.41,0.2-0.72,0.61-1.74,1.54C185.2,50.84,181.22,48.36,195.77,49.4z"/> <path d="M166.81,51.76c0.22-0.65,0.01-1.02-0.2-1.13c-5.01-2.97-10.23-3.58-15.66-1.64c-0.2,0.1-0.2,0.51-0.41,0.92
		C161.72,48.42,165.16,51.99,166.81,51.76z"/> <path d="M179.7,78.26c2.74,0,1.85-3.2,1.74-4.09c0-0.2-0.41-0.31-0.72-0.51c-0.72,1.13,0.92,2.76-1.13,3.58
		c-1.02-1.13-2.46-1.84-3.89-0.2C176.74,78.67,178.37,78.26,179.7,78.26z"/> <path d="M161.79,61.89c-1.23-0.51-2.25-0.41-3.58,0.2C160.36,63.22,160.36,63.22,161.79,61.89z"/> <path d="M170.49,78.47c0.61,0.1,1.23,0,2.05,0c-0.31-1.74-1.02-1.94-1.94-1.64C169.69,77.13,169.93,78.47,170.49,78.47z"/> <path d="M176.53,56.36c1.02-1.33,1.02-1.33,1.33-2.87C176.94,54.62,176.94,54.62,176.53,56.36z"/> <path d="M196.9,47.05c0.61-0.92,0.41-1.64-0.2-2.66C195.87,45.62,195.98,46.33,196.9,47.05z"/> <path d="M167.73,59.64c0.72-0.72,0.21-0.49-0.1-1.43c-0.1,0-0.31-0.1-0.31-0.1c-0.24,0.48-0.6,0.39,0.1,1.43
		C167.53,59.53,167.73,59.64,167.73,59.64z"/> <path d="M151.25,28.22c0.13-0.27-0.06-0.53-1.02-1.33C150.99,28.67,150.52,28.22,151.25,28.22z"/> <path d="M167.22,77.44c0.76,1.15,0.61,0.82,1.13,0.31C167.35,77.09,167.47,77.19,167.22,77.44z"/> <path d="M175.82,74.17c-0.68-0.23-0.78-0.31-1.13,0.72C175.23,74.88,174.93,75.49,175.82,74.17z"/> <path d="M175.61,60.76c0-0.33,0.28-0.72-0.1-0.72C175.51,60.51,175.24,60.76,175.61,60.76z"/> <path d="M149.41,29.75c0.1,0.2,0.2,0.41,0.41,0.61C149.62,30.16,149.62,29.86,149.41,29.75z"/> <path d="M167.63,74.58c0.1-0.2,0.31-0.41,0.61-0.72c0,0-0.1-0.2-0.1-0.31C167.79,73.73,167.63,73.75,167.63,74.58z"/> <path d="M167.53,74.58c-0.1,0.2-0.41,0.2-0.51,0.51c0,0.1,0.2,0.31,0.31,0.51C167.72,75.21,167.53,74.83,167.53,74.58z"/> <path d="M148.39,35.38c0-0.1,0.1-0.2,0.1-0.31c-0.1-0.1-0.1-0.2-0.1-0.2C148.18,34.87,148.07,35.06,148.39,35.38z"/> <path d="M146.96,36.61c0.1,0,0.2,0,0.31,0.1C147.26,36.61,147.16,36.61,146.96,36.61z"/> <path d="M149.11,29.55c0.1,0.1,0.2,0.2,0.41,0.1C149.41,29.65,149.31,29.65,149.11,29.55z"/> <path d="M199.56,271.88c-0.96,1.92-1.14,6.89-4.4,12.08c-0.2,0.2,0.2,0.61,0.31,1.02c0.41-0.2,0.92-0.2,1.13-0.41
		c2.97-3.48,4.5-7.47,3.68-12.18C200.27,272.19,199.76,272.09,199.56,271.88z"/> <path d="M140.41,273.52c-2.62,1.21-0.97,8.76,1.64,12.28c2.29-1.14-1.09-2.8-1.23-11.67C140.81,273.93,140.61,273.72,140.41,273.52
		z"/> <path d="M165.58,281.4c1,0.75,1.37-1.66,6.04,0.2c1.74-1.33,1.74-1.33,2.05-2.76C169.22,277.36,167.11,277.12,165.58,281.4z"/> <path d="M196.9,266.15c-0.79-5.78-4.1-4.04-6.34-7.88c-0.2-0.31-0.72-0.61-1.33-1.13c-0.55,4.4,0.81,0.85,6.86,9.93
		C196.49,266.66,196.9,266.36,196.9,266.15z"/> <path d="M142.66,266.76c1.13-2.25,2.25-4.2,3.48-6.24C144.13,258.85,140.19,265.64,142.66,266.76z"/> <path d="M196.18,252.44c0.59-2.57,2.08-2.52,2.97-4.3c0.1-0.41,0-0.82,0-1.43c-2.56,1.84-2.66,2.15-4.3,6.65
		C195.67,252.85,196.18,252.64,196.18,252.44z"/> <path d="M178.48,246.71c1.13,1.84,2.46,2.97,4.09,3.89c0.51-0.92,0.1-1.43-0.31-1.84C181.34,247.83,180.42,246.71,178.48,246.71z"/> <path d="M147.16,255.61c-0.72,0.72-1.33,1.54-0.61,2.87c1.02-1.02,1.94-1.94,2.97-3.07C148.29,254.69,147.67,255.1,147.16,255.61z"/> <path d="M81.15,540.82c2.19,0,5.5-0.55,11.26,0.51c5.49,1.01,6.5,0.91,7.16-0.82c-1.54-1.84-1.73-1.99-4.09-2.66
		c-3.03-0.86-12.55-2.04-15.15-0.31C78.94,538.34,79.19,540.58,81.15,540.82z"/> <path d="M91.08,549.42c-0.67-0.5-0.86-0.55-10.75-0.72c-1.86-0.03-3.66,0.84-3.27,2.66c0.47,2.21,2.23,1.64,7.06,1.64
		c2.44-0.14,5.57,0.12,6.96-0.72C92.4,551.29,92.16,550.06,91.08,549.42z"/> <path d="M86.99,555.56c-1.47-0.49-2.97-0.31-5.22-0.1c-2.84,0-8.65-0.22-7.37,2.35c1,1.67,1.29,1.79,10.64,1.13
		c0.82-0.1,1.64-0.61,2.35-1.13C88.11,557.3,87.81,555.76,86.99,555.56z"/> <path d="M82.38,562.52c-10.2-2.8-7.9,6.01,0,2.56C83.9,564.57,83.06,562.7,82.38,562.52z"/> <path d="M261.37,558.53c2.01-0.83,1.58-2.85,0.1-3.38c-1.25-0.44-4.69-0.81-4.81-0.82c2.01-1.01,5.7-0.28,5.94-2.87
		c0.49-2.91-4.81-2.95-11.87-3.07c-2.05-0.03-5.13,1.02-4.91,3.58c0.21,2.45,3.1,2.28,6.75,2.66c-2.46,0.72-4.61,1.02-5.32,3.68
		c0.72,0.31,1.23,0.61,1.64,0.51C260.72,558.83,260.3,558.97,261.37,558.53z"/> <path d="M247.96,547.68c3.64-1.36,9.04-0.72,12.08-0.72c3.86,0,3.76-2.42,2.66-3.48c-3.48-3.35-15.62-2.39-18.22,0.2
		C242.54,545.63,244.88,548.83,247.96,547.68z"/> <path d="M264.03,586.46c-12.11-3.13-16.07,8.14-12.49,7.78c3.63-4.84,5.17-6.91,12.48-5.32c0.75,0.16,1.79,2.4,1.94,2.66
		C268.1,590.22,266.65,587.14,264.03,586.46z"/> <path d="M256.66,561.39c-4.99-0.71-4.8,2.1-3.89,2.56C262.1,567.34,261.63,561.39,256.66,561.39z"/> <path d="M261.16,568.55c0-1.84-1.23-2.33-2.46-2.46c-1.74-0.18-3.68-1.13-5.32,1.54C256.15,569.07,258.5,569.48,261.16,568.55z"/> <path d="M77.57,525.37c0.41-0.82,0.41-1.74-0.2-2.46c-1.33,0.92-1.33,0.92-0.72,2.87C76.96,525.68,77.47,525.57,77.57,525.37z"/> <path d="M182.98,6.11l-0.1,0.1C182.88,6.35,182.85,6.37,182.98,6.11z"/> </g> </svg> 