<?xml version="1.0" encoding="utf-8"?> <!-- Generator: Adobe Illustrator 23.0.1, SVG Export Plug-In . SVG Version: 6.00 Build 0)  --> <svg version="1.2" baseProfile="tiny" id="Layer_1" xmlns="http://www.w3.org/2000/svg" xmlns:xlink="http://www.w3.org/1999/xlink" x="0px" y="0px" viewBox="0 0 900 600" xml:space="preserve"> <g> <path d="M756.95,315C757.74,315.99,758.09,316.22,756.95,315L756.95,315z"/> <path d="M754.61,312.6c1.1,1.1,1.85,1.88,2.34,2.4c-0.63-0.78-1.55-2.03-2.24-3.41c-4.66-9.33-4.13-13.33-8.66-23.46
		c-4.39-9.83-3.68-10.96-6.95-18.13c-6.45-14.13-10.75-12.76-12.99-22.05c-3.83-15.92-0.56-13.15-3.52-23.26
		c-2.32-7.9-2.85-10.22-2.52-13.09c0.98-8.53-0.84-24.79-8.36-29c-8.89-4.98-8.44-1.51-24.47-6.44c-7.54-2.32-8.1-5-8.66-8.06
		c-1.58-8.64,2.9-11.04,4.13-20.64c0.6-0.6,1.21,0.1,1.71-0.2c1.21-1.11,2.22-2.11,2.42-3.83c0.24-2.07,2.54-1.41,2.22-6.55
		c-0.11-1.71-0.4-3.32-2.01-4.43c-3.26,0.93-1.88,2.23-2.42-11.68c-0.18-4.56-0.76-5.67-3.23-9.2c0.34,2.5-0.61,0.51-1.39,0.52
		c-0.64,0.01-0.72,0.58-0.62,1.22c0.08,0.32,0.69,0.03,0.92,1.82c0.11,0.91,0.76,1.58,1.51,1.91c0.9-0.75,0.3-1.71,0.7-2.52
		c0.81,0,0.91,1.24,0.7,2.01c-1.36,5.07-1.72,4.2-0.6,6.14c-0.79,3.56-0.72,2.9,0.1,3.83c-0.04-0.2,0.3-0.4,0.3,0.1
		c-0.07,0-0.13,0.01-0.16,0.05c1.42,1.42-0.15,2.11,1.37,8.31c0.49,2.02,0.52,4.13-0.4,6.24c-2.07,4.75-0.15,5.25-5.54,17.72
		c-2.06,4.76-9.2,7.47-13.7,6.75c1.35,1.52,3.04,1.62,5.04,1.51c7.98-3.83,7.75-4.25,8.16-2.11c1.62,8.49-0.16,8.64,16.21,14.1
		c1.87,12.74,2.4,16.71,9.66,23.97c1.83,2.2,2.66,1.45,1.81,0.2c-3.55-5.25-7.59-9.15-8.46-16.01c-0.19-1.51-1.31-2.72-1.41-3.83
		c0.2-1.51,1.91-1.01,1.91-2.32c-0.61-0.7-2.17,0.16-2.52-1.21c1.55-2.32,14.97,1.01,20.64,7.15c0.42,4.65,3.64,8.05,3.42,16.21
		c-0.36,13.62,4.2,22.15,4.33,36.05c0.02,2.42,0.09,2.32,3.32,10.98c3.17,8.49,9.05,11.12,14.3,26.99
		c4.57,13.82,8.91,20.6,12.49,33.03C753.8,311.19,754.11,312.1,754.61,312.6z M687.31,137.65c-0.01,0.87-0.17,1.42-0.17,1.55
		c-0.98,0.08-1.21-0.47-1.7-1.3C685.97,136.12,687.33,135.3,687.31,137.65z M683.41,143.93c0.5-1.01,1.91-1.01,2.22-2.92
		c0.24,2.15-0.38,3.03-1.51,4.43C683.01,145.03,683.31,144.43,683.41,143.93z"/> <path d="M679.43,109.18c0.72,0.74,1.37,1.54,1.96,2.38C681.25,110.46,680.66,109.75,679.43,109.18z"/> <path d="M648.37,122.12C648.54,122.24,648.59,121.94,648.37,122.12L648.37,122.12z"/> <path d="M643.94,142.11c2.52,5.03,2.33,8.51,5.04,9.97c2.21,6.63,2.92,5.96,2.92,9.97c0,13.47-0.03,7.04,3.42,2.72
		c-0.08-1-0.6-1.91-0.26-3.08c0.56-1.96,2.75,4.14,7.61,3.28c-4.35-2.67-6.5-3.77-8.06-7.05c-3.5-7.36-2.22-7.62-3.93-11.28
		c-1.83-3.93-3.69-15.51,0-17.72c0.2-1.21,0.1-2.11-0.2-3.02c-2.09,0.52-0.28,0.1-2.2-3.72c0.03-0.03,0.05-0.05,0.08-0.07
		c-0.1-0.08-0.25-0.32-0.41-0.95c0.46-0.55,0.84,0.06,1.2-0.05c-0.1-0.79-0.29-1.48-0.39-2.37c1.27-0.84,1.14-0.47,0.4-2.32
		c0-1.32,1.6-2.21,1.11-3.83c0.97,0.97,1.76,1.65,2.73,2.62c0.91-1.01-0.6-1.71-0.1-2.62c-0.05-0.05-0.39-0.19-0.4-0.2
		c0.3,0,1.75,0.94,2.01,1.91c0.7-0.4,1.11-0.91,1.01-1.41c0-0.26-0.27-2.2-0.81-3.21c-0.34-0.64-0.5-0.47-0.3-1.36
		c0.09-0.43,0.82-1.85,1.51-0.85c0.64,0.92-0.12,2.25,1.01,4.26c0.72,1.29,2.08,2.34,2.08,2.2c-0.15-1.29-0.73-2.58-0.58-3.95
		c0.84,0.09,0.83,1.63,0.71,0.28c-0.12-1.41-0.6-3.02,0.91-4.33c1.2,2.29,1.71,4.71,1.73,7.27c0.01,1.24,0.15,1.25-0.61,0.63
		c-0.54-0.44-0.39-0.4-0.35-0.25c1.42,2.61,2.71,0.83,4.18,1.71c1.01,0.6,1.71-1.01,2.92-0.2c0.79,0.44,2.24-1.16,2.76-1.69
		c0.26-0.26,0.47,0.59,0.47-0.52c0.11-0.11,0.47-0.1,0.7-0.1c0-0.1,0-1.31,0.1-1.31l-0.02-0.02c0,0,0.01-0.07,0.02-0.08
		c0,0.19-0.09-0.01,0.65-0.01c0.1,0,0.3-0.84,0.68-0.06c0.01,0.01,0.01,0.03,0.02,0.04c0.75-0.22,0.56-0.9,0.77-1.39
		c-0.93-0.31-1.13-2.75-0.3-3.93c1.21,0.4,0.5,1.21,0.81,1.81c0.53,0.53,0.7,1.04,0.7,1.51c0.33-0.11,0.51-0.35,0.66-0.61
		c0.98-1.71,1.72-1.18,1.45-0.09c-0.26,0.79-2.29,2.62-0.81,2.62c0,1.29,0.14,2.45,1.48,2.81c0.08,0,0.16-0.53,0.83-0.69
		c-0.41-0.95-0.45-2.21-0.46-3.17c-0.03-1.62-0.31-1.65,1.01-1.06c-0.71-0.73-1.51-1.38-2.46-1.91c1.33-8-12.97-12.9-17.24-5.62
		c-2.22,3.33-1.13,1.98-6.85,4.73c-7.72,3.71-8.59,23.38-7.45,28.6c-0.7,0.91-1.31,1.71-1.91,2.52
		C643.33,139.19,643.23,140.7,643.94,142.11z M669.61,111c-0.3-0.3-0.38-0.04-0.7-1.01c-0.81,0.1-0.5,0.91-0.7,1.31
		c-0.41,0.72-0.45,0.93-0.9,1.81c-0.22-1.57,0.7-2.76,0.09-4.03c-2.31,0-1.55-0.25-2.22,3.73c-0.41,0-0.3,0.76-0.3-6.44
		c0-0.75,1.54-0.47,1.91-0.4c0.81,0.2,0.5,1.21,1.11,1.61c0.7-0.3,0.6-1.31,1.11-1.41C671.81,105.23,671.08,108.42,669.61,111z
		 M668.31,100.82c2.76-0.79,6.55,2.02,7.55,5.04c-1.94,0-2.37-0.36-4.33-2.32c-0.81-0.3-1.12,1.03-1.91,0.4
		c-0.48-0.38,0.95-3.79-1.61-0.21c-1.18-0.39-2.64,0.25-3.74-0.93C666.79,99.88,666.55,99.77,668.31,100.82z M664.28,99.72
		c0.47,1.08-0.45,2.08-0.25,3.09c-0.05,0.05-0.68,0.28-0.86,0.34c-0.25-0.13-0.4-0.35-0.4-0.4
		C663.54,99.26,663.29,99.97,664.28,99.72z M662.88,106.07c0.09,0.59-0.11,1.1-0.71,1.3C661.95,106.04,662,106.07,662.88,106.07z
		 M661.02,102.39c0.35-0.26,0.21-0.15,0.12,0.38c-0.08,0.46-0.03,0.47-0.56,0.47C660.47,103.24,660.6,102.69,661.02,102.39z
		 M657.33,105.96c0.4-0.4,0.81-0.2,1.01,0.3c0.57,1.24,0.15,2.39,0.02,3.52C657.24,108.38,657.23,108.32,657.33,105.96z
		 M653.1,108.88c0.49-0.1,0.8,0.19,1.19,0.39c-0.08,0.73-0.09,1.39-0.18,2.23C652.9,110.8,652.6,109.99,653.1,108.88z M648.43,148.6
		c0.02,0.18-0.05,0.35-0.26,0.56C647.6,148.4,648.32,147.6,648.43,148.6z M646.76,128.02c1.42,0.71,0.34,1.35,0.1,1.11
		C646.51,128.93,646.35,128.56,646.76,128.02z M645.15,139.19c1.61,0.91,0.5,2.32,0.81,3.32
		C644.74,141.71,644.85,140.6,645.15,139.19z"/> <path d="M765.6,322.47c-1.69-1.79-4.3-2.91-7.45-6.11C762.8,321.3,764.42,321.6,765.6,322.47z"/> <path d="M769.72,413.02c0.46,0.7,0.98,0.85,2.27,2.62C770.99,414.17,770.34,413.63,769.72,413.02z"/> <path d="M768.1,327c1.37,6.13,0.31-2.43-2.5-4.53C766.6,323.51,767.75,325.42,768.1,327z"/> <path d="M769.71,341.3c0.01-0.03,0.01-0.06,0.02-0.09C768.92,343.87,769.46,342.54,769.71,341.3z"/> <path d="M768.77,329.19c0.3,0.94,0.63,1.84,1.05,2.74c1.52,3.28,0.2,8.23-0.07,9.12c0.08-0.25,0.28-0.83,0.67-1.87
		C771.92,335.19,770.17,333.29,768.77,329.19z"/> <path d="M769.75,341.05C769.69,341.24,769.7,341.23,769.75,341.05L769.75,341.05z"/> <path d="M860.85,510.07c-1.29-3.03-3.45-1.68-8.96-8.76c-5.29-6.81-4.21-6.65-7.75-6.65c-1.52-3.34-1.2-2.81-4.03-5.64
		c-1.66-3.08,1-3.73,0.81-5.64c-1.45-3.99-4.2-3.09-6.04-9.37c-1.15-3.92-3.26-7.22-5.84-10.37c-0.82-1-1.81-1.31-2.92-1.81
		c-22.11-48.82-22.21-50.24-29.4-57.1c-10.99-10.48-7.56-0.31-29.71-55.69c1.43-1.9,1.8-4.21,2.3-6.29
		c-1.27,3.61-1.25,2.87-1.99,3.37c-0.63-0.54-0.53-1.25-0.4-2.01c0.2-2.22,0.09-4.43,0.6-6.65c0.49-2.12-0.23-3.89-1.91-5.34
		c-1.03-0.88-2.01-2.01-3.22-2.32c-1.11-0.81-0.81-2.32-2.11-3.22c-0.6,2.43,1.92,4.34,0.7,6.55c-1.4,0-0.7-2.31-9.77-12.89
		c-1.46,1.25,2.73,1.16-4.33,5.94c-13.63,9.24-17.1,12.58-33.23,16.62c-1.41-2.01-3.16-3.7-4.33-5.94c-1.67-3.19-5.5-4.85-6.75-4.23
		c0.1,1.01,1.22,0.89,1.71,1.51c1.03,1.3,3.9,3.47,6.93,8.33c2.69,4.31,2.88,7.06,7.77,13.51c11.13,14.68,14.1,15.62,18.73,21.65
		c7.48,9.76,9.29,9.78,13.59,15.41c13.81,18.06,7.04,9.14,18.44,19.96c-0.62-0.91-0.97-2.08-2.02-2.74
		c-4.03-2.53-5.95-4.99-7.45-6.95c-16.74-21.89-31.5-32.25-46.83-58.1c0.17-0.64,0.76-0.81,1.31-1.01c6.44-2.28,6.66-2.39,7.75-2.32
		c1.78,0.3,18.57-7.5,27.12-15.94c2.37-2.34,0.83-3.87,7.32,7.88c1.76,3.18,0.68,3.9,3.02,6.24c0.1,0.1,0.2,0.2,0.2,0.3
		c0.7,3.12,2.93,5.53,4.13,8.46c1.99,4.85,8.04,19.56,16.21,37.96c2.31,5.21,5.12,11.46,9.47,15.11
		c7.76,6.51,15.86,19.08,16.92,22.36c2.23,6.93,10.72,24.18,17.92,38.57c-1.62,1.16-13.12,5.65-13.59,5.84
		c-2.04-4.84-5.38-8.32-9.26-11.88c-12.85-13.45-15.81-15.7-17.18-17.52c3.34,5.07,6.49,6.67,23.73,25.48
		c-0.11,1.07-0.23,0.89-6.34,4.13c-0.76,3.03-0.8,1.55,0.3,5.24c-0.72,1.44-0.22,1.26-2.1,1.87c-0.2,0.05-2.19,0.76-3.33,1.45
		c-2.8,0.93-3.96,3.73-4.63,5.94c-4.01,0.43-7.65,1.73-11.28,3.42c-3.72,1.73-7.65,2.62-11.28,4.03c-0.7-0.2-0.9-0.71-1.11-1.11
		c-1.74-3.29-4.45-1.06-7.05-1.01c-3.31,0.07-3.78,2.03-5.04,4.13c-87.46,18.74-84.42,20.51-83.78,16.21
		c1.59-10.79,5.33-18.38,8.06-30.71c2.92-13.17,0.56-18.89,0.7-29.91c0.07-5.58,1.74-2.33,5.04-18.63
		c1.31-6.46-0.12-14.1,1.81-18.23c1.73-3.7,3.06-13.77,2.72-16.21c-0.3-2.14,8.99-35.65,7.85-52.87c-0.35-5.29,3.32-7.3,3.32-8.56
		c-2.16-0.74-3.37,1.93-5.03,4.23c-0.7,2.82-0.6,5.74-1.11,8.66c-7.13,3.23-22.88,4.98-29.81,5.44c-4.43,0.29-7.55-0.4-10.98-2.01
		c-1.07-1.7-0.3-11.53-0.3-14.7c-1.26-15.38,4.41-41.16,5.24-41.79c2.54,0,7.73,4.25,23.77-1.01c0.27-0.09,0.46-0.33,0.71-0.53
		c-4.89-0.82-9.65,2.55-24.18-0.17c-1.36-2.17,3.11-11.94-3.22-26.69c-3.96-9.21-4.98-7.57-5.54-12.89
		c17.95-5.98,14.6-4.75,17.12-5.54c4.83-1.51,30.94-3,38.22-2.78c1.65,0.05,1.4-1.18,0.45-1.35c-6.23-1.14-22.07-0.12-28.5,0.6
		c-10.22,1.14-10.41,3.33-15,3.93c-4.41,0.58-8.56,2.05-12.79,3.42c-1.63-3.27-12.62-15.09-18.63-31.32
		c-1.05-2.83-5.49-6.52-6.24-7.55c-1.31-1.78-6.23-2.47-8.36-1.81c-9.43,2.18-24.13,2.8-30.11,3.42
		c-8.42,0.87-11.11-1.35-21.75,1.11c-7.54,1.74-44.71-9.93-51.46-13.7c-0.5-2.72-0.5-8.36,0-11.58c1.16-1.16,16.71,1.27,18.33,1.61
		c7.27,1.51,13-0.7,18.73,2.22c1.61,0.82,6.87,1.69,10.88,2.82c8.33,2.36,12.87-1.11,15.91-0.91c4.19,0.28,8.06-1.42,17.22-1.91
		c1.57-0.09,3.24-0.63,4.53-1.71c2.36-1.97,14.31-6.76,21.05-7.75c8.16-1.2,6.11,0.6,18.33-0.7c1.83,4.95-0.42,22.11-1.01,25.58
		c-0.41,2.41-3.6,10.7-4.13,12.39c-0.09,0.28,0.08,0.58,0.2,0.91c3.64,0.61,11.8-35.08,5.54-40.38c0.81-0.81,1.81-1.01,2.72-1.41
		c1.03-0.32,1.84-1.09,3.12-0.81c0.5,6.48,2.2,13.21,6.85,21.25c3.16,5.47,5.89,5.25,11.68,6.85c3.1,0.86,9.56,0.32,11.58-2.01
		c-0.36,0-0.84,0.12-1.25,0.39c-0.05,0-2.6-0.09-3.37-0.09c0.1-2.25,1.62-3.95,1.7-6.08c0.01-0.01,0.03-0.04,0.1-0.05l-0.1-0.1
		c0,0.12-0.01,0.15-0.01,0.16c-1.81,0.91-1.67,3.58-3.36,2.77c-0.66-0.32-1.16-0.97-1.95-1.04c0.04,0.55,0.3,0.97,0.62,1.33
		c4.63,5.24-4.76,2.66-8.48,2.3c-5.36-3.58-10.03-16.17-11.68-21.95c-0.4-1.41-0.5-2.92-0.81-4.43c4.19-4.19,6.41-5.82,5.34-8.86
		c-2.22,1.4-2.56,6.05-8.06,7.96c-2.62,0.91-4.93,2.22-7.15,4.23c-20.87,0.44-20.73-1.47-36.05,7.55
		c-6.27,3.69-16.64,0.95-33.94,6.14c-22.17-5.12-17.62-6.04-24.57-6.04c-6.06,0-9.15-0.36-10.98-0.6
		c-15.92-2.15-15.45-1.47-17.32-2.62c-0.45-1.45,2.33-131.52,2.42-133.03c0.1-0.6,0-1.21,0.81-1.51c0.6,0.4,1.41,0.7,2.01,1.21
		c3.84,3.2,11.97,1.33,16.51-1.01c1.49-0.77,1.53-2.2,2.32-3.02c3.65-3.82,3.9-8.62,5.34-19.13c2.6-1.51,5.58,0.59,6.75-3.02
		c0.58-1.8,0.56-0.83,3.93-1.11c0.6,0,1.01-0.4,1.21-1.11c-0.2-0.3-0.3-0.6-0.5-0.91c-1.31-0.6-2.82-0.1-4.43-0.5
		c-0.7-0.6-1.21-2.01-2.52-2.01c-2.22,0-4.53-0.7-6.55,0.5c-0.91-0.5-1.71-0.91-2.72-0.7c-1.32,0.26-20.26,0.34-20.95,0.2
		c-0.3-0.7-1.11-1.31-1.21-2.32c1.64-2.73,141.32,2.52,268.06,2.52c39.54,0-265.3-5.41-265.45-5.54c0.5-2.92,1.81-5.44,3.12-8.26
		c40.75,0,129,2.32,268.67,2.32c-1.3-0.97-119.58-2.6-206.34-3.32c-86.84-0.72-53.34,0.4-65.86-6.34c-6.29-0.9-3.69,1.4-6.14,1.81
		c-55.74,1-27.72,2.32-43.81,0.62c-0.91-0.5-0.81-1.61-2.32-2.01c-0.81,0.1-2.22,0.2-3.73,0.3c-0.7,1.71-2.32,1.81-3.83,1.81
		c-1.89,4.15-0.32,24.06-0.7,46.72c-0.6,1.11-1.91,0.91-2.22,2.01c-0.3,1.91,0.5,3.63,0.91,5.54c2.28,1.06,2.72,3.95,2.72,6.44
		c-0.16,111.58,0.13,104.92-0.6,106.14c-2.7-0.21-4.51,3.12-3.63,5.44c0.5,1.32-0.06,6.36,1.31,10.47c-0.6,1.11-1,2.41-0.6,3.93
		c0.42,1.61,2.32,1.31,3.22,2.62c-0.37,169.03,0.43,133.98-3.32,141.48c-0.4,1.91,0.2,3.63,1.31,5.04c0,1.41,0,2.72,0,4.13
		c-0.82,0.91-4.89,4.72-5.54,6.44c-0.93,2.48-3.49,7.22-3.52,8.46c-0.04,1.42-3.51,13.82-0.2,20.44c2.62,5.24,5.24,10.47,8.96,14.9
		c0.29,1.15,0.2-1.86,0.2,23.16c0,2.36-0.5,2.3-0.5,3.93c1.72,2.58,1.08-9.49,2.42,105.74c-0.7,0.2-1.41,0.4-2.01,0.6
		c-1.01,1.71-1.41,3.42-0.7,5.34c2.16,0.96,2.82,1.06,2.82,1.91c0,22.66,0.97,20.18-1.71,21.25c-1.31,2.01-1.71,4.13-0.7,6.34
		c3.4,0.85,1.42,0.3,1.11,2.52c-0.61,2.42-0.1-0.51-0.1,9.47c0,2.11,0.5,3.93,2.11,5.24c-0.2,1.11-0.3,2.01-0.4,3.02
		c3.17,2.97,0.99,3.58,3.73,14.4c1.66,6.58,10.86,2.09,15.11,2.62c4.98,0.62,0.06-10.14,0.91-19.84c1.23-0.67,25.2-0.1,73.21-0.1
		c2.7,0,2.34-1.79,2.22-7.35c-0.16-6.99,0.69-6.8-4.13-6.85c-19.32-0.18-18.31-0.07-19.03-1.11c0.5-2.2-0.1-11.58-1.31-14
		c-0.2-0.5-0.2-1.31,0.7-2.11c7.96,0.5,16.11-0.6,24.17-0.91c1.32-2.38-0.8-4.94,1.61-5.74c108.63-24.21,98.41-23.02,98.48-18.63
		c0.16,9.45-3.29,8.84-2.72,15.71c0,1.83-2.62,0.37-3.83,7.15c-1.24,6.94-2.29,5.08-2.01,11.18c2.81-2.81,0.48-1.88,2.82-7.05
		c0.76-1.69,1.21-3.44,1.21-7.25c3.02-3.28,3.52-0.37,4.43-9.06c0.92-0.08,8.56-0.3,9.37,0.1c1.01,0.84,0.17,2.47,1.41,2.32
		c2.72-6.14,2.72-12.99,4.53-19.33c1.35-0.67,84.29-19.52,86.2-18.83c1.31,2.32,4.03,2.32,6.24,3.12c2.82-0.81,3.63-3.12,4.53-5.24
		c11.66,1.79,9.75-5.08,19.84-5.32c-4.81,3.03-8.38,2.66-8.56,3.91c2.19,1.37,8.47-2.73,13.9-3.22c1.71,1.31,3.64,2.57,6.04,1.91
		c2.03-0.56,4.23-1.01,5.44-3.12c-0.85-0.65-1.61-0.26-2.36-0.21c0.52-1.19,1.59-1.21,2.56-1.4c2.42,2.32,2.82,5.84,5.64,7.85
		c3.42-0.81,6.85-1.51,10.27-2.32c1.01,1.91,2.42,3.32,3.83,4.73c1.41,1.41,2.01,3.42,3.02,4.13c1.41,0.6,2.32-0.7,2.82,0.7
		c-0.58,0.78-1.72,1.19-1.61,2.41c-0.11-0.11,0.03-0.23-1.11,0.61c0.91,2.82,2.47,5.28,4.53,7.45c4.44,4.66,5.32,31.2,19.44,27.49
		c0.91-0.3,1.21-1.39,2.22-1.71c3.85-1.24,7.03-3.78,10.77-5.34c4.35-1.81,3.16-4.99,4.83-10.67
		C870.95,518.67,863.52,516.35,860.85,510.07z M761.76,331.93c3.47,1.56,2.31,1.9,1.01,6.34
		C761.5,336.09,760.89,334.25,761.76,331.93z M764.78,342.71c-1.01-1.31-1.01-1.71,0.1-5.94
		C765.48,338.88,764.58,340.8,764.78,342.71z M458.65,53.7c-0.24,0.24-0.29-0.72,0.05-0.55C458.86,53.3,458.93,53.41,458.65,53.7z
		 M457.84,528.5c0.6,0.81,0.1,1.71,0.6,2.52C457.24,530.31,458.25,529.31,457.84,528.5z M459.35,559.92c0-0.08-0.06-0.08-0.08-0.03
		c-0.1,0.1,0.02-0.47,0.18-0.18C459.46,559.73,459.35,559.82,459.35,559.92z M459.25,556.5c0.05,0.11,0.19,0.25,0.3,0.3
		C459.56,557.19,458.74,557.53,459.25,556.5z M459.35,564.55c0.87,0.52,0.8,0.61,0.8,1.42
		C459.56,565.66,459.35,565.16,459.35,564.55z M460.16,575.83c-0.5-1.51-0.3-3.12,0-4.63C460.16,572.71,460.16,574.32,460.16,575.83
		z M541.12,23.09c1.97,1.97,1.54,0.59,2.52,0.2c0.05,0-0.73-0.1,4.13-0.1c1.11,1.41,1.11,1.41,0.5,3.73
		c-1.03,1.21-2.18,0.92-5.54,0.5c-2.76,1.7,0.25,20.46-10.77,24.67c-6.95,2.65-10.6,0.4-12.39,0c-1.81-2.01-3.02-4.23-3.02-6.65
		c-0.4-1.11-1.31-1.31-1.81-1.91c-1.41-4.93-2.22-15-1.61-20.34C518.52,23.75,535.93,24.45,541.12,23.09z M526.32,564.15
		c1.01-0.6,0.91-1.61,0.91-2.52c0-10.95-0.83-10.17,2.2-10.17c0.03,0,0.53,0.55,0.52,0.7c-0.12,10.17,2.86,14.98-3.42,12.89
		c-0.1-0.29-0.25-1.11-0.35-1.11c-33.63,0-60.28-1.16-48.6,1.22c-2.72,0.48-1.59-0.7-3.22-0.7c-0.5-1.41-0.4-2.82-0.2-4.23
		c1.14-0.45,5.89-1.69,3.32-4.53c-0.91-1-2.22-1.21-3.32-1.81c-0.4-2.82-0.6-13.9-0.3-18.13c0.4-0.3,0.81-0.6,1.31-1.01
		c0.81-1.11,0-2.62,0.6-3.73c0.52-0.4,1.08-0.26,1.86-0.24c1.88,0.05,2.5-1.4,1.86-2.47c-0.91-0.91-2.11-0.1-3.12-0.6
		c-0.6-0.91-0.6-1.81-0.1-3.02c3.2-0.5,6.58-0.01,9.87-0.21c0.81-0.81,1.91-1.41,1.61-2.92c-2.38-0.4-4.78-1.78-7.25-1.11
		c-2.31,0.63-4.73-0.1-7.05,1.61c0-0.1-2.41-97.04-1.11-100.3c0.48-0.1,14.94-1.19,18.25-1.11c4.88,0.12,3.53-1.71,2.51-1.71
		c-16.22,0-17.66,1.05-19.64,0c0.4-5.74,0-11.38,0.2-17.02c2.11-0.56,4.28-0.48,6.44-0.1c4.48,0.79,7.85-1.65,8.76-2.01
		c8.71-2.4,6.46-4.14,10.48-4.14c1.93,0,8.68-12.21,11.87-16.01c0.46-10.16-0.03-6.7,0.5-11.58c0.67-6.13-0.91-5.65-0.91-6.44
		c-0.4-5.44-3.58-9.69-5.84-14.3c-2.1-4.29-4.73-1.65-4.73-7.96c0-2.19,0.48-3.98-2.19-3.94c-1.02,0.02-1.89,0.27-2.84-0.09
		c0.81-1.31,2.42-1.41,3.12-2.32c3.8-0.4,7.74,0.81,11.28-0.81c0.99-2.96-0.17-8.74,0.81-10.98c1.2-1.2,0.51-27.75,1.96-39.37
		c0.08-0.61,13.91,259.63,11.93,263.33C527.99,547.51,524.15,551.16,526.32,564.15z M476.07,557.2c-1.31,0.58-1.54,0.88-1.64,0.78
		C473.5,557.17,475.08,555.25,476.07,557.2z M474.29,170.12c1.18-1.79,0.56-2.93-1.85-5.65c-0.05-0.64-0.15-1.22-0.15-1.74
		c0-3.13,2.37-0.38,3.37,0.02c0.61,2.33,1.02,10.48,0.82,13.91c-3.59,2.69,0.3-0.37,0.3,14c-1.88,0-1.89,0.01-3.83-1.21
		c0-0.1-0.55-2.36-0.55-11.3C472.4,170.35,472.35,173.06,474.29,170.12z M472.85,167.59c0.7,0.7,0.81,1.31,0,2.01
		C472.16,168.92,472.21,168.23,472.85,167.59z M469.32,60.45c1.17-0.02-2.49-3.82,2.62,259.2c0.25,13.1,0.59,13.19-1.21,13.19
		c-11.41,0-9.98,0.93-9.97-5.84c0.12-107.79-0.12,194.42,0.5-263.33C461.27,60.11,460.63,60.62,469.32,60.45z M471.35,62.77
		c0-5.68,2.03-4.3,2.21-3.43c0.26,2.08,0.07-0.29,0.5,20.04c2.02,95.62,3.32,81.54-1.4,79.65
		C472.01,157.59,471.35,62.89,471.35,62.77z M472.75,191.65c5.53,2.18,4.09-2.87,4.93,30.32c0.09,3.61,2.39,83.12,1.31,86.7
		c-1.74,5.76,0.62,11.7-0.6,18.63c-0.24,1.37-0.27,3.84,0.59,4.78c1.61,1.75,2.27,0.32,10.38,0.65c0.74,0.32,0.83,1.04,1.18,1.49
		c0.13,0.16,0.26,0.24,1.78,1.13c0.39,0.23-2.48,0.44-3.87-0.01c-6.47-2.08-13.95,0.99-14.03,0.68
		C473.37,333.04,472.38,193.84,472.75,191.65z M500.63,46.75c0.37,0.99,7.44,137.26,6.76,138.06c-6.24-0.4-11.38-3.52-16.82-6.34
		c-2.73-5.65-7.93-7.14-10.68-13.49c-0.91-35.14-1.71-70.59-2.62-106.04c2.92-2.22,5.54-4.33,8.26-6.34
		C500.91,50.28,497.83,48.15,500.63,46.75z M489.35,49.87c1.01-2.53,1.07-1.67,4.24-5.24c7.11-8,6.33-7.41,7.55-8.06
		c0.76,6.17-2.53,7.93-4.74,9.9C495.66,47.22,495.17,49.45,489.35,49.87z M508.3,198.71c-1.82,0-4.41-2.02-18.22-6.71
		c-5.49-1.86-5.23,1.08-9.16-0.04c-1.28-1.79-0.29-1.82-0.7-11.38c-0.4-9.11-0.77-12,1-10.27c7.34,7.17,6.44,6.28,6.44,8.06
		c6.17,4.14,13.04,6.74,20.04,9.47C508.19,191.46,508.5,195.08,508.3,198.71z M508.4,201.22c2.16,17.29-0.35,103.79-0.81,104.53
		c-3.07,0,0.29-4.49-10.27-6.85c-5.99-1.34-7.35,0.6-10.88,0.6c-1.97,0-3.29,1.33-3.32-1.21c-0.22-18.93-2.42-85.22-2.62-101.2
		c-0.07-5.57-0.7-1.71,6.34-4.53C494,195.48,501.15,198.3,508.4,201.22z M479.9,317.84c-0.97-8.41,1.29-8.45,4.13-14.4
		c1.58-3.3,20.98-7.12,22.96,6.85c1.77,12.48,0.27,12.2,1.21,20.74c-2.82,0.3-5.14,0.3-7.45-0.1
		C473.13,327.74,482.28,338.5,479.9,317.84z M492.42,337.5c0.4-0.63-0.26-0.68,5.6-0.33c0.76,0.55,0.61,1.31,0.61,2.12
		c0,2.27,1.93,3.78-5.15-0.99C492.21,337.45,492.38,337.64,492.42,337.5z M511.72,113.51c-2.12,104,1.21,29.88-7.55-74.62
		c-0.58-6.97-2.31-4.46,5.94-13.09c0.72,0.24,0.91,0.67,0.91,1.31C513.25,62.94,513.6,21.2,511.72,113.51z M460.97,43.83
		c-0.53-5.97-0.23-14.39-0.91-17.62c-0.1-0.5-0.2-0.91-0.1-1.41c0.79-6.74-0.18-16.49,0.91-19.03c6.32-2.33,4.24,1.23,24.57-0.6
		c0.65-0.06,23.41-1.15,30.01-1.11c1.27,0.01,3.93,0.11,4.83,1.01c1.46,4.01-1.18,7.18-4.13,12.08c-0.42,0.7-1,1.22-1.61,1.81
		c-19.79,19.37-24.26,28.48-36.65,36.55c-1.01,0.5-1.91,0.1-2.82,0.3c-1.16,0.58-1.97,1.89-5.04,2.32
		c-1.87,0.26-7.39,0.57-8.39,0.05C458.98,56.79,461.91,54.46,460.97,43.83z M458.75,171.72c1.07,1.18,1.02,2.31,0.7,3.83
		c-2.01-0.3-2.3-0.61-2.52-1.81C456.75,172.72,457.04,172.42,458.75,171.72z M457.54,176.96c1.78-0.89,3.72,1.98,2.01,4.53
		C456.64,179.67,456.64,179.67,457.54,176.96z M458.05,189.14c-0.77-2.19,1.48-2.84,1.56-0.74c0.02,0.57-0.09,1.04,0.05,1.53
		C458.55,190.45,458.26,189.74,458.05,189.14z M459.75,184.81c-0.9-0.1-1.4-0.6-1.7-1.61C459.57,182.64,461.46,184.13,459.75,184.81
		z M459.35,334.85c3.73-0.81,9.57-0.5,12.18,0.5c-0.72,2.25-10.27,5.52-12.08,5.84C458.85,339.08,459.05,336.97,459.35,334.85z
		 M457.24,391.04c-0.04-0.1-6.27-10.71-7.96-13.09c-0.71-1-1.01-2.11-1.01-3.32c0-19.54,0.52-15.79,8.16-27.89
		c2.38-3.78,4.68-3.86,12.59-7.35c4.96-2.19,4.35-1.31,17.42-2.72c5.21,2.11,12.3,7.21,17.12,10.67c1.31,3.02,3.27,6.23,4.23,9.87
		c0.21,0.8,0.3,1.71,0.7,2.32c3.45,5.12-0.2,17.43,1.21,18.83c-2.82,5.24-6.04,9.97-9.77,14.7c-2.11,0.6-4.12,1.82-6.04,3.12
		c-2.45,1.66-4.69,1.44-8.86,3.52c-1.58,0.63-3.9,0.1-12.59,0.1C469.11,399.81,465.39,396.86,457.24,391.04z M459.05,407.06
		c-0.27-21.52-1.4-9.24,12.59-4.93c0.67,4.25,0.65,14.78,0.2,17.02c-2.01,1.01-4.13,0-6.14,0.1
		C456.84,419.68,459.23,421.57,459.05,407.06z M459.76,423.06c3.63-0.5,6.85,0.5,9.67-0.5c1.28,0.77,2.92,140.44,2.41,141.47
		c-3.22,1.11-6.65-0.4-9.87-0.1c-0.82-0.91-0.59-1.6-0.59-2.3C461.37,499.92,459.76,486.17,459.76,423.06z M549.68,567.37
		c3.72,0.01,4.02-0.99,3.97,5.97c-0.03,3.9,0.72,3.9-4.07,3.9c-91.65,0-69.64-2.39-71.47,3.62c-0.94-0.09-9.05-0.44-8.09,0.49
		c0.93,0.9,1.12,0.89,7.76,1.33c0.22,1.21,1.7,13.8,1.6,13.8c-6,1.2-13.08,0.1-13.18,0.1c0.15-1.52,0.13-3.05,0.13-4.61
		c0-2.75,1.68-12.44-1.84-13.61c-0.67,0.57-0.53,1.34-0.1,2.11c1.86,3.37,0.4,6.88,0.4,10.67c-3.21-3.55-1.6-7.04-2.72-9.37
		c-0.64-1.33-0.77-2.97-0.6-4.43c1.4-12.13-1.49-11.28,2.62-11.28C487.58,567.68,544.91,567.36,549.68,567.37z M554.41,544.41
		c0.01,0.58-19.3,1.85-26.57,0.81c-0.12-0.48-0.3-0.54-0.3-0.88c0.45-5.87-1.52-13.56-1.52-19.64c0-2.87,0.62-1.75,1.88-5.36
		c0.41-1.17,1.37-1.27,2.25-2.33c3.37-4.07,11.6-4.4,15.91-3.32c5.85,1.46,8.32,7.95,8.41,10.9c0.05,1.89-0.56,2.48-0.35,3.61
		C554.81,533.51,554.31,538.91,554.41,544.41z M654.75,515.33c-0.59,0.53-96.17,21.68-98.42,22.13c-1.28-0.96-0.69-10.79-0.6-12.59
		c0.11-2.34-0.31-3.15-1.91-6.75c-4.14-9.31-18.5-7.43-22.24-4.73c-1.18,0.85-2.02,1.76-3.84,3.12
		c-0.01-0.12-14.2-275.48-14.2-311.97c1.31-0.6,2.21,0.2,3.12,0.6c13.88,6.11,8.5,2.28,23.06,7.55c5.54,2.01,11.38,2.81,17.12,4.23
		c3.63,0.9,7.14,0.78,10.77-0.2c9.41-2.55,31.02,3.03,51.56-5.04c1.82,0.75,7.64,2.08,10.77,8.56c6.9,14.25,10.21,20.22,16.01,27.39
		c4.14,5.11,1.54,5.94,6.44,16.62c10.99,23.92,1.72,38.63-0.1,51.96c-1.54,11.23-1.27,19.7-0.4,36.65
		c0.75,14.69-0.15,21.4,3.83,38.57c1.38,5.98,2,6.46,3.42,16.21c0.18,1.22,0.31,22.98-0.75,25.73c-0.04,0.04-1.47,3.12-2.36,5.47
		C646.66,463.69,656.49,513.78,654.75,515.33z M656.63,529.61c-0.3-0.4-0.3-0.81-0.1-1.31
		C657.11,528.68,656.86,529.06,656.63,529.61z M665.89,530.51c-6.95,0-5.94,0.1-7.15-0.3c-1.17-1.6,0.81-2.72-1.61-3.52
		c0-10.37-0.67-7.69,2.02-8.58c1.09-0.36,2.09-0.91,3.22-1.09c4.96-0.79,6.05-2.1,6.04,0.6
		C668.41,521.96,667.2,526.18,665.89,530.51z M668.81,512.19c-3.8,1.3-7.69,1.9-11.59,2.6c-0.52,0.17-0.5-1.82-0.49-1.99
		c0.4-25.64-5.83-31.33-1.31-62.33c1.98-13.58,4.37-12.67,5.14-21.25c0.44-4.94,0.34-9.87,0.7-14.8c0.26-3.53-0.4-7.05-0.81-10.57
		c-0.35-1.77-1.21-1.94-1.21-3.93c0-7.62-2.95-14.2-3.52-27.29c-1.51-34.25-9.13-11.74,32.63-20.95c7.15-1.57,7.94-9.84,5.24,11.28
		c-2.23,17.42-2.01,15.4-3.83,22.66c-3.01,12.06-1.92,16.93-4.43,24.97c-0.5,1.61-0.79,3.22-0.81,4.83
		c-0.1,8.66-1.83,17.14-3.83,25.48c-0.91,3.8-2.01,0.72-2.62,11.08c-0.36,6.16,0.62,14.16-0.81,25.78
		C676.64,482.86,673.77,489.89,668.81,512.19z M761.25,496.08c-0.1-1.11,0.4-1.41,1.41-1.31
		C762.66,496.05,762.13,496.22,761.25,496.08z M771.83,492.05c-1.26,1-1.07,1.29-1.8,1.03c-0.25-0.09-0.45-0.24-0.35-0.48
		c0.31-1.26,1.99-1.25,5.88-1.85C774.75,492.35,773.04,491.54,771.83,492.05z M778.25,489.93l-0.18,0.11c0-0.28,0.42-0.29,0.32-0.19
		C778.37,489.88,778.31,489.89,778.25,489.93z M780.13,489.02c0,0-0.36,0.31-0.53,0.4c-1.25,0.65-1.1-0.38,0.39-0.38
		c0.34,0-0.3-0.45,1.43-0.68C781.1,488.91,780.58,488.94,780.13,489.02z M788.5,489.16c0.09-0.23,0.23-0.39,0.64-0.23
		C788.92,489.01,788.7,489.09,788.5,489.16z M791.97,488.12c-0.76-0.25,0.3-0.49,0.3-0.1C792.17,488.02,792.07,488.12,791.97,488.12
		z M782.07,488.17c-0.76,0.08,5.44-3.68,11.91-2.47C790.12,486.47,785.55,487.81,782.07,488.17z M793.18,483.31
		c-0.23-0.88-0.27-1.07,0.31-1.53c0.03-0.03,0.69-0.49,0.69-0.52C794.18,482.05,794.29,482.34,793.18,483.31z M794.71,481.05
		c-0.24,0.29-1.01,0.14,0.08-0.58C794.84,480.73,794.81,480.93,794.71,481.05z M799.32,489.53c0.33-0.08,0.59-0.11,0.85-0.17
		C799.98,489.78,799.77,489.98,799.32,489.53z M800.42,489.23c0.33-0.38,0.67-0.52,1.13-0.55
		C803.13,488.55,801.86,489.21,800.42,489.23z M804.35,485.3c-1.6,0.83-6.63,3.33-8.44,2.73c-0.44,0,1.3-1.61-0.32-4.84
		c1.11-2.01,3.32-2.72,5.04-3.93C803.12,479.77,804.58,481.22,804.35,485.3z M805.76,471.81c0.4-0.3,0.81-0.3,1.31,0
		C806.61,472.16,806.16,473.09,805.76,471.81z M807.5,486.74c-0.43-0.26-0.61-0.64-0.61-1.14
		C806.88,485.4,807.7,485.71,807.5,486.74z M809.39,468.99c0,0-0.2-0.1-0.2-0.2s0.1-0.1,0.2-0.2
		C809.63,468.82,809.71,468.67,809.39,468.99z M836.88,484.49c0.53,0,0.86,0.7,0.34,0.88C836.69,485.55,836.45,484.92,836.88,484.49
		z M811.3,493.36c-0.1,0.2-0.3,0.2-0.5,0.3c-0.43-0.87-0.14-0.59,0.3-0.81C811.28,492.94,811.55,493.23,811.3,493.36z
		 M819.96,487.22c-0.29,0.14-0.65,0.12-1.11,0.19C819.39,486.77,820.89,486.79,819.96,487.22z M819.94,468.24
		c-0.67,0.09,0.15-0.19,0.42-0.46c2.01-1.51,4.54-1.57,4.21-1.31c-1.48,1.16-1.66,1.26-4.06,1.3
		C820.21,467.77,820.35,468.19,819.94,468.24z M821.78,486.21c-0.34,0.79-1.76,0.82-1.18,0.31c0.48-0.36,0.71-0.15,1.36-0.42
		C822.15,485.95,822.21,485.99,821.78,486.21z M827.22,496.18c-3.59-5.39-3.74-4.33-2.07-4.98c3.81-1.5,7.48-2.63,11.24-3.17
		c0.84,0.31,1.94,1.48,1.31,2.11C827.07,496.51,828.82,495.64,827.22,496.18z M865.18,531.02c-7.96,4.37-15.64,10.03-21.25,5.74
		c-0.9-3.26-4.94-7.74-6.55-15.61c-0.93-4.55-1.18-6.46-3.32-9.06c-0.64-0.78-3.63-4.65-3.63-5.94c-0.15-0.04-0.36-0.13-0.47-0.26
		c-0.55-0.65,0.38-0.2,0.5,0.05c0.29,0.58-1,0.55,5.51-2.31c0.1-0.05,8.1-3.49,8.46-4.33c0-3.7-10.84,3.73-11.57,2.35
		c-0.8-1.5-1.18-3.29-2.93-4.26c0.3-0.5,0.4-1.01,0.6-1.11c9.25-5.42,8.72-5.06,9.39-4.74c0.79,0.38,2.97,5.25,3,5.35
		c1.11,0.81,1.41-0.6,1.81-0.4c3.15,0.58,2.9,6.38,12.64,13c3.03,2.06,0.95,2.66,8.01,9.57C868.5,522.1,868.17,519.81,865.18,531.02
		z"/> <path d="M784.76,439.27c-0.21-0.32-0.43-0.66-0.64-1.02C784.31,438.62,784.51,438.94,784.76,439.27z"/> <path d="M771.99,415.64c0.45,0.66,0.86,1.35,1.25,2.08c6.25,11.85,8.77,17.09,10.87,20.53c-1.04-1.96-2.02-5.37-10.57-20.13
		C773.05,417.28,772.55,416.45,771.99,415.64z"/> <path d="M682.71,126.5c0.01,0.05,0.04,0.12,0.1,0.2C682.81,126.64,682.91,126.71,682.71,126.5z"/> <path d="M675.96,111.3l0.1,0.1C676.03,111.28,676.13,111.3,675.96,111.3z"/> <path d="M359.56,18.65c-6.48-1.16-3.97-0.98-101.71-2.22C78.15,14.17,106.51,16.2,102.67,11.4c-2.11-0.7-1.44-1.86-3.12-2.42
		c-1.01-0.2-2.52-0.4-4.13,0.2c-1.87,2.8,1.96,0.94-38.57,2.82c-2.42,0.11-4.73-0.1-6.85-0.91c-0.6-0.6-0.7-1.61-2.22-1.91
		c-0.81,0.1-2.33-0.02-3.22,0.7c-1.23,0.99-2.62,1.41-4.23,1.61c-2.51,11.31,1.43,45.57-1.21,46.93c-1.52,0.79-2.04,1.32-1.61,2.62
		c4.83,14.63,3.42-14.09,3.42,114.6c-2.73,1.09-4.42,3.27-3.42,6.04c0.39,1.07-0.01,6.56,1.31,10.37c-2.3,4.59,1.16,5.39,2.22,6.34
		c-0.1,75.02-0.2,149.94-0.5,224.36c-0.5,1.31-1.41,1.61-1.51,2.62c0,4.88,2.31,2.12,1.31,8.76c-1.55,1.93-5.28,4.59-6.24,8.86
		c-0.14,0.98-1.85,2.9-2.32,6.24c-0.9,6.46-6.38,16.07,8.66,34.64c-0.1,8.86,0.3,17.72-0.3,26.69c0.4,0.5,0.81,1.01,1.21,1.51
		c0.3,4.13,0.2,13.29-0.2,16.01c-0.62,0.09-2.32-1.03-2.32,1.01c-1.47,1.34-0.82,2.62-0.7,4.23c0.91,1.01,2.32,0.5,2.92,1.61
		c0.3,3.42,0.2,17.72-0.1,20.54c-0.5,0.3-1.11,0.6-1.71,0.91c-1.11,1.81-1.51,3.73-0.91,5.54c0.5,1.01,1.61,0.7,2.11,1.41
		c-0.3,1.21-1.12,2.22-1.01,3.63c0.51,6.07-0.96,9.42,2.01,12.39c0.68,2.94-1.53,1.58,2.11,5.74c0.7-0.7,0.4-1.41,0.1-2.01
		c-1.38-2.76-0.69-1.05-0.5-14.3c0.01-0.5-0.2-1.21,0.5-1.81c3.42,0,7.05,0.7,10.67-0.2c4.37,2.92,77.15,0.05,79.45,2.11
		c0,2.82,0.5,5.84-0.2,8.96c-11.84,0,33.69,0.1-71.2,0.1c-3.44,0-2.57,0.49-5.84-6.04c-0.91-0.4-1.81-0.81-2.72-0.1
		c0.4,0.7,1.31,0.2,2.11,0.91c1.3,2.59,2.98,5.48,3.61,8.66c-5.76,0-6.92,0.08-8.04,1.31c10.32,2.06,7.3-2.71,9.26,14.6
		c-4.23,0.6-10.67,0.6-12.99,0c0.27-5.08,1.63-17.82-1.71-17.82c-2.05,1.54,2.03,0.56,0.3,11.28c0,0.1-0.3,0.3-0.5,0.4
		c-1.99-1.71-0.64-3.57-2.01-4.53c-0.2,3.02,0.42,5.84,1.01,8.66c0.97,4.68,2.3,4.69,5.64,4.73c3.73,0.05,7.25-0.91,10.88-1.11
		c2.33,0-0.5-8.79-0.5-19.23c2.83-1.01,73.02,0.73,74.22-0.7c0.5-2.82,0.5-10.17-0.1-12.89c-2.05-1.64-20.88,0.49-22.36-1.41
		c0.22-2.21,0-11.53-1.21-13.49c-0.5-0.7-0.5-1.81,0.4-2.62c8.06,0.5,16.11-0.7,24.17-0.91c0.98-3.19-1.55-8.19,2.62-7.15
		c1.01,0.91,1.91,2.32,3.63,2.32c4.91,0.33,5.32-1.91,6.85-4.53c1.51-0.3,2.92-0.6,4.23-0.91c5.32,2.66,8.47,1.27,10.07-1.31
		c4-6.44,10.52,0.41,17.52-3.63c1.61,0.91,3.22,1.88,4.83,1.51c1.91-0.44,3.52,0.4,5.34,0.81c0.1,0.5,0,0.91-0.5,1.11
		c-0.3-0.2-0.5-0.5-0.81-0.7c-1.47,2.2,0.58,3.79,2.32,2.92c3.51-2.11,0.25,6.85-3.42,9.37c-1.79,1.23-0.98,2.29-2.01,3.93
		c-2.48,3.92-3.15,9.26-7.15,12.39c-1.92,1.5-2.7,3.94-3.73,5.94c-0.99,1.92-0.39,3.51,1.41,4.93c9,7.1,26.61,16.04,27.79,5.04
		c1.56-14.47,0.31-11.68,3.63-16.31c-0.2-3.12,0.2-6.24,1.01-9.37c0.3-0.81,0.21-1.61,0.4-2.42c0.31-1.31-0.4-2.32-0.7-3.22
		c0.91-5.01,2.04-0.69,4.03-1.91c0.7-1.31,1.51-2.92,3.02-3.52c0.5-1.41,0.7-2.72,1.41-3.83c1.41-2.22,1.91-4.53,2.01-6.85
		c4.79-7.46-1.91-6.74,8.56-24.37c0.95-1.6,1.71-1.76,2.01,1.51c2.78,29.56,3.75,27.84,3.12,29.1c-1.66,2.07-1.51-0.45-1.51,6.55
		c-3.49,2.44-2.43,5.82-3.42,8.46c-1.79,3.81,0.1,6.07-1.91,13.19c-0.9,3.19,0.41,2.13-1.61,8.66c-0.28,0.91-0.3,1.61,0.4,2.52
		c17.53,1.03,19.83-0.96,24.57-0.3c1.16-1.32,5.04-0.69,5.34-4.63c0.35-4.72-2.74-7.6-2.92-10.07c-0.25-3.51-3.58-4.45-4.23-9.16
		c-0.82-5.98-0.26-2.88-1.41-6.04c0.7-2.32,0.3-4.73,0.3-7.05c0-0.81-0.4-1.51-1.11-2.11c-5.17-5.17,10.83-56.88,6.04-69.89
		c-0.93-3.72-4.37-2.82,6.75-31.02c3.92-9.93,26.87-33.41,34.24-53.57c3.25-8.89,12.26-43.91,11.38-53.07
		c-0.45-4.64-0.2-9.26-0.6-13.8c0-2.54-1.59-13.45-0.6-13.59c0.1,0.1,0.3,0.1,0.3,0.2c7.87,18.59,10.22,16.74,5.64,29.71
		c-1.27,3.6-1.17,4.76-1.01,24.57c0.02,2.42,3.26,0.2,3.93-3.12c0.4-2.01,0.7-3.93,1.11-5.84c1.01-0.4,1.81,0.6,2.82,0.1
		c0.7-0.7,0.7-1.41,0.1-2.11c-0.81-0.1-1.61,0.7-2.32-0.1c-0.6-0.5,0.5-1.11-0.1-1.61c-1.21,0.7-1.21,0.7-2.11,2.22
		c0.45,2.68,0.53,7.14-2.11,7.75c-0.93-6.98,0.75-9.46-1.11-17.62c2.22-3.02,2.82-6.55,4.03-9.87c0.5-0.3,1.01-0.5,1.51-0.81
		c0.4-1.11,0.6-2.11-0.1-3.42c-0.4,0.81-0.6,1.31-0.81,1.81c-3.43-12.96-7.9-22.32-10.37-26.38c-0.02-0.05-1.36-5.95-4.53-11.78
		c-3.57-6.58-5.06-8.64-5.24-12.59c-1.12-24.52,0.1-21.29-0.7-22.56c-1.91-3.02,1.25-7.15,0-10.27c-0.13-0.27,2.58-7.96,2.62-8.06
		c3.26-8.42-2.05-17.62-3.83-17.62c-1.12,1.68,3.93,7.84,2.22,16.51c-1.56,7.89-3.93,16.74-2.72,23.36
		c0.56,3.05-2.15,11.29,2.11,24.77c4.75,15.01,7.82,12.47,7.25,20.44c-4.78,1.82-18.69,3.38-21.45,3.63
		c-11.86,1.04-13.26-0.23-19.94-1.11c-7.34-0.97-22.08-3-28.3-7.05c-4.08-2.66,1.49-3.35,3.73-13.7c0.3-1.11,1.11-1.81,1.61-2.62
		c1.03-6.17-3.05-19.58-3.12-20.95c12.26-3.99,14.8-4.92,14.71-5.11c1.13,0.22,0.2-0.58,6.74-1.33c32.45-3.75,32.33-1.21,34.74-2.01
		c0.23,0,4.54-2.98-26.18-0.81c-3.39,0.24-11.79,1.4-15.39,4.11c-0.37-0.05-1.7,0.16-1.53-0.19c-10.52,2.04-11.71,3.73-13.09,3.12
		c-0.91-1.51-1.73-3.39-3.52-4.53c-0.1-0.07-10.29-15.61-14.7-26.18c-1.78-4.25-5.03-5.8-6.75-8.26c-3.2-1.6-6.78-1.73-8.36-1.31
		c-10.63,2.85-19.17,2.42-28.3,3.42c-10.94,1.2-12.29-1.15-20.84,0.7c-3.72,0.81-7.45,0.7-11.18-0.1
		c-4.86-1.05-41.58-9.93-44.01-14.3c0.41-12.96,0.1-9.67,0.81-11.08c19.36,0.94,16.52,2.52,25.68,2.52c13.97,0,1.61-0.25,26.58,5.24
		c5.18,1.14,10.52-1.86,12.49-1.61c3.22,0.2,6.35-0.55,9.47-1.01c5.63-0.83,4.32-0.19,10.77-1.31c2.32-1.8,4.33-3.3,6.34-3.83
		c5.81-1.53,12.77-6.82,24.77-5.44c8.04,0.93,8.54-1.53,10.07,0c1.6,4.54-0.61,20.94-1.11,24.17c-0.7,4.5-0.61,3.87-4.23,13.09
		c-0.37,1.1,0.84,1.71,1.41,0.2c3.97-10.46,6.14-14.41,6.55-28.6c0.12-4.06-1.11-9.05-1.11-9.06c0-0.81-1.21-0.81-0.81-1.91
		c1.71-0.6,3.22-1.91,5.44-1.81c0.9,8.09,5.39,24.15,12.69,26.58c3.78,0.94,11.08,4.04,18.83-0.91c-2.32,0.3-4.23,1.11-6.24,0.5
		c2.88-7.91,3.25-8.33-0.81-2.92c-5.61-1.87,0.92,0.89-1.51,3.32c-3.02,0.81-5.94-0.7-8.86-0.7c-6.17-4.29-12.96-21.81-12.59-26.58
		c1.01-1.11,1.62-1.9,2.42-2.62c5.44-4.94,1.85-9.28,4.43-10.57c0.4-1.11-1.01-2.32,0.1-3.52c1.01,0.3,1.42,1.2,2.11,1.81
		c2.43,2.12,1.6,1.22,9.37,3.73c3.61,1.16,3.84-0.8,7.55-1.91c1.11-0.4,1.91-1.51,3.22-1.31c2.13,8.5,0.67,9.04,7.75,12.18
		c-0.85-0.85,4.23,1.75,7.15,2.52c0.6,0.1,1.41,0.1,1.91,0.81c1.47,8.41,2.06,15.69,7.85,21.75c1.11,1.16,1.99,2.67,3.66,3.1
		c0.61-2.12-6.98-7.23-8.69-16.9c-0.59-3.31-1.79-3.41-1.31-4.43c0.42-0.9,1.71-0.7,1.81-1.71c-0.95-1.27-2.42,0.69-2.42-2.11
		c2.11,0.2,4.23,0.3,6.14,0c5.04,2.32,10.47,3.52,14.4,7.96c-0.1,1.41,0.61,2.62,1.11,3.93c4.57,11.95,0.62,12.34,4.23,29.2
		c3.48,16.25,2.11,16.6,3.42,28.3c0.71,6.34,4.29,7.27,6.95,22.56c2.92,16.76,2.89,21.98,5.64,32.32c1.45,5.46,4.22,14.2,4.03,21.75
		c-0.19,7.39,2.11,13.86,2.11,18.43c-2.31,7.87-1.95,5.19-2.52,1.81c-1.71,2.42-0.91,5.04-1.41,7.45c-2.86,4.28-3.72,3.64-3.81,5.5
		c3.33-0.89,6.99-7.66,7.83-11.14c0.29-1.21,0.19-2.62,0.7-3.73c0.89-1.92,0.5-3.72,0.1-5.54c-4.14-18.95-0.38-18.64-2.92-26.48
		c-4.33-13.38-4.95-20.95-7.96-41.49c-2.22-15.15-7.23-16.45-7.55-23.66c-0.45-9.98-0.25-16.38-2.11-22.86
		c-2.25-7.86-2.73-9.82-2.42-13.49c0.87-10.13-1.13-25.8-10.47-29.61c-11.51-4.68-28.97-2.08-31.12-13.59
		c-1.6-8.57,2.3-8.56,4.33-20.74c0.6,0.1,1.01,0.1,1.51,0.2c3.46-2.6,1.86-3.88,3.22-5.24c3.05-3.45,1.11-8.95-0.7-9.47
		c-1.34,0.67-1.81,0.87-1.91,0.91c-0.75-9.03,0.62-15.13-1.91-19.13c-1.64-2.6-3.22-5.24-6.04-6.85
		c1.02-8.37-12.86-12.18-16.82-6.24c-2.01,3.02-2,3.06-5.54,4.43c-9.68,3.75-9.26,19.29-9.26,29.81c-0.6,0.81-1.21,1.71-1.71,2.42
		c-0.2,1.61-0.31,3.02,0.4,4.33c1.98,3.64,2.32,8.51,5.04,9.97c2.61,6.84,2.95,6.75,2.92,8.56c-0.2,12.57,0.93,6.91-3.22,14
		c-2.25,3.84-6.47,2.91-11.88,7.65c-20.33,2.03-15.4-4.21-36.96,8.16c-3.72,2.13-1.99,0.76-15.21,2.22
		c-18.01,1.98-15.6,4.1-19.74,3.02c-9.11-2.38-7.39-1.36-13.29-3.73c-8.13-3.25-36.09-3.14-38.87-5.64
		c0-13.34,2.15-129.12,2.72-132.82c3.51,2.11,6.7,5.24,16.51,1.51c1.61-0.61,3.12-1.41,3.83-3.32c0.33-1.31,3.85-2.73,4.93-14.1
		c0.19-2.01,0.7-3.93,1.01-5.74c1.11-0.6,2.11-0.7,3.22-0.7c3.15-0.19,3.11-2.2,3.93-3.42c0.84,0,4.53,0.98,4.53-1.41
		c-1.21-1.81-3.32-0.4-4.93-1.31c-0.6-0.5-1.11-1.41-2.62-1.81c-1.11,0-2.82-0.4-4.33,0.1c-1.81,0.6-3.43-0.41-5.14-0.1
		c-2.3,0.42-7.22,0.1-9.87,0.1c-9,0-8.44,0.87-10.27,0.3c-3.78-8.51-10.09-0.2,253.56-0.2c13.71,0-3.25-0.89-21.65-1.31
		c-245.12-5.65-232.68,0.05-228.89-8.16C104.67,11.84,82.73,18.65,359.56,18.65z M39.53,61.65c0,0.1,0,0.2,0.1,0.3
		C39.39,62.69,39.05,61.65,39.53,61.65z M38.95,529.2c0.24,0.15,0.58,0.31,0.08,0.82C39.03,529.69,38.98,529.44,38.95,529.2z
		 M39.33,532.63c-0.12-0.12-0.19-0.1,0.1-0.1L39.33,532.63z M40.42,558.26c-0.15,0.42-0.72,0.53-0.28-0.35
		C40.29,558.05,40.49,558.12,40.42,558.26z M40.94,576.74c-0.29,0-0.2,1.14-0.2-10.27C41.68,566,40.94,565.7,40.94,576.74z
		 M59.7,581.55c0.06,0.03,0.12,0.06,0.18,0.12C59.8,581.75,59.73,581.7,59.7,581.55z M227.14,148.86c-1.41-0.7-0.7-1.81-0.81-3.32
		C227.78,146.78,227.38,147.7,227.14,148.86z M268.23,143.02c0.6,0.2,0.6,0.2,0.3,2.82C266.26,145.84,266.78,143.2,268.23,143.02z
		 M266.72,149.67c0.1-0.4,0.2-0.91,0.3-1.61C267.22,148.86,267.32,149.36,266.72,149.67c0.23,0.92-0.15,1.46-1.31,2.62
		C264.1,152.28,264.48,149.46,266.72,149.67z M264.3,133.55c-0.1-0.1-0.2-0.1-0.2-0.1c0-0.1,0.1-0.2,0.1-0.3
		C264.57,133.15,264.3,133.42,264.3,133.55z M263.73,129.87c0.06-0.25,0.08-0.51,0.16-0.85C264.43,129.56,264.1,129.7,263.73,129.87
		z M262.28,120.66c-0.79,0.11-0.71-0.8-1.31-1.01c-0.83-0.18-0.91,0.75-1.4,1.05c-0.86-1.36-0.04-2.6-0.92-4.87
		C260.98,117.24,262.69,118.15,262.28,120.66z M244.46,106.67c0.7,0,0.91,0,1.01-0.2c0.78,0.62,0.06,1.24,0.06,1.85
		c0,1.73,1.31-1.06,2.96-1.65c0.6-0.1,1.21,0.81,2.22,0.6c1.78-0.36,6.43,3.31,6.24,5.54c-1.71,0-3.19-1.72-4.43-2.52
		c-0.4,0.2-0.81,0.4-1.21,0.6c-0.59-0.16-0.63-0.47-0.56-0.84c0.45-2.38-0.84-0.03-1.75,0.42c-1.52,0.55-3.48-0.81-4.83-0.81
		C244.05,108.58,245.26,107.73,244.46,106.67z M254.13,113.51c0.42,1.62,0.33,1.49-0.79,2.61
		C253.49,115.27,253.05,114.21,254.13,113.51z M254.27,117.7c0.09-0.09,0.21-0.18,0.36-0.26c0,1.21,0.13,1.01-0.49,1.01
		c-0.06,0-0.11,0.04-0.16,0.09C254.05,118.36,253.98,118,254.27,117.7z M253.9,118.63c-0.05,0.06-0.08,0.1-0.08,0.02
		C253.86,118.65,253.88,118.64,253.9,118.63z M253.22,116.31c0,1.39-0.34,1.13-0.6,1.4C252.71,117.16,252.75,116.63,253.22,116.31z
		 M248.69,115.13c-0.42,0.39-0.52,1.53-1.52,0.2c-0.98,7.35-0.8,3.06-0.8-2.52c0-0.45,1.22-0.15,1.64,0
		c1.38,0.5,0.76,2.69,1.05,2.11c0.61-0.61,1.47-3.33,3.25-1.51c-0.1,1.6-0.4,3.11-1.4,4.52c-0.34,0.34-0.56-0.78-0.8-0.98
		c-0.43-0.43-0.6,1.02-0.73,1.19C246.87,123.19,249.95,114.14,248.69,115.13z M252.51,117.84c0,0.6-0.07,1.07-0.55,1.26
		C251.85,119.1,252.1,118.17,252.51,117.84z M245.68,120.97c0.76,0.29,0.52,0.74,0.51,1.08
		C246.11,121.77,245.95,121.42,245.68,120.97z M245.27,116.43c0,0.1-0.2,0.35-0.2-0.1C245.06,116.07,245.27,116.08,245.27,116.43z
		 M244.26,112.51c0.19,0.6-0.07,0.97-0.5,1.41C243.35,112.71,243.35,112.71,244.26,112.51z M242.65,109.29c-0.1,0.2-0.2,0.4-0.3,0.5
		C241.94,109.29,242.45,109.39,242.65,109.29z M241.34,112.51c1.61,2.92,2.01,5.64,1.81,8.46
		C240.7,119.05,239.77,116.95,241.34,112.51z M237.21,113.11c1.25-0.11,1.38,0.46,1.47,2.65c0.13,3.04,0.71,2.47,0.06,2.47
		C237.7,117.88,237.13,114.96,237.21,113.11z M232.98,116.74c1,0.6,1.01,0.58,0.81,2.22C232.88,118.45,232.58,117.74,232.98,116.74z
		 M232.78,119.56c0,0.6,0.22,1.07-0.11,0.67C232.45,120.01,232.56,119.78,232.78,119.56z M228.35,136.07
		c-0.77-0.58-0.29-2.07,0.49-0.91C229.58,135.9,228.53,136.25,228.35,136.07z M229.56,156.11c0-0.49-0.44-0.23,0-1.11
		C229.84,155.58,229.8,155.63,229.56,156.11z M230.37,152.19c-1.49-3.44-1.31-7.77-1.31-11.48c0.2-2.52,0.2-2.52,2.11-4.73
		c-0.1-0.81-0.2-1.71-0.3-2.62c-1.09-1.09-0.29,2.75-2.62-4.73c2.45,0,0.55-1.4,0.81-2.42c0-0.7,0.91,0,1.01-0.81
		c-1.35-2.69-0.7-1.62,0.1-3.22c0.3-0.69-0.28-1.45,0.29-2.02c1.11,0.4,1.54,1.92,2.82,2.32c0.64-0.94-0.83-1.83-0.16-1.96
		c0.74-0.07,1.13,0.68,1.77,1.15c1.51-2.32-0.6-4.23-0.5-6.44c0.2-0.2,0.49-0.49,0.8-0.8c0.1-0.1,0.87,0.08,1.02,0.9
		c0.32,1.75,0.07,4.88,2.18,5.12c0.2,0-0.02-0.87,0.61-1.78c0.27-0.38-0.13-0.48,2.56,3.51c0.57,0.57,1.63,0.4,2.32,0.5
		c1.2,0.17,2.62,0.58,2.33-0.59c2.86,0.95,3.36,0.15,5.31-2.4c0.47-0.62,0.23-0.5,0.47,0.25c0.03,0.1,0.42,0.81,2.76,0.03
		c0-1.69-0.1-1.4,0.29-1.4c0.55,0,0.41,0.24,0.41-1.38c0.31-0.08,0.44-1.77,0.54-0.96c0.32,2.49,0.42-0.84,2.18-0.99
		c0.08,1.55-0.63,2.32-2.01,3.32c0,0.69-0.03,1.22-0.7,1.51c0,0.89,0.62,0.96,0.99,0.61c0.37-0.34,0.43-1.04,1.02-1.19
		c-0.06,0.82,0,1.96,0.82,1.88c1.45-0.14,1.21-1.12,1.21,0.68c2.6-0.74,0.57,1.82,2.92,2.75c0.95-0.54,0.23-1.93,1.01-2.82
		c1.85,3.2-2.31,6.87-0.22,7.92c0.37,0.25,0.71-0.63-0.58,2.85c0,1.11,0.7,1.61,1.41,2.22c0.38,9.42,2.06,10.01,0.4,13.7
		c-2.52,5.58-1.84,19.58-12.29,23.56c-3.86,1.47-4.46,1.07-5.45,0.91C232.82,170.87,233.5,159.41,230.37,152.19z M38.53,178.97
		c0.38-0.15,0.71-0.3,1.08-0.46c1.34-0.6,2.38,2.97,0.74,3.58C39.48,182.52,38.11,181.5,38.53,178.97z M38.93,183.7
		c0.6,0,1.01,0,1.41,0.1c1.31,2.11,1.31,2.11,0.5,4.03C39.52,188.36,37.48,186.44,38.93,183.7z M40.14,196.69
		c-1.13-1.85-1.07-1.85,0-2.92C40.7,194.66,40.48,195.69,40.14,196.69z M39.64,189.92c0.01-0.71,1.91,0.24,2.01,0.24
		c2.42-2.62,2.52-3.73,0.5-7.65c0.02-0.1-0.67-111.63,0.7-113.69c2.42-0.3,5.04,0.1,7.45-0.5c1.34,1.19,2.54,207.45,3.42,352.04
		c0.04,5.81,0.99,3.63-11.58,3.63c-1.6-1.6,0.38-231,0.06-231.5C40.67,190.93,39.62,191.35,39.64,189.92z M57.46,197.2
		c-2,0-2.62-0.98-4.23-1.31c-0.33-18.81-0.23-17.23,1.41-17.92c2.03-0.86,2.11-4.02,0.81-5.14c-0.71-0.6-1.31-1.21-2.22-2.01
		c0-3.54-0.3-4.85,3.52-1.41c0.39,1.93-0.08,3.85,0.6,12.69c0.08,1.01-0.7,1.61-1.11,2.72C57.66,188.64,57.66,192.87,57.46,197.2z
		 M73.17,59.24c2.83-0.77,5.64-1.81,7.35-4.33c1.39,0.41,7.35,136.25,7.35,136.35c-6.22-0.4-10.79-3.71-16.15-6.52
		c-0.12-0.07,0.04,0.08-0.46-0.82c-2.13-3.79-7.15-6.88-10.2-11.98c-0.99-1.65-0.69,7.32-3.29-105.25
		C70.24,57.33,62.69,62.1,73.17,59.24z M69.64,57.63c6.87-6.87,11.4-12.74,11.4-12.4c2.03,6.72-3.04,7.97-5.86,11.49
		C73.33,57.6,71.72,58.11,69.64,57.63z M91.9,46.95c2.13,14.93,2.19-9.78-0.2,92.44c-0.22,9.43-0.41,25.99-0.6,30.61
		c-1.68-14.31-5.77-119.47-7.15-128.19c2.23-3.06,6.35-6.75,6.65-7.35C92.32,35.33,90.64,38.12,91.9,46.95z M61.83,408.93
		c-1-7.58,3.8-14.81,7.11-15.67c19.78-5.15,20.57,7.87,20.95,27.02c0.05,2.61,0.72,2.84-11.78,1.98
		C55.33,420.7,64.45,428.69,61.83,408.93z M86.36,393.16c-1.29,0.59-6.16-3.87-13.7-2.42c-0.1,0.02-6.45,1.07-6.45,0.97
		c-0.35-0.76-5.26-189.7-4.62-191.09c3.15,0.11,6-1.02,6.74-1.2c23,9.13,20.89,7.76,20.95,10.57
		C90.11,253.19,86.36,371.84,86.36,393.16z M87.67,194.18c0.91,2.71,1.11,7.92,0.51,10.84c0,0.26-16.87-7.18-20.07-7.07
		c-2.21,0.07-5.2,2.15-7.03,0.06c-0.2-7.25-0.4-14.8-0.6-23.06c9.53,9.23,8.46,8.33,8.46,9.97C71.23,187.66,84.74,193,87.67,194.18z
		 M62.39,392.05c0.36,3.96,0.6,3.16,0.6,3.52c-1.8,2.98-2.82,6.53-2.62,12.18c0.57,15.85-0.75,11.92,0.2,15.41
		c0.91,1.21,2.02,1.72,3.42,1.31c2.42-0.7,4.93-0.3,7.35-0.4c0.98,0.78,1.26,2.35,2.62,2.52c-1.31,0.6-2.51,0.58-3.63,0.2
		c-2.8-0.96-5.64-0.55-8.46-0.6c-8.49-0.15-6.51,21.16-7.55-104.33c-1.13-136.58-2.96-125.29,2.52-122.25
		C58.53,201.08,58.38,261.59,62.39,392.05z M53.33,173.13c1.86,2.18,1.75,2.37,0.3,3.63C52.83,175.67,53.14,174.62,53.33,173.13z
		 M53.53,165.38c-0.39-0.62-2.02-96.42-0.7-98.48c2.36-1.11,1.54-3.66,4.03,100.3C55.45,166.38,54.44,165.88,53.53,165.38z
		 M53.63,426.39c-0.1,0.5,0,0.81-0.2,0.81c-3.95,2.59-10.83,5.61-11.42,5.36c-1.04-0.45-0.73-3.55-0.56-6.06
		C44.27,425.79,49.3,425.69,53.63,426.39z M39.84,482.08c-9.14-16.97-8.89-13.78-8.87-16.65c0.12-16.53-0.34-15.68,7.87-27.47
		c3.15-4.53,5.76-4.02,12.59-7.35c4.48-2.19,5.45-1.17,14.9-2.42c3.54-0.47,5.35,1.13,14.3,6.85c3.13,2,5.83,4.23,6.95,8.06
		c1.35,4.63,4.34,8.92,4.34,14.15c0,2.33-0.57,4.31-0.63,9.61c-0.03,2.76,0.99,1.87-5,10.71c-7.18,10.6-2.71,3.71-10.48,9.44
		c-2.25,1.29-3.52,1.22-8.16,3.12c-2.36,0.97-5.15,0.3-12.99,0.3C51.5,490.43,48.26,488.01,39.84,482.08z M74.68,428.61
		c1.91,0,3.63-0.3,5.44-0.2c0.91,1.41,0.3,2.82,1.01,4.93C78.6,431.76,76.38,430.42,74.68,428.61z M51.12,565.56
		c-9.64,0-8.96,0.06-8.96-2.32c0-3.31,0.03-45.56,0.4-50.05c1.14,0,8.17,0,9.37,0c0.95,0.54,1.04-3.39,1.21,50.65
		C53.13,565.1,52.79,565.56,51.12,565.56z M42.25,509.57c-0.2,0-0.4-0.2-0.6-0.3c-0.43-1.25-0.46-21.93-0.1-23.36
		c2.39-0.99,1.19,2.08,12.39,6.75c0.6,3.32,0.58,11.37,0.5,14.8C54.37,510.57,53.81,509.57,42.25,509.57z M55.95,566.07
		c15.83,0.66,14.7,0.14,14.7,0.59C56.26,566.67,56.82,566.94,55.95,566.07c-0.49-0.25-1.11-0.49-0.81-1.11
		c0-4.64-0.35-2.89,2.52-4.33c2.01-1.01,2.22-2.92,0.3-4.13c-0.8-0.51-1.71-0.81-2.62-1.21c-0.6-2.62-0.7-9.87-0.4-17.82
		c0.2-0.6,1.1-0.41,1.41-1.01c0.58-1.12,0-2.52,0.4-3.73c1.01-0.91,2.11,0.2,3.12-0.3c1.28-0.73,1.29-2.77-0.3-2.83
		c-0.49-0.02-1.89,0.34-2.03,0.06c-0.57-0.9-0.57-1.88-0.18-2.97c1.51-0.5,3.22-0.2,4.83-0.3c4.25-0.27,5.46,0.95,6.65-2.32
		c-0.49-0.73,0.14-0.8-3.33-1.49c-2.18-0.43-4.37-0.55-6.64,0.18c-1.21,0.39-2.52,0-3.93,0.81c-0.79-4.34-0.5-7.29-0.5-11.28
		c0.7-0.3,1.01-0.51,1.31-0.5c6.24,0.05,12.48-1.01,18.73-0.91c2.45,0.04,2.48-1.79,0.61-1.9c-2.18-0.14-18,0.76-18.63,0.52
		c-0.59-0.22-0.41,1.3-0.41-16.44c0-1.58,5.14-0.97,6.44-0.7c4.64,0.93,7.87-1.99,9.37-2.32c4.49-0.99,5.64-2.84,7.85-3.73
		c0.5-0.2,1.11-0.1,1.81-0.2c4.83-4.53,7.35-10.77,11.48-15.81c0.68-15.72,0.72-15.76-0.2-16.92c-0.2-0.3-0.3-0.7-0.3-1.01
		c-0.6-5.34-3.83-9.57-6.04-14.2c-0.73-1.31-1.98-2.3-4.13-3.83c-0.99-3.24,1.12-7.2-2-7.55c-1.01-0.11-2.12,0.25-3.03-0.2
		c0.6-1.21,1.91-1.31,2.82-2.11c3.73-0.4,7.55,1.01,11.08-0.81c0.91-1.31,0.72-2.72,0.6-4.13c-0.44-5.34-0.4-10.77-1.61-16.11
		c0.2-2.82-1.01-5.54-0.5-8.36c0.2-1.11,0.09-2.11,0.1-3.22c1.45-142.15,1.71-124.96,4.93-62.43
		c2.94,56.93,10.05,198.19,9.57,202.61c-0.49,4.45,1.46,12.36,0.1,14.4c1.41,1.91,2.36,3.7,1.31,6.14
		c-0.19,0.45-0.3,8.68,0.48,12.89C67.7,565.47,55.95,563.37,55.95,566.07z M54.54,560.02c0.7-2.22,0.7-2.22,2.01-1.91
		C56.8,559.25,55.42,558.94,54.54,560.02z M109.3,566.57c-1.21,0.42-1.74,0.14-2.99-1.11c0.99-0.81,0.9-1.96,0.9-3.13
		c0-8.77-0.58-9.45,1.5-9.48c0.87-0.01,1.41,0.35,1.42,0.61C110.47,567.75,110.66,566.09,109.3,566.57z M133.79,546.22
		c-4.28,0.19-25.6,2-26.07-0.14c-0.18-0.8,0.53-2.18-0.51-9.63c-1.77-12.56-0.81-10.96,1.01-15.81c3.16-2.71,3.89-4.49,8.07-5.15
		c7.32-1.15,14.06-0.54,16.71,6.45c2.13,5.64,0.49,5.14,1.01,8.26C134.25,532.85,134.71,544.38,133.79,546.22z M143.26,537.56
		c1.13-0.36,1.03-0.12,1.4,1.21C143.86,538.86,143.57,538.31,143.26,537.56z M153.63,534.54c0.18-1.43,0.88-1.44,1.41-1.61
		c0.22,0-0.26,1.99,0.55,3.41C154.42,536.35,154.2,535.31,153.63,534.54z M155.76,536.49c0-0.07,0.46,0.09,0.79,0.17
		C156.13,536.97,155.82,537.01,155.76,536.49z M171.53,531.61c-9.28,0.02-6.92-1.11-11.96,3.94c-5.03,1.44-4.08-3.45-0.5-3.93
		c7.53-1.01,14.1-1.48,15.31-2.01c0.86-0.38,1.97-0.41,2.82-0.2c0.51,0.51,0.5,1.41,0.4,1.41
		C175.85,531.4,173.38,531.61,171.53,531.61z M173.47,528.8c-0.47,0.2-0.59,0.31-0.84,0.38C171.81,529.44,171.93,528.8,173.47,528.8
		z M176.7,527.49c-0.16,0.1-0.28,0.17-0.4,0.18C175.32,527.83,176.7,526.4,176.7,527.49z M178.4,531.82c-0.61,0-0.68-0.69-0.78-0.94
		c0.58-0.58,1.31-1.41,1.78-1.88C180.75,529.9,180.61,529.24,178.4,531.82z M180.11,524.07c0-0.14,0.14-0.3,0.4-0.3
		c-0.09-0.35,0.12-0.73,0.58-0.7c0.1,0,0.11,0.54-0.58,0.7C180.31,523.77,180.21,523.87,180.11,524.07z M188.18,529.76
		c0,0.74-4.86,1.54-6.56,2.47c0-2.02,1.08-4.18-0.58-5.84c-0.38-0.38-0.45-0.2,0.17-0.79c2.38-2.25,3.54-2.37,6.66-1.33
		C188.57,525.2,188.28,528.81,188.18,529.76z M181.26,522.96c0.75-2.15,2.96-1.27,6.4-1.01c0.51,1.29-0.66-0.56-4.53,0.6
		C183.02,522.59,181.26,523.24,181.26,522.96z M192.2,524.67c-0.1,0.1-0.13,0.16-0.34,0.04c-0.4-0.2-0.3,0.03,0.24-0.64
		C192.1,524.35,192.44,524.43,192.2,524.67z M192,519.03c0.74-1.04,0.83-1.15,2.52-0.1C193.19,519.35,193.19,519.33,192,519.03z
		 M195.53,549.25c0.79,0.17,0.88,0.29,1.21,0.61c0.07,0,1.71,0.18,1.81,0.19c-1.26,0.98-1.62-0.12-1.9-0.21
		c-4.94,0-2.88-0.59-7.77-0.59C190.95,547.17,189.43,547.95,195.53,549.25z M197.63,553.78c-0.1,0-0.3-0.1-0.4-0.1
		C197.37,553.54,197.63,553.51,197.63,553.78z M205.77,563.25c-5.76,7.89-0.19,21.28-7.23,20.23c-6.59-0.98-16.31-6.29-21.45-10.98
		c-0.87-3.12,0.49-4.81,2.52-6.85c5.49-4.16,6.55-12.47,9.08-16.15c0,2.21,0.58,2.39,2.08,2.76c8.53,2.12,0.73,0.37-0.6,1.71
		c-0.35,0.71-0.12,1.5,1.11,1.91c1.42,0.48,9.38,2.81,10.44,1.73c1.13-1.15-0.77-1.8-0.78-2.73c0.75,0,1.79,0.47,2.56-0.01
		c0.93-0.52-0.01-1.89-0.15-2.31c0.18-1.08,5.26-1.91-10.98-6.55c-0.2-1.71,1.31-2.52,1.71-3.93c0.26-0.92,0.64-3.9,1.57-4.27
		c3.95-1.1,6.94,1.27,10.21,2.96c0.57,4.33-3.9,5.19,1.41,10.77C207.38,555.5,205.07,559.22,205.77,563.25z M199.99,550.86
		c-0.02-0.03-0.04-0.06-0.04-0.1C200.68,550.76,200.18,551.24,199.99,550.86z M200.77,554.82c-0.21-0.04-0.33-0.04-0.71-0.04
		C199.85,554.21,200.43,554.63,200.77,554.82z M201.96,515.41c0,0.07,0,0.13,0,0.2C201.84,515.48,201.84,515.54,201.96,515.41z
		 M207.35,546.08c-0.45,0.1,0.26,1.04-0.23,1.04c-0.33-0.03-0.32-0.3-0.13-0.53c0.26-0.32,0.44-1.11,0.61-1.37
		C208.16,544.37,208.11,545.92,207.35,546.08z M208.31,544.71c-0.07,0.07-0.19,0.1-0.29,0.1
		C208.05,544.38,208.45,544.42,208.31,544.71z M210.52,536.86c0.1,0,0.1-0.2,0.1-0.2c0.1,0,0.2,0.1,0.3,0.1
		C210.93,537.13,210.65,536.86,210.52,536.86z M212.34,544.51c-0.58,0.34-2.02-0.95,0.3-1.41
		C213.14,543.71,213.04,544.21,212.34,544.51z M212.64,523.37c0.1-0.45,1.19-0.11,1.71-0.11
		C214.35,523.41,214.61,523.37,212.64,523.37z M215.76,518.03c-0.81,0.6-1.71,0.4-2.72,0.3c4.34-0.44,2.97-0.85,4.23-0.5
		C216.77,518.13,216.26,518.03,215.76,518.03z M252.83,570.09c0.51,0.9,0.5,2.22,0.1,3.52c-2.75,3.1-4.98,2.47-7.37,2.44
		c-8.67-0.13-0.16,1.18-19.62-0.12c1.31-3.42,1.1-6.85,2.32-10.07c2.19-5.78-0.31-8.14,1.51-11.68c0.66-1.28-0.23-3.42,0.91-4.33
		c-0.3-1.9,0.75-2.11,2.42-2.82c1.84-7.36-3.93-5.62,8.66-7.45c0.7-0.1,1.61,0.3,2.32,0.5c0.95,1.41,0.1,2.73,0.1,4.55
		c0.57,8.3,0.76,1.33-13.49,5.22c0,2.62,1.8,1.82,3.52,1.82c-0.3,0.7-1.11,1.01-1.11,1.91c1.01,1.01,2.42,0.5,3.73,0.81
		c-0.7,0.81-2.11,0.81-2.42,2.01c0.2,1.71,1.91,0.91,2.72,1.51c0,0.4,0,0.91,0,1.31c2.24,0.8,3.33,1,6.75-0.6
		c-0.41-1.62,0.49-2.93,0.8-4.74C247.55,555.81,250.82,566.57,252.83,570.09z M244.96,550.45c0.37-0.37,0.11-0.19,0.4,0.4
		c-0.1,0-0.2,0.2-0.2,0.1C244.9,550.86,244.86,550.66,244.96,550.45z M242.85,537.46c-2.13,0.53-3.69,1.26-5.94,1.01
		c-0.75-1.51-0.07-6.54-1.02-5.31c-1.1,1.43,0.4,7.67-2.91-8.39c-0.77-6.13,1.13-3.95-2.92-20.44
		c16.09-23.56,18.07-33.99,18.83-34.74C253.72,470.19,247.51,495.48,242.85,537.46z M229.56,298.3
		c10.91,6.91,50.19,12.49,68.78,5.54c0.37-0.14,1.07-0.6,1.61-0.4c0.15,0.3,0.61,0.37,0.6,1.51c-0.12,16.36,3.27,13.53,0.5,36.55
		c-0.56,4.64-0.69,5.12-1.51,6.04c-0.64,0.71-3.96,15.12-4.93,18.23c-4.05-0.32-29.94-7.77-35.04-11.08
		c-1.54-1.18-3.36,0.47,2.32,3.22c12.41,6.02,23.23,6.56,23.87,6.95c3.29,2.03,7.31,1.48,8.65,2.82
		c-2.92,8.76-4.12,23.06-18.73,42.5c-12.74,16.95-16.7,19.91-21.35,33.43c-3.48,10.13-2.99,6.13-4.33,12.59
		c-3.94,18.96-11.92,32.89-22.66,49.85c-5.98,9.45-5.01,11.66-7.14,11.07c-1.11-0.31,0.55-2.74-0.01-4.42
		c-1.4,0.54-0.99,2.2-2.11,3.12c-7.1,0-7.87,0.99-10,0.47c-0.59-0.14-0.68,2.66,7.08-24.14c2.19-7.57,4.71-28.67,9.97-34.94
		c1.93-2.3,3.12-5.04,4.63-7.55c4.34-7.2,0.75-12.15,2.22-17.82c7.82-30.42,15.7-41.65,19.94-60.92
		c2.36-10.72,6.68-18.67,2.42-15.11c-0.5,2.01-1.01,4.13-1.61,6.34c-6.33,1.51-26.18,1.13-28.6,0.5c-7.32-1.9-6.78-1.14-6.75-3.63
		c0.32-26,0.19-22.09,7.85-53.57C225.75,303.26,227.63,297.08,229.56,298.3z M228.24,443.86c-0.47,0.31,0.14-10.21-1.7-16.26
		c-3.92-12.92-7.97-48.67-8.85-49.94c-0.48,0-0.92-12.39-0.11-14.81c7.65,0,7.38,2.04,15.41,2.32c18.13,0.62,18.18-2.21,18.78-0.49
		c0.71,2.01-13.57,39.33-14.45,41.28c-5.19,11.45-6.95,22.92-8.56,31.22C227.83,441.93,230.43,442.66,228.24,443.86z M95.63,210.29
		c4.08,1.67,8.99,4.42,17.32,5.94c4.67,0.86,6.87,3.34,23.87,6.55c3.16,0.4,4.56,1.99,11.48,0.3c9.01-2.2,16.02,0.01,25.98-0.5
		c3.82-0.2,16.65-1.62,18.93-2.62c3.54-1.54,3.91-0.83,7.45-2.01c1.3,0.57,7.52,1.75,10.98,8.76
		c19.96,40.41,16.44,17.58,21.75,46.12c1.79,9.64-8.37,21.17-12.79,40.08c-10.07,43.07-4.98,59.43,2.33,106.64
		c0.63,4.05,1.91,4.34,1.91,4.83c0.05,3.43,1.51,5.11,1.51,9.38c-0.86,10.71,2.12,11.6,0.2,14.99
		c-12.7,22.51-4.91,16.14-19.94,65.66c-0.3,1.79-0.79,2.8-2.42,2.62c-0.89-0.97,0.33-3.83-1.41-3.83c-4.15,0.64-8.81,0.28-9.16,0.4
		c-5.67,0.81-4.79,2.05-5.84,6.24c-1.21,0.7-2.52,0.3-3.93-0.2c-3.02,0.91-5.34,2.42-6.44,5.64c-2.83,1.54-10.59,4.32-13.7,3.93
		c-3.9-0.73-4.03,2.16-5.44-0.3c-3.02,0.91-5.34,2.62-6.75,5.34c-1.31,0.2-2.52,0.3-3.73,0.5c-2.34-1-5.18-3.08-8.66,0.4
		c-1.05,1.05-1.54,2.36-3.02,2.11c-0.83-0.35-0.73-0.99-0.85-3.76c-0.34-8.44,1.51-7.6-1.77-14.27c-2.82-5.73-9.78-7.17-14.8-6.34
		c-4.9,0.8-5.02,0.06-10.47,4.83c-1.4-0.7-0.01,3.11-7.41-142.37C92.12,204.57,92.14,208.86,95.63,210.29z M104.39,32.05
		c11.75,0,13.55,0.51,16.41-0.5c2.03,2.03,1.54,0.72,2.92,0.2c2.22,0.44,3.25-0.83,4.22,0.45c0.5,0.66,1.84,5.56-5.23,3.68
		c-2.54,1.38,0.1,1.29-3.73,16.11c-0.83,3.22-3.02,5.54-5.44,7.65c-0.88,0.88-8.29,3.23-14.1,0.44c-0.1-0.07-3.06-3.51-2.62-6.18
		c-0.34-0.94-1.01-1.3-1.62-1.84c-1.92-1.92-2.24-17.69-1.9-20.41C97.13,32.52,100.71,32.26,104.39,32.05z M74.48,49.17
		c-4.73,5.44-9.87,10.47-16.21,14.8c-0.81,0-1.61,0-2.42,0c-1.71,1.61-3.93,2.51-6.34,2.42c-1.98-0.08-7.85,1.24-7.85-1.11
		c1.53-11.05-0.4-13.12-0.2-47.63c0.04-6.41,4.43-2.35,21.05-3.42c4.05-0.26,34.15-2.14,37.96-0.5
		C104.44,20.69,89.01,32.47,74.48,49.17z"/> <path d="M316.46,365.67c0-0.19,0.09-0.15-0.1-0.1L316.46,365.67z"/> <path d="M286.75,211.6l0.1-0.1C286.77,211.46,286.79,211.47,286.75,211.6z"/> <path d="M238.42,120.56c0.07-0.07,0.05-0.05,0.1-0.1C238.48,120.46,238.42,120.42,238.42,120.56z"/> <path d="M669.11,551.36c-1.54-6.11,0.33-5.42-0.1-6.85c-1.36-4.46,2.25-6.57-2.22-8.56c-1.63,1.09,0.89,2.45,0.1,4.23
		c-0.91,2.42-0.1,4.63,0.5,6.85c-0.6,3.22-0.72,5.54-0.1,7.45c1.18,3.63,1.58,7.57,3.42,11.08c0.69,1.32,0.5,2.62-0.4,4.13
		c-5.78-0.72-10-0.6-24.17-0.6c-3.41-3.41,2.2-9.11,0.3-10.47c-2.56,5.97-4.53,8.76-1.31,11.98c1.13,0.47-1.37,0.3,24.97,0.3
		c4.9-2.94,2.32-5.92,1.71-7.96C669.29,554.37,672.25,563.81,669.11,551.36z"/> <path d="M654.71,543.51c-0.8,0.11-1.61,0.4-1.81,1.61c1.81,1.71,4.13,0.6,6.75,0.81c-5.14,1.43-6.04,1.54-6.04,3.02
		c2.53,1.73,6.49,0.66,6.24,0.91c1.18-1.18,3.56,0.34,4.13-2.52c0.3-0.4-1.01-0.7-0.5-1.51
		C667.41,543.46,660.64,542.73,654.71,543.51z"/> <path d="M259.67,210.49c1.7,0.21,5.45-4.73,6.34-10.07c0.69-4.12,0.92-12.99-0.75-16.78c-0.47,0.39-0.75,0.89-0.66,1.47
		c0.53,3.62,0.01,7.25-0.2,10.88C263.76,206.77,259.17,209.01,259.67,210.49z"/> <path d="M265.31,183.6l-0.1-0.1C265.28,183.68,265.25,183.65,265.31,183.6z"/> <path d="M317.17,358.12c0-1.67,0.05-7.08-1.61-6.85c-0.4,2.52,0.5,4.93,0.6,7.45c-1.82,5.47-3.97,1.19-6.34,4.43
		c1.16,0.79,1.36-0.05,0.4,0.91c-0.25-1.49-0.55-0.55-1.31-0.81c-0.6,0.81,0.3,1.61-0.2,2.42c-1.76,2.82-0.51,4.63,2.11,3.32
		c0.6-0.3,1.31,0.6,2.11-0.2c0.5-1.11-0.6-2.62,0.2-4.13C315.36,362.12,317.17,360.77,317.17,358.12z M309.71,368.09
		c-0.81-1.41,0.3-1.91,1.31-3.22C311.22,367.38,311.22,367.38,309.71,368.09z"/> <path d="M242.65,247.24c-17.3,0-17.94-5.83-19.44-4.63C222.2,244.64,235.97,252.25,242.65,247.24z"/> <path d="M650.99,568.28c5.54-4.43,7.21-2.74,14.5-1.01c-0.3-1.21-1.01-1.41-1.61-1.61c-5.34-1.74-9.96-3.48-13.49,0.4
		C649.66,566.85,649.88,567.47,650.99,568.28z"/> <path d="M663.58,540.89c-3.32-0.36-6.75-0.3-10.17-0.1c-0.6,0-1.01,0.4-1.01,1.41c3.02,1.01,9.16,1.01,12.08,0.2
		C664.88,541.49,664.38,540.97,663.58,540.89z"/> <path d="M283.83,241.61c3.02-1.51,4.63-2.72,5.94-5.14c-5.61,3.21-8.14,5.23-17.22,6.14C276.38,243.02,280.21,243.42,283.83,241.61
		z"/> <path d="M659.94,549.86c-1.07,0.9-3.09,0-4.62,1.1c-0.5,0.4-1.01,0.7-0.7,1.41c2.92,1.41,4.73,1.31,7.35-0.4
		C662.59,550.92,661.15,549.9,659.94,549.86z"/> <path d="M659.94,549.86l0.01-0.01C659.83,549.85,659.8,549.86,659.94,549.86z"/> <path d="M250.5,191.46c3.02-1.11,5.84-2.22,9.06-3.32c-2.21-0.55-3.86-0.15-8.56,1.81c-2.25,0.94-1.93,3.08-2.62,3.63
		c-0.3,0.2-0.3,0.3,0.1,0.4C250.36,193.97,250.08,193.15,250.5,191.46z"/> <path d="M654.81,555.39c0.98,2.68,6.88,1.71,5.44-0.81C657.53,553.68,657.03,553.78,654.81,555.39z"/> <path d="M201.06,202.74c-2.55,1.02,3.17,4.97,5.34,6.14c0.3,0.2,0.7,0.1,1.01,0.1C205.89,206.26,203.17,204.85,201.06,202.74z"/> <path d="M242.75,191.86c-3.02-1.21-6.14-2.32-9.47-2.32C236.4,190.85,239.53,191.66,242.75,191.86z"/> <path d="M267.62,289.84c1.01-1.61,1.01-1.61,0.1-2.72c-1.01,0.4-1.81,1.31-3.73,1.51C265.41,290.34,266.51,290.04,267.62,289.84z"/> <path d="M248.19,301.02c0.4-2.82-0.5-4.63-1.71-6.85C246.27,296.79,246.78,298.7,248.19,301.02z"/> <path d="M289.27,214.11c0.4-1.81-0.1-3.52-1.41-5.14C287.86,211.9,287.26,215.01,289.27,214.11z"/> <path d="M144.46,205.05c-1.91,0.2-3.63,0.3-5.24,1.51C143.05,206.86,143.05,206.86,144.46,205.05z"/> <path d="M286.15,302.43c0.4-2.82,0.81-5.64,0.1-8.46C285.95,296.79,285.65,299.61,286.15,302.43z"/> <path d="M192.8,212.1c-1.91-0.5-3.52,0.3-5.84,0.91C189.48,213.51,191.19,213.41,192.8,212.1z"/> <path d="M253.22,240.8c-1.17,0.58-2.04,1.55-2.65,2.79C252.09,243.34,253.12,242.45,253.22,240.8z"/> <path d="M212.14,213.21c0.3-0.81-0.2-1.31-0.91-1.61C210.83,212.81,210.83,212.81,212.14,213.21z"/> <path d="M264,264.06c-0.2-0.81-0.3-1.71-0.3-2.62C263.29,262.35,262.99,263.36,264,264.06z"/> <path d="M263.9,264.16c0,0.91,0,1.91,0.4,3.02C264.5,265.97,264.6,265.07,263.9,264.16z"/> <path d="M255.24,173.13c-0.3,0.81-0.4,1.31-0.1,2.01C255.24,174.54,255.74,174.04,255.24,173.13z"/> <path d="M54.94,592.04c-0.6,0.91-0.6,0.91,0,1.41C55.24,592.95,55.34,592.55,54.94,592.04z"/> <path d="M55.04,569.28c-0.81,0.81-0.81,0.81,0,1.51C55.45,570.29,55.45,569.79,55.04,569.28z"/> <path d="M223.72,240.5c-0.1-0.5-0.3-0.81-1.21-0.81C222.81,240.4,223.01,241.1,223.72,240.5z"/> <path d="M274.57,255.69c-0.1-0.3-0.1-0.69-0.6-0.29c1.32,0.66,0.65,1.11,2.22,1.11C275.8,255.94,275.31,255.55,274.57,255.69z"/> <path d="M246.47,287.52c0.3-0.5,0.4-1.01,0-1.61C246.47,286.52,246.47,287.02,246.47,287.52z"/> <path d="M134.6,206.46c-0.38,0.13-0.4,0.07,0,0.2V206.46z"/> <path d="M48.3,572l-0.3,0.1C48.37,572.23,48.3,572.27,48.3,572z"/> <path d="M178.6,213.01c0.64,0.32,0.61,0.2,0.81,0C179.07,212.67,179.07,212.54,178.6,213.01z"/> <path d="M267.42,242.21c0.28,0-0.07,0.03-0.4-0.3C266.59,241.91,266.18,242.21,267.42,242.21z"/> <path d="M246.98,245.53c0-0.26,0.08-0.23-0.3-0.1L246.98,245.53z"/> <path d="M249.09,244.32c0.48,0,1.06,0.18,1.28-0.62C249.85,243.59,249.47,243.86,249.09,244.32z"/> <path d="M250.37,243.7c0.05,0.01,0.08,0,0.13,0.02c0.02-0.05,0.05-0.09,0.07-0.13c-0.15,0.03-0.18,0.02-0.15,0.06
		C250.4,243.63,250.39,243.64,250.37,243.7z"/> <path d="M236,174.84l-0.1,0.3C236.04,175.14,236,175.2,236,174.84z"/> <path d="M231.47,189.04c0.11-0.11,0.13-0.2-0.2-0.2C231.07,189.04,231.27,188.84,231.47,189.04z"/> <path d="M260.98,187.63c0.38-0.13,0.4-0.07,0-0.2V187.63z"/> <path d="M240.84,185.82c0.3-0.4-0.1-0.6-0.2-0.81C240.73,185.21,240.73,185.41,240.84,185.82z"/> <path d="M286.05,212c0,0-0.2-0.1-0.3-0.1C285.95,212.2,286.05,212.2,286.05,212z"/> <path d="M315.3,366.24c-0.16,0.16-0.32,0.3-0.45,0.43C315.05,366.6,315.19,366.45,315.3,366.24z"/> <path d="M315.45,365.87c-0.03,0.14-0.09,0.26-0.15,0.37C315.62,365.93,315.58,366,315.45,365.87z"/> <path d="M314.75,366.57l-0.1,0.3C314.89,366.63,314.88,366.71,314.75,366.57z"/> <path d="M207.81,209.28c-0.2-0.1-0.3-0.1-0.5-0.2C207.4,209.28,207.3,209.68,207.81,209.28z"/> <path d="M248.99,209.08c0-0.2-0.1-0.4-0.2-0.5C248.33,209.04,248.43,208.8,248.99,209.08z"/> <path d="M240.73,184.91h-0.3C240.67,185.03,240.61,185.04,240.73,184.91z"/> <path d="M242.89,247.14c-0.08,0.01-0.14,0.04-0.14,0.2C242.8,247.29,242.85,247.22,242.89,247.14z"/> <path d="M242.95,246.94c0,0.17-0.13,0.2,0,0.2C242.95,247.14,242.95,247.04,242.95,246.94z"/> <path d="M248.99,244.22c0,0.1,0,0.2-0.1,0.3C248.99,244.53,248.99,244.42,248.99,244.22z"/> <path d="M267.72,242.51c-0.03-0.03-0.07-0.07-0.1-0.1C267.62,242.41,267.62,242.51,267.72,242.51z"/> <path d="M253.32,240.9c0.3-0.1,0.3-0.2,0.1-0.3C253.42,240.7,253.32,240.8,253.32,240.9z"/> <path d="M685.02,292.26l-0.1-0.1C684.79,292.25,684.82,292.22,685.02,292.26z"/> <path d="M659.03,114.22c0.04-0.03,0.08-0.07,0.11-0.1C658.96,113.93,659.03,114.07,659.03,114.22z"/> <path d="M649.28,121.07c-0.08,0.06-0.1,0.02-0.1,0.1L649.28,121.07z"/> <path d="M659.25,110.9c-0.01-0.02-0.02-0.03-0.02-0.05C659.54,112.4,662.4,116.01,659.25,110.9z"/> <path d="M682.2,122.38c-0.07,0-0.13,0-0.2,0C682.13,122.64,682.08,122.63,682.2,122.38z"/> <path d="M259.36,122.07l0.1,0.1C259.46,121.99,259.48,122.07,259.36,122.07z"/> <path d="M696.22,289.56c-0.07-0.01-0.14-0.01-0.22-0.02C696.12,289.66,696.11,289.67,696.22,289.56z"/> <path d="M729.29,292.29c2.24,0.61,3.43-2.92,5.29,1.98c1.49,3.93,7.28,13.31,11.39,16.34c0.74,0.54-0.51-1.61-0.6-2.25
		c-4.39-8.28-9.17-13.55-10.47-17.12c-4.26-11.66-18.77-27.47-21.05-35.45c-2.77-9.71-4.03-11.57-3.02-16.01
		c0.1-0.6,0.01-1.2,0.3-1.71c0.63-1.1-0.3-2.11-0.2-3.32c1.11-2.01,1.22-4.53,2.22-6.85c2.85-6.63,1.11-12.59-2.82-18.23
		c-0.09-0.18-0.31-0.18-0.6-0.3c-0.76,1.06,0.16,2.09,1.41,6.04c4.08,12.93-5.7,26.31-1.01,34.14c1.17,1.95,1.58,10.65,10.57,22.46
		c0.8,1.06,1.34,1.61-1.31,3.12c-17.5,11.9-20.39,12.61-23.14,14.42c4.78,0.68,21.23-11.58,26.52-14.69
		c0.17-0.17,1.45,0.54,1.45,1.58c-0.22,1.99,1.15,0.44,7.55,12.59C733,291.36,730.32,290.96,729.29,292.29z"/> <path d="M729.13,292.26c0.08,0.08,0.02,0.02,0.1,0.1C729.29,292.24,729.35,292.33,729.13,292.26z"/> <path d="M684.62,178.77c-0.11-0.78-0.61-1.13-1.31-1.21c0.3,3.83-0.03,7.66-0.2,11.68c-0.51,12.09-6.65,14.8-4.63,14.8
		C686.12,198.95,685.88,187.86,684.62,178.77z"/> <path d="M662.06,240.29c-11.87,0.33-10.81-0.2-19.94-4.32C645.42,240.91,654.92,244.44,662.06,240.29z"/> <path d="M708.49,230.53c0.3-0.3,0-0.6-0.3-0.81c-7.81,4.93-10.56,5.54-17.62,5.94C697.91,237.58,703.55,235.46,708.49,230.53z"/> <path d="M669.72,183.3c-1.5,0.54-2.11,2.01-2.22,3.52c1.23,0.72,1.35-0.39,1.71-2.11c11.31-4.17,4.05-1.37,10.77-3.73
		C676.06,180.58,672.87,182.17,669.72,183.3z"/> <path d="M619.87,196.39c-0.23-0.14-0.51-0.13-0.72,0.06c-1.36,1.21,5.1,5.58,7.37,6.59C625.82,201.4,625.22,200.67,619.87,196.39z"/> <path d="M747.37,312.02c-3.11-3.6,0.27,2.14,0.39,2.61c0.33,1.27,0.55,3.6,1.81,4.23c-0.3-1.21,0.3-2.11,0.5-3.12
		C748.86,312.33,748.26,313.04,747.37,312.02z"/> <path d="M682.71,260.64c0.4,2.72,1.41,5.34,2.52,7.75C685.71,269.09,687.37,268.1,682.71,260.64z"/> <path d="M686.23,272.32c0.4,0.64,1.45,2.09,1.61,2.32C691.97,275.09,690.36,269.85,686.23,272.32z"/> <path d="M661.56,185.31c-3.22-1.51-6.65-2.52-10.37-2.72C654.41,184.31,657.94,184.61,661.56,185.31z"/> <path d="M676.67,291.35c0.43,0.43,0.86,0.45,1.31,0c-2.09-2.69-2.21-2.83-4.32-6.07C673.27,284.69,673.31,287.99,676.67,291.35z"/> <path d="M708.29,279.47c0.5-2.82,0.5-3.12-1.11-6.04C707.43,276.35,706.93,279.47,708.29,279.47z"/> <path d="M611.61,205.05c-2.32-0.1-4.23,0.6-6.14,1.51C608.28,206.8,610.12,206.9,611.61,205.05z"/> <path d="M707.78,207.27c0.5-1.91-0.1-3.63-1.21-5.94C706.49,203.81,705.65,208.55,707.78,207.27z"/> <path d="M557.34,199.51c4.05,0.69,4.3,0.74,5.54-1.01C561.06,198.19,559.33,199.13,557.34,199.51z"/> <path d="M668.31,237.28c1.96,0.23,3.78-2.62,3.7-2.92C671.75,233.41,671.34,234.24,668.31,237.28z"/> <path d="M662.27,312.1c5.82,0,5.24,0.09,5.24-0.2C661.82,311.89,662.27,311.81,662.27,312.1z"/> <path d="M677.98,248.15c1.01,1.72,1.14,3.15,2.42,3.93C679.89,249.76,679.89,249.76,677.98,248.15z"/> <path d="M667.12,309.36c0.47-0.02,0.99-0.09,1.59-0.28C665.21,308.61,663.26,309.49,667.12,309.36z"/> <path d="M722.59,247.14c-0.81,1.21-0.91,2.11-0.3,3.22C723.29,248.25,723.29,248.25,722.59,247.14z"/> <path d="M692.27,248.25c0.2,0.91,0.81,1.01,1.51,1.01C693.58,248.55,693.08,248.25,692.27,248.25z"/> <path d="M597.22,206.15c0,0.76,1.32,0.52,0.5-0.29C597.63,205.86,597.22,206,597.22,206.15z"/> <path d="M629.46,205.59c-0.03,0.49,0.47,0.81,0.99,1.17C631.36,205.44,629.53,204.37,629.46,205.59z"/> <path d="M705.79,268.51c-0.03-1.65-0.9-0.07-0.22,0.79C705.72,269.04,705.79,268.78,705.79,268.51z"/> <path d="M674.05,166.99c-0.7,0.2-0.5,0.6-0.3,1.11C674.08,167.76,674.32,167.44,674.05,166.99z"/> <path d="M685.67,235.79c0.73,0.05,0.48-0.64-0.24-0.43C685.1,235.36,685.22,235.79,685.67,235.79z"/> <path d="M663.31,166.59c-0.51-0.87-1.38-0.51-2.16-0.7C661.76,166.79,663.44,166.78,663.31,166.59z"/> <path d="M745.88,306.31c-0.08,0.12,0.27,0.34,0.37,0.55C746.92,306.19,746.15,305.9,745.88,306.31z"/> <path d="M704.56,260.54c0,0.7,0,1.11,0.6,1.41C704.96,261.54,705.16,261.04,704.56,260.54z"/> <path d="M747.92,309.44c-0.04-0.59-1.51-0.82-0.25,0.44C747.86,309.73,747.93,309.58,747.92,309.44z"/> <path d="M691.39,297.05c-0.03-0.5-0.21-0.74-0.52-0.97C691.28,296.91,691.47,298.45,691.39,297.05z"/> <path d="M665.82,271.41c-0.08,0.23-0.02,0,0.17,0C665.99,271.21,665.95,271.12,665.82,271.41z"/> <path d="M705.26,262.86c0.28-0.37-0.08-0.6-0.19-0.82C705.22,262.36,705.26,262.54,705.26,262.86z"/> <path d="M720.79,253.47c0.21,0.65,0.63,0.02,0.47-0.58C720.89,252.96,720.69,253.16,720.79,253.47z"/> <path d="M680.29,252.18c0.18,0.18,0.2,0.64,0.2,0.91C680.79,252.69,680.77,252.37,680.29,252.18z"/> <path d="M665.84,238.55c-0.01,0.01-0.02,0.03-0.02,0.03C666.35,238.57,666.15,238.16,665.84,238.55z"/> <path d="M665.59,238.79c0.06-0.03,0.26-0.19,0.17-0.19C665.66,238.64,665.59,238.66,665.59,238.79z"/> <path d="M665.49,238.69c-0.2,0.1-0.4,0.2-0.5,0.4C665.19,238.99,665.39,238.89,665.49,238.69z"/> <path d="M693.18,290.75c0-0.13,0.06-0.12-0.3,0H693.18z"/> <path d="M654.61,167.89h-0.2C654.54,168.27,654.48,168.29,654.61,167.89z"/> <path d="M703.05,289.34v-0.1C702.8,289.24,702.78,289.2,703.05,289.34z"/> <path d="M690.45,295.21c-0.23-0.08-0.01-0.03,0.51,0.88C690.76,295.77,691.05,295.45,690.45,295.21z"/> <path d="M668.01,237.38c0,0.38,0.34,0.17,0.2-0.2C668.21,237.38,668.11,237.38,668.01,237.38z"/> <path d="M641.62,233.55c0.2-0.2,0.78-0.06-0.1-0.5C641.52,233.25,641.62,233.45,641.62,233.55z"/> <path d="M672.64,199.92c0-0.1,0.1-0.1,0.3-0.2C672.94,199.34,672.64,199.53,672.64,199.92z"/> <path d="M659.14,178.67c0.1,0.1,0.2,0.2,0.3,0.2C659.35,178.77,659.25,178.77,659.14,178.67z"/> <path d="M659.1,178.63C659.04,178.57,658.96,178.49,659.1,178.63L659.1,178.63z"/> <path d="M729.03,292.66c0.1-0.1,0.1-0.2,0.1-0.3C729.13,292.56,729.03,292.56,729.03,292.66z"/> <path d="M721.38,252.98l0.1-0.2C721.22,252.91,721.25,252.85,721.38,252.98z"/> <path d="M693.8,249.45c0.06,0,0.09-0.04,0-0.08C693.68,249.33,693.65,249.34,693.8,249.45z"/> <path d="M693.88,249.55c0.17,0.06-0.09-0.1-0.09-0.1C693.79,249.52,693.83,249.54,693.88,249.55z"/> <path d="M766.89,397.79c-0.58,2.85-0.91,3.53-0.79,3.53c2.31,1.41,3.5,3.51,4.61,5.93c1.99,0.4,3.3,2.97,6.17,2.23
		c0.02-0.01,0.04-0.01,0.07-0.01c-1.41-2.32-3.93-2.72-5.94-4.23c-0.28-0.99-1.53-4.51-2.52-5.04
		C767.51,399.68,768.1,398.5,766.89,397.79z"/> <path d="M787.44,425.18c-3.42-4.83-4.63-6.04-7.55-7.35C782.91,421.96,785.72,424.68,787.44,425.18z"/> <path d="M769.93,388.02c-0.09,0.07-0.93,0.7-0.91,0.81c0.12,2.5,0.57,4.36,0.4,6.95C770.27,393.23,771.92,390.92,769.93,388.02z"/> <path d="M780.19,399.5c0.1,2.32,0.81,4.43,2.52,6.14C782.4,403.43,782.2,401.11,780.19,399.5z"/> <path d="M789.35,428.1c0.3,1.01,0.6,1.81,1.61,2.22C790.56,429.61,790.76,428.51,789.35,428.1z"/> <path d="M768.71,386.92c0.8-0.45,0.68-1,0.4-1.81C768.71,385.51,768.2,386.01,768.71,386.92z"/> <path d="M797.31,438.78l0.1,0.3C797.53,438.7,797.57,438.78,797.31,438.78z"/> <path d="M675.29,448.3c-0.64,2.51-2.46,5.55-2.25,9.49c0,1.4,3.38-8.7,3.83-10.05c0.1-0.3-0.1-0.7-0.2-1.01
		C675.72,447,675.46,447.64,675.29,448.3z"/> <path d="M672.64,416.92c-1.26-1.52-2.05-5.59-3-2.65c-0.35,1.1,2.05,5.92,5.72,6.17C674.45,419.24,673.55,418.03,672.64,416.92z"/> <path d="M664.39,429.71c-0.77,1.08-0.08,5.63,0.1,6.95c0.34,1.72,1.43,0.47,1.53-1.15c0.07-1.11-0.29-2.25-0.42-3.38
		C665.5,431.32,665.6,430.32,664.39,429.71z"/> <path d="M675.57,428c0.21,2.53-0.82,5.41-0.82,7.25C676.47,433.04,678.22,427.74,675.57,428z"/> <path d="M664.58,423.07c-0.8,2.9-0.81,2.91,0,4.63C665.59,424.88,665.59,424.88,664.58,423.07z"/> <path d="M675.47,420.46c1.12,1.12,1.02,3.07,4.02,3.21C678.93,422.56,677.3,420.86,675.47,420.46z"/> <path d="M668.81,411.18c-0.2-0.3-0.5-0.7-0.7-1.11C667.58,410.79,667.94,411.05,668.81,411.18z"/> <path d="M674.65,435.15c-0.09,0.29-0.51,0.53-0.2,0.91C674.55,435.66,674.55,435.45,674.65,435.15z"/> <path d="M468.02,52.49c-0.47-1.4-0.47-0.97-1.41-1.91C460.65,53.03,467.11,56.72,468.02,52.49z"/> <path d="M512.96,9.48c-0.89-1.29-4.23-0.32-3.45,2.02C511.03,14.11,514.04,11.06,512.96,9.48z"/> <path d="M468.32,9.89c-0.74,1.2-0.79,1.31-0.7,1.81C469.52,14.75,473.12,12.3,468.32,9.89z"/> <path d="M492.35,11.65c0.86-0.12,0.92-1.77,0.02-1.89C491.02,9.57,491.28,11.8,492.35,11.65z"/> <path d="M466.91,32.15c0.9,0.23,0.68-1.01,0.4-1.01C466.56,30.94,466.38,31.89,466.91,32.15z"/> <path d="M484.73,342c-9.09-2.43-13.05,2.06-19.94,5.64c-1.41,0.73-7.55,4.51-7.75,6.55c1.66,4.57-0.83,5.22,15.41,5.44
		C478.42,359.7,497.13,345.32,484.73,342z M473.35,345.13c4.47-2.87,10.17-2.34,14.8,0.5c0,1.39-1.79,3.34-1.89,3.3
		c-4.29-1.4-8.51-0.47-13.01,0.42C473.25,347.84,473.25,346.43,473.35,345.13z M473.15,352.58c0.5-1.01,1.31-1.41,2.22-2.11
		c6.77,0,11.22-1.88,8.16,1.63c-2.86,3.28-8.66,5.12-10.07,5.12C472.75,355.7,473.25,354.09,473.15,352.58z M471.54,357.31
		c-0.96,0.96-1.83,0.85-9.67,0.2c-0.81,0-1.51-0.4-2.11-1.01c-0.4-0.5-0.5-0.91-0.4-2.82c3.52-3.12,7.25-6.04,11.88-7.85
		C471.98,348.77,471.84,354.27,471.54,357.31z"/> <path d="M478.1,397.8c13.33-1.47,33.36-12.76,25.37-20.75c-0.3-0.3-1.21-0.5-1.31-0.5c0,1.51,1.42,2.69,1.51,4.73
		c-1.88,5.86-10.72,10.63-16.31,13.19c-1.79,0.82-12.61,2.95-13.6,0.96c-0.39-2.9-0.39-5.81-0.09-8.71c1.91-1.61,4.04-2.9,6.14-4.23
		c6.75-4.27,7.39-5.08,13.39-5.74c4.47-0.49,6.56,1.11,8.96-0.2c-0.49-1.19-12.31-2.18-16.81,0.82c-5.54,3.7-18.56,9.49-14.2,18.43
		C474.57,397.9,475.28,398.11,478.1,397.8z"/> <path d="M480.7,375.22c0.68,2.03,6.3-1.56,5.84-5.44c-0.1-1.71-0.4-3.42-0.7-5.24c-1.51-1.21-3.02-2.32-4.33-3.42
		c-3.02-0.09-5.94,0.72-7.85,1.92c-2.41,1.93-3.51,6.69-2.92,7.85c1.72,5.93,8.67,6.15,8.69,5.06c0.04-2.33-5.87,0.1-5.87-4.85
		c9.5,0,11.23-1.02,10.64,0.8C483.69,373.47,481.61,374.32,480.7,375.22z M484.13,368.49c-1.07,1.07-10.07,0.91-10.17,0.91
		c-0.98-1.07-1.12-3.13,0.53-4.76c1.31-1.3,3.17-1.78,5.21-2.39c0.1,0.7,0.1,1.01,0,1.51c1.11,1.31,3.32,0.5,4.43,2.11
		C484.53,366.68,484.23,367.58,484.13,368.49z"/> <path d="M492,371.54c0.88-0.33,1.21-2.29,1.3-3.22c0.58-6.11-5.04-9.36-7.16-12.01c-0.09-0.18-1.45-0.86-1.61,0.28
		c0,0.33-0.31-1.01,4.23,3.95C495.7,368.12,488.58,372.81,492,371.54z"/> <path d="M456.38,379.52c1.58-0.22-0.49-2.11-1.86-12.45C452.38,373.01,454.93,379.73,456.38,379.52z"/> <path d="M506.18,371.71c0-2.06,0.71-3.93,0-5.94c-0.81,1.51-0.4,3.42-1.41,5.14c-5.3,1.06-5.84,0.77-5.74,2.11
		C501.65,373.62,504.07,373.52,506.18,371.71z"/> <path d="M471.34,376.95c-0.7-1.01-2.22-0.91-2.82-1.91c-0.3-2.08-0.17-4.49-1.11-6.75c-1.47,2.66,0.59,4.92,0.41,7.37
		C467.82,376.24,471.34,378.99,471.34,376.95z"/> <path d="M487.85,353.79c0.23-0.23,5.45-4.6,6.55-5.54c-0.5,0.1-1.21,0-1.71,0.2C488.06,350.76,487.34,353.79,487.85,353.79z"/> <path d="M464.3,363.45c0.08,0.39,0.04,0.32,2.11,1.01c0.41,0.82,0.09,1.6,1.01,2.22C469.41,363.22,467.01,361.76,464.3,363.45z"/> <path d="M494.4,348.35l0.05,0.05C494.56,348.51,494.52,348.35,494.4,348.35z"/> <path d="M498.63,349.76c-0.6-2.49-1.6-3.13-4.13-2.32C494.5,348.78,493.71,348,498.63,349.76z"/> <path d="M462.32,385.15c-3.51-2.06-2.87,0.81,1.67,2.06C463.8,386.2,463.12,385.63,462.32,385.15z"/> <path d="M463.89,387.33c1.11,0.69,1.65,0.99,2.32,0.2c0.59-0.5,0.89-1.19,0.23-1.98C466.38,385.43,464.12,387.16,463.89,387.33z"/> <path d="M455.23,362.75c-0.3,0.7-1.21,1.11-0.7,2.11C456.12,363.67,456.13,363.65,455.23,362.75z"/> <path d="M498.53,349.76l0.2,0.1C498.61,349.74,498.65,349.76,498.53,349.76z"/> <path d="M468.51,556.91c1.46-1.01-0.88-2.51-1.51-0.4C467.46,556.96,467.78,557.41,468.51,556.91z"/> <path d="M467.31,528.9c-0.33-0.49-0.93-0.38-1.03-0.14C466.14,529.19,466.7,530.12,467.31,528.9z"/> <path d="M657.03,138.79c0.04-0.12,0.14-1.1,0.51-1.38c0.55-0.41,1.72,0.2,2.08-0.49c0.35-0.66-2.02-2.58-3.04-3.01
		c-1.52-0.65-3.11-0.34-5.21,0.86c0.93,0.31,1.62,0.22,0.46,0.74c-0.28,0.12-0.5,0.08-0.62,0.08c-0.64,1.16-0.55,1.41,0.35,1.71
		c0.91,0.1,1.31-1.01,2.22-0.81c2.48,2.07,1.93,1.06,1.51,2.32C655.92,138.99,656.43,139.09,657.03,138.79z"/> <path d="M651.29,135.47l-0.1,0.1C651.28,135.57,651.24,135.54,651.29,135.47z"/> <path d="M674.8,135.98c0.9,0.11,1.58,0.68,2.47-0.1c-2.91-2.08-3.16-1.66-1.89-1.73c2.93-0.16,0.48-0.19,0.48-0.56
		c-2.16-1-3.09-0.76-5.45-0.05c-0.5,1.21-1.51,2.01-2.32,3.12c0.97,0.7,1.4-0.19,2.11-0.3c0.47,0,2.12,0.98,2.74,0.66
		C673.8,136.77,673.81,135.98,674.8,135.98z"/> <path d="M659.25,155.91c13.1,0,12.68,0.13,12.89-1.01c-0.61-0.34-1.15-0.25-1.7-0.25c-1.81,0-3.51-0.96-6.09-0.88
		C661.06,153.88,657.44,155.91,659.25,155.91z"/> <path d="M666.5,131.04c1.28,1.28,5.65-1.76,11.57-0.7C674.43,128.29,667.02,129.48,666.5,131.04z"/> <path d="M666.29,160.14c1.76-0.26,3.1-0.61,3.92-2.62c-3.5,1.59-6.69,1.41-10.46,0.5C662.67,160.04,664.08,160.46,666.29,160.14z"/> <path d="M651.23,129.91c-2.22,1.35,3.41-0.3,8.22,1.93c0.45,0.11,0.66-0.17,0.81-0.6C656.88,128.82,651.45,129.78,651.23,129.91z"/> <path d="M666.39,148.46c1.61,0.5,1.61,0.5,3.22-0.1c-0.14-0.41,0.33-1.17-0.3-1.82c-0.2,0.5-0.4,1.01-0.6,1.51
		C668.26,148.04,666.06,146.8,666.39,148.46z"/> <path d="M663.88,148.66c-0.67-1.33-1.57-0.59-1.44-0.12C662.57,149.01,663.07,149.33,663.88,148.66z"/> <path d="M666.8,133.24c-0.11,0.5-0.59,0.94,0,1.61C666.8,134.5,666.8,133.58,666.8,133.24z"/> <path d="M677.47,114.32c0,0.17-0.35,0.63-0.7,0.71c0.1,0,0.42,0.52,1.21,0.39C678.42,114.09,678.41,114.32,677.47,114.32z"/> <path d="M672.74,137.68c-0.53,0,0.03,0.75,0.7,0.3C673.36,137.58,673.02,137.68,672.74,137.68z"/> <path d="M660.79,146.79c0.22,0.29,0.27,0.12,0.27-0.24C660.81,146.3,660.71,146.63,660.79,146.79z"/> <path d="M648.77,121.47c-0.03,0.1-0.09,0.36-0.09,0.54C648.75,121.83,649.01,121.71,648.77,121.47z"/> <path d="M679.08,128.42c0,0.47,0.3,0.27,0.3,0.1C679.61,128.29,679.08,127.79,679.08,128.42z"/> <path d="M676.91,134.15c-0.3,0.01,0.18,0.37,0.34,0.37C677.65,134.52,677.49,134.14,676.91,134.15z"/> <path d="M674.05,113.62c0.76-0.19,0.8-0.74,0.63-1.39C673.93,112.44,673.97,112.92,674.05,113.62z"/> <path d="M674.75,112.21l-0.1-0.1C674.7,112.28,674.69,112.21,674.75,112.21z"/> <path d="M673.95,113.51c-0.31,0.1-0.61,0.11-0.31,0.4C673.94,114.21,674.02,113.73,673.95,113.51z"/> <path d="M658.14,115.53c0-0.1,0.1-0.2,0.1-0.3C657.51,115.23,657.44,114.83,658.14,115.53z"/> <path d="M666.98,133.26c0.07-0.07,0.12-0.14,0.12-0.21C666.92,133.23,666.81,133.43,666.98,133.26z"/> <path d="M650.48,130.83c0-0.1,0.1-0.2,0.1-0.3C650.38,130.63,650.28,130.73,650.48,130.83z"/> <path d="M660.96,148.66c0-0.26,0.05-0.23-0.2-0.1L660.96,148.66z"/> <path d="M665.99,146.54c-0.04-0.13-0.02-0.06-0.1-0.3C665.64,146.5,665.6,146.41,665.99,146.54z"/> <path d="M660.96,136.47c-0.26,0-0.23-0.05-0.1,0.2L660.96,136.47z"/> <path d="M477.38,576.74c0.1-2.3-1.51-3.81-2.42-5.54c0-0.1-0.12-0.1-0.22-0.1c0,0.1-0.2,0.5-0.08,0.91
		C475.31,573.78,476.25,576.41,477.38,576.74z"/> <path d="M474.76,571c-0.12,0.12-0.13,0.1-0.03,0.1C474.74,571.07,474.75,571.04,474.76,571z"/> <path d="M474.46,590.53c-0.46,0.7-1.16,1.46-0.6,2.01C474.66,592.14,474.27,592.59,474.46,590.53z"/> <path d="M474.59,571.02c0.14-0.07-0.85-1.34-2.45-0.22C472.89,571.44,473.66,571.24,474.59,571.02z"/> <path d="M474.36,569.49c0.33-0.57,0.38-0.95-0.1-1.41C473.48,568.78,473.43,568.77,474.36,569.49z"/> <path d="M849.97,512.09c0-0.79-0.7-1-1.01-1.51c0.82-1.63-0.11-2.57-1.62-2.32c-3.75,1.05-2.02,0.47-0.5-0.81
		c1.53-1.53,2.72-1.51,1.11-3.32c-2.22,0.81-9.08,4.41-10.47,5.54c-1.87,1.5-0.77,2.26-0.5,2.62c2.87-0.52,7.22-3.76,6.65-2.62
		l0.05-0.08c-0.45,1.29-3.87,2.21-4.56,4.44c-0.04,0.09-0.07,0,0.58,0.98c0.7-0.1,1.41-0.1,2.01-0.2c0.4,0.4,0.3,1.21,1.11,1.31
		C845.82,515.87,849.04,513.95,849.97,512.09z M843.7,509.57c0.31-0.58,0.85-0.69,1.41-0.7
		C844.82,509.45,844.45,509.57,843.7,509.57z"/> <path d="M833.66,506.04c-0.6,0.3-1.21,0.81-1.21,1.71c0.2,0.2,0.4,0.5,0.81,1.01c7.01-2.8,12.69-5.74,12.99-6.04
		C847.44,501.53,846.33,498.28,833.66,506.04z"/> <path d="M845.54,518.43c1.27,0.9,2.55,0.64,3.83-0.3C854.46,515.82,850.95,511.06,845.54,518.43z"/> <path d="M854,534.54c1.41-0.7,2.39-2.5,4.13-3.02c1.62-0.49,3.22-1.11,4.83-1.71C862.65,527.16,851.09,532.04,854,534.54z"/> <path d="M490.17,186.72c1.31,0.3,2.11,0.91,3.42,0.7C492.49,186.72,491.68,186.32,490.17,186.72z"/> <path d="M486.84,185.41c0.54,0.54,1.37,1.52,2.33,0.6C488.39,185.46,487.93,184.83,486.84,185.41z"/> <path d="M658.74,522.66c0.3-0.3,0.3-0.5,0-0.81C658.44,522.16,658.44,522.36,658.74,522.66z"/> <path d="M668.31,100.83c-0.02,0.03-0.09,0.17-0.1,0.2C668.46,100.77,668.44,100.83,668.31,100.83z"/> <path d="M242.04,428.81c3.54-1.36,5.57-4.12,7.65-4.53c0.62-0.12,1.09-0.61,1.01-1.31c-0.81-0.1-1.61-0.2-2.52-0.4
		C240.31,429.41,241.52,428.28,242.04,428.81z"/> <path d="M266.01,345.42c-0.92,0.61-7.57,5.61-6.75,6.25C261.52,351.67,265.03,347.61,266.01,345.42z"/> <path d="M247.58,441.19c-1.41,4.93-2.76,4.23-1.91,5.44c2.14-2.14,3.82-4.33,3.22-7.05C247.78,440.09,247.78,440.69,247.58,441.19z
		"/> <path d="M270.94,338.48c-0.04-0.04-0.07-0.07-0.1-0.1C270.83,338.48,270.73,338.7,270.94,338.48z"/> <path d="M253.52,347.14c0,3.02,0.1,3.32,1.71,5.44C255.24,349.46,255.13,349.05,253.52,347.14z"/> <path d="M236.91,443.61c0.5-1.91-0.2-3.73-0.3-5.54C235.19,440.29,235.3,441.58,236.91,443.61z"/> <path d="M231.27,458.72c0.45-1.56,0.97-3.04,1.22-4.64C233.21,449.34,232.05,448.98,231.27,458.72z"/> <path d="M263.69,322.56c-1.21,2.62-1.21,2.62-0.6,4.63C263.88,325.73,264.04,324.18,263.69,322.56z"/> <path d="M252.62,429.61c0.1-1.51,0.4-2.72-0.5-4.23C251.09,426.81,251.14,426.83,252.62,429.61z"/> <path d="M237.21,436.26c1.23-0.48,2.44-1.29,1.51-2.22C237.56,435.21,238.51,434.01,237.21,436.26z"/> <path d="M237.29,430.06c1.08,0.1,0.67-1.39-0.31-1.07C236.24,429.29,236.88,430.02,237.29,430.06z"/> <path d="M268.15,342.86c0-0.45,1.67,0.66,2.59-1.05c0.27-0.8,0.52-0.89-0.3-1.71c0.09-0.49,0.35-1.52,0.35-1.52
		c-2.1,1.22-2.5,3.8-2.66,4.11c0-0.26-1.31,0.55-1.31,1.98C267.26,344.67,268.23,343.88,268.15,342.86z"/> <path d="M266.82,344.82c-0.01-0.05,0.01-0.1,0.01-0.15C266.69,344.74,266.68,344.69,266.82,344.82z"/> <path d="M272.3,336.52c0.09-0.34-1.52,0.4-1.26,1.96C271.78,338.03,272.16,337.38,272.3,336.52z"/> <path d="M272.46,336.36c-0.12-0.12-0.09-0.14-0.13,0.04C272.36,336.39,272.4,336.37,272.46,336.36z"/> <path d="M225.73,322.87c-1.19-0.4-1.07,0.94,0,0.4C226,323.18,226.03,322.97,225.73,322.87z"/> <path d="M221.7,508.86c-0.09,0.27-0.26,1.01,0.2,1.01C222.37,508.47,221.8,508.56,221.7,508.86z"/> <path d="M272.35,314.71c-1.21,0-0.28-0.04,0,0.1V314.71z"/> <path d="M230.28,463.39c-0.49,0.25,0.33,0.69,0.08-0.04L230.28,463.39z"/> <path d="M273.06,334.85c-0.11-0.11-0.13-0.18-0.09,0.08c0,0,0.01,0,0.02-0.01C273.01,334.9,273.03,334.87,273.06,334.85z"/> <path d="M272.44,336.21c0,0.28,0.53,0.03,0.53-1.28C272.55,335.31,272.39,335.76,272.44,336.21z"/> <path d="M241.04,432.62c0.22-0.45,0-0.22,0-0.59C240.63,432.44,240.81,432.74,241.04,432.62z"/> <path d="M273.86,334.25c0.13-0.26,0.16-0.23-0.1-0.1c-0.04,0.19-0.09,0.27-0.09,0.27S273.71,334.36,273.86,334.25z"/> <path d="M273.67,334.42c-0.1,0.09-0.53,0.49-0.6,0.54C273.36,334.87,273.55,334.68,273.67,334.42z"/> <path d="M266.69,344.92c0.07-0.4-0.66-0.19-0.59,0.49C266.39,345.42,266.64,345.26,266.69,344.92z"/> <path d="M266.11,345.53c-0.01-0.04,0-0.07-0.01-0.11C265.97,345.42,266.01,345.43,266.11,345.53z"/> <path d="M47.29,58.93c-1.62-0.16-3.05,1.98-1.61,3.42C47.53,64.21,51,60.05,47.29,58.93z"/> <path d="M91.8,17.65c-5.6,1.56,1.61,6.63,1.61,1.01C93.11,17.95,92.5,17.55,91.8,17.65z"/> <path d="M49.3,18.86c-1.01,0.81-1.21,1.31-0.6,1.81c1.18,1.18,2.57,1.73,2.92,0.1C51.14,19.88,50.34,19.05,49.3,18.86z"/> <path d="M72.46,18.25c-1.52,3.05,1.43,2.67,1.21,1.11C73.47,18.86,73.17,18.55,72.46,18.25z"/> <path d="M47.89,40.71c1.02,0.34,0.83-1.46,0.07-1.08C47.45,39.63,47.41,40.55,47.89,40.71z"/> <path d="M71.15,437.37c0-1.88-2.27-3.64-5.34-4.23c-8.89-1.72-11.97,2.19-18.83,5.84c-2.23,1.19-4.09,2.77-6.04,4.23
		c-2.2,1.65-1.24,2.57-0.3,5.84c2.53,1.56,3.49,1.12,10.47,1.71C61.58,451.65,71.15,440.27,71.15,437.37z M55.45,436.26
		c2.85-2.44,10.96-2.54,14.7,0.7c-0.3,1.41-1.01,2.22-2.01,3.22c-4.2-1.4-8.26-0.42-12.69,0.4
		C55.45,439.18,55.45,437.77,55.45,436.26z M56.59,442.43c1.99-1.55,4.63-0.24,8.72-1.24c0.4-0.1,0.91,0.1,1.21,0.81
		c-2.52,3.83-6.34,5.44-11.08,6.44C55.45,443.28,55.17,443.54,56.59,442.43z M44.27,448.65c-2.39,0-3.79-2.71-2.22-4.13
		c3.55-3.2,7.21-5.81,11.68-7.45C54.09,451.04,55.49,449.58,44.27,448.65z"/> <path d="M86.16,469.09c-0.87-1.83-2.62-2.52-4.63-2.62c-6.31-0.3-10.94-0.83-14.8,1.91c-3.5,2.48-8.64,4.9-12.39,8.96
		C42.77,499.66,92.45,482.34,86.16,469.09z M55.86,485.91c-0.68-6.6-0.1-7.83-0.1-8.46c3.11-3.11,8.36-5.4,11.08-7.55
		c4.67-3.7,14.51-2.16,16.8-2.01c0.43,0,1.33,1.87,1.72,3.83c-2.34,6.37-10.45,10.49-16.21,13.18c-1.5,0.7-3.19,0.81-4.79,1.1
		C61.73,486,58.7,487.88,55.86,485.91z"/> <path d="M62.99,466.42c0.88,0.55,2.98-0.7,3.76-1.4c2.97-2.66,1.65-5.34,1.19-9.53c-1.51-1.11-3.02-2.32-4.33-3.32
		c-3.33,0-8.48,1.26-9.37,3.93c-1.09,3.27-1.65,4.2-1.21,5.74c1.41,3.93,3.63,5.54,7.96,5.54c0.2,0,0.68-0.56,0.91-0.7
		c-1.51-1.51-3.83-0.81-5.24-2.11c-2.29-3.43,0.07-2.33,6.44-2.82c2.19,0,4.46-0.72,2.81,1.71
		C64.34,465.76,61.7,465.61,62.99,466.42z M61.99,453.38c-0.1,0.1-0.1,0.2-0.1,0.2C61.76,453.58,61.71,453.66,61.99,453.38z
		 M66.32,459.42c-0.49,0.49,0.43,0.81-10.17,0.81c-2.16-2.16,0.38-6.55,5.54-6.55c0,2.51,3.21,1.33,4.33,2.82
		C66.71,457.59,66.15,458.46,66.32,459.42z"/> <path d="M73.27,462.54c1.97,0.2,3.03-5.37,0-9.87c-1.42-2.11-3.52-3.42-5.14-5.34c-0.25-0.25-1.28-0.47-1.42-0.33
		c-1.23,1.18-0.28-0.1,2.44,2.78C77.33,458.45,72.37,460.74,73.27,462.54z"/> <path d="M87.77,462.64c-0.2-2.01,1.31-3.93,0.4-6.24c-1.61,0.88-0.6,3.77-1.51,5.14c-1.81,1.21-4.43,0.3-6.14,1.91
		C83.06,465.04,85.02,464.35,87.77,462.64z"/> <path d="M39.33,469.99c-0.53-3.16-1.97-7.55-2.32-12.39C34.04,466.59,39.33,472.33,39.33,469.99z"/> <path d="M70.45,445.22c1.42-2.84,4.81-4.05,5.24-5.74c-2.92,0.5-4.73,2.42-6.04,5.14C69.64,444.72,69.95,444.92,70.45,445.22z"/> <path d="M46.48,454.69c0.5,0.7,1.51,0.2,2.32,1.11c0.3,0.3-0.2,1.41,0.91,1.91c0.91-0.91,0.81-1.81,0.6-2.72
		C49.38,453.13,46.74,453.41,46.48,454.69z"/> <path d="M80.42,440.79c-0.91-2.32-1.21-2.52-3.93-2.32C75.38,440.14,75.17,439.15,80.42,440.79z"/> <path d="M53.35,468.39c0.39-1.56-1.6-1.24-3.03-2.74c0.57-0.86,0.74,0.3,0-6.03c-0.29-1.16-2.31-0.75-0.83,3.83
		c0.8,2.48,0.97,1.86,0.33,3.13C50.83,467.59,51.94,468.29,53.35,468.39z"/> <path d="M48.6,476.24c-0.82,0.41-1.32,1.51-2.53,1.51c0.62,0.62,1.02,0.94,1.39,0.97C48.59,478.81,49.69,476.9,48.6,476.24z"/> <path d="M43.36,475.23c-0.59-0.2-0.81,0.3-0.81,0.92c1.34,0.56,1.72,1.89,3.63,1.51C45.78,476.24,44.47,475.83,43.36,475.23z"/> <path d="M38.23,454.28c-1.01-0.2-1.01-0.2-1.11,1.41C37.82,455.39,38.23,455.09,38.23,454.28z"/> <path d="M256.75,140.2c-0.2,0.03-0.23,0.01-0.1,0.1L256.75,140.2z"/> <path d="M256.75,141.11c0.13,0.13,0.1,0.14,0.1-0.02c-0.32,0.11-1.3-0.26-1.51-0.38c0.4-0.6,0.97-0.42,1.22-0.48
		c-0.25-0.21-0.44-0.53-0.71-0.53c-3.99-0.66-3.61,0.06-6.14,3.22c-0.11,0.11,0.15,0.47,0.2,0.6c0.81,0.3,1.11-0.81,2.01-0.6
		c3.14,2.09,2.83,0,4.13-0.3c0.88-0.21,1.78,0.9,2.82,0.2c-0.4-0.3-0.7-0.71-1.11-0.91C257.35,141.71,256.87,141.59,256.75,141.11z"/> <path d="M243.15,162.86c5.51-0.85,10.69,0.55,10.27-1.11c-9.71-2.16-7.72-1.27-13.59,0.2
		C241.04,163.06,242.04,162.96,243.15,162.86z"/> <path d="M241.54,165.48c1.21,0.4,2.32,1.01,3.52,1.31c4.06,0.64,6.14-1.2,6.21-1.71C251.46,163.78,252.24,165.48,241.54,165.48z"/> <path d="M258.96,136.88c-0.2-0.4-0.6-0.6-1.11-0.6c-2.71-0.16-11.04-0.5-9.77,1.91C251.77,137.67,255.25,136.59,258.96,136.88z"/> <path d="M241.34,137.88c-1.95-1.3-6.29-2.44-7.68-0.98c-0.25,0.26,1.84,0.03,7.99,1.78C241.6,138.51,241.47,138.01,241.34,137.88z"/> <path d="M249.81,155.2c-1.11-1.01-1.11-1.01-2.52-0.2C248.04,155.51,249.04,155.97,249.81,155.2z"/> <path d="M245.17,155.41c0-1.02-1.41-1.01-1.41-0.2C243.54,156.03,244.97,156.2,245.17,155.41z"/> <path d="M250.5,152.28c0,0.43,0,2.31,0,3.02C251.51,154.6,251.21,153.79,250.5,152.28z"/> <path d="M258.66,140.5c-2.45,0-1.81-0.17-1.81,0.57C257.34,140.97,257.99,141.35,258.66,140.5z"/> <path d="M260.77,134.76c-0.2-0.59-0.6-0.31-0.6,0c0.1,0.2,0.3,0.3,0.4,0.5C260.57,135.06,260.67,134.96,260.77,134.76z"/> <path d="M231.67,137.38c0.81,0.2,1.31,0.1,1.81-0.5C232.96,136.88,232.37,136.59,231.67,137.38z"/> <path d="M248.09,141.31c0.09-0.28,0.15-0.75,0.2-0.91C247.98,140.71,247.59,140.92,248.09,141.31z"/> <path d="M231.67,123.28c0,0.08,0,0.23,0,0.3C231.81,123.58,231.79,123.64,231.67,123.28z"/> <path d="M239.02,143.82c0.6-0.3,1.61,0.67,2.11-0.6c-1.77-2.95-6.19-3.57-7.56-2.11c-0.17-0.16-0.1,0.06-0.06,0.01
		c0.02,0,0.03,0,0.05-0.01c0,0-0.01,0.01-0.01,0.01c-0.09,0.14-0.08,0.05-0.08-0.01c-0.16,0.06-0.34,0.08-0.49,0.16
		c-0.91,0.47,0.52,0.42,0.39,0.54c0.02-0.01,0.06-0.02,0.08-0.03c-0.2,0.8-1.37,0.8-0.98,1.83c1.01,0.81,1.61-0.6,2.52-0.5
		c1.11,0.6,1.71,1.41,2.01,2.62C238.97,145.73,238.05,144.39,239.02,143.82z M233.57,141.77c-0.07-0.15-0.08-0.31-0.08-0.56
		c0.09,0,0.9,0.08,0.86,0.16C234.17,141.7,233.85,141.73,233.57,141.77z"/> <path d="M242.45,143.32c0-0.1-0.1-0.2-0.1-0.3C241.93,143.02,242.22,143.99,242.45,143.32z"/> <path d="M239.22,121.84c0,0.65,0.88,0.28,0.1-0.34C239,121.24,239.22,121.39,239.22,121.84z"/> <path d="M242.45,153.29c0.1-0.1,0-0.2,0-0.3C241.91,152.99,242.22,153.93,242.45,153.29z"/> <path d="M247.18,152.99c-0.08,0.08,0,0.24,0,0.4C247.56,152.62,247.32,152.99,247.18,152.99z"/> <path d="M242.24,155.41c0.13,0.13,0.3,0.18,0.3-0.2C242.42,155.08,242.24,155.03,242.24,155.41z"/> <path d="M258.76,122.07c-0.1,0-0.1,0.1-0.1,0.2C259.18,121.75,258.9,122.07,258.76,122.07z"/> <path d="M238.45,120.76c-0.01-0.04-0.02-0.06-0.03-0.1C238.3,120.79,238.28,120.76,238.45,120.76z"/> <path d="M238.88,121.27c0.04,0.01,0.34,0,0.34,0C238.49,120.12,238.23,121.17,238.88,121.27z"/> <path d="M250.4,155.31c-0.81,0-0.68-0.11-0.4,0.4C250.08,155.68,250.36,155.35,250.4,155.31z"/> <path d="M248.49,140.2c-0.1,0.1-0.1,0.2-0.1,0.3C248.39,140.4,248.49,140.3,248.49,140.2z"/> <path d="M258.86,136.98c0.54,0,0.2,0.01,0.14-0.04C258.96,136.93,258.91,136.93,258.86,136.98z"/> <path d="M244.96,489.63c0,0.44,0.17,0.55,0.26,0.49C245.51,489.96,245.32,489.27,244.96,489.63z"/> <path d="M190.48,557c-0.6-0.01-1.01,0.4-1.21,1.21c1.61,2.11,4.24,1.99,6.55,2.62C202.51,562.65,202.55,557.2,190.48,557z"/> <path d="M188.59,572.39c-2.5-0.69-8-1.55-7.08,0.71c0,0.46,5.42-0.65,9.78,1.53c0,1.56,7.85,9.53,2.62,1.7
		C191.73,573.07,192.52,573.47,188.59,572.39z"/> <path d="M195.42,561.83c-1.74-0.74-3.23-0.92-5.04-0.1C194.59,567.14,200.42,563.95,195.42,561.83z"/> <path d="M47.89,557.91c1.62,0.71,1.6,0.67,1.71-1.01C49.24,556.9,47.89,556.59,47.89,557.91z"/> <path d="M47.88,530.37c-0.53-0.53-1.36,0.95-0.09,0.95C47.97,531.32,48.27,530.81,47.88,530.37z"/> <path d="M241.64,569.08c-1.78,0.62-8.15,3.56-7.96,4.7c0.17,1,0.64,0.73,8.86-3.7c3.81,0.23,11.16,3.29,8.16,1.11
		C248.84,570.22,243.62,568.39,241.64,569.08z"/> <path d="M242.45,562.64c1.48-0.24,1.24-2.58-3.22-1.51c-0.4,0.1-0.81,0.3-0.91,1.31C239.73,562.64,241.04,562.94,242.45,562.64z"/> <path d="M229.15,574.72c1.06,0.85,2.05,0.67,3.32,0.2C231.17,574.52,230.16,574.52,229.15,574.72z"/> <path d="M229.25,574.62l-0.1-0.1C229.15,574.77,229.12,574.76,229.25,574.62z"/> <path d="M72.26,193.47c-2.42-1.41-2.42-1.41-3.93-1.11C69.44,193.57,70.95,193.07,72.26,193.47z"/> <path d="M73.86,194.07c0.88-0.18,0.59-0.23,0.27-0.37c-0.69-0.29-1.37-0.12-1.97-0.12C72.7,194.03,73.24,194.2,73.86,194.07z"/> <path d="M651.29,134.92c-0.04,0.02-0.37,0.22-0.4,0.24C651.37,135.41,651.29,135.6,651.29,134.92z"/> <path d="M651.39,134.86c-0.07-0.07-0.05-0.05-0.1-0.1C651.29,134.98,651.26,134.93,651.39,134.86z"/> <path d="M651.35,135.45c-0.05-0.03-0.06-0.1-0.06,0.12C651.39,135.47,651.45,135.45,651.35,135.45z"/> <path d="M672.54,111.5c0.12,0,0.1,0.03,0.1-0.1C672.58,111.4,672.6,111.38,672.54,111.5z"/> <path d="M673.04,111.46c-0.51,0.14-0.4-0.32-0.4,1.32c0.74-0.21,0.61-0.73,0.6-1.28C673.24,111.38,673.29,111.39,673.04,111.46z"/> <path d="M672.63,112.91c0-0.17,0.07-0.15-0.3-0.04c-0.5,0.09-0.39-0.13-0.39,0.64C672.8,113.51,672.33,112.61,672.63,112.91z"/> <path d="M673.24,111.4l0.1,0.1C673.3,111.4,673.29,111.35,673.24,111.4z"/> <path d="M671.23,113.51c-0.12,0-0.1-0.08-0.1,0.1C671.36,113.62,671.28,113.61,671.23,113.51z"/> <path d="M671.75,113.63c0.09-0.14,0.12-0.11-0.17-0.04c-0.02,0-0.29,0.03-0.29,0.04C671.42,113.85,671.59,113.88,671.75,113.63z"/> <path d="M671.93,113.51c-0.04,0-0.06,0.01-0.1,0C671.96,113.64,671.93,113.65,671.93,113.51z"/> <path d="M671.83,112.81c0,0.03,0,0.07,0,0.1c0.12,0,0.1,0.03,0.1-0.1l-0.01,0.01C671.93,112.8,671.91,112.81,671.83,112.81z"/> </g> </svg> 