<?xml version="1.0" encoding="utf-8"?> <!-- Generator: Adobe Illustrator 23.0.1, SVG Export Plug-In . SVG Version: 6.00 Build 0)  --> <svg version="1.2" baseProfile="tiny" id="Layer_1" xmlns="http://www.w3.org/2000/svg" xmlns:xlink="http://www.w3.org/1999/xlink" x="0px" y="0px" viewBox="0 0 900 600" xml:space="preserve"> <g> <path d="M215.67,327c0-2.22,2.36-7.18-6.82-9.63c-1.51-0.4-2.81,0.7-4.21,1c-3.43-6.86-11.02-19.31-18.26-21.17
		c-0.42-5.71-3.5-10.2-9.83-8.93c-0.5,0.5-1.1,1.1-1.61,1.51c-1.4,0.3-2.71,0.6-4.01,0.5c-0.84,0-0.26-1.95,0.4-2.61
		c1.2-1.2,3.11,0.2,4.31-1.2c-0.4-1-1.2-1.3-2.21-1.1c-0.5,0.1-0.9,0.9-1.71,0.2c0.6-2.01-0.3-3.81-1.71-5.32
		c2.95-2.08,8.29,0.02,9.33,5.62c1.23-0.62,0.94-1.17,2.41,1.4c1.99-2.49-0.81-2.69-1.1-5.32c-0.33-2.95-3.78-4.21-5.62-5.32
		c-1.43-3.26-1.25,0.16-9.63-12.94c0.31-3.11-3.8-9.32-5.82-11.34c-2.15-2.15-0.42-2.21-2.51-6.82c-1.48-3.27-1.02-2.3-0.3-4.21
		c1.16-3.09,1.48-6.21,0-9.23c-1.02-2.1-1.81-4.31-3.41-6.12c-3.13-3.52,0.05-1.26-6.72-11.04c-3.25-4.69-3.09-2.79-1.51-6.72
		c1.5-3.72,3.33-7.32,3.71-11.34c0.42-4.31,1.1-8.53,1-12.94c-0.13-5.53,9-16.71,10.84-19.87c2.39-4.11,1.42-5.82,1.51-10.64
		c0.1-5.72-1.2-10.74-5.32-14.85c-4.72-4.72-9.35-9.61-14.85-13.55c-7.4-5.3-12.65-12.06-13.95-14.75c-0.51-1.28-2.81-1.56-2.81,0.1
		c1.1,1.4,2.91,2.31,3.81,4.01c-1.1,2.21,2.41,3.39,5.02,11.54c-0.3,0.8-0.7,1.1-1.2,1.1c-10.51,0-4.04,1.99-23.38-3.71
		c-6.08-1.79-9.55-9.24-10.64-10.33c-3.51-3.11-6.39-6.86-10.13-9.73c-2.7-2.07,2.48-0.4,13.95-0.4c1.91,0,3.91,0.2,5.92,0.8
		c3.13,4.17,3.47,4.28,4.11,3.51c-0.74-1.48-0.53-0.89-3.51-4.62c-3.81-1.51-7.62-0.96-11.34-1.51c-3.9-0.57-7.73,0.5-11.34,0.5
		c-2.41-1.71-4.73-3.09-6.92-4.72c-2.57-1.9-4.07-0.62-4.52-3.31c1.57-2.35,2.73-3.23,3.61-7.12c1.97-8.67,1-10.51,1-17.06
		c1.75-1.12,4.15-2.26,2.91-3.91c-1.51,0-3.11,0-4.52-1c-0.1,0-0.4,0.1-0.6,0.2c-0.3,0.5,0.9,1-0.1,1.51
		c-1.4-0.9-1.51-2.51-2.21-3.81c-0.1-0.4-0.1-0.7,0.4-1c2.11,1.3,4.72,1.71,7.12,2.31c1.43,2.51,1.95,3.12,2.91,3.31
		c2.2-0.49,3.8-0.32,4.31-2.11c0.2-0.7,0.1-1.3-0.6-1.81c-0.8,0.4-1,1.61-2.21,1.61c-2.12-0.64-2.3-1.46-9.03-10.94
		c-0.1-0.3-0.1-0.7-0.2-1c1-0.8,1.71,0,2.51,0.3c0.52,2.33,0.84,4.23,3.01,5.22c0.8,0.3,1.61,0.3,2.01-0.9
		c-0.9-2.01-3.01-3.61-2.41-6.42c1-0.5,1.1-1.91,2.31-2.31c0.7,0.3,0.9,0.9,0.9,1.51c-0.2,0.9-1.2,1.4-1.2,2.71
		c1.1,1.2,1.2,3.21,2.31,5.12c5.14-3.16,0.17-4.03-0.4-5.52c0.7-1.51,1.1-3.11,0-4.82c-1.4-1.2-2.81-2.61-4.52-3.31
		c-2.62,0-2.76,4.62-4.01,5.32c0-2.31,0.19-3.22,1-4.52c4.32-6.89,6.38,0.46,10.23,2.31c3.16,1.52,5.53-1,4.72-1.81
		c-1.34,0.17-3.49,0.47-4.41-0.3c3.98-0.48,2.04,0.28,12.94-8.03c0.43-5.59,1.82-3.6,2.51-5.22c-0.2-3.11,2.21-5.92,0.8-9.23
		c-2.41,0.9-4.72,0.1-7.12-0.5c0.6-0.7,1.2-0.6,1.71-0.5c3.74,0.27,7.23-2.7,10.94,0c3.22-2.58,2.99-2.22,2.52-2.17
		c-1.33,0.16-1.65-0.95-5.73-2.65c-10.89-4.54-12.7-1.35-11.64-2.41c-0.13,0.05-0.25,0.04-0.32,0.03c0.04,0.01,0.08,0.03,0.15,0.07
		c-2.46,1.38-14.47-2.41-16.28-2.41c0.1-1.1,1.21-1.5,2.01-2.01c1.41-0.89,1.61-0.9,4.01-0.7c0,1.37,0.4,1.38-1.81,2.01
		c4.08,2.04,13.13-0.51,15.35,2.01c4.26,0,8.3,2.62,11.74,4.01c1.99,0.66,2.3,1.63,2.81,2.01c5.25,1.62,1.89,2.51,6.62,0.4
		c1.87,0.47,0.78,0.72,2.41-0.5c4.17,2.61,1.17-1.47,7.73,16.76c-0.4,1-0.9,1.61-1.71,2.01c-5.58,2.79,3.8,16.05,3.81,16.15
		c0.46,1.38-1.18,1.72-2.21,2.11c-0.8-0.4-1.6-0.99-2.61-0.4c-0.7,0.41-1.51,0.7-1.3,1.71c0.6,0.8,1.51-0.2,2.11,0.8
		c-0.4,1.4,0.6,2.81,1.2,4.11c-1.77,3.35-5.35,1.02-7.53,2.11c-0.72,2.16,3.88,1.3,5.22,1.3c4,2,0.24,2.97,0.1,5.32
		c-0.1,0.7,0.81,1.4,1,2.51c0.31,1.8-0.4,3.61-1.71,3.91c-10.83,2.5-3.02-0.01-13.85,0.8c-2.95,0.22-3.6,2.97-3.41,5.92
		c0.18,2.89,1.94,15.15,4.64,16.11c0.38-1.75-3.84-16.95-1.63-20.83c1.81,0.6,3.71,0.71,5.52,1.1c3.31,0.72,6.33-0.09,9.33-1.2
		c4.4-1.63,3.13-5.71,2.31-8.73c1.81-1.61,1.3-3.31,0.2-5.02c0.5-0.8,1-1.51,1.3-1.91c0.4-2.01-1-3.61-0.4-5.52
		c2.61-1.2,4.31-2.91,3.21-6.12c-2.21-2.51-3.91-5.42-4.62-8.83c0.3-0.9,1.71-0.8,1.81-1.91c-4.54-0.76,1.59-0.71,0.5-9.03
		c-0.35-2.69-6.92-17.16-7.83-18.06c-7.37-7.37-8.89-5.47-12.34-6.82c-12.91-5.04-29.52-2.85-32.81,0.7
		c-0.98,1.05,1.3-1.18-9.33,8.13c-2.61-0.6-5.12-0.5-7.73-0.7c-10.41-0.81-9.16,5.59-14.35,13.75c-2.11,3.31-2.75,7.03-1.81,10.84
		c0.87,3.52,1.89,7.03,3.51,10.33c1.59,3.23,0.76,6.62,4.92,18.66c5.43,15.75-1.49,25.73,1.4,26.09c1.2-1.61,1-3.71,2.21-5.82
		c0,15.46,0.46,6.01-4.01,12.94c-0.53,0.82-1.96,0.91-5.02,4.92c-5.05,6.64-7.98,10.16-8.93,14.65c-0.81,3.83-3.58,5.1-8.43,11.54
		c-7.58,10.05-12.84,12.73-18.56,23.38C8.22,167.02-5.2,189.2,2.15,197.27c10.48,11.49,24.23,18.76,37.43,21.97
		c5.04,1.23,5.19,3.74,16.25,7.73c6.44,2.32,8.44,4.97,12.74,6.22c-1,1.81-1.4,3.71-1.61,5.52c-0.8,1-1.59,1.82-2.41,2.71
		c-8.4,9.23-17.26,25.67-17.26,38.33c-1.68,18.49,14.27,25.04,11.54,44.35c-1.15,8.11-0.9,15.3-0.9,26.39c0,3.88-1.68,5.92-1.3,9.63
		c3.63,35.4,3.99,36.4-0.8,50.77c-1.58,3.95-6.23,10.21-9.33,22.78c-1.71,6.94-3.83,6.27-5.42,17.36
		c-2.9,20.17,18.43,78.18,13.85,90.4c-1.29,0.1-6.27-1.49-5.52,6.42c0.61,6.36-1.18,5.8-6.02,23.78c-2.02,2.25-3.23,3.42-0.7,5.42
		c2.5,1.98,3.63,2.18,11.54,4.11c1.61,0.39,3.31,1.32,4.82,1.1c2.61-0.38,5.22,0.5,7.73-0.3c2.4-0.48,1.64,1.35,7.02,4.82
		c3.03,1.95,3.04,4.9,7.63,5.82c6.4,1.28,9.35,2.74,14.25,2.51c18.76-0.89,9-0.71,19.37-2.91c3.41-0.72,6.62-2.31,9.53-4.21
		c0.8-2.61,0.9-4.11,0.4-7.83c-5.72-4.41-11.54-8.93-17.56-13.55c-0.91-3.48-3.13-3.29-12.84-11.04
		c-5.73-4.57-5.06-15.07-11.24-17.76c-0.6-0.3-1.4-0.4-1.81-1.2c-3.94-27.6-1.61-33.58-1.61-37.02c1.09-8.7,1.91-11.67,1.91-32.01
		c0-5.62,1.3-11.24,1.2-16.86c0-0.22,0.35-0.91,2.21-12.44c1.62-10.06,0.12-0.11,5.72-16.36c3.32-7.75,4.61-8.88,5.22-11.44
		c0.57-2.43,2.71-9.78,2.71-13.14c0-4.46,4.09-9.86,4.41-12.54c0.6-5.03,2.5-9.74,3.71-14.65c0.1-0.4,0.3-0.6,0.9-0.7
		c1,4.52,1.3,9.23,3.01,13.45c-0.68,2.44-2.01,4-1.3,9.83c1.1,9.04,1.79,5.77,3.01,8.93c-0.2,1.1-1.4,0.7-1.71,1.91
		c-0.73,14.94-4.75,26.18,3.31,41.64c1.86,3.57-0.47,1.14,2.71,6.82c3.28,5.87,7.3,12.18,9.73,18.36
		c7.62,19.38,7.32,12.85,6.12,17.06c1.2,2.41,2.31,4.82,2.51,7.53c-0.7,0.1-1.2,0.2-2.01,0.4c-0.14,2.07-2.71,1.96-2.71,4.21
		c0,3.64,1.02,9.24-1.61,19.57c-0.41,1.6-0.5,3.01,0,4.62c0.9,0.7,1.71,1.71,2.11,2.81c9.11,3.61,20.87,5.04,29.3,0.5
		c5.98-3.22,12.4,5.89,21.17,5.02c4.87-0.77,4.2,0.87,20.27-2.31c3.62-0.72,3.01-2.39,6.12-4.52c1.87-1.28,1.75-2.99,2.31-5.22
		c-1.85-5.56-0.29-2.63-16.46-7.73c-0.94-0.3-5.32-2.17-5.62-2.91c-1.09-2.18-2.16-1.21-8.03-5.52c-5.02-4.19,1.31-1.52-10.03-12.54
		c-1.78-1.73-4.01-2.31-6.02-1.71c-1.4,0.7-0.9,2.31-2.41,2.61c-7.37-5.82-10.89-30.65-11.24-40.14c-0.2-5.41-2.03-13.21-1.51-18.26
		c0.63-6.14-1.2-10.85-2.51-15.95c-3.57-13.92-1.99-12.13-3.91-16.56c6.06-18.18,2.64-17.53,3.61-28.4
		c0.65-7.22,0.85-14.3,2.51-17.76c1.11-2.32,2.93-42.79-1.3-56.39c-1.5-4.82-8.09-21.33-6.82-25.89c1.71,0.6,3.21,1.2,4.62,1.71
		c1.52,3.33,7.63,5.92,9.93,6.72c5.12,3.71,8.43,7.93,12.14,12.04c1.91-0.4,3.81-0.8,5.92-1.3c0.8,2.91,2.21,5.42,4.52,6.92
		c2.75,11.7,12.46,12.36,17.36,17.26c0.56,2.24-0.79,0.77,7.42,6.12c0,1.57-0.49,3.33,0.7,4.52c3.29,3.65,5.63,3.31,8.73,3.31
		c2.65,1.14,188.87,178.9,192.55,181.91c3.15,1.89,4.57-0.95,2.71-2.81C406.39,508.68,215.95,327.93,215.67,327z M171.52,275.43
		c0.7,0.8,0.9,1,1.1,1.3c-0.13,0.26-0.26,1-1.46,0.98C169.89,277.7,171.28,276.39,171.52,275.43z M82.62,46.66
		c0.5,0.3,0.8,0.4,1.2,0.8c-0.7,1.2-1.61,2.21-3.01,3.21C80.92,49.07,81.62,47.96,82.62,46.66z M111.72,14.25
		c-0.6-0.6-0.67,0.03-1.29-0.67c-0.41-0.41,0.87-0.11,1.18,0.38c0.08,0.15,0.14,0.25,0.18,0.3
		C111.77,14.25,111.75,14.25,111.72,14.25z M118.54,19.17c-1.07,0.5-1.2,0.47-1.2-0.79C117.34,18.27,118.22,18.2,118.54,19.17z
		 M116.54,17.56c0.5,0.17,0.9,0.83,0.6,0.53C117.1,18.06,116.55,17.57,116.54,17.56C113.62,15.59,116.7,15.83,116.54,17.56z
		 M115.08,16.03c-0.82,0-1.34-0.56-1.87-1.08C114.18,15.05,114.77,15.24,115.08,16.03z M113.43,10.84c-2.31-0.2-2.41-0.2-5.52-2.31
		C109.81,9.03,111.82,9.13,113.43,10.84z M105.9,8.03c0.38,0.13,0.42,0.1,0,0.1V8.03z M103.19,7.53c-0.54-0.18-0.8-0.07-0.8-0.3
		C103.35,7.22,103.19,7.15,103.19,7.53z M103.79,9.13c1.2,0.3,2.33-0.19,1.2,0.37C104.46,9.61,104.31,9.44,103.79,9.13
		c-1.1-0.1-2.31-0.2-3.41-0.3C101.49,8.63,102.79,8.03,103.79,9.13z M94.96,10.94c0-0.16,2.49-0.1,3.71,0
		C97.37,10.94,96.17,10.94,94.96,10.94z M89.3,8.05c3.36-0.34,6.3-0.52,9.58-0.12C96.16,8.53,83.42,8.64,89.3,8.05z M162.69,262.79
		c1.51,0.49,2.05,1.72,1.92,3.3c-0.15,1.82-0.83-0.26-0.4,5.12c-1.1-0.7-1.81-1.4-2.41-2.31
		C161.45,264.79,161.6,265.29,162.69,262.79z M159.16,258.1c0.6-0.93,0.08-1.14,2.33,2.98c-0.1,0.1,0.01-0.01-1.2,1.2
		c-0.59,1.4,0.18,2.57-0.2,3.71C157.38,262.62,157.24,261.09,159.16,258.1z M156.47,252.15c2.74,1.96-0.42,3.76,0.5,6.82
		c-1.91-0.9-1.91-2.11-2.21-3.11C155.59,253.4,155.57,252.66,156.47,252.15z M153.86,254.66c-1.71-0.7-1.81-0.8-2.31-1.81
		c-0.6-1.2-0.7-2.51-0.1-3.71c0.8-1.4,1.51-2.91,2.71-4.01c0.8,0.8,1.2,1.61,1.4,2.71C153.49,251.63,153.86,252.68,153.86,254.66z
		 M150.25,249.74c-0.35,0.35-0.87,0.4-1.2-0.3c-0.94-1.99-2.71-3.51-3.11-5.82c-0.1-0.4-0.4-1-0.7-1.2
		c-1.81-1.2-2.31-3.51-4.11-4.72c0.79-6.68,2.76-4.39,2.61-3.61c-0.6,2.01,0.3,3.61,1.51,5.72c0-6.58,0.07-5.35,3.01-4.84
		c-0.06,0.95,0.29,1.48,0.4,2.23c-1.81,3.41-1.91,5.72-0.1,8.03c0.16-1.96-0.1-4.42,1.81-6.32c0.94,0.63,1.6,1.5,2.01,2.51
		C149,250.81,151.07,244.39,150.25,249.74z M146.64,248.44c-1.19,1.04-1.56,0.36-1.9-0.1C145.45,247.98,146.09,247.88,146.64,248.44
		z M144.73,248.32c-0.09-0.13-0.19-0.24-0.3-0.28C144.53,248.04,144.72,247.98,144.73,248.32z M143.83,244.42
		c-0.9,0.1-0.9,0.1-0.9-0.8C143.53,243.62,143.63,244.02,143.83,244.42z M140.92,241.72c-0.33-0.55-0.26-1.06,0.1-1.61
		C142.14,240.73,142.08,240.73,140.92,241.72z M146.07,218.61c5.95,8.01-0.1,1.98,8.6,13.47c0.28,0.37,0.76,1.24,0.93,2.11
		c0.24,1.21-0.45,7.71-0.53,8.13c-0.9-0.2-1.1-1-1.3-1.61c-1.23-4.46-5.43-5.98-5.43-5.82c0-1.84-1.68-1.74-2.5-3.91
		c-1.71,0-3.01,1.61-5.02,1.3c0-6.12-0.9-12.24,1.2-18.06C143.06,214.21,143.07,214.57,146.07,218.61z M140.32,209.21
		c-5.87,10.38-1.16,25.26-4.31,41.04c-14.54,3.03-14.32-6.62-25.49-6.92c-0.92-2.16-3.01-3.08-4.31-4.82
		c-0.09-1.04,3.19-4.94-0.3-8.13c-8.13-7.42-6.98-7.55-13.24-10.94c-12.5-6.75-13.78-7.93-16.36-7.93c-0.61-0.52-0.72-1.03-0.7-1.69
		c0.26-12.2-1.78-7.03-2.01-17.29c-0.03-1.5-0.7-3.01-0.1-4.52c5.46,0.19,10.99-4.03,47.36-7.12c11.11-0.95,1.52-0.9,15.75-0.9
		c0.76,0.1,1.42,1.51,1.72,1.51c3.01,0.8,6.42,0.8,9.62,2.51C145.19,203.81,146.72,197.88,140.32,209.21z M136.2,258.47
		c-1.2,0-1.81-1.2-3.01-1c-1-1.51-2.01-3.01-3.11-4.72c2.11-0.5,3.91,0.1,5.62,0.2C136.51,253.76,136.2,254.16,136.2,258.47z
		 M110.52,250.04c-0.75-1.5-1.09-3.04-0.7-4.72c0.5,0.3,0.9,0.5,1.4,0.7c0.2,2.46,1.07,4.54,3,6.12c-0.03-0.35-0.1-3.43-0.19-5.02
		c1.23,0,1.48,0.25,2.41,1.1c0.12,2.1,0.7,6.76,2.8,6.72c-0.06-0.9-0.3-2.89-0.39-4.3c0.63-0.72,1.2-0.58,1.91-0.1
		c1.02,1.32,0.22,6.07,3.33,8.57c0.14,0.09,0.1-0.01-0.62,0.45c-2.78-0.98-3.66-3.66-10.03-6.42
		C108.88,251.18,111.19,251.39,110.52,250.04z M103.99,239.61c1.61-0.96,1.88,0.51,2.45,2.33c0.65,2.09-0.46,4.55,3.24,9
		c-3.36-0.67-3.35-2-3.09-6.11C105.52,243.38,104.03,239.71,103.99,239.61z M73.03,209.73c-0.51,0.8-2.17-0.51-2.95-0.42
		c-1.66-1.1,0.26-1.29-4.11-3.21c-8.01-3.53-13.71-5.18-19.87-11.14c-2.03-1.96-2.22-1.41-3.31-2.51
		c-9.92-11.38-7.82-8.61-8.53-10.03c0.17-0.57,0.55-1.19,1.1-1.4c4.89-2.57,16.69-18.04,17.96-21.07c0.58-1.38,1.78-2.56,3.01-3.41
		c0.3,0.3,0.7,0.5,0.7,0.8c1.38,9.45,8.41,16.36,14.15,37.02C71.91,196.95,74.34,207.66,73.03,209.73z M77.41,98.93
		c6.02,3.01,20.14,17.32,21.57,19.57c3.48,5.46,12.16,9.13,14.15,9.23c5.18,0.27,8.72,3.7,18.36,1.48c3.8-0.87,4.04-1.77,5.02-4.71
		c4.52,4.52,9.28,8.61,14.55,12.44c6.33,4.6,11.76,15.26,7.53,25.89c-2.52,6.34-6.78,7.13-6.42,9.83c0,0.45-2.76,4.24-4.01,7.83
		c-7.68-3.57-13.64-3.41-19.26-3.41c-46.56,4.84-30.01,2.92-54.88,8.33c-0.49,0.11-0.9,0-1.61,0c-3.76-12.41-11.14-18.76-8.73-18.76
		c0.31,0,0.12,0.09,1.53,0.16c5.01,0.26,10.35-4.43,14.24-7.6c2.46-2,4.81-7.67,6.02-10.64c1.2-3.6,8.02-7.54,7.93-20.47
		c-0.03-3.47-2.5-13.18-8.03-18.36c-1.4-1.31-2.03-3.18-3.51-4.41c-1.53-1.27-2.91-2.71-4.31-4.11
		C76.02,99.72,75.84,100.11,77.41,98.93z M76.84,71.75C78.62,73.6,76.28,86.24,76,87.8c-0.11,0.63-0.4,0.88-0.9,1
		c0-4.38-0.2-7.82-1.2-11.14C73,74.7,75.2,70.05,76.84,71.75z M72.39,62.42c1.17,1.37,2.21,4.51,2.21,4.62
		c-0.06,0.63-0.49,1.24-0.44,1.84C74.19,69.35,75,70.3,75,69.53c0.2,0,0.2,0.1-0.1,0.3c-0.47,1.88-2.07,2.57-2.09,0.42
		c0-0.46-0.15-4.08-0.32-5.33C72.38,64.13,71.99,63.39,72.39,62.42z M72.38,56.19c0.69,0.28,2.34,1.58,2.34,2.26
		C73.66,58.16,72.57,57.81,72.38,56.19z M79.43,58.99c-0.1-0.1,1.89,1.19,1.89,2.42c-3.04-0.17-4.51-0.69-6.33-2.8
		c1.56-0.01,3.42,1.4,4.39,1.05C80.11,59.4,79.61,59.18,79.43,58.99z M85.33,41.44c-2.85-0.95-4.21-0.53-5.32,0.3
		c-5.57,4.18-1.58,6.59-4.41,9.93c0.56,3.58,3.41,5.2,3.41,6.72c-2.51-0.21-4.1-1.9-5.92-3.41c0.38-0.99,1.28,0.28,1.71-0.4
		c-7.32-7.02-6.52-7.32-6.82-9.93c1.4,0,2.51,1.3,4.11,0.8c-1.46-0.95-5.68-3.59-4.82-5.32c4.76,2.72,6.1,3.39,9.23,3.31
		c-3.52-2.16-7.61-2.62-9.33-6.42c0.35-0.62,0.7-0.55,1.2-0.3c2.54,1.53,2.63,0.55,17.86,3.81C86.23,41.11,85.61,41.25,85.33,41.44z
		 M70.98,73.85c0.06,0.17,0.1,0.34,0.1,0.8C70.78,74.45,71.08,74.25,70.98,73.85z M63.86,36.11c-0.01-0.82,0.02-1.7,0.9-2.5
		c0,14.6,3.12,15.72,5.32,27.79C64.84,56.16,63.91,43.57,63.86,36.11z M69.08,64.62c-0.7-0.5-0.3-1.3-0.6-1.81
		C69.04,63.28,69.17,63.9,69.08,64.62z M98.98,31.01c-0.3-0.9,0.1-1,0.5-1.2c2.68-1.34,4.33-2.5,5.52-1.3
		C103.49,30.7,100.98,30.2,98.98,31.01z M100.84,15.73c0.16-0.04,0.84,0.53,2.45,0.72c-0.7,0.4-1.1,0.2-1.51-0.3
		c-0.18-0.09-0.69-0.13-0.9-0.2C100.81,16.34,100.65,15.81,100.84,15.73z M100.19,17.86C102.68,17.86,101.21,18.86,100.19,17.86
		L100.19,17.86z M84.93,30.5c-3.53-1.77-11.02-3.77-14.25-6.82c-0.3-0.8,0.2-1.2,0.6-1.61c-0.1-0.5-0.3-0.9-0.4-1.4
		c2.48-2.74,5.97-5.72,6.27-5.72c2-0.23,14.85,0.75,15.9,1.2c2.23,0.97,5.83-0.63,7.12,1.7c-0.53,0-2.06,0-2.58,0
		c1.09,1.05,3.41,1.01,4.2,1.81c-2.11,0.71-4.03-0.4-6.02-0.4c-0.62,1.94,0.37,0.98-13.35-1.81c-3.69-0.75-8.31-1.05-6.42,2.21
		c3.22,0,1.56-0.55,5.82,0.3c9.6,1.92,12.43,1.84,15.12,3.49c0.12,0.12-1.44,0.51-2.18,2.53c4.41,0.3,6.82-0.1,10.54-1.61
		c0.35,0.61-0.04,1.79-0.2,2.11c-1.1,0.5-2.41,0.3-3.71-0.1C86.81,32.32,82.13,25,72.8,22.67c0.9,1.36,3.65,0.89,4.01,3.41
		c1.71,0.61,4.56,1.68,5.91,2.22c12.01,4.76,2.46,0.77,10.94,3.31c0.2,0,0.3,0.3,0.5,0.6c-5.57,1.44-4.47,1-10.74,1
		c0.93,1.24,5.27,1.04,6.34,2.06c0.39,0.37,0.63,0.75,0.88,0.75c3.51,0.53,6.72-0.9,8.73-0.9c0,0.91-0.18,0.91-6.62,2.61
		c-3.95,0.66-3.93,2.03-9.83,0.5c-10.43-2.71-9.98-3.96-10.44-1.71c-1.61-0.6-3.11-1.4-4.41-2.71c0-0.2-0.59-2.84,0.5-5.32
		c1.66-0.91,0.5,1.34,13.55,6.43c0.57,0.29,1.24,0.39,1.92,0.31c0.82,1.02,2.3,1.3,3.7,1.3c-1.09-0.61-2.47-1.53-3.62-1.3
		c0-0.62-3.65-1.9-2.48-1.9c1.93,0,1.68,0.08,1.3-0.2c-2.18-1.65-5.31-1.15-5.95-1.4c-5.8-2.9-9.53-4.52-7.32-6.72
		C70.32,25.02,76.11,29.94,84.93,30.5z M96.57,30c-0.74,0.49-1.07-0.32-0.4-0.27C96.29,29.75,96.43,29.82,96.57,30z M58.15,20.28
		c-0.1,0.07-2.91,2.11-2.91,2.21C55.08,21.66,56.25,20.28,58.15,20.28z M58.24,71.54c-3.69-9.56-4.37-11.25-4.11-14.45
		c-2.84-7.27-3.94-11.42-4.72-14.75c-2.07-8.9,2.27-15.68,2.61-15.85c3.01-2.17,5.57-5.02,10.13-5.02c-4.8,5.69-7.03,7.5-6.82,16.36
		c0.03,1.13,0.54,2.11,1.1,3.11c-0.76-9.69,2.04-14.81,7.12-19.16c1.38-0.1,2.87,0.17,4.3-0.55c0.28-0.14-0.64-1.59-2.53-2.13
		c-2.5-0.71-5.04-0.16-7.6,0.07c3.61-2.11,7.43-0.9,11.24-0.8c0.35,1.06-0.29,2.08-1,2.81c-0.28,4.26-5.16,3.81-6.72,14.75
		c-0.38,2.69-0.17,10.82,0,16.56c0.06,2.15,4.43,20.64,2.81,20.84c-1.25,0.15-0.22-3.88-2.01-7.29c0,1.31-0.11,2.72,0,4.01
		c1.06,12.38-0.78,15.94-0.1,18.66c0.45,1.82-0.2,3.41-1.1,5.42c0-17.21,2.01-18.67-3.51-42.14c-0.75-1.87-0.61-1.11-0.9-1.4
		c-0.2,0.92,0.5,2.11,0.1,3.21c-0.25,0.13-0.73,0.24-1,0.3c2.59,7.77,2.36,9.83,3.61,18.56C58.37,72.65,58.42,72,58.24,71.54z
		 M64.06,81.17c0,1.39-0.2,2.07-0.2,0.1C63.96,81.17,63.96,81.17,64.06,81.17z M64.06,77.86c-0.1,0.6-0.1,0.8-0.1,1.1
		C63.96,78.63,63.68,78.63,64.06,77.86z M64.06,84.59c0.3,4.21,0.1,8.33-0.5,12.24c-0.7,0.9-1.51,1.3-2.41,1.2
		c-0.41-1.64,0.65-1.4,1.71-9.03C63.06,87.5,63.36,85.99,64.06,84.59z M161.29,499.57c0.52-1.59,3.75-7.85,4.52-8.23
		c2.61,1.06,3.22,1.77,5.42,4.93c-0.95,1.42-5.72,8.73-4.01,8.73c0.27,0,6.2-5.21,6.32-5.32c0.65,0,0.88,0.36,1.1,0.9
		c-1.02,2.27-3.44,3.33-4.11,6.02c5.83-0.24,5.62-5.12,7.12-2.11c-0.3,1-1.4,1.71-1.51,2.91c0,0.52-0.11,0.94-0.2,1.4
		c2.11-0.4,2.11-0.4,3.91-1.91c0.88,0.22,1.5,0.71,2.01,1.4c0.1,0.79-0.68,1.49-0.11,2.38c0.7,0.7,1.61-0.82,2.62-1.07
		c0.73,0.27,1.72,0.56,2.81,0.9c0.74,0.23-0.48,2.51,1.76,3.63c0.76,0.46,0.99-0.57,1.62-0.61c0.18,0,0.02,0.04,1.85,0.74
		c5.47,2.1,12.16,3.27,13.65,3.76c5.11,6.64-3.29,5.21-4.62,9.63c-29.14,7.57-28.12-6.08-40.84-3.01c-1.38,0.55-4.94-0.51-7.42,2.31
		c-5.55,0.14-8.1,1.15-17.92-2.22c-6.51-2.23-4.07-3.47-3.45-5.91c2.76-10.85,0.8-12.01,0.8-19.57c0.99-1.65,2.31-1.68,2.31-1.83
		c-0.08-0.25-0.06-0.82,0.29-1.17c0.19-0.19,1.28,0.32,0.57,0.93c-0.79,0.6-0.93-0.26-0.87,0.85c0,1.5,0.99,1.62,3.92,5.52
		c3.54,4.7,14.04,3.52,16.25,1.3C157.12,502.84,159.97,503.59,161.29,499.57z M147.14,327.5c-0.49,6.11-0.18,20.82-2.31,32.31
		c-0.47,2.53-1.5,14.25-1.51,14.35c-0.83,8.58,0.26,6.45-0.2,12.34c-1.65,20.98-3.67,11.29,0.9,35.12
		c5.21,27.19,2.52,56.87,15.65,73.55c0.1,1.91-1,3.21-1.3,4.92c-8.35,4.33-9.57,5.48-12.24,4.72c-3.39-0.68-3.35,0.62-7.12-4.41
		c-1.62-2.17,4.29,3.56-14.35-41.44c-1.94-4.69-4.51-4.91-4.31-7.02c0-1.42-8.21-8.95-9.43-24.68c-0.55-7.17-1.28,0.2,0.89-12.29
		c1.65-9.5,0.49-10.28,2.05-9.27c0.72,0.47,1.19,1.43,1.97,1.49c1.41-1.17-2.13-1.41-2.71-11.24c-0.53-4.26-1.6-7.41-0.4-11.14
		c0.51-1.6-0.11-3.65-2.61-15.15c-2.05-9.4-2.47,1.81,0.2-18.16c3.92-29.22-0.06-27.82,2.71-36.52c1.16-0.77,2.71,1.26,10.33-2.31
		c13.69-6.41,13.59-6.43,14.25-8.03c6.82-3.95,5.3-3.35,6.23-3.04C144.85,302.61,147.68,320.69,147.14,327.5z M141.44,291.28
		c0.8,2.98,2.08,6.85,1.93,7.5c-0.36,1.53-12.51,7.28-12.74,8.07c-2.5,0.27-1.36,0.37-2.35,0.81c-0.91,0.32-0.77,0.29,0.03,0.59
		c0.36,0.11,0.29,0.25,0.29-0.47c0-0.38,2.11,0.11,2.11-0.24c0-0.77-0.41-0.59,2.11-0.59c0-0.6,0.4-0.7,0.9-0.5
		c-0.2,0.6-0.6,0.4-0.9,0.5c-0.53,0.84-1.65,0.53-2.41,0.9c-0.51,0.76-1.59,0.62-2.21,0.7c-0.37,0.75-9.53,3.98-9.63,4.01
		c-1.11,0.4-2.31,0.6-3.61,0.2c0.3-6.37,5.71-13.23,2.79-11.83c-0.85,0.41-0.08,0.96-1.29,3.01c-3.45,5.8-2,1.95-5.01,5.71
		c-23.3-7.46-41.18-0.75-41.74,2.19c-0.22,0.01-0.42,0.06-0.59,0.16c-1.23,0.72,0.27,0.78,0.72,0.08c2.32,0.26,2.78-2.43,16.62-3.33
		c4.45-0.29,22.04,0.86,24.48,3.31c0.69,1.61-2.47,10-2.71,26.69c-0.17,11.85-5.49,36.1-7.02,43.45c-1.55,7.46-3.82,8.5-6.32,18.36
		c-1.14,4.49,1.07,4.51-2.71,11.84c-2.62,5.09-5.29,9.85-5.93,16.24c-1.57,1.19-2.14,3.03-2.61,4.82
		c-3.8,14.39-3.59,17.38-3.21,24.98c0.64,12.65-8.8,63.41-0.84,79.99c0.22,0.66-3.11,2.28-3.99,3.17c-0.74,0.74-0.29,0.62-0.71,1.66
		c-0.45,1.11-2.93,2.24-6.78,7.7c-3.67,5.19-0.67,2.71-6.13,4.62c-4.94,1.72-4.11-2.23-6.82-3.31c-0.3,2.41-0.3,2.51,2.01,5.62
		c3.58,1.19,6.32-0.74,7.64,0.8c1.7-0.6,2.61-2.31,4.61-2.51c-0.14-2.56,1.4-4.24,3.11-6.23c5.57-6.48,7.93-5.75,8.13-8.52
		c0.62-0.33,1.75-0.73,2.21-0.9c1.41,1.64,2.35,3.49,2.71,4.92c-3.63,0.45-7.11,3.28-9.55,5.96c-1.2,1.31-1.65,3.01-1.08,5.18
		c2.51-3.21,6.24-4.1,8.93-6.42c0.81-0.7,1.71-1.3,2.61-1.91c0.73,0.37,0.89,1.07,0.9,1.81c0.01,0.7-3.19,2.18-4.01,2.61
		c-3.86,2-6.25,6.29-5.42,7.12c3.41-2.21,7.22-3.71,10.74-5.42c0.67,0.29,0.87,0.67,0.8,1.14c0,1.04-3.35,0.9-5.67,3.81
		c-0.64,0.64-1.25,1.56-1.25,2.47c1.36,0.34-1.07,0.83,8.53-3.01c0.6,0.26,0.99,0.72,1.1,1.4c-4.99,3.9-5.01,3.9-4.62,6.52
		c2.71-2.21,6.22-2.91,9.13-5.12c3.21,1.81,6.33,3.81,8.83,6.72c9.09,10.59,16.52,11.88,15.69,14.8c-0.2,0.99-2.03,1.01-2.85,1.45
		c-1.73,0.94-3.42,1.89-3.96,3.83c-0.21,0.08-0.58,0.11-0.18,0.45c-0.37,0.18,0.62-0.32,5.75-2.47c1.04-0.53,1.87-0.34,2.31,0.1
		c-6.98,5.23-24.66,8.29-33.61,5.52c-3.67-1.14-9.27-0.46-11.84-4.52c-1.15-1.81-3.31-2.28-8.13-7.32c-0.2-0.21-0.4-0.2-0.9-0.5
		c-6,2.09-21.92-1.7-24.18-4.11c2.11-5.92,3.81-12.04,6.22-17.86c2.98-7.19,0.24-9.02,2.51-13.55c0.45-0.45,1.2-0.54,2.01,0
		c0.69,1.37-0.36,2.65-0.2,4.82c0,0.3,0,0.3,1,1.4c3.67-3.95,2.93-18.16,1.51-23.98c-6.09-24.95-5.7-34.88-8.13-38.93
		c-0.84-1.18-3.2-19.66-3.21-19.77c-2.29-18.81-1.79-17.38,0.2-24.08c5.32-17.92,5.73-15.11,10.84-27.06
		c2.57-6.01,4.21-12.27,4.21-12.37c0.11-9.13,4.97-14.62-0.1-32.81c-1.53-5.47,1.18-6.31,0.9-20.67c0-0.1-0.3-17.37-0.1-17.96
		c0.94-2.34,0.41-3.33,0-14.95c1.52-2.17,1.8-1.48-0.1-2.41c-0.19-0.57-0.49-0.69-0.2-3.31c0-1.1-4.94-10.72-5.92-12.84
		c-5.05-10.96-2-11.24-5.62-15.05c-0.35-4.43,0.56-11.46,3.06-17.66c5-12.39,3.76-4.54,15.9-24.78c1.49-0.5,1.62,2.19,7.43,2.71
		c4.13,0.37,8.39,4.23,12.64,5.82c1.9,0.71,4.03,0.36,5.82,1.2c0.77,0.36,2.49-0.79,2.81-1c-2.05-0.82-4.04-0.79-4.72-2.71
		c-0.11-1.07,1.53-0.89,1.41-2.22c-2.51-1-4.72,0.8-7.43,0.8c-2.61-0.5-4.52-2.81-7.02-3.91c-0.22-2.69-1.05-2.51-6.62-7.93
		c-0.2-0.2-0.5-0.5-0.8-0.6c-2.31-0.6-3.91-2.51-5.82-3.71c-17.27-10.88-46.83-15.79-63.82-35.32c0.6-2.11-0.2-4.51,0.6-6.62
		c0.3-0.81,1.3-0.81,1.4-1.51c0.22-0.89-0.34-1.83-0.6-2.61c2.19-7.26,11.68-26.92,20.17-36.32c1.8-2,17.95-18.01,19.74-24.71
		c0.87-3.25,5.21-11.23,11.08-16.73c4.11-3.85,5.44-3.66,6.42-6.12c5.19-3.34,4.43,3.61,5.22-18.96c0.43-12.38-7.7-38.06-1.51-19.77
		c2.45,7.23,11.7,33.5,3.91,34.62c0.14-2.69,1.89-13.16,0.77-11.2c-1.08,2.15-0.32,2.07-2.78,12.4c2.01,0.4,3.81,0.1,5.32-0.4
		c0.9,0.7,0.5,1.51,0.9,2.21c0.4,0.2,0.9,0.5,1.51,0.8c0,3.32,5.18,4.87,5.49,7.22c0.13,0.97-10.15,12.07,1.23,2.11
		c4.85,3.12,13.78,16.8,7.73,29.4c-0.65,0.11-1.02-1.07-1.76,0.01c-0.28,0.41-0.19,1-0.84,2.89c-1.41,4.09-3.52,6.36-5.63,10.24
		c-4.08,7.5-9.19,11.21-13.75,12.44c-5.92,1.61-3.96,4.33-8.43-9.83c2.71-3.38,7.99-7.08,10.74-12.24c-1.15-0.38-2.08-0.34-2.91,0.8
		c-4.41,6.04-13.7,12.82-23.98,27.19c-1.87,2.61-6.32,7.29-8.43,9.53c-2.5,3.12-3.02-0.82-5.02-0.18
		c-2.28,0.73,15.74,17.18,16.46,18.04c2.32,2.8,5.12,4.82,8.33,6.42c29.39,14.7,21.58,8.41,28.3,12.44
		c14.5,8.7,17.47,8.99,20.47,13.34c1.71,2.49,3.63,2.56,1.71,7.12c-0.4-0.1-0.8-0.1-1.1-0.2c-1.01-1.09-0.93-5.52-2.56-4.16
		c-1.29,1.07,1.6,8.94,2.86,11.49c1.09,2.22,1.15,3.61,0.9,5.12c0,1.13-2.83,0.7-3.61,0.7c-1.91-1.91-2.71-4.41-3.91-6.32
		c-0.3-1.06,0.8-1.14,0.8-1.91c-0.51-0.26-1.56-0.25-1.94,0.52c-1.73,3.51,2.94,7.06,4.04,9.51c2.51,0.9,4.72,0.3,7.12,0.3
		c9.26,5.55,8.2,3.72,11.64,7.32c2.5,2.62,5.52,4.01,9.03,4.72c2.61,3.71,6.42,5.72,10.33,6.92
		C139.39,273.96,136.61,273.36,141.44,291.28z M71.18,236.05c0.2,0.79-0.02,0.23,0.3,2.16c0,0.1,0.43,1.44-0.08,1.27
		C68.2,238.88,70.41,233.04,71.18,236.05z M74.19,238.4c1.71,1.4,3.01,2.21,3.31,3.91c-0.62,0.62-1.09,0.09-1.82-0.71
		C75.01,240.86,74.51,239.97,74.19,238.4z M88.84,248.14c0.97-1.7,2.22-0.43,2.12,0.5C90.05,249.14,89.65,248.24,88.84,248.14z
		 M147.54,275.53c-1.16-1.16-0.13-2.6-2.01-3.21c-3.8-1.23-7.14-3.58-10.84-5.02c-5.56-2.17-1.71-2.82-7.32-5.52
		c-2.59-1.25-2.87-3.36-3.1-2.77c0-3.7-1.98-9.04,2.2-5.36c0,3.21,1,6.22,3.11,9.13c0.77-2.18-1.09-3.71-0.1-5.42
		c0.7-0.3,1.6,0,1.7,0.6c0.3,1.2,1.3,1.61,1.81,2.41c1,4.41,0.8,4.72,4.01,6.72c-0.08-1.58-1.7-2.8-0.8-4.31
		c0.1,0,1.95,1.02,3.31,3.61c0.96,1.83,2.41,3.01,4.01,4.41c0.58-1.16-0.16-0.72-1.71-4.31c0.07-0.14,0.52-0.84,0.69-1.17
		c0.73,1.28,2.17,1.61,3.33,2.48c0.57,2,1.7,5.98,3.8,5.92c-0.22-1.08-0.87-3.98-0.99-4.41c0.96,0,1.58,1.06,2.21,1.51
		c2.4,2,1.51,0.97,3.75,7.74C154.9,279.41,148.75,276.59,147.54,275.53z M154.77,278.94c0-0.13-0.02-0.12,0.09-0.01
		C155.03,279.11,154.87,279.04,154.77,278.94z M160.05,282.44c-1.47-0.29-2.17-1.34-3.1-2.69c-0.62-0.89-0.78-2.22-0.78-4.93
		c1,0.2,1.61,0.5,2.21,1.2C160.21,283.01,160.15,282.44,160.05,282.44z M155.47,271.42c-4.79-2.83-6.97-6.21-12.97-6.21
		c-0.33-1.23-1.3-1.83-2.28-2.41c-1.2-0.71-1.71-1.81-2.41-2.71c0.3-1.26,3.24,0.48,1.81-5.52c-0.25-1.37-1.26-8.2,0.5-10.74
		c0.09,0.09,0.6,1.48,1.2,2.21c0.4,0.6,1.1,0.9,1.3,1.1c1.19,7.43,4.25,1.68,7.32,6.62c3.55,5.69,5.54,5.71,6.02,8.53
		c1.31,7.63,7.26,9.83,6.95,13.45C162.92,275.98,163.72,276.29,155.47,271.42z M168.91,289.98c-8.05-5.37-7.63-5.11-7.63-11.72
		c0-0.1,1.88,0.11,2.41,1.99c0.39,1.41,1.3,2.51,2.51,3.51c0-1.18-0.4-1.26-0.4-3.61c1.1,0.5,0.6,1.51,1.2,2.01
		c1.44,1.2,1.75,1.78,2.01,2.81C169.21,286.47,169.42,288.07,168.91,289.98z M169.52,277.03c0,2.56-1.25,3-3.11,1.61
		c0.62-2.48-1.94-3.82-1.1-8.03c0.11-0.53,0.46-1.14,1-1.51c2.58,1.47-0.71,3.64,0.6,5.82c1.3-0.15,1.58-3.16,3.11-0.6
		C169.92,275.23,169.62,276.13,169.52,277.03z M176.34,293.19c2.91,1.2,2.91,1.2,4.11,4.11
		C178.89,299.65,175.32,294.21,176.34,293.19z M181.36,302.72c-0.3-0.5-0.7-0.9-1.1-1.4c-0.2-0.2-0.11-0.63-0.2-0.9
		C181.1,299.54,181.56,301.38,181.36,302.72z M181.79,292.97c-0.24-0.24-0.55-0.52,0.05,0.03
		C181.89,293.08,181.98,293.16,181.79,292.97z M182.56,293.8c0.16,0.24,0.2,0.56,0.2,0.9C182.27,294.31,182.07,293.08,182.56,293.8z
		 M184.27,299.11c-0.09,0.5-0.5,0.7-1.1,0.5c-0.09-1.51-0.19-3.02-0.28-4.53C182.88,294.82,184.85,296,184.27,299.11z
		 M202.73,319.18c0-0.38-0.29-0.27-1.61-0.82c-2.97-1.24-3.24-2.57-4.42-3.83c-4.22-4.5-9.97-4.59-12.01-10.5
		c0.2-0.81,0.84-0.22,1.92-1.18c4.67-3.61,10.34,9.59,15.94,15.43c0.06,0.06,0.02,0.45,0.1,0.6
		C202.84,318.88,203.17,319.18,202.73,319.18z M206.04,325.7c-1-1.2-0.8-1.91-0.3-2.71C206.54,323.79,205.94,324.49,206.04,325.7z"/> <path d="M96.55,14.58C96.44,14.54,96.46,14.56,96.55,14.58L96.55,14.58z"/> <path d="M645.82,410.18l-0.1-0.1C645.72,410.15,645.76,410.16,645.82,410.18z"/> <path d="M508.13,281.95C508.15,281.96,508.16,281.94,508.13,281.95L508.13,281.95z"/> <path d="M899.68,499.48c-1.1-2.2-72.49-18.91-74.35-20.77c-0.56-2.81-1.02-4.8-3.71-6.12c-5.37-2.63-8.59,1.52-9.43,1.71
		c-6.73-1.12-8.44-2.33-10.23-4.52c-5.79-7.05-13.04-10.64-22.38-9.23c-0.6-3.21-2.01-5.82-6.02-5.42
		c-1.91-3.31-4.92-4.62-8.43-5.32c-2.46-2.67-4.79-3.63-9.23-5.72c-0.8-0.6-1-1.81-2.11-2.41c-0.5,0-1.2,0-2.01,0
		c-3.21-3.6-7.62-5.31-12.02-6.81c-0.57-0.67-1.15-1.34-1.83-2.12c-7.64-2.12-9.9-8.31-19.26-10.84c-1.9-0.51-3.41-1.51-4.21-3.71
		c0.38-2.11-0.02-5.86-2.31-7.43c0.3,0.8-0.3,1.4-0.4,2.21c2.37,7.91-1.69,0.45-6.52,1.3c0.2-1.3-1.2-1.71-1.2-2.81
		c0-3.95-1.61-2.24-1.61-1.61c-0.2,3.11-0.2,6.32,0.5,9.43c-1.05,3.4-8.29,5.03-10.64,4.92c-4.92-2.51-7.22-6.82-9.03-11.64
		c0.47-2.34,3.14-6.5,5.02-2.61c0.26,2.09-1.47,4.59,2.41,9.43c0.28-1.41-0.59-2.65-0.3-3.81c0.3-1.2,0.6-2.51,0.8-3.51
		c3.28-1.48,3.7,2.34,3.91,2.81c0,1.62-2.05,3.63-0.77,4.17c-4.21,3.13,0.75,7.14,0.11,0.35c-0.05-0.49-0.23-0.34,1.26,0.09
		c0.74-1.12,0.42-2.83,1.2-3.81c-0.4-1.3-0.7-2.41-1.1-3.71c-2.41-1.2-5.02-2.31-7.32-4.31c-1.61-5.11-2.09-9.37-5.32-11.04
		c-0.7,0.8,0.2,1.4-0.1,2.11c-1.35,0.68-4.12-2.12-8.53-3.51c-5.12-1.62-1.56-4.17-24.68-12.34c-20.58-7.28-21.09-10.06-29-18.76
		c-3.1-3.41-3.59-5.44-6.72-7.12c-2.29-1.07-8.61-7.33-13.55-10.03c-6.4-3.51-16.2-9.91-19.77-16.25c0.29-2.84,1.29-6.09,0.3-8.93
		c-0.99,0.33-0.23-1.43-3.41,8.83c-0.49,1.23-0.8,3.44,0.5,4.21c0.48-0.19,1.08-0.61,1.51-0.9c16.98,18.28,23.33,15.37,24.58,18.86
		c-0.48,0.71-10.66-1.06-18.26-10.23c-5.89-7.12-12.09-8.23-14.35-10.03c0-2.39,0.5,0.81-4.11-2.42c-0.43-2.04-0.86-4.11-2.01-6.12
		c-0.47,1.63,0.14,3.27-0.7,4.62c-6.92-3.51-11.84-9.23-16.96-14.85c-0.1-5.42-2.21-10.23-5.12-14.65c0-2.97-0.59-7.72-2.61-9.23
		c-1.44-1.08-1.4-9.43-12.54-19.57c-0.37-0.74,0.42-1,1.3-1.71c2.54-1.66,9.36-7.09,9.83-9.93c0.23-0.92,3.22-2.71,3.61-8.23
		c0-1.4,2.58-1.35,3.71-2.71c0-0.75,0.6-1.29-0.52-1.64c-1.41-0.44-0.25,0.65-4.5-1.47c0,1.18,0,0.47,0,1.51
		c-1.09,0.73-1.8-3.29-2.41-5.22c3.5,1.87,2.62,1.78,7.53,3.41c0.9,1.2,1,2.71,2.31,3.71c0.96,0.39,2.02-0.2,3.01-0.2
		c1.95,0,1.81-1.41,1.81-3.11c-0.98-0.19-1.36,1.2-2.41,1.2c-1.89-0.38-2.16-1.74-7.83-11.64c-0.29-0.51-0.4-1.1,0.1-1.71
		c3.75,1.36,1.71,0.03,2.51,3.61c0.34,2.24,2.24,3.49,3.07,3.34c3.16-0.58-2.05-3.62-0.36-7.66c2.06-2.06,2.03-2.05,2.55-1.66
		c0.35,0.27,0.46,0.65,0.46,1.15c-0.1,0.9-1.3,1.2-1.4,2.61c1.48,2.97,0.44,8.12,4.21,3.11c0.1-1.91-1.81-2.01-2.31-3.11
		c1-2.21,1-2.21,0.7-4.72c-4.88-6.04-5.43-4.98-8.73,0.9c-1.46-2.71,5.26-10.92,8.23-4.52c2.31,4.98,7.08,5.14,8.23,2.61
		c-0.71-1.1-0.41,0.3-3.91-0.7c2.41-0.5,4.52-1.4,6.22-3.11c2.61-0.8,4.72-2.61,7.12-4.01c-0.6-1.3,0.7-2.21,0.9-3.51
		c3.81-2.29,0.81-0.32,2.81-4.21c1.58-3.08,1.21-4.98,1.21-6.01c-1.17,0.01-2.7,0.18-4.22-0.3c1.06-1.77,5.75-1.81,7.19-1.5
		c1.79,0.39,1.46,1.39,2.5,1.22c1-0.16,1.77-0.67,2.45-1.43c-4.24-2.94-3.94-2.68-4.21-3.51c-0.7,0.2-1.2,0-1.71-0.3
		c-9.7-4.56-5.94-2.35-10.79-3.29c-0.19-0.04-0.12-0.04-0.32,0.17c-0.73,0.75-0.15,0.49-15.48-4.3c0.8-1.43,3.52-2.41,3.62-2.41
		c1.6-0.27,2.92,0.61,3.6,0.61c-0.67,0.13-1.06,1.08-1.52,1.53c-0.84,0.84-2.1,0.33,7.84,1.78c1.4,0.2,2.91,0.1,4.11,0.7
		c0.1,0.05,10.07,3.84,10.59,5.38c0.13,0.64,0.71-0.81,4.36,2.55c0,2.16-0.22,0.26,1.57,1.28c0.1,0.1,2.55,1.57,2.65,1.63
		c0.86-0.29,1.79-0.7,2.71-0.6c2.78,0.3,2.11-0.85,3.06-0.19c2.75,1.89,1.89,0.89,3.46,9.22c1.88,9.97,3.05,7.46-1.2,10.44
		c-2.36,3.64,0.31,10.63,2.41,14.15c2,3.35-0.47,2.95-1.45,3.52c-0.25,0.15-0.65-0.17-1.42-0.69c-0.75-0.5-2.31-0.03-3.04,1.18
		c0.5,1,1.39,0.39,2.21,0.8c0,1.64-0.38,3.32,1,4.52c-2.75,3.6-5.15,0.55-8.33,1.61c1.29,2.39,3.49,1.6,5.52,1.91
		c1.37,0.68,1.47,1.59,1.3,2.41c-0.2,0.7-1.81,0.9-2.01,2.51c0.5,1.91,1.61,4.21-1.1,6.32c-11.96,1.5-3.57-0.3-14.25-0.9
		c-3.69-0.21-2.94,3.15-6.52,6.22c-1.03,0.77-4.48,9.49-5.22,13.85c-0.32,1.9-0.3,3.91-0.4,5.92c-1.81,0.8-3.91,0.2-5.42,1.4
		c-0.19,1.05,0.97,1.38,1.17,2.28c7.55-3.48,3.44-0.51,6.75-8.79c4.33-2.16,13.64,18.18,15.45,22.98c1.97,5.2-0.09,5.24,1.61,10.33
		c-0.1,1.3-1.51,2.21-1.1,4.01c2.32-2.44,5.22-7.44,5.42-11.14c-1.38-3.12-3.11,1.2-3.41,1.51c-1.56-2.9-1.02-8.43-5.32-15.95
		c-1.38-2.42-2.81-4.82-4.21-7.22c1.94-0.49-1.16-0.57,5.72,3.71c6.31,3.93,11.85,8.44,14.55,15.35
		c4.67,11.97,10.31,15.58,16.05,21.97c6.79,7.56,13.73,7.81,15.95,11.24c0.32,0.5,9.36,5.97,11.64,7.12
		c23.39,11.85,36.23,30.64,53.48,41.34c4.34,2.69,16.03,19.97,20.67,22.07c0-4.18-5.19-5.26-6.82-8.43
		c-1.96-3.81-7.88-11.68-12.94-15.15c-9.15-6.27-37.64-34.3-48.96-39.33c-8.22-3.66-23.61-14.22-30.1-19.37
		c-4-3.17-1.65-2.88-8.13-8.63c-0.8-0.71-1.63-1.29-2.11-2.31c-1.65-3.48-6.04-8.45-6.62-13.04c-0.11-0.9-0.6-1.81-1.1-2.61
		c-3.03-5.62-8.13-8.58-13.85-11.44c-4.65-2.32,0.85-1.05-14.35-9.73c0.9-5.32,4.62-13.24,8.53-16.66c1.3,0.9,3.11,0.7,4.52,1.4
		c3.21,1.61,6.42,0.7,9.63,0.1c2.71-0.5,4.19-3.01,3.81-5.82c-0.11-0.8-0.4-1.61-0.5-2.31c1.71-2.41,1.71-2.41,0.9-5.22
		c0.4-0.9,1.61-1.3,1.71-2.91c-0.1-0.31-0.72-3.12-0.1-4.11c3.81-2.11,3.81-2.11,4.01-5.82c-1.91-2.81-3.51-6.02-3.61-9.43
		c0.6-1,1.81-0.7,2.01-1.71c-0.4-0.7-1.4-0.2-1.71-1c2.18-2.18,3.13-3.47,3.21-7.12c0.09-4.2-1.45-5.89-1.91-8.23
		c-2.3-11.71-6.41-15.65-12.24-18.56c-2.53-0.13-17.04-9.07-32.01-5.72c-2.16,0.48-1.93,0.18-8.63,4.72
		c-6.98,4.72-2.56,3.87-14.55,1.91c-6.44-1.06-8.43,3.52-10.54,6.92c-3.89,6.29-7.55,8.36-6.62,16.46
		c1.17,10.15,2.75,10.09,2.81,13.34c0.29,15.15,5.53,21.96,1.2,35.52c-0.88,2.76-2.22,6.9-0.3,6.42c0.69-1.67,1.34-3.24,2.11-5.32
		c0.41,2.4,0.24,5.91-2.11,5.32c-2.26,2.63-0.74-1.83-12.44,9.13c-12.29,11.5-7.76,19.51-26.39,48.26
		c-9.3,14.36-9.77,17.97-36.02,30.5c-12.06,5.76-22.55,12.62-28.8,24.48c-4.77,9.07-7.11,23.23-4.01,30.7
		c2.72,6.59,0.82,5.53,4.01,10.44c5.57,8.55,10.97,10.05,12.44,11.14c12.93,9.57,29.27,8.03,40.44,8.03c1.18,0,1.16-0.27,2.31-1.71
		c35.16-5.02,30.53-6.39,31.61-5.32c-7.62,6.93-11.65,21.85-10.13,31.91c3.16,20.93,0.46,53.88-2.51,72.34
		c-0.77,4.76-0.95,10.64,2.21,14.25c1.38,0.55,4.78,0.52,5.72,0.2c1-0.4,1.51,0.7,2.71,0.6c0.7-1.51,2.51-1.81,3.81-3.01
		c0.2-1,0.2-2.01,0.9-2.91c2.29-2.92,4.67-5.99,7.83-8.03c3.99-2.58,1.06-2.88,5.02-4.01c1.1,1.61,2.21,3.01,2.51,5.12
		c-2.11,0-3.71,0.9-5.22,2.11c-3.46,2.77-5.15,3.69-5.82,7.53c-0.09,0.5,0.1,0.9,0.8,1c0.8-0.7,1.3-1.92,2.41-2.41
		c6.9-3.03,9.63-8.24,9.63-3.61c-2.27,2.05-6.29,2.07-9.03,7.32c-0.31,0.6-0.6,1.3-0.2,2.01c3.71-2.21,10.44-5.32,10.94-5.12
		c0.88,0.44,1.14,1.43-1.51,2.21c-2.23,0.65-6.07,4.21-4.31,5.22c2.71-1.1,5.32-2.21,7.93-3.21c3.47,2.89-4.66,2.18-3.91,8.33
		c2.81-2.71,6.62-3.31,9.43-5.52c12.37,7.27,5.78,7.55,22.88,18.86c2.49,1.65,2.13,3.15,0.2,3.61c-3.82,0.92-6.42,4.41-5.62,5.22
		c2.41-1.71,4.82-3.11,8.03-3.11c-0.2,0.4-0.3,0.7-0.5,0.8c-8.48,4.33-13.57,5.68-21.47,6.02c-9.99,0.43-4.67,0.28-18.06-2.21
		c-4.98-0.92-4.21-3.32-7.83-5.62c-4.85-3.64-4.75-5.09-6.12-5.32c-8.7,1.01-8.68,0.69-20.67-2.31c-1.3-0.4-2.71-0.8-3.71-2.21
		c1.3-2.11,1.71-4.52,2.31-6.92c0.03-0.06,3.53-9.15,4.21-11.24c2.74-8.42-0.52-11.53,3.51-13.95c-1.48-2.22-5.26-0.77-4.62,5.82
		c0.57,5.85-0.58,4.51-6.02,23.38c-1.73,1.95-3.18,3.31-0.8,5.22c2.83,2.27,6.75,3.23,11.14,4.01c2.71,0.49,5.32,1.61,8.23,1
		c2.11,0.6,4.21-0.4,6.32-0.2c4.27,5.02,5.89,4.35,8.03,7.42c2.63,3.79,5.45,3.03,10.03,4.41c11.69,3.54,29.64-0.32,38.33-5.82
		c1-2.51,0.4-4.92,0.5-7.12c-0.4-0.9-0.9-1.51-1.51-1.81c-1.9-0.92-3.41-2.41-5.12-3.71c-8.53-6.54-10.51-7.64-12.34-10.84
		c-1.28-2.57-12.46-7.12-15.05-13.85c-3.56-9.23-4.42-11.32-7.22-12.44c-0.6-0.3-1.2-0.7-1.51-1.71c-0.1-4.52,0.52-9.16,2.11-13.65
		c2.21-6.24-0.21-3.15,1.51-7.42c0.84-2.1,5.02-12,5.22-12.74c6.84-25.96,9.75-33.98,10.94-40.84c3.31-19.1,2.03-16.29,2.91-19.06
		c1.24-3.9,4.17-6.9,3.71-9.03c-0.78-3.6,1.55-4.45,3.21-13.24c0.19-1.01-0.1-2.11,0.9-3.11c5.42-0.7,10.74-1.81,15.55-4.21
		c20.13,3.1,3.52-2.53,4.62,23.78c0.21,5.02,2.41,9.48,4.52,13.95c2.43,5.15,1.64,5.49,3.01,9.73c2.92,9.05,1.61,15.16,2.21,22.38
		c0.98,11.85-1.56,6.39-2.21,11.24c-0.19,1.41,0,2.81-0.6,4.11c-0.9,0.8-1.91,1.4-2.41,2.51c1.2,2.41,4.64,6.85,7.32,7.53
		c10.72,2.71,12.49-1.72,15.35-2.61c2.12-0.66,3.21-2.21,3.81-4.21c0.81-2.71,2.61-4.72,3.71-7.22c0.1-0.3,0.6-0.4,0.8-0.6
		c2.81,1.3,3.51,1.91,5.22,5.02c-2.64,4.29-4.05,6.22-4.31,9.03c2.71-2.01,4.72-4.31,7.22-5.72c2.03,2.03-2.59,2.7-3.11,7.12
		c3.46-0.28,5.64-3.89,6.42-3.11c1.1,1.1-1.61,1.92-1.1,5.12c2.79-0.37,2.79-1.91,4.01-1.91c3.52,1.76,0.11,2.56,1.81,3.91
		c1.78,0.16,1.3-2.91,5.52-0.1c-0.3,1.61,0.1,2.71,1.51,3.31c3.07-1.02-2.32-0.96,17.16,3.91c2.37,4.44,2.05,4.66-2.31,6.92
		c-1.31,0.68-1.91,2.01-2.81,3.01c-25.8,4.49-22.75-0.05-35.92-3.81c-2.87,1.08-8.8,0.15-11.54,2.61c-0.4,0.3-1.1,0.4-1.71,0.5
		c-5.75,0.59-8,0.45-16.86-2.41c-1.6-0.52-3.21-1.2-4.41-2.81c2.21-3.91,2.31-8.33,2.61-12.64c0.37-5.41-1.17-4.23-0.5-9.93
		c1.81-2.17,1.47-1.54,1-2.01c-6.81,1.86,0.05,3.47-4.82,21.97c-0.4,1.51-0.5,3.01,0,4.62c1,0.7,1.71,1.81,2.31,3.01
		c10.64,3.61,21.27,4.72,31.41-0.6c3.11,0.4,5.42,1.51,7.83,2.91c3.52,2.05,9.98,3.46,11.34,3.01c3.17-1.32,2.62,0.9,18.86-2.01
		c4.46-0.8,4.77-3.15,8.13-5.72c0.83-0.5,1.19-3.24,1.4-4.31c-0.39-1.97-1.8-4.59-3.81-4.62c-3.81-0.05-7.33-1.68-10.94-2.61
		c-8.07-2.08-5.59-3.17-10.23-5.82c-1.71-0.8-3.31-1.81-4.82-2.91c-4.14-3.04-1.86-2.93-4.52-6.12c-4.57-5.48-6.83-8.83-11.24-8.83
		c-3.81-15.65,2.9-38.32,6.12-68.93c0.53-5.07-0.55-2.68,0.4-12.04c0.51-5.02,1.51-9.93,1.4-15.05c-0.01-0.4,0.3-0.7,0.4-1.1
		c1.67,0.21,6.54,1.83,7.73,3.01c4.77,4.77,10.32,5.56,14.35,7.22c9.94,4.12,3.94,0.72,18.06,11.84c1.89,1.89,1.16,2.51,0.3,4.31
		c-2.64,5.52-0.15,13.28,5.12,14.45c1.4,0.31,2.91,1,4.41,1c2.61,0,4.82,1,7.12,2.01c1.71,3.11,4.52,3.71,7.63,3.31
		c3.5,1.75,2.59,2.24,8.33,0.8c1.24,0.71,1.68,1.77,2.51-0.3c-0.7-0.9-1.3-2.11-2.21-3.01c-0.8-0.9-0.4-2.61-2.11-3.01
		c-0.6,1.81,1.71,3.21,0.8,5.02c-1.61,0.7-3.01-0.22-4.41-0.5c-1.6-0.32-2.11-2.41-3.71-2.61c-1,0.4-0.3,1.51-1.3,1.81
		c-1-0.5-2.41-0.6-3.21-2.51c2.31,0.4,3.91-0.4,5.32-1.71c1.93,0.21,3.68,0.53,5.12-0.7c0.3-0.3,0.6-0.7-0.1-1.3
		c-2.01,0.8-4.21,1.4-6.42,0.5c-2.21,1.1-4.41,1.4-6.62,1.91c-1.91-0.9-3.9-1.73-5.62-2.81c-1.46-0.92-4.52-3.79-4.52-4.82
		c0-14.15-8.95-16.5-9.31-18.29c-0.54-0.16-1.61-1.75,0.57,0.43c2.97,0.99,3.68,1.93,4.11,0.4c-0.57-1.15-6.21-3.73-6.82-2.51
		c-0.41-0.41-1.06-1.06-1.72-1.72c0.42,0.41,1,0.26,1.22-0.8c-0.7-0.6-0.7-0.6-1.71-0.6c0,0.6,0.18,1.08,0.43,1.35
		c-0.33-0.32-0.65-0.65-0.94-0.94c0.3,0.3-1.77-0.5-2.82-1.42c-0.07-0.1-0.85-0.85-0.48-0.48c-2.11,0.21-3.38-1.68-8.33-2.71
		c-3.41-0.71-6.72-2.01-10.03-3.51c-0.5-1.81-1.99-2.74-3.61-3.51c-28.71-13.75-19.32-11.86-32.61-21.47
		c-6.2-4.48-4.56-4.98-7.93-7.02c-0.88-0.53-8.48-5.45-8.93-5.52c-1.92-0.31-12.34-5.63-14.05-6.62c-1.52-0.88-3.31-1.1-4.82-2.11
		c-5.96-3.97-22.45-12.77-24.78-18.26c-0.49-1.16-10.01-7.45-10.94-6.52c0.4,1.59,6.83,4.7,6.22,6.12
		c-2.9,1.14-11.44,2.45-17.36,1.4c-6.63-1.17-10.54-5.52-14.15-10.64c11.6-23.21,9.93-28.43,15.35-34.72
		c5.29-6.13,6.36-6.78,6.5-6.83c-0.03,0-0.08-0.03-0.08-0.19c0.2-1.71,1.6-2.22,2.81-2.91c11.24-6.4,8.55-4.51,14.35-0.5
		c5.25,3.63,14.27,13.12,10.64,13.85c-1.51-1.71-3.81-2.21-6.22-2.81c0.42,4.2,11.68,5.13,17.26,23.78
		c2.45,8.17,19.78,20.22,27.39,23.98c9.56,4.72,11.14,10.09,19.77,14.55c8.59,4.44,7.85,2.87,10.44,4.92
		c5.29,4.18,12.62,9.36,14.85,12.34c4.55,6.09,6.51,6.75,21.37,21.07c8.54,8.23,14.62,8.63,15.25,9.23
		c0.22,0.21,17.05,11.49,18.86,12.14c2.81,1.01,5.02,2.81,7.83,4.21c1.3,3.31,3.51,6.22,5.22,9.23c1.1,0.8,2.91-0.1,3.51,1.71
		c-0.7,0.5-1.4,0.4-2.11,0.3c-0.7,0-1.3,0.7-2.01,0.4c-1-2.91-2.91-5.32-4.52-7.93c-0.1-0.3-0.6-0.4-0.9,0.2
		c1.19,3.56,6.65,11.68,7.02,18.96c-0.5,0.5-1,1.1-1.51,1.81c-0.6,0.7-1.71,0.8-2.01,1.91c1.71,1.2,2.71-0.7,3.91-1
		c1.51,0.7,3.12,0.79,4.41,1.61c4.18,2.62,12.13,3.83,16.96,4.41c3.71,3.07,8.5,3.44,11.14,5.02c9.63,5.76,15.4,3.7,17.66,5.32
		c-0.32-3.94-5.25-0.15-19.22-7.94c-2.16-1.2-3.37-0.52-7.26-2.7c0.1-2.51-1.81-4.41-2.31-6.82c6.92,0.93,8.53,6.57,11.44,8.03
		c0.93-0.56-0.07-1.04-2.21-4.52c1.61-0.6,2.91,0.1,4.21,0.6c0.27,0.27,2.28,4.73,7.73,7.53c0-1.03-0.38-0.07-4.01-6.12
		c2.76-0.11,6.86,1.55,6.99,1.73c0.72,1.35,5.07,8.59,6.21,7.77c0.6-0.43,0.22-0.33-3.17-6.18c1.78,0,1.79-0.02,4.31,1.4
		c2.64,5.28,1.84,4.04,5.82,7.63c0.9-1.01-1.88-3-3.01-5.82c1-0.5,1.51,0.09,2.21,0.2c2.28,0.35,2.01,0.18,2.02,0.56
		c0.02,2.6,0.68,3.52,3.1,5.56c1.33-0.66-2.48-4.24-1.61-5.12c0.5-0.5,1.1-0.1,1.81-0.2c0.56,2.44,0.74,2.84,2.11,5.02
		c0.75,1.19,2.17,1.81,2.41,1.81c-0.5-1.71-1.51-2.91-2.01-4.52c0.5-0.2,0.9-0.4,1.4-0.6c-0.2-1-1-1.72-1.91-2.21
		c-3.88-2.07-5.16-3.59-10.48-5.86c-4.22-1.8,1.09-1.4-8.66-4.79c-1.73-0.6-0.94-2.05-4.85-3.9c-15.45-7.32-16.52-7.89-18.26-9.63
		c-0.86-0.86-1.66-1.2-2.45-1.35c-0.55-1.03-1.45-1.58-2.67-1.66c0.35,0.94,1.14,1.71,2.29,2.04c-0.63,2.22-4.33,0.3-5.57,0.07
		c-0.1,0-0.79-0.53-0.52-2.12c1.38-1.38,4.8,0.48,2.89-1.01c-0.48-0.37-1.05-0.46-1.6-0.59c-3.23-1.39-0.95-1.9-0.6-3.21
		c0.19-0.71,0.5-1.51,0.8-2.31c1.48,2.22,2.84,6.18,3.99,5.54c1.18-0.65-0.73-1.75-0.98-6.24c0.9-0.3-0.31-0.73,5.72,2.41
		c0.6,2.51,0.7,5.02,2.31,7.02c0.49,0.62,2.15,3.66,2.61,2.75c0.43-1.24-0.61-2.02-0.8-3.05c-0.1-1-0.5-2.01-0.7-3.01
		c0.51-0.89,0.96-0.27,4.01,0.6c1.72,1.38-0.98,2.84,6.82,10.64c0.68-0.94-0.21-1.35-0.4-1.91c-0.58-1.68-1.18-2.81-1.61-4.31
		c2.46-1.9,2.23,5.77,7.71,8.27c0-1.34-1.39-2.79-1.29-4.16c0.26-0.79,0.22-0.81,3.8,0.87c1.78,0.83,1.29,4.63,6.83,8.06
		c-0.97-1.82-2.4-3.27-2.71-5.22c1.66,0,2.85,1.83,3.91,1.83c1.71,3.31,3.31,6.61,6.91,8.72c-1-1.62-1.81-3.54-2.41-5.32
		c6.38,2.66,3.75,5.16,8.53,8.53c0.58-1.17-1-2.21,0-3.21c2.61,1.1,2.64,1.25,4.31,4.21c-0.83,0.75-6.51,3.14-0.67,5.12
		c2.82,0.96,5.11,2.06,4.28,7.02c-0.77,1.55-2,0.36-4.31,0.2c-1.21-2.8-4.49-1.47-8.14-2.68c-5.76-1.91,4.15,0.28-12.33-3.52
		c-2.28-0.53,5.1,4.17,18.85,6.5c1,1.1,2.71,1.61,4.21,2.21c1.5,3.5,3.01,0.13,5.02-0.4c1.91,1.2,4.11,1.81,6.52,1.71
		c10.47,8.47,24.33,6.92,25.29,7.22c1.6,0.52,3.21,0.6,4.82,0.6c3.09,1.97,2.76,1.94,6.32,3.01c3.19,5.47,3.36,2.03,5.82,4.01
		c1.11,0.9,2.41,0.88,3.71,0.7c4.39-0.61-8.13-3.64,74.55,18.66C900.07,502.97,900.47,500.51,899.68,499.48z M546.99,230.68
		c-0.12-1.67,2.02-4.19,2.71-2.11c-2.06,3.09-2.91,1.46-2.91,2.61C546.39,230.68,546.79,230.78,546.99,230.68z M563.14,192.95v-0.1
		C563.53,192.98,563.56,192.95,563.14,192.95z M566.85,193.55c1.16,0,1.15-0.03,1.17,0.05
		C568.22,193.99,566.12,193.55,566.85,193.55z M580.6,197.97c0.04,0,0.07,0.04,0.09,0.09C580.64,198.01,580.6,197.97,580.6,197.97z
		 M580.86,198.26c0.3,0,0.67-0.06,1.33,0.51C581.63,198.77,581.14,198.81,580.86,198.26z M587.73,204.29
		c-0.38,0.54-0.81,0.67-1.41,0.07C585.88,203.21,587.12,202.81,587.73,204.29z M586.57,203.17c-0.26-0.07-0.51-0.32-0.66-0.54
		C585.81,202.52,586.38,202.64,586.57,203.17z M584.36,200.65c1.1,0.28,1.21,0.7,1.43,1.81
		C583.6,200.26,583.57,200.38,584.36,200.65z M583.7,200.38c-0.4-0.11-0.69-0.31-0.69-0.7c-0.83-0.42-0.81-1.21,0,0
		C583.56,199.67,583.69,200.21,583.7,200.38z M579.5,193.25c2.61,0.6,2.61,0.6,3.91,2.21c-1.99-0.5-2.03-0.42-3.75-2.06
		c-0.43-0.35-1.15,0.14-1.66-0.85C578.5,192.65,579.2,192.45,579.5,193.25z M577.46,192.18c0.29,0.02,0.38,0.21,0.52,0.36
		C577.4,192.34,576.59,192.18,577.46,192.18z M573.18,190.64c0.1,0.1,0.2,0.1,0.3,0.2c-0.1,0-0.2,0.1-0.3,0.1
		C573.08,190.84,572.56,190.64,573.18,190.64z M571.91,191.99c0.65,0.06,1.41-0.23,1.86,0.66c1.1,0,1.39,0.13,1.51,0.31
		c-0.56,0.46-0.93,0.08-1.51-0.31C572.99,192.64,571.34,191.99,571.91,191.99z M571.62,191.93c0.1,0-11.09-1.78-12.48-1.78
		C566.66,189.15,571.23,191.93,571.62,191.93z M651.74,422.02c0.56,0.93,3.01,8.43,3.31,11.34
		C650.79,430.7,649.99,424.72,651.74,422.02z M414.34,420.82c-6.48-22.45,1.04-40.05,17.46-51.07c0.11-0.07,3.96-2.79,4.47-2.61
		c1.54,0.55,1.66,0.61,21.02,14.25c4.57,3.22,7.54,5.07,4.01,5.72c-1.54,0.28-9.21,1.93-25.89,4.72c-1-0.5-0.8-1.25-0.8-4.52
		c-0.42-0.51-0.89-0.43-1.51-0.41c-6.16,0.15-3.62-1.79-14.45-0.79c0.98,0.88,1.65,0.6,6.92,0.6c6.77,0.56,6.26,0.11,7.54,0.6
		c1.78,6.23-2.7,5.77,0.3,6.52c0.71,1.25-1.02,2.11-2.91,3.51c-5.2,3.86,7.72-3.17,10.54-4.62c8.52-4.39-10.06,9.83-16.25,23.98
		c-3.84,2.99-5.43,6.5-5.43,10.64C416.75,425.33,415.04,423.23,414.34,420.82z M437.02,393.23c-0.4,0.6-0.9,0.9-1.61,0.9
		C435.63,393.07,435.65,393.15,437.02,393.23z M489.09,550.96c0.58-0.67,0.53-1.89,1.4-2.53c0.22-0.16,0.2-1.15,0.2-1.49
		c0.49,0.6-0.01,0.91-0.1,1.4C490.39,551.05,490.3,553.98,489.09,550.96z M534.75,451.32c-0.4-2.23-0.4-2.3,0.51-3.41
		C535.05,449.01,534.85,450.12,534.75,451.32z M540.39,432.36c-0.44,3.52-3.4,6.2-5.12,11.84c-0.6,0.4-1,0.6-1.51,0.9
		c-0.91,1.31-0.02,3.16-1.12,4.41c-0.8-0.4-0.5-1.3-0.7-1.81c-0.3-0.59-0.55-1.43-0.8-2.11c-1.59,1.19,1.19,8.26-0.1,13.85
		c-1.33,5.78-3.38,19.61-3.81,23.68c-0.33,3.06-1.73,4.85-3.51,10.64c-2.16,7.04-3.98,14.16-6.42,21.17
		c-1.78,5.13-3.18,10.34-3.81,15.75c-0.38,3.31-0.5,3.31,0.9,6.42c-1.1,1.81-3.21,2.31-4.92,3.71c-1,3.76-4.15,3.73-8.83,11.44
		c-0.05,0.1-1.1,1.81-1.2,1.81c-6.17,1.61-6.9,1.9-8.22-0.34c-0.06-0.1-0.67-1.1-0.67-1.2c3.11-0.07,2.46-5.96,2.28-8.49
		c-0.81-0.32-0.92,0.66-1.44,0.93c-0.74,0.38-0.88-1.08-0.76-1.94c0.91-6.78,6-53.8,4.21-60.4c-0.69-2.56-2.58-13.76-2.01-16.36
		c0.1-0.6,0.31-1.31,0.1-1.71c-1.2-2.27,1.72-18.27,11.54-26.09c1.4-1.11,2.11-2.71,3.21-3.81c-1.46-2.92-2.89,2.33-7.63,2.61
		c-33.67,2.01-33.63,9.14-57.79,4.21c-5.38-1.1-2.15-1.72-6.22-2.81c-4.94-1.32-9.13-4.21-13.24-7.22
		c-2.88-10.58,1.39-9.23,4.31-16.36c1.04-2.54,4.91-5.71,6.02-9.03c0.61-1.84,15.01-14.61,10.58-13.87
		c0.16-0.49,0.41-0.58,0.74-0.58c3.69-0.04,7.22-1.01,11.48-1.71c19.28-3.17,27.01-0.15,57.68,5.82c5.01,0.98,12.56,5.47,18.86,6.92
		c2.18,0.5,3.87,2.21,7.43,5.12C545.29,422.19,542.75,413.29,540.39,432.36z M586.62,379.58c10.6,6.06-0.1,1.68,19.57,13.24
		c0.62,3.09,0.37,8.45,0.3,10.94c-1.24,1.49-3.14,7.1-1.77,8.17c1.32,0.88-1.63,11.64,0.12,14.98c0.22,0.42-0.56,0.58-1.14,4.13
		c-7.24,44.38-7.61,47.79-4.92,62.61c-0.4,1.61-2.01,1.81-2.81,2.91c0,2.01-0.7,3.81-1.71,5.62c-6.05,3.63-9.26,5.79-13.95,4.31
		c-1.43-0.45-1.89,0.07-4.11-2.98c-0.14-0.24-0.1,0.65-0.1-5.85c5.89-5.89,1.42-31.82-0.6-40.75c-0.57-2.49-2-5.15-2.5-6.3
		c-1.29-3.01-1.57-6.2-3.7-8.33c-1.74-5.54-1.39-16.79,2.51-20.97c1.21-1.3,2.11-3.11,3.11-4.62c0.6-0.9,0.4-2.01,0.8-3.11
		c2.87-2.14,2.61-1.96,2.71-2.01c-1.7-1.94-0.47,1.78-12.44-0.2c-5.36-0.88-15.55,4.34-21.04,3.22c-0.16,0-0.77-3.27-3.85-9.55
		c-0.97-1.97-20.69-9.72-22.06-9.72c-5.04-0.32-9.77-3.3-13.45-3.91c0.92-1.84,12.96-7.44,14.25-8.03c3.75-2.04,2.63,0.1,18.26-8.13
		c2.7-1.42,1.94-2.73,5.82-5.12c2.44,1.37,4.83,0.31,12.44,1.91C581.8,377.38,579.75,378.97,586.62,379.58z M579.6,373.57
		c2.75,2.44,2.91,2.04-0.94,0.99c-29.68-8.05-34.85-4.54-32.97-6.42c1.01-1.18,3.32-3.67,3.51-3.81
		C561.64,362.73,563.65,359.43,579.6,373.57z M486.98,328.6c5.07,7.26,11.85,7.27,20.77,7.83c3.71,0.23,7.55-0.5,11.15-1.49
		c4.08-1.63,0.68,4.77,19.86,14.95c1.51,0.8,2.92,1.68,4.52,2.11c5.64,1.51,10.03,5.42,14.95,8.33c0.2,0.1,0.2,0.4,0.4,0.7
		c-8.76,1.38-10.32,1.18-12.14,3.51c-6.12,7.84-5.82,7.05-19.57,14.55c-3.07,1.95-3.08,0.21-6.92,2.11
		c-5.08,2.51-14.5,6.52-16.76,9.53c-12.24-2.76-25.06-5.69-37.23-4.31c-1.88-4.03-4.88-6.04-17.16-14.15
		c-3.09-2.04-6.02-4.41-9.43-5.92c-0.43-1.95,20.59-10.32,22.38-12.14c3.26-3.32,10.11-6.76,13.55-11.74
		c3.12-4.53-1.71,9.75,29.1,22.07c14.67,5.87,9.75,8.73,32.58,8.73c0.35,0-0.25-0.69-1.49-0.7c-3.87-0.03-15.99-1.37-18.64-4.02
		c-1.83-1.6-30.77-11.32-37.83-27.19c-2.37-5.32,2.28-8.36,6.02-14.85C486.11,326.84,486.54,327.97,486.98,328.6z M530.47,264.81
		c-5.93,5.79-0.62-3.42-1.55-19.69c-0.2-3.61-1-7.12-0.7-10.84c2.3,12.24,1.66,5.28,4.92,28.5
		C532.09,263.1,531.34,263.97,530.47,264.81z M533.24,244.32c-0.67-1.17,0.11-2.48,0.19-0.9
		C533.45,243.71,533.39,244.02,533.24,244.32z M533.94,253.96c0-0.2,0-0.4,0-0.6C534.24,253.56,534.04,253.76,533.94,253.96z
		 M532.04,212.42c-0.95,19.39,2.06,14.9,2.61,27.99C529.9,234.72,529.97,218.6,532.04,212.42z M536.65,241.92
		c1.2,1.4,1.3,3.21,1.71,4.31c0.1,1.3-0.8,1.71-0.3,3.01c-0.17-0.17,0.45,0.5,0.5,0.6C534.72,254.46,537.27,246.72,536.65,241.92z
		 M538.73,251.65c1.76-1.72,3.46,1.72-1.98,6.32C536.49,254.73,536.64,253.7,538.73,251.65z M537.76,236.4c0.7-0.1,1,0.4,1.3,0.9
		C538.16,237.6,538.16,237.6,537.76,236.4z M552.31,222.55c-3.91-1.51-3.91-1.51-7.93,1.4c-0.9,1.3-1.5,2.71-1.61,4.21
		c-0.28,3.91-2.89,2.38-0.51,6.83c0.93,1.75,1.78,2.58,2.02,4c0.16,0.33,2.28,3.09,1.49,2.89c-3-0.58-3.42-0.81-5.51-2.99
		c0.47-1.1,1.7,0.8,3.41,0.8c1.18-1.18,0.37-0.25-1.87-1.86c-1.19-0.86-3.29-3.16-3.34-3.26c4-1.17-2.92-2.41-4.21-9.93
		c0-1.38-0.21-1.41,0.85-0.88c0.96,0.55,1.78,1.54,2.95,0.98c-3.11-2.91-3.61-3.61-3.61-5.52c5.32,3.63,5.26,3.55,8.22,4.21
		c0.17-1.38-7.72-3.55-7.72-7.53c1.03-1.03,1.12,0.97,5.52,1.81c0.65,0,4.69,1.3,6.72,2.01
		C554.23,222.2,554.39,221.51,552.31,222.55z M556.82,224.66c0.5-0.2,1-0.2,1.51,0.1C557.82,224.96,557.32,224.96,556.82,224.66z
		 M565.95,218.66c-8.19,1.37-8.58,1.02-10.47,1.98c-1.56,0.8-14.08-5.14-14.83-5.45c-0.23-0.08-0.69,0.14-0.69,0.56
		c-0.35,0-0.7,0.09-1.1-0.1c-4.3-3.13-3.76-2.02-2.31-7.83c0.73-0.35,1.09-0.03,1.61,0.48c2.68,2.29,11.67,8.34,13.52,8.23
		c-0.11-0.67-4.1-2.72-0.44-1.91c1.41,0.31,2.7,1.13,4.08,1.42c4.66,1.4-2.28,2.64,11.24,1.71
		C566.55,217.86,566.99,218.4,565.95,218.66z M548.93,214.13c0.4-0.24,0.52-0.04,0.65,0.35
		C548.67,214.16,548.73,214.26,548.93,214.13z M564.11,212.32c0-0.5,0.54-0.2,0.64-0.2C564.38,212.85,564.11,212.66,564.11,212.32z
		 M566.75,213.42c4.11-2.11,4.41-2.21,6.12-1.3C571.27,213.62,569.86,213.92,566.75,213.42z M571.67,199.68c0.3,0.1,0.6,0.1,0.9,0.3
		c-0.83,0.32-0.42-0.5-1.92-0.5C571.25,198.89,571.37,199.44,571.67,199.68z M552.8,211.4c-2.79-2.43-9.46-4.31-13.23-8.52
		c0.33-2.28,2.39,0.15,2.39-0.45c-0.25-0.84-1.59-0.87-1.69-1.96c1.71-2.01,4.01-3.81,7.22-5.42c19.44,3.46,16.84,3.83,19.67,4.01
		c1.3,0.08,2.49,0.99,3.5,1.81c-0.57,0.01-1.13,0.06-1.71,0.08c-0.56-0.64-1.29-0.68-2.04-0.52c0.72,0.72,1.22,0.55,1.91,0.55
		c0.36,1.08,3.66,2,3.02,2c-2.79-0.01-4.99-1-7.28-1.71c-0.5,0.1-0.2,0.5-0.4,0.8c-1.14,0.76-2.11-1.41-16.56-5.02
		c-0.9-0.22-1.61,0.1-2.31,0.6c-0.84,0.68-0.18,1.81-0.05,1.81c3.59-0.28,6.77,1.55,10.28,2.41c3.4,0.83,6.82,1.91,9.93,3.61
		c-0.31,0.31-1.58,0.9-1.71,2.51c3.26,0.81,5.83,1.41,10.23-0.4c0.41,0.83-0.04,1.65-0.5,2.31c-1.3,0.5-2.51-0.1-3.91-0.5
		c-2.61,0.9-5.42,0.89-8.23,1.2c-5.82,0.65-14.37-6.12-15.83-6.12c-0.95-1.37-1.7-1.03-2.26-1.61c-0.33-0.34-0.8-0.48-1.27-0.48
		c0.2,0.6,0.87,0.79,1.45,0.8c0.39,0.9,1.05,1.36,2.06,1.39c0,0.23,0,0.42,0,0.66c-0.81,0.4-0.07,0.63,0.03,0.73
		c-0.42,0.42,1.88,1.19,1.98,1.23c12.03,6.8,10.25,4.02,14.75,6.72c-9.33,2.43-14.22-2.89-16.86-2.01
		c-3.35-2.36-10.19-6.23-6.63-7.76C543.73,209.15,553.41,212.02,552.8,211.4z M570.07,205.59c-1.11,0.54-1.85,0.2-2.21-0.7
		C569.1,204.42,569.7,204.79,570.07,205.59z M545.58,205.91c0-0.09,0-0.28,0-0.37C545.76,205.9,545.7,205.79,545.58,205.91z
		 M527.15,198.62c0.11,0.11-0.73,0.53-1.3,0.38C525.85,198.9,526.16,197.96,527.15,198.62z M525.16,199.39
		c0.09-0.2,0.28-0.29,0.55-0.31C525.72,199.59,524.96,199.87,525.16,199.39z M524.71,199.82c0.23-0.05,0.25-0.01-0.31,0.55
		C524.41,200.04,524.51,199.86,524.71,199.82z M521.7,268.81c1.03-5.47,4.47-19.76,1.1-39.93c-0.81,1.12-0.09,2.19-0.6,3.21
		c-2.85-1.07,1.06-1.22-0.2,18.25c-0.02-0.1-3.01-13.34-3.01-13.45c0.62-3.51-0.56-4.07-2.46-15.78
		c-1.82-11.27,4.01-17.51,4.57-17.73c3.27-1.28,5.86-3.9,9.73-3.41c0.34,0.56,0.04,0.83-1.51,2.01c-6.93,5.29-7.57,14.63-6.12,15.25
		c1.78-8.98,3.06-12.24,9.62-16.76c1.76,0.12,2.54,0.79,4.31-0.1c-1.76-4.41-7.99-2.25-9.53-3.41c3.71-0.9,7.22-0.1,10.74,0.8
		c0.35,1.25-0.14,1.9-1.2,2.61c-0.58,4.56-9.41,3.63-9.72,22.35c-0.07,4.29-1.51,6.42-0.51,14.19c0.6,4.67,0.88,9.31,0.3,14.05
		c-1.03,8.39-0.27-11.91-1.81-4.21c-1.41,18.27-2.49,18.94-2.21,20.97C523.43,269.39,521.18,271.56,521.7,268.81z M523.81,269.71
		c0.3-2.51,1.1-4.21,1.71-5.82C525.63,266.1,525.93,267.87,523.81,269.71z M540.47,294.89c-0.15,0-0.5-0.08-0.5-0.2
		c-5.22-13.49-2.88-8.7-4.11-9.93c-4.2-5.5-10.12-8.64-12.94-10.84c2.24-2.24,2.76-2.57,3.31-2.81
		c9.94,10.48,8.79,12.95,11.04,14.45C539.15,288.69,541.08,294.28,540.47,294.89z M613.51,358.11c0.78-0.46,0.94,0.1,1.1,1
		C613.91,358.61,613.71,358.41,613.51,358.11z M615.66,360.66c0.51,0.3,0.46,0.72,1.01,1.11
		C616.11,361.63,616.47,361.47,615.66,360.66z M617.63,363.63c-0.67-0.59-0.78-1.71-0.68-1.61
		C618.27,363.16,618.51,364.51,617.63,363.63z M633.61,379.53c-0.38-0.15-0.53-0.41-0.53-0.65
		C633.55,379.03,633.66,379.21,633.61,379.53z M681.84,411.99c-2.26,0.56-1.94-1.28-7.02-3.11c-2.6-0.94-5.12-2.21-7.63-4.21
		c-1.24-5.22-16.19-8.14-23.18-14.65c-1.69-1.57-10.01-9.55-10.14-10.12c-0.24-1.01,2.45,0.69,2.62,0.78
		c6.28,3.33,8.91,2.89,13.55,4.92c20.59,9.02,14.51,7.35,34.72,16.86c1.43,2.83,1.81,4.21,1.91,4.31
		C684.62,408.18,682.63,409.6,681.84,411.99z M702.51,427.84c-0.99,0.7-1.95,0.29-3.01,0.1c-1.34-0.24-1.85-1.37-2.11-2.71
		C702.27,423.2,702.16,424.33,702.51,427.84z M712.24,445.4c-2.74,0.55-11.9-0.86-16.86-4.01c-1.29-0.82-2.91-0.7-4.21-2.01
		c-0.06-0.27-0.14-2.95-0.16-3.34c-0.26-4.88-2.28-3.8-2.82-6.69c-0.19-0.55,3.01,0.4,3.78,0.4c0.79,1.09-0.01,2.44,0.7,3.41
		c0.08,0.1,4.72,7.06,4.75,5.08c0.01-0.84-2.84-6.69-3.04-7.49c8.2,1.82,4.34,7.2,13.14,12.54c-0.89-1.43-0.99-1.04-3.21-6.22
		c1.1-0.2,1.91,0.2,2.91,0.8C708.43,440.49,710.24,442.89,712.24,445.4z M704.01,429.34c2.2,1.15,4.51,1.47,6.74,1.02
		c0.31-0.1,2.84,3.28,9.8,4.81c1.38,0.3,12.14,6.76,12.24,6.82c1.61,3.21,5.02,3.71,8.53,4.31c2.43,3.04,6.82,3.2,7.42,5.22
		c-1.85,0.26-10.68-4.37-11.44-4.92c-1.61-1.17-8.27-1.18-11.14-3.71c-0.8-0.71-2.21-0.9-3.31-1c-4.97-0.47-5.23-2.36-19.87-7.73
		c-1.1-2.1-3.99-2.61-5.7-5C696.75,428.62,702.22,431.14,704.01,429.34z M739.44,435.17c0-0.1,0.1-0.2,0.1-0.2
		C739.67,434.97,739.68,434.93,739.44,435.17z M764.22,451.22c0,0.24-0.36,0.27-0.6,0.2C763.01,451.42,763.65,450.45,764.22,451.22z
		 M775.27,463.12c-0.9,0.71-1.33,2.33-1.57,2.45c-1.27,0.28-2.27-0.12-3.26-0.71c-0.5-0.8,0.7-1.2,0.2-1.91
		c-1-0.1-1.51,1.1-2.71,0.9c-0.3-1.71,0.2-3.61-0.3-4.92c0.36-0.91,1.15-1.01,1.64-1.38c1.76-1.39-2.88-0.83-3.84-1.63
		c-1.97-1.63-4.71-0.65-3.74-1.6c1.02-1,2.27-1.3,3.34-2.02c12.74,4.58,5.92,5.39,5.92,8.43c0.7,0.8,1.21-0.31,1.81-0.2
		c0.5,0.09,1.1,0.1,1.71,0.1C775.86,460.82,776.97,461.78,775.27,463.12z M776.16,465.67c-0.18-1.01,0.54-1.35,1.2-2.01
		c4.72,1,7.83,4.41,12.34,6.62C783.73,470.29,779.43,467.47,776.16,465.67z M801.55,473.6c-0.3,0-10.12-4.55-12.36-5.88
		c-4.02-2.39-3.65-2-1.61-1.83c6.97,0.6,7.41,0.95,14.47,6.6C802.25,472.99,802.05,473.3,801.55,473.6z M817.1,475.5
		c-0.33,0.11-0.68,0-0.8-0.4c0.51-0.4,0.99-0.41,1.61-0.2C818,475.6,817.4,475.4,817.1,475.5z"/> <path d="M105.7,75.45c-9.14-4.37-9.89-3.47-12.24-5.82c-1-1.51-0.7-3.41-1.81-4.62c-0.8,0.2-1.09,0.7-1,1.3
		c0.61,4.19,2.15,5.8,4.72,6.72c2.81,1.01,5.52,1.97,8.43,2.41C104.4,75.55,104.9,76.36,105.7,75.45z"/> <path d="M118.24,45.25c0.8,1.51,1.91,2.21,3.61,1.81c0.2-1.1,0.3-2.11,0.4-3.11s1.71-1.2,1.61-2.41c-3.71-1-5.92,1.4-8.63,2.91
		C116.14,45.96,117.24,45.15,118.24,45.25z"/> <path d="M126.47,39.53c-4.29-3.52-11.27-4.07-13.04,0.5c2.01-0.2,3.51-1.61,5.52-1.61C124.04,39.82,124.74,40.94,126.47,39.53z"/> <path d="M115.05,100.7c-0.01,0.04,0,0.08,0,0.12C115.13,100.75,115.16,100.73,115.05,100.7z"/> <path d="M118.44,104.05c1.9,1.12,3.71,2.41,4.92,4.31c0.3,0.3,0.9,0.3,1.3-0.3c-0.75-2.99-5.37-7.21-9.62-7.22
		C115.05,102,117.71,103.62,118.44,104.05z"/> <path d="M115.05,100.84c0-0.01,0-0.01,0-0.02c-0.01,0.01-0.01,0.01-0.02,0.02C115.04,100.84,115.04,100.84,115.05,100.84z"/> <path d="M589.33,363.63c2-0.22,3.74,0.96,3.11-0.3c-10.03-3.14-7.91-3.6-10.23-4.01C578.58,359.71,584.28,364.18,589.33,363.63z"/> <path d="M527.12,324.49c0.44-0.22-1.74,0.98-8.63-3.51c-1.48-0.97-3.89-2.37-4.11-0.6c3.32,2.66,7.49,4.82,11.74,4.82
		C526.97,325.2,527.01,324.38,527.12,324.49z"/> <path d="M532.14,563.9c-2.51,0.44-6.37,1.92-5.32,3.81c4.87-1.22,5.46-1.35,6.12-2.01C533.73,564.92,533.1,564.22,532.14,563.9z"/> <path d="M544.18,346.07c1.81,1.4,3.81,0.9,6.32,0.9c-2.11-1.4-3.91-1.4-5.72-1.91C544.58,345.46,544.38,345.77,544.18,346.07z"/> <path d="M536.95,567.51c-0.91-2.04-3.36-0.37-3.91,1.71C534.85,569.42,536.15,569.22,536.95,567.51z"/> <path d="M99.38,78.97c-1.91-3.41-2.01-3.51-3.61-4.01C96.77,77.46,97.67,78.47,99.38,78.97z"/> <path d="M511.77,289.28c0.9,0.3,2.01,0.2,3.01,0C516.92,288.85,514.09,286.25,511.77,289.28z"/> <path d="M529.63,324.9c-0.59-1.29-0.7-1.3-2.46-0.42C527.92,324.87,528.69,325.37,529.63,324.9z"/> <path d="M681.34,428.85c1.61-0.2,1.61-0.2,1.4-1.1C682.04,427.64,681.64,427.94,681.34,428.85z"/> <path d="M637.39,403.26c0.18,0.36,0.37,0.65,0.63,0.99C639.92,403.9,638.65,402,637.39,403.26z"/> <path d="M642.41,407.07c-0.08-0.04-0.02-0.04-0.1,0H642.41z"/> <path d="M507.96,291.18c1,0,1.71-0.4,2.21-1.3C509.26,289.98,508.26,289.68,507.96,291.18z"/> <path d="M527.62,288.87c-0.3-0.5-0.7-0.9-1.61-0.7C526.52,289.07,526.92,289.48,527.62,288.87z"/> <path d="M504.44,321.48c-0.2-1-0.2-1.61-1.1-1.61C502.94,320.78,503.44,321.08,504.44,321.48z"/> <path d="M595.95,365.23c0.5,0,0.9,0,1.61,0C596.86,364.83,596.45,364.43,595.95,365.23z"/> <path d="M558.83,347.47c-0.1-0.5-0.5-0.7-0.9-0.8C557.62,347.67,557.62,347.67,558.83,347.47z"/> <path d="M553.51,345.87c0,1.31,2.23,0.31,1.2-0.2C554.21,345.57,553.81,345.36,553.51,345.87z"/> <path d="M102.89,86.59c0,0-0.3,0.2-0.3,0.3C102.59,87.69,103.83,87.53,102.89,86.59z"/> <path d="M510.26,289.98c0.5-0.2,1-0.5,1.51-0.7C511.6,289.11,510.37,289.9,510.26,289.98z"/> <path d="M105.8,92.21c-0.24,0,0-0.5-0.4-0.1c0.1,0.1,0.2,0.3,0.3,0.4C105.7,92.41,105.8,92.31,105.8,92.21z"/> <path d="M537.36,325.6c0.19,0-0.09,0.45,0.8,0C538,325.44,538.09,325.23,537.36,325.6z"/> <path d="M103.59,87.8c-0.2-0.1-0.3-0.2-0.5-0.3C103.19,87.6,103.09,88.2,103.59,87.8z"/> <path d="M64.77,558.68h-0.01C64.92,558.84,64.87,558.79,64.77,558.68z"/> <path d="M97.37,17.86c0.33,0,0.22,0.02,0.1-0.1L97.37,17.86z"/> <path d="M149.72,273.75c0.17,0.09,0.16,0.12,0.03-0.13l-0.11,0.1h-0.02C149.66,273.83,149.61,273.86,149.72,273.75z"/> <path d="M114.33,252.25c-0.1-0.08-0.14-0.2-0.1,0.1L114.33,252.25z"/> <path d="M119.35,254.96c-0.16,0-0.1-0.02-0.1,0.1L119.35,254.96z"/> <path d="M559.33,292.39l0.1,0.1C559.43,292.32,559.38,292.37,559.33,292.39z"/> <path d="M574.78,206.7l-0.1-0.1C574.68,206.72,574.69,206.7,574.78,206.7z"/> <path d="M571.77,331.52l-0.1-0.1C571.67,331.53,571.64,331.56,571.77,331.52z"/> <path d="M429.39,398.54l0.1,0.1C429.53,398.48,429.55,398.54,429.39,398.54z"/> <path d="M733.52,437.17l0.1-0.1C733.43,436.98,733.52,437,733.52,437.17z"/> <path d="M539.85,234.12c0,0.03,0.01,0.05,0.01,0.07C540,234.05,540,234.08,539.85,234.12z"/> <path d="M551.8,216.53c-0.04,0.01-0.08,0-0.13,0C551.71,216.66,551.7,216.64,551.8,216.53z"/> <path d="M555.01,193.55c0.25-0.04,0.15-0.05,0.1-0.1L555.01,193.55z"/> <path d="M66.27,135.66c3.58-0.33,1.08,1.56,10.13,6.32c1.51,0.79,2.71,1.71,3.61,3.11c0.21,0.42,1.45,0.18,1.2-0.8
		c-1.77-5.31-2.62-6.15-7.12-8.53c-0.86-0.45-1.67-5.42-9.33-0.2C65.26,136.26,65.77,135.86,66.27,135.66z"/> <path d="M69.28,292.39c-0.94-11.28-1.41-10.81,0.63-11.82c0.49-0.24,0.78-0.51,0.97-1.02c-3.36-0.75-1.72-0.33-6.02,1.1
		c-1.2,0.4-2.61,0.2-3.71,1.3c1.85,0.62,3.94-0.72,5.28-0.52c1.66,0.25,1.1,1.63,1.34,4.23c0.09,0.91,0.03,6.86,1.61,8.43
		C69.33,293.87,69.28,292.88,69.28,292.39z"/> <path d="M123.8,271.51c-1.31,0-0.89,11.92-0.8,13.2c0.06,0.95,0.32,1.2,0.97,1.56C124.33,284.42,124.92,271.51,123.8,271.51z"/> <path d="M84.92,411.09c-0.29-1.61-0.29-3.01-1.29-4.11c-1.41-0.53-1.52,0.45-1.53,1.26c-0.01,3.36,1.04,3.8,3.73,7.16
		C87.06,413.37,86.96,413.3,84.92,411.09z"/> <path d="M69.68,302.22c-0.36,1.6-0.52,4.03,0.2,5.82c0.8,1.44,2.01,0.21,2.01-0.6c-1.12-6.42-0.9-7.01-1.4-7.53
		C69.26,298.65,69.82,301.58,69.68,302.22z"/> <path d="M98.48,566.31c1.91-0.59,1.21-2.31,0.2-2.31c-2.05,0.11-6.53,1.71-5.42,3.71C94.96,567.31,96.66,566.87,98.48,566.31z"/> <path d="M59.59,431.83c-0.52,0-0.79,0.15-0.94,0.53c-0.87,2.15-2.05,6.47-0.9,8.43C59.88,434.33,61.02,431.83,59.59,431.83z"/> <path d="M59.02,545.69c-0.1-0.07-2.38,4.39-1.49,6.77c0.4-0.1,0.9-0.1,1-0.3c1.1-1.3,1.09-3.01,1.3-4.62
		C59.94,546.86,59.94,546.18,59.02,545.69z"/> <path d="M79.13,430.19c0.1,0.06,0.89-4.07-1.32-7.06c-1.3,1.1-1,2.21-0.6,3.11C77.7,427.52,77.45,429.13,79.13,430.19z"/> <path d="M10.28,182.32c-0.9,0.7-1.1,1-1.1,1.61c0.43,1.73,2.16,4.11,3.51,3.11C10.75,182,10.85,182.88,10.28,182.32z"/> <path d="M79.91,440.38c0.39,1.07-0.37,2.72,0.5,3.81c0.22-1.14,0.94-7.9-0.3-8.73C78.52,435.63,79.25,438.93,79.91,440.38z"/> <path d="M59.14,544.13c1.78-1.78,2.18-2.87,1.1-4.82C58.77,541.19,58.62,541.73,59.14,544.13z"/> <path d="M103.19,567.61c-0.6-1-0.9-1.31-1.4-1.1c-1.21,0.49-2.01,1.2-2.51,2.61C101.09,569.42,102.39,569.22,103.19,567.61z"/> <path d="M71.38,253.96c2.51-1.91,3.51-4.11,2.51-6.12C72.58,249.62,72.03,251.68,71.38,253.96z"/> <path d="M112.22,293.79c2.21,0.29,4.25,1.31,6.92,0.8C116.89,293.18,114.79,293.44,112.22,293.79z"/> <path d="M62.76,135.76c-1.7-1.31-1.75-1.27-3.71,0.2C60.27,137.08,61.36,136.65,62.76,135.76z"/> <path d="M67.97,266.5c-0.8,2.31-1.3,4.01-0.4,5.92C67.57,270.61,68.88,269.11,67.97,266.5z"/> <path d="M54.63,471.79c0.26-0.98,0.37-2.34,1.2-4.01C53,468.41,53.13,471.38,54.63,471.79z"/> <path d="M91.05,236.9c0.7,1.81,1.4,2.61,2.51,2.81C93.86,238.5,93.86,238.5,91.05,236.9z"/> <path d="M59.65,524.87c-0.19,0.93-0.18,1.79,0.6,2.8C61.25,526,60.38,524.5,59.65,524.87z"/> <path d="M56.11,447.21c-0.53,1.14,0.32,3.01,1.32,0.2C57.76,446.52,56.72,445.91,56.11,447.21z"/> <path d="M65.16,315.16c1.61-0.8,2.81-1.3,3.31-2.71C66.49,313.44,66.5,313.44,65.16,315.16z"/> <path d="M60.75,535.81c0-0.69-0.77-0.81-0.96-0.51C58.19,537.29,60.75,538.45,60.75,535.81z"/> <path d="M115.33,289.58c-1-0.4-1.91-0.7-3.11-0.7C113.35,289.59,114.12,290.28,115.33,289.58z"/> <path d="M55.43,455.44c0.1-0.6,0.7-1.2-0.5-1.81C54.53,454.83,54.53,454.83,55.43,455.44z"/> <path d="M73.09,231.68c0.4,0.5,0.7,1.1,1.81,0.8C74.64,231.31,73.09,230.91,73.09,231.68z"/> <path d="M55.93,136.76c0.13-0.17,0.44-0.27,0.63-0.35c0.69-0.31,0.52-1.23-0.55-1.12C54.87,135.4,54.84,136.62,55.93,136.76z"/> <path d="M59.75,529.48c-0.7,0.9-0.5,1.71,0,2.61C60.38,531.18,60.21,530.31,59.75,529.48z"/> <path d="M59.75,520.45c-0.25,0.64-0.92,1.6-0.3,1.91C59.84,521.57,59.85,521.58,59.75,520.45z"/> <path d="M87.44,241.51c-0.2,0.9-0.2,0.9,0.7,1.4C88.6,242.18,88.24,241.85,87.44,241.51z"/> <path d="M70.48,286.06c0.6,0.5,1.2,0.4,1.81,0C71.69,285.56,71.08,285.76,70.48,286.06z"/> <path d="M19.2,190.5c0.33,0.39,0.83,0.38,0.63-0.2C19.46,189.69,18.64,189.85,19.2,190.5z"/> <path d="M14.69,187.33c-0.4,0.4,1.2,0.77,1.3,0.8C15.82,187.84,15.31,186.4,14.69,187.33z"/> <path d="M24.53,175.39c-0.5,0.25-0.08,1.09,0.45,0.69C25.46,175.72,24.98,175.39,24.53,175.39z"/> <path d="M54.63,461.86c-0.49,0.49-0.26,0.99,0.2,1.51C55.13,462.66,55.43,462.16,54.63,461.86z"/> <path d="M69.68,295.4c0.1-0.48,0-0.88-0.4-1.2C69.38,294.49,69.18,295.1,69.68,295.4z"/> <path d="M66.61,415.01c-0.43-0.07-0.6,0.99,0.16,0.99C67.18,415.6,66.9,415.05,66.61,415.01z"/> <path d="M60.65,425.84c0-1.14-0.62-0.32-0.3,0C60.44,425.93,60.55,425.84,60.65,425.84z"/> <path d="M71.2,254.32c-0.02,0.04-0.51,1.01-0.52,1.04C71.04,255.08,71.13,254.71,71.2,254.32z"/> <path d="M71.21,254.26c0,0.02-0.01,0.04-0.01,0.06l0.01-0.02c0.06-0.11,0.12-0.22,0.17-0.34
		C71.26,253.84,71.29,253.74,71.21,254.26z"/> <path d="M87.94,232.48c-0.39-0.39-0.25-0.1-0.7-0.1C87.44,232.68,87.64,232.79,87.94,232.48z"/> <path d="M70.49,255.67c0-0.02,0.01-0.05,0.02-0.09C70.47,255.67,70.47,255.79,70.49,255.67z"/> <path d="M70.88,229.77c0.2,0.1,0.3,0.1,0.5,0.2C71.28,229.67,71.38,229.27,70.88,229.77z"/> <path d="M71.33,229.99C71.28,229.97,71.28,229.97,71.33,229.99L71.33,229.99z"/> <path d="M71.41,230c-0.03,0-0.06-0.01-0.08-0.01c0.03,0.01,0.08,0.04,0.16,0.09C71.49,230.08,71.49,230.02,71.41,230z"/> <path d="M140.92,385.3c-1.51,0.22-2.69,4.3-2.71,5.82C138.21,391.3,143.87,386.48,140.92,385.3z"/> <path d="M141.62,495.87c-0.85,1.49-1.14,3.04-1.1,4.32C140.57,502.11,144.44,502.58,141.62,495.87z"/> <path d="M125.7,419.47c0.22,0.07-1.2-2.87-3.74-5.58C120.11,415.26,123.71,418.33,125.7,419.47z"/> <path d="M126.67,420.32c-0.7,1.51-0.5,1.71,1.91,3.41C128.48,421.62,128.48,421.62,126.67,420.32z"/> <path d="M140.52,404.56c-1.4-0.8-1.4-0.8-3.51,0.2C137.84,406.01,140.95,406.57,140.52,404.56z"/> <path d="M138.61,482.73c-0.37,1.51-0.42,2.78,0.8,3.81C139.61,484.73,139.61,484.73,138.61,482.73z"/> <path d="M134.6,391.02c-0.57,0.38-0.9,0.86-1,1.61C134.56,393.73,136.28,391.44,134.6,391.02z"/> <path d="M130.38,425.84c-1.39,0.23-0.57,1.9,0.8,2.21C131.39,427.04,131.19,426.24,130.38,425.84z"/> <path d="M132.99,435.67c-0.4,0.5-0.7,1,0,1.81C134.1,436.17,134.1,436.17,132.99,435.67z"/> <path d="M130.08,394.83c0.23,0.16,0.9-0.18,0.9-0.6c0-0.1-0.3-0.3-0.4-0.4C129.89,393.83,129.6,394.83,130.08,394.83z"/> <path d="M140.22,490.35c-0.48-0.1-0.9,0.49-0.7,0.9c0.26,0.54,1,0.28,1-0.4C140.39,490.73,140.22,490.49,140.22,490.35z"/> <path d="M133.09,432.76c0.53-0.53,0.09-0.96-0.13-0.92C132.24,431.88,132.4,432.58,133.09,432.76z"/> <path d="M91.24,166.44c-0.24-0.17-0.42-0.47-0.88-0.19c0.35,0.09,1.1,0.2,0.8,0.2c0.44,1.33,0.6,1.02,7.02,3.61
		c16.2,6.55,29.97,1.44,31.61-0.4c0.75-0.75,0.1-1.51-0.11-1.51c-1.6-0.7-9.32,4.68-22.87,1.91c-15.46-3.17-10.92-2.15-14.28-3.58
		C92.14,166.31,91.68,166.37,91.24,166.44z"/> <path d="M134.9,166.06c-0.12,0-1.77-0.28-2.01,0.8C134.3,167.36,134.3,167.36,134.9,166.06z"/> <path d="M84.63,163.95c0.7,0.3,0.7,0.3,1.2-0.1C85.43,163.65,85.03,163.65,84.63,163.95z"/> <path d="M127.37,232.08c-3.82,0.64-3.58,5.5-2.71,8.03c0.21,0.6,0.6,1,1.51,1c1.61-2.01,0-4.41,0.3-6.62
		C126.47,233.69,127.57,233.19,127.37,232.08z"/> <path d="M132.39,199.37c-1.28,2.14-1.65,3.26-0.24,5.15c0.18,0.18,0.66-0.48,0.24-2.14C132.09,201.48,132.99,200.58,132.39,199.37z
		"/> <path d="M80.52,187.73c2.41,2.51,2.41,2.51,4.72,3.11C83.53,188.44,82.92,188.03,80.52,187.73z"/> <path d="M128.86,225.86c0.32,0.91,0.07,1.31,0.83-2.91C128.6,224.38,128.4,224.56,128.86,225.86z"/> <path d="M131.89,209.31c0.23-0.7,0.37-1.34-0.1-1.91C131.49,208.6,131.49,208.6,131.89,209.31z"/> <path d="M95.97,197.06c0.3,0.6,0.6,0.8,1.2,0.3C96.75,196.82,96.4,196.81,95.97,197.06z"/> <path d="M87.55,207.73c-0.08,0.17,0.39,0.3,0.39-0.03C87.72,207.7,87.61,207.47,87.55,207.73z"/> <path d="M81.3,202.5c-0.11,0.11-0.13,0.08,0.12,0.08C81.01,202.17,81.17,202.48,81.3,202.5z"/> <path d="M95.87,17.36c0.7,0.1,1.2,0.1,1.71,0.2C97.17,17.16,96.77,16.76,95.87,17.36z"/> <path d="M79.11,22.48c-0.31-0.31-0.62-0.49-1.15-0.38C76.73,22.34,77.8,22.29,79.11,22.48z"/> <path d="M81.22,23.18c-0.47-0.74-1.28-0.54-2.02-0.59C79.7,23.25,80.46,23.09,81.22,23.18z"/> <path d="M79.11,22.48l-0.1,0.1C79.29,22.62,79.19,22.58,79.11,22.48z"/> <path d="M81.63,23.52c0.1,0.05,0.9,0.18-0.51-0.24C81.3,23.34,81.45,23.47,81.63,23.52z"/> <path d="M72.68,22.23c-0.37-0.41-0.98-0.3-1.29-0.45C71.67,22.35,73.37,22.98,72.68,22.23z"/> <path d="M145.33,227.77c0.2,0.06,0.31,0,0.4-0.05c0.59-0.29,0.33-0.61,0.11-1.02C145.85,226.56,144.08,227.37,145.33,227.77z"/> <path d="M145.94,222.65c-0.26-0.26-0.08-0.51-0.9-0.1C145.27,222.79,145.17,223.03,145.94,222.65z"/> <path d="M114.33,251.95c0.1,0,0.2,0,0.3,0C114.53,251.95,114.43,251.85,114.33,251.95z"/> <path d="M120.75,256.06l0.05-0.05C120.9,255.91,119.24,254.56,120.75,256.06z"/> <path d="M119.92,255.23c-0.19-0.19-0.41-0.41-0.57-0.57C119.43,254.98,119.64,255.16,119.92,255.23z"/> <path d="M119.91,255.22c0.05,0.05,0.1,0.1,0.14,0.14C120.2,255.21,120.18,255.29,119.91,255.22z"/> <path d="M509.46,423.73c2.61,0.5,3.21,0.5,5.52-0.7C516.18,422.74,516.28,420.32,509.46,423.73z"/> <path d="M509.96,441.99c-0.9,1.71-1.51,3.61-1.61,6.12c1.4-1.91,2.01-3.51,2.51-5.32C510.97,442.2,510.56,441.99,509.96,441.99z"/> <path d="M532.24,417.61c0.3,1.81,0.6,2.81,2.21,3.41C534.14,419.61,534.14,418.41,532.24,417.61z"/> <path d="M495.01,539.52c1.09-0.73,1.55-1.77,1.2-3.31C494.81,537.81,494.81,537.81,495.01,539.52z"/> <path d="M505.95,456.44c0.1-0.6,0.3-1.1,0.6-2.51C505.25,455.34,505.25,455.34,505.95,456.44z"/> <path d="M498.02,529.69c0.45-0.45,0.78-0.81,0.5-1.4C497.52,528.89,497.54,528.9,498.02,529.69z"/> <path d="M525.72,431.4c-0.31-0.16-0.67,0.28-0.2,0.75C525.9,432.54,526.29,431.7,525.72,431.4z"/> <path d="M504.34,462.96c0.42-0.42,0.47-0.82,0-1.2C503.94,462.16,503.94,462.56,504.34,462.96z"/> <path d="M527.62,437.58c0-0.27,0.39,0.08,0-0.7C527.62,437.15,527.23,436.79,527.62,437.58z"/> <path d="M503.74,468.28c-0.1,0-0.2,0-0.2,0C503.22,468.6,503.74,469.25,503.74,468.28z"/> <path d="M572.47,331.62c0.53-0.15,1.12-0.13,1.75-0.45c2.78-1.43,10.91-18.67-2.86-40.29c-0.78-1.22-1.71-2.21-2.11-3.61
		c-1.2-0.1-2.01-1.61-3.21-0.6c0,0.69,0.04,1.04,0.8,2.01c6.84,8.68,10.23,21.52,10.44,30.36
		C577.46,327.03,572.05,329.1,572.47,331.62z"/> <path d="M581.5,229.27c1.28,2,3.41-0.37,3.41,2.51c4.43,2.19,1,0.31,5.42-4.31C588.25,225.39,581.99,228.57,581.5,229.27z"/> <path d="M566.75,258.17c-0.2-1.19-6.01-3.45-8.2-4.96c-3.79-2.6-1.51-6.55-3.64-6.18c-1.09,3.74,1.07,6.81,1.17,6.86
		C559.84,255.82,563.8,258.52,566.75,258.17z"/> <path d="M592.94,225.26c-4.53-4.52-11.16-3.98-12.54-1.2c1.95,1.22,3.46-2.34,8.13,0.5c1.01,0.62,2.35,1.13,3.71,1.81
		C592.54,225.86,592.74,225.56,592.94,225.26z"/> <path d="M543.98,290.22c-0.89,0.86-0.07,0.79,11.54,2.67c0.6,0.4,0.6,1.1,1.51,1c0-2.35-1.76-2.74-12.44-3.81
		C544.37,290.03,544.14,290.06,543.98,290.22z"/> <path d="M629.49,346.22c-0.18-1.45-0.31-2.73-1.93-3.16c-0.88,1.28-0.9,1.29-0.6,2.21c0.69,1.67,1.46,3.33,1.12,5.13
		C628.97,349.51,629.71,349.71,629.49,346.22z"/> <path d="M628.07,350.51c0.05-0.19,0.01-0.08-0.11-0.03c0.07,0.07,0.05,0.05,0.1,0.1C628.07,350.56,628.07,350.53,628.07,350.51z"/> <path d="M552.21,281.75c-0.88,3.28-0.57,4.52,0.6,6.42C553.91,285.66,553.21,283.76,552.21,281.75z"/> <path d="M560.03,287.07c0.85-1.61,0.67-3.04,0.1-4.72C559.56,283.96,559.28,285.41,560.03,287.07z"/> <path d="M676.73,391.82c-0.61-1.84-3.62-2.42-1.1,0.1C675.96,392.36,676.38,392.24,676.73,391.82z"/> <path d="M562.24,313.46c0.5-0.6,0.4-1.3,0.1-1.91C561.44,312.15,561.44,312.15,562.24,313.46z"/> <path d="M561.27,308.81c0.23,0.87,0.55-0.14,0.17-1.27C561.21,307.97,561.15,308.39,561.27,308.81z"/> <path d="M628.26,351.69c0.27-0.44,0.06-0.73-0.2-1C627.56,351.38,627.56,351.38,628.26,351.69z"/> <path d="M678.58,392.42c-0.76,0.21,0.45,1.48,0.45,0.7C679.13,392.92,678.87,392.35,678.58,392.42z"/> <path d="M567.86,258.97c-0.1-0.94-1.78-1.11-0.76-0.09C567.29,259.01,567.63,259.02,567.86,258.97z"/> <path d="M673.7,389.07c-0.3-0.51-0.81,0.24-0.19,0.24c0.25,0,0.4,0.01,0.49,0.01c-0.11,0.1-0.11,0.06,0.03,0.2
		c-0.01-0.07-0.02-0.13-0.02-0.2C674.29,389.34,673.86,389.33,673.7,389.07z"/> <path d="M547.19,266.69c0,0.1,0.1,0.2,0.1,0.3c0.1-0.1,0.1-0.1,0.2-0.1C547.49,266.31,547.29,266.37,547.19,266.69z"/> <path d="M575.18,206.7c0.1-0.1,0.3,0.02,0.3-0.3C575.38,206.5,575.28,206.6,575.18,206.7z"/> <path d="M559.63,292.69c-0.05,0.05-0.1,0.11-0.14,0.17C559.56,292.83,559.63,292.77,559.63,292.69z"/> <path d="M559.43,292.89c0,0,0,0.1,0,0.2C559.43,292.85,559.54,292.89,559.43,292.89z"/> <path d="M674.7,390.12c0.04,0-0.62-0.57-0.65-0.59C674.1,389.88,674.29,390.11,674.7,390.12z"/> <path d="M589.33,415.4c0.69,3.94,2.96,8.01,4.01,12.24C594.32,421.18,591.79,412.3,589.33,415.4z"/> <path d="M592.94,498.18c0.4-0.2,0.7-0.3,1.1-0.5c-0.5-1.91-1.61-3.31-3.11-5.12C590.86,494.9,591.14,496.68,592.94,498.18z"/> <path d="M577.79,503.84c0.48,0.04,0.72-0.48,0.81-1.65C577.12,500.48,575.59,503.47,577.79,503.84z"/> <path d="M587.52,407.27c-1.52-0.23-2.34-0.45-3.21,1C585.72,408.38,586.42,407.88,587.52,407.27z"/> <path d="M589.43,448.51c0.75,0.15,0.64-1,0.3-1C589.04,447.34,588.99,448.51,589.43,448.51z"/> <path d="M591.84,442.49c0-0.4,0-0.6,0-1C591.54,441.89,591.44,442.09,591.84,442.49z"/> <path d="M592.49,437.34c-0.17-0.22-0.15-0.34-0.23,0.65C592.19,438.43,592.73,437.7,592.49,437.34z"/> <path d="M590.33,490.65c0.37-0.37,0.1-0.41,0.1-0.6C590.05,490.43,590.33,490.43,590.33,490.65z"/> <path d="M593.24,432.36c-0.37,0-0.1,0.27-0.1,0.4C593.37,432.76,593.4,432.36,593.24,432.36z"/> <path d="M588.93,483.63c-0.28,0.28-0.31,0.49,0,0.8C589.33,484.23,589.23,483.93,588.93,483.63z"/> <path d="M592.14,438.08l-0.1,0.2C592.29,438.15,592.27,438.21,592.14,438.08z"/> <path d="M511.57,380.18c1.58,0,5.46-0.62,5.46-1.51c-0.01-0.15-0.04-0.35-0.04-0.6C515.08,377.97,513.47,378.78,511.57,380.18z"/> <path d="M469.73,381.99c-0.93,0.47-1.25,1.8-0.28,1.7C469.94,383.63,470.58,382.6,469.73,381.99z"/> <path d="M504.34,381.89c-0.2,0.1-0.2,0.2,0.1,0.3C504.72,382.19,505,381.89,504.34,381.89z"/> <path d="M528.73,360.42c8.73,3.21,15.81,2.45,23.99,0.4c-5.86-1.95-2.36,3.1-20.27-1.51c-4.31-1.11-8.18-4.04-10.08-6.42
		c-1.18-1.48-2.21-0.88-2.07,0C521.32,355.95,525.64,359.28,528.73,360.42z"/> <path d="M490.7,335.33c-1.1,0.3-1.1,0.3-1.2,2.01C490,336.53,491,336.33,490.7,335.33z"/> <path d="M486.69,338.94c-0.04,0.02-0.06,0.04-0.08,0.06C485.79,339.55,487.35,340.25,486.69,338.94z"/> <path d="M431.19,392.52c0,0-0.01,0-0.02,0C431.19,392.53,431.2,392.52,431.19,392.52z"/> <path d="M419.98,395.03c-0.13,0.53,9.39-2.06,11.19-2.5C430.68,392.58,419.98,393.36,419.98,395.03z"/> <path d="M444.04,376.17c-0.88,0.44-4.92,3.75-4.92,4.82C441.09,380.23,445.6,377.21,444.04,376.17z"/> <path d="M427.12,400.52c-0.45,0.36,1.17,0.04,1.9-1.17C428.12,399.35,427.71,399.98,427.12,400.52z"/> <path d="M419.96,395.03c-0.3,0-0.6,0-0.9,0.2C419.46,395.73,419.76,395.53,419.96,395.03z"/> <path d="M429.09,399.25c-0.2,0.3,0.61,0.11,0.7-0.38c0.07-0.38-0.58-0.07-0.6,0.33C429.19,399.39,429.22,399.37,429.09,399.25z"/> <path d="M429.89,398.64l-0.1-0.1C429.83,398.73,429.72,398.64,429.89,398.64z"/> <path d="M437.62,382.39c-0.1,0.1-0.3,0.3-0.13,0.17C437.53,382.53,437.57,382.48,437.62,382.39z"/> <path d="M437.75,382.26c0.08-0.08,0.16-0.16,0.24-0.24C438.72,381.29,437.75,381.94,437.75,382.26z"/> <path d="M437.72,382.49c0-0.08,0.01-0.16,0.03-0.23C437.59,382.42,437.59,382.36,437.72,382.49z"/> <path d="M438.32,381.69l0.1,0.1C438.37,381.6,438.5,381.51,438.32,381.69z"/> <path d="M438.42,381.59c0.19-0.19,0.43-0.43,0.6-0.6C438.66,381.08,438.42,381.23,438.42,381.59z"/> <path d="M762.77,460.02c0.03-0.81-1.2-1.52-1.09-0.11C761.72,460.54,762.72,461.45,762.77,460.02z"/> <path d="M734.52,437.58c-0.2,0-0.4-0.1-0.6-0.1C734.12,437.58,734.02,438.28,734.52,437.58z"/> <path d="M566.85,200.38c-0.07,0.07-0.05,0.05-0.1,0.1C566.91,200.4,566.95,200.52,566.85,200.38z"/> <path d="M549.68,203.77c0.24,0.06,0.27-0.15-1.14-0.64C548.73,203.7,549.08,203.68,549.68,203.77z"/> <path d="M565.85,200.07c0.3,0,0.8,0.18,0.9,0.2C566.55,200.07,566.35,199.57,565.85,200.07z"/> <path d="M548.53,203.13c-0.03-0.17-0.01-0.17-0.11-0.07c-0.43-0.21-1.13-0.65-0.93-0.07C547.49,203.16,548.05,203.03,548.53,203.13
		z"/> <path d="M550.5,204.14c0.26-0.13-0.55-0.12-0.8-0.25C549.98,204.18,550.09,204.35,550.5,204.14z"/> <path d="M540.16,234.49c-0.24-0.24-0.25-0.25-0.3-0.3C540.07,234.4,539.83,234.49,540.16,234.49z"/> <path d="M554.91,218.11c0.11,0.07,0.19,0.19,0.36,0.16C555.45,218.22,555.59,218.26,554.91,218.11z"/> <path d="M551.94,216.62c0.22,0.6,0.79,0.61,1.36,0.61C553.08,216.46,552.44,216.62,551.94,216.62z"/> <path d="M551.93,216.61c-0.01-0.03-0.02-0.05-0.03-0.08C551.79,216.64,551.75,216.66,551.93,216.61z"/> <path d="M553.37,217.34c0.31,0.58,0.87,0.59,1.44,0.59C554.53,217.37,553.99,217.34,553.37,217.34z"/> <path d="M553.21,217.33c0.05,0,0.1,0,0.16,0C553.29,217.21,553.34,217.2,553.21,217.33z"/> <path d="M553.81,193.05c0.7,0.1,1.2,0.2,1.71,0.2C555.12,192.85,554.71,192.55,553.81,193.05z"/> </g> </svg> 