<?xml version="1.0" encoding="utf-8"?> <!-- Generator: Adobe Illustrator 23.0.1, SVG Export Plug-In . SVG Version: 6.00 Build 0)  --> <svg version="1.2" baseProfile="tiny" id="Layer_1" xmlns="http://www.w3.org/2000/svg" xmlns:xlink="http://www.w3.org/1999/xlink" x="0px" y="0px" viewBox="0 0 900 600" xml:space="preserve"> <g> <path d="M421.74,419.37C421.57,419.53,421.97,419.43,421.74,419.37L421.74,419.37z"/> <path d="M800.83,537.1c-1.6-7.94-5.61-8.84-5.11-14.04c0.06-0.66-1.09-2.83-1.62-4.26c-2.23-6.01-3.27,1.74-2.22-12.06
		c0.37-4.83-2.58-3.26-5.07-12.14c-2.05-7.3-5.14-10.95-8.19-16.32c-3.82-6.72-3.56-5.24-7.89-10.32c-1.21-1.42-3.7-5.01-7.94-2.84
		c-0.48,0.24-0.91,0.58-1.27,1c-1.27,1.49-2.97,2.64-4.59,3.8c-3.43,2.46-2.14,3.61-0.82,7.64c2.31,7.06,3.97,10.14,1.55,13.81
		c-4.87,7.39-3.15,10.99-10.79,20.48c-1.69,2.1-3.02,0.92-4.56,4.63c-0.08,0.2-4.1,10.28-4.16,10.48c-1.13,4.23,0.51,3.96-2.68,4.15
		c-36.33,2.19-29.36-0.71-34.07-1.55c-51.73-9.17-48.84-9.06-72.96-10.83c-5.04-6.36-15.21-7.96-21.7-13.22
		c-5.14-4.17-14.98-2.94-21.89-2.13c-7.15,0.83-5.99,0.18-34.86-4.28c-4.24-0.65-2.51,1.55-7.77,0.01c3.07-4.59,5.33-4.91,8.25-6.61
		c2.12-1.23,25.15-17.65,25.19-17.67c2.76-1.3,2.43,0.6,10.46-1.57c34.01-9.2,22.48-7.3,27.38-8.08
		c10.08-1.62,20.83-10.18,28.36-17.02c3.47-3.15,11.35-9.38,14.61-12.75c25.74-26.63,21.97-25.67,30.28-31.98
		c6.27-4.76,12.95-8.99,18.89-14.19c0.34-0.29,0.55-0.4,1.16-0.79c10.04-6.33,5.94-4.26,13.2-6.03c5.51-1.34,8.46-2.23,11.33-3.83
		c4.62-2.59,17.39-13.63,22.15-13.02c0.74,0.09,1.84-0.92,1.85-1.36c0.07-2.28,0.85-4.57-0.61-6.78c-3.67-5.56-5.31-9.69-10.2-14.75
		c-10.27-10.63-15.9-10.92-17.73-15.92c1.62-1.85,2.47-5.43,0.59-6.67c-7.33-4.84-4.13-1.33-7.27-8.25
		c-1.75-3.85-3.45-7.8-6.41-10.87c-4.09-4.23-8.62-8-13.93-10.68c-4.57-2.31-4.64-3.39-7.44-3.83c-6.24-1-7.61-4.08-12.99,6.25
		c-1.5,2.88,0.13,3.57,3.68,10.06c8.15,14.88,6.77,11.8,7.52,21.79C326.85,448.48,390.23,429.22,373.6,428.58
		c-30.66-1.19-29.46-1.72-38.87-3.59c-4.17-0.83-3.44,1.32-9.9,1.82c-3.8,0.29,1.84,5.42-0.3,7.93c-11.35,1.58-11.83-0.5-16.82,2.76
		c-6.36,4.16-10.23,5.02,0.28,13.34c1.58,1.25,2.79,2.77,3.77,4.42c-5.35,9.73-5.86,6.73,1.06,22.15c0.19,0.42,2.89,6.88,1.63,6.44
		c-1.33-0.45-2.71-0.81-3.95-1.45c-5.8-3-23.13-2.54-29.65,3.45c-6.41,5.89-13.84,12.87-18.53,20.21
		c-0.38,0.59,0.87-0.72-18.85,20.99c-3.01,3.32-3.72,4.26-5.41,4.08c-8.59-0.92-11.58-2.61-17.31-3.11
		c-1.54-0.13-1.89-1.58-1.08-2.9c1.21-1.97,1.25-3.3,1.55-8.91c0.2-3.82-0.05-7.53-2.77-10.67c-2.51-0.92-5.08-0.3-7.41-0.18
		c-4.72-2.7-3.57-2.61-7.37-0.97c-1.48-1.69-2.23-3.04-4.45-2.07c-3.86,1.67-3.46-1.34-5.29-5.46c-2.26-5.09-12.87,9.71-23.34,5.04
		c-2.67-1.19-3.91-0.3-9.66,0.6c-7.74,1.2-11.56,3.65-15.04,4.79c-2.42,0.79-4.49,2.12-6.02,4.1c-4.36,5.61-5.42,5.66-6.82,9.75
		c-3.63,10.6-4.93,12.4-3.65,15.48c0.23,0.55,0.6,11.87,3.18,20.52c3.7,12.4,7.91,10.89,2.49,10.98
		c-6.54,0.11-12.05,2.19-16.39,6.95c-0.61-0.1-2.42-1.08-6.65,0.9c-10.86,5.09-12.41,6.09-13.78,7.68
		c-5.6,6.5,13.07,6.42,20.37,4.63c0.1,0-5.8-1.14-8.78-1.01c-7.27,0.32-9.46-3.41,5.96-8.61c1.12,6.51,2.85,3.75,1.98,6.77
		c3.19,3.21,21.36,3.13,25.28,3.77c18.67,3.05,22.24,0.45,32.68,1.05c19.04,1.09,14.58,1.36,18.98,0.97
		c2.22-0.2,3.71,1.31,3.55,2.03c-0.36,1.64-1.51,1.55-3.7,1.78c-7.9,0.85-7.98,0.72-8.35,0.99c-0.53,0.4-0.03,0.99,0.37,0.95
		c29.72-2.95,21.26-2.53,26.01-1.07c3.96,1.21,16.56,3.41,16.71-2.19c0.19-7.13-11.14-11.31-11.43-10.8
		c0.01-0.09-0.58-0.39-1.51-1.11c6.83-0.88,20.84,8.47,15.39,14.65c-1.26,1.42,1.01,0.27-4.08,2.67c4.54,0.63,7.83-1.4,11.52-2.55
		c0.57,2.23,0.44,1.23,0.48,3.43c2.04-0.91,2.03-0.89,2.14-5.58c-3.08-6.57-2.78-5.83-3.32-6.34c0.29,0.03,0.46,0.2,0.52,0.49
		c0.32,0.32,0.37,0.05,0.66,0.05c2.16-0.58,0.59-2.74-0.97-4.67c-1.27-1.57-2.49-2.14-2.53-2.38c0.04,0,0.04-0.02,0.04-0.04
		c0.13,0.15,0.22,0.22,0.25,0.21c1.18-0.16,2.15-0.01,3.23,0.42c3.71,1.85,0.6,1.85,7.87,4.23c12.48,4.08,14.49,6.85,42.82,7.03
		c0.5,0,2.62-0.32,3.39-0.78c3.23-1.92,26.05,1.92,49.5,1.68c8.23-0.08,8.81-1.46,13.35-2.67c2.12-0.57,4.12-0.93,5.52-2.7
		c0.46-0.58,0.83-0.33,3.36-1.87c8.4-5.11,2.42-8.31,3-11.43c0.28-1.5-0.23-2.74-0.57-4.08c-1.32-5.2,0.49-4.78,15.39-4.74
		c35.89,26.32,55.26,8,69.13,4.13c6.62,2.83,10.58-3.62,14.97-3.95c3.75-0.28,6.59-2.11,11.2-4.07c11.62-4.94,15.52-2.81,18.78-2.8
		c34,0.09,42.56-2.33,64.21-5.23c44.33-5.94,25.33-6.59,35.16-4.37c6.82,1.54,8.4,1.32,13.56,3.67c16.03,7.33,17.5,5.94,26.1,9.55
		c31.37,13.19,68.35-1.62,119.92-5.06c0.19,1.15,0.28,3.92,1.84,4.92c7.94,5.06,7.34,1.37,19.73,2.05
		c20.07,1.11,16.39,3.28,21.93,0.93C804.12,545.67,803.11,548.45,800.83,537.1z M102.49,586.57c-1.53,0.63-4.87-0.77-1.09-2.86
		C102.58,584.41,103.08,585.18,102.49,586.57z M727.03,334.47c0.4,0.46,1.23,0.73,1.87,0.72c0.45-0.01,0.89-0.61,1.52-1.08
		c9.81,7.19,13,10.74,17.43,17.88c0.7,1.13,4.43,8.06,4.3,9.47c-0.09,0.97,1.11-0.78-7.8,4.4c-8.97,5.21-7.45,6.75-19.88,12.44
		c-0.3,0.14-0.77,0.26-1.02,0.13c-2.1-1.09-4.12,0.08-6.09,0.26c-0.72-0.75-0.6-1.42-0.14-2.33c3.24-6.4,2.9-7.04,1.07-15.56
		c-1.48-6.91-4.92-7.51-7.97-8.16c-13.41-2.88-7.67-0.92-14.07-1.76c-0.31-2.31,0.74-4.4,1.09-6.37c6.39-2.74,4.06-1.41,8.71-5.42
		c-2.67-1.66-5.23-0.38-7.93-0.4c-0.15-0.89-0.29-1.76-0.45-2.67c2.63-1.77,5.67-1.84,8.39-2.81
		C728.67,325.09,719.84,326.36,727.03,334.47z M681.71,294.97c0.92-2.89,2.81-4.68,5.36-5.91c4.47-2.16,17.44,8.91,21.31,12.16
		c7.21,6.06,3.5-1.69,11.95,19.06c-4.87,1.93-10,3.36-14.63,5.02c-5.24-2.52-6.64-2.35-12.24-0.86c1.88-2.65,5.9-1.06,7.9-4
		c-2.63-2.36-5.63-0.62-8.78-1.05c2.52-2.86,6.6-1.9,6.08-4.31c-1.78-0.98-3.88-0.02-5.98-0.07
		C680.58,293.4,682.44,296.81,681.71,294.97z M695.37,328.58c-0.46,0.18-0.25,0.13-0.57-0.08
		C695.26,328.32,695.08,328.41,695.37,328.58z M406.86,424.21c0.41,0,0.13-0.58,2.02-0.58c0.1-0.14,0.05-0.11,0.24-0.11
		c0.71-0.91,1.98-0.38,2.12-0.6c0.35-0.09,0.08-0.7,1.2-0.7c1.5,0,0.73-0.7,2.17-0.7c1.49,0,0.79-0.8,2.29-0.69
		c0.22,0,0.51,0.06,0.61,0.06c0.79-0.79,0.24-0.77,1.96-0.77c0.29,0,0.55-0.94,1.77-0.8c0.26,0,0.41,0.02,0.49,0.04
		c0.27-0.26,2.04-1.18,10.4-4.03c273.01-93.11,260.32-90.13,259.19-85.57c-1.82,1.22-272.66,90.89-272.76,90.9
		c-1.41,0-0.92,0.81-2.98,0.7c-0.1,0.15-0.03,0.06-0.21,0.1c-0.33,0.33-0.4,0.6-1.32,0.6c-1.39,0-0.81,0.71-1.88,0.71
		c-0.01,0-0.51,0.05-0.72,0.09c-0.04,0.14-0.05,0.09-0.2,0.09c-0.71,0.71-2.3,0.44-2.3,0.65c-0.68,0.95-1.56,0.19-2.26,0.89
		c-0.47,0.47-1.42,0.21-2.04,0.73c-0.04,0-0.32,0.3-1.12,0.31c-0.05,0-0.23-0.01-0.42,0.01c0.91-0.28,1.55-0.46,1.67-0.46
		C405.87,424,406.72,424.56,406.86,424.21z M402.54,425.72c-0.45,0.61-1,0.41-1.7,0.54C401.45,426.07,402.02,425.88,402.54,425.72z
		 M400.43,426.4c-0.33,0.33-0.4,0.5-1.39,0.52c-0.02,0-0.72,0.2-0.72,0.21c-0.44,0.57-1.11,0.48-1.59,0.5
		C397.83,427.26,399.16,426.81,400.43,426.4z M396.22,427.81c-0.32,0.18-0.02,0.3-1.19,0.53c-0.12,0-0.48,0.17-0.58,0.21
		C393.81,428.69,394.72,428.34,396.22,427.81z M391.61,429.49c-0.14,0.19,0.01,0.13-0.37,0.09
		C391.33,429.42,391.27,429.42,391.61,429.49z M389.49,430.29l-0.31,0.02C389.25,430.1,389.17,430.11,389.49,430.29z M387.28,430.88
		c-0.01,0.17,0.06,0.15-0.28,0.04L387.28,430.88z M723.26,322.67c-0.07,0.79-0.11,1.22-0.15,1.77
		C359.62,444.8,366.8,442.88,366.26,441.8C366.26,440.2,721.64,322.63,723.26,322.67z M373.16,449.66c2.43-2.68,2.75-2.58,8.94-6.78
		c0.11-0.93,0.2-1.72,0.3-2.52c0.77-0.74,302.16-100.7,310-102.83c0.87,0.29,1.1,1.11,1.1,2.01c0,0.64,0.02,10.05-0.41,10.8
		c-1.15,1.98-0.3,3.3,1.68,4.44c-12.31,9.69-13.68,14.78-17.75,15.21c-1.07,0.11-0.86,0.09-16.67,11.12
		c-9,6.27-5.09,1.34-32.77,16.17c-7.91,4.24-15.88,10.48-19.51,11.92c-2.84,1.13-17.52,18.39-26.34,20.08
		c-16.69,3.2-29.52,3.1-40.82,11.82c-2.57,1.98-13.99,7.38-19.68,8.38c-6.6-3.98-39.63,7.39-47.12,10.57
		c-17.47,7.4-53.02,30.05-55.6,33.84c-10.92,2.88-50.21-4.61-55.1-2.91c-3.37,1.17-6.76,0.37-10.14,0.35
		c-1.9-0.01,0.86-1.07-8.53-1.43c-1.05-0.04-2.09-0.19-3.32-0.3c-2.58-6.92-2.87-6.28-0.4-7.98c1.58,1.33,2.99,3.02,5.6,3.01
		c6.54-2.18,4.18-6.51,6.64-10.84C359.15,473.45,360.57,463.58,373.16,449.66z M354.87,471.06c0.3-1.77-0.12-0.89,9.81-20.71
		c0.61-1.22,1.05-2.26,2.29-3c0.7-0.42,0.91-1.5,1.45-2.44c3.39-1.57,15.71-5.73,8.63-1.5c-3.61,2.16-3.78,3.39-5.91,5.45
		C363.13,456.6,357.57,467.68,354.87,471.06z M335.27,428.28c7.89,1.28,8.64,1.76,9.89,0.56c0.63-0.61,6.48,0.71,16.72,1.55
		c10.04,0.82,12.51-0.33,14.63,1.04c0,4.18,2.11,2.46-11.52,7.15c-1.14-1.79-0.99-2.55-8.44-2.51c-5.36,0.03-4.49-1.82-8.5-1.35
		c-7.34,0.86-6.03-3.94-11.34-1.34c-1.99,0.98-0.19-0.07-6.83,0.39c-2.09,0.15-2.07,1.01-2.87-4.07
		C334.51,427.71,333.18,427.94,335.27,428.28z M311.32,449.67c-4.34-3.84-5.54-4.39-6.35-6.18c6.41-4.59,6.32-4.62,6.67-4.65
		c3.91-0.35,7.66-1.88,11.72-1.28c10.24,1.51,10.49-2.92,38.66,1.93c1.19,1.85,1.66,4.16,2.47,6.52c-3.76,3.55-4.73,7.39-6.94,11.64
		c-13.36,25.7-9.39,17.56-10.1,21.67c-0.28,1.62-3.07,2.35-4.31-0.2c3.96-6.81,0.99-4.16,4.28-10.03
		c16.44-29.28,12.64-24.03,9.34-27.33c-1.63-1.62-3.64-2.02-5.83-2c-2.82,0.02-5.65-0.13-8.46,0.06
		c-19.15,1.3-20.99-0.43-24.91,1.85c1.65,1.57,0.82,3.62,1.65,5.18C314.58,454.81,314.66,452.63,311.32,449.67z M343.78,451.29
		c0.74-0.73,1.48-1.46,2.38-2.35c2.78,3.21,0.31,2.59,3.39,4.39c0.9-2.03,0.6-3.84-0.67-5.11c-1.39-1.38-1.61-2.94-1.87-4.65
		c1.25-0.52,2.34-0.48,3.62-0.06c0.88,2.73,1.78,5.49,2.73,8.45c-0.77,1.76-1.63,3.64-3.18,5.35c-2.54-5.41-5.98-2.38-8.62-3.9
		C341.84,452.13,343.08,451.99,343.78,451.29z M338.55,451.78c-4.24-3.46-4.02-2.49,1.02-8.39c5.66,0,4.56-0.48,5.28,1.86
		C345.37,446.91,340.65,449.88,338.55,451.78z M353.08,443.45c1.76-0.4,3.06-0.2,4.03,1.3c-0.26,1.71-1.29,2.63-1.89,3.94
		C354.04,448.77,354.28,448.44,353.08,443.45z M335.33,443.29c-1.09,2.33-2.04,4.38-2.97,6.39c-0.88,0.22-1.26-0.3-1.57-1.09
		c-0.93-2.39,0.98-2.35-3.02-4.45C325.68,443.05,333.38,443.27,335.33,443.29z M134.86,552.27c-1.16-5.3-5.43-21.74-0.92-28.37
		c-0.83-4.17,10.3-14.05,4.58-6.65c-5.5,7.12-4.63,6.48-4.32,7.69c5.42-6.6,3.68-5,3.68-3.79c-0.7,4.2-4.61,7.37-2.89,17.22
		c0.81-10.06,5.38-19.28,12.37-24.86c-1.21-3.23-0.09,0.07,1.28-4.75c4.35-1.65,8.79-3.1,13.51-3.59c7.38-0.77,6.29-2.59,8.44-1.24
		c2.99,1.87,6.07,1.58,9.13,0.28c4.22-1.78,8.24-3.94,11.76-7.07c1.94,1.19,1.72,3.22,2.19,5.44c0.32,1.5,0.89,3.03,0.44,4.55
		c0.98,0.67,1.37-0.33,1.88-1.48c0.48-1.08,0.08-1.25,3.17-1.65c3.38-0.43,3.05,1.89,3.45,5.89c0.23,2.29,2.37,2.13,2.36,0.29
		c-0.01-1-0.61-1.73-0.9-2.54c-0.78-2.19,1.88-3.59,5.23-0.97c2.89,2.26,3.07-0.36,8.73,1.17c1.22,1.36,1.5,2.96,1,9.33
		c-1.01,12.74-4.62,12.06,8.72,15.02c13.29,2.95,11.12,0.27,6.5,8.8c-0.21,0.39-0.1,0.9-0.1,1.62c2.1-0.31,2.66-2.98,4.95-4.12
		c2.31-7.79,18.32-16.65,32.23-38.23c3.22-4.99,12.66-14.18,17.19-15.12c4.49-0.93,6.76-1.07,14.36-1.46
		c6.2-0.32,6.12,1.24,6.56,2.25c-2.12,0.49-1.2,0.03-3.19,1.48c7.29,4.55,5.88,3.38,11.04,13.59c0.9,0.08,1.86,0.06,2.07,0.63
		c3.77,10.21,3.04,37.49,3.86,40.54c0.63,2.32,0.06,4.39-0.98,6.43c-1,1.97-1.73,4.1-3.16,6.08c-10.62-4.29-21.78-5.9-33.1-7.57
		c-4.05-5.21-9.7-8.7-14.77-12.86c-2.57-2.11-5.7-3.27-8.71-4.57c-1.21-0.53-2.47-0.51-3.75,0.07c-3.02,1.37-10.38-0.56-18.56,8.1
		c-0.23,0.24-0.71,0.46-1.05,0.63c-0.03,0.14-0.01,0.1-0.13,0.14c-2.76,6.44-1.3,1.61-6.69,6.93c-2.17,2.15-3.45,4.7-3.93,7.71
		c-0.85,5.31-2.03,3.53-0.76,12.28c-2.19,1.34,0.71-1.61-21.15,0.83c-5.35,0.6-7.29,2.43-13.28,7.35c-3.41,2.8-9.36,4.56-11.22,4.33
		c-0.12-0.79,0.04-0.71-0.73-0.01c0-0.17-2.6,1.48-8.26,1.64c-7.4,0.21-6.98,2.75-13.77,0.36c5.21-4.03,11.6,0.89,21.25-17.56
		c-1.49-0.18-1.51,1.22-2.05,1.84c-0.57,0.57-4.5,6.3-7.13,7.14c1.77-3.54,2.93-6.35,2.87-8.65c0.01,0.01,0.03-0.03,0.09-0.11
		l-0.09-0.09c0,0.1-0.01,0.16,0,0.18c-3.08,4.31-3.99,6.61-7.48,10.12c-1.77,1.78-1.53,0.21-1.88,1.37
		c-0.1-0.07-0.19-0.19-0.19-0.29c0-0.01,0.01-0.02,0.01-0.02c1.11-1.11,0.34-0.47,1.01-1.69c4.66-8.5,3.83-6.61,4.24-8.89
		c-2.58,2.27-2.49,4.71-10.23,14.54c-1.04,1.32-2.08,2.64-2.44,4.34c-0.92,0.03-1.81-0.08-2.6-0.61c0.65,0,0.8-0.43,0.71-1.07
		c-6.06-3.8-7.37-3.75-14.49-23.38c-6.2-17.09-2-1.68,4.48,15.53C137.37,565.61,135.77,556.43,134.86,552.27z M324.17,550.19
		c0.07,2.42-0.39,4.33-0.84,6.44c-1.02,0.25-1.46-0.16-1.8-0.98C324.57,548.09,324.12,548.72,324.17,550.19z M181.81,578.14
		c-0.22,0.32-0.38,0.22-0.56,0C181.44,578.14,181.62,578.14,181.81,578.14z M130.98,586.46c-0.8,0.05-5.1-0.21-7.08-1.64
		c-5.42-3.9-6.73-4.58-2.96-7.64C125.61,584.81,136.3,586.11,130.98,586.46z M137.35,585.2c-0.28-0.21-0.89-0.03-1.65-0.26
		c-3.6-1.12-11.62-4.42-12.91-7.88c0.05-1.32,1.74-0.6,2.03-1.86c-0.27-0.42-0.63-0.98-1.06-1.66c9.21-4.04,8.27-2.91,12.36-2.91
		c-3.5,0.86-6.77,1.68-9.2,4.22c-0.22,0.23-0.52,0.5-0.57,0.88c-0.3,2.47,2.68-2.32,8.23-3.16c0.89-0.13,5.81-1.25,5.95-0.28
		c0.07,0.49-0.28,0.64-0.67,0.78c-0.99,0.35-1.96,0.85-2.98,1.04c-2.59,0.5-4.75,3.74-4.75,5.54c0,2.65,2.74,3.66,3.68,4.29
		c0.37,0.25,1.35,1.2,1.62,1.2C137.67,585.38,137.58,585.27,137.35,585.2z M208.82,592.85c-0.97,0.56-7.36,1.29-8.63,1.42
		c-0.23-5.26-2.04-4.87-30.46-7.74c-10.26-1.03-20.6,0.2-29.23-0.73c0.76-0.61,1.21-0.97,1.77-1.42c-0.57-0.66-4.55-1.51-6.22-2.33
		c-4.2-2.04,0.07-7.31,6.68-7.6c1.63,2.27,4.63,2.78,6.68,4.75c0.9,0.87,3.91,1.05,4.84,2.36c-5.14,0.05-9.94-1.32-14.81-4.1
		c0.33,0.77,0.37,1.17,0.58,1.32c7.02,5.07,15.97,4.83,16.67,4.13c0.93-0.93-0.21-0.49,3.55,0.15c1.41,0.24,2.7,1.14,3.91-0.31
		c0.54-0.65,9.6,1.56,11.81,0.68c1.73-0.69,1.43-0.52,21.48,1.81c-1.04,1.25-6.55,0.37-8.41,1.17c10.96,0.41,17.15-0.27,20.3,4.31
		C209.81,591.44,209.55,592.43,208.82,592.85z M212.37,588.11c2.78-0.49,5.26,0.06,7.51,1.66c-1.65,1.58-3.78,1.63-6.01,2.13
		C213.31,590.5,212.93,589.51,212.37,588.11z M217.87,582.91c-0.02,0.03,0,0.07,0.06,0.13c-1.3,0,4.65,1.64,8.33,6.52
		c1.45,1.93,2.52,5.13,0.29,5.73c-4.17,1.12-16.53-0.22-11.84-1.47c3.59-0.95,4.77-0.9,6.57-2.3c1.93-1.5,0.31-3.66-1.96-4.2
		c-5.86-1.38-9.19-0.72-13.36-2.68c-1.55-0.73-3.34-0.95-5.34-1.49c0.48-0.34,0.69-0.64,0.91-0.65
		C213.82,581.92,217.83,583.13,217.87,582.91z M238.33,587.97c0.16,0.16,0.19,0.1-0.1,0.1
		C238.16,587.71,238.12,587.73,238.33,587.97z M238.68,594.26c-0.75,1.25-3.42,2.06-3.46,1.93c-0.6-1.85,1.23-4.36-2.96-9.24
		c-0.99-1.16-2.42-1.73-3.04-3.19c-1.4,0-1.68-0.72-2.2-1.5c-0.63,0.09-1.1,0.11-1.32-0.61c-3.85,0-3.46-3.29-20.44-2.04
		c0.07,1.64,0.24,1.31-0.5,1.43c-5.56,0.85-6.77,0.31-8.58,1.65c-0.44,0.32-0.86,0.17-10.92-0.63c1.07-0.97-0.38-0.15,7.37-4.55
		c2.24-1.27,3.1-1.48,22.51,0.68c7.21,0.8,10.41,3.39,10.51,3.39c0.08,0.23,0.92-0.21,1.36,0.69c0.22-0.05,0.04,0.09,0.21,0.09
		c1.16,0.15,1.56,0.54,2,1.42C230.83,583.64,236.14,588.08,238.68,594.26z M218.56,575.9c-22.23-2.85-17.78-0.72-20.83-1.9
		c1.67-2.33,5.95-4.64,9.73-4.66c10.54-0.08,12.55-1.63,21.42-0.3c3.45,6.9,6.22,11.14,7.21,12.34
		C234.95,580.53,227.31,577.02,218.56,575.9z M345.69,590.71c-25.94,0.2-21.96,0.27-32.06-0.81c-5.17-0.55-34.99-2.94-38.67,0.78
		c-11.05-1.84-24.66-5.43-34.7-10.6c-3.98-2.05-8.67-12.08-10-18.02c-0.93-4.15,0.24-3.34,1.73-8.71c0.97-3.5,2.6-4.89,3.29-5.76
		c3.49-4.39,1.38-3.52,11.63-9.35c4.96-2.82,8.78-2.77,17.19-2.45c2.64,0.1,5,0.9,7.1,2.69c5.1,4.35,7.05,5.32,9.46,7.81
		c-2.56-0.05-4.02-2.07-6.12-2.32c-0.03,3.23,3.79,3.32-4.5,1.41c-2.91,4.3,24.52,4.57,53.45,14.21c1.48,3.16,1.74,7.13,5.56,8.81
		c1.64-1.67-4.58-9.61-2.58-17.08c1.01-3.77-1.3-35.82-1.62-39.76c-0.51-6.4-2.34-10.16-5.27-18.23c-1-2.76-0.27-7.47-2.67-12.95
		c-0.39-0.9,0.59-1.74-0.23-2.6c-0.54-0.56-2.26-4.39-2.38-4.65c-3.29-7.37-4.3-8.58-2.86-11.12c6.36-11.24,5.7-5.78,9.86-13.12
		c0.69-1.21,1.64-1.94,2.95-2.72c1.07,0.09,2.34,0.2,3.76,0.32c1.01,5.09,1.46,6.28,6.69,5.51c2.03,1.31,1.37,2.48,5.33,3.75
		c4.67,1.5,3.07,0.94,4.8,0.66c1.56-0.26,2.43,0.31,2.74,1.89c1,5.06,0.31,1.33-4.35,13.33c-1.59,4.09-3.42,8.01-7.24,10.7
		c-0.61-0.08-1.38-0.18-2.34-0.3c-1.67,5.9,0.93,9.45,2.09,6.58c0.13-0.32,0.14-0.7,0.27-1.02c0.12-0.29,0.34-0.54,0.56-0.87
		c13,34.45,6.78,10.83,22.84,55.23c8.59,23.75,1.7,24.39,8.11,40.53C363.43,585.76,352.44,590.66,345.69,590.71z M455.25,564.82
		c-2.41,1.98-5.02,3.41-8.03,4.16c-9.84,2.46-16.12,8.33-35.3,6.18c-14.36-1.61-20.87-6.62-28.59-11.55
		c-6.33-0.1-9.65-0.13-15.33,0.51c-2.89-10.26,2.96-1.54-13.84-45.27c-5.49-14.28-6.2-15.39-7.96-16.66
		c-2.76-1.99-1.78-6.52-1.56-9.33c3.85-1.22,7.25,1.78,20.63,1.16c8.41-0.39,16.49,3.74,37.44,3.77c0.71,0,1.54,0.25,2.09-0.03
		c2.65-1.35,5.26-0.09,7.87-0.18c0.08,1.65-2.03,1.48-2.08,2.87c-0.02-0.01-0.04-0.02-0.06-0.02c0.05,0.05,0.08,0.09,0.08,0.02
		c6.96,1.72,1.69-3.87,53.69-30.48c17.82-9.12,31.99-12.12,49.38-17.62c4.81-1.52,7.35,1.02,16.16-2.75
		c20.66-8.85,16.35-6.38,18.89-9.4c0.76-0.9,7.83-3.07,14.03-3.25c16.26-0.47,27.17-6.63,38.75-17.63
		c5.56-5.29,7.81-5.49,15.58-10.85c19.94-13.74,19.64-8.4,62.56-34.58c3.01-1.84,2.52-1.14,16.65-15.15
		c1.31-1.3,1.25-1.27,1.81-3.68c1.25-0.56,2.18,0.56,3.61,0.73c3.51-1.61,10.49-0.69,12.07,2.83c1.28,2.87,1.91,6.46,2.26,9.55
		c0.78,6.98-3.7,6.75-4.61,12.43c-13.07,9.24,1.47-2.78-24.8,19.21c-1.85,1.55-4.4,2.08-10.09,7.78
		c-12.39,12.42-40.01,49.26-63.05,53.85c-6.52,1.3-9.08,2.19-31.35,8.19c-5.18,1.4-5.01-1.6-8.19,0.48
		c-3.89,2.53-21.02,16.87-22.06,17.8c-1.61,1.43-2.41,1.12-2.22,1.32c-0.12,0-0.32,0.22-0.08-0.07h0.01
		c-5.22-5.91-35.63,41.1-71.02,58.8c-3.07,1.77-5.72,2.52-5.56,5.23C465.32,557.84,462.49,558.88,455.25,564.82z M655.7,565.31
		c-17.41-1.29-21.49-7.85-29.26-8.46c-1.94-0.15-14.23-5.6-16-6.38c-1.76-0.78-3.24-0.92-12.72-2.21
		c15.86-6.42-7.96-0.32-57.07,5.61c-18.87,2.28-39.3-1.15-61.41,3.78c-0.77-0.75-1.42-1.39-2.03-1.99
		c-1.05,0.46-0.82,1.28-1.02,2.31c-0.15,0.8-0.12,0.76-3.87,2.43c-13.45,5.96-10.01,5.65-13.01,5.65c-0.45,0.45-0.12,0.68-0.6,0.35
		c0.16-0.09,0.44-0.22,0.73-0.52c5.38-5.53,15.12-8.95,14.93-12.6c2.15-1.96,2.6,0.18,23.01-13.06
		c16.24-10.54,25.78-21.55,39.86-36.16c4.18-4.34,32.03,2.33,48.79,2.06c5.58-0.09,14.02-1.6,18.59,1.77
		c8.54,6.3,12.13,6.85,20.06,12.41c1.7,1.19,3.49,1.89,5.58,1.83c1.08-0.03,29.33,2.35,31.19,2.86c8.89,2.45,21.34,5.1,31.86,5.75
		c7.47,0.46,9.09,3.28,22.55,3.54c31.9,0.62,30.08-0.29,31.64,0.45c6.41,3.04,12.28,5.44,14.32,11.4c1.25,3.65-0.51,5.48-2.88,9.06
		C706.69,560.12,694.83,568.21,655.7,565.31z M797.75,563.3c-0.2,1.22-1.02,1.5-1.26,1.39c-3.46-1.54-24.88-3.5-29.32-1.92
		c-2.5,0.89-3.51,0-7.45-1.71c0.13-0.44,0.1-1.32,0.45-1.67c1.99-1.99,4.86-8.76,4.9-8.86c1.6-4.09-2.8-10.61-6.91-13.35
		c-2.56-1.71-7.25-3.94-10.34-5.27c-5.55-2.39-5.16-0.1-7.51-2.79c1.54-2.37,3.06-4.69,4.69-7.21c4.85,1.32,10.3,4.36,12.9,5.2
		c2.29,0.74,4.47-2.29-1.07-4.35c-11.58-4.3-10.91-3.1-9.55-5.82c0.47-0.95,1.36-2.09,2.58-3.07c6.57,2.06,8.48,2.82,10.71,3.04
		c2.27,0.22,2.9-2.55,1.4-3.64c-2.33-1.69-3.7-1.75-9.28-3.3c2.95-4.04,1.42-3.45,6.07-1.81c2.01,0.71,4.41,1.65,5.28-0.57
		c1.14-2.9-3.56-3.58-6.75-4.43c-0.21-1.55,1.26-0.39,4.53,0.21c3.43,0.63,4.27-3,1.09-4.17c-4.44-1.63-3.98-0.31-3.36-3.34
		c1.72-0.2,3.33-0.07,3.84-1.34c0.52-1.29-0.66-2.35-1.26-3.09c0.8-3.7,2.07-6.16-0.63-7.74c-0.54-0.32-0.46-0.33-2.79-10.3
		c6.36-5.43,7.2-5.45,8.47-3.93c2.7,3.26,5.36,6.54,7.21,10.4c3.11,6.45,5.79,8.36,8.18,16.71c2.48,8.65,4.82,6.98,5.07,11.45
		c1.23,22.36,2.65,7.1,4.23,18.6c0.5,3.61,4.23,5.47,5.41,13.62C798.12,545.94,800.28,547.57,797.75,563.3z"/> <path d="M99.46,243.36c3.4,1.13,6.27,0.86,13.66,0.83c3.26-0.02,5.05-1.05,5.23-1.05c-11.87-1.43-14.9-0.38-13.97-3.24
		c0.67-2.07,1.99-2.34,9.8-5.73c0.49-0.21,1.05-0.24,1.58-0.35c1.5,6.89,2.95,3.21,1.98,6.57c1.88,2.39,15.09,3.27,18.15,3.29
		c9.08,0.06,16.39,3.26,31.96,1.65c5.2-0.54,6.05-0.1,24.61,1.05c0.91,0.06,2.6-0.36,4.5,0.31c1.61,0.57,1.46,1.43,0.52,3.04
		c-11.47,1.19-11.74,0.8-11.39,2.29c7.35,0,23.01-2.78,24.39-1.94c3.27,1.97,10.55,2.45,15.21,1.96c2.91-0.31,4.11-2.01,3.41-4.93
		c-1.74-7.27-13.02-9.99-13.35-10.33c10.48,0.25,22.14,9.85,15.12,15.84c-1.49,0.59-1.49,0.59-2.55,1.68
		c2.31,0-0.48,0.66,10.72-2.49c1.17,0.66-0.03,2.19,1.13,3.29c2.27-1.71,1.31-4.18,1.6-5.94c-4.01-7.38-1.72-4.62-3.5-6.18
		l0.02-0.02c-0.01-0.03-0.04-0.07-0.07-0.11c-0.1-0.2,0.88,0.66,0.92,0.78c1.76,0.09,1.43,0.29,1.43-0.44c0-0.6,0.04-1.3-0.22-1.79
		c-0.57-1.07-3.55-4.85-4.12-4.85c-0.07-0.11-8.16-4.61-18.97-5.79c-6.4-0.7-12.79-1.61-19.17-1.4c-0.2-0.31-0.25-0.57-0.2-0.76
		c0.16-0.66,5.07-4.3,9.66-4.27c6.44,0.04,10.17-0.92,21.08-0.47c9.32,17.77,6.99,10.46,12.45,14.18c0.82,0.56,1.37,0.92,2.5,2.14
		c7.28,2.22,9.49,3.36,13.65,4.59c14.23,4.22,34.55,4.03,35.57,3.27c4.28-3.2,47.78,3.91,58.49,0.37c9.96-3.29,9.23-2.74,9.36-2.99
		c1.05-2.12,3.49-2.17,5.06-3.49c1.07-0.9,2.14-1.82,3.2-2.73c2.8-2.41-0.69-6.37-0.69-8.61c7.67-2.43,14.79-0.08,21.1,0.14
		c6.63,0.23,3.44,1.99,7.31,0.85c4.02,2.28,6.93,3.87,12.29,5.25c10.92,2.81,33.45,1.62,46.53-5.04c3.78-1.92,3.41-0.34,12.41-3.8
		c12.25-4.72,19.22-11.56,18.26-11.2c3.4,0,7.84-1.11,10.65-0.21c1.65,0.52,2.19-0.47,2.51-2.43c9.05,2,23.57,1.45,27.74,0.76
		c38.39-6.32,50.51-5.82,66.1-10.56c4.84,1.73,2.65,0.96,7.04,1.87c12.87,2.68,14.45,6.38,27.19,9.52c10.93,2.69,15.52,7.44,30.52,8
		c7.99,0.3,15.99,0.47,23.96-0.55c1.97-0.25,4.02,0.03,5.98-0.26c13.57-2.01,60.72-10.07,68.3-9.06c1.02,4.38,1.07,4.31,5.22,6.47
		c1.88,0.98,3.82,1.38,5.79,0.88c6.32-1.62,14.59,0.07,21.42,0.42c10.38,0.54,3.45,2.43,11.32-0.01
		c4.67-25.91,2.54-17.82,1.34-27.22c-1.2-9.4-5.24-10.18-5.45-15.05c-0.08-1.78-1.16-4.43-1.84-6c-1.06-2.45-0.65-1.74-2.66-2.86
		c0.61-9.26,1.18-10.93-0.72-13.16c-4.51-5.3-2.6-9.72-9.69-20.24c-0.66-0.97-1.39-1.93-1.84-2.99c-2.16-5.12-6.44-8.62-9.75-12.86
		c-1.45-1.85-5.15-2.64-7.54-0.23c-6.74,6.8-8.4,2.92-5.86,11.01c5.08,16.19,3.3,7.65-2.68,24.05c-1.66,4.56-6.12,11.34-7.77,11.97
		c-2.76,1.06-3.16,3.46-6.06,10.77c-1.38,3.48-1.28,1.92-1.82,6.88c-0.08,0.77,0.47,0-7.74,0.74c-13.61,1.23-19.85,0.24-24.28-0.16
		c-2.6-0.24,0.25-0.96-6.23-2c-26.42-4.24-54.6-10.57-69.68-10.22c-0.34,0.01-0.69-0.14-1.1-0.23c-5.35-6.57-14.31-7.51-23.25-14.24
		c-4.09-3.08-14.59-2-19.67-1.26c-13.35,1.94-59.43-11.21-90.52-9.78c-26.77,1.23-22.49,3.14-32.57,1.4
		c-21.42-37.69-39.36-46.17-42.31-48.99c-11.7-11.18-10.09-9.47-10.52-10.45c1.48-0.71,1.88-1.16,4.66-0.21
		c12.12,4.14,23.11,4.21,30.54,2.34c8.41-2.12,15.2-0.06,22.77-0.03c13.89,0.05,19.25,2.46,30.52,2.8
		c3.53,0.11,6.92,1.21,10.48,1.88c1.51,3.66,4.56,4.77,8.18,5.05c2.98,0.23,7.43,3.45,19.81,0.59c3.36-0.78,6.77-0.72,10.14-1.18
		c5.28-0.73,6.35,1.27,7.16,1.11c0.44-0.08,1.09-0.13,1.26-0.42c3.98-6.78,2.63-2.11,2.2-14.32c-0.52-14.7-10.67-27.29-9.35-29.23
		c1.69,0.67,3.69-0.9,3.96-2.11c0.13-0.57,0.06-2.09,0.02-2.66c-0.21-2.89-2.21-3.06-4.34-3.71c0-3.49,1.08-19.32,0.1-22.63
		c-1.63-5.54-3.78-10.87-7.03-15.71c-5.5-8.18-3.06-5.71-5.68-7.95c-0.98-0.84-2.3-1.41-2.98-2.43c-2.36-3.5-7.07-0.73-10.57,1.62
		c-3.39,2.27-2.32,3.9-2.11,12.42c0.46,18.82,1.18,7.59-4.94,28.03c-3.08,10.28-2.69,8.52-3.89,10.51
		c-6.63,1.9-33.55,7.71-33.65,7.74c-4.71,1.17-25.57-9.38-48.1-15.71c-35.95-10.11-31.24-5.61-38.76-8.65
		c-6.04-2.44-7.87-4.14-12.94-4.3c-2.87-0.09-10.16,0.63-14.59,1.99c-3.25,1-9.19,0.03-13.61,5.51c-0.08,0.11-6.04,4.39-6.54,14.31
		c-0.98,19.6,4.42,24.78,2.52,26.36c-10.98-0.67-10.88-2.76-14.13-1.21c-1.92,0.91-3.96,1.46-6.11,1.59
		c-0.48,0.03-0.91,0.56-1.41,0.88c1.8,5.07,2.31,5.75,1.14,7.02c-11.11,1.32-12.1-0.06-14.99,1.78c-1.16,0.74-3.87,1.84-6.81,4.36
		c-5.06,4.34,6.84,9.13,9.03,14.46c-7.02,12.76-4.08,5.72,2.99,27.47c0.09,0.28,0.01,0.63,0.01,1.09
		c-7.16-2.47-9.38-4.66-23.85-2.47c-8.15,1.23-10.26,4.95-13.18,7.48c-10.69,9.25-14.22,15.97-16.62,18.63
		c-29.6,32.7-16.67,22.81-40.16,20.48c-3.69-0.37-0.07-3.65,0.05-7.11c0.2-5.6,1.39-11.09-2.74-15.62
		c-5.38-0.23-3.03-0.18-7.47,0.01c-3.31-2.51-3.55-2.54-7.09-1.02c-0.22-0.23-0.5-0.45-0.69-0.74c-2.57-3.8-4.36,0.87-7.34-1.74
		c-0.72-3.13-1.72-7.31-4.54-5.82c-8.88,4.7-14.17,8.37-18.71,6.42c-4.58-1.96-6.54-0.66-11.01-0.02
		c-7.79,1.11-11.65,3.59-15.4,4.84c-3.88,1.29-5.32,2.73-10.53,9.51c-1.75,2.28-1.77,2.46-6.08,14.94
		c-0.39,1.14-0.55,2.24-0.34,3.46c1.65,9.98,0.67,11.39,3.86,22.89c1.55,5.56,3.11,6.76,4.66,10c-7.43,0-13.5,1.1-18.89,7.02
		c-0.57-0.15-1.27-0.58-1.85-0.47c-6.9,1.34-17.01,7.3-18.51,8.95C96.62,240.32,97.08,242.56,99.46,243.36z M207.83,248.21
		c-10.24,1.69-6.93,1.01-7.67-0.53c-1.06-2.2-2.33-2.78-5.34-3.31c-6.52-1.14-6.84-1.51-12.53-1.56c-7.5-0.06-10.74-1.53-17.86-1.57
		c-18.18-0.1-27.98,0.7-21.78-1.64c-1.37-1,0.33-0.36-6.16-2.3c-2.73-0.81-4.36-6.09,6-7.85c9.87,7.55,10.89,5.46,11.11,7.02
		c-8.68,0.27-15.54-5.55-13.76-2.88c0.39,0.69,4.28,2.53,5.02,2.83c3.51,1.43,7.22,1.92,10.99,1.98c0.77,0.01,1.26-0.35,1.37-1.14
		c8.97,2.38,5.09,0.23,8.72,0.55c6.4,0.55,7.75,1.24,10.12,0.63c2.22-0.58,0.06-0.67,20.54,1.9c0.05,0.01,0.09,0.13,0.3,0.43
		c-2.47,0.12-4.8,0.23-7.54,0.36c0.37,0,5.25,0.92,12.32,0.85C206.76,241.94,212.61,247.42,207.83,248.21z M226.2,250.45
		c-2.39,0.52-7.17,0.3-10.75-0.31c-5.8-0.99-2.02-0.16,5.05-3.05c2.61-1.07,3.25-5.53-7.9-5.77c-2.95-0.06-2.47-0.37-11.84-3.16
		c0.22-0.18,0.47-0.56,0.74-0.59c4.44-0.45,8.9-0.83,13.31,0.05C225.87,239.83,230.46,249.52,226.2,250.45z M212.46,243.26
		c2.65-0.72,4.72-0.09,7.2,1.22c-1.09,1.55-1.21,1.6-5.84,2.28C213.37,245.62,212.91,244.44,212.46,243.26z M199.98,231.71
		c28.1,2.69,21.91,3.75,23.55,4.08c0.3,0.3,3.02,0.02,5.57,2.81c1.01-0.25,7.02,4.2,9.58,10.68c-0.83,1.3-2.22,1.42-3.39,2.05
		c-0.03,0.03-0.34-0.85-0.28-1.11c1.16-5.61-3.63-8.93-5.15-10.5c-0.5-0.52-0.45-1.18-0.92-1.1c-2.02,0-5.46-5.69-22.81-4.06
		c-0.2,0.02-0.38,0.22-0.67,0.39c0.13,0.38,0.27,0.79,0.45,1.29c-17.7,0.71,0.19,2.43-20.94,0.78
		C195.12,230.83,194.27,231.17,199.98,231.71z M745,176.78c4.71,1.68,4.95,2.06,11.46,4.73c3.32,1.37,4.2-0.29,3.52-1.63
		c-0.96-1.9-8.01-4.02-13.38-5.81c0.7-2.67,0.7-2.67,3.19-5.2c9.16,2.89,9.95,3.19,11,3.13c2.16-0.14,2.61-2.85,0.98-3.9
		c-2.28-1.46-4.38-1.83-8.98-3.12c2.18-4.07,1.81-3.19,5.47-1.97c1.13,0.37,2.19,0.8,3.3,0.9c2.86,0.26,3.65-3.18,0.79-4.28
		c-2.43-0.94-4.02-0.72-5.04-2.18c3.43,0.42,6.86,2.17,7.48-0.62c0.5-2.25-2.33-2.77-3.85-3.26c-2.25-0.72-1.93-0.18-1.43-2.72
		c1.33-0.17,5.17-0.15,3.68-3.01c-0.92-1.78-1.56-0.28-0.42-4.49c0.57-2.11,0.64-4.04-1.74-4.86c-0.78-3.55-1.56-6.86-2.35-10.27
		c2.21-1.59,4.39-3.16,6.71-4.83c0.59,0.32,1.33,0.52,1.73,1c8.4,10.25,6.31,9.87,9.57,14.72c6.79,10.11,5.14,14.79,9.65,20.26
		c1.15,1.4,1.41,2.3,1.76,11.32c0.29,7.47,3.65,5.65,3.54,9.1c-0.17,5.75,4.38,5.81,5.71,16.07c0.49,3.81,2.68,5.68,0.43,22
		c-0.09,0.67-0.42,1.29-0.65,1.93c-7.49-2.17-22.86-3-27.95-2.43c-5.83,0.66-2.34,1.61-9.41-1.25c0.16-0.69,0.11-1.5,0.49-1.91
		c2.19-2.41,3.09-5.5,4.57-8.28c2.13-4-2.4-10.88-6.86-13.89c-2.35-1.58-8.05-4.28-10.67-5.4c-4.81-2.05-4.74,0.07-6.94-2.51
		C740.64,182.8,740.61,183.88,745,176.78z M508.57,151.82c15.88,1.28,33.7,5.92,74.45,9.52c2.15,0.19,7.51-0.94,15.48-0.42
		c6.22,0.4,4.97,2.63,19.77,10.37c6.03,3.15,7.16,5.84,12.48,5.95c8.91,0.19,16.8,2.03,26.34,2.09c3.25,0.02,11.75,3.2,25.51,5.24
		c9.39,1.39,12.71,0.93,16.72,2.27c13.97,4.66,45.7,1.53,49.26,3.45c1.27,0.68,14.63,5.79,13.57,13.93
		c-0.23,1.75-0.84,2.29-3.35,6.21c-23.3-0.57-83.2,18.26-117.82,6.84c-4.45-1.47-8.74-4.53-14.81-5.49
		c-3.53-0.56-9.92-4.03-16.03-6.33c-2.25-0.85-8.32-1.61-11.99-2.15c1.41-1.36,3.49-0.89,4.83-2.65c-1.15-0.09-1.94-0.29-2.68-0.18
		c-79.87,11.85-36.08,4.45-76.32,11.54c-5.11,0.9-16.47,0.71-21.47,0.19c-1.35-0.14-2.73,0.24-4.4,0.41
		c-16.69-32.33-14.41-31.5-15.9-33.53c-3.56-4.83-4.48-10.86-8.06-25.4C473.26,150.06,501.98,151.29,508.57,151.82z M425.76,109.58
		c13.11,10.7,23.57,26.27,32.75,39.05c7.45,10.38,10.39,21.72,12.41,24.74c0.91-0.2,0.9-0.66,0.7-1.42
		c-5.76-21.24-13.58-19.31,0.5-18.19c3.52,11.14,4.51,21.67,8.17,26.16c0.86,1.05,3.3,8.22,3.73,9.49
		c8.68,25.6,14.46,24.45,4.64,24.39c-0.85-4.02-1.57-8.03-4.25-12.06c0,0,0-0.01-0.01-0.01c0,3.61,1.75,5.55,2.43,11.35
		c0.11,0.95-1.28,0.86-1.71,0.28c-0.29-0.39,0.07,0.14-1.91-4.9c-0.89,0.4-0.63,0.95-0.49,1.51c1.36,5.32,1.99,4.91,0.41,5.86
		c-8.51,5.13-11.13,7.21-9.45,4.24c8.98-15.91,6.09-33.24,3.09-31.36c-0.59,1.39,1.92,8.29-1.29,19.45
		c-2.87,9.94-1.94,10.84-16.41,18.04c-8.96,4.46-16.46,7.53-27.25,7.5c-23.07-0.07-24.85,0.62-34.35-4.7
		c-0.74-0.41-1.4-0.85-1.69-1.7c-1.69-4.89-3.78-9.64-4.6-14.79c-0.5-3.12-0.87-18.82-0.31-18.27c2.51,3.08,0.06,2.82,6.32,11.4
		c9.42,12.91,9.19,9.04,5.93,12.29c-2.25-1.15-1.75-2.28-3.14-2.43c-0.1,0-0.07-0.14,1.6,3.17c-1.22,1.35-2.03,1.95-1.45,2.79
		c0.65,0.94,1.68,0.44,3.22,0.03c3.8,3.99,3.91,7.81,5.76,6.73c0.36-0.21,0.45-0.47,0.28-0.81c-3.4-6.83-6.79-6.35-2.14-9.36
		c8.09,6.69,6.79,5.79,8.31,5.25c-5.21-5.47-17.75-14.29-22.46-28.26c-6.94-20.61-3.81-12.4-5.45-20.38
		c-0.42-0.12-0.74-0.08-0.94,0.03c-0.64,0.36-0.58,4.36-0.51,5.09c0.75,7.88,4.42,9.16,2.94,12.38c-0.63,1.37-1.96,17.63,1.27,29.04
		c0.61,2.14,1.05,4.31,1.59,6.52c-2.66,1.28-14.14-2.87-23.13-1.12c-3.26,0.63,1.79-7.98-6.06-29.64
		c-1.46-4.03-11.3-31.36-14.85-38.1c-1.36-2.58-3.51-1.52-3.62-6.68c-0.02-0.72,0.02-3.55,0.58-4.41c1.21,0,3.88-0.87,6.34,1.29
		c6.02,5.29,11.34,4.03,22.58,7.07c3.66,5.44,7.38,15.32,10.21,15.99c3.64,0-15.72-28.35-24.7-55.85
		c6.39-14.29,6.14-11.38,9.35-16.36c0.1,0,0.05-0.01,36.96-8.67C411.42,95.8,420.19,105.04,425.76,109.58z M341.96,144.71
		c-1.41-0.85-2.27-5.06-2.59-6.68c1.72-2.33,1.94-1.01,3.39,0.12c0.9,0.7,1.31,1.75,1.39,2.72
		C344.48,145.29,345.38,144.5,341.96,144.71z M362.21,135.07c1.61,7.61,2.17,9.6,3.36,15.82c-13.18-0.6-10.07-4.4-17.66-6.31
		c-0.3-1.64-0.59-3.23-0.85-4.63c1.36-1.62,4.24-1.2,5.01-7.33c0.39-3.16,3.92-9.9,5.21-12.35c1.05-0.06,0.49-0.76,4.52,10.15
		C362.92,133.45,361.56,131.98,362.21,135.07z M366.03,141.79c2.17,2.44,4.02,6.66,5.26,9.72c-0.91,0.64-1.77,0.16-2.79-0.27
		C367.26,148.39,366.85,145.19,366.03,141.79z M500.17,92.38c-2.37-0.36-8.85-0.63-11.94-1.09c-7.34-1.09-14.7-1.72-22.14-1.61
		c-1.98,0.03-3.97-0.43-5.96-0.47c-18.02-0.29-24.62,2.8-39.72-1.29c5.74-1.67-7.66,1.7,74.94-17.83c3.03-0.72,3.44-0.82,17.16,0.37
		c3.68,0.32,6.23,2.53,8.18,5.43c0.97,1.44,0.74,3.23,0.33,4.81C516.59,97.98,510.63,93.97,500.17,92.38z M552.7,77.5
		c1.48,5.79,2.74,15.62,1.52,20.58c-0.29,1.19-1.42,0.29-4.5,0.3c-12.2,0.04-26.63,5.2-30.3,0.86c-0.67-0.79-3.7-1.38-4.68-1.61
		c0.35-0.78,0.44-1.28,0.74-1.55c1.06-0.93,5.27-2.82,6.87-7.72c1.9-5.81,4.32-12.37-0.36-16.09c-1.92-1.53-3.62-3.33-5.82-4.52
		c-0.68-0.37-1.16-1.08-1.8-1.7c0.47-0.26,0.75-0.51,1.07-0.59c37.24-8.51,25.7-6.68,30.08-4.28c0.62,0.34,0.63,0.02,1.2,1.29
		C552.49,75.39,551.66,73.45,552.7,77.5z M517.5,49.63c6.68,1.58,9.24,3.87,10.44,1.4c1.24-2.54-5.44-4.85-10.29-6.76
		c0.58-2.59-1.11-2.08,9.3,0.77c2.64,0.72,2.73-4.15-8.01-6.45c0.71-0.41,1-0.73,1.21-0.69c3.54,0.71,5.68,1.89,7.32,0.71
		c0.29-2.04-4.15-3.58-6.1-4.21c-0.28-0.09-0.41-0.64-0.73-1.18c2.53-0.49,4.83,1.31,6.92,0.01c0.46-1.55-0.74-1.63-4.78-3.3
		c-0.51-7.56-1.31-15.23-0.74-23.12c4.44-3.61,9.46-3.9,12.45,1.22c2.78,4.76,5.5,9.54,7.42,14.76c3.36,9.19,6.01,3.12,2.19,27.87
		c-0.84,0.29-1.59,0.63-2.38,0.81c-19,4.43-18.98,4.85-21.18,3.62C515.65,52.37,515.73,54.94,517.5,49.63z M546.71,52.81
		c7.17,3.14,17.22-1.85-177.54,44.22c-1.79,0.42-3.41,0.81-3.06-1.14C367.75,94.07,529.78,57.61,546.71,52.81z M507.51,59.3
		c-1.01,0.5-1.41,0.54-17.79,4.32c-1.48,0.34-2.97,0.8-4.71-0.38C492.7,61.07,514.62,55.8,507.51,59.3z M344.69,59.19
		c-0.86-5.84,3.05-13.67,5.26-15.11c1.7-1.11,1.04-3.86,8.86-5c4.12-0.6,4.09-1.28,14.48-2.76c2.19-0.31,4.22,2.01,18.47,4.25
		C414.2,44.1,445.65,54.38,458.24,60c1.22,0.54,20.28,5.14,20.55,5.68c-0.03,1.11,1.96-0.3-70.96,17.17
		c-3.73,0.89-9.19-1.32-11.04-3.24c-0.81-0.84-4.48-1.36-13.12-9.41c-11.27-10.5-8.64-9.5-10.78-9.07
		c21.07,30.59,47.31,18.76-5.41,31.16c-3.89,0.91-2.78-0.82-5.66-0.97c-12.61-0.67-9.98,3.12-16.35-23.02
		C344.76,65.39,344.81,59.98,344.69,59.19z M335.02,83.23c13.06,2.18,10.03,1.22,12.46,3.7c2.37,2.42-2.48,4-4.69,2.17
		c-2.34-1.94-4.68-1.63-7.27-0.11c-2.06-1.08-4.31-0.05-6.57-0.12c-0.93-0.03-1.11,0.17-1.58-1.9c-0.16-0.73-0.25-1.48-0.29-2.3
		C334.52,82.73,333.11,82.91,335.02,83.23z M309.6,103.08c-7.04-5.72-5.35-3.56,1.67-9.02c0.55-0.43,2.22-0.14,2.75-0.37
		c5.52-2.45,10.65-0.51,15.61-0.79c0.1-0.01,14.58-1.05,17.58-0.34c4.8,1.13,9.82,0.5,14.89,2.06c1.06,1.74,1.55,4.04,2.38,6.34
		c-3.73,3.69-2.51,3.37-16.65,30.52c-0.87,1.68,0.44,4.32-2.39,4.27c-1.01-0.02-1.81-0.4-2.24-1.68c3.67-6.49,1.22-4.72,4.28-10.1
		c16.13-28.32,12.8-24.07,8.87-27.54c-1.41-1.24-3.09-1.67-4.9-1.69c-3.93-0.03-29.92,0.67-29.92,0.67
		c-1.28,0.1-2.53,0.37-3.69,1.14c1.22,3.34,0.86,1.86,1.31,5.58c-1.66,1.33-1.53,4.52-4.78,5.21
		C312.59,106.37,311.31,104.47,309.6,103.08z M343.74,106.34c0.73-0.75,1.44-1.52,2.13-2.26c2.29,0.43,0.48,2.22,3.56,4.15
		c1.08-2.28,0.44-4.17-0.63-5.08c-1.53-1.29-1.45-3.05-2.07-4.84c1.39,0,2.52,0,3.82,0c0.96,3,1.81,5.69,2.77,8.66
		c-0.71,1.68-1.59,3.56-3.06,5.2c-0.28-0.35-0.54-0.61-0.71-0.9c-2.63-4.52-5.98-0.89-8.02-2.92
		C341.72,107.08,343.05,107.05,343.74,106.34z M339.45,106.02c-1.1,0.9-0.35,1.29-3.95-1.92c0.58-2.56,2.89-3.6,3.87-5.75
		c1.7,0,3.2,0,5.04,0C345.18,101.66,345.86,100.78,339.45,106.02z M353.33,98.5c2.19-0.31,2.19-0.31,3.77,1.42
		c-0.31,1.45-1.15,2.65-2.06,3.85C353.73,102.35,353.62,101.4,353.33,98.5z M335.35,98.2c-1.12,2.44-2.03,4.44-3,6.56
		c-1.07,0.71-1.66-1.33-1.82-2.6C329.91,97.28,318.85,98.42,335.35,98.2z M310.55,118.89c1.97-3.8,3.69-7.62,7.2-10.34
		c3.34-2.59,2.82-5.31,6.54-7.43c5.43,0.73,3.25-0.08,4.37,3.22c0.79,2.33,1.87,2.99,4.18,2.95c0.79-0.01,2.4-0.33,2.72,0.25
		c1.62,2.9,4.7,3.29,7.49,4.09c0.61,0.17,1.36-0.2,2.04-0.26c2.63-0.24,2.43,1.92,2.66,3.24c0.54,3.06,1.2-1.41-3.96,10.63
		c-1.94,4.54-2.78,8.3-7.79,12.15c-0.3-0.09-0.85-0.35-1.38-0.34c-0.39,0-1.08,0.32-1.12,0.59c-0.38,2.09-0.91,6.18,1.22,7.03
		c1.49-0.39,0.91-2.04,1.75-2.85c1.37-0.19-1.78-0.75,11.08,25.36c2.75,5.59-2.06-8.88,13.7,35.22c2.69,7.53,3.6,18.29,3.26,22.23
		c-0.48,5.61,1.39,8.49,3.06,13.01c-5.81,3.39-13.42,7.83-21.59,8c-44.37,0.96-22.1-2.6-67.6-1.42c-1.34,0.03-2.61,0.41-3.39,1.5
		c-17.51-3.1-23.24-5.64-35.01-10.76c-2.99-1.3-12.62-17.84-9.19-23.04c1.37-2.07,0.7-4.91,4.1-8.86c2.96-3.44,3.71-4.76,4.88-5.49
		c6.12-3.85,9.85-6.61,16.68-6.92c12.61-0.57,12.15,0.84,23.95,10.13c-1.34,1.47-2.14-1.15-6.55-1.77c0.7,1.03,1.11,1.65,1.56,2.3
		c-0.14,0.11-0.31,0.34-0.41,0.32c-6.56-1.7-5.71-1.58-4.97-0.33c1.42,2.38,2.69,1.45,46.38,10.7c5.64,1.19,1.63,0.69,7.22,2.67
		c1.41,3.44,1.81,6.93,5.55,8.88c0.6-3.34-4.25-10.85-2.87-15.91c1.36-5.01-1.02-35.62-1.42-40.79c-0.55-7.08-2.54-10.8-5.4-18.91
		c-1.09-3.08,0.38-2.69-1.11-7.91c-0.45-1.58-0.81-3.21-1.47-4.7c-0.34-0.78,0.45-1.53,0.01-2.29c-0.01-0.02-0.6-0.59-0.94-1.28
		C313.47,126.66,311.93,123.56,310.55,118.89z M321.45,210.98c4.19-10.57,3-9,1.9,1.29C322.37,211.59,321.92,211.3,321.45,210.98z
		 M135.05,207.8c-2.8-13.29-4.03-17.26-2.62-23.18c0.87-3.66,0.78-7.06,4.05-11.61c1.25-1.74,5.85-5.57,3.52-2.39
		c-6.92,9.44-6.19,7.47-5.73,9.19c1.7-1.5,2.5-3.51,4.42-5.26c-1.15,4.83-4.73,6.8-3.67,18.97c0,0.29,0.43-8.56,5.38-17.06
		c5.5-9.44,7.99-6.02,6.44-9.44c1.38-1.58,1.38-1.58,1.84-3.26c4.43-1.7,8.99-3.14,13.83-3.69c5.01-0.57,6.71-2.12,8.09-1.22
		c2.89,1.86,5.95,1.7,9.13,0.35c4.22-1.78,8.26-3.93,11.77-7.08c3.93,2.29,1.27,15.68,5,7.49c9.31-3.23,4.08,6.46,7.4,6.87
		c0.46,0.06,0.84-0.38,0.94-0.68c0.37-1.08,0.08-1.74-0.43-2.66c-1.36-2.44,1.11-4.5,4.99-1.52c2.92,2.25,4.16-0.58,8.76,1.26
		c2.72,3.14-0.47,14.16-0.12,20.86c1.58,1.7,3,1.98,20.08,5.54c-1.27,2.85-3.52,4.94-4.2,8.04c3.35,0.88-0.06,0.42,4.61-3.4
		c0.49-0.4,0.49-0.35,0.49-0.49c0.14,0-0.06-0.7,0.68-0.65c0.11,0,0.07-0.27,0.07-0.43c0-0.29,5.45-8,9.63-11.45
		c18.61-15.33,26.56-39.93,42.26-41.29c18.11-1.57,16.85-0.78,17.69,1.13c-0.75,0.87-2.52,0.03-2.73,1.92
		c6.82,4.14,5.84,3.75,10.64,13.32c1.35,0.14,1.87-0.01,2.23,1c3.39,9.61,2.57,33.36,3.63,39.54c0.11,0.61,0.34,1.21,0.36,2.3
		c0.05,2.96-3.42,9.51-4.35,10.8c-27.72-9.03-31.71-5.55-34.02-8.48c-3.54-4.49-21.14-18.9-26.36-16.39
		c-3.44,1.65-8.59-0.79-17.31,6.83c-0.2,0.17-1.65,1.15-1.65,1.16c-0.12,0,0.08,0.76-0.7,0.65c0,0.71-1.44,3.67-2.21,3.93
		c-1.66,0.41-0.79-0.09-3.43,2.16c-5.85,4.99-4.82,9.8-5.4,11.05c-2.79,5.98,1.38,10.63-1.89,10.25c-7-0.81-13.76-0.26-20.71,0.75
		c-12.07,1.75-6.22,11.27-36.11,13.39c-2.74,0.19-2.62,1.42-6.43,0.88c-3.47-0.49-2.82-0.47-3.35-1.13
		c4.97-3.21,11.99,0.62,21.16-17.77c-2.45,0.98-0.82,2.22-8.79,9.46c-0.78-0.73-0.16-0.68,1.29-4.15c0.3-0.71,0.81-2.32,0.81-2.66
		c1.02-5.74-2.3,4.58-8.97,9.77c-1.01-1.24,2.12-3.02,5.6-11.95c-1.57,0.47-1.26,1.72-5.52,8c-4.31,6.34-7.27,9.22-7.91,11.72
		c-1.27,0.01-2.33,0.07-3.37-0.62c0.4,0,0.81,0,1.18,0c1.18-1.39-0.83-1.35-2.3-2.44c-6.84-5.06-9.04-15.68-13.78-26.89
		c-0.09-0.21-0.82-1.21-0.69-0.49c1.47,7.89,6.54,19.42,6.76,20c-0.41,0.54-0.74,0.42-1.15-0.09
		C137.09,218.07,136.15,213.02,135.05,207.8z M123.77,229.02c0.54-1.07,7.31-4.38,12.56-3.55c-4.87,1.58-9.34,2.44-10,5.9
		c8.07-5.01,10.14-4.14,14.36-4.2c-0.2,0.32-0.3,0.65-0.5,0.73c-4.32,1.73-4.62,1.07-6.33,3.13c-4.2,5.02-0.06,6.51,3.84,9.12
		c-5.36-0.81-11.85-3.78-15.13-8.26C125.54,229.99,125.46,230.59,123.77,229.02z M120.79,232.33c8.75,9.64,17.88,9.8,6.4,8.8
		c-2.1-0.18-3.41-1.19-6.86-3.93C117.91,235.29,118.71,233.03,120.79,232.33z M101.41,238.72c0.23,0.23,2.23,0.84,0.99,3.2
		c-0.92-0.24-1.84-0.5-2.76-0.75C99.54,239.8,100.19,239.25,101.41,238.72z"/> <path d="M169.93,563.34c0-0.11,0.05-0.15-0.08-0.06C169.82,563.42,169.79,563.48,169.93,563.34z"/> <path d="M399.93,215.41c-0.08-0.45-0.17,0.09,0.05,0.09C399.96,215.47,399.94,215.44,399.93,215.41z"/> <path d="M174.11,217.5c0,0.3-0.03,0.24,0.09,0.08C174.25,217.23,174.24,217.35,174.11,217.5z"/> <path d="M138.1,206.23c0.03-0.03,0-0.04-0.07-0.14c0,0.07,0,0.14,0,0.2c-0.01,0.02,0.03,0.03,0.11,0.12c0-0.06-0.01-0.12-0.03-0.18
		C138.1,206.22,138.1,206.22,138.1,206.23z"/> <path d="M462.71,537.88c-27.99-29.43-29.27-47.96-33.05-47.96c-1.17,7.04,17.52,34.13,17.35,34.82
		c-9.72,6.03-24.59,7.58-25.58,9.88c2.49,7.93,2.38,7.89,3.2,8.05c-0.61-2.61-0.26-1.48-2.09-7.4c2.74-1.24,19.44-4.79,25.83-9.55
		c10.73,12.3,14.34,18.8,24.95,23.08C477.78,546.95,468.84,544.33,462.71,537.88z"/> <path d="M386.9,550.87c4.19-37.53,4.27-44.1,8.03-50.1c-5.76-3.93-8.57,29.49-9.5,37.49c-1.75,15.16-3.15,20.88-0.72,24.23
		c1.19,1.64,2.35,0.37,3.65-0.39C385.86,559.69,386.29,556.4,386.9,550.87z"/> <path d="M699.09,383.81c1.44-0.91,3.31-1.2,4.08-3.06c0.35-0.86,10.46-8.68,10.56-9.05c0.11-0.41,0.32-0.96,0.15-1.23
		c-0.15-0.24-0.89-0.39-1.17-0.23c-4.18,2.39-8.57,5.06-10.87,9.6c-1.95,0.88-2.23,0.55-3.66,2.89
		C698.01,383.01,698.63,384.12,699.09,383.81z"/> <path d="M420.81,546.54c-0.3-1.4-0.08-0.36-3.92-18.19C412.01,505.62,415.19,539.21,420.81,546.54z"/> <path d="M529.77,454.6c2.11,0.07,7.03-0.03,6.26-1.98c-0.71-1.82-8.27-1.36-9.91-0.66C525.6,452.18,523.93,454.41,529.77,454.6z"/> <path d="M394.76,536.69c2.83,1.98,6.13,1.53,11.62,1.37c2.15-0.06,4-0.22,5.76-1.44c-0.74-0.07-1.87-0.24-2.43-0.25
		C394.09,535.9,396.86,535.33,394.76,536.69z"/> <path d="M353.61,499.38c-1.11-0.34-1.81-0.52-2.32,0.97c2.25,1.72,4.41,3.77,7.47,4.41c0.48,0.1,1.03-0.2,2.08-0.45
		c-0.54-0.58-0.8-0.93-1.14-1.27C359.42,502.76,354.46,499.64,353.61,499.38z"/> <path d="M544.69,483.13c-1.38,1.46-2.48,3.07-3.35,4.9c1.05,0.67,1.57,0.39,1.95-0.05c6.27-7.2,5.18-5.75,5.43-7.17
		C547.71,480.8,547.59,480.07,544.69,483.13z"/> <path d="M581.71,437.95c2.31-1.9,5.19-3.94,4.35-5.05c-1.18-1.57-7.55,4.09-6.15,5.28C580.52,438.7,581.13,438.42,581.71,437.95z"/> <path d="M610.03,443.04c1.3-0.18,5.85-3.34,7.55-4.79c3.13-2.67-4.25,0.71-8.34,3.91C609.36,442.82,609.65,443.09,610.03,443.04z"/> <path d="M544.94,453.41c1.43,0.82,2.46,0.34,3.6-1.74C545.91,449.82,542.79,452.17,544.94,453.41z"/> <path d="M533.67,496.02c3.11-0.17,4.55-2.16,2.93-2.42C533.55,493.12,532.28,496.02,533.67,496.02z"/> <path d="M406.02,509.27c0.94-1.03,0.94-1.14,1.33-2.97c-1.75,0.98-2.64,2.12-4.2,4.66C404.81,511.03,405.34,510.02,406.02,509.27z"/> <path d="M578.34,441.09c-0.11-0.39-0.5-0.69-0.76-1c-1.25,0.42-2.16,0.81-1.21,1.76C577.52,443,578.41,441.32,578.34,441.09z"/> <path d="M526.32,500.74c1.66,0.79,2.09,0.64,3.41-1.58C528.19,498.93,527.09,499.25,526.32,500.74z"/> <path d="M539.81,453.88c1.19-0.07,1.55-0.9,1.82-1.29C538.55,451.2,538.13,453.98,539.81,453.88z"/> <path d="M696.16,385.8c-1.43,0.32-2.29,0.79-2.5,2C695.4,388.6,695.74,387.73,696.16,385.8z"/> <path d="M623.12,434.13c0.88,0.59,0.88,0.24,2.71-1.22C623.49,431.84,622.73,434,623.12,434.13z"/> <path d="M365.57,505.68c-0.47,0.01-0.91,0.36-1.66,0.7c0.35,0.21,0.62,0.39,0.85,0.54C367.04,508.31,367.37,505.64,365.57,505.68z"/> <path d="M370.29,507.3c-1.75-0.78-0.05,3.55,0.96,1.53C371.38,508.56,371.06,507.64,370.29,507.3z"/> <path d="M630.75,430.29c-1.83-0.92-2.77,0.69-2.21,1.35C629.07,432.16,629.38,431.62,630.75,430.29z"/> <path d="M691.35,390.75c-2.07,0.97-2.07,0.97-1.52,2.03C691.29,391.93,691.27,391.93,691.35,390.75z"/> <path d="M571.69,446.04c-0.38-0.43-0.17-0.46-0.87,0.42c0.1,0.07,0.23,0.21,0.28,0.19C572.06,446.24,571.86,446.24,571.69,446.04z"/> <path d="M634.87,426.7c-0.56-0.42-0.32-0.47-1.05-0.02C634.44,427.15,634.2,427.11,634.87,426.7z"/> <path d="M424.75,542.89c0,0.63,0.03,0.46,0.36,0.67C425.08,543.23,425.27,543.4,424.75,542.89z"/> <path d="M424.73,542.74c0.04-0.03,0.03-0.03-0.08-0.06c0,0.04,0.01,0.07,0.02,0.1C424.69,542.77,424.71,542.76,424.73,542.74
		c-0.06,0.04-0.07,0.05,0.02,0.14c0-0.05,0.01-0.12,0.01-0.17C424.74,542.73,424.74,542.73,424.73,542.74z"/> <path d="M410.47,500.51c0.02-0.01,0.12-0.02,0.12-0.02C410.49,500.39,410.54,500.41,410.47,500.51z"/> <path d="M410.27,500.74c0.06-0.07,0.13-0.15,0.19-0.23C410.23,500.56,410.32,500.57,410.27,500.74z"/> <path d="M640.02,535.82c-5.7,0-5.82,1.35-6.72,2.41c-0.1,0.1,1.74,0.76,2.03,0.75C647.18,538.38,647.01,535.82,640.02,535.82z"/> <path d="M757.45,549.44c-6.21-0.1-5.77-0.38-6.86,0.28c-2.77,1.68,1.48,4.25,7.55,2.13C759.47,551.39,758.46,549.45,757.45,549.44z
		"/> <path d="M577.72,508.45c-0.19,0.06-0.48,0.65-0.67,0.92c10.94,4.6,10.14,4.55,11.33,3.49
		C585.95,509.67,579.42,507.73,577.72,508.45z"/> <path d="M659.42,536.23c0.42,0.19,0.86,0.31,1.35,0.49c0.53-0.22,2.38-0.62,2.08-1.85C662.11,532.42,657.23,535.22,659.42,536.23z"/> <path d="M745.49,550.96c-1.97-0.57-3.17,1.48-0.98,2.22C746.9,553.99,747.79,551.63,745.49,550.96z"/> <path d="M628.02,524.18c-0.93-2.28-2.62-1.68-4.23,0.14C625.32,525.18,626.65,524.95,628.02,524.18z"/> <path d="M617.76,524.05c-2.63-0.44-2.06,2.45-0.69,2.27c0.74-0.1,1.46-0.46,2.18-0.69C619.12,524.46,618.47,524.17,617.76,524.05z"/> <path d="M625.21,539.02c0.51,1.57,2.03,0.6,3.23,0.1C627.14,537.41,626.51,537.59,625.21,539.02z"/> <path d="M590.63,514.87c-1.14-0.08-1.03,1.21-0.86,1.31c0.2,0.14,1.11,0.59,2.01,0.88c0.22,0.11,0.7-0.44,0.68-0.61
		C592.38,515.69,591.6,514.94,590.63,514.87z"/> <path d="M596.64,518.58c-1.61-0.01-1.1,2.32,1.1,2.18c0.05-0.18,0.43-0.65,0.35-0.97C597.91,519.04,597.31,518.58,596.64,518.58z"/> <path d="M737.36,552.09c-0.81-0.3-1.51,0.38-1.46,1.05c0.1,1.16,2.16,1.49,2.5-0.17C738.14,552.72,737.81,552.25,737.36,552.09z"/> <path d="M651.41,537.03c1.09,0.17,1.96-0.03,2.47-1.09C651.42,534.74,650.24,537.03,651.41,537.03z"/> <path d="M668.12,535.94c-0.98-0.16-1.05,1.25-0.45,1.19c0.36-0.04,0.73-0.19,1.34-0.38C668.56,536.32,668.36,535.98,668.12,535.94z
		"/> <path d="M606.54,545.27l-0.23-0.02C606.44,545.55,606.37,545.53,606.54,545.27z"/> <path d="M342.99,569.77c-0.27,6.5,5.43,2.12,2.61-3.74C344.77,564.29,343.12,566.84,342.99,569.77z"/> <path d="M362.51,576.53c0.29-1.08,0.41-2.34-1.38-3.27c-1.1,2.52-1.85,4.83-1.23,7.63C361.88,579.93,362.08,578.12,362.51,576.53z"/> <path d="M322.5,450.03c1.66,0.68,2.81,2.39,4.73,2.97c0.21-0.31,0.48-0.52,0.45-0.67C327.06,449.36,322.98,447.24,322.5,450.03z"/> <path d="M333.49,459.13c0-1.69-2.59-0.81-2.59,2.2c0,1.39,0.38,1.29,1.08,1.91C333.03,462,333.3,460.57,333.49,459.13z"/> <path d="M346.08,460.81c1.02-0.59,0.94-1.11,0.31-1.89c-0.99-1.24-1.67-1.94-3.19-1.34C343.58,459.32,345.03,459.91,346.08,460.81z
		"/> <path d="M251.87,541.36c-1.51-0.27-3.15,1.21-2.82,2.02c0.45,1.13,3.09-0.13,3.22-1.54C252.13,541.69,252.03,541.38,251.87,541.36z
		"/> <path d="M335.48,496.19c-0.05,2.09,1.29,3.2,1.95,3.28c0.28,0.03,0.79-0.06,1.12-0.06C337.94,497.59,337.63,496.27,335.48,496.19z"/> <path d="M324.12,458.17c-1.11,3.78,3.56,1.6,1.31-1.56C324.63,457.06,324.29,457.6,324.12,458.17z"/> <path d="M338.33,502.04c-0.45,1.68-0.36,1.8,1.75,2.57C339.92,503.16,339.57,502.28,338.33,502.04z"/> <path d="M336.26,493.26c-0.25-0.4-0.48-0.91-0.85-1.31c-0.48-0.51-2.19-0.04-0.14,2.04C335.71,494.45,336.2,493.36,336.26,493.26z"/> <path d="M241.63,543.13c0.78,0.84,1.54,0.67,2.32,0.02C243.21,541.85,242.82,541.85,241.63,543.13z"/> <path d="M331.93,569.99c-0.41,1.56-0.38,1.55,0.72,2.4C333.15,571.02,333.14,570.98,331.93,569.99z"/> <path d="M321.9,463.58c-0.48,0.93,0.83,1.98,1.34,0.9C323.68,463.53,322.46,462.49,321.9,463.58z"/> <path d="M342.36,557.05c-0.7-0.4-1.38,1.28-0.12,1.4c0.19,0.02,0.44-0.37,0.59-0.53C342.81,557.6,342.65,557.2,342.36,557.05z"/> <path d="M179.78,556.98c-0.01-0.02-0.04-0.05-0.08-0.1C179.7,556.89,179.72,556.92,179.78,556.98z"/> <path d="M179.07,556.27c-0.87-0.29-1.62-0.38-2.78-2.02c1.78-2.23,4.97-5.13,5.26-8.31c-0.69-0.53-1.02-1.56-2.35-1.41
		c0,8.06-3.65,5.82-4.64,10.23c2.11,2.8,4.64,5.17,7.3,6.72c1.61,0.54,2.63-0.86,3.79-0.16c0.53,1.59-3.55,2.39-4.99,4.67
		c-0.07,0.03-0.3,0.15,0,0c6.37-2.94,6.61-3.85,9.03-3.83c0.15,0,0.29-0.3,0.52-0.54c-0.63-0.87-2.14-0.04-2.7-1.67
		c2.06-1.32,3.54-3.69,6.63-3.69c0.88,0,1.79-0.5,2.64-0.89c3.49-1.58-3.24-7.12-3.93-3.66c2.33,1.62,2.59,1.58,2.48,2.13
		c-0.05,0.35-0.85,0.49-1.01,0.49c-5.9-0.3-9.86,8-13.48,3.86c-0.58-0.67-0.92-1.05-1.06-1.22
		C179.86,557.09,179.52,556.72,179.07,556.27z"/> <path d="M177.46,554.27c1.36,1.59,2.01,2.34,2.24,2.61c0-0.02,0.27,0.27,0.73,0.73c5.65,0.66,3.81,1.42,10.22-4.66
		c-2.2-2.79-2.22-3.57-4.93-1.39c-0.84-1.05-1.6-1.89-2.98-2.09C180.79,550.77,178.89,552.25,177.46,554.27z M180.23,553.49
		c2.98,2.03,2.2,2.06,1.26-1.36c1.97-1.61,1.11-1.86,3.73,1.59c0.75-0.15,1.38-0.28,2.4-0.49c-0.72,1.02-1.13,1.86-1.76,2.46
		c-2.81,2.66-4.29,0.43-6.13-1.66C179.91,553.87,180.07,553.67,180.23,553.49z"/> <path d="M164.49,540.96c3.39,4.84,4.01,3.5,3.27,5.79c-2.46-3.34-0.16-3.71-2.65-2.8c3.82,14.65-2.1,19.04-1.57,21.94
		c0.06,0.19,1.86-1.02,3.38-7.29c0.23-0.97,2.74-12.03,2.2-13.33c-3.02-7.29-3.03-6.61-4.03-7.26
		C165.93,540.76,166.15,540.08,164.49,540.96z"/> <path d="M163.5,566.04c-0.1,0.33-0.14,0.34,0.08,0.08C163.55,566,163.56,565.92,163.5,566.04z"/> <path d="M178.83,518.51c-0.24-1.43-1.94-1.94-1.66-3.87c3.03-0.29,1.01,1.55,2.53,1.89c1.25-2.02,2.66-3.69,2.09-5.25
		c-1.46,0.56-0.42,0.74-6.31-1.46c-0.72-0.7-0.8-2.35-2.51-2.75C173.7,515.14,179.28,521.25,178.83,518.51z"/> <path d="M213.4,533.39c-3.34,1.17-0.86,11.58-15.38,13.28c0.79,0.4,1.24,0.8,1.64,0.83C209.68,548.18,214.57,536.13,213.4,533.39z"/> <path d="M194.29,562.21c-3.51,2.04,0.01-0.13-9.2,6.47c-1.3,0.93-2.83,1.54-3.33,3.33c-0.08,0.31,0.36-0.1-7.05,5.9
		c3.02-0.02,2.84-0.68,14.55-10.51C194.87,562.69,193.69,563.91,194.29,562.21z"/> <path d="M148.26,521.05c-1.82,0.96-2.28,1.26-2.35,1.35c-0.03,0-0.07,0.01-0.13,0.03c-0.33,0.46-0.11-0.07,0.16-0.16
		c0-2.35,3.13-2.28,1.41-7.08c-2.81,2.63-2,2.55-3.21,7.3c-0.31,1.22-0.3,2.41,0,4.06C149.28,520.84,148.69,521.83,148.26,521.05z"/> <path d="M157.43,537.01c0.81,1.34,1.29,2.15,1.54,2.88c0.74,2.24-3.91,18.8,2.18,1.11c0.78,0.59,1.54,1.14,2.31,1.69
		c0-0.4-1.14-3.37-2.47-5.24c-1.56-2.19-1.18-1.75-2.06-0.22C158.42,537.21,158.04,536.38,157.43,537.01z"/> <path d="M163.49,542.85c0.07,0.05,0.15,0.16,0.06-0.07C163.37,542.64,163.46,542.69,163.49,542.85z"/> <path d="M147.84,569.71c0.19,0.07,0.45,0.07,0.81-0.08c-4-10.01-4.52-14.49-5.38-15.83C142.83,560.39,146.82,569.33,147.84,569.71z
		"/> <path d="M168.26,506.58c0.13-0.63-0.26-0.95-0.92-0.97c-2.08,3.78-0.73,9.82,0.91,12.31C169.57,513.79,167.42,510.57,168.26,506.58
		z"/> <path d="M151.08,527.52c0.05-0.12-0.18-0.35-0.36-0.7c-2.68,3.01-5.59,13.7-5.51,15.12C145.62,541.53,144.7,543.45,151.08,527.52z"/> <path d="M145.13,542.01c-0.07,0.45-0.12,0.39,0.09,0.08C145.22,541.92,145.2,541.94,145.13,542.01z"/> <path d="M151.17,540.91c0,1.09,0,1.89,0,3.01c1.47-2.19,2-4.3,2.32-6.59c-0.53-0.8-1.08-1.63-1.56-2.35
		C148.82,543.95,148.8,543.42,151.17,540.91z"/> <path d="M149.39,542.9c0.12-0.03,0.14,0.01,0.14-0.24C149.37,542.87,149.19,542.97,149.39,542.9z"/> <path d="M181.83,577.31c-0.02-0.01,0.01,0.04,0.01,0.16c0.03-0.03,0.05-0.06,0.08-0.08c-0.01-0.01-0.01-0.01-0.02-0.02
		c0.04,0.03,0.07-0.01,0.3-0.19c-0.13,0.03-0.25,0.08-0.37,0.12C181.83,577.3,181.83,577.3,181.83,577.31z"/> <path d="M182.2,577.16c3.77-1.09,10-5.83,10.77-7.38c0.47-0.71,0.38-2.05,0.19-2.88c-0.3,0.13-0.79,0.33-0.78,0.36
		C193.04,569.22,192.01,569.6,182.2,577.16z"/> <path d="M174.27,549.99c0.11-4.57-3.41-7.97-3.85-8.05c-0.29-0.06-0.77,0.03-1.47-0.01c3.53,5.07,2.24,2.64,4.95,8.36
		C174.11,550.12,174.26,550.05,174.27,549.99z"/> <path d="M174.09,541.37c2.23,5.1,1.41,2.8,2.48,8.13C179.28,548.29,176.97,540.13,174.09,541.37z"/> <path d="M199.58,561.61c-6.38,4.66-5.76,4.19-6.27,5.14c3.83-0.89,5.22-3.46,8.73-5.33C200.23,561.16,200.21,561.14,199.58,561.61z
		"/> <path d="M193.31,566.75c-0.06,0.01-0.11,0.02-0.16,0.04c0,0,0,0,0,0c-0.01,0,0,0.03,0.02,0.12c0.02-0.02,0.04-0.03,0.06-0.03
		c-0.01-0.01-0.01-0.01-0.01-0.01C193.24,566.89,193.23,566.85,193.31,566.75z"/> <path d="M145.76,528.53c1.32-1.55,1.72-2.52,2.17-3.89c-0.93,0.69-1.84,1.34-2.21,2.44C145.72,527.68,144.59,529.9,145.76,528.53z"/> <path d="M154.07,535.02c0.7,2.59,0.7,2.59,2.31,4.26C155.89,537.56,155.41,536.05,154.07,535.02z"/> <path d="M161.26,550.4c0.1-0.05,1.09-1.63,0.91-4.92C161.18,549.21,160.54,550.94,161.26,550.4z"/> <path d="M223.99,542.37c-1.31-0.13-2.33-0.24-3.11,0.89C222.17,543.76,223.12,543.48,223.99,542.37z"/> <path d="M151.54,571.17c0.25,3.17,0.04,2.74,0.65,2.7C152.01,570.72,152.23,571.21,151.54,571.17z"/> <path d="M164.11,537.05c0.11,0-0.83-0.85-0.91-0.92C162.8,535.81,161.38,536.51,164.11,537.05z"/> <path d="M174.24,562.47c0.17-0.21,0.43-0.72,0.31-0.96C174.35,560.28,174.29,561.79,174.24,562.47z"/> <path d="M174.23,562.47c-0.04,0.05-0.07,0.11-0.11,0.16C174.26,562.75,174.2,562.73,174.23,562.47z"/> <path d="M211.94,547.15C211.81,547.24,211.86,547.23,211.94,547.15L211.94,547.15z"/> <path d="M211.94,547.15C211.78,547.19,211.83,547.18,211.94,547.15L211.94,547.15z"/> <path d="M145.06,529.61C145.39,528.94,145.14,529.05,145.06,529.61L145.06,529.61z"/> <path d="M145.06,529.62C145.01,529.7,144.99,529.74,145.06,529.62L145.06,529.62z"/> <path d="M145.06,529.62c-0.01,0.06-0.01,0.08-0.01,0.08S145.05,529.67,145.06,529.62z"/> <path d="M157.42,534.28c0,0.22-0.09,0.27,0.37,0.7C157.91,534.38,157.72,534.45,157.42,534.28z"/> <path d="M170,562.73c-0.09,0.46-0.11,0.56,0.14,0.38C170.57,562.9,170.1,562.17,170,562.73z"/> <path d="M145.07,542.33C145.01,542.42,144.99,542.46,145.07,542.33L145.07,542.33z"/> <path d="M145.07,542.33C145.04,542.47,145.05,542.44,145.07,542.33L145.07,542.33z"/> <path d="M163.42,566.31C163.38,566.43,163.39,566.4,163.42,566.31L163.42,566.31z"/> <path d="M212.22,547.09c0.39-0.24,0.3-0.19-0.08-0.09C211.95,547.19,211.77,547.17,212.22,547.09z"/> <path d="M212.5,546.92c0.03-0.01,0.04-0.01-0.02,0C212.48,546.92,212.49,546.92,212.5,546.92z"/> <path d="M158.18,535.28c-0.16-0.05-0.22-0.09-0.15-0.02C158.06,535.28,158.13,535.27,158.18,535.28z"/> <path d="M158,535.22c-0.11-0.11-0.12-0.16-0.14-0.16c0.01-0.01-0.01-0.03-0.06-0.08c-0.01,0.06-0.03,0.11-0.03,0.16
		C157.85,535.17,157.93,535.19,158,535.22z"/> <path d="M164.86,537.81c-0.18-0.18-0.35-0.36-0.54-0.55C164.33,537.61,164.5,537.79,164.86,537.81z"/> <path d="M164.95,537.9c0.2,0.15,0.12,0.1,0.08-0.08C164.83,537.82,164.81,537.76,164.95,537.9z"/> <path d="M164.31,537.09c-0.29-0.05-0.21-0.04,0.01,0.17C164.32,537.2,164.31,537.15,164.31,537.09z"/> <path d="M149.15,543.08c0.08-0.08,0.19-0.2,0.09-0.15C149.21,542.95,149.19,543.02,149.15,543.08z"/> <path d="M180.51,566.08v-0.01c-0.09,0.1-0.17,0.14-0.07,0.11C180.6,566.13,180.61,566.17,180.51,566.08z"/> <path d="M163.64,543.08c0.03,0.04,0.14,0.04,0.21,0.05C163.73,543.03,163.46,542.78,163.64,543.08z"/> <path d="M317.82,511.73c1.75-3.33,0.74-6.45-0.79-5.35c-0.74,0.53-1.36,4.09-0.33,5.29C317.5,512.6,317.36,512.61,317.82,511.73z"/> <path d="M309.09,521.23c0.79,0.24,1.61-2.05,0.1-2.33C308.15,518.71,307.64,520.79,309.09,521.23z"/> <path d="M313.16,517.74c0.6-0.77,0.47-1.46-0.38-1.99C311,516.7,312.64,518.41,313.16,517.74z"/> <path d="M389.81,181.67c33.93,18.25,69.38,8.46,73.08-2.65c0.29-1.22,7.02-8.99,3.73-10.09c-0.09,0.21-2.25,4.92-4.26,7.6
		c-2.93,3.91-2.86,5.22-9.48,7.35c-32.34,10.45-58.4-2.62-61.61-3.31C390.48,180.4,390.01,180.87,389.81,181.67z"/> <path d="M483.84,198.91c1.18-1.34-2.44-8.87-4.41-14.44c-0.08-0.23-0.51-0.39-0.85-0.63c-0.04,0.44-0.19,0.81-0.1,1.13
		C483.87,200.4,483.18,198.5,483.84,198.91z"/> <path d="M402.44,202.24c-0.27,0.18-0.45,0.25-0.45,0.3c0.07,0.41,0.04,0.92,0.27,1.22c1.94,2.52,10,10.72,12.35,9.01
		C412.7,210.3,411.83,211.79,402.44,202.24z"/> <path d="M352.78,152.2c-0.65-0.58-1.5-0.59-2.31,0.87c1.67,2.03,4.5,7.18,6.06,6.2c0.08-0.1,0.22-0.2,0.21-0.28
		C356.43,156.11,354.8,154.02,352.78,152.2z"/> <path d="M392.69,205.45c-0.11-0.36-0.55-0.64-1.06-1.21c-0.07,0.82-0.24,1.32-0.12,1.71c0.7,2.25,0.86,4.74,2.77,6.46
		C394.66,210.87,393.16,206.96,392.69,205.45z"/> <path d="M414.64,202.84c-1.07,0.89-1.67,1.82-1.98,3.49C414.57,205.66,416.3,203.28,414.64,202.84z"/> <path d="M359.34,164.06c0.91,1.28,1.49,2.16,3.13,1.6C361.62,164.63,361.1,163.43,359.34,164.06z"/> <path d="M365.75,168.36c0.6,1.3,1.35,1.4,1.61,1.13C367.71,169.12,367.6,167.81,365.75,168.36z"/> <path d="M399.46,214.13c-0.1-0.1,0.11,0.3,0.41,1.09C399.9,214.79,399.81,214.41,399.46,214.13z"/> <path d="M399.34,213.91c0.02-0.03-0.04-0.02-0.21-0.11c-0.02,0,0.13,0.17,0.14,0.18c0,0-0.01,0.01-0.01,0.01
		c0.12,0.07,0.24,0.26,0.09-0.09C399.35,213.9,399.35,213.91,399.34,213.91z"/> <path d="M394.29,212.55c0.41,0.18,0.32,0.17,0.07-0.08C394.28,212.42,394.29,212.33,394.29,212.55z"/> <path d="M635.18,194.03c9.63-1.2,7.16-0.71,10.14-1.9c-0.98-0.57-1.33-0.88-1.73-0.98c-2.9-0.73-5.76-0.32-8.59,0.39
		C633.58,191.9,633.15,194.28,635.18,194.03z"/> <path d="M758.22,204.8c-0.1,0-3.39-1.57-7.45-0.13c-0.43,0.15-0.92,0.84-0.91,1.27C749.93,208.75,761.88,207.65,758.22,204.8z"/> <path d="M577.37,164.45c10.64,4.52,10.26,4.48,10.63,3.61c0.76-1.78-7.42-5.41-10.21-4.68
		C577.53,163.45,576.94,164.23,577.37,164.45z"/> <path d="M659.49,191.34c1.29,0.62,1.3,0.42,2.12,0.04c0.21-0.1,0.87-0.44,1-0.57c0.56-0.41,0.3-1.43-0.33-1.67
		C660.1,188.34,657.72,190.48,659.49,191.34z"/> <path d="M628.12,178.77c-0.41-1.49-3.74-1.33-4.13,0.34C625.8,180.22,626.38,180.27,628.12,178.77z"/> <path d="M746.89,207.18c-0.31-0.73-0.92-1.2-1.79-1.2C741.57,205.95,744.38,210.27,746.89,207.18z"/> <path d="M619.48,179.75c-1.51-0.49-2.52-1.08-3.22-0.49C614.72,180.59,617.78,182.99,619.48,179.75z"/> <path d="M592.04,170.58c-0.59-0.67-2.06-1.07-2.38-0.12C589.13,172.09,594.01,172.79,592.04,170.58z"/> <path d="M627.68,194.63c0.27-0.1,0.46-0.48,0.67-0.72C625.52,190.64,623.56,196.16,627.68,194.63z"/> <path d="M737.14,209.08c0.66-0.06,1.54-0.52,1.06-1.28c-0.22-0.35-0.6-0.66-0.99-1.13c-0.54,0.5-1.02,0.79-1.25,1.21
		C735.67,208.4,736.41,209.15,737.14,209.08z"/> <path d="M597.98,174.51c0,0-0.01-0.01-0.01-0.02c-0.53-0.88-0.81-0.9-2.26-0.42C595.52,176.19,598.83,176.2,597.98,174.51z"/> <path d="M653.79,190.74c-1.26-0.23-2.34-0.34-2.99,0.93C652.97,192.24,652.9,192.19,653.79,190.74z"/> <path d="M667.96,192.43c0.3-0.31,0.63-0.51,0.74-0.79c0.17-0.43-0.44-0.92-0.86-0.7C666.62,191.59,667.71,192.18,667.96,192.43z"/> <path d="M606.52,200.18l-0.19-0.02v0.01C606.43,200.42,606.37,200.43,606.52,200.18z"/> <path d="M345.93,226.02c1.01-4.02-0.68-5.31-1.14-5.81C340.57,225.36,344.65,231.09,345.93,226.02z"/> <path d="M362.33,232.32c0.85-4.29-1.41-4.12-1.7-3.19c-1.29,4.13-0.89,4.67-0.89,6.88C361.25,234.72,361.99,234.04,362.33,232.32z"/> <path d="M325.84,104.58c-1-0.83-2.1-1.33-3.94,0.22c2.27,0.96,3.42,2.64,5.53,3.28C327.95,106.27,326.84,105.41,325.84,104.58z"/> <path d="M332,118.09c1.42-1.46,1.33-3.33,1.5-4.17c0.03-0.27-0.76-1.05-1.25-0.56c-1.18,1.18-1.63,2.53-1.09,4.09
		C331.23,117.68,331.57,117.81,332,118.09z"/> <path d="M335.65,152.72c2.11,3.45,4.63,1.5,0.36-1.91C335.51,152.24,335.45,152.4,335.65,152.72z"/> <path d="M251.56,196.27c-1.11,0.06-2.09,0.78-2.51,1.53c-0.37,0.55,0.43,1.03,0.62,1.19C252.62,198.19,252.71,196.2,251.56,196.27z
		"/> <path d="M324.93,111.77c-1.01,0.98-1.17,2.53-0.9,2.97C325.32,116.9,327.29,111.67,324.93,111.77z"/> <path d="M346.46,115.79c0.47-2.29-1.07-3.15-3.38-3.46C343.71,114.32,344.95,115.13,346.46,115.79z"/> <path d="M340.09,159.92c-0.05-1.66-0.48-2.55-1.76-2.93C337.96,158.67,337.96,158.67,340.09,159.92z"/> <path d="M336.15,148.69c0.12-1.25-0.74-1.9-1.13-1.91C333.7,146.74,333.94,149.24,336.15,148.69z"/> <path d="M243.04,198.55c0.37-0.12,0.74-0.26,1.14-0.4C242.85,195.18,239.92,199.55,243.04,198.55z"/> <path d="M322.61,120c1.06-0.49,0.85-1.19,0.08-2.09C321.71,118.99,321.71,118.99,322.61,120z"/> <path d="M331.91,225.03c-0.36,1.55-0.36,1.55,0.77,2.27C333.18,225.84,333.17,225.84,331.91,225.03z"/> <path d="M342.49,213.48c0.5-0.73,0.5-1.23-0.34-1.48C341.52,211.83,340.9,213.44,342.49,213.48z"/> <path d="M177.6,209.57c0,1,0.15,0.76,0.53,0.81c0.6,0,1.3,0.98,0.89,0.64c-0.01-0.01,0,0-0.01-0.01c0.28,0.28-0.83,0.15-1.34-0.56
		c0.01-0.01,0.02-0.02,0-0.06c-0.02,0-0.05,0-0.07,0c-1.71-1.17-1.5-0.72-0.86-1.65c0.48-0.7,1.19-1.91,2.32-1.91
		c2.91-5.89,2.4-4.65,2.48-5.76c-0.6-0.58-0.92-1.69-2.45-1.56c0,8.73-3.4,5.4-4.51,10.19c1.83,2.7,4.08,4.54,6.76,6.55
		c1.07,0.8,3.58-0.11,3.68-0.12c0.25-0.03,0.55,0.25,1.11,0.54c-1.85,1.49-0.38,0.4-5.48,4.23c3.21,0,4.85-3.67,9.06-3.7
		c0.13,0,0.26-0.31,0.4-0.49c-0.48-1.12-4.66-0.09-0.84-3.11c4.67-3.69,2.97-1.13,7.58-3.24c1.95-0.89,0.44-4.53-3.11-4.66
		c-0.31-0.01-0.66,0.47-1.17,0.86c0.95,0.67,2.98,2.12,3.24,2.3c-0.66,0.28-1.07,0.62-1.46,0.6c-4.29-0.3-6.45,3.07-9.04,4.24
		c-0.92,0.42-3.01,0.71-4.02-0.04c-0.62-0.46-0.75-1.06-0.82-1.12c0,0-0.23-0.16,1.32,0.32c3.8,1.18,5.14-1.26,8.85-4.9
		c-2.71-3.42-2.53-3.06-4.87-1.47c-0.94-0.96-1.7-1.84-2.93-1.97C181.54,205.34,177.6,207.54,177.6,209.57z M180.26,208.47
		c0.54,0.39,1.06,0.79,1.63,1.21c0.65-0.97-0.42-1.56-0.33-2.56c1.86-1.43,1.35-1.71,2.6,0.32c0.81,1.32,1.71,1.66,3.11,0.69
		c-0.84,1.71-1.93,4.24-4.45,3.64c-0.65-0.16-2.35-1.32-2.9-2.72C179.86,208.93,180.11,208.7,180.26,208.47z M179.79,211.81
		c0.01,0.02,0.02,0.04,0.04,0.05C179.7,211.74,179.68,211.72,179.79,211.81z"/> <path d="M163.54,220.88c-0.01,0.01-0.03,0.02-0.06,0.03C163.58,221,163.59,221.02,163.54,220.88z"/> <path d="M165.9,195.07c-0.53,0.32-0.99,0.61-1.47,0.89c2.88,3.55,3.95,3.53,3.59,5.91c-0.86-0.89-1.21-1.26-1.38-1.85
		c0-0.09-0.16-1.54-0.27-1.66c-0.37,0.17-0.76,0.34-1.2,0.54c0.11,0.49,0.15,0.95,0.32,1.36c3.41,8.03-2.21,19.29-1.93,20.63
		c1.86-0.75,3.68-8.17,4.06-10.14c2.49-13.03,1.67-9.35-0.3-14.91c-0.74-2.1-2.35-3.44-4.05-4.71c-0.17-0.13-0.57,0.03-1.72,0.14
		C163.89,192.26,165.12,193.41,165.9,195.07z"/> <path d="M179.13,206.82c-0.01,0-0.03,0.01-0.07,0.01c-0.02,0.05-0.04,0.08-0.06,0.12c0.01-0.01,0.01-0.01,0.01-0.01
		c0,0,0.03-0.02,0.09-0.06c0.01-0.01,0.02-0.03,0.02-0.05C179.13,206.82,179.13,206.82,179.13,206.82
		C179.13,206.82,179.13,206.82,179.13,206.82C179.13,206.82,179.13,206.82,179.13,206.82z"/> <path d="M177.16,169.73c1.47-0.01,1.49-0.02,2.32,2.21c1.26-2.04,2.92-4.17,2.35-5.67c-1.6,0.51-0.41,0.7-6.28-1.46
		c-0.89-0.79-0.88-2.78-2.86-2.79c3,9.48-0.71,2.65,5.63,12.37C180.05,172.94,176.7,171.84,177.16,169.73z"/> <path d="M213.13,188.43c-2.38,2.38-2.79,12.06-13.83,13.04c-0.23,0.02-0.46,0.27-0.87,0.54c0.58,0.25,0.87,0.47,1.17,0.5
		C211.96,203.35,214.88,186.68,213.13,188.43z"/> <path d="M194.53,217.54c-0.82,0-0.97-0.05-1.05,0.01c-11.04,8.06-11.08,7.86-11.19,8.37c-0.27,1.25-0.48,1.23-7.27,6.79
		c3.81,0.35,7.55-6.04,17.75-13.09C193.31,219.24,193.79,218.43,194.53,217.54z"/> <path d="M157.64,192.66c2.61,2.64,1.12,4.72,0.36,10.78c1.55-2.16,2.29-4.74,3.05-7.53c1.48,0.49,1.47,2.3,3.22,2.46
		c-1.51-2.58-2.46-5.22-4.4-7.41c-1.32,1.37-0.71,1.22-2.41,0.69C157.51,192.41,157.37,192.39,157.64,192.66z"/> <path d="M148.41,176.02c-2.29,1-2.53,1-2.73,1.54c0-1.57,3.33-3.1,1.83-7.08c-2.86,0.28-3.71,8.33-3.51,11.19
		C149.38,176.01,148.51,177.1,148.41,176.02z"/> <path d="M148.47,224.81c-0.78-2.63-1.88-5.15-2.73-7.73c-0.9-2.72-1.16-5.54-2.53-8.11C143.1,213.38,145.23,222.98,148.47,224.81z"/> <path d="M151,182.06c-2.04-0.27-5.89,13.26-5.81,14.77C146.09,196.23,151.18,182.36,151,182.06z"/> <path d="M168.27,172.75c1.25-3.76-0.82-7.26-0.02-11.45c0.04-0.22-0.28-0.53-0.73-1.28c-0.52,1.25-2.15,5.78-1.19,6.74
		C166.83,168.68,166.68,170.91,168.27,172.75z"/> <path d="M150.11,196.33c0.01-0.01,0.02-0.01,0.05-0.02c0.02-0.07,0.03-0.11-0.08-0.07C150.14,196.29,150.13,196.31,150.11,196.33z"/> <path d="M150.11,196.33C150.09,196.34,150.1,196.34,150.11,196.33L150.11,196.33z"/> <path d="M150.2,196.21c1.4-0.19,1.08-0.61,0.79,2.87c3.94-6.53,2.13-7.26,0.79-9.38C151.78,189.81,151.96,188.9,150.2,196.21z"/> <path d="M174.08,196.22c1.78,2.8,2.28,5.71,2.36,9.01C179.09,202.23,177.65,196.73,174.08,196.22z"/> <path d="M192.85,223.27c-3.64,4.97-11.08,8.07-9.23,8.31c0.99,0,7.08-3.72,9.59-7.24C193.48,223.95,193.61,223.46,192.85,223.27z"/> <path d="M183.38,231.55c-0.03,0-0.07,0-0.09,0C183.38,231.66,183.35,231.65,183.38,231.55z"/> <path d="M170.86,197.25c-0.49-0.38-0.53-0.17-1.86-0.27c0.28,0.39,3.25,4.23,4.12,6.63C175.06,209,174.86,200.37,170.86,197.25z"/> <path d="M199.65,216.56c-6.12,4.57-6.21,4.55-6.31,4.96c-0.17,0.52,2.25-0.45,4.09-1.75c1.1-0.78,3.31-2.58,4.44-3.48
		C201.11,215.82,200.37,216.02,199.65,216.56z"/> <path d="M193.16,221.65C193.17,221.65,193.17,221.65,193.16,221.65c-0.01,0.05-0.03,0.08-0.04,0.11c0.09-0.02,0.13-0.02,0.12-0.03
		c0.01,0,0.02-0.03,0.04-0.1C193.24,221.64,193.21,221.65,193.16,221.65z"/> <path d="M147.73,179.45c-1.41,1.25-2.27,2.53-2.54,4.62c1.32-0.79,1.76-2.24,2.52-3.45C148.33,180.01,148.08,180.06,147.73,179.45z
		"/> <path d="M160.86,205.25c0.54,0.12,0.42,0.17,0.69-0.42c0.6-1.35,0.96-2.46,0.5-3.82C161.66,202.4,161.26,203.78,160.86,205.25z"/> <path d="M155.76,193.35c0.1-1.38-0.52-2.4-1.8-3.08C154.48,191.57,154.42,192.81,155.76,193.35z"/> <path d="M223.75,197.14c-0.99,0.23-1.83,0.43-2.67,0.63C223.04,198.46,223.04,198.45,223.75,197.14z"/> <path d="M151.69,228.85c0.45-1.03,0.7-1.93-0.19-3.08C151.58,227.07,151.64,227.96,151.69,228.85z"/> <path d="M174.24,217.35c0.07-0.1,0.15-0.21,0.21-0.32C174.6,216.78,174.5,214.65,174.24,217.35z"/> <path d="M138.03,204.48c-0.19,0.27-0.38,0.69-0.3,0.99C138.14,206.72,138.03,205.79,138.03,204.48z"/> <path d="M145.05,184.57c0-0.01-0.01-0.03,0.01-0.08C145.04,184.55,145.05,184.57,145.05,184.57z"/> <path d="M145.05,184.49c-0.01,0.03-0.03,0.06-0.04,0.07C145.01,184.59,145.02,184.57,145.05,184.49z"/> <path d="M145.07,184.16c-0.03,0.39-0.08,0.47,0.09,0.08C145.21,184,145.18,184.1,145.07,184.16z"/> <path d="M211.88,202.32c-0.25-0.05-0.39-0.07-0.53-0.1C211.46,202.47,211.35,202.44,211.88,202.32z"/> <path d="M149.33,197.97C149.29,198.08,149.28,198.12,149.33,197.97L149.33,197.97z"/> <path d="M145.06,197.24c0,0,0-0.01,0-0.02C145.06,197.32,145.05,197.34,145.06,197.24z"/> <path d="M145.06,197.22c-0.01,0.02-0.02,0.04-0.03,0.06C145.01,197.33,145.01,197.32,145.06,197.22z"/> <path d="M145.18,196.83c-0.02,0.01-0.05,0.03-0.08,0.05C145,197.56,145.21,196.93,145.18,196.83z"/> <path d="M183.23,231.68c-0.37,0.15-0.76,0.31-1.14,0.49C182.54,232.19,183,232.19,183.23,231.68z"/> <path d="M183.35,231.62l-0.06-0.07C183.25,231.67,183.17,231.71,183.35,231.62z"/> <path d="M181.86,232.16c-0.11,0-0.02-0.02-0.11,0.27C182.04,232.09,182.3,232.16,181.86,232.16z"/> <path d="M193.12,221.76c-0.63,0.08-0.55,0.13-0.74,0.27C192.87,222.18,192.84,222.42,193.12,221.76z"/> <path d="M149.5,197.28c0,0.03-0.01,0.39,0.01,0.36c0.75-0.43,0.58-1.4,0.58-1.29C149.91,196.42,149.5,196.61,149.5,197.28z"/> <path d="M149.4,197.71c-0.11,0.36-0.14,0.29,0.1,0.08C149.5,197.59,149.5,197.66,149.4,197.71z"/> <path d="M163.42,221.18c0,0.02-0.01,0.04-0.01,0.04C163.39,221.32,163.4,221.28,163.42,221.18z"/> <path d="M163.42,221.18C163.32,221.32,163.35,221.28,163.42,221.18L163.42,221.18z"/> <path d="M163.56,220.99l-0.08-0.08C163.41,221.24,163.36,221.27,163.56,220.99z"/> <path d="M155.85,194.04c0.05,0.61,0.43-0.15,0.32-0.15c-0.03-0.09-0.09-0.16-0.17-0.22C155.81,193.47,155.81,193.49,155.85,194.04z
		"/> <path d="M155.84,193.53c0-0.15-0.08-0.21-0.08-0.12C155.76,193.48,155.78,193.47,155.84,193.53z"/> <path d="M157.8,189.84c0-0.63-0.04-0.49-0.4-0.63C157.43,189.51,157.28,189.41,157.8,189.84z"/> <path d="M157.92,190.05c-0.04-0.04-0.08-0.1-0.03-0.15c-0.08-0.06-0.09-0.14-0.09,0.09C157.86,190.02,157.89,190.04,157.92,190.05z
		"/> <path d="M157.92,190.05C157.97,190.1,158.03,190.11,157.92,190.05L157.92,190.05z"/> <path d="M158.17,190.21C157.89,190.07,157.98,190.13,158.17,190.21L158.17,190.21z"/> <path d="M180.65,220.9c-0.24,0-0.18-0.03-0.31,0.23l0.19-0.14C180.57,220.96,180.61,220.93,180.65,220.9z"/> <path d="M385.86,51.46c-12.09-3.91-9.76-3.45-11.51-2.2C383.74,54.76,389.98,52.79,385.86,51.46z"/> <path d="M379.42,41.77c1.41-0.08,3,0.47,4.54-1.62c-2.58,0.06-4.57-0.23-6.62,0.55C378.45,41.75,378.46,41.82,379.42,41.77z"/> <path d="M404.97,61.44c0.92,0.71,1.26,0.77,2.65,1.02c-0.04-1.44-1.33-2.46-2.53-2.23C403.57,60.54,403.41,60.24,404.97,61.44z"/> <path d="M394.57,56.48c1.21-2.53-1.38-2.3-1.55-1.63C392.74,55.7,393.64,55.96,394.57,56.48z"/> <path d="M399.54,58.55c0.27,0.04,0.59-0.16,1.23-0.37c-0.62-0.39-0.95-0.67-1.33-0.83C398.8,57.08,398.42,58.39,399.54,58.55z"/> <path d="M372.53,42.89c-0.71-0.64-0.44-0.67-1.11-0.04C372.15,43.3,371.79,43.3,372.53,42.89z"/> <path d="M316.87,161.54c-0.75,2.23-1.14,4.11,0.66,6.18C320.47,160.6,317.17,160.67,316.87,161.54z"/> <path d="M308.89,176.22c1.06-0.09,0.96-0.81,1.06-0.81c0-0.3,0.38-0.42,0.02-0.85C308.12,172.34,307.82,176.31,308.89,176.22z"/> <path d="M312.75,170.88c-0.84,1.02-0.84,1.02-0.03,2.06C313.66,172,313.44,171.79,312.75,170.88z"/> <path d="M508.06,85.64c-0.68-0.01-1.35,1.02-1.35,1.35c0.06,2.2,10.11,1.21,7.85-0.9C514.21,85.75,514.31,85.7,508.06,85.64z"/> <path d="M491.24,88.12c-0.73,0.37-0.62,0.84,0.12,0.88c0.2,0.01,0.4-0.16,0.61-0.24C491.38,87.9,491.45,87.98,491.24,88.12z"/> <path d="M501.77,88.14c0.39,0.67,0.09,0.67,1.16,0.19C502.47,87.52,502.68,87.65,501.77,88.14z"/> <path d="M496.07,88.17l0.03-0.23l0.01-0.01C495.72,88.04,495.72,87.97,496.07,88.17z"/> </g> </svg> 