<?xml version="1.0" encoding="utf-8"?> <!-- Generator: Adobe Illustrator 23.0.1, SVG Export Plug-In . SVG Version: 6.00 Build 0)  --> <svg version="1.2" baseProfile="tiny" id="Layer_1" xmlns="http://www.w3.org/2000/svg" xmlns:xlink="http://www.w3.org/1999/xlink" x="0px" y="0px" viewBox="0 0 900 600" xml:space="preserve"> <g> <path d="M609.24,236.03l0.1-0.1C609.32,235.93,609.26,236.01,609.24,236.03z"/> <path d="M612.19,98.57c-0.22-0.04-0.23-0.06-0.1,0.1L612.19,98.57z"/> <path d="M592.1,87.8c0.04-0.01,0.08-0.02,0.13-0.02c0.14-0.18,0.31-0.35,0.48-0.51C592.5,87.42,592.3,87.6,592.1,87.8z"/> <path d="M585.95,593.61c-0.21,0.01-0.42,0.02-0.62,0.03C585.53,593.94,585.73,593.84,585.95,593.61z"/> <path d="M693.69,575.87c0.96-2.69-1.07-7.05-5.29-7.43c-2.95-0.27-5.79-1.26-8.85-1.02c-3.03,0.24-4.44-0.94-12.31-3.56
		c-2.18-0.73-1.82-1.23-5.6-5.7c0-105.11,2.57-105.28,1.32-106.73c2.05-3.81,3.61-5.8,2.44-8.14c-0.9-1.5,0.63,1.09,1.93-15.16
		c0.09-1.12-0.1-2.14-1.02-2.95c1.53-4.88,2.03-9.97,2.54-15.06c0-3.14,10.86-31.86-1.93-83.84c-0.86-3.48-1.88-6.29-1.93-9.77
		c-0.12-8.03-1.89-9.89-1.93-13.33c-0.21-15.78,0.1-6.5,1.73-39.99c0.26-5.38,7.01-11.4,7.43-24.01c0.08-2.44,1.02-4.68,0.41-7.12
		c0.04-0.1,2.46-8.18,7.12-13.43c2.58-2.91,4.67-6.8,4.17-10.68c-0.43-3.35,1.32-10.08-5.09-16.48c-1.66-1.66-9.65-9.35-11.29-10.58
		c-0.79-15.04,0.17-2.35,1.93-18.01c1.61-14.32,8.54-15.32,9.36-38.36c0.22-6.31,0.13-11.94,1.83-22.69
		c5.02-31.79,1.54-13.34,1.63-25.64c0.11-15.62-1.99-22.44-1.53-49.55c0.02-1.42-0.61-2.54-1.42-3.66c0.2-1.02,0.41-1.93,0.51-2.85
		c0.4-3.91-2.13-5.6-5.6-5.6c-1.53-1.83-1.53-1.83-4.78-1.53c-1.83-1.22-4.17-1.63-5.9-3.15c-1.32-1.32-7.07,0.41-8.34,1.02
		c0.31,2.5,2.14-1.05,5.19,2.14c0.1,0.1,0,0.41,0,0.61c-0.92,0.51-1.63-0.09-2.34-0.41c-2.98-1.32-5.77,0.15-9.06,0.51
		c-3.32,0.36-3.82,4.4-2.75,7.63c4.57,13.71,3.93,16.24,8.24,25.44c3.28,7,2.27,7.47,4.99,8.95c-1.66,4.31,0.41,1.71,0.41,6.51
		c0,45.37,0.15,42.11-2.44,49.25c-1.53-1.73-2.24-3.56-2.65-5.8c0.51-0.31,1.12-0.71,1.73-1.22c-0.51-0.41-1.02-0.71-1.53-1.02
		c3.05-3.76,2.39-7.71,0.41-11.7c-4.01-8.06-4.74-15.31-14.55-17.5c-4.78-1.07-10.47-4.95-26.76-2.24
		c-4.55,0.76-3.4,1.25-13.43,9.46c-14.05-0.85-10.22,0.22-10.99-4.38c-0.36-1.43-2.7-23.28-3.05-25.95
		c-0.49-3.69-1.49-7.28-1.73-8.75c-1.23-7.5,3.72-7.95,7.94-20.04c2.08-2.08,4.4-0.3,4.68-6.21c0.09-1.92,0.62-5.47,0.41-7.43
		c-0.82-4.1-3.15-0.75-5.7-7.43c-3.31-0.47-4.84,0.59-7.22-0.81c-0.2-0.2-0.71-0.2-1.02-0.1c-2.17,0.9-5.38-1.84-7.83,0.81
		c-0.55-0.07-3.51-0.63-3.87-0.1c-1.42,1.63-3.26,1.12-4.99,1.22c-1.92,0-2.04,1.1-2.54,4.38c-0.97,6.26-1.96,9.55-0.92,14.55
		c3.96,18.98-0.21,17.03,3.56,20.04c-1.58,7.88-2.61,13.54-2.03,21.57c0.43,5.92,2.75,25.7,3.97,31.54
		c2.29,10.93,1.2,0.22,2.34,39.58c7.03,242.41,5.77,139.01-2.44,187.42c-4.29,25.31,4.61,29.79,7.83,48.74
		c0.98,5.75,2.04,80.65,2.85,94.12c0.47,7.92-5.33,9.55-4.38,27.68c0.77,14.68,0.43,18.67,3.76,30.02
		c1.75,4.66,2.71,25.13,2.03,33.07c-0.09,1.02-0.81,1.73-1.73,2.34c-0.31-0.2-0.71-0.51-1.12-0.71c-0.17,0.17-0.16,0.35,0.51-1.12
		c0.61-0.41,1.12-0.92,1.63-1.32c-0.31-1.32-0.93-1.85-1.73-1.32c-5.47,3.62-2.61,4.19-8.04,19.33c-5.64,15.74-1,2.59-4.68,17.3
		c5.9,1.97,10.32,4.44,19.13,4.14c-1.59-2.43-2.47-31.31-6.62-228.19c-0.61-29.16-5.49-218.43-5.49-234.74
		c0.69,0.69,2.5,7,2.03,10.58c-0.01,0.1,12.74,438.49,11.7,451.26c-0.38,0.19-0.71,0.74-1.01,1.05c0.27-0.01,0.53-0.02,0.8-0.04
		c5.24-0.34,3.22,2.91,11.8,4.27c18.03,2.85,18.84,1.8,37.14-1.42c1.46,0,5.05-2.76,6.41-4.38c2.66-3.16,0.4-3.02,1.02-4.88
		c0.72-3.61,1.06-5.42-2.95-6.31c-6.98-1.54-9.73-1.63-17.6-10.38c-1.95-1.95-2.23-5.66-6.61-8.04c2.67-3.01,4.38-4.59,4.68-7.02
		c0.18-1.43,1.22-2.44,1.93-3.87c1.66,2.77-0.48,3.47,4.99,7.73c3,2.33,4.77,0.03,15.77-6.51c0.92-3.69-0.4-1.31,4.78-6.92
		c0.41,0.41,0.92,0.61,1.02,1.02c2.08,5.46,5.64,5.85,2.34,6.51c-2.05,0.29-4.48,0.98-4.48,3.05c0,0.31,0.41,0.71,0.81,1.22
		c2.34-0.92,4.68-1.83,6.92-2.75c0.41,0.41,0.71,0.51,0.92,0.81c2,2-0.17,1.66-2.75,2.24c-2.19,0.49-1.34,2.91,0.2,2.75
		c3.11-0.32,4.97-0.89,5.49-1.02c2.64,2.64,2.36,1.11-1.12,2.85c-1.79,0.89-0.97,2.69,0.51,2.44c0.89-0.1,2.65-0.65,4.27-0.92
		c1.53,2.29,1.1,1.62,2.95,1.93c2.33,0.21,4.98,0.89,6.82,1.83c4.63,2.37,4.98,0.98,16.79,3.05c2.12,0.37,1.69,0.63,3.76,8.34
		c-11.23,9.83-13.5,4.76-30.73,6.92c-2.54,0.32-11.45-3.07-16.69-1.32c1.86,3.25,2.48,1.48,5.6,2.24
		c26.16,6.39,32.42,0.47,32.66,0.41c4.88-1.53,7.12-2.85,10.58-6.61C693.39,579.33,693.08,577.6,693.69,575.87z M582.78,590.73
		c0.01,0.51-0.31,1.02-0.41,1.53c-4.58,0.41-9.56-0.71-13.63-3.05c0.17-0.81,3.05-16.1,5.19-18.72c3.92-4.8,0.62-7.78,3.87-12.92
		c1.39,8.33,1.78,7.05,1.53,8.24c-0.34,1.61,1.59,2.27,2.54,2.75C582.3,569.41,582.45,566.98,582.78,590.73z M580.34,513.09
		c-1.84-8.72-0.93-8.11-1.83-21.16c-0.24-3.46,0.1-6.82,1.22-10.68C580.55,486.64,581.05,509.84,580.34,513.09z M576.78,364.23
		c-0.41-2.24-0.2-4.68-1.12-6.92c-0.1-0.31,0.51-0.92,0.81-1.42C577.09,358.84,577.49,361.49,576.78,364.23z M576.78,353.35
		c-0.61,0.41-1.32,0.92-2.34,1.53c-6.54-13.07-0.21-44.41,1.02-46.09C576.07,312.14,577.19,349.28,576.78,353.35z M664.39,254.34
		c-4.79,7.71-3.51,13.91-3.66,23.2c-0.07,4.13-0.47,19.53-2.85,23c-2.95,0.41-18.82,0.1-22.28-0.41c-0.24-2.04-0.02-1.5-20.04-7.22
		c-0.61-1.93-0.61-3.97-2.34-5.7c1.03,9.79,4.41,3.87-23.71,0.1c1.73-3.46,3.25-6.72,4.88-9.87c4.22-8.17,6.73-19.36,6.21-20.76
		c-1.46-4.7,1.87-8.81,0.81-16.18c-0.41-2.87-1.22-1.79,7.92-4.57c1.83-2.32,49.77-7.92,51.2-6.01c1.3,2.08,5.56,1.07,9.67,3.36
		C668.74,248.2,668.58,247.59,664.39,254.34z M673.24,190.55c9.38,7.26,11.31,20.24,3.76,28.69c-3.66,3.66-1.68,1.96-3.05,4.58
		c-1.08,2.06-2.24,3.97-3.36,6.1c-13.49-4.5-14.03-2.99-34.9-1.02c-5.56,0.53-24.27,1.99-31.44,6.1c-0.78,0.45-3.54,1.51-3.97,0.71
		c-9.08-17.09-11.79-19.24-8.55-18.21c7.23,2.29,11.97-3.24,15.16-5.39c3.3-2.23,5.21-6.18,6.61-9.97
		c1.59-4.28,7.09-7.47,7.43-17.09c0.52-14.68-8.9-17.29-8.65-24.2c5.15,3.09,13.46,12.29,13.94,13
		c7.14,10.58,32.37,14.14,33.78,6.61C660.01,178.09,660.82,180.94,673.24,190.55z M670.29,14.93c2.2,0,0,0.98,1.42,1.93
		c1.73,0,3.76-0.31,5.6,1.32c0,0.81,0,1.73-0.1,2.75c-1.53,0.51-2.64,0.5-3.76-0.51C669.97,17.32,670.29,21.25,670.29,14.93z
		 M666.83,14.32c2.24,2.14,2.24,2.34,0.51,4.78C666.42,17.47,666.52,16.05,666.83,14.32z M661.44,11.16
		c3.86,1.67,4.29,4.56,2.75,6.61c-2.76-1.84-1.5-0.38-3.66-6.51C660.83,11.27,661.13,11.06,661.44,11.16z M654.52,30.6
		c3.46,0.31,6.41,1.32,9.36,2.85c-0.29,4.28-0.73,28.06-2.95,21.88C659.14,50.34,654.59,31.13,654.52,30.6z M661.74,60.11
		c-0.35,4.21-0.2,3.66-0.61,3.66c0-5.03-0.16-4.99,0.51-4.99C661.64,59.19,661.74,59.7,661.74,60.11z M658.69,116.17
		c-0.77-4.54,1.88-5.64,4.38-15.57c0.29-1.17-0.48-10.62-0.61-11.8c-0.69-6.28-0.51-7.95,3.36-45.69c0.38-3.68-1.11-1.47-0.61-6.61
		c0.09-0.92,0.61-1.63,1.12-2.65c-0.51-0.61-0.92-1.32-1.63-1.73c-3.78-2.21-9.06-3.97-11.7-4.07c-0.1,1.53,0.1,2.95,0.51,4.48
		c4.95,18.67,3.6,22.74-4.38-6c-0.75-2.72,0.34-0.74-1.02-5.49c-0.73-3.29-0.08-5.33,3.05-4.17c0.25,2.27,0.65,1.38,0.2,5.39
		c2.45,0.71,1.78-0.08,1.42,3.05c1.83,0.51,3.15-0.1,4.38-1.12c0.31-3.66-2.54-6-4.07-9.16c0.81-0.1,1.53-0.51,1.93-0.31
		c2.65,1.02,5.6,1.42,7.53,3.76c0.2,0.31,0.51,0.51,0.81,0.61c2.34,0.51,4.47,2.3,7.12,2.03c2.92-0.29,2.9,3.46,4.58,4.38
		c0.41-0.31,0.81-0.51,1.22-0.81c1.73,0.81,2.32,2.24,2.14,4.07c-0.45,4.47,0.41,9.06-0.51,13.53c0.77,47.55,5.5,31.06,0.71,57.59
		c-0.33,1.83,0,3.87-1.53,5.39c-0.97,0.97-0.63,18.75-2.65,30.02c-3.45,19.3-3.93,12.76-5.8,19.74c-1.21,4.51-1.79,9.28-2.44,11.19
		c-4.27,12.49-1.3,14.13-4.07,12.01c-7.8-5.97-6.09-15.69-8.75-19.23c-1.67,2.09,1.12,7.34,1.02,8.24c-1.34,0.4-4.45-4.23-9.36-7.53
		c-1.41-0.95-2.57-2.11-3.76-3.26c-0.83-0.8-1.42-1.63-1.22-2.85c2.8-1.6-0.19,1.01,7.73-7.12c1.78-1.82,1.64-2.78,2.54-6.41
		c5.61-1.4,5.54-4.19,4.17-8.75c1.83-1.32,1.12-2.85,0.41-4.07c1.29-4.18,1.3-1.38,0.41-6.72
		C657.23,119.19,659.04,118.26,658.69,116.17z M654.11,20.63c0.9,0.75,0.19,1.12-0.81,1.95C653.28,21.82,653.17,21,654.11,20.63z
		 M639.87,150.56c-1.32-4.07-1.53-8.14-0.71-11.09c3.05,0.41,6,0.71,9.67,1.12c-1.76,2.93,0.87,0.56-8.04,9.46
		C640.58,150.25,640.17,150.36,639.87,150.56z M645.77,85.14c0.92,0.61,1.83,0,2.65-0.2c4.31,1.85,3.02,6.74,6.61,14.14
		c1.87,3.37-8.48,1.12,1.83,16.59c0.95,1.42-0.69,2.94-2.95,2.24c-1.23-0.38-2.03,0.2-2.65,1.63c2.36,0.34,1.5-0.86,3.05,4.58
		c-1.59,3.17-6.66,0.42-6.92,2.24c1.53,1.73,3.56,0.51,5.39,0.81c0.51,0.51,0.92,1.02,1.42,1.63c-0.06,0.1-1.75,2.44-1.83,2.54
		c0.41,1.12,0.82,1.93,1.02,2.85c0.31,1.42-0.3,3.06-1.42,3.36c-8.66,2.31-4.87,0.27-12.62,0.71c-3.27,0.19-3.13,3.1-3.05,6.21
		c0.44,17.9,8.81,15.72,18.01,27.47c1.2,1.54,2.19,3.25,2.14,5.49c-0.02,1.06,1.44,3.18,0.92,3.97c-0.1,0.1-0.31,0.41-0.51,0.41
		c-8.21,1.13-6.82,0.86-19.54-2.44c-8.18-2.12-9.54-7.85-11.4-9.67c-13.14-12.91-8.34-8-10.39-10.08c-3.99-2.58-5.59-3.6-6.3-5.08
		c-0.96-2.02-2.24-3.97-2.65-6.21c2.72-7.83,1.83-12.32,1.83-18.42c1.12-1.32,3.36-1.32,2.75-3.56c-4.68,0-3.75-1.36-4.68,0.51
		c-1.73-2.34-1.73-2.34-1.83-4.27c7.89,2.63,6.01,1.08,8.75,4.99c3.3-0.6,4.59-0.16,4.07-3.46c-0.71,0.51-1.32,0.92-2.03,1.42
		c-0.92-0.31-1.74-0.71-2.34-1.53c-7.51-10.26-5.9-7.79-6.21-9.97c2.93,0.98,1.79,0.08,2.95,3.56c0.77,1.94,3.45,3.62,3.66,1.22
		c-0.81-1.63-2.65-3.05-2.03-5.6c0.61-0.61,1.22-1.32,1.93-2.14c2.24,1.42-0.41,2.54,0,3.76c0.71,1.42,1.32,2.95,1.93,4.48
		c1.32-0.51,1.83-1.42,2.24-2.65c-0.81-0.71-1.63-1.42-2.44-2.14c1.03-3.3,1.05-4-2.54-6.61c-2.79-2.03-3.21,0.2-5.09,4.58
		c-0.61-2.24,0.19-3.88,1.22-5.19c1.7-2.16,3.37-3.57,5.9-0.2c2.73,3.62,6.8,4.01,7.53,1.32c-1.22,0-2.44,0-3.87,0
		c4.68-2,1.76-0.19,11.7-7.83c-0.2-0.31-0.61-0.71-0.51-0.92c0.63-1.31,0.92-2.95,2.44-3.46c-0.2-2.85,2.03-5.39,0.71-7.94
		c-1.32-0.71-2.65,0.2-4.17-0.71c1.42-0.71,2.54-1.64,3.66-1.73c1.52-0.12,3.26-0.81,4.78,0.51c1.07,0.36,1.82-0.6,2.36-1.23
		c1.62-0.68,2.73,0.72,4.35,1.23C645.93,84.84,645.72,85.03,645.77,85.14z M610.46,161.55c-0.07-0.22-0.13-0.41-0.17-0.6
		C610.77,161.28,610.46,161.34,610.46,161.55z M610.13,160.56c-0.38-0.54-0.36-0.6-0.08-1.25
		C610.05,159.8,610.1,160.21,610.13,160.56z M596.52,114.54c0.03-2.03-3.75-8.81-1.63-17.6c0.1,1.42,0.19,2.55,0.31,3.56
		c1.97,16.64,0.64,5.85,2.65,13.53c0.15,0.59,1.11,1.95,2.24,8.75C598.05,119.93,596.47,117.59,596.52,114.54z M599.17,124.92
		c-0.13,0.38-0.07,0.4-0.2,0H599.17z M598.25,107.32c7.42,1.48-0.61,0.34-0.61-4.27c2.34,1.63,4.78,3.05,7.63,3.05
		c-0.5-0.29-9.84-4.69-7.22-6c1.32,0.41,2.64,1.03,4.07,1.12c4.17,0.25,7.94,1.73,12.01,2.04c0.2,0,0.41,0.41,0.61,0.61
		c-0.71,0.81-1.33,0.62-2.04,0.31c-2.88-1.28-6.2,2.01-6.61,5.49c-0.59,4.94-1.37,4.5,0.51,7.33c0.51,0.92,1.53,1.63,1.63,3.05
		c-1.48-0.49-2.57-0.98-3.74-1.38c-1.46-2.21-1.98-1.86-0.12-2.49C601.91,113.52,598.35,111.69,598.25,107.32z M611.07,97.35
		c0.2-0.1,0.31-0.2,0.41-0.2c8.05,1.46,6.95,2.69,9.56,2.24c4.12-0.72,3.69-0.71,5.19-0.71c-1.61,1.88-4.65,1.52-7.63,2.75
		c-3.88,1.59-6.46,0.25-16.08-2.54c-0.66,0.66-0.64,1.74-4.68-1.63c0.1-1.73-0.1-3.36,0.81-4.99c2.94,1.59,9.58,5.89,13.34,6.28
		C611.72,98.15,611.44,97.71,611.07,97.35z M622.87,93.89c0.5-0.25,0.45-0.49,1.22-0.1C623.6,94.03,623.65,94.27,622.87,93.89z
		 M625.21,94.39c2.44-0.51,3.87-2.75,6.31-1.93C630.2,94.29,628.47,94.9,625.21,94.39z M610.66,122.68
		c-3.76-0.61-3.76-0.61-5.8-2.34C609.74,120.34,609.67,121.54,610.66,122.68z M604.15,118.76c-1.14,0.88-1.34,0.77-1.82-0.56
		C602.96,118.37,603.55,118.58,604.15,118.76z M602.21,123.59c0.1,0,2.39,2.83,1.54,5.4c-0.14,0.41,0.61,0.92,0.51,1.02
		c-0.41,0.51-0.71,1.02-1.42,1.93C602.02,128.83,602.01,126.2,602.21,123.59z M604.46,132.14c0.85-1.13,2.03-0.47,2.03,0.31
		c0.31,3.87,0.2,7.73-0.92,11.9c-0.31-0.41-0.61-0.61-0.71-0.92C603.53,137.02,602.35,134.46,604.46,132.14z M609.54,112.2
		c0.75-1.69,1.53-3.83,2.65-2.44C611.99,111.08,610.97,111.79,609.54,112.2z M642.51,82.75c0.68,0.39,1.42,0.8,1.53,1.77
		C642.39,85.14,642.48,83.81,642.51,82.75z M642.39,82.66c-1.27-0.31-2.43-0.72-2.73-2.11c-0.59,0.1-1.19,0-1.41-0.66
		c0.71,0.33,1.36,0.65,1.41,0.66C640.87,80.86,641.88,81.46,642.39,82.66z M634.47,74.96c0.81,0,1.63-0.31,2.14,0.71
		c1.02-0.1,1.93-0.1,2.54,1.32c-1.32,0-2.14-0.2-2.54-1.32C635.69,75.88,634.98,75.88,634.47,74.96c-0.41-0.1-0.71-0.1-1.12-0.2
		C633.96,74.25,634.27,74.45,634.47,74.96z M638.17,79.85c-1.27,0.16-1.11-0.45-1.78-0.74C636.24,78.97,637.23,79.42,638.17,79.85z
		 M631.22,73.74c-0.43,0.11-0.64,0.34-1.12,0.1C630.4,73.84,630.61,73.84,631.22,73.74z M630,75.16c1.91,0,1.63-0.07,1.63,0.2
		C629.75,75.37,630,75.45,630,75.16z M627.86,74.66c-2.75,0.1-5.6,0.31-8.45-0.71C622.36,73.43,625.11,74.35,627.86,74.66z
		 M621.14,76.69c0-0.15-0.51-0.1,4.58-0.1C625.66,76.59,626.45,76.69,621.14,76.69z M616.56,74.45c0,0.26,0.08,0.23-0.31,0.1
		L616.56,74.45z M615.34,76.18c-0.31,0.62,0.68-0.12-1.63,1.42c7.73,1.93,7.32-2.06,22.18,4.48c0.91,0.3-0.59,0.81,2.65,0.81
		c0.27,0.65,1.13,1.13,0.82,1.97c-1.01-0.75-2.27-0.89-2.86-2.08c-9.05-2.59-7.82-2.26-8.85-2.44c0.56,2.93-0.75-1.26-4.68,0.41
		c-1.09,0.46-6.87-1.26-13.94-2.44C610.87,76.08,612.8,75.16,615.34,76.18z M629.69,81.68c-0.82,0.55-1.24,0.27-1.61-0.09
		C628.54,81.6,629.07,81.68,629.69,81.68z M602.12,87.07c0.03,0,0.07,0,0.1,0c-2.48-1.98-2.16-1.22,2.65-5.8
		c1.09-1.04,2.34-1.4,3.87-1.22c5.28,0.62,12.38,0.58,14.96,1.93c-0.23-0.23,1.96-1.29,3.46,0.71c0.85,0,1.3,0.52,0.2,0.6
		c0-0.52,0.39-0.67-1.93-0.09c2.16,0.27,1.93,0.61,1.93,0.21c2.43,1.23,3.19,1.52-1.53,1.01c-3.89-0.42-2.69,1.03-6.31,0
		c-4.16-1.19-7.64-1.91-11.9-2.34c-1.9,0-3.64,1-2.34,2.14c5.39,0,15.67,2.14,19.13,3.97c-4.9,3.27,3.75,2.35,7.43,0.51
		c0,4.24-1.16,1.36-6.51,3.05c-4.87,1.54-9.3,2.17-20.35-3.26c1.7,1.03,1.6,0.27,0.8,2.04c-2.14,0-3.56-1.22-5.08-2.34
		c-0.2-0.1-0.1-0.51-0.31-1.12C601.21,87.07,601.64,87.07,602.12,87.07z M627.76,87.27c-0.53,0.53-0.66,0.25-2.03-0.2
		c0.1-0.2,0.1-0.31,0.2-0.51C628.05,86.56,626.88,86.39,627.76,87.27z M599.88,89.31c5.87,2.93,8.05,4.57,10.84,4.09
		c-0.72-1.52-4.07-1.13-4.84-2.69c2.64-0.35,5.97,2.72,14.56,4.29c0.51,0.09,0.92,0.31,0.61,1.12c-2.76,0.32-3.19,1.73-10.99,0
		c-1.23-1.23-1.02,1.09-7.22-2.75C600.04,91.66,598.3,90.66,599.88,89.31z M599.47,83.81c-2.74,4.62-0.16,1.19-3.87,0.51
		c-1.22-0.22-2.3-0.2-6.31-0.2C592.96,82.39,596.01,83.41,599.47,83.81z M592.89,87.12c-0.06,0.04-0.12,0.1-0.18,0.15
		c1.72-1.22,3.59-0.57,5.19-0.71c-2.1,4.91-2.44,1.76-5.25,8.94c-0.31,0.61-0.51,1.32-0.92,2.24c-1.5-2.91-2.21-5.54-0.94-8.45
		c0.63-0.04,0.82-0.8,0.72-0.8c0.19-0.27,0.39-0.49,0.59-0.69c-0.39,0.05-0.62,0.3-0.66,0.7c-0.43,0.03-0.69,0.31-0.71,0.74
		c-1.82,0.84-1.25,0.11-1.84-1.67C591.16,85.31,592.77,87.05,592.89,87.12z M583.9,33.04c-0.1-0.41-0.41-0.71-0.31-0.81
		c2.61-7.24,2.95-9.69,6.82-9.26C589.41,25.34,585.59,31.77,583.9,33.04z M567.62,4.86c3.34,0.42,2.16-0.56,3.05,2.34
		c0.52,1.69,2.92,2.98,3.36,1.02c-0.98-1.47-2.38-1.17-1.73-3.66c0.34-1.32,2.06-1.36,3.36-0.71c-0.55,3.59-0.98,6.21,1.22,7.12
		c0.41,0.1,0.81-0.1,1.53-0.1c-2.44-3.05-0.61-5.8-0.31-8.85c5.38,0.98,2.14-0.95,2.14,5.09c-0.1,1.42-0.1,3.05,1.63,4.27
		c0.96-9.57,0.37-8.55,3.97-8.55c0.51,0.81,1.02,1.42,1.53,2.24c-0.31,0.61-0.41,1.53-0.92,1.73c-1.62,0.54-1.07,0.86-2.65,4.78
		c-11.65,5.24,0.08,0.71-16.65-1.11C566.79,8.62,566.56,6.7,567.62,4.86z M567.32,27.44c-3.13-12.06-2.22-12.13-0.85-15.77
		c1.06,2.75,0.12,6.72,0.96,10.38C567.84,23.88,567.73,25.61,567.32,27.44z M573.02,107.52c0.22-3.18,0.25-8.89-1.73-11.4
		c-0.73-0.73-2.54-14.46-2.65-15.47c-3.5-32.8,0.93-30.29,0.71-41.92c-0.28-14.99,1.19-15.2,0.41-19.94
		c-0.29-1.73-0.31-3.56,0.1-5.39c2.65-0.92,4.48,0.61,6.41,1.42c1.27,4.45-0.49,1.69,3.97,0.2c4.91-1.97,4.53-4.05,8.75-4.38
		c1.89-0.14,2.86,0.4,4.48-0.41c-0.61-1.93-2.65-1.12-3.66-2.14c-0.41-1.12-0.1-2.03,0.81-2.95c1.73,1.12,3.56,2.24,5.39,3.36
		c-1.47,12.29,1.35,10.22-9.77,12.72c-1.95,0.44-4.61,4.99-4.88,10.17c-0.12,2.37,1.65,14.72,3.15,27.27
		c3.01,25.09-0.89,26.42,2.14,29.71c1.22,1.32,1.32,2.75,1.22,4.27c0,0.41-0.51,0.81-0.81,1.32c-0.81-1.02-0.51-2.65-2.34-2.44
		c-0.41,2.14,0.1,4.17,1.73,7.22c0.54-0.6,1.67-4.9,2.65-2.95c3.64,11.75,1.52,8.62,3.46,17.81c0.78,3.72,2.95,9.98,12.52,38.66
		c-0.41,0.71-0.71,1.22-1.02,1.83c3.61,4.13,2.31,8,7.73,13.02c5.04,4.67,9.74,14.81,5.39,24.83c-0.71-0.1-1.12-0.2-1.63-0.2
		c-1.91,5.1-8.57,19.32-13.74,20.96c-4.39,1.39-8.85,3.15-13.84,0.81c-4.81-10-7.89-23.12-6.21-34.09
		c1.11-7.23-3.89-24.62-2.65-28.69C580.66,145.73,572,122.26,573.02,107.52z M585.05,212.32c0.09-0.27,0.18-0.55,0.27-0.92
		C585.86,212.5,585.53,212.32,585.05,212.32z M578.82,180.17c0-13.13-0.16-15.96,0.81-1.83
		C579.63,179.05,579.63,179.76,578.82,180.17z M579.32,196.14c0.87-0.87,5.22,17.81,6.31,17.81c0-0.38,0.06-0.76,0.13-1.18
		c0.38,0.73,0.79,1.48,0.99,2.3c2.43,9.9,7.92,15.33,9.46,21.77c1.61,6.75,2.66,8.57,2.14,13.74c-1.65,16.41,0.43,19.16-16.48,40.9
		C581.24,291.06,578.99,196.48,579.32,196.14z M584.72,407.78c3.41,8.92,10.98,22.61,1.12,42.33c0,0.1-0.2,0.1-0.81,0.31
		C585.02,424.19,583.46,408.86,584.72,407.78z M587.57,559.79c0-0.11-0.91-39.57-0.92-39.68c-1.85-60.73-1.64-58.61-0.31-61.76
		c0.43-1.01,1.02-2.03,1.02-3.05c0-2.54,1.1-4.79,1.73-7.22c4.99-19.18,4.53-15.59-2.85-47.11c-0.36-1.54-2.59-10.22-2.75-14.04
		c-0.13-3.25-1.06-30.7-0.61-34.29c7.31-4.39,11.63-4.23,20.66-5.39c13.66-1.76,16.43-3.48,23.3,1.93
		c0.47,5.17,0.41,48.32,0.41,53.62c0,1.38,0.52,0.8-2.75,14.45c-2.28,9.53-3.08,9.04-1.02,10.07c-2.49,9.97-0.4,11.09-4.78,19.13
		c-3.86,7.08-0.63,8.77-3.87,12.01c-1.89,1.7-1.16,3.23-4.27,12.82c-9.88,30.4-8.87,63.08-10.89,66.95
		c-0.11,0.21-0.74,7.65,0.2,10.38C591.02,555.04,594.24,553.12,587.57,559.79z M620.63,574.96c-1.31,0.15-6.91,0.73-8.65,2.03
		c-0.57,0.38-0.32,2.07,2.85,1.73c2.65-0.29,5.09-1.02,7.22-2.24c2.44,1.53,4.8,2.83,6.82,4.48c4.12,3.36,12.53,1.99,11.6,4.48
		c-7.04,2.82-5.66,1.49-13.13,8.95c2.06,1.24,1.83-2.55,14.14-7.22c-0.1,1.02,0.1,1.93-0.31,2.34c-5.56,6.52-8.88,5.87-20.35,8.04
		c-4.97,0.94-8.66,1.32-22.38-0.81c-4.69-0.73-4.28-1.09-9.67-5.8c-0.61-5.7-1.02-25.13-0.61-27.88c0.51-0.41,1.21-0.72,1.53-1.32
		c1.26-2.37,6.85-8.79,10.68-10.28c2.67-1.04,2.81,0.26,3.87,3.15c1.95,5.36,3.12,4.33,3.26,6.1c-3.52,1.34-11.63,4.04-8.65,5.9
		c8.3-2.77,10.32-5.24,12.92-1.93c-2.37,0.68-11.91,2.84-9.77,4.99c0.97,0.97,0.95,0.48,7.12-0.81c2.55-0.32,3.97-1.17-0.81,1.22
		c-1.19,0.6-2.96,1.49-2.54,2.75c0.93,1.86,7.48-1.25,12.52-1.73C619.11,572.41,620.33,573.23,620.63,574.96z M616.16,567.83
		c0,0.26,0.2,0.2-1.22,0.2C614.94,567.78,614.74,567.83,616.16,567.83z M620.02,551.04c-6.68,10.48,0.61,2.13-7.22,11.4
		c-7.68-5.76-5.49-13.56-10.38-13.94c-2.82-0.47-1.04,2.14,0-12.82c0.65-9.27,3.13-37.11,5.8-46.09c3.48-11.7,3.77-19.32,8.75-30.93
		c0.4-1.19,0.48-6.84,2.54-10.17c1.26-2.04,3.23-5.8,3.76-9.56c5.27-23.7,0.72-14.73,4.99-26.35c2.52,4.4,1.6,15.14,3.46,22.79
		c0.83,3.42-1.56,3.79,0.31,8.34c0.88,2.15,1.83,4.17,2.75,6.21c-6.8,18.87-14.38,32.94-8.75,57.79c0.81,3.57-0.64,5.03-0.2,7.02
		c0.45,2.05,1.04,25.06-2.03,34.9C621.04,549.62,620.93,549.62,620.02,551.04z M656.04,552.88c-0.01,1.18-2.97-0.52-3.87-3.87
		c-1.14-4.22-3.73-4.38-4.48-5.49c9.13-45.67,6.8-37.01,8.85-41.11C656.45,519.81,656.15,536.29,656.04,552.88z M659.5,556.44
		c0,0.93-1.52,0.45-1.73-1.22c-0.02-0.1-0.12-57.1,1.12-60.34C660.33,491.15,659.66,491.9,659.5,556.44z M660.22,466.59
		c0.13,0.88-0.64,3.96-0.51,6.41c0.72,13.93-5.53,27.5-5.7,28.39c-0.57,2.92-0.95,7.12-1.73,8.24c-0.96,1.38-7.93,27.67-8.34,37.44
		c-0.81,1.73-2.54,2.75-2.85,4.68c-0.17,0.52-0.87,0.98-11.5,6.92c-2.14-1.12-3.76-2.44-4.58-4.68c2.66-3.66,4.5-26.31,4.68-30.83
		c0.87-22.38-3.95-21.61-2.24-31.24c0.57-3.21-0.01-14.72,8.65-38.97c0.32-0.91,0.92-1.42,2.03-0.71c0.31,1.63-0.1,3.66,1.63,5.29
		c0.62-7.73-0.91-5.46-1.63-7.73c-3.32-10.54-1.73-4.45-4.48-23.5c-1.35-9.37-1.89-7.4-3.36-15.26c-0.98-5.24-0.07-2.5,0.1-11.29
		c0.41-20.53,0.1-7.8,0.1-42.23c0.19-0.05,26.49-4.22,36.32-7.73c0.61-0.31,0.71-0.92,0.61-1.53c-5.16-0.91-23.36,4.6-37.24,7.12
		c-0.51-3.15-1.02-6-1.42-8.95c0-1.48,2.03-2.82,0.71-6.1c-2.03,1.12-0.92,3.87-3.15,4.78c-5.37-3.95-11.52-2.5-23.2-1.02
		c-8.38,1.07-13.24,3.02-19.94,6c-0.72-3.6-1.53-52.81-1.53-52.91c0-2.15,2.56-5.97,5.6-6.72c5.42-1.33,31.24,5.74,38.26,8.65
		c12.37,5.12,12.22,3.87,32.66,3.87c1.04,2.6-0.08,4.46,2.34,5.6c0.32,1.61,1.88,4.22-1.02,5.09c-0.1,0-0.1,0.31-0.2,0.51
		c0.61,0.2,1.62,0.31,1.83,0.71c0.79,1.54,1.11,3.45,0.2,4.78c-2.84,4.18,5.07,11.88,8.45,43.04c2.73,25.16-4.87,46.27-5.7,64.51
		c0.98,1.1,0.4,1.43-0.31,12.72c0,4.14,1,3.62-0.31,7.02C661.63,451.74,660,460.99,660.22,466.59z"/> <path d="M211,351.34c0-0.17,0.06-0.12-0.11-0.03c0.3,0.3-1.41-0.19-2.34,2.65c-2.05,6.23-3.47,12.62-1.83,19.23
		c1.63,6.58-1.13,0.14,4.38-21.88C211.06,351.32,211.03,351.33,211,351.34z"/> <path d="M360.36,264.11c-4.26-16.04,0.62-26.19-4.17-31.24c1.48-5.17,1.67-5.84,0.92-8.04c-1.15-3.36-3.17-2.85-6.82-2.85
		c-1.82-1.62-3.1-3.43-4.48-2.65c-2.3,0.92-2.02-2.9-5.34,0.37c-0.3-0.27-0.68-0.48-1.07-0.77c-0.92-0.81-1.84-1.04-2.95-0.51
		c-4.71,2.25-5.27-2.49-8.95,4.88c-1.83,0.1-3.76,0.31-5.7,0.41c-2.34,3.42-0.73,5.48,0.1,9.16c1.2,5.36,10.65,27.41,13.74,28.39
		c1.25,0.39,1.01,0.7,4.88,4.58c-0.1,3.87-0.71,8.04-0.71,12.11c-0.92,0.31-1.12-0.31-1.53-0.71c-9.17-10.59-11.4-23.53-13.23-29.3
		c-1.39-5.56-1.59-1.77-3.05-8.34c-1.67-7.49-6.01-12.08-12.92-14.96c-3.14-1.31-3.7,0.1-12.52-6.31c-0.7-3.12-1.59-9.03-0.71-12.11
		c8.72,0.97,6.3,1.94,13.43-0.31c3.59-1.13,3.43-4.26,2.24-7.83c1.22-2.24,1.22-2.24,0.31-4.68c0.1-1.02,1.56-1.74,1.12-3.15
		c-0.29-0.92-0.51-2.04-0.71-3.15c1.02-1.36,4.4-2.77,2.34-6.51c-0.2-0.61-2.5-2.17-3.97-7.63c0.31-0.41,0.61-1.02,1.02-1.53
		c-0.31-0.31-0.51-0.51-0.81-0.71c0-1.21,3.68-4.12,0.61-10.79c-3.96-8.59-5.09-15.19-14.14-17.4c-7.7-2.37-14.47-4.31-24.52-2.34
		c-4.45,0.87-4.41,1.46-13.74,9.16c-7.7-0.3-12.68-1.89-15.26,3.97c-4.17,9.45-6.9,10.96-5.09,17.3c0.94,3.3,3.47,9.83,3.76,11.5
		c1.68,9.52,7.98,24.23,4.17,29.3c-4.01-0.4-2.67-0.16-4.68-2.85c-8.06-1.79-8.16-2.29-16.08-0.51c-0.82,0.18-1.63,0.81-2.65,0.61
		c-0.92-0.1-1.63,0.51-2.14,1.22c-3.81,4.66-0.82,11.01,1.12,12.11c0.34,1.69-1.58,5.89,0.71,14.14c0.18,0.67,0.97,4.51,0.71,5.29
		c-1.32,3.36-1.04,7.01-2.54,10.38c-3.89,8.72-3.32,27.46-6.41,34.9c-5.62,13.52,4.51,19.62,4.17,25.64
		c-0.18,3.28,0.91,7.12,4.17,7.12c1.73,0,3.56-0.31,5.39,0.31c0.81,2.95,0.31,5.9,1.02,8.95c-0.09,0.1-4.25,4.9-4.58,5.49
		c-1.18,2.15-3.67,2.23-11.09,11.5c-3.54,4.43-2.73,6.69-2.14,4.88c0.64-1.92,1.83-3.05,3.76-2.75
		c13.49-14.14,10.26-13.44,14.24-12.11c0.1,0.92,0.42,1.83,0.51,2.75c4.69,47.37,3.21,42.21,2.34,43.65
		c2.06,2.27,1.72,4.15,2.24,9.56c0.39,4.09-4.45,5.33-5.09,13.84c0,0.31-0.53,0.86-1.02,0.61c-5.8-3.77-11.19-5.76-19.94-26.45
		c0.46,6.45,3.41,12.66,7.22,16.79c1.62,1.76,4.08,6.13,6.31,7.22c4.12,2.02,7.23,6.87,13.02,13.02c2.14,2.27,1.61,2.29,3.46,25.84
		c0.64,8.19,7.01,89.33,7.02,89.44c1.62,20.56,1.35,15.3,0,25.64c-0.2,1.01-0.8,1.41-1.6,1.72c0.2-0.77,0.42-1.54-0.84-2.02
		c-2.6,1.73-2.36,6.16-3.26,8.95c-1.95,6.06-4.34,12.46-4.58,13.13c-1.44,3.28-0.13,1.14-2.65,11.19c3.26,1.02,6.21,2.12,9.26,3.05
		c2.96,0.9,6.1,0.51,9.26,1.53c0.92-0.31,2.03-0.61,3.15-1.02c3.35,2.24,4.15,3.54,8.24,4.17c7.28,1.13,17.67,2.59,24.83,0.81
		c6.17-1.53,11.32-1.6,13.13-2.75c3.86-2.44,5.33-5.31,10.68-6c2.79-0.36,2.57-2.13,6.51-1.22c6.12,1.42,20.51,2.81,25.34-0.2
		c1.51-0.76,5.23-0.34,10.89-6.51c-0.31-2.45-0.77-0.42-0.2-4.99c1.89-9.43-12-6.14-18.11-8.65c-7.45-3.06-9.97-2.39-9.67-6.61
		c0.01-0.13,2.54-39.06,2.54-39.17c0.77-13.21,0.86-16.54,3.05-20.66c11.77-22.15,16.2-30.54,19.54-41.72
		c0.08-0.26,1.37-4.94,1.12-5.19c-1.22-1.53-0.37-3.16-0.51-4.78c-0.44-5.09-7.33-14.22-9.97-19.64
		c-8.08-16.55-7.04-1.71-3.66-49.76c0.13-1.85,3.48-52.13,3.66-54.64c0.31-1.56,0.11-1.99,3.05-0.92c4.66,1.69,9.87,0.94,13.33-0.71
		c1.8-0.86,2.15-2.09,2.24-8.14c0.15-10.21,4.32-17.99,2.65-32.66C362.34,277.54,362.12,270.72,360.36,264.11z M348.96,224.63
		c0,0.6-0.8,1.62-2.14,0.1c-0.1-1.19-0.3-2.38-0.4-3.66C347.51,221.02,347.13,220.59,348.96,224.63z M346.12,220.77
		c0.26,0.26,0.15,0.2,0,0.2C346.12,220.97,346.12,220.87,346.12,220.77z M345.61,227.99c3.19-1.37,3.63,1.31,5.09-2.34
		c0.88-1.76-0.15-1.74,3.56-1.32c1.73,2.34,0.41,4.48,0.61,6.51c-1.83,1.02-2.54-1.12-4.07-1.02c-1.53,0-3.05-0.34-4.58-0.61
		c-1.32-0.23-2.75,0-4.38-0.61c0.33-0.49,0.59-0.9,0.83-1.26C342.81,228.8,344.77,228.49,345.61,227.99z M342.35,219.85
		c1.63,1.83,2.65,3.76,2.14,6.31c-0.56,0.18-1.11,0.46-1.67,0.73c-0.57-2.45-0.8-4.98-2.24-7.04
		C341.2,219.85,341.82,219.85,342.35,219.85z M332.79,220.97c0.51,0,0.71-0.1,0.92,0c1.63,1.02,2.65,2.34,2.65,4.38
		c0,4.83,1.93,2.54,1.93,2.34c0.45-4.27-0.33-4.56-2.44-7.73c1.02-0.71,1.73-0.51,2.34-0.1c4.02,3.02,1.73,7.86,1.73,8.04
		c0,0.41,0.2,0.92,0.31,1.63c-2.34-0.1-4.48,0.51-6.72-0.2c1.12-2.65-0.31-4.38-2.04-6C331.97,222.5,332.38,221.68,332.79,220.97z
		 M338.28,259.84c-0.82-2.04-1.35-0.22-2.95-3.26c-2.95-5.59-12.87-23.91-12.11-30.22c0.12-1.02,0.51-1.12,1.93-0.81
		c0.6,5.36,0.64,1.93,3.36,11.5c1.62,5.7,4.35,6.71,6.72,12.11c2.69,6.15,3.12,9.76,5.8,12.11c1.02-0.31,2.03-0.51,3.15-0.81
		c0.2,1.22,0,2.24-1.22,3.15C340.93,262.79,339.2,261.77,338.28,259.84z M332.79,240.3c4.44,0.37,10.03,3.44,10.38,7.33
		c0.6,6.76,1.43,6.92,0.31,10.28c-0.2,0.61-0.92,0.92-1.63,1.63c-0.92-1.83-1.55-3.45-2.24-5.09
		C336.95,248.1,333.36,242.35,332.79,240.3z M342.66,281.41c-0.1,0.71,0.1,1.63-1.02,2.44c-0.2-1.02-0.41-1.93-0.41-2.75
		c0.94-15.01,0.5-16.74,2.75-16.18C344.49,267.88,344.54,267.88,342.66,281.41z M308.98,236.54c1.76,3.35,1.83,0.24,4.27,6
		c5.07,11.98,4.62,8.97,7.73,18.42c2.75,8.36-1.66,15.98-8.85,19.33c-6.32,2.95-5.99,6.48-7.12,9.87
		c-22.65,5.66-33.99,4.99-56.67-0.51c-0.61-0.2-1.02-0.61-1.63-0.92c0.1-2.65-0.61-5.29-0.31-7.83c0.86-0.57,2.3-0.93,1.42-2.24
		c-1.02-1.53-1.25,3.03-0.81-9.67c0.7-4.23-1.12,0.83,10.17-3.87c4.22-1.76,7.07-1.95,9.67-7.33c2.23-4.62,3.85-13.24,1.32-17.2
		c-0.62-0.62-0.02-2.81-3.46-9.36c-3.3-6.29-2.5-6.25-6.21-10.48c-0.31-0.41-1.12-0.41-1.63-0.51c1.38,2.75,10.62,14.2,9.46,30.52
		c-0.5,7.06-5.85,12.78-12.21,13.43c-2.34,0.24-4.58,0.51-7.12,0.81c0-2.34-0.31-4.38,0.2-6.51c1.73-0.41,3.26-0.92,4.07-2.65
		c-1.73-1.42-2.75,1.22-4.27,0.51c2.34-2.24,4.17-4.68,5.39-7.53c0.1-0.31-0.1-0.71-0.1-1.22c-2.5,0.5-2.5,1.98-4.8,3.31
		c-1.05-6.35,0.73-10.58,0.73-16.74c0-4.17-0.1-8.24-0.1-12.62c7.34-3.43,5.33-3.21,8.65-1.22c1.18-2.94,0.54-2.72,2.85-3.56
		c14.04,18.31,10.86,22.47,21.67,32.15c9.93,8.9,29.2,4.62,22.89-15.67C300.21,220.47,302.74,224.65,308.98,236.54z M334.82,318.55
		c3,2.59,2.69-6.18-3.66,88.83c0,0.31-0.2,0.61-0.41,1.53c-7.62-13.97-5.19-7.97-12.62-18.82c-12.43-18.17-23.98-25.34-29.91-32.76
		c6.28-9.87,4.2-18.36,8.75-25.03c4.52-6.63,4.68-10.96,6.51-19.54c6.52-30.57,1.55-18.84,6.72-27.98
		C315.88,291.86,319.13,305,334.82,318.55z M258.41,214.87c-0.51,0.1-0.92,0.2-1.53,0.41c0-1.8,0.13-1.66,0.67-2.67
		C257.35,213.49,258.32,213.91,258.41,214.87z M257.59,212.42c0,0.1-0.09-1.3,0.1-2.03c2.03-7.93-0.59-14.11,2.04-14.35
		C259.73,202.54,260.17,208.82,257.59,212.42z M258,190.04c0,0.38,0.28,0.92-0.1,0.92C257.9,189.97,257.59,190.04,258,190.04z
		 M257.69,187.32c-0.55-2.63-2.13-3.46-3.14-9.29c-2.31-13.26-0.09-16.9,0-10.07c0.12,9.4,2.63,9.64,4.38,19.74
		C258.36,187.52,257.98,187.41,257.69,187.32z M255.76,210.8c-1.46-3.75,1.76-0.42-3.13-27.67
		C254.23,184.61,259.8,202.22,255.76,210.8z M251.78,217.09c0-1.8,0.15-2.5-0.1-2.35c1.12-3.97,1.93-8.03,1.83-12.2
		C254.25,215.1,253.79,217.49,251.78,217.09z M263.09,207.95c-0.87,4.33,0.22,2.3-1.93,4.99c-0.32-8.59,1.07-9.91-0.51-24.11
		C265.82,197.19,263.72,203.55,263.09,207.95z M260.85,183.43c0.05,0.05,0.09,0.12,0.07,0.18
		C260.86,183.59,260.85,183.52,260.85,183.43z M263.4,185.29c0.73,0.18,1.34,0.42,1.31,1.28
		C263.56,186.48,263.5,186.43,263.4,185.29z M301.75,225.04c0,0.14,0.13,0.33,0,0.2C301.75,225.24,301.75,225.14,301.75,225.04z
		 M299.11,150.1c0.23,0.12,2.4,0.99,1.02,1.68C298.79,151.11,299.08,151.04,299.11,150.1z M299,149.94
		c-0.39-0.39-0.52-0.54-0.56-0.6C298.79,149.33,298.97,149.56,299,149.94z M298.29,149.32c-1.95-0.25-1.77-1.41-1.97-1.41
		C297.31,147.83,298.09,148.24,298.29,149.32z M296.26,144.66c-0.06-0.06-0.08-0.12-0.09-0.18
		C296.19,144.55,296.26,144.57,296.26,144.66z M296.25,147.91c-0.55-0.02-1.01-0.14-1.3-0.69
		C295.42,147.29,295.97,147.25,296.25,147.91z M296.08,144.34c-1.94-0.11-3.31-0.74-4.54-1.96
		C296.33,143.47,295.33,143.45,296.08,144.34z M294.81,147.15c-0.47-0.18-0.94-0.38-1.4-0.56
		C293.98,146.56,294.61,146.35,294.81,147.15z M293.26,146.44c-0.1-0.1-0.05-0.04-0.05-0.15
		C293.21,146.34,293.24,146.39,293.26,146.44z M290.96,142.11c-0.51,0-1.06,0-1.63,0C289.86,141.69,290.43,141.81,290.96,142.11z
		 M287.71,141.1c-0.33,0.33,0.39,0.47-1.02,0C287.1,141.1,287.41,141.1,287.71,141.1z M284.66,142.32c1.39,0,2.7,0.01,3.99,0.08
		C287.83,143.22,285.66,142.92,284.66,142.32c-3.46-0.1-7.02,0-10.68-0.41C276.65,141.51,282.18,141.08,284.66,142.32z
		 M277.74,144.15c0-0.29-0.52-0.2,4.78-0.2C282.52,144.24,283.04,144.15,277.74,144.15z M258.92,155.24c0-2.24,0.83-3.74,2.44-4.99
		c3.89-3.01,0.76-3.15,15.63-2.25c-1.54-1.27-7.28-1.3-9.73-2.43c1.88-3,5.73-2.92,6.51-2.14c-0.1,0.41-0.31,0.81-0.51,1.42
		c0.61,0.2,1.22,0.61,1.73,0.61c2.01,0.13,6.95-0.07,8.24,0.31c15.88,4.61,12.55,5.91,16.99,7.33c0.81-0.31,1.63-1.12,2.24-0.92
		c0.92,0.31,1.53,0,2.24-0.31c2.55,1.55,2.13-0.22,6.61,14.04c0,2.84-7.3,1.98,1.63,15.36c0.81,1.63-0.21,2.92-2.03,3.05
		c-4.57,0.33-3.13,0.07-3.97,0.92c3.75,2.25,2.35-1.39,4.38,5.19c-1.68,3.65-7.19-0.05-6.82,2.54c1.3,0.65,0.12,0.51,5.29,0.51
		c0.41,0.51,0.81,1.12,1.32,1.73c-2.81,4.02-1.68,1.49-0.81,5.29c0.4,1.73-0.4,3.38-1.93,3.66c-10.76,2.01-3.61,0.04-11.9,0.51
		c-4.97,0.28-3.53,9.05-2.03,13.74c0.99,3.1,4.95,1.53,8.65,20.76c1.28,6.69-4.11,8.89-5.6,10.07c-0.51,0.51-1.02,1.12-1.73,1.83
		c-0.71-1.42-1.42-2.65-1.93-3.66c0.2-1.63,1.32-2.65,1.42-3.97c-1.73-0.51-1.73,1.63-2.95,1.73c-3.06-2.75-3.67-3.6-4.58-2.54
		c1.98,3.46,8.07,8.55,3.87,8.55c-15.66-3.13-14.75-14.62-20.55-20.66c-0.09-0.12-3.79-5.54-9.36-15.16
		c2.3-1.95,2.79-1.85,3.56-7.94c0.12-0.91,0.12-1.92,0.51-2.75c1.97-4.18-0.67-8.57,0-13.33c0.18-1.25-1.21-2.7-0.93-4.62
		c0.67,0.49,1.27,0.98,2.15,1.57c-0.81-3.15-0.92-3.26-3.66-3.87c0,0.26,0,0.47,0,0.71c-1.61,0-1.73-0.04-1.98-1.18
		c2.45,0.8,1.47,0.82-0.46-2.08c2.95-1.52-3.23-1.15-4.68-8.75c1.11,0.09,1.89,0.18,2.71,0.27c-2.16-1.98-4.29-3.51-2.71-4.04
		c3.81,1.91,2.59,1.73,4.92,2.01c-0.29-0.57-7.02-3.9-4.82-5.47c1.62,0.76,15.87,3.54,15.97,3.56c-0.78,2.33-2.38-0.41-4.58,0.71
		c-5.32,2.73-2.87,5.94-4.27,8.75c-0.87,2.19,4.22,7.26,5.9,8.85c4.55,4.3,8.61-6.88,2.14-0.41c-1.72-0.92-2.64-2.42-3.85-3.74
		c2.21-1.54,2.27-0.3,1.51-4.5c0.71-0.81,1.12-2.03,2.24-2.44c1.73,1.42-0.31,2.44-0.1,3.87c0.31,0.41,0.71,0.92,1.12,1.53
		c0.2,0.92-0.92,1.73,0.1,2.75c0.51-1.12,1.12-2.14,1.63-3.05c-1.92-2.3-1.46-1.08-1.02-2.85c0.91-2.74-2.4-5.21-4.48-5.9
		c-2.03,0.81-1.73,3.26-3.05,4.58c-1.2-2.4,2.42-8,5.29-5.9c0.11,0.08,6.03,7.41,8.14,2.85c-1.22-0.2-2.34-0.31-3.46-0.51
		c3.55-1.37,2.12-0.04,11.09-7.22c-1.32-1.32,0.61-2.03,0.51-3.15c1.29-0.9,1.41-2.28,1.32-3.67c1.62-1.42,1.22-3.26,1.22-5.59
		c-0.61,1.42-1.02,2.34-1.42,3.46c-5.59-1.29-9.11,3.91-17.3,0.61c-5.6-2.26-5.61-2.12-4.84-2.12c-0.4-0.22-0.93-0.54-1.36,0.08
		c0.3,0,0.63-0.03,0.96-0.06c-0.74,1.62-0.3,0.55,3.11,2.5c0.51,0.29,1.42,0.31,1.63,1.12c5.37,1.24,6.75,0.93,8.45,2.14
		c-6.57,2.97-8.19-0.05-10.38,1.39c-0.14-0.04-0.26-0.08-0.31-0.17c-0.48-1.29-1.49-0.91-4.27-1.22c1.41,1.41,3.12,1.92,5.04,2.13
		c0.08-0.17,0.15-0.35,0.15-0.6c-0.64-0.26,2.22-0.26,6,1.42c2.42,1.08,3.94,0.44,8.31,0.1c-0.42,1.52-4.83,1.57-7.7,2.85
		c-3.09,1.38-4.36,0.58-14.75-2.44c-1.63,1.09,0.06,1.35-4.78-1.63c0.76-5.3,0.07-3.63,1.63-5.19c-0.1-0.81-0.92-1.73,0.41-2.44
		c1.61,0.87,10.81,6.4,12.62,3.87C268.91,160.77,261.2,157.22,258.92,155.24z M267.36,180.78c0,0.76,0.09,1.8,0.1,2.77
		C262.55,179.94,265.74,179.16,267.36,180.78z M268.07,178.34c0.2-1.22,0.51-2.34,1.93-3.26
		C270.62,176.81,270.31,177.32,268.07,178.34z M276.21,171.83c1.92,0,1.63-0.1,1.63,0.31C276.39,172.13,276.21,172.39,276.21,171.83
		z M282.06,160.71c4.16-1.41,6.3-3.14,6.36-0.79C284.39,161.36,282.92,162.07,282.06,160.71z M281.91,160.63c-0.49,0-1.06,0-1.73,0
		C280.95,159.78,281.43,160.17,281.91,160.63z M244.77,183.93c0-3.14-10.79-20.36,1.42-28.79c-0.02-0.02-0.03-0.03-0.05-0.05
		c0.24-0.18,0.44-0.42,0.67-0.66c5.66-1.51,4.41-1.76,5.13-0.13c0.9-0.59,1.8-0.78,2.9-0.78c0.61,0,1.22-0.41,2.03-0.71
		c-2.44-2.29-4.86-1.64-8.65-1.32c0.1,0.31,0.2,0.61,0.31,0.92c-0.58,0.68-1.07,1.35-1.65,1.93c-0.46,0.09-0.74,0.28-0.78,0.71
		c-0.44-0.48-0.59-0.96-0.12-1.43c2.54-2.22,2.08-2.36,2.44-2.54c3.15-1.22,6.21-1.02,9.56,0c-0.71,1.83-1.25,3.74-2.65,5.09
		c-11.63,11.21,1.59,43.21-2.75,42.12c-0.96-11.47-0.92,5.61-0.92,16.48c-0.18,0.12-0.58,0.69-1.42,1.63
		c0.69-10.76,1.1-14.77,0.41-19.74c-3-21.6-3.5-13.85-3.15-12.01c0.8,4.28,1.42,8.65,1.93,13.84
		C248.57,196.87,244.77,187.72,244.77,183.93z M244.16,213.34c3.36,0,4.22,0.71,4.17,3.26c-0.04,1.83-0.71,2.34-3.66,2.34
		C244.47,217,243.86,215.17,244.16,213.34z M230.43,210.49c0.92,0.92,2.34,1.83,1.93,4.07c-0.81-0.1-1.53,0-1.83-0.31
		C227.65,210.89,226.86,206.93,230.43,210.49z M221.78,212.63c1.5-4.51,6.82-1.23,5.49,1.42
		C225.03,214.66,224.12,211.81,221.78,212.63z M217.91,279.48c3.07-15.06,1.94-17.9,5.19-27.78c1.1-3.35,1.58-7.44,2.44-9.36
		c2.78-6.22,3.01-7.09,3.76-8.04c1.79,5.19,0.33,3.24-0.1,12.41c-0.29,6.14-1.38,14.61-3.97,20.25
		c-6.96,15.18-6.43,14.05-7.33,14.14C217.91,280.49,217.81,279.98,217.91,279.48z M225.85,226.77c1.32,1.12,1.83,2.65,2.24,4.17
		c-1.73,2.44-1.73,2.44-3.15,3.26C224.27,229.88,223.63,231.64,225.85,226.77z M222.29,316.82c-1.02-1.22-1.22-2.44-1.32-3.76
		c-0.7-9.42-6.78-12.18-5.7-20.15c1.16-8.53,3.44-7.49,6.92-14.24c7.54-14.65,6.17-10.9,9.87-41.72c0-2.57-1.72-3.96-2.24-7.43
		c0-0.3-5.3-5.63-1.22-8.55c0,0-0.1-0.31-0.1-0.61c-1.42-0.61-2.03,0.81-3.26,1.22c-4.3-3.83-2.7-1.44-0.92-5.9
		c1.22,0.1,2.14,0.52,3.05,0.31c1.22-0.29,2.23-0.29,3.36,0.31c2.78,1.45,4.2-0.79,5.29,0.31c0,2.85,0.75,2.1-3.76,2.85
		c-0.41,0.1-0.71,0.41-1.42,0.81c3.43,2.28,5.48-0.08,8.95,3.15c0.61,0.3,0.63,0.4,1.02,0.2c0.3-2.08-1.57-2.83-4.54-4.63
		c1.48,0.1,0.66,0.56,2.4-3.61c-4.26-2.62-4.84-1.94-3.97-4.38c2.85,0.31,4.88,2.24,7.33,3.46c0.2,3.05,1.35,5.58,3.15,7.94
		c1.65,2.15,0.91,1.84,1.93,11.09c0.29,1.44-0.57,4.05-0.71,4.88c-5.2,29.87,0.48,29.59-2.24,59.73c-0.28,3.13-2.36,2.83-2.95,4.07
		c-1.06,2.22-2.58,4.27-2.75,6.92C238.07,315.42,228.77,318.06,222.29,316.82z M243.76,304.91c0,0.1-0.2,0.41-0.31,0.41
		c-0.2,0-0.41-0.2-0.61-0.31c0.31-0.2,0.51-0.41,0.71-0.61C243.65,304.61,243.76,304.71,243.76,304.91z M242.03,308.07
		c-0.11,4.24-3.92,12.36-7.94,15.47C234.09,312.73,233.4,323.88,242.03,308.07z M235.82,415.01c-7.47-3.96-6.47-10.94-1.42-16.59
		C235.21,401.68,236.02,412.16,235.82,415.01z M249.96,591.74c-0.92,0.92-9.2,0.78-14.35-2.75c2.92-13.13,2.39-9.81,3.56-14.75
		c0.79-3.33,3.99-4.51,3.46-10.17c-0.26-2.79,1.43-4.4,1.43-4.63c1.65,6.67,2.1,5.97,1.82,7.38c-0.1,0.51,0.51,1.22,0.92,1.73
		c0.41,0.41,1.02,0.51,1.73,0.92C250.18,593.04,250.14,591.57,249.96,591.74z M252.2,592.86c-0.92-1.22-0.82-2.44-0.92-3.56
		c-23.55-283.15-23-271.96-18.93-269.74C234.71,354.87,253.8,589.66,252.2,592.86z M242.03,426.3c0-1.32,0.42-1,1.24-1.2
		c19.77,19.77,26.1,13.97,32.13,34.07c-3.86,8.58-4.1,8.65-5.49,10.17c-3.04,3.32-6.99,7.71-8.55,12.21
		c-7.12,20.57-4.26,31.03-6.61,36.32C248.01,533.03,252.05,555.88,242.03,426.3z M294.33,595.92c-9.6,1.72-17.19,2.93-27.27,0.92
		c-2.7-0.54-5.34,0.63-10.38-3.97c-2.2-2.01-1.76-1.33-3.46-25.74c-0.39-2.74,1.02-2.1,2.75-4.07c2.07-2.36,4.01-5.64,8.04-8.55
		c5.22-3.77,5.1,1,6.1,3.15c2.91,6.21,5.03,3.43-2.34,6.72c-4.06,1.81-3.68,2.48-4.07,3.26c2.83,0.88,12.09-6.1,13.02-1.42
		c-6.26,1.57-10.2,2.6-9.06,4.88c2.75,0.41,5.29-1.42,8.95-1.22c-2.92,1.46-3.07,1.26-5.09,2.44c-1.28,0.75-0.92,2.51,0.71,2.24
		c1.45-0.4-2.29,0.66,10.38-2.65c0.92,1.42,2.24,2.24,2.34,3.87c-2.44,0.41-4.78,0.92-7.12,1.32c-1.67,0.28-1.65,2.37,0.41,2.14
		c5.76-0.64,6.97-1.51,8.14-2.03c8.73,5.56,7.62,5.66,11.5,6.31c5.3,0.88,6.49,1.01,6.1,2.34c-0.93,0.93-5.34-0.09-12.01,8.24
		c1.99,0.66,4.36-4.05,12.72-6.41c0.2,0.61,0.31,1.12,0.41,1.63C302.26,592.86,298.79,595.12,294.33,595.92z M306.23,443.19
		c1.68,2.38,4.76,3.56,12.52,12.41c3.17,3.62-0.45,3.5-7.33,16.59c-7.46,16.79-6.71,15.69-9.46,40.5
		c-0.55,4.97-1.63,6.49-7.63,22.69c-6.87,18.55-5.71,16.53-8.55,16.18c-5.72,7.15-0.82,2.1-8.04,12.21
		c-6.28-2.44-4.71-12.12-10.17-13.74c6.22-20.51,6.45-15.95,9.36-26.25c2.31-8.16,4.06-10.19,12.21-22.59
		c5.96-9.07,3.84-7.45,9.16-17.7c9.58-18.48,1-0.87,10.68-23C311.82,454,306.23,451.91,306.23,443.19z M278.35,569.46
		c-0.1,0-0.31-0.1-0.51-0.1C278.05,569.36,278.25,569.36,278.35,569.46z M280.18,568.75c0.56-0.56,0.89,0.2,0.51,0.2
		C280.49,568.95,280.28,568.85,280.18,568.75z M305.72,589.51c1.05-2.73,4.15-1.36,4.38-1.32c0.51,0.09,1.12-0.61,1.83,0.31
		C307.55,590.01,307.55,590.01,305.72,589.51z M331.77,569.36c7.92,3.23,3.94,1.41,17.4,3.46c2.55,0.39,1.55,1.13,4.07,8.45
		c-12.38,9-10.95,4.71-27.78,6.31c-4.3,0.41-5.54-0.4-11.9-1.42c-2.44-0.4-6.18-0.01-6.92-1.22c-1.77-2.89-5.9-1.93-8.75-3.26
		c-8.56-3.96-5.33-3.55-9.67-7.12c-4.89-4.02-2.97-5.8-6.82-8.55c-2-1.2-0.63-1.81-0.1-2.34c4.95-4.95,1.58-4.64,5.19-8.65
		c1.25,1.25-0.6,2.55,3.97,6.61c3.5,3.11,5.05,0.51,15.57-5.8c0.71-3.26,2.75-4.88,4.88-6.51c5.04,8.64,5.46,6.26,1.22,7.53
		c-4.35,1.63-1.99,3.39-1.83,3.66c2.03-0.92,4.07-1.73,6-2.54c0.2-0.1,0.51,0,0.92,0c0.41,0.61,1.02,1.32,1.73,2.34
		c-1.58,0.14-3.44,0.06-4.48,0.71c-0.95,0.6-0.64,1.8,0.31,2.03c1.73,0.25,3.05-0.13,6-0.81c2.09,2.62,1.83,1.17-1.53,2.85
		c-1.42,0.71-0.42,2.14,0.51,2.14c1.97-0.18,2.16-0.71,4.48-0.71C326.65,570.12,324.94,566.57,331.77,569.36z M311.22,546.47
		c2.49-4.98,2.65-4.06,4.17-9.56c1.59-5.74,6.11-15.76,7.43-17.4c1.31-1.31,0.53,3.01-1.73,37.44c0,1.63-2.58-1.43-3.87-2.54
		C314,551.62,316.01,548.98,311.22,546.47z M324.55,561.32c-2.84-1.09-2.26,1.62,0.81-43.65c0-2.91,0.55-4.98,2.54-6.31
		C326.78,528.15,325.66,544.53,324.55,561.32z M336.86,424.77c0.79,1.19,7.1,11.65,7.12,12.41c0.05,2.14,1.21,3.87,2.24,5.6
		c0.61,1.02,0.71,2.44,1.83,3.36c10.25,8.35-17.76,49.99-16.41,53.37c-11.71,19.46-9.4,16.41-17.98,37.19
		c-1.51,3.67-3.36,7.12-4.07,10.99c-11.46,10.25,3.91,1.07-15.97,12.52c-1.84-0.51-5.23-3.02-4.27-5.6
		c4.21-11.32,7.43-17.07,11.9-28.29c7.58-19.02,2.73-40.39,10.89-50.87c2.38-2.64,4.44-10.28,9.06-15.77
		c3.03-3.6-2.37-11.01-5.8-13.23c-2.53-1.64-4.95-3.61-7.53-5.39c-1.81-1.25-3.06-2.85-3.66-5.09c-2.61-9.65-5.01-9.77-13.33-27.57
		c-4.62-9.88-9.28-15.08-13.74-22.08c-1.32-0.41-2.03-1.63-2.75-2.65c-3.03-4.29-7.02-7.83-10.48-11.9c-0.84-0.84-1.4-0.18-1.83,0.1
		c0.72,2.33,3.11,3.94,2.78,5.08c-8.74-1.06-14.07,2.81-21.19,7.95c-1.31,0.94-2.75,1.83-3.26,3.56c3.26-1.32,6.54-2.62,9.16-5.19
		c1.91-1.87,10.11-6.89,16.59-4.27c1.89,0.63,0.08-0.33,4.99,5.39c14.15,16.49,23.29,36.25,26.25,40.8
		c2.01,3.09,4.38,7.79,4.38,11.5c0,5.88,3.19,11,3.87,16.69c0,0.95,2.55,3.02,0.2,8.14c-6.21,13.56-8.49,21.91-14.96,31.64
		c-9.85,14.82-18.98,34.19-22.28,45.48c-5.93,20.3,0.35,5.03-14.24,21.88c-0.31,0.31-0.61,0.51-1.22,1.02
		c-0.31-0.71-0.71-1.22-0.71-1.73c-0.15-1.76-0.41-8.43-0.41-11.8c-1.89-2.76-0.38-7.74,0.2-10.79c7.08-36.67,2.68-14.69,5.9-30.22
		c1.37-6.63,0.74-9.22,1.83-15.16c4.01-21.88,28.36-29.33,11.8-46.09c-12.04-12.19-13.13-9.03-26.05-19.23
		c-1.01-0.8-3.55-0.77-3.97-6.31c-2.39-31.28-2.64-28.8-1.22-31.64c-1.65-0.55-1.13,2.19-2.14-11.19
		c-4.94-65.43-6.09-44.2,2.65-61.35c0.93-1.82,1.12-4.07,2.85-5.6c0.14-0.14,1.36-3.51,2.54-16.89c0.1-0.71,0.1-1.42,0.92-1.93
		c1.22,0.2,2.75,0.3,4.07,0.61c13.33,3.16,11.06,2.51,13.94,5.39c0.25-1.26,0.3-2.01,0.31-2.04c4.63,0.51,7.47,1.94,15.67,1.12
		c11.31-1.13,17.13-1.36,21.67-3.56c4.74-1.9-0.4,8.26-3.36,25.13c-1.14,6.48-4.01,8.78-6.41,16.59
		c-7.85,25.48-0.44,23.43-21.47,18.93c-3.02-0.65-1.06-0.88-6.72-4.38c-1.13-0.7-2.14-1.53-3.15-2.34
		c-1.02-0.41-2.14-0.92-2.75-1.83c-11.83-4.84-10.14-7.73-19.33-10.58c-3.69-1.14-3.72,1.58-2.03,1.83
		c8.57,1.29,25.67,16.41,34.59,18.82c14.32,3.87,13.37,2.66,11.19,5.7c-1.65,2.6-3.34,3.92-2.24,5.39c2.97-2.23,3.48-5.1,7.12-7.53
		c0.41,0.51,0.92,0.92,0.92,1.32c0.21,4.04,8.27,8.4,8.04,10.68c-2.47,0.62-8.61,0.29-19.03,12.11c-0.81,0.92-1.12,2.14-1.02,3.36
		c3.58,0,2.45-5.97,19.54-14.24c2-0.97,1.93-1.09,14.96,13.74C328.03,404.25,325.5,407.57,336.86,424.77z M265.23,377.26
		c-0.25-0.25-0.23-0.2-0.1-0.2C265.12,377.05,265.23,377.16,265.23,377.26z M340.52,325.16c-0.11,1.83-5.28,79.59-6.31,91.37
		c-1.73-1.53-2.06-3.05-1.93-4.78c1.38-18.92,5.44-85.45,6.31-89.44C340.32,322.82,340.6,323.84,340.52,325.16z M360.97,292.4
		c-1.54,11.46-0.15,8.67-1.83,17.4c-0.94,4.86-0.23,8.15-0.61,10.99c-0.73,5.51-20.28,8.33-38.77-24.83
		c-2.54-4.55-0.62-0.93-7.53-13.02c3.66-2.2,2.25-1.57,4.48-1.12c0.41-0.92,0.51-2.03,1.12-2.54c19.61-14.49-17.25-53.01-11.6-53.01
		c20.76,4.68,13.02,33.1,29.41,50.67c2.04,2.18,4.16,7.8,4.38,8.14c1.37,1.82,0.81,4.1,0.81,9.77c0,2.79,0.58,8.65,3.36,8.85
		c-1.69-9.14-1.45-8.65-1.73-16.69c0.79-1.05,1.47-1.55,1.73-3.36c4.8-24,0.81-27.57,1.53-37.34c0.12-0.85-0.25-3.84-2.03-3.66
		c-2.42,0-3.45-3.53-12.01-5.29c-2.74-0.91-1.44,0.72-2.54-5.49c-0.49-2.77-4.82-4.94,1.02-7.12c0,3.36-0.08,1.87,2.44,6.92
		c4.19-0.3,7.81-1.08,10.79,1.42c0.1,0.1,0.41,0,0.81,0c0.1-0.61,0.2-1.32,0.41-2.03c7.33,0,5.1-0.48,9.67,2.34
		c3.71,2.29,2.86,3.92,2.54,11.29c-0.2,4.64-0.3,18.47,2.44,22.18C360.81,268.99,361.51,288.42,360.97,292.4z"/> <path d="M277.13,148.12l0.1-0.1C276.99,147.99,276.92,147.99,277.13,148.12z"/> <path d="M261.97,181.39l0.1-0.1C261.94,181.34,261.9,181.35,261.97,181.39z"/> <path d="M259.02,173.56l0.1-0.1C258.8,173.41,258.84,173.38,259.02,173.56z"/> <path d="M261.16,171.52l0.1-0.1C261,171.37,261.13,171.41,261.16,171.52z"/> <path d="M226.46,358.64c-1.42,1.02-1.22,2.14-0.71,3.97C226.26,361.08,226.97,360.06,226.46,358.64z"/> <path d="M232.46,382.14c-0.2-0.61-0.51-1.12-0.92-2.14C231.55,381.43,231.55,381.43,232.46,382.14z"/> <path d="M228.09,374.41c0-0.41-0.1-0.71-0.1-1.12c0,0-0.1,0-0.2,0C227.78,374.61,227.68,374.41,228.09,374.41z"/> <path d="M207.84,377.66c0,0,0,0-0.1,0C207.74,379.03,207.84,379.06,207.84,377.66z"/> <path d="M629.59,552.57c-0.61-3.66,2.34-6.31,1.53-10.07c-0.41,0.92-0.81,1.53-1.02,2.14c-0.84,3.92-2.57,5.23-1.93,6.31
		c0.72,1.22-0.2,2.03-0.51,2.75c0.64,1.38,3.28,3.11,3.66,2.34C632.27,554.61,630.96,553.6,629.59,552.57z"/> <path d="M659.3,428.54c-1.42,1.63-2.34,3.56-3.46,5.39c2.65-1.12,4.07-3.26,5.49-5.6C660.17,428.1,660.55,427.7,659.3,428.54z"/> <path d="M643.32,477.28c1.02-3.15,0.92-5.7,0.1-8.24C640.92,468.72,642.66,475.2,643.32,477.28z"/> <path d="M641.7,483.38c0.56,7.03-1.41,6.48,0,8.24c1.43-2.86-0.28-3.8,1.32-7.63c0.21-0.51,0-1.22,0.1-2.14
		C641.9,482.26,641.6,482.87,641.7,483.38z"/> <path d="M656.04,441.05c2.14-2.65,2.65-3.76,2.34-5.29C656.45,437.09,655.84,438.71,656.04,441.05z"/> <path d="M656.45,443.9c0.61,1.22,0.41,2.65,0.61,3.97c0,0,0.2,0,0.51,0.1c0.41-1.63,0.81-3.15-0.1-5.49
		C656.86,443.29,656.35,443.7,656.45,443.9z"/> <path d="M649.63,434.64c1.12,0.71,2.03,0.51,3.26-0.61C651.46,433.73,650.45,433.63,649.63,434.64z"/> <path d="M640.88,462.62c0.41-1.22,0.1-2.14-1.02-3.26C639.56,460.89,640.07,461.81,640.88,462.62z"/> <path d="M655.43,451.43c0.3,0.6,0.12,0.59,0.41,0.31c0-0.2-0.2-0.41-0.2-0.51C655.53,451.23,655.43,451.33,655.43,451.43z"/> <path d="M631.83,539.34c0,0.31,0.1,0.51,0.1,0.81c0.1-0.1,0.2-0.2,0.2-0.2C632.13,539.38,632.07,539.34,631.83,539.34z"/> <path d="M633.46,535.07c0-0.1,0.1-0.2,0.1-0.31c-0.1,0-0.2-0.1-0.31-0.1C633.01,534.91,633.35,534.97,633.46,535.07z"/> <path d="M633.86,530.19c0,0.1,0.1,0.2,0.1,0.31C634.31,530.49,634.17,529.87,633.86,530.19z"/> <path d="M640.37,496.71c0.1,0,0.2,0,0.31,0.1C640.68,496.07,640.37,496.5,640.37,496.71z"/> <path d="M634.88,525.61c0-0.1-0.1-0.2-0.1-0.31C634.43,525.3,634.57,525.92,634.88,525.61z"/> <path d="M610.46,450.01c2.24-1.42,3.23-3.96,2.34-6.41c-1.23-3.39,0.59-5.31-0.51-6.41c-0.31-0.31-1.22,0.2-1.22,0.92
		c-0.7,3.85-0.2,4.27,0.51,6.92c-0.81,1.53-1.73,3.15-2.85,5.19C609.54,450.11,610.05,450.21,610.46,450.01z"/> <path d="M594.18,472.8c1.37-6.64,0.6-1.64,2.34-11.19c-2.62,1.87-2.12,2.55-2.54,6.51c-0.4,3.76-1.32,6.85-1.32,9.77
		C595.13,474.84,593.74,473.9,594.18,472.8z"/> <path d="M595.81,448.48c-0.2,0.31-0.61,0.51-0.61,0.71c-0.2,2.14-0.1,4.07,1.02,6.51C596.22,447.64,596.39,449.35,595.81,448.48z"/> <path d="M607.2,432.41c0.59,0,0.1-0.26,0.1-2.03c0-2.3,1.43-4.9-0.2-6.72c0,5.03-0.9,5.32-0.61,7.63
		C606.49,431.69,606.9,432,607.2,432.41z"/> <path d="M591.74,388.25c0.4,0,0.31,0.26,0.31-1.42C591.64,386.82,591.74,386.54,591.74,388.25z"/> <path d="M591.84,482.47c0.74,0,0.56-0.31,0.71-0.31C592.01,481.62,591.91,482.32,591.84,482.47z"/> <path d="M607.51,436.58c0,0.12,0.03,0.48,0.31,0.2C607.7,436.66,607.51,436.32,607.51,436.58z"/> <path d="M589.3,377.87c0-1.13-0.1-0.84-0.1-1.02C588.85,377.53,588.88,377.04,589.3,377.87z"/> <path d="M589.3,377.87l0.1,0.1C589.4,377.72,589.43,377.73,589.3,377.87z"/> <path d="M604.97,160.94c-1.02,0.1-1.22,0.51-1.22,1.02c0,1.83-0.31,3.76,1.12,5.9C604.97,165.21,605.47,163.08,604.97,160.94z"/> <path d="M586.75,113.83c-1.53,1.22-0.71,2.65-1.02,4.68C587.06,116.68,587.36,115.46,586.75,113.83z"/> <path d="M572.51,24.39c0.31-0.81,0.61-1.63,0.1-2.54C571.59,23.88,571.59,23.88,572.51,24.39z"/> <path d="M605.47,171.52c0.81-1.22,0.31-1.93-0.71-2.65C603.95,170.1,604.56,170.81,605.47,171.52z"/> <path d="M606.08,174.88c0.51-0.51,0.31-1.02-0.1-1.53c-0.2-0.1-0.41-0.1-0.61-0.2C604.51,174.01,605.43,175.53,606.08,174.88z"/> <path d="M606.49,179.25c0.86-0.86,0.67-0.32,0.31-1.42C605.93,178.41,605.57,178.33,606.49,179.25z"/> <path d="M606.9,182.2c-0.71,0.1-0.92,0.61-0.71,1.22C606.6,184.25,608.06,183.13,606.9,182.2z"/> <path d="M571.69,29.58c-0.34,0.33-0.25,0.41,0.2,1.63C572.05,29.99,572.33,29.58,571.69,29.58z"/> <path d="M586.35,110.06c-0.1-0.1-0.2-0.1-0.31-0.1C586.04,111.47,585.96,110.83,586.35,110.06z"/> <path d="M586.96,105.28c0-0.1,0-0.2-0.1-0.31C586.85,104.61,586.1,105.28,586.96,105.28z"/> <path d="M649.02,279.68c-0.96,4.65,2.85,8.07,2.03,1.32c-0.17-1.43-0.31-2.75,0.71-3.87C649.94,277.24,649.32,278.25,649.02,279.68
		z"/> <path d="M609.44,235.93c0.19,0.48,0.06,1.94,4.07,3.66C612.09,237.45,612.09,237.45,609.44,235.93z"/> <path d="M655.84,251.29c0.68-0.34,0.51,0.39,0.51-4.27C655.23,249.36,655.23,249.36,655.84,251.29z"/> <path d="M653.5,271.34c0-0.92,0-1.73,0-2.85C653.09,269.61,652.79,270.42,653.5,271.34z"/> <path d="M610.46,283.14c0.2,0.31,0.41,0.51,0.51,0.71c0.1-0.1,0.31-0.2,0.31-0.31C611.27,282.8,610.63,283.08,610.46,283.14z"/> <path d="M655.43,255.87c0,0.1,0.1,0.2,0.31,0.31C655.74,254.42,655.43,255.56,655.43,255.87z"/> <path d="M623.48,245.09c0.1,0,0.2,0.1,0.31,0.1c0,0,0-0.1,0.1-0.2C623.75,244.98,623.48,244.7,623.48,245.09z"/> <path d="M610.36,279.88c0,0.26-0.05,0.2,0.2,0.2L610.36,279.88z"/> <path d="M615.65,254.55c0.13,0.13,0.06,0.08,0.31,0.2C615.71,254.51,615.78,254.55,615.65,254.55z"/> <path d="M587.87,293.52c-2.03,2.34-2.95,4.58-3.46,7.63C586.35,298.81,587.87,296.88,587.87,293.52z"/> <path d="M631.83,337.88c1.42-1.12,2.24-2.65,3.66-6.72C633.35,333,632.23,335.03,631.83,337.88z"/> <path d="M625.21,331.98c0.41,2.24,1.22,4.17,3.26,5.7C628.06,335.23,627.25,333.91,625.21,331.98z"/> <path d="M615.75,301.96c-1.22-1.32-2.85-1.02-4.38-1.32C612.6,301.86,614.12,302.06,615.75,301.96z"/> <path d="M628.77,324.75c-0.2,1.32,0.61,2.14,1.53,2.95C630.5,326.18,630.5,326.18,628.77,324.75z"/> <path d="M593.57,303.69c1.12,0.51,2.34,0.31,3.56,0.51C596.11,303.08,594.79,303.69,593.57,303.69z"/> <path d="M631.52,344.19c0.03,0,0.06,0,0.08,0c-0.04,0.02-0.16,0.09-0.39,0.2c0.1,0,0.2,0,0.2,0c0.15-0.15,0.21-0.21,0.19-0.2
		c1.1,0,2.3,0,3.37,0C632.95,343.37,632.95,343.37,631.52,344.19z"/> <path d="M599.98,304.3c-0.92-0.1-1.93-0.1-2.85-0.2C597.94,304.91,598.96,304.81,599.98,304.3z"/> <path d="M589.09,298.81c0.1,0,0.1-0.1,0.2-0.1c-0.31,0-0.51,0-0.81,0C588.79,298.71,588.89,298.81,589.09,298.81z"/> <path d="M615.75,301.96c0.2,0.1,0.51,0.31,0.2,0.1C616.26,302.06,615.95,302.06,615.75,301.96z"/> <path d="M627.76,323.84c0,0.1,0.1,0.2,0.1,0.31C627.96,323.94,627.86,323.94,627.76,323.84z"/> <path d="M628.67,324.86l0.1-0.1C628.67,324.69,626.99,323.18,628.67,324.86z"/> <path d="M625.11,332.08c0-0.2-0.1-0.31-0.1-0.31C625.01,331.88,625.11,331.98,625.11,332.08z"/> <path d="M651.87,219.14c-12.95,4.32-17.2,0.81-29.51-0.31c1.88,2.25,16.25,7.93,30.73,1.93c0.51-0.21,0.51-0.31,1.12-1.63
		C653.4,218.53,652.69,218.94,651.87,219.14z"/> <path d="M618.6,217.51c1.08,0.69,2.08,1.65,3.6,1.34C621.3,217.6,620.1,217.22,618.6,217.51z"/> <path d="M622.2,218.85c0.02,0.03,0.04,0.05,0.06,0.08C622.38,218.82,622.43,218.81,622.2,218.85z"/> <path d="M656.65,217.61c0.92,0.81,1.32,0.51,1.73-0.2C658.38,216.77,658.01,217.07,656.65,217.61z"/> <path d="M613.31,214.97c0.2,0.1,0.2,0.2,0.31,0.2C614.34,215.17,613.31,214.51,613.31,214.97z"/> <path d="M632.54,159.01c-2.36-0.25-15.21-1.81-16.79,0.41c16.07,1.61,18.19-0.48,20.76,3.46c0.31,0.61,0.71,1.22,1.53,1.22
		c0.3-0.59,0.44-0.23-2.75-4.38C634.37,159.51,633.46,159.1,632.54,159.01z"/> <path d="M621.14,132.04c3.37,1.39,6.72,3.15,10.38,2.95c-8.81-4.17-11.09-3.78-11.4-7.73c0-0.41-0.31-0.81-0.41-1.22
		c-0.81-0.1-1.12,0.3-1.02,0.71C619.33,129.37,619.77,131.48,621.14,132.04z"/> <path d="M640.37,107.72c2.24-0.1,3.66,0.31,4.78,1.53c0.2,0.31,0.92,0.2,1.53,0.2c0.6-2.71-0.2-1.83,1.83-4.68
		C645.77,104.06,644.65,104.37,640.37,107.72z"/> <path d="M639.56,102.94c3.08-0.88,4.03-1.78,6.31-0.81c2.09,0.88,4.44,1.97,4.68,0.51C646.68,99.28,642.92,99.28,639.56,102.94z"/> <path d="M623.38,134.69c0.51,1.83,0.51,1.83,2.44,3.26C625.11,136.01,625.11,136.01,623.38,134.69z"/> <path d="M632.03,150.25l-0.1-0.31C631.8,150.33,631.77,150.25,632.03,150.25z"/> <path d="M630,146.59c0-1.13-0.1-0.84-0.1-1.02C629.55,146.26,629.58,145.76,630,146.59z"/> <path d="M625.82,137.94c0.1,0.1,0.2,0.2,0.31,0.41c0-0.1,0-0.2-0.1-0.2C626.03,137.94,625.93,137.94,625.82,137.94z"/> <path d="M631.73,135.2c-0.02-0.02-0.02-0.03-0.03-0.04c0.02,0.06,0.03,0.14,0.03,0.25C631.73,135.3,631.73,135.3,631.73,135.2z"/> <path d="M631.69,135.15C631.65,134.98,631.58,135.02,631.69,135.15L631.69,135.15z"/> <path d="M607,125.84c0.4,0,0-0.13,0-0.51C606.51,125.94,607.14,125.7,607,125.84z"/> <path d="M630.2,146.59l-0.1-0.1C629.97,146.62,629.93,146.59,630.2,146.59z"/> <path d="M668.25,138.45c0.1,1.93-1.02,3.76-0.2,5.7c1.63-2.24,1.63-4.58,1.22-7.12C668.25,137.23,668.25,137.94,668.25,138.45z"/> <path d="M668.36,129.19c-0.2,1.12-0.51,2.24,0,3.46c1.63-1.12,1.12-2.65,1.02-4.48C668.86,128.68,668.46,128.89,668.36,129.19z"/> <path d="M676.39,30.19c0.61-1.12,0.51-2.14-0.1-3.26C674.97,28.56,674.97,29.07,676.39,30.19z"/> <path d="M675.58,33.45c1.35,1.79,1.8,0.12,1.63-0.31C676.76,32.24,676.17,32.65,675.58,33.45z"/> <path d="M676.29,38.23c0.2-0.1,0.41-0.51,0.41-0.71s-0.31-0.51-0.51-0.71c-0.2,0.31-0.51,0.61-0.92,1.02
		C675.78,38.03,676.09,38.33,676.29,38.23z"/> <path d="M666.02,99.99c-1.12,0.41-1.63,0.81-1.93,1.93C665.51,102.13,665.71,101.31,666.02,99.99z"/> <path d="M652.48,155.04c0.29,0,0.2,0.31,0.2-2.03C652.1,153,652.48,152.79,652.48,155.04z"/> <path d="M669.98,91.85c-0.4-0.4-0.02-0.13-1.02,0.2C669.65,92.74,669.05,92.79,669.98,91.85z"/> <path d="M668.25,96.53c1.27-0.51,0.22-2.61-0.61-0.1C667.85,96.43,668.05,96.63,668.25,96.53z"/> <path d="M669.27,121.87c-0.27,0-0.2-0.22-0.2,1.12C669.34,122.99,669.27,123.21,669.27,121.87z"/> <path d="M669.07,126.65c0.4,0,0.31,0.2,0.31-1.12C668.97,125.53,669.07,125.33,669.07,126.65z"/> <path d="M667.24,37.21c0.39-1.57,0.18-0.9-0.31-1.63C666.68,36.57,666.54,36.74,667.24,37.21z"/> <path d="M671.2,88.7c0.34-0.67,0.19-0.52,0-0.71C670.86,88.67,671.02,88.51,671.2,88.7z"/> <path d="M623.18,579.94c-2.65,0-4.88-0.41-7.53,0.41C617.17,582.7,621.27,582,623.18,579.94z"/> <path d="M608.83,87.48c-0.16-0.16-0.31-0.1-0.41,0C608.64,87.69,608.62,87.48,608.83,87.48z"/> <path d="M602.12,87.07c0.51,0.31,1.02,0.51,1.53,0.81C603.13,87.58,602.63,87.27,602.12,87.07z"/> <path d="M623.79,82.08l-0.1-0.1C623.42,82.25,623.38,82.22,623.79,82.08z"/> <path d="M613.31,98.77c-0.51-0.1-0.81-0.1-1.02-0.31C612.7,98.97,612.7,98.97,613.31,98.77z"/> <path d="M615.14,99.48c-0.1,0-0.2,0.1-0.31,0.1c0,0.1,0.1,0.1,0.1,0.2C615.04,99.69,615.04,99.58,615.14,99.48z"/> <polygon points="610.77,93.48 610.77,93.48 610.77,93.48 	"/> <path d="M610.71,93.4c0.02,0.03,0.04,0.05,0.05,0.08C610.87,93.37,610.93,93.35,610.71,93.4z"/> <path d="M612.9,93.58c-0.91,0-1.52,0-2.13-0.1C611.29,94.23,611.7,94.54,612.9,93.58z"/> <path d="M274.28,474.33c2.03-1.02,3.56-2.44,4.17-3.97c0,0-0.31-0.31-0.41-0.61C276.01,470.66,275.3,472.49,274.28,474.33z"/> <path d="M297.38,475.45c-1.22,1.42-1.22,3.05-1.32,4.78C297.68,478.9,297.79,478.7,297.38,475.45z"/> <path d="M296.67,452.86c-0.51,2.03-0.51,2.03,0.92,4.17C297.48,455.1,298.09,453.87,296.67,452.86z"/> <path d="M255.86,533.75c1.22,0,1.42-0.61,1.32-1.42C256.27,532.12,256.07,532.83,255.86,533.75z"/> <path d="M270.21,483.48c0.31-0.41,0.61-0.81,1.32-1.83C270.01,482.06,269.7,482.57,270.21,483.48z"/> <path d="M268.18,488.37c0.2-0.31,0.51-0.71,0.81-1.12C267.97,487.04,268.18,487.86,268.18,488.37z"/> <path d="M253.42,543.11c0,0.1,0.1,0.2,0.2,0.51c0.43-0.29,0.32-0.16,0.71-1.32C253.48,542.29,253.87,541.75,253.42,543.11z"/> <path d="M255.46,537.1c-0.76,0.76-0.5,0.77,0,1.02c0.2-0.31,0.31-0.51,0.51-0.81C255.76,537.21,255.56,537,255.46,537.1z"/> <path d="M267.57,490.61c-0.67,0.67-0.31,0.33-0.31,0.71c0.2-0.2,0.31-0.31,0.51-0.51C267.67,490.71,267.67,490.61,267.57,490.61z"/> <path d="M296.56,462.83c0,1.44-0.1,1.22,0.31,1.22C296.87,462.61,296.97,462.83,296.56,462.83z"/> <path d="M297.48,469.75c0-0.27,0.28-0.51-0.1-0.51C297.38,469.34,297.38,469.54,297.48,469.75z"/> <path d="M297.89,536.9c-1.42,2.14-2.24,4.48-2.34,7.22c0.41-0.1,0.71-0.1,0.71-0.2C298.64,539.16,300.18,537.09,297.89,536.9z"/> <path d="M330.96,471.78c0-0.2-0.51-0.41-0.92-0.71c-1.73,2.24-1.22,4.68-1.32,7.12C330.34,476.26,331.16,474.12,330.96,471.78z"/> <path d="M327.7,447.06c-0.51-0.92-1.02-1.73-1.63-2.65c-1.12,0.81-1.22,1.22-0.81,1.63C326.52,447.09,327.31,447.84,327.7,447.06z"/> <path d="M345.61,452.45c-1.81,0.2-1.01,1.35-0.51,2.34C345.63,454.26,345.61,455.84,345.61,452.45z"/> <path d="M327.9,486.33c0.81-1.32,0.71-2.44,0.41-4.17C327.19,483.79,327.7,484.91,327.9,486.33z"/> <path d="M321.29,499.15c0.81-0.51,1.32-1.02,1.02-2.03C321.19,497.42,321.39,498.34,321.29,499.15z"/> <path d="M293.31,550.74c0,0.3,0.29,0.73,0.81,0.2c0.1-0.2-0.1-0.41-0.1-0.61C293.82,550.43,293.51,550.54,293.31,550.74z"/> <path d="M324.75,493.25c0.37-1.46,0.41-1.19,0-1.32c-0.2,0.41-0.41,0.71-0.51,1.12C324.24,493.15,324.35,493.45,324.75,493.25z"/> <path d="M329.84,448.18c-0.1,0-0.2,0.31-0.41,0.51c0.31,0.1,0.61,0.2,0.92,0.31C330.34,448.7,330.83,448.18,329.84,448.18z"/> <path d="M328.31,480.33c0-0.1-0.1-0.2-0.1-0.31C327.86,480.02,328,480.64,328.31,480.33z"/> <path d="M318.03,503.43c0.51,0.31,0.41-0.1,0.41-0.31C318.34,503.22,318.13,503.32,318.03,503.43z"/> <path d="M318.34,503.02c0.2,0,0.41,0,0.51-0.1C318.54,502.41,318.54,503.02,318.34,503.02z"/> <path d="M260.54,364.23c0.14-0.14,0.19-0.12-0.32-0.03c-0.46-0.52-0.45-0.66-0.49,0.03c-0.1,0-7.03-3.51-7.13-3.56
		c-3.37-1.84-2.57-0.3,3.05,2.75c8.33,4.51,5.48,6.11,7.33,4.88C262.58,366.78,261.87,365.25,260.54,364.23z"/> <path d="M250.37,359.96c0.24-0.04,0.18,0.01,0.1-0.1L250.37,359.96z"/> <path d="M285.37,341.75c4.05-6.4,2.46-3.86,3.76-10.38c-2.03,1.63-3.66,3.46-3.46,6.41c0.2,1.42-1.55,3.36-1.42,4.99
		C284.76,342.26,285.18,342.06,285.37,341.75z"/> <path d="M292.49,300.23c0.22-0.46-0.65-1.28-1.32-0.61c-0.15,0.1-2.87,4-4.88,8.04C289.34,305.93,291.03,303.27,292.49,300.23z"/> <path d="M283.64,346.12c-1.02,1.83-1.93,3.66-2.95,5.49C281.82,352.98,283.64,348.68,283.64,346.12z"/> <path d="M263.19,342.05c-1.32,1.93-1.32,1.93-1.32,4.99C263.84,347.37,263.68,343.43,263.19,342.05z"/> <path d="M280.08,368c-0.92,0.41-1.73,0.81-1.73,1.93C280.49,369.32,280.49,369.32,280.08,368z"/> <path d="M276.21,317.23c-1.32,0.41-1.73,1.02-2.14,2.44C275.3,318.95,275.81,318.34,276.21,317.23z"/> <path d="M290.56,326.99c1.02-0.2,1.42-0.71,1.22-2.03C291.17,325.98,290.87,326.48,290.56,326.99z"/> <path d="M282.62,311.63c1.59-1.06,1.1-1.44-0.41-0.31C282.42,311.53,282.52,311.73,282.62,311.63z"/> <path d="M259.43,301.56c0-1.18,0.39-0.57-1.12-1.83C258.56,301.75,258.57,301.27,259.43,301.56z"/> <path d="M267.97,299.42c-0.59-0.89-0.43-0.81-1.02-0.61C267.76,300.01,267.38,299.42,267.97,299.42z"/> <path d="M275.71,374.41c0.1,0,0.81,0.45,0.81-0.51c-0.1,0-0.41-0.1-0.61-0.31C275.81,373.9,275.71,374.2,275.71,374.41z"/> <path d="M261.97,329.33c-0.1,0.1-0.2,0.1-0.31,0.1c0,0.1,0.1,0.1,0.1,0.2C261.87,329.54,261.87,329.44,261.97,329.33z"/> <path d="M289.03,331.27c0.78-0.39,0.55-0.33,0.31-0.81C288.96,330.84,289.26,331.05,289.03,331.27z"/> <path d="M293.1,317.63H293C293,317.88,292.97,317.9,293.1,317.63z"/> <path d="M286.19,307.72c-0.19,0.09-0.52,0.14-0.11,0.14C286.14,307.81,286.17,307.76,286.19,307.72z"/> <path d="M286.19,307.72c0.04-0.02,0.07-0.04,0.09-0.06C286.24,307.66,286.22,307.69,286.19,307.72z"/> <path d="M250.17,359.86c0.04,0,0.07,0,0.11,0.01C250.15,359.52,250.17,359.66,250.17,359.86z"/> <path d="M250.28,359.87c0.02,0.07,0.05,0.14,0.09,0.19C250.37,359.94,250.33,359.89,250.28,359.87z"/> <path d="M257.59,361.28l-0.1-0.1C257.49,361.43,257.46,361.42,257.59,361.28z"/> <path d="M258.31,361.99c-1.22-1.22-0.61-0.66-0.1,0.1L258.31,361.99z"/> <path d="M258.92,362.81l0.1-0.1C257.51,361.2,258.82,362.71,258.92,362.81z"/> <path d="M259.63,363.52c0.24,0.34,0.12,0.08,0.31-0.1c-0.31-0.31-0.51-0.51-0.81-0.71C259.3,363.28,259.96,363.34,259.63,363.52z"/> <path d="M277.74,370.75c0.03-0.05,0.08-0.08,0.12-0.13C277.58,370.65,277.61,370.61,277.74,370.75z"/> <path d="M278.45,370.03c-0.17,0.17-0.4,0.36-0.59,0.58C278.15,370.55,278.37,370.36,278.45,370.03z"/> <path d="M277.44,370.85c0.07-0.07,0.13-0.13,0.2-0.2C277.54,370.64,277.54,370.75,277.44,370.85z"/> <path d="M277.44,370.85c-0.03,0.03-0.07,0.07-0.1,0.1C277.44,370.95,277.44,370.85,277.44,370.85z"/> <path d="M262.38,333c-0.27-0.13-0.24-0.16-0.1,0.1L262.38,333z"/> <path d="M246.71,357.62c0.13,0.13,0.06,0.06,0.31,0.31C246.88,357.67,246.95,357.74,246.71,357.62z"/> <path d="M280.79,156.56c2.03,0.51,2.54,0.6,4.07,0.2c1.22-0.31,2.65-0.2,3.66-1.42c-1.73-0.41-3.36-0.81-5.6-1.42
		c2.75-0.51,4.78-0.93,6.92-1.22c4.26-0.57,4.13,1.56,5.9-0.2c-0.1-0.31,0-0.61-0.2-0.71c-2.37-1.58-4.84-3.05-7.87-3.13
		c-0.22-0.62-0.8-0.63-1.29-0.73c-0.66-0.19-0.71,0.24-0.71,0.71c0.52,0,1.15,0.01,1.75,0.07c-0.37,0.77-1.28,0.45-1.85,0.64
		c0.81,0.61,0.31,2.03,1.63,2.65c-2.3,0.57-4-1.05-7.02,0.1c-0.96,0.28-3.33-0.68-11.09-2.34c-1.42-0.31-2.85-0.31-4.27-0.31
		c-0.81,0-1.53,0.61-1.22,1.73c6.21,0.51,12.41,1.53,18.42,3.36C281.51,155.34,280.49,155.55,280.79,156.56z"/> <path d="M289.14,202.05c-6.54-4.13-11.83-3.06-12.21-8.34c-0.2-0.51-0.41-1.12-1.22-1.22c-0.81,1.53,0.12,2.95,0.61,4.38
		C277.35,199.84,286.31,201.6,289.14,202.05z"/> <path d="M286.9,232.26c-1.42-0.61-2.65-1.22-3.87-1.73c-1.78,1.78,3.7,3.95,5.09,3.26c1.42-0.92,2.95-1.42,4.58-1.63
		c0.2,0,0.41-0.51,0.61-0.81C290.87,230.33,288.83,231.15,286.9,232.26z"/> <path d="M297.89,173.66c1.12,0.2,2.14,0.09,2.75,0.51c4.2,2.9,1.28,1.05,4.27-2.95C302.26,170.5,301.96,170.6,297.89,173.66z"/> <path d="M299.01,168.37c3.45-1.52,7.94,2.83,7.94,0.2c-3.43-3.43-10.28-1.53-10.28,0.41C297.58,169.38,298.3,168.68,299.01,168.37z
		"/> <path d="M285.47,149.32c0-0.21,0-0.41,0-0.63c-5.56-2.18-3.26-0.12-7.83-0.77c0.51,0.2,1.02,0.62,1.53,0.61
		C281.36,148.47,283.38,149.01,285.47,149.32z"/> <path d="M285.58,148.73l-0.1-0.1C285.47,148.68,285.45,148.69,285.58,148.73z"/> <path d="M285.47,149.32c0,0.04,0,0.08,0,0.12C285.61,149.3,285.59,149.36,285.47,149.32z"/> <path d="M276.21,230.43c1.63,1.12,2.75,1.63,4.07,1.02C280.28,230.3,280.9,230.71,276.21,230.43z"/> <path d="M282.62,204.49c-0.79-1.97-0.41-1.09-2.44-3.46C280.08,202.76,280.59,203.47,282.62,204.49z"/> <path d="M285.58,148.63l0.1,0.1C285.68,148.61,285.7,148.63,285.58,148.63z"/> <path d="M261.87,171.62c0.41,0.71,0.92,0.92,1.83,0.1C262.89,171.62,262.38,171.62,261.87,171.62z"/> <path d="M286.39,212.12c-0.47,0.93-0.04,0.19,0.51,1.02C286.6,212.25,286.9,212.12,286.39,212.12z"/> <path d="M283.85,150.56c0.1,0,0.31-0.1,0.41-0.1C284.06,150.26,283.85,150.4,283.85,150.56z"/> <path d="M266.24,156.46l0.1-0.1C266.01,156.36,266.05,156.39,266.24,156.46z"/> <path d="M259.73,173.66l0.1,0.1C259.83,173.63,259.86,173.66,259.73,173.66z"/> <path d="M264.82,156.56c-0.14,0-0.18,0.05-0.22,0.08C264.67,156.61,264.75,156.56,264.82,156.56z"/> <path d="M286.9,213.14l0.2,0.1C286.97,212.98,287.03,213,286.9,213.14z"/> <path d="M282.76,204.57c0.06,0.14,0.09,0.25,0.17,0.43C282.93,204.84,283.09,204.9,282.76,204.57z"/> <path d="M294.17,278.37c0.01-0.01,0.03-0.01,0.05-0.01C294.22,278.24,294.22,278.2,294.17,278.37z"/> <path d="M278.55,281.92c-3.59-0.48-4.59-1.91-8.04-1.22c4.25,5.1,19.59,6.82,23.66-2.33C290.99,278.85,289.97,283.43,278.55,281.92
		z"/> <path d="M264.31,278.56c0.31,1.42,1.53,1.53,2.44,1.83c0.41,0.1,1.02-0.2,1.53-0.2C267.06,278.66,265.94,277.85,264.31,278.56z"/> <path d="M294.12,278.26h0.1C294.2,278.21,294.23,278.18,294.12,278.26z"/> <path d="M295.14,276.32c-0.79,0.4-1.29,1-0.94,1.88c0.57-0.38,1.07-0.68,1.65-1.07C296,276.99,295.89,276.32,295.14,276.32z"/> <path d="M297.58,273.57c-0.2,0-0.2,0.31-0.31,0.51c0.2,0,0.41,0.1,0.51,0.1c0.2-0.1,0.2-0.31,0.41-0.51
		C297.99,273.68,297.68,273.47,297.58,273.57z"/> <path d="M262.07,277.14c0.42,0.42,0.3,0.61,0.81,0.1C262.49,276.84,262.3,277.02,262.07,277.14z"/> <path d="M352.32,241.02c-0.31,0.41-0.71,0.92-0.81,1.32c-0.2,1.83,0.41,3.66,1.63,5.19c0.2-0.2,0.71-0.41,0.71-0.61
		c0.2-1.83-0.1-3.66-0.81-5.49C353.03,241.32,352.73,241.22,352.32,241.02z"/> <path d="M347.34,232.98c1.12,1.12,2.14,0.92,3.87,0.41C349.68,232.26,348.66,232.37,347.34,232.98z"/> <path d="M318.34,283.65c-0.2,0.1-0.31,0.41-0.51,0.61c0.2,0.31,0.2,0.61,0.41,0.71C319.85,285.78,319.32,283.65,318.34,283.65z"/> <path d="M345.71,308.58c0.55,0.27,0.74,0.95,1.12-0.2C345.75,307.65,346.21,307.82,345.71,308.58z"/> <path d="M321.39,289.65c0.42,0.42,0.34,0.63,0.81-0.31C321.45,288.97,321.65,289.13,321.39,289.65z"/> <path d="M353.03,254.85c0,0.1,0.1,0.1,0.2,0.2c0.1-0.2,0.1-0.41,0.2-0.61C353.07,254.07,353.34,254.25,353.03,254.85z"/> <path d="M320.17,287.41c0.53-0.53,0.54,0.06,0.1-0.81C320.07,287.01,319.79,286.65,320.17,287.41z"/> <path d="M344.69,306.44c0.4-0.4,0-0.24,0-0.81C344.35,305.96,344.03,305.77,344.69,306.44z"/> <path d="M241.42,230.53c-1.32,1.63-1.32,1.83,0.1,4.07C242.33,233.18,242.84,231.86,241.42,230.53z"/> <path d="M221.78,304l0.1,0.1C221.84,303.98,221.91,304,221.78,304z"/> <path d="M221.86,304c2.7,0.09,1.66-1.14,1.34-2.75C220.98,301.25,221.3,301.62,221.86,304z"/> <path d="M240.81,239.18c-0.32,1.94-0.3,1.94,0.31,2.24c0.79,0,0.51-0.98,0.51-2.24C241.42,239.18,241.11,239.18,240.81,239.18z"/> <path d="M220.56,303.69c-0.2,1.22,0.2,1.93,1.53,2.65C221.52,303.57,222.04,304.29,220.56,303.69z"/> <path d="M221.88,304.2l-0.2-0.1C221.68,304.13,221.84,304.19,221.88,304.2z"/> <path d="M241.52,237.25c0.61-0.41,0.51-0.81,0.1-1.32C241.01,236.33,241.01,236.74,241.52,237.25z"/> <path d="M223.2,301.15c0.1,0,0.2-0.1,0.31-0.2C223.41,300.95,223.3,301.05,223.2,301.15z"/> <path d="M245.79,229.42c0.24-0.24,0.32-0.09,0-0.41C245.55,229.25,245.47,229.09,245.79,229.42z"/> <path d="M280.18,581.47c2.75,0.92,4.78,0.71,6.92-0.51C284.86,580.25,282.52,580.35,280.18,581.47z"/> <path d="M291.99,594.08c-0.2,0.1-0.41,0.2-0.61,0.31C291.88,594.8,291.99,594.49,291.99,594.08z"/> <path d="M249.96,229.11c1.93,1.12,3.26,2.75,5.9,2.44C254.64,229.93,254.38,228.13,249.96,229.11z"/> <path d="M251.91,154.34c0.03,0.03,0.06,0.06,0.09,0.09c0,0,0.01,0.01,0.01,0.01C251.93,154.27,251.99,154.29,251.91,154.34z"/> <path d="M249.76,156.56c-2.66,2.18-4.38,6.46-3.05,12.11c0.27-2.47,0.17-6.83,2.54-10.48
		C249.45,157.68,249.45,157.07,249.76,156.56z"/> <path d="M247.11,179.15c0.1,0.1,0,0.2,0,0.31c0,0.1,0.1,0.1,0.1,0.2c0-0.1,0.1-0.2,0-0.31
		C247.22,179.25,247.11,179.15,247.11,179.15z"/> <path d="M249.86,156.46c-0.07,0.01-0.12,0.02-0.2,0C249.78,156.58,249.73,156.59,249.86,156.46z"/> <path d="M250.47,155.85c-0.17,0.17-0.42,0.42-0.61,0.61C250.22,156.45,250.39,156.2,250.47,155.85z"/> <path d="M251.08,155.24c-0.12,0.12-0.08,0.01,0.1,0.1L251.08,155.24z"/> <path d="M250.37,155.85c0.18-0.18,0.44-0.37,0.64-0.55C250.7,155.25,250.45,155.51,250.37,155.85z"/> <path d="M252,154.43c-0.1,0.05-0.98,0.55-0.71,0.81C251.49,154.94,251.79,154.73,252,154.43z"/> <path d="M268.89,164.4l0.1-0.1C268.91,164.3,268.96,164.25,268.89,164.4z"/> <path d="M270.92,165.31c0.1,0-0.1-0.1-0.31-0.2C270.82,165.31,271.03,165.42,270.92,165.31z"/> <path d="M273.47,166.13h-0.2C273.26,166.39,273.21,166.38,273.47,166.13z"/> <path d="M270.52,165.21l0.1-0.1C270.01,165,270.37,165.12,270.52,165.21z"/> <path d="M270.27,165.08c-0.42-0.23-0.83-0.43-1.18-0.68C269.25,165.06,269.76,165.05,270.27,165.08z"/> <path d="M258.31,158.7c1.06,1.06,2.13,2.75,5.8,3.66c-1.68-1.58-2.7-2.11-4.99-2.88C259.1,158.9,258.8,158.7,258.31,158.7z"/> </g> </svg> 