<?xml version="1.0" encoding="utf-8"?> <!-- Generator: Adobe Illustrator 23.0.1, SVG Export Plug-In . SVG Version: 6.00 Build 0)  --> <svg version="1.2" baseProfile="tiny" id="Layer_1" xmlns="http://www.w3.org/2000/svg" xmlns:xlink="http://www.w3.org/1999/xlink" x="0px" y="0px" viewBox="0 0 900 600" xml:space="preserve"> <g> <path d="M651.04,433.37C651.05,433.5,651.06,433.35,651.04,433.37L651.04,433.37z"/> <path d="M736.65,82.59c0.2-0.61,0.21-1.01,0.41-1.22c3.02-3.13-0.14-5.67,1.01-9.12c-0.61-0.51-1.22-0.91-1.72-1.42
		c-0.81-0.71-2.2-0.21-2.64-1.62c-0.23-0.73-4.2-0.33-6.28-0.2c-4.08,0.68-5.63-1.51-12.97,7.3c1.26,1.26,1.37-1.2,9.02-5.98
		c2.43,0.41,3.68,1.91,4.56,3.85c0.68,1.51-0.12,2.15-2.23,4.86c-3.27-1.76-1.1-4.31-3.14-4.76c-1.01,1.42,0.1,2.94-0.41,4.46
		c-1.85,2.16-2.47-0.09-6.59,0.2c0.1,1.52,1.62,1.42,2.33,2.43c-0.91,0.71-1.93,1.52-2.94,2.23c-1.52-1.11-1.62-2.84-2.33-4.36
		c-1.42,1.62-1.42,1.62,0.61,5.57c-0.81,1.32-0.8,2.94-0.91,4.56c-0.45,6.44-2.84,14.42-2.84,19.86c0,1.97-0.68,2.43-8.41,16.93
		c-3.54,6.63-3.4,8.61-5.57,8.61c-8.36-7.94-5.69-9.61-7.8-12.67c-0.41-0.71-0.4-1.62-0.51-2.43c-1.19-8.96-7.28-10.89-9.53-13.07
		c-4.65-4.52-12.02-5.93-15.1-5.57c-2.84,0.33-5.47-0.1-8.11-1.93c0-0.51-0.18-1.32-0.2-2.13c-0.06-2.78,0.1-8.49-0.41-10.34
		c-1.69-6.21,0.62-12.99-1.52-10.84c-1.11,2.74-1.54,5.58-0.81,8.41c1.82,7.08,0.81,13.76,0.81,18.14c3.61,3.13,4.58,4.01,5.98,5.98
		c6.47,9.13,14.39,19.92,14.39,31.22c-1.32,0.1-2.43,0.1-3.65,0.2c-5.14-7.51-16.81-10.49-7.09-4.16c1.22,0.8,2.64,1.62,3.75,3.14
		c-13.24,0-47.96-37.75-55.54-45.91c2.24-2.24,5.88-5.88,8.11-8.72c3.95-5.04,3.48-19.51,2.13-25.44c0-1.89,2.25-0.4,2.64-2.33
		c-0.71-0.91-1.42,0.52-2.33,0.1c-8.99-4.1-10.47-13.64-7.52-14.66c-0.15,1.47-1.07,2.86-0.39,4.72c0.71-1.01,1.32-1.82,1.82-2.53
		c1.72,0,0.46,1.51-0.2,2.84c-0.1,0.2,0.2,0.61,0.41,1.11c0.54-0.32,1.03-0.52,2.33-1.82c0.96,1.44-1.45,3.36,0.91,4.36
		c0.92,0.39,0.61,1.11,0.81,1.72c0.2,0.51,0.81,0.91,1.32,1.32c2.64-3.01-1.72-2.16-1.72-7.4c0-0.41-0.3-0.81-0.41-1.22
		c1.82-0.71,3.55,0.3,5.88,0c-1.01-0.71-1.93-1.11-2.03-1.62c-0.2-1.01-1.42-0.71-1.62-1.52c0.91-1.22,3.14-0.1,3.65-2.43
		c-1.93,0.1-3.55,1.01-5.37,0.41c0.41-1.11,1.22-0.71,1.82-0.91c1.67-0.28,4.93-1.77,3.95-3.24c-5.2,3.95-9.41,1.75-13.39,4.8
		c-1.18,4.27-1.92,5.93,1.02,9.69c1.42,1.81,0.67,2.4,2.23,11.05c2.93,16.28,2.43,11.97,2.43,15.1c-3.52-7.04-5.46-22.79-6.49-23.82
		c-1.18,0.59,1.79,11.47,2.03,12.26c1.25,4.22,1.22,4.38-0.41,4.05c1.37,17.76,6.11,13.67,2.43,17.23
		c-12.22,11.83-13.74,10.88-21.49,13.64c0-0.18,0.02-0.39,0.1-0.47c6.63-4.14,5.92-3.12,9.63-16.32c-0.5-4.22-5.5-4.75-7.7-10.14
		c-0.59-1.43-1.52-2.74-2.23-4.05c-2.43-0.61-4.56,0.51-6.79,0.51c-2.13,0-4.36,0.9-6.59,1.42c-2.13,0.5-4.46,0.41-6.49,1.72
		c-2.33,0-4.46,0.61-6.69,1.82c-0.2,1.32-0.51,2.64-0.71,4.16c-1.36,1.7-2.29,2.47-2.13,4.26c0.94,10.32-1.82,15.02-1.52,17.74
		c0.32,2.9-0.95,3.99-7.3,13.99c-3,4.72,0.63,2.45-3.34,7.3c-5.52,6.74-13.85,14.66-20.57,28.68c-2.67,5.57-0.71,5.43-2.03,10.13
		c-0.69,2.49-2.88,7.71-3.04,9.12c-0.91,5.46,3.89,13.86,14.8,15.3c3.1,0.41,2.3,0.24,2.84,0.51c0.61,0.91,10.63,256.41,9.43,260.77
		c-8.25,29.8,2.73,46.33,4.36,89.39c-1.22,1.11-2.43,2.03-3.75,3.14c0.82,1.92,0.76,0.82-1.01,9.22c-3,14.2-1.78,6.66-5.47,18.34
		c0.77,2.31-1.31,2.94,1.42,8.61c2.33,4.84,11.95,4.32,16.32,13.18c4.69,9.52,14.08,11.25,24.73,11.25c7.79,0,13.3-1.39,19.16-6.59
		c3.66-3.25,2.64-3.4,2.64-4.97c-2.43,2.13-4.24,4.31-6.89,5.17c-2.32,0.75-4.05,2.64-6.49,2.94c-0.3,0-0.61-0.1-1.22-0.1
		c2.17-5.68,6.94-5.43,10.44-5.78c0.41-0.1,0.71-0.51,1.22-0.81c-5.88-2.13-10.44,0.2-14.59,7.3c-2.94,0.61-6.08,0.3-9.12,0
		c-4.44-0.81-2.46,0.78-4.76,0.2c-10.91-2.1-12.6-8.81-14.29-10.74c-1.93-1.93-2.33-4.26-2.23-6.89
		c0.39-10.23-0.61-18.46-0.61-27.36c2.41-2.89,1.54-1.68,2.23-4.76c0.1-0.1,0.1-0.2,0.1-0.3c0.91-5.17,0.51-4.86,5.88-6.79
		c2.53-0.91,5.17-1.52,7.8-2.03c1.42,1.01,0.81,3.24,2.53,3.85c0.41-2.94-0.2-5.37-3.65-6.18c-2.3-34.5,1.65-30.44,8.61-61.52
		c1.97-8.78,1.32,9.62,7.5-41.35c4.37-4.37,6.72-9.51,7.5-13.78c0.76-4.2,21.44-36.75,26.05-62.84c0.66-3.72,4.72-21.08,7.3-21.08
		c0.51,1.28,0.85,4.84,1.82,10.84c8.08,49.6,6.01,23.11,9.02,49.86c0.09,0.81,0.42,1.73,0.1,2.43c-0.78,1.74-0.2,3.24,0.2,4.86
		c2.55,10.21,2.99,11.99,4.05,14.39c0.62,1.41-0.51,2.53-0.51,3.85c0,24.41-1.95,10.71,6.08,43.17c0.87,3.51,1.44,1.46,3.24,7.5
		c2.31,7.74,1.77,12.74,2.94,15c1.08,2.08,1.82,6.89,1.82,9.93c-2.53,1.01-3.78,0.58-3.34,3.45c0.56,3.7-0.98,5.8-1.82,9.73
		c-0.51,3.56,0.64,3.58-0.71,6.69c-1.1,2.54-1.59,5.39-2.74,8.01c-1.38,3.16,0.52,7.76,3.65,9.12c8.76,3.82,13.9,0.94,14.8,2.74
		c-0.1,0.05-75.82,31.21-77.43,30.91c-1.52-1.42-2.85-3.14-3.75-5.07c-7.49-16.11-6.54-13.02-5.78-16.82
		c-4.15-1.84-2.27-1.57-4.05-3.65c-0.1-0.2-0.61-0.1-0.71-0.3c0.1,1.01,0.3,2.03,0.51,3.34c-6.9,2.96-10.74,3.91-15.51,10.03
		c-0.2,0.2,0.1,0.71,0.2,1.42c8.64-6.37,9.84-6.49,16.42-8.82c1.11,0.81,1.52,1.72,1.52,2.84c-9.02,4.56-10.74,5.78-12.47,8.92
		c3.2,0.64,3.94-2.82,13.88-5.88c3.35,5.59,1,1.33-6.99,9.32c-0.41,0.41-0.71,1.01-0.3,1.62c0.74,1.11,2.2-0.35,3.34-1.11
		c6.49-4.33,4.99-3.24,7.4-2.84c0.41,1.11,0.71,2.13,1.11,3.14c-0.3,0.2-0.51,0.51-0.81,0.71c-2.97,1.98-3.9,2.11-6.28,5.17
		c-0.67,0.67,0.07,2.6,1.42,1.52c10.6-6.81,5.53-4.86,15.81,3.55c6.81,5.56,4.54,5.44,8.31,12.97c0.3,0.51,0.91,0.81,1.62,0
		c-0.3-0.89-1.9-4.05-2.13-5.47c-0.48-3.04-1.92-4.58-8.21-10.54c0.19-1.12,84.12-35.13,84.22-35.17c3.44,0.92,2.58,2.76,7.2,5.57
		c6.82,4.16,16.86,5.26,24.93,5.07c2.67-0.24,4.42-1.02,4.86-0.91c5.37,0.77,9.83-5.94,12.87-6.89c3.69-1.15,1.74-6.11-0.41-9.32
		c-27.3-12.08-5.76-3.94-27.06-13.78c-4.47-2.06-5.43-3.75-13.28-14.8c0-358.38-5.71-335.1,1.62-332.83c9.66,3,9.53,3.84,17.33,2.13
		c1.23-0.18,2.14-1.36,7.6-9.32c14.98-21.87,11.57-34.06,13.78-50.57c1.94-14.49,0.5-9.65,3.14-13.18c2.44-3.25,0.82-4.09,0.91-8.21
		C737.72,86.84,737.97,84.51,736.65,82.59z M614.93,40.73c0.57,0.39,1.03,0.77,1.09,1.49c-0.84-0.18-1.74-0.36-2.58-0.56
		C613.93,40.42,614.14,40.33,614.93,40.73z M616.76,55.73c1.32,1.22,1.32,1.22,0.2,2.43c-0.1-0.41-0.3-0.71-0.3-1.01
		C616.65,56.74,616.76,56.34,616.76,55.73z M615.74,62.21c-0.97-2.75-1.42-5.68-1.82-9.12c1.72,1.72,0.91-1.14,2.72,11.87
		C615.6,64.33,616.05,63.08,615.74,62.21z M616.73,65.25c1.43,1.7,1.25,3.6,1.15,6.28C616.89,69.09,616.39,67.2,616.73,65.25z
		 M614.73,75.69c2.13,3.34,2.13,3.34,1.93,5.07C615.54,79.14,614.93,77.52,614.73,75.69z M731.69,69.61
		c0.41,0.91,0.81,1.72,1.42,3.04c-2.03-0.1-2.23-1.11-2.23-2.23C730.88,70.22,731.28,70.02,731.69,69.61z M727.43,70.83
		c-0.34-0.34,0.61-1.52,1.82-0.3C728.79,73.34,729.85,74.46,727.43,70.83z M713.54,88.77c0.38-2.63,2.02-3.49,8.51-7.7
		c0.61-0.4,0.81-1.32,1.72-1.01c1.32,1.82,0.71,3.75,0.1,5.47c-12.64,6.32-4.5,0.98-12.47,21.69
		C711.16,104.92,710.9,106.93,713.54,88.77z M702.44,126.42c-0.04,0.34-0.11,0.67-0.45,0.89
		C702.22,126.86,702.42,126.46,702.44,126.42z M701.87,127.55c-0.05,0.5,0.01,0.97-0.61,1.19
		C701.29,128.69,701.58,128.11,701.87,127.55z M710.1,115.52c2.13-3.87,1.96-1.07,7.8-6.39c-4.07,15.06-3.29,6.09-9.12,19.97
		c-0.87,2.07-1.75,2.81-8.11,9.02C695.2,143.46,707.11,120.97,710.1,115.52z M720.64,99.31c0.2-0.3,0.61-0.41,1.22-0.81
		c0.19,3.59-0.75,4.59-8.21,11.76C713.25,107.76,713.28,107.77,720.64,99.31z M698.65,133.46c0.82-1.45,1.1-3.21,2.39-4.42
		c-0.36,3.03-2.03,5.51-3.41,8.37C696.35,136.39,696.57,137.13,698.65,133.46z M655.47,101.54c0.32,0.49,0.71,0.91,1.01,1.38
		C655.67,102.82,655.64,102.6,655.47,101.54z M591.32,70.02c3.1,5.43,1.8,2.71,0.51,6.59c-0.53,2.1,0.14,3.97,0.71,5.68
		c-1.11,1.11-1.93,2.33-3.65,2.53c-0.51-1.11-0.19-2.13,0.1-3.14C591.78,72,586.6,70.02,591.32,70.02z M541.76,182.92
		c-3.9,0.3-8.61-2.02-9.63-3.24c-5.42-7.59-5.52-8.26-4.76-10.64c4.8-15.08,1.14-16.75,24.73-46.22c4.7-5.86,0.62-1.35,5.78-9.83
		c8.3-13.64,7.26-12.36,8.72-15.51c1.22-3.67,2.56,2.99,4.16,0.61c-0.91-1.22-1.82-2.53-2.84-3.95c0.1-1.52,0.8-3.14,0.2-4.86
		c-0.31-0.91-0.2-2.13,0.81-3.24c4.32,0,5.37,0.77,5.37-0.71c-2.33-0.91-4.66-1.22-7.3-0.61c-0.71,4.36-1.32,8.61-3.14,13.18
		c-0.2-1.77-0.74,0.28,0.61-14.49c0.14-1.52,1.04-3.85,2.94-3.85c1.32,0.1,2.74,0,3.95,0.3c1.22,0.3,2.53-0.41,3.85,0.3
		c-0.48,3.37-1.12,5.57,1.82,6.39c0.71,0.2,1.11-0.2,1.52-1.42c-2.8-1.2-2.33-0.21-2.33-3.24c0-2.13-0.71-3.95-2.03-5.57
		c-0.1-0.1-0.3-0.1-0.71-0.1c0.1,0.81,0.1,1.62,0.2,2.43c-2.23,0.2-3.34-2.03-5.37-1.93c-0.2,0.3-0.81,0.61-1.32,0.81
		c-0.2-2.13-0.11-2.55,1.32-3.04c3.96-1.37,5.27-1.95,9.43-1.11c3.1,6.59,2.5,3.25,1.22,9.12c-0.2,0.91-0.2,1.82-0.41,2.84
		c0.91-0.51,1.61-1.02,1.93-2.03c1.66-5.25,1.52-5.27-1.62-11.55c0.96-0.09,3.87-0.35,4.36-0.71c1.01-0.91,2.23-1.01,3.34-0.61
		c4.15,1.5,0.81,10.78,0.81,12.67c0.21,3.76-2.11,3.89-1.52,5.07c0.91-0.2,2.03-0.3,2.94-0.81c1.82-1.01,4.18-1.1,5.27-3.24
		c0.1-0.2,0.41-0.2,0.61-0.3c0.91-0.2,1.62,1.32,2.74,0.1c-3.01-2.58-4.91-3.32-4.26-7.09c0.42-2.42,0.92-1.11,7.5,4.86
		c-2.74,3.65-2.84,8.01-3.55,12.16c-1.42,1.32-3.04,2.13-4.66,2.84c-9.39,4.07-12.22,15.06-19.66,22.5c-4.1,4.1-2.33,5.16-3.04,6.59
		c-6.79,20.04-8.11,19.86-8.11,23.21c0,9.48-9.7,24.35-6.28,24.73c2.92-2.14,6.23-12.62,7.2-16.11c2.62-9.5,0.7-7.93,2.64-13.28
		c12.77-35.36,3.2-13.1,20.88-39.63c1.29-1.93,2.01-1.81,9.53-3.24c3.45,1.62,3.45,1.62,5.37,0.81c-4.03-2.42-4.32-1.11,0.81-3.45
		c2.33,1.61,7.02,4.18,9.83,10.44c3.42,7.61,6.08,15.5,6.89,23.92c1.45,14.97-15.31,23.51-18.24,23.51c-2.25,0-0.93,0.1-10.64,0.1
		c-1.85-6.28-2.95-7.17-1.01-9.43c5.04-5.88,4.81-5.68,4.26-6.79c0-3.71-27.5,32.04-36.59,37.4
		C550.89,180.63,552.82,182.08,541.76,182.92z M592.63,99.68c-0.55,0.48-1.25,0.53-1.95,0.53
		C591.15,99.51,591.91,99.59,592.63,99.68z M590.47,100.32c-0.21,0.61-0.61,0.68-1.28,0.1
		C589.73,100.33,590.11,100.32,590.47,100.32z M679.39,178.56c2.64-1.42,4.56-3.65,7.3-5.07c0.51,4.05,1.11,120.2,0.41,125.07
		c-0.51-1.52-1.41-3.14-1.32-4.66c0.16-2.58-0.56-3.24-4.46-14.59c-1.6-4.65-0.13-5.68-1.52-17.74
		c-1.89-16.44-5.53-28.21-4.05-51.49C677.28,185.74,679.59,188.15,679.39,178.56z M673.51,219.91c0.76,8.2,0.34,17.47,1.72,25.34
		c2.63,14.9,1.51,17.58,3.45,21.18c0.3,0.71,0.41,1.62-0.41,2.53c-0.51-0.2-1.11-0.61-1.72-0.61c-2.94,0-3.18,3.01-1.93-8.31
		c-1.13,2.03-1.32,7.84-2.84,9.93c-9.27,2.78-18.79,2.48-27.87,0.1c-6.68-1.75-13.47-2.86-20.17-4.56
		c-12.66-3.21-15.02-4.91-23.21-8.01c-11.39-4.31-7.72-2.29-9.93-4.05c2.78-3.55,6.95-8.6,8.41-11.25
		c2.35-4.25,5.62-12.22,5.37-16.93c-0.37-2.92,6.93-14.52-2.53-40.54c0.3-0.1,0.51-0.3,0.71-0.3c12.67,2.62,7.54,1.32,13.18,3.95
		c0.41-0.41,0.71-0.81,1.11-1.22c24.72,5.62,58.88,2.13,58.99,2.13C675.84,198.5,672.59,209.99,673.51,219.91z M604.39,199.85
		c1.27,18.39-3.18,26.19-2.33,27.36c0.73,1,0.31,1.83,0,2.74c-5.57,16.49-13.5,19.87-16.42,26.55c-7.79,17.86-6.45,25.53-7.6,55.84
		c-0.21,5.55,0.76,5.17,0.2,8.92c-16.2,108.92-9.37,88.41-19.76,108.55c-1.45,2.18-0.95,16.81-10.64-245.06
		c19.12-8.5,19.45-15.6,37.8-33.95C598.77,186.89,603.49,186.78,604.39,199.85z M553.21,454.13c1.32,15,1.72,30,2.03,45
		C552.47,489,550,466.95,553.21,454.13z M556.86,549.2c-0.71-1.42-0.71-1.42,0-2.23C557.57,548.39,557.57,548.39,556.86,549.2z
		 M555.34,539.27c0.1-0.2,0.61-0.3,1.22-0.71C554.04,549.63,553.84,543.26,555.34,539.27z M559.59,579.81
		c-2.53-1.22-4.88-2.21-7.2-3.45c-3.36-1.79-5.19-6.49-4.05-10.13c0.6-1.93,0.91-3.95,2.23-5.57c0.71-0.71,0.83-1.92,1.11-2.94
		c3.44-12.15,1.37-9.81,3.55-7.2c1.79,1.79,2.42,1.43,2.43,2.74C557.79,573.88,560.39,576.64,559.59,579.81z M561.01,574.94
		c-1.39-6.56-17.74-388.41-15.1-390.3C546.32,187.3,561.98,572.24,561.01,574.94z M598.61,417.04c-2.68,5.2-0.34,4.29-1.82,6.69
		c-4.82,7.8-5.88,8.67-7.7,8.21c-0.47-0.23-2.86,2-5.78,4.56c0.3,0.51,0.51,0.81,0.71,1.11c2.74-0.51,4.05-2.74,5.88-4.36
		c2.29,0.46,1.45,1.13,0.1,10.24c-6.33,42.93-16.53,60.99-14.9,63.85c0.88,1.77-1.03,6.85-1.32,13.68
		c-0.81,19.15,6.86,13.17-7.91,18.04c-1.92,0.63-3.34,1.82-3.14,4.16c0,0.2-0.3,0.51-0.71,1.32c-1.43-21.44-0.83-20.79,0.51-21.59
		c-1.62-2.03-1.93-3.85-1.22-5.98c0.04-0.11-3.43-76.91-3.45-77.13c-0.35-6.31,5.09-7.41,9.22-22.2c1.59-5.69-0.2-2.68,0.3-6.59
		c2.12-16.49,12.84-90.1,12.87-90.2c26.64,18.37,29.56,12.96,49.97,15.51C616.24,372.75,639.67,337.56,598.61,417.04z
		 M659.42,470.65c-1.89-7.05-10.23-24.8-8.41-37.2c0.01-0.06,0.02-0.08,0.03-0.09c-0.01-0.3,0.01-2.15,0.58-11.36
		c0.54-8.74-2.08-9.05-2.43-12.47c-0.9-8.69-3.31-25.18-5.37-34.56c-6.33-28.87-7.71-40.58-8.21-44.19
		c6.26-10.02,7.76-12.06,7.91-12.97c-0.41-0.2-0.71-0.4-0.81-0.3c-4.94,4.89-8.01,11.15-11.66,17.13c-2.02-0.5-2.35-0.41-4.66-0.41
		c-3.46,0-0.3-0.39-8.51-0.91c-12.26-0.78-22.38-2.55-37.8-13.99c0-15.02,0.73-12.99,0.61-32.33c0-0.71,3.03-28.32,9.32-32.03
		c21.03,8.41,22.6,10.12,33.65,11.96c20.85,5.35,30.29,9.33,45.91,5.88c1.92-0.64,2.11,0.32,2.94-0.51
		c1.32-1.32,3.79-1.36,6.28-1.82c0.22,2.69-0.09,4.53,0.3,5.98c1.9,7.04,10.64,33.76,8.31,45.4c-24.72,6.82-26.75,6.51-45.1,5.47
		c-6.73-0.38-6.51,1.95,14.29,2.33c10.54,0.19,20.57-2.33,30.71-5.27c2.15,21.53-3.48,40.61-9.22,67.9c-0.32,1.52-0.8,2.93,0.3,4.46
		c0.5,0.69-0.3,6.7-0.3,13.28c-2.53,1.72-4.86,3.34-7.09,4.86c0.2,0.81,0.61,1.11,1.11,0.91c6.51-2.6,6.27-5.62,4.76,0.91
		c2.39,0.27,4.37-4.57,3.65,56.45c-0.06,4.67,1.53,14.69,2.53,19.16c2.19,7.68-1.24,1.55-3.04,11.66
		c-3.14,2.74-6.39,5.17-10.84,3.65c0.61-3.65,0-7.2-0.2-10.74c-2.14-2.14-0.63,7.54-0.91,9.22
		C664.59,503.83,667.7,501.51,659.42,470.65z M688,496.8c-0.51-0.2-1.11-0.3-1.72-0.2c-1.9-6.86-4.28-18.26-4.46-26.86
		c0-0.1,3.36-38.56-1.32-54.53c-1.26-4.31-0.41-14.73-0.51-19.16c-0.14-6.22,3.54-13.03,7.09-32.13c0-0.3,0.3-0.51,0.61-1.01
		C688.28,365.82,688.64,495.85,688,496.8z M688.41,170.86c0.61,0.61,0.91,0.81,0.91,1.11c0.01,0.12,0.91,139.94,0.91,140.07
		C687.5,305.74,688.41,171,688.41,170.86z M600.64,568.46c-0.92,0.39-1.82,1.22-3.24,0.61c2.75-1.84-7.32,2.48,54.02-22.4
		c1-0.41,2.01-1.2,3.31-0.91C654.54,546.45,657.62,544.12,600.64,568.46z M654.85,545.66c0.88-0.93,2.04-1.49,3.36-1.33
		C657.34,545.35,656.19,545.82,654.85,545.66z M658.4,544.24c0.96-1.02,2.04-1.49,3.46-1.33
		C660.88,543.84,659.74,544.4,658.4,544.24z M670.47,539.57c-9.72,4.7-8.55,2.85-7.91,2.64c2.65-0.88,5.07-2.43,7.91-2.84
		c0.03-0.03,0.06-0.05,0.09-0.07C670.49,539.4,670.56,539.57,670.47,539.57z M674.02,537.95c-1.01,1.01-2.22,1.61-3.44,1.32
		C671.57,538.42,672.65,537.85,674.02,537.95c0.87-0.87,2.02-1.46,3.45-1.42C676.47,537.48,675.39,538.05,674.02,537.95z
		 M677.74,536.44c0.6-0.76,1.39-1.22,2.56-1.02C679.44,536.18,678.67,536.56,677.74,536.44z M693.88,505.92
		c-3.28,1.16-8.12,5.22-7.8,8.72c1.31,3.93,4.31-5.06,10.03-5.78c2.42,3.8,3.35,2.55-1.01,5.27c-2.54,1.58-6.36,4.98-3.45,5.78
		c3.38-2.34,5.83-4.67,8.51-4.97c2.22,2.22,2.15,1.76,1.93,2.43c-1.51,1.32-3.03,2.1-4.26,4.56c-0.41,0.71,0.2,1.01,1.11,1.32
		c2.83-2.12,8-6.34,10.03-3.55c-0.31,0.47-0.1,0.18-2.64,3.14c-0.42,0.42,0.19,1.52,1.01,1.52c0.9,0,2.43-0.95,5.88-3.24
		c8.95,5.37,10.3,7.44,19.26,9.93c0.61,1.11,1.11,2.23,0.81,3.45c-2.52,3.15-3.12,4.83-6.79,6.89c-3.05,1.71-6.59,1.93-9.73,3.24
		c-0.41,0.2-0.91,0.1-1.42,0.1c-24.59-1.29-23.2-4.86-30.51-10.74c-3.88-3.13-21.92,3.45-25.74-2.84c-1.47-2.41-2.25-0.76-3.04-3.65
		c-0.51-1.84,0.18-2.73,1.62-6.79c1.55-4.35,2.14-9.02,3.34-13.48c0.71-2.63,1.01-5.17,0.2-7.8c-0.1-0.2,0.1-0.51,0.3-0.91
		c3.42,0,0.29-0.15,2.74,5.07c1.92,4.09,2.55,5.86,5.37,6.18c5.9,0.68,6.9-0.84,10.74-4.05c1.74-1.46,1.7-2.06,3.45-6.59
		c2.03,1.42,3.34-1.72,5.57-0.3C690.84,501.06,692.36,503.49,693.88,505.92z M691.35,494.17c0.01,3.31-0.15,2.63-0.61,3.55
		C688.38,494.56,690.8,158.85,691.35,494.17z M691.04,162.75c-0.68,4.59-3.7,7.2-10.54,12.36c-2.83,2.14-2.74,1.62-2.94,5.57
		c-0.11,0.78,0.13,3.79-1.11,6.49c-2.74,1.11-5.47,1.63-8.21,1.62c-15.18-0.06-36.28,1.22-49.15-2.74
		c-5.11-1.57-6.14-0.85-8.51-3.04c-1.74,1.45-0.03,1.37-9.73-0.71c-10.28-24.1-12.25-23.02-8.51-23.11
		c5.31-0.12,9.56,0.74,13.48-2.53c0.4-0.33,5.5-3.29,8.41-6.08c10.13-9.72,7.15-22.45,0.61-38.41
		c-4.23-10.33-10.18-12.64-10.64-14.49c1.72-1.32,3.34-2.64,4.97-3.95c12.33,13.65,44.44,51.37,63.44,47.84
		c1.22-1.62,2.55-3.26,1.62-5.98c-1.65-4.87-2.66-10.67-10.44-21.49c-0.44-0.61-6.99-9.88-6.96-10.74c2.99,2.04,3.34,1.14,6.35,5.27
		c4.27,5.85,10.69,14.9,12.77,17.23c11.71,13.13,13.77,13.23,15.1,21.59C691.85,152.52,691.81,157.59,691.04,162.75z M731.69,98.8
		c0.2,0.51,0.51,1.01,0.61,1.22c-1.95,5.53-1.76,9.68-1.78,10.24c-0.01,0-0.02,0-0.04,0c0,0.02,0.01,0.03,0.01,0.05
		c0.01-0.01,0.02-0.01,0.03-0.02c0,0.04-0.01,0.05-0.02,0.02c-1.63,0.81-1.72,2.12-1.12,4c0.89-0.71,1.91-1.23,1.19-3.81
		c0.44,0.21,0.54,0.6,0.54,1.07c0,12.77-0.09,14.26-1.32,20.37c-3.2,15.88-7.42,20.3-9.53,24.12c-2.23,4.06-8.88,13.78-13.18,13.78
		c-4.64,0.39-10.59-2.28-14.8-3.65c3.58-10.19,2.4-23-6.18-31.82c-4.39-4.51-2.93-3.36-2.23-7.7c0.1-0.61-0.2-0.91-0.81-0.81
		c-0.41,1.01-0.91,2.13-1.42,3.45c-5.86-6.31-3.9-3.5-6.49-6.89c-1.38-1.81-6.74-10.64-14.09-18.45c-0.2-0.3-0.3-0.71-0.51-1.22
		c16.58-0.26,15.88,9.72,20.47,8.92c0.3-0.1,0.81,0.51,1.11,0.81c2.4,2.88,2.73,5.71,3.34,11.25c3.08,1.1,1.26,3.98,4.16,6.99
		c4.26,4.43,1.66,4.1,4.36,6.39c5.71,4.82,9.49,6.45,12.97,11.55c1.55,2.27,2.61,3.95,3.55,2.64c-1.35-4.05-9.32-11.45-9.43-11.55
		c9.42-9.8,8.79-3.88,21.59-35.88c1.57-3.15-0.31-1.71,0.2-5.78c0.1-0.81,0.81-1.52,0.3-2.43c-0.71-0.51-1.12-0.01-1.52,0.41
		c-8.14,8.4-6.53,8.17-4.26-4.26c0-0.2,0.3-0.3,0.61-0.61c3.79,1.9,2.82,3.15,4.05,2.74c0.51-1.82-1.22-2.64-1.82-3.95
		c1.32-1.11,2.53-2.23,4.16-2.23c1.11-1.93,1.3-3.96,1.62-5.98c0.94-5.93,3.73-3.62,4.05-7.2c0.1-0.61,1.32-1.22,1.72-0.91
		c1.21,0.9,1.01,1.76,1.01,5.88c-2.03,1.32-1.42,3.24-1.11,5.07c0,0.1,0.2,0.1,0.3,0.1c1.32-0.51,0.1-2.13,1.22-2.74
		c0.51,0.1,1.01,0.3,1.62,0.51c0.51,1.72,1.52,3.24,0.71,5.37c-1.83-1.83-2.65-2.62-3.95-1.32c0,0.91-0.1,2.03-0.1,3.24
		c0,0.1,0.2,0.2,0.3,0.41c0.1-0.91,0.2-1.72,0.41-2.84c3.76,3.76,0.34,2.72,3.95,3.45C737.14,97.4,732.97,96.22,731.69,98.8z
		 M736.45,77.92c-0.2,2.31-1.3,2.73-3.59,1.64c1.41-1.64,0.98-1.9,2.68-7.32C736.46,74.33,736.84,73.34,736.45,77.92z"/> <path d="M611.08,40.32l-0.1,0.1C611.02,40.4,611.08,40.37,611.08,40.32z"/> <path d="M271.25,181.2l-0.1,0.1C271.31,181.26,271.25,181.33,271.25,181.2z"/> <path d="M611.08,74.28l0.1-0.1C611.04,73.99,611.04,73.93,611.08,74.28z"/> <path d="M610.78,71.13c-1.38-6.39-4.84-30.14-2.64-34.56c1.1,0.22,0.25,0.53,2.81,3.21c-0.11-1.03-0.28-2.09-0.38-3.31
		c1.96-0.49,13.58-0.25,16.52-4.66c-1.41-0.7-0.86,0.19,0.51-2.53c-0.32-0.08-0.03,0.02,0.3-0.3c-0.49-0.39-0.51-0.12-0.51,0.25
		c-0.36-0.09-0.79-0.18-1.22-0.35c0.91-1.42,1.72-2.74,2.74-4.16c-1.01-0.1-1.32,0.61-1.82,0.91c-1.74,0.87-1.65,1.17-1.32-0.81
		c-2.94,0.71-2.94,0.71-5.57-0.3c1.72-0.51,3.55-0.61,5.27-2.23c-6.44,1.68-10.08,2.06-11.86,2.33c2.33,1.11,4.86,0.71,7.2,1.93
		c-3.96,2.37-18.4,0.97,2.43,2.23c0,0.37,0.95,0.14-8.61,2.53c1.2,0.64,1.08,0.54,6.12,0.01c-0.59,1.13-4.39,2.35-7.95,1.21
		c-2.32-0.74-2.64-0.58-2.64-0.71c0-0.79-1.51-0.54-1.01-3.34c2.85-0.95-1.65-0.57-0.2-4.05c1.35,0.58,2.6,1.06,3.85,1.63
		c-1.11-2.29-5.88-3.17-3.24-6.9c0.3,0.1,0.71,0.2,1.11,0.41c3.92,2.24,8.95-0.48,10.95,1.52c-1.93,0.41-3.85,0.91-5.78,1.32
		c3.11,1.15,6.06-1.42,10.84-1.42c0.3,0,0.71-0.2,1.01-0.3c-1.92-2.44-3.56-1.4-12.36-0.81c-2.74,0.18-2.74,0.1-5.27-2.33
		c0.41-1.82,1.72-3.24,2.84-4.86c0.76,0.28,1.51,0.48,2.18,0.67c-0.61-1.74-1.12-0.6,1.47-3.71c4.94,1.9,7.02,3,1.82-0.81
		c0.51-1.01,1.32-1.32,2.33-1.22c16.29,2.83,14.67,2.96,15,2.74c1.62-0.91,2.95,0.19,4.36,0.71c5.07,1.88,2.88-0.25,5.78,0.91
		c2.04,1.03,2.78-0.77,3.04-0.51c-0.05-0.08-0.02-0.1-0.04-0.1c0.94,0.01,0.74,0.52,0.74-1.32c-1.58,0-1.32-0.03-1.32-0.66
		c1.34,0.56,0.89,0.71,3.68,1.05c-0.37-0.72-1.42-1.06-0.85-2.41c0.71,0.71,1.32,1.22,2.03,1.82c0.5,0.5,0.71,1.49,1.69,1.52
		c0.23-0.42,0.68-0.57,1.04-0.3c3.18,2.33,4.64,6.34,8.72,17.03c-2.43,0.2-4.86,0.2-7.09,1.32c0,1.49-0.21,2.04,4.05,0.61
		c5.54-1.86,2.84,2.54,2.84,3.55c-0.48,0.09-0.86,0.1-1.16,0.1c-0.49,1.27-2.52-0.33-4.82,2.23c2.2,3.31,3.26,5.64,5.88,0.41
		c5.12,10.77,2.69,21.09-1.72,34.05c-1.99,5.84-5.96,2.91-7.91,5.07c2.53,0.61,4.66-0.51,6.79-0.91c1.72-2.13,2.53-4.46,3.14-6.89
		c2.68-10.71,5.47-14.82,3.45-22.7c-4.43-17.27,2.35-9.48-5.88-28.58c-1.16-2.69-4.11-7.92-6.89-9.32
		c-13.35-6.73-21.44-4.69-29.49-4.16c-4.2-1.94-8.44-5.22-16.22-0.1c-2.14,1.41-3.15,3.65-3.34,6.08
		c-1.48,18.92,3.13,6.58-0.41,38.11c-0.6,5.33,0.85,4.88,1.34,9.42C608.9,72.96,612.19,77.65,610.78,71.13z M626.05,31.45
		c-0.1,0.35-0.02,0.5-0.37,0.15C625.83,31.54,625.93,31.51,626.05,31.45z M622.94,27.45c0.76-1.15,1.61-1.21,2.46-0.96
		C624.71,27.07,624.01,27.45,622.94,27.45z M622.88,30.71c-0.54,0.44-1.2,0.56-1.87,0.5C621.53,30.61,622.25,30.74,622.88,30.71z
		 M609.66,32.72c0.09-0.27,0.26-0.55,0.45-0.82c0.23,0.72,0.8,0.93,1.48,1.23c6.15,2.2,8.85-0.9,12.97-1.11
		c-5.2,3.23-9.99,2.56-12.26,3.14C609.77,35.8,609.26,35.36,609.66,32.72z M630.34,8.3c-0.71,0-0.91,0.06-0.91-0.2
		C630.49,8.09,630.34,8.04,630.34,8.3z M648.81,11.31c0.01,0.01,0.01,0.03,0.01,0.03c0,0,0,0,0.01,0c-0.01,0-0.02,0-0.04,0
		C648.8,11.33,648.81,11.31,648.81,11.31z M648.13,9.21c-0.21,0-0.4,0-0.62,0C647.77,8.68,647.95,8.81,648.13,9.21z M647.67,7.59
		c-1.04,0.35-1.75-0.14-2.16-0.32c0.58,1.41,0.49,1.14,0.44,1.24c0.1,0.07,2.79,1.42,2.13,1.42c1.18,1.92,1.7,2.13-7.69-2.78
		c0.52-0.11,0.98-0.27,1.61-0.36c-1.52-1.72-3.95-1.32-6.08-3.04C645.49,4.61,646.04,5.08,647.67,7.59z M636.42,5.86
		c-0.58,0.58-1.13,0.61-1.65-0.09C635.32,5.79,635.87,5.86,636.42,5.86z M634.28,5.62c-1.07-0.1-2.15-0.24-3.13-0.06
		c-2.52,0.47-9.32,3.33-8.72,0.3C626.7,4.8,629.79,3.53,634.28,5.62z M623.44,3.74c-0.59,0.3-0.46,0.51-1.71-0.1
		C623.34,2.81,622.88,3.17,623.44,3.74z M615.24,2.92c2.2-2.54,3.97-1.51,6.47,0.7c-0.65-0.33,0.44,0.88-1.2,1.43
		C616.76,2.92,614.64,2.92,615.24,2.92z M606.72,19.65c0-10.44,1.16-16.14,8.42-16.71c0.72,1.31,2.83,1.1,3.44,2.73
		c-2.57,0.57-2.56-0.07-1.42,1.93c-1.72,1.01-3.05,2.62-4.86,3.45C609.24,12.42,608.36,18.31,606.72,19.65z"/> <path d="M654.76,11.44l0.1-0.1C654.82,11.34,654.78,11.41,654.76,11.44z"/> <path d="M652.03,10.53l0.1-0.1C651.87,10.38,652,10.41,652.03,10.53z"/> <path d="M621.62,11.34l0.1-0.1C621.43,11.24,621.44,11.2,621.62,11.34z"/> <path d="M615.13,13.47l0.1-0.1C615,13.32,615.09,13.27,615.13,13.47z"/> <path d="M612.9,26.24l0.1-0.1C612.81,26.05,612.72,25.96,612.9,26.24z"/> <path d="M610.98,40.02l0.1-0.1C610.92,39.76,610.93,39.7,610.98,40.02z"/> <path d="M295.17,157.48c-0.18-0.18,0.17-0.39-0.11-0.54c0,0.41-0.11,0.54-0.15,0.57C294.93,157.51,295,157.48,295.17,157.48z"/> <path d="M294.91,157.52C294.89,157.53,294.89,157.53,294.91,157.52L294.91,157.52z"/> <path d="M271.56,181.1c-0.16-0.04-0.1-0.06-0.1,0.1L271.56,181.1z"/> <path d="M305.81,151.81l0.1-0.1C305.74,151.75,305.81,151.74,305.81,151.81z"/> <path d="M278.55,151.2C278.55,151.2,278.55,151.2,278.55,151.2c0.03-0.04,0.07-0.06,0.1-0.1L278.55,151.2z"/> <path d="M268.56,217.98c-0.4-5.03-3.06-25.03,0.36-40.02c1.37,0.17,1,2.68,2.52,3.11c-0.64-8.07-0.62-6.56,0.65-7.01
		c2.72,3.93,10.63,1.48,13.15,1.27c-4.8,3.32-12.1,0.18-12.67,2.74c3.24,0.41,6.39,0.42,9.53-0.2c2.63-0.52,3.76-0.07,5.53-2.37
		c-0.28-0.09-0.62-0.17-0.97-0.26c0.1-0.81,0.81-0.91,1.32-1.22c0.51-0.41,1.01-0.91,1.82-1.62c-1.01,0.1-1.62,0.1-2.33,0.1
		c5.2-7.1,2.86-2.74-2.84-1.93c0.71-1.32,2.43-0.61,2.94-2.23c-2.49,0.28-3.2,0.33-5.07-0.2c0.19-1.87,3.16-0.22,4.86-2.43
		c-3.85,0.51-7.6,1.22-11.35,0.81c-0.2,0.81,0.31,0.81,0.71,0.91c6.44,1.7,5.64,1.64,5.88,2.13c-2.53,0.91-5.17,0-8.01,0.41
		c3.14,1.62,6.59,0.71,9.63,2.43c-2.53,0.41-4.97,0.81-8.21,1.32c2.82,0.78,4.99,0.16,7.12,0.39c-5.28,2.65-8.03,0.61-10.92-0.04
		l0.04-0.04c-0.27,0.09-0.38-0.48-0.91-1.01c-0.91-0.91-0.81-1.82-0.41-2.94c1.11,0.71,2.13,1.32,3.14,1.93
		c2.94,0.98,2.29,0.98-3.24-3.45c0-0.71,0.1-1.42,0.1-2.23c1.42-0.1,2.03,1.62,3.34,1.22c-0.71-0.61-1.22-1.42-1.72-2.23
		c-1.32-1.52-1.42-2.94-0.1-4.46c0.83,0.27,1.59,0.48,2.4,0.74c-2.07-2.73-2.6-2.12,1.85-6.92c2.25,1.5,1.96,2.72,3.45,3.14
		c4.62,1.32,6.16,2.44,6.38,2.63c-0.01-0.01-0.02-0.02-0.04-0.04c-0.11-0.11,0.71-0.03,0.96,0.05c1.62,0.71,3.24,0.81,4.86,0.41
		c0.2-0.61,0.3-1.22,0.61-1.62c1.25-1.46,4.38-2.96-1.52,0c-1.98,1-2.52-0.35-2.87-0.21l-0.01-0.01c-1.23,0.62-4.2-0.54-5.47-1.4
		c6.46-0.04,4.65,1.67,5.71,1.32h-0.01c3.2-1.11,2.37-2.3,6.19-2.03c-1.93-1.11-4.16-1.42-6.18-2.23c-0.87-0.29-1.93,0.07-3,0.18
		c-0.04-0.11-0.01-0.1-0.13,0.02c0.04,0,0.08-0.01,0.12-0.02c0.98,2.47,0.84,1.46-1.65,1.84c-1.29,0.2-1.01,1.02-1.22,0.81
		l0.05,0.05l-0.01,0.03c-2.98-0.8-3.29-1.01-4.5-3.43c0.56,0,0.98-0.27,0.81-0.1c0.27-0.07,0.26-2.43,2.13-1.41
		c1.86,0.74,2.72,2.07,4.31,2.03c-0.56-1.52-2.4-1.65-3.29-3.04c0.71-1.32,1.71-1.39,2.94-1.01c14.16,4.38,13.21,4.64,15.3,4.05
		c0.66-0.26,4.8,2.2,5.37,2.53c2.33-0.3,2.33-0.3,4.56,1.11c0.3-0.41,0.61-0.71,1.01-1.22c-5.06-5.33-9.16-4.5-5.8-5.34
		c-0.29-1.18-1.26-0.7-5.15-3.17c4.74,0.33,8.27,1.28,11.25,4.26c0.46,0.46,0.08,0.98-0.1,1.15c0,0.59,0.02,0.76-0.01,0.77
		c0.64,0.66,0.38,0.6,2.75,1.29c0.08-0.57,0.09-1.14,0.19-1.69c1.81,0.41,1.82,2.72,3.43,3.13c0.24-0.32,0.43-0.5,0.68,0.02
		c-0.01-0.01-0.02-0.01-0.04-0.02l0.1,0.1c-0.01-0.03-0.02-0.04-0.02-0.05c3.61,1.41,6.24,13.93,7.2,17.69
		c-2.53,0.51-4.97-0.3-7.09,0.91c0.27,2.94,4.08-0.5,7.5,1.22c0,1.62-0.51,3.04-1.62,4.46c-0.48-0.28-0.78-0.49-1.15-0.67
		c0.38-0.16,0.29-0.34-0.07-0.58c0,0.34,0.01,0.51-0.02,0.6c-0.02,0.01-0.04,0.02-0.06,0.03h0.05c-0.12,0.28-0.81-0.59-4.53,1.44
		c-0.3,0.81,0.8,0.51,0.91,1.11c0.38,2.09,2.15,3.7,3.95,1.52c0.41-0.5,0.61-0.91,1.11-1.62c3.9,12.94,0.59,18.49-4.05,30.4
		c-4.12,10.56-5.59,4.55-9.73,7.5c1.8,0.36,1.51,0.47,6.89-0.2c1.72-1.52,2.62-3.45,3.45-5.47c4.35-10.66,7.6-16.91,6.28-23.51
		c-0.16-0.78-1.52-8.9-0.1-12.67c1.08-2.87-3.15-22.88-8.51-25.95c-11.42-7.68-24.67-8.04-28.58-6.99
		c-8.89-7.9-19.52-3.13-20.57,3.75c-0.59,3.85-1.43,7.7-1.22,11.66c0.66,11.92-1.79,15.5-3.65,28.99c-0.59,2.37,0.67,1.22,0.61,7.7
		C265.75,209.92,267.19,213.99,268.56,217.98z M284.33,173.8c-0.33,0.08-0.59,0.11-0.84,0.16
		C283.67,173.62,283.88,173.35,284.33,173.8z M294.36,152.31c-0.1,0-0.2-0.1-0.41-0.1C294.12,152.13,294.69,151.99,294.36,152.31z
		 M301.15,151.1c-1.37-0.4-2.53-0.42-3.07-1.5C299.13,149.7,300.1,149.94,301.15,151.1z M288.08,146.64c-0.63,0-1.04,0.53-1.42-0.61
		C287.75,146.03,287.27,145.83,288.08,146.64z M295.68,148.97c0.78,0.1,1.55-0.08,2.15,0.54
		C297.07,149.62,296.24,149.82,295.68,148.97c-0.81,0.3-1.62,0.91-2.43,0.81c-2.48,0.28-6.17,1.76-6.99-0.71
		C289.09,148.23,293.02,147.64,295.68,148.97z M285.75,147.35c-1.87,0,0.15,0.84-5.17-2.43c-0.1-0.1-0.1-0.41-0.2-0.61
		C283.82,143.8,284.23,144,285.75,147.35z M270.65,153.94c0.68-7.35,7.03-12.29,12.16-5.88c-0.67,0.09-1.34,0.11-2.02,0.27
		c0.28,1.54,0.27,1.66-0.92,2.36c-0.4,0.3-0.91,0.3-1.31,0.51c-1.44,1.67-3.86,1.74-4.77,3.24
		C269.09,162.2,269.73,163.82,270.65,153.94z"/> <path d="M311.78,154.75c-0.03-0.03-0.06-0.06-0.09-0.1C311.73,154.71,311.76,154.75,311.78,154.75z"/> <path d="M311.78,153.98c0-0.01,0-0.02,0-0.04C311.65,154.08,311.7,154.07,311.78,153.98z"/> <path d="M286.55,160.41C286.59,160.45,286.59,160.45,286.55,160.41L286.55,160.41z"/> <path d="M280.78,148.26l-0.1,0.1C280.83,148.32,280.78,148.34,280.78,148.26z"/> <path d="M285.75,154.75l0.1-0.1C285.65,154.65,285.69,154.63,285.75,154.75z"/> <path d="M275.11,161.64c-0.36-0.14-0.21-0.07-0.1,0.1L275.11,161.64z"/> <path d="M400.07,206.64c-0.3-0.41-1.32-0.5-2.03-0.41c-4.49,0.62,1.58-3.33-16.62,1.32c-1.52,0.39-2.62,0.92-3.14,2.53
		c-0.64,1.99-4.3,2.34-2.53,6.69c0.7,1.73,1.22,3.55,1.82,5.37c-1.22,1.82-3.34,2.43-4.66,3.65c-4.98,14.95-6.88,15.09-22.09,30.3
		c-10.87-2.72-7.76-1.76-13.48-10.54c-3.57-5.48-4.23-7.6-9.02-9.12c-1.92-0.61-3.93-0.95-5.78-1.93c-0.6-0.32-1.42-0.2-2.13-0.3
		c-14.37,0-11.85-2.16-13.78-1.52c-0.26,1.48,2.95,1.42,0,1.42c4.63,9.26,8.1,13.45,13.07,33.34c2.59,8.43,4.38,12.76,4.76,17.13
		c1.71,19.62-6.54,37.23-25.64,37.5c-1.22,0.02-2.64-0.2-3.75,1.11c2.77,2.77,6.21-1.8-2.43,8.21c-1.25,1.25-9.34,1.97-10.03,2.03
		c-5.4,0.43-18.85-1.37-23.82-2.13c-7.45-1.14-20.76-9.27-26.25-13.58c-1.01-1.52,0.3-3.75-1.52-5.57c-0.2,1.52-0.41,2.74-0.51,3.85
		c-3.65-1.62-8.11-5.88-11.55-10.95c0.3-3.84,0.9-7.31,1.32-9.83c1.01-0.61,2.13-1.32,3.14-1.93c7.54,5.34,9.05,7.05,13.88,6.49
		c16.63-1.95,31.99-20.75,24.53-53.11c-0.27-1.18-0.32-5.01-0.91-6.69c-1.46-4.18-1.04-8.08,0.51-12.16
		c0.53-1.41,1.52-1.93,2.84-2.33c3.23,13.36,2.38,14.46,5.98,23.92c9.64,25.34,12.58,42.49,25.54,50.47
		c4.63,2.85,10.35-0.76,11.25-2.33c5.25-10.5,4.9-19.64,4.36-36.18c-0.64-19.55-9.89-20.75-5.78-28.99
		c3.15-6.3,3.65-8.87,3.95-10.95c-1.37-1.64-1.68,0.9-2.43,2.64c-2.41,5.53-4.86,13.19-4.86,19.26c2.03,0,1.01-2.03,2.13-2.64
		c0.61-0.2,0.61,0.51,0.81,0.81c7.33,12.77,5.52,44.61,1.11,53.61c-1.14,2.32-3.24,3.24-5.78,3.95c-0.51-2.84-1.01-5.37-1.52-8.01
		c0.41-2.03,2.13-3.85,2.43-6.49c-2.23,1.22-2.23,3.34-3.45,4.66c-1.82-1.42-2.53-4.05-4.86-4.86c-2.01,1.67,5.37,4.13,5.37,13.99
		c-5.85-1.67-11.81-10.99-14.29-16.72c-3.31-7.66-0.34-1.49-13.28-35.88c-3.11-8.26-4.66-17.85-4.66-21.49
		c1.62-2.42,2.28-0.59,9.32-11.86c3.12-6.24,3.8-4.77,3.14-12.36c0.81-0.71,2.53,0.2,2.94-1.42c-0.17-0.35,0.01-0.15-2.13,0.2
		c-4.05-2.43-6.49-5.37-7.6-10.14c2.76-3.45,2.34-3.64,3.34-2.64c0.3,1.32-2.03,1.62-0.91,3.24c0.91,0.3,1.42-1.01,2.33-0.91
		c0.63,0.76-0.41,1.04-0.41,3.04c0,1.11,1.85,0.92,1.52,2.13c-0.28,1.02,0.41,1.52,0.91,2.13c1.22-0.61,1.42-1.93,0.71-2.64
		c-1.51-1.51-1.52-3.52-1.52-5.98c1.72-0.71,3.34,0.51,5.17,0.51c-0.2-1.32-2.13-1.22-1.62-2.74c-4.26-1.71,1.36-0.33,2.64-2.64
		c-2.75,0-4.25,0.33-7.4-0.81c4.02-0.64,5.86,0.74,9.22-3.04c-1.01,0.3-1.42,0.3-1.62,0.41c-4.11,2.42-7.52,1.21-13.06,2.51
		c0.53,2.48-3.01,4.06-0.82,8.43c1.51,2.52,1.76,3.93,1.62,5.68c-0.28,3.52,0.35,7.39,0.91,15.3c0.24,1.93-1.32,2.06-1.32,1.42
		c-1.11-6.18-1.52-12.47-2.33-18.65c-1.01,5.57,0.61,10.95,1.11,16.42c-1.59,0.64-1.32-0.63-1.32,6.39c0,0.71,0.08,1.42-0.45,2
		c-0.03-0.1-0.07-0.2-0.1-0.29c0.25,3-4.93,5.44-7.46,7.12c-2.03-1.11-3.14-3.24-4.97-4.46c-0.41-1.52-0.81-2.94-1.22-4.56
		c-1.82,0-3.45-0.3-5.17,0.51c1.47,4.4,1.22,9.74,1.22,13.07c0,0.91-0.51,1.72-1.42,2.43c-2.58-7.74-0.2-15.93-6.08-15.1
		c-2.03,0.28-4.05,0.31-5.88,1.42c-0.79,0.48-6.13,0-10.14,2.84c-1.36,0.85-2.8,2.37-2.53,3.95c2.79,11.16,1.42,3.73-5.07,17.23
		c-0.49,1.02-0.61,2.03,0,3.04c-2.25,2.25-1.22,2.95-5.17,7.2c-36.3,39.02-33.9,13.44-42.67,42.57c-2.81,9.32-4.18,6.25,1.32,18.75
		c3.14-0.71,5.78,1.32,8.61,0.91c1.18,1.06,0.48,0.42,0.3,20.37c-0.06,7.26,1.12,4.81-4.36,9.53c-5.59,4.81-14.01,10.43-15.61,24.63
		c-1.8,16.06-0.06,22.89,3.75,32.23c7.67,18.82,14.58,19.98,14.29,27.57c-0.06,1.68-1.09,84.99-2.33,109.15
		c-0.19,3.71-2.26,5.03-3.45,8.92c-4.56,14.95-1.6,11.37-4.66,15.2c-1.62,2.03-2.64,4.26-3.24,6.89
		c7.64,18.15,9.48,8.43,14.29,15.51c0.14,0.21,5.57,8.53,5.57,9.22c-0.8,8.35,21.66,6.18,29.59,3.45c1.59-0.55,12.6,0.35,15.3-6.08
		c-1.32-5.29-1.13-8.79-5.27-11.45c-3.03-1.95-4.66-4.97-6.69-7.8c0.78-1.11,81.98-31.78,84.02-32.63c3.29-1.37,4.18,0.3,11.55,4.36
		c4.9,2.7,5.26,0.78,9.12,2.53c12.13,5.52,36.04,2.5,36.38-5.07c0.52-11.4-0.41-10.62-21.89-17.94c-3.33-1.14-1.84-1.46-5.17-3.55
		c-6.48-4.05-11.78-11.39-19.26-16.62c7.01-18.7,13.47-13.27,35.68-47.33c3.81-5.85,3.12-6.94,6.99-11.55
		c5.18-6.16,6.19-8.1,7.91-15.81c0.11-0.5,0.21-1.02,0-1.42c-1.26-2.36-1.31-5.28-2.84-7.6c-14.98-22.72-30.25-32.27-33.75-35.27
		c13.5-107.67,11.87-98.76,12.97-100.23c25.68,0.89,21.14,1.05,30.61-6.28c4.72-3.66,8.26-8.17,10.44-12.47
		c14.02-27.69,15.68-25.74,14.29-28.18c-2.41,1.81-16.48,26.11-17.53,29.39c-1.77,5.52-10.63,11.51-15.3,14.29
		c-8.43,5.02-47.63-1.03-39.42-8.21c1.11-0.81,1.62-2.03,2.43-3.04c5.83-7.22,8.46-9.02,7.8-9.02c-0.11-0.11-1.97,0.14-2.94,1.01
		c-7.99,7.24-5.55,5.64-8.41,9.93c-1.03,1.03-0.88-3.17-5.27-16.93c-3.75-11.75-9.68-18.81-9.64-20.29c0.89,0.25,5.61,1.69,7,1.34
		c3.41-0.87,9.06,1.49,10.64,1.82c5.57,1.17,7.16,4.99,13.18,14.8c1.39,2.62,2.07,2.78,13.78,6.69c3.38,1.13,0.97-2.19,12.97-9.63
		c5.07-3.14,9.22-7.2,13.68-10.95c0.91-0.91,1.42-3.42,2.23-4.36c1.51-1.73,1.72-3.65,1.32-5.68c-1.01-0.61-1.52,0.51-2.33,0.51
		c-0.97-0.97,0.19-2.14-2.43-4.36c8.48-6.11,6.72-5.85,8.82-3.75c-0.91,2.33-2.84,3.85-2.43,6.99c1.84-2.95,1.98-4.41,4.16-6.28
		c2.85-2.46,0.51-5.74,6.18-6.79c0.8,0.64,2.27,1.23,1.82,2.13c-2.19,7.5-4.6,6-4.05,10.34c1.42-0.81,1.11-2.43,2.53-3.24
		c1.82-0.2,3.55-1.93,5.78-1.82c1.62,1.22,0.91,3.04,1.62,4.46c0.91-1.72,0.91-1.72,0.2-5.07c0.2-0.41,0.71-0.91,0.71-1.42
		c0.4-4.59,4.06-5.13,3.34-8.72C406.32,208.12,401.17,208.37,400.07,206.64z M272.88,183.94c0-0.51,0.3-0.71,0.81-0.61
		c-0.42-1.46,2.3-1.48,2.53,0.81c-3.54-1.06-2.12-0.98-3.45-0.1c0.2,1.22-0.1,2.23-1.22,3.34
		C271.66,185.96,271.66,184.85,272.88,183.94z M275.71,197.72c1.22,0.91,0.71,1.93,0.3,3.24
		C275.41,199.64,274.9,198.83,275.71,197.72z M274.4,210.49c-0.1-2.13-0.41-3.55,0.3-4.97C274.6,206.94,275.61,208.36,274.4,210.49z
		 M272.98,195.59c1.72,1.01,1.22,2.43,1.22,3.75c0,1.42,0.41,2.94-0.51,4.97C273.48,200.96,273.18,198.23,272.98,195.59z
		 M229.3,318.12c2.42,1.83,1.63,4.21,3.55,4.56c1.29-1.29,0.8-1.2,4.26,0.91c17.92,10.95,18.86,8.92,39.53,12.36
		c-6.69,3.34-13.58,3.14-20.68,3.85c0.61,0.3,0.81,0.51,1.01,0.51c15.53,0.86,20.28-4.76,24.93-4.76c9.91,0,13.9-4.42-2.74,8.51
		c-0.91,0.61-1.5,1.52-1.22,2.74c0.21,0.91-0.41,1.52-0.91,2.23c-7.96,11.37-17.41,28.71-27.16,29.29
		c-5.58,0.33-4.35,1.52-6.59,1.52c-31.86,0-59.64-30.58-56.86-37.8c1.48-1.48,3.58-0.77,23.31-16.11
		c4.14-3.22,7.38-11.65,8.21-16.32C218.57,306.08,219.71,310.86,229.3,318.12z M186.22,338.8c0-7.91,0.1-15.61,0.61-23.41
		c5.93-1.11,9.07-1.09,13.28-4.16c15.69-11.41,12.79-11.27,16.72-13.88c0.41-0.3,0.91-1.01,1.62-0.2
		c-4.19,21.44-4.41,15.51-8.82,26.15C209.3,324.64,189.32,338.02,186.22,338.8z M252.2,223.16c-0.2-1.82-0.51-3.65-0.81-5.68
		C254.54,215.9,255.23,220.74,252.2,223.16z M239.03,219.61c1.61,1.13,2.4,3.46,3.85,7.09c0.76,1.91,0.3,4.26-1.42,6.28
		c-4.09-4.91-2.29-7.9-6.89-9.63c0.3,0.91,0.51,1.52,0.71,2.13c-2.84,0.71-5.78,0.51-8.11,2.33
		C226.05,222.22,227.47,223.03,239.03,219.61z M228.59,230.35c0.64-3.09,3.5-2.47,8.21-2.94c1.01,1.93,1.72,3.65,2.23,5.57
		c-3.04,0.81-6.08,0.1-8.92,0.61c-2.23,3.95-5.37,6.89-8.61,9.73C222.66,239.81,227.87,233.77,228.59,230.35z M228.28,239.17
		c-0.19,5.6-5.2,6.22-4.16,5.17C225.44,242.62,226.56,240.69,228.28,239.17z M176.49,312.35c-3.88-1.66-2.45,1.01-5.27-6.08
		c-1.06-2.66-0.1-3.3,1.82-9.63c2.26-7.43,3.48-14.18,10.54-16.93c7.79-3.03,3.78-3.18,7.09-1.52
		c10.08-7.84,21.47-20.54,28.28-25.84c0.91-0.71,1.82-1.52,2.43-2.53c3.19-5.23,6.39-3.86,7.91-8.41c1.6-4.81,1.22-3.13,1.22-5.88
		c3.14-0.3,6.39,0.51,9.12-1.62c0.91,0.61,1.82,1.22,2.84,1.82c2.15-3.23,3.08-6.68,1.32-10.13c-1.13-2.22-2.03-4.66-3.65-7.09
		c1.93,0.1,3.55-0.61,5.37,0.41c2.94,14.69,1.84,11.72,0.1,15.2c-0.3,0.51-0.41,1.11,0.3,1.52c3.31-1.21,4.06-0.61,5.27-4.26
		c0.04-0.11,0.8-2.95,1.42-3.04c1.03,1.83,1.11,1.44-0.3,4.26c-0.2,0.41,0.41,1.22,0.91,1.32c0.51-0.51,1.01-0.91,1.42-1.32
		c5.98,0.75-3.69-2.62,0.91-9.73c1.32,1.62,3.24,2.74,4.36,4.86c-1.86,4.41-0.92,7.98-1.62,11.15c-0.97,3.38-0.85,0.15-4.56,7.2
		c-0.81,1.81-1.66,2.04-10.13,8.41c-6.1,4.59-2.57,3.23-8.61,7.4c-11.12,7.66-17.81,18.36-25.03,32.13c-0.32,0.6-0.51,1.11,0,1.72
		c1.19-0.2,0.95,0.07,10.74-15.41c10.25-16.19,17.28-16.62,21.08-22.5c0.08-0.24-0.28,0.35,4.16-3.34
		c5.87-4.88,8.96-5.18,11.76-11.66c0.2-0.41,0.71-0.71,1.42-1.42c0.3,2.94,1.42,5.27,1.42,7.8c-0.91-0.1-1.72-0.3-2.64-0.41
		c0.91,1.52,0.91,1.52,3.24,2.84c1.15,3.85,1.05,10.16,0.91,14.19c-0.87,25.64-25.51,40.7-36.99,26.76
		c17.34-10.73,11.5-9.79,8.21-7.8c-14,8.42-18.88,11.72-22.5,15.71c-1.4,1.54-3.04,3.24-5.37,3.85c0.09,0.86-0.62,1.09-1.22,1.46
		c-0.15-2.09,1.39-0.19,2.53-3.99c6.04-12.09-2.51,1.16-3.24,2.03c-0.69,0.82-1.01,1.82-1.01,2.84c-6.88,4.3-1.41,4.53-18.95,6.69
		C181.05,313.66,178.71,313.29,176.49,312.35z M201.73,376.6c-2.01,1.27-2.77,0.55-10.84,1.01c-1.72,0.1-3.45,0.91-5.37,0.41
		c-0.8-10.39,0.5-8.22,3.24-7.4c-0.61,0.3-0.91,0.51-1.62,1.01C192,373.66,196.97,374.47,201.73,376.6z M255.55,434.57
		c4.08,7.93,6.45,23.69-0.51,29.9c-11.26,10.05-4.83,13.93-19.05,29.9c-5.26,5.9-16.37,17.09-20.98,23.51
		c-7.69,10.73-9.56,18.51-11.25,21.89c-15.25,1.39-13.24,0.89-15.51,8.82c-4.2,1.8-5.17,2.65-6.49,1.01c0-3.33-0.05-3.99,0.1-4.76
		c0.74-3.87,2.89-2.73,3.34-3.65c0.91-2.33,3.65-3.95,2.53-6.99c-0.67-1,0.35,2.18,4.66-19.36c8.98-32.78-0.99-28.91,27.67-57.57
		c1.41-1.41,3.18-6.02-12.26,9.53c-11.43,11.51-15.73,28.04-14.7,32.43c1.12,4.79-5.26,19.34-4.26,23.01
		c0.2,1.01-2.84,7.28-2.84,8.72c0,2.03-1.22,3.55-2.33,5.07c-0.3,0.51-1.01,0.61-1.72-0.1c-0.01-0.1,1.39-106.14,3.34-104.19
		c9.6,7.36,5.29,3.54,11.05,6.99c0.71,0.51,1.41,1.13,2.13,1.42c3.83,1.58,7.3,3.95,10.95,5.98c9.81,5.46,9.77,9.62,11.45,7.6
		c-4.57-9.14-26.19-15.65-35.47-24.93c-1.43-1.43-0.46,1.1,0.1-45.91c0.01-0.71,0.1-1.42,0.2-2.13c23.93-4.79,22.1-2.65,35.47,7.2
		C233.82,397.25,249.17,422.19,255.55,434.57z M243.89,409.95c0,0.17,0.08,0.28,0.16,0.44
		C243.76,410.43,243.63,410.38,243.89,409.95z M171.43,354.1c2.03-2.38,7.23-7.93,10.34-8.82c-0.3,5.68,0.1,10.95-0.61,16.42
		c-0.61,0-1.11,0.1-1.42,0c3.21,3.75,0.02,6.47,0.81,5.68c2.2,5.51-1.74,2.07-3.04,3.95c1.22,0.3,2.33,0.61,3.45,0.91
		c0.41,2.53,0.3,4.86,0,7.3c-15.7,6.87-14.06,10.29-16.62,11.15C163.66,389.34,161.13,366.16,171.43,354.1z M179.23,421.3
		c-7.67-10.96-10.96-16.38-14.39-27.16c4.38-7.54,13.74-11.96,16.22-11.96C180.16,420.49,180.63,422.7,179.23,421.3z M171.12,575.55
		c-2.71-4.28-3.72-5.19-2.33-7.7c2.95-5.37,4.3-5.34,4.46-8.82c0.18-3.95,1.57-7.69,2.84-11.35c0.11-0.3,0.61-0.51,1.42-1.11
		c0,25.91-0.49,20.89,2.03,34.97C175.88,580.42,173.05,578.59,171.12,575.55z M180.34,541.4c-2.96,136.41,2.02-225.64,4.16-225.91
		C185.33,316,180.36,540.56,180.34,541.4z M222.3,580.11c1.67,2.09,3.78,2.07,5.68,6.28c-0.31,2.83-0.47,2.54,0.61,5.78
		c-6.76,5.36-11.82,1.35-17.33,4.56c-0.93,0.54-6.92,1.25-8.01,1.32c-16.49,1.07-11.86-1.39-13.88-2.74
		c-3.55-2.94-4.86-7.3-7.09-11.05c-1.32-2.2-1.24-19.69-1.11-22.4c0.56-11.75-0.69-8.76,3.45-10.13c2.08-0.52,0.03-0.67,4.97-1.22
		c1.43-7.86,1.83-7.46,6.59-8.11c9.49,0,12.95-4.67,11.05,10.54c-4.17,0.35-16.88,1.23-17.23,6.08c0.51,0.1,0.91,0.3,1.32,0.2
		c1.13-0.38,6.71-3.63,16.22-2.64c0.2,1.22,0.3,2.13,0.51,3.24c-3.59,0.24-15.34,1.18-14.39,4.66c4.6,0,2.85-1.53,16.01-1.82
		c4.48,3.73-6.76,0.29-11.25,5.78c1.01,0.71,1.01,0.71,1.72,0.61c14.77-3.28,9.01-0.4,12.16-3.55c1.82,1.82,2.84,3.75,3.95,5.78
		C217.95,574.43,220.28,577.17,222.3,580.11z M260.92,554.47c-45.5,19.06-43.07,16.78-43.07,15.3
		C226.13,566.46,275.65,548.3,260.92,554.47z M263.61,552.96c0.5-0.77,1.32-0.72,2.07-0.54
		C265.11,553.03,264.36,553.13,263.61,552.96z M265.81,552.34c0.18-0.64-0.44-0.36,3.28-1.39
		C268.21,551.95,267.06,552.24,265.81,552.34z M269.3,550.83c0.5-0.77,1.33-0.63,2.09-0.62C270.8,550.98,270.05,550.92,269.3,550.83
		z M271.48,550.11c0.14-0.77,0.8-0.62,1.38-0.71C272.71,550.26,272.06,550.02,271.48,550.11z M275,548.69
		c-0.58,0.78-1.35,0.72-2.04,0.62C273.57,548.7,274.33,548.69,275,548.69c0.36-0.92,1.24-0.59,1.93-0.6
		C276.42,548.67,275.67,548.6,275,548.69z M277.16,547.97c0.15-0.7,0.79-0.63,1.27-0.68C278.28,547.99,277.7,547.91,277.16,547.97z
		 M278.65,547.15c0.47-0.52,1.13-0.51,1.74-0.57C280.01,547.25,279.29,547.12,278.65,547.15z M280.69,546.46
		c0.11-0.1,0.24-0.23,0.4-0.3C281.19,546.06,282.08,546.46,280.69,546.46z M283.62,545.55c-0.16,0.16-0.81-0.2,0.3-0.2
		C283.82,545.45,283.72,545.55,283.62,545.55z M285.85,544.84c-0.18,0-0.69-0.3-0.1-0.3c0.17,0,0.33-0.06,0.44-0.08
		C286.1,544.61,286.01,544.76,285.85,544.84z M286.86,544.23c-0.87,0.44-0.26-0.56,0.3,0C287.07,544.23,286.96,544.23,286.86,544.23
		z M289.09,543.42c-0.13,0-0.18-0.2,0.2-0.2C289.43,543.22,289.47,543.42,289.09,543.42z M220.17,567.04
		c-3.77,1.32-2.72,2.52-8.21-4.16c-1.27-1.9-3.23-4.73-2.64-7.2c0.85-3.54,0.33-7.1,0.2-10.64c-0.17-4.7-2.48-4.23-3.45-5.68
		c2.05-7.19,8.29-18.23,10.13-20.37c10.8-12.53,32.01-34.23,32.84-41.15c0.6-5,4.56-10.03,8.11-13.58
		c7.86-7.86,3.79-23.62-1.22-32.43c-14.94-26.29-16.09-24.36,0.2-16.01c10.53,5.4,54.36,13.6,55.24,14.09
		c8.55,4.74,9.87,5.09,10.74,6.59c-15.72,13.98-8.88,6.64-12.26,13.78c-10.4,21.98-0.05,13.32-11.96,36.38
		c-2.55,4.93-1.93,5.46-3.34,7.8c-5.53,9.16-3.96,6.73-6.28,7.09c-2.12,0.33-3.98,1.39-5.57,2.94c-1.24,1.2-1.22,2.84-1.32,4.36
		c-0.29,4.57-0.95,1-8.11,17.74c-2.22,5.2,2.06,7.94,6.89,11.76c0.61,0.41,1.62,0.81,2.33,0.71c2.94-0.2,5.57,1.11,8.51,1.32
		C289.61,541.56,221.91,566.43,220.17,567.04z M292.84,542c0-0.26-0.08-0.23,0.3-0.1L292.84,542z M294.87,541.19
		c0-0.13-0.05-0.1,0.2-0.1L294.87,541.19z M357.81,532.98C357.81,532.99,357.81,532.99,357.81,532.98
		C357.8,532.99,357.8,532.98,357.81,532.98z M314.63,505.82c1.32,1.42,2.74,3.04,4.26,4.76c-2.28,1.43-7.92,3.56-10.13,6.89
		c-0.2,0.3,0,0.81,0,1.52c6.2-2.75,3.67-2.59,11.35-5.68c1.66-0.67,2.37,0.76,2.74,1.32c-2.23,2.23-5.68,3.14-6.59,6.79
		c0.81,0,1.62,0.21,2.13,0c2.07-0.85,5.38-3.44,7.3-3.95c0.91,0.71,1.72,1.52,2.74,2.33c-1.52,1.22-4.97,3.55-3.95,5.07
		c1.6,2.4,9.09-6.71,6.89-1.22c-0.5,1-1.91,1.84-1.01,2.74c1.32,1.32,3.75-1.63,4.36-2.23c20.67,7.86,22.93,8.75,23.11,8.82
		c1.22,3.07,1.65,9.32-2.33,10.84c-21.01,7.99-34.05-0.73-35.78-0.91c-3-0.31-6.15-2.2-11.15-5.47c-3.61-2.36-21.04,6.55-32.13-5.57
		c-1.21-1.32-1.6-2.73-0.81-4.56c1.66-3.84,2.84-7.8,5.17-11.35c4.96-7.58-0.17-12.16,8.72-12.57c-0.51,1.93-2.13,3.14-2.84,4.76
		c1.27,2.06,5.06,9.32,7.4,9.32c3.14,0.3,6.36,0.48,9.12-1.82c2.82-2.36,5.6-4.8,7.4-8.11
		C311.36,506.11,312.61,505.21,314.63,505.82z M332.47,390.38c7.01,5.6,30.51,28.44,30.51,37.4c-5.05,18.4-15.31,18.61-14.09,25.95
		c-17.03,27.6-33.24,32.86-36.69,49.86c-4.77,2.63-3.53,4.92-5.27,6.28c-5.1,4.01-6.56,6-11.55,5.57c-2.64-0.23-2.91-1.25-5.88-7.2
		c7.04-14.96,18.14-33.12,18.14-45.4c0-1.53,1.47-5.26,2.64-8.41c2.63-7.1,7.6-12.47,13.28-17.33c1.22,0.91,2.44,1.72,3.65,2.43
		c1.65,0.97,4.41,1.62,3.95-0.2c-4.57-1.02-15.01-11.17-28.58-13.88c-0.41-0.06-19-4.23-31.11-6.89
		c-10.85-2.38-13.36-4.41-28.28-9.93c-1.77-0.66-1.81-1.61-5.47-6.49c-1.91-2.87-1.15-0.9,9.93-10.34c5.37-4.57,8.01-7.7,9.12-10.74
		c-2.74,2.13-4.54,4.69-6.89,6.59c-15.83,12.73-14.23,11.66-16.62,8.72c-8.37-10.27-16.6-13.13-20.47-16.42
		c-3.37-2.86-7.73-4.27-13.18-6.08c-3.66-1.46-0.67-1-6.79-3.04c-2.43-0.81-4.76-1.62-7.09-2.43c0-0.81,0-1.52,0-2.33
		c2.62,0,1.94,0.32,0.1-1.52c0-6.75-0.2-4.59,0.61-6.49c5.51,4.29,5.54,4.9,6.08,3.95c-1.72-2.33-4.46-3.55-6.39-5.57
		c-0.67-15.46,0.89-1,10.54,5.47c2.21,1.48,4.4,4.22,11.35,8.01c8.47,4.61,11.39,7.71,23.92,11.15c5.96,1.64,14.41,1.1,15.2,0.61
		c3.47-2.14,5.25-1.15,9.63-3.85c3.31-2.05,3.47-3.16,17.13-20.88c0.82-1.23,0.95-0.49,6.89,4.56c-2.74,1.83-2.67,0.93-7.7,5.57
		c-9.35,8.63-17.17,22.21-21.99,33.85c-2.47,5.97-1.65,6.67-0.91,8.61c0.1-0.21,5.28-27.64,29.49-45.3
		c1.82-1.33,3.75-1.61,5.98-0.51C294.3,368.02,316.31,377.47,332.47,390.38z M338.35,283.76c0.78,3.12-11.43,98.44-12.16,100.03
		c-1.11-2.03-1.19-1.21-0.81-4.05C338.82,278.18,336.8,283.76,338.35,283.76z M324.77,279.1c3.75,1.42,7.4,2.84,11.25,4.36
		c-12.99,104.92-11.61,96.44-12.77,97.6c-37.27-20.71-42.85-19.67-47.74-26.65c5.52-9.32,5.03-9.57,7.5-11.55
		c10.06-8.05,10.38-8.04,10.74-10.13c0.09-0.52,2.52-3.09,6.08-8.21c1.93-0.3,3.75-0.89,5.47-0.81c2.63,0.13,4.66-0.91,6.59-2.33
		C334.62,304.64,323.82,279.67,324.77,279.1z M353.75,256.7c-0.1,0.1-0.41,0-0.71,0c0.83-3.34,9.03-9.18,13.58-14.39
		c0.1-0.2,0.61-0.1,1.52-0.1C363.79,247.99,358.42,252.04,353.75,256.7z M367.23,245.15c5.2-4.91,6.02-5.94,8.61-5.78
		C370.6,244.62,371.22,245.15,367.23,245.15z M377.55,236.32c-0.21-1,0.56-1.21,1.24-1.41C378.79,235.8,378.4,236.28,377.55,236.32z
		 M378.48,226.6c1.53,2.79-2.36,4.44-0.2,5.88c-3.34,3.1-7.76,6.71-9.02,7.8c5.29-13.22,4.4-12.72,6.69-13.99
		C376.86,225.79,377.77,226,378.48,226.6z M395,212.92c-4.54,1.42-3.37,1.39-6.39,6.28c-1.93-1.93-1.93-1.93-1.52-4.76
		c0.1-0.51-0.1-0.91-0.81-0.71c-0.61,1.42-0.3,3.34-2.13,4.26c-1.72-0.2-3.45-0.61-5.27-0.1c0.3,1.42,1.52,1.11,2.23,1.62
		c-0.41,1.01-1.22,1.32-2.13,1.62c-0.81-2.33-1.52-4.36-2.23-6.39c0.61-1.72,1.93-2.33,3.34-2.64c16.13-4.4,9.16-0.66,12.36,0.41
		c0.61-1.82,0.3-3.34-0.81-4.16c-1.23-0.91-2.97-0.02-3.34,0.1c-8.34,2.25-7.9,2.04-8.21,1.42c0.77-0.77-1.18-0.25,10.64-3.55
		c1.66-0.46,4.09-0.03,4.26,2.03C395.13,209.88,395,211.4,395,212.92z M397.03,212.01c-0.54-1.61-0.51-3.24,0-4.76
		c4.06-0.81,3.91,5.15,1.72,8.21C397.13,214.64,397.41,213.13,397.03,212.01z M401.79,216.67c0.3,0.61,0.61,1.22,0.91,1.72
		c-1.82,2.23-1.82,2.23-3.65,1.72c1.93-3.24,3.75-6.39,2.53-11.15c0.81,0.81,1.32,0.91,1.32,1.22
		C403.74,215.6,403.38,214.56,401.79,216.67z M405.04,212.31c-0.1,0-0.2,0-0.3,0c0-0.51-0.1-0.91-0.1-1.42
		C405.17,210.89,405.04,210.61,405.04,212.31z"/> <path d="M290.51,168.33c-0.2,0.28-0.24,0.25,0.1,0.1L290.51,168.33z"/> <path d="M287.67,175.42c-0.02,0.05-0.09,0.05,0.1,0.1L287.67,175.42z"/> <path d="M269.84,321.26c-12.94-1.41-15.14-5-18.75-8.61c-4.93,1.97,13.64,16.43,37.09,8.61
		C285.03,319.6,285.03,322.92,269.84,321.26z"/> <path d="M399.16,224.27c0.13,1.53,0.74,6.1-1.22,7.4c-3.07,4.41-6.33,2.63-8.82,3.34c-0.41,0.2-0.61,0.61-1.01,1.11
		c1.52,0.2,2.74,0.3,4.16,0.51c-2.7,3.79-2.57,3.77-2.03,4.86c0,0.1,0.71,0,0.91-0.2c1.24-1.24,2.08-2.45,3.34-4.56
		c3.32-1.3,8.74-5.7,7.2-8.92C400.95,226.27,401.52,223.56,399.16,224.27z"/> <path d="M615.34,13.47l-0.1,0.1C615.41,13.65,615.37,13.61,615.34,13.47z"/> <path d="M621.82,11.34l-0.1,0.1C621.95,11.44,621.85,11.41,621.82,11.34z"/> <path d="M630.13,12.25c-0.61-0.11-1.42,0.11-2.03-0.2c-2-1.05-4.15-0.73-6.23-0.62c0.29,0.58,0.68,1.16,1.06,1.83
		c-1.01,0.3-2.03,0.3-2.64,0.81c-1.84,1.55-2.79,0.39-4.94-0.46c0.15,0.79,0.32,1.45,1.59,1.77c9.21,2.38,10.66,2.91,12.57,1.52
		c-1.06-1.76-0.08-1.15-2.23-0.71c-0.61,0.2-1.22,0.2-1.22-0.81c1.82-0.91,3.04-3.14,5.68-2.64
		C631.15,12.65,630.64,12.34,630.13,12.25z M620,15.29c2.33-1.11,3.75-0.41,5.37,0C624.26,16.2,624.26,16.2,620,15.29z"/> <path d="M652.53,112.08c-9.76-6.17-2.02-2.01-18.55-6.79c-0.51-0.1-1.11-0.1-2.43-0.1c4.31,2.49,10.62,3.39,14.09,4.05
		C648.09,111.69,650.26,115.1,652.53,112.08z"/> <path d="M646.25,34.44l-0.1,0.1C646.32,34.55,646.38,34.57,646.25,34.44z"/> <path d="M640.57,36.57l-0.1,0.1C640.54,36.67,640.53,36.63,640.57,36.57z"/> <path d="M647.77,34.55c-0.45,0-0.97,0-1.44,0c1.06,1.23,1.73,0.68-5.81,2.12c-0.31,0.61-0.89,0.62-1.47,0.72l-0.1-0.2
		c0.1,0.3,0.1,0.71,0.2,1.11c0.91,0.41,1.42-0.61,2.23-0.61c1.21,0.61,0.92,5.3,5.78,1.42C646.29,34.76,650.42,41.78,647.77,34.55z"/> <path d="M307.64,184.44c0-2.03-0.85-1.91,1.72-0.81c0.2-1.22-0.2-2.33-0.3-3.55c-2.16-0.36-1.68-0.19-1.01,0.81
		c-8.53,0.39-7.67,0.34-8.61,2.23c1.01-0.2,1.93-0.41,2.64-0.51C303.88,183.53,302.14,187.61,307.64,184.44z"/> <path d="M307.34,179.78l-0.1,0.1C307.48,179.92,307.4,179.91,307.34,179.78z"/> <path d="M311.19,206.13c11.29-1.58,9.1,1.03,10.95-0.81c0-0.1-0.1-0.2-0.1-0.3c-6.51-3.68-9.17,0.36-13.07-0.81
		c-0.71-0.21-1.42,0.1-2.84,0.2C308.15,206.03,309.67,206.34,311.19,206.13z"/> <path d="M288.79,260.35c4.55,3.07,5.55-0.2,11.25-0.2c4.43-0.4,2.85-0.02,4.66-1.32c-4.05-0.61-7.6,0-10.95,1.11
		c-2.13-0.2-3.85-1.62-5.88-1.42C287.67,259.34,288.18,259.94,288.79,260.35z"/> <path d="M654.15,59.98c10.42-2.2,6.04,0.33,9.73-1.52c-0.3-0.41-0.41-0.61-0.51-0.71c-1.62-0.71-6.18-1.01-7.6-0.3
		c-3.91,1.95-5.49,0.54-7.3,1.62c0.41,0.41,0.71,0.82,1.11,0.91C651.11,60.32,652.64,60.3,654.15,59.98z"/> <path d="M297,177.45c0.51,0,0.61,0,0.71-0.1c4.73-4.03,9.55-0.61,15.71-0.61c-0.3-0.51-0.41-1.01-0.71-1.01
		C309.3,174.96,299.34,171.46,297,177.45z"/> <path d="M278.65,165.19c7.82,0,7.45-1.08,11.35-0.61c0.1,0,0.3-0.3,0.51-0.41c-0.31-1.53-1.33-1.39-12.16-2.03
		c-0.41-0.1-0.81,0.3-1.22,0.41C289.35,164.02,286.48,163.23,278.65,165.19z"/> <path d="M651.52,30.9c0.65-2.16-2.85-0.95-5.47-1.72c-2.34-0.69-4.46,0.02-6.59,0.51c-1.82,0.42-3.04,1.42-3.45,3.14
		c1.38,0,3-3.35,9.63-2.23C647.56,30.92,649.59,31.2,651.52,30.9z"/> <path d="M357.91,260.05c0-3.87-2.73-1.64-1.72,2.64c0.43,1.82,0.91,3.75,2.94,4.86C359.52,265.98,357.91,264.97,357.91,260.05z"/> <path d="M657.9,64.34c2.13-0.16,3.55-0.91,4.76-2.53c-3.55,0.71-4.96,0.3-8.51,1.01C655.88,64.34,656.18,64.48,657.9,64.34z"/> <path d="M316.05,208.97c-1.28,0-3.4-0.74-4.05,0.3c1.48,2.3,6.19,1.62,8.61,0c-0.81-0.91-1.52-0.3-2.13-0.3
		C317.67,208.87,316.86,208.97,316.05,208.97z"/> <path d="M587.36,573.12c0.41,0.41,0.51,0.71,0.71,0.81c2.26,0.42,5.34-1.86,4.05-3.14C591.01,569.67,588.39,571.91,587.36,573.12z"/> <path d="M647.46,74.68c-9.6-1.66-8.66-1.65-9.32-1.32C641.08,74.98,644.22,75.19,647.46,74.68z"/> <path d="M320.71,192.65c-0.3-1.49,0.97,0.76-3.95-9.83C315.99,184.52,319.02,190.66,320.71,192.65z"/> <path d="M295.78,217.89c2.64,2.13,5.47,2.03,8.61,2.84C302.47,219.41,298.62,218.19,295.78,217.89z"/> <path d="M626.08,63.84c0-1.71,0.12-1.01-2.53-6.69C622.74,59.48,623.34,61,626.08,63.84z"/> <path d="M317.88,237.55c0.3-0.1,0.51-0.51,0.71-0.91c-2.23-1.01-3.95,0.2-5.68,0.81C312.34,238.97,313.29,238.53,317.88,237.55z"/> <path d="M652.03,50.66c-0.46,2.54,3.97,0.86,6.18-0.51c-0.81-0.3-1.11-0.61-1.42-0.51c-0.81,0.2-1.72,0.41-2.23,0.91
		C653.65,51.37,652.84,50.76,652.03,50.66z"/> <path d="M284.02,207.35c-0.2-3.34-0.91-5.17-2.33-6.99C281.19,203.09,282.5,204.91,284.02,207.35z"/> <path d="M656.08,36.47l-0.1,0.1C656.15,36.66,656.11,36.62,656.08,36.47z"/> <path d="M660.13,44.28c0.67,0-3.19-6.78-3.55-7.4C655.69,35.1,655.9,39.83,660.13,44.28z"/> <path d="M310.98,197.11c0.98,0.73,0.63,1.45,5.17,0.41c0.3-0.1,0.61-0.51,1.01-0.81c-1.58-1.26-3.2,0.15-4.46,0.41
		C312.2,197.11,311.69,196.91,310.98,197.11z"/> <path d="M328.11,270.18c0.81,1.62,2.23,2.03,3.55,2.53c0.2,0.1,0.51-0.1,1.11-0.3C331.46,270.89,330.14,269.98,328.11,270.18z"/> <path d="M623.24,17.92c-2.64-0.3-5.27-0.51-8.01-0.81C617.77,18.23,620.4,18.74,623.24,17.92z"/> <path d="M391.25,232.48c2.03-1.82,2.13-1.93,1.93-4.16c-1.52,0.61-1.72,2.13-2.33,3.24C390.85,231.77,391.15,232.08,391.25,232.48z
		"/> <path d="M283.42,257.82c1.42,0.81,2.84,1.01,4.36,0.81c-1.09-1.09,0.74-0.86-4.97-1.93C283.11,257.31,283.21,257.72,283.42,257.82z
		"/> <path d="M321.63,194.88c-1.11,0.81-2.33,1.52-3.55,2.43C320.71,198.41,321.32,197.59,321.63,194.88z"/> <path d="M278.65,159.61c2.27,1.27,6.41,2.29,7.73,0.79C282.18,159.92,279.51,159.82,278.65,159.61z"/> <path d="M657.5,30.69c-0.06,0.16-0.11,0.19,0.1,0.1C657.6,30.69,657.59,30.69,657.5,30.69z"/> <path d="M655.98,36.57c-0.19-2.08,0.66-3.86,1.46-5.73C655.08,31.48,654.75,34.61,655.98,36.57z"/> <path d="M630.03,77.82c0-1.72-0.3-3.24-1.32-4.56C628.41,75.09,629.32,76.5,630.03,77.82z"/> <path d="M659.02,50.86c1.01,0.51,1.72-0.1,2.64-0.3c0.1-0.61,0.1-1.22,0.2-1.82C660.34,48.73,659.83,49.85,659.02,50.86z"/> <path d="M315.95,181.5c1.62-1.32,1.72-1.52,2.03-3.95C316.66,178.67,316.36,179.88,315.95,181.5z"/> <path d="M303.08,179.88c-1.72-0.3-2.84,0.51-4.36,1.52c2.23,0.74,0.43,0.16,2.84-0.3C301.41,181.25,301.16,181.48,303.08,179.88z"/> <path d="M300.14,181.81c-0.02,0-0.04-0.01-0.06-0.01C300.05,181.91,299.98,181.97,300.14,181.81z"/> <path d="M285.14,216.16c0.1,1.93,0.61,3.24,0.91,4.46C286.46,219.21,286.66,217.89,285.14,216.16z"/> <path d="M661.96,48.73c-0.08-0.16-0.02-0.14-0.1-0.1L661.96,48.73z"/> <path d="M660.44,44.28c0.19,0.47,0.8,2.76,1.47,4.33C663.53,47.82,661.07,44.72,660.44,44.28z"/> <path d="M301.36,248.29c0,0.1,0.2,0.3,0.3,0.81C304.19,247.2,301.8,245.16,301.36,248.29z"/> <path d="M613.11,30.29c-0.61-1.01-1.52-1.72-2.94-1.72C610.67,30.09,612.09,29.88,613.11,30.29z"/> <path d="M641.79,35.15l-0.1-0.1C641.55,35.19,641.57,35.12,641.79,35.15z"/> <path d="M639.01,36.47c1.74,0,1.06,0.27,2.58-1.33C640.5,35.09,639.59,35.41,639.01,36.47z"/> <path d="M388.41,244.75c0.81-0.41,1.11-0.91,0.81-1.82C388.21,243.33,387.81,243.83,388.41,244.75z"/> <path d="M358.82,270.29c-0.66,0.33-0.14,1,0.51,2.43C359.33,270.82,359.46,270.29,358.82,270.29z"/> <path d="M385.78,247.48c0.3,0.3,0.51,0.51,0.61,0.51c0.61-0.1,1.01-0.81,0.81-1.22C386.69,246.26,386.27,246.99,385.78,247.48z"/> <path d="M309.36,152.52l-0.1,0.1C309.36,152.64,309.47,152.68,309.36,152.52z"/> <path d="M310.88,154.75c-0.13-0.13-0.21,0.01,0.61-0.81c-0.41,0.41,0.28-0.69-2.1-1.29c0.05,0.19,0.05,0.41-0.03,0.58
		c0.51,0.51,1.01,0.91,1.42,1.42C310.65,154.77,310.62,154.75,310.88,154.75z"/> <path d="M393.08,220.62c-0.84-0.84-0.82-0.5-1.32,0C392.83,221.34,392.44,221.26,393.08,220.62z"/> <path d="M359.63,273.53c0,1.79-0.1,1.52,0.3,1.52C359.94,273.26,360.04,273.53,359.63,273.53z"/> <path d="M628.92,15.69c-0.15-0.15,1.26,0.29,1.97-1.31C629.46,14.34,628.74,15.69,628.92,15.69z"/> <path d="M631.05,14.38l-0.1-0.1C630.86,14.44,630.84,14.38,631.05,14.38z"/> <path d="M305.81,179.58c0.51,0,1.01,0.1,1.42,0.2C306.83,179.27,306.42,179.07,305.81,179.58z"/> <path d="M313.01,156.77c0,0.51-0.1,1.11,0.81,1.11C313.52,157.48,313.21,157.18,313.01,156.77z"/> <path d="M248.45,310.83c0.1,0,0.3-0.2,0.51-0.3c-0.2-0.41-0.51-0.71-0.81-1.11C247.54,310.22,247.84,310.62,248.45,310.83z"/> <path d="M648.68,90.69c-0.28,0.83-0.28,1.01,0,1.01C648.68,91.4,648.68,91.1,648.68,90.69z"/> <path d="M611.18,76.1c0.61-0.81,0.51-1.32-0.2-1.72C610.98,74.88,611.08,75.39,611.18,76.1z"/> <path d="M641.69,34.95c0.3,0,0.61-0.1,1.01-0.2C642.19,34.34,641.89,34.55,641.69,34.95z"/> <path d="M658.92,33.23v0.1C659.3,33.2,659.34,33.23,658.92,33.23z"/> <path d="M614.12,26.54c-0.41,0.1-0.81,0-1.11-0.1C613.31,26.84,613.61,27.05,614.12,26.54z"/> <path d="M662.36,33.33c0,0-0.11-0.01,0.74,0.17C662.78,32.89,662.84,33.09,662.36,33.33z"/> <path d="M663.28,33.53c-0.17,0-0.23-0.11-0.1,0.1C663.22,33.63,663.24,33.65,663.28,33.53z"/> <path d="M289.7,319.24c0.2,0,0.41,0.1,0.61,0.1c0.2-0.2,0.3-0.41,0.41-0.51C290.15,318.83,290.02,318.59,289.7,319.24z"/> <path d="M246.53,307.38c0.22,0.66,0.58-0.3,0-0.3C246.53,307.18,246.42,307.28,246.53,307.38z"/> <path d="M316.86,201.37c0-0.2,0.1-0.3,0.1-0.41C316.79,200.78,316.63,200.9,316.86,201.37z"/> <path d="M320.81,192.55c0.1,0.49-0.07,1.24,0.62,1.39C321.48,193.39,321.28,192.93,320.81,192.55z"/> <path d="M321.42,194.07l0.1-0.1C321.39,193.97,321.47,193.85,321.42,194.07z"/> <path d="M317.98,157.48c0,0.41,0.1,0.81,0.1,1.22c0.1,0,0.2,0,0.3,0C318.77,157.1,318.52,157.76,317.98,157.48z"/> <path d="M318.58,157.48c0,0.12-0.06,0.1,0.1,0.1L318.58,157.48z"/> <path d="M319.8,180.08c0,0.1,0.1,0.1,0.1,0.2C320.27,179.92,319.93,180.08,319.8,180.08z"/> <path d="M323.04,179.98c0.2,0.2,0.3,0.3,0.51,0.51c0.13,0.06,0.1,0.11,0.1-0.1l-0.03,0.03
		C323.67,180.35,323.61,180.26,323.04,179.98z"/> <path d="M306.22,152.21c0.63-0.32,0.07,0.17-0.51-0.41C305.92,152.01,306.02,152.11,306.22,152.21z"/> <path d="M276.12,168.53c-0.61-0.1-0.91-0.1-1.22-0.2C275.11,168.63,275.41,169.04,276.12,168.53z"/> <path d="M275,161.84c0.08,0,0.11,0.02,0.11,0.01s-0.01-0.03-0.01-0.11L275,161.84z"/> <path d="M278.55,159.71c-0.93-0.93-0.64-0.1-0.51-0.1C278.25,159.61,278.45,159.61,278.55,159.71z"/> <path d="M338.35,275.25c0,0,0,0.1-0.1,0.2c0.1,0,0.2,0.1,0.3,0.1C338.55,275.17,338.86,275.25,338.35,275.25z"/> <path d="M657.7,54.41c0.19,0.75,0.59-0.3,0-0.3C657.7,54.21,657.6,54.31,657.7,54.41z"/> <path d="M635.4,71.54c-2.88-1.15-0.95-0.41-0.1,0.1L635.4,71.54z"/> <path d="M278.04,256.2c0.91,0.46,1.05,0.02,0.41-0.3C278.35,256,278.25,256.1,278.04,256.2z"/> <path d="M632.77,84.92v0.3C632.9,85.22,632.89,85.28,632.77,84.92z"/> <path d="M654.56,11.64c0.1,0.2,0.3,0.41,0.41,0.61c0-0.1,0.2-0.2,0.1-0.2C654.95,11.7,654.56,11.02,654.56,11.64z"/> <path d="M288.89,230.45v0.2C289.02,230.66,289.02,230.71,288.89,230.45z"/> <path d="M652.37,11.22c-0.21-0.17-0.39-0.36-0.55-0.69C651.73,10.97,651.96,11.17,652.37,11.22z"/> <path d="M652.37,11.22c0.05,0.04,0.2,0.16,0.26,0.22C652.5,11.18,652.58,11.26,652.37,11.22z"/> <path d="M309.36,152.52C309.56,152.52,309.06,152.21,309.36,152.52L309.36,152.52z"/> <path d="M309.36,153.23c-0.1,0-0.2,0.1-0.2,0.1C309.26,153.33,309.26,153.23,309.36,153.23z"/> <path d="M311.39,155.25c0,0.07,0,0.13,0,0.2C311.51,155.33,311.52,155.38,311.39,155.25z"/> <path d="M311.39,154.65c0,0.12-0.03,0.1,0.1,0.1L311.39,154.65z"/> <path d="M311.39,154.75c-0.17,0-0.34,0-0.51,0C311.52,155.38,311.39,155.39,311.39,154.75z"/> <path d="M312.09,155.53c-0.19-0.06-0.43-0.09-0.6-0.17C312.1,156.29,312.05,156.08,312.09,155.53z"/> <path d="M312.2,155.56l-0.1-0.1C312.1,155.53,312.04,155.5,312.2,155.56z"/> <path d="M312,156.27l0.1-0.1C312.02,156.06,312,155.99,312,156.27z"/> <path d="M631.76,12.76l-0.1,0.1C631.78,12.98,631.76,12.91,631.76,12.76z"/> <path d="M631.86,13.06c0-0.06-0.04-0.09-0.1-0.13C631.76,13.51,631.72,13.19,631.86,13.06z"/> <path d="M631.76,13.47c0-0.39,0.02-0.12-0.1,0c0.1,0.1,0.13-0.03-0.71,0.81C631.52,13.89,631.92,13.63,631.76,13.47z"/> <path d="M636.11,32.92c-0.2,0-0.2,0-0.3,0.1C635.91,33.03,636.01,32.92,636.11,32.92z"/> <path d="M646.05,34.34l-0.2-0.2C646.1,34.52,646.05,34.48,646.05,34.34z"/> <path d="M638.86,37.01c0-0.61,0.33-0.54-0.01-0.54C639.02,36.64,638.1,36.41,638.86,37.01z"/> <path d="M638.95,37.08c-0.08-0.04-0.1-0.18-0.1,0.09L638.95,37.08z"/> <path d="M632.97,69.92l0.1,0.2C633.21,69.99,633.22,70.04,632.97,69.92z"/> <path d="M633.17,70.02c0.2,0.41,0.41,0.71,0.61,0.91C634.02,70.69,633.83,71,633.17,70.02z"/> <path d="M635.91,72.35c0.2-0.2,0.12,0.03-0.51-0.91C635.51,71.84,635.71,72.05,635.91,72.35z"/> <path d="M636.21,72.55c-0.1-0.1-0.1-0.2-0.2-0.3C636.01,72.35,636.11,72.45,636.21,72.55z"/> <path d="M335.61,274.04c-0.13-0.26-0.07-0.26-0.2,0H335.61z"/> <path d="M291.02,318.43c-0.17,0-0.3,0.2-0.3,0.3C290.82,318.63,290.92,318.53,291.02,318.43z"/> <path d="M314.54,156.04c0,0.12-0.01,0.05-0.11,0.02c0.17,0.17,0.35,0.41,0.59,0.6c-0.05-0.28-0.19-0.45-0.44-0.54
		C314.68,156.02,314.64,156.08,314.54,156.04z"/> <path d="M312.91,156.88c-0.2-0.3-0.51-0.51-0.71-0.71C312.1,156.27,311.91,156.21,312.91,156.88z"/> <path d="M314.94,156.88c0.12,0.08,0.22,0.15,0.31,0.21c-0.11-0.12-0.18-0.24-0.1-0.31c-0.05-0.03-0.08-0.08-0.12-0.11
		C315.05,156.79,315.04,156.77,314.94,156.88z"/> <path d="M315.24,157.08C315.56,157.42,316.24,157.77,315.24,157.08L315.24,157.08z"/> <path d="M295.06,156.95c0.01-0.06,0.01-0.11,0.01-0.17C294.96,156.89,294.94,156.86,295.06,156.95z"/> <path d="M315.95,157.69l-0.1-0.2C315.71,157.48,315.7,157.43,315.95,157.69z"/> <path d="M276.32,162.55c-0.17,0.17-0.1-0.63-1.21-0.7C275.18,162.65,276.52,162.81,276.32,162.55z"/> <path d="M277.13,162.65c-0.24,0-0.49,0-0.73,0C276.67,162.99,276.86,163.12,277.13,162.65z"/> <path d="M290.82,168.12c-0.1,0.1,0,0.1-0.1,0.2C291.19,167.85,290.92,168.02,290.82,168.12z"/> <path d="M274.8,168.43c0.08-0.43-0.06-0.7-0.42-0.78C274.56,167.88,274.71,168.08,274.8,168.43z"/> <path d="M274.19,167.62c0.08,0,0.13,0.02,0.19,0.03C274.27,167.49,274.33,167.48,274.19,167.62z"/> <path d="M288.08,175.12c-0.1,0-0.2,0-0.2,0.1C287.88,175.35,287.8,175.4,288.08,175.12z"/> <path d="M287.87,175.33c-0.03,0.03-0.06,0.06-0.09,0.09C287.84,175.42,287.86,175.38,287.87,175.33z"/> <path d="M321.63,194.16c0-0.07,0-0.13,0-0.19C321.58,194.05,321.59,194.12,321.63,194.16z"/> <path d="M321.73,194.26c0,0.01-0.06-0.03-0.1-0.1C321.63,194.92,321.73,194.37,321.73,194.26z"/> <path d="M321.63,194.6c-0.03,0.05-0.06,0.11-0.1,0.18C321.66,194.91,321.63,194.96,321.63,194.6z"/> <path d="M291.42,214.75c-0.14,0.14-0.21,0,0.61,0.81C291.93,215.25,291.73,215.05,291.42,214.75z"/> <path d="M292.84,216.16c-0.2-0.2-0.51-0.51-0.71-0.71C292.27,215.72,292.65,216.35,292.84,216.16z"/> <path d="M293.04,216.47c-0.07-0.07-0.13-0.13-0.2-0.2C292.84,216.37,292.94,216.37,293.04,216.47z"/> <path d="M646.76,315.69c2.43-1.22,4.66-2.74,6.28-5.07c-0.2-0.2-0.51-0.51-0.51-0.41c-2.74,1.22-4.76,3.34-7.6,5.37
		C645.94,315.69,646.45,315.89,646.76,315.69z"/> <path d="M670.37,398.59c1.11-1.73,2.53-3.34,2.94-5.57c-1.36-0.37-1.01-0.01-6.39,7.91C668.75,400.62,669.66,399.71,670.37,398.59z
		"/> <path d="M646.35,371.84c1.01-2.23,1.82-6.99,1.72-9.63C646.76,364.03,645.94,368.59,646.35,371.84z"/> <path d="M591.72,275.15c-0.1,1.01-0.1,1.93-0.2,2.84c1.11-1.01,1.72-2.13,1.11-3.85C592.23,274.64,591.82,274.85,591.72,275.15z"/> <path d="M666.21,482.82c-0.2,1.62-0.3,2.94,1.01,4.16C667.63,485.35,667.73,484.03,666.21,482.82z"/> <path d="M674.42,384.81c-0.61,1.72-0.71,3.55-0.2,5.47C674.73,388.46,674.52,386.63,674.42,384.81z"/> <path d="M667.03,490.21c-0.2,1.42-0.41,2.74,0.91,3.95C668.04,492.65,668.55,491.33,667.03,490.21z"/> <path d="M665.81,455.76c0.3-1.22,0.3-2.13-0.61-3.14C664.49,453.93,664.9,454.74,665.81,455.76z"/> <path d="M657.4,286.4c1.22-1.22,1.32-2.74,1.32-4.76C657.8,283.46,657.4,284.88,657.4,286.4z"/> <path d="M659.83,434.78c0.51,1.01,0.91,2.13,1.62,3.65C661.86,436.4,661.05,435.38,659.83,434.78z"/> <path d="M654.46,308.29c0.71-0.61,1.32-1.32,2.33-2.23C655.17,306.67,655.17,306.67,654.46,308.29z"/> <path d="M667.43,282.95c-0.91,0.2-1.42,0.71-1.01,1.82C667.33,283.87,667.33,283.87,667.43,282.95z"/> <path d="M589.7,292.28c0,2.23-0.38,2.03,0.2,2.03C590.24,292.25,590.13,292.28,589.7,292.28z"/> <path d="M588.88,296.43c0,1.49-0.32,2.13,0.2,2.13c0.24-0.71,0.25-1.53,0.1-2.13C589.09,296.43,588.99,296.43,588.88,296.43z"/> <path d="M588.07,302.92c0.2,0,0.3,0,0.41,0c0-0.61,0.1-1.32,0.1-1.93C587.99,300.99,588.43,300.8,588.07,302.92z"/> <path d="M657.5,428.29c-0.3-0.81-0.61-1.62-0.91-2.43C656.18,427.07,656.48,427.88,657.5,428.29z"/> <path d="M595.17,261.47l-0.09-0.09C595.1,261.45,595.12,261.49,595.17,261.47z"/> <path d="M595.07,261.36c1-0.31,0.7-1.01,0.8-1.92C595.21,259.94,595,261.03,595.07,261.36z"/> <path d="M595.08,261.38c0,0,0-0.01,0-0.01c0,0,0,0-0.01,0L595.08,261.38z"/> <path d="M594.46,263.6c0.57-0.57,0.69-1.32,0.62-2.07C594.2,262.04,594.56,262.82,594.46,263.6z"/> <path d="M665.2,403.15c0.3-0.1,0.61-0.2,0.91-0.2c-0.42-1.27-0.12-0.97-1.11-0.3C664.84,402.65,664.84,403.15,665.2,403.15z"/> <path d="M657.5,286.5c-0.61,0.51-0.91,1.01-0.1,1.82C657.4,287.51,657.4,287.01,657.5,286.5z"/> <path d="M648.58,356.53c-0.3,0.41-0.41,0.81,0.1,1.22C648.68,357.14,648.96,356.53,648.58,356.53z"/> <path d="M649.29,351.77c0-0.1,0.1-0.2,0.1-0.3C649.39,351.05,649,351.48,649.29,351.77z"/> <path d="M657.6,428.29c0,0.41,0.1,0.71,0.1,1.32C658.21,428.8,657.9,428.49,657.6,428.29z"/> <path d="M662.77,442.58c0,0.1,0.1,0.2,0.1,0.3c0.1-0.1,0.2-0.2,0.2-0.3C662.74,442.25,662.97,442.38,662.77,442.58z"/> <path d="M594.36,263.7l0.2-0.1C594.43,263.6,594.48,263.58,594.36,263.7z"/> <path d="M561.22,447.95c0.97-0.73,0.43-0.4,1.62-6.89c0.58-3.17,1.06-3.45,2.03-6.59C562.23,436.3,561.01,441.06,561.22,447.95z"/> <path d="M573.88,426.97c1.4,2.75,2.03,5.78,3.85,8.72c0.1-0.71,0.3-1.11,0.2-1.42C573.28,419.83,573.11,425.46,573.88,426.97z"/> <path d="M592.74,412.48c1.01-1.42,1.11-1.52,0.61-3.45c-1.62,1.93-3.04,3.75-4.66,5.78C590.81,414.61,591.51,414.2,592.74,412.48z"/> <path d="M580.27,454.03c0.3-0.1,0.81,0,0.91-0.2c0.59-1.13,0.61-2.13-0.51-3.55C579.76,451.8,579.56,452.82,580.27,454.03z"/> <path d="M578.45,438.63c-0.71,1.01,0.3,1.62,0.61,2.43C579.76,439.44,579.76,439.44,578.45,438.63z"/> <path d="M559.7,454.64c1-2.33,0.51-1.44,0.51-2.33C559.11,452.46,559.7,453.72,559.7,454.64z"/> <path d="M586.65,415.72c0.1,0.1,0.2,0.3,0.3,0.41C587.53,415.84,587.64,415.23,586.65,415.72z"/> <path d="M582.7,417.95c-0.56-0.28-0.61,0-0.71,0.1c0.2,0.1,0.41,0.1,0.51,0.2C582.6,418.15,582.7,418.05,582.7,417.95z"/> <path d="M580.68,446.53c0-0.1,0-0.2-0.1-0.3C580.57,445.86,579.82,446.53,580.68,446.53z"/> <path d="M640.57,202.48c4.38,0,16.57-8.59,14.49-9.63c-0.51-0.51-1.79,0.27-2.13,0.61C646.67,199.09,641.39,200.04,640.57,202.48z"/> <path d="M624.26,252.85c-1.82-1.82,1.55,8.34,3.14,9.93c0.81-0.91,0.2-1.52,0-2.13C626.28,258.12,625.98,255.18,624.26,252.85z"/> <path d="M665.3,243.12c0.2-1.42-1.32-1.93-1.72-2.94s-0.91-1.82-1.62-2.94c-0.3,1.52-0.51,2.74-0.71,3.95
		C662.97,243.93,663.17,243.93,665.3,243.12z"/> <path d="M636.11,208.36c1.22-1.22,2.23-2.13,2.64-3.55c0.1-0.1-0.2-0.3-0.41-0.61C637.03,205.22,635.81,206.13,636.11,208.36z"/> <path d="M615.64,198.43c2.84,2.03,2.84,2.03,4.66,1.82C619.19,198.83,618.07,198.02,615.64,198.43z"/> <path d="M620.1,235.52c0.2-1.82,0.41-3.34-1.11-4.66C618.68,232.58,618.99,234,620.1,235.52z"/> <path d="M663.78,233.7c0.71-1.01,0.71-1.01,0.71-3.45C663.68,231.67,663.88,232.79,663.78,233.7z"/> <path d="M665.5,211.4c0,1.11,0,2.23,0,4.16C666.21,213.63,665.91,212.41,665.5,211.4z"/> <path d="M621.32,243.02c0.28-0.57,0.3-0.62-0.51-2.23C620,241.6,620.31,242.52,621.32,243.02z"/> <path d="M618.88,189.61c0,0-0.2,0-0.3-0.1c-0.16,0.33-0.76,0.36,0.41,1.52C619.6,190.72,619.65,191.15,618.88,189.61z"/> <path d="M633.28,210.08c0.6,0.2,0.56,0.7,1.11-0.41C633.54,209.25,634.2,209.46,633.28,210.08z"/> <path d="M674.83,258.43c0,0.71,0,1.22-0.2,1.62C675.22,259.16,675.01,259.15,674.83,258.43z"/> <path d="M622.03,191.64c0.1,0.1,0.2,0.2,0.2,0.3c0.2,0.1,0.3,0.1,0.51,0.2C622.74,191.48,622.67,191.32,622.03,191.64z"/> <path d="M584.63,85.63c2.6-7.43,2.43-5.96,0.3-13.18c-2.5,0.42,1.65,5.29-0.2,9.22c-1.82,3.86-2.09,4.35-1.72,5.57
		C584.02,87.25,584.43,86.34,584.63,85.63z"/> <path d="M595.17,138.94c5.01,3.85,5.73,4.64,7.3,4.76c0.13-0.5,0.43-1.03-0.81-1.93c-3.02-2.18-5.39-5.37-6.79-5.37
		C594.36,137.31,595.07,138.13,595.17,138.94z"/> <path d="M579.46,100.52c-1.72-0.3-2.94,0.3-4.16,1.42C577.84,102.75,578.34,102.55,579.46,100.52z"/> <path d="M549.97,178.56c1.52-0.41,2.74-1.22,3.65-2.64C551.89,176.13,551.89,176.13,549.97,178.56z"/> <path d="M596.18,132.86c-2.53-0.61-2.53-0.61-3.85,1.42C593.37,134.62,592.45,135.15,596.18,132.86z"/> <path d="M580.47,87.86c1.16,1.16,2.53,1.27,2.53-0.51c-1.11,0.2-1.82-0.81-2.64-1.22C579.76,86.94,579.97,87.45,580.47,87.86z"/> <path d="M572.77,112.38c-1.11,1.01-2.03,1.72-1.82,3.45C572.26,114.92,572.87,114,572.77,112.38z"/> <path d="M575.71,109.04c0-0.99-2.24-0.95-1.42,1.72C575.2,110.56,575.61,109.85,575.71,109.04z"/> <path d="M580.98,90.19c0.3,0.71,0.61,1.32,0.91,2.23C582.5,91.2,582.4,90.39,580.98,90.19z"/> <path d="M535.78,153.43c-0.1-1.62-0.1-2.33-0.2-3.85C534.87,151.1,534.87,151.91,535.78,153.43z"/> <path d="M568.21,82.08c0.47-0.47,0.82-0.8,0.1-1.52C567.47,81.4,567.42,80.9,568.21,82.08z"/> <path d="M604.09,144.31c-0.29,0.29-0.24,0.22,0.1,0.91C604.48,144.92,604.43,145,604.09,144.31z"/> <path d="M606.22,147.75c-0.19,0-0.41-0.36-0.41,0.3C606.08,148.06,606.22,148.12,606.22,147.75z"/> <path d="M594.97,139.04c0.1,0,0.2,0,0.3,0C595.07,138.94,594.97,138.94,594.97,139.04z"/> <path d="M648.68,172.58c-5.33,0.3-13.08,0-14.29,0c0.65,0.74,0.92,1.66,3.95,1.93c11.72,1.01,21.05,0.03,27.77-9.43
		C663.05,163.86,661.8,171.86,648.68,172.58z"/> <path d="M603.48,175.52c-0.51,0-0.81,0.41-0.61,0.91c1.41,5.3,0.97,4.29,2.13,5.07c0.2-0.2,0.41-0.3,0.51-0.51
		C603.76,175.06,604.06,176.1,603.48,175.52z"/> <path d="M628.51,171.27c-0.51,1.22,0.41,1.32,1.01,1.52c1.01,0.41,1.93,0.61,3.14-0.81C630.94,171.57,629.83,171.06,628.51,171.27z
		"/> <path d="M602.06,171.06c-0.81,1.22-0.51,2.03,0.41,2.84C603.38,172.69,603.07,171.87,602.06,171.06z"/> <path d="M666.82,162.35c0.2-0.41,0.41-0.91,0.71-1.52C666.32,160.83,666.32,161.44,666.82,162.35z"/> <path d="M625.27,170.86c0.3,0.1,0.51,0.41,0.71,0.3c0.2,0,0.3-0.41,0.51-0.61C625.03,170.07,625.95,169.85,625.27,170.86z"/> <path d="M601.05,168.33c-0.1,0-0.3,0.3-0.51,0.51c0.2,0.2,0.41,0.51,0.61,0.71C601.76,168.94,602.03,168.98,601.05,168.33z"/> <path d="M731.28,96.07c-1.01-0.3-1.72,0.1-2.03,1.11c1.11,0.71,1.72,0.1,2.43-0.51C731.48,96.37,731.38,96.07,731.28,96.07z"/> <path d="M697.43,158.4c-0.51-0.41-1.11-0.71-1.72-1.22C695.71,158.5,695.71,158.5,697.43,158.4z"/> <path d="M729.66,78.13c-0.3,0-0.61,0.1-1.22,0.2c0.71,0.41,1.11,0.71,1.62,0.91C730.47,78.53,730.06,78.23,729.66,78.13z"/> <path d="M712.23,156.27c-0.1,0.3-0.1,0.51-0.2,0.71c0.2,0.1,0.3,0.3,0.51,0.41C712.86,156.39,712.84,156.57,712.23,156.27z"/> <path d="M682.63,122.52c0.51,1.52,0.61,0.42,0.41-0.61C682.84,122.21,682.63,122.42,682.63,122.52z"/> <path d="M710.4,154.04c0-0.2-0.1-0.41-0.1-0.61C709.69,153.94,710.3,153.83,710.4,154.04z"/> <path d="M710.71,154.24c-0.1-0.1-0.1-0.2-0.2-0.3C710.5,154.14,710.61,154.14,710.71,154.24z"/> <path d="M725.91,540.99c3-3.6,3.44-5.59,6.28-6.39c0.54-0.27,0.44-1.34-0.41-1.62c-3.37-1.12-6.41,3.5-6.69,7.2
		C725.1,540.28,725.4,540.48,725.91,540.99z"/> <path d="M711.82,526.4c1.42,0.1,2.84-1.52,2.53-2.74c-0.1-0.3-0.51-0.51-0.71-0.71C711.15,522.95,710.13,526.4,711.82,526.4z"/> <path d="M717.5,85.93c-0.1,0-0.2-0.2-0.2-0.1c-0.1,0-0.1,0.1-0.2,0.2c0,0.1,0.1,0.2,0.1,0.3C717.29,86.23,717.4,86.13,717.5,85.93z
		"/> <path d="M221.39,462.75c-2.33,1.82-4.36,3.95-5.88,6.49c-0.1,0.2,0,0.41-0.1,0.61c1.32-0.44-0.74,1.55,6.89-6.28
		c0.1-0.1,0-0.41,0-0.71C222,462.85,221.59,462.65,221.39,462.75z"/> <path d="M233.55,460.72c-0.92,1.28,1.82,3.84-0.41,12.26C231.23,478.73,237.93,467.29,233.55,460.72z"/> <path d="M232.64,474.81l0.2-0.1C232.9,474.42,232.9,474.55,232.64,474.81z"/> <path d="M244.6,455.96c-0.3,0.1-0.71,0.1-0.81,0.3c-1.11,1.72-1.22,2.43-0.81,4.66C244.4,460.01,244.7,459.1,244.6,455.96z"/> <path d="M246.22,471.26c-1.11,2.43-1.72,4.16-1.01,6.69C246.02,475.62,246.42,473.9,246.22,471.26z"/> <path d="M190.17,529.03c-0.73,1-1.62,2.13-1.01,3.85c1.52-0.91,1.52-2.64,2.33-3.65C190.99,528.42,190.47,528.62,190.17,529.03z"/> <path d="M224.84,451.5c-1.42,0.1-2.13,1.11-2.84,2.43c2.03,0.61,2.43-1.01,3.55-1.62C225.14,451.8,225.04,451.5,224.84,451.5z"/> <path d="M193.92,522.65c-1.32,1.52-1.32,1.52-1.72,3.65C193.42,525.38,193.82,524.37,193.92,522.65z"/> <path d="M232.65,474.95c0.04-0.01,0.06-0.03,0.09-0.04C232.6,474.77,232.65,474.78,232.65,474.95z"/> <path d="M232.65,474.95c-1.4,0.62-1.01,1.71-0.72,2.9C232.81,476.77,232.84,476.72,232.65,474.95z"/> <path d="M211.05,478.25c0.3-0.51,0.71-0.81,0.81-1.22c0.1-0.3-0.1-0.61-0.1-1.01C210.95,477.14,210.95,477.14,211.05,478.25z"/> <path d="M213.38,473.39c0,0,0.2,0.1,0.2,0.2c0.94-0.47,0.38-0.46,0.71-1.11C213.51,472.48,213.8,472.14,213.38,473.39z"/> <path d="M230.71,481.8c0,0.81,0,1.32-0.1,1.72C230.82,483.02,231.32,482.61,230.71,481.8z"/> <path d="M230.41,483.63c0.1,0,0.2,0,0.3,0C230.51,483.53,230.41,483.63,230.41,483.63z"/> <path d="M205.58,486.77c-0.22,0.22,0.1,0,0.2-0.1C205.68,486.67,205.58,486.67,205.58,486.77z"/> <path d="M205.5,486.88c-0.04,0.03-0.09,0.06-0.12,0.09C205.44,486.97,205.47,486.93,205.5,486.88z"/> <path d="M205.48,487.07c-0.2,0.1-0.3,0.2-0.51,0.3C205.58,487.68,205.38,487.28,205.48,487.07z"/> <path d="M215.42,470.04c0.03-0.03,0.06-0.06,0.09-0.09C215.45,469.94,215.43,469.98,215.42,470.04z"/> <path d="M215.21,470.25c0.1,0,0.2,0,0.2-0.1C215.41,470.01,215.49,469.97,215.21,470.25z"/> <path d="M293.04,507.04c0.3,1.22,0.61,2.23,0.91,3.14c0.42-0.14,1.01,0.03,1.01-1.22c-0.65-3.66,1.86-5.61,4.66-8.41
		C298.48,497.96,294.1,504.09,293.04,507.04z"/> <path d="M348.69,436.6c-1-0.5,1.99-0.58-8.92,0.2C338.55,436.8,344.65,440.09,348.69,436.6z"/> <path d="M325.17,465.38c2.23-0.61,2.98-1.2,3.85-3.24c0.43-1,1.01-2.13,0.1-3.14C327.99,459.28,328.63,458.76,325.17,465.38z"/> <path d="M330.54,457.58c2.29-2.42,2.77-6.49,2.03-6.49c-0.18,0-0.04-0.33-2.33,5.88C330.24,457.17,330.34,457.28,330.54,457.58z"/> <path d="M316.86,474.4c0.73,0.37,0.26,0.35,1.11-0.51c0.1,0-0.2-0.2-0.51-0.51C317.27,473.8,317.06,474.1,316.86,474.4z"/> <path d="M320.41,471.36c0.12,0.25,0.25,0.66,0.81,0.1c0.1-0.1-0.1-0.41-0.1-0.71C320.81,470.96,320.61,471.16,320.41,471.36z"/> <path d="M190.48,367.38c0.19,0.08,0.14,0.15,0.1-0.1L190.48,367.38z"/> <path d="M191.9,368.09c-0.46-0.18-0.84-0.44-1.28-0.64C190.8,368.07,191.43,368,191.9,368.09z"/> <path d="M187.6,366.13c0.22,0.56,0.71,0.55,1.22,0.54C188.55,365.98,187.3,365.83,187.6,366.13z"/> <path d="M188.86,366.77l0.1-0.1C188.75,366.67,188.83,366.65,188.86,366.77z"/> <path d="M190.18,367.29c-0.37-0.17-0.79-0.35-1.23-0.62C189.21,367.35,189.68,367.32,190.18,367.29z"/> <path d="M190.38,367.38l0.1-0.1C190.05,367.28,190.16,367.27,190.38,367.38z"/> <path d="M353.85,433.76c-0.3-0.3-0.29-0.22-0.51,0c0.1,0,0.1,0.1,0.2,0.1C353.65,433.86,353.75,433.76,353.85,433.76z"/> <path d="M350.92,435.18c-0.13-0.13-0.04-0.1-0.41-0.1C350.51,435.46,350.79,435.18,350.92,435.18z"/> <path d="M302.67,494.47c0.24-0.24,0.17-0.17,0.3-0.3C302.72,494.29,302.79,494.23,302.67,494.47z"/> <path d="M191.9,368.09c0.12,0.25,0.14,0.33,0-0.1V368.09z"/> <path d="M244.19,285.89c-0.09-0.69,0.49-2.5-3.95-4.86c-0.41-0.1-0.61,0-1.42,1.01C240.24,283.56,241.86,284.88,244.19,285.89z"/> <path d="M231.83,260.66c1.72-2.03,5.07-1.72,5.88-4.66c-0.74-1.98-1.8,1.51-5.78,2.84C231.53,259.04,231.02,259.64,231.83,260.66z"/> <path d="M239.84,238.06c1.16,3.47,0.9,2.6,1.62,6.18C242.47,240.89,242.17,239.68,239.84,238.06z"/> <path d="M241.56,279.1c-0.2-2.53-0.2-2.53-2.23-4.05C239.53,276.57,240.14,277.79,241.56,279.1z"/> <path d="M178.93,288.73c0.71,0.1,1.01,0.2,1.22,0.1c1.01-0.61,1.82-1.32,2.23-2.43C181.59,286.01,182.71,284.95,178.93,288.73z"/> <path d="M227.47,264.41c-0.66-0.66-0.22-0.59-2.64,1.01C226.46,266.13,226.86,265.12,227.47,264.41z"/> <path d="M253.82,237.14c-0.71-0.81-1.32-1.42-2.03-2.33c-0.2,0.61-0.41,1.01-0.3,1.11C252.2,237.04,252.2,236.94,253.82,237.14z"/> <path d="M244.7,289.85c0-1.25,0.17-1.93-0.51-1.93C243.52,287.92,242.99,289.85,244.7,289.85z"/> <path d="M231.53,247.48c0.38-0.75-0.09-0.8-1.11-2.33c-1.03,0-0.04,0.94,0.51,2.03C231.02,247.38,231.32,247.38,231.53,247.48z"/> <path d="M240.65,249.41c-0.41,0.2-0.61,0.41-0.81,0.61c0.2,0.3,0.3,0.51,0.41,0.61C240.99,249.87,241.14,250.07,240.65,249.41z"/> <path d="M241.15,247.68c0.1,0.3,0.2,0.51,0.3,0.71c1.02-1.02,0.81-0.31,0.41-1.11C241.66,247.38,241.46,247.58,241.15,247.68z"/> <path d="M229.4,262.48c0.1,0,0.43-0.48,0.1-0.81c-0.2,0.2-0.51,0.51-0.71,0.71C228.99,262.38,229.3,262.58,229.4,262.48z"/> <path d="M183.89,284.17c-0.2,0-0.41-0.2-0.51-0.1c-0.2,0.1-0.2,0.41-0.3,0.61C183.61,284.94,183.89,284.86,183.89,284.17z"/> <path d="M238.11,273.93c-0.23-0.23-0.18-0.32-0.81,0C237.7,274.33,237.71,274.34,238.11,273.93z"/> <path d="M237.51,280.42c-0.61-0.3-0.51,0.1-0.51,0.3C237.2,280.62,237.3,280.52,237.51,280.42z"/> <path d="M237.1,280.83c-0.2,0-0.41,0.1-0.61,0.1C236.9,281.54,236.9,280.93,237.1,280.83z"/> <path d="M254.84,366.77c0-1.42,0.42-2.61,1.72-3.55c0.41-0.3,0.71-0.91,1.32-1.42c-0.26,0.07-1.7-0.23-3.55,1.93
		c-2.21,2.21-3.91,1.51-6.08,2.23c-0.41,0.1-0.61,0.61-1.01,1.01c0.51,0.41,0.81,0.81,1.22,0.91
		C250.58,368.29,252.61,367.58,254.84,366.77z"/> <path d="M219.06,371.94c0.1-2.64,1.42-5.07,1.32-8.11c-0.51,0.41-1.01,0.51-1.11,0.81c-0.91,1.93-1.42,4.05-1.42,6.18
		C217.74,371.43,218.05,371.94,219.06,371.94z"/> <path d="M247.54,342.14c2.74-0.3,4.46-1.11,6.89-1.62C251.8,339.81,250.68,340.12,247.54,342.14z"/> <path d="M228.38,332.21c-0.3-0.51-0.61-1.11-0.91-1.72C226.96,331.5,226.96,331.5,228.38,332.21z"/> <path d="M221.09,359.47c-1.22,1.22-0.82,0.78-0.41,1.62C221.29,360.49,221.09,361.03,221.09,359.47z"/> <path d="M233.96,326.03c0.36,0.36,0.91-0.11-0.2-1.22C233.35,325.32,233.55,325.72,233.96,326.03z"/> <path d="M223.01,355.32c-0.41,0.2-0.75,0.03-0.3,0.91C223.16,356.01,223.42,356.12,223.01,355.32z"/> <path d="M245.11,343.46c0-0.27-0.27-0.24-0.41-0.1C244.7,343.63,244.97,343.6,245.11,343.46z"/> <path d="M258.18,361.4c-0.61-0.2-0.3,0.2-0.41,0.3C257.88,361.6,258.08,361.5,258.18,361.4z"/> <path d="M355.07,542.11c0.98-0.49,1.79-2.42,3.04-4.76c-0.71-0.3-1.11-0.61-1.22-0.51C354.27,538.64,352.98,543.15,355.07,542.11z"/> <path d="M205.17,572.31c-1.15,0.59-1.11,2.43,1.01,2.43c6.34-1.44,6.99-1.52,7.2-1.93C215.41,568.77,208.95,570.38,205.17,572.31z"/> <path d="M215.61,595.11c1.44-1.7,3.03-3.8,6.08-4.05c2.89-0.24,1.9,1.58,3.75,1.11c0.65-0.16,0.66-2.44-2.23-3.04
		c-2.63-0.54-6.18,1.11-7.5,3.55C215.41,593.08,215.61,593.79,215.61,595.11z"/> <path d="M169.7,376.6l0.1,0.1C169.77,376.66,169.75,376.6,169.7,376.6z"/> <path d="M172.74,375.18c0.81,0.08,1.82,0.2,2.64-0.51c-1.32,0-2.53,0-3.75,0c-1.28-1.77-0.26-3.35,0.16-4.94
		c-0.88,0.17-1.09,1.02-1.28,1.69C168.06,379.99,170.09,374.91,172.74,375.18z"/> <path d="M171.93,369.71l-0.1-0.1C171.79,369.77,171.74,369.75,171.93,369.71z"/> <path d="M169.6,376.7c-0.81,1.11-0.41,2.33-0.1,3.55C169.6,379.13,169.6,377.92,169.6,376.7z"/> <path d="M177.91,367.18c1.01,0.1,1.82,0.2,2.43,0.3C179.74,366.67,179.03,366.77,177.91,367.18z"/> <path d="M176.7,374.47c0-0.1-0.1-0.2-0.1-0.3C174.06,374.8,176.02,374.47,176.7,374.47z"/> <path d="M172.03,368.7c-0.4,0.4-0.07,0.68-0.3,0.91C172.39,369.28,172.27,369.18,172.03,368.7z"/> <path d="M179.6,361.72c0.01,0.03,0.01,0.06,0.03,0.09C179.63,361.77,179.62,361.74,179.6,361.72z"/> <path d="M179.6,361.72c-0.07-0.17-0.09-0.35-0.17-0.52C178.99,361.73,179.48,361.56,179.6,361.72z"/> <path d="M233.86,232.48c0.51-1.93,0.2-2.94-1.42-3.95c0.41,0.91,0.71,1.42,0.91,2.03C233.55,231.06,233.55,231.47,233.86,232.48z"/> <path d="M613.41,8.4c0-0.52-0.41-0.17-1.11-0.41c0.1,0.1,0.1,0.2,0,0.3C612.7,8.3,613.11,8.3,613.41,8.4z"/> <path d="M645.44,7.08l-0.1,0.1C645.56,7.26,645.53,7.36,645.44,7.08z"/> <path d="M645.13,6.88c0.1,0.1,0.1,0.2,0.2,0.3C645.34,6.98,645.23,6.98,645.13,6.88z"/> <path d="M617.06,12.45c-0.41-0.81-1.01-1.11-1.82-1.11C615.44,12.35,616.05,12.45,617.06,12.45z"/> <path d="M276.22,149.98c0.71,0.71,1.52,1.11,2.33,1.11C277.94,150.39,277.44,149.68,276.22,149.98z"/> <path d="M280.61,148.19c-0.23-0.2-0.34-0.14-0.13,0.07C280.53,148.21,280.57,148.2,280.61,148.19z"/> <path d="M279.39,154.03c0.23,1.02,1.11,1.14,2,1.33C280.9,154.68,280.42,153.91,279.39,154.03z"/> <path d="M281.49,155.46l-0.1-0.2C281.39,155.38,281.37,155.33,281.49,155.46z"/> </g> </svg> 