<?xml version="1.0" encoding="utf-8"?> <!-- Generator: Adobe Illustrator 23.0.1, SVG Export Plug-In . SVG Version: 6.00 Build 0)  --> <svg version="1.2" baseProfile="tiny" id="Layer_1" xmlns="http://www.w3.org/2000/svg" xmlns:xlink="http://www.w3.org/1999/xlink" x="0px" y="0px" viewBox="0 0 900 600" xml:space="preserve"> <g> <path d="M320.31,180.96c-0.65-3.2,0.09-5.3,2.59-7.45c6.06-5.22,9.23-11.68,8.28-19.87c-0.97-8.34,0.15-16.76-18.63-29.28
		c-0.21-3.41,0.1-6.83-1.76-10.14c3.31,1.24,6.52,1.97,8.28,5.17c-0.21-2.07,1.14-4.14,0-6.11c-1.87,0.47,0.05,1.86-1.55,1.86
		c-3.62-1.55-3.62-1.55-4.35-3.21c9.04-1.36,10.6,2.26,7.97,6c-0.21,0.31-0.41,0.62-0.1,1.24c2.28,0.62,2.07-2.07,3.1-2.69
		c8.08-2.38,3.74-0.79,9.31-4.14c1.86-4.55,1.14-9.62,3-14.59c-3.88,3.14-1.63,3-3.93,13.35c-2.9,0.62-4.45,3.73-8.38,3.31
		c-0.62-0.1-0.41-1.86-1.55-2.28c3-5.07,2.17-10.04,0.62-15.11c-1.66,4.14,1.45,8.69-1.24,12.93c-2.38-1.55-1.35-4.24-2.59-6
		s-2.17-3.83-3.21-5.59c-1.35-0.72-1.45,1.03-2.38,0.93c-0.1-0.21-0.41-0.52-0.31-0.62c4.68-6.25,2.69-4.68,7.76-5.07
		c1.24-1.03,2.48-2.07,3.52-3c1.97-0.21,2.48,1.66,4.04,1.97c1.24,0,2.17-1.45,3.93-1.35c1.55,1.86,3.83,3.41,6.31,5.17
		c-1.76,4.86-1.86,10.04-3.83,14.8c2.16-1.2,1.83-0.68,4.97-13.87c-0.21-3.21-3.41-3.52-4.97-5.69c2.28-1.97,1.35-5.28,3.41-7.24
		c-0.72-4.66-4.16-6.8-7.45-8.69c-6.9-3.97-9.41-7.8-16.35-5.28c-12.5,4.54-9.77,6.95-11.59,3.31c1.66-2.79,1.66-2.79,0.72-5.59
		c1.55-2.28,1.55-2.28,1.35-7.35c1.86-1.55,5.17-2.38,3.73-6.73c-1.66-2.38-3.41-5.48-3.83-9c0.21-1.45,1.97-1.14,1.97-2.38
		c-0.62-0.21-1.14-0.41-1.97-0.72c4.14-4.35,3.66-9.02,1.55-14.07c-4.79-11.5-2.45-16.96-18.94-22.45
		c-9.51-3.78-26.2-6.73-33.94-0.41c-2.91,2.37-6.31,4.04-8.8,6.93c-3.21-0.93-6.41-1.26-9.62-1.66c-8.92-1.11-8.94,5.53-15.21,14.28
		c-3.29,4.6-2.27,12.23-0.72,16.45c3.19,8.73,1.76,9.71,4.66,22.76c-1.24,1.24-15.82-3.18-29.28,1.66
		c-2.02,0.73-4.78-0.23-9.62,1.24c-5.94,1.81-5.17,5.71-6.31,7.14c-2.17,3.1-1.94,6.6,0.01,9.12c3.67,4.72,5.09,10.44,7.35,15.73
		c5.37,12.6,18.1,23.33,19.66,24.11c6,3.62,8.48,9.52,10.66,15.73c0.62,1.76,0.1,3.62,0.52,5.38c3.64,15.37,10.18,24.17,14.28,37.35
		c2.33,7.47,4.13,23.54,4.66,25.97c1.92,8.91,1.65,17.9,1.14,26.9c-0.52,9.07-7.57,20.34-8.17,20.59c-3.43,1.41-4.39,4.91-6.31,7.55
		c-11.72,16.13-18.14,27.37-13.04,59.81c0.42,2.69,1.75,5.18,3,7.55c7.06,13.4,12.43,11.94,13.66,19.87
		c1.01,6.53,2.17,22.44,12.21,47.6c6.11,15.31,5.1,16.29,6.83,28.87c0.65,4.72-3.42,11.05-4.55,19.66
		c-1.09,8.32-3.64,12.06-3.41,18.21c0.9,24.87,0.98,28.16,3.52,35.7c3.49,10.36,5.66,21.01,8.8,31.35
		c1.13,3.73,1.35,7.66,1.76,11.69c-1.42-0.22-2.01-3.6-3.31-1.66c-3.28,6.01-2.83,11.58-6.93,17.59c-3.2,4.68-1.86,8.85-5.17,10.24
		c0.41,1.45,1.35,2.9,0.21,4.55c1.35,1.14,2.59,2.17,3.62,3.21c3.38,3.38,2.52-0.48,14.8,5.48c0.93,0.31,2.17-0.52,3.52,0.1
		c1.24,1.24,1.66,3.21,2.69,4.66c6.45,7.21,10.08,12.11,19.66,12.11c10.86,2.9,20.72-1.15,30.63-4.55c1.76-0.61,3.41-1.86,4.86-2.69
		c1.35-1.66,1.24-3.62,1.86-5.59c5.9-0.93,11.8-2.38,15.42-8.48c-0.52-2.59,0.1-5.38-0.1-7.97c-0.41-0.93-1.24-0.72-1.76-1.03
		c0.23,5.26-5.17,6.46-5.17,10.24c1.96-0.29,2.72-3,4.14-3c1.18,1.85-0.03,2.35-4.86,5.38c-2.44,1.53-6.97,2.9-7.64,1.97
		c-1.35-1.64,1.09-3.89,0.08-4.35c-6.26-2.8-11.55-7.39-17.49-10.86c-10.93-6.4-11.17-9.87-14.32-12.67
		c-0.19-0.19-1.05-0.86-1.75-1.83c-1.64-2.26-0.7-3.42-1.3-3.4c-8.01,0.19-5.25-9.48-6.91-10.79c-0.62-0.49-1.57-0.43-2.21-1.32
		c-1.03-5.17,0.02-10.87-1.03-16.45c-0.61-3.21,0.03-6.72,0.21-10.04c2.19-41.85,1.45-38.58,3.31-48.32
		c0.02-0.1,6.84-35.05,8.07-39.42c0.52-0.72,1.55-0.72,1.86-2.17c0-14.43,2.81-15.36,2.9-19.87c0.42-21.44-0.61-6.7-1.45-41.18
		c-0.71-29.26-5.51-23.83-3.62-39.63c0.11-0.93,0.72-1.86-0.1-3.1c-0.34,1.01-3.02,4.26-2.59,14.28
		c-9.73,0.72-18.83,2.59-27.83,4.76c-24.31,5.87-25.47,12.21-25.7,10.23c-0.05-0.46-0.51-3.8-0.88-4.08
		c-15.17-11.07-17.78-28.22-16.88-47.13c0.79-16.49,9.46-22.81,14.87-33.05c0.22-0.41,5.7,9.94,16.79,11.01
		c43.95,4.24,49.04,6.47,56.53-0.05c0.72-0.62-0.39,2.77,2.35,13.61c4.53,17.91,4.05,16.32,5.69,37.15
		c-3.54,0.51-14.14,2.89-19.56,5.28c-1.08,0.48-1.76,0.9-1.24,2.28c8.02-1.65,11.89-4.14,21.32-4.14c0.82,3.92,2.45,7.5,0.72,13.87
		c-2.12,7.82-0.73,13.66-1.55,20.38c-1.11,9.08-8.57,39.34-9.62,42.84c-2.79,9.29,1.31,10.94-2.48,16.45
		c-2.98,4.32-2.5,5.88-4.45,15.11c-1.53,7.25-4.45,14.07-5.38,21.42c-0.83,6.52-2.17,13.04-3.41,19.45
		c-5.21,26.91,0.53,29.18-1.86,36.63c-1.87,5.81-0.23,9.04,4.35,21.11c-0.3,2.98-2.59,4.87-2.59,7.86c3.66-2.89,6.11-9,6.11-9.11
		c0.73,1.11,2.83,3.03,3.9,4.49c2.76,3.77-0.18,1.24-6.29,6.27c-1.21,0.99-1.95,1.81-0.83,3.31c3.48-0.82,8.16-4.66,9.31-4.66
		c5.09,5.72-4.72,2.47-7.35,8.59c0.21,0.56,0.54,1.35,1.14,1.35c3.6-0.05,8.01-3.1,10.04-3.1c0.26,0.34,0.84,0.71,1.17,0.99
		c2.25,1.96-3.37,2.46-5.52,5.32c2.26,6.43,10.75-5.87,14.69-0.83c-2.17,2.17-5.48,3-7.24,5.48c0.18,0.8,0.62,1.35,1.45,1.35
		c5.13,0,6.72-5.44,10.34-2.58c0.99,0.78-4.97,1.4-5.57,4.96c3.83,0.83,5.38-1.97,7.24-4.04c16.19,8.42,16.52,8.76,18,7.86
		c-1.45-4.34-12.66-5.9-18.83-11.59c-9.66-8.9-13.93-7.76-15.83-14.28c-1.72-5.91-5.69-10.04-10.45-13.66
		c-0.62,0.21-1.24,0.31-1.86,0.52c-4.04-6.07-1.42-27.29-1.45-33.32c-0.05-10.66,1.22-21.19,3.52-31.56
		c1.55-6.98,1.65-13.04,4.14-18.11c1.44-2.94,1.82-5.74,3.31-16.14c-1.35-2.71-1.34-1.82-0.41-3.21c8.65-7.71,4.14-16.69,9.52-34.46
		c9.87-32.61,6.27-43.81,7.04-46.98c1.6-6.61,1.63-13.34,0.62-20.07c-1.28-8.58-1.19-17.4-3.83-25.66
		c-2.74-8.6-3.25-17.59-4.35-26.39c-1.38-11.12,6.5-27.49,4.86-41.08c-0.24-2.01,3.67-18.03,5.17-21.83
		c2.58-6.52,4.76-13.14,5.07-20.38c1.64,0.87,56.37,276.59,56.39,276.69c0.29,1.35,0.31,2.9,2.28,3.52
		c2.17-0.62,1.67-2.38,1.35-4.04C375.49,455.65,323.99,199.01,320.31,180.96z M273.53,544.46c0,3.29,2.36,5.22,3.3,6.63
		c-15.18,3.43-10.74,7.83-8.59,6.73c3.75-1.92,7.88-1.2,11.69-2.59c0.78-0.28,1.46-0.3,1.71,0.64c0.46,1.37-7.63,0.78-10.92,5.15
		c0.62,0.52,0.93,0.93,1.24,0.93c6.04-0.58,13.64-4.75,13.98-2c0.21,1.69-7.2,0.49-10.76,4.67c-0.04,0.04-0.08,0.08-0.11,0.12
		c2.69,2.28,5.17,1.97,13.87-1.45c2.64,4.36,1.77,3,1.98,3c0.53,0.58,1.52,0.68,1.73,1.58c0.16,0.95-3.7,1.51-5.42,4.05
		c-0.04,0.06-0.08,0.1-0.12,0.17c3.73,1.55,5.69-0.83,8.07-2.69c4.24,2.7,3.14,3.1,3.93,0.72c5.07,3.41,10.24,6.52,15.62,9.52
		c0,2.17,0.52,4.11-0.31,6.11c-2.07,0.52-4.56,0.3-5.9,1.97c-1.82,2.27-4.41,3.82-7.14,5.38c9.43-0.94,8.9-4.92,12.83-3.93
		c-0.93,1.66-2.29,2.35-3.73,2.9c-17.44,6.6-24.05,5.31-32.59,4.55c-3.12-0.28-2.73-1.49-6-3.31c-14.98-8.34-7.22-17.69-18.42-16.04
		c-3.42,0.5-12.52-2.79-15.21-5.69c0.99-1.32,2.61-4.92,3.41-9.21c0.84-3.35,5.94-8.64,6.62-18c0-0.31,0.31-0.62,0.83-1.76
		c0.29,1.66,1.03,2.04,1.03,3.1c0,0.74-4.54,5.43,1.23,11.68c2.48,0,5.28,0,8.17,0c4.82,0,3.54-6.62,4.01-8.43
		c0.47-1.81,1.12-2.28,7.26-7.5c0.83,2.28,0.62,4.24,1.66,6C273.12,546.63,272.39,545.39,273.53,544.46z M282.03,334.83
		c4.71,26.5,2.57,28.53,3.93,43.05c0.57,6.09,1.84,26.11,0.31,30.53c-4.01,11.54-11.59,46.25-12.83,54.95
		c-6.29,44-2.65,66.66-2.17,73.88c-6.2,4.82-12.42,8.58-10.66,16.14c0.17,0.73-0.55,1.23-0.79,1.23c-2.16-0.29-4.72,0-7.18-0.92
		c-0.52-1.14-1.44-2.27-1.03-3.31c1.26-3.2,0.05-6.75,1.35-9.93c3.26-8.04-7.57-32.57-9.83-44.7c-9.23-49.46,12.2-62.12,2.07-88.88
		c-2.57-6.79-15.94-45.8-15.94-57.12C244.92,340.09,263.71,336.66,282.03,334.83z M310.9,130.36c0.11,1.36,1.45,2.07,0.62,3.52
		C310.48,132.85,310.17,131.91,310.9,130.36z M311.1,153.64c-1.55,1.03-2.48,2.28-3.52,3.93
		C307.69,153.94,308.05,153.64,311.1,153.64z M314.52,99.94c0,1.71,4.42,4.79,3.41,8.9c-2.01,0.41-3.91,0.11-5.79,0
		c-1.42-0.4-1.85-2.07-3.33-1.96c-0.67,0,1.15,0.99,0.52,4.35c-0.11,0.32-0.52,0.5-0.72,0.41c-1.35-1.11,0.46-3.26-1.93-3.47
		c-1.78-0.16-2.5,1.3-3.03,2.85c-0.11,0.31,0.21,0.72,0.21,0.93c1.17,0.37,0.93-1.25,1.77-1.15c0.1,0,1.01,0.39,0.52,1.24
		c-0.83,1.14-2.59,0-3.41,1.24c-0.1,1.55,1.95,1.05,2.16,2.37c0.57,0-2.78,0.22-3.82-2.37c0-1.14,1.55-1.24,1.24-2.48
		c-1.97-1.14-4.35,0.31-6.42-1.03c-0.21-3.21-0.62-6.42,0.93-9.62C300.15,100.15,307.98,102.24,314.52,99.94z M304.69,125.4
		c0.62,0.72,0,2.28,1.55,2.59c0.75-2.04-0.95-4.23,0.52-6.73c3.13,6.04-1.38,11.83,2.69,17.38c0.53,0.72,0.52,1.55-0.31,2.59
		C306.59,135.69,302.54,123.97,304.69,125.4z M305.72,118.57c-0.1,0.83-0.62,1.24-1.35,1.66
		C304.07,118.77,304.58,118.46,305.72,118.57z M308.62,114.84c0.89,1.87,1.04,4.31,0.72,5.9
		C307.92,118.04,305.75,116.56,308.62,114.84z M293.62,114.94c2.07,3,5.07,4.86,7.66,7.14c0.41,3.41,0.83,6.62,1.24,10.04
		c-8.8-2.9-15.21-9-22.97-14.69C284.73,117.62,288.85,116.65,293.62,114.94z M289.48,113.7c1.34-2.81,1.89-5.73,4.14-8.48
		c0.57,2.61,0.31,4.89-0.52,7.35C292.06,113.29,291.03,113.7,289.48,113.7z M296.67,112.34c0.87-0.45,1.59-0.38,2.64-0.19
		c-0.1,1.24,0.92,2.09,0.52,3.41C299.09,115.01,296.25,112.55,296.67,112.34z M303.75,77.21c0-0.1,4.45-3.97,15.64-6.45
		c6.04,2.87,8.5,6.31,9.52,6.31c2.69,0,4.04,1.97,5.59,3.31c0.83,3.41,1.24,6.52-0.62,9.83c-1.85-1.86-3.96-0.01-5.47,0.7
		c-1.14-0.83-2.07-1.86-3.41-1.97c-2.07,0.21-2.79,2.28-4.76,3c-2.48-0.62-4.66,0.31-6.31,2.17c-1.03-0.83,0.1-2.59-1.76-2.9
		c-1,2.01,1,5.58-1.98,7.56c-4.45,0.31-8.9-0.52-13.24-0.72c-11.23-9.98-14.5-10-13.28-12.94c0.03-0.1,10.15-2.52,12.76-2.68
		C300.11,82.22,303.03,80.81,303.75,77.21z M283.79,82.45c0.93-1.04,1.78-0.71,3.1-0.21C285.67,82.44,285.02,83.38,283.79,82.45z
		 M299.92,18.92c4.87,1.69,2.93,8.63,6.83,17.8c-0.41,0.62-0.73,1.33-1.24,1.55c-3.45,1.47-3.08,4.34-2.48,7.24
		c1.6,7.73,5.26,9.24,4.14,11.49c-1.26,0.64-1.95,1.18-3.4,0.41c-1.3-0.81-3.21,0.31-3.21,1.55c0.52,0.93,1.45,0.1,2.28,0.62
		c-0.21,1.66,0.1,3.41,1.03,4.86c-2.27,3.41-5.95,0.31-8.6,1.97c1.86,2.07,4.04,1.14,6.11,1.45c3.46,3.46-0.2,2.34-0.62,5.28
		c0.12,0.6,3.03,4.61-1.14,6.83c-2,0.21-4.53,1.18-6.52,0.52c-4.01-1.34-8.28-0.62-12.21-1.76c-0.2-0.1-0.42,0.1-0.72,0.21
		c0.1,1.24,1.86,0.93,2.07,2.17c-0.23,0.69-0.3,3.2-1.89,2.59c-3.99-1.53-8.32-2.37-12.18-4.35c-1.35-1.76-0.83-4.45-3.62-5.59
		c0.15,1.84,1.66,2.69,1.35,4.14c-12.68-5.69-14.59-5.54-15.31-10.24c0.93-1.76,4.04-1.66,3.31-4.66c-0.48,0.12-1.06,0.16-1.24,0.17
		c-2.7,0.01-3.5-2.07-3.92-0.88c-0.16,0.45,0.46,0.97-0.32,1.44c-1.65-1.32-1.92-3.57-2.17-5.69c2.69,1.86,5.28,2.59,7.66,3.1
		c1.98,2.32,1.53,5.87,7.05,2.89c0.3-0.16,0.31-0.09,0.27-0.26c-0.12-0.52,0.39-2.19-0.8-2.19c-1.82,0.22-1.78,7-11.07-11.61
		c-0.11-0.22,0.53-0.74,0.62-0.93c0.83,0.41,1.55,0.83,2.28,1.24c0.27,3.81,1.16,6.07,4.86,5.38c-0.72-2.28-2.69-4.24-2.17-7.04
		c0.92-0.71,1.64-2.12,2.79-2.59c1.86,1.97-0.52,2.9-0.72,4.45c1.11,1.41,1.11,3.4,2.17,5.79c1.24-1.24,2.59-1.76,2.48-3.31
		c-0.41-1.45-2.07-1.45-2.48-2.79c0.93-1.35,1.24-2.9,0.52-4.76c-0.84-0.78-3.61-4.04-5.08-4.04c-2.58,1.15-2.37,4.14-4.34,5.9
		c0.53-4.29,1-5.64,5.38-8.07c3.44,0.36,3.35,4.38,7.46,6.31c2.17,1.02,3.21,0.17,4.45-1.86c-1.32,0.19-3.53,0.47-4.45-0.31
		c5.48-1.03,9.31-5.17,14.18-7.76c-1.09-3.29,2.54-4.73,2.69-5.69c0.48-3.11,2.48-5.9,1.86-9.31c-2.68,1.19-5.64,0.17-8.17-1.33
		c8.5,0.34,10.54-2.12,13.38,0.67c0.55,0.54,2.92-1.49,3.47-1.93c0.16,0.16,3.88,2.23,4.15,2.39
		C296.12,18.72,298.38,20.25,299.92,18.92z M236.5,27.51c0.97,1.61,0.6,2.12,0.55,5.95c-0.15,10.87,2.35,16.06,2.35,16.61
		c0.83,2.59,0.93,5.48,1.45,8.28C235.05,48.82,235.15,38.58,236.5,27.51z M239.19,61.97c-0.31-0.83-0.52-1.45,0-2.28
		C239.5,60.52,239.6,61.14,239.19,61.97z M236.51,66.74c-0.6,0.01-1-0.28-1.46-0.73c-0.1-4.86-1.86-9.62-1.35-14.69
		C237.44,67.93,237.64,66.73,236.51,66.74z M239.6,39.97c-0.01-0.43,2.19,1.57,3.74,1.58c2.55,0.03-3.58-1.74-4.23-6.2
		c-0.44-1.32,3.97,4.57,9.09,3.95c-5.93-3.22-8.07-4.2-8.07-7.45c6.21,2.79,13.14,3.21,19.45,5.9c-1.6,2.42-3.12-1.42-6,0.1
		c-6.37,3.37-3.46,6.19-6.21,10.66c0.19,3.27,3.26,5.7,3.21,7.45c-2.12-0.71-3.67-1.45-6.31-4.55c0.53-0.43,1.1,0.01,1.51-0.08
		C248.11,50.81,239.69,47.65,239.6,39.97z M255.23,29.68c0.78,0,1.61,0.21,1.48,0.02c2.27,1.95,5.35,1.97,7.94,3.5
		c2.37,1.4,4.9-0.31,8.9-0.31c-1.45,1.97-3.52,1.62-5.17,1.86c-4.26,0.63-8.36,2.23-12.83,0.21c-3.29-1.49-6.83-2.48-10.04-4.04
		c-0.56,0.26-0.81,1.24-1.65,0.83c-4.33-3.15-4.05-2.07-2.38-8.8c8.44,6.46,15.64,9.68,15.49,9.1
		C256.75,30.78,254.94,31.04,255.23,29.68z M269.4,26.78c0.83,0.1,1.35-0.41,1.76,0.31C270.62,27.75,270.19,27.86,269.4,26.78z
		 M272.82,28.03c2.28-0.41,4.04-2.79,7.35-1.76C277.68,28.34,275.3,28.65,272.82,28.03z M252.63,59.37
		c-7.83-2.2-5.82-4.04-6.73-4.04c1.57-0.09,4.02,2.88,4.67,0.64C250.57,56.32,252.24,57.2,252.63,59.37z M243.98,61.58
		c1.6,4.41,0.91,8.42-1.17,7.11C242.81,57.45,242.41,57.27,243.98,61.58z M243.95,52.96c0.71,0.82,1.73,1.24,1.75,2.35
		C244.11,55.13,243.53,54.22,243.95,52.96z M246.12,68.79c0.94,0.94-0.11,1.89-0.84,1.06C244.87,69.37,245.31,68.66,246.12,68.79z
		 M252.54,47.69c0.52-1.55,1.03-3.21,3.1-4.14C255.95,46.24,253.78,46.65,252.54,47.69z M294.66,17.99
		c-0.21,0.21-0.41,0.41-0.62,0.62c-6.78-7.69-3.8-4.45-5.79-5.67c-0.34-0.21-0.62-0.55-0.72-1.16c0.83,0.31,1.55,0.62,1.86,1.55
		C292.54,14.12,292.65,15.44,294.66,17.99z M289.49,9.4c-0.33-0.18-5.71-3.03-7.14-3.73C286.89,6.53,287.54,6.88,289.49,9.4z
		 M279.24,6.09c-0.93,0.1-1.76,0.21-2.38-0.62C277.49,5.59,278.49,5.14,279.24,6.09z M276.85,5.47c-3.95,0-8.04-1.21-12.02-1.23
		C262.78,4.22,272.43,3.03,276.85,5.47z M273.34,7.54c-0.93,0-1.76,0-2.79,0C271.58,7.02,272.4,7.43,273.34,7.54z M261.47,5.23
		c4.39,1.2-0.83,2.01-1.48,2.31c6.31,2.1,11.17,0.42,17.8,3.41c4.34,1.96,8.81,3.57,12.49,6.84c0.11,0.11,0.36,0.19-0.28,0.25
		c-1.55,0.13-5.28-3.75-11.52-5.61c-5.07-1.51-6.87,0.23-11.77-1.38c-9.52-3.12-10.64-2.12-11.18-3.62
		C257.35,5.79,259.22,4.62,261.47,5.23z M245.09,15.3c2.17-2.07,4.55-4.14,7.35-5.48c33.18,6.15,23.27,4.44,23.59,6.32
		c0.23,0.3,0.72,0.29,0.97,0.61c1.39,1.57-5.57-0.73-6.46-0.82c-1.23,0.74,2.7,2.63-11.07-2.17c-8.06-2.81-9.96-2.22-9.83,1.03
		c6.29,0,1.06-0.66,10.59,1.75c12.15,3.07,12.07,4.05,11.94,4.05c-1.83,0.71-1.83,0.72-2.76,2.37c2.91,0.58,7.35,0.31,10.97-1.14
		c0,1.09-0.32,2.15-1.14,2.79c-7.52-2.29-10.03,4.9-24.21-2.59c-0.1-0.05-5.99-3.66-5.46-2.62c-1.38-1.74-2.73-1.89-3.68-2.2
		C245.55,16.71,244.98,16.29,245.09,15.3z M245.78,17.26c0.91,1.42,2.27,2.03,3.82,2.34c0.2,0.79,0.42,1.57,0.14,2.2
		c3.33,0.43,5.85,2.05,8.48,3.93c0.02,0.02,8.48,2.54,10.24,3.43c-4.16,1.56-8.07,0.51-11.8,0.51c-1.03-1.24-2.63-1.55-4.04-1.75
		c-4.55-0.63-7.35-3.73-10.45-6.21c1.52-4.87,1.76,2.45,15.62,5.17c0.02-0.05,0.43-1.03,0.39-1.03c-7.09-1.66-7.98-4.06-8.54-4.06
		C247.06,21.34,241.74,17.62,245.78,17.26z M221.08,39.72c-4.3-18.9,9.6-25.23,15-23.8c2.04,0.54,3.75,1.21,5.28-0.62
		c-3.75-3.26-3.58-2.07-10.35-2.07c0.23,1.61-0.8,2.07-2.38,2.28c0.56-1.14,1.41-1.66,2.38-2.28c4.17-2.64,8.07-0.41,12.42,0
		c-1.17,2.51-2.04,4.6-3.62,5.9c-4.8,3.92-6.8,9.19-7.14,15.31c-0.47,8.49-1.45,17.05,0.52,25.45c0.44,1.86,0.41,3.83-0.52,5.69
		c-0.11-0.11,0.2,0.61-1.24-4.04c-0.44,0.87-0.08,2.13-0.57,3.1c-1.66,3.3-1.14-6.05-1.81-9.21c-0.14-0.65-1.37-11.92-1.81-9.61
		c-1.12,5.82,1.27,19.98,0.18,18.83C224.68,61.8,225.97,61.19,221.08,39.72z M308.62,213.45c-5.49,13.15-2.11,25-5.9,38.18
		c-1.66,5.79-1.76,12-4.86,17.49c-0.42,0.3-0.45,1.48-0.52,2.07c-3.41,3.41-7.35,3.74-11.38,3.62c-0.1,0-27.19-1.36-40.98-3.1
		c-10.64-1.35-16.52-8.12-16.43-8.97c0.13-1.27,0.3-2.63,0.39-4.17c3.73-2.17,4.72-6.28,6.42-10.04c3.6-8.01,3.54-6.32,4.11-15.73
		c1.33-22.15-1.71-26.49-1.29-27.39c0.21-0.47-0.02-0.47,10.43-1.17c13.99-0.94,11.22-3.15,15.94-3.21
		c10.23-0.12,28.84-7.2,49.77-8.48c0.4,0.7,0.57,1.36,0.62,1.98C315.09,196.59,309.42,211.54,308.62,213.45z M313.78,190.26
		c-7.39,1.23-3.02-1.59-34.51,5.24c-6.84,1.48-13.68,2.85-20.64,2.85c-2.93,2.93-0.7,1.98-8.75,2.57
		c-3.45,0.25-8.27,0.69-12.35,0.53c-6.93-33.79-10.71-36.7-9.36-35.85c4.45,2.79,8.44,2.51,13.5,1.81c7.35-1.01,14.6-2.37,20.8-6.93
		c2.38-1.75,5.13-2.96,7.55-4.66c0.92-0.64,1.66-0.21,2.28-0.21c9.42-7.46,5.82-19.1,7.55-21.42
		c-4.27-16.36-21.69-26.46-34.97-36.42c1.14-0.71,3.2-4.36,3.9-3.66c4.74,4.01,9.88,7.72,14.31,11.94c1.16,5.32,3.7,7.81,9,6.62
		c4.24-0.95,5.17-3.21,3.83-8.9c-2.55-4.55-6.31-1.21-6.31-4.66c0-0.57,0.05-1.46-0.72-1.66c-1.04,0.32-0.21,1.61-1.14,2.07
		c-4.14-0.93-4.55-1.35-5.07-5.69c0.82-1.32,3-2.34,1.72-4.84c-0.39-0.76-1.52,2.52-3.22,2.96c-0.98,0.49-20.79-5.37-44.24,2.3
		c-13.1,4.29-14.71-1.06-16.14,1.55c6.98,5.58,22.86-2.24,28.61-1.37c4.46,0.68,9.97,5,15.27,6.55c1.19,0.35,11.71,9.28,14.69,11.28
		c6.2,4.16,10.32,10.18,14.8,15.83c2.68,3.38,2.28,15.41,0,19.97c-4.9,8.4-12.4,7.14-14.07,9.42c-2.9,3.93-12.12,5.5-17.49,6.31
		c-20.43,3.09-17.45-5.62-26.7-32.08c-3.81-10.9-9.87-7.51-20.18-23.59c-13.5-21.07-8.68-19.86-12.11-23.28
		c-2.9-2.9-3.47-6.42-3.12-10.35c0.74-8.18,6.95-5.17,12.83-7.24c8.03-2.83,24.24-2.06,30.32-0.72
		c31.53,6.94,30.66,11.09,52.97,18.52c3.25,1.3,10.47,9.19,17.69,13.24c0.6,1.8,0.64,6.05-1.23,6.05c-0.44,0-0.84-0.06-1.16,0.26
		c-4.79,7.18-3.02,9.54-6.37,11.25c-0.34,0.17-0.76,1.57,3.99-11.97c-0.37-0.13-0.6-0.3-0.83-0.41c-3.8,3.92-4.09,11.69-5.97,11.8
		c-1.55,0.09-3.05,1.25-5.2,1.03c1.35-5.28,6-8.48,7.45-13.45c-0.34,0-0.62-0.03-0.82-0.04c-1.08-0.06-7.82,10.41-8.39,11.32
		c-1.55,0.52-3.31-0.31-4.97,1.03c7.3,1.62,6.64,8.22,32.8,20.59c1.86,2.38,1.86,6,5.38,6.93c-0.87,2.27,1.69,5.31,1.14,7.86
		c-8.94,4.01-4.87,13.07-1.03,16.45c-1.24,1.91-3.08,2.92-3.37,2.92c-1.62,0.69-8.72,2.14-12.76,2.14c-3.19,0-6.16,1.85-9.41,1.13
		c-0.56-0.12-1.03-0.38,2,0.97c2.93,1.31,0.7-0.37,9.65,0.61c16.7,1.83,16.28-7.26,18.45-7.03c0.84,0.09-0.24,2.93,1.25,7.32
		C316.71,180.32,315.13,185.19,313.78,190.26z M259.78,93.63c2.02,2.85,2.22,6.89,6,7.86c-0.39,1.06-0.85,1.75-1.97,1.86
		C251.2,92.14,248.7,93.11,259.78,93.63z M266.3,104.91c2.83-3.27,9.44-2.33,7.97,3.93c-1.62,1.82-5.42,2.46-5.53,2.36
		C265.38,109.96,266.61,107.17,266.3,104.91z M239.91,95.8c-1.57-0.64-3.52-1.29-3.52-2.28c3.93,0,3.93,0,4.35,0.72
		C240.84,94.77,240.64,95.18,239.91,95.8z M313.48,164.2c-1.83-0.54-6.98-8.28,1.14-8.28c0.52,0.93,1.03,1.86,1.55,2.79
		c-0.44,3.11-6.5,8.71,1.66,3.1C317.14,164.59,313.98,165.92,313.48,164.2z M312.14,149.82c1.35,0.93,2.9,1.55,3.73,3.52
		C313.59,153.13,312.24,152.09,312.14,149.82z M316.9,166.6c6.6-3.84,7.26-12.6-3.01-18.04c-0.31-2.17-0.33-4.23-1.45-6.1
		c-1.16-1.95-0.1-4.24-0.52-6.52c1.47-0.37,3.01-1.53,3.01-3.2c-0.52-2.28-3.52-3-3.73-6.1c3,1.97,6.09,3.33,8.17,5.59
		c8.81,9.55,13.57,26.28,4.76,35.7c-1.16,1.24-4.15,3.64-5.69,6.21C318.71,170.23,316.24,166.93,316.9,166.6z"/> <path d="M261.23,63.93l0.1-0.1C261.27,63.86,261.18,63.88,261.23,63.93z"/> <path d="M548.36,17.48c2.07-0.83,4.14-1.97,7.24-1.55c-6.83,4.97-9.62,11.18-8.17,19.14c0.31-7.45,2.59-13.97,9.42-18.83
		c1.11-0.4,3.07,0.83,4.51-0.58c-2.48-3.44-6.08-2.21-9.58-2.21c-0.63,1.37-2.24,1.93-3.32,3.1
		C547.84,17.25,548.08,16.93,548.36,17.48z"/> <path d="M657.83,387.4c-1.34-2.8-2.28-5.69-3.1-8.8c2.38-6.31-0.52-11.69-7.55-13.87c-1.35-0.31-1.76,1.24-3.41,0.93
		c2.19-7.26-1.75-19.24-6.52-24.83c-6.2,9.29,4.15,14.38,5.17,21.21c-4.55-3.73-9.52-14.8-8.69-19.45
		c6.73-5.79,7.76-9.21,4.66-16.04c0.72-1.14,2.07-1.35,3.41-1.97c3.31,0.93,6.73,1.97,9.93-0.52c2.85,0.79,4.45-0.5,5.28-3.31
		c-1.64-0.82-0.51-2.28-0.72-3.41c-0.31-1.66,0.41-3.44-0.52-5.17c-3.41,3.1-4.35,7.14-5.48,10.76c-1.76,0.52-3.1,0.72-4.45,0.21
		c-0.61-0.61,0.41-1.96-1.24-2.28c-3,0.72-6,2.07-8.8,3.73c-1.65,0-5.54-2.22-4.83,0.03c0.89,2.83,5.25,1.42,5.25,7.11
		c-1.24-1.76-2.92-1.94-4.04-3c-2.59-2.47-4.77-1.88-6.42,1.35c-1.03-0.52-1.97-0.31-2.9,0.31c-5.73,3.37-5.36,3.41-5.42,3.03
		c-0.92-3.72,2.5-7.05,1.83-10.08c-0.27-1.81,10.72-2.86,19.01-8.89c1.14-0.83,2.48-1.24,3.93-1.35c6.35,3.71,1.47,4.4,3.21,6.93
		c1.79-0.6,2.17-1.86,2.17-3.73c-1.76-2.59-2.17-6-4.76-8.17c-1.35,0.72-0.62,1.86-1.03,2.79c-2.09,0.09-4.01,1.12-6.53,2.34
		c-1.02,0.49,1.14-2.51,0.52-6.66c-1.94-12.98,8.37-19.5-5.68-54.34c-2.28-5.65-4.6-3.99-3.93-7.66c1.05-4.2,0.23-10.1,1.86-19.25
		c1.49-8.36,6.71-23.16,7.76-24.21c1.19,2.85,7.13,21.79,7.45,30.32c0.28,7.35,1.68,14.69,2.17,22.04
		c0.54,8.07,1.6,15.92,4.97,23.39c1.62,3.6-1.22,10.11,6.93,21.94c6.11,8.87,3.16,17.36,2.38,16.97c-0.41-1.66,0.62-3.52-0.62-5.28
		c-2.69,5.4-0.3,3.72-2.07,10.24c2.24,0,2.14-3.62,4.55-3.31c1.62-8.62,2.48-11.41,0.52-14.9c-2.46-4.36-4.49-9.07-7.55-13.14
		c-1.47-1.95-1.65-4.35-1.45-6.73c0.41-4.96-1.77-6.74-2.38-9.73c-2.82-13.76-5.43-41.83-5.48-43.15
		c-0.29-6.93-2.96-13.34-4.14-20.07c-0.76-4.34-2.28-8.48-4.97-12.31c2.81-19.7,2.04-10.38,1.14-22.14
		c8.9-3.1,15.09-14.48,13.14-23.18c-0.8-3.57,1.12-11.91-9.31-21.32c-9.82-8.86-21.07-15.28-23.28-17.49
		c-11.31-11.31-13.72-10.51-15.94-14.69c0.31-5.69,0.93-11.59,1.97-17.49c7.99-0.8,4.84,2.36,14.38,0.31
		c5.07-1.09,5.78-4.08,4.35-9.11c1.45-1.45,2.28-3.31,0.62-5.17c0.31-1.24,1.55-1.55,1.66-1.97c0.31-2.28-0.72-3.73-0.31-5.59
		c1.86-1.45,4.97-2.38,4.14-6.31c-1.97-2.79-3.73-6.11-4.24-9.83c0.52-0.93,1.76-0.72,2.07-1.86c-0.52-0.21-1.14-0.41-1.66-0.72
		c1.06-2.13,4.51-4.23,2.28-11.8c-4-13.53-6.56-20.9-16.35-23.59c-0.11-0.03-25.44-11.2-37.46-1.55c-2.81,2.26-6.1,3.93-8.59,6.73
		c-3.31-0.83-6.62-1.29-9.93-1.66c-4.24-0.47-7.45,1.14-9.42,4.86c-5.34,10.09-9.05,11.76-7.86,19.66c1.4,9.28,3.14,9.06,4.04,18.11
		c1.23,12.4,6.63,20.3,2.17,34.04c-0.61,1.87-1.24,3.93-0.93,6.42c2.48-1.76,1.76-4.76,3.62-6.93c-0.21,5.07-0.83,9.62-2.17,14.18
		c8.42-9.39,9.08-26,7.35-38.49c-0.58,4.36-0.47,22.77-3.52,29.49c2.48-15.31,2.59-30.42-0.83-45.94c-1.03,1.86,0.41,3.1-0.1,4.55
		c0.52,0.1-0.52,0.62-0.31,0.1c-2.14-1.07,1.03,0.63,1.03,19.35c-1.03-5.59-3.88-10.76-3.83-16.76c0.05-5.58-8.34-18.4-0.72-30.84
		c2.37-3.86,2.27-1.7,4.71-3.87c0.09-0.09,0.37-0.31,0.47-0.37c-0.91-0.91-1.82-1.07,2.8-4.66c4.24-1.35,7.97-0.31,11.9,0.62
		c-0.38,1.14-0.5,2.1-1.56,2.35c-0.07,1.58-0.89,2.75-2.15,3.75c-8.02,6.32-6.74,17.18-7.24,21.63
		c-1.53,13.41,2.52,17.55,0.93,30.53c-1,8.12,0.06,15.16-3.31,30.42c-1.68,7.61-3.14,1.8-12.52,19.87
		c-5.96,11.48-2.69,24.83-2.69,26.9c1.76-3.52,0.76-3.17,2.17-20.07c0.24-2.9,1.49-3.3,3.41-7.35c5.74-12.08,15.36-17.1,23.39-22.45
		c26,22.35,17.51,11.93,30.94,29.49c2.06,2.7,1.46,10.57,1.24,13.76c-0.97,14.12-15.96,12.96-17.07,16.04
		c0,1.45,0.93,1.76,2.07,1.45c9.98-2.69,9.71-5.28,11.59-4.24c5.07-3.83,6.12-9.21,6.93-15.11c1.84-13.27-10.91-26.51-21.42-32.91
		c-4.56-2.78-8.38-6.42-12.83-9.52c1.14-1.66,2.07-3,3.1-4.35c18.9,15.75,48.46,47.42,64.05,42.11c6.21-2.12-0.64-6.38-6-12.31
		c1.35,0,1.97,0.92,2.69,1.45c6.69,4.9,19.76,11.63,19.76,31.04c0,9.48-5.47,13.37-13.35,19.56c-0.1,4.97,1.24,9.73,0.1,14.28
		c-0.83,0.93-1.76,0.82-2.59,0.83c-21.96,0.1-28.59,6.19-56.39,8.07c-0.52-5.28,0.62-10.35,0.52-15.42
		c-0.02-0.93-0.77-27.03,0.1-30.73c3.52-3.62,7.45-12.52,7.24-17.38c-2.17,6.42-4.45,12-8.69,16.66c-0.83-1.55,0.41-2.9-0.1-4.24
		c-4.68-2.6,1.05,24.13-2.17,52.67c-0.51,4.52,0.79,2.79-0.83,10.86c-0.62,0.62-1.03,0.21-1.55,0.31c-0.72,1.66,0.62,2.59,1.45,3.93
		c-2.77,3.53,2.49,2.44,6.42,19.66c1.44,6.31,4.11,12.32,5.38,18.52c1.07,5.24,6.12,22.87,9.93,29.28
		c4.86,8.16,0.77,8.05,10.55,24.11c8.4,13.8,8.95,14.51,10.45,15.83c1.35,1.03,1.45,2.69,2.17,4.04c-0.31,1.45-1.66,2.17-2.48,3.41
		c-0.21,3.73,0.1,7.66-1.24,11.38c-0.41-4.24,0.1-8.38,0.21-12.62c-1.72,1.35-1.35,0.56-3,13.24c-2.28,1.35-4.55,2.69-7.24,3.41
		c-0.52-1.45,0.61-1.77,1.14-2.28c5.12-4.9,1.76-6.7,5.9-14.28c-5.09,0.64-2.59,10.75-8.07,13.56c-1.03,0.53-1.76,1.45-2.17,1.76
		c-1.86,1.03-3.41-0.83-5.17,0.72c2.48,2.59,6.42,0.72,8.69,3.83c1.27,39.43,4.37,48.6,1.14,62.19c-1.33,5.59-4.35,10.86-4.04,16.87
		c-2.37,5.08-10.03,42.15-10.45,52.05c-1.44,33.72-3.05,24.89,0.21,57.43c-2.17,2.28-4.95,3.85-7.14,6
		c-4.46,4.38-3.73,7.01-3.73,11.49c-2.59,0.1-4.97-0.1-7.35-0.52c-1.45-1.35-1.86-3-1.24-4.66c1.13-1.36,0.48-4.78,0.24-5.03
		c3.06-5.76,2.81-10.15-6.86-40.71c-3.2-10.1-3.7-22.13-4.45-36.42c-0.94-17.83,14.02-38.23,3.52-62.5
		c-3.36-7.77-13.34-40.17-15.31-53.5c8.17-5.69,20.59-10.86,40.87-13.66c1.14,2.79,2.48,5.59,6.31,6.11
		c1.45-0.21,2.69-1.66,4.35-1.55c3-6.11,0.09-12.61-4.04-16.14c-2.28-1.96-4.02-4.36-6-6.52c-2.88-3.13-1.32-8.66-0.72-12.62
		c-1.66-3.2-5-10.09-11.9-17.38c-5.11-5.4-4.55-7.09-13.66-22.14c-7.73-12.77-12.54-27.4-16.87-41.6
		c-2.34-7.68,1.48-18.85-8.59-52.67c-3.95-13.28-0.35-17.35-3.21-21.73c-0.31,0.41-0.83,0.72-0.83,0.93
		c0.27,35.53,6.24,17.66,8.9,65.5c0.64,11.57,3.15,8.62,5.48,18.83c1.04,4.55,2.07,9.11,3.73,13.56c-1.86,2.07-2.4,5.03-5.38,6.31
		c-1.25,0.53-0.52,1.25-9.31,13.24c-5.25,7.16-8.47,15.11-9.33,23.91c-2.78,28.27,4.46,39.02,14.18,49.05
		c7.92,8.17,0.74,11.46,14.07,49.05c4.41,12.43,7.76,17.46,7.86,25.45c0.08,5.94,3.92,2.81-2.79,25.56c-1.13,3.83-1.55,8.07-2.59,12
		c-1.45,5.48-1.66,10.97-1.24,16.56c0.52,6.93,0.46,13.98,1.24,20.9c0.39,3.42,1.96,6.62,2.9,10.04
		c11.53,42.08,7.97,27.46,9.61,42.11c-2.15-1.8-2.82-9.24-6.72,5.9c-0.91,3.52-2.51,6.71-4.55,9.83c-1.89,2.88-1.24,6.93-4.45,9.42
		c0.72,1.35,0.93,2.79,0.41,4.35c9.48,8.62,4.7,2.26,14.28,6.83c7.67,3.66,6.74,0.45,7.76,2.48c1.45,5.38,5.78,8.4,9.52,11.9
		c2.78,2.6,6.41,4.29,10.55,4.35c5.96,0.07,8.9,2.91,19.56-0.41c6.94-2.16,12.59-2.74,18-6.93c1.45-1.45,0.83-3.52,1.86-5.48
		c6.11-0.72,11.9-2.59,15.52-8.8c-1.66-2.59,0.72-5.59-0.72-8.69c-2.07,1.35-1.65,3.84-3.31,5.28c-1.44,1.25-3.1,2.59-3.31,5.28
		c1.97-0.83,2.59-2.48,3.83-3.31c1.03,0.62,1.14,1.45,0.31,2.17c-3.62,2.69-7.24,5.59-12.21,5.48c-2.94-3.83,3.61-2.53-1.97-5.59
		c-7.63-4.18-14.44-9.7-21.94-13.97c-0.93-0.53-1.64-1.15-2.28-2.07c-5.43-7.84-8.91-8.23-8.17-11.18
		c-5.17-1.55-6.42-1.86-6.83-10.76c-2.9-1.03-3.43-3.52-3.1-6.42c0.49-4.35-0.85-8.69-0.72-13.04c0.27-9.73,0.89-19.45,1.35-29.08
		c1.01-21.25-1.31-9.83,1.86-26.28c8.26-42.86,8.08-39.74,8.06-39.47c0.01-0.06,0.03-0.28,0.12-0.89c0.21-1.55,1.76-1.45,2.28-3.21
		c-1-17.04,5.4-10.37,2.17-41.6c-0.9-8.74,0.24,4.19-1.66-33.63c2.48-2.07,5.69-2.79,9-3.73c0.52-2.07,1.03-4.14,1.55-6.42
		c2.17-0.41,3.93-2.07,6.52-1.35c4.75,7.61,4.04,3.3,4.44,6.63c-0.02,0-0.05-0.01-0.07-0.02c0.14,0.14,0.1,0.12,0.09,0.04
		c1.2,0.31,2.42,0.61,3.82,1.01c-2.53,6.68,5.83,18.94,10.04,24.73c-4.76,4.14-4.67,7.98,0,12.31c2.58,2.39,5.59,3.62,9.31,3.21
		c37.12,76.31,66.51,143.33,69.22,144.35C725.89,527.45,723.97,525.78,657.83,387.4z M638.19,346.42c1.1,2.68,2.19,5.45,2.28,8.38
		C638.29,351.07,637.98,349.63,638.19,346.42z M654.23,318.89c-0.1,1.24,1.24,2.69-0.72,4.45
		C652.98,321.38,653.09,320.03,654.23,318.89z M609.32,109.67c-1.14-0.41-1.66-0.62-1.76-1.55
		C608.37,108.46,608.84,108.8,609.32,109.67z M606.23,107.12c0.51,0.78,0.72,0.96-0.86-0.08c-1.28-0.84-1.87-1.6-2.27-2.45
		C604.63,105.16,605.48,105.96,606.23,107.12z M614.18,18.4c-1.53-0.09-1.75-0.77-1.48-1.95C613.68,16.67,614.18,17.19,614.18,18.4z
		 M610.49,14.08c1.3,0.13,2.07,0.81,2.13,2.2c0-0.1-0.53-0.14-1.35-0.82c-1.07-0.88-0.71-1.42-1.06-1.43
		c-1-0.02-1.66-0.63-2.25-1.53c-0.94,0.09-1.35-0.62-2.17-1.35c1.12,0,2.07,0.22,2.17,1.35c0.07,0,0.47,0.05,0.62,0.08
		C610.54,12.95,610.02,14.08,610.49,14.08z M609.52,9.4c-2.17-1.14-4.35-2.28-6.52-3.31C605.59,6.3,608.08,6.81,609.52,9.4z
		 M598.87,5.67c-4.66-0.31-9.31-1.03-13.97-1.35C590.48,3.8,591.55,3.85,598.87,5.67z M591.11,7.43c0-0.3-0.77-0.21,2.07-0.21
		C593.18,7.5,593.49,7.43,591.11,7.43z M576.85,26.16c3.31,0.52-8.96-3.36-13.06-8.28c0.62-0.72,1.14-0.72,1.76-0.31
		c-0.21-0.74-0.94-1.26-0.83-2.28c2.17-2.07,4.55-4.04,7.35-5.48c17.55,2.7,15.3,2.95,21,3.53c1.54,0.16,2.62,0.74,2.59,2.28
		c-0.02,0.68,1.13,0.51,1.32,1.21c0.4,1.2-5.04-0.8-6.69-1.12c-1.36,0.68,4.03,3.11-11.07-2.07c-4.71-1.62-9.93-3.16-9.93,0.62
		c0.85,0.21,10.34,0.92,22.45,6.11c-7.28,3.12,2.05,3.74,8.38,1.45c0,1.09,0.09,1.88-0.83,2.59c-7.96-1.59-11.65,4.12-21.63-1.14
		c-0.11-0.06-9.01-4.78-9.73-4.86c1.13,0.68,1.53,2.79,3,3.31c4.44,1.57,8.08,4.87,13.04,5.59c13.18,1.92-10.15,5.99-21.94-5.79
		C562.61,16.3,565.29,24.33,576.85,26.16z M599.38,26.16c-1.76,2.17-3.93,2.69-6.62,1.55C595.14,27.92,596.69,25.02,599.38,26.16z
		 M591.11,27.09c-0.41,0.62-0.83,0.83-1.66,0C590.17,26.58,590.69,26.47,591.11,27.09z M561.68,23.32
		c0.32-0.64,6.98,6.62,18.97,10.19c-1.77-1.65-2.21-0.76-4.55-3.1c8.76,1.13,6.12,3.21,10.3,3.16c2.31-0.03,4.42-0.77,6.99-0.47
		c-2.54,2.3-5.92,1.04-9.62,2.48c-5.56,2.17-17.75-4.63-18.16-4.22c-0.47,0.33-0.43,1.09-1.51,0.7c-1.14-0.83-2.79-1.66-3.93-3.31
		C560.77,27.01,560.48,25.07,561.68,23.32z M559.43,35.37c2.59,1.86,4.97,4.14,9.31,4.24c-3.65-2.43-7.84-3.25-9.2-7.97
		c6.67,2.77,13.55,3.43,19.83,5.95c0.33,0.13-0.87,1.51-2.34,0.47c-2.92-1.84-7.86,1.37-8.38,6c-0.19,1.66-0.62,3.21-1.55,4.34
		c0.44,4.22,7.51,11,0.52,6.16c-4.52-3.13-2.35-2.92-1.75-3.6c0.78-0.88-6.06-3.76-6.53-11.14c2.38,1.35,2.38,1.35,4.45,1.55
		C559.48,38.78,559.43,36.81,559.43,35.37z M563.27,52.65c2.62,1.33,1.32,2.59,5.99,3.97c2.7,0.8,3.45,2.71,3.1,2.63
		c-2.63-0.59-4.67-1.36-6.2-3.08c-0.21-0.21,0-0.72,0-0.93C564.44,55.24,563.39,54.94,563.27,52.65z M557.37,27.61
		c-1.77,14.16,1.72,18.71,3.21,30.11C555.82,50.79,553.96,33.82,557.37,27.61z M560.17,71.69c0-1.55-0.04-1.35,0.1-1.35
		C560.27,71.89,560.31,71.69,560.17,71.69z M558.72,60.21c-0.29-0.61-0.43-1.13,0-1.66C558.93,59.2,559.08,59.64,558.72,60.21z
		 M552.82,102.01c2.79-6.73,5.38-13.04,5.17-20.07c0,0.1-2.83,11.05-5.48,16.04c4.17-32.12,2.66-26.43,0.72-47.39
		c1.97,8.08,3.87,14.8,5.07,21.83c3.76,22.02-1.91,18.06,3.93,24.94C559.55,99.53,556.65,101.18,552.82,102.01z M562.13,58.65
		c1.66,1.03,1.45,2.17,1.86,3.21c0.44,1.1,1.23,2.29,0.41,3.31c-1,1.08,0.02,1.76,0.28,2.61c0.03,0.1-0.81,1.32-2.04,1.32
		C562.65,64.72,563.07,61.92,562.13,58.65z M564.39,93.11c-0.8,1.2-0.43-12.59-1.22-16.97c-0.52-2.9,0-5.48,2.59-7.55
		C568.33,74.63,567.31,89.73,564.39,93.11z M630.84,132.22c0.41,0.41,1.13,0.83,0.41,1.55c-1.62,0.2-2.16-1.85-3.73-2.05
		c-0.19,0-0.13-0.4,0.21,1.93c0,2.53-20.12-7.1-41.29-27.2c-12.37-11.75-17.73-14.29-18.21-15.73c0.62-3,1.35-6.11,2.07-9.42
		c1.55-1.35,2.79-3.1,2.9-5.69c3.33,3.33,4.91,6.44,3.31,12.31c6.21-9.31-5.53-12.92-6.62-20.28c1.62-1.62,3.83-1.64,3.83-4.55
		c-2.12,0.62-3.72,0.04-5.59-1.24c-1.89,1.51-0.71,2.41-3-3.93c0.32,0,3.56,2.72,7.14,3.1c1.3,0.14,1.83,1.07,1.58,2.06
		c0,0.06-0.01,0.1-0.01,0.1c1.35,0.1,1.24,1.97,2.59,2.17c4.32-0.83,4.35-0.82,4.24-3.62c-1.04-0.23-1.49,1.54-2.69,1.24
		c-3.31-2.45-10.25-14.41-8.15-13.58c0.75,0.3,1.5,0.57,2.26,0.85c0.1,1.45,0,2.9,0.93,4.14s1.86,2.59,3.83,1.45
		c0-1.92-3.28-4.19-1.86-7.45c0.62-0.62,1.35-1.45,2.07-2.28c3.11,2.07-0.04,2.28-0.21,4.55c1.14,1.45,0.62,3.73,2.17,5.59
		c0.87-0.98,2.38-1.68,2.38-2.59c-0.41-2.07-2.07-1.97-2.59-3.1c2.28-4.66-0.1-6.52-4.66-9.11c-2.24,0.96-2.61,4.09-4.25,6
		c0.17-6.89,6.31-10.75,8.69-5.59c1.28,2.39,4.68,5.37,7.19,3.56c0.58-0.42,1.2-1.05,1.91-1.9c-1.97,0.41-3.62,0.83-5.9-0.41
		c1.81,0,3.68,0.05,5.06-0.91c7.22-5.03,7.54-4.52,9.83-6.64c-0.27-4,2.41-4.26,2.59-4.97c0.62-3.21,2.59-6.21,2.17-9.73
		c-2.9,0.93-5.48,0.1-7.86-1.45c4.31,1.95,8.99-2.91,13.04,0.83c1.24-0.62,2.46-1.19,3-2.28c-1.14,0.3-1.75-0.74-2.59-1.24
		c-15.62-9.28-15.33-3.4-17.57-4.8c-1.39-0.86-13.84-3.3-14.3-4.61c2.64-1.96,4.73-3.44,7.66-1.45c-1.48,2.22-10.19,0.95,7.74,3.25
		c5.28,0.68,8.93,2.12,18.66,7.63c0.21,0.21,0.41,0.62,0.41,1.24c0.04,0,0.07,0.01,0.11,0.02c1.87,0.29,4.38,2.61,4.67,2.32
		c0.79-1.59,2.17-0.92,3.56-0.9c1.34,0.02,1.44-0.69,1.66-0.58c4.47,1.95,2.95,7.27,6.35,17.25c0.21,0.41,0,1.03,0,0.62
		c-0.62,2.28-2.48,2.17-3.1,3.41c-1.76,6.31,2.07,11.28,4.35,16.45c-1.08,0.69-1.66,1.09-2.11,1.26c-1.53,0.59-2.32-2.2-5.13,0.91
		c0.62,1.35,1.86,0,2.69,1.24c-1.35,1.55,0.52,3,0.72,4.45c-2.37,3.19-5.75,0.52-8.48,1.66c1.97,1.55,1.97,1.55,6.1,1.76
		c3.55,3.55-0.72,2.41-0.72,5.59c1.14,1.97,1.66,4.24-0.83,6.42c-2.49,0.21-5.05,1.45-7.55,0.62c-3.78-1.25-9.23-0.76-12.22-1.76
		c0,1.55,1.86,1.24,1.86,2.69c-2.38,8.35-3.42,14.06-0.52,23.49C602.5,109.65,605.27,106.65,630.84,132.22z M570.62,73.66
		c0.7,1.91,0.72,2,0.31,4.14c-0.71-0.91-0.72-1.44-0.62-2.17C570.31,75.01,569.9,74.28,570.62,73.66z M572.17,48.1
		c0.48-2.28,2.53-5.98,3.62-3.52C575.03,46.1,573.62,47.07,572.17,48.1z M626.41,247.63c0.18-0.04,0.19-0.14,0.14,0.21
		c-0.48,7.21,13.71,28.02,7.6,48.5c-1.01,3.39-1.55,6.83-0.41,10.24c0.51,1.55-0.64,4.66,0.31,7.76c-0.11,0.08-3.3,1.94-5.59,2.38
		c-0.43-6.45,0.37-8.9-1.24-13.97c-2.68-8.42-5.19-26.26-5.31-31.45c-0.18-7.6,3.31-21.74,3.45-22.67
		C625.44,248.05,625.9,247.82,626.41,247.63z M574.56,216.76c0.09-0.67,0.52-3.46,0.52-3.93c1.01,0.24,1.76,1.01,2.63,1.14
		c2.8,0-2.06-1.37-2.43-4.24c0.27-2.26,0.27-6.31,1.03-8.59c20.63,0,21.97-5.22,58.88-9.11c-0.36,4.01-2.51,9.88-7.24,22.45
		c-4.1,10.9-2.6,25.85-3.92,30.63c-2.09,7.55-2.46,15.58-5.9,22.76c-0.82,1.72-0.41,2.77-1.16,3.52
		c-4.44,4.44-10.04,3.17-24.09,2.59C584.37,251.3,582.13,226.44,574.56,216.76z M607.78,305.96c1.76-1.66,4.24-1.86,5.38-3.93
		c-2.48,0.21-4.04,2.17-6.52,2.17c-7.71-8.81-4.9-12.48-11.59-24.73c-3.09-5.67-1.82-1.44,13.54-1.86c7.99-0.22,8.39-4.8,10.24-3.62
		c-0.6,9.58,8.71,35.73,7.55,44.39c-2.69,1.35-5.38,1.86-7.97,3.41C614.16,316.69,611.71,310.97,607.78,305.96z M599.28,334.93
		c0,3.78-0.23,4.97-3.93,5.69c-1.31-0.71-2.42-1.62-2.76-3.31c-0.12-0.37,2.19,0.57,4.73-1.97c-0.77-1.43-2.08-1.57-3.83-2.07
		C595.97,332.66,597.73,333.28,599.28,334.93z M553.03,252.15c6.13,11.24,0.32-0.27,10.13,18.72c0.35,0-6.65,0.52-14.79-7.85
		C548.37,257.59,550.66,256.65,553.03,252.15z M547.23,343.42c-3.81-3.81-7.64-7.09-11.69-14.07c-6.69-11.52-9.44-41.96,3.85-57.54
		c2.29-2.68,3.93-6,5.9-8.9c4.81,7.15,11.56,10.56,20.06,11.07c5.69,10.32,6.54,13.12,8.58,15.01c4.34,4.04,7.4,8.96,11.07,13.45
		c1.29,1.57,2.17,3.25,2.17,5.28c-4.96,13.36,4.43,15.47,8.07,21.83c-2.9,0.21-4.14,2.48-6,4.35
		C542.62,341.67,547.97,353.42,547.23,343.42z M593.8,544.38c-0.83,2.2,0.51,3.28,1.79,5.04c1.07,1.47,1.07,0.44-5.62,3.33
		c-1.87,0.81-4.45,0.93-4.35,3.73c0.67,0.94,1.55,1.1,2.28,0.72c3.75-1.93,7.88-1.19,11.69-2.59c1.14-0.42,1.56-0.06,1.66,0.72
		c-3.52,1.76-8.17,1.35-10.86,5.17c2.88,1.92,8.03-1.44,14.18-2.28c0.31,0.52,1.35,0.63,0.93,1.66c-3.73,1.03-7.86,0.72-10.55,4.66
		c0.16,0.07,0.32,0.13,0.48,0.19c5.69,2.22,12.33-2.83,13.39-1.43c2.13,2.81,1.76,3.21,2.4,3.85c0.22,0.22,1.14-0.44,1.32,1.01
		c-4.14,2.28-4.14,2.28-5.07,4.14c2.84,1.83,7.01-2.52,7.35-2.69c1.76,0.41,2.38,1.97,4.14,1.97c-1.94-3.11-4.29-3.45,15.42,7.86
		c0,1.33,0.5,3.88-0.21,6.21c-9.73,2.32-2.7,1.03-11.9,6.73c4.82,1.11,7.42-3.62,12.21-3.62c-2.12,2.58-4.96,3.79-8.07,4.66
		c-11.66,3.25-24.03,6.6-34.25,0c-5.48-3.54-9.86-8-12-14.18c-1.65-4.76-6.99-1.03-11.28-2.59c-2.8-1.02-5.37-2.55-8.28-3.21
		c-0.61-0.14-1.25-0.44-1.75-0.98c-1.95-2.14,1.07-1.94,2.47-9.99c0.6-3.42,5.78-8.35,6.93-18.73c0-0.21,0.31-0.31,0.41-0.52
		c1.18,1.77,1.36,1.9,0.52,3.62c-1.96,3.99-0.66,6.78,1.76,9.94c3.31-0.1,6.73,0.52,9.93,0c4.99-3.94-0.74-6.92,5.38-12.11
		c1.34-1.14,2.79-2.17,4.24-3.41c1.08,1.38,1.02,6.51,1.71,5.83C592.78,546.25,591.48,544.68,593.8,544.38z M632.5,334.41
		c-1.03,1.24-2.59,0.62-3.52,1.45c-2.62-0.99-1.98-3.74-3.1-5.61c0.11-0.02,3.74-0.59,4.76-0.7
		C631.51,331.01,633.21,332.49,632.5,334.41z M641.81,374.15c-0.83-2.28-0.62-3.73,1.66-4.35
		C642.53,370.94,642.43,372.49,641.81,374.15z M648.95,368.46c-0.93,0.41-1.76,1.03-2.69,0.1
		C647.09,367.11,647.09,367.11,648.95,368.46z M646.57,371.46c1.03-0.21,1.24,1.45,2.38,0.93c0.72-0.1,0-1.76,1.35-1.24
		c0.43,3.24,0.15,3.69-2.07,6.42C645.52,375.35,643.11,371.95,646.57,371.46z M650.09,378.39c0.62-1.35,1.66-2.07,2.9-3.21
		C652.98,376.58,651.39,380.23,650.09,378.39z"/> <path d="M604.01,425.54C604,425.57,604.01,425.56,604.01,425.54L604.01,425.54z"/> <path d="M625.56,564.96c3.62,0.52,5.28-1.55,7.14-3.93c4.47,1.49,4.65,2.84,17.8,8.28c-0.61-5.09-12.06-6.31-18-11.8
		c-9.93-9.16-14.04-7.69-16.14-14.59c-1.79-5.89-5.79-9.93-10.45-13.56c-0.62,0.21-1.24,0.31-1.76,0.52
		c-2.52-3.02-2.53-17.6-2.07-21.42c3.05-25.13-3.19-3.27,4.66-46.67c1.5-8.27,1.26-10.36,3.21-14.38c2.05-4.25,2.26-9.01,3-13.56
		c0.3-1.86,1.14-3.83-0.72-5.17c1.23-2.45,6.52-4.52,7.04-17.07c0.78-19,8.55-27.95,10.04-53.29c0.83-14.1-2.01-16.39-0.93-16.66
		c-1.93-0.39-1.4-1.76-1.45,7.55c-0.12,24.44-12.83,57.34-11.59,63.43c1.52,7.48-3.01,7.53-4.55,17.69
		c-1.89,12.44-4.54,12.15-7.55,33.32c-1.62,11.38-5.78,23.08-4.55,39.22c1.69,22.26-5.4,6.7,4.55,32.28
		c-0.21,2.69-2.79,4.76-2.48,7.76c2.69-2.48,4.35-5.59,5.79-9.31c1.55,2.38,3.93,3.83,5.07,6.62c-3.1,1.97-7.14,2.79-9.11,6.52
		c2.07,1.14,2.07,1.14,9.93-3.52c1.24,0.62,1.45,1.86,1.76,3c-8.28,3.52-8.28,3.52-8.48,6.93c3.93,0.31,6.93-2.38,10.45-3
		c1.14,0.31,1.66,1.14,2.28,1.97c-1.97,1.66-4.45,2.28-6.21,4.14c1.15,4.21,5.24,1.19,10.14-1.45c1.96-1.05,1.97-1.03,4.35,0.83
		c-2.07,2.28-5.28,3-7.24,5.59c2.48,1.86,2.48,1.86,9.52-2.38c0.52-0.21,1.03,0.1,1.45,0.41C633.6,561.38,627,560.02,625.56,564.96z
		"/> <path d="M615.63,174.65c2.99,0.58,5.89,0.18,8.8-0.31c4.44-0.76,6.86-3.77,8.9-7.35c0.9-1.57,0.62-3.21-0.1-5.59
		c-3.21,7.35-8.79,9.85-15.73,10.14c-9.84,0.42-9.45,1.76-14.18,1.35C608.32,176.09,609.78,173.52,615.63,174.65z"/> <path d="M592.35,410.36c-2.15,4.25-1.86,8.17,1.35,11.9c1.86-2.9-0.52-4.97-1.24-7.45c0.62-1.86,2.48-3.31,3.1-5.79
		C593.49,407.98,592.87,409.33,592.35,410.36z"/> <path d="M324.45,111.74c-0.1,0.52,0.21,0.83,0.62,0.93c6.1,0.68,2.77-7.3,5.07-15.83c-2.17,1.76-2.17,1.76-2.9,13.24
		C326.52,111.32,325.07,110.81,324.45,111.74z"/> <path d="M564.31,216.66c-1.35,0.62-2.07,2.28-3.83,1.24c0.21,3,0,5.38,1.97,7.55C563.79,222.56,565.24,220.07,564.31,216.66z"/> <path d="M578.9,552.23c-0.41-2.28-2.48-1.76-3.31-2.79c-0.52-1.66,0.31-3.62-1.45-5.38c-0.83,2.07-0.31,4.14-1.24,5.79
		C574.65,552.02,576.62,552.33,578.9,552.23z"/> <path d="M571.03,412.12c-1.35,2.79-1.76,7.04-1.03,9.83C572.07,419.68,572.38,416.68,571.03,412.12z"/> <path d="M558.93,107.91c2.07,1.35,4.76,1.45,9.73,0.41C565.44,107.18,562.13,107.49,558.93,107.91z"/> <path d="M575.58,535.67c-1.45,1.86-1.14,4.14-1.45,6.21C575.79,540.02,575.79,537.95,575.58,535.67z"/> <path d="M575.27,525.74c-1.66,2.38-1.45,4.14-0.62,6C575.69,530.09,575.38,528.33,575.27,525.74z"/> <path d="M545.06,175.79c-0.83-2.28-2.07-3.31-4.55-4.14C541.44,174.13,543.09,174.65,545.06,175.79z"/> <path d="M571.34,450.82c-1.76,2.17-1.86,3.1-0.93,8.17C570.83,455.89,571.03,453.51,571.34,450.82z"/> <path d="M574.45,523.26c1.14-1.97,1.03-3.31,0.41-5.28C573.52,519.74,573.72,521.19,574.45,523.26z"/> <path d="M592.45,303.37c0.1-2.9-0.93-4.24-3.21-5.38C589.86,300.06,590.38,301.61,592.45,303.37z"/> <path d="M546.61,118.57c-2.17,0.93-3.1,2.17-4.14,3.93C544.85,121.36,545.06,121.15,546.61,118.57z"/> <path d="M569.27,465.52c-0.72,2.38,0.62,4.04,0.21,5.79C569.69,469.55,570.83,467.79,569.27,465.52z"/> <path d="M593.8,434.99c0-1.86-0.21-2.9-1.55-4.04C591.62,432.82,592.55,433.65,593.8,434.99z"/> <path d="M574.96,516.22c1.14-1.03,0.31-2.38,0.93-3.52C574.55,513.94,574.55,513.94,574.96,516.22z"/> <path d="M562.55,226.39c-1.14,1.45-0.21,2.38,0.21,3.93C563.48,228.46,563.06,227.63,562.55,226.39z"/> <path d="M587.38,294.37c-0.72,1.14-0.1,1.76,1.03,2.38C588.83,295.3,588.21,294.78,587.38,294.37z"/> <path d="M570.31,406.74c-0.52,1.24-0.83,2.48,0,3.83C571.24,409.12,570.83,407.88,570.31,406.74z"/> <path d="M562.75,233.11c0.41-0.72,0.31-1.24-0.41-1.97C561.62,232.08,561.72,232.6,562.75,233.11z"/> <path d="M549.92,185.1c0.93-0.62,0-1.03-0.21-1.45C547.28,181.83,548.03,184.47,549.92,185.1z"/> <path d="M546.72,177.55c-0.31,1.55,0.83,1.55,1.45,2.17C548.37,178.58,547.96,177.96,546.72,177.55z"/> <path d="M593.28,425.68c0.21-0.41,0.1-0.83-0.41-1.14c-0.72,0.72,0,1.66-0.41,2.48C593.49,426.82,593.18,426.2,593.28,425.68z"/> <path d="M569.48,401.05c0.52-1.14,0.52-1.97,0.1-2.9C568.86,398.98,569.17,399.81,569.48,401.05z"/> <path d="M561.51,14.88c0.08-0.03,0.1,0.01,0.1-0.21L561.51,14.88z"/> <path d="M561.51,15.51c-0.03,0.04-0.07,0.07-0.1,0.1C561.35,15.67,561.38,15.8,561.51,15.51z"/> <path d="M226.2,117.37c8.39-0.49-3.06-1.35-6.88-3.15C221.63,116.54,223.59,117.52,226.2,117.37z"/> <path d="M232.88,96.94c-0.72,2.38,0.21,4.86,3.73,10.24C235.98,102.94,234.64,100.15,232.88,96.94z"/> <path d="M237.12,109.98c-0.21,3.52,1.45,5.38,3.31,7.24C239.71,114.84,239.29,112.46,237.12,109.98z"/> <path d="M244.05,124.25c-0.44-2.71-1.86-3.89-3-5.79C240.85,121.2,240.81,121.22,244.05,124.25z"/> <path d="M212.18,69.62c1.97,0.93,4.04,1.35,6.93,0.93C216.42,69.93,214.46,69.1,212.18,69.62z"/> <path d="M244.16,140.81c0.31-2.07-0.31-3.21-1.55-4.76C242.1,138.23,243.07,139.07,244.16,140.81z"/> <path d="M189,82.97c0.72-0.93,1.35-1.86,1.24-3.21C188.87,80.41,188.52,81.51,189,82.97z"/> <path d="M271.5,165.98c-0.49-0.14-0.77-0.37,0.42,0.72c0.83,0.76,1.38,0.87,2.65,1.32C273.82,166.55,272.81,166.34,271.5,165.98z"/> <path d="M192.31,78.62c1.14-0.93,1.76-1.76,1.45-3.62C192.62,76.24,192,77.18,192.31,78.62z"/> <path d="M288.86,304.41c2.38,0,3.52-1.35,4.66-2.38C291.86,302.13,290.51,302.75,288.86,304.41z"/> <path d="M286.99,309.17c-1.24,1.55-1.76,2.79-1.97,5.07C286.68,312.48,287.2,311.24,286.99,309.17z"/> <path d="M287.92,297.58c1.35-0.62,1.55-1.76,1.86-2.9C288.75,295.3,288.34,296.34,287.92,297.58z"/> <path d="M324.24,579.44c0.5,0,0.57-0.54,0.52-1.03C322.52,578.73,322.78,580.18,324.24,579.44z"/> <path d="M272.61,414.92c0.41-2.07,3.1-3.52,2.79-6.31c-0.12,0.12-7.78,2.23-1.66,13.97C275.71,419.37,273.54,417.4,272.61,414.92z"/> <path d="M254.81,544.16c-1.71,2.25-0.71,4.73-1.45,6.21c1.62,1.62,3.58,1.87,5.79,2.07c-0.52-2.28-2.28-1.86-3.31-2.9
		C255.74,547.99,255.54,546.12,254.81,544.16z"/> <path d="M249.74,422.47c2.59-3.1,2.9-6.73,1.03-10.76C250.16,415.44,249.54,418.64,249.74,422.47z"/> <path d="M249.95,459.52c1.45-3.1,1.45-5.69,1.14-9C249.43,453.62,249.85,456.31,249.95,459.52z"/> <path d="M254.5,541.98c1.55-2.09,1.62-4.21,1.24-6.83C254.19,537.74,254.3,539.81,254.5,541.98z"/> <path d="M250.47,410.88c1.03-1.97,1.03-3.41-0.52-5.07C249.85,407.67,249.43,409.02,250.47,410.88z"/> <path d="M254.92,526.57c-0.84,1.66-0.72,3.43-0.52,5.38C255.63,529.46,255.64,529.47,254.92,526.57z"/> <path d="M255.85,512.18c-1.49,1.59-1.55,2.75-0.62,4.45C256.16,515.08,255.85,513.84,255.85,512.18z"/> <path d="M249.85,470.17c0.52-2.14,0.53-2.15-0.31-4.45C248.4,467.58,249.72,468.72,249.85,470.17z"/> <path d="M249.12,397.84c0,1.35-0.31,2.17,0.41,3.01C250.37,399.8,250.02,398.94,249.12,397.84z"/> <path d="M272.82,431.37c-0.27,1.31-0.38,1.39,0.83,3.21C274.06,433.03,273.65,432.09,272.82,431.37z"/> <path d="M255.02,517.88c-1.24,2.07-1.14,3.52-0.32,5.38C255.54,521.49,255.33,519.87,255.02,517.88z"/> <path d="M273.44,426.61c0.37-1,0.43-1.66-0.41-2.28C272.4,425.37,272.71,425.99,273.44,426.61z"/> <path d="M288.24,218.01c5.07-5.69,11.07-10.45,14.8-17.28C298.07,206.42,292.17,211.28,288.24,218.01z"/> <path d="M302.82,215.64c2.36-5.66,3.37-11.73,2.81-18.14C304.91,189.26,305.69,201.45,302.82,215.64z"/> <path d="M300.03,236.32c0-5.17,0.77-10.13,1.13-16.15C298.6,225.1,298.97,230.86,300.03,236.32z"/> <path d="M298.79,250.39c0.31-1.99,2.59-3.4,1.76-5.9C297.44,246.25,297.34,246.56,298.79,250.39z"/> <path d="M287.82,221.11c-1.66,1.66-3.62,3.1-5.38,4.86C285.03,225.66,286.17,224.73,287.82,221.11z"/> <path d="M261.85,217.18c0.52,1.22,1.26,1.36,1.27,0.88C263.13,217.56,262.92,217.18,261.85,217.18z"/> <path d="M264.13,68.48c-0.62-1.66-0.31-3.52-1.35-4.86c-0.43,0.09-1.06,0.21-1.45,0.21c0,10.4,10.34,9.93,14.9,12.21
		C272.92,72.31,267.33,72.11,264.13,68.48z"/> <path d="M288.88,43.96c0.8,1.6,1.8,1.02,2.8,1.08c0.86,0.04,0.95,2.6,4.22,2.34c-0.52-2.36,0.68-4.26,2.68-5.59
		C294.66,40.13,292.15,42.79,288.88,43.96z"/> <path d="M287.2,39c2.08,0.4,3.75-1.24,6-1.14c2.28,0.41,4.57,2.38,7.85,2.59C297.07,35.3,291.26,34.95,287.2,39z"/> <path d="M254.89,571.06c3.17,2.05,6.57-1.82,6.6-1.13c0.21,4.45,3.19,4.94,7.06,5.65c1.91-3.06,3.65-5.93,0.09-8.52
		c-2.02-1.46-4.52-0.27-6.64,1.03C258.98,556.79,247.64,566.37,254.89,571.06z M259.37,568.72c-1.75,2.55-5.85,1.08-4.56-2.87
		C258.31,562.75,260.69,566.43,259.37,568.72z M265.93,568.09c2.01-0.54,2.57,1.74,2.75,3.74c-1.23,0.64-2.36-1.88-2.76,1.26
		C263.04,573.66,262.61,568.68,265.93,568.09z"/> <path d="M246.91,559.7c-0.1-0.03-2.61,4.66-2.64,7.24c1.56,0.46,1.33-1.17,2.23-1.47c2.27-0.74,1.6,4.55,3.58,3.4
		c0.79-0.74-0.54-1.75,0.24-2.49c0.64-0.7,1.71-0.69,2.14-1.63C252.5,561.19,252.1,560.82,246.91,559.7z M247.58,563.47
		c-0.28-0.75,0.08-1.19,0.34-1.83c1.6,0.33,3.04,0.32,2.97,2.31C249.66,564.5,248.66,564.19,247.58,563.47z"/> <path d="M284.61,570.13c2.42-0.61,5.35-0.53,6.05-3.8c-3.08,0.38-6.17,0.49-9.04,1.88C281.29,568.38,281.75,571.01,284.61,570.13z"/> <path d="M312.42,85.89c-0.47-1.16-0.52-3.75-0.7-3.75c-1.44,0.11-1.02,2.07-2.68,2.17c1.66,1.55,2.38,3.41,3.83,5.69
		C315.05,85.68,313.6,88.82,312.42,85.89z"/> <path d="M234.74,17.47c-6.21,4.04-8.38,9.62-7.24,18.83C229.62,22.48,228.91,25.45,234.74,17.47z"/> <path d="M253.88,18.4c-0.88-0.49-1.57-1.15-2.69-0.83C252.02,18.2,252.64,18.82,253.88,18.4z"/> <path d="M269.51,108.75c3.72,0.41,2.53-4.36-0.83-3.52C268.34,106.92,271.58,106.89,269.51,108.75z"/> <path d="M582.83,63.52c-1.1,0-1.3,0.63-1.27,1.28c0.98,8.84,6.93,7.96,14.53,11.03c-3.31-3.52-8.38-3.83-11.69-7.04
		C583.37,67.2,583.55,65.11,582.83,63.52z"/> <path d="M608.09,44.68c1.32-0.2,2.31,0.16,3.19,0.65c8.61,4.84,1.07,1.01,7.15-3.55C614.28,40.96,614.28,40.96,608.09,44.68z"/> <path d="M614.39,38.27c1.87,0.81,3.73,2.17,6.11,2.07c-2.59-4.66-8.8-5.38-13.45-1.35C609.94,39.2,611.92,37.21,614.39,38.27z"/> <path d="M584.28,74.07c0.93,2.39,1.48,4.98,3.21,6.83C586.86,78.31,586.97,75.52,584.28,74.07z"/> <path d="M579.21,92.7c0.33,0.91,0.93,1.88,1.75,2.4C582.86,96.33,581.14,93.94,579.21,92.7z"/> <path d="M589.76,84.11c-0.6,0.93-0.22,1.44,0.83,1.86C590.8,84.83,590.28,84.52,589.76,84.11z"/> <path d="M608.28,218.01c4.86-5.69,10.76-10.45,15.31-17.49C620.49,202.07,609.42,214.69,608.28,218.01z"/> <path d="M624.94,194.83c-0.41,7.04-0.62,13.97-2.48,20.8C625.36,210.55,626.7,200.31,624.94,194.83z"/> <path d="M620.18,236.63c0.1-5.59,0-10.97,1.14-16.87C618.63,223.8,618.22,232.49,620.18,236.63z"/> <path d="M618.73,250.91c0.11-2.52,2.59-3.81,1.35-6.62C617.09,246.66,616.98,246.86,618.73,250.91z"/> <path d="M602.7,225.97c2.48-0.62,4.14-2.28,4.86-4.97C605.9,222.66,604.25,224.32,602.7,225.97z"/> <path d="M578.59,213.87c0.1,0.83,0.72,1.03,1.45,1.24C579.83,214.28,579.1,214.07,578.59,213.87z"/> <path d="M639.64,285.26c-0.09,2.87,0.61,4.81-0.31,6.83C642.74,289.4,642.84,288.26,639.64,285.26z"/> <path d="M641.39,305.65c-1.32-1.32-2.23,0.31-0.21,1.44c0,0,0.01,0.01,0.02,0.01c0.62,0.31,0.52,0.26,1.43,0.62
		C642.64,306.52,642.1,306.2,641.39,305.65z"/> <path d="M650.29,304.39c0.27,0.5,0.78,0.82,1.21,1.17C651.02,301.38,649.62,303.16,650.29,304.39z"/> <path d="M651.5,305.54c0.04,0.24,0,0.19,0.12,0.27C651.63,305.61,651.69,305.69,651.5,305.54z"/> <path d="M651.62,305.81c-0.11,1.38-0.07,2.19,1.37,2.84C652.88,307.35,652.58,306.43,651.62,305.81z"/> <path d="M656.71,306.58c-0.62,0.83-0.41,1.24,0.62,1.45C658.03,307.17,657.69,306.8,656.71,306.58z"/> <path d="M580.16,563.21c-4.6-0.49-6.49,4.73-3.68,7.2c3.03,2.66,5.57,0.78,7.69-0.7c-0.02,5.01,3.53,5.27,6.83,5.97
		c1.97-3.2,3.29-5.75,0.86-8.11c-2.1-2.04-4.84-0.96-7.36,0.53C583.74,564.45,582.75,563.28,580.16,563.21z M582.01,568.93
		c-1.57,2.32-5.89,0.63-4.45-3.05C580.53,562.76,583.82,566.25,582.01,568.93z M589.5,568.13c1.68,0.46,2.14,1.68,1.97,3.41
		c-0.64,0.79-1.17,0.22-1.79,0.06c-1.74-0.42,0,2.53-2.17,1.3C584.9,571.44,586.73,567.37,589.5,568.13z"/> <path d="M569.6,559.75c-0.79,2.41-2.41,4.58-2.38,7.23c1.91,0.58,1.18-2.5,3.11-1.36c1.24,0.73,0.54,3.03,2.37,3.45
		c0.88-0.69-0.04-1.58,0.19-2.4c0.58-0.98,1.87-0.95,2.3-1.9C575.21,561.14,574.57,560.73,569.6,559.75z M570.88,561.68
		c1.14,0.3,2.54,0.15,2.79,2.21C572.12,564.99,568.68,563.79,570.88,561.68z"/> <path d="M611.16,567.24c-2.03-1.65-8.12,0.01-10.02,1.33C602.34,572.23,607.95,569.34,611.16,567.24z"/> <path d="M611.18,567.23c-0.01,0.01-0.02,0.01-0.02,0.01C611.34,567.38,611.31,567.36,611.18,567.23z"/> <path d="M607.56,298.3c1.03-1.03,1.86-1.97,2.07-3.31C608.1,295.65,608.01,296.94,607.56,298.3z"/> <path d="M609.65,294.81c0.64-0.32,1.01-0.83,1.01-1.58C609.71,293.64,609.34,294.97,609.65,294.81z"/> </g> </svg> 