<?xml version="1.0" encoding="utf-8"?> <!-- Generator: Adobe Illustrator 23.0.1, SVG Export Plug-In . SVG Version: 6.00 Build 0)  --> <svg version="1.2" baseProfile="tiny" id="Layer_1" xmlns="http://www.w3.org/2000/svg" xmlns:xlink="http://www.w3.org/1999/xlink" x="0px" y="0px" viewBox="0 0 900 600" xml:space="preserve"> <g> <path d="M554.55,581.14h0.01C554.66,581.04,554.71,580.98,554.55,581.14z"/> <path d="M568.89,279.45C570.45,279.46,570.05,279.43,568.89,279.45L568.89,279.45z"/> <path d="M828.03,197.23c-3.02-1.01-156.11-3.45-160.18-3.79c-1.84-4.92-2.8-19.62-4.91-21.8c-0.1-0.1-0.2-0.41-0.2-0.61
		c-0.83-5.59-1.21-3.69,0-9.72c1.7-15.27-0.15-17.15-2.05-30.6c0-0.99-2.4-9.8-8.9-14.33c-2.64-1.51-4.39-7.16-14.74-7.78
		c-9.26-1.09-2.42-0.93-8.09-3.28c-9.33-3.86-13.28-4.88-17.09-8.9c-3.19-2.55-4.29-14.56-3.68-20.27c0.28-2.66,1.74-5.12,2.35-7.68
		c2.12-8.82,1.54-8.52,3.89-7.57c3.91-3.18,2.67-4.59,4.5-6.86c2.74-3.39,2.05-6.96,0.41-10.54c-0.31-0.51-1.02-0.82-1.54-1.33
		c-0.82,0.51-1.43,1.02-2.15,1.54c-2.57-4.04,4.87-23.06-9.21-32.44c-2.18-1.75-1.33-1.36-1.33-2.87c0.48-6.68-4.71-8.92-11.16-8.29
		c-5,0.49-6.66,3.33-8.7,6.24c-1.33,0.51-2.66-0.61-4.09,0.2c-1.02,0.51-2.25,0.72-3.28,1.23c-11.54,5.65-11.84,13.01-13.31,27.33
		c-0.77,7.48,1.27,8.61-1.74,12.79c-2.2,3.05,0.28,5.97,1.94,10.95c1.38,3.45,1.86,6.67,4.61,7.68c4.49,13.78,5.29,10.81,5.73,14.12
		c0.49,3.69,0.68,13.83-1.74,16.79c-2.95,4.42,0.7,3.25-6.45,6.04c-11.53,4.5-13.93,8.46-21.08,7.98
		c-6.33-0.42-10.15-0.05-15.45,3.38c-2.6,1.68-2.81,3.53-4.81,6.76c-4.33,6.97-4.71,13.6-4.71,22.01c0,20.5-2.21,10.39-5.22,21.19
		c-4.34,15.61-2.82,24.24-3.68,25.59c-1.16,1.82-0.61,3.48,0.61,4.91c-0.41,0.61-1.02,1.02-1.02,1.54
		c-0.31,2.87-2.25,5.12-3.17,7.78c-0.1,0.41-0.41,0.93-0.82,1.13c-3.01,1.46-2.91,7.99-2.05,10.75
		c5.6,17.99,20.78,18.97,28.56,12.49c2.85-2.38,0.91-4.29,2.46-5.83c7.47-2.56,13.92-7.06,20.98-10.85
		c0.82,3.28,1.43,6.55,1.43,9.83c0,21.02,0.18,17.55-9.11,36.13c-6.26,12.52-3.73,18.21-6.24,27.22
		c-7.29,26.13-3.53,58.04-4.5,59.06c-1.36,1.41-0.81,3.07-0.72,4.71c3.71,62.39,6.23,41.39,3.17,65.81
		c-1.09,8.7-0.36-2.55-0.61,16.17c-0.08,5.59-4.75,11.36-6.45,22.21c-0.3,1.95-1.27,3.81-0.31,5.83c0.19,0.4-0.32,15.95,0,19.34
		c1.74,18.59,5.33,25.22,5.22,40.43c-0.08,11.37,4.46,27.67,0.61,28.35c-2.13,0.38-3.28,3.44-3.38,4.09
		c-0.65,4.22-5.81,9.42-6.76,12.18c-2.86,8.33-6.85,9.17-8.09,15.05c-0.3,1.43-0.51,2.76-1.84,3.68
		c-1.88,1.13,1.13,12.69,1.13,12.79c-2.63,1.32-0.33,2.27,2.46,3.17c12.59,4.06,27.98-0.26,29.37-2.76
		c-0.41-0.51-0.72-0.92-1.02-1.33c3.48-3.28,3.68-4.09,2.35-10.03c3.99-2.05,6.76-5.53,9.11-9.62c0.1-1.64,0.31-3.68,0.31-5.63
		c0-7.27-2.89-5.09-2.56-9.52c0.38-5.12,0.31-10.96-3.89-13.92c5.68-43.51,4.18-45.62,8.19-54.04c5.71-11.98,4.47-19.98,5.02-27.43
		c1.15-15.86-0.34-11.18,0.61-15.45c2.87-9.58,3.48-10.28,4.3-15.25c0.63-3.85,3.89-9.26,3.89-20.98c0-20.57,11.75-36.53,17.5-67.96
		c4.31-23.56,1-11.79,4.5-21.8c3.5,1.05,1.21,0.05,4.61,11.46c18.54,62.36,10.62,18.46,21.29,66.83c0.87,2.6-1.03,5,1.94,13.82
		c1.41,4.18,6.87,20.6,9.72,23.95c3.19,3.75-1.47,5.48,0.61,19.96c0.79,5.5,0.84,14.23,4.4,25.18
		c10.15,31.17,2.45,10.69,13.82,57.42c1.01,4.16-0.32,2.44,1.02,10.75c0.26,1.61,2.14,1.49,2.87,0.51c3.3-5.37,0.24-1.97,3.68-9.72
		c10-1.54,7.16-1.72,10.13,0.41c0.7,1.74,0.46,4.73,3.48,7.27c0.5,0.42,0.82,1.02,1.23,1.54c-4.12,0-11.57-0.27-12.38,3.79
		c-0.2,0.72-0.2,1.54,0.82,2.05c2.66-1.64,5.73-2.56,8.9-2.76c3.18-0.4,2.51-0.65,4.3-1.84c7.29,5.83,1.41,3.09,10.13,15.15
		c7.58,10.48,9.58,11.13,9.83,14.84c0.12,1.77-0.8,3.07-2.66,3.07c-4.51,5.51-13.74,5.48-22.82,4.81c-4.72-0.35-5.93-2.17-8.8-5.53
		c0-4.76,0.54-6.71-2.15-7.68c-4.01-1.45-6.08-1.03-8.29-4.09c-0.95-1.31-1.56-2.74-2.66-3.99c-4.11-4.7,3.3-8.81,2.66-26.3
		c-0.1-0.41-0.31-0.72-0.51-1.23c-0.77,0.57-1.41,0.02-1.74,5.32c-0.38,6.03-4.18,19.31-4.2,19.45c-0.56,3.08,1.23,2.63,3.79,7.57
		c0.98,1.9,3.74,3.07,6.24,4.5c2.76,1.38,1.82-0.21,4.91,0.82c0,0.82,0.21,1.54,0,1.94c-1.15,2.19,1.31,9.31,7.98,10.64
		c7.38,1.47,18.45,1.82,22.41-0.82c1.42-0.95,2.77-2.14,4.4-2.76c2.36-0.9,3.13-2.56,3.28-4.81c0.29-4.47-2.14-6.55-5.83-11.26
		c-0.9-1.15-1.33-2.56-2.35-3.48c-7.5-7.5-3.96-12.09-12.38-18.32c-3.86-2.86-4.35-5.34-5.02-9.31c-0.6-2.22-1.48-2.45-3.48-3.79
		c0-4.94,0.73-4.84-0.2-12.28c-0.8-6.41,0.26-13.99,0.72-20.37c0.62-8.75-0.64-4.96,0.41-20.37c0.83-12.18,0.51-10.84,0.51-22.52
		c0-12.96-10.06-40.84-9.11-45.34c0.75-3.57,0.44-7.26,0.72-10.85c0.72-9.26,1.64-15.22,0.92-16.38c-1.6-2.14,0.31-1.07,0.31-21.49
		c1.02-0.92,2.23-1.44,2.76-2.76c1.47-3.61,2.97-7.16,5.22-10.34c0.41-0.41,3.52-9.78,4.4-15.45c0.38-2.46,1.54-4.3,3.48-5.73
		c0-16.23-1.58-19.06,0.41-21.6c1.72-2.19,2.59-8.16,0.2-13.51c-2.25-5.05-2.01-16.22-2.87-18.22c-0.94-1.72-3.67-26.42-3.38-34.9
		c0.32-9.55,1.96-16.76-3.17-27.53c-2.13-4.48-3.07-4.97-3.48-8.09c-0.84-6.39-2.78-10.29-3.17-13.41c0.44,0,134.45,3.05,156.9,3.17
		C829.44,200.01,829.42,197.78,828.03,197.23z M627.52,108.08c2.96,2.06,6.34,2.97,9.52,4.4c17.23,7.74,19.32,5.57,22.72,31.63
		c0.97,7.41,1.03,5.78,0.61,12.59c-0.81,13.28,1.88,18.03,1.64,23.44c-0.71,16.07,12.21,13.44-19.14,13.2
		c-0.31,0-0.61-0.31-1.13-0.51c0.2-1.23,0.51-2.46,0.82-3.89c1.93,4.62,0.52,2.77,2.97,3.99c0-2.87-1.37-8.65-1.74-10.23
		c-0.83-3.58,0.63-3.34,0.82-16.48c0.06-4.09,2.86-14.79,1.84-19.86c-1.64,0.82-1.74,2.56-2.97,3.48
		c-6.04-5.83-10.48-12.92-14.33-20.27c-1.21-2.31-1.46-4.58-2.87-10.85c-0.9-4.02-1.46-0.41-2.76-11.46
		C623.53,106.02,626.18,107.15,627.52,108.08z M647.38,211.66c1.17,4.79,2.66,3.13,2.66,19.55c-0.82,3.79-0.05,7.39,1.43,10.95
		c3.71,8.92,9.05,27.07,17.5,53.32c3.84,11.94,0.25,15.5-2.66,19.24c-0.41-0.82-0.82-1.23-0.92-1.74
		c-2.76-13.5-2.89-13.71-2.66-14.84c0.52-1.82-9.77-23.53-21.6-62.94c-0.2-0.92-1.64-0.61-1.74-1.84c-0.39-2.7-1.13-2.15-1.54-9.62
		c-0.75-13.75-0.25-14.52,0.51-15.66c2.12-3.17,0.35-4.51,2.35-11.67c4.55,0,5.1-0.45,4.71,3.48
		C645.2,202.2,645.7,204.77,647.38,211.66z M617.39,44.32c0.53,0.53,0.33,0.38-0.92,1.64C616.38,45.25,617.29,44.37,617.39,44.32z
		 M618.52,46.36c0.61,1.94,0.72,3.48-0.1,5.32c-0.82-0.92-1.54-1.74-2.15-2.46C616.68,48.1,617.29,47.18,618.52,46.36z
		 M617.29,52.71c-0.2,2.35-0.82,4.5-2.46,6.24c-1.13-0.51-1.42-0.82-1.13-1.54C614.96,54.4,614.62,57.67,617.29,52.71z
		 M613.81,34.59c-0.53,1.05-0.52,0.6-0.82,0.31c0.1-0.2,0.31-0.41,0.51-0.61C613.6,34.39,613.71,34.49,613.81,34.59z M613.2,31.93
		c-0.1,0.31-0.31,0.51-0.51,0.82c-0.1-0.1-0.1-0.1-0.2-0.2C613.06,31.67,613,31.84,613.2,31.93z M599.06,14.75
		c1.03-5.48,0.63-4.14,1.65-4.82c0.82,1.02,0.01,2.04,0.2,3.06C600.4,13.38,600.01,13.8,599.06,14.75z M599.48,17.23
		c0,1.61-0.21,1.39-0.61,1.39C598.87,18.04,598.78,17.46,599.48,17.23z M601.03,13c0.16,0,0.34,0,0.5,0
		c0.09,1.77-0.14,3.33-1.95,4.15C599.1,15.44,601.4,14.66,601.03,13z M603.78,11.26c0.51,0.51,0.82,0.82,1.13,1.23
		c-1.02,1.84-1.84,3.57-3.47,4.7C601.48,15.19,602.67,13.47,603.78,11.26z M601.82,12.89C602.04,12.73,601.91,12.89,601.82,12.89
		L601.82,12.89z M595.18,2.35c2.35,0.33,5.22,0,6.86,2.56c-0.92,0.72-1.74,1.23-2.56,1.74c3.67-0.41,2.85-1.57,4.4,1.84
		c-1.23-0.51-1.84-0.82-2.56-1.02c-0.72-0.2-1.43-0.1-1.84-0.82c-1.13,0.72-2.25,0.72-3.48-0.31c0.94-1.26,1.39-1.25-1.74-0.2
		c-0.1-1.54,1.64-1.64,2.15-2.76c-1.94,0.2-1.94,0.2-4.5,2.87c-3.44-0.43-2.53-0.15-3.38-0.72C590.37,3.68,592.41,1.97,595.18,2.35z
		 M593.54,18.22c-0.1-2.75,0.2-4.69,0.51-6.63c1.06-0.41,0.78-1.72,1.64-2.58c0.72,0.1,1.54,0.2,2.56,0.31
		c0,2.46-0.41,4.61-2.05,6.45c0,0-0.11,0-0.21,0C595.93,12.13,595.98,12.81,593.54,18.22z M595.9,16.37c0,0.15-0.76,0.35,0.02-0.43
		C595.94,16.09,595.97,16.23,595.9,16.37z M588.43,12.69c0.41,0,0.31-0.24,0.31,1.33C588.32,14.02,588.43,14.26,588.43,12.69z
		 M586.58,8.7c0.51-0.1,0.82-0.1,1.13-0.31c0.2,0.31,0.41,0.51,0.41,0.61C587.4,12.25,586.11,12.49,586.58,8.7z M583.1,9.72
		c0.1-0.41,0.72-0.72,1.33-1.23c1.33,3.89,2.15,7.47,1.94,11.26C582.76,16.7,582.42,13.83,583.1,9.72z M574,13
		c0.31,1.43,0.61,2.76,0.92,4.09C572.46,14.84,572.36,14.43,574,13z M565.6,55.06c-1.74-1.54-1.43-3.17-1.23-4.81
		c1.02-0.1,1.13,0.61,1.64,1.23C565.91,52.5,565.71,53.63,565.6,55.06z M565.91,48.41c-0.1-0.05-0.51-0.35-0.51-0.61
		C566.3,48.25,566.11,48.21,565.91,48.41z M568.98,64.17c-1.02-1.33-1.23-2.56-1.23-3.89C568.88,61.2,569.29,62.43,568.98,64.17z
		 M572.05,68.37c-2.93-11.37-3.73-10.26-4.09-12.59c-0.47-2.98-0.76-10.13-0.41-13.31c0.12-1.12,0.72-2.15,1.02-3.28
		c-1.72-1.29-2.54-1.26-1.74-3.07c1.43,0.61,1.94,1.64,1.74,3.17c2.36-0.51,2.06-1.04,1.33-4.71c-0.41,0.31-0.82,0.61-1.13,0.82
		c-1.23-0.41-0.2-1.43-0.51-2.15c-0.51-0.88-1.21-3.02-1.64-4.5c1.02-0.61,1.13,0.61,1.94,0.61c-1.17-4.68-1.28-3.68,0.61-3.99
		c-0.1-1.13-1.33-1.64-1.33-2.97c1.79-1.79,1.43-1.79,1.43-4.09c0.31,0,0.61-0.1,0.72,0c2.71,2.71,2.19,2.58,3.58,3.28
		c0.99-1.42-0.72-0.47-2.15-5.73c1.43,1.84,2.66,3.17,3.79,4.61c1.97-1.31,0.97-2.34-0.51-7.98c0.51-0.51,1.13-1.02,1.84-1.64
		c1.42,2.85,0.04,7.26,4.48,9.15c-0.7-2.03-0.95-4.14-1.92-6.18c-0.53-1.12-1.02-2.56-0.61-3.99c1.43-0.51,1.63-0.51,1.84,0.41
		c0.7,2.98-1.3,0.78,0.92,5.53c3.15,6.74,2.14,5.38,8.39,6.04c0-11.2,0.9-4.92,0.31-12.59c0.82-1.02,2.05-0.31,3.28-0.2
		c0.69,3.11,0.55,2.67,0.8,2.59c-0.71,1.01-1.32,1.92-1.92,2.73c-1.01-3.02-0.95-2.86-1.33,6.55c3.7,2.03,4.87-1.51,7.06-4.5
		c0.91-1.25,1.44-2.4-0.41,2.46c0.57-0.09,0.96-0.1,1.34-0.18c0.3,0.49,0.5,0.49,0.81-0.02c-0.38,0-0.18,0.11,1.83-1.32
		c-0.08,0.57-0.09,1.16-0.19,1.83c1.84,0.1,1.43-2.46,3.07-2.56c0.08-0.16,0.18-0.34,0.28-0.53c-0.06,0.13-0.11,0.27-0.18,0.43
		c-0.74,2.95-1.55,2.69,1.23,3.48c0.31-0.72,0.82-1.54,0.61-1.94c-0.72-1.13,0-2.15,0-3.28c-0.78,0.16-1.06,0.19-1.39,0.74
		c0.05-0.11,0.11-0.22,0.16-0.34c0.2-0.61,0.41-1.23,0.72-2.05c2.75,1.18,6.3,4.54,3.89,6.35c-0.41-0.72-0.82-1.33-1.23-2.05
		c-1.43,1.33-1.43,1.33-2.35,3.89c1.23,0.2,1.23-1.33,2.15-1.43c0.1,0.1,0.31,0.31,0.31,0.41c-0.41,2.15,1.33,3.48,1.84,5.63
		c0.41-2.05,0.61-3.79,1.02-5.94c3.28,4.1-2.91,7.97,0.1,11.26c0.31-0.92,0.61-1.94,1.02-3.07c0.61,1.94,0.61,1.94-1.02,3.07
		c-0.2,1.13-0.51,2.25-0.82,3.58c1.9,2.28,1.95,2.12,1.94,2.56c-0.15,8.21,2.79,11.41,0.31,17.19c-2.59,6.04-0.76,5.99-5.22,18.22
		C601.49,89.71,577.43,89.25,572.05,68.37z M571.13,105.01c3.07-2.97,6.04-7.78,6.65-13.41c1.23,2.05,1.33,4.5,3.07,6.04
		c-0.82-2.66-0.51-5.73-3.17-7.88c1.74-2.25,1.02-4.81,0.2-7.68c14.12,6.18,11.08,7.6,24.77,0.51c0.81-0.42,1.33-1.23,2.25-2.15
		c2.21,9.3,2.12,14.28,7.88,20.98c0,17.03,2.91,15.11,3.58,19.65c1.41,9.53-0.3,10.91-3.99,14.33c-4.81,4.45-11.55,6.96-15.35,6.96
		c-0.1-2.56-0.31-5.12-0.41-8.09c-1.87,2.18-1.5,4.23-1.23,8.09c-4.6,0-12.41-2.28-16.68-3.99c-1.75-0.7-2.84-1.75-3.48-3.58
		c-1.22-3.51-4.08-11.88-4.3-15.56C570.64,114.53,570.41,109.72,571.13,105.01z M568.78,121.9c0.34,1.53,0.22,3.07,0.72,4.5
		c5.16,14.96,4.26,11.27,6.45,12.69c6.05,3.94,16.32,6.58,27.74,5.12c2.41-0.6,3.75-2.23,8.29-5.02c2.15-1.32,3.7-3.26,5.32-5.02
		c1.13-1.22,1.53-2.56,1.33-4.2c-0.46-3.76-1.84-18.06-1.84-18.22c-0.34-5.43-2.98-4.75-2.15-8.9c2.56,0,2.56,0,4.91,1.64
		c2.53,10.11,3.47,17.48,6.96,24.46c4.86,9.72,5.23,12.42,9.93,16.38c1.74,1.46,3.52,4.47,4.3,5.42c4.98,6.16,0.55,8.11,1.02,20.16
		c0.1,2.59-0.5,11.44-0.92,12.28c-2.42,3.5-2.4,8-3.48,9.62c-5.29,0.72-5.87-0.61-11.67-1.33c-1.63-0.82-3.85-5.13-12.28-2.56
		c-5.87,1.79-5.71-0.4-13.92,0.51c-4.19,0.47-8.39,0.72-12.59,1.02c-3.28-4.68-4.41-6.06-11.26-4.5c-4.98,1.13-4.93-1.33-9.52-1.33
		c1.13-0.72,1.84-0.31,2.46,0.2c2.76-0.51,5.63-0.72,8.6-1.64c2.43-0.49,15.86-5.84,14.74-8.09c-1.63-1.63-12.72,6.19-23.34,6.04
		c-8.54-0.13-9.97-5.34-13.61-6.55c-0.2,3.55,2.41,4.83,7.06,8.49c-3.28-0.72-6.14-1.64-9.11-2.97c-1.84-5.32-4.91-10.44-5.12-16.48
		c-0.1-1.02-0.32-2.04-0.61-3.07c-1.28-4.56,2.11-6.14,10.75-24.36c5.78-12.18,5.22-19.04,5.22-27.22
		C575.78,101.69,565.47,106.85,568.78,121.9z M627.93,195.59c-0.1,0-0.31,0.1-0.41,0.2c-0.1,0-0.1-0.1-0.2-0.2
		c0.1,0,0.2-0.1,0.31-0.1C627.73,195.49,627.83,195.59,627.93,195.59z M622.51,195.69c-2.97,0.92-5.53-1.33-8.49-1.23
		c-0.41-1.02-0.82-1.94-1.23-2.87c1.05-1.05,5.14-0.56,6.76-0.2c-1.54,0.51-2.66,0.82-4.09,1.23
		C617.51,195.6,623.28,192.62,622.51,195.69z M604.09,195.69c3.08-0.44,5.15-0.99,7.47,1.33c-3.58,1.74-14.33,2.56-23.95,1.33
		C588.13,194.17,587.59,198.03,604.09,195.69z M587.61,193.75c0-0.61,0.1-1.02,0.1-1.64c3.58,0.2,6.86,0.41,10.34,0.61
		C595.39,193.95,594.26,194.16,587.61,193.75z M583.36,199.53c0.2-0.56,0.48-1.16,0.77-2.1
		C584.23,198.73,584.22,198.76,583.36,199.53z M575.63,192.72c0.41-0.31,0.31-1.02,0.51-1.74c0.61-0.31,1.33-0.61,2.15-1.02
		c2.76,0.92,3.74,2.66,3.68,5.22c-0.05,2.36-1.64,3.07-3.58,3.68c-1.84-1.23,0.13-0.53-3.89-2.25
		C574.3,194.97,574.3,193.74,575.63,192.72z M575.02,188.01c1.33-0.92,2.87-0.41,4.3-0.41c0.61,0,1.43-0.1,1.74,0.71
		c-1.7-0.09-3.31-0.08-4.91,0.83C575.43,189.55,574.92,189.04,575.02,188.01z M581.19,188.36c0.36,0.1,0.52,0.29,0.49,0.66
		C581.52,188.79,581.35,188.6,581.19,188.36z M583.24,199.71c-0.32,0.63-0.89,0.38-1.46,0.38
		C582.36,200.09,582.85,199.91,583.24,199.71z M582.49,189.86c0,0,0.1,0,0.1,0.1L582.49,189.86z M574.1,198.97
		c-0.31,0.31-0.41,0.31-0.41-0.31c0-0.1,0.1-0.1,0.2-0.2C574,198.66,574,198.76,574.1,198.97z M549.53,183.1
		c-5.53-0.72-11.05-1.54-16.07-3.99c0-1.43,0-2.76-0.1-4.09C534.62,175.19,548.24,181.9,549.53,183.1z M545.44,176.76
		c0.47-8.49,1.24-6.95,2.46,1.13C546.62,179.34,545.44,177.73,545.44,176.76z M516.68,173.48c2.06-14.42,7.62-15.94,6.35-21.9
		c-0.78-3.65,0.49-10.46,1.13-15.66c0.44-3.58,1.69-6.02,7.37-16.27c1.86-3.37,4.72-5.05,8.49-5.53c1.44-0.18,2.97-0.51,4.5-0.41
		c6.64,0.44,9.99-3.47,13.41-2.87c0.61,0.2,1.23-0.2,2.15-0.41c0,14.62-3.82,26.03-11.67,38.79c-0.82-1.13-1.43-2.05-2.15-3.38
		c-1.08,2.88-0.51,1.74-0.51,4.61c0,4.13-0.7,1.47-2.05,9.11c-0.76,6.86-1.23-4.65-1.23,16.58c-1.22,0.35-1.72,0.04-6.76-2.25
		c-1.64-1.64,1.17-4.39-12.08-2.56c-3.19,0.44-3.1,1.53-3.48,8.8c-1.43,0-2.76,0-4.3,0C515.76,177.78,516.37,175.63,516.68,173.48z
		 M522.21,175.12c0.83-0.56-0.87-0.78,9.62-0.1c0,5.46,0.5,4.5-2.66,4.81c-9.45,0.94-7.16,0.56-7.16-2.05
		C521.9,176.86,522.1,175.94,522.21,175.12z M516.68,228.75c-4.93-2.1-8.82-10.91-9.83-16.68c-0.66-3.76,0.67-2.37,7.06-13.41
		c0.51,2.97,0.51,2.97,3.17,3.89c1.36-1.36-1.52-1.66-1.33-4.3c0.14-1.94-0.51-3.68-2.25-4.81c-0.2-0.1-0.31-0.51-0.51-1.02
		c1.38-2.75,2.95-3.7,2.25-6.55c-0.3-1.23,0.1-2.56,1.13-3.79c1.74-0.61,3.79-0.53,5.73-0.41c16.01,0.96,11.73-2.45,15.05,5.83
		c1.51-2.02,1.13-0.89,1.13-4.71c5.64,0,2.97,2.97,1.94,8.7c-2.64-3.96-1.28-3.21-4.2-2.76c-5.09,0.79-1.63-1.33-9.62-1.33
		c-1.13,0-2.15,0.31-3.17,0.31c-0.92,0-1.94-0.41-3.07-0.61c1.36,2.42,1.32,2.64,11.16,3.48c7.04,0.6,6.14-1.83,6.14,4.91
		c-4.58,1.53-6.45-0.31-12.69-0.31c-2.31,0-2.3,2.46-0.61,2.46c3.68,0,7.37,1.33,11.16,0.92c0.31,0,0.61,0.2,1.13,0.31
		c-0.2,1.23-0.41,2.46-0.61,3.89c-7.5,0.94-10.59-0.8-12.28,0.51c-1.16,2.71,5.36,1.18,10.75,1.94c0.2,1.23,0,2.25-0.82,3.28
		c-9.99,0-8.96,0.14-10.03,1.74c0.92,0.92,1.51,0.72,6.45,0.72c0.61,0.72-2.05,1.54,0.2,2.15c-5.8,3.63-13-4.29-13-0.51
		c1.13,0.61,2.35,1.23,3.48,1.84c0.92,2.97,0.31,5.94,1.23,8.7c6.36-0.85,2.18-0.24,11.16,0.51
		C534.15,226.75,526.21,232.81,516.68,228.75z M552.19,212.58c-21.53,13.28-8.6,6.79-22.11,8.29c-2.25,0.1-4.5,0.2-6.86,0.31
		c-0.1-0.82-0.31-1.54-0.41-2.35c-0.1-0.82,0-1.64,0-2.66c10.34,1.03,7.16-2.73,9.52,0.41c2.76-0.25-0.35-2.97,2.15-5.02
		c0.78,1.69-1.2,5.38,2.46,4.5c18.94-4.55,14.16-4.5,16.07-4.5C552.6,211.86,552.5,212.27,552.19,212.58z M536.84,213.6
		c-1.6-10.22,1.96-8.55,1.54-11.97c-0.62-5.01,4.73-8.21,5.94-16.68c2.46,0.2,4.61,0.61,6.76,1.64c5.36,16.07,2.07,2.48,6.04,18.93
		C553.01,208.69,543.39,212.58,536.84,213.6z M557.41,195.59c-0.72-2.35-1.54-4.91-2.25-7.27c1.37-1.83,6.09,2.08,11.57,1.94
		c1.94-0.05,3.68,0.51,5.32,2.56c0,4.02,0.05,2.91-0.2,4.2C567.14,196.51,562.33,197.23,557.41,195.59z M558.85,204.8
		c0.1-2.35-1.23-4.09-0.41-6.04c2.25,0.41,4.5,0.82,6.96,1.23C563.76,202.04,561.51,203.16,558.85,204.8z M561.82,232.43
		c2.24-28.52-8.69-16.21,3.99-24.67c9.86-6.57,6.4-5.16,10.54-4.4c4.1,0.75,7.4,0.92,9.93-2.46c1.63-3.25,4.72,1.29,25.79-1.64
		c4.51-0.63,5.16,0.29,7.57,0.72c2.65,0.47,5.22,0.2,7.06-1.74c3.38-0.1,6.55-0.31,9.83-0.51c0.21,1.85-1.64,8.86-1.84,12.18
		c-0.66,10.66,0.41,5.78,0.41,15.05c0,5.11,1.17,10.98,4.2,15.05c2.94,3.95,0.89,2.74,7.27,21.19c0.32,0.92,0.51,1.74,0.82,2.66
		c-1.76,0.73-19.39,5.32-25.89,5.32c0.35-1.77,0.76-1.7,2.66-6.14c-0.41,0.31-1.02,0.51-1.43,1.02c-4.2,6.12-1.9,5.31-7.88,5.73
		c-38.74,2.7-32.57-0.54-64.58-4.09C553.4,257.3,567.32,236.83,561.82,232.43z M557.41,549.61c0.34-0.34,0.43,0.31-0.1,0.31
		C557.41,549.82,557.41,549.72,557.41,549.61z M558.64,556.88c0,12.2,4.05,2.68,2.35,15.66c0,3.29-2.1,7.5-6.44,8.6
		c-2.86,3.25-1.97,0.62-1.55,6.76c0.2,2.85-1.81,4.21-5.42,7.27c-2.64,1.76-14.33,3.62-23.95,0.41c9.6-3.93,8.4-0.31,16.68-0.31
		c-0.51-0.72-0.72-1.23-1.02-1.33c-1.58-0.53-5.66-1.6-5.94-1.94c-1.83-2-3.47-0.7-10.64,1.02c-0.45-0.15-0.2-1.22-1.23-7.98
		c-0.35-2.31,0.53-2.46,2.46-5.94c0.82-1.23,1.51-2.68,2.35-3.89c1.09-1.56,2.35-2.97,3.48-4.5c12.62,0,17.4,0.54,17.4-1.23
		c-0.1-0.41-0.41-1.13-0.82-1.33c-1.02-0.41-2.25-0.7-3.38-0.82c-10.47-1.15-12.25,3.22-11.57-0.2c1.65-0.82-2.14-0.46,16.99-0.82
		c0.61-0.01,1.23-0.51,1.74-0.72c-0.1-1.23-0.82-1.72-1.64-1.84c-13.53-2.04-19.23,3.77-14.33-2.76c5.94-0.61,11.26-0.61,16.27,1.23
		c0.82-0.61,0.7-1.12,0.31-1.64c-1.58-2.07-7.72-2.42-10.34-2.66c-4.14-0.39-3.78,1.65-2.05-3.99c0.94-3.05,1.05-6.1,3.17-5.63
		c8.9,1.98,6.64-3.27,12.28,5.12C555.91,556.48,556.24,557.54,558.64,556.88z M556.29,551.97c0-0.39,0.48-0.12,0.72,0
		C556.49,552.48,556.58,552.26,556.29,551.97z M594.36,339.9c-12.61,54.29-10.37,32.46-16.27,59.67
		c-1.77,8.16-0.85,11.95-2.87,23.34c-3.5,19.75-7.28,23.62-8.29,41.66c-0.25,4.53-0.15,15.8-3.89,24.15
		c-3.56,7.96-4.42,25.3-7.88,60.59c-1.33-0.53-0.57-2.35-2.15-4.2c-0.2,1.02-0.31,1.94-0.41,2.97c-0.2-0.1-0.51-0.1-0.61-0.2
		c-1.6-2.57-3.56-2.05-7.78-2.05c0-2.65-0.02-2.99-1.23-16.89c-3.91-45.13-7.94-38.71-4.61-78.4c0.36-4.33,5.06-15.29,4.71-17.19
		c-0.56-2.98,0.43-5.94,0.1-9.01c-0.27-2.52,0.32-3.91,2.25-13.82c1.39-7.13-5.27-46.38-3.89-72.67c10.25,2.33,4.13,1.72,11.05,2.56
		c2.19,0.27,5.7-0.05,8.39,0.2c0.1,0.01,7.57,0.77,7.68,0.82c5.79,2.77,19.77-2.13,25.79-4.71
		C595.08,337.96,594.58,338.98,594.36,339.9z M602.45,319.53c-4.87,2.66-3.15-1.11-6.45,13.92c-19.22,8.24-23.98,4.44-39.51,3.48
		c-4.64-0.29-13.13-2.22-14.43-2.87c-0.38-1.88,0.16-9.24,0.2-9.83c3.63-45.12,1.33-7.41,6.55-43.91c8.57,0,11.53,0.14,15.15-0.51
		c1.48-0.27,3.66-0.35,4.93-0.37c-2.08-0.01-7.64-0.09-19.56-0.44c-0.51-3.48-0.2-6.65,0.72-9.62c0.61,0,1.23,0.11,1.94,0.2
		c6.91,0.88,2.5-0.67,13.92,1.23c9.11,1.52,19.78,4.72,36.95,2.97c16.34-1.67,12.9,0.35,31.01-3.38c7.73-1.59,6.47-1.69,14.74-3.07
		c1.43,3.68,2.46,7.16,3.89,10.64c-3.42,1.14-3.98,0.67,0.1,1.13c6.47,15.11,7.32,19.89,10.85,42.88c0.42,2.76,0.2,5.63,0.31,8.6
		c-0.92,0.51-1.74,1.23-2.66,1.54c-4.06,1.12-11.12,4.48-15.05,4.5c-27.01,0.17-27.23,0.62-35.82-1.64
		C607.91,329.83,607.95,321.37,602.45,319.53z M660.89,548.49c0.39-0.39,0.2-0.1,0.41-0.1C661.3,548.79,661.32,548.49,660.89,548.49
		z M669.79,439.79c5.45,16.36,2.87,37.2,2.87,98.66c-10.64,1.18-9.66,2.79-10.85,7.16c-1.02-0.51-0.52-1.23-0.61-1.84
		c-0.12-0.82,0.02-1.64-0.1-2.46c-0.5-3.46-0.05-3.04-1.33-1.33c-2.68-4.03-4.63-30.14-9.01-44.21c-3.42-11-9.05-23.07-8.6-46.36
		c0.1-5.3,1.12-15.55-3.89-17.3c-0.92-0.32-1.23-1.33-1.02-2.05c0.65-2.25-0.55-3.88-4.4-12.38c-4.7-10.36,0.63-25.4-14.02-56.7
		c-4.63-9.9-4.45-11.91-8.5-23.13c7.36,1.94,15.52,2.05,22.93,1.33c29.8-2.88,14.27,0.05,30.81-4.81c1.36,2.2,0.07,4.01,0.51,10.23
		c0.66,9.39,1.19,0.49,2.56,12.79c-1.33,2.56-3.07,5.32-0.82,7.98c-0.38,8.37-0.31-2.32-0.31,21.8c0,24.06-3.14,37.57,0.61,41.86
		C667.4,429.83,666.28,429.26,669.79,439.79z M669.49,366.1c-0.2-1.23,0.82-1.94,1.64-3.28
		C671.13,364.46,670.31,365.28,669.49,366.1z M676.75,245.53c-0.55,12.26,2.65,28.32,3.79,37.36c0.47,3.73,0.89,11.52,1.74,16.17
		c0.63,3.43,1.64,0.96,1.64,5.94c0,3.83,0.15,5.66-0.41,6.24c-2.65,2.76-1.41,16.98-0.61,21.9c-10.06,20.11-4.18,13.66-14.33,30.7
		c-0.31,0.51-0.61,0.92-1.43,0.72c-0.82-0.92-0.61-2.15-0.72-3.28c5.64-7.6,3.42-10.64,7.68-20.47c1.94-4.48-1.21-3.92,0.1-8.19
		c0.31-0.82,0.2-1.64-0.72-2.25c-2.54,3.82-1.68,3.42-2.56,4.4c-1.3,1.46-1.53,3.27-1.02,4.91c1.36,4.45-0.87,6.77-2.56,9.72
		c-0.41-0.61-0.83-0.82-0.92-1.23c-1.48-6.34,1.9-12.19-0.31-15.66c-2.79-4.39-1.22-12.93,2.76-16.07c1.83-1.45,2.56-3.58,3.28-5.73
		c0.51,0.2,1.02,0.51,1.64,0.82c0.82-2.46,1.23-4.71,0.72-7.57c-1.43,1.64-0.82,3.48-1.43,4.91c-1.61-14.02-4.27-25.64-13.41-46.57
		c-2.24-5.13-0.73-6.56-5.12-15.97c-4.28-9.18,1.06-10.54-7.98-49.74c2.15-0.31,15.15,0,18.63,0.41
		C670.57,214.95,677.51,228.64,676.75,245.53z M672.25,339.59c0.42-5.82,0.13-4.52,1.13-5.02c0.1,0.41,0.31,0.82,0.31,1.33
		c-0.38,4.55-0.54,3.51-1.13,4.09C672.46,339.9,672.25,339.7,672.25,339.59z"/> <path d="M581.16,20.06c-0.11-0.05-0.15-0.09-0.1,0H581.16z"/> <path d="M393.04,212.58c-1.93-0.72-80.77-1.5-101.94-1.74c-2.22-0.02-2.46-0.23-3.07-1.13c-1.71-2.48-4.1-3.49-7.06-3.07
		c-3.48,0.5-6.96,1.02-10.03,2.66c-5.55-1.5-10.19,1.22-16.89,0.1c-1.24-1.74-2.41-4.5-6.96-4.5c-2.13,0-2.67,1.3-5.42,0
		c-0.1-0.05-9.82-3.95-9.93-3.99c-1.38-5.99-1.79-2.66-3.68-13.82c-2.29-13.48-2.16-13.62-3.48-14.94c-0.23-0.23-1.56-6.08-0.31-8.9
		c0.93-3.73,1.35-11.8,0.2-18.93c-2.76-17.24-1.71-20.64-16.58-32.44c-5.08-4.03-13.28-2.31-14.84-4.4
		c-2.26-3.55-17.8-5.27-20.98-12.69c-5.61-15.5-0.49-23.77,0-26c1.99-9.05,1.84-8.6,3.89-7.57c1.94-1.54,3.07-3.17,3.58-5.32
		c0.35-2.09,4.81-3.58,1.43-11.77c-0.31-0.61-1.02-1.13-1.43-1.54c-1.23,0-1.64,1.33-2.76,1.23c-0.55-6.08,0.28-6.91-0.1-15.05
		c-0.61-12.92-7.63-15.82-10.34-18.53c0-2.71,0.91-6.99-4.09-9.11c-2.87-1.22-5.73-0.93-8.7-0.51c-2.15,0.3-3.5,1.71-4.91,3.07
		c-0.83,0.8-1.33,1.94-1.94,2.87c-1.23,0.61-2.45-0.39-3.79,0.1c-13.24,4.92-15.13,10.88-16.79,26.41
		c-1.04,9.75,0.82,10.44-1.64,14.33c-2.42,3.82-0.61,4.83,1.64,11.57c1.53,3.67,1.78,6.82,4.5,7.78c2.41,6.62,3.14,9.12,5.32,12.38
		c1.2,1.44,1.56,15.6-1.13,18.53c-1.13,1.23-1.33,2.76-1.94,4.09c-23.57,9.71-15.28,9.91-29.27,9.83
		c-12.22-0.07-17.41,7.05-20.47,17.5c-3.31,11.31-3.5,14.98-3.58,18.93c-0.29,3.73-2.64,3.95-3.99,10.44
		c-2.05,7.67-3.75,10.49-4.3,20.88c-0.84,15.81,1.92,17.7,1.54,22.72c-0.51,6.59,1.19,17.81,1.94,19.55
		c0.71,1.62,2.33,1.03,3.58,0.61c9.33,4.17,13.67,3.4,42.17,7.47c1.04,6.63,0.32,6.1-1.54,11.97c-2.25,7.11-3.02,7.43-7.57,16.58
		c-6.12,12.3-3.88,18.57-6.14,26.82c-5.39,19.65-4.5,36.49-4.5,58.03c0,6.73-2.66-8.6,0.72,28.76c3.27,36.15,4.15,28.2,1.94,42.37
		c-1.3,8.34-0.1-0.29-0.82,17.19c-0.24,5.82-4.71,11.07-6.55,22.21c-0.32,1.94-1.13,3.79-0.31,5.83c0.17,0.51-0.57,13.2-0.1,19.34
		c1.38,18.09,5.23,25.2,5.12,40.02c-0.08,10.16,4.28,28.56,0.92,28.56c-2.06,0.11-3.21,2.29-3.68,4.2
		c-0.77,4.61-5.54,8.4-6.86,12.49c-2.52,7.84-6.92,8.43-8.29,15.76c-0.58,3.12-2.43,1.32-2.15,5.63c0.26,3.94,0.42,5.68,1.54,9.31
		c0,0.97-1.18,0.5-1.02,1.74c4.34,6.5,38.16,2.55,32.04-2.05c3.58-3.58,3.68-4.2,2.46-9.93c3.68-2.97,2.76-1.13,9.01-9.62
		c0.2-3.89,1-9.35-1.33-11.87c-2.62-2.84,1.69-12.87-4.81-17.4c4.93-29.57,2.61-43,9.01-56.09c4.51-9.24,3.88-17.81,4.3-25.08
		c0.25-4.3,0.81-8.6,0.31-13c-0.37-3.28,3.5-10.86,4.5-17.6c0.77-5.17,3.89-9.54,3.89-21.8c0-19.55,11.67-37,17.5-67.55
		c3.17-16.61,0.96-11.06,4.5-21.7c3.1-0.21,1.9,1.64,4.81,11.67c17.9,61.74,9.65,17.5,21.19,66.53c0.25,1.06,0.2,2.07,0.2,4.5
		c0.43,7.47,2.49,11.49,7.27,24.97c1.23,3.48,2.46,7.06,5.22,9.62c0,6.16-1.96,8.02-0.41,18.32c0.87,5.8,0.77,14.12,4.5,25.59
		c10.15,31.17,2.45,10.69,13.82,57.42c0.83,3.42-0.01,1.96,0.92,10.34c0.43,1.73,2.12,2,2.66,1.33c1.23-1.33,2.26-2.76,2.35-4.61
		c0.11-2.15,1.13-3.79,1.84-5.73c10.16-1.51,7.22-1.75,10.23,0.41c1.59,4.77,0.05,3.11,4.71,8.7c-4.17,0-11.36-0.3-12.28,3.79
		c-0.19,0.82-0.2,1.64,0.72,2.05c7.97-4.19,8.46-1.27,13.31-4.5c7.29,5.83,1.42,3.09,10.13,15.15c7.57,10.46,9.58,11.14,9.83,14.84
		c0.19,3-2.17,2.93-2.21,3.06c-2.03,0-1.27,6.56-23.27,4.92c-5.43-0.4-6.41-3.03-8.6-5.22c-0.29-1.17-0.27-3.2-0.2-3.89
		c0.53-5.24-3.43-3.29-8.9-6.45c-2.14-1.24-2.28-3.95-4.2-5.42c-0.81-0.63-1.28-3.63-1.02-4.71c1.99-8.42,4.13-9.3,3.68-21.6
		c-0.1-0.41-0.31-0.72-0.51-1.23c-0.82,0.62-1.41,0.09-1.74,5.32c-0.39,6.23-4.19,18.77-4.3,19.75c-0.33,3.1,1.13,2.13,3.79,7.27
		c0.98,1.9,3.74,3.07,6.24,4.5c2.76,1.38,1.82-0.21,4.91,0.82c0,0.82,0.2,1.54,0,1.94c-1.21,2.01,1.24,9.3,7.98,10.64
		c7.38,1.47,18.45,1.82,22.41-0.82c1.42-0.95,2.77-2.14,4.4-2.76c2.36-0.9,3.13-2.56,3.28-4.81c0.29-4.47-2.14-6.55-5.83-11.26
		c-0.9-1.15-1.33-2.56-2.35-3.48c-3.28-3.28-5.11-7.27-6.65-11.46c-3.09-8.43-8.81-4.53-10.75-16.17c-0.6-2.19-1.43-2.42-3.48-3.79
		c0-4.94,0.73-4.84-0.2-12.28c-0.8-6.41,0.26-13.98,0.72-20.37c0.62-8.75-0.67-4.96,0.41-20.37c2.6-37.11-3.61-41.29-8.39-65.2
		c-0.18-0.93-0.4-1.84-0.2-2.76c0.75-3.57,0.44-7.26,0.72-10.85c0.71-9.11,1.65-15.35,0.92-16.38c-1.38-1.96,0.31-3.44,0.31-21.6
		c1.02-0.92,2.17-1.42,2.76-2.76c5.43-12.2,4.81-8.86,5.63-11.26c5.45-16,2.96-17.04,7.47-20.37c0-5.67-0.15,2.54-0.61-18.22
		c-0.09-4.23,1.75-1.71,2.46-7.16c1.05-8.13-2.09-9.06-2.66-14.64c-0.14-1.34-1.06-12.57-1.33-13.2c-0.86-1.58-0.83-6.83-2.25-16.68
		c-3.34-23.09,1.96-27.48-2.56-41.55c-0.2-0.41-0.1-0.82-0.1-1.23c1.74-1.23,3.28-2.46,5.02-3.68c4.42,0.88,6.84,1.71,9.01-2.25
		c1.33-2.44,0.02-2.3,5.02-2.66c10.02-0.72,11.4-0.43,12.59,1.02c0.41,0.61,1.33,0.92,1.84,1.54c2.35,2.35,5.22,2.87,8.39,2.76
		c5.67-0.19,6.55-3.21,8.19-4.3c7.53,0,94.28,1.38,101.63,1.43C395.6,215.38,393.63,212.73,393.04,212.58z M229.49,204.8
		c1.43,3.89,3.17,7.88,4.61,12.08c-3.38,1.74-6.86,2.76-9.93,4.2c-1.23-0.1-0.82-1.84-2.15-1.64c-0.51,0.82,0.72,1.13,0.51,1.94
		c-0.57,0.57,1.74-0.37-7.98,3.28c-0.19-0.12-0.72-0.35-0.72-0.61c-0.71-9.46-4.4-19.05-4.4-25.59
		C211.46,198.96,214.52,200.06,229.49,204.8z M219.56,227.01c-0.41,0-0.72,0-1.02,0.1c-0.55,0.83-1.35,0.5-2.02,0.57
		c0.53-0.55,1.36-0.48,2.02-0.57C218.74,226.6,219.05,226.6,219.56,227.01z M216.15,227.9c-0.46,0.57-1.06,0.55-1.75,0.55
		C214.79,227.77,215.52,228.03,216.15,227.9z M216.28,250.86c2.5,6.48-1.72-4.76,8.29,25.28c10.68,32.05,8.61,31.96,3.38,38.69
		c-1.1-2.19-0.49,1.23-3.48-14.84c-0.45-4.03,1.51,1.64-3.79-12.59c-18.71-50.3-9.98-26.9-16.89-51.07
		c2.05-2.35,4.71-2.46,7.16-2.97C213.13,242.04,209.13,232.31,216.28,250.86z M208.51,231c-7.46,3.64-19.15,4.15-21.29,3.58
		c-0.32-1.92-0.41,0.95-0.41-6.04c3.48-0.51,7.06,0,10.54-1.43c1.35,7.66,0.77,4.3,3.07,4.3c2.12,0,2.37-0.39,11.87-2.76
		C217.44,227.76,209.95,230.29,208.51,231z M201.75,221.48c0.51-1.13,2.13-1.53,1.84-2.87c-0.22-1.02-0.82-1.94-1.23-2.97
		c0.72-1.64,2.64-2.46,2.87-4.61c0.19-1.74,0.1-3.48-1.02-4.91c0.72-1.64,2.05-2.76,1.94-4.61c-0.1-1.84-1.54-2.87-2.25-4.3
		c2.25,0,2.95,0.31,2.97,1.94c0.05,4.3,1.54,8.31,2.35,12.38c0.46,2.32,3.19,6.44,2.05,14.43c-3.38,1.43-6.76,2.66-10.54,3.17
		c-0.33-3.93-0.7-3.2,1.13-4.3C202.57,223.73,201.85,222.61,201.75,221.48z M215.77,198.04c-4.4-0.61-7.8-1.58-11.26-2.66
		c-1.24-0.39-1.54-1.54-1.84-2.87c-0.82,1.54-1.54,2.66-2.35,3.68c-5.71-1.14-7.17,0.63-9.11-1.74c0-8.31,2.45-4.49,7.27-4.81
		C202.45,189.65,203.89,192.1,215.77,198.04z M204.62,188.94c0.13-0.13,0.31-0.18,0.31,0.2
		C204.65,189.41,204.78,189.1,204.62,188.94z M185.58,106.95c4.35,0,1.56,0.95,13.61,5.53c19.33,7.34,19.71,10.07,22.52,31.83
		c0.33,2.52,1.19,4.35,0.61,12.18c-0.9,12.31,1.64,17.86,1.64,23.44c0,5.9,1.33,9,3.89,19.24c-7.27-2.05-13.41-5.32-19.96-7.57
		c-2.39-9.57-2.66-11.36-1.94-14.84c0.99-4.8,0.18-9.88,1.23-14.64c0.61-2.75,1.53-11.77,1.54-11.87c0.55-7.77-1.74-1.71-3.28-0.31
		c-4.2-5.46-7.11-7.11-13.61-19.45c-2.16-4.1-2.9-9.17-3.58-12.08c-0.89-3.79-1,0.82-2.76-11.16
		C185.37,107.16,185.48,107.06,185.58,106.95z M179.75,44.73c-0.41,0.41-0.72,0.72-1.43,1.23
		C178.52,45.03,179.13,44.73,179.75,44.73z M180.46,46.36c0.72,1.84,0.72,3.48,0,5.42c-0.82-1.02-1.54-1.74-2.15-2.46
		C178.62,48.1,179.34,47.28,180.46,46.36z M179.03,52.71c0,2.46-0.61,4.71-2.66,6.65c-0.54-0.9-1.35-1.5,0.1-3.28
		C177.75,54.52,177.95,55.96,179.03,52.71z M175.65,34.39c0,0.6,0.27,0.25-0.41,0.92C174.8,34.87,175.02,34.7,175.65,34.39z
		 M174.63,32.75c-0.41-0.41,0.03-0.17,0.41-0.92C175.04,32.07,175.61,31.77,174.63,32.75z M167.36,12.59
		c-1.02,1.84-1.84,3.57-3.47,4.7c0.04-2,1.24-3.72,2.34-5.93C166.75,11.87,167.05,12.18,167.36,12.59z M164.7,6.04
		c1.56,3.65,2.15,2.42-1.33,1.43C161.08,6.82,160.55,6.74,164.7,6.04z M163.78,12.89c-0.04,0-0.07,0-0.1,0.01
		C163.97,12.66,163.9,12.89,163.78,12.89z M162.86,12.99c-0.49,0.38-0.8,0.71-1.85,1.76c1.03-5.48,0.63-4.14,1.65-4.82
		C163.47,10.95,162.66,11.96,162.86,12.99z M157.23,2.35c2.46,0.29,5.22,0.1,6.96,2.56c-2.58,2.02-4.09,2.96-6.24,1.64
		c0.31-0.51,0.51-0.82,0.82-1.13c-0.82,0.31-1.64,0.51-2.46,0.82c0-1.54,1.74-1.64,2.25-2.87c-2.35-0.31-3.07,1.74-4.5,2.97
		c-1.13-0.2-2.25-0.41-3.68-0.61C152.42,3.68,154.47,2.03,157.23,2.35z M150.37,12.79c0.2,0,0.31,0,0.31,0
		c0.34,1.01,0.19,0.94,0,1.13C150,13.92,150.37,13.45,150.37,12.79z M149.86,8.49c0.1,0.31,0.31,0.61,0.31,0.72
		c-1.15,2.69-0.66,2.02-1.94,2.66C148.52,8.25,148.11,8.93,149.86,8.49z M145.25,9.31c0.31-0.2,0.61-0.41,0.92-0.41
		c1.03,0,2.46,7.14,1.94,11.16C143.27,15.04,144.81,9.53,145.25,9.31z M136.14,12.49c0.1,2.05,0.82,3.38,0.61,4.91
		C134.4,15.04,134.4,14.74,136.14,12.49z M127.55,55.06c-2.09-1.96-1.27-5.47-0.72-4.91C128.49,51.39,127.87,50.61,127.55,55.06z
		 M127.96,48.21c-0.76,0-0.51-0.21-0.51-0.51c0.2,0.1,0.41,0.2,0.61,0.31C128.06,48.1,128.06,48.21,127.96,48.21z M130.92,64.17
		c-1.02-1.33-1.23-2.56-1.23-3.89C130.92,61.2,131.23,62.43,130.92,64.17z M134.4,68.47c-2.93-11.37-3.73-10.26-4.09-12.59
		c-0.47-2.98-0.76-10.13-0.41-13.31c0.12-1.12,0.61-2.15,1.02-3.28c-1.72-1.29-2.54-1.26-1.74-3.07c1.43,0.61,1.94,1.64,1.74,3.17
		c2.36-0.51,2.06-1.04,1.33-4.71c-0.41,0.31-0.82,0.61-1.13,0.82c-1.23-0.41-0.2-1.43-0.51-2.15c-0.51-0.88-1.21-3.02-1.64-4.5
		c1.02-0.61,1.13,0.61,1.94,0.61c-1.17-4.68-1.28-3.68,0.61-3.99c-0.1-1.13-1.33-1.64-1.33-2.97c1.79-1.79,1.43-1.79,1.43-4.09
		c0.31,0,0.61-0.1,0.72,0c2.71,2.71,2.19,2.58,3.58,3.28c0.99-1.42-0.72-0.47-2.15-5.73c1.43,1.84,2.66,3.17,3.79,4.61
		c1.97-1.31,0.97-2.34-0.51-7.98c0.51-0.51,1.13-1.02,1.84-1.64c1.43,2.86,0.05,7.17,4.39,9.11c-0.06,0-0.12,0-0.19,0
		c0,0.61,0.2,0.92,1.23,1.02c-1.71-1.71-1.52-4.35-2.87-7.16c-0.53-1.12-1.02-2.56-0.61-3.99c1.43-0.51,1.63-0.51,1.84,0.41
		c0.7,2.98-1.3,0.77,0.92,5.53c3.14,6.71,2.34,5.4,8.39,6.04c0-1.54-0.1-2.97,0-4.5c0-1.43,0.31-2.76,0.41-4.2
		c0-5.09-1.26-4.56,3.07-4.2c0.62,5.57,1.71,0.73,2.35,0c0.72,0.1,1.54,0.2,2.56,0.31c0,2.56-0.41,4.71-2.05,6.55
		c-0.38,0-0.16,0.31-0.41-2.87c-2.1,4.19-2.87,7.63-2.25,1.74c0.46-4.35,0.91-3.7-1.64-0.31c-1.11-3.32-0.6-2.63-1.33,6.45
		c3.7,2.03,4.87-1.51,7.06-4.5c0.91-1.25,1.44-2.4-0.41,2.46c0.57-0.09,0.96-0.1,1.34-0.18c0.31,0.49,0.6,0.49,0.81-0.02
		c-0.27,0-0.47,0-0.72,0c0-0.61-0.1-1.23,0.72-1.43c-0.34-1.7,1.8-2.64,1.44-4.2c0.19,0,0.43,0,0.6,0c0,1.74-0.2,3.38-1.84,4.3
		c0,0.51,0,1.02,0,1.54c0.72-0.51,1.42-0.92,2.14-1.42c-0.08,0.57-0.09,1.16-0.19,1.83c1.63,0.09,1.5-1.88,2.57-2.43
		c-0.67,2.6-1.36,2.38,1.32,3.14c0.31-0.72,0.82-1.54,0.61-1.94c-1.08-1.7,1.03-3.62-0.64-3.12c0.22-1.44,0.31-0.95,0.95-1.59
		c2.35,1.1,5.86,4.45,3.48,6.24c-0.41-0.72-0.82-1.33-1.23-2.05c-1.43,1.33-1.43,1.33-2.35,3.89c1.23,0.2,1.23-1.33,2.15-1.43
		c0.1,0.1,0.31,0.31,0.31,0.41c-0.41,2.15,1.33,3.48,1.84,5.63c0.41-2.05,0.61-3.79,1.02-5.94c3.28,4.1-2.91,7.97,0.1,11.26
		c0.31-0.92,0.61-1.94,1.02-3.07c0.61,1.94,0.61,1.94-1.02,3.07c-0.2,1.13-0.51,2.25-0.82,3.58c1.9,2.28,1.95,2.12,1.94,2.56
		c-0.15,8.21,2.79,11.41,0.31,17.19c-2.59,6.04-0.76,5.99-5.22,18.22C163.84,89.81,139.78,89.35,134.4,68.47z M158.05,16.48
		c0,0.15-0.76,0.35,0.02-0.43C158.09,16.19,158.12,16.33,158.05,16.48z M132.97,105.01c3.51-3.32,7-9.55,6.86-13.51
		c0.66,0.96,5.03,12.49,2.15,1.74c-0.65-2.45-0.61-2.46-2.15-3.89c1.84-2.25,1.02-4.81,0.2-7.68c8.2,4.1,12.83,7.44,18.12,4.09
		c1.5-1.07,5.92-1.66,8.7-5.42c3.05,5.09-0.27,10.68,8.09,20.98c0,16.93,2.86,15.02,3.58,19.55c1.51,9.43-0.4,11.13-4.2,14.53
		c-4.7,4.21-9.11,6.24-15.25,7.06c-0.2-2.76-0.31-5.32-0.41-8.7c-3.01,5.48,0.12,8.7-2.15,8.7c-5.42-0.82-10.65-2.15-15.66-4.09
		c-1.84-0.72-3-1.83-3.68-3.79C131.29,117.83,132.79,115.86,132.97,105.01z M130.52,105.93c1.13,0.61,0.61,1.33,0.41,1.94
		c-4.01,12.46,3.22,25.36,4.4,30.09c13.13,8.08,28.65,7.65,31.52,5.83c11.71-7.41,9.43-6.41,13.1-10.85
		c0.81-0.98,0.58-0.95-1.13-17.71c0-10.1-3.81-8.43-2.15-12.59c1.64,0.1,3.17,0.51,4.61,1.84c4.28,16.06,1,12.14,11.26,33.57
		c3.4,7.1,5.51,5.99,8.09,10.03c1.78,3.21,5.76,5.38,3.99,11.57c-1.81,6.33-0.45,6.98-1.13,18.22c-0.55,9.16-0.6,8.54-0.82,9.42
		c-3.44-1.4-2.49-1.26-10.95-0.2c-1.74,2.15-1.23,4.81-1.94,7.27c-0.96,0.16-41.98,3.78-71.24-1.84c-0.31-0.72-0.71-1.54-0.92-2.25
		c-5.8-19.47-7.98-19.77-8.09-25.79c-0.06-3.15-2.02-4.9,0.31-9.21c12.49-23.16,15.05-26.06,15.05-46.16
		C126.73,108.08,128.67,106.95,130.52,105.93z M181.69,197.53c-3.09,2.43-1.78,3.17-7.47,7.16c-0.72,0.51-1.64,0.82-2.46,1.33
		c-2.46,1.54-5.01,2.03-7.98,1.64c-5.13-0.68-11.27,0.57-14.33-0.31c-7.93-2.29-15.42-1.34-26.71-3.17
		c-1.36-0.91-2.66-2.95-2.66-5.42c0-1.54-1.02-2.87-0.82-4.71c35.72,6.97,38.61,3.26,61.51,2.87
		C181.85,196.9,181.79,197.53,181.69,197.53z M109.12,197.74c-2.15-0.43-4.3-0.72-6.55-1.13c-0.72-2.56,1.28-4.2,1.43-6.45
		c0.15-2.24,2.37-9.88,2.97-13c1.32-6.91,1.07-12.48,3.07,2.05c0.73,3.65,1.61,1.58,2.15,3.68
		C118.75,208.44,118.41,199.6,109.12,197.74z M86.71,221.69c-8.75-1.39-10.13-4.69-10.13-11.57c-0.75-11.3-5.15-41.18,6.14-58.34
		c0.53-0.81,0.9-1.54,1.02-2.56c3.28-27.07,6.18-31.74,16.89-34.7c6.05-1.67,6.11,1.21,14.74-2.56c1.34-0.59,2.66-1.54,4.3-1.02
		c0.51,0.2,1.33-0.31,2.15-0.51c1.67,11.72-5.18,26-5.32,26.51c-1.02,4.61-3.79,8.19-6.14,12.28c-0.72-1.02-1.33-1.84-1.64-2.66
		c-0.82,0-0.92,0.72-0.92,1.23c0,8.61,1.32,1.49-4.4,30.09c-1.33,4.64,0.71,0.65-2.05,9.52c-0.72,2.3-1.63,7.59-2.05,10.54
		c2.5,2.5,0.48,0.72,3.99,0.72c1.38,0,4.09,0.93,5.42,1.23c1.51,0.34,1.76,2.02,8.39,4.91c10.03,4.38,13.63,3.77,50.77,5.83
		c1.79,0,5.32,0.31,5.73-2.15c0.39-2.33,2.69-1.28,7.27-6.86c5.94-7.23,7.29-3.02,17.6-3.48c2.05-0.09,3.61,0.69,4.91,2.15
		c0.63,0.7,0.61,1.13-0.31,2.56c-0.51-0.82-1.02-1.54-1.74-2.76c0,2.35,0,4.2,0,6.45c0.54,1.07,3.39,3.07,0.92,6.04
		c-1.54,1.84-1.74,3.79-1.23,6.04c-3.28,2.78,1.03,5.05-3.17,6.04c-2.46,0.58-4.91,1.34-7.57,1.23c-8.09-0.34-7.31,1.21-11.46-0.1
		c-5.15-1.63-12.17,0.96-20.27,0.61c-1.83-0.08-10.9,1.54-16.07,1.54c-3.03,0-14.7-0.03-17.5-1.23
		C124.08,226.25,121.91,227.26,86.71,221.69z M112.91,263.55c14.05-27.65,11.02-20.03,12.28-33.88c3.89-1.22,8.68,1.72,25.69-0.2
		c6.97-0.79,3.09-0.19,20.67-1.64c8.01-0.66,4.62,2.12,13,1.02c1.07,6.44-4.23,7.52,16.17,8.9c0.92,2.76,2.45,5.43,3.07,8.39
		c2.08,9.91,5.53,15.62,5.53,17.81c-1.6,0.63-19.35,5.22-25.79,5.22c0.35-1.77,0.76-1.7,2.66-6.14c-2.04,1.22-0.66-0.48-4.91,6.24
		c-38.72,3.23-33.77,1.36-69.09-3.68C112.5,264.78,112.6,264.16,112.91,263.55z M120.49,557.09c0,12.2,4.05,2.68,2.35,15.66
		c0,3.22-2.01,7.33-6.19,8.52c-0.03,0.1-0.46,0.59-2.1,2.23c0.51,4.12,1.18,6.39-1.02,8.39c-4,3.65-4.05,3.7-5.12,3.99
		c-7.32,2.01-15.17,2.41-22.72-0.1c9.57-3.91,8.7-0.31,16.68-0.31c-1.38-1.93,0.1-0.85-4.71-2.46c-0.82-0.2-1.84-0.31-2.25-0.82
		c-1.13-1.23-2.35-1.11-3.58-0.82c-8.05,1.92-7.13,2.73-7.47,0.51c-1.13-7.45-1.23-8.34,0-9.93c0.89-1.15,3.11-5.29,3.99-6.55
		c1.09-1.56,2.35-2.97,3.48-4.5c2.77,0,14,0.52,16.48-0.31c1.49-0.37,0.69-1.96,0.1-2.25c-3.32-1.33-9.76-1.63-15.15,0.41
		c0-0.56,0-1.04,0-1.43c0.41-0.2,0.61-0.41,0.82-0.41c19.85-0.19,15.81-0.29,17.91-1.13c-0.1-1.23-0.82-1.72-1.64-1.84
		c-13.78-2.08-19.27,3.83-14.33-2.76c5.94-0.61,11.26-0.61,16.27,1.23c1.76-1.32-0.75-2.97-3.07-3.38
		c-6.85-1.19-9.04-0.92-10.34-0.92c2.55-7.14,2.21-10.13,4.5-9.62c2.76,0.61,5.53,0.2,8.49,0.2
		C116.59,553.08,116.64,558.13,120.49,557.09z M119.67,549.51c0.24,0.24,0,0.21,0,0.41C119.51,549.77,119.38,549.51,119.67,549.51z
		 M118.95,551.97c-0.51,0.51-0.43,0.29-0.72,0C118.23,551.58,118.72,551.85,118.95,551.97z M156.31,340
		c-12.36,53.2-10.49,33-16.27,59.67c-1.77,8.16-0.85,11.95-2.87,23.34c-3.5,19.75-7.28,23.62-8.29,41.66
		c-0.25,4.53-0.15,15.8-3.89,24.15c-5.3,11.82-6.54,60.59-8.29,60.59c-1.07-3.74-1.21-6.22-1.74-0.92c-0.83,0-1.1-2.69-6.14-2.25
		c-2.01,0-1.9-0.17-2.25-0.41c0-4.99-2.79-36.56-5.02-50.56c-7.13-44.9,4.5-57.34,3.68-61.72c-0.56-2.98,0.43-5.94,0.1-9.01
		c-0.36-3.45,1.14-7.95,2.15-13.51c1.76-9.73-5.4-45.42-3.79-72.77c6.91,0.73,8.74,2.57,11.97,2.25c4.8-0.47,9.52,0.92,14.33,0.92
		c2.2,0-0.18,1.84,11.36,0.1C155.5,339.4,157.82,333.5,156.31,340z M170.02,328.85c-0.71-3.51-2.49-7.98-5.94-9.21
		c-4.67,2.12-3.26-0.71-6.55,13.92c-3.68,1.91-8.49,2.72-15.45,4.61c-5.53,1.5-9.87-0.52-23.85-1.23
		c-4.17-0.21-11.19-1.65-14.53-2.76c0-8.65,1.39-23.35,2.35-31.52c1.08-9.21,0.67,4.08,4.09-19.34c1.05-4.74-3.78-1.92,22.41-3.79
		c-7.57-0.2-14.43-0.31-21.29-0.51c-0.51-2.97-0.31-6.35,0.61-9.62c8.5,1.42,2.52-1.26,25.18,3.17c19.02,3.72,28.91,0.41,39.2,0.41
		c11.92,0,28.5-4.84,33.98-5.53c0.82,0.82,0.51-0.5,3.89,10.64c-0.92,0.31-1.64,0.51-2.56,0.82c2.8,0.31,2.73-0.11,3.48,2.15
		c9.53,28.58,0.88-5.81,9.83,38.89c0.7,3.48,0.31,7.06,0.61,10.44c-0.61,1.13-1.53,1.66-2.56,1.94c-4.66,1.31-11.27,4.47-15.86,4.5
		C170.61,337.12,171.68,336.98,170.02,328.85z M223.24,548.69c-0.28-0.28-0.46-0.05-0.1-0.41
		C223.49,548.63,223.24,548.33,223.24,548.69z M227.85,365.39c-0.9,17.08,0.42,16.62-0.92,41.55c-0.21,3.99-1.86,18.19,1.23,21.8
		c0.87,1.16-0.01,1.45,3.28,11.16c7.44,21.98,1.04,50.08,2.76,98.46c-11.4,1.43-8.56,2.38-11.26,7.78c-0.6-8.06-0.23-7.44-1.64-6.04
		c-6.44-29.71-5.21-32.65-8.8-44.11c-4.13-13.18-9.15-23.32-8.7-46.77c0.12-6.28,0.71-8.02-0.82-13.61
		c-1.26-4.59-4.64-2.56-3.89-5.63c0.48-1.98-0.3-3.31-4.4-12.49c-4.81-10.77,0.93-25.44-14.53-57.93c-2.73-5.74-2.88-6.89-7.88-21.9
		c6.96,2.65,16.89,2.37,24.26,1.54c9.96-1.13,17.63,0.01,24.97-3.38c1.33-0.61,2.76-1.13,4.4-1.02c0.72,1.43,0.43,2.76,0.31,4.2
		c-0.9,10.69,2.18,11.87,2.05,13.92c-0.1,1.43,0.2,2.76,0.41,4.5C227.44,359.86,225.5,362.52,227.85,365.39z M231.64,366.72
		c-0.49-1.71-0.71-0.52,1.33-3.58C233.17,364.67,232.25,365.39,231.64,366.72z M239.93,262.52c0.01,0.1,4.79,37.54,5.02,37.87
		c2.18,3.12,0.92,6.55,1.23,9.83c0,1.36-4.16,2.99-1.13,22.72c-1.39,2.5-6.79,15.36-8.19,19.75c-0.81,2.53-2.11,4.95-6.55,11.97
		c-2.05-0.61-1.23-2.35-1.64-3.38c2.46-3.28,4.01-6.75,4.71-10.54c1.71-9.36,4.89-11.08,3.28-14.43c-0.6-1.24-0.51-2.46-0.1-3.79
		c0.2-0.82,0.1-0.82-0.72-2.35c-2.59,3.63-1.67,3.39-2.66,4.5c-3.6,4.03,2.13,6.28-2.56,12.9c-0.41,0.51-0.61,1.02-1.02,1.74
		c-2.8-3.5-0.51-7.42-0.51-13.61c0-4.08-1.64-2.57-2.05-6.65c-0.6-6.14,1.65-10.47,2.97-11.57c2.12-1.77,3.48-4.09,4.3-6.76
		c0.51,0.31,0.92,0.51,1.64,0.92c0.61-2.46,1.23-4.71,0.61-7.47c-1.43,1.54-0.72,3.38-1.43,4.81
		c-2.96-27.94-14.39-45.73-14.84-50.77c-0.32-3.6-2.46-9.49-3.48-11.36c-3.2-5.87-3.16-12.74-2.66-14.33
		c2.42-1.48,7.07-1.79,8.39-2.76c0.94-0.69,13.3-6.3,13.41-6.35C240.62,234.36,237.91,245.72,239.93,262.52z M234.2,340.11
		c0-1.94,0-3.79,0.51-6.04c1.02,1.94,1.02,2.25,0.61,4.71C235.22,339.18,235.22,339.18,234.2,340.11z M237.16,216.16
		c-2.76-2.87-2.76-6.65-3.48-10.75c3.28,0.2,6.04,0.82,9.01,1.54c0.92,2.66,0.41,5.32,0.72,8.19
		C241.36,215.44,239.31,215.75,237.16,216.16z M247.19,206.64c2.81,0.49,2.01,1.91,2.56,2.46c-0.23-0.23-0.2,0.11-0.2-0.41
		c-1.33,0.41-2.35-0.41-3.48-0.92C246.17,206.95,246.58,206.54,247.19,206.64z M249.85,214.52c-1.61,1.61-3.15,1.25-5.02,1.02
		c0.2-1.94,0.41-3.58,0.61-5.32C247.78,209.95,251.87,212.26,249.85,214.52z M254.67,211.25c0.58-0.29,0.66-0.26,0.92,0
		C254.8,211.64,254.92,211.25,254.67,211.25z M279.54,214.63c2.23-0.28,3.57,0.43,4.4-1.23c-11.82-0.34-9.48-0.19-10.54-0.72
		c0.24-1.69,0.59-3.48,2.05-2.56c1.35,0.85,2.41,0.87,6.04,1.13c0.2,0,0.51-0.2,1.02-0.41c-1.02-1.02-2.46-1.02-3.68-1.94
		c9.39,0,6.98,2.93,7.68,4.5C284.31,218.05,273.12,214.63,279.54,214.63z"/> <path d="M116.39,581.34c0.09-0.02,0.17-0.05,0.26-0.08C116.67,581.19,116.48,581.31,116.39,581.34z"/> <path d="M247.5,561.18c0-1.16-1.79-1.69-2.76-1.54c-8.6,1.35-10.45,1.6-11.77,3.58c-0.41,0.51-0.72,1.23,0,1.84
		c1.84-0.2,3.58-0.61,5.53-0.51c-0.65,1.55-7.66,4.66,8.49,2.76c0.92-0.2,1.84-0.31,2.56-1.02c0.51-0.61,0.51-1.73-0.2-2.15
		c-1.14-0.67-1.58-0.51-5.42-0.51C243.92,562.96,247.5,562.91,247.5,561.18z"/> <path d="M685.45,560.98c0-0.77-1.41-1.62-2.35-1.43c-7.52,1.04-10.58,1.39-12.08,3.68c-0.4,0.62-0.72,1.23,0,1.84
		c1.74-0.31,3.58-0.72,5.73-0.51c-1.02,1.02-2.35,1.43-2.35,3.07c3.68,0.31,7.17,0.03,10.44-0.31c3.67-0.38,3.27-2.78,2.35-3.17
		c-1.13-0.68-1.46-0.51-6.24-0.51C684.55,562.24,685.45,562.2,685.45,560.98z"/> <path d="M230.61,562.51c7.05-4.7,13.89-2.43,14.43-5.94c-0.51-0.2-1.02-0.7-1.64-0.72C237.7,555.75,229.05,557.03,230.61,562.51z"/> <path d="M668.67,562.51c7.04-4.69,13.89-2.43,14.43-5.94c-0.51-0.2-1.02-0.7-1.64-0.72C675.76,555.75,667.1,557.03,668.67,562.51z"/> <path d="M250.98,587.28c3.51-2.26,5.12-1.54,10.41-1.13c0.41-1.19,0.18-1.75-0.69-1.94c-4.71-1.57-7.48-0.58-11.57,0.92
		c-1.31,0.66-0.7,0.21-3.17,4.09C247.94,589.79,246.89,589.91,250.98,587.28z"/> <path d="M689.04,587.28c3.51-2.26,5.12-1.54,10.41-1.13c0.41-1.19,0.18-1.75-0.69-1.94c-4.71-1.57-7.48-0.58-11.57,0.92
		c-1.14,0.57-0.79,0.18-3.07,3.99C685.02,590.38,685.84,589.34,689.04,587.28z"/> <path d="M244.53,568.75c-1.43,0.2-2.76,0.61-4.2,2.35C255.15,573.28,257.86,566.85,244.53,568.75z"/> <path d="M680.13,569.57c-0.51,0.22-0.92,0.72-1.33,1.02c0,1.3,8.86,0.66,9.62,0.61c1.08,0,2.76-0.33,2.76-1.54
		C691.19,567.31,682.95,568.37,680.13,569.57z"/> <path d="M251.8,572.54c-1.02-0.2-3.48,0.41-4.81,1.13C251.23,576.57,254.03,573.29,251.8,572.54z"/> <path d="M689.14,572.44c-1.33,0.21-2.76,0.51-4.4,0.82c0.72,1.43,1.74,1.33,2.66,1.43C691.38,575.35,691.27,572.1,689.14,572.44z"/> <path d="M624.56,316.05c-2.87,0.2-16.38,3.38-18.63,4.91C608.84,321.69,621.77,317.11,624.56,316.05z"/> <path d="M589.76,317.38c-3.17-1.23-6.45-1.74-9.83-1.74C589.68,318.08,589.27,318.36,589.76,317.38z"/> <path d="M637.45,284.53c2.24-0.37,2.68-1.57-1.54-0.51C633.22,284.69,636.48,284.64,637.45,284.53z"/> <path d="M611.46,314.42l-0.1-0.1C611.15,314.46,611.21,314.39,611.46,314.42z"/> <path d="M607.77,318.51c0.96-2.14,0.69-2.28,0.92-2.05c2.03-2.03,5.05-3.12-1.23-1.02C609.71,317.13,607.41,316.34,607.77,318.51z"/> <path d="M611.46,314.42c0.41-0.2,0.92-0.2,1.54-0.2C612.27,313.7,611.86,314.21,611.46,314.42z"/> <path d="M645.44,279.62l-0.31-0.2C645.13,279.68,645.05,279.62,645.44,279.62z"/> <path d="M647.28,428.84c-3.73-7.18-4.74-10.56-6.04-8.29c0.51,3.38,2.97,5.63,5.02,8.29c-1.19,3.95-2.31,6.65,4.71,9.11
		C649.8,434.46,645.9,434.14,647.28,428.84z"/> <path d="M661.5,421.37c0,2.15,0,4.09,1.13,6.35C663.5,425.68,663.37,422.62,661.5,421.37z"/> <path d="M651.27,441.64c0.72,2.56,0.92,2.97,2.87,5.22c-0.31-2.15-0.82-3.48-1.94-4.91C651.99,441.74,651.58,441.74,651.27,441.64z
		"/> <path d="M661.71,437.85c0.31-0.2,0.72-0.31,0.72-0.41c0.51-1.64,0.92-3.28,0.82-5.63C661.91,433.96,661.71,435.9,661.71,437.85z"/> <path d="M660.99,418.3c0.31-1.84,0.1-3.58-0.61-5.32C659.11,421,660.99,418.56,660.99,418.3z"/> <path d="M627.11,370.3c1.43-1.64,1.84-2.97,1.23-4.5C627.52,367.02,627.11,368.35,627.11,370.3z"/> <path d="M659.56,529.35c0,1.23,0,2.05,0,3.07c1.23-0.61,0.92-1.64,0.82-2.35C660.38,529.86,659.97,529.76,659.56,529.35z"/> <path d="M658.13,457.71c0,1.43,0,1.43,0.92,1.84C659.25,458.73,659.05,458.01,658.13,457.71z"/> <path d="M660.28,525.87c0.27-0.8,0.48-0.23,0.1-1.74C660.11,524.93,659.9,524.36,660.28,525.87z"/> <path d="M660.28,405.3c0.1,0,0.2-0.1,0.31-0.1C660.58,404.92,660.28,404.64,660.28,405.3z"/> <path d="M660.99,401.72c0,0.1,0.1,0.2,0.1,0.31C661.62,401.51,660.99,401.16,660.99,401.72z"/> <path d="M628.45,365.9c0-0.2,0.1-0.41,0.1-0.61C628.45,365.49,628.45,365.59,628.45,365.9z"/> <path d="M660.48,469.17c0,0,0-0.1-0.1-0.1C659.99,469.45,660.48,469.7,660.48,469.17z"/> <path d="M549.84,416.15c-1.93,0-1.74,6.91,0.2,10.54c-2.34,2.84-5.13,9.62-0.1,13.71c0-3.31-1.52-1.98,0.41-10.64
		c0.94-3.13,0.1-3.25,0.1-11.46C550.46,417.14,550.5,416.15,549.84,416.15z"/> <path d="M559.46,442.05c0.47,3.3-4.28,8.21-3.07,9.42c1.64-2.15,2.76-4.4,3.99-6.65c0.41-0.61,0.31-0.73,0.31-5.73
		C559.46,439.9,559.26,441.02,559.46,442.05z"/> <path d="M562.84,428.33c-0.41,3.38-0.92,6.14-1.33,9.42c0.72-0.61,1.13-0.82,1.33-1.13c1.24-1.89,2.39-5.57,1.23-7.88
		C563.86,428.54,563.35,428.54,562.84,428.33z"/> <path d="M582.08,377.98c1.13-2.25,1.13-2.25,0.72-4.3C581.98,375.01,581.88,376.44,582.08,377.98z"/> <path d="M553.63,540.2c-0.1-1.23-0.2-2.15-0.2-2.97C552.4,538.25,552.3,539.18,553.63,540.2z"/> <path d="M553.32,462c0.51-0.72,1.23-1.23,0.72-2.56C553.32,460.37,552.71,460.98,553.32,462z"/> <path d="M582.39,362.32l-0.1-0.31C582.16,362.39,582.12,362.32,582.39,362.32z"/> <path d="M600.71,247.07c2.1-1.12,3.76-5.2,1.54-5.42c-0.61,0.72-1.23,1.54-1.94,2.25C599.88,244.32,594.76,245.75,600.71,247.07z"/> <path d="M629.26,255.46c-0.72,1.02-1.64,1.94-1.33,3.99C629.06,258.02,629.57,256.9,629.26,255.46z"/> <path d="M564.78,245.23c0.1,0.31,0.31,0.51,0.41,0.82c0.83-0.42,0.41-0.2,0.41-3.07C564.48,243.69,564.48,243.69,564.78,245.23z"/> <path d="M633.87,249.73c-0.52-1.03-1.86,0.63-0.92,2.66C633.36,251.27,633.67,250.45,633.87,249.73z"/> <path d="M574.4,261.6c0.71,0.71,0.17,0.93,1.13,0.61C574.73,261.02,575.12,261.6,574.4,261.6z"/> <path d="M571.95,258.94c-0.2-0.82-0.31-1.13-0.31-1.33C571.01,257.93,570.67,257.41,571.95,258.94z"/> <path d="M578.09,265.19c-0.23,0.23-0.66,0.2,0.2,0.2C578.19,265.39,578.19,265.29,578.09,265.19z"/> <path d="M624.35,262.52c-0.1,0.2-0.1,0.31-0.2,0.51C624.35,262.93,624.86,262.93,624.35,262.52z"/> <path d="M600.5,179.42c4.77,4.47,11.93,4.01,17.71,4.61c1.06,0,6.91-1.01,11.26-2.46c2.86-0.95,4.81-2.66,6.55-5.42
		c-5.5,0-7.48,6.38-22.93,5.32c-7.14-0.49-10.53-4.45-12.49-4.09C599.99,178.5,599.89,178.91,600.5,179.42z"/> <path d="M638.99,172.15c-0.51,0.82-0.92,1.43-1.74,2.56C639.5,174.3,639.6,174.09,638.99,172.15z"/> <path d="M596,170.1c0.31,2.15,0.31,2.15,2.15,3.99C597.33,172.36,597.02,171.02,596,170.1z"/> <path d="M552.19,171.64c-0.2,0.2-0.31,0.31-0.41,0.31c0.5,1.49,1.3,0.79,1.02,0.51C552.71,172.15,552.4,171.95,552.19,171.64z"/> <path d="M550.35,167.95c0,0.6,0.73,0.74,0.2-0.31C550.56,167.65,550.35,167.75,550.35,167.95z"/> <path d="M639.81,169.39c0.1,0,0.2-0.1,0.31-0.1C640.11,168.73,639.81,169.03,639.81,169.39z"/> <path d="M596,170.1l0.1-0.1C595.72,169.87,595.73,169.83,596,170.1z"/> <path d="M651.37,210.74c-0.6,1.79,2.33,5.79,5.02,7.78C655.98,214.03,653.37,206.74,651.37,210.74z"/> <path d="M674.6,299.37c0-1.02,0-1.84,0-2.97C673.48,298.24,673.48,298.24,674.6,299.37z"/> <path d="M673.68,284.53c0,0.61,0,1.23,0,1.94C674.63,286.34,674.94,284.53,673.68,284.53z"/> <path d="M659.87,219.54c0.61,1.21,0.8,1.14,1.43,0.72C660.13,219.08,660.47,219.24,659.87,219.54z"/> <path d="M674.3,292c0.13,0.13,0.31,0.18,0.31-0.2C674.48,291.67,674.3,291.61,674.3,292z"/> <path d="M582.9,48c0.36,0,0.45-0.98,0.2-1.23c-4.04-4.89-8.09-3.03-11.05-2.05c-0.2,0.1-0.31,0.41-0.51,0.72
		c1.33,0.41,2.25-1.13,3.58-0.41c-1.13,0.82-2.05,1.54-3.07,2.15c0.72,2.17,2.4,0.41,3.79-0.51c0.82,1.43,1.84,2.25,3.48,2.25
		C581.36,47.56,580.5,47.52,582.9,48z"/> <path d="M601.73,43.8c5.25,1.23,4.4,0.98,4.4,0.31c-9.9-2.7-7.82-1.09-12.08,3.17c1.43,1.33,2.05-0.51,3.07-0.51
		c3.07,1.94,3.17,1.43,5.42-0.51c1.23,0.1,2.25,1.23,3.79,0.72C605.42,45.24,603.16,45.54,601.73,43.8z"/> <path d="M581.77,70.62c0,0.1-0.1,0.2-0.2,0.51c2.62,1.09,14.44,0.61,17.19,0c0.2,0,0.31-0.41,0.72-1.02
		c-4.08,0.56-8.35-1.73-11.67-1.13C585.76,69.36,583.82,70.01,581.77,70.62z"/> <path d="M583.41,74.3c0.31,0.51,0.41,0.82,0.51,0.82c5.03,2.01,6.1,2.49,11.16,0.72c0.72-0.2,1.02-0.92,1.13-2.35
		C593.36,75.88,586.97,75.08,583.41,74.3z"/> <path d="M606.54,39.71c0.2,0.1,0.41-0.1,0.92-0.31c-3.68-1.54-7.26-0.98-10.85-0.72c-1.64,0.12-3.38,0.2-5.32,2.25
		C595.53,40.94,599.91,38.5,606.54,39.71z"/> <path d="M571.64,39.71c3.99-0.2,5.63-0.51,12.79,1.23c-4.44-2.96-9.09-3.18-12.79-1.74C571.54,39.2,571.64,39.51,571.64,39.71z"/> <path d="M595.18,62.23c-2.82-1.21-1.56-1.91-3.89-0.51C593.44,63.15,593.44,63.15,595.18,62.23z"/> <path d="M595.28,59.16c0,1.23,0,2.15,0,3.17C596.72,61.31,596.72,61,595.28,59.16z"/> <path d="M592.83,42.78c-0.89,2.68-1.04,1.62-0.51,2.15C594.02,42.38,593.4,43.35,592.83,42.78z"/> <path d="M586.79,62.74c0.72,0,1.33,0,2.05,0C587.81,61.31,587.51,61.31,586.79,62.74z"/> <path d="M577.07,50.15c1.23,0,2.05,0,3.58,0C579.11,49.23,578.29,49.43,577.07,50.15z"/> <path d="M585.15,48c0.1-0.82,0-1.33-0.72-1.54C584.16,47.02,584.24,47.09,585.15,48z"/> <path d="M608.38,36.03c-0.68,0.34-0.31,0.62-0.31,1.74C608.94,37.34,608.76,36.4,608.38,36.03z"/> <path d="M582.39,21.08c-0.51-0.51-0.41-1.13-1.23-1.02C581.06,20.67,581.26,20.98,582.39,21.08z"/> <path d="M591.29,59.26c-0.64,0.32-0.65,0.33-0.41,0.82C591.49,59.77,591.68,60.04,591.29,59.26z"/> <path d="M600.3,48.92c0,0.71-0.07,0.31,0.61,0.31C600.91,48.89,600.69,48.92,600.3,48.92z"/> <path d="M584.84,62.33c0,0.2,0.1,0.31,0.2,0.51c0.1-0.1,0.2-0.1,0.31-0.2C584.99,61.91,585.12,62.19,584.84,62.33z"/> <path d="M570.41,24.05c-0.2-0.2-0.31-0.31-0.41-0.51C570.11,23.74,570.21,23.95,570.41,24.05z"/> <path d="M584.74,60.18c0.51-0.2,0.72-0.41,0.2-1.02C584.95,59.57,584.84,59.87,584.74,60.18z"/> <path d="M569.49,28.14c0,0.1-0.1,0.2-0.1,0.31c0.37,0,0.31,0.08,0.31-0.31C569.7,28.14,569.59,28.14,569.49,28.14z"/> <path d="M584.64,60.38c0-0.1,0.1-0.2,0-0.31C584.64,60.18,584.64,60.28,584.64,60.38z"/> <path d="M571.43,22.3c0.04,0.12-0.07,0.21,0.21,0.21C571.57,22.44,571.5,22.37,571.43,22.3z"/> <path d="M571.33,22.21c0.03,0.03,0.06,0.06,0.09,0.09C571.42,22.25,571.4,22.21,571.33,22.21z"/> <path d="M571.44,22.11l-0.2-0.1C571.36,22.26,571.3,22.24,571.44,22.11z"/> <path d="M610.74,109.72c-2.97-0.2-5.73,0.4-8.6,1.02C594.86,112.33,604.27,111.69,610.74,109.72z"/> <path d="M594.57,108.8c-1.54,1.64-1.84,2.97-2.15,4.2C592.32,113.28,593.17,116.49,594.57,108.8z"/> <path d="M586.69,112.58c-0.96-0.96,0.6-0.65-5.42-1.02C581.92,111.89,580.36,112.23,586.69,112.58z"/> <path d="M598.15,131.21c0-0.1-0.2-0.2-0.31-0.41c-0.31,0.1-0.41,0.1-0.51,0.2c-0.2,0.41-0.72,0.82-0.2,1.43
		C597.4,132.71,598.15,132.5,598.15,131.21z"/> <path d="M601.63,105.62c-0.75,0.75-0.76,0.41-0.51,1.64C602.12,106.26,601.91,106.46,601.63,105.62z"/> <path d="M603.88,89.66c-0.31,1.33-0.61,2.15,0.2,3.07C604.5,91.7,604.8,90.88,603.88,89.66z"/> <path d="M602.96,98.46c-0.38,0.38-0.57-0.14-0.31,1.43C603.35,98.5,603.14,98.63,602.96,98.46z"/> <path d="M579.42,111.46c0.82,0,1.33,0,1.84,0C580.75,111.15,580.34,110.95,579.42,111.46z"/> <path d="M585.36,107.47c0.06,0.12,0.16,0.24,0.2,0.27C585.55,107.72,585.51,107.54,585.36,107.47z"/> <path d="M585.56,107.67c0,0.05-0.01,0.06-0.01,0.06C585.59,107.75,585.6,107.75,585.56,107.67z"/> <path d="M599.07,111.97c0.67-0.67,0.45-0.31-0.1-0.31c-0.1,0-0.1,0.2-0.2,0.31C598.87,111.97,598.97,112.07,599.07,111.97z"/> <path d="M600.2,129.06c0.2,0,0.42,0.08,0.72-0.51C600.45,128.55,600.2,128.6,600.2,129.06z"/> <path d="M585.25,107.16c0.04,0.04,0.11,0.11,0.2,0.2C585.25,107.16,585.25,106.95,585.25,107.16z"/> <path d="M600.91,128.55l0.1,0.1C601.02,128.24,601.05,128.28,600.91,128.55z"/> <path d="M647.69,136.94c-0.51,0.82-0.61,1.43,0.1,2.15C647.58,138.48,648.81,137.86,647.69,136.94z"/> <path d="M646.56,142.98c-0.25-0.25-0.68-0.33-0.2,0.61C646.46,143.39,646.56,143.19,646.56,142.98z"/> <path d="M525.28,146.77c0-1.02,0.31-2.25-1.02-3.58C523.26,151.8,525.28,152.66,525.28,146.77z"/> <path d="M548.1,117.91c-0.33-0.66-0.19-1.54-1.02-1.13C547.08,117.56,546.75,117,548.1,117.91z"/> <path d="M526.81,153.52c-0.1,0-0.1-0.1-0.2-0.1c-0.1,0.1-0.2,0.31-0.2,0.51C526.78,154.31,526.51,154.13,526.81,153.52z"/> <path d="M548.51,118.11c-0.1,0-0.31-0.1-0.41-0.2C548.2,118.11,548,118.62,548.51,118.11z"/> <path d="M529.37,574.9c2.68,1.34,11.12,1.29,12.59,0.31C545.91,572.57,531.22,569.87,529.37,574.9z"/> <path d="M535.72,577.15c-1.54-0.31-2.97-0.2-4.61,0.72c1.43,0.61,2.46,1.72,3.89,1.94C537.98,580.27,538.26,577.66,535.72,577.15z"/> <path d="M554.45,581.24l0.1-0.1C554.42,581.14,554.49,581.12,554.45,581.24z"/> <path d="M553.53,581.24c1.34-0.43,0.64,1.11,1.64-3.89C553.32,579.5,553.32,579.5,553.53,581.24z"/> <path d="M517.4,206.23c-0.1-0.31-0.51-0.51-0.72-0.72c-0.82,1.02-0.92,1.33-0.31,2.05C517.05,208.47,517.85,208.49,517.4,206.23z"/> <path d="M596.73,5.35c0.01,0,0.01,0,0.02-0.01l0.07,0.08c0-0.39,0.03-0.37-0.1-0.1l0.02,0.02L596.73,5.35z"/> <path d="M168.38,321.17c6.14-0.82,11.87-2.87,17.5-5.32c-5.83,1.43-11.77,2.87-17.5,4.3C167.65,320.51,168.26,321.17,168.38,321.17
		z"/> <path d="M152.11,317.49c-3.48-1.43-6.86-2.05-11.05-2.35C147.2,317.18,149.86,317.69,152.11,317.49z"/> <path d="M201.55,283.61c-2.05-0.1-3.48,0.41-4.81,1.02C198.27,284.84,199.81,284.84,201.55,283.61z"/> <path d="M173.4,314.42l-0.1-0.1C173.1,314.46,173.15,314.39,173.4,314.42z"/> <path d="M169.72,318.51c0.97-2.4,0.77-2.2,0.92-2.05c2.03-2.03,5.05-3.12-1.23-1.02C171.66,317.13,169.35,316.34,169.72,318.51z"/> <path d="M173.4,314.42c0.41-0.2,0.92-0.2,1.54-0.2C174.22,313.7,173.81,314.21,173.4,314.42z"/> <path d="M207.38,279.62l-0.2-0.2C207.04,279.68,206.99,279.62,207.38,279.62z"/> <path d="M209.22,428.54c-5.25-9.19-4.21-9.31-6.04-8.09c0.35,2.97,2.64,5.47,5.02,8.49c-1.13,5.07-2.09,5.76,4.81,9.42
		C212.44,434.38,207.73,434.75,209.22,428.54z"/> <path d="M222.94,421.99c0.61,1.74,0.51,3.68,1.74,5.63C225.7,424.39,224.24,420.04,222.94,421.99z"/> <path d="M213.42,441.74c1.02,3.28,1.02,3.28,3.07,5.22C215.77,444.81,215.26,442.86,213.42,441.74z"/> <path d="M223.86,437.85c0.31-0.2,0.72-0.2,0.72-0.41C227.05,427.55,223.38,433.29,223.86,437.85z"/> <path d="M222.32,412.98c-0.59,3.53-0.44,4.22-0.2,5.83C223.55,416.87,222.94,414.92,222.32,412.98z"/> <path d="M189.06,370.3c1.43-1.64,1.84-2.97,1.23-4.5C189.47,367.02,189.06,368.35,189.06,370.3z"/> <path d="M221.71,532.42c0.82-1.54,0.82-1.54,0.1-2.87C221.3,530.48,221.3,531.4,221.71,532.42z"/> <path d="M220.28,457.71c-0.35,0-0.79,1.03,0.31,1.94c0.36,0.36,0.61-0.41,0.51-0.51C220.89,458.63,220.58,458.22,220.28,457.71z"/> <path d="M222.12,525.67c0.41,0,0.31,0.27,0.31-1.54C222.02,524.13,222.12,523.86,222.12,525.67z"/> <path d="M222.63,405.1c-0.23-0.23,0.07-0.47-0.31-0.1c0,0.2,0.1,0.31,0.2,0.41C222.53,405.3,222.63,405.2,222.63,405.1z"/> <path d="M223.14,401.72c0.1-0.1,0.04-0.45-0.2-0.2C222.94,401.89,223.29,401.87,223.14,401.72z"/> <path d="M190.39,365.9c0-0.13,0.04-0.27,0.07-0.41C190.43,365.6,190.39,365.7,190.39,365.9z"/> <path d="M222.32,469.07c0,0.2-0.45,0.41,0,0.41C222.44,469.36,222.48,469.07,222.32,469.07z"/> <path d="M112.6,417.79c0.42-1.69-1.25-2.8-1.84-0.41c-0.61,3.28-0.31,6.35,1.13,8.9c-1.33,3.49-2.85,5.6-2.46,9.83
		c0.17,1.85,1.13,2.97,2.97,3.99c-1.34-3.41-0.62-8.37,0.2-10.85C113.7,424.6,111.64,422.86,112.6,417.79z"/> <path d="M121.3,441.84c0.63,3.17-2.37,4.95-3.07,9.42c2.59-2.73,4.3-7.08,4.3-7.27c0-1.54,0-3.07,0-5.02
		C121.51,439.79,121.1,440.82,121.3,441.84z"/> <path d="M124.58,428.23c0.41,3.38-1.02,6.14-0.92,9.21c1.87-0.62,3.9-7.25,2.35-8.8C125.81,428.43,125.3,428.43,124.58,428.23z"/> <path d="M144.03,378.79c1.02-2.05,1.23-3.48,0.92-5.42C144.13,375.01,143.72,376.44,144.03,378.79z"/> <path d="M115.37,540.2c0.1-2.15,0.1-2.15-0.61-2.87C114.45,538.25,114.34,539.07,115.37,540.2z"/> <path d="M115.27,461.9c0.61-0.61,1.33-1.23,0.82-2.35C115.16,460.16,114.75,460.88,115.27,461.9z"/> <path d="M144.33,362.32v-0.31C144.07,362.4,144.07,362.32,144.33,362.32z"/> <path d="M85.99,147.69c0-0.92,0.41-2.05-0.51-2.87c-1.02,1.64-1.02,1.64-0.41,4.4C85.99,149.02,85.99,148.2,85.99,147.69z"/> <path d="M193.56,215.44c2.76,0.51,2.97,0.41,4.3-0.92C196.33,214.22,194.79,214.11,193.56,215.44z"/> <path d="M85.99,205.93c0.31,0.41,0.82,0.92,1.43,0.2c-0.72-1.02-1.43-1.94-2.25-3.07C84.46,204.49,85.38,205.21,85.99,205.93z"/> <path d="M196.43,207.15c-1.64,0-1.64,0-3.79,1.23C194.48,208.48,195.51,208.28,196.43,207.15z"/> <path d="M92.03,209.2c2.68,1,1.76,0.89,2.87,0.61C94.08,209.1,93.36,208.48,92.03,209.2z"/> <path d="M191.41,216.26c0-0.86-0.6-0.36-2.66-0.1c0.1,0.1,0.1,0.2,0.1,0.31C189.67,216.37,190.59,216.37,191.41,216.26z"/> <path d="M89.37,157.62c0.41-0.41,0.51-0.92-0.1-1.54C88.96,156.7,88.76,157.1,89.37,157.62z"/> <path d="M87.22,152.81c0.39-0.77,0.1-0.41,0.1-0.72C86.94,152.85,87.22,152.61,87.22,152.81z"/> <path d="M89.17,207.56c0.19,0.1,0.82,0.48,0.82,0.1C89.25,207.3,89.42,207.31,89.17,207.56z"/> <path d="M191.41,207.77c-0.18-0.18-0.03-0.34-0.72,0C190.8,207.98,190.84,208.05,191.41,207.77z"/> <path d="M144.03,181.77c9.96-4.81,9.88-5.2,9.72-6.24c-0.31-1.98-6.62,2.67-17.6,5.32c-12.67,3.05-16.1-4.92-19.45-6.04
		C116.38,181.21,129.28,188.9,144.03,181.77z"/> <path d="M163.57,180.24c10.1,5.72,28.78,5.21,34.49-4.2c-4.29,0.86-7.42,4.12-12.9,5.02c-13.43,2.2-18.98-3.01-21.7-3.68
		C162.37,177,161.17,178.87,163.57,180.24z"/> <path d="M201.34,172.36c-1.33,1.02-1.33,1.02-1.23,2.46C201.24,174.3,201.75,173.58,201.34,172.36z"/> <path d="M157.95,170.1c0.41,2.15,0.41,2.15,2.15,3.99C159.28,172.36,158.97,171.02,157.95,170.1z"/> <path d="M114.75,172.46c-0.1-0.31-0.41-0.51-0.61-0.82c-0.1,0.2-0.31,0.31-0.41,0.31C114.23,173.43,115.03,172.74,114.75,172.46z"/> <path d="M112.81,168.26c0-0.77-0.74-0.88-0.2,0.2C112.71,168.36,112.81,168.36,112.81,168.26z"/> <path d="M202.16,169.18c-0.1-0.1-0.1-0.2-0.1-0.2c-0.18,0-0.34,0.17,0,0.51C202.06,169.39,202.16,169.28,202.16,169.18z"/> <path d="M158.05,170c-0.27-0.13-0.24-0.17-0.1,0.1L158.05,170z"/> <path d="M162.45,247.27c2.43-1.08,4.09-5.53,1.84-5.53c-0.72,0.72-1.33,1.54-2.05,2.25C161.9,244.3,156.78,245.57,162.45,247.27z"/> <path d="M191.62,255.26c-1.33,0.92-1.64,2.15-2.15,4.2C191.21,258.12,191.52,256.9,191.62,255.26z"/> <path d="M161.12,230.69c-0.2,1.43-0.41,2.35,0.61,3.58C162.24,232.74,162.14,231.82,161.12,230.69z"/> <path d="M127.44,246.15c0.51-1.33,0.51-2.25-0.2-3.48C126.22,244.1,126.83,244.92,127.44,246.15z"/> <path d="M195.71,249.12c-1.13,0.92-1.23,1.84-0.92,3.07C195.51,251.27,195.81,250.35,195.71,249.12z"/> <path d="M136.76,261.4c-0.2,0.1-0.31,0.31-0.41,0.51c1.06,0.71,0.64,0.84,1.13,0.1C137.27,261.71,136.96,261.6,136.76,261.4z"/> <path d="M133.18,257.51c-0.1,0.1-0.1,0.2-0.31,0.2c0.31,0.2,0.51,0.51,0.72,0.72c0-0.2,0.2-0.41,0.1-0.61
		C133.69,257.61,133.38,257.61,133.18,257.51z"/> <path d="M186.4,262.52c-0.1,0.2-0.1,0.31-0.2,0.51C186.3,262.93,186.81,262.93,186.4,262.52z"/> <path d="M140.03,265.7c0-0.1,0.1-0.1,0.2-0.2C140.24,265.08,139.51,265.17,140.03,265.7z"/> <path d="M144.74,48.21c0.61-0.61,0.72-1.23,0.41-1.74c-3.58-3.94-6.61-3.38-10.85-1.84c-0.2,0.1-0.41,0.41-0.61,0.72
		c0.82,0.31,1.43-0.2,2.05-0.41c0.41-0.1,0.82,0,1.54,0c-1.13,0.82-2.05,1.33-2.87,1.94c-0.1,0.1-0.1,0.41-0.2,0.61
		c1.43,1.74,2.25-0.72,3.58-0.61c0.92,1.02,1.74,2.15,3.48,2.05C143.74,47.27,142.64,47.68,144.74,48.21z"/> <path d="M163.88,44.11c1.43-0.72,2.76,0.92,4.4,0.31c-2.35-1.33-4.81-1.48-7.16-1.54c-2.04-0.04-2.25,1.44-4.91,4.4
		c0.82,0.82,0.82,0.82,2.66-0.31c1.02,0.31,1.95,0.81,2.97,1.02c1.43,0.3,1.84-1.33,2.76-1.64c1.13,0.41,2.25,0.72,4.09,1.23
		C167.26,45.34,165.01,45.65,163.88,44.11z"/> <path d="M160.4,71.34c0.31-0.1,0.61-0.51,1.02-0.72c-0.2-0.2-0.31-0.41-0.41-0.2c-5.16,0.21-8.62-2.81-13.31-0.72
		C146.88,70.07,133.02,72.41,160.4,71.34z"/> <path d="M145.46,74.41c0.2,0.41,0.31,0.72,0.41,0.92c5.03,2.01,6.12,2.54,11.16,0.72c0.82-0.3,1.02-1.02,1.13-2.15
		C154.06,75.94,149.86,75.02,145.46,74.41z"/> <path d="M155.8,40.73c11.47-2.41,12.06-0.55,13.41-1.23c-0.27-0.14-0.17-0.73-2.15-1.02c-3.15-0.47-13.9-0.61-12.79,2.35
		C154.67,40.84,155.28,40.84,155.8,40.73z"/> <path d="M146.28,41.25c-1.97-2.58-9.14-4.14-12.69-1.54C138.5,39.61,139.62,39.2,146.28,41.25z"/> <path d="M153.34,61.72c2.15,1.43,2.15,1.43,3.89,0.51C154.35,60.99,155.6,60.36,153.34,61.72z"/> <path d="M157.33,59.16c0,1.23,0,2.15,0,3.17C158.66,61.31,158.66,61,157.33,59.16z"/> <path d="M154.06,45.13c0.82-0.82,1.23-1.43,1.23-2.25C154.36,43.29,154.26,44.01,154.06,45.13z"/> <path d="M149.65,63.15c0.41-0.31,0.72-0.51,1.02-0.61c-0.31-0.31-0.51-0.72-0.92-0.82c-0.41-0.2-1.02,0.31-0.82,0.72
		C149.04,62.64,149.35,62.84,149.65,63.15z"/> <path d="M141.88,49.74c-0.82-0.51-1.64-0.41-2.46,0.2C140.96,50.35,140.96,50.35,141.88,49.74z"/> <path d="M170.02,35.92c0,0.61,0,1.13,0,2.25C170.84,37.05,170.84,36.43,170.02,35.92z"/> <path d="M147.51,48c-0.41-0.72-0.61-1.13-0.92-1.64C145.87,47.28,146.48,47.49,147.51,48z"/> <path d="M153.34,59.26c-0.64,0.32-0.65,0.33-0.41,0.82C153.28,59.73,153.8,60.19,153.34,59.26z"/> <path d="M162.35,49.43c0.2,0,0.41-0.1,0.61-0.1c0,0,0-0.1,0-0.2C162.48,48.88,162.35,49.04,162.35,49.43z"/> <path d="M132.36,24.05c-0.1-0.1-0.2-0.31-0.41-0.51C132.05,23.74,132.15,23.85,132.36,24.05z"/> <path d="M131.33,28.45c0.37,0,0.31,0.08,0.31-0.31C131.31,28.14,131.52,28.26,131.33,28.45z"/> <path d="M146.69,60.18c0.51-0.2,0.72-0.41,0.2-1.02C146.89,59.57,146.79,59.87,146.69,60.18z"/> <path d="M147.1,62.84c0-0.28,0.45,0.08,0-0.82C146.88,62.24,146.73,62.11,147.1,62.84z"/> <path d="M133.28,22.21c0.03,0.03,0.06,0.06,0.09,0.09C133.36,22.25,133.34,22.21,133.28,22.21z"/> <path d="M133.37,22.3c0.04,0.12-0.07,0.21,0.21,0.21C133.51,22.44,133.44,22.37,133.37,22.3z"/> <path d="M133.38,22.11l-0.2-0.1C133.31,22.26,133.25,22.24,133.38,22.11z"/> <path d="M146.58,60.38c0-0.1,0.1-0.2,0-0.31C146.58,60.18,146.58,60.28,146.58,60.38z"/> <path d="M156.41,109c-1.84,2.66-1.94,2.87-1.64,5.22C156,112.58,156.21,110.95,156.41,109z"/> <path d="M148.63,112.58c-0.96-0.96,0.6-0.65-5.42-1.02C143.87,111.89,142.31,112.23,148.63,112.58z"/> <path d="M159.28,132.44c0.2,0.1,0.61-0.31,0.72-0.51c0.1-0.31,0-0.72,0-1.13c-0.1-0.1-0.31-0.1-0.51-0.31
		C159.18,131.39,158.46,132.11,159.28,132.44z"/> <path d="M166.03,89.96c-0.72,0.92-0.61,1.74,0,2.76C166.54,91.7,166.75,90.88,166.03,89.96z"/> <path d="M163.57,105.62c-0.75,0.75-0.76,0.41-0.51,1.64C164.07,106.26,163.85,106.46,163.57,105.62z"/> <path d="M165.11,98.66c-0.11-0.11-0.29-0.47-0.61,0.51c0,0.1,0.2,0.31,0.31,0.51C164.9,99.28,165.01,98.97,165.11,98.66z"/> <path d="M141.47,111.46c0.82,0,1.33,0,1.84,0C142.8,111.15,142.29,110.95,141.47,111.46z"/> <path d="M147.51,107.26c-0.2-0.2-0.31-0.41-0.51-0.61C146.99,106.9,146.88,106.95,147.51,107.26z"/> <path d="M161.12,111.97c0.22-0.22,0.33-0.32,0.38-0.37c0.54,0.27,6.61-0.49,11.19-1.88c-1.57-0.52-8.15,0.92-8.6,1.02
		c-1.98,0.44-2.72,0.72-2.62,0.84c-0.08,0.03-0.25,0.08-0.45,0.08c-0.1,0-0.1,0.2-0.2,0.31
		C160.91,111.97,161.02,112.07,161.12,111.97z"/> <path d="M162.14,129.06c0.2,0,0.42,0.08,0.72-0.51C162.4,128.55,162.14,128.6,162.14,129.06z"/> <path d="M147.51,107.47c-0.03-0.05-0.06-0.12-0.1-0.2C147.51,107.47,147.61,107.77,147.51,107.47z"/> <path d="M162.86,128.55l0.1,0.1C162.96,128.24,162.99,128.28,162.86,128.55z"/> <path d="M236.55,299.58c0-1.13,0-2.05,0-2.87C235.63,298.24,235.63,298.24,236.55,299.58z"/> <path d="M235.63,286.68c0.82-1.33,0.82-1.33,0.1-2.25C235.3,285.71,235.38,285.19,235.63,286.68z"/> <path d="M236.45,291.69c0,0.2-0.1,0.31-0.1,0.41C236.51,292.1,236.64,291.89,236.45,291.69z"/> <path d="M209.94,137.04c-0.77,0.52-0.61,0.19-0.61,2.15C210.04,138.48,210.35,137.76,209.94,137.04z"/> <path d="M208.61,142.98c-0.3-0.3-0.1-0.21-0.51,0c0,0.2,0.1,0.41,0.2,0.61C208.4,143.39,208.51,143.19,208.61,142.98z"/> <path d="M91.32,575c3.59,0.99,11.48,1.21,12.08,0.61C108.34,572.64,93.62,569.63,91.32,575z"/> <path d="M92.65,577.76c1.54,0.82,2.47,1.31,3.58,1.84c1.11,0.53,3.1,0.41,3.28-0.82C99.5,576.33,95.21,576.94,92.65,577.76z"/> <path d="M115.47,581.24c1.34-0.43,0.64,1.11,1.64-3.89C115.27,579.5,115.27,579.5,115.47,581.24z"/> <path d="M116.39,581.24l0.1-0.1C116.36,581.14,116.43,581.12,116.39,581.24z"/> <path d="M218.43,218.51c-0.58-4.46-3.11-11.68-5.12-7.68C212.69,212.72,216.2,216.96,218.43,218.51z"/> </g> </svg> 