<?xml version="1.0" encoding="utf-8"?> <!-- Generator: Adobe Illustrator 23.0.1, SVG Export Plug-In . SVG Version: 6.00 Build 0)  --> <svg version="1.2" baseProfile="tiny" id="Layer_1" xmlns="http://www.w3.org/2000/svg" xmlns:xlink="http://www.w3.org/1999/xlink" x="0px" y="0px" viewBox="0 0 900 600" xml:space="preserve"> <g> <path d="M807.28,124.47c-0.51-2.13-1.27-1.95-4.68-3.76c-70.11-37.32-66.18-34.28-66.84-35.1c0-6.82,0.48-13.08-2.34-19.33
		c8.95-0.72,6.16-0.96,8.95-0.41c4.27-3.46,5.2-5.3,4.78-10.38c-1.08-13.07-10.3-11.42-11.4-12.51c-0.81-1.12-0.31-2.34-0.81-3.46
		c-2.23-3.47-4.55-2.83-7.02-2.34c-1.73-1.12-3.46-1.63-5.39-0.71c-5.9-3.93-6.79,0.67-8.34,1.32c-1.02,0.31-1.93-0.61-3.26-0.1
		c-2.65,2.24-2.65,5.39-2.54,8.75c-4.19,1.57-17.83,2.33-26.25,5.09c-0.2,0.1-0.41,0-0.61,0c-1.12-0.31-1.02-1.73-2.44-2.14
		c-4.68,0.51-9.77,0.2-14.85,1.63c-0.2-0.31-0.51-0.61-0.51-0.92c-0.33-5.22-1.63-7.38-0.71-9.97c2.36-6.66-1.66-20.56-5.7-26.55
		c-3.24-4.81-16.6-11.35-31.44-9.67c-9.7-7.72-19.73-2.84-20.86,4.58c-0.62,4.07-1.32,8.14-1.02,12.31
		c0.76,10.47-2.16,17.22-3.15,24.52c-0.1,0.71-0.2,1.53-0.81,2.14c-2.95,1.02-5.8-0.56-8.75-0.61c-0.71-0.01-1.02,1.12-1.93,0.61
		c0-2.24,0.88-8.86-5.29-8.14c-2.85,0.33-5.49-0.41-7.83-0.92c-7.48-5.23-4.63-4.52-12.11-2.44c-1.42-0.1-3.15-0.41-4.68,0.2
		c-5.15,2.06,0.1-1.22-24.21,9.05c-1.27,0.54-40.87,34.79-47.72,49.04c-9.71,20.2-4.37,15.54,1.02,20.55
		c6.3,5.87,21.76,6.12,32.96,10.17c10.25,3.71,20.51,6.4,33.07,5.09c5.66-0.59,4.58,0.35,7.83,2.95c2.5,2,7.91,7.76,9.67,10.89
		c0.53,0.95,5.61,9.75,6.21,11.6c6.24,19.31,19.43,36.41,19.43,44.56c0,8.57-1.83,10.07-0.31,12.21c-0.2,1.12-0.41,2.03-1.12,3.05
		c-2.75,13.75-6.73,11.32-8.65,16.28c-0.79,2.04-2.75,3.66-2.65,6.1c-8.57,12.85-7.22,17.13-10.48,22.69
		c-0.59,0.88-0.55,1.72-1.53,9.56c-1.75,13.98-3.18,18.39-1.73,34.39c0.61,6.76,2.11,15.36,1.83,17.5
		c-0.35,2.62-0.28,3.25,4.68,27.67c2.92,14.39,3.65,11.92,6.21,24.01c5.43,25.74,5.3,25.04-5.19,52.5
		c-3.22,8.44-16.47,24.78-11.19,52.7c1.8,9.54,3.95,27.01,5.19,35.71c3.19,22.36,1.22,26.77,0.81,38.87c-0.6,0-2.18-1.18-2.65,0.31
		c-1.3,4.15-2.44,8.24-2.34,12.82c-3.13,3.61-1.38,15.11-3.56,20.25c-1.87,4.41-2.7,6.55-1.32,8.24c3.76,2.24,7.73,1.63,11.7,0.1
		c4.86,0.51,6.88,5.35,10.89,2.75c9.05,2.24,17.92,2.7,26.96,1.02c15.18-2.82,15.02-2.03,19.33-4.37c3.12-1.7,0.81-4.43,0.71-4.88
		c0-3.93,1.99-6-0.51-8.95c-5.06-5.97-7.17-3.55-11.6-5.9c-1.15-2.62-6.82-4.34-8.55-9.05c-2.92-7.99-8.1-15.28-12.72-21.67
		c-1.83,0.92-3.66,1.12-5.49,0.61c-0.1-0.51-0.2-0.92-0.2-1.22c4.62-64.7,17.91-70.91,24.82-123.11c0.24-1.83,0.13-3.95,1.02-5.49
		c2.51-4.34,1.93-9.56,3.87-14.04c0.1-0.2,0.1-0.51,0.1-0.71c0.05-2.24,0.81-4.37,1.22-6.61c1.9-8,0.1-6,1.22-10.68
		c6.17-25.68,5.25-29.13,5.49-48.33c0.1-7.64,3.44,11.95,14.24,32.96c1.9,3.69,0.18,1.46,2.75,7.02
		c7.07,15.27,8.53,24.67,11.29,38.05c1.21,5.85-5.33,27.13-6.31,32.05c-3.44,17.25-0.99,20.89-0.31,29.1
		c0.2,1.32,1.05,2.23,1.32,3.46c7.34,32.62,2.85,35.87,3.97,60.54c-2.14,2.14-3.34,3.87-4.27,6.92c-4.91,16.1-2.59,11.59-3.66,13.74
		c-0.41,0.41-1.22,0.2-1.73,1.32c-1.12,4.48-1.53,9.67-3.05,13.74c-0.7,1.4-4.54,2.35-0.51,4.48c2.78,1.47,5.8,2.12,8.85,2.85
		c4.99,1.19,9.67,0.31,14.14-1.22c6.82,4.14,40.25,6.96,52.7-3.46c0.71-1.93,2.24-3.56,2.34-5.49c0.66-0.84,4.35-2.76,0-6.41
		c-5.05-4.24-8.39-1.88-14.45-4.48c-2.43-3.74-7.26-2.78-10.48-8.85c-12.11-22.81-15.22-14.72-17.3-16.28
		c-0.54-4.35,1.98-13.55,2.34-20.65c0.7-13.76,13.14-45.68,11.7-81.9c-0.29-7.27-2.56-3.43,0.61-15.06
		c2.26-8.29-1.87-10.56-0.92-18.52c1.63-2.29,1.55-0.1,0.92-16.58c-1.11-28.61-1.31-32.96-2.44-41.61
		c-2.01-15.39-5.08-20.79-4.07-24.21c-4.02-11.07-14.83-43.99-14.04-55.96c0.39-5.85-0.81-9.33-0.61-12.72
		c0.44-7.62-3.21-16.86-2.65-31.34c0.23-5.99,0.79-5.56,5.19-18.31c1.62-4.7-0.7-4.47,0.81-9.97c1.35-4.91,0.74-11.18,2.75-16.48
		c5.71-4.67,9.6-7.46,10.89-16.08c2.88-19.36-14.87-26.13-12.92-30.42c2.03-0.2,4.17-0.92,5.7-2.54c8.44-0.7,24.53-6.06,32.15-9.36
		c6.79-2.94,9.19-2.27,12.41-8.14c2.24-4.07,3.97-8.34,5.19-12.82c0.2-0.61,0.2-1.22,1.02-1.63c4.8,1.92,67.99,35.81,70.3,35.81
		C806.77,125.49,807.37,124.88,807.28,124.47z M739.33,58.52c0.02-0.05,0.06-0.08,0.13-0.1c0.65-0.17,0.26-0.07,0.06,0.43
		C739.25,58.58,739.33,58.42,739.33,58.52z M735.85,63.07c1.39-0.27,0.5,1.65-0.71,0.15C735.39,63.16,735.63,63.12,735.85,63.07z
		 M706.25,48.98c-0.31,0.41-0.71,0.41-1.12,0C705.53,48.57,705.94,48.57,706.25,48.98z M693.53,58.65c0.26,0.13,0.26,0.08,0,0.2
		V58.65z M711.64,57.02c1.04,0.19,1.38,1.16,2.34,1.33c0.28,0.05-0.43,10.37-1.53,14.95c-2.39-0.73-15.07-7.26-18.01-9.46
		c-0.32-0.65-0.77-1.57-1.12-2.34C707.42,57.14,694.21,59.34,711.64,57.02z M691.8,65.56c-0.1,0.2-0.86,0.53-1.02-0.1
		C691.22,65.25,691.5,65.17,691.8,65.56z M684.27,57.73c0.46,0,0.3,0.4-0.01,0.4C684.02,58.13,683.72,57.87,684.27,57.73z
		 M685.7,60.68c1,1.57,2.95,1.64,4.25,2.62c0.26,0.26,0.51,0.53,1.15,0.53c-0.32,0.2-0.58,0.13-0.82-0.16
		c-0.24-0.4-3.58,0.56-7.53-2.69C682.74,60.16,685.02,59.81,685.7,60.68z M667.68,51.85c0.38-0.43,0.96-0.33,1.54-0.33
		c4.79,0,7.47-0.61,7.83-0.61c2.42,1.61,6.4,3.89,5.39,6.61c-1.55,1.79-3.23-1.37-4.17,3.36c0.31,0.71,0.71,1.42,1.12,2.24
		c-0.2,0.2-0.31,0.51-0.51,0.51c-8.51,1.48-9.94,3.02-13.23,1.31C674.28,53.97,666.06,53.64,667.68,51.85z M680.1,60.38
		c-0.25,0-0.22,0.03-0.16-0.08C680.02,60.13,679.97,60.12,680.1,60.38z M648.16,12.99c0-0.32,0.13,0.17,0.39,0.18
		c-0.03,0-0.05,0-0.09,0C648.1,13.18,648.16,13.23,648.16,12.99z M647.37,10.37c-0.44,0.34-0.38-0.01-0.41-0.24
		C647.06,10.14,647.5,10.28,647.37,10.37z M643.47,7.16c3.1,1.02,3.57,2.87,3.38,2.87c-0.9,0.26-1.62-0.49-2.46-0.62h0.01
		c-0.1,0-0.2-0.1-0.31-0.1c0.15,0.15,0.14,0.06-0.09,0.1c0.01,0.48,0.13,0.94,0.6,1.12c1.02,0.31,1.53,1.22,2.34,1.83
		c0.27-0.41,0.63-0.26,0.71,0c0.14,0.14,0.17,0.1-0.23,0.1c-0.15,0-0.02,0.61,0.67,0.79c0.1,0.35,0.3,0.66,0.78,0.63
		c-0.01,0.01-0.01,0.03-0.01,0.09l0.1-0.1c-0.03,0.01-0.05,0-0.07,0c0-0.66,0.23-0.71-0.1-0.7c2.45-0.05,0.42-0.9,1.7-1.82
		c1.44,1.02,2.23,3.33,3.66,4.68c0.29-1.91,0.46-1.41,0.7-1.22c3.56,2.84,5.43,12.59,6.92,17.81c-1.22,0.61-2.45-0.23-3.66,0.1
		c-3.83,1.05-3.14-0.49-3.66,2.14c5.38,0,5.78-1.63,7.63,0.31c-1.13,7.32-4.06,1.09-7.43,5.09c1.08,0.9,1.53,3.66,2.83,3.66
		c2.49,0.31,3.37-4.19,3.51-2.1c0.23,3.35,1.94,6.45,0.78,9.83c-1.07,0.49-2.15,0.33-3.22,0.12c-0.3-0.06,0.15,0.13-1.47-0.9
		c0-2.44-3.08-5.94-4.08-11.52c0.07-0.07,1.6-3.73,1.83-4.27c-2.12,0.41-2.12,2.31-2.75,3.76c1.54,9.91,6.42,13.05,4.48,11.7
		c-0.2,0.31-0.41,0.81-0.71,0.81c-1.93,0.31-3.97,0.52-5.9-0.1c-2.92-0.95-28.23-1.39-35.23-3.62c-1.23-0.39-0.77-1.67-1.19-2.79
		c1.83-0.92,3.46,0.51,5.19,0.41c0.1-1.32-2.14-1.22-1.32-2.65c-0.41-0.31-0.92-0.51-1.32-0.71c1.02-1.02,2.65-0.51,3.66-1.53
		c0-0.59-0.25-1.01-0.81-0.81c-2.49,0.87-4.43,0.11-6.71-0.61c8.08-0.43,7.55-0.57,8.85-2.85c-1.36,0-2.58,1.69-8.14,1.83
		c-1.99,0.05-4.06,0.03-5.62,1.47c-0.84-5.1-2-3.2,5.42-3.6c4.45-0.24,9.18-0.15,10.89-2.65c-0.13-0.24-0.4-0.34-0.67-0.37
		c-2,0,1.7-1.28,2.2-2.58c-0.27-0.58-0.69-0.37-1.1-0.28c-0.81,0.17-0.53-0.63-0.43-0.73c1.1-0.66,1.73-1.21,1.73-2.44
		c-1.17-0.02-1.74-0.09-2.1-0.09c1.47-3.04-1.61,0.95-5.04-1.73c1.47-0.46,4.6-0.35,5.29-1.73c-2.5-0.36-0.41,0.61-11.7,0.61
		c-0.12,1.07,0.38,1.11,1.29,1.34c0.62,0.16,3.75,0.94,3.9,1.01c1.67,0.42,2.34,1.9-3.77,1.22c-0.88-0.2-1.12-1.33-2.03-1.4
		c-0.7-1.3-1.35-1.44-2.15-1.44c-0.19-1.53-3.45-3.35-0.79-6c4.75,2.03-0.48,1.98,12.92,2.34c-2.99,1.33-11.41,2.17-3.91,1.97
		c1.94-0.05,2.91-0.29,5.03-0.75c1.19-0.26,2.45,0.4,3.6,0.16c1.63-0.34-0.18-1.75-1.36-1.78c-4.3-0.11-8-1.1-12.42-0.61
		c-1.32-0.61-2.44-1.53-3.26-2.85c0.71-2.03,2.24-3.26,3.46-4.68c1.33,0.33,1.7,1.71,2.44,2.54c2.09,1.53,6.41,2.22,6.92,2.93
		c0,0.7-7.75-1.04-9.46-1.19c3.23,1.76,6.4,2.12,9.87,2.44c-0.99-3.03,2.25,0.81,6.63-0.91c-1.34-1.84,1.42-1.09,1.42-2.65
		c-1.42-0.1-2.34,1.22-3.97,1.63c-2.41-0.41-4.7-0.32-6.93-2.12c-0.49-0.39-0.25-0.29-1.07-0.31c-3.06-0.04-2.83-2.25-3.18-2.26
		c-0.52-0.01-0.73-0.32-0.61-0.8c-1.18-0.59,0.85,0.14,0.51,0.61c0.95,0,2.24,0.21,0.58-1.4c-0.79-0.77-0.08-1.3,0.95-1.44
		c10.45,6.39,3.27,2.72,2.03,5.19c1.98-0.16,4.82,0.74,6.41,1.22c1.83-0.1,2.95-2.24,4.99-1.93c-1.51-1.12-5.1-1.87-5.1-2.15
		c-0.8-0.49-1.94-0.2-3.24-0.3c-1.12-0.81-2.44-1.63-3.66-2.54c0.45-4.05,10.73,1.95,16.39,3.02c1.47,0.28,1.58-0.52,2.53,0
		c5.41,2.95,4.77,2.58,5.12,2.53c1.7-0.34,3.04-0.1,4.04,1.47c0.09-0.13,0.5-0.7,1.12-1.53c-0.36,0.36-1.67-2.31-6-4.48
		c-0.27-0.18-0.39-0.35-0.65-0.57c-0.12-0.12-0.2,0.03,1.26-0.24c-0.3-1.11-1-1.09-5.7-3.26C636.96,5.69,636.67,4.93,643.47,7.16z
		 M646.73,81.84c0.71,5.29,0.22,9.91,3.84,15.61c2.91,4.59,4.94,7.05,5.93,12.68c1.31,7.48,3.39,7.27,1.02,14.97
		c-0.2,0.51-0.81,0.92-1.22,1.53c-1.42,0.31-2.95,0.71-4.37,0.92c-6.65,0.97-16.55-5.93-18.92-9.05
		c-19.18-25.27-5.23-9.19-20.76-26.66c0.03-0.06,0.26-0.24,2.24-3.46c2.43-3.97,0.38-4.39,0.81-8.04c1.03-8.55,0.06-17.8,1.02-18.62
		c2.24-0.1,2.03,2.54,3.56,3.36c0.81-0.41,0.1-1.12,0.31-1.63c7.54-2.06,16.93,0.84,21.77-0.51c5.04,2.73,7,0.66,9.16,1.12
		c2.8,0.59,5.83,0.61,8.75,0.61c-2.68,7.56-2.64,8.71-4.17,11.4c-2.9,4.34-3.32,2.33-8.24,3.56
		C646.63,80.32,646.63,81.13,646.73,81.84z M609.05,86.25c0.33,0.06,0.52,0.26,0.67,0.55C609.4,86.74,609.22,86.53,609.05,86.25z
		 M608.68,90.28c-0.51-0.81-0.71-1.63-0.81-2.75C609.36,88.3,610.36,90.5,608.68,90.28z M608.07,47.45
		c-0.64-2.49-1.13-4.51,0.82-6.42c0.57-0.55-0.97,3.31-0.62,4.49c1.43-0.1,1.86-3.39,2.85-1.42c0,0.88-0.82,1.23-1.12,1.83
		C609.04,47.52,609.78,47.8,608.07,47.45z M607.56,66.38c-0.15-2.09-2.83-7.88,0.41-6.21c0.71,4.07,1.12,8.14,0.71,13.12
		C608.17,70.55,607.71,68.51,607.56,66.38z M607.97,79.1c-0.9-1.64-1.44-3.12-1.22-4.99C607.86,76.04,607.97,76.45,607.97,79.1z
		 M609.09,40.88c1.43-0.91,1.84-0.98,2.91,0.66c0.94,1.21,0.76,0.91,0.66,0.91C611.39,42.22,610.65,41.19,609.09,40.88z
		 M610.2,61.39c-0.09,4,1.53,13.43,0.51,13.43C609.69,71.97,609.49,68.51,610.2,61.39z M611.11,82.54c-0.97-1.47-0.62-2.95-0.6-4.79
		c0-0.21-0.04-0.32,0.1,0.12C611.15,79.53,611.41,80.14,611.11,82.54z M611.14,87.62c0.25,0,0.19,0.64-0.22,0.94
		c-0.9,0-1.02-0.74-1.02-1.55C610.36,87.41,610.53,87.62,611.14,87.62z M610.81,85.61c-0.2-1.01,0.7-2.03,0.31-3.04
		C612.4,83.64,612.34,87.13,610.81,85.61z M610.92,47.45c0.31-0.51,0.81-0.92,1.42-1.12C612.53,47.63,612.57,47.76,610.92,47.45z
		 M631.37,60.18c0.1-0.1,0.2-0.1,0.31-0.1c0,0.09,0,0.09,0.1,0.19C631.69,60.27,631.44,60.18,631.37,60.18z M651.31,56.41
		c1.07-0.27,1.1,0.23,1.22,1.21C652.02,57.32,651.51,57.02,651.31,56.41z M607.46,27.52c-0.43-1.18-1.62-2.24-0.41-3.56
		c0.7,0,0.92,0.62,1.94,0.62c0.03,0,0.21,0.44,0.23,0.48c1.08,1.96,2.74-0.3,1.79,2.86c3.25,0.81,5.74,0.5,8.21,1.77
		c-0.84,0.84,0.01,0.3-6.58,1.08c-1.05,2.46,5.1,0.23,6.71,0.71c-2.03,2.03-9.96,2.1-12.69-1.19c-1.66-2,0.82-3.08,0.82-2.66
		c0.42,1.33,1.42,1.86,2.82,2.09C610.42,29.72,610.11,28.13,607.46,27.52z M619.2,33.4c-0.93,0.93-1.05,0.97-2.82,0.65
		C617.14,33.09,618.16,33.37,619.2,33.4z M606.53,31.98c0.1,0.1,0.35-0.09,0.72,0.1c5.49,2.84,9.25,1.62,8.68,2.16
		c-0.6,0.57,0.4,0.39-9.09,0.39C605.86,34.62,606.52,32.2,606.53,31.98z M621.6,29.45c-1.26,0.09-1.94,0.2-2.13,0.2
		C620.02,29.17,620.88,29.3,621.6,29.45z M620.58,27.82c0.66-0.75,1.59-0.81,2.45-1.06C622.41,27.59,621.69,28.37,620.58,27.82z
		 M622.18,32.73c-0.83,0.83-2,0.5-2.71,0.57C620.21,32.52,621.25,32.82,622.18,32.73z M623.94,13.57c0.35-0.23,0.64-0.18,0.92,0.1
		C624.55,13.78,624.24,13.78,623.94,13.57z M629.03,9.1c0.38-0.13,0.31-0.16,0.31,0.1L629.03,9.1z M634.62,7.16
		c0.92,0,1.83,0.1,2.54,1.22C636.05,8.08,635.03,8.18,634.62,7.16c-0.92,0.15-1.74,0.07-2.27-0.71
		C633.15,6.44,634.03,6.28,634.62,7.16z M622.92,3.2c0.2,0.1,0.51,0.31,0.81,0.51C623.34,4.49,622.2,4.08,622.92,3.2z M632.12,6.38
		c-3.44,0-7.26,3.02-10.01,0.27C626,5.06,629.12,5.04,632.12,6.38z M621.5,4.21c-1.15,1.15-0.67,0.53-5.6-2.54
		C619.6,1,619.84,1.2,621.5,4.21z M613.87,2.28c2.65,0.62,4.55,2.28,4.78,2.75c-0.91,1.01-1.79-0.17-2.75,0.31
		c1.92,2.36,0.66,1.68-1.63,3.46c-3.52,3.2-2.55-1.77-8.55,9.36c-0.23-0.46-0.4-0.45-0.4-0.77C606.25,10.1,607.23,3.23,613.87,2.28z
		 M604.51,35.35c0.83,1.1,1.08,2.91,2.34,3.86c0.05,0.04,0.4,0.24,0.38,0.28c-1.51,2.32-2.49,4.84-1.59,7.57
		c-0.7,0.54-1.42,0.71-2.34,0.41C602.27,44.2,602.57,41.04,604.51,35.35z M604.81,59.56c1.5,9.39,1.82,7.95-0.31,7.53
		c-0.81,8.86,6.62,21.62,4.05,18.59c-0.52-0.61-3.34-4.61-4.05-8.81C603.46,70.63,600.73,57.52,604.81,59.56z M600.54,54.78
		c0.1-0.1,0.4-0.05,0.4,0.2C600.93,55.24,599.92,54.98,600.54,54.78z M579.99,41.35c8.35,0,9.05-1.29,6.04,12.61
		c-0.24,0.85-3.55,0.97-4.82,2.78c-0.01,0.02-0.02,0.03-0.04,0.05c-0.15-0.15,0-0.04-0.12,0.15c-0.01-0.01-0.05,0-0.15-0.02l0.1,0.1
		c0.03-0.04,0.04-0.06,0.04-0.07c1.4,0.23,3.03,0.26,2.49,2.01c-1.33,4.29-4.54,1.35-6.41,3.05c-1.83,0.48-3.15-0.97-4.37-0.2
		c0.51,2.03,3.06,2.58,4.99,1.83c3.36-1.3,7.54,0.87,7.54-7.34c0.5-0.5,1.13-0.19,1.73,0c3.38,1.07,9.21-0.24,13.63,2.44
		c1.31,1.97,0.12,17.67,4.37,25.03c1.35,2.33,1.53,4.88,2.14,7.33c-2.38,3.26-12.17,1.14-15.16,7.12c-2.77-1.73-3.69-2.62-6.71-2.95
		c-6.44-0.7-27.04-2.83-32.96,1.12c-8.77,4.16-19.14-3.05-29.51-3.05c-0.61-0.92-0.5-1.62-0.1-2.24c1.04-1.61,1.54-3.66,2.44-5.39
		c5.84-11.22,14.27-19.92,17.19-20.65c1.83,1.02,3.56,2.34,4.78,3.97c3.73,1.49,9.64,0.05,13.63-1.63c2.49-0.75,5.36-5.1,5.63-5.1
		c2.04-0.49,4.17-1.18,6.12-2.39c0.49,0.4,0.99,0.77,1.68,0.77c6.1-1.36,6.31-7.74,8.34-13.33C582.43,45.11,579.48,44,579.99,41.35z
		 M543.97,55.73c-0.07,0.43-0.34,0.8-0.71,1.19C542.15,54.96,544.15,54.54,543.97,55.73z M547.94,53.76c0,1.22-0.1,1.73-0.2,2.44
		C546.72,55.29,546.72,55.29,547.94,53.76z M562.39,64.34c-0.17,0.17-0.08,0.17-0.14,0.26C562.24,64.7,561.82,64.63,562.39,64.34z
		 M583.14,160.79c-0.31-0.61-0.42-1.21-0.81-1.73c-3.64-4.72-5.29-10.48-8.24-15.57c-2.9-5-1.95-3.34-13.43-15.57
		c-5.6-0.97-16.85,2.55-33.78-3.26c-17.21-5.9-25.53-4.23-35.51-9.97c-1.22-2.65-3.87-3.76-6.61-4.68
		c-2.48-6.02,13.25-26.51,17.19-31.64c2.17-2.82,2.73-2.2,4.68-3.66c18.43-17.5,18.5-17.22,20.04-19.33
		c1.5-2.06,6.99-7.61,9.36-8.55c7.38-2.92,14.4-6.71,22.08-8.44c1.01-0.23,1.73-0.92,3.15-1.12c6.12,0.68,5.53-1.59,8.95-1.42
		c4.68,2.24,7.94,6.21,10.99,10.58c-0.61,2.65-1.08,5.4-1.93,7.94c-1.96,5.81-6.62,5.46-6.52,5.4c0.05-0.1,4.68-8.43,4.68-8.66
		c-2.71-5.69-2.56-7.06-4.47-7.54c-0.64-0.11,1.99,5.61,2.53,6.94c-0.39,3.56-3.52,5.92-4.27,8.56c-0.56,0.19-2.72,1.44-3.46,1.02
		c1.33-5.97,2.43-9.1-1.03-12.82c-0.21,3.13,1.49,2.37-0.19,9.76c-0.85-0.21-1.29-2.75-2.95-4.48c-1.45-1.5-2.77-3.25-3.76-5.09
		c-0.93-1.72-2.85-2.75-3.56-4.68c-1.13,0.61-0.4,1.55-0.71,2.02c0.26,0.17,0.47,0.43,0.71,0.62c0.55,0.37,0.59,0.66,0.41,1.09
		c-0.22,0.51-0.33,0.33-0.71,0.52c-0.51,0,0.1-1.01,0.2-1.32c-1.51,0.3,1.3-1.89-7.02-0.61c-3.34,0.51-5.53,2.55-7.63,4.99
		c-2.2,2.56,0.03,3.44-3.97,7.43c-0.61,0.51-1.22,1.22-1.93,2.03c1.93,0.1,2.44-1.73,3.97-2.03c0.92,1.63,0.92,3.66,2.14,4.88
		c-0.28,2.85-3.25-0.23-15.36,17.3c-4.97,7.19-3,8.75-6.61,14.85c-0.99,1.67-3.13,4.8-2.54,5.39c-0.04-0.17,0.18-0.34,0.28-0.44
		c1.23-1.07,2.05-2.64,3.26-3.73c14.39,1.18,21.97,6.83,34.49,2.54c3.77-1.29,13.24-1.66,16.69-1.93c4.64-0.36,8.39,1.07,9.67,1.22
		c9.2,1.12,7.61,3.46,16.18,4.27c0.73,0.12,1.26-0.1,1.53-0.81c-1.12-1.53-3.26-0.81-4.78-2.03c1.77-2.26,4.86-2.42,6.92-2.95
		c1.02,0.31,1.12,1.12,1.42,1.83c8.07,16.14,9.61,25.93,7.33,44.05C609.09,150.51,587.94,170.39,583.14,160.79z M606.34,558.6
		c-0.31,0.82-0.71,0.31-1.42,0.31C605.52,558.19,605.93,558.09,606.34,558.6z M600.03,546.7c1.93,2.44,2.44,5.49,4.17,7.63
		c-0.31,1.12-1.12,0.9-1.63,1.02c-3.43,0.77-17.78,6.16-12.66,9.24c2.19,1.31,3.99-1.37,6.21-1.59c0.79,0-3.24,2.96,0.03,4.36
		c3.24,0,3.66-2.97,11.8-4.78c0.93,0.38,1.21,1.01,1.12,1.83c-2,2-8,0.22-10.78,5.8c-0.3,0.45-0.08,0.94,0.2,1.22
		c5.3-0.38,13.3-5.17,13.84-1.42c-0.2,0.1-0.31,0.41-0.51,0.41c-3.51,0.33-7.47,0.46-7.94,2.34c0,2.48,2.66,0.75,8.65,2.75
		c1.02,0.41,1.02,0.31,2.75-0.31c0.71-0.61-0.5-1.12,0.1-1.72c0.1,0,2.06,1.18,4.52,2.4c10.6,5.28,5.95-0.26,11.35,6.95
		c-0.94,7.06,1.62,9.43-3.15,10.28c-6.59,1.17-13.02,2.77-19.64,3.36c-20.35,1.81-25.97-4.78-34.8-4.78
		c-3.17,1.59-0.72,1.32-7.12,1.32c0-1.79,0.25-2.6,1.12-4.37c3.69-7.53,0.41-17.85,3.15-21.57c0.99-1.34,0.41-3.15,0.81-4.88
		c0.94,0,1.02,1.05,1.68,1.44c1.34,0.8,3.96,0.66,6.26-1.64c1.85-1.85,2.21-3.54,5.9-6.82c2.86-2.54,5.09-5.49,7.83-8.24
		C595.72,546.69,597.05,547.44,600.03,546.7z M659.04,540.08c0.36,0.36,0.35,0.77,0,1.12C658.65,540.82,658.63,540.49,659.04,540.08
		z M696.96,552.27c-0.36,0-0.67-0.22-0.67-0.67C696.29,551.5,696.75,551.55,696.96,552.27z M684.88,535.71
		c3.74,2.76,5.93,6.36,5.56,6.44c-7.25,1.59-15.81,4.67-9.73,8.92c0.67-0.1,0.35-0.78,0.86-1.45c1.62-1.62,7.28-2.82,10.52-5.35
		c1.15,0.83,1.99,2.75,1.82,2.92c-3.33,2.14-11.23,2.8-10.98,6.14c0.82,1.37,1.46,0.82,11.4-3.15c1.72-1.15,2.33,1.21,1.84,1.45
		c0.1,0-0.1-0.06-3.99,1.69c-1.55,0.7-3.55,2.17-2.44,3.46c0.77,0,4.34-0.95,5.81-2c0.71-0.51,1.24-1.1,1.49-2.31
		c1.57,0.73,1.98,2.32,2.99,3.43c-1.14,1.79-3.87,1.65-3.87,3.67c4.03,1.47,5.95-3.83,7.12-0.91c-0.31,0.41-0.51,0.71-0.81,1.12
		c0.2,0.2,0.41,0.51,0.51,0.51c4.53,0,5.85,2.71,14.04,3.26c1.63,0.11,3.26,0.41,4.48,1.63c-0.1,0.92-0.32,1.73-0.1,2.54
		c0.74,2.82-1.3,5.91-2.97,7.52c-5.39,5.17-39.15,7.5-46.48,1.64c-2.03-1.42-5.46-0.21-7.94,0.61c-3.49,1.16-12.22-0.36-15.57-2.03
		c1.61-4.03,1.66-5.35,1.93-5.9c2.37-0.8,3.05-0.85,3.87-10.89c0.65-7.9,2.05-12.99,2.32-13.77c0.14-0.28,0.87-0.53,1.04,0.13
		c0.2,0.81-0.61,1.32-0.71,2.54c0.2,1.53,0.41,3.56,1.42,5.29c1.53,2.21,4.27,1.99,6.41,0.81c2-1.09,5.76-2.71,7.83-4.78
		C675.95,543.12,676.74,539.78,684.88,535.71z M694.45,393.98c-2.02,10.61,1.66,14.83-1.12,23.81c-1.08,3.5-1.6,5.66-1.02,9.26
		c1.44,8.8,0.05,14.59-0.71,25.03c-2.77,38.03-10.24,46.48-10.78,70.91c-0.04,2-1.58,7.04-1.42,13.74c-2.71,1.81-4.8,3.54-7.02,7.33
		c-4.8,8.19-11.66,10.2-12.82,7.12c-0.1-0.71,0.71-0.92,0.92-1.93c-0.92-2.75-1.22-5.8,1.83-8.24c-0.31-5.09,0.18-10.27-0.2-15.36
		c-2.3-30.38,2.66-16.62-5.39-55.86c-1.27-6.18-1.12-8.38-0.51-15.67c0.6-3.63,6.58-27.26,6.61-27.37c1.18-5.89-1.82-5.27,1.42-8.24
		c-1.19-6.27,0.19-7.96-1.12-9.77c-1.25-1.74-2.22-9.59-3.87-17.5c-3.34-16.02-20.91-46.8-23.2-61.04
		c-1.67-10.41-4.12-0.6-2.34-14.85c1.86-1.86,2.03-0.05,6.1-0.81c23.64-4.4,41.37-5.58,44.05-4.68
		C693.81,334.09,694.46,393.88,694.45,393.98z M673.59,265.49c1.24,13.26,5.7,30.1,8.75,37.95c1.65,5.78-1.8,0.23-25.64,4.07
		c-19.62,3.16-23.13,7.05-21.87,3.26c2.86-8.65,1.67-4.94,0.51-5.8c-2.12,2.12,7.17-12.36,5.39-14.14c-0.57,0-0.14-0.5-4.07,5.09
		c-3.32,4.72-2.32,6.8-4.58,16.48c-3.79,16.28-2.8,16.71-3.87,40.29c-0.48,10.64-2.7,23.45-3.56,30.62
		c-0.53,4.38,0.38,7.34-1.32,9.97c-0.91,1.42-0.12,3.78-2.14,10.99c-3.61,12.9-3.51,10.54-5.49,23.4
		c-1.66,16.62-20.42,61.16-22.18,99.71c-0.24,5.29-0.31,10.58-0.51,15.87c-0.41,1.02-1.63,0.31-2.24,0.92
		c-12.75,15.65-15.95,20.45-16.48,14.35c7.81-9.12,0.33-36.79-4.38-89.53c-0.49-5.49,1.75-16.5,2.95-20.76
		c2.67-9.47,3.61-3.16,15.26-37.34c6.45-18.92-1.06-40.59-8.34-71.42c-1.42-6.02-1.68-11.71-3.76-24.52
		c-1.54-9.49,1.02-7.38,2.95-8.14c10.15-3.99,39.97,1.05,49.65,3.56c2.85,0.57,3.25-1.23,0.51-2.65c-9.86-5.09-32.63-4.94-43.75-5.8
		c-2.59,2.28-6.05,2.23-9.77,3.15c-1.12-2.89-5.57-39.47,10.89-63.89c7.38-0.18,14.96,3.03,21.26,5.49
		c4.42,1.73,2.08-0.24,7.63,1.53c11.63,3.69,18.9,6.92,33.27,6.82c2.85-0.02,5.7-0.92,8.55-0.71c6.91,0.5,6.6-0.92,15.57,0.2
		C673.96,257.57,672.7,255.95,673.59,265.49z M689.87,159.17c-0.78,4.2-7.07,9.65-11.5,11.7c0.31,0.31,0.71,0.61,1.12,0.92
		c-0.81,4.17-1.42,8.55-1.42,12.92c0,1.63-0.82,3.15-0.92,4.78c-0.22,3.87-1.26,7.41-2.65,10.89c-0.97,2.45-1.57,6.23-2.65,7.43
		c-0.57,0.57-0.86,1.02-2.14,9.05c-0.11,0.71,0.51,1.02,0.92,1.63c-0.54,14.46,2.54,19.38,2.54,33.57c-0.41,0.1-0.71,0.41-1.02,0.41
		c-9.23-0.92-15.82,0.3-22.13-1.23c-1.67-0.41-23.53,0.09-24.52-1.88c-1.53-1.85-1.35-1.69-1.43-1.61
		c-1.35,1.35-1.13,1.09-3.81,0.24c-22.99-7.28-16.13-5.48-19.37-7c-1.7-0.8-10.66-2.08-11.56-2.97c-0.62-1.12-0.13-0.75,5.8-12.92
		c1.79-3.68,5.92-15.12,5.09-19.43c-0.45-2.31,0.77-8.34-1.93-11.6c-0.6-0.72-0.61-1.83-0.81-2.75c0.71-0.71,1.32-0.19,1.83,0
		c3.13,1.18,6.51,0.71,9.67,1.42c1.02,0.31,2.14-0.32,3.26-0.41c35.18-2.65,27.41,0.33,42.32-1.83c7.49-1.09,11.33,0.2,18.52-2.14
		c5.97-1.94,3.38-3.43,1.32-2.75c-8.15,3.3-16.03,1.59-19.53,2.95c-2.6,1.01-17,0.56-24.01,0.51c-1.32-0.01-2.44-0.51-3.66-1.02
		c-1.39,2.08-0.94,0.28-16.38,1.63c-4.88,0.43-9.77,0.31-14.65-1.63c-0.01-0.01-0.01-0.02-0.02-0.04
		c-5.92-12.39-13.69-25.42-9.65-24.07c8.78,2.34,19.91-7.52,24.72-15.97c3.46-6.08,4.23-33.1-4.68-48.53
		c-0.71-1.22-1.42-2.34-2.14-3.56c0.92-1.02,2.23-0.62,3.15-1.32c0.5-0.38,2.68-1.51,2.75-1.53c5.28,6.42,13.32,15.84,14.96,17.8
		c3.64,4.36,3.69,10.79,14.26,15.94c7.85,3.82,17.19,3.72,20.63-1.7c0.91-8.18,2.08-11.73-6.1-23.71c-2.43-3.56-1.93-1.26-1.93-3.72
		c1.71,0.77,19.73,18.84,23.81,25.8C683.22,135.91,693.19,141.32,689.87,159.17z M732.8,92.42c-1.26,6.74-5.81,14.79-8.14,15.67
		c-3.95,1.76-7.31,4.86-34.9,11.29c-6.73,1.57-10.74,5.82-8.75,1.42c1.88-1.52,6.71-3.67,4.99-3.76c-1.36-0.08-2.24,2.13-3.97,1.93
		c-0.48-1.55,0.59-3.83,0.31-5.8c-3.46,3.05-3.05,7.22-4.27,10.78c-2.39-0.48-0.5-3.21-9.67-12.92
		c-15.2-16.1-14.13-13.62-14.85-15.16c1.29-0.65,3.03-1.38,4.27-1.93c3.29-1.46,3.59-2.24,6.61-2.24
		c19.58,1.09,20.43,3.65,28.28,1.22c5.28-1.63,10.22-1.3,10.58-2.75c-0.57-2.57-15.33,4.29-24.42,0.41
		c-4.14-1.77-5.83-1.17-14.14-1.32c-4.14-0.08-7.48,3.78-14.24,4.99c-1.42-1.93-1.48-4.27-1.73-6.61c-0.76-7.06-0.71-6.81-0.58-6.81
		c2.02-0.31,3.85-0.51,5.67-0.71c3.71-3.12,3.72-6.85,7.22-14.45c2.23,0.89,4.17,3.45,9.67,1.83c4.69-1.38,8.66,0.19,11.4-2.24
		c7.87,3.8,7.03,1.07,13.12,3.97c5.01,2.38,9.87,4.99,14.55,7.43c1.02,2.56-7.5,10.42-4.07,11.7c2.03-3.56,3.36-7.63,7.12-10.17
		C734.86,89.52,733.66,87.8,732.8,92.42z M732.7,83.78c-4.99-1.29-18.52-9.56-18.62-9.56c0.62-3.08,3.39-15.82,0.25-15.96
		c-1.99-3.4,0.04-1.33,1.37-2.96c-0.2-3.15-1.02-4.58-5.8-9.56c-0.36-4.04,1.26-6.32,1.32-6.51c1.22-0.57,3.14,0.52,3.87-0.2
		c3.01-3.01,2.27-3.97,7.22-1.32c1.83-0.51,3.76-0.71,5.39,0.71c1.93,0,5.14-2.05,6.82,3.66c1.63,5.57-1.8,13.63-3.46,14.35
		c-1.72-1.23,2.88-4.14-0.31-14.45c-0.4-1.62-0.28-0.99-0.61-1.32c-0.58,0.29-0.32,0.79-0.2,1.22c0.99,5.93,1.8,4.71-0.92,14.65
		c-1.15,1.15-2.76,0.92-3.66,1.63c-0.53-0.53-0.83,0.18,1.42-2.03c0.21-0.2,0.75-6.59,0.1-10.78c-0.37-2.44-2.1-3.65-2.18-3.26
		c-0.14,1.1-0.05,2.12,0.34,3.05c1.36,3.28,0.92,6.82,1.12,9.97c-0.78,1.49-2.29,1.35-3.36,1.83c0,0.43,0.99,2.04-0.25,3.02
		c-0.97,0.76-2.42-1.62-2.9-2.31c0.09-1.23,1.32-0.63,2.02-1.56c2.08-2.72-0.83-9.63-2.43-12.39c-2.38-4.09,0.21,3.41,2.24,9.87
		c0,3.69-4.76,1.59-4.76,2.74c0.62,2.48,1.95,3.69,5.78,5.5c0.61-0.1,1.02-0.51,1.32-1.12c1.04-1.73,0.48-1.82,2.44-1.42
		c0,3.66,2.95,4.99,5.29,6.41C733.12,71.04,734.45,78.51,732.7,83.78z M731.17,62.51c-0.2-0.71,0.1-0.92,0.61-0.92
		C732.19,62.31,731.48,62.31,731.17,62.51z"/> <path d="M566.74,47.24c0,0.1,0.02-0.08,0.02-0.18h-0.01C566.65,47.16,566.63,47.13,566.74,47.24z"/> <path d="M616.21,12.35l0.1-0.1C616.16,12.25,616.23,12.24,616.21,12.35z"/> <path d="M145.49,17.21c-0.05-0.02-0.09-0.04-0.14-0.07C145.24,17.24,145.15,17.29,145.49,17.21z"/> <path d="M298.47,94.05c-0.04,0-0.02,0.05,0,0.1V94.05z"/> <path d="M284.43,105.24l-0.1,0.1C284.54,105.38,284.55,105.45,284.43,105.24z"/> <path d="M428.7,165.68c-3.38-1.2-63.6-19.38-66.54-20.55c-0.61-0.61-0.92-1.12-1.12-1.32c-0.92-0.51-1.53,0.1-2.24-0.51
		c-1.54-3.09-3.29-5.11-6.71-5.7c-7.83-0.78,3.28-11.49-21.47-19.64c-6.93-2.28-9.57-1.14-15.87-5.09c-5.84-3.66-7.32-2.54-9.56-5.9
		c-12.46-1.25-9.83,0.95-20.67-1.59c1.43,2.52,1.1,3.24,3.07,4.74c10.11,7.72,6.82,4.85,9.36,8.24c0.92-0.2,0.51-1.42,1.42-1.63
		c0.81,0.61,1.53,1.22,1.63,2.34c-0.61,1.73-2.14,1.22-3.36,1.63c-2.16-4.05-1.08-0.9-2.75-0.2c-2.14,0.57-4.34-0.45-5.09-2.03
		c-3.04-6.48-8.19-3.94-12.82-9.67c-0.82-1.01-2.03-0.92-2.85-1.53c-0.31-0.81-0.41-1.73-1.53-1.93c-0.31,0.92,1.02,1.53,0.41,2.65
		c-1.93,0.51-3.97,1.12-6.1,1.73c-3.65-2.84-3.6-3.35-5.7-4.17c-6.71-2.62-4.97-3.04-6.92-3.66c-17.12-5.44-50.85,4.05-42.32-4.48
		c3.59-1.31,4.21-1.37,4.07-2.45c7.48-0.3,8.43-1.29,19.23-0.09c4.08,0,5.19,1.98,10.48-0.81c12.32-6.5,13.13,2.34,22.48-0.92
		c15.41-5.36,13.47-2.35,23.5-0.51c2.54,0.47,5.17,0.92,7.7,1.42c-0.24-1.21-1.22-1.32-2.21-1.53c-14.3-2.14-13.65-5.37-21.57-3.26
		c-4.17,1.12-8.34,1.73-12.72,2.34c-2.44-0.73-9.55-4.65-19.23,1.12c-2.71,1.61,1.77,1.38-15.46-0.31
		c-11.54-7.53-16.35-11.16-38.97-4.88c-2.85-0.61-5.7-1.63-8.65-1.83c-0.61-1.83-0.81-3.46-0.51-5.39c1.93-0.2,3.76-0.51,5.6-0.71
		c2.14-1.83,3.22-4.18,4.07-6.71c3.36-10.05,7.69-14.71,5.39-26.66c-0.97-5.06-0.39-6.07,0.71-10.48
		c-1.02-8.44-2.75-16.38-7.53-23.5c-8.73-6.79-19.29-8.97-30.42-8.24c-6.28-6.28-19.13-4.54-20.55,4.88
		c-2.19,14.59,0.51,15.36-2.34,27.27c-0.9,3.75-3.22,13.03-1.83,16.58c0.32,0.83-0.22-2.28,1.02,19.13
		c0.41,7.08,2.18,10.31,5.09,15.16c-1.55,2.01-6.43,1.84-8.24,1.63c-5.11-0.61-18.57-0.36-22.79,3.76
		c-5.77,5.64-7.78,13.03-5.49,20.96c2.96,10.25,4.95,28.28,6.71,38.05c1.3,7.2,18.63,40.29,19.64,43.04
		c1.66,4.56-0.04,3.93,1.22,11.5c-0.41,0.81-1.02,1.52-1.22,2.34c-5.89,24.37-8.46,17.54-10.89,23.81c-0.79,2.04-2.22,3.57-2.85,5.7
		c-0.6,2.04-2.16,3.85-3.26,5.8c-2.61,4.67-7.56,17.93-8.14,22.89c-2.42,20.59-3.4,22.76-2.54,33.57
		c0.98,12.26,2.81,21.31,2.44,22.38c-0.57,1.66-0.7,0.75,5.19,30.62c1.16,5.86,2.64,8.25,4.07,14.04
		c7.65,30.9,7.45,33.31-3.97,60.33c-3.56,8.42-8.2,13.01-10.78,27.06c-3.45,18.7,1.03,25.44,2.95,44.26
		c1.33,13.02,3.77,23.32,3.97,36.53c0.06,4.32-0.63,16.52-1.32,17.91c-0.61,0.1-1.22-0.31-2.14,0.51
		c-1.32,3.87-2.44,8.14-2.34,12.82c-2.14,2.75-2.54,8.57-2.65,14.14c-0.11,5.57-1.2,5.62-2.95,11.09
		c-1.66,5.17,5.64,5.83,12.11,3.56c3.66,0.1,5.7,3.36,9.05,3.46c0.61-0.2,1.32-0.51,1.93-0.71c16.67,3.79,24.68,1.32,41.71-1.73
		c2.24-0.4,4.68-1.12,6-2.95c1.18-3.54-1.93-0.74,0.2-9.26c-1.53-4.17-3.86-6.55-7.83-7.53c-8.52-2.09-2.64-0.4-8.24-4.48
		c-8.19-5.95-3.56-7.42-16.08-24.52c-0.73-1-0.71-2.54-2.34-3.05c-1.73,0.71-3.56,1.12-5.49,0.31
		c4.06-64.94,21.97-87.39,25.03-125.85c0.41-5.14,3.15-6.34,3.15-11.8c0-2.69,0.79-2.29,1.63-7.33c3.91-23.45,0.91-11.52,3.76-23.2
		c4.59-18.79,3.66-22.01,4.07-41.41c0.06-2.71,0.71-1.73,0.71-1.63c10.29,34.5,19.73,40.22,26.45,74.47
		c1.52,7.73,1.54,7.73-0.1,15.16c-5.49,24.86-10.27,30.66-3.76,56.67c3.35,19.27,4.4,26.68,3.56,58.4
		c-3.16,1.47-4.13,7.37-5.29,10.38c-3.22,8.37-0.61,8.85-4.07,10.58c-1.42,4.99-1.63,10.38-3.46,14.85c-0.63,1-3.12,1.45-1.53,3.05
		c3.02,2.72,10.39,3.58,13.43,4.17c3.96,0.77,7.33-1.22,11.19-1.73c2.03,1.83,4.48,2.39,7.22,2.34c0.1,0,31.37,5.49,44.97-5.8
		c1.73-2.54,2.14-5.8,4.48-7.83c0-2.14-1.1-3.49-2.54-4.58c-4.79-3.61-8.45-1.69-13.84-3.97c-3.02-4.1-7.38-2.7-10.58-8.85
		c-2.63-5.06-7.59-13.13-12.41-16.28c-4.02-0.57-3.57,0.74-4.78-0.1c-0.66-5.31,1.69-11.27,2.24-19.94
		c0.65-10.3,4.06-20.1,6.31-31.23c4.34-21.48,4.44-30.52,5.39-45.48c0.68-10.71-1.58-9.44-0.61-15.26
		c1.04-6.22,3.15-9.12,1.12-15.87c-0.8-2.65-0.92-5.39-0.71-8.34c2.46-2.23,1.01-3.45-0.1-40.8c-0.43-14.49-2.43-24.64-5.39-37.14
		c-1.07-4.51,0.7-2.29-1.32-7.22c-1.37-3.34-14.72-43.18-13.02-53.72c0.15-0.92-0.87-7.93-0.71-14.24
		c0.03-1.38-1.59-12.46-2.54-19.74c-1.26-9.55,1.12-14.28,6.51-29.3c1.32-3.08,0.03-5.41,0.81-9.26c1.76-8.71,0.77-13.71,3.49-18.59
		c-2.07,0.3-4.48,0.99-6.95,0.9c1.47,0.59,2.9,0.05,3.97,1.12c-1.12,4.37-1.53,8.95-1.42,13.43c-1.02,0.81-1.84-0.12-2.65,0.2
		c-1.83,0.73-6.93,2.29-11.7,2.44c-11.39,0.37-6.97,1.11-11.9,1.22c-5.58,0.12-18.13,0.43-24.21-0.51c0.41-0.41-0.53,0.4-0.81,0.41
		c-21.54,0.47-23.5,1.52-29.71-0.92c-2.55-4.71-9.93-18.42-10.68-23.71c3.97,0,6.24,0.3,9.77-1.42
		c11.26-5.52,21.81-18.9,18.92-30.12c20.01-1.46,7.68,0.21,24.82-2.24c6.19,4.21,12.33,5.95,19.74,3.66
		c6.76-2.09,14.04-2.44,20.86-5.09c3.98,5.12,15.17,16.27,10.99,27.16c-3.87,10.06-6.8,10.29-6.8,11.72
		c1.52,0.35,6.55-3.12,8.64-9.79c0.22-0.71,0.93-11.91,0.81-12.62c-1.05-6.43-6.73-13.11-11.9-16.99c3.36-1.73,6.31-3.46,9.67-4.27
		c0.87,0-0.09,0,0.1,3.76c-1.59,8.32,10.04,12.06,13.23,11.19c9.13-2.49,6.54-3.79,8.04-5.29c1.63-0.61,2.95,0.31,4.37,0.2
		c5.81-3.49-2.95,1.82-2.95-5.8c0.2-0.51,1.02-0.2,1.12-1.22c-1.99-0.79-2.04-3.24-3.38-4.77c-1.92,0.96,1.51,2.27,0.63,8.74
		c-1.32-0.51-2.34-1.22-2.95-2.44c0.2-0.51,0.31-1.02,0.51-1.63c-0.92-0.81-1.32-1.93-1.93-3.05c-2.61-4.79-6.36-5.99-5.29-12.62
		c0.1-0.2-0.1-0.41-0.2-0.61c-0.81,0-0.51,1.63-1.63,1.02c0-0.41-0.61-1.83-0.81-2.03c-0.92,1.93,0.1,3.56,1.02,5.39
		c-6.25,2.57-5.16,3.57-7.33,7.43c-9.27,3.86-15.83,6.95-22.69,7.83c-16.15,2.07-25.73-2.05-30.32-1.22
		c-13.01,2.36-24.73,1.7-38.15,1.42c-13.44-0.27-14.17-4.42-17.5-3.15c-2.9,1.11,2.15,2.03,4.99,2.03
		c3.06,1.53,7.34,4.39,14.65,3.97c0.73-0.04,7-0.24,8.14,0.41c0.92,2.24,1.02,2.24,0.61,3.87c-2.88,11.31-17.65,28.64-28.18,26.15
		c-1.67-1.85-2.92-7.97-5.19-11.6c-2.39-3.83-1.67-7.12-2.34-17.19c-0.69-10.48-9.24-27.08-3.97-33.17
		c4.39-5.06,4.23-7.84,11.5-9.36c7.11-1.49,14.45-0.81,21.77-1.22c1.02,2.15,3.28,3.07,4.48,5c0.58,0,1.06,0.27,1.36,0.73
		c-0.64,0.09-1.19,0.12-1.57-0.53c-3.6-0.95,4.88,4.43,4.99,4.54c0.55,0.55-1.58-0.3-2.65,0.66c1.22,1.53,2.46,2.7,5.9,2.54
		c21.85-1.01,28.02-0.49,34.69-2.44c12.73-3.72,20.97,3.79,39.68,1.63c1.24-0.14,17.42-1.48,25.23,0.31
		c1.32,0.92,2.44,1.83,3.66,2.75c-0.41,0.41-0.71,0.81-1.12,1.12c1.42,0.61,2.65,0,3.87-0.31c1.93,0.41,3.57,1.41,5.19,2.24
		c2.35,1.2,3.87,3.15,4.48,5.7c0.49,0,0.64,0.16,0.71,0.06c0,0.05-0.01,0.09-0.01,0.11c0.11-0.11,0.14-0.11,0.01-0.11
		c0.09-0.12,0.04-0.67,0.41-2.51c2.34-0.81,4.78-1.63,7.53-2.44c1.53,2.95,4.58,4.07,6.82,5.8c1.14,3.7-0.2,1.34,2.34,6.41
		c-2.95,0-3.68-3.07-16.89-5.09c-1.59,7.17-3.06,7.22-4.37,11.9c-0.1,0.7-0.9,1.2-1.69,1.12c-0.52-0.82-1.58-0.44-2.17-1.42
		c-0.76-5.32,2.83-5.75,0.2-14.85c-1.33,4.25,0.57,5.93-1.12,9.97c-1.67,3.99-0.78,13.56,5.49,12.41c1.02-0.19,1.93-0.71,2.14-2.03
		c-2.77-5.54-0.69-4.15,5.29-2.95c7.08,6.07,9.99,5.51,14.85,7.94c4.7,2.35,10.24,1.82,14.96,4.48c1.89,0.63,2.28-0.68,6.82,2.44
		c24.62,2.46,20.97,2.59,34.59-2.95c1.53,1.12,3.42,1.96,4.48,3.76c1.71,2.93,9.69,3.66,13.63,2.34
		c22.89,7.12,45.58,14.04,67.96,20.96C430.97,168.3,430.43,166.29,428.7,165.68z M292.77,111.04c0.2,0.2,0.31,0.41,0.51,0.51
		C292.43,111.97,291.91,111.26,292.77,111.04z M295.72,111.45c-0.1,0,0.1-0.1,0.2-0.2c0,0.1,0.1,0.31,0.2,0.51
		C295.81,111.75,296.11,112.22,295.72,111.45z M135.07,558.19c0.36,0,0.43,1.4-0.92,0.61C134.36,558.3,134.67,558.09,135.07,558.19z
		 M129.27,546.9c0.32,0-0.2-0.3,3.87,7.83c-2.5,0.72-11.99,3.53-14.85,6.71c-1.07,1.71-0.22,3.21,1.49,3.45c1.95,0,4.03-2,6.04-2.61
		c1.46-0.44-1.27,0.31-1.83,3.85c1.36,3.44,5.31-2,12.91-3.61c0.71-0.2,1.23,0.95,1.43,1.68c-0.8,1.2,0.56-0.09-6,1.83
		c-2.14,0.63-5.17,2.56-4.99,5.09c2.55,0.38,4.3-0.9,6.51-1.42c5.13-1.23,5.99-1.36,6.21-1.42c1.82,0.81,1.39,1.93,0.81,1.93
		c-4.16,0.4-8.16,0.51-7.73,2.85c0.47,0.81,1.05,1.02,1.83,1.02c5.15-0.4,7.44,2.44,9.36,1.02c0.65-0.48,0.1-1.01,0.1-1.62
		c1.63,0.07,2.14,1.45,8.34,3.86c5.13,1.99,3.86,0.03,7.43,5.19c-0.76,7.6,1.58,9.39-3.26,10.38c-15.69,3.21-30.49,6.12-47.21-0.2
		c-7.44-2.82-8.47,0.1-9.36,0.1c-1.69,0-3.18,0-4.68,0c-0.31-1.63,0.33-2.94,0.92-4.07c4.11-7.99,0.45-16.82,3.26-21.98
		c0.6-1.1,0.92-4.58,0.92-4.68c1.12-0.1,0.71,1.32,1.22,1.22c6.03,2.18,6.99-3.33,14.24-10.07
		C124.3,545.73,118.72,546.9,129.27,546.9z M188.18,540.08c0.23,0.33,0.19,0.59-0.2,0.71C187.42,540.8,187.59,540.28,188.18,540.08z
		 M213.62,535.91c4.31,3.27,5.73,6.22,5.54,6.22c-4.16,1.26-6.28,1.84-10.02,3.86c-4.35,2.35,0.82,6.6,0.73,4.75
		c-0.01-0.27-0.13-0.72,0.08-0.89c3.36-2.24,7.43-3.05,10.89-5.49c5.74,4.59-5.58,3.71-8.64,7.53c-0.5,0.5-0.53,1.14-0.1,1.73
		c0.98,0.76,1.42,0.47,7.63-1.93c1.53-0.59,3.05-1.22,4.68-1.93c1.53,2.03,3.26,3.97,4.58,6.31c-0.67,1.35-3.32,1.42-4.07,3.46
		c1.58,1.58,5.21-1.31,6.21-1.73c2.09,1.39-0.23,1.36,0.32,2.44c0.28,0.83,1.5-0.41,6,1.63c5.89,2.67,8.16,0.83,12.82,3.46
		c0,3.93,0.46,9.87-6.41,11.9c-12.23,3.62-25.39,4.15-35.61,2.34c-10.53-1.87-6.53-4.88-13.84-2.24c-4.51,1.63-7.51,0.68-15.16-0.92
		c-0.51-0.11-1.12-0.51-1.63-0.71c-0.13-0.82,0-0.49,1.63-5.9c5.33-1.78,3.04-13.14,5.1-19.36c0.86-2.61,0.22-5.12,1.73-5.77
		c0.3,2.16-0.4,2.45-0.4,2.91c0.72,2.67,1.06,8.82,6.81,6.65C208.43,548.22,198.02,544.73,213.62,535.91z M223.69,391.14
		c0.44,3.38-1.49,4.21-0.51,14.96c1.17,12.87-3.03,12.88-1.73,21.47c1.53,10.04,0.3,9.6-1.22,32.15
		c-1.53,22.71-8.48,33.06-11.6,76.71c-0.62,0.54-1.25,1.09-2.03,1.32c-5.88,4.41-6.02,11.06-13.33,13.84
		c-1.75,0.66-3.6,1.1-4.44-0.25c-0.63-1.27,0.37-1.22,0.37-1.78c0.54-3.06-2.66-4.08,1.83-8.95c-1.99-34.83,2.46-37.27-3.56-62.37
		c-4.75-19.79-3.75-20.21,4.07-51.48c1.27-5.09,0.1-4.27,0.1-6.61c0-1.08,1.73-1.22,1.32-2.85c-0.97-6.45-0.14-6.96-0.81-8.24
		c-1.85-3.5-2.26-7.22-2.85-10.89c-3.27-20.36-9.66-25.83-22.08-59.21c-3.93-10.56-1.79-11.97-5.6-15.77
		c0.31-2.65,0.61-5.39,0.92-7.83c0.92-0.92,1.73-1.32,2.65-1.02c2.95,0.98,3.94-0.62,29.71-4.17c3.25-0.45,9.15-0.08,14.96-0.71
		c1.02-0.11,2.03-0.31,3.26,0.31C224.2,343.01,220.75,368.67,223.69,391.14z M201.61,254.8c1.41,3.94-1.84,7.03,4.58,32.66
		c4.48,17.9,7.22,18.82,3.56,18.82c-8.04,0-22.68-1.44-44.36,5.7c-4.03,1.61-0.63-3.45-0.2-6.31c-0.31-0.92-1.02-0.2-1.32-0.92
		c2.65-4.07,5.8-8.14,6.31-13.43c0,0-0.1-0.1-0.31-0.2c-1.09,0.31-1.44,1.64-2.03,2.44c-2.08,2.81-4.22,5.84-4.68,9.26
		c-1.56,11.64-4.19,16.25-5.19,32.96c-0.55,9.17,0.27,17.47-2.75,37.85c-2.79,18.87-0.88,17.29-2.03,19.03
		c-1.49,1.98-0.98,5.8-2.14,9.87c-3.55,12.5-5.23,17.26-6,24.72c-0.59,5.69-1.02,0.38-6.82,27.37
		c-2.03,9.44-15.97,44.76-15.97,89.19c0,0.24,0.26,0.14-2.26,0.61c-0.22,0.04-5.23,5.69-6.39,7.87c-1.2,1.8-2.93,2.89-6.41,7.33
		c-3.23,4.12-3.7,0.29-4.07-0.81c7.52-6.94,1.87-37.43-3.97-86.99c-1.12-9.51,2.34-25.58,5.9-30.83
		c1.82-2.68,12.55-24.2,14.24-43.55c1.53-17.57-8.74-35.89-14.65-83.02c-0.37-2.93-0.65-0.44-0.1-5.9c0.51-0.91,1.28-0.81,2.03-1.02
		c13.66-3.77,20.51-0.9,28.69-0.31c21.7,1.57,23.23,5.42,24.52,2.85c-1.25-5.62-34.46-7.38-40.29-7.33
		c-2.02,0.02-4.89-0.51-5.39-0.51c-2.72,2.32-6.38,2.46-9.77,3.26c-1.42-3.65-1.41-15.44-1.42-18.42
		c-0.14-25.99,11.44-45.38,12.35-45.38c9.69-0.62,21.76,6.76,24.78,6c1.22-0.41,2.44,0.21,3.66,0.61
		c24.93,8.16,21.38,6.54,36.63,7.02c4.99-1.42,10.18-0.26,15.26-1.02C197.54,254.01,199.58,254.4,201.61,254.8z M174.96,189.89
		c5.78,0.14,11.06-1.55,13.43-1.53c16.94,0.14,18.98-4.57,18.67-2.81c-1.6,9.13,1.03,1.32-3.92,16.75
		c-0.42,1.32-0.41,2.75-1.53,3.76c-0.41,0.31-0.41,0.92-0.51,1.42c-2.74,10.19-2.18,14.33-2.54,20.45
		c-0.47,7.83,2.79,4.98,2.95,23.71c0,0.24-0.62,0.61-0.81,0.61c-8.04-0.82-18.78,0.25-22.08-1.12c-1.96-0.81-20.17,0.46-24.38-1.94
		c-0.99-0.56-1.21-1.53-2.08-1.62c-1.11,1.11-0.71,1.02-2.24,0.71c-23.49-7.19-17.59-5.85-19.79-6.95
		c-1.58-1.51-11.51-2.46-12.46-3.53c-0.35-1.05,0.6-1.81,3.56-7.73c1.78-3.55,5.37-3.72,6.41-11.19c0.8-5.76,4.03-9.47,2.95-22.48
		c-0.32-3.85-1.82-1.94-2.24-7.22C135.92,192.56,145.9,189.19,174.96,189.89z M237.53,133.02c0.31-1.02,1.83-1.02,2.14-2.14
		c0.77-0.23,1.4,0.43,1.73,0.51c0-0.2,0.1-0.41,0.2-0.51c0.51,0.51-0.2,0.31-0.2,0.51c-0.29,1.95-1.57,2.24-3.36,2.75
		C237.46,133.84,237.53,133.48,237.53,133.02z M231.22,123.35c-0.41-0.41-0.31-0.81-0.2-1.22
		C231.62,122.44,231.42,122.84,231.22,123.35z M231.93,115.42c1.09,0,0.36,1.53-0.31,1.02c-0.2-0.2-0.41-0.51-0.71-0.81
		C231.42,115.52,231.73,115.42,231.93,115.42z M179.82,13.7c0.21,0.02,0.4,0.1,0.52,0.27C179.95,13.97,179.71,13.7,179.82,13.7z
		 M179.02,13c0.51,0.17,0.31,0.16-0.1,0.16C178.92,12.98,178.9,12.92,179.02,13z M178.21,10.79c0.07,0.09,0.13,0.17,0.2,0.24
		C178.18,11.03,178.21,10.99,178.21,10.79z M165.31,7.18c0.36,0.36,0.62-0.29,2.52,1.21c-1.02-0.31-2.03-0.1-2.44-1.12
		c-0.89,0-1.66-0.02-2.25-0.71C164.03,6.54,164.77,6.43,165.31,7.18z M153.55,3.32c0.22-0.26,0.23-0.34,0.96,0.39
		C154.14,4.4,153.14,3.81,153.55,3.32z M162.99,6.46c-6.51,1.35-8.11,2.04-10.01,0.3C154.76,4.97,162.4,5.27,162.99,6.46z
		 M160.2,9.2l-0.31-0.1C160.28,8.97,160.2,8.93,160.2,9.2z M147.48,1.16c1.68,0,3.25-0.41,4.88,2.85c-1.03,1.04-0.38,1.14-5.6-2.34
		C147.18,1.47,147.38,1.26,147.48,1.16z M138.23,7.98c1.12-3.91,3.37-5.13,6.71-5.8c1.63,0.51,3.15,1.42,4.48,2.75
		c-1.01,1.23-4.25-1.24-1.53,2.03c-2.24,1.32-4.17,3.05-6.82,3.66c-1.53,2.54-3.05,4.88-4.68,7.53
		C136.4,14.54,137.26,11.35,138.23,7.98z M144.84,11.74c0.1,0,0.2,0,0.2,0.1C145.26,12.06,144.99,11.92,144.84,11.74z M187.88,98.12
		c-14.02,2.48,2.28,2.75-38.56,2.75c-1.35,0-1.47-0.37-1.62-0.52c0.61-0.41,1.31-0.61,1.52-1.72c-3.62-5.52-9.16-8.33-9.16-9.36
		c2.93-2.43,1.76,1.21,14.14,10.07c-1.11-3.18-2.74-5.11-4.86-7.06c-9.85-9.06-0.13,3.32-2.77-33.64c0.3-0.45,1.04-0.54,1.58-0.54
		c-0.15,2.68,1.07,5.12,2.9,6.95c0-2.44-1.22-4.58-2.03-6.92c-0.06-0.17-0.25-0.28-0.46-0.38c0.09-0.22,0.19-0.45,0.25-0.64
		c-1.04-1.69-0.77,2.26-5.83-2.83c-4.35-4.38-4.87-10.32-3.72-11.92c1.85-2.57,0.04,1.7,0.12,2.59c0.24,2.66,1.86-2.85,2.92-0.66
		c0,1.09-2.36,2.07-0.81,2.85c0.79,0.08,1.22-0.63,1.89-0.96c1.82-0.87-0.35,1.83-0.16,2.58c0.19,1.19,1.24,1.43,1.73,2.13
		c-0.21,1.19-0.07,1.95,0.92,2.65c0.31-0.31,0.71-0.41,0.81-0.71c0.89-2.22-0.76-2.64-1.32-4.17c-0.1-1.12-0.2-2.54-0.31-3.87
		c1.73-0.92,3.46,0.92,5.19,0.31c0-0.99-1.1-0.91-1.37-1.64c-0.2-0.53,0.28-0.91-0.74-1.4c-2.64-1.28,1.96-0.01,3.13-2.26
		c-1.13-0.16-10.78-0.5-6.69-0.81c3.05-0.23,6.08,0.22,8.12-2.65c-1.29-1.29-0.8,1.48-8.24,1.63c-2.03,0.04-3.97,0.2-5.9,0.81
		c0,1.02-0.6,1.84-1.02,2.75c-1.61,3.5-0.08,5.64,1.73,9.56c-0.83,6.16,1.76,24.53,0.25,19.79c-0.47-1.48-2.95-14.38-2.8-19.48
		c-1.23-0.45-1.93-0.13,0.41,15.06c-0.68,0.59-1.08-0.27-1.63,0.1c0,6.84,3.2,16.21,5.18,18c0.19,0.14-0.15,0.39,1.43-1.52
		c-1.66-11.76-0.78-25.55-2.14-29.61c2.54,0.78,0.23,10.66,3.56,26.96c0.55,2.68,0.5,5.87-2.03,4.88
		c-6.96,6.96-9.86-36.09-5.9-49.95c1.37,0.86,1.1,3.26,2.86,3.46c-0.37-2.49-1.3-4.63-0.51-7.12c7.39,4.14,11.66,0.3,14.04,1.32
		c-4.91,2.73-11.83-0.01-12.21,2.44c6.18,1.17,17.5-1.06,14.46-3.47c1.94-1.94,2.69-1.76,1.41-3.04c-0.17,1.03-0.58,0.5-1.42,0.81
		c0.46-0.69,0.83-1.04,1.54-0.82c0-1.18,1.04-1.89,1.38-2.95c0.06,0.01,0.02,0.05,0.02,0.13c0.09-0.23,0.26-0.31,0.41-0.31
		c-0.35,0-0.22-0.53-0.38,0.13l-0.03-0.03c-0.01,0.01-0.01,0.03-0.02,0.04c-0.82-0.22-0.63,0.27-2.71,0.61
		c0.43-1.61,0.44-1.31-0.38-1.18c-2.69,0.44-2.69-0.02-5.12-0.83c1.73-0.41,3.66-0.1,5.19-1.53c-2.01-0.61-4,0.62-5.9,0.51
		c-1.73-0.1-3.55,0-5.48,0.51c-0.06,0,6.41,2.05,6.71,2.14c-1.93,1.02-1.93,1.02-5.09,0.81c-0.82-0.45-1.35-1.77-2.54-1.99
		c-1.39-0.26,1.58,1.35,0.8,2.91c18.36,1.78,1.26,2.34,1.2,2.74c-0.1,1.15,0.41,1.13,6.23,0.52c-4.21,2.46-8.17,1.72-12.21-1.22
		c-0.68-1.35-0.12-2.3,0.61-1.93c0.75,0.37,1.19,1.04,2.05,1.04c0.33,0.58,0.48,0.78,1.01,0.18c-0.26-0.26-0.53-0.36-0.85-0.25
		c-0.4-2.04-4.04-2.2-2.73-5.07c0.46-1,1.94,1.66,3.58,1.45c-0.46-1.83-4.84-3.02-2.24-6.92c8.82,4.12-1.27,0.41,12.39,2.58
		c1.81,0.29-4.23,0.75-5.07,1.17c3.87,1.12,7.22-1.02,11.39,0.2c-0.98-1.68-1.86-2.15-3.26-2.24c-3.96-0.26-7.83-1.12-11.5-0.51
		c-0.49-0.21-1.43-0.76-2.04-1.29c-2.19-1.87-1.09-2.36,2.15-6.13c1.92,0.44,1.06,1.92,3.71,3.16c1.63,0.77,3.82,1.21,5.44,2.33
		c-1.97,0.46-7.93-1.18-6.91-0.5c2.94,1.62,5.17,1.8,9.04,0.8c1.32,0.61,2.85,0.81,4.48,0.41c0.17-1.18,0.52-2.1,0.31-2.1
		c-1.24,0.62-3.23,1.4-3.56,0.06c-1.79,0.89-4.86-0.27-6.1-1.42c-3.38,0-4.71-2.87-4.25-2.87c1.28-0.07,1.09,0.01,0.97-0.39
		c-0.31-1.03-0.32-0.88-0.2-1.07c0.98-2.1,3.35,1.43,5.67,1.47c2.36,3.17-1.75,0.65-2.5,2.66c9.73,0,2.49,3.61,9.37-0.52
		c0.63-0.32,1.21-0.16,1.73,0.31c0.58,1.75-1.21,0.26-1.21,1.74c1.23,0,1.75-0.82,1.55-0.82c0.36-0.36,0.91-0.68,0.79-1.51
		c-4-1.09-4.51-2.26-9.78-2.26c0-1.18-5.44-2.68-1.2-3.75c14.65,3.66,14.98,5.72,16.69,4.17c1.83,0.92,3.56,1.93,5.29,2.85
		c2.24-0.2,2.24-0.2,4.37,1.12c0.41-0.31,0.81-0.61,1.22-0.92c-1.84-2.07-4.65-3.94-6.77-5.26c0.38-0.21,0.29-0.13,0.86-0.34
		c-1.66-2.27-6.36-3.4-3.97-3.19c2.66,0.23,9.78,1.6,9.78,4.23c-1,0.29-1.63-0.63-2.86-0.63c0.01,0.48,0.13,0.94,0.6,1.12
		c1.16,0.35,1.59,1.59,2.85,2.08c0,1.82,0.19,1.5-0.71,1.5c0.38,0.52,0.69,0.11,0.79,0.11c0.78,0.15,1.57,0.97,2.26-0.02
		c-1.16,0-0.61-1.39-0.61-0.41c0.61-0.09,0.91,0.13,0.81,0.71c0.51,0.1,0.92,0.2,1.53,0.41c0.21-1.44-2.15-1.84-1.31-3.45
		c1.63,0.66,3.01,4.43,3.76,3.76c0.1-0.1,0.27-0.19-0.08-0.31c0.39-0.82,0.14-0.85,0.73-0.38c3.64,2.91,5.53,12.37,6.99,17.98
		c-1.02,0.17-10.42-0.18-5.7,2.24c1.32-0.08,9.47-2.66,4.58,3.87c-0.2,0.61-0.51,0.51-0.71,0c-3.75-0.21-5.78,1.07-5.32,1.91
		c0.25,0.45,1.23,0.52,1.15,1.34c-0.11,0.55,1.11,1.4,1.42,1.83c1.93,0.31,2.36-1.52,3.76-2.65c0.54,4.74,3.01,11.32-0.61,20.45
		c-4.87,12.28-4.27,13.22-7.12,15.87c-4.87,2.55-8.02-2.16-6.92,6.1c1.38,10.37,3.27,5.34,4.84,13.66c0.07,0.35,0.96,0.45,0.96-0.64
		c0-8.45-5.29-13.46,6.1-0.11C189.1,98.02,188.39,98.03,187.88,98.12z M143.01,59.87c0-2.45-0.07-2.14,0.2-2.14
		C143.21,60.18,143.28,59.87,143.01,59.87z M140.23,41.31c0.55-1.8,2.96-0.96,2.79,0.8C142.09,41.63,141.32,41.03,140.23,41.31z
		 M139.86,80.83c0.23,0.36,0.5,0.41,0.19,1.02c-0.15-0.58-0.14-1.09-0.32-1.09c-0.58-0.35-0.71-0.84-0.71-1.52
		c0-2.07-1.8-1.35-1.1-6.35c0.41,1.84,1.43,3.76,1.12,5.8C140.07,79.2,139.66,80.12,139.86,80.83z M152.06,27.82
		c-0.23-1.07,0.73-1.22,2.24-1.22C153.69,27.21,152.91,27.62,152.06,27.82z M154.12,32.02c0,1.03-0.85,0.1-0.18,0.03
		C153.95,32.05,154.11,32.02,154.12,32.02z M155.83,13.57l-0.31,0.1C155.52,13.41,155.44,13.45,155.83,13.57z M191.13,97.82
		c-1.63-2.65-2.34-5.6-4.48-7.73c1.04-0.69,1.93,0.2,2.75-0.2c8.76-4.35,24.38-5.13,33.47,2.44c-2.17,1.38-4.98,0.04-7.9,2.53
		c-1.29-0.26-2.4,0.72-3.6,0.72c0.26-0.26-2.6,0.8-3.46,4.58C202.22,99.44,196.83,97.61,191.13,97.82z M261.01,129.34
		c-0.11,0.62-0.42,0.61-0.9,0.22C260.35,129.32,260.68,129.26,261.01,129.34z M259.6,131.9c0.41-1.22,1.32-1.12,2.14-1.32
		c0.98,0,1.33,1.99,1.43,2.54C261.65,133.68,260.69,133.09,259.6,131.9z M265.81,126.51c-1.7,0,0.14-2.35,0.18-0.63
		C266,126.1,265.95,126.31,265.81,126.51z M268.34,122.06c0.03,0.6,0.24,0.95,0.36,1.1c-0.15-0.12-0.54-0.4-1.39-0.78
		c-0.67-0.3,0.51-2.27,1.15-3.09c0.31,0,0.71,0,1.02,0.1C271.33,120.36,268.26,120.64,268.34,122.06z M270.08,127.22
		c0-1.36,1.32-0.79,1.32,0.92C270.8,128.03,270.29,127.83,270.08,127.22z M273.64,121.42c-0.27,0-0.39-0.16-0.23-0.08
		C273.46,121.37,273.5,121.42,273.64,121.42c0.1,0.2,0.31,0.31,0.51,0.31C273.54,122.24,273.74,121.62,273.64,121.42z
		 M274.25,129.36c0.83-0.67,1.53,1.24,1.73,1.63C274,130.98,273.65,129.72,274.25,129.36z M279.04,129.66
		c-1.73-1.22-2.03-3.15-2.34-4.99c1.98-1.24,0.95,3.19,3.76,8.34C278.78,134.14,279.49,132.61,279.04,129.66z M327.36,118.67
		c0.53,0,0.36,2.32,0.31,2.85c-0.61-0.31-0.78-0.69-0.98-1.33C326.09,118.24,324.98,118.67,327.36,118.67z M322.89,118.16
		c0.14,0.14,0.17,0.41-0.1,0.41C322.65,118.43,322.62,118.16,322.89,118.16z M318.41,116.84c0.59,0.59-0.12,0.93-0.27,0.57
		C318.07,117.28,318.25,117.17,318.41,116.84z M314.44,114.3c0,0.2,0.1,0.31,0.2,0.51c-0.08,0.23-0.21,0.22-0.32,0.12
		C313.79,114.39,314.19,114.55,314.44,114.3z M307.32,119.18c1.04,0.12,1.63,0.87,1.63,1.63c2.03-0.61,3.56,1.12,5.49,1.12
		c-1.93,0.41-3.76,0-5.49-1.12C306.56,121.11,305.96,119.73,307.32,119.18z M304.27,113.89c-1.02-0.21-0.71-1.1-1.02-1.73
		C304.17,112.47,304.37,113.08,304.27,113.89z M303.25,118.77c-0.2,0.51-0.41,0.1-0.61,0C302.84,118.77,303.05,118.77,303.25,118.77
		z M300.91,120.5c0.81-0.2,1.42,0.2,1.93,0.71C302,124.04,299.24,122.49,300.91,120.5z M292.95,137.32
		c-0.59-0.67,0.14-2.12,1.04,0.58C293.47,137.73,293.15,137.54,292.95,137.32z M311.7,137.09c-0.26,0.43-0.51-0.72,0.1-0.1
		C311.75,136.99,311.73,137.04,311.7,137.09z M318.41,137.5c-0.1-0.1-0.2-0.31-0.41-0.51C318.46,136.53,318.95,136.95,318.41,137.5z
		 M323.09,144.62c-0.92-0.51-0.81-1.32-0.61-2.03c0.92,0.2,1.02,0.92,1.12,1.63C323.5,144.31,323.29,144.52,323.09,144.62z
		 M325.12,132.61c-19.08,0-11.43-1.72-29.4-5.9c-1.21-0.28-2.66-0.52-3.66-1.42c0.31-1.01,1.02-1.42,1.83-1.32
		c2.75,0.61,5.38-0.66,8.14-0.2c1.42,0.23,2.44-1.12,3.87-1.63c14.15,4.25,12.9,3.06,14.65,4.17
		C327.71,130.87,330.72,127.59,325.12,132.61z M327.26,144.41c0.2-0.41,0.51-0.31,0.81,0C327.77,144.72,327.57,144.92,327.26,144.41
		z M338.35,123.96c0.48,0.12,0.43,0.31-0.2,0.31C338.03,124.27,337.91,123.96,338.35,123.96z M334.49,121.62
		c1.04,0.52-0.51,1.61-0.51,0.31C333.98,121.83,334.28,121.73,334.49,121.62z M343.74,137.5c-0.71,0.61-0.31,1.42-0.61,2.34
		c-2.13-0.85-3.73-1.43-3,0.83c0.08,0.25,0.38,0.16-3.1,1.2c-1.6-0.78,1.48-3.33-2.75-7.43c-1.71-1.66-3.03-1.99-3.26-3.56
		c1.35-1.35,2.36-1.16,4.37-1.42c1.43-0.19,2.65-1.42,4.58-1.12c5.19,5.66,4.3,1.69,7.12,8.75
		C346.19,138.21,344.76,136.99,343.74,137.5z M353,145.33c0.17-0.6,0.66-0.8,1.32-1.02C354.32,145.38,354.36,145.45,353,145.33z
		 M345.78,140.14c0.87-0.66,1.38-0.32,1.83-0.08c0.8,0.42,1.42-0.05,2.34,0.08C359.75,141.59,351.9,147.79,345.78,140.14z"/> <path d="M242.71,121.11l-0.1-0.1C242.65,121.05,242.69,121.14,242.71,121.11z"/> <path d="M250.04,131.59l-0.1-0.1C249.9,131.62,249.82,131.59,250.04,131.59z"/> <path d="M212.8,168.32c-0.08,0.17-0.12,0.14,0.1,0.1L212.8,168.32z"/> <path d="M140.97,95.07c0.27,0.04,0.2,0.07,0.1-0.1L140.97,95.07z"/> <path d="M302.24,96.78c0.05,0.46,0.49,0.76,0.19,1.24c-3.31-0.5-4.54-1.01-6.81-2.77c-0.06,2.12,2.04,2.77,4.77,3.68
		c8.33,2.78,9.13,2.25,9.46,5.7c0.37,3.92,1.01,4.98,2.65,5.39c0.81-2.24-1.66-3.77-1.53-5.9c0.08-1.32-0.51-2.65-2.34-3.97
		c-0.71-0.61-2.65-0.1-3.87-1.32c-0.71-4.56-2.23-5.79-6.27-5.1C299.22,95.48,300.49,96.36,302.24,96.78z M302.27,96.68
		c-0.1,0-0.64-1.22-0.71-1.41C303.33,95.26,302.96,96.37,302.27,96.68z"/> <path d="M298.47,93.64v0.1C298.54,93.75,298.49,93.72,298.47,93.64z"/> <path d="M295.52,95.17c0.17,0.12,0.1,0.1,0.1-0.1L295.52,95.17z"/> <path d="M252.89,129.97c-4.62-0.56-0.05-6.52-3.15-13.02c-0.63,12-1.22-0.94-0.1,13.63c2,0.5,6.87,1.77,6.21-0.2
		C254.92,129.76,253.9,130.09,252.89,129.97z"/> <path d="M175.06,112.26c-0.31,1.12,0.41,1.32,1.32,1.53c3.36-0.71,4.99-3.46,6.82-6.1C180.67,106.63,181.78,108.9,175.06,112.26z"/> <path d="M137.31,120.61c2.24-0.61,4.07-2.03,5.6-4.48c-2.34,1.42-4.37,2.85-6.92,3.56C136.29,120.71,136.8,120.81,137.31,120.61z"/> <path d="M241.39,109.72c-0.41,3.76-0.2,7.12,0.71,10.38c0.2-0.41,0.51-0.71,0.51-1.02C242.92,117.45,242.21,112.16,241.39,109.72z"/> <path d="M128.15,113.18c2.14-1.83,3.76-3.97,5.7-5.9c-2.11,0-4.94,3.3-6,4.99C127.75,112.37,127.95,112.67,128.15,113.18z"/> <path d="M168.65,121.11c1.93,2.03,2.34,2.03,5.6,0.31C172,121.73,170.48,120.81,168.65,121.11z"/> <path d="M184.82,116.23c-2.44,0.1-4.99-0.2-8.14,0.41C178.49,117.24,183.7,117.74,184.82,116.23z"/> <path d="M228.06,106.57c-1.53,0.2-2.85,0.41-3.97,1.42C226.44,107.73,228.06,108.13,228.06,106.57z"/> <path d="M131.1,132.1c-0.92,0.92-1.02,1.83-0.81,3.26C131.1,134.24,131.82,133.43,131.1,132.1z"/> <path d="M144.64,115.01c1.53,0.1,1.73-0.1,1.42-1.42C145.45,113.89,144.74,114.2,144.64,115.01z"/> <path d="M293.18,93.95c0.58,0.97,1.17,1.47,2.19,1.16C294.5,93.96,294.48,93.95,293.18,93.95z"/> <path d="M295.37,95.11c0.02,0.02,0.03,0.04,0.05,0.06C295.57,95.02,295.55,95.07,295.37,95.11z"/> <path d="M290.53,97.92c1.22,0,1.22,0,1.42-0.71C291.35,97.1,290.94,97.41,290.53,97.92z"/> <path d="M217.08,109.01c0.61,0.51,1.12,0.61,1.73,0C218.3,108.6,217.69,108.7,217.08,109.01z"/> <path d="M253.4,124.47c0.53,0-0.23-1.09-1.02-0.31C252.58,124.47,252.89,124.57,253.4,124.47z"/> <path d="M286.97,93.44c0.51,0.31,1.02,0.41,1.42-0.2C287.89,92.73,287.38,92.83,286.97,93.44z"/> <path d="M290.74,117.35c0.41,0.41,0.81,0.31,1.22,0C291.55,116.94,291.14,117.05,290.74,117.35z"/> <path d="M190.32,115.82c-0.51-0.41-0.92-0.31-1.42,0.1C189.61,116.33,190.01,116.33,190.32,115.82z"/> <path d="M247.6,105.34c-0.41-0.41-0.81-0.31-1.32,0C246.78,105.75,247.19,105.75,247.6,105.34z"/> <path d="M152.27,111.35c0.41,0.41,0.81,0.41,1.22,0.1C153.08,110.94,152.67,111.04,152.27,111.35z"/> <path d="M195.51,113.18c0.2,0,0.51,0.1,0.81-0.31C195.91,112.57,195.71,112.87,195.51,113.18z"/> <path d="M200.29,112.16c0.2,0,0.41,0,0.61,0C200.7,111.96,200.49,111.86,200.29,112.16z"/> <path d="M149.01,112.06c-0.2,0-0.41,0.1-0.61,0.1C148.6,112.26,148.81,112.57,149.01,112.06z"/> <path d="M184.93,116.33c0.2-0.2,0.51-0.31,0.92-0.31C185.23,115.72,185.13,116.03,184.93,116.33z"/> <path d="M137.01,103.82c-0.2,0-0.41,0-0.61,0C136.6,103.92,136.9,104.23,137.01,103.82z"/> <path d="M282.39,103.11c0.2,0.31,0.51,0.31,0.81,0C282.9,102.7,282.6,102.8,282.39,103.11z"/> <path d="M140.57,103.11c0.1-0.2,0-0.2-0.41-0.1C140.35,103.39,140.31,103.11,140.57,103.11z"/> <path d="M240.27,97.82c0.31,0.51,0.71,0.31,1.12,0.31C241.09,97.82,240.78,97.51,240.27,97.82z"/> <path d="M139.75,94.26c0.32,0.08,0.57,0.09,0.81,0.09C140.23,94.27,140.1,93.82,139.75,94.26z"/> <path d="M188.38,105.96c-0.63,0-0.46-0.46-0.92,0C187.91,106.17,187.82,106.52,188.38,105.96z"/> <path d="M223.99,107.89c-0.2,0.1-0.51,0.31-0.31,0.2C223.49,108.19,223.79,108.09,223.99,107.89z"/> <path d="M214.95,166.8c0-0.42-0.65,0.01-0.7,0.5C215.09,167.3,214.85,166.69,214.95,166.8z"/> <path d="M241.6,98.53c-0.28-0.28-0.2-0.24-0.2-0.1C241.39,98.53,241.49,98.53,241.6,98.53z"/> <path d="M241.38,98.31c-0.01-0.05-0.03-0.09-0.09-0.09C241.32,98.25,241.35,98.28,241.38,98.31z"/> <path d="M269.17,102.6l-0.1,0.1C269.2,102.73,269.14,102.75,269.17,102.6z"/> <path d="M269.88,103.41c0-0.47-0.27-0.59-0.72-0.69C269.11,103.22,269.31,103.41,269.88,103.41z"/> <path d="M269.78,103.51c0.04-0.01,0.06,0,0.1,0C269.88,103.38,269.9,103.39,269.78,103.51z"/> <path d="M270.59,104.23c0.09-0.57-0.17-0.77-0.71-0.71C269.83,104.03,270.11,104.23,270.59,104.23z"/> <path d="M271.3,104.94c0.1-0.51-0.1-0.81-0.71-0.71C270.59,104.73,270.8,105.04,271.3,104.94z"/> <path d="M283.72,104.73c0.1,0.1,0.31,0.1,0.51,0.2C284.02,104.84,284.12,104.23,283.72,104.73z"/> <path d="M195.3,113.38c0.25-0.25,0.24-0.2,0.1-0.2L195.3,113.38z"/> <path d="M261.23,113.48l-0.1,0.2C261.39,113.69,261.36,113.74,261.23,113.48z"/> <path d="M643.98,9.3l-0.1,0.1C644.04,9.36,643.98,9.48,643.98,9.3z"/> <path d="M625.46,26.7l-0.1-0.1C625.36,26.72,625.34,26.7,625.46,26.7z"/> <path d="M718.02,42.5c0.14,0.07,0.07,0.04,0.03-0.13c-0.04,0.04-0.04,0.04-0.1,0.1h-0.01C717.94,42.6,717.92,42.6,718.02,42.5z"/> <path d="M214.06,167.43c-0.49,0.03-0.91,0.21-1.26,0.59C213.6,168.02,213.81,167.81,214.06,167.43z"/> <path d="M212.6,168.02l0.1,0.1C212.79,168,212.9,168.02,212.6,168.02z"/> <path d="M214.23,167.41c0-0.16,0.09-0.1-0.1-0.1C214.04,167.47,214.03,167.41,214.23,167.41z"/> <path d="M175.16,10.01c0.16-0.04,0.1,0.08,0.1-0.1L175.16,10.01z"/> <path d="M146.57,12.15l0.1-0.1C146.5,12.05,146.54,12.06,146.57,12.15z"/> <path d="M615.99,392.88c0.34-0.2,0.15-0.34-0.3,0.1c-1.6,1.6-8.55,9.23-8.55,10.99c0.1,0.5,0.41,0.6,0.81,0.7
		c1.33-0.73,1.27-2.75,2.44-3.97c0.17-0.18,4.1-1.55,5.89-7.52C616.2,392.98,615.99,392.77,615.99,392.88z"/> <path d="M580.19,549.65c0,0.1,0.41,0.1,0.61,0.2c0.55-3.27,0.21-11.04-0.15-11.53C579.64,536.98,579.17,547.1,580.19,549.65z"/> <path d="M604.61,410.16c0.41,2.14,0.31,4.47,2.14,6.09c0-2.19-0.25-7.03-1.32-8.64C604.51,409.25,604.51,409.25,604.61,410.16z"/> <path d="M606.74,416.26c-0.27,0-0.18,4.48,0,5.91C609.9,422.96,609.31,415.98,606.74,416.26z"/> <path d="M583.55,435.29c-0.3,1.82-1.02,3.77-0.71,6.41C583.46,440.5,585.85,435.06,583.55,435.29z"/> <path d="M579.88,526.15c0.92,0,1.12-0.31,1.22-0.61c0.12-1.68,0.48-2.82-0.31-4.48C579.38,522.79,579.68,524.42,579.88,526.15z"/> <path d="M608.8,434.68c0.08-0.67-0.06-1.26-0.63-1.83C608.45,434.26,608.42,437.77,608.8,434.68z"/> <path d="M608.06,431.12c-0.47,0.84-0.33,1.26,0.1,1.64C608.44,433.04,608.06,432.5,608.06,431.12z"/> <path d="M641.34,297.43l0.1,0.1C641.4,297.3,641.49,297.32,641.34,297.43z"/> <path d="M641.45,297.34c0.3-0.22,0.49-0.59,0.52-1C642.03,295.59,641.45,296.08,641.45,297.34z"/> <path d="M641.34,297.43c-0.1,0.1-0.12,0.22-0.2,0.31C641.23,297.64,641.34,297.64,641.34,297.43z"/> <path d="M642.93,295.06c0.05-0.11,0.05-0.09-0.07,0.03C642.86,295.23,642.84,295.23,642.93,295.06z"/> <path d="M642.2,295.78c-0.17,0.03-0.22-0.05-0.05,0.12C642.3,295.75,642.37,295.73,642.2,295.78z"/> <path d="M642.56,295.63c0.15-0.13,0.25-0.32,0.31-0.54C642.73,295.36,642.01,296.11,642.56,295.63z"/> <path d="M664.33,156.83c-2.49,2.49,0.65,8.4-21.24,12.29c-3.68,0.65-7.95,1.37-10.35,1.36c-1.58,0-2.57-0.27-3.06-0.22
		c-0.47,0.04-0.99,0.23-1.67,0.32c0.83,0.56,0.01,0.5,4.86,1.04c14.9,1.64,27.76-4.8,30.75-9.08
		C663.47,160.72,665.78,157.73,664.33,156.83z"/> <path d="M657.51,215.33c-0.94,2.97-1.09,7.21-1.83,9.05c-1.4,3.49-1.9,8.97-1.41,9.77c0.3,0.5,0.02,0.25,2.33,0.51
		c2.21-8.51,0.05-5.56,1.02-12.01C658,220.09,658.2,217.77,657.51,215.33z"/> <path d="M630.76,169.24c-12.27-2.79-8.91-6.15-11.19-3.87C622.41,168.93,625.57,170.05,630.76,169.24z"/> <path d="M620.48,238.42c0.95,3.15,0.51,1.87,1.63,3.26C622.31,240.28,621.67,239.46,620.48,238.42z"/> <path d="M618.75,194.88c1.02,0.2,1.93,1.42,3.56,0.71C621.09,194.98,620.17,194.37,618.75,194.88z"/> <path d="M668.7,169.24c0.83,0.42,1.44,0.39,2.03,0.1C670.08,168.9,669.46,168.96,668.7,169.24z"/> <path d="M616.82,182.16c0.49,0.3,0.82,1.12,1.83,0.41C618.04,182.16,617.63,181.65,616.82,182.16z"/> <path d="M613.36,205.36c0.25,0,0.27,0.03,0-0.1V205.36z"/> <path d="M622.31,185.21c0,0.1,0.19,0.1,0.31,0.1C622.51,185.31,622.41,185.31,622.31,185.21z"/> <path d="M622.51,185.42C622.92,185.72,622.51,185.31,622.51,185.42L622.51,185.42z"/> <path d="M664.96,149.57c0.27,0.53,0.26-0.06,0.39-0.27C665.18,149.38,664.84,149.34,664.96,149.57z"/> <path d="M665.45,149.4c0-0.1,0.1-0.2,0.1-0.31C665.45,149.2,665.35,149.2,665.45,149.4z"/> <path d="M613.56,195.39c0.2-0.1,0.1-0.2-0.1-0.2C613.46,195.28,613.56,195.39,613.56,195.39z"/> <path d="M686.31,409.75c-0.31-1.22-1.02-2.03-2.65-1.63c-1.89,2.1,0.54,6.44,2.07,9.9C687.75,422.61,687.6,414.83,686.31,409.75z"/> <path d="M665.55,543.44c1.12-2.44,0.1-4.99-0.81-7.53C664.74,544.05,664.4,543.82,665.55,543.44z"/> <path d="M677.25,441.7c0.1,0.71,0.31,1.42,0.41,2.14c0.25-1.97,1.59-5.34,0-8.85C676.44,435.96,676.53,436.29,677.25,441.7z"/> <path d="M663.11,545.68c0.32,5.04,3.15,4.56,2.85,3.05C665.43,547.18,664.7,546.09,663.11,545.68z"/> <path d="M655.78,320.63c0.08,0,0.17,0,0.31,0c0.01-0.1,0.29-5.36,0.02-5.58C655.42,314.37,655.78,317.44,655.78,320.63z"/> <path d="M665.14,530.11c0.92-0.81,0.81-1.73,0.51-2.75C664.63,528.18,664.84,529.1,665.14,530.11z"/> <path d="M677.15,460.42c0.01-0.09,0.29-3.47,0.31-3.56C676.34,457.98,676.84,459.3,677.15,460.42z"/> <path d="M665.09,508.76c0.16-0.27,0.22-0.54-0.05-0.72c0,0.1-0.1,0.2-0.2,0.31C665.12,508.91,664.98,508.93,665.09,508.76z"/> <path d="M677.56,456.96c0.32-0.75,0.54-1.14,0-1.93C677.56,455.84,677.56,456.45,677.56,456.96z"/> <path d="M663.02,545.38c-0.01-0.1-0.26-0.14-0.2-0.09C663.31,545.58,663.06,545.38,663.02,545.38z"/> <path d="M663.21,545.58c-0.03-0.03-0.06-0.06-0.09-0.08C663.14,545.54,663.17,545.58,663.21,545.58z"/> <path d="M573.58,114.2c-4.08-0.75,12.31,11.7,12.31,12.2c0.41,0.41,0.77,1,1.53,0.62C582.34,120.74,573.79,114.24,573.58,114.2z"/> <path d="M578.97,120.81c0.16,0.16,0.09,0.11,0.05,0.01C579,120.82,578.99,120.81,578.97,120.81z"/> <path d="M568.08,123.56c-0.61,0.2-1.53-0.1-1.93,0.81C575.22,124.37,588.69,116.92,568.08,123.56z"/> <path d="M565.64,40.03c-0.47,4.25,0.02,5.18,1.12,6.86C567.51,48.03,565.79,40.89,565.64,40.03z"/> <path d="M595.97,138.62c0.24,0.24,0.25,0.29,0.07-0.03c-0.56-1-0.69-1.21-2.2-2.2C593.49,136.17,592.8,135.45,595.97,138.62z"/> <path d="M555.26,124.88c0.97,0.48,1.87,0.53,2.95,0C557.3,124.37,556.38,124.37,555.26,124.88z"/> <path d="M603.56,105.64c-0.64-0.53-1.58-0.6-2.82-0.6C601.44,105.85,602.61,105.61,603.56,105.64z"/> <path d="M603.81,105.77c-0.04-0.15,0.01-0.13-0.26-0.13C603.61,105.64,603.62,105.77,603.81,105.77z"/> <path d="M515.79,102.7c1.12-0.41,1.12-0.41,1.02-1.22C516.3,101.78,515.79,101.99,515.79,102.7z"/> <path d="M571.74,52.03c0.62,0.31,1.03,0.41,1.54-0.31C572.57,51.49,572.22,51.47,571.74,52.03z"/> <path d="M601.25,146.11c0.23,0.16,0.05,0.07-0.33-0.84C600.92,145.6,600.94,145.91,601.25,146.11z"/> <path d="M601.36,146.17c0.11,0.11,0.3,0.46,0.12,0.14C601.59,146.21,601.6,146.25,601.36,146.17z"/> <path d="M600.84,144.77c-0.13,0.07-0.14-0.02,0.08,0.49C600.92,144.65,601.02,144.68,600.84,144.77z"/> <path d="M570.71,111.67l0.02-0.02c-0.49,0-0.47-0.18-0.1,0.1C570.73,111.65,570.81,111.75,570.71,111.67z"/> <path d="M570.25,111.53c-0.44-0.25-0.73-0.36-1.05-0.49C569.61,111.54,570.64,111.73,570.25,111.53z"/> <path d="M600.03,144.01c-0.13-0.13-0.31-0.5-0.31-0.92C599.43,143.69,599.86,143.83,600.03,144.01z"/> <path d="M499.61,109.92c0.1,0,0.28,0.13,0.37-0.05C500.13,109.74,499.61,109.59,499.61,109.92z"/> <path d="M589.45,129.76c-0.21-0.21-0.21-0.5-0.31-0.92C588.84,129.46,589.14,129.56,589.45,129.76z"/> <path d="M572.67,42.77c-0.1-0.37-0.28-0.63-0.62-0.81C572.7,42.82,572.9,43.61,572.67,42.77z"/> <path d="M572.75,43.38c-0.1,0.1-0.13,0.1,0.05,0.13c0-0.02-0.01-0.04-0.02-0.06l0.08-0.07C572.7,42.89,572.75,43.22,572.75,43.38z"/> <path d="M572.15,41.86c0,0-0.01-0.02-0.02-0.03C570.69,38.31,571.97,42.04,572.15,41.86z"/> <path d="M515.46,102.66c-0.35-0.03-0.59,0.08-0.59,0.55C515.77,103.57,516.07,102.66,515.46,102.66z"/> <path d="M605.09,106.45c0-0.67-1-0.65-1.27-0.68C603.96,106.48,604.46,106.38,605.09,106.45z"/> <path d="M605.13,106.55c0.01,0,0.21,0.03,0.29,0.11c0-0.04-0.02-0.08-0.06-0.11C605.18,106.56,605.12,106.55,605.13,106.55
		l0.09-0.09c-0.18-0.04-0.13,0-0.1,0.1L605.13,106.55z"/> <path d="M599.93,104.73c0.17,0.05,0.9,0.2,0.92,0.2C600.5,104.82,600.39,104.46,599.93,104.73z"/> <path d="M600.31,144.2c-0.51-0.28-0.09,0.44,0.28,0.51C600.82,144.78,600.56,144.34,600.31,144.2z"/> <path d="M599.93,144.11c0.05,0,0.09,0.02,0.14,0.02C600.03,143.96,600.03,144,599.93,144.11z"/> <path d="M600.74,144.82l0.1-0.1C600.66,144.75,600.68,144.65,600.74,144.82z"/> <path d="M533.21,61.91c0.07-0.03,0.18-0.06,0.28-0.11C533.26,61.8,533.28,61.77,533.21,61.91z"/> <path d="M533.08,62.11c0.06-0.06,0.1-0.13,0.13-0.19C533.14,61.95,533.08,62,533.08,62.11z"/> <path d="M520.53,73.23c0,0,0,0.01-0.01,0.01C520.79,73.1,520.66,72.82,520.53,73.23z"/> <path d="M520.37,73.4c0.05-0.05,0.1-0.1,0.15-0.16C520.44,73.29,520.37,73.32,520.37,73.4z"/> <path d="M520.18,73.53c0.03-0.05,0.08-0.09,0.08-0.23C520.26,73.38,520.21,73.45,520.18,73.53z"/> <path d="M532.88,62.51c0-0.1,0.1-0.31,0.1-0.51C532.98,62.21,532.27,62.11,532.88,62.51z"/> <path d="M589.65,130.07l-0.05-0.1C589.52,129.89,589.12,129.8,589.65,130.07z"/> <path d="M596.06,138.92c0.27,0.18,0.71,0.6,0.92,0.8c0.2-0.2,0.1-0.18-0.12-0.12C596.77,139.48,596.23,138.72,596.06,138.92z"/> <path d="M569.2,111.04v-0.1C568.93,110.81,568.93,110.77,569.2,111.04z"/> <path d="M684.58,100.56c0.31-0.61,0.51-1.12-0.1-1.83C684.17,99.44,683.97,99.95,684.58,100.56z"/> <path d="M688.86,115.93c0.4-0.4,1.34-0.13,1.32-1.13C690.18,114.58,689.15,114.52,688.86,115.93z"/> <path d="M657.41,98.02c0.47-0.39,1.21-0.75,1.21-1.32C657.62,96.7,657.18,96.64,657.41,98.02z"/> <path d="M694.65,112.37c-1.46,0.53,0.18,1.04,0.01,0.09C694.66,112.43,694.66,112.4,694.65,112.37z"/> <path d="M694.8,112.31C694.87,112.25,694.87,112.25,694.8,112.31L694.8,112.31z"/> <path d="M699.33,111.14c-0.1,0-0.2,0.1-0.31,0.1c0.1,0.1,0.1,0.2,0.1,0.2C699.7,111.45,699.67,111.26,699.33,111.14z"/> <path d="M706.65,90.18c0.1,0.52,0.41,0.52,0.81,0.52C707.47,90.09,707.47,89.93,706.65,90.18z"/> <path d="M707.6,90.77c-0.22,0,0.2,0.6,0.99,0.59C709.78,91.34,708.38,90.64,707.6,90.77z"/> <path d="M707.37,90.8c0.2-0.04,0.14,0.02,0.1-0.1L707.37,90.8z"/> <path d="M658.73,96.49c0,0-0.1,0.1-0.1,0.31C658.63,96.7,658.73,96.6,658.73,96.49z"/> <path d="M716.32,96.49c0.13,0.26,0.06,0.18,0.31,0.31C716.5,96.54,716.56,96.62,716.32,96.49z"/> <path d="M709.5,91.71c-0.15-0.15-0.41-0.24-0.51-0.31C709.09,91.6,709,92.11,709.5,91.71z"/> <path d="M690.27,114.81c0.1-0.1,0.71,0,0.2-0.51C690.4,114.19,690.16,114.47,690.27,114.81z"/> <path d="M686.51,117.15c0.1-0.2,0.2-0.31,0.1-0.2C686.61,116.84,686.61,116.94,686.51,117.15z"/> <path d="M653.44,68.72c1.22-0.23,2.65-0.31,3.46-1.93c-7.62,0.54-8.55-0.68-8.55,0.71C648.69,67.5,650.34,69.3,653.44,68.72z"/> <path d="M638.39,78.69c0.75,0.14,1.45,0.42,1.73-0.51c-7.39-2.11-7.14-2.44-10.07-2.44C632.44,77.34,635.66,78.17,638.39,78.69z"/> <path d="M622.31,79.81c0.31-2.03,0.1-3.66-0.92-5.39C621.19,76.53,621.19,76.54,622.31,79.81z"/> <path d="M644.29,79.81c0.58,0.29,0.42,0.37,1.21-0.1c-0.16-0.07-0.24-0.19-0.33-0.24C645.02,79.35,644.41,79.32,644.29,79.81z"/> <path d="M627.09,72.48c-0.07,0-0.13,0-0.2,0C627.15,72.61,627.09,72.62,627.09,72.48z"/> <path d="M627.22,72.73c-0.1-0.1-0.02,0.57,0.69,0.57C627.58,73.13,627.39,72.91,627.22,72.73z"/> <path d="M627.19,72.48l-0.1,0.1C627.29,72.78,627.19,72.77,627.19,72.48z"/> <path d="M627.91,73.43c-0.23-0.08-0.07,0.66,0.59,0.66C628.46,73.72,628.22,73.53,627.91,73.43z"/> <path d="M628.6,74.14l0.03-0.03c-0.19,0-0.1-0.08-0.1,0.09c0.1-0.1-0.05,0.56,0.69,0.51C629.15,74.34,628.75,74.14,628.6,74.14z"/> <path d="M629.43,74.94c-0.1-0.1-0.14-0.14-0.17-0.15c0.02-0.02,0.05-0.05,0.07-0.07c-0.19,0-0.1-0.03-0.1,0.1
		c0,0,0.01-0.01,0.02-0.02c0.07,0.15,0.64,0.85,0.7,0.92C630.13,75.54,629.58,75.05,629.43,74.94z"/> <path d="M615.94,591.11c12.38-4.7,5.47-5.74,11.24-5.74c0.96,0,1.63,0.77,2.75,0.1c-2.44-1.93-3.05-1.93-7.02-0.61
		c-2.86,4.28-9.07,2.9-7.63,6.51C615.5,591.27,615.73,591.19,615.94,591.11z"/> <path d="M608.78,593.09c1.23,0,2.04-0.92,3.56-1.83C609.18,592.07,609.19,592.07,608.78,593.09z"/> <path d="M645,37.38c-1.85,0-1.89-0.37-1.12,1.42c-2.02-0.5-4.47,0.1-6.1-0.01c-0.3,0.78-0.97,0.62-1.56,0.79
		c-0.69,1.77-0.62,1.52,2.18,0.65c0.37-0.12,0.03,2.57,2.13,3.12c1.25,0.1,2.42-0.38,3.36-1.22c-0.72-3.53,0.57-0.14,1.93-1.12
		C644.82,39.47,645.45,37.38,645,37.38z"/> <path d="M637.67,38.81l0.1-0.01C637.45,38.8,637.34,38.81,637.67,38.81z"/> <path d="M635.33,32.4c-2.32,0.58-3.45,4.58-0.13,1.57c3.37-3.07,13.81,2.17,14.15-0.25C649.35,33.14,641.51,30.34,635.33,32.4z"/> <path d="M628.62,12.15c0.2,0,0.51-0.1,0.92-0.1C628.48,12.05,628.62,12.01,628.62,12.15z"/> <path d="M649.88,15.2c-0.21-0.28-0.36-0.56-0.6-0.82C648.49,13.53,648.54,15.08,649.88,15.2z"/> <path d="M625.57,26.79c0,0.1,1.33,0.12,1.12-1.32C626.07,25.89,625.47,25.99,625.57,26.79z"/> <path d="M629.93,15.42c0,0.21,1.14-0.16,1.02-1.22C629.66,13.73,629.93,13.65,629.93,15.42z"/> <path d="M632.79,35.35c0.1-0.1,0.1-0.2,0.2-0.31C632.69,35.14,632.69,35.25,632.79,35.35z"/> <path d="M647.44,15.1c0.87,0-0.26-0.62-0.03-0.06C647.43,15.06,647.43,15.07,647.44,15.1z"/> <path d="M652.02,14.9c0,0,0-0.1-0.2-0.2C651.92,14.8,652.02,14.9,652.02,14.9z"/> <path d="M651.89,14.59c0.1,0-0.17-0.51-0.77-0.59C651.14,14.49,651.35,14.67,651.89,14.59z"/> <path d="M651,13.97c0-0.21-0.09-0.46-0.29-0.58C650.07,12.95,650.17,13.91,651,13.97z"/> <path d="M651.09,13.99c0.05,0,0.01-0.11,0.02-0.11c-0.02,0.02-0.07,0.07-0.09,0.09c-0.01,0-0.03,0-0.03,0
		C651,14.13,651,14.09,651.09,13.99z"/> <path d="M716.01,40.94c0.53,1.07,0.02,0.38,1.32,0.81C717.03,40.94,716.52,40.94,716.01,40.94z"/> <path d="M723.34,47.56c0.44,0,0.36-0.41-0.1-0.41C722.96,47.33,723.03,47.45,723.34,47.56z"/> <path d="M724.66,41.86c0.12,0.08,0.07,0.03,0.1,0c0-0.1-0.27-0.81-0.31-0.92C724.06,41.64,724.79,41.73,724.66,41.86z"/> <path d="M717.85,42.09c-0.11-0.22-0.36-0.34-0.61-0.34C717.23,42.52,718.19,42.78,717.85,42.09z"/> <path d="M656.66,37.44c-0.5,0.08-0.76,0.33-0.98,0.55c0.61-0.08,1.29-0.13,2.5-0.27C659,37.62,656.93,37.4,656.66,37.44z"/> <path d="M655.48,38.3c0.1-0.1,0.1-0.2,0.1-0.31C655.58,38.09,655.48,38.2,655.48,38.3z"/> <path d="M660.46,38.5c0-0.13,0.05-0.1-0.2-0.1C660.51,38.65,660.46,38.64,660.46,38.5z"/> <path d="M612.14,7.67c0.81,0.41,1.53,0.71,2.14,1.02C613.56,7.37,613.56,7.37,612.14,7.67z"/> <path d="M610.51,29.75c-0.27-0.05-0.1-0.02-0.1,0.1C610.44,29.82,610.47,29.79,610.51,29.75z"/> <path d="M616.41,12.56c0.19,0.07,0.36,0.26,0.53,0.31C617.53,13.02,617.39,12.23,616.41,12.56z"/> <path d="M137.46,421.54c0.29-0.74,0.43-2.37-0.05-4.04c-1.3-1.62-2.1-1.42-2.23-8.94c-0.02-1.1-1.03-1.08-1.03-0.98
		c-1.17,3.17-0.18,5.96,1.23,9.01c-0.01,1,0,1.91,0.09,2.93c0.1,1.06-0.4,2.05,0.41,2.85C136.58,422.19,137.27,422.04,137.46,421.54
		z"/> <path d="M144.52,392.77c-2.63,2.92-3.62,3.05-8.24,10.06c-0.4,0.61-0.5,1.12,0.21,1.73c1.68-0.49,1.56-2.37,2.74-3.87
		C145.77,396.45,144.8,392.41,144.52,392.77z"/> <path d="M108.88,548.64c0.05,0.58,0.03,1.11,0.65,1.11c0.56-0.28,0.51-0.19,0.54-0.84c0.12-2.38-0.37-9.77-0.74-11.57
		C108.35,541.99,108.47,544.04,108.88,548.64z"/> <path d="M111.47,442.51c1.85-4.04,1.9-4.85,1.63-8.04C111.67,437.33,111.77,439.56,111.47,442.51z"/> <path d="M109.02,521.57c-0.51,1.53-1.02,3.05,0.41,5.29C110.06,525.32,110.81,521.12,109.02,521.57z"/> <path d="M137.31,432.04c-0.48,1.18-0.74,2.08,0.31,2.85C137.51,434.07,137.41,433.05,137.31,432.04z"/> <path d="M170.7,296.57c0,0.36,1-0.42,1-1.37C170.91,295.19,170.71,296.46,170.7,296.57z"/> <path d="M137.82,436.51c0.23-0.46,0.37-0.62-0.31-1.53C137.62,435.49,137.41,436.11,137.82,436.51z"/> <path d="M170.58,296.62c-0.1,0.1-0.2,0.31-0.2,0.31S170.58,296.82,170.58,296.62z"/> <path d="M215.93,418.98c0.95-1.11-0.08-7.31-0.78-9.74c-0.1-0.1-0.64-1.22-1.73-1.22c-0.83-0.14-1.1,0.6-1.42,0.92
		c-0.41,3.87,2.14,7.02,3.36,10.68C215.57,419.33,215.79,419.15,215.93,418.98z"/> <path d="M206.1,435.29c-0.4,2.72,0.1,5.36,0.1,8.24C207.63,441.39,208.43,435.73,206.1,435.29z"/> <path d="M194.5,543.74c0.39-1.73,0.64-5.87-0.61-7.12C193.61,542.05,192.87,543.97,194.5,543.74z"/> <path d="M192.06,545.17c0.51,3.26,0.51,3.26,2.54,4.99C194.97,547.66,193.83,546.52,192.06,545.17z"/> <path d="M185.43,319.92c0-2.24,0-3.66,0-5.09C183.76,314.83,184.58,318.11,185.43,319.92z"/> <path d="M205.89,459c0,0.28,0.49-0.51,0.59-0.78c0.37-1.01-0.18-2.01-0.4-2.78C205.98,456.71,205.93,458.79,205.89,459z"/> <path d="M194.18,526.86c-0.2,1.12-0.41,2.03,0.2,3.36C194.59,528.91,194.99,527.87,194.18,526.86z"/> <path d="M194.39,507.32c-0.27,0-0.2-0.31-0.2,2.03C194.46,509.36,194.39,509.66,194.39,507.32z"/> <path d="M205.88,461.24c0-0.57,0-1.87,0-2.24C205.48,459.71,205.38,460.42,205.88,461.24z"/> <path d="M186.69,341.82c-0.14,0.33-0.1,0.55,0.27,0.78C186.74,341.73,187.01,341.04,186.69,341.82z"/> <path d="M193.78,535.71c-0.29,0.47-0.06,0.65,0.2,0.92C193.77,536.31,193.78,536.09,193.78,535.71z"/> <path d="M159.45,169.81c1.04,0.97,10.61,0.84,12.05,0.75c7.17-0.43,19.05-4.08,22.48-8.95c0.18-2.32,2.13-4.83,1.12-6.51
		c-0.85,2.54-2.61,5.45-4.88,7.63c-10.34,5.48-27.69,6.62-27.72,6.51c-1.46-2.71-4.24-0.63-9.81-4.87
		c-0.51-0.31-0.92-0.81-1.63-0.71c-1.27,0.85,0.89,2.5,2.44,3.36c2.87,1.59,5.19,0.93,5.8,1.42
		C159.6,168.73,158.85,169.25,159.45,169.81z"/> <path d="M201.61,168.53c1.4,0,1.22,0.04,1.22-0.1c-0.41,0-0.92-0.1-1.32-0.1C201.61,168.42,201.61,168.53,201.61,168.53z"/> <path d="M149.32,181.24c-0.41-0.31-0.92-0.31-1.32-0.2C148.4,181.55,148.71,181.75,149.32,181.24z"/> <path d="M195.81,148.89c0.22-0.31,0.27-0.54,0-0.81C195.49,148.28,195.54,148.62,195.81,148.89z"/> <path d="M153.18,183.69c0.06,0.13,0.04,0.08,0.1,0.2C153.42,183.76,153.44,183.81,153.18,183.69z"/> <path d="M153.28,183.89C153.59,183.99,153.39,183.79,153.28,183.89L153.28,183.89z"/> <path d="M147.86,180.64c-0.21,0.21,0.14,0.17,0.22,0.28C148.01,180.7,147.94,180.59,147.86,180.64z"/> <path d="M183.3,234.45c1.12-0.37,3.1,1.29,3.12-5.43c0.03-11.03,1.05-9.29,0.44-14c-1.92,1.92-0.97,5.62-2.24,8.95
		c-1.52,3.98-1.82,9.79-1.72,9.89C182.91,233.97,183.1,234.16,183.3,234.45z"/> <path d="M153.18,194.06c-1.42-0.61-2.44-1.32-4.07-0.81C150.53,193.66,151.56,194.67,153.18,194.06z"/> <path d="M150.03,239.34c-0.31,0.92,0.1,1.53,0.81,2.03C151.33,240.43,150.9,239.88,150.03,239.34z"/> <path d="M147.28,221.84c0.3-0.47,0.28-0.99-0.41-1.53C146.55,220.97,146.61,221.55,147.28,221.84z"/> <path d="M157.05,212.83c0.06-1.2-1.3-0.34-0.31,0.66C156.91,213.28,157.04,213.07,157.05,212.83z"/> <path d="M174.14,41.83c0-2.91,0.91-0.44,1.93-1.08c-0.85-2.55,0.28-3.4-1.76-3.46c-0.09,0.27-0.19,0.56-0.38,1.02
		c-2.12-0.6-4.22,0.48-6.34,0.51c0.47-0.94,2.07-0.43,2.47-1.73c-1.95,0.49-2.02-0.08-3.92,1.68c-0.09-0.1-0.05-0.08-0.05,0.07
		c0.71-0.18,1.73-0.03,1.42-0.03l0.04,0.04c-0.01,0.02-0.03,0.04-0.04,0.06c0.11-0.11,0.46,0.25-1.36,0.77
		c-0.1,0,0.02,0.15,0.25,0.85c1.02,0.2,1.63-0.71,2.54-0.31C170.27,45.45,174.14,42.39,174.14,41.83z"/> <path d="M166.1,39.62l-0.1,0.1C166.14,39.69,166.13,39.7,166.1,39.62z"/> <path d="M173.96,36.76c-0.43-0.17-1.01,0.1-1.14,0.1c0.76,0.76,1.85-0.01,1.42,0.42C174.41,37.28,174.49,36.97,173.96,36.76z"/> <path d="M188.17,63.62c0.13-0.1,0.39-0.26,0.92-0.5c-2.19-2.19-4.81-1.18-6.92-2.14c-9.54,2.39-7.46-0.64-8.55,1.53
		c0.82,1.35,3.21,1.34,4.78,1.22C186.12,63.17,187.88,63.43,188.17,63.62z"/> <path d="M188.17,63.62C187.88,63.85,188.38,63.75,188.17,63.62L188.17,63.62z"/> <path d="M163.87,34.84c1.02-0.61,2.03-1.32,2.85-1.83c2.75-0.41,5.21-0.46,7.63,0.41c2.3,0.82,6.78,1.29,5.28-0.2
		c-0.95-0.95-13.59-4.58-16.17,1.22C163.46,34.53,163.66,34.63,163.87,34.84z"/> <path d="M187.98,50.71c0.13-1.53-3.44-7.02-4.27-11.7c0.31-1.42,1.32-2.44,1.12-4.07c-1.77,1.89-2.56,2.83-1.32,7.02
		C184.43,45.11,185.74,48.17,187.98,50.71z"/> <path d="M178.52,67.19c3.01,1.55,5.7,1.51,8.44-0.61C179.94,66.58,179.74,65.97,178.52,67.19z"/> <path d="M170.58,78.28c0.1,0,0.2-0.41,0.41-0.71c-3.36-0.92-6.95-1.8-10.07-2.65C163.66,77.37,167.12,77.67,170.58,78.28z"/> <path d="M177.7,54.27c0.64,2.45,5.03,1.26,6.31-0.11c-1.96-1.12-3.24,0.26-5.09,0.41C178.82,54.57,178.31,53.66,177.7,54.27z"/> <path d="M187.67,52.54c-2.54,2.22-2.34,2.02-2.34,2.65c0.8,0.23,1.55,0.14,2.24-0.2c0.67-1.2,1.71-3.7,0.31-4.17
		C187.88,51.18,187.74,52.14,187.67,52.54z"/> <path d="M152.01,75.32c0.03,1.21,0.61,2.36,1.07,3.98C153.63,76.19,151.94,72.43,152.01,75.32z"/> <path d="M161.02,74.82c-0.09-0.01-0.18-0.03-0.26-0.05C160.94,74.95,160.89,74.95,161.02,74.82z"/> <path d="M157.05,71.97c1.18,1.08,1.92,2.47,3.71,2.8C160.86,74.77,158.77,72.16,157.05,71.97z"/> <path d="M182.99,58.34c0,0.2,0.31,0.31,0.41,0.41c0.43,0,0.06-0.63-0.1-0.71C183.08,57.92,182.9,58.06,182.99,58.34z"/> <path d="M160,12.05C160.51,12.15,160.3,12.05,160,12.05L160,12.05z"/> <path d="M174.85,78.99c0.41,0.61,0.81,0.51,1.22,0.1C175.77,78.59,175.36,78.59,174.85,78.99z"/> <path d="M191.03,37.89c-0.31-0.2-0.51-0.51-0.92-0.2C190.3,38.06,190.72,37.89,191.03,37.89z"/> <path d="M186.55,37.79c0.2-0.1,0.2-0.2-0.1-0.31C186.16,37.48,185.9,37.79,186.55,37.79z"/> <path d="M144.03,16.83c0.16,0,1.02,0.1,1.12,0.1C144.84,16.63,144.64,16.22,144.03,16.83z"/> <path d="M190.83,38.81c0.45,0,0.66,0,0.92,0C190.67,37.74,191.12,37.98,190.83,38.81z"/> <path d="M191.03,37.89l-0.1,0.1C191.03,38.1,190.96,38.06,191.03,37.89z"/> <path d="M166.1,39.46c0-0.17,0-0.39,0-0.62C165.44,39.02,165.81,39.26,166.1,39.46z"/> <path d="M157.15,71.87l-0.2-0.1C157.07,72.03,157.02,72,157.15,71.87z"/> <path d="M150.94,65.16l0.2,0.1C151.02,65,151.08,65.02,150.94,65.16z"/> <path d="M144.33,591.46c3.05-1.53,7.12-1.73,8.85-5.49c1.93-0.92,3.76-0.2,5.6,0c-0.35-1.4-0.65-1.4-2.54-1.83
		c-1.59-0.36-2.9,0.12-4.48,0.81C149.96,588.55,141.16,588.65,144.33,591.46z"/> <path d="M140.97,590.65c-1.38,0.92-2.72,0.76-3.36,2.34C139.75,592.48,139.75,592.48,140.97,590.65z"/> <path d="M137.41,593.19c0-0.1,0-0.2,0.1-0.31C137.31,592.99,137.21,593.09,137.41,593.19z"/> <path d="M224.91,551.99c-3.55,0.84-5.55,1.7-7.04,4.98c4.73-0.83,4.85-1.52,5.21-1.52C226.06,554.17,225.76,553.56,224.91,551.99z"/> <path d="M211.2,95.07c0.04,0.04,0.05,0.07,0.08,0.1C211.41,95.04,211.42,95.07,211.2,95.07z"/> <path d="M211.2,95.07c-0.17-0.24-0.36-0.45-0.53-0.71C210.22,95.25,209.95,95.07,211.2,95.07z"/> <path d="M140.72,84.84c-0.09-0.09-0.16-0.16-0.2-0.2C140.56,84.69,140.62,84.75,140.72,84.84z"/> <path d="M140.52,84.65C140.46,84.59,140.46,84.59,140.52,84.65L140.52,84.65z"/> <path d="M144.53,7.57c-0.41-0.31-0.81-0.51-1.22-0.1C143.75,7.99,144.15,8.15,144.53,7.57z"/> <path d="M175.01,9.35c-0.29-0.17-0.05,0.11,0.09,0.09C175.22,9.44,175.1,9.39,175.01,9.35z"/> <path d="M146.57,11.74c0.2,0.81,0.81,0.92,1.63,1.02C147.89,12.05,147.38,11.64,146.57,11.74z"/> <path d="M636.23,39.56c0.01-0.01,0.02-0.03,0.02-0.04C636.07,39.7,636.23,39.6,636.23,39.56z"/> <path d="M639.3,37.59c-2.26-0.12-2.31-0.03-4.27,1.73c0.28,0.07,0.8,0.2,1.12,0.2c0.2-0.7,0.83-0.61,1.42-0.81
		C637.38,38.9,637.24,38.96,639.3,37.59z"/> <path d="M166.21,39.52c-0.13-0.09-0.1-0.05-0.1,0H166.21z"/> </g> </svg> 