<?xml version="1.0" encoding="utf-8"?> <!-- Generator: Adobe Illustrator 23.0.1, SVG Export Plug-In . SVG Version: 6.00 Build 0)  --> <svg version="1.2" baseProfile="tiny" id="Layer_1" xmlns="http://www.w3.org/2000/svg" xmlns:xlink="http://www.w3.org/1999/xlink" x="0px" y="0px" viewBox="0 0 900 600" xml:space="preserve"> <g> <path d="M736.23,5.44c-0.13,0.18-0.14,0.14,0,0.1V5.44z"/> <path d="M839.98,576.77c-1.26-1.63-2.55-3.1-3.71-4.73c-0.81-1.14-1.33-2.58-2.26-3.5c-6.26-6.16-5.29-12.27-9.88-16.26
		c-2.61-2.27-6.29-4.01-7.1-9.47c-0.55-3.73-0.91-3.63-3.81-5.56c0-17.66-0.83-13.52-0.31-22.03c0.34-5.65,1.37-12.96,0.93-17.91
		c-0.55-6.13,0.53-12.11,0.82-22.44c0.84-29.86-4.67-34.25-8.95-55.48c-0.19-0.93-0.4-1.85-0.21-2.78
		c0.76-3.59,0.44-7.31,0.72-10.91c0.69-8.86,1.66-15.33,0.93-16.36c-1.39-1.97,0.31-3.47,0.31-21.51c0.93-0.93,2.15-1.45,2.68-2.78
		c4.29-10.76,4.83-9.07,5.56-11.22c5.28-15.49,2.83-16.9,7.41-20.28c0-5.2-0.15,2.16-0.62-17.91c-0.09-3.76,1.63-3,2.37-7.2
		c1.39-7.99-1.99-9.28-2.57-15.03c-0.01-0.1-1.15-12.74-1.34-13.17c-0.84-1.54-1-7.41-2.26-16.67c-3.73-27.36,3.76-31.14-6.07-49.09
		c-2.93-5.35-0.12-2.26-5.04-17.5c-1.7-5.26-1.3-1.11-4.73-22.54c-0.54-3.37-2.06-1.37-2.06-10.4c1.13-2.16,0.41-4.63,1.44-6.79
		c1.2-2.99-1.84-21.61-2.37-24.8c-1.69-10.27-7.29-15.12-14.72-21c-4.16-3.29-9.52-2.77-13.38-3.6c-1.87-0.4-0.8-1.35-4.32-2.78
		c-10.01-4.06-13.4-5.09-16.67-8.75c-3.32-3.32-4.33-14.33-3.71-20.28c0.29-2.78,1.76-5.14,2.37-7.72c0.63-2.67,0.82-5.35,1.96-7.82
		c0.4-0.4,0.27-0.63,1.96,0.21c4.17-3.47,2.82-5.39,4.32-6.9c2.78-3.19,2.06-6.69,0.62-10.19c-0.31-0.62-1.03-1.13-1.44-1.54
		c-1.24,0-1.65,1.34-2.78,1.24c-0.85-9.35,3.38-23.82-8.85-32.11c-2.05-1.23-1.44-1.76-1.44-2.78c0.4-7.56-5.35-9.19-12.87-8.13
		c-2.16,0.3-3.52,1.72-4.94,3.09c-0.84,0.81-1.34,1.96-1.96,2.88c-1.13,0.62-2.36-0.39-3.71,0.1c-5.32,1.94-10.6,4.01-12.87,9.88
		c-1.83,1.83-2.25,5.03-2.57,6.79c-3.45,18.7,0.33,19.56-3.4,25.01c-1.95,2.86,0.84,6.22,3.5,14.2c0.62,1.85,1.44,3.4,3.29,4.12
		c1.44,4.43,2.71,8.72,5.25,12.45c1.03,1.52,1.42,15.46-1.13,18.53c-1.13,1.13-1.34,2.68-1.96,4.01c-8.83,3.86-10.3,4.32-15.54,7.31
		c-11.92,6.79-26.62-5.38-34.07,20.07c-3.36,11.47-3.52,15.05-3.6,18.94c-0.29,3.79-2.76,3.85-4.01,10.7
		c-0.96,5.22-5.95,14.02-3.81,33.14c1.87,16.64,0.93,13.22,0.93,19.35c-10.3,0.79-178.4,2.2-178.98,2.78
		c-4.92,3.69-11.46,1.76,176.72,0.51c3.61-0.02,2.96-0.16,3.71,3.91c0.68,3.7,0.74,4.93,4.12,3.81c10.38,4.45,13.16,3.26,42.2,7.41
		c0.51,3.19,1.01,6.27-0.72,9.26c-0.87,1.51-0.5,3.88-3.29,9.26c-5.24,10.08-9.31,17.04-9.98,28.51
		c-0.63,10.71-4.44,14.04-5.46,33.14c-1.26,23.81,0.31,34.17-0.62,35.1c-2.47,2.47,4.71,56.25,4.12,61.03
		c-1.11,9.07-2,11.22-1.85,13.89c0.13,2.47,0.33,12.83-1.13,16.36c-1.44,3.49-7.51,18.95-5.66,22.85c1.06,2.23-2.6,12.82,2.98,39.52
		c3.08,14.7,1.58,16.55,2.57,26.14c2.1,20.24,2.66,21.84,0.21,22.33c-1.44,0.21-2.04,1.04-2.57,2.16c-0.3,0.62-0.72,1.24-0.82,1.96
		c-0.72,3.6-3.28,6.18-5.04,9.16c-3.18,5.36-2.59,6.87-6.48,11.53c-4.9,5.85-2.58,8.75-5.25,10.09c-1.44,6.46,1.13,12.5,1.13,12.76
		c-2.65,1.32-0.33,2.3,2.47,3.19c10.4,3.31,27.19,0.94,29.54-3.09c-0.41-0.31-0.72-0.51-1.13-0.82c3.5-3.71,3.71-4.22,2.37-10.09
		c3.91-2.26,6.69-5.56,9.06-9.67c0.1-1.65,0.31-3.71,0.31-5.66c0-7.41-2.9-5.02-2.57-9.47c0.38-5.12,0.4-10.96-3.81-13.89
		c5.76-44.19,4.17-45.59,8.23-54.04c5.7-11.87,4.49-19.8,5.04-27.38c1.18-16.03-0.36-11.02,0.62-15.44
		c2.72-9.08,3.4-10.46,4.22-15.23c0.66-3.86,3.81-9.48,3.81-21.31c0-19.84,11.6-36.53,17.6-67.52c3.7-19.08,0.6-9.94,4.53-21.72
		c3.09-0.22,2,2.24,4.63,11.32c17.34,59.77,10.54,18.45,21.2,66.8c0.88,2.63-0.98,4.9,1.96,13.79c0.73,2.22,6.8,20.86,9.67,23.98
		c3.11,3.38-1.6,5.28,0.62,19.56c1.01,6.48,0.46,14.13,4.43,25.53c7.22,20.72,5.41,21.67,13.79,57.33c0.87,3.68-0.01,1.93,0.93,10.4
		c0.3,1.53,1.94,2.11,2.57,1.34c1.11-1.35,2.17-2.78,2.26-4.63c0.11-2.06,1.13-3.71,1.85-5.66c10.22-1.57,7.36-1.61,10.19,0.41
		c0.69,1.72,0.47,4.66,3.5,7.2c0.5,0.42,0.82,1.03,1.24,1.54c-4.21,0-11.42-0.35-12.25,3.81c-0.21,0.72-0.21,1.54,0.82,2.06
		c2.78-1.65,5.76-2.57,8.95-2.78c2.46,0,3.03-0.85,4.22-1.65c7.49,6.13,1.34,3.17,10.09,15.13c6.96,9.5,9.51,10.96,9.78,14.82
		c0.1,1.48-0.47,2.58-2.08,2.93c0.39-1.15,0.16-1.72-0.7-1.9c-4.97-1.42-6.79-0.81-11.53,0.93c-1.09,0.54-1.11,0.62-3.09,3.91
		c0.83,1.16,1.8,0.35,4.84-1.75c3.78-2.62,6.07-1.27,9.14-1.19c-1.82,2.11-4.11,3.49-6.77,3.97c-5.14,0.94-10.5,1.1-15.75,0.62
		c-5.59-0.52-6.3-3.01-8.54-5.25c-1.02-4.06,1.5-6.52-2.98-8.13c-10.71-2.68-6.66-4.97-10.4-7.72c-4.14-2.48,5.77-18.71,2.26-27.48
		c-0.83,0.62-1.47,0.09-1.75,5.35c-0.33,6.28-4.05,18.15-4.22,19.76c-0.34,3.14,1.06,2.22,3.81,7.2c1,1.81,4.04,3.22,6.18,4.43
		c0.92,0.52,1.86,0.84,2.98,0.41c0.52-0.2,1.24,0.21,1.85,0.41c0,0.82,0.21,1.55,0,1.96c-1.11,2.13,1.16,9.35,7.93,10.7
		c20.33,4.06,23.33-2.29,26.76-3.6C843.42,586.34,842.75,580.36,839.98,576.77z M808.9,366.29c-0.47-1.63-0.73-0.65,1.24-3.4
		C810.59,363.35,810.88,362.9,808.9,366.29z M766.8,108.36c2.98,2.07,6.39,2.97,9.57,4.43c17.31,7.89,19.21,5.33,22.75,31.7
		c1.01,7.57,1,6.32,0.62,12.56c-0.82,13.42,1.89,17.97,1.65,23.36c-0.75,16.45,16,40.92,14.92,64.84
		c-0.6,13.39,2.47,28.35,3.81,37.67c0.75,5.24,0.76,9.73,1.75,15.64c0.58,3.46,1.65,1.4,1.65,5.56c0,5.6,0.09,6.2-0.31,6.59
		c-2.9,2.8-1.5,17.26-0.82,21.92c-0.6,1.2-2.21,3.7-2.57,4.73c-3.96,11.2-2.36,3.34-5.87,14.92c-1.05,3.48-3.18,6.26-6.59,11.94
		c-1.75-0.82-1.13-2.26-1.65-3.09c2.57-3.4,4.22-7.21,4.94-11.42c1.43-8.35,4.88-10.31,2.88-14c-1.28-2.36,1.36-3.58-0.51-5.45
		c-1.89,1.89-3.06,4.16-3.5,5.35c-2.19,5.94,3.11,4.28-3.09,13.59c-2.42-4.03-0.81-6.72-0.41-13.17c0.21-3.48-1.52-4.23-1.85-5.87
		c-0.95-6.82,1.52-11.64,2.78-12.66c2.27-1.84,3.71-4.12,4.43-7c0.51,0.31,0.82,0.62,1.24,0.82c1.34-2.16,1.44-3.29,1.13-6.9
		c-0.82,0-0.82,0.62-0.93,1.13c-1.83,9.17,2.87-1.5-13.17-41.38c-3.05-7.58-2.47-11.49-5.35-17.09
		c-5.58-10.82-0.79-14.65-3.81-28.51c-2.88-13.23-3.57-18.91-4.53-21.2c-0.69-1.66-1.34-3.19-0.93-5.04
		c0.37-1.3-2.73-9.86-1.75-15.23c0.97-5.27,0.47-11.79,0.82-12.87c1.03-3.1,2.39-13.37,1.65-17.81c-1.65,0.93-1.85,2.68-2.98,3.6
		c-6.5-6.28-14.23-18.57-15.54-23.57c-1.29-4.94-1.57-7.87-2.06-8.85c-1.85-3.09-1.96-6.59-2.37-10.09
		C762.79,106.29,765.45,107.42,766.8,108.36z M811.78,334.9c0.1-0.31,0.41-0.51,0.82-0.82c0.51,2.06,0.21,3.81-0.51,5.87
		C811.57,338.4,811.47,336.34,811.78,334.9z M801.49,296.2c-4.97-12.15-8.51-24.81-13.79-37.16c-1.85-4.32-1.44-4.51-7.41-25.73
		c-2.13-7.58-1.03-5.76-1.03-12.45c2.26-2.78,2.26-1.65,0.31-5.76c2.88-2.68,4.22-5.76,1.96-9.57c0.82-1.44,2.16-2.57,1.96-4.43
		c-0.1-1.85-1.44-2.88-2.37-4.12c-0.1-2.57,0-5.04,1.03-7.41c4.26,20.96,4.3,22.72,5.66,25.53c1.57,3.22,0.54,9.87,1.34,13.59
		c0.23,1.85-1.49,5.49,0.62,11.42c10.43,29.44,6.36,19.95,17.7,53.73c3.96,11.8,1.28,16.36-1.85,20.28c-0.93,0-1.13-0.62-1.24-1.13
		C800.42,293.67,802.43,298.09,801.49,296.2z M778.33,218.39c-1.44,1.24-1.85,2.78-0.82,4.63c-1.03,0.51-1.64,1.14-2.37,1.34
		c-9.76,2.61-9.88,0.28-14.31,1.54c-2.87,0.82-25.59-11.32-37.67-12.25c0.21-1.65,0.21-2.88,0.41-4.22
		c1.01-0.31,13.88,0.5,14.1,0.51c18.02,1.27,10.42-1.21,14.51-3.5c6.94-3.88,8.1-11.03,15.75-8.95c6.46,1.75,8.6-1.18,12.56,2.78
		c0.62,0.62,0.62,1.03-0.31,2.47c-0.51-0.82-1.03-1.54-1.75-2.78c0,7-0.16,6.51,0.51,7.2C783.47,211.82,776.56,211.89,778.33,218.39
		z M775.35,226.31c0,1.85,0,3.5,0,5.15c-0.73,0.3-7.54,1.24-10.4,0.93C762.78,225.45,769.62,230,775.35,226.31z M761.97,229.3
		c0,0.41,0,0.82,0,1.44c-1.34-0.1-2.37-0.62-3.5-1.34C760.01,228.88,760.01,228.88,761.97,229.3z M747.04,225.08
		c-0.13,0.27-0.08,0.26-0.21,0H747.04z M721.21,209.23c0.21,1.54,0.41,3.09,0.62,4.73c-1.65,0.72-3.2,0.42-4.53-0.51
		C714.58,211.53,717.98,208.36,721.21,209.23z M718.43,205.42c1.4-0.2,1.3-0.35,1.65,0C719.73,205.77,720.09,205.89,718.43,205.42z
		 M721.21,203.46c-5.13-1.67-6.09,2.03-9.37,1.75c-3.91-0.33-7.72-0.72-11.53-1.03c-2.97-3.34-2.22-1.55-3.71-10.09
		c3.65-0.61,3.44,1.72,23.47,3.19c19.28,1.42,18.93,0.06,12.97,2.47C722.65,203.95,722.54,203.9,721.21,203.46z M711.94,209.64
		c-0.58,0-0.52,0.4-0.93,0C711.6,209.35,711.68,209.38,711.94,209.64z M759.39,196.88c-0.31,0.51-0.51,0.93-0.82,1.13
		c-2.61,1.68-1.82,3.6-6.79,6.48c-2.4,1.2-5.67,3.68-10.81,2.98c-8.02-1.09-10.8,1.7-17.29-1.54c3.02-2.37,8.57-1.33,20.48-5.04
		C760.65,195.75,757.41,196.54,759.39,196.88z M756.3,194.4c1.03-1.34,1.24-1.54,5.97-3.71c0.1,1.13,0.1,1.85,0.21,2.57
		C759.7,194.51,759.7,194.51,756.3,194.4z M757.64,51.65c-1.34-1.34-1.64-1.82-1.85-2.47c0.08-0.12,0.71-1.53,1.65-2.47
		C758.67,48.05,758.67,49.18,757.64,51.65z M756.92,44.03c0,1.44-0.72,1.34-1.24,1.54C756,45.17,756.3,44.75,756.92,44.03z
		 M755.58,54.63c0.51-0.51,0.62-1.34,1.13-1.85c-1.43,8.21-4.31,6.45-3.71,4.84C753.52,55.6,754.26,56.18,755.58,54.63z
		 M752.39,35.49c0-0.1-0.1-0.21-0.1-0.31c0.1-0.31,0.31-0.51,0.41-0.82C753.39,35.04,752.91,34.98,752.39,35.49z M752.7,31.99
		c-0.21,0.31-0.41,0.51-0.62,0.82c0-0.1-0.1-0.1-0.21-0.21C752.53,31.96,752.33,31.62,752.7,31.99z M750.68,31.75
		c0.3-0.9,0.6-1.87,0.99-2.95C752.28,30.63,752.28,30.65,750.68,31.75z M744.16,12.95c-1,1.8-1.91,3.49-3.39,4.63
		c0.08-2.06,1.26-3.67,2.36-5.87C743.54,12.23,743.85,12.54,744.16,12.95z M738.19,18.71c-0.01-0.59-0.05-1.14,0.72-1.34
		c-0.21-1.03,0.39-1.76,0.93-2.47c1.1-1.46-0.02-1.75,1.13-1.75c0,1.65-0.21,3.29-2.37,4.53C738.6,18.9,738.74,18.71,738.19,18.71z
		 M740.25,13.15c-0.1,0.09-0.97,0.88-1.88,1.79c1.12-5.57,0.56-4.13,1.68-4.87C740.76,11.1,740.04,12.12,740.25,13.15z
		 M741.07,13.06c0.29-0.25,0.22-0.01,0.1-0.01C741.13,13.05,741.1,13.05,741.07,13.06z M734.59,2.55c2.47,0.39,5.25,0,6.9,2.57
		c-0.93,0.62-1.75,1.13-2.57,1.65c3.46-0.38,2.85-1.39,4.32,1.85c-1.24-0.51-1.86-0.81-2.57-1.03c-0.62-0.19-1.34-0.1-1.75-0.82
		c-1.24,0.72-2.37,0.72-3.5-0.21c1.21-1.63,1.02-0.91-1.65-0.21c0.41-1.13,0.41-1.13,2.16-2.78c-2.37-0.21-3.19,1.75-4.53,2.98
		c-1.13-0.21-2.26-0.41-3.71-0.62C729.85,3.89,731.81,2.12,734.59,2.55z M732.94,18.2c-0.1-2.65,0.2-4.59,0.5-6.52
		c1.21-0.36,0.85-1.74,1.76-2.65c0.72,0.1,1.54,0.21,2.57,0.31c0,2.57-0.41,4.73-2.06,6.48c0,0-0.11,0-0.22,0
		C735.09,12.33,736.23,10.9,732.94,18.2z M735.41,16.45c0,0.15-0.76,0.35,0.02-0.43C735.45,16.16,735.48,16.31,735.41,16.45z
		 M728.31,13.98c-0.49,0.49-0.62-0.62-0.62-1.13C728.24,12.3,728.16,13.37,728.31,13.98z M725.94,8.83c0.51-0.1,0.93-0.1,1.34-0.31
		c0.41,1.44-0.41,2.26-1.13,3.4C725.74,10.48,725.74,10.48,725.94,8.83z M722.55,9.86c0-0.31,0.72-0.62,1.13-1.03
		c1.54,3.29,2.06,6.38,1.96,10.91C722.21,16.7,721.86,14,722.55,9.86z M713.49,13.05c0.31,1.44,0.51,2.78,0.93,4.32
		C711.94,15.63,711.74,14.6,713.49,13.05z M705.05,55.15c-2.23-2.09-1.26-5.48-0.72-4.94C705.53,51.11,705.74,50.3,705.05,55.15z
		 M704.84,48.05c0-0.39-0.06-0.18,0.72,0.21C705.15,48.66,705.4,48.32,704.84,48.05z M707.21,60.3c1.13,1.75,1.13,1.75,1.13,3.81
		C707.42,62.87,707.21,61.63,707.21,60.3z M711.33,68.73c-2.49-10.39-3.61-10.09-4.01-12.66c-0.47-2.99-0.76-10.18-0.41-13.28
		c0.13-1.13,0.72-2.16,1.03-3.29c-1.73-1.3-2.56-1.27-1.75-3.09c1.44,0.72,1.96,1.65,1.75,3.19c2.36-0.51,2.06-1.03,1.34-4.63
		c-0.41,0.31-0.82,0.62-1.13,0.82c-1.24-0.41-0.21-1.34-0.51-2.06c-0.54-0.94-1.35-3.49-1.65-4.53c1.03-0.62,1.13,0.62,1.96,0.62
		c-1.26-4.61-1.16-3.58,0.51-3.91c0.21-1.24-1.24-1.65-1.13-3.09c1.8-1.8,1.44-1.8,1.44-4.12c0.31,0,0.62-0.1,0.72,0
		c2.89,2.89,2.56,2.67,3.6,3.19c0.86-1.44-0.75-0.6-2.16-5.76c1.44,1.85,2.68,3.19,3.81,4.63c1.98-1.32,0.98-2.35-0.51-8.03
		c0.51-0.51,1.13-1.03,1.85-1.65c1.41,2.81,0.06,7.21,4.51,9.1c-0.7-1.95-0.92-4.18-1.93-6.11c-0.51-1.13-1.03-2.57-0.62-4.01
		c1.44-0.51,1.63-0.51,1.85,0.41c0.71,3-1.25,0.75,0.93,5.56c3,6.63,2.51,5.32,8.34,5.97c0-11.29,0.9-4.93,0.31-12.66
		c0.93-1.03,2.06-0.31,3.29-0.21c0.8,3.21,0.99,2.2-1.24,5.15c-1.3-1.95-0.52-4.58-1.44,6.48c4.9,2.7,6.57-5,7.98-5.41
		c-0.4,1.19-0.79,2.38-1.29,3.66c0.6-0.1,1-0.1,1.4-0.2c0.38,0.66,0.87,0.17,2.49-0.96c-0.07,0.56-0.09,1.12-0.19,1.77
		c1.85,0,1.44-2.47,3.09-2.57c0.47-0.83-0.47,1.64-0.51,1.75c0,0.76,0.41,0.79,1.96,1.24c0.31-0.72,0.83-1.55,0.62-1.96
		c-0.6-1.14,0-2.16,0-3.29c-1.21,0.24-1.16,0.35-1.24,0.51c0.17-0.51,0.36-1.06,0.62-1.75c2.63,1.18,6.24,4.56,3.81,6.38
		c-0.41-0.62-0.82-1.24-1.24-1.96c-1.44,1.34-1.44,1.34-2.37,3.71c0.75,0.38,0.51,0.11,2.06-1.44c0.21,0.21,0.41,0.41,0.41,0.51
		c-0.41,2.16,1.34,3.5,1.85,5.66c0.41-2.06,0.62-3.71,1.03-5.87c3.32,4.15-2.98,8.18,0.08,11.3c-0.21,1.1-0.5,2.21-0.8,3.52
		c0.12,0.12,1.96,1.97,1.96,2.47c-0.15,8.5,2.87,11.47,0.31,17.29c-2.41,5.49-0.83,6-5.25,18.11
		C740.69,90.11,716.39,89.81,711.33,68.73z M710.4,105.17c3.71-3.91,6.07-8.13,6.79-13.69c0.67,1.02,5.38,12.93,2.06,1.75
		c-0.4-1.34-0.41-2.88-2.06-3.29c0.76-3.54,1.48-2.07,0.31-7.93c4.9,2.45,6.09,2.57,7.72,3.6c3.46,2.18,8.43,1.19,8.54,1.13
		c3.4-2.16,7.72-2.68,10.29-6.18c2.16,2.16,0.21,11.47,8.13,20.79c0,19.09,3.93,14.44,4.01,23.88c0.05,5.46-0.44,6.35-4.43,10.09
		c-4.14,3.88-9.16,5.97-14.62,7.1c-1.12,0-0.52,0.54-1.13-8.03c-1.84,1.43-1.8,5.69-1.13,7.93c-2.95,0.74-13.57-2.63-16.78-3.91
		c-1.76-0.7-2.86-1.76-3.5-3.6C710.32,122.42,709.39,118.3,710.4,105.17z M708.75,105.68c-0.47,5.15-1.87,5.71-1.24,12.04
		c1.06,10.47,1.04,7.43,5.66,20.38c16.18,8.56,30.1,7.38,32.22,4.84c3.39-1.4,7.91-4.66,12.15-10.19c1.07-1.6-1.44-18.26-1.44-20.89
		c-0.34-5.51-3-4.78-2.16-8.95c2.57,0,2.57,0,4.94,1.65c1.96,11.1,8.21,33.41,16.78,40.76c2.31,1.98,3.06,4.09,4.32,5.35
		c1.57,1.57,2.95,5.28,2.26,8.13c-2.68,11.16-0.09,3.17-1.85,26.14c-1.02,6.1-1.54-1.3-1.54,11.84c-3.42-1.37-2.71-0.02-12.87-3.19
		c-1.34-0.93-1.65-2.78-1.75-4.73c1.78-1.07-1.03-0.66,9.88-1.44c1.34,1.34,0.41,3.6,1.65,5.15c0.93-1.96,0.72-3.81-0.82-7.31
		c-14.49-1.81-7.59-0.08-12.15,2.26c-15.7,8.08-23.62,9.61-59.39,5.97c-2.36-0.24-4.73-0.82-7.31-1.34
		c-0.51-1.34-0.83-2.67-1.34-4.01c-7.52-20.01-7.57-20.93-7.62-23.67c-0.06-3.4-2.21-4.84,0.31-9.57
		c12.01-22.54,15.03-26.46,15.03-45.49C702.47,108.88,703.31,108.65,708.75,105.68z M685.6,197.18c-1.85-0.31-3.71-0.62-5.45-0.93
		c-0.62-0.82-0.51-1.65-0.1-2.37c1.92-3.35,4.82-23.36,6.07-23.36c2.15,14.52,2.97,8.96,3.6,12.15
		C696.64,208.53,695.76,198.88,685.6,197.18z M654,210.36c0.07-6.64-6.56-40.44,6.28-58.98c1.75-3.06-1.23,2.89,5.56-25.63
		c1.96-8.22,10.99-12.42,17.81-11.94c7.08,0.5,10.55-3.66,13.48-2.88c0.51,0.1,1.34-0.31,2.47-0.62c0,10.59-1.81,18.71-4.94,25.32
		c-1.12,2.37-1.68,5.13-3.09,7.41c-1.26,2.04-2.47,4.01-3.71,6.18c-0.72-1.03-1.44-1.96-2.26-3.09c-1.57,3.66,0.55,7.07-1.54,12.56
		c-0.54,1.41-4.28,24.46-5.56,28.2c-1.21,3.54-1.83,8.48-2.16,11.12c0.41,0.31,1.03,0.82,1.65,1.34c1.03-1.03,2.26-1.03,3.6-0.62
		c1.91,0.59,4.65,0.86,5.66,1.85c3.69,3.62,9.15,4.98,12.76,6.48c-9.33,1.47-3.03-0.74-15.75-1.85c-3.98-0.35-5.93,2.86-8.03,5.66
		c-2.64,0.08-7.26,0.31-21.82,0.31C654.2,210.77,654,210.56,654,210.36z M689.3,213.03c-3.23,2.02-5.84,1.35-8.85-0.82
		c0-5.41,2.35-4.94,7.62-4.94c-1.75,0.82-2.78,1.24-4.12,1.85c1.28,1.15,1.83,0.1,5.97,0.1c0.93,0,1.34-1.54,2.68-0.72
		c0.82,2.86,3.25,3.19-9.67,3.19C684.05,212.83,684.05,212.83,689.3,213.03z M693.11,225.39c-36.92-5.12-37.1-4.83-38.6-11.01
		c3.65-0.61-0.05-0.24,21.72-0.41c1.24-0.01,2.37,0.31,3.6,1.03c4.42,2.58,9.78,1.96,13.59-1.44c3.05-2.44,3.23-2.57,5.45-2.68
		c4.32-0.21,8.65,0.1,13.07,0.93c3,6.01,3.72,5.12,9.78,4.01c8.85,6.76,19.66,10.09,16.67,10.09c-4.5-0.39-12.48,1.54-17.5,1.54
		c-2.73,0-16.45,0-18.84-1.24C701.57,225.95,697.07,225.93,693.11,225.39z M690.54,263.26c14.39-27.85,11.27-23.13,12.25-33.86
		c3.96-1.24,9.2,1.73,25.63-0.31c3.33-0.41,13.43-1.48,16.67-0.62c15.99,4.26,15.44,4.13,16.98,5.35c2.52,1.99,4.26,1.09,14.92,0.21
		c1.42,5.69,3.29,7.73,3.91,10.7c1.09,5.26,2.89,10.39,4.73,15.44c0.41,1.13,1.13,2.16,0.93,3.4c-1.59,0.65-19.25,5.25-25.73,5.25
		c0.53-1.86,0.79-1.67,2.68-6.07c-0.41,0.31-1.03,0.51-1.24,0.72c-4.22,6.14-1.95,5.4-7.93,5.76c-35.14,2.12-23.3,1.86-64.43-4.01
		C690.12,264.5,690.22,263.87,690.54,263.26z M698.15,555.98c0,12.58,4.01,3.07,2.26,15.85c0,0.21-0.1,0.51-0.1,0.72
		c-0.62,3.91-2.26,6.9-6.38,7.93c-0.24,0,0.22-0.22-2.06,2.06c0.61,4.85,1.12,6.57-0.93,8.44c-3.99,3.65-4.1,3.73-5.15,4.01
		c-7.36,2.02-15.15,2.43-22.75-0.1c9.61-3.93,8.79-0.31,16.78-0.31c-1.38-1.94,0.1-0.86-4.73-2.47c-0.82-0.21-1.85-0.31-2.26-0.82
		c-1.02-1.25-2.26-1.12-3.5-0.82c-8.09,1.93-6.96,2.77-7.41,0.51c-1.05-7.37-1.22-8.31,0-9.88c1.34-1.73,2.3-4.17,3.91-6.59
		c1.03-1.54,2.26-2.88,3.4-4.43c1.48-0.25,13.39,0.72,16.47-0.31c1.5-0.37,0.69-1.97,0.1-2.26c-3.87-1.41-9.91-1.57-15.13,0.41
		c0.1-0.51,0.1-1.03,0.51-1.65c0.41-0.21,0.62-0.41,0.82-0.41c19.86-0.19,15.79-0.28,17.91-1.13c-0.1-1.24-0.83-1.73-1.65-1.85
		c-13.78-2.08-19.17,3.81-14.31-2.68c5.76-0.62,11.12-0.62,16.16,1.24c1.79-1.35-0.88-3.02-3.09-3.4c-7.22-1.23-8.71-0.93-10.4-0.93
		c2.65-7.41,2.25-10.08,4.53-9.57c2.78,0.62,5.56,0.21,8.54,0.21C694.48,552.51,694.93,557.85,698.15,555.98z M697.12,548.87
		c0.26,0.26,0,0.17,0,0.41C696.97,549.13,696.83,548.87,697.12,548.87z M696.4,551.35c-0.52,0.52-0.43,0.29-0.72,0
		C695.68,550.96,696.17,551.23,696.4,551.35z M716.06,412.09c-1,11.06-3.52,21.31-6.69,32.63c-4.07,14.51-2.34,24.78-4.01,33.76
		c-2.27,12.16-4.08,8.61-5.66,21.31c-7.5,60.24-3.54,50.02-7.1,44.67c-0.1,1.03-0.21,1.96-0.31,2.98c-2.45-1.22,0.12-2.37-8.44-2.37
		c0-14.09-6.6-59.94-7-74.11c-0.73-26.13,6.36-34.92,5.76-37.98c-0.52-2.67,0.49-5.25,0.21-7.93c-0.88-8.32,4.48-14.87,1.85-27.38
		c-0.26-1.25-5.36-52.95-3.4-60c6.25,0.69,6.42,2.26,10.81,2.26c17.78,0,20.29,5.47,42.3-3.71
		C722.97,390.02,718.86,381.23,716.06,412.09z M741.59,319.35c-4.89,2.93-2.91-1.54-6.38,13.89c-2.19,1.56-8.13,2.81-15.34,4.73
		c-6.26,1.67-34.55-2.04-38.49-4.01c-0.38-1.89,0.16-9.29,0.21-9.88c3.08-43.7,2.02-9.1,6.38-43.95c7.87,0,11.28,0.1,15.03-0.51
		c1.91-0.31,5.03-0.35,5.81-0.36c-0.98,0-6.18-0.05-20.63-0.47c0-3.02-0.06-2.31,0.51-9.47c11.08,0,14.91,0.87,25.73,2.98
		c18.88,3.69,29.14,0.33,39.11,0.41c8.18,0.06,19.96-2.56,29.74-4.84c5.67-1.32,4.1-2.36,8.03,10.09c-4.12,0.92-3.29,0.64,0.21,1.03
		c7.08,16.51,7.67,22.2,10.91,42.92c0.42,2.67,0.21,5.56,0.31,8.54c-0.93,0.51-1.75,1.23-2.68,1.54
		c-11.1,3.75-13.16,4.43-15.03,4.43c-28.65,0-25.1,0.74-35.61-1.54C747.06,329.67,747.13,321.2,741.59,319.35z M800.46,547.95
		c-0.28-0.28-0.46-0.05-0.1-0.41C800.65,547.83,800.56,547.95,800.46,547.95z M811.99,536.94c-0.62,0.93-1.44,0.72-2.06,0.82
		c-9.18,1.02-7.19,3.58-9.06,7.31c-0.19-0.58-0.81-6.79-0.82-6.9c-1.29,1.29-0.92,1.84-2.06-2.98c-3.53-14.99-2.93-19.74-6.28-34.79
		c-2.71-12.16-7.82-16.42-10.29-44.77c-0.61-7.01,2.3-22.01-3.6-23.98c-1.13-0.31-1.45-1.34-1.24-2.26
		c0.96-4.06-6.23-11.91-6.59-21.51c-1.08-28.83-9.36-37.76-20.28-70.5c7.62,2.57,15.13,2.29,22.75,1.75c6.2-0.44,16.19-1.09,21-1.85
		c3.89-0.62,6.04-2.42,10.19-2.88c1.25,2.5-0.92,7.16,0.82,13.69c0.1,0.21,0.1,0.51,0.1,0.72c0,1.44,1.56,2.16,1.44,3.81
		c-0.09,1.34,0.21,2.78,0.41,4.32c-2.13,4.98-2.52,5.53-0.82,8.23c-0.51,10.76-0.32,23.77-0.31,23.88
		c1.15,9.24-2.19,24.92-1.03,33.24c0.82,5.83,8.44,24.7,8.44,39.42C812.71,520.82,810.68,505.62,811.99,536.94z M838.64,585.52
		l-0.02-0.01C838.67,585.51,838.66,585.52,838.64,585.52z"/> <path d="M708.8,279.27C709.05,279.27,709.02,279.27,708.8,279.27L708.8,279.27z"/> <path d="M400.39,569.97c-7.07-6.56-4.88-12.11-10.19-16.47c-3.09-2.54-6.07-4.34-6.59-8.34c0-2.29-1.06-4.99-3.5-5.97
		c-1.13-0.56-0.58-3.23-0.51-4.01c0.66-8.34-1.27-8.83,0.1-24.08c0.98-10.85-0.25-8.94,0.51-23.16
		c2.65-49.43-11.31-59.92-8.03-71.94c0.03-0.1,0.52-11.09,0.72-14c0.3-4.32,1.25-9.76,0.72-10.81c-1.43-2.86,0.21-1.62,0.21-21.72
		c2.37-1.24,3.41-3.39,4.12-5.76c1.09-3.64,3.05-5.35,4.22-8.44c3.98-10.52,3.57-14.21,4.94-17.5c0.62-1.24,1.85-1.75,2.68-2.57
		c0-16.83-1.82-19.59,0.51-21.92c1.28-1.6,2.07-8.27,0.1-12.66c-3.48-7.77-1.3-15.46-3.6-21c-0.06-0.12-1.86-15.05-2.26-19.56
		c-2.47-27.48,4.68-23.02-5.97-45.18c-2.02-4.21-0.04-3.01-4.22-15.54c-2.1-6.3-1.92-5.25-3.09-12.25
		c-1.8-8.08-1.09-10.95-2.88-14.1c-0.26-0.46-0.79-10.19-0.21-12.25c0.97-3.41,0.92-6.79,0.51-10.09
		c-2.21-17.98-3.08-26.79-11.73-32.94c-2.13-1.51-4.17-6.23-12.25-7.51c-5.75-0.91-7.18-0.41-8.03-1.96
		c-1.63-2.96-18.43-5.56-21.1-13.38c-2.22-6.51-3.6-16.67-0.31-23.36c0.85-1.72,0.8-6.03,2.78-10.19c0.72,0.21,1.34,0.41,1.85,0.62
		c1.54-1.65,3.09-3.09,3.4-5.35c0.34-1.69,5.17-3.56,1.34-11.94c-0.21-0.62-0.93-0.93-1.34-1.34c-0.93,0.51-1.75,0.93-2.68,1.44
		c-0.65-7.85,2.94-26.53-9.26-32.63c-2.6-1.73,1.19-5.63-3.5-9.26c-2.85-2.21-5.96-1.88-9.78-1.44c-4.5,0.51-6.79,5.01-7.62,6.18
		c-3.6-0.79-6.68,1.13-9.98,2.78c-5.67,2.37-9.95,12.88-9.37,16.98c0.09,0.66-2.11,9.05-1.34,15.03c0.81,6.23-4.49,6.99-1.44,12.97
		c2.79,5.46,2.8,10.9,6.48,12.56c5.47,17.25,6.71,8.28,5.45,26.35c-0.3,4.34-1.75,3.09-3.19,8.13
		c-20.87,9.13-19.32,10.59-29.33,9.78c-6.67-0.54-13.52,3.5-15.13,7.1c-1.71,3.84-5.76,8.2-6.28,18.73
		c-0.65,13.2,0.68,15.82-1.13,19.14c-2.54,4.07-3.12,4.48-4.01,7.72c-1.5,5.41-2.35,11.25-3.29,12.56
		c-8.17,3.27-20.71,7.51-30.67,9.67c-4.04,0.88-2.7,0.17-7.93-0.41c-4.31-0.48-5.91,2.48-7.82,4.94
		c-14.09-0.97-18.04-1.68-23.47-0.41c-5.35-2.16-10.5-3.29-14.72,1.24c-18.03,3.79-68.21,2.12-74.62,3.19
		c-0.76,0-1.32,1.48-0.31,2.78c1.87,0.19,67.55-0.95,71.02-1.65c2.01-0.4,1.34-0.6,1.85,0.93c0.72,2.78,1.54,3.44,4.32,3.6
		c2.47,0.14,4.86-0.27,7.1-1.44c8.86-4.63,5.75-3.54,16.98-2.37c3.5,0.37,7-0.31,10.4,0.1c0.68,1.87,1.27,7.11,6.79,7.2
		c16.93,0.3-5.68-7.47,31.6,13.48c7.73,4.34,3.74,12.55,18.22,15.13c6.06,1.08,14.2-2.2,14.2-7.1c-0.15-1.51,1.23-3.87,0.82-5.15
		c-0.68-2.11,0.49-4.42,0.31-5.15c-0.72-1.85-0.41-3.91-0.62-5.87c-0.2-1.85,0.3-3.51,1.24-4.94c1.8-2.76,0.06-5.12,1.96-7.51
		c0.52-0.65,4.61-8.08,5.25-12.56c0.44-3.07,0.29-3.56,1.13-11.94c0-0.31,0.31-0.62,0.82-1.44c2.62,16.23,2.25,6.68,3.91,13.59
		c3.32,13.82,8.74,17.76,8.34,51.46c-0.13,11.09-12.69,22.63-13.59,39.93c-0.65,12.57-4.84,14.33-5.87,39.42
		c-0.49,11.91,0.61,27.62-0.93,30.36c-0.49,0.73,0.78,16.52,1.03,19.86c3.43,45.27,4.71,29.76,2.68,46.52
		c-0.9,7.45-1.03,3.83-1.03,18.53c0,5.64-3.89,8.51-7.1,24.8c-0.31,1.59,0.21,3.34,0.21,5.15c0,12.32-0.3,15.25,0.21,19.97
		c1.75,16.24,4.84,23,4.84,34.07c0,16.1,4.39,30.94,0.93,31.8c-1.65,0.21-2.46,1.34-2.98,2.68c-0.2,0.52-0.51,1.13-0.62,1.65
		c-0.85,4.26-5.93,9.68-6.59,11.84c-2.51,8.2-7.13,9.15-8.34,15.75c-0.71,3.85-2.16,2.18-2.16,4.53c0,5.04,0.19,2.91,1.24,10.91
		c-0.16,1.24-2.7,2.02,3.4,3.71c10.63,2.94,15.67,1.75,25.53-0.82c1.23-0.32,2.68-0.72,3.4-2.06c-0.41-0.31-0.72-0.62-1.24-1.03
		c4.62-4.29,3.64-5.41,2.37-9.98c4.22-2.26,7-5.66,9.26-9.78c0.1-1.54,0.41-3.29,0.41-5.04c0-7.64-2.68-5.77-2.68-9.16
		c-0.24-2.36,0.68-5.42-0.51-9.78c-2.29-8.36-3.97,0.08-2.78-10.5c0.33-2.96,2.26-13.79,3.19-25.53c0.45-5.62,1.11-16.51,4.12-22.64
		c9.05-18.49,3.44-37.1,6.59-45.8c14.21-39.24,0.26-27.93,16.16-70.5c9.68-25.91,9.28-44.18,13.07-52.59
		c2.16,0.21,2.18,0.2,2.47,1.85c1.43,8.17,4.99,16.75,8.03,28c4.49,16.6,9.07,19.92,10.7,26.66c7.31,30.17,3.27,26.56,8.44,40.04
		c5.01,13.07,5.48,17.02,9.26,20.38c-2.96,29.65,4.87,45.61,7.51,54.55c5.62,18.99,5.42,27.88,10.19,46.32
		c1.26,4.88-0.01,4.22,0.72,9.67c0,1.64,1.58,3.48,2.78,2.06c1.04-1.23,2.07-2.68,2.16-4.32c0.12-2.06,1.13-3.71,1.75-5.76
		c2.78-0.62,5.56-0.62,8.23-1.24c1.24,1.03,2.37,1.95,2.57,3.71c0.49,4.29,3.98,5.03,3.6,6.9c-3.46,0-4.73-0.45-9.47,0.93
		c-1.91,0.55-3.84,3.78-1.54,4.73c4.76-3.06,10.23-2.59,11.63-3.29c0.51-0.31,0.93-0.93,1.34-1.34c2.06,1.75,4.1,3.2,4.73,5.76
		c2.49,10.03,22.14,24.49,12.86,27.61c0.28-0.54,0.56-1.02,0.83-1.57c-0.51-0.31-0.72-0.72-1.03-0.72
		c-2.16-0.31-4.43-0.73-6.59-0.62c-1.45,0.07-5.42,1.08-6.59,2.68c-3.42,4.67-0.42,3.75,3.6,0.72c2.72-2.05,7.5-1.48,9.67-0.51
		c0,1.11-4.1,4.6-9.16,4.94c-17.56,1.19-17.89-0.3-21.92-5.15c0-4.74,0.24-6.74-1.96-7.62c-4.64-1.86-8.02-1.74-9.47-5.76
		c-1.01-2.01-4.27-3.5-2.78-8.03c3.04-9.22,3.27-12.19,3.71-18.42c0.29-2.36-0.67-3.26-0.93-3.6c-1.03,1.34-1.05,1.34-1.13,2.57
		c-0.4,5.96-1.89,11.75-2.98,17.6c-0.17,0.88-0.78,1.74-1.34,3.29c-1.65,4.63,2.12,5.87,2.57,7.31c1.25,3.94,7.57,7.52,10.5,6.48
		c0.83-0.29,1.54,0.62,1.44,1.54c-0.11,1.03-0.51,2.16-0.31,3.09c1.88,8.81,8.93,8.38,11.32,8.95c4.95,1.19,9.78,0.49,14.72,0.21
		c4.93-0.28,6.94-3.91,10.09-4.63c1.78-0.41,4.1-6.11-0.31-11.22C400.8,571.58,401.68,571.17,400.39,569.97z M144.73,195.23
		c-2.88-0.21-5.45,2.37-8.65,1.13c0-2.74,3.15-0.91,6.9-2.16c-0.31-1.75-2.26-0.62-2.68-1.85c2.16-0.62,2.16-0.62,5.35-0.1
		C145.35,193.17,145.04,194.1,144.73,195.23z M170.77,194.92c-3.6-0.21-7.1-0.31-10.6-0.51c3.6-1.03,7.31-1.34,11.12-1.24
		C171.08,193.89,170.98,194.3,170.77,194.92z M374.77,366.18c-1.08,0.54-0.5-1.6,0.62-1.44c0.21-0.62,0.41-1.24,0.82-2.37
		c-0.1,1.54-0.1,1.54-0.82,2.37C375.49,365.26,375.38,365.77,374.77,366.18z M332.88,108.36c4.05,2.77,8.32,3.3,21.41,9.67
		c15.07,7.34,9.45,43.5,12.25,56.51c0.94,4.38-0.37,6.23,1.65,14.31c6.28,25.13,9.89,26,12.35,40.24c3.59,20.78-0.53,12.6,3.5,42.3
		c3.93,28.93,2.17,18.19,3.29,26.55c0.56,4.14,1.85,2.28,1.85,7c0,5.62,0.08,5.68-0.21,5.87c-2.86,2.7-1.94,16.22-1.24,19.86
		c0.75,3.88-1.87,3.99-3.09,9.47c-1.09,3.8-0.15-0.81-4.84,11.94c-1.35,3.68-3.05,6.75-6.48,12.25c-1.96,0.74-1.75-2.97-0.62-4.63
		c4.44-6.53,2.93-10.77,6.38-18.42c1.21-2.69,1.03-5.15-0.31-7.62c0.41,2.26-0.21,4.43-1.03,7.31c-1.98-7.93,3.71-7.35,1.24-10.81
		c-0.31,0.21-0.83,0.31-1.03,0.62c-1.56,2.38-3.92,5.87-2.98,8.65c0.87,2.56,0.46,5.18-1.24,7.31c-0.5,0.63-0.41,1.85-1.75,2.16
		c-2.29-6.11-0.02-6.03-0.21-14.1c-0.08-3.66-3.17-3.43-1.85-10.81c1.3-7.26,3.3-5.84,6.28-11.12c1.97-3.48,1.34-6.13,2.16-1.24
		c1.75-2.68,1.44-5.15,0.82-7.72c-2.35,9.38,0.64-5.96-12.04-35.71c-3.39-7.96-3.73-9.62-4.22-12.25c-1.68-9-6.52-13-5.25-18.63
		c0-0.11-0.82-17.84-2.06-23.05c-3.94-16.61-2.41-17.79-6.48-31.6c-1.07-3.62,0.82-5.47,0.82-17.39c0-0.62-0.1-1.24,0.1-1.75
		c1.13-4.01,1.18-8.12,1.75-12.15c0.34-2.36,0.31-2.47-0.41-4.73c-1.54,0.62-1.44,2.68-2.98,3.29c-7.6-8.74-14.29-17.24-16.67-29.85
		c-0.72-3.8-1.34-3.14-1.34-3.6c-0.62-1.34-1.65-7.41-1.65-9.78C330.3,106.92,331.65,107.52,332.88,108.36z M346.46,235.88
		c-1.12-3.4-3.34,4.41-3.71-24.08c-0.06-4.68,1.39-2.9,1.85-7.31c1.05-9.95,1.92-10.01,2.98-13.38c2.67,4.45,3.75,19.86,5.25,22.44
		c3.38,5.81,0.28,20.09,2.78,26.86c26.19,70.91,20.39,67.04,15.54,74.31c-0.41-0.62-0.72-0.93-0.82-1.34
		c-4.04-16.76-2.16-14.42-3.29-17.5C340.04,222.78,358.22,271.64,346.46,235.88z M322.99,44.96c-0.41,0.51-0.72,0.82-1.03,1.24
		C322.17,45.78,321.86,45.06,322.99,44.96z M323.82,47.02c0.51,1.44,0.39,2.88,0.21,4.22c-0.11,0.78-0.75,1-1.43,1.02
		c0.12-1.46,0.09-1.09-1.14-2.56C321.97,48.56,322.48,47.53,323.82,47.02z M320.01,56.08c3.64-2.08,0.82-1.52,2.51-3.61
		c0.19,0.84,0.31,1.61-0.56,2.17c0.31,2.06-0.93,3.4-2.06,4.73C317.71,59.37,319.07,56.55,320.01,56.08z M318.36,35.08
		c0.1-0.1,0.31-0.21,0.41-0.31c0,0.44,0.52,0.36-0.41,0.82C318.47,35.49,318.36,35.18,318.36,35.08z M318.16,35.7
		c0.14,0,0.2-0.1-0.02,0.12C318.16,35.77,318.16,35.7,318.16,35.7z M317.95,32.92c0-0.31-0.29-0.13,0.1-0.51
		C318.26,32.6,318.13,32.74,317.95,32.92z M317.01,31.86c-0.29-0.91,0.32-1.52,1.04-2.44C318.46,30.82,318.26,31.54,317.01,31.86z
		 M300.87,2.76c2.17,0.37,4.94,0,6.38,2.78c-0.82,0.41-1.44,0.82-2.16,1.24c2.59,0,3.29-0.77,3.29,1.75
		c-3.33-0.74-2.83-0.83-3.29-1.75c-1.13,1.03-2.37,1.03-4.01,0.41c0.48-0.68,0.78-1.17,1.16-1.66c-1.45-0.03-1.14-0.53-2.4,1.14
		c-0.66-0.66,0.14-1.36,1.03-1.24c0-0.51,0.21-0.93,0.51-1.54c-2.06-0.21-2.57,1.85-4.01,2.78c-3.02-0.38-2.53,0.14-3.4-0.72
		C295.82,3.79,298.1,2.29,300.87,2.76z M306.35,14.44c0.07-0.33,0.09-0.62,0.17-0.98C306.99,14.03,306.78,14.25,306.35,14.44z
		 M293.97,13.26c0,0.31,0.21,0.62,0.21,0.72c0,0.1-0.41,0.31-0.51,0.21C293.1,13.62,293.76,13.47,293.97,13.26z M288.31,10.17
		c0.1-0.31,0.82-0.51,1.34-0.72c0.51,1.13,0.93,2.06,1.34,2.98c1.22-4.08,0.65-3.4,2.47-3.4c-0.31,1.65-0.62,3.19-2.47,3.4
		c0.28,3.07,1.02,5.08,0.41,8.13C288.07,16.57,287.66,15.65,288.31,10.17z M271.12,48.36c0,0.1,0,0.21,0,0.31
		c-0.1,0-0.21,0-0.31,0.1C270.81,48.57,270.44,48.36,271.12,48.36z M270.92,55.46c-1.75-1.85-1.85-2.06-1.03-4.73
		C271.33,51.86,271.33,51.86,270.92,55.46z M271.84,37.03c1.09,0.7,1.13,0.73,1.41,1.75C271.44,38.78,271.44,38.74,271.84,37.03z
		 M274,64.31c-0.62-0.93-0.72-1.85-0.62-2.68c-0.39-0.39-0.45-0.23-0.1-0.93C273.28,62.63,274.37,61.34,274,64.31z M279.15,74.5
		c-4.05-9.52-2.15-9-4.73-14.31c-3.42-7.03-1.03-21.1-1.03-21.2c0.36,0.3,0.65,0.66,1.03,1.03c1.34-1.54,1.34-1.54,0.41-4.84
		c-1.75,1.31-0.97,1.53-2.06-2.47c-0.31-1.13-1.13-2.16-0.72-3.5c1.57,1.18,0.93,0.62,1.85,0.31c-1.01-0.92-0.94-2.11-1.34-3.4
		c0.82,0.1,1.24,0.1,1.75,0.21c0.21-1.24-1.13-1.65-1.34-2.98c2.09-2.61,1.44-2,1.44-4.43c0.41,0,0.72-0.1,0.82,0
		c1.11,1.06,1.85,2.47,3.29,3.29c1.42-1.18-1.46-1.83-1.64-5.12c1.09,1.19,2.18,2.48,3.28,3.67c0.82-0.1,1.46-0.41,1.34-1.24
		c-0.26-1.76-0.62-3.6-1.96-5.87c0,1.62,0,2.61,0,3.57c-1.72-0.44-1.44-1.84-1.54-3.16c1.13-0.93,2.26-1.85,3.6-2.88
		c0.31,0.62,0.62,0.93,0.72,1.34c0.32,2.57,0.13,5.58,2.57,7c0.72,0.42,1.13,1.34,1.85,2.06c0.1-0.41,0.31-0.62,0.21-0.72
		c-0.62-1.24-1.85-2.16-1.44-3.81c0.16-0.62-0.14,0.92-2.06-6.28c-0.21-0.41,0.31-0.72,1.44-0.93c1.03,1.13,0.93,2.47,0.31,4.12
		c1.34,2.57,2.68,5.25,4.01,7.82c2.06,0.41,3.91-0.21,5.76,1.03c-0.64-3.6,0.21-4.35,0.21-13.38c1.13-0.62,2.06-0.21,3.09,0.21
		c0.21,0.72,0.51,1.44,0.93,2.47c1.89-3.15,0.57-2.62,4.12-2.26c0.1,3.08-0.82,5.44-2.67,7.5c0.54-6.82,1.07-5.18-0.83-1.84
		c-0.39,0.79-0.33,1.96-1.24,2.59c0-1.59,0-3.17,0-4.76c-1.95,0.65-0.31,1.88-1.96-0.31c-1.34,2.68-0.72,5.45-0.93,8.03
		c2.65,2.86,5.19-1.89,6.28-2.16c-0.1-0.72,0-1.24,0.72-1.44c0-0.62,0-1.13,0.72-1.44c1.23-3.94,1.01-4.82,1.75-5.56
		c1.55,0.26,0.65,1.34-0.4,4.82c-0.38,0.19-0.76,0.38-1.14,0.54c0.1,0.62,0.1,1.24-0.72,1.44c0,0.62,0.1,1.24-0.62,1.44
		c0.31,0.21,0.62,0.41,1.13,0.72c0.62-1.65,1.74-2.67,1.75-4.31c1.22-0.57,1.08-0.91,1.12,1.31c-0.48,0.64-1.42,0.95-1.15,2.23
		c1.67-0.81,1.17-2.1,1.15-2.23c1.42-1.71,1.33-1.81,2.38-4.41c1.24,0.82,1.45,1.24,1.03,1.85c-1.16,1.68-3.14,3.94-3.4,5.97
		c0.93-0.51,1.54-0.82,2.16-1.13c-0.1-0.62-0.1-1.13,0.72-1.34c0.28-0.37,0.47-0.82,0.66-1.21c-0.08,0.46,0.04,0.95-0.66,1.21
		c0.1,0.62,0.1,1.24-0.72,1.44c0.51,1.54,1.13,1.85,2.88,1.44c0-1.54-0.41-3.09-0.21-4.63c0-0.07-0.17-0.22-0.35-0.32
		c0.6-2.61,3.64,0.67,4.67,2.48c0.41,0.72,0.41,1.54-0.21,2.26c-0.62-0.51-1.13-1.03-1.75-1.75c-2.9,2.9-2,1.69-2.37,3.91
		c1.34,0.41,1.24-1.34,2.16-1.34c1.13,0.82-0.1,2.26,0.93,3.19c1.44,1.44,0.92,6.53,2.26-3.29c3.76,4.05-3.54,9.55,0.47,11.1
		c-0.11,0.05,0.13-0.46-1.4,3.83c0.51,0.72,1.13,1.54,1.85,2.37c0.1,1.34,0.3,2.78,0.21,4.12c-0.26,3.67,2.58,7.85,0.21,13.38
		c-2.37,5.54-1.36,8.08-5.15,18.22C306.66,89.97,285.5,89.41,279.15,74.5z M279.97,17.79c0,0.1-0.1,0.21-0.21,0.41
		C279.77,18.1,279.38,17.2,279.97,17.79z M276.27,105.58c3.71-3.91,6.38-8.13,6.59-14.1c1.65,2.37,1.54,5.04,3.4,6.9
		c-0.72-4.53-1.34-6.38-2.98-8.44c1.34-2.26,0.72-4.63,0.1-7.31c11.23,4.49,12.35,9.29,26.66-1.44c0.97,0,0.94,5.51,2.88,11.94
		c1.86,6.16,5.33,6.65,5.04,11.63c-0.29,5.12,0.92,10.45,2.78,14.31c1.18,2.45,1.31,4.11,0.93,10.7
		c-0.28,4.85-10.02,11.36-18.32,12.97c-4.79,0.93-18.12-3.07-21.92-5.35C276.21,125.94,275.3,117.54,276.27,105.58z M225.01,175.78
		c0.41,1.44,0.31,2.78,0.21,4.32c-5.15,1.03-9.88,3.81-15.95,3.91C211.22,182.57,222.75,176.6,225.01,175.78z M178.9,188.54
		c3.25-0.27,4.86-0.49,4.63,1.34c-1.44,1.15-2.01-1.11-4.85-1.02C178.76,188.69,178.83,188.54,178.9,188.54z M178.19,189.01
		c-0.33,0.19-0.65,0.34-0.99,0.48C177.35,188.91,177.76,188.96,178.19,189.01z M174.17,198.52c0.01,0.01,0.01,0.03,0.02,0.04
		C174.08,198.48,174.03,198.45,174.17,198.52z M174.9,200.22c-0.68-0.3-0.63-0.84-0.54-1.41C174.8,199.2,175.06,199.66,174.9,200.22
		z M176.12,201.4c-0.21-0.21-0.31-0.31-0.51-0.41c-0.21-0.41-0.41-0.62-0.62-0.72c-0.1,0,0.77-0.25,0.62,0.72
		C176.49,200.55,176.52,201.81,176.12,201.4z M176.84,189.77c-0.13,0.13-0.26,0.26-0.38,0.38
		C176.51,189.95,176.64,189.8,176.84,189.77z M180.14,199.45c-4.32-0.58-4.56-5.62-1.44-7.93c1.13-0.83,3.21-0.83,3.71,0.51
		c0.64,1.74,2.78,3.09,1.44,5.35C182.71,198.01,181.47,198.62,180.14,199.45z M184.36,200.07c0-0.54-0.4-0.65,0.31-0.82
		C185.21,199.79,184.84,199.82,184.36,200.07z M186.31,198.52c-0.21-1.75,0.1-3.4,0.31-4.84c1.44-1.75,3.09-2.46,5.04-2.37
		c3.86,0.18,2.34-0.47,25.63-6.48c1.33,9.77-2.36,5.49,0.41,10.81c-5.45,16.35-5.5,7.69-7.2,14.51c0,0.21-0.31,0.31-0.62,0.62
		c-0.51-0.21-1.13-0.41-1.96-0.51c-11.99-5.33-12.98-8.52-17.7-9.57C188.78,200.48,187.55,199.24,186.31,198.52z M216.06,222.5
		c1.06-1.06,3.93,2.23,6.9,1.13c3.29,1.13,6.59,0.41,9.98,0c1.03-0.21,2.16,0.21,3.5,0.41c1.48-2.79,0.82-8.45,0.51-11.53
		c1.03-0.41,1.75-0.72,2.47-0.93c0.51,2.37,0.12,4.53,0.31,6.69C241.05,233.06,220.79,234.11,216.06,222.5z M251.46,146.44
		c-0.87,0.43-0.37-0.42-0.72,4.84c0,0.72,0.21,1.65-0.21,2.06c-1.52,1.88-1.63,7.89-2.57,9.37c-0.4,0.99,0.4,23.89-2.88,28.82
		c-0.51-1.03-1.03-1.96-1.65-2.98c-3.19,0.46-4.1,1.17-5.45,0.21c-3.2-2.27-8.79-0.23-12.25-1.44c-0.91,0,0.27,1.78,2.68,2.16
		c6.02,0.96,9.57,1.77,13.48,1.03c4.53,11.08-9.71,2.49-13.38,5.35c-0.72,0.72-0.43,1.11,0.21,1.75c0.1,0.21,0.41,0.2,0.62,0.21
		c3.91,0.05,7.62,1.24,11.53,0.93c1.84,0,0.56,3.09,0.21,4.32c-3.49,0.87-9-0.28-10.81-0.1c-0.51,0.1-1.03,0.51-1.44,0.72
		c0.1,1.24,0.82,1.34,1.54,1.34c8.87,0,8.08,0.21,9.57,0.21c-0.98,4.92,1.51,2.5-10.6,4.12c-1.05,2.35,1.89,1.85,5.56,1.85
		c0.72,0.62-0.82,1.85,1.24,1.85c-2.16,1.65-4.01,1.43-6.07,1.13c-2.26-0.32-3.09-2.26-4.63-3.5c-0.51,0.31-0.82,0.82-1.34,1.03
		c-0.51,0.21-1.13,0.21-1.96,0.41c0.92,1.15,0.31,0.97,3.09,2.16c-0.31,2.37-0.31,2.37,1.24,3.09c0.31-0.41,0.51-0.93,0.93-1.54
		c2.78,0.93,5.66,0.93,8.65,0c0.21,2.16,0,4.01-0.62,5.97c-15.17,0-10.6-1.85-13.69,0.62c-0.42,0-10-5.13-15.95-9.47
		c-0.1-0.21-0.21-0.31-0.41-0.41c0.62-0.21,0.51,0.1,0.41,0.41c2.12-0.8,11.36,4.19,17.29,2.78c-0.41-0.51-0.72-1.03-1.03-1.13
		c-2.41-0.8-8.1-2.22-9.88-3.29c-1.52-3.34,3.62-5.34,6.48-13.28c0.21,2.37,1.03,3.6,2.37,4.43c0.31,0.1,0.82-0.1,1.34-0.1
		c-0.31-0.51-0.41-0.93-0.62-1.13c-2.89-2.57,0.45-4.8-3.4-7.62c-0.41-0.21-0.51-0.72-0.82-1.24c0.93-1.34,1.85-2.68,2.78-4.12
		c-1.8-5.09,1.6-7.06,7-6.48c4.56,0.49,10.69,0.08,12.25,0.41c1.75,1.44,1.24,3.5,2.26,4.84c0.72,0.21,1.02-0.1,1.13-0.62
		c0.98-4.49-2.29-5.56-4.84-7.41c-1.04-3.74,1.07-6.92-4.94-7.31c-11.74-0.76-8.09,0.16-11.32,3.4c-0.49-5.44,2.54-13.24,5.15-18.01
		c2.33-3.6,0.62-4.75,0.62-7.72c0.1-1.23,0.85-14.74,2.47-17.7c7.18-13.11,7.56-16.91,15.54-17.7c4.89-0.49,6.23,0.87,13.38-2.37
		c1.13-0.51,2.16-1.24,3.6-0.62c0.62,0.21,1.54-0.41,2.47-0.62c2.02,8.5-6.22,32.88-11.63,38.29
		C252.39,148.3,252.49,146.75,251.46,146.44z M226.76,180.41c0-1.54,0-2.98,0-4.63c3.19-0.1,6.07-0.21,8.85-0.31
		c1.03,1.75,1.03,1.75,0.72,4.12C234.03,180.16,238.11,179.6,226.76,180.41z M254.96,172.79c-2.51-5.9-1.3-6.16-2.68-12.25
		c-1.7-7.49,15.85-19.68,15.85-51.05c13.87-8.03-0.68-2.78,8.13,22.23c0.83,2.36,1.65,4.63,2.47,6.79
		c17.39,9.24,30.24,6.62,31.7,5.45c10.01-6.54,8.46-5.76,12.56-10.4c1.16-1.16,0.62-2.39-0.72-16.98c-0.53-5.8-0.16-7.35-1.85-9.37
		c-0.85-1.01-0.82-2.47-0.41-3.71c6.6-0.63,3.91,3.17,8.54,17.81c2.18,6.88,6.19,14.6,7,16.36c2.99,6.56,5.45,6.9,8.13,10.29
		c5.45,6.9,5.34,8.29,3.5,15.64c-1.13,4.51,1.4,14.54-1.96,21.41c-1.11,2.27-2.41,7.75-2.88,10.09c-29.37,2.84-42.74,5.32-46.32,3.6
		c-3.54-1.7-9.14-0.41-14.31-0.41c-4.48,0-2.53-1.09-9.98-1.44C258.78,196.27,265.44,197.43,254.96,172.79z M267.31,232.8
		c-0.58-0.29-0.21-5.35-0.21-5.45c0.61-8.59-1.89-14.9-2.78-19.66c-2.7-14.51-1.24-5.55,11.01-8.03c2.84-0.57,8.91,0.52,15.03-0.72
		c0.51-0.1,1.24-0.21,1.65,0.1c1.56,1.21,3.29,0.93,5.04,1.03c19.61,1.14,15.43-0.79,17.19-0.21c2.84,1.2,2.51-0.84,15.13-2.06
		c0.31-0.1,0.51-0.21,0.72-0.1c3.4,1.44,6.69,0.26,10.09,0.31c3.9,0.06-1.92,4.84-0.21,21.92c0.46,4.64-0.72,8.64,1.96,15.54
		c1.34,3.47,3.86,6.09,4.43,8.75c2.13,9.91,5.64,17.63,6.18,19.76c-1.31,0.98-20.15,4.89-25.11,5.45c-2.04,0,1.33-4.15,2.26-6.59
		c-1.51-0.5-2.82,2.37-5.56,6.48c-0.12,0-18,1.23-18.11,1.24c-22.4,1.7-32.83-4.27-49.09-4.63c-0.41-0.01-0.82-0.21-1.44-0.41
		C258.65,258.11,272.14,235.77,267.31,232.8z M263.71,556.7c0,6.03,0.21,4.58,2.47,8.85c0,4.57,0.53,5.62-0.93,10.29
		c-1.13,3.64-3.17,3.87-5.86,5.39c0.23-1.41,1.11-2.65,0.92-4.57c-3.78,5.04-0.38,4.31-1.03,4.63c-2.55,2.55-1.88-0.65-1.44,6.18
		c0.18,2.73-1.21,4.04-5.25,7.41c-0.57,0.57-7.67,1.97-8.13,2.06c-5.18,0.98-18.98-1.07-14.51-2.26c5.48-1.46,5.44-1.48,10.91-0.21
		c3.66,0.86,2.52,0.79,4.43,0.31c-2.81-3.37-5.42-1-8.23-4.32c-7.74,1.37-3.91,0.73-9.47,2.47c-1.52-14.16-1.43-8.1,1.54-14.41
		c1.47-3.12,3.71-5.66,5.76-8.23c2.28,0,11.07,0.76,15.95,0c1.74-0.27,1.83-2.29,0-2.78c-3.59-0.96-10.57-0.96-14.51,0.82
		c0.1-1.65,0.31-2.06,1.34-1.96c5.25,0.52,10.5-1.13,15.75-0.51c2.49,0,2.56-3.09-3.91-3.09c-12.92,0-10.26,1.91-11.73,0.93
		c0.31-1.96,1.13-2.86,2.98-3.09c6.3-0.77,10.23-0.05,14.72,1.44c2.75-1.72-2.2-4.32-11.53-4.32c-0.62,0-1.13,0.1-1.75,0.1
		c0.62-3.09,2.26-7.82,3.29-9.67c15.51,1.03,6.62-2.63,15.03,7.41C261.46,556.69,261.45,556.59,263.71,556.7z M261.86,551.35
		c0.43,0.43,0.74-0.25,0.21,0.82C261.61,552.17,261.53,551.99,261.86,551.35z M299.73,338.09c-11.54,52.61-14.86,46.05-17.81,68.55
		c-0.83,6.34,0,10.36-4.94,29.74c-2.09,8.22-4.42,13.56-5.04,27.17c-1.81,39.41-6.05,3.32-11.53,85.53
		c-1.75-1.24-0.72-3.6-2.47-4.84c-0.1,1.24-0.21,2.16-0.31,3.29c-2.78-2.06-2.78-2.11-6.69-2.16c-2.19-0.03-1.31,0.77-2.47-13.48
		c-3.94-48.65-9.03-49.52-4.63-83.57c0.22-1.7,1.9-5.29,3.71-11.63c1.56-5.47,0.22-3.64,0.72-7.93c0.71-6.05-0.45-4.37,0.82-11.12
		c0.59-3.13,3.05-10.01,1.24-19.45c-0.74-3.87-4.71-49.68-3.4-60.21c1.96,0.21,3.6,0.41,5.04,0.82c5.22,2.12,11.6,1.14,12.15,1.24
		c16.4,2.92,19.04,2.56,35.2-3.5C300.15,336.95,299.85,337.57,299.73,338.09z M307.25,319.77c-5.99,2.72-2.42,0.12-6.48,14
		c-16.53,6.79-21.99,5.29-25.32,5.04c-5.4-0.41-20.49-1.05-28.2-4.22c0-3.11,1.99-34.14,3.09-35.2c1.39-1.34,1.18-2.04,2.98-13.17
		c1.31-8.08-3.7-4.57,21.82-6.07c-1.66-0.38-15.75-0.72-20.69-0.72c-0.31-2.57,0.1-7.2,0.72-9.47c25.79,0,24.71,6.5,55.78,3.81
		c8.48-0.73,11.49-0.04,22.33-2.06c13.22-2.46,18.23-4.49,20.79-3.81c2.82,6.51,0.78,3.79,7.31,21.92c0.51,3.04,1.31,0.01,2.78,7.82
		c0.19,1,4.32,23.4,4.32,25.22c0,7.68,0.65,8.57-2.57,9.57c-11.83,3.69-10.75,3.98-16.16,4.32c-9.59,0.6-25.35,1.05-34.58-1.65
		C312.91,330.57,312.88,321.27,307.25,319.77z M365.81,548.57c0-0.75,0.19-0.72,0.41-0.72c0.1,0.1,0.1,0.31,0.21,0.51
		C366.33,548.36,366.12,548.46,365.81,548.57z M378.26,464.99c-0.52,24.46,0.07,33.1-1.24,51.26c-0.78,10.85,1.41,10.36,0.31,21.72
		c-13.62,2.37-8.16,3.45-11.32,7.51c-0.36-6.19,0.14-5.23-1.96-6.28c-9.1-40.28-0.03-16.08-13.48-58.87
		c-7.54-23.98,0.27-45.74-7.31-47.96c-1.03-0.3-1.44-1.34-1.24-2.26c0.71-4.29-6.15-12.23-6.48-20.89
		c-1.18-30.27-10.53-41.57-20.07-70.19c0-0.73,0.51-0.93,0.72-0.82c8.9,2.61,16.56,2.01,35.61,0.41c12.77-1.07,8.27-1.79,17.19-4.01
		c1.78,3.12-0.87,3.34,0.62,12.76c0.72,4.59,1.22,2.1,1.85,5.25c0.44,3.93,0.46,5.01-0.41,6.48c-1.33,2.27-1.44,4.43,0,6.38
		c-0.64,11.5,0.58,20.91-0.31,34.69c-0.56,8.63-2.15,24.78,0,27.58c1.92,2.5,1.5,5.56,2.78,8.65
		C375.98,442.28,378.48,454.76,378.26,464.99z"/> <path d="M823.93,561.64c1.37-0.58,0.95-1.94-0.31-2.57c-1.5-0.6-8.8,0.98-9.98,1.24c-1.03,0.22-2.06,0.93-2.98,1.65
		c-0.62,0.41-1.13,1.24-0.51,2.37c1.75-0.41,3.6-0.82,5.56-0.62c-0.62,1.24-2.37,1.44-1.96,3.19c11.67,0,4.86,0.06,10.5-0.41
		c3.65-0.3,3.17-2.71,2.26-3.09c-1.33-0.55-1.3-0.41-5.45-0.41C821.04,562.28,820.83,562.94,823.93,561.64z"/> <path d="M390.51,560.71c0-3.02-13.11-0.74-14.72,2.47c-0.88,2.21,0.13,1.45,6.79,0.62c-1.13,1.24-2.88,1.34-2.98,3.09
		c0.99,0.99,9.26,0.28,11.12-0.1c3.32-0.69,2.86-3.5-0.41-3.5c-5.05,0-6.33,1.02-0.41-1.44
		C390.2,561.74,390.51,561.12,390.51,560.71z"/> <path d="M373.63,562.05c6.54-3.27,14.2-3,14.2-5.45C387.84,554,371.61,555.58,373.63,562.05z"/> <path d="M821.15,555.26c-4.56-0.27-9.55-0.02-12.76,3.19c-0.93,0.93-0.82,1.65-0.21,3.09c5.1-2.55,9.42-2.56,13.38-4.32
		C822.53,556.56,822,555.26,821.15,555.26z"/> <path d="M395.76,568.53c-2.44-1.22-7.23-0.71-9.78,0.31c-0.73,0.29-1.34,0.82-2.57,1.54c4.52,1.51,10.83,0.61,12.25-0.1
		C396.38,569.97,396.38,568.84,395.76,568.53z"/> <path d="M829.89,568.22c-0.29-0.59-6.55-1.24-10.81,0.82c-0.41,0.2-0.62,0.51-1.54,1.34C822,571.05,833.03,571.36,829.89,568.22z"/> <path d="M824.23,573.06c1.77,0.79,3.08,1.61,5.25,0.31c1.03-0.52-0.13-1.65-0.51-1.65C828.24,571.77,824.23,571.96,824.23,573.06z"/> <path d="M390.1,573.06c0.71,2.14,6.07,1.13,5.45-0.1C395.01,571.33,391.46,572.38,390.1,573.06z"/> <path d="M745.29,320.9c2.54,0.13,15.64-3.37,17.91-5.35C742.46,320.55,745.66,319.42,745.29,320.9z"/> <path d="M719.05,315.03c3.4,1.13,6.59,1.96,9.98,2.26c-1.34-1.24-3.08-1.49-4.84-1.75C722.55,315.3,721,314.52,719.05,315.03z"/> <path d="M776.89,284.26c2.06-0.41,1.44-0.63,1.44-1.03c-1.01,0.2-0.62-0.08-2.98,0.51C772.63,284.42,775.91,284.37,776.89,284.26z"/> <path d="M747.14,318.12c1.38-3.06-0.03-1.29,3.6-4.12c-1.44-0.21-2.68,0.62-3.91,1.13C749.13,316.86,746.77,315.88,747.14,318.12z"/> <path d="M750.75,314c0.41-0.1,0.93-0.1,1.54-0.21C751.57,313.28,751.16,313.8,750.75,314z"/> <path d="M784.61,279.21c-0.25,0-0.28-0.03,0,0.1V279.21z"/> <path d="M788.11,434.11c-2.69-2.59-1.44-5.5-1.44-5.87c-5.03-9.67-4.26-8.93-6.18-8.54c0.51,3.6,2.78,5.87,4.73,8.13
		c0.81,2.42-2.15,5.09,1.44,7.72c1.13,0.72,2.26,1.44,3.71,2.26C789.65,435.66,789.68,435.63,788.11,434.11z"/> <path d="M801.69,421.66c-0.1-0.31-0.62-0.51-1.34-1.13c0.21,2.47,0.51,4.43,1.54,6.79C802.83,425.06,802.41,423.31,801.69,421.66z"/> <path d="M789.86,440.8c1.91,3.25,1.87,3.69,3.5,5.87C793.15,443.58,792.33,442.14,789.86,440.8z"/> <path d="M799.74,412.5c-0.72,3.5-0.72,3.71,0.1,5.76C800.77,416.62,800.77,416.21,799.74,412.5z"/> <path d="M801.18,437.31c0.21-0.1,0.51-0.21,0.62-0.31c0.51-1.65,0.93-3.29,0.82-5.25C801.28,433.39,800.97,434.63,801.18,437.31z"/> <path d="M766.49,369.89c1.44-1.54,1.85-2.88,1.24-4.43C766.8,366.7,766.39,367.93,766.49,369.89z"/> <path d="M799.02,528.91c0,1.95-0.35,1.59,0.21,2.98c0.21-0.51,0.51-0.72,0.51-1.03c0-0.72-0.1-1.34-0.1-1.96
		C799.43,528.91,799.12,528.91,799.02,528.91z"/> <path d="M797.37,456.76c0,0.72-0.21,1.03-0.1,1.34c0.1,0.41,0.41,0.72,0.62,1.13c0.61,0,0.47-1.06,0.41-1.24
		C798.09,457.68,797.78,457.38,797.37,456.76z"/> <path d="M799.43,525c0.41,0,0.31,0.25,0.31-1.44C799.33,523.56,799.43,523.3,799.43,525z"/> <path d="M799.74,468.7c0-0.11-0.1-0.22-0.31,0.21C799.56,469.03,799.74,469.09,799.74,468.7z"/> <path d="M800.36,400.87c0,0.1-0.1,0.21-0.1,0.31s0.1,0.21,0.1,0.31C800.55,401.29,800.57,401.08,800.36,400.87z"/> <path d="M799.84,404.78c0.1-0.1,0-0.21,0-0.31c0,0-0.1,0-0.21,0c0,0.1-0.1,0.21-0.1,0.31
		C799.53,405.09,799.74,405.09,799.84,404.78z"/> <path d="M690.12,417.44c0-5.06-4.47,1.53-0.72,8.44c-2.54,5.65-4.85,9.84,0.31,14.31c-0.78-4.27-1.18-5.27,0.41-11.63
		C691.16,424.41,689.16,422.24,690.12,417.44z"/> <path d="M698.98,441.01c0.39,3.53-2.45,5.65-3.4,9.67c0.78,0-0.3,1.14,4.43-6.48c0.27-0.27,0.21-0.37,0.21-5.66
		C699.28,439.26,698.87,440.08,698.98,441.01z"/> <path d="M701.96,427.84c0.41,3.29-1.03,6.07-0.93,9.16c0.41-0.21,0.72-0.21,0.72-0.31c1.75-2.29,2.96-7.13,1.65-8.44
		C703.2,428.04,702.68,428.04,701.96,427.84z"/> <path d="M722.34,373.18c-1.03,2.26-1.03,2.26-0.82,4.53C722.44,375.65,722.44,375.65,722.34,373.18z"/> <path d="M692.8,539.41c0.21-1.85,0.21-1.85-0.51-2.78C691.87,537.66,691.77,538.58,692.8,539.41z"/> <path d="M692.8,461.49c0.41-0.72,0.72-1.44,1.03-2.06C692.7,459.74,692.08,460.36,692.8,461.49z"/> <path d="M721.82,361.76c-0.27,0-0.23-0.08-0.1,0.31L721.82,361.76z"/> <path d="M729.75,174.79C729.8,174.75,729.71,174.78,729.75,174.79L729.75,174.79z"/> <path d="M722.75,180.82c6.38-3.39,5.88-2.86,8.13-4.73c0.25-0.12,0.42-1.34-0.72-1.34c-0.27,0.05-0.37,0.05-0.41,0.04
		c-0.15,0.12-1.78,0.94-14,5.31c-12.26,4.38-17.66-3.58-21.61-5.56C694.14,181.45,707.12,189.12,722.75,180.82z"/> <path d="M757.33,183.91c0.78,0.39,8.7-1.47,11.94-2.57c2.68-0.91,4.53-2.78,6.18-5.35c-1.24,0-2.26,0.1-2.68,0.72
		c-1.34,1.24-3.08,1.55-4.63,2.37c-4.72,2.49-9.88,2.68-15.03,2.37c-5.93-0.36-9.81-3.36-12.25-4.22c-0.91-0.32-1.43,1.09-1.13,1.54
		C743.35,183.28,749.04,182.96,757.33,183.91z"/> <path d="M778.64,172.28c-1.34,1.03-1.34,1.03-1.24,2.47C778.54,174.23,779.05,173.51,778.64,172.28z"/> <path d="M737.57,173.92c-0.82-1.75-1.13-3.09-2.16-4.01C735.72,172.17,735.72,172.17,737.57,173.92z"/> <path d="M692.29,172.38c-0.86-0.86-0.64-0.8-1.03-0.41c0.21,0.21,0.31,0.51,0.51,0.72C691.91,172.83,692.54,172.64,692.29,172.38z"/> <path d="M690.02,167.54c-0.1,0-0.21,0.1-0.21,0.21C689.82,168.28,690.56,168.61,690.02,167.54z"/> <path d="M779.46,169.09c-0.1-0.1-0.1-0.21-0.1-0.21c-0.18,0-0.34,0.17,0,0.51C779.36,169.29,779.46,169.19,779.46,169.09z"/> <path d="M796.03,218.49c-0.46-2.3-1.98-6.43-2.57-7.82c-0.31-1.23-2.26-1.89-2.78-0.41C789.82,212.68,793.71,216.97,796.03,218.49z
		"/> <path d="M813.84,299.08c0-1.03,0-1.85,0-2.98C812.71,297.95,812.71,297.95,813.84,299.08z"/> <path d="M812.91,284.15c0,0.62,0,1.34,0,1.96C813.84,286.11,814.2,284.15,812.91,284.15z"/> <path d="M787.28,138.11c0.1-0.41,0.41-0.82-0.21-1.13c-0.1,0.1-0.41,0.31-0.41,0.41C786.67,140.5,787.28,138.32,787.28,138.11z"/> <path d="M800.56,219.93c-1.05-1.05-1.12-0.63-1.44-0.31C800.34,220.84,799.9,220.37,800.56,219.93z"/> <path d="M813.74,291.77c0.23-0.23,0-0.36,0-0.51C813.51,291.48,813.74,291.62,813.74,291.77z"/> <path d="M785.64,142.63c-0.29,0.58-0.26,0.66,0,0.93C786.14,142.56,785.95,143.25,785.64,142.63z"/> <path d="M741.48,245.46c0.99-1.53,1.92-3.89,0.1-4.12c-2.86,4-4.32,2.65-4.32,4.32C739.01,247.31,740.28,247.33,741.48,245.46z"/> <path d="M768.76,255.03c-1.13,1.24-1.54,2.26-1.44,3.6C768.45,257.81,768.96,256.67,768.76,255.03z"/> <path d="M738.6,230.63c-0.41,1.24-0.51,2.16,0.51,3.4C739.63,232.59,739.53,231.66,738.6,230.63z"/> <path d="M704.53,245.25c0.1,0.1,0.31,0.1,0.72,0.31c-0.1-0.93-0.1-1.85-0.21-3.19C703.61,243.6,704.22,244.43,704.53,245.25z"/> <path d="M772.87,248.85c-1.03,1.03-1.03,1.85-0.72,3.19C772.87,250.91,773.29,250.09,772.87,248.85z"/> <path d="M713.9,261.72c0.9,0.9,0.67,0.53,1.03,0c-0.21-0.21-0.51-0.31-0.72-0.51C714.11,261.41,713.9,261.61,713.9,261.72z"/> <path d="M710.3,257.5c0.8,0.8,0.71,0.85,0.93,0.41C710.41,257.09,710.74,257.27,710.3,257.5z"/> <path d="M717.3,265.22c0.2,0.2,0.15,0.26,0.41,0c-0.1-0.1-0.21-0.21-0.21-0.21C717.4,265.11,717.3,265.11,717.3,265.22z"/> <path d="M763.71,262.23c-0.1,0.21-0.1,0.31-0.21,0.51C763.71,262.64,764.23,262.75,763.71,262.23z"/> <path d="M663.57,147.47c0-0.82,0.41-1.96-0.51-2.78c-1.03,1.65-1.03,1.65-0.41,4.43C663.57,148.91,663.57,148.19,663.57,147.47z"/> <path d="M665.01,206.14c-0.72-1.13-1.44-2.16-2.06-3.09C662.95,205.62,663.06,205.73,665.01,206.14z"/> <path d="M669.85,209.12c0.82,0.31,1.54,0.51,2.26,0.72C670.88,208.71,670.88,208.71,669.85,209.12z"/> <path d="M666.66,157.46c0,0,0.1,0,0.31,0C667.43,156.07,666.08,155.73,666.66,157.46z"/> <path d="M664.8,152.51c0-0.21-0.1-0.41-0.1-0.51c-0.39,0.19-0.1,0.32-0.1,0.72C664.7,152.62,664.8,152.62,664.8,152.51z"/> <path d="M666.66,207.48c0.58,0.29,0.66,0.26,0.93,0C666.84,207.11,666.81,207.32,666.66,207.48z"/> <path d="M718.94,48.87c2.9-1.93,1.74-0.82,2.68-0.82c4.82,0-5.21-7.75-10.7-2.68c1.34,0.72,2.16-0.93,3.71-0.31
		c-1.13,0.72-2.16,1.44-2.98,2.06c0.72,1.63,1.69,1.03,3.71-0.31C716.37,48.05,717.4,49.08,718.94,48.87z"/> <path d="M745.7,44.55c-2.37-1.44-4.94-1.49-7.41-1.54c-1.54-0.03-1.81,0.92-4.73,4.43c1.5,2,1.66-1.74,3.91,0
		c1.22,0.95,2.7,0.94,3.71-0.51c1.09-1.57,2.56,0.95,4.53,0.1c-1.13-1.75-3.29-1.44-4.43-2.78
		C742.72,43.42,744.06,45.17,745.7,44.55z"/> <path d="M724.6,71.72c15.81-0.23,12.46,0.18,14.62-1.44c-14.64-0.86-5.57-2.85-17.81,0.21C721.23,70.48,719.66,71.79,724.6,71.72z"/> <path d="M735.51,73.88c-4.01,2.06-8.34,1.03-13.17,0.51C730.83,80.06,737.18,74.99,735.51,73.88z"/> <path d="M745.91,39.71c5.27,0-10.73-3.56-14.82,0.82C732.9,41.62,738.96,38.39,745.91,39.71z"/> <path d="M724.09,41.36c-2.19-2.48-8.95-4.12-12.97-1.44C720.6,38.97,721.74,41.83,724.09,41.36z"/> <path d="M734.59,62.25c-1.45-0.62-2.84-2.05-3.71-0.31C732.84,63.18,732.84,63.18,734.59,62.25z"/> <path d="M734.69,59.16c0,1.24,0,2.16,0,3.19C736.03,61.32,736.13,61.02,734.69,59.16z"/> <path d="M726.87,62.87c2.58,0.65,0.45-2.54-0.51-0.62C726.35,62.35,726.66,62.87,726.87,62.87z"/> <path d="M732.63,42.59c-0.82,0.82-1.03,1.44-1.24,2.57C732.22,44.44,732.73,43.83,732.63,42.59z"/> <path d="M717.09,50.21c0.82,0.31,1.65,0.41,2.47-0.21C718.22,49.59,718.22,49.59,717.09,50.21z"/> <path d="M724.81,47.94c-0.31-0.62-0.51-1.03-0.82-1.54C723.37,47.33,723.88,47.53,724.81,47.94z"/> <path d="M747.56,37.75c0.1-0.1,0.41-0.31,0.41-0.41c0-1.4-0.04-1.47-0.51-1.24C747.45,37.77,747.14,37.33,747.56,37.75z"/> <path d="M730.68,59.37c-0.71,0.36-0.6,0.35-0.41,0.72C731.12,60.09,730.85,59.72,730.68,59.37z"/> <path d="M739.53,49.18c0.61,0.61,0.2,0.1,0.82,0.1C740.35,48.89,739.81,49.18,739.53,49.18z"/> <path d="M721.52,21.08c0-0.74-0.35-0.89-0.95-0.89C720.63,20.32,720.34,21.22,721.52,21.08z"/> <path d="M724.09,60.19c0.51-0.1,0.72-0.41,0.21-1.03C724.29,59.57,724.19,59.88,724.09,60.19z"/> <path d="M724.29,62.35c0,0.21,0.1,0.31,0.21,0.51c0-0.1,0.1-0.1,0.21-0.21C724.42,62.09,724.56,62.09,724.29,62.35z"/> <path d="M709.17,28.29c-0.1,0.1-0.21,0.1-0.31,0.21C708.86,28.39,709.17,29.14,709.17,28.29z"/> <path d="M709.78,24.17c-0.1-0.1-0.21-0.31-0.41-0.51C709.47,23.86,709.58,23.96,709.78,24.17z"/> <path d="M710.81,22.21l-0.21-0.1C710.74,22.37,710.68,22.35,710.81,22.21z"/> <path d="M710.71,22.32c0.03,0.03,0.06,0.06,0.09,0.09C710.79,22.36,710.77,22.32,710.71,22.32z"/> <path d="M710.8,22.41c0.04,0.12-0.07,0.22,0.22,0.22C710.95,22.55,710.87,22.48,710.8,22.41z"/> <path d="M709.47,23.65l-0.21-0.1C709.39,23.68,709.34,23.65,709.47,23.65z"/> <path d="M750.13,109.7c-2.98-0.21-5.87,0.38-8.65,1.03C734.2,112.45,744.34,111.47,750.13,109.7z"/> <path d="M733.97,108.77c-1.54,1.65-1.96,2.98-2.16,4.32c0,0.21,0.31,0.51,0.51,0.93C733.56,112.58,733.56,111.04,733.97,108.77z"/> <path d="M726.04,112.58c-0.96-0.96,0.6-0.65-5.45-1.03C721.28,111.9,719.68,112.21,726.04,112.58z"/> <path d="M743.44,90.04c-0.72,0.72-0.62,1.65-0.1,2.78C743.95,91.69,744.16,90.86,743.44,90.04z"/> <path d="M740.76,107.33c0.65-1.96,0.9-0.96,0.21-1.65C740.18,106.87,740.17,106.74,740.76,107.33z"/> <path d="M737.37,131.93c0.1-0.31,0-0.72,0-1.44C735.39,132.07,736.78,133.09,737.37,131.93z"/> <path d="M742.41,98.48c0,0-0.21-0.1-0.41-0.1c0,0.31-0.1,0.62-0.1,1.03C742.31,99.41,742.41,99.58,742.41,98.48z"/> <path d="M718.84,111.45c0.82,0,1.34,0,1.85,0C720.18,111.14,719.77,110.93,718.84,111.45z"/> <path d="M724.91,107.23c-0.21-0.1-0.31-0.31-0.51-0.62C724.4,106.86,724.28,106.91,724.91,107.23z"/> <path d="M724.91,107.54C724.95,107.63,724.97,107.66,724.91,107.54L724.91,107.54z"/> <path d="M724.81,107.33c0.04,0.08,0.07,0.15,0.1,0.21C725.02,107.74,724.91,107.43,724.81,107.33z"/> <path d="M738.5,111.96c0.67-0.67,0.45-0.31-0.1-0.31c-0.1,0-0.1,0.21-0.21,0.31C738.29,111.96,738.4,112.07,738.5,111.96z"/> <path d="M739.63,128.43c-0.24,0.73,0.4,0.43,0.62,0C740.15,128.53,739.94,128.43,739.63,128.43z"/> <path d="M740.25,128.43l0.1,0.1C740.35,128.28,740.39,128.29,740.25,128.43z"/> <path d="M669.85,572.75c-5,2.5,9.61,2.86,11.12,1.85C684.48,571.09,674.37,570.49,669.85,572.75z"/> <path d="M675.1,576.36c-1.44-0.3-2.88-0.21-4.53,0.72c1.44,0.62,2.47,1.75,3.91,1.96C677.26,579.59,677.69,576.89,675.1,576.36z"/> <path d="M692.7,580.58c1.32-0.25,1.02,0.63,1.75-3.6C693.31,577.9,692.29,578.93,692.7,580.58z"/> <path d="M771.85,214.68c-1.9,0.63,0.13,1.94,4.01-0.1C772.98,214.17,772.98,214.06,771.85,214.68z"/> <path d="M773.7,206.86c-1.85,0.21-1.85,0.21-2.98,1.24C771.85,208.2,772.87,208.2,773.7,206.86z"/> <path d="M768.76,215.61c-0.93,0.1-1.85,0.21-3.19,0.31C767.01,216.43,767.93,216.33,768.76,215.61z"/> <path d="M768.04,207.58c0.19,0.19,0.03,0.35,0.72,0C768.57,207.39,768.73,207.23,768.04,207.58z"/> <path d="M311.88,319.97c-0.41,0.1-0.72,0.51-1.65,1.13c7.22-0.45,15.1-3.18,18.63-4.94C323.84,317.17,336.67,313.84,311.88,319.97z
		"/> <path d="M285.43,315.44c0.31,0.1,0.62,0.41,0.93,0.51C304.09,320.21,291.62,315.25,285.43,315.44z"/> <path d="M312.95,315.53c-0.11-0.04-0.24-0.18-0.04,0.02C312.92,315.54,312.94,315.53,312.95,315.53z"/> <path d="M313.42,316.78c1.13-0.93,2.37-1.75,3.6-2.47c-1.52-0.31-2.85,0.4-4.08,1.21C313.44,315.76,313.61,316.23,313.42,316.78z"/> <path d="M343.99,284.26c-1.34-0.21-2.78-0.72-4.12,0.41C341.03,284.96,339.87,285.01,343.99,284.26z"/> <path d="M354.8,279.11c-0.1,0-2.47,0.05-2.47,0.21C355.16,279.32,354.8,279.39,354.8,279.11z"/> <path d="M313.22,317.6c0.14-0.14,0.1-0.26,0.1-0.93C313.32,317.37,312.71,317.09,313.22,317.6z"/> <path d="M329.17,315.96c0.06,0,0.08,0.01,0.1,0.01C329.31,315.93,329.3,315.92,329.17,315.96z"/> <path d="M329.27,315.97c-0.05,0.05-0.19,0.13-0.31,0.2C329.13,316.08,329.34,316,329.27,315.97z"/> <path d="M312.81,315.44c-0.21,0.1-0.41,0.21-0.31,0.21C312.39,315.75,312.6,315.55,312.81,315.44z"/> <path d="M319.19,313.69c-0.39,0-0.43-0.04,0,0.1V313.69z"/> <path d="M354.08,434.84c-3.54-2.73-1.24-5.37-2.47-7.62c-4.62-8.44-3.2-6.39-4.53-7.72c-1.13,2.16-0.51,3.5,4.32,9.26
		c-0.34,1.68-3.68,6.98,4.63,8.95C355.62,436.58,355.01,435.55,354.08,434.84z"/> <path d="M367.25,421.66c-0.11-0.2-0.51-0.21-0.82-0.41c-0.1,2.88,0.31,4.53,1.65,6.28C368.49,425.37,368.24,423.54,367.25,421.66z"/> <path d="M365.91,418.68c0.62-1.85,0.21-3.71-0.1-5.45C364.68,416.51,364.68,417.44,365.91,418.68z"/> <path d="M356.65,441.53c0,1.85,0.41,2.68,2.78,5.56C358.81,443.79,358.4,443.07,356.65,441.53z"/> <path d="M367.25,438.13c1.03-2.06,1.24-3.91,0.82-5.87C367.35,434.01,366.43,435.76,367.25,438.13z"/> <path d="M331.95,370.2c1.85-1.65,1.96-1.96,1.54-4.73C332.98,367.01,332.15,368.35,331.95,370.2z"/> <path d="M364.78,530.45c0,0.62,0.1,1.13,0.1,1.65c0.62-1.03,0.82-2.06,0.21-3.6C364.99,529.42,364.78,529.94,364.78,530.45z"/> <path d="M363.03,457.58c0,1.03,0.1,1.65,1.13,1.96C364.06,458.71,364.47,457.89,363.03,457.58z"/> <path d="M365.4,525.51c0-0.93,0-1.44,0-2.06C364.78,524.17,364.78,524.69,365.4,525.51z"/> <path d="M365.3,470.24c0-0.31,0-0.62,0-1.03C365,469.51,365.01,469.66,365.3,470.24z"/> <path d="M365.81,404.99c-0.27,0.13-0.26,0.08,0,0.21V404.99z"/> <path d="M255.68,417.54c0.19-2-1.44-2.07-1.75-0.21c-0.59,3.53-0.18,6.15,1.34,9.06c-1.44,2.16-2.16,4.32-2.88,6.59
		c-0.72,2.88,0.31,5.35,3.19,7.31c-1.87-4.93-0.08-9.24,0.41-12.66C256.44,424.45,255.04,424.4,255.68,417.54z"/> <path d="M268.14,428.25c-0.51,3.09-0.93,6.07-1.34,9.26c1.99-0.5,3.09-4.9,3.09-7.51C269.89,428.97,269.58,428.66,268.14,428.25z"/> <path d="M264.84,441.73c0.51,2.86-5.56,11.84-2.37,8.65c3.63-5.44,3.91-6.65,3.4-8.13c-0.28-0.82,0.31-0.68,0.31-3.4
		C264.84,439.57,264.66,440.7,264.84,441.73z"/> <path d="M286.77,378.84c1.75-1.96,1.34-3.5,0.93-5.04C287.49,375.24,287.18,376.68,286.77,378.84z"/> <path d="M258.36,462.01c0.93-0.51,1.03-1.34,1.34-2.37C258.46,460.36,258.46,460.36,258.36,462.01z"/> <path d="M258.05,539.41c0.55,0,0.41,0.38,0.41-2.47C257.61,536.94,258.05,536.02,258.05,539.41z"/> <path d="M287.79,362.07v-0.31C287.67,362.01,287.66,361.94,287.79,362.07z"/> <path d="M261.34,450.99c0,0.21-0.1,0.41-0.1,0.72C261.34,451.51,261.34,451.3,261.34,450.99z"/> <path d="M307.97,245.04c0.77-1.53,1.06-2.92-0.41-3.29c-0.62,0.72-1.24,1.54-1.96,2.26s-2.26,0.62-2.57,1.96
		C305.7,247.72,306.73,247.51,307.97,245.04z"/> <path d="M271.12,243.91c-0.44-1.76-2.58-0.05,0.1,3.09C271.12,245.56,271.12,244.84,271.12,243.91z"/> <path d="M338.43,248.75c-0.41,1.54-0.72,2.57-0.93,3.5C338.74,251.42,339.05,250.5,338.43,248.75z"/> <path d="M334.52,255.64c-1.44,1.44-1.44,1.44-1.34,3.29C334.32,257.5,334.32,257.5,334.52,255.64z"/> <path d="M280.8,262.13c-0.92-0.62-0.55-0.79-0.93-0.41C280.33,262.63,280.19,262.43,280.8,262.13z"/> <path d="M283.68,265.63c-0.1-0.1-0.1-0.41-0.31-0.51c-0.1-0.1-0.31,0.1-0.51,0.1C283.26,266.04,283.11,265.63,283.68,265.63z"/> <path d="M276.58,257.6c-0.36,0-0.16,0.51,0,0.82C276.91,258.09,277.01,258.47,276.58,257.6z"/> <path d="M334.62,255.75l0.1-0.21C334.47,255.67,334.49,255.61,334.62,255.75z"/> <path d="M277.71,184.63c7.16-0.66,10.71-3.28,16.26-6.18c1.14-0.6,2.37-1.03,3.19-2.37c-0.51-1.24-1.24-1.14-2.06-0.82
		c-9.66,3.74-13.95,5.73-18.63,6.28c-12.68,1.48-16.47-10.28-16.47-5.25C260.25,179.47,266.8,185.64,277.71,184.63z"/> <path d="M306.94,180.41c5.07,3.22,7.35,2.75,12.25,3.4c5.97,0.79,11.62-0.65,17.09-2.78c2.16-0.84,3.09-1.85,4.53-4.63
		c-0.93,0.21-1.96,0-2.16,0.31c-1.03,1.12-14.56,9.66-29.85,1.65c-2.18-0.93-2.54-1.07-3.19-0.41
		C304.92,178.61,306.25,179.86,306.94,180.41z"/> <path d="M343.89,172.69c-0.41,0.62-0.72,1.13-1.34,2.16C344.71,174.33,344.92,173.82,343.89,172.69z"/> <path d="M302.82,173.51c-0.21-0.93-0.31-1.75-1.34-2.16C301.59,172.28,301.48,173.2,302.82,173.51z"/> <path d="M257.23,172.07c0.4,0.79-0.25,0.65,0.72,1.13C257.95,172.37,258.22,173.06,257.23,172.07z"/> <path d="M255.58,168.16c0.66,0.66,0.18,0.64,0.72,0.1C255.67,167.95,255.92,167.82,255.58,168.16z"/> <path d="M301.48,171.35c0-0.56-0.21-0.67-0.21-0.82C301.28,170.74,300.71,170.97,301.48,171.35z"/> <path d="M257.33,171.97l-0.21-0.1C257.25,172.12,257.2,172.1,257.33,171.97z"/> <path d="M362.21,219.42c-1.8-5.86-2.3-7.52-3.4-9.06c-0.58-0.58-2.62-0.6-2.37,1.03C356.88,214.2,359.72,217.48,362.21,219.42z"/> <path d="M379.5,299.9c0-1.34,0-2.16,0-3.4C378.68,297.64,378.68,298.56,379.5,299.9z"/> <path d="M378.88,284.67c0,0.72,0,1.44,0.1,2.37C379.71,286.01,379.71,285.29,378.88,284.67z"/> <path d="M353.05,137.18c-0.93,0.51-1.03,1.34-0.31,2.68C352.84,138.72,353.67,138.21,353.05,137.18z"/> <path d="M365.19,219.42c-0.43,0.43-0.22,0.71,0.62,1.54C366.72,220.05,365.46,219.15,365.19,219.42z"/> <path d="M379.19,291.57c-0.1,0.21-0.1,0.41-0.1,0.62c0.1-0.1,0.31-0.1,0.31-0.1c0-0.21-0.1-0.41-0.1-0.62
		C379.29,291.46,379.19,291.46,379.19,291.57z"/> <path d="M351.81,143.56c0-0.37-0.38-0.17-0.72,0C351.28,143.75,351.12,143.91,351.81,143.56z"/> <path d="M285.12,50.72c-0.41-1.44,0.1-2.16,1.13-2.68c0.51,0.21,1.03,0.41,1.54,0.62c2.12-0.91-0.98-3.15-3.09-4.12
		c-2.26-1.04-4.73-0.72-7.1,0.93c0.82-0.1,1.65-0.1,2.47,0c-0.82,1.13-2.47,1.03-2.88,2.47c1.54,1.85,2.37-0.51,3.6-0.62
		c3.23,2.42,2.66,1.79,1.85,3.4C283.57,50.72,284.3,50.72,285.12,50.72z"/> <path d="M286.66,71.21c1.3,1.02,1.78,1.01,14.51,0.82c0.93-0.01,1.85-0.21,2.78-0.41c0.31-0.1,0.51-0.41,0.82-0.72
		c-0.51-0.21-0.82-0.62-1.03-0.51c-2.94,0.9-7-2.13-11.63-0.72C290.47,70.16,288.72,70.59,286.66,71.21z"/> <path d="M310.64,44.75c-2.06-1.65-4.53-1.44-6.9-1.24c-1.21,0.24-1.93,1.63-4.22,4.43c1.34,1.34,1.96-0.82,3.09-0.51
		c0.62,0.72,1.44,0.9,2.47,1.03c1.44,0.18,1.85-1.34,2.88-1.54c2.26,0.72,2.26,0.72,3.6,0.21
		C305.39,44.03,305.42,44.32,310.64,44.75z"/> <path d="M312.19,40.02c-3.71-1.96-7.62-1.12-11.42-0.82c-1.34,0.11-2.78,0.31-3.71,1.65C298.71,42.5,305.06,38.49,312.19,40.02z"/> <path d="M292.94,75.42c-1.44,0.41-2.57-0.93-4.12-0.41c0.31,0.31,0.41,0.62,0.62,0.72c3.77,1.37,5.68,2.16,10.19,0.82
		c1.13-0.33,1.75-1.13,1.96-2.26C294.15,76.42,296.08,74.75,292.94,75.42z"/> <path d="M285.02,40.53c1.54,0.22,2.78,1.13,4.43,1.34c-1.03-1.75-1.54-2.07-3.91-2.57c-2.98-0.63-6.07-0.93-9.47,0.93
		C281.1,40.22,278.79,39.64,285.02,40.53z"/> <path d="M300.15,63.07c1.36-0.27,2.13-2.44,0.62-3.5c-0.1,1.03-0.21,1.85-0.31,2.68c-1.34,0.1-2.47-1.65-3.71,0.1
		C297.78,63.59,299.01,63.18,300.15,63.07z"/> <path d="M292.63,63.38c0.41,0,0.82-0.21,1.24-0.31c0.1-0.21,0.1-0.41,0.1-0.62c-0.51-0.21-1.03-0.41-1.54-0.41
		c-0.1,0-0.51,0.51-0.51,0.72C291.91,62.97,292.32,63.38,292.63,63.38z"/> <path d="M313.42,36.62c-0.54,1.08-0.33,0.9,0.31,1.75C314.05,36.78,314.3,37.5,313.42,36.62z"/> <path d="M305.09,18.71l0.1,0.1C305.15,18.61,305.16,18.68,305.09,18.71z"/> <path d="M289.85,62.77c0.8,0.8,0.72,0.61,0.93,0.41C290.13,62.53,290.18,62.44,289.85,62.77z"/> <path d="M276.47,22.62c0,0.1,0,0.21-0.1,0.31c0.1-0.1,0.21-0.1,0.31-0.21C276.58,22.73,276.58,22.62,276.47,22.62z"/> <path d="M298.29,43.21c-0.1,0.1-0.31,0.09-0.31,0.82C298.41,43.6,298.71,44.05,298.29,43.21z"/> <path d="M297.88,44.96c0-0.16,0.1,0.1,0.1-1.03C297.78,44.34,297.43,44.05,297.88,44.96z"/> <path d="M310.64,44.86c0.1,0,0.21,0.31,0.41,0.41c0.1,0,0.31-0.1,0.51-0.1C311.19,44.79,311.58,44.86,310.64,44.86z"/> <path d="M289.85,47.02c-0.15,0.15-0.38,0.06,0,0.82C290.27,47.42,290.18,47.68,289.85,47.02z"/> <path d="M296.34,48.97l-0.1-0.21C296.23,49.01,296.2,48.97,296.34,48.97z"/> <path d="M305.7,49.08c0,0.68,0.22,0.31,0.41,0.31C306.12,49.01,305.98,49.08,305.7,49.08z"/> <path d="M290.4,59.96c-0.01,0.08-0.03,0.21-0.03,0.34C290.37,60.02,290.52,59.83,290.4,59.96z"/> <path d="M290.37,59.99c0.02-0.02,0.02-0.02,0.03-0.03C290.42,59.84,290.43,59.81,290.37,59.99z"/> <path d="M296.44,59.99c-0.14-0.14-0.24-0.42-0.51,0.41C296.18,60.66,296.07,60.73,296.44,59.99z"/> <path d="M274,29.32h0.1C274.24,29.04,274.28,29.04,274,29.32z"/> <path d="M289.96,60.71c0.1-0.21,0.21-0.31,0.31-0.51C290.06,60.3,289.65,60.19,289.96,60.71z"/> <path d="M277.61,45.37c-0.24,0.49-0.86-0.13-0.21,0.51C277.5,45.68,277.5,45.58,277.61,45.37z"/> <path d="M305.09,18.71c-0.31,0-0.62-0.1-0.41,0.51C304.78,19.02,304.98,18.92,305.09,18.71z"/> <path d="M229.23,146.34c0,1.34-0.62,2.98,0.82,4.22c0.62-2.88,0.62-4.32,0-6.9C228.82,144.28,229.23,145.41,229.23,146.34z"/> <path d="M221.72,205.93c-0.31,1.34-0.31,1.34,0.93,2.37C223.26,206.86,223.16,206.55,221.72,205.93z"/> <path d="M253.83,118.45c-0.72-1.24-0.72-1.24-1.65-1.54C252.8,118.14,252.8,118.14,253.83,118.45z"/> <path d="M231.7,153.44c-0.39,0-0.12,0.49,0,0.72C232.2,153.67,232,154.03,231.7,153.44z"/> <path d="M254.04,119.17c-0.1-0.31-0.1-0.51-0.31-0.62C253.83,118.76,253.93,118.96,254.04,119.17z"/> <path d="M301.69,142.84c0.82-3.71,0.62-5.35-0.41-7.82c-0.82,2.26-1.3,4.31-0.72,6.48C300.67,141.91,301.07,142.12,301.69,142.84z"/> <path d="M306.53,111.65c3.91-0.1,7.51-0.72,10.09-2.06C306.08,111.14,306.91,110.89,306.53,111.65z"/> <path d="M292.22,112.58c-2.57-0.51-4.73-1.24-7.62-0.62C292.55,113.18,290.83,112.98,292.22,112.58z"/> <path d="M299.12,110.01c-0.72,1.34-1.85,2.47-1.34,4.84C299.12,112.99,299.63,111.65,299.12,110.01z"/> <path d="M309.41,92.82c0.04-0.25,1.15-3.25-0.62-2.37C308.79,92.88,308.63,92.82,309.41,92.82z"/> <path d="M303.34,132.14c0.1-0.41,0-0.82,0.1-1.54c-1.13,0.82-1.54,1.34-0.82,2.47C302.92,132.65,303.23,132.44,303.34,132.14z"/> <path d="M307.04,106.41c-0.21-0.1-0.41-0.31-0.51-0.21c-0.51,0.31-0.93,0.72-0.31,1.65C306.53,107.23,306.84,106.82,307.04,106.41z
		"/> <path d="M306.42,111.55c-0.87,0-1.84-0.08-2.65,0.61C304.74,112.11,305.66,112.31,306.42,111.55z"/> <path d="M308.28,98.58c-0.19,0-0.31-0.16-0.31,1.13C308.38,99.71,308.28,99.92,308.28,98.58z"/> <path d="M305.81,128.74c-0.69,0.35-0.49,0.33-0.21,0.62c0.21-0.21,0.31-0.31,0.51-0.51C306.01,128.84,305.91,128.64,305.81,128.74z
		"/> <path d="M290.68,107.64c-0.39,0.39-0.1,0.39-0.1,0.62C290.95,107.88,290.68,107.84,290.68,107.64z"/> <path d="M303.64,112.27c0.16-0.16,0.25-0.1-0.09-0.1C303.68,112.3,303.43,112.51,303.64,112.27z"/> <path d="M246.01,572.34c-3.65-0.7-7.39-1.12-10.5,0.82c-0.41,0.21-0.82,0.72-0.41,1.65c3.5,1.03,7.2,0.82,10.91,0.51
		C247.79,575.33,248.67,573.01,246.01,572.34z"/> <path d="M241.99,577.28c-1.65-1.12-3.6-1.03-5.97,0.21C244.03,581.85,242.61,577.7,241.99,577.28z"/> <path d="M302.23,5.54c0.1,0,0.07,0.06,0.07-0.1c0-0.25,0.03-0.28-0.1,0l0.06,0.06C302.26,5.51,302.25,5.53,302.23,5.54z"/> </g> </svg> 