<?xml version="1.0" encoding="utf-8"?> <!-- Generator: Adobe Illustrator 23.0.1, SVG Export Plug-In . SVG Version: 6.00 Build 0)  --> <svg version="1.2" baseProfile="tiny" id="Layer_1" xmlns="http://www.w3.org/2000/svg" xmlns:xlink="http://www.w3.org/1999/xlink" x="0px" y="0px" viewBox="0 0 900 600" xml:space="preserve"> <g> <path d="M614.87,7.46l-0.1-0.1C614.85,7.51,614.79,7.46,614.87,7.46z"/> <path d="M869.9,65.74c-1.61-1.53-5.86-4.69-6.79-9.12c-0.7-3.29-5.23-3.21-7.5-1.82c-2.16,1.31-2.2,0.95-15,8.31
		c-2.48,1.43-1.08,2.57-4.46,3.85c-4.95,1.87-8.69,1.99-12.26,4.36c-4.71,3.11-10.16,3.02-18.85,3.95
		c-24.88,2.66-46.51-1.49-60.31,7.6c-0.69,0.45-37.23,12.56-41.56,13.28c-1.89,0.32-7.68,0.84-9.63,0
		c-7.16-3.1-23.16-4.57-31.12-1.11c-1.66,0.72-6.06,1.13-8.31,2.03c-6.53,2.6-10.67,0.5-17.23-2.13c-4.2-1.68-9.38-2.89-9.63-8.62
		c-0.12-2.71-1.73-9.31,1.42-16.12c0.91-1.97,0.99-6.26,2.64-9.73c0.71,0.2,1.32,0.3,1.82,0.41c1.62-1.32,2.74-2.84,3.24-4.87
		c0.32-1.94,4.73-3.65,1.42-11.45c-0.2-0.61-0.91-1.01-1.42-1.52c-0.91,0.51-1.72,0.81-2.64,1.32c-0.51-6.68,0.38-7.54-0.2-15.91
		c-0.66-9.44-5.02-12.6-9.83-16.72c2.25-11.25-11.86-10.65-15.1-8.11c-0.2,0.1-0.3,0.41-0.51,0.51c-1.62,1.01-2.43,2.64-3.55,4.26
		c-4.39-1.28-14.44,3.51-17.33,12.67c-0.4,1.27-3.24,15.05-2.43,20.98c0.81,5.89-4.55,5.85-1.22,13.08
		c0.43,0.94,2.54,6.45,3.24,8.31c1.28,3.37,2.05,1.05,3.24,4.46c3.57,10.22,4.61,9.31,4.97,11.96c0.43,3.24,0.51,6.49,0,9.53
		c-1.62,1.72-3.56,2.61-5.47,3.55c-7.79,3.79-7.44,4.58-10.24,3.65c-31.34-10.45-36.76,0.65-48.25-1.22
		c-7.41,0-24.13-7.89-36.49-10.85c-7.03-1.68-8.87-3.87-11.96-4.97c-21.56-7.63-20.93-0.95-65.17-6.18
		c-9.39-1.11-6.35-3.06-17.43-6.18c-2.38-0.67-5.32-1.32-6.08-2.64c-1.26-2.16-2.67-2.85-18.04-11.05
		c-1.96-1.05-6.12-0.66-6.59,1.52c-1.07,4.99-5.33,8.02-7.3,10.03c-4.92,5.04,0.13,8.77,1.01,16.42c0.22,1.92,2.53,3.56,4.56,3.75
		c12.25,1.12,5.67-12.19,193.4,470.41c0.61,1.56,14.89,38.71,16.01,39.83c1.73,1.94,6.08,4.87,8.41,3.65
		c3.9-2.05,13.15,2.1,28.89-1.22c2.83,1.03,0.82,1.36,10.24,2.03c8.12,0.58-2.96-1.72,24.83-1.72c1.32,0,2.43-0.41,3.55-1.93
		c-0.66-2.96-7.2,15.32,107.85-272.56c82.57-206.61,79.7-204.19,100.45-237.39c8.73,0,7.39-3.1,8.72-7.5
		C871.78,72.53,874.03,69.68,869.9,65.74z M635.65,44.96c0.1-0.1,0.2,0.1,0.3,0.1C634.89,45.43,635.27,45.35,635.65,44.96z
		 M636.87,47.09c0.61,1.42,0.51,2.74,0.2,3.95c-0.18,0.45-0.74,0.66-1.15,0.98c0.32-1.15-1-1.65-1.29-2.6
		C635.04,48.4,635.55,47.49,636.87,47.09z M635.25,54.69c0-0.88-0.27-1.75,0.53-2.36C635.92,53.17,635.72,53.93,635.25,54.69
		c0,1.62-1.22,2.84-1.93,3.95c-1.22,0.2-1.42-0.51-1.22-1.32C632.46,55.89,633.56,55.75,635.25,54.69z M631.7,36.14
		c-0.29-0.3-0.24-0.22,0.1-0.91C632.1,35.52,632.04,35.45,631.7,36.14z M630.91,31.36c0.07-0.36,0.09-0.76,0.18-1.4
		C631.76,30.82,631.7,31.22,630.91,31.36z M611.73,4.82c2.32-0.95,4.67-0.05,6.99,0.41c0.92,0.18,1.82,0.71,2.13,1.93
		c-0.41,0.2-0.81,0.41-1.32,0.71c0.1,0.1,0.2,0.3,0.3,0.3c1.22-0.1,2.33-0.1,2.33,1.82c-5.93-2.54-6.09,0.38-7.35-2.52
		c-1.72,0.45-1.62,1.35-0.66-1.53c-0.41,0.1-1.01,0.1-1.22,0.61c-2.52,2.1,0.09,1.82-5.07,1.42C608.79,6.14,610.3,5.41,611.73,4.82z
		 M620.4,15.74c0.16-0.9,0.15-0.78,0.15-0.78C620.93,15.34,620.7,15.48,620.4,15.74z M612.86,13.54c1.41-0.41,1.41-1.82,2.02-2.94
		c0.81,0.1,1.52,0.3,2.33,0.41c0.4,2.69-0.48,4.89-2.05,6.79c-0.43-3.55,0.27-3.83-2.01,0.71
		C612.55,16.62,613.03,15.03,612.86,13.54z M607.78,14.04c0.4,0,0.3-0.2,0.3,1.11l-0.2,0.1C607.49,14.87,607.78,14.76,607.78,14.04z
		 M602.41,13.54c0.12-1.11-0.41-2.64,1.52-3.04c2.13,4.25,0.59,3.59,2.53-0.3c0.41,0.3,0.91,0.61,0.91,0.81
		c-0.1,1.32-0.71,2.23-2.13,2.43c0,2.43,1.01,4.87,0.51,7.8C603.42,19.11,602.06,16.69,602.41,13.54z M593.38,14.55
		c0.91,1.72,0.91,1.72,1.11,4.56C593.08,17.39,592.07,16.27,593.38,14.55z M585.58,54.99c-1.42-1.42-1.42-2.84-1.01-4.76
		C586.9,51.65,585.78,53.27,585.58,54.99z M585.58,48c0.53,0,0.28-0.02,0.51,0.2C585.75,48.54,585.75,48.17,585.58,48z M586.8,36.85
		c0.91,0.3,1.52,0.91,1.82,2.23C586.69,38.47,586.69,38.47,586.8,36.85z M588.01,60.97c0.49,0,0.23-0.83,1.32,2.43
		C588.1,63.41,588.01,62.41,588.01,60.97z M591.86,67.06c-1.86-9.03-3.52-7.94-3.85-13.18c-0.21-3.34-1.01-6.69-0.2-10.03
		c-0.51-1.82,0.3-3.14,1.72-4.16c1.21-1.21,0.73-0.95,0.41-4.16c-2.06,0-0.98,0.99-2.23-2.94c-0.29-0.92-0.71-1.82-1.01-2.74
		c0.71-0.61,1.11,0.3,1.82,0.3c-0.57-2.58-1.38-3.22,0.09-3.99c-0.19-0.55-0.97-2.83-0.4-3.1c1.51-0.73,0.91-2.13,1.32-3.45
		c1.72,0.51,2.23,2.74,4.16,3.14c0.1-1.42-1.72-2.03-1.22-3.34c-0.81-0.2-0.61-0.91-0.81-1.42c0.71,0.2,0.81,0.81,1.01,1.52
		c0.91,0.71,1.82,1.42,2.84,2.13c1.6-1.6,0.84-1.63-0.71-7.5c0.41-0.41,0.91-0.91,1.42-1.52c0.3,0.3,0.71,0.51,0.81,0.81
		c0.95,3.82,0.6,6.87,2.94,6.7c-0.09,1,0.52,1.51,1.93,2.42c-0.2-0.48-1.1-2.61-1.83-2.42c0,0.45-0.11-2.29-0.5-3.14
		c-0.79-1.73-1.11-3.45-1.32-5.47c0.51-0.1,0.91-0.2,1.52-0.41c2,5.34-2.12,0.69,4.16,11.45c6.85,0.76,4.94,1.42,5.27-3.14
		c0.11-1.52,0.4-2.94,0.51-4.46c0.31-4.28-1.64-4.85,3.14-4.05c0,3.05,0.28,2.11-1.22,4.36c-0.2-0.2-0.41-0.51-0.61-0.81
		c-0.61,0.1-1.11,4.26-0.81,7.7c3.77,3.77,7.7-8.47,7.7-4.33c-0.77,0.22-0.8,0.85-0.63,1.5c0.2,0.06,0.39,0.08,0.58,0.08
		c0.58,1.23,0.9,0.69,1.49-0.72c0.89-0.21,0.79-1.01,0.79-1.61c-0.76,1.84-0.67,1.37-2.13,2.13c0-0.45,0-0.92,0-1.36
		c0.7-0.23,0.71-0.91,0.71-1.58c-0.21,0-0.42,0-0.6,0c-0.01-1.57,0.45-3.06,1-4.46c1.89,0,0.44,2.13-0.41,4.87
		c1.82-0.74,1.52-1.12,1.52,0.71c0.3-0.41,0.81-0.71,1.11-1.22c0.5-0.82,0.81-1.72,1.22-2.53c1.02,0.09,1.2,0.7,1.29,1.35
		c-2.62,2.72-2.82,3.25-3.42,5.85c2.08-1.66,1.43-2.56,2.59-2.81c-0.86,3.25-1.25,2.01,1.56,3.62c0.1-0.61-0.1-1.32,0.81-1.52
		c-0.3-0.91-1-1.62-0.61-2.64c0.38-1-0.73-1.51-0.82-2.34c2.26-0.33,3.37,1.45,4.57,2.85c0.71,0.71,1.01,1.62,0.2,2.64
		c-0.3-0.3-0.61-0.51-0.81-0.71c-0.96-0.96-0.5-1.32-2.53,0.3c0,0.61-0.2,1.22-0.81,1.52c0.1,0.3,0.2,0.71,0.41,1.22
		c0.71-0.71,1.32-1.22,1.82-1.72c1.32,0.91-0.1,2.23,0.81,3.14c1.77,2.07,0.79,5.46,2.53-2.84c2.81,3.65-1.69,6.4-0.61,9.93
		c0.36,0,0.8,0,1.18,0c-1.91,5.29-1.87,3.47,0.24,6.28c0.01,0.03,0.23,5.88,0.91,8.62c1.28,5.12-0.03,6-2.43,14.8
		c-2.62,9.59-2.68,11.97-6.69,17.23c-2.54,3.34-11.35,7.3-17.33,4.66c-2.53-1.12-4.99-2.7-7.4-4.26
		C595.48,77.16,592.54,70.31,591.86,67.06z M597.14,89.25c2.95-5.35-0.11-7.8,1.01-7.8c0.14,0,5.05,2.17,6.69,3.14
		c5.27,3.13,7.81,1.5,11.15-0.1c7-3.36,2.07-0.56,7.8-4.66c0.41,2.33,1.2,4.36,1.42,6.59c0.54,5.58,2.55,8.31,3.75,10.24
		c0.61-0.51,1.22-0.91,1.72-1.32c1.01,0,1.95,0.5,2.43,1.42c1.48,2.8,4.74,9.64,3.95,12.77c-11.6,5.65-13.58,3.53-13.58,5.27
		c0,0.67,1.6,0.82,2.23,0.81c4.8-0.08,8.15-2.08,11.35-3.24c0.71,1.62,0.1,3.14,0.3,5.07c0.2,0.1,0.71,0.41,1.22,0.71
		c0.26,7.61-1.2,14.92-7.7,20.68c-3.52,3.12-11.88,9.17-17.33,8.92c-1.01-2.46-0.27-3.43,6.49-14.7c-0.81-0.71-1.32-0.21-1.72,0.2
		c-5.34,5.52-3.73,5.69-5.47,3.95c-2.48-2.76-3.55-4.22-5.07-3.04c0.52,1.36,4.08,3.46,4.87,6.39c-1.58,3.95-1.31,2.3-1.72,6.89
		c-0.3,0.2-0.51,0.41-0.71,0.41c-6.54-0.65-23.4-0.15-24.23-21.89c-0.15-3.85-0.1-7.8,0.71-11.76c1.83-1.3,2.17-2.02,2.94-1.62
		c11.54,5.97,16.68,2.14,10.74,1.22c-3.66-0.57-6.89-2.03-10.54-3.95C597.08,88.11,591.94,98.67,597.14,89.25z M590.75,96.04
		c-0.34,8.45-5.05,7.78-6.59,21.79c-0.92,8.37-1.1,14.5,2.53,21.18c6.72,12.35,30.5,14.2,37.2,7.5c1.14-0.98,29.81-8.71,13.38-48.15
		c2.13,0.3,3.65,1.11,5.27,1.72c0.61,0.3,1.03,1.01,1.32,1.72c2.53,6.29,2.38,4.86-0.81,5.57c-1.41,0.32-0.61,1.93,0.3,1.93
		c0.81-0.1,1.62-0.51,2.64-0.91c6.16,13.74,5.48,24.66,8.11,28.48c0.68,1.2,0.84,4.97,4.05,12.06c1.56,3.45,1.82,4.44,1.82,12.77
		c0,6.56-2,4.49-1.62,9.53c0.33,4.32-0.65,5.71-4.56,16.01c-107.81-1.63-70.98,11.01-86.66-13.28c-0.4-0.61-1.12-1.22-1.22-1.82
		c-0.22-1.42-1.42-1.93-2.33-2.74c-0.75-9.1-1.81-20.74,1.22-26.56c0.63-1.21,0.69-4.3,0.91-4.76c1.76-3.63,2.86-7.65,5.07-11.15
		c1.53-2.42,3.62-10.07,6.08-11.86c2.11-1.85,2.8-6.41,7.4-12.87C586.93,98.49,585.17,97.16,590.75,96.04z M650.55,220.51
		c4.78,20.12,7.82,21.5,7.2,24.43c-6.18,3.09-11.76,5.63-15.71,7.4c-3.47,2.31,3.06-8.43,0.3-9.53c-1.42,3.65-2.94,7.3-4.36,10.95
		c-4.87,1.22-9.43,2.53-14.39,2.53c-36.17,0-25.31-2.99-29.8-7.8c-1.46,2.4,1.89,6.12-1.72,4.97c-21.87-6.98-18.28-5.55-22.7-8.31
		c0.24-2.96,5.47-16.61,7.1-26.35c1.92-11.5-1.36-16.06-2.64-25.95c0.68-1.07-0.08-1.18,16.62-1.93c3.23-0.14,30.53-1.32,33.75-1.32
		c3.85,2.33,7.5,4.66,11.05,6.99c2.47-1.06-3.97-5.4-6.28-6.79c4.26-0.71,20.17-0.81,24.12,0
		C653.09,196.31,647.31,206.88,650.55,220.51z M662.72,268.36c-4.66,0.2-9.12,1.01-13.58,2.23c0.33,1-0.12,0.93,11.15-1.12
		c3.36-0.42,2.94,0.14,3.24,3.65c0.46,5.28,0.52,11.37,1.22,12.57c1.46,2.52-0.7,25.95-0.71,26.05c-2.64-0.81-4.78-1.37-6.99-2.03
		c-16.3-4.83-34.35,4.2-42.57,0.71c-1.11-2.43,0.71-4.87-0.2-7.91c-0.41,3.04-0.71,5.47-1.01,8.21c-1.72,0-3.45-1.01-4.97,0.3
		c-2.23-0.41-4.74-0.13-6.69-1.72c-5.34-4.38-34.97-0.13-41.86,0.61c-1.57-7.83,2.24-36.63,1.93-37.5
		c-0.89-2.47,3.18-14.21,6.59-24.43c1.11-0.3,1.52,0.41,2.13,0.81c4.26,2.8,3.33,1.38,11.76,4.36c27.96,9.89,37.24,5.81,50.48,3.65
		c14.07-2.3,13.91-5.45,25.85-9.63c1.47,2.4,3.16,12.97,3.45,16.42c-10.44,2.27-11.44,2.27-13.48,3.95
		C659.64,266.61,662.72,261.93,662.72,268.36z M648.83,443.71c5.68,24.97,4.42,34.3-2.74,72.47c-3.86,20.62-7.28,26.98-3.75,29.8
		c0,6.09-0.63,7.5,2.74,11.66c-0.81,0.3-1.22-0.3-1.52-0.71c-1.42-2.13-3.33-3.96-4.56-6.28c-2.59-4.86-8.69-3.22-10.14-4.66
		c0-13.75,4.95-5.6-1.72-48.96c0-2.42-0.78,0.85-2.64-8.41c-1.02-5.12-2.99-18.53-1.52-23.01c0.79-2.4-0.22-5.4,0.81-16.83
		c2.14-23.86-2.51-11.15-4.66-36.59c-1.06-12.53,1.23-10.33,1.32-14.7c0.62-31.12-5.19-33.3-5.37-55.65c0-0.41,0.09-0.81,0-1.12
		c-0.99-3.22-0.2-6.39,0-9.63c0.75-12.43,0.55-11.9,1.22-13.68c2.09-5.59-3.18-4.27,15.2-5.47c7.62,0-2.28-0.15,17.84-0.81
		c4.64-0.15,7.03,1.71,10.44,2.53c3.77,0.91,4.36-1.13,3.55,4.97c-6.83,50.99-13.97,74.99-13.99,75.11
		c-1.26,8.82-0.97,14.38-1.72,24.12C646.46,432.74,646.3,432.62,648.83,443.71z M612.04,347.42c0.89,6.89-3.04,18.14-2.23,43.99
		c0.46,14.59,0.85,6.7,0.51,20.98c-0.35,14.76-4.66,16.17-3.45,25.04c1.49,10.86,2.62,26.23,3.55,32.64
		c0.81,5.56,0.02,6.73-1.22,19.26c-3.22,32.51-0.77,34.92-2.43,36.59c-2.22,1.72-1.25,8.6-0.1,11.05c0.9,1.93,0.71,3.85,0.61,6.08
		c-6.23,0.85-6.13,0.97-10.95,2.84c-2.12-4.96-8.14-35.36-8.92-38.72c-5.46-23.38-9.16-12.7-10.85-46.73
		c-0.91-18.43,5.2-22.43,3.65-28.08c-0.62-2.26,0.82-1.54,1.11-8.41c0.54-12.52-5.01-25.7-6.28-31.32
		c-2.01-8.81-0.07-4.46-1.72-10.24c-5.48-19.16-13.38-52.07-13.38-70.14c4.4,2.75-0.56-0.65,24.83-1.72
		c8.06-0.34,16.74,1.49,24.73,2.53c2,4,4.14,15.94,2.74,25.04C611.77,341.14,611.63,344.28,612.04,347.42z M612.64,313.46
		c1.42,1.72,1.42,1.72,0.81,4.66C612.54,316.3,612.34,315.08,612.64,313.46z M364.72,77.7c-0.64-4.49-0.49-5.52-1.42-7.2
		c-1.19-2.15,0.64-3.18,7.7-11.56c2.75-3.27,2.83,0.76,6.59-1.82c2.52,0.8,11.35,4.41,12.47,6.69c1.57,3.2,4.23,3.54,14.9,8.62
		c1,0.48,2.42,1.84,3.45,2.03c32.42,6.04,51.62,1.39,69.84,6.28c1.14,0.31,16.57,5.66,20.47,7.8c2.35,1.29,14.87,4.95,24.02,8.11
		c9.12,3.15,11.17,1.17,38.72-2.33c3.95-0.5,1.31,1.69,21.49,5.47c-17.45,28.67-12.87,28.51-15.51,25.75
		c-0.09-0.1-3.68-4.05-3.75-4.16c-4.14-6.43-12.78-9.68-18.95-15c-1.24-0.82-2.06,0.49-1.42,1.32c2.33,3.01,15.84,10.08,19.06,14.9
		c1.52,2.03,3.04,4.16,4.76,6.49c-1.01,2.64-2.13,5.47-3.34,8.62c-3.93-2.95-5.25-4.84-11.35-8.11c-6.71-3.59-8.69-5.39-13.28-5.57
		c-7.65-0.31-14.51-4.29-23.31-6.28c-2.93-0.67-5.46-3.79-21.29-8.21c-9.71-2.71-10.01-4.45-15.2-5.07
		c-15.52-1.85-22.74-1.06-37.4-7.91c-13.42-6.26-16.66-9.2-23.11-10.34c-2.15-0.24-9.71-3.54-12.47-4.97c1.32-0.1,2.53-0.1,3.75-0.2
		c0.1-1.11-0.51-1.32-1.12-1.42c-7.15-1.16-7.56-1.18-7.91,0.2c-0.21,0.64-3.17,0.53-3.85,0.91c-5.14,2.9-10.06-0.18-13.99,2.13
		c-1.01-1.41-4.65-7.88-4.46-11.25c0-1.32-0.71-2.74-1.01-4.05c1.52,0.51,1.52,0.41,1.82,2.33c0,0.61,0.31,1.03,0.81,0.91
		c3.15-0.71-0.65-7.47-5.27-5.47c-1.62,0.7-3.55,0.7-5.37,1.11c-3.04,0.69-4.93,3.46-4.26,6.39C366.08,75.28,368.05,78,364.72,77.7z
		 M366.44,81.55c-0.43-1.11,0-1.62,1.93-2.64c0.91,1.01,1.22,2.33,1.52,3.65C367.55,82.97,366.92,82.78,366.44,81.55z M393.1,118.55
		c-0.93-1.09-0.24,0.55-5.07-9.02c-10.73-21.26-9.63-12.57-19.36-35.27c-0.8-2.39-0.89-4.54,1.93-5.37
		c2.15-1.08,5.37-0.46,5.68,2.64c0.4,3.97,3.11,6.87,5.07,12.77C392.41,117.68,393.33,113.6,393.1,118.55z M576.76,590.48
		c-0.05-0.1-183.51-467.86-182.55-469.3C395.19,121.26,580.38,590.48,576.76,590.48z M383.47,84.59c1.01,0,1.52-0.1,2.74,0.1
		c10.65,3.19,11.58-3.5,18.04-0.71c18.64,8.06,14.05,4,22.1,7.8c35.07,16.57,30.66,13.85,51.8,16.01c5.77,0.59,4.64,1.42,14.6,4.46
		c32.12,9.8,4.12,1.59,34.46,12.16c13.89,4.84,15.42,1.18,22.5,5.98c1.39,0.94,12.28,7.92,13.38,10.95c0,2.22-2.92,2.63-2.13,20.37
		c0.09,2.06,0.67,7.87,2.13,9.33c1.22,1.72,0.9,4.07,2.74,5.57c1.61,1.33,1.73,3.54,2.64,5.27c2.84,5.43,1.91,9.25,2.43,10.03
		c1.62,1.93,1.5,4.47,2.03,6.69c1.44,6.02,2.3,6.87,1.93,10.64c-1.42,14.4-1.19,13.53-2.74,17.74c-4.29,11.65-5.28,19.48-9.53,30.61
		c-3.39,8.88-3.24,12.86-4.36,28.28c-0.82,11.34-4.29,38.01,8.72,82.2c2.98,10.12,4.58,12.04,4.16,14.6
		c-0.58,1.93,3.2,13.82,3.55,14.8c3.32,9.44,4.16,25.82,3.95,26.46c-0.83,2.53-0.41,5.17-0.51,7.8c-0.38,10.2-5.54,13.75-3.95,30.21
		c0.63,6.52-1.15,6.21,3.34,24.33c0.66,2.66,2.49,9.83,4.16,11.96c3.34,4.28,8.57,38.28,12.57,50.68c-0.1,0.51-0.51,1.11-0.51,1.72
		c-0.2,2.03-0.6,3.86-2.84,4.76c-0.51,0.2-0.81,1.11-1.62,2.23c0.1-2.03,0.3-3.34,1.72-4.36c0.81-0.51,2.45-1.02,1.52-2.33
		c-0.8-1.12-1.82,0.2-2.64,0.61c-1.72,0.71-2.71,1.83-3.24,3.75c-1.86,6.66-5.37,10.18-5.88,23.72c-0.1,2.74-0.1,2.74-1.93,5.07
		C577.5,582.8,387.04,96.21,383.47,84.59z M587.51,595.65c1.08-3.71,1.41-3.6,13.58,0.1C598.55,596.56,591.66,596.46,587.51,595.65z
		 M605.65,596.56c-0.92-1.84-0.46-2.71-11.76-6.08c-7.38-2.2-8.66,0.75-9.43,4.56c-3.83,1.39-4.64-3.35-5.37-6.99
		c2.24-3.73,3.73-5.28,3.55-9.12c-0.56-11.83,3.71-17.1,5.37-19.87c1.34-0.02,18.59-0.36,21.08-0.61c2.01,0,1.81-2.68,0.3-3.14
		c-1.67-0.52-8.14-0.38-13.28-0.81c0-4.46,1.02-6.06,4.66-7.5c2.03-0.8,4.05-1.32,6.49-1.01c11.38,14.72,8.92,10.51,5.57,35.17
		C611.06,594.36,619.26,595.47,605.65,596.56z M615.48,583.99c-0.41-1.01-0.41-1.01,0.2-2.23
		C615.68,582.47,615.58,583.18,615.48,583.99z M617.71,563.42c-0.84-9.05-1-4.75-2.03-9.33c-2.33-10.36-4.83-7.22-5.27-11.66
		c-1.08-23.75-2.3-8.26-0.2-30.81c1.51-16.27,1.68-20.22,1.66-21.02c0.02-0.03,0.04-0.08,0.07-0.16c1.06-2.38,2.36-10.8,1.93-17.03
		c-2.76-39.16-6.77-34.36-2.43-45.81c3.1-8.2,1.75-12.06,1.42-26.96c-0.08-3.57-0.69,0.38-1.11-8.41
		c-0.85-17.64-0.79-12.03,2.13-31.02c2.77,9.94,4.76,28.89,3.75,35.98c-1.94,13.59-0.05,27.62,2.94,34.67
		c2.24,5.28,0.62,17.42,0.1,25.95c-2.59,42.42,11.8,46.38,5.27,88.79c-0.54,0.81-4.06,0.14-5.88,5.88
		c-2.73,8.62-0.15,15.83-2.23,16.72c0.1,2.94-0.2,5.78-1.11,9.12c-0.82-2.47,0.09-6.89,1.11-9.12
		C617.91,567.27,617.88,565.24,617.71,563.42z M650.35,594.53c-2.43,0.81-4.76,0.3-7.2,0.71c-2.3-4.18-11.83-4.13-16.42-2.84
		c-1.02,0.29-1.93,0.71-1.82,2.13c2.13,0.91,4.16-0.45,6.18-0.41c5.48,0.13,10.65,1.36,2.33,1.93c-3.86,0.26-13.22,3.09-16.72-0.81
		c0.79-4.75-0.71-1.78,0.41-6.79c2.37-8.31,0.48-8.47,2.03-10.95c0.51-0.81,0.93-1.82,1.01-2.74c0.38-4.05,1.52-8.11,1.11-12.26
		c0-0.71,0.2-1.42,0.3-2.13c2.53,0.91,2.44,0.76,5.17,0.41c4.18-0.54,9.89-0.35,11.86-0.71c1.11-0.37,4.09-3.2-12.37-2.94
		c-1.42,0.02-2.94,0.51-4.56,0.81c-0.7-2.81,0.4-7.15,3.45-7.8c2.33-0.5,4.76-1.32,7.3-1.01c1.41,0.28,4.43,1.11,4.66,2.53
		c0.41,1.82,1.82,3.05,2.53,4.56c1.3,2.74,3.24,4.66,6.59,4.16c1.46,3.12-0.7,7.23,1.62,14.9c1.12,3.07,0.07,5.42,2.33,8.62
		c0.15,0.21,0.29,0.42,0.41,0.63c-0.84,2.32-0.78,2.43,0.18,0.32C652.53,587.99,651.69,590.5,650.35,594.53z M651.86,581.04
		c-0.91-5.12-0.27-4.93-1.41-7.59c-2.99-6.97,2.13-15.91-5.57-19.87c0-11.01-0.4-16.26,1.42-21.89c3.96-12.26,5.11-32.77,6.08-40.54
		c0.83-4.57,2.8-5.6,3.04-12.67c0.64-18.44-2.82-24.22-2.33-27.87c0.18-1.34-1.25-6.34-1.52-7.2c-2.36-7.43-1.72-13.68-1.11-27.47
		c0.09-2.09-0.21-7.91,0.51-16.83c0.05-0.58,15.44-48.25,17.54-96.29c1.11-25.57,0.41-27.56-1.32-30.71
		c-1.56-2.83-2.73-21.72-6.18-29.19c-5.43-11.75-8.72-24.37-8.72-35.37c0-5.12,0.96-4.49,2.13-10.95
		c3.09-17.05,8.08-22.3,8.21-32.03c0.08-5.76-0.58-9.14,2.33-15.2c4.35-9.06,11.37-13.5,18.65-18.24c6.94-4.52,9.94-0.89,24.33-6.59
		c4.56-1.14,3.28-0.03,12.26-4.36c8.19-3.95,10.98-4.08,23.01-7.7c6.01-1.81,6.47-3.26,12.77-3.75c15.43-1.2,20.12-1.4,27.67-5.47
		c4.73-2.56,2.6-0.51,22.5-10.24c6.28-3.07,7.21-1.96,13.48-4.26c9.87-3.61,11.78-5.84,15.1-3.95c3.57,2.03,9.88,1.94,12.26,0.91
		c0.5-0.22,1.22,0,2.03,0C847.31,90.4,658.56,563.43,651.86,581.04z M854.29,93.71l-16.01,31.42
		c-19.26,46.37-167.59,420.76-184.01,457.74c1.95-13.05,145.73-366.67,153.7-386.69c0.05-0.12,32.23-81.49,32.23-81.49
		c7.25-16.75,8.58-24.47,14.29-37.3c0.63-1.41,1.42-2.64,1.32-4.26c0-5.86,11.06-5.26,7.91,2.33
		C861.07,81.85,858.24,88.04,854.29,93.71z M866.25,81.85c-0.69,2.07-2.02,2.43-3.75,1.42c0.51-1.22,0.91-2.33,1.42-3.34
		C865.94,80.54,866.45,81.04,866.25,81.85z M869.49,71.31c-1.2,2.07-0.79,4.08-1.72,7.8c-2.96-1.27-1.7-0.3-1.32-2.94
		c1.05-4.21,0.8-7.36-3.45-8.31c-1.63-0.37-3.04-1.22-4.76-0.81c-0.2,0.1-0.61,0-0.71-0.1c-1.93-1.72-3.44-0.19-4.97,0.71
		c-1.21,0.72-1.71,2.02-1.32,3.55c0.1,0.4,0.51,0.71,1.11,1.42c1.18-2.76-0.57-2.81,3.14-4.46c-3.8,6.34-0.64,5.02-2.13,8.11
		c-5.01,10.42-2.77,7.52-6.99,7.1c-1.43-0.14-6.94,0.8-10.95-1.11c-1.11-0.53-2.43-0.41-3.65-0.61c-0.96-1.61,0.15-1.72-8.72-0.3
		c-0.3,0-0.51,0.51-0.71,0.81c1.32,0.91,2.74,0,4.26,0.51c-1.98,1.19-10.64,4.52-14.49,5.27c-9.8,1.92-23.41,15.33-49.06,16.83
		c-1.91,0.11-11.95,0.82-14.39,2.03c-8.74,4.32-16.82,4.86-28.38,10.54c-3.14,1.54-10.05,3.28-14.9,4.97
		c-15.02,5.23-11.91,0.8-21.08,5.78c-9.88,5.35-18.51,11.03-22.2,22.1c-4.37-3.55-0.94-4.25-4.46-8.01
		c0.61-0.91,1.11-1.72,1.82-2.94c-0.81,0-1.11-0.1-1.42,0c-1.7,0-0.49,2.3-2.74-6.28c-0.65-2.5-4.65-21.39-4.66-21.49
		c-0.22-1.31-0.81-2.33-2.64-2.13c0.26-2.82-3.3-9.22-0.91-9.22c6.24,0.4,6.96-1.13,13.48-2.13c7.08-1.09,6.5-3.31,10.34-2.84
		c38.65,4.77,23.91,6.88,58.48-4.16c7.97-2.54,7.84-4.06,9.83-4.36c6.07-0.91,12.73-7.02,29.9-7.3c9.76-0.16,49.15-0.1,57.98-5.68
		c7.49-4.73,13.35-4.26,15.61-9.43c0.68-1.13,7.92-4.74,12.06-6.08c2.03,1.01,2.03,1.01,5.47,0.51
		C866.41,66.54,870.9,68.88,869.49,71.31z"/> <path d="M588.62,26.21l0.1-0.1C588.56,26.19,588.62,26.14,588.62,26.21z"/> <path d="M187.74,198.82c-0.61-6.9-0.42-12.3-0.71-19.36c-0.62-14.93-10.11-46-9.83-53.52c0.46-3.23-2.81-11.02-4.66-13.99
		c-4.89-7.86-11.12-8.1-17.84-10.24c-12.56-4-0.47-0.55-21.29-8.92c-2.82-1.14-9.24-2.4-9.33-8.31c-0.02-1.48-2.02-9.23,1.42-16.52
		c0.85-1.8,0.83-6.73,2.64-9.53c0.61,0.2,1.12,0.41,1.52,0.51c1.62-1.32,2.94-2.74,3.34-4.87c0.28-0.97,5.87-7.2,0.2-12.87
		c-1.22-0.41-1.52,1.42-2.84,0.71c0-18.66,1.74-22.5-9.93-32.23c2.24-11.18-11.95-11.16-15.61-7.5c-1.22,1.42-2.53,2.74-3.85,4.26
		c-4.53-0.85-14.16,3.65-17.13,12.57c-0.65,1.94-2.98,15.58-2.43,21.08c0.64,6.48-4.88,6.41-1.11,13.48
		c0.67,1.26,2.43,6.25,2.94,7.6c1.44,3.79,2.29,1.5,3.34,4.76c1.15,3.54,2.33,7.1,4.46,10.24c1.29,2.15,1.12,8.72,0.61,11.35
		c-3.01,3.01-14.18,7.24-18.04,10.03c-1.53,1.11-3.24,0.72-4.87,1.42c-10.42,4.47-19.34,3.73-23.62,12.06
		c-4.97,8.52-2.45,0.37-12.57,52.81c-2.34,12.12-3,11.33-2.84,16.83c0.33,11.42-2.8,16.42-1.72,32.03
		c0.89,12.88-0.45,9.2,0.81,12.57c9.55,21.49,8.44,19.3,9.93,21.39c23.56,29.45,16.35,5.84,14.6,48.04
		c-1.25,30.17,5.59,62.62,13.48,83.62c0.95,3.33-0.63,1.69,0.71,6.49c2,7.18,5.11,16.96,5.47,19.87c0.13,1.06,2.06,16.4,1.72,17.43
		c-1.58,4.92,0.62,8.68-1.93,16.22c-3.54,10.47-3.05,19.94-2.03,31.83c1.25,14.51,6.11,20.59,5.57,28.48
		c-7.82,114.29-7.51,92.97,2.03,98.42c2.03,1.01,3.85,1.01,5.37-0.51c21.62,2.73,25.66-1.04,28.08,0.1c3.61,1.7,7.5,1.28,11.35,1.62
		c1.49,0.13,4.06-1.19,5.07-1.22c21.21-0.47,24.17,0.25,24.63-4.76c0.18-1.07-0.1-1.52-3.95-46.93c-3.64-42.93-3.06-22.59,0-54.63
		c0.51-5.31,2.53-6.14,3.04-11.56c1.72-18.38-2.59-24.8-2.13-31.52c0-4.55-5.08-8.85-2.84-32.54c0.36-3.82,0.41-12.28,0.41-16.12
		c0-5.87,5.09-13.37,11.15-47.23c11.42-63.86,5.26-80.88,4.36-88.08c4.25-2.83,15.71-15.63,18.35-21.49
		c10.22-22.7,7.6-16.08,7.6-22.2C188.86,201.66,188.94,212.45,187.74,198.82z M131.89,51.85c0-0.2-0.2-0.51-0.1-0.61
		C132.15,50.52,132.65,51.09,131.89,51.85z M133.01,45.36c0.59,0.3,0.61,0.15,0.61,3.34c0.1,0.97-0.56,1.48-1.34,1.89
		c-0.09-1.27-0.15-1.36-1.2-2.7C131.38,46.78,131.99,45.97,133.01,45.36z M128.65,55.6c0.29-1.12,0.3-1.11,2.84-2.23
		c0.2,1.72-1.32,2.53-1.52,3.75C128.75,57.02,128.44,56.41,128.65,55.6z M127.93,34.34c-0.03-0.5-0.09-1.02-0.09-1.74
		C128.67,33.42,128.14,33.91,127.93,34.34z M104.93,5.12c3.19-3.3,6.86-2.74,10.64-1.62c1.09,0.32,1.89,1.08,1.82,2.35
		c-0.88,0.16-1.74-0.08-2.23,0.79c0.68-0.29,1.45-0.5,2.23-0.78c0,0.24,1.42,0.21,1.11,2.2c-3.03-0.76-2.82-0.69-3.45-1.32
		c-2.18,0.89-2.52,0.9-3.67-0.61c-3.08,0.52-2.53,1.02,0.22-2.13c-1.75,0,0.32-1.01-4.16,2.43c-0.61-0.1-1.72-0.2-2.74-0.41
		C104.83,5.53,104.83,5.23,104.93,5.12z M115.15,14.81c1.7-0.72,1.44-1.05,1.44,0.82c-0.48,0.29-0.73,0.78-0.71,1.37
		c-0.48,0.04-0.68,0.36-0.78,0.79C114.14,17.79,114.47,18.22,115.15,14.81z M113.78,15.44c0.59-1.89,1.09-3.77,1.68-5.66
		c1.78,0.18,0.82,1.48-0.38,5.01C114.67,15.03,114.21,15.22,113.78,15.44z M104.22,12.42c0.4,0,0.3-0.22,0.3,1.22
		C104.12,13.64,104.22,13.86,104.22,12.42z M102.5,8.98c0.2-0.6,2.36-1,0.61,1.93C102.09,10.29,102.29,9.48,102.5,8.98z M98.85,10.5
		c0.55-3.99,3.77,0.38,3.24,9.02C99.25,16.68,98.38,13.85,98.85,10.5z M90.33,12.93c0.41,1.11,0.81,2.33,0.81,3.85
		c-1.52-1.01-1.72-1.22-1.82-2.33C89.22,13.84,89.42,13.23,90.33,12.93z M83.64,27.63c0,0.14,0.04,0.14-0.2-0.1
		C83.54,27.63,83.64,27.63,83.64,27.63z M81.11,48.61c2.43,1.22,0.81,2.94,1.62,5.07C80.81,51.55,80.81,51.55,81.11,48.61z
		 M82.53,46.78c0-0.26-0.05-0.23,0.2-0.1L82.53,46.78z M83.34,34.42c1.36,0.68,1.78,1.73,1.81,3.07
		C83.51,36.38,82.47,35.94,83.34,34.42z M84.76,60.77c-0.1-0.91-0.1-1.72-0.2-2.53c0.2,0.61,0.51,1.11,0.81,1.72
		C86.4,62.03,84.76,61.75,84.76,60.77z M91.95,73.85c-5.47-9.88-3.13-10.71-6.28-17.03c-1.83-3.67-1.98-12.28-1.62-15.41
		c0.82-7.08,3.23-0.94,2.43-8.11c-0.61,0.1-1.12,0.2-1.52,0.3c-1.07-3.73-1.22-3.67-1.22-5.68c1.66,0,1.27,0.66,0.3-3.55
		c0.71,0,1.11,0,1.82,0c-2.27-4.08-1.56-1.93,0-4.66c0.3-0.71-0.51-1.72,0.41-2.33c1.42,0.71,1.93,2.53,3.55,3.04
		c0.71-0.91-0.41-1.22-0.61-1.82c-0.3-0.61-0.61-1.32-1.11-2.23c1.11,0.2,1.22,1.01,1.72,1.42c0.51,0.51,1.11,1.01,1.62,1.52
		c3.03-0.83-1.5-6.3,0.1-7.91c3.17-3.17,0.18,5.59,5.53,7.54C94.42,8.13,93.55,10,95.81,8.87c2.46,2.46-0.22,2.33,1.62,6.39
		c3.53,6.67,1.86,5.02,5.47,5.47c3.87,0.48,2.28,0.91,2.64-3.75c0.25-3.27,0.78-1.43,0.3-8.11c1.01-1.11,2.03-0.1,3.14,0
		c0.2,0.61,0.51,1.32,0.71,1.93c1.32-0.1,0.81-1.52,1.93-2.03c0.51,0.1,1.32,0.2,2.13,0.3c0.29,2.77-0.76,4.96-2.13,6.94
		c0-1.14,0-2.27,0-3.5c-1.32,1.01-0.91,2.94-2.33,4.16c0-6.35,0.37-5.23-1.12-3.24c-0.2-0.3-0.51-0.51-1.01-1.01
		c-0.3,2.53-0.51,4.97-0.71,7.2c1.32,1.62,2.64,1.22,3.75,0.3c3.32-2.42,2.35-3.75,2.94-1.52c0.49-0.19,0.88-0.3,1.27-0.49
		c0.28,0.67,0.58,0.55,0.86-0.12c-0.25,0,0.02,0.02,0.61-0.69c0,0.26,0.79-0.17,0.81-1.5c0.6-0.31,0.71-0.89,0.71-1.56
		c-0.18,0-0.44,0-0.71,0c0-2.11,0.61-1.42,0.61-0.41c0.61-0.91,1.22-1.72,1.82-2.64c1.16,0.1,1.13,1.01,1.3,1.71
		c0.3-0.01,2.83-0.85,4.99,3.46c0.3,0.51,0,1.32,0,2.33c-0.81-0.81-1.32-1.42-1.82-1.93c-1.62,0.51-1.52,2.13-2.43,3.04
		c1.32,1.01,1.32-1.01,2.23-0.61c1.11,0.81-0.3,2.13,0.81,3.04c2.03,2.03,0.1,6,2.33-2.94c2.9,4.2-3.02,7.22-0.3,10.85
		c0.41-0.91,0.71-1.93,1.11-3.04c0.51,1.82,0.51,1.82-1.11,3.04c-0.6,3.57-1.47,3.95,1.6,4.73c-2.17,5.99,2.76,10.99-0.28,18.07
		c-5.35,12.47-1.18,24.74-19.87,28.89C103.09,82.67,94.01,77.56,91.95,73.85z M113.08,17c0.15-0.36,0.34-0.74,0.52-1.1
		C113.64,16.34,113.6,16.79,113.08,17z M94.69,80.84c-0.53-2.13-1.04-2.11,7.6,2.13c5.88,2.88,8.88-0.15,10.54-0.81
		c2.74-0.91,5.27-2.23,7.4-4.76c1.62,7,3.43,19.17,6.39,16.22c3.02-3.02,7.2,9.13,7.2,13.78c-10.04,3.77-0.42,1.06-14.19,4.76
		c0.61,0.51,0.91,1.11,1.22,1.11c2.63,0,3.16,0.62,13.08-3.34c0,4.97-0.31,5.19,0.91,5.78c0.98,0.47,1.5,11.39-5.68,19.26
		c-3.62,3.97-13.66,11.3-18.95,10.54c-1.09-2.18-0.37-4.11,6.49-14.39c-1.05-1.57-1.97,0.37-6.08,5.07
		c-2.09-2.32-1.91-2.46-5.07-4.56c-0.41-0.3-0.91-0.1-1.22,0.71c1.82,1.72,3.85,3.34,4.97,5.98c-0.91,2.23-2.23,4.46-1.72,6.69
		c-0.91,0.91-1.72,0.81-2.43,0.71c-8.03-0.7-14.1-1.15-19.16-9.33c-4.12-6.67-3.96-17.22-2.74-24.02c0.71-0.61,1.52-1.22,2.33-1.82
		c0.76,0.51,8.65,4.04,12.77,3.45c0.3-0.1,0.71-0.51,1.11-0.91c-1.56-1.95-1.52,0.48-12.97-4.87c1.31-6.55,4.51-11.81,4.16-15.2
		C94.96,84.69,95.2,84.06,94.69,80.84z M86.99,94.42c0.77,5.42-4.55,7.94-6.39,20.47c-1.7,11.6-0.8,24.97,9.93,29.7
		c2.53,1.12,4.97,2.62,7.91,3.14c7.42,1.32,16.39,2.37,21.79-2.84c1.72-1.66,22.75-4.82,17.23-37c-0.73-4.25-3.8-9.81-3.55-11.05
		c5.79,1.45,5.83,3.01,7.8,8.92c-1.11,0.51-2.94-0.41-3.45,1.42c1.22,2.03,2.64-0.1,3.85,0.1c6.03,11.1,3.99,21.79,12.57,40.95
		c1.18,2.65,1.62,3.1,1.62,12.47c0.29,4.88-1.85,4.66-1.52,9.12c0.33,4.46-1.02,6.77-4.56,16.12c-74.27,0-65.55,1.72-80.68,1.72
		c-1.31-3.67-6.15-17.87-9.73-19.66c-2.3-30.86,1.68-28.11,9.73-48.45c2.99-7.56,2.7-3.75,5.47-8.72c2.27-4.07,1.55-3.37,2.84-2.94
		c1.32,0.61,1.32,0.51,1.72-1.32c-2.71-1.09-2.45,0.56,3.45-10.54C84.15,95.54,85.47,95.03,86.99,94.42z M134.32,252.04
		c-10.29,3.25-9.33,2.33-28.08,2.33c-4.56,0-8.92-0.71-13.08-1.72c-1.72-1.82-1.22-4.56-3.14-6.08c-0.91,1.82,0.2,3.34,0.51,4.56
		c-1.3,1.3-12.2-3.13-22.2-5.88c-5.47-1.5,0.64-8.01,4.66-27.77c2.54-12.5-2.23-19.35-2.23-27.27c2.65-1.33,47.11-2.65,49.97-2.74
		c14.12,8.99,10.93,7.05,11.76,7.5c0-8.2-21.86-7.5,14.9-7.5c3.34,0,3.24,0.03,0.2,12.37c-2.54,10.31-1.2,17.55,2.13,28.28
		c1.71,7.17,5.09,10.2,1.01,17.33c-19.93,8.61-11.98,6.48-11.15-3.04C139.59,237.21,137.84,245,134.32,252.04z M53.94,210.68
		c0.54-4.11,3.93-11.43,4.16-19.36c0.03-0.31,1.59-8.36,4.16-16.42c0.87,2.67,4.7,10.27,4.36,13.28c-0.11,1.01,0.28,1.83,0.71,2.74
		c0.75,1.58,1.66,6.81,2.84,10.44c1.82,5.62-0.09,21.27-6.18,35.48c-1.82-2.13-3.45-4.05-4.76-6.28c-1.93-3.86-2.54-1.51-4.05-4.05
		c-1.86-3.13-1.42-4.54-1.42-6.08C53.74,217.17,53.53,213.82,53.94,210.68z M149.93,218.39c-2.12-13.9-2.29-12.31,3.55-34.67
		c0.48-1.83,1.11-3.65,2.53-5.37c0.19,0.8,3.03,12.74,3.04,13.58c0.14,7.79,3.91,16.16,4.16,20.37c0.53,9.27,1.03,13.83-2.84,16.22
		c-3.25,2.01-3.22,5.29-5.17,6.18C152.97,230.14,150.6,222.75,149.93,218.39z M73.3,467.02c0.17-1.42-0.3-2.94-0.3-4.46
		c-0.34-5.83,0.39-6.27,0.1-6.99c-1.63-4.9,1.33-13.68,2.94-18.95c1.84-6.01-0.25-3.49,0.81-8.82
		c5.13-19.24-20.58-79.46-20.58-117.07c7.5-0.81,14.6-1.93,21.79-1.52c2.13,3.45,4.97,5.68,8.62,6.49c3.31,3.53-0.25,4-0.91,20.58
		c-1.27,31.75-8.45,146.17-9.02,149C75.27,481.73,72.79,471.32,73.3,467.02z M59.11,269.07c2.92,2.77,7.54,9.95,9.12,12.57
		c1.23,2.03,1.8,4.37,3.65,9.73c1.68,4.86,2.6,3.22,3.34,6.18c3.68,11.97,5.21,7.97-18.75,10.85
		C55.02,307.66,57.3,276.33,59.11,269.07z M89.52,306.98c0.3-2.13,1.82-3.75,3.75-4.97c1.82,1.42,3.75,2.84,5.68,4.36
		c0,7.18,0.3,4.4-1.52,8.41c-0.7,2.1,0.82,2.49,1.93,1.01c2.5-4.16,1.15-2.06,1.72,0.81c-5.53,2.21-3.95,1.9-6.99,12.47
		c-5.91,20.51-2.95,20.09-5.78,24.33c0-11.39-0.41-25.24,2.33-36.19C88.41,314.17,89.02,310.52,89.52,306.98z M100.47,307.68
		c1.11,0,1.93-0.1,2.84-0.1c1.22,0.2,1.72,1.52,0.61,2.43c-0.3,0.3-0.61,0.41-0.91,0.61C100.47,309.61,100.47,309.61,100.47,307.68z
		 M95.4,333.53c-0.13,0.39-0.1,0.42-0.1,0H95.4z M94.59,336.47c0,0.1-0.1,0.2-0.1,0.3c-0.21-0.21,0-0.2,0-0.41
		C94.59,336.47,94.69,336.47,94.59,336.47z M93.88,338.9c0,1.42-0.1,0.4-0.1,0.2C93.78,339.01,93.88,339.01,93.88,338.9z
		 M88.51,378.54c1.58-25.61,0.78-19.96,3.85-29.19c3.15-0.31,8.8-29.66,9.12-29.9c3.09-2.67-0.46-7.33,8.01-6.99
		c0.92,5.54-0.26,17.72-0.81,23.31c-0.86,8.79,0.48,6.62-0.71,20.78c-1.84,21.94-2.38,6.38-1.32,42.37
		c1.22,41.58-6.52,10.28-1.62,52.71c4.52,39.19-0.88,18.54-1.22,68.82c-0.04,5.88-1.82,2.89-1.82,6.08
		c-0.67,9.33,2.58,7.44,1.62,14.8c-3.75,0.3-7.5,0.81-10.64,2.94c-2.05-2.39-7.8-33.98-11.25-45.81
		c-1.29-4.41,5.43-92.56,5.57-92.85c2.03,1.32,3.14,3.85,5.57,4.36c1.35-0.9,0.36-1.39-3.65-5.27
		C86.16,401.73,87.14,400.76,88.51,378.54z M85.06,550.44c-0.82,0.39-1.32,1.11-1.62,1.93c-1.99,5.31-6.37,14.23-6.28,25.95
		c0.01,0.91,0.1,1.82-0.91,2.33c-0.2-0.2-0.41-0.41-0.41-0.51c7.22-113.6,2.3-72.32,14.7-33.04c-1.31,3.94-0.18,4.9-2.64,6.08
		c-0.82,0.39-1.32,1.42-1.93,2.13c-0.3-1.42-0.3-1.42,3.14-5.68C88.67,547.85,86.83,549.61,85.06,550.44z M73.61,591.39
		c-2.26,0-2.04,4.88,5.27-108.35c0.79-12.29,7.17-122.13,8.01-125.48c2.83,0-13.17,225.73-13.18,225.83
		C73.01,590.68,74.13,588.24,73.61,591.39z M83.85,594.03c1.01-2.74,1.32-3.04,3.14-2.74c3.75,0.41,7.3,1.72,10.85,3.24
		C93.27,594.64,88.71,594.94,83.85,594.03z M109.69,593.72c-2.53,0.91-4.97,1.22-7.2,1.22c-1.72-2.13-1.71-2.15-3.75-3.04
		c-3.33-1.46-6.79-2.75-10.34-3.34c-3.62-0.61-5.89-0.32-6.99,3.55c-0.1,0.51-0.1,1.01-0.2,1.42c-4.11,0.29-4.26-0.98-5.37-6.89
		c0.51-0.91,1.01-2.03,1.72-3.04c4.22-7.04-1.54-13.09,7.1-26.05c4.83-0.32,20.66-0.45,22-1.11c0.91-0.45,0.93-1.97,0-2.43
		c-1.06-0.79-10.48-0.86-14.39-1.22c0.81-5.37,2.11-6.98,6.99-8.11c1.41-0.33,2.84-0.91,4.56-0.3c1.43,7.15,1.52,8.51,4.97,7.2
		c2.75,3.14,2.55,1.62,3.24,9.73c0.41,4.78-1.1,6.4-2.53,18.45C108.39,588.93,110.54,586.11,109.69,593.72z M111.92,582.17
		c-0.4,0-0.3,0.31-0.3-2.03C112.4,580.14,112.25,580.19,111.92,582.17z M114.36,561.49c-0.36-7.53-1.17-5.09-2.03-8.92
		c-2.32-10.3-4.95-7.43-5.37-11.66c-1.39-30.49-1.91-11.92-0.1-30.91c2.11-22.15,1.43-20.74,1.72-21.18
		c4.94-9.88-0.86-40.24-2.43-54.03c-0.74-6.44,4.54-7.51,3.95-26.05c-0.62-19.73-1.17-0.09-2.43-30.51
		c-0.12-0.87-0.18-1.37,2.64-18.55c2.63,8.71,2.23,12.28,3.85,24.73c1.5,11.55-2.02,15.8-0.41,29.8
		c2.07,18.03,4.53,14.99,4.46,21.79c-0.21,21.36-2.73,25.51-0.71,43.28c2.82,24.79,9.65,32.36,4.87,65.88
		c-9.79,1.36-5.58,18.85-9.12,31.83C111.84,572.81,114.76,569.85,114.36,561.49z M118.21,307.08c2.13-1.62,4.05-3.14,5.98-4.66
		c2.33,1.93,3.8,4.05,3.85,7.2c0.04,2.74,0.41,5.47-1.52,7.8c2.19,3.6,1.82,6.33,1.82,31.02c-2.15-3.43-6.21-18.21-7.1-25.34
		c-0.5-4.04-0.68-7.88-3.14-11.25C119.22,310.12,118.41,308.5,118.21,307.08z M117.19,317.72c-0.91-1.42-1.22-2.94-1.01-4.87
		C119.27,318.69,119.67,317.72,117.19,317.72z M114.05,311.74c-1.67-1.06-2.36-4.6,2.64-3.45
		C117.02,309.93,117.66,309.45,114.05,311.74z M118.61,320.96c2.39,0-1.13,5.53,6.89,30.61c3.65,9.14,0.8-6.04,6.59,56.76
		c-1.22,1.11-2.43,2.23-3.65,3.24c0.36,1.43,1.73,0.54,3.85-0.3c0.32,2.88,9.81,108.34,8.62,112.81c-0.9,3.35-1.65,8.3-2.13,9.02
		c-1.88,2.82-1.27,9.58-1.01,9.83c2.43,1.95-0.33,4.92,1.62,8.82c0.41,0.71,0.3,1.72,0.51,2.53c0.85,1.28,1.73,0.57,1.42,1.52
		c-0.51,0-0.91-0.2-0.61-0.51c-0.71,0.1-0.81-0.3-0.71-0.81c-6.64-4.06-0.85-7.82-14.39-9.63c-0.37-3.37,0.32-8.39,0.71-10.54
		c1.81-9.96-2.19-38.65-3.14-40.14c-3.18-4.98-4.36-18.21-4.46-24.02c-0.16-9.19,0.98-4.37,0.91-9.93
		c-0.1-8.38,0.81-8.47,0.81-27.27c0-3.91-2.99-3.35-4.36-19.16c-0.3-3.45-2.31-9.93,0.41-15.71c0.61-1.29,2.25-15.2-2.53-37.3
		c-4.26-19.67-1.62-40.25-1.62-46.42C115.95,315.1,112.11,319.52,118.61,320.96z M141.52,551.86c0-16.41-0.76-18.08,1.01-19.26
		c0.61,6.79,1.22,13.58,1.82,20.88C143.04,552.67,142.23,552.17,141.52,551.86z M141.72,556.02c-0.23,0-0.25,0.03-0.33-0.1
		C141.47,555.98,141.59,556.02,141.72,556.02z M146.59,540.41c4.4,52.62,5.71,53.82,2.74,53.52c-0.2-1.52-0.51-3.04-0.71-4.66
		c-1.01,0-1.01,0.91-1.22,1.52c-1.35,2.7,1.46,2.53-7.91,2.53c-2.47-3.88-8.42-3.27-14.7-3.04c-1.01,0.1-1.93,0.51-2.84,0.91
		c-0.61,0.2-0.81,0.81-0.61,1.52c1.21,1.21,9.66-1.99,12.77,1.11c-13.9,1.64-14.23,3.01-20.78,0.1c0-11.54,1.72-9.39,1.62-16.02
		c-0.03-2.29,1.53-1.43,1.93-6.28c0.26-3.23,1.29-6.34,0.91-10.34c-0.09-0.91,0-1.72,0.1-2.53c1.01-0.41,1.22,0.3,1.52,0.81
		c0,1.66-1.91,3.52,1.82,3.85c11.02,0.98,10.56,0.42,12.97-0.3c0.68-0.34,0.32-1.65-0.2-1.82c-2.19-0.88-3.34-0.49-6.59-0.91
		c-1.52-0.2-3.14-0.41-4.87-0.61c0.61-1.01,1.32-0.7,1.93-0.71c6.74-0.13,8.88-0.16,10.03-0.3c1.7-0.22,2.22-2,0.3-2.64
		c-5.16-0.86-11.72-1.2-16.72,0.41c-0.2-3.34,0.37-7.37,3.65-8.01c4.67-0.9,10.28-2.38,12.16,2.43c4.8,12.23,9.33,5.06,9.33,10.03
		c0.1,1.42,0.03,2.74,0,4.16c-0.12,6.45,1.37,7.24,1.72,12.16c0.14,1.93,0.47,3.06,3.75,9.63c0.89-1.33,0.53-0.21-3.04-39.02
		C126.48,339.39,121.95,245.95,146.59,540.41z M159.66,317.52c-2.37,22.42-11.33,67.11-13.38,72.57c-1.43,3.8-1.38,11.83-1.82,22.3
		c-5.42,21.69,8.14,43.06,3.75,68.82c-5.23,30.71,0.23,23.93-11.25-70.65c-0.26-2.13-0.3-4.16,0.1-6.28
		c-2.53-4.38-6.45-82.83-6.99-85.14c-1.29-5.46,4.02-0.67,9.02-9.43c9.79-1.67,12.48,1.06,16.62,2.13
		C160.11,312.97,160.41,310.45,159.66,317.52z M162.4,286.2c-2.46,36.72,2.13,19.74-18.65,20.27c-1.22,0.1-2.43,0.51-3.75-0.3
		c0.3-3.34,1.32-6.49,2.53-9.63c5.66-6.64,0.88-10.91,17.64-29.6C161.79,273.73,162.82,279.92,162.4,286.2z M186.22,220.21
		c-0.99,3.47,0.31,3.49-1.93,7.5c-4.46,8-6.37,16.23-15.81,25.95c-21.7,22.33-2.5,0.72-18.95,22.91
		c-5.94,8.01-10.34,21.63-13.28,31.12c-1.01,3.25-1.72,3.95-5.47,5.37c-0.51-1.82-1.1-3.65-1.72-5.57
		c-0.27-0.84,1.63-3.87-2.03-6.18c-0.32-0.16-0.61-0.53-0.61-0.91c4.4-2.93,2.69-2.34,7.4-2.74c0.66,0,0.28-1.23-0.1-1.42
		c-7.32-2.29-16.99,13.95-21.69,8.82c-1.37-0.91-1.9-0.09-1.72,0.91c0.57,3.15,0.51,3.34-2.33,5.07c-1.42-1.52-2.84-2.94-1.72-5.37
		c0.1-0.41-0.2-1.11-0.3-1.62c-3.54,0.71-3.38,4.51-10.95-2.74c-2.56-2.45-3.16-1.95-7.1-4.66c-1.88-1.3-5.47-1.67-5.47,0
		c0,1.3,2.49,0.91,4.05,0.91c1.11,0.71,2.53,1.52,4.05,2.53c-2.43,1.62-4.36,3.45-2.94,6.28c-0.61,2.23-1.11,4.05-1.72,6.18
		c-7.26-1.16-5.09-8.82-9.93-18.14c-2.29-4.41-2.21-10.07-13.28-24.53c-4.37-5.7-1.28-3.23-4.66-6.69
		c-7.86-8.03-14.03-12.04-20.58-24.93c-2.51-4.95-0.23-2.96-2.43-6.49c-2.04-4.07-4.16-5.68-4.16-9.43c0-0.11-2.63-28.97,3.85-61.42
		c7.74-38.76,4.5-15.56,7.6-37.2c0.67-4.67,2.16-7.83,6.59-13.18c3.43-4.14,7.83-4.46,11.86-5.88c1.62-0.46,6.58-2.79,10.14-3.55
		c2.24-0.48,4.36-1.11,6.28-2.23c0.2-0.1,0.51,0,0.71,0c0.73,0.73-0.31,0.88-5.27,9.63c-8.17,14.41-6.82,17.53-9.43,19.77
		c-0.19,0.19-2.71,6.99-3.75,9.63c-0.81-1.01-1.52-1.93-2.53-3.04c-0.61,2.53,1.42,3.95,1.42,6.18c-2.23,6.6-2.89,23.72,0.71,28.28
		c1.19,1.71,0.54,3.27,0,6.59c-6.73,41.48-8.21,26.6-8.21,44.8c-2.14-1.17-2.74-1.5-2.94-1.63c0.02,0,0.04-0.03,0.1-0.09
		c-0.07-0.01-0.12-0.01-0.19-0.02c0.05,0.06,0.07,0.09,0.08,0.1c-0.09-0.06-0.09-0.07-0.14-0.11c0.1,0-1.19-2.21-2.58-2.71
		c0.09,1.97,0.43,2.43,2.1,2.66c-0.14,1.68,0.74,3.13,1.35,4.64c0.29,0.72,0.51,0.71,2.43,0.71c1.11,3.55,3.54,6.39,6.08,9.12
		c3.89,4.19,5.08,12.51,13.48,24.93c4.48,6.62,13.1,16.12,13.18,16.22c-1.52,0.91-2.33-0.41-3.65-0.81
		c-0.56,2.26,2.81,4.15,4.87,1.72c1.01,0.61,2.04,1.19,3.14,1.82c3.33,1.91,5.57,8.32,5.57,12.67c9.05,11.14,10,8.66,11.66,12.47
		c0.2,0.71,1.01,0.41,1.32,0c-0.77-8.48-0.05-6.32-2.64-9.22c-2.48-2.48-2.1-4.38-7.1-3.55c-0.41-0.81-0.9-1.52-1.01-2.33
		c-0.44-3.05-2.14-5.77-3.14-8.72c-1.34-3.94-6.6-2.66-14.19-13.38c-0.95-1.33-11.96-17.03-10.34-17.03c1.77-0.2,12,4.09,22,6.89
		c11.95,3.35,27.58,2.6,30.61,1.32c3.82-1.61,11.83-0.54,24.63-6.89c6.59-3.27-5.18,11.83-8.92,17.33
		c-7.23,10.64-13.12,5.27-16.52,21.39c-0.59,2.77-2.62,0.91-4.87,2.13c-1.11,0.51-1.72,1.93-2.64,2.94c-1.79,0-0.41-2.65-0.41-8.21
		c-1.09-10.93-2.53,14.94-2.53,18.04c2.21,0.49,0.53-1.48,4.76-4.36c5.01-3.4,3.29-3.4,8.11-8.21c0.43-2.61,0.15-6.63,2.53-9.02
		c1.47-4.25,5.57-4.76,7.1-6.28c2.92-2.57,11.25-12.23,17.13-22.5c7.51-13.1,5.34-13.61,10.03-19.06c4.41-5.11,3.69-4.43,6.08-8.92
		c3.16,0.79,2.61-2.8,3.91-5c-1.84-0.39-1.89,0.24-3.41,2.36c0-5.05-0.39-8.09-1.01-10.85c-3.25-14.27-1.99-15.13-4.16-23.11
		c-6.44-23.71-2.13-10.82-2.13-33.35c0-3.33-0.69-6.76-2.94-10.14c0.51-2.23,3.14-3.75,2.03-6.39c-5.24-0.52-1.22,13.27-9.02-19.26
		c-0.69-2.89-0.68-5.81-1.72-9.12c-0.54-1.71-0.51-1.72-2.43-2.84c-0.71-2.13-1.32-4.26-1.93-6.39c8.08,0.82,15.24,5.82,14.7,5.27
		c9.31,0.58,14.61,9.67,16.02,17.64c1.41,7.98,12.96,45.03,13.58,93.35C186.84,217.98,186.42,219.1,186.22,220.21z M99.25,292.38
		c3.46,0.35,1.73,1.73,1.11,1.42C100.06,293.49,99.86,293.09,99.25,292.38z M102.8,295.72c1.22-0.61,1.82-0.3,2.23,1.72
		C103.92,296.64,103.41,296.23,102.8,295.72z M118,292.89c-0.71,0.61-1.22,1.11-1.82,1.72C115.98,292.89,115.88,292.89,118,292.89z
		 M114.25,296.03c-0.53,1.07-0.72,1.02-1.62,1.32C112.63,295.93,112.63,295.93,114.25,296.03z"/> <path d="M97.23,19.01c-0.2-0.08-0.14-0.11-0.1,0.1L97.23,19.01z"/> <path d="M120.34,12.73l0.1,0.1C120.38,12.67,120.47,12.73,120.34,12.73z"/> <path d="M169.39,219.81l-0.1-0.1C169.25,219.78,169.22,219.77,169.39,219.81z"/> <path d="M131.79,275.76l-0.03,0.01C131.68,275.89,131.65,275.9,131.79,275.76z"/> <path d="M111.4,6.14h0.02C111.26,5.98,111.29,6.04,111.4,6.14z"/> <path d="M604.53,441.18c-1.18,0-1.22,0.4-1.42,0.81c-1,3.5-4.08,13.08-2.03,16.01C601.68,457.63,606.91,441.18,604.53,441.18z"/> <path d="M598.15,419.28c-1.52,2.84-1.32,6.08-2.03,9.02c-0.39,1.16,1.71,1.76,2.13,0.1c1-3.93,2.44-9.37,0.61-12.67
		C598.55,417.26,598.66,418.47,598.15,419.28z"/> <path d="M596.63,410.16c-6.92-7.12-5.78-6.08-6.99-5.68c1.62,3.55,3.95,5.98,6.99,7.3C597.14,411.17,597.13,410.67,596.63,410.16z"/> <path d="M605.65,523.58c0.91-2.53,0.91-2.53,0-4.87C604.33,520.14,604.33,520.24,605.65,523.58z"/> <path d="M600.18,462.97c1.42-1.12,1.42-1.22,0.61-3.65C599.67,460.43,599.77,461.65,600.18,462.97z"/> <path d="M604.74,512.74c-0.91,2.33-0.91,2.33,0.41,3.34C605.55,515.07,605.65,514.05,604.74,512.74z"/> <path d="M600.28,474.42c0.61-0.61,0.34-0.39,0.1-1.11C599.62,473.69,600.14,474.15,600.28,474.42z"/> <path d="M600.48,467.43c0-0.62-0.54-0.13-0.1,0.3C600.38,467.63,600.48,467.53,600.48,467.43z"/> <path d="M600.28,477.06c0.22-0.22,0.33-0.08,0-0.41C600.05,476.88,599.95,476.73,600.28,477.06z"/> <path d="M630.58,457.6c2.02-2.53,0.38-5.71-2.53-17.84c-1.41,1.88-1.83-0.3,1.93,16.83C629.98,456.79,630.18,456.99,630.58,457.6z"/> <path d="M630.89,422.53c-0.33,4.02,5.02,8.68,5.47,5.98c-1.52-2.33-3.04-4.56-4.56-6.79C631.5,422.02,630.99,422.22,630.89,422.53z
		"/> <path d="M620.35,367.49c0.61-0.3,1.01-0.41,1.11-0.61c0.91-2.43,0.91-4.66-0.41-7.7C620.75,362.32,620.55,364.75,620.35,367.49z"/> <path d="M631.09,461.45c-1.22-1.83-3.35,1.16-0.51,4.66C631.7,464.29,631.7,462.87,631.09,461.45z"/> <path d="M631.9,413.3c1.31,1.31,3.7-0.38,4.87-2.13c0.1-0.3-0.1-0.91-0.2-1.72C634.84,410.87,633.02,411.68,631.9,413.3z"/> <path d="M631.09,481.01c-0.78,1.25-1.6,1.85-0.51,2.94c0.32,0.64,1.64-0.34,1.42-1.22C632,482.23,631.6,481.82,631.09,481.01z"/> <path d="M642.24,528.95c0.41-1.42,0.61-2.53-0.51-4.36C640.92,527.54,640.92,527.54,642.24,528.95z"/> <path d="M630.99,479.09c1.01-1.32,1.01-1.32,0.1-2.53C630.08,477.67,630.08,477.67,630.99,479.09z"/> <path d="M639.2,408.34c1.32-0.91,1.72-1.82,0.91-3.24C638.59,405.8,638.69,406.92,639.2,408.34z"/> <path d="M622.17,357.66c1.01-0.81,1.01-1.62,0.51-3.04C621.56,355.63,621.36,356.44,622.17,357.66z"/> <path d="M631.39,470.06c-0.2-0.1-0.61-0.1-0.61,0C629.93,473.48,632.76,470.88,631.39,470.06z"/> <path d="M642.65,516.49c0.61-1.01,0.61-1.01,0-2.23C642.65,515.17,642.65,515.68,642.65,516.49z"/> <path d="M623.39,351.98c0.26,0,0.23,0.05,0.1-0.2L623.39,351.98z"/> <path d="M587.91,273.32c-4.46-1.22-8.92-1.52-13.38-2.53c-0.61-0.1-1.22,0.1-2.03,0.1c0.41,0.41,0.51,0.91,0.71,1.12
		c4.66,1.11,9.33,2.13,14.19,2.13C587.61,274.13,587.71,273.73,587.91,273.32z"/> <path d="M584.77,302.72c3.11,1.56,7.39,0.54,16.42,4.87c0.2,0.1,0.51-0.2,0.91-0.41C596.83,303.93,589.53,301.91,584.77,302.72z"/> <path d="M614.47,292.48c2.4-0.92,2.02-5.97,0.91-8.31C614.67,287.11,614.16,289.74,614.47,292.48z"/> <path d="M615.79,263.39c-0.41,2.84-0.3,5.47,0.3,8.21c1.11-2.43,1.01-4.97,0.61-7.5C616.7,263.9,616.19,263.69,615.79,263.39z"/> <path d="M615.99,275.96c0,0.34-0.22,0.81,0,0.81C615.99,276.4,616.21,275.96,615.99,275.96z"/> <path d="M618.42,236.33c-2.13,0.41-3.48,1.81-4.16,3.75c-0.11,0.3,0.2,0.81,0.41,1.72c1.62-1.22,2.84-2.03,4.05-2.84
		C620.29,238.18,620.17,236.33,618.42,236.33z"/> <path d="M617,214.64c-1.01-6.55-0.94-5.24-1.72-6.28c-0.3,0.3-0.61,0.61-0.61,0.81c0,2.43,0.41,4.76,1.11,7.1
		C617,216.16,617.11,215.34,617,214.64z"/> <path d="M607.88,190.82c-2.26,0.53-5.87,3.44-3.34,4.36c1.22-1.32,3.04-2.13,4.36-3.95C608.39,190.92,608.18,190.61,607.88,190.82z
		"/> <path d="M592.78,245.35c0.3-1.62,0.41-2.84-0.61-4.05C591.56,243.32,591.56,243.32,592.78,245.35z"/> <path d="M642.24,238.56c0,0.1,0.41,0.3,0.81,0.51c0.1-0.91,0.2-1.82,0.3-2.74C642.55,236.33,642.66,235.23,642.24,238.56z"/> <path d="M597.64,200.34c-0.79,0.79-1.45,1.29-0.91,1.82c0.56,0.56,0.81-0.27,1.52-1.22C598.05,200.85,597.84,200.65,597.64,200.34z
		"/> <path d="M600.38,198.42c0.62,0.62,1.54-0.34,0.81-1.22C600.58,197.3,600.18,197.71,600.38,198.42z"/> <path d="M615.38,205.11c0.42-0.84,0.42-0.38,0-1.22c-0.1,0.3-0.3,0.51-0.41,0.71C614.97,204.8,615.28,204.91,615.38,205.11z"/> <path d="M589.63,235.72c0,0.1,0.1,0.2,0.2,0.3c0.1-0.3,0.1-0.61,0.2-0.91C589.79,235.11,589.63,234.99,589.63,235.72z"/> <path d="M644.27,230.65c0,0.16-0.29,0.3,0.3,0.3C644.39,230.77,644.71,230.65,644.27,230.65z"/> <path d="M603.62,176.12c2.9-2.59,1.77-0.61,3.45-3.55c-6.01,0-4.91,4.02-9.02,3.75c-0.61-0.1-1.53,0.2-1.72,0.61
		c-1.53,3.26-12.82,0.24-14.9,1.62C582.29,182.01,596.16,182.79,603.62,176.12z"/> <path d="M627.95,180.27c7.5,0,11.18,1.01,18.75-3.95c0-3.62,1.47-2.8-7.3,0.71c-5.73,2.3-5.19,1.64-13.58,1.22
		C626.12,179.57,626.94,180.27,627.95,180.27z"/> <path d="M572.61,175.81c2.03,2.43,3.65,3.14,6.28,2.64c0.3,0,0.51-0.51,1.01-1.01C573.19,176.09,573.99,175.28,572.61,175.81z"/> <path d="M624.81,178.25c-0.91-0.51-1.52-0.81-2.23-1.11C620.2,176.54,622.02,180.61,624.81,178.25z"/> <path d="M610.31,168.01c0.42-1.26-1.43-1.87-2.03,0.51C609.6,169.02,610.01,168.92,610.31,168.01z"/> <path d="M619.13,175.21c-0.36-0.36-0.05-0.94-0.91-0.51C618.4,175.07,618.32,175.61,619.13,175.21z"/> <path d="M688.87,107.19c-11.53,7.78-15.67,9.39-19.56,14.7c-1,1.36-3.71,2.82-4.97,6.39c-0.2,0.41,0,1.01,0.1,2.03
		c1.01-1.01,1.82-1.62,2.53-2.23c2.99-3.33,2.96-4.18,3.75-4.97c8.59-8.59,12.59-8.33,18.55-14.29
		C689.98,108.11,689.68,107.5,688.87,107.19z"/> <path d="M696.27,118.14c-0.41,0-0.81,0.51-1.11,0.81c-1.44,1.91,8.69,2.47,13.68-4.26C707.97,112.96,703.55,118.14,696.27,118.14z"/> <path d="M848.81,73.24c-1.76,0-1,3.13,3.34,1.72c0.61-0.2,0.71-0.71,0.51-1.32C851.55,72.93,850.13,73.14,848.81,73.24z"/> <path d="M750.29,86.21c-1.02,0.26-0.22,3.27,3.85,0.91C753.13,85.81,751.81,85.6,750.29,86.21z"/> <path d="M711.17,112.77c1.52,1.01,2.94,0.81,4.36-0.3C713.8,111.15,712.99,111.25,711.17,112.77z"/> <path d="M694.04,104.05c-2.2,1.25-2.35,1.37-2.03,2.33c0.1,0.2,0.41,0.2,0.81,0.51C696.81,104.89,694.5,103.82,694.04,104.05z"/> <path d="M661.7,133.75c2.36,0,2.93-2.19,2.23-2.53C663.26,130.55,661.95,132.11,661.7,133.75z"/> <path d="M717.25,110.64c2.64,1.01,2.74,1.01,3.34-0.71C719.48,109.73,718.56,109.42,717.25,110.64z"/> <path d="M817.9,83.48c1.11,0.41,2.03,0.41,2.74-0.91C819.42,82.26,818.61,82.46,817.9,83.48z"/> <path d="M660.99,137.3c0.3-0.2,0.61-0.61,1.01-1.01c-0.51-0.41-0.81-0.81-0.91-0.71C659.18,136.53,660.53,137.53,660.99,137.3z"/> <path d="M725.25,107.3c-1.17-0.5-2.15,1.1-1.32,1.52C724.9,109.3,726.15,107.74,725.25,107.3z"/> <path d="M756.37,87.73c-0.2,0.2,0.3,1.01,0.71,0.91c0.3,0,0.51-0.2,0.91-0.51C757.56,87.71,757.18,86.93,756.37,87.73z"/> <path d="M814.25,84.69c0.42,0.21,0.09,0.67,1.01,0.2C814.97,84.6,815.11,84.26,814.25,84.69z"/> <path d="M760.33,89.15c-0.2,0.1-0.41,0.1-0.61,0.2c0.13,0.13,0.05,0.38,0.81,0C760.43,89.25,760.33,89.05,760.33,89.15z"/> <path d="M537.43,117.94c-1.46-1.34-0.86,0.66-9.33-2.74c-1.43-0.58-2.64-1.72-4.36-1.93C525.56,119.02,537.17,121.12,537.43,117.94
		z"/> <path d="M384.38,73.44c0.2-0.2,0-0.81,0-1.42c-1.82,0.3-3.34,0-5.17,1.01C381.34,74.56,382.96,74.66,384.38,73.44z"/> <path d="M481.99,86.82c1.53-1.53-1.74-2.92-3.95-0.3C479.46,87.33,480.67,87.43,481.99,86.82z"/> <path d="M539.46,105.98c0.43,0,1.4-0.73,1.01-1.11c-1.92-1.92-1.72-1.32-3.75-1.32C538.75,105.88,538.75,105.98,539.46,105.98z"/> <path d="M521.42,111.76c-1.93-1.11-1.93-1.11-3.45-0.91c-0.41,0-0.71,0.51-1.22,0.91C518.58,112.57,519.9,113.07,521.42,111.76z"/> <path d="M414.59,82.56c-0.71-1.01-1.52-1.22-2.94-0.81C412.66,82.97,413.47,83.17,414.59,82.56z"/> <path d="M514.63,109.53c-0.81-0.81-1.72-0.71-2.94,0C513.72,110.84,513.72,110.84,514.63,109.53z"/> <path d="M476.52,87.43c-0.41-0.41-0.51-0.81-0.81-0.81c-0.61-0.3-1.32,0.2-1.22,0.71C475.04,88.42,475.59,87.74,476.52,87.43z"/> <path d="M508.44,108c0.57-0.28,0.31-1.62-1.01-1.62C505.88,106.38,507.44,108.61,508.44,108z"/> <path d="M418.03,83.88c-0.2,0-0.41-0.2-0.61-0.2c-0.1,0-0.2,0.3-0.3,0.41C417.58,84.08,417.64,84.67,418.03,83.88z"/> <path d="M472.36,88.04c-0.28,0.28-0.27,0.16,0,0.71C472.59,88.51,472.69,88.7,472.36,88.04z"/> <path d="M608.79,114.29c-1.03-3.09-3.05-0.58-0.81,3.14C609.2,116.52,608.89,115.4,608.79,114.29z"/> <path d="M618.72,112.46c-1.52,2.13-1.62,3.04-0.2,4.36C619.64,114.59,619.64,114.29,618.72,112.46z"/> <path d="M598.76,90.87c0.2,2.23,0.3,3.75,2.03,5.37C600.38,94.12,600.18,92.7,598.76,90.87z"/> <path d="M622.78,88.75c-0.61,0.81-0.51,1.72,0,2.64C623.29,90.47,623.59,89.66,622.78,88.75z"/> <path d="M622.07,97.16c0-0.1-0.1-0.2-0.1-0.3c-0.1,0.1-0.2,0.1-0.2,0.2C621.77,97.53,622.07,97.33,622.07,97.16z"/> <path d="M604.84,105.17c-0.13,0.38-0.15,0.28,0.1,0.41L604.84,105.17z"/> <path d="M621.77,44.76c-0.9,0-0.64,0.27-1.01-0.1c1.53-0.77-0.95,0.39,3.8,0.01c-2.25-1.45-7.51-2.55-9.27,0.9
		c-0.31,0.61-1.01,1.01-1.52,1.62c-0.1,0.2,0,0.51-0.1,0.81c1.11,0.81,1.62-0.51,2.33-0.71c5.06,1.94,2.89,1.98,5.37-0.51
		c1.42,0.1,2.33,1.22,4.05,0.61c-0.91-0.51-1.42-0.91-2.03-1.32C622.78,45.67,621.87,45.77,621.77,44.76z"/> <path d="M624.71,44.76l0.1-0.1C624.45,44.69,624.52,44.61,624.71,44.76z"/> <path d="M599.67,50.33c0.1-2.23,0.1-2.23,2.23-2.03c0.51,0.1,0.81-0.2,0.91-0.91c-1.35-2.85-6.75-4.67-8.72-2.53
		c0.97,0.48,2.86-0.6-2.03,2.33c0.66,2.21,2.31,0.48,3.45-0.2c0.71,0.71,1.33,1.11,1.72,1.72
		C598.41,50.57,596.71,50.92,599.67,50.33z"/> <path d="M601.29,70.81c3.77,0.34,12.24,0.13,14.39,0.1c2.38-0.03,2.49-0.82,2.74-1.32c-7.32-0.49-7.76-2.47-16.83,0.41
		C601.49,70.1,601.49,70.3,601.29,70.81z"/> <path d="M624.71,40.3c0.2,0,0.51-0.2,1.01-0.3c-2.94-1.42-5.78-1.11-8.62-0.81c-1.93,0.2-4.16,0.1-6.18,1.72
		C612.8,42.16,618.78,39.25,624.71,40.3z"/> <path d="M603.32,73.64c-0.47,1.41,0.35,0.51,2.84,1.82c2.61,1.37,5.06,0.67,7.6-0.1c0.71-0.21,0.71-0.3,1.52-2.13
		C611.22,74.86,607.27,74.56,603.32,73.64z"/> <path d="M603.82,41.82c-3.24-2.94-7.6-3.45-12.67-1.52C603.29,40.3,601.36,42.4,603.82,41.82z"/> <path d="M613.15,62.6c1.93-0.1,2.43-1.01,1.82-3.04c0-0.1-0.3-0.1-0.51-0.2c-0.1,0.81-0.2,1.62-0.3,2.43
		c-1.22-0.41-2.23-1.72-3.45-0.2C611.22,62.8,612.24,62.6,613.15,62.6z"/> <path d="M607.88,62.19c0.3-0.6-1.62-1.49-1.62,0.2c0.2,0.1,0.41,0.3,0.51,0.3C607.27,62.8,607.78,62.8,607.88,62.19z"/> <path d="M591.86,46.07c0.81-0.41,1.42-0.91,2.13-1.32C593.11,44.98,591.26,44.55,591.86,46.07z"/> <path d="M627.44,38.27c-0.32-1.29-0.12-1.51-0.91-1.11C627.39,38.87,626.69,38.27,627.44,38.27z"/> <path d="M610.41,59.25c-0.22,0-0.41-0.04-0.41,0.71C610.37,59.78,610.72,59.87,610.41,59.25z"/> <path d="M604.6,59.66c0.02-0.05,0.03-0.1,0.04-0.14C604.64,59.37,604.63,59.47,604.6,59.66z"/> <path d="M604.64,59.51c0,0.02,0,0.01,0,0.04C604.7,59.36,604.68,59.38,604.64,59.51z"/> <path d="M611.43,44.76c0.48-0.24,0.41,0.1,0.41-0.81C611.83,44.41,611.43,44.22,611.43,44.76z"/> <path d="M604.03,47.7c0.1-0.2,0.2-0.3,0.3-0.51c-0.1-0.1-0.1-0.2-0.2-0.2C603.82,47.61,603.69,47.36,604.03,47.7z"/> <path d="M617.31,19.42c-0.02-0.06-0.02-0.08-0.02-0.08s-0.02,0-0.08-0.02L617.31,19.42z"/> <path d="M616.9,19.82c0.1-0.1,0.1-0.3,0.2-0.51C616.69,19.73,616.35,19.27,616.9,19.82z"/> <path d="M624.71,44.76h-0.1C624.73,44.88,624.71,44.98,624.71,44.76z"/> <path d="M624.71,45.06c0,0,0.1,0.1,0.2,0.1C624.67,44.93,624.71,44.73,624.71,45.06z"/> <path d="M611.93,44.05c0.2-0.1,0.71,0,0.3-0.61C612.14,43.64,612.04,43.84,611.93,44.05z"/> <path d="M604.94,62.29c-0.2-0.1-0.3-0.2-0.51-0.3C604.53,62.19,604.33,62.6,604.94,62.29z"/> <path d="M604.53,61.89h-0.3C604.47,62.01,604.41,62.01,604.53,61.89z"/> <path d="M604.23,59.96c-0.1,0-0.1,0.1-0.1,0.2C604.21,60,604.35,59.84,604.23,59.96z"/> <path d="M604.43,59.76c-0.05,0.05-0.1,0.1-0.15,0.16C604.36,59.87,604.43,59.84,604.43,59.76z"/> <path d="M589.33,26.31c-0.2-0.1-0.41-0.1-0.61-0.2C588.82,26.31,588.72,26.92,589.33,26.31z"/> <path d="M605.14,561.9c-10.24-0.14-13.88-3.05-14.29,0.2c-0.2,1.59,1.24,2.08,2.84,2.33c9.51,1.47,7.92,1.28,13.38,0.51
		C609,564.66,608.19,561.94,605.14,561.9z"/> <path d="M606.36,567.78c-1.59-0.79-1.45-0.77-11.25-1.42c-1.23,0-2.26,0.28-2.53,1.52c-0.58,2.57,2.73,2.19,8.21,2.94
		c0-0.29-0.76-0.2,2.13-0.2C607.03,570.61,607.57,568.53,606.36,567.78z"/> <path d="M602.71,572.54c-8.66-0.93-9.16-1.02-10.14,0.61c-0.3,0.71,0.2,1.64,0.91,1.82c4.86,1.27,5.02,1.37,9.53,0.2
		c0.4-0.1,0.81-0.91,0.81-1.42C603.72,573.35,603.12,572.54,602.71,572.54z"/> <path d="M637.68,563.21c-1.16-0.7-0.92-0.55-12.87-1.52c-1.24-0.31-2.39,0.44-2.53,1.52c-0.31,2.32,3.62,2.33,8.92,2.33
		c5.1,0,4.52,0.28,6.49-0.71C638.19,564.63,638.19,563.42,637.68,563.21z"/> <path d="M637.17,568.79c-1.27-0.8-0.51-0.74-11.05-0.91c-1.39-0.02-2.24,1.13-2.13,2.03c0.3,2.38,2.28,1.82,11.45,1.82
		C637.42,571.73,638.81,569.82,637.17,568.79z"/> <path d="M634.64,574.36c-2.46-0.19-4.05,0.17-4.05-0.1c-2.2,0-5.07-0.69-5.07,1.52c0,3.88,12.06,2.4,10.44-0.3
		C635.65,574.97,635.15,574.47,634.64,574.36z"/> <path d="M370.29,71.31c1.42,0.81,2.94,1.62,4.56,2.43c0.2-0.41,0.61-0.81,0.41-1.11C373.8,69.71,370.03,69.47,370.29,71.31z"/> <path d="M861.58,71.11c-1.93-0.2-3.61,0.63-4.46,2.43c-0.1,0.2,0.2,0.61,0.41,1.01c1.72-0.91,3.24-1.72,4.97-2.64
		C862.09,71.52,861.89,71.11,861.58,71.11z"/> <path d="M614.16,5.93c0.41-0.1,0.81-0.2,1.42-0.2C614.77,5.12,614.37,5.12,614.16,5.93z"/> <path d="M614.87,7.35C615.18,7.05,614.67,7.46,614.87,7.35L614.87,7.35z"/> <path d="M151.25,106.18c-0.41,0.1-0.91,0.71-0.91,1.01C150.34,110.82,167.35,105.42,151.25,106.18z"/> <path d="M70.26,105.88c-2.43-0.81-4.76-0.46-7.1-0.41c-0.3,0.01-0.51,0.3-1.01,0.61c1.62,1.32,3.34,1.03,4.97,1.22
		C68.13,107.41,69.35,107.5,70.26,105.88z"/> <path d="M82.02,303.93c1.62-0.91,3.24-2.13,4.87-3.45c0.2-0.1,0.1-0.41,0.2-0.61c-0.1-0.1-0.3-0.41-0.51-0.41
		c-2.23,0.2-3.86,1.41-5.17,3.14C81.11,303.02,81.21,303.53,82.02,303.93z"/> <path d="M113.14,269.27c0.18-8.37,0.21-6.91-0.91-7.8c-0.3,3.04-0.3,5.78,0.1,8.82C112.73,269.78,113.13,269.57,113.14,269.27z"/> <path d="M130.57,300.08c-0.1,0-0.2,0.2-0.71,0.51c1.93,1.62,3.65,2.74,5.57,3.85c0.2-0.51,0.51-0.91,0.41-1.11
		C134.63,301.4,133.01,300.08,130.57,300.08z"/> <path d="M132.6,276.97c1.29,1,3.75,0.34,3.75-2.23c-1.32,0.41-2.74,0.91-4.05,1.32C132.5,276.26,132.4,276.77,132.6,276.97z"/> <path d="M137.77,272.21c2.33,0.41,2.84,0,2.64-1.93C139.29,270.38,138.48,270.89,137.77,272.21z"/> <path d="M172.03,216.66c-1.1,0.8-2.21,1.61-2.13,3.3C171.45,219.37,173.43,217.46,172.03,216.66z"/> <path d="M169.8,220.01h0.1C169.9,219.94,169.92,219.97,169.8,220.01z"/> <path d="M76.55,270.49c0.1,1.22,1.22,1.72,3.34,1.01c-1.22-0.81-1.93-1.22-2.64-1.52C77.16,269.88,76.55,270.28,76.55,270.49z"/> <path d="M54.15,133.14c0.49-0.65,1.13-0.8-0.1-2.03c-0.6-0.6-1.04,0.55-0.91,0.81C53.34,132.33,53.74,132.64,54.15,133.14z"/> <path d="M142.53,268.97c0.61-0.2,1.01-0.41,0.81-1.52C142.64,267.85,142.13,268.15,142.53,268.97z"/> <path d="M74.01,267.04c-0.26,1.04-0.24,0.68,0.71,1.32C75.12,267.57,74.6,267.62,74.01,267.04z"/> <path d="M145.57,264.1c-2.06,2.06,1.31,1.38,0.61,0.2C146.08,264.1,145.68,264,145.57,264.1z"/> <path d="M71.07,263.9c-0.2,0.51,0.51,1.32,1.01,1.11C72.71,265.01,71.91,263.06,71.07,263.9z"/> <path d="M112.43,275.25h0.1C112.53,273.99,112.43,274.77,112.43,275.25z"/> <path d="M172.54,214.33c-0.1,0.1-0.2,0.1-0.3,0.2C172.13,214.64,172.54,215.26,172.54,214.33z"/> <path d="M44.52,214.13c0-0.2,0-0.3,0.1-0.51c-0.1,0.1-0.2,0.1-0.2,0.1C44.42,213.83,44.52,213.93,44.52,214.13z"/> <path d="M114.36,234.5c-1.53,0.59-2.55,1.82-3.45,3.14c-0.41,0.6-0.41,1.42,0.81,2.23c1.32-1.72,3.85-2.23,4.76-4.26
		C115.27,234.3,115.16,234.19,114.36,234.5z"/> <path d="M113.44,213.12c-1.03-6.88-1.04-5.73-2.13-6.39c-0.41,2.94,0.3,5.37,1.01,7.8C113.24,214.33,113.55,213.82,113.44,213.12z"/> <path d="M101.79,190.41c-1,0.73-2.13,1.42-1.32,3.14c1.93-1.01,3.45-2.33,4.97-3.95C103.71,188.59,102.72,189.72,101.79,190.41z"/> <path d="M88.1,240.08c0.1,1.11-0.3,2.43,1.42,3.65C89.3,240.82,89.41,239.42,88.1,240.08z"/> <path d="M139.39,234.3c-0.51,1.11-1.01,1.93,0.3,2.84C140.12,234.18,139.82,235.15,139.39,234.3z"/> <path d="M94.08,198.92c-1.44,0.72-0.88,1.72-0.71,1.72c0.83,0.1,1.22-0.86,1.22-1.62C94.18,199.03,93.98,199.03,94.08,198.92z"/> <path d="M97.12,196.8c0,0.29,1.46-0.04,0.61-1.32C97.02,195.68,96.62,196.09,97.12,196.8z"/> <path d="M112.13,202.78c-0.1-0.2-0.2-0.3-0.2-0.61c-0.1,0.1-0.3,0.1-0.3,0.2c0,0.2,0.1,0.41,0.1,0.61
		C111.82,202.98,112.02,202.88,112.13,202.78z"/> <path d="M86.08,233.69c0,0.2,0.1,0.41,0.1,0.61c0.54-0.54,0.51,0.01,0.1-0.81C86.28,233.49,86.08,233.59,86.08,233.69z"/> <path d="M141.11,228.83c-0.1-0.1-0.1-0.2-0.2-0.2c0,0.1-0.2,0.3-0.2,0.51C140.99,229.41,140.82,229.42,141.11,228.83z"/> <path d="M91.45,178.96c5.07-0.9,7.58-3.46,11.45-6.59c0.5-0.41,0.61-1.01,0-1.52c-1.82,0.3-3.67,0.8-4.87,2.33
		c-1.65,2.11-4.87,0.91-6.49,3.14c-0.97,0.97-12.49-0.55-13.79,0.61C78.02,180.03,88.3,179.52,91.45,178.96z"/> <path d="M124.9,178.65c9.18,0.61,13.63-1.01,18.35-4.26c0-0.61,0-1.32,0-2.33c-1.9,0.85-10.94,4.9-12.57,4.87
		c-5.87-0.12-5.97-0.79-8.31-0.2C122.77,178.15,123.68,178.65,124.9,178.65z"/> <path d="M69.15,173.99c0.45,2.12,4.43,3.64,6.39,2.74c0.3-0.2,0.41-0.51,0.81-1.11c-1.62-0.3-2.64-0.38-3.65-0.61
		C71.47,174.73,70.57,173.69,69.15,173.99z"/> <path d="M121.25,176.63c-1.22-0.91-2.03-1.52-3.14-1.11C119.02,177.44,119.02,177.44,121.25,176.63z"/> <path d="M106.25,167.1c0.41-0.41,0.51-0.91,0.71-1.42c-0.2-0.2-0.41-0.41-0.61-0.51c-0.9,0.54-1.8,0.86-1.32,1.82
		C105.33,167.6,105.94,167.4,106.25,167.1z"/> <path d="M115.57,173.48c-0.46-0.92-0.43-0.41-0.91-0.41C115.12,173.99,115.1,173.48,115.57,173.48z"/> <path d="M98.64,454.96c3.2-13.46,3.24-12.01,3.24-14.19c0-1.64-1.85-1.83-2.33-0.41c-1.06,4.04-4.01,12.19-2.03,15.91
		C97.94,455.67,98.34,455.37,98.64,454.96z"/> <path d="M92.87,427.8c1.52-0.51,1.72-0.61,1.93-1.22c0.91-3.55,1.72-6.99,1.52-10.64c0-1.22-0.68-1.2-1.01-1.42
		c-0.1,0.91,0.01,1.83-0.41,2.53c-1.58,2.66-1.26,5.8-2.13,8.62C92.58,426.28,92.77,427.09,92.87,427.8z"/> <path d="M102.19,521.76c0.3-0.51,0.71-0.91,0.71-1.32c0.1-1.22,0.3-2.53-0.81-3.45C100.77,518.72,100.77,518.72,102.19,521.76z"/> <path d="M97.73,457.6c-1.62,1.22-1.72,1.82-0.51,3.85C98.14,460.23,97.94,459.02,97.73,457.6z"/> <path d="M101.08,511.32c-0.71,1.22-0.61,2.23,0.41,3.24C101.89,512.53,101.89,512.53,101.08,511.32z"/> <path d="M96.72,472.5c0.34-0.34,0.47-0.34,0-0.81C96.48,472.4,96.43,472.21,96.72,472.5z"/> <path d="M97.02,475.03c0-0.1-0.1-0.2-0.1-0.3C96.31,474.73,96.81,475.86,97.02,475.03z"/> <path d="M96.72,465.6c0.13,0.26,0.07,0.26,0.2,0H96.72z"/> <path d="M127.63,455.37c0.79-3.95-2.39-14.56-3.34-17.03c-1.16,1.93-1.26-1.83,2.13,16.12
		C126.53,455.06,126.82,455.37,127.63,455.37z"/> <path d="M131.79,427.39c0.51,0,1.01-0.41,1.82-0.81c-2.84-1.72-3.55-4.56-5.27-6.69C125.64,421.09,129.19,426.87,131.79,427.39z"/> <path d="M118.31,364.04c0.45-2.75,0.41-3.95-0.81-6.28c-0.3,2.84-0.51,5.37-0.71,7.8C118.11,365.56,118.19,364.75,118.31,364.04z"/> <path d="M126.72,459.22c-1.16,0-1.66,2.98,0.61,4.97C128.35,461.57,127.92,459.22,126.72,459.22z"/> <path d="M138.78,527.03c0.41-1.22,0.51-2.43-0.3-4.05c-1.11,1.22-0.81,2.33-0.71,3.34C137.77,526.83,138.07,527.23,138.78,527.03z"/> <path d="M127.43,479.79c-0.2,0.2-0.41,0.3-0.71,0.41c-1.69,2.96,3.3,2.77,1.32-0.2C127.94,479.9,127.63,479.9,127.43,479.79z"/> <path d="M119.22,353.3c-1.11,0.91-1.11,0.91-0.71,2.53C119.52,355.02,119.52,355.02,119.22,353.3z"/> <path d="M127.13,475.23c-0.61,0.81-0.61,1.52,0.51,2.03C129.56,475.82,127.47,474.55,127.13,475.23z"/> <path d="M127.23,468.14c0,0.81,0,1.42,0,2.13C128.44,469.05,128.44,469.05,127.23,468.14z"/> <path d="M139.29,512.94c-0.24,0.47-0.61,0.51,0.2,1.32C139.88,513.48,139.89,513.54,139.29,512.94z"/> <path d="M120.23,350.15c-0.1-0.2-0.2-0.41-0.3-0.61c-0.4,0.4-0.1,0.25-0.1,0.81C119.93,350.36,120.13,350.26,120.23,350.15z"/> <path d="M104.93,115.71c0.81-1.72,0.51-3.14-0.71-4.97c-0.41,0.61-0.81,0.91-0.71,1.22C103.87,115.87,104.11,115.3,104.93,115.71z"/> <path d="M115.17,114.9c0.71-2.23,0.71-2.23,0.2-4.26C113.8,111.73,113.52,115.45,115.17,114.9z"/> <path d="M97.23,94.32c-0.51-1.93-0.71-3.45-1.93-4.56C95.81,91.28,95.4,93.1,97.23,94.32z"/> <path d="M119.52,87.02c-0.54,0-0.41-0.34-0.41,2.23C119.66,89.25,119.52,89.65,119.52,87.02z"/> <path d="M118.41,95.13c-0.13,0.25-0.16,0.17,0.1,0.3L118.41,95.13z"/> <path d="M93.88,48.3c1.82,0.71,1.83,0.71,2.13-0.71c0.21-1.01,0.51-1.11,2.13-1.01c4.39,0-4.28-7.1-8.41-3.24
		c0.51,0,1.11,0.1,2.13,0.1c-3.6,2.16-2.61,1.73-3.45,2.23c1.42,2.03,2.33-0.2,3.55-0.2c0.81,0.61,1.62,1.32,2.43,1.93
		C94.18,47.7,94.08,48,93.88,48.3z"/> <path d="M98.64,69.18c17.28,0,14.65,0.07,16.62-0.91c-10.57-1.84-8.79-2.39-17.64,0.2C98.04,68.78,98.34,69.18,98.64,69.18z"/> <path d="M121.96,43.03c-8.5-2.65-9.06-0.96-11.76,2.64c-0.1,0.1,0,0.41,0,0.61c1.01,0.61,1.62-0.51,2.23-0.61
		c1.11,0.3,2.03,0.6,2.94,0.81c1.32,0.3,1.82-1.22,2.84-1.42c1.62,0.51,1.62,0.51,3.45,0.2c-1.72-0.91-3.14-1.52-4.66-2.33
		C118.71,42.02,119.93,43.74,121.96,43.03z"/> <path d="M99.35,72.02c5.25,4.11,11.61,2.57,12.67-0.71C107.87,73.34,103.81,72.53,99.35,72.02z"/> <path d="M122.26,38.67c0.81,0-0.55-1.32-2.74-1.32c-3.06,0-12.99-0.29-11.35,2.33C114.05,38.95,117.76,37.52,122.26,38.67z"/> <path d="M100.17,39.89c-3.75-2.53-7.91-3.45-12.37-1.42C92.06,38.17,96.11,38.67,100.17,39.89z"/> <path d="M120.34,13.44l-0.1-0.1C120.23,13.61,120.21,13.53,120.34,13.44z"/> <path d="M119.59,16.39c-0.28,0.77-0.48,1.55-0.77,2.52c0.71,0.2,1.42,0.3,2.23,0.51c0.23-2.33,0.2-1.03,0.2-4.87
		c-0.2,0.1-0.61,0.2-0.91,0.3c-0.28,0.69-0.58,1.04-0.74,1.52c-0.1,0,0.68-1.52,0.74-1.62c-0.14,0.14-0.1,0.36-0.1-1.23
		c-2.45,2.18-3.34,3.68-3.14,5.28C118.4,18.5,118.22,16.63,119.59,16.39z"/> <path d="M109.9,60.47c-1.01-1.72-1.32-1.72-2.64-0.3C108.07,60.77,108.98,61.18,109.9,60.47z"/> <path d="M110.61,57.12c0.3,1.11,0.61,1.93,0.81,2.64C112.02,58.44,112.02,58.44,110.61,57.12z"/> <path d="M104.73,60.06c-1.92-0.27-1.37-0.47-2.03,0.51C104.33,61.38,103.92,60.86,104.73,60.06z"/> <path d="M98.04,20.53c0-0.71-0.3-1.11-0.91-1.11C97.12,19.92,97.23,20.43,98.04,20.53z"/> <path d="M123.98,35.84c-0.66-0.66-0.59-0.53-0.81-0.3c0.1,0.3,0.3,0.51,0.41,0.81C123.68,36.24,123.78,36.04,123.98,35.84z"/> <path d="M89.72,43.24c-0.41,0.2-0.81,0.2-1.42,0.2C89.12,44.15,89.52,43.95,89.72,43.24z"/> <path d="M108.33,42.67c-0.34,0.11-0.61,0.33-0.16,0.87C108.17,43.19,108.25,42.93,108.33,42.67z"/> <path d="M108.48,42.47c-0.1,0.07-0.11,0.02-0.14,0.2C108.51,42.6,108.48,42.69,108.48,42.47z"/> <path d="M108.88,42.12c0.1-0.1-0.41-1.18-0.41,0.34C108.64,42.38,108.8,42.29,108.88,42.12z"/> <path d="M107.06,57.83c-0.1,0-0.2-0.1-0.3-0.1s-0.2,0.1-0.3,0.1C106.65,58.03,106.53,58.36,107.06,57.83z"/> <path d="M101.08,57.93v0.03C101.12,57.85,101.14,57.81,101.08,57.93z"/> <path d="M115.98,47.59c0.1-0.1,0.2-0.1,0.3-0.1c0,0,0-0.1,0-0.2C116.12,47.29,115.98,46.97,115.98,47.59z"/> <path d="M100.77,45.77c0-0.76-0.74-0.88-0.2,0.2C100.67,45.87,100.77,45.77,100.77,45.77z"/> <path d="M87.9,21.54c-0.37,0-0.1,0.26-0.1,0.51C87.8,21.75,87.9,21.65,87.9,21.54z"/> <path d="M110.61,60.47c-0.16,0.08-0.4,0.09-0.64,0.1C110.23,60.93,110.42,60.83,110.61,60.47z"/> <path d="M109.79,60.57c0.06,0,0.12,0,0.17,0C109.87,60.44,109.91,60.45,109.79,60.57z"/> <path d="M101.18,60.87c0,0,0.1,0,0.2,0C100.79,60.59,100.94,60.74,101.18,60.87z"/> <path d="M110.71,60.57c-0.01-0.04,0-0.06,0-0.09C110.58,60.48,110.56,60.43,110.71,60.57z"/> <path d="M110.71,60.48c0.44,0.05,0.7-0.15,0.61-0.72C110.94,59.76,110.66,59.95,110.71,60.48z"/> <path d="M100.98,60.57C100.57,60.16,100.98,60.67,100.98,60.57L100.98,60.57z"/> <path d="M100.85,58.35c-0.07,0.02-0.09,0.09-0.18,0.09C100.73,58.44,100.79,58.4,100.85,58.35z"/> <path d="M101.08,58.29c0-0.67,0.04-0.13-0.22,0.06C101.29,58.35,101.19,58.34,101.08,58.29z"/> <path d="M133.82,567.07c-2.45-1.03-11.39-0.99-11.76-0.81c-2.5,0.56-1.68,3.65-0.1,3.65c0.16,0.01,9.78,0.44,11.76-0.51
		C134.82,568.87,134.82,567.49,133.82,567.07z"/> <path d="M123.68,572.44c-1.6-0.03-2.27,2.06-1.12,2.94c1.66,1.27,13.05,1.6,8.82-2.64C131.38,572.53,127.87,572.53,123.68,572.44z"/> <path d="M103.51,560.58c-2.35-0.53-9.96-1.39-12.16-1.62c-1.74-0.35-3.76-0.47-3.95,1.42c-0.21,2.06,2.14,2.34,10.54,3.34
		c0-0.59,4.6,0.22,5.57-0.51C105.37,561.82,104.05,560.7,103.51,560.58z"/> <path d="M102.19,565.65c-0.7-0.28-8.58-1-11.86-0.81c-0.71,0.1-1.42,0.91-1.32,1.62c0.1,0.51,0.51,1.01,0.81,1.52
		c0.74,0.74,7.9,1.29,12.16,0.51C103.4,568.33,104.04,566.75,102.19,565.65z"/> <path d="M91.75,570.11c-2.9-0.41-3.39,1.85-2.43,2.53c2.16,2.16,13.83,1.97,10.14-1.72C99,570.47,92.05,570.12,91.75,570.11z"/> <path d="M97.12,309.41c-0.1-0.41-0.1-0.91-0.3-1.11c-2.29-1.83-6.44-1.06-4.97,0.71C93.48,309.31,95.2,310.22,97.12,309.41z"/> <path d="M126.01,309.41c-0.41-0.71-0.51-1.22-0.61-1.32c-2.64-1.48-5.74,0.95-5.07,1.62C120.75,310.53,120.93,310.48,126.01,309.41
		z"/> <path d="M111.42,5.93c0.03-0.03,0.06-0.08,0.09-0.12C111.46,5.84,111.42,5.87,111.42,5.93z"/> <path d="M111.62,5.73c0.1,0,0.25-0.44-0.11,0.08C111.54,5.79,111.58,5.77,111.62,5.73z"/> </g> </svg> 