<?xml version="1.0" encoding="utf-8"?> <!-- Generator: Adobe Illustrator 23.0.1, SVG Export Plug-In . SVG Version: 6.00 Build 0)  --> <svg version="1.2" baseProfile="tiny" id="Layer_1" xmlns="http://www.w3.org/2000/svg" xmlns:xlink="http://www.w3.org/1999/xlink" x="0px" y="0px" viewBox="0 0 900 600" xml:space="preserve"> <g> <path d="M561.68,19.91l-0.1-0.1C561.61,19.92,561.56,19.95,561.68,19.91z"/> <path d="M538.54,32.53l0.1-0.1C538.44,32.43,538.52,32.41,538.54,32.53z"/> <path d="M550.66,15.8l-0.1,0.1C550.61,15.9,550.64,15.85,550.66,15.8z"/> <path d="M558.78,455.19C558.86,454.52,558.18,456.45,558.78,455.19L558.78,455.19z"/> <path d="M772.59,81.5c-1.81,0.36-1.41-0.21-0.65,4.03c-1.4-0.99-1.98-2.31-2.55-3.83c0.6-0.4,1-0.6,1.4-0.9
		c-0.2-1.9-0.9-3.4-2.5-4.61c-5.55,0-6.66-3.76-10.01-0.7c-1.76,1.61-6.37,4.25-9.21,6.91c-3.74,3.5-8.81,3.81-9.71,4.71
		c-1.86,1.86-12.03,2.5-15.62,3.51c-1-0.9-0.73-1.81-0.3-2.8c1.19-2.77,1.46-8.45-2-10.82c-1.01-0.69-1.9,0.2-2.8,0.2
		c-1.3-1-1.7-2.6-2.7-4.11c-4.61-1.32-5.33-6.49-9.61-5.11c-3.53,1.14-4.89,0.21-8.41,1.3c-11.8,3.65-16.42,6.53-24.14,6.81
		c-7.01,0.25-9.01,5.21-13.92,5.21c-3.15,0-8.64,0.53-11.82,0.8c-22.95,1.95-31.24-1.01-43.76,4.01c-4.64,1.86-9.13,4.24-10.62,4.21
		c-3.55-0.07-7.61,1.67-13.12,2.2c-10.24,0.98-12.12,0.85-11.62-2c0.52-2.93-1.05-8.44,0-12.12c1.8,0,9.45,2.32,15.72-0.6
		c4.73-2.2,2.23-7.12,1.9-8.41c0.4-0.9,1.1-1.6,1.1-2.4c0-1.1-0.6-2.1-0.9-3.3c2.21-1.52,1.16-3.32,0.7-7.01
		c2.99-1.66,4.92-3.44,3.3-6.51c-1.59-2.65-2.54-1.7-4.51-9.01c0.7-0.6,1.2-1.1,1.7-1.6c-0.6-0.3-1.1-0.6-1.7-1
		c0.85-1.36,1.97-2.59,2.2-4.61c0.67-5.89-1.34-7.86-2.8-11.32c-2.87-6.77-4-9.96-6.31-12.12c-6.55-6.1-8.58-4.76-11.32-5.81
		c-8.76-3.34-18.26-4.14-28.44-1.8c-4.02,0.92-5.14,2.05-14.62,10.62c-3.2-0.3-6.51-0.6-9.61-0.8c-5.1,5.52-8.27,9.02-10.82,16.02
		c-4.71,12.95-4.06,26.91-2.7,29.54c2.52,4.89,3.53,15.24,4.71,26.84c0.95,9.32-2.44,10.95-1.6,14.52c0.2,0.84,0.16-1.09-2.9,10.72
		c-3.25,12.53,0.36,23.72,0.8,27.54c2.36,20.3,8.49,29,17.63,47.27c6.13,12.26,0.27,38.66-3,46.07
		c-4.46,10.08-11.01,15.11-16.32,25.14c-0.61,1.14-4.6,9.15-4.91,9.61c-7.54,11.39-10.94,37.4-3.3,53.98
		c5.07,11.01,1.25,9.48,7.11,30.84c4.85,17.7,4.92,17.15,5.11,19.03c1.06,10.76,4.76,18.32,7.21,25.54
		c9.08,26.72-17.4,51.57-15.22,83.82c0.89,13.18,0.29,20.6,4.61,33.65c1.1,3.32,0.87,10.09,1.7,14.72
		c1.57,8.72-0.26,12.77,0.5,16.92c0.3,2.6,0.4,5.21-1.8,7.21c-0.7,0-1.3,0-1.9,0c0.3-1.48,2.44-2.09,2-3.4
		c-0.67-2.67-6.96,1.89-7.11,8.61c-0.04,1.99-0.82,3.34-3.2,10.21c-6.55,18.9-3.29,13.58-5.61,20.23c-0.21,0.6,0,1.4,0,1.9
		c6.39,2.35,12.02,4.69,18.53,4.41c1.25-0.06,26.92,9.61,47.27,5.21c13.33-2.88,15.87-1.38,20.73-8.51c1.3-1.91-0.5-2.7,0.4-4.51
		c0.7-1.8,0.5-3.61-0.5-5.41c-4.69-3.05-9.27,1.26-21.83-11.72c-4.33-4.47-3.85-7.58-8.81-10.32c7.48-7.48,2.91-5.02,7.71-12.22
		c1.23,2.87,0.05,4.43,4.81,8.41c4.1,3.44,5.89,0.47,18.73-7.11c0-0.8-0.1-1.4-0.1-2.1c1.8-1.6,3-4.01,5.41-5.31
		c1.6,0.9,1.5,2.8,2.4,4.11c0.8,1.3,2.3,2.2,2.9,3.91c-0.52,0.09-3.74,0.22-6.11,1.8c-1.56,0.87-1.2,3.78,1.4,2.8
		c0.14-0.05,5.65-2.32,6.41-2.7c1.5,1.3,1.5,1.3,1.9,2.6c-2.93,0.78-5.84,0.99-5.41,2.7c0.54,2.17,5.54,0.69,8.11,0.1
		c5.36,2.98-3.05,2.04-2.3,5.01c0.53,2.12,4.59,0,6.71,0c2.63,4.6-1.44-0.75,12.22,4.71c1.94,0.78,3.2,1.68,5.71,1.5
		c3.91-0.28,7.61,1,11.42,1.3c0.8,0,1.6,0.6,2.4,0.9c0.8,3,1.5,6.01,2.3,8.91c-11.29,8.11-12.9,7.11-18.63,7.11
		c-26.5,0-8.52,1.8-25.34-1c-2.7-0.7-5.41-0.6-8.11-0.5c-0.4,0.1-0.8,0.4-1.4,0.6c0.8,1.6,1.81,2.72,3.2,2.3
		c2.79-0.83,28.87,7.45,38.96,1c1.16-0.74,5.62-0.07,13.02-7.71c-0.7-2.6-0.68-2.6-0.3-5.91c0.42-3.7-0.9-7.11-4.91-8.01
		c-0.1,0-8.36-1.58-11.02-1.4c-2.97,0.2-2.64,0.2-14.82-4.41c-1.81-0.91-2.46-2.32-4.91-5.51
		c32.22-82.84,145.09-385.72,158.73-414.3c18.92-39.66,15.45-27.94,18.03-36.65c1.74-5.89,4.81-5.52,5.41-8.51
		C777.84,88.56,775.4,89,772.59,81.5z M746.75,88.81c0.39-3.33,3.29-3.13,5.91-3.61c4.93,3.48,4.75,3.5,5.51,4.51
		c2.65,3.97,0.5,7.24-2.8,7.61c-1.7-0.85,0.23-2.44,1.4-5.01c0.3-0.4,0.2-1.1,0.3-2.4c-1.9,2.6-2.4,5.21-5.21,6.31
		C746.97,94.26,746.24,93.19,746.75,88.81z M754.36,104.63c-0.2-1.9-0.3-3.81,1.3-5.51c2.4,1.5,4.51,3.4,7.41,3.81
		c-0.2,1-0.3,1.7-0.5,2.6C759.67,106.43,757.06,106.33,754.36,104.63z M760.07,108.64c-2.4,5.61-4.81,11.22-7.41,17.23
		c-0.3-5.61,0.4-14.52,1.3-18.63C755.96,107.63,757.96,108.14,760.07,108.64z M724.12,93.01c1.07,0.42,0.85,0.47,16.62-3.3
		c1.08-0.14,1.15-0.33,3.4-2.2c0.99,2.47-0.01-1.75-0.4,8.51c-1.9,1.5-4.51,1.4-6.91,3.1c3.06,0,0.34,0.41,6.51-1.4
		c0.06,0.51,0.95,4.13-1.5,3.91c-8.03-0.72-20.9,10.62-35.25,12.42c0.09-0.1,10.44-13.22,10.52-13.32
		C721.52,94.91,721.6,92.03,724.12,93.01z M719.81,78.49c0.4,0.6,0.7,1.1,1,1.4C720.01,79.99,719.41,79.89,719.81,78.49z
		 M574.3,15.8c-0.3,2.4-2.42-1.27-2.7-1.6c-0.48-0.67-1.39-0.89-1.48-1.77C572.11,12.88,572.92,14.72,574.3,15.8z M569.95,12.32
		c-0.6,0.12-1.1-0.06-1.39-0.62C569.15,11.7,569.66,11.76,569.95,12.32z M569.19,7.39c-1.9,0.1-2,0.1-6.81-2.5
		C565.18,5.39,567.29,5.69,569.19,7.39z M568.31,11.51c-0.56-0.27-1.18-0.54-1.82-0.72C567.41,10.51,567.99,10.83,568.31,11.51z
		 M563.88,11.19l0.3-0.1C564.18,11.35,564.26,11.32,563.88,11.19z M561.28,4.58c-0.14,0-0.4,0.06-0.4-0.1
		C561.24,4.48,561.15,4.46,561.28,4.58z M557.97,3.68c0.74,0,0,0.2-0.1,0.3c-0.1,0-0.1-0.1-0.2-0.2
		C557.77,3.78,557.87,3.68,557.97,3.68z M557.57,4.99c1.61,0,0.11,0.8,2.8,0.8c0,0.46,0.28,0.28-1.6-0.1
		c-2.51-0.28-2.29,0.13-4.18-0.7C555.59,4.99,556.58,4.99,557.57,4.99z M554.77,7.39c-1.08,0.4,0.08,0.3-6.01,0.3
		C548.76,7.29,548.67,7.39,554.77,7.39z M554.1,4.89c-3.82,0-7.63,0-11.45,0C545.05,4.41,552.03,3.61,554.1,4.89z M537.04,7.09
		c1.4-1.1,3.1-1.4,4.91-0.9c0,1.76,0.4,1.24-2,2.3c14.85,1.35,13.68-0.25,15.92,2.3c1.19-0.59,0.36-1.12,4.61,0.5
		c3.02,1.15,6.11,2.5,9.11,4.21c-0.2,0.5-0.5,0.9-0.7,1.3c2.06,0,0.97-0.91,5.21,1.4c0.1-0.06,2.44-1.5,2.5-1.4
		c0.9,0.6,1.8,0.5,2.6-0.3c5.29,1.44,3.69,8.08,7.51,15.42c2.41,4.62-4.27,2.27-2.6,9.51c1.86,8.07,6.5,10.3,5.01,12.02
		c-2.6,3.01-4.07-1.87-6.21,2.1c0.4,1,1.4,0.3,2,0.7c0.5,1.5,1.1,3.1,1.6,4.71c-1.31,2.45-3.84,1.9-7.61,1.9c-0.4,1,0.2,1.3,0.8,1.4
		c4.14,0.38,5.32-0.66,6.61,2.1c-3.29,3.76-1.93,2.1-1.2,5.01c0.59,2.36,0.4,4.54-2,5.01c-11.06,2.17-5.59-0.3-13.92,0.6
		c-5.26,0.57-2.65,10.48-1.9,15.72c-2.7,0.6-5.21,0.5-7.41-0.5c-4.04-1.83-17.24-4.85-26.54-3.71c-0.1,0.1-0.2-0.1-0.5-0.3
		c2.58-10.83,1.96-9.03,1.4-20.23c0.9-1.9,3.91-1.6,3.41-4.31c-1-0.1-2.01-0.09-2.9-0.3c-2.6-0.61-2.89-2.13-2.2,0.6
		c-1.67-0.69-2.18-1.48-2.58-4.76c10.35,3.97,5.37-0.38,10.09,5.76c3.24-0.81,5.3-0.33,4.51-3.91c-1.3-0.3-1.1,1.7-2.3,1.4
		c-1.1-0.1-2.02-0.69-2.7-1.6c-8.44-11.28-6.87-9.39-7.21-10.42c0.9-1.3,1.8,0.2,2.8,0.1c0.2,0.8,0.2,1.7,0.5,2.5
		c0.58,2.18,2.93,3.98,4.21,2.7c1.1-1.1-2.3-2.15-2.3-6.71c0.7-0.9,1.4-1.9,2.3-3c1.78,1.78,1.42,1.19-0.2,4.11
		c0.7,1.7,1.5,3.51,2.2,5.31c5.28-2.97,0.7-4.11-0.2-5.21c2.14-4.28-0.33-5.7-3.71-8.01c-3.01-2.06-3.76,4.74-4.91,5.31
		c-0.8-2.39,0.92-5.3,2.9-6.91c2.99-2.43,4.72,1.07,5.71,2.1c2.93,3.06,5.77,4.11,8.11,0.6c-2.39,0-2.09,0.44-4.71,0
		c6.96-2.68-1.53,1.65,13.22-8.61c-0.8-1.2,0.2-2,0.3-3c0.2-1.2,1.4-1.3,1.9-2.1c0.49-3.26,1.95-6.34,1.12-9.69
		c-2.37,0.86-4.66,0.27-7.03-0.22c-0.2-0.1-0.4-0.5-0.7-1c3.62,0,3.81,0.68,6.11-0.5c5.02-2.59,6.38,2.44,9.11-1.2
		c-3.6-2.96-6.63-3.12-13.32-6.21c-0.1,0.7-0.6,0.9-1.2,0.9c-7.69,0,3.17,1.88-19.23-2.6C535.34,7.89,536.34,7.49,537.04,7.09z
		 M517.41,91.91c-1.1,0.5-1.9,0.9-2.9,1.3c-1.43-3.58,1.35-25.69-1.6-28.54c-0.32-0.31-0.29,0.26-0.8-13.22
		c-0.36-9.38,1.7-13.59,3.81-17.93c0.1-0.2,0.5-0.4,1-0.7c0.9,3.61,0.1,7.31,1.1,11.32c0.95-3.65-2.04-7.74,0.8-13.42
		c1.19,19.12,2.74,14.67,3.3,21.43c0,2.03-1.37,9.75-0.3,18.53c0.28,2.31,0.1,4.71,0,7.01c-0.1,0.6-0.1,1.2-1,1.5
		c-0.99-13.61,0.36-35.32-1-27.14c-2.4,27.52,2.31,31.35-0.4,35.95c-2.55-7.65-1.06-30.68-2-37.76
		C516.36,58.43,515.39,81.91,517.41,91.91z M521.72,34.03c0.78-1.09,3.11,0.92,6.01,1.1c4.61,0.29,8.91,2,13.52,2.5
		c-0.25,2.71-3.25-0.34-5.41,0.9c-6.34,3.63-3.24,7.47-5.21,10.62c-1.1,1.46,3.46,5.73,3.69,7.7c-4.09-1.79-4.4-2-6.49-4.6
		c4.59,0-4.33-2.39-5.71-10.42c1.3-0.4,2.2,1.5,3.71,0.6c-1.7-1.2-3.61-2.3-4.31-4.41c-0.1-0.1,0.2-0.4,0.3-0.7
		c2.5,1.4,4.91,3.3,8.11,2.9C525.78,38.16,522.61,37.15,521.72,34.03z M534.34,56.96c0.8,0.6,1.8,1.1,1.8,2.6
		c-2.2-0.2-4.11-0.8-5.71-2.1c-0.26-0.26-0.3-0.72-0.43-1.1c1.01,0.37,2.03,0.73,3.13,1C533.71,57.36,534.34,56.73,534.34,56.96z
		 M527.13,54.36c0.6-0.4,0.5,0,0.5,0.4c1.23-0.28,1.65,0.59,2.03,1.36C526.32,55.59,528.44,55.01,527.13,54.36z M523.22,79.69
		c0-2.44,1.78-0.77,0.8-7.51c-0.76-5.21-1-10.52-0.7-16.22c1.8,2.4,1.4,5.31,3.3,7.51c0.1-1.1,0.2-2,0.4-3.61
		c2.14,4.52,2.39,5.18,1.9,6.41c-0.3,0.9,0.4,1.2,0.9,1.7c-0.2,0.6-0.5,1.1-0.8,1.6c0.4,0.1,0.6,0.3,0.7,0.3
		c1.7-0.6,2.28-0.5,2.3,0.9c0.22,15.2-0.07,16.14-10.72,20.13c-0.2,0.1-0.6-0.2-1.1-0.3C522.22,87.1,522.82,83.3,523.22,79.69z
		 M537.44,44.44c0.2-0.2,0.8,0.2,1.4,0.3c-0.8,1.6-1.7,2.6-3,3.3C535.54,46.55,536.34,45.34,537.44,44.44z M547.66,40.14
		c0,0.27,0.33,0.2-2.7,0.2C544.95,40.06,544.63,40.14,547.66,40.14z M554.17,27.82c-0.4-0.1-0.7-0.5-1.2-0.7c-0.7,0-1.5,0-2.5-0.1
		c2.15-1.95,0.93,2.12,6.81-1.5c0.8-0.4,0.9-0.4,3-0.3c-0.2,0.5-0.3,1-0.6,1.2C557.97,27.42,556.17,27.92,554.17,27.82z
		 M557.77,17.9c0.2,0,0.23-0.27,0.6,0.1c-0.1,0-0.2,0.1-0.3,0.1C557.97,18,557.97,17.9,557.77,17.9z M557.58,13.13
		c0.43,0.07,0.89,0.08,1.49,0.17C558.35,13.75,557.95,13.55,557.58,13.13z M557.31,12.99c-0.47-0.02-1.02-0.1-1.74-0.19
		C556.5,12.33,557,12.48,557.31,12.99z M524.72,21.91c6.3,3.98,10.44,4.95,14.42,5.31c-1.88-1.76-10.7-3.79-14.02-7.11
		c0.2-1.3,0.9-1.3,1.7-1.2c-0.5-0.4-0.9-0.9-1.5-1.4c1.8-2.8,4.41-4.61,6.71-6.51c24.27,1.94,23.61,2.18,24.5,3.51
		c-0.9,0-1.79,0.01-2.69,0.09c0.71,1.07,1.86,0.62,2.83,0.81c0-0.23-0.25-0.36,1.7,1.1c-2.79-0.2-5.28-0.4-7.77-0.6
		c-0.51,0.96-1.37,0.67-2.14,0.5c-4.56-1.02-19.24-5.47-18.23-1.4c0.1,0.3,0.7,0.8,1,0.8c4.22-0.34,17.38,2.27,21.23,4.11
		c-1.92,0.82-1.9,0.24-1.9,2.4c10.72,1.79,10.32-5.18,10.32,0.7c-0.9,0.2-1.7,0.5-2.5,0.4c-5.6-0.72-9.93,6.19-24.14-1.3
		c-0.42-0.22-2.78-1.15-2.83-0.86c-0.3-0.62-0.94-0.65-1.51-0.73c-0.32-0.69-0.98-0.61-1.55-0.71c0.21,0.08,2.33,1.05,3.06,1.48
		c-0.25,1.11-0.2,1.14,0.84,1.52c12.31,5.75,11.04,4.01,17.23,5.91c-3.75,1.64-4.64,1.86-11.52,1.4c1.07,1.19,5.65,1.26,7.51,2.6
		c1.63,1.17,7.05-0.31,9.01-0.7c0.33,1,0.09,1.08-6.61,2.8c-4.6,1.18-4.76,2.21-9.71,0.9c-14.39-3.8-10.18-3.72-11.22-2
		c-1.09-0.22-2.36-1.11-4.71-2.6c-0.2-2.2-0.1-4.01,0.7-6.21c1.4,0.8,12.28,7.51,15.58,7.51c-0.36-1.08-1.68-1.03-2.36-2
		c0.7-0.1,1.3-0.1,1.9-0.2c-3.28-2.34-4.44-0.48-8.01-2.4c-7.75-4.18-6.73-4.67-6.11-5.91C524.32,21.91,524.52,21.81,524.72,21.91z
		 M519.42,14.8c0.1,0,0.1,0.1,0.2,0.2c-0.2,0.1-0.4,0.2-0.7,0.3C518.78,14.9,518.47,14.8,519.42,14.8z M518.01,19.11
		c-0.26,0.18-0.46,0.36-0.7,0.6C517.27,19.28,517.55,19.02,518.01,19.11z M517.22,19.81c-0.1,0,0.13,0.7-0.71,0.7
		c-0.89,2.66-3.52,4.08-6.21,11.32c-0.9,1.81-0.7-5.03,5.21-11.12c0.2-0.2,0.7-0.1,1-0.2C516.51,19.95,516.78,19.75,517.22,19.81z
		 M505.2,58.26c-4.57-22.84,8.22-43.79,10.42-39.96c-3.94,5.91-11.62,11.77-8.41,39.16c0.38,3.21,0.4,6.41,1,9.61
		c1.63-11.43-0.51-21.01,3.2-33.75c1.21-4.15,6.71-15.52,11.22-14.92c-0.5-0.8-0.9-1.6-1.4-2.4c1.1-0.7,1.1-0.7,2.4-0.5
		c0.08,0.87-1.74,5-3.1,6.51c-5.11,4.41-2.51,7.48-4.51,9.81c-9.51,11.14-2.02,28.63-7.31,49.77
		C507.13,72.16,509.04,77.49,505.2,58.26z M509.76,32.5c-0.06,0.25-0.08,0.5-0.16,0.83C509.16,32.89,509.42,32.68,509.76,32.5z
		 M511.31,94.01c-0.21,1.1-0.9,1.6-2.3,1.4c-0.2-3.71,1.9-6.81,2.6-10.21C512.21,88.21,511.87,91.1,511.31,94.01z M520.42,176.23
		c-1.87-3.29-5.63-8.57-7.41-13.62c2.52-0.63,5.48,2.42,14.92-2.3c6.96-3.48,7.91-8.18,10.52-7.81c5.26-13.16,8.62-7.04,10.11-26.54
		c1.39-0.17,16.59-0.5,17.43,0c2.5,1.2,5.31,1.19,7.81,2.1c4.93,1.8,11.91,2.36,17.13-1c1.44-0.93,1.37-3.86,2.5-2.7
		c11.92,12.19,22.72,14.1,23.33,30.34c0.45,12.12-8.31,15.19-8.11,18.33c0,0.32-1.27,2.39-4.21,7.81
		c-12.82-4.05-9.47-4.25-36.45-1.5c-27.2,2.77-22.5,1.34-43.66,7.11C522.77,183.34,523.45,181.55,520.42,176.23z M584.11,126.26
		c-1.76,1.76-9.19-0.41-11.72-1.5c3-1.4,6.01-1.7,9.21-2.4C582.41,123.76,583.81,124.66,584.11,126.26z M583.21,121.76
		c1.8-0.2,3.3-1.2,5.21-0.8c0.6,1.5,1.2,2.9,1.8,4.41c-0.8,1.7-2.1,1.4-3.51,1.2C585.61,125.06,584.41,123.46,583.21,121.76z
		 M676.85,102.53c1.9-0.51,3.71-1.4,6.01-1c0.6,4.01,0.9,15.62,0.4,18.83c-18.83,6.76-12.88,5.05-25.84,8.71
		c-6.1,1.72-3.88,2.32-6.41,2.8c-10.01,1.91-22.59,5.05-34.05,3.91c-10.08-1.01-1.76,3.68-16.72-9.71
		c4.81-12.29-5.46-1.1,45.17-19.63C650.32,104.63,659.53,107.14,676.85,102.53z M656.82,102.43c4.01-1.7,7.82-3.98,12.02-5.51
		c16.67-6.06,14.32-8.02,14.32,1.3C662.59,104.84,654.72,102.43,656.82,102.43z M564.28,429.8c-12.82,34.19-8.28,19.34-12.12,42.06
		c-0.77,4.58-23.78,62.79-25.24,65.7c-0.2-2.5-0.2-5.11,0.6-7.71c0.21-1.27,1.23-13.83,1.9-20.63c3.95-39.8,6.3-34.85,9.21-51.37
		c1.84-10.45,6.09-16.25,6.51-22.63c0.45-6.94,6.2-11.05,6.31-18.43c0-0.3,3.07-12.43,3-20.03c-0.03-3.2,1.4-5.91,2.6-9.31
		c1.2,4.61,2.01,8.51,2.1,12.62c0.28,12.3,2.32,13.66,1.7,16.12C559.2,421.46,561.95,425.6,564.28,429.8z M564.78,434.51
		c1.17-3.35,3.4-2.2,2.3,0c-5.67,14.62-7.68,19.36-8.31,20.67c-0.02,0.15-0.08,0.45-0.21,0.96
		C557.51,455.07,563.19,439.04,564.78,434.51z M567.19,429.6c-1.84-5.77-2.14-4.05-4.91-26.84c-1.18-9.75-5.5-17.31-3.71-23.53
		c0.52-1.79-0.14-11.5,0.8-18.93c3.68-20.25,0.33-31.89-0.5-40.16c34.35-4.58,31.44,1.19,42.06-3.61c2.24,4.16,0.16,1.28,2.9,18.73
		c0.71,4.53-0.33,5.7-11.82,35.25C566.46,436.28,568.45,432.77,567.19,429.6z M597.43,280.19c0-11.18-2.3-11.33-2.3-14.62
		c0-10.1,0.05-8.75,0-8.91c-2.03-4.54,1.95-9.01,1.8-28.64c-0.04-5.12-0.13-10.33,2.7-15.02c9.36-15.52,3.66-27.08,8.01-33.85
		c1.49-2.31,2.7-4.71,4.01-7.11c0.55-0.82,6.9-7.71,7.21-12.72c0.7-11.3-1.08-15.55-4.41-19.73c-5-6.28,3.86,4.74,49.27-8.71
		c6.81-2.02,3.06-2.32,6.61-3.51c8.43-2.81,9.86-2.39,12.12-4.41c0.2-0.1,0.5,0,0.9-0.1c0.6,2.2,1.2,4.41,1.9,7.11
		c-82.53,212.67-78.74,206.24-79.62,199.09C600.02,283.19,597.43,287.58,597.43,280.19z M598.73,124.66c-2.4-1.2-3.91-2.8-5.81-4.61
		c1.38-0.69,0.24-0.7,7.51-0.7C600.33,121.35,599.73,122.86,598.73,124.66z M516.61,238.43c5.44-6.87,9.83-35.05,9.21-39.66
		c-0.83-6.22-2.38-11.28,0.2-10.32c3.38,1.27,16.72-5.21,19.53-3.81c2.18,0.82,25.27-3.63,47.17-4.21
		c1.45,2.73,2.86,1.42,11.22,4.21c0,5.87-1.25,16.05-4.71,20.93c-11.29,15.95-1.37,25.69-8.81,55.48
		c-3.23,0.36-17.17,0.16-18.93,0.1c-5.25-0.19,1.38-0.34-20.93-2.5c-1-0.7-0.6-1.5-0.7-2.2c-1.48-10.38-1.4-8.5-2.7-11.12
		c-0.11,3.25,0.73,3.38,2.1,12.52c-1.2,0.7-2.38,0.58-3.1-0.4c-0.97-1.32-2.4-1.71-3.71-2.3c-11.93-5.44-14.46-3.81-16.42-6.31
		c-0.87-1.11-11.68-2.56-13.22-2.7C513.91,243.33,514.89,240.61,516.61,238.43z M492.58,299.11c0.55-4.12,1.65-27.39,5.51-30.64
		c1.03-0.87,2.37-7.33,7.61-14.32c0.68-0.91,1.2-2.1,1.8-3.2c2.2-1.6,4.7-1.94,7.31-1.5c6.84,1.15,17.07,3.74,24.14,6.91
		c7.96,3.58,10.5,3.84,28.24,7.41c2.53,0.51,4.87,0.14,22.23,0c1.67-0.01,1.6,2.12,1.7,3.2c0.75,4.14,4.41,3.41,2.3,8.31
		c-0.8,0.3-1.7,0.7-2.9,1.3c1.2,0.1,2,0.2,2.9,0.3c2.48,4.61-0.55,6-0.2,8.11c0.44,4.43,7.08,19.37,7.91,30.24
		c-14.5-2.9-29.98,0.75-42.76,3c-1.4-4.51-2.1-9.11-3.3-13.72c-1.8,2-0.3,4.41-0.9,6.61c-13.58-2.17-6.9-3.88-31.45,0.3
		c-9.67,1.65-18.37,6.43-26.84,10.92C492.5,314.46,491.67,305.93,492.58,299.11z M502.39,502.31c-1.87-8.7-1.78-18.71-2.2-24.74
		c-0.54-7.69,3.79-23.38,5.71-28.64c14.75-40.49,10.91-43.62,7.31-58.28c-6.73-27.41-5.63-24.85-7.21-30.64
		c-3.69-13.56-5.18-13.56-8.71-34.75c2.88-3.71,8.27-5.64,10.82-6.91c6.84-3.42,12.35-3.82,31.85-6.31c4.81-0.61,8.51-0.8,14.92,1.6
		c2.43,15.54,3.97,30.35,2,40.86c-0.4,0.1-0.8,0.3-1.3,0.4c-0.56,1.68,0.22,18.78-0.9,25.84c-3.56,22.33-7.06,20.95-3.71,23.63
		c-3.23,17.2-1.21,13.75-3.81,18.83c-2.55,4.99-3.87,6.86-3.71,9.61c0.17,2.79-1.48,6.33-1.6,6.41c-2.56,1.71-1.95,3.38-6.11,17.53
		c-5.45,18.53-5.7,14.99-7.41,34.65c-0.93,10.7-3.31,25.35-3.2,34.35c0.04,3.53-2.49,4.95-0.9,16.32
		c-15.33,10.22-12.72,15.58-19.43,18.33c-1.45-5.08,0.39-7.1,0.4-8.41c0.05-4.41,0.41-8.92-0.4-13.32
		C503.24,530.22,507.77,527.36,502.39,502.31z M489.77,588.44c0.1-3,0.92-8.21,1.8-10.62c2.83-7.69,1.31-8.04,3.51-10.82
		c5.09-6.43,0.72-8.97,4.28-14.47c0.71,2.24,0.58,4.74,1.93,6.86c0.3,0.4,0,1.2,0,1.8c0,1.6,0.3,1.8,2.5,2.7
		c9.5-7.21,8.86-6.43,9.51-7.41c1.85-3.16,6.49-7.6,9.51-10.01c1.1,0.9,0.31,1.51,0.1,2.1c-3.75,10.51-12.41,32.6-16.72,42.96
		C500.29,592.14,494.98,590.54,489.77,588.44z M508.6,591.54c43.61-112.44,187.8-487.15,179.66-458.67
		c-0.3,1.65-172.45,449.28-176.56,460.77C510.2,593.64,510.2,593.54,508.6,591.54z M530.23,551.18c1.2,1.5,2.2,2.8,3.3,4.01
		c-0.65,1.02-5.19,2.37-5.31,2.4c-0.2-0.3-0.4-0.6-0.4-0.7C528.43,554.99,529.03,553.08,530.23,551.18z M545.45,567
		c1,1.4,2.5,2.5,2.8,4.41c-4.38,0.77-10.65,1.39-10.01,3.4c0.58,1.84,3.06,1.22,8.61-0.2c4.15-1.06,0.59-3.33,12.02,4.81
		c3.28,2.34,11.54,1.19,12.02,3.81c-3.11,2.07-7.02,1.22-12.52,7.91c-0.81,0.99-2,1.8-3,2.7c2.26,1.36,2.25-2.8,16.02-8.31
		c0.2,0.8,0.3,1.5,0.4,2.2c-3.2,4.01-7,6.74-12.02,7.61c-13.41,2.32-18.85,3.6-30.84,1.7c-6.67-1.06-10.62-0.63-14.52-5.51
		c1.88-5.05-1.03,2.54,10.52-26.74c1.5-3.8,0.12-3.29,9.11-6.21c1.9-0.62,3.41-0.1,4.61,1.5c-2.98,0.8-13.42,3.08-11.32,5.71
		c0.78,1.18,2.03,0.28,8.11-1.1c8.19-1.17-5.38,1.62-4.11,4.61C532,570.87,532.58,570.09,545.45,567z M542.75,563.1
		c0.36,1.08,0.44,0.78-2.4,1C541.55,563.6,542.15,563.3,542.75,563.1z M549.56,542.77c-0.4,0.3-0.9,0.5-1.2,0.9
		c-1.6,2.4-3.86,4.5-4.31,7.61c-0.16,1.14-2.64,3.77-4.51,6.11c-4.72-2.36-5.51-6.19-7.11-10.32c-0.39-1.01-0.3-1.9,0.1-2.9
		c12.4-31,19.03-51.43,20.73-52.48c1.1,3.2,1.78,6.33,0.8,9.51c-0.49,1.59,0.42,4.21,0.3,5.11c-1.04,7.6,2.08,11.72-2.5,37.25
		C551.06,543.27,550.36,542.97,549.56,542.77z M574.4,540.37c-5.69,7.32-0.73,3.97-10.72,9.61c-4.32,2.44-5.78,3.93-7.61,2.1
		c-2.18-1.91-4.38-3.62-2.4-5.51c1.04-0.99,6.66-36.51,3.4-52.98c-2.48-12.57-4.18-3.11,11.82-44.16c0.59-1.51,0.9-3.1,2.1-4.31
		c0.3-0.3,0.5-0.8,0.5-1.3c0-1.57-0.14,0.06,10.32-28.14c0.52-1.4,1-2.8,2.5-3.4c-0.98-2.09-0.79-0.88,18.13-50.07
		c1.57,4.19-7.23,38.43-5.61,41.66c1.41,2.44-1.05,14.53-0.1,18.03c1.11,4.09-2.2,5.72-2.2,11.12c-2.3,7.31-1.6,15.02-2.6,22.43
		c-0.43,2.15,1.06,1.33-0.5,10.72c-0.02,0.1-2.22,14.94-3.3,16.02c-2.43,3.14-3.72,12.59-3.81,13.42c-0.67,3.67-1.49,2.3-2.3,5.81
		C575.43,529.83,574.28,534.19,574.4,540.37z M589.92,549.58c-9.99-8.84-3.3-8.37-10.72-12.82c-0.84-2.17,7.92-43.06,9.01-46.37
		c2.11-6.42,6.61-16.13,6.61-29.54c0-24.31,1.3-22.38,0.6-27.94c1.46-3.1,3.51-6.24,2.8-8.21c-0.89-2.47,3.95-18.68,0.7-21.63
		c1.8-5.51,2.1-11.13,2.9-16.62c8.1-55.11-4.61-0.72,87.43-250.36c0.62-1.69,1.4-3.3,2.2-5.21c-2.81-1.12-4.19-1.41-4.21-4.61
		c-0.07-13.53-2.53-30.44-2.1-35.55c1.63-0.47,5.28,0.8,6-0.99c2.97,0.48,5.85,0.19,8.62-0.01c0.3-0.1,0.5-0.5,1-0.9
		c-2.12-1.06,0.16-0.4-7.31-0.4c2.1-5.11,2.1-5.11,1.4-8.91c0.5-0.4,0.9-0.7,1.4-1.1c-2-2.99-13.6-2.59-12.92,8.11
		c0.08,1.2-0.3,2.4-0.4,3.51c-25.89,8.63-54.64,22.46-75.41,26.14c-4.8,0.85-19.59,1.91-41.36,6.71
		c-8.35,1.84-21.63-2.61-42.86,5.21c2.81,0.75,3.25,0.29,22.03-2.6c1.47,3.44-0.01,9.64-1.6,12.92c-0.4-0.3-0.7-0.5-1.2-0.8
		c-1.62,2.7-2.8,10.59-12.22,18.33c-7.22,5.94-14.42,4.89-19.43,4.01c-2.2-4.71-3.87-9.92-4.51-15.32
		c-1.08-9.14-5.89-21.99-2.8-29.54c0.61-1.5-0.3-3.4,0.8-4.71c2.05-2.45,1.22-6.33,6.91-11.72c3.29-3.12,3.39-2.42,13.62-6.11
		c8.31-2.99,22.99-0.59,30.95,0.2c0.7,1,1.6,1.69,2.9,1.9c35.99,5.77,38.14-10.91,75.61-9.31c8.13,0.35,25.17-0.41,35.25-4.01
		c8.04-2.86,11.28-1.59,13.62-4.41c0.1-0.2,0.4-0.3,0.6-0.4c4.91-1.3,9.21-4.21,14.22-5.31c4.97-0.71,5.36-0.43,7.61-1.3
		c2.03-0.78,2.72-0.05,9.61,5.41c1.54,3.08-0.02,3.07,0.9,4.91c1.46,2.52,1,4.59,1,8.41c-1.79,1.51-2.98,3.71-5.46,4.13
		c0.47-0.56,1-1.17,1.45-1.62c1.34-5.61,3.35-10.14-0.4-14.42c-0.79-0.91-1.1-2.3-2.8-2.5c-0.73,3.64,4.24,4.62,3.1,9.31
		c-0.79,3.25-1.5,5.63-2,7.41c-3.1,1.7-3.1,1.7-5.01,1.6c3.78-2.86,5.36-9.53-0.4-17.02c-0.99,4.47,1.04,1.92,2,9.01
		c0.51,3.77-2.46,7.6-4.51,8.11c-0.2,0.1-0.4-0.1-0.9-0.2c0.74-3.69,1.96-1.48,0.7-9.61c-0.35-2.3-1.9-3.71-3.61-5.01
		c-0.4-0.3-0.9-0.5-1.4,0.3c0.9,1.8,3.3,2.9,3.3,5.41c0,8.56,0.63,4.68-1.2,8.81c-8.81,1.06-6.6,1.83-8.01-1c-0.8-0.1-1,0.4-1,0.9
		c-0.63,6.79-1.79,31.89-1.2,33.65c0.38,0.76,1.03,0.18,1.2,0.1c1-0.5-1.24-0.19,4.51-7.61c4.53-5.85,10.56-12.77,13.42-17.33
		c2.84-4.53,2.83-7.32,6.61-8.51c5.83-1.83,11.58-7.96-11.62,20.83c-8,9.93-8.03,11.5-12.22,14.82c-0.2,0.2-0.4,0.6-0.6,0.9
		c0,0,0.1,0.2,0.1,0.4c4.62,0,8.61-6.66,11.62-11.02c1.59-2.31,2.1-1.66,12.62-4.71c11.98-3.47,15.51-7.71,21.23-8.51
		c1.29-0.18,3.29-0.97,6.31-2.1c0.3,1.78,0.1,18.92-0.06,29.81C742.91,138.1,591.5,547.47,589.92,549.58z M691.07,89.71
		c0.1,0-2.05,0.24-4.21-0.8c-2.6-1.26-1.46-2.89-0.8-6.51c0.4-1.5,0.9-2.9,2.5-3.71C696.66,82.74,690.11,84.92,691.07,89.71z
		 M711.28,92.85c-2.46,6.14-11.79,18.16-15.8,23.39c-0.61,0.79-1.1,1.7-2.3,1.5c-1-4.51-1.1-16.92,0-21.63
		c2.23-1.12,8.33,0.08,14.22-0.9C710.47,94.94,708.92,92.51,711.28,92.85z M591.72,551.08c0.01-0.02,153.45-409.13,153.72-412.98
		c0.21-3.02,0.48-8.58,0.1-19.95c-0.25-7.51-0.3-15.02-0.2-22.93c6.4,3.79,11.23,1.05,6.21,3.2c0,1.4,1.5,0.8,1.8,2
		c-0.01,0.1-4.61,24.17-4.61,41.26C633.68,445.37,586.13,573.46,591.72,551.08z M754.26,132.37c-6.69,13.38,0.98-7.79,7.31-22.03
		c1.68-3.78,2.73-1.84,3.81-7.01C775.4,97.06,763.04,111.96,754.26,132.37z M770.98,97.02c-0.24,1.67-3.89,3.22-6.11,4.41
		c-1.18-1.18-1.36-0.69,2.2-3.61c0.91-4.86,2.57-9.05-1-12.92c-2.3-2.49-2.61-4.07-4.91-5.91c-0.1,0.7-0.3,1.2-0.1,1.5
		c7.3,12.78,5.59,3.93,4.61,16.72c-2.73,1.95-3.59,2.6-6.21,0.5c0.37-1.83,2.31-1.59,2.1-5.51c-0.28-5.28-4.9-5.91-5.01-6.01
		c-5.49-4.91-13.56,2.03,0.7-7.81c0.93-0.64,2.89-3.32,4.31-2.1c1.7,1.3,3.61,1.2,5.71,1.4C763.08,82.94,773.95,84.05,770.98,97.02z
		 M772.19,87.21c0-0.37,0-0.73,0-1.1C775.15,90.5,772.19,89.83,772.19,87.21z M773.59,93.41c0-1.22,0-2.44,0-3.68
		C774.54,90.91,774.07,92.16,773.59,93.41z"/> <path d="M166.7,50.15l0.1-0.1C166.59,50.09,166.65,50.1,166.7,50.15z"/> <path d="M190.14,12.9c0.7,0,1.2,0.1,1.8,0.1C191.25,12.44,190.8,12.32,190.14,12.9z"/> <path d="M173.31,29.22h-0.04C173.24,29.32,173.14,29.39,173.31,29.22z"/> <path d="M289.98,295.71c-3.91-2.86-2.07-3.35-10.11-8.01c-4.44-2.58-3.88-4.04-7.41-12.82c-3.3-8.2-16.21-57.47-15.92-59.69
		c0.39-2.99-0.83-5-5.21-15.32c-3.12-6.24-3.54-2.8-6.01-12.52c-0.76-2.98,0.29-1.35-2.3-4.81c1.79-4.25,4.43-10.84,8.31-15.12
		c2.16-2.38,4.82-6.71,4.61-11.02c-0.31-6.18,1.3-12.85-6.31-20.13c-0.83-0.8-12.65-13.04-14.92-13.62
		c-2.14-0.55-3.06-11.2-13.22-18.83c-5.1-3.83-5.46-3.03-10.11-4.11c-0.9-0.3-2.1-0.6-2.3-1.6c-0.62-3.09-3.3-1.97-3.61-16.02
		c-0.08-3.73-0.27-3.26,0.7-5.21c1.92,0.32,4.86,1.45,7.11,1.2c3.58-0.39,5.6-0.28,8.31-1.5c4.66-2.09,2.5-6.73,2.1-8.31
		c0.9-3.59,1.46-1.39,0.1-5.91c3.35-2.45-0.32-4.88,1-7.31c2.15-1.44,4.17-2.71,3.1-5.71c-1.02-2.87-1.76-0.29-4.71-9.11
		c0-0.67,0.13-0.81,1.8-2.2c-0.7-0.4-1.2-0.6-1.8-0.9c0.9-1.6,2.21-3,2.3-5.01c0.22-4.87-0.65-6.77-6.11-18.43
		c-4.37-9.33-11.47-9.33-14.62-10.62c-9.13-3.72-21.45-3.93-29.14-1.4c-4.78,1.57-5.92,3.5-13.82,10.42c-3.3-0.6-6.61-1-9.91-0.6
		c-1.34,3.35-15.96,11.7-13.62,42.46c0.46,6.07,1.99,1.03,5.01,27.24c1.5,12.99-3,16.13-1.1,18.03c0.5-0.9,0.9-1.7,1.5-2.8
		c0.2,1,0.4,1.7,0.6,2.8c1-1.4,1.4-2.6,1.4-3.81c0.23-4.06,0.91-4.63,3-11.42c0.92,6.89-1.35,9.75,0,13.42
		c4.01-1.6,3.06-21.01,2.9-25.44c-0.35-9.91-0.4-6.98-2-9.11c0-11.75-1.62-24.45,4.11-31.45c2.03,2.88,0.37,8.36,1.8,10.52
		c2.14,2.14-1.42-3.85,0.7-13.52c0.16,3.26,0.98,13.83,2.6,17.53c1.94,4.41-0.37,10.07,0.3,18.73c1.08,13.96-1.2,22.09-1.2-3.4
		c0-11.35,0.76-10.46,0.2-12.42c-1.2,0.8-0.99,1.9-1,2.8c-0.6,36.4,2.36,29.23-0.6,35.15c-2.09-10.46-1.14-30.03-2-38.66
		c-1.01,2.53-0.11,6.75-0.9,21.13c-1.29,23.61,6.53,22.49-8.91,33.25c-13.17,9.17-15.34,37.52-12.12,43.86
		c3.17,6.24,23.4,73.01,23.43,73.11c0.91,2.9,0.6,5.51-0.6,8.21c-2.4,5.41-5.6,10.42-9.31,15.12
		c-22.44,28.4-23.92,58.89-15.62,76.41c4.31,9.1,2.31,11.27,2.9,14.02c6.28,28.94,7.84,28.64,9.11,37.86
		c1.32,9.59,4.36,15.03,6.91,22.23c5.38,15.16-2.42,32.05-4.61,38.76c-12.63,38.67-10.89,26.74-10.11,54.58
		c0.52,18.81,4.16,18.7,5.11,31.75c0.31,4.25,0.85,9.79,2.1,14.42c1.04-38.5-2.11-19.29-4.11-51.78c-0.19-3.13-0.61-9.47,0.1-12.52
		c5.51-23.75,5.38-23.38,6.81-26.14c4.42-8.51,3.81-11.82,4.81-15.02c4.1-13.11,6.13-21.13,2.2-34.15
		c-13.56-61.03-11.8-38.86-16.42-66.6c-0.2-1.2-0.6-2.3-0.9-3.4c2-1.8,3.71-3.61,6.11-4.51c4.28-1.61,7.63-4.68,15.12-5.71
		c37.08-5.11,30.45-6,33.15,6.61c3.12,14.6,4.01,14.97,4.01,19.63c0,38.52,1.45,26.84-6.11,62.09c-7.81,36.42-7.45,35.41-8.31,36.45
		c-1.78,2.16-0.97,3.26-4.51,14.02c-10.21,31.08-6.41,35.78-10.52,57.38c-6.85,36.04-6.73,33.85-8.81,36.15
		c-7.94,8.79-7.91,11.04-12.72,11.92c-1.04-6.94,0.95-4.03,0.9-8.51c-0.05-4.71,0.1-9.41-1.1-14.42c-2.75,8.85,1.46,7.45-1.5,14.42
		c-0.42,0.99-0.9,1.1-2.4,0.6c-0.2-1.4,2-0.9,1.9-2c-1.1-1.1-1.4-1.2-2.1-0.9c-3.18,1.36-4.94,5.77-5.21,8.81
		c-0.28,3.2-1.9,6.16-3.4,10.52c-6.65,19.21-3.01,13.8-5.71,20.63c-0.2,0.5,0.1,1.1,0.1,1.5c6.42,2.27,11.69,4.58,19.53,4.51
		c4.02-0.04,3.37,1.81,6.21,2.1c4.11,0.42,6.32,2.05,10.01,2.5c26.51,3.29,25.13,0.79,41.16-1.5c6.58-0.57,10.94-7.59,10.21-8.31
		c-1.23-1.64,1.91-7.53-1.8-8.61c-3.47-1.01-10.72-1.31-16.12-6.71c-5.47-5.47-6.85-6.39-8.01-9.11c-1.38-3.25-3.06-3.96-5.11-6.01
		c2.5-2.6,5.11-4.71,5.41-8.41c0.9-1.1,1-2.7,2.7-3.61c-0.4,4.11,1.89,6.52,4.61,8.61c3.12,2.4,3.77,1.98,18.23-7.31
		c0.2-1.4,0.09-2.41,1.1-3.3c1.49-1.32,2.5-3.3,4.71-4.31c2.2,3.84,0.02,1.44,5.11,7.91c-4.02,1.07-8.87,1.66-6.21,5.21
		c4.72-0.63,8.6-5.77,10.01-0.1c-1.2,0.2-2.3,0.2-3.4,0.4c-2.96,0.85-2.43,2.67-1.6,2.9c1.21,0.61,4.28-0.09,5.81-0.4
		c2-0.41,2-0.4,3.3,1.7c-1.2,0.5-2.5,1-3.71,1.6c-0.84,0.56-0.61,2.03,0.5,2.3c2.91,0.42,6.31-1.87,6.31-0.4
		c0.3,1.1,0.9,1.82,2.1,1.6c2.58-0.47,3.76,0.31,11.62,3.3c4.08,1.81,12.72,0.33,17.83,3.2c0.3,1.3,0.8,2.7,0.9,4.21
		c0.2,1.6,1.6,2.9,0.9,4.81c-15.75,10.9-14.01,5.35-28.04,6.81c-15.09,1.57-16.69-3.68-25.34-0.8c2.82,3.65,2.51,1.56,6.51,2.4
		c32.86,6.94,35.15,0.4,36.45,0.4c4.64-0.63,9.36-4.12,12.52-7.91c-1.62-4.31-0.23-3.95-0.5-7.41c-0.24-3-1.5-5.21-4.61-6.01
		c-0.11,0-8.87-1.86-12.12-1.6c-0.9,0-2.01,0.01-2.9-0.3c-15.25-5.27-11.29-3.36-15.32-9.01c1.3-7.13,38.26-189.96,39.76-197.59
		c1.36-6.95,1.97-3.79,3.1-8.21c7.1-27.68,13.17-30.48,10.72-31.85c-5.51,9.99-7.59,12.79-12.12,28.24
		c-1.27,4.33-0.77,2.87-2.7,4.81c-3.47-5.56-8.86-33.75-12.82-39.96c-1.74-2.73-0.7-8.73,3.3-10.42c1,0,1.4,1.5,2.6,0.6
		c0-6.61-2.45-10.94-1-13.22c0.22-0.35-0.32-2.44-1.7-4.31c-0.73-0.98-1.2-2.1-0.4-3.4c0.2-0.5,0-1.2,0-1.9
		c-1.95,0.98-1.57,0.52-2.4-0.6c-28.06-42.95-24.44-36.81-24.44-49.47c0-7.15-0.02-9.61,1.9-13.02c8.56-15.2,5.85-21.05,7.61-26.54
		c2.64,11.9,4.4,11.2,5.61,14.82c3.04,7.16,5.01,10.79,5.01,12.22c-0.31,5.66,5.23,27.9,7.91,35.35
		c3.57,9.92,6.57,28.51,13.22,39.16c0.7,0,1.3-0.1,1.9-0.1c5.01,3.61,9.51,7.71,13.12,12.82c1.1-1.8,1.28-2.39,0.7-3.51
		C290.77,296.62,290.48,296.01,289.98,295.71z M224.29,109.24c0.61,0,2.22,3.09,3.3,4.71c-6.51-1.9-10.92-6.21-15.12-11.42
		C220.15,102.18,221.4,109.75,224.29,109.24z M211.57,14c-0.6,0.8-1.41,0.8-1.6,0.3c-0.51-1.35-1.81-2.06-2.44-3.29
		C208.89,11.28,207.95,10.38,211.57,14z M207.43,10.89c-1.04-0.1-1.81-0.48-2.04-1.48C206.16,9.78,207.18,9.81,207.43,10.89z
		 M200.85,3.38c3.3,0.6,3.71,0.7,5.41,2.3C204.26,5.69,202.56,4.89,200.85,3.38c-0.5-0.1-1.1-0.1-1.9-0.1
		C199.95,2.58,200.35,2.98,200.85,3.38z M205.16,9.3c-0.55,0.04-1.14,0.19-1.4-0.61c-0.1-0.1-0.4-0.1-0.6-0.2
		c-0.1,0-0.2-0.1-0.3-0.1c0.49-0.25,0.58-0.35,0.9,0.3C204.2,8.87,204.65,9.05,205.16,9.3z M197.45,2.28c-1.3,0.3-1.9,0.3-2.6-0.3
		C195.55,2.08,196.25,2.18,197.45,2.28z M184.53,2.38c2.08-0.3,6.44,0.3,8.51,0.6c0.79,0-0.52,0.6,4.11,0.6
		c-1.1,0.7-2.1,0.6-3.1-0.1c-3.3-0.2-6.61,0-10.11-0.4C184.23,2.68,184.43,2.38,184.53,2.38z M187.33,5.29c0,0.17-1.42,0.1-2.1,0
		C185.93,5.29,186.53,5.29,187.33,5.29z M179.92,2.88c1.88,0,1.6-0.07,1.6,0.2C179.64,3.08,179.92,3.15,179.92,2.88z M180.42,4.58
		c-11.28,1.33,5.04,0.32-4.21,2c0.5,0.5-0.86,0,10.82,0.5c1.8,0.08,3.81-0.4,5.31,1.1c5.05,0.45,10.89,4.21,12.92,4.21
		c0.57,0.57,1.52,0.95,1.2,1.9c1.7-0.1,3,1,4.61,1.8c1.33-0.57,2.44-1.63,3.51-1.1c0.8,0.4,1-0.4,1.5-0.6
		c3.67,0.55,3.51,3.06,8.11,17.23c-0.3,0.4-0.61,1.29-1.3,1.7c-5.24,3.09,0.82,12.2,3.81,17.43c-3.74,3.74-3.06-1.75-6.91,2.8
		c3.79,0.84,1.59-0.08,2.7,2.9c0.3,0.8,0.8,1.5,1.1,2.2c-1.28,3.3-5.22,1.45-8.21,2.3c1.7,2.1,3.71,1.3,5.81,1.1
		c2.37,1.98,2.77,1.73-0.1,5.01c1.1,2.94,2.01,6.78-1.1,7.31c-11.54,1.96-5.88-0.64-13.92,0.5c-5.01,0.71-3.32,6.69-1.9,17.53
		c0.5,3.84,3.97,10.84,9.71,14.92c1.3,0.92,4.74,4.35,8.51,7.11c1.39,1.02,2.78,1.92,3.71,3.51c0.59,1.01,1.89,1.52,2.9,2.3
		c4.31,3.34-0.03,0.42,5.41,6.31c0.4,2-0.3,3.71-1.5,5.21c-0.4,0.5-1.2,0.6-2,0.9c-2.08-2.15-10.3-9.72-13.02-8.51
		c1.85,3.01,7.27,4.62,9.51,8.11c-6.32,1.8-13.93-2.27-18.93-5.11c-4.08-2.32-3.83-5.52-8.51-7.41c-2.5-1.01-4.42-2.9-5.81-5.11
		c-3.33-5.29-8.14-9.29-12.52-13.62c-2.66-2.63-3.2-2.19,0.4-2.1c20.02,0.48,18.27,0.28,21.23,4.31c0.3,0.4,0.6,1,1.4,0.8
		c0.6-1-0.39-1.31-0.7-1.9c-1.56-3.03-4.31-3.9-7.41-4.11c-27.84-1.83-9.86,4.54-29.54-8.11c4.89-9.78,4.51-5.99,4.51-25.04
		c3.49-2.18,3-1.83,3-3.51c-5.7-1.43-4.08-1.52-5.91-0.6c0.2,0.1,0.6,0.2,0.6,0.4c0.1,0.5-0.3,0.3-0.6-0.4
		c-1.4-0.9-1.3-2.5-2.1-3.61c0.66-1.32,0.95,0.66,7.71,1.7c0.8,1.1,1.7,2.3,2.5,3.4c1.4,0.3,2.6-0.01,3.71-0.4
		c1.84-0.64,1.3-2.67,1.3-3c-0.5,0.1-0.7,0-0.9,0.1c-0.6,0.4-1,1.3-1.8,1.1c-2.1-0.53-2.37-1.32-5.01-5.11
		c-5.48-7.87-4.17-5.16-4.51-7.51c4.24,1.16,1.69-0.54,3.51,3.91c1.51,3.71,3.85,2.16,4.41,2c-0.8-2.4-3.1-3.91-2.6-6.81
		c2.28-2.66,2.14-3.58,3.51-1.2c-0.4,0.8-0.9,1.6-1.5,2.6c1.42,2.06,1.92,7.33,3.61,4.81c2.92-3.26-0.74-2.98-1.6-4.71
		c1.02-3.07,2.1-3.65-3-7.41c-3.38-2.49-3.67,0.68-5.41,4.51c-1.97,0,0.24-4.82,2.5-6.71c4.61-3.38,6.08,5.85,11.52,4.91
		c1.2-0.21,2.1-0.8,2.6-2.1c-1.43-0.71-0.76,1.15-5.41-0.4c2.5,0.1,4.71-0.7,6.31-2.6c0.52-0.7,1.8-1.55,7.31-5.41
		c0-2.3,0.2-4.21,2.3-5.31c0.3-3.3,2.2-6.21,1.3-9.51c-3.4,0.3-5.71,0-7.51-1c0.6-0.6,1.3-0.3,2-0.3c3.29,0.27,6.47-2.42,10.72-0.2
		c1.2-0.3,1.9-1.1,2.5-2.1c-3.36-1.12-12.28-6.46-17.33-4.91c-1.73,0.53-3.26,0.33-4.89,0.39c-2.79-1.72-11.38-1.65-12.24-3.19
		C174.21,4.08,176.82,3.58,180.42,4.58z M166.9,65.57c0,0.28-0.1,0.17-0.21,0.21C166.76,65.71,166.83,65.64,166.9,65.57z
		 M172.61,46.45c0.3-1.8,0.8-3.1,2-4.01c1,0.5,1.3,0.9,0.9,1.4C174.81,44.74,174.11,45.64,172.61,46.45z M182.83,38.53
		c1.73,0,0.51,0.3,0.3,0.3C183.13,38.83,183.03,38.63,182.83,38.53z M193.74,25.62c-0.9,0.2-1.9,0.8-2.8-0.1
		c5.21-2.7,5.21-2.7,6.81-2C196.65,25.31,195.14,25.41,193.74,25.62z M193.34,10.89c-0.14-0.14-0.27-0.21-0.3-0.22
		c0.05,0.02,0.56,0.22,2.21,0.42C194.24,11.59,193.84,11.39,193.34,10.89z M161.6,19.71c4.51,2.8,9.31,5.11,14.82,5.41
		c-4.44-2.22-12.37-4.2-14.02-7.51c1.23-1.43,3.7,1.5,0.2-2c1.7-2.5,3.99-4.22,6.21-5.91c1.1-0.83,1.98-0.14,15.43,0.29
		c2.44,2.26,4.4-0.53,9.7,2.71c-2.36,0.24-2.9-0.18,0.3,1.4c-1.2,0.6-2.2,0.3-3.2,0.2c-3.39-0.32-3.58-1.02-3.1,0.4
		c-0.9,0.77-0.89,0.25-14.62-2.8c-8.01-1.78-6.28,2.79-5.11,2.2c1.8-0.7,3.41-0.13,5.11,0.2c4.92,0.94,11.81,1.78,15.62,3.61
		c-0.7,0.9-1.3,1.7-1.9,2.5c1,1.1,7.21,0.2,10.42-1.4c0.9,0.8,0.3,1.6,0,2.5c-0.6,0.1-1.4,0.39-2,0.2
		c-3.01-0.93-10.04,2.92-14.32,1.9c-6.63-1.57-14.16-5.17-14.52-5.31c0.27,0.72,0.87,0.71,1.43,0.78c0.2,0.64,0.76,0.71,1.36,0.72
		c-1.55,1.39-1.34,0.72,5.52,3.51c4.59,1.86,1.04,1.65,12.32,3.2c-5.29,2.89-8.25,1.74-13.12,1.3c2.5,1.79,6.69,1.28,8.41,3
		c1.24,1.24,5.24-0.6,9.61-0.6c-0.7,0.6-1.1,0.99-1.5,1.1c-14.3,3.93-9.64,4.07-25.94-0.7c-0.29,0.9-0.25,0.9-0.3,0.8
		c-2,0-3.3-1.4-4.91-2.4c-0.5-2,0.2-3.91,0.5-5.71c0.77-0.31-0.39-0.34,11.22,5.51c0.59,0.3,1.37,0.3,2.06,0.4
		c0.14-0.33-0.95-1.4,0.84-1.4c-2.38-2.38-1.94,1.63-12.82-5.81C160.4,21.4,160.49,20.51,161.6,19.71z M188.94,25.01
		c-0.2,0.1-0.4,0.3-0.5,0.4c0,0.1-0.2-0.1-0.3-0.1C188.33,25.21,188.64,25.11,188.94,25.01z M155.99,13.2
		c0.91,0.45,0.57,0.23,0.3,0.5c-0.2-0.1-0.4-0.2-0.6-0.3C155.79,13.3,155.89,13.2,155.99,13.2z M154.79,17.6
		c0.1-0.2,0.1-0.3,0.2-0.5C155.49,17.5,154.79,17.4,154.79,17.6c-0.09,0.37-0.29,0.64-0.79,0.6
		C154.02,17.77,154.22,17.51,154.79,17.6z M153.84,18.28c-2.03,3.68-3.79,4.77-6.37,11.04c-1.04,4.15-1.27-3.4,4.61-10.11
		C152.55,18.74,153.03,18.17,153.84,18.28z M156.69,21.01c-3.96,3.77-2.27,7.43-3.2,8.41c-5.96,6.27-5.41,13.78-5.41,19.43
		c0,5.81-1.36,5.82-0.6,10.62c0.88,5.6-0.54,17.9-1.7,20.23c-0.3-0.5-0.5-0.6-0.5-0.8c-0.12-18.58-7.41-27.55-2-47.27
		c1.42-5.19,4.34-12.95,8.81-16.12c0.38,0.96,0.98,0.86-0.6,2.5c-8.42,8.8-8.97,24.68-7.31,36.75c0.54,3.91-0.46,4.83,1.4,11.82
		c0-0.1,0.14-12.02,0.9-24.04c0.97-15.41,8.83-24.84,12.82-26.44c-0.4-0.7-0.8-1.3-1.1-1.9c0.7-0.6,1.3-1.2,2.4-0.6
		C161.28,14.96,157.9,19.86,156.69,21.01z M159.49,39.54c1.09,0.54,2.58,1.3,3.81,1.3c-1.23-1.23-5.41-4.01-4.01-5.41
		c2.7,1.5,5.31,3.41,9.41,3.41c-8.98-4.04-8.05-3.79-9.51-6.71c0.75-0.75,2.62,0.77,4.31,0.9c4.16,0.31,4.94,0.89,15.22,2.6
		c-0.5,2.23-2.56,0.6-3.51,0.6c-3.55,0-6.51,3.12-6.51,6.71c0,1.6,0.2,3.3-1.3,4.31c1.2,4.01,4.21,6.61,6.11,10.32
		c-2.5-0.2-4.61-0.6-6.11-2.5c-0.1-0.1,0-0.3,0-0.4c-0.3-0.3-0.5-0.5-0.8-0.8c-1.7,0.2-1.7,0.1-2.3-1.3c0-0.2-0.1-0.3-0.1-0.4
		c0,0,0.1,0,0.1,0.1c0,0.98,0.28-0.83,2.4,1.6c1.04,1.04,0.18,0.69,4.81,1.5c-2.4-1.9-4.91-2.5-6.21-4.81
		c0.53-0.18,0.91-0.35,1.34-0.46C163.05,46.5,160.22,44.77,159.49,39.54z M154.89,94.32c5.93-12.56,2.33-2.79,5.21-13.72
		c0.99-5.25,2.07-5.89,1.1-11.32c-0.54-3.03-1.16-12.71-0.1-14.82c6.65,19.94-0.54-7.09,5.31,8.51c0.1,0.4-0.4,1.1-0.4,1.7
		c0,0.4,0.4,0.8,0.6,1.2c-0.2,0.5-0.2,1.1-0.2,1.9c0.4,0.4,0.8,0.1,1.2-0.1c1.19-0.34,1.8,0.93,1.8,1.8c0,17.16-2,18.68-14.42,26.14
		C154.18,95.12,154.69,94.72,154.89,94.32z M156.39,213.59c-3.22-11.48-0.76-6.47-3.3-15.52c-6.39-22.72-13.02-34.88-13.82-41.46
		c0-0.2,0-0.5-0.2-0.7c-2.3-2.3-2.02-5.5-3-8.21c-1.02-2.8-1.2-5.81-1.2-8.81c0-1.15-5.45-27.02,19.83-39.66
		c2.73-1.64,3.45,0.26,6.01-2.3c3.46-4.04,30.07,19.2,20.03,40.26c-0.3-0.6-0.6-1-0.9-1.6c-4.12,10.1-2.94,7.3-7.51,14.62
		c-1.61-2.01-0.99-11.64-1.7-14.32c-0.3-1.5,1-3.1-0.2-4.71c-1.6,1.1-1.4,3-2.4,4.21c-0.5,0.6-0.5,1.7-0.4,2.5
		c1.13,17.32,1.56,17.26,3.3,24.24c1.4,5.61,5.33,39.86,5.31,39.96c5.87,14.09,6.34,10.3,9.11,30.24
		c2.86,20.57,6.01,26.87,6.01,27.54c10.24,26.12,8.52,29.96,31.95,37.45c1.6,1.8,1.6,4.01,1.1,6.21c-1.3,0.1-2.19,0.8-2.4,2
		c-1.88,10.52-0.64,9.21-5.11,12.02c-1.24-1.24-0.18-2.53,2.4-8.41c1.92-4.38,0.06-5.42-0.7-3.51c-6.92,14.62-2.68,11.04-7.41,12.62
		c-0.2-0.3-0.4-0.5-0.4-0.7c1.1-4.11,2.4-8.01,4.61-11.92c-2.65-0.88-1.16-2.38-6.61,11.92c-3.1,0.6-6.01,0.9-9.11,0.6
		c-0.6-1.4-1.3-2.7-2-4.21c1.8-2.5,3-5.21,2.3-8.51c1,1.2,2,2.4,3,3.71c0.5,2.6-1.6,3.91-2.9,5.51c0.2,0.8,0.7,0.79,1.2,0.6
		c2.28-0.85,3-2.7,3.61-4.71c-0.4-2.2-1.41-4-2.6-5.71c-1.7-2.42-2.28-1.23-9.31-7.01c-1.21-0.99-1.73-3.42-6.71-13.12
		c-3.8-7.41-4.92-8.09-4.81-10.21c0.1-0.9,0.53-0.18-8.61-14.62c-0.72-1.13-3.5-8.14-5.51-12.92
		C153.44,214.02,163.7,239.63,156.39,213.59z M217.28,323.15c3.7-6.77-1.63-3.33,6.01-4.61c0.7,0.9,0.29,1.59-0.1,2.2
		c-7.4,11.7-16.48,22.54-20.73,25.94C203.06,340.06,203.83,347.73,217.28,323.15z M202.36,340.97c0,3.09-3.13-10.79-2.8-17.33
		c10.46-2.09,8.48-0.93,9.31-3c2.7,0.3,5.51,0.3,7.91-2.4C217.07,322.72,205.43,337.73,202.36,340.97z M222.48,315.54
		c0.4-3.1,0.4-6.01,1.9-8.81C224.39,314.28,224.79,313.11,222.48,315.54z M196.85,308.63c-0.1,2-1,3.61-3,5.61
		c-1.02-0.58-6.62-1.84-0.8-9.71C195.65,305.39,196.98,305.89,196.85,308.63z M157.39,229.51c1.68,3.24,0.71,2.62,6.21,16.62
		c-1.43,0.29,0.43,0.68-12.32-1.8c-0.3-0.1-0.6-0.3-1.1-0.5C152.38,238.93,154.59,234.22,157.39,229.51z M188.43,307.83
		c-6.14-1.68-11.73-1.1-27.94,1.6c-12.86,2.14-25.84,10.33-27.44,11.02c-6.66-11.11-1.28-50.84,2.1-53.58
		c1.29-1.04,2.72-7.41,8.01-14.92c2.21-3.14,0.5-2.87,3.3-3.81c2.71-1.59,3.82-0.89,19.13,2.1c12.46,19.94,17.32,32.42,24.64,48.27
		c1.5,0.9,2.7,1.7,3.91,2.4C193.62,303.38,193.35,299.63,188.43,307.83z M192.54,325.55c-3.76-14.18-4.15-9.38,0.5-10.32
		c4.24,0,1.9-1.44,3.1,3.3c0.43,1.7-0.5,3.4,0.3,5.11c2.01,5.04,3.39,23.42,3.4,23.53C196.87,345.69,194.36,332.39,192.54,325.55z
		 M196.65,352.89c-0.4-1.3-0.6-2.5,0-3.61C197.45,350.49,197.15,351.59,196.65,352.89z M144.97,590.04
		c-8.65-1.97-2.85,1.81-18.43-3.61c0.9-4.01,1-8.01,2.5-11.72c1.77-4.35,1.34-7.44,3-9.41c5.24-6.23,0.74-10.74,4.7-14.8
		c-0.2,6.83,2.44,6,1.61,8.49c-0.46,1.85,2.06,4.01,3.1,2.5c1.07-1.55,1.66-0.84,6.41-4.21c4.15-2.94,1.23-3.49,6.71-6.71
		C147.2,583.09,147.03,590.51,144.97,590.04z M191.24,390.15c9.02-41.96,7.97-40.77,10.11-40.06
		C201.35,358.17,90.01,861.08,191.24,390.15z M184.73,569.61c-2.4,0.4-4.71,0.8-7.01,1.2c-4.28,0-4.98,5.8,6.01,1.8
		c4.21-1.53,1.96-1.97,7.71,2c3.83,2.64,4.68,3.3,6.71,3.81c8,1.54,9.53,1.05,9.71,3.1c-9.28,3.71-6.47,1.46-15.82,10.82
		c3.86,0,2.21-3.07,16.22-8.61c0.41,1.85,1.43,2.5-5.41,7.41c-2.51,1.8-5.51,2.28-8.41,2.8c-14.72,2.67-18.71,2.87-34.15,0.4
		c-3.01-0.48-6.11-1-8.11-4.21c0.02-0.1,8.25-40.5,9.81-45.97c0.28-1.42,2.74-2.21,3.61-0.2c1.23,2.88,1.49,6.01,4.61,8.81
		c1.78,1.78-13.3,4.57-9.71,7.71c4.01-1.5,8.01-2.9,12.12-4.41c6.21,3.72,1.41,0.84-7.71,5.81c-0.7,0.5-1.1,1.6-0.7,1.9
		c1.79,1.79,7.54-1.61,10.62-0.9c-10.92,3.64-6.18,5.43-5.71,5.31c2.99-0.4,11.98-2.87,12.82-3.1
		C182.93,566.6,184.63,567.6,184.73,569.61z M180.22,561.5c0.1,0.1,0.1,0.3,0.1,0.5c-0.4,0-0.9,0-1.3,0
		C179.02,561.52,178.82,561.85,180.22,561.5z M188.84,541.47c-2.5-0.7-2.68-0.79-3.81,0.9c-7.49,11.28,0.42,2.92-8.41,13.12
		c-4.57-1.27-6.62-9.15-8.41-13.12c-1.4-3.09-3.35-2.25-4.71-2.7c-0.65-1.3,31.13-146.98,31.45-147.62c0-1.45,1.3,1.05,1.3,5.71
		c0,12.07,2.39,13.79,1.6,16.92c-1.27,5.03,0.94,9.01,3.51,13.12c-8.26,22.55-16.3,35.59-10.32,64.99c1.2,5.9-0.84,5.31,0,9.91
		c0.42,2.26-0.23,6.35,0.1,7.81C192.51,516.61,189.84,536.13,188.84,541.47z M230.5,550.98c-1-0.1-1.2-0.6-1.1-1.3
		c5.47-25.3,39.16-194.4,40.56-198.59C257.13,417.89,243.82,484.48,230.5,550.98z M234,240.93c1.41,0,22.99,35.67,25.34,40.06
		c2.16,18.04,3.83,14.63,1,16.32c-4.21,2.9-5.21,7.46-2.8,12.02c1.33,2.51,1.31,4.27,6.71,25.44c2.95,11.57,4.53,12.78,3.61,16.82
		c-5.57,24.29-38.97,193.84-40.36,196.39c-2.8-2.4-5.67-4.52-6.71-8.21c-0.68-2.41-2.2-4.11-4.81-5.01c0-0.7-0.01-1.4,0.1-2.1
		c11.56-71.48,10.73-37.37,15.72-71.6c0.47-3.25-0.61-0.12,0.1-8.81c0.8-9.8-0.29-14.33,1-19.23c0.1-0.5,0-1.2-0.8-1.4
		c-4.62,10.07-1.29,37.73-6.81,48.77c-2.7,3.4-2.68,7.62-3.51,11.62c-1.51,7.37-1.98,4.08-2.5,7.21c-5.97,26.1-7.1,28.45-7.81,39.16
		c-0.9,2.1-3.4,3.1-2.7,5.61c-0.11,0.06-13.11,7.45-13.22,7.51c-2.3-1.2-4.01-2.8-5.21-5.11c4.43-6.04,5.49-39.16,5.51-39.26
		c1.04-7.33-0.75-13.74-1.8-19.03c-4.35-14.49,6.54-57.92,11.02-57.28c0.7,2.1,0.2,4.61,2.1,6.91c0.6-2.5,0.4-4.51,0.1-6.51
		c-0.44-1.78-1.54-0.6-2.5-4.01c-4.04-14.31-1.35-8.49-5.21-29.54c-1.65-9-3.41-9.81-2.3-14.92c1.77-8.17,6.9-31.85,6.91-31.95
		c0.84-5.71,21.96-23.57,21.53-32.65c3.9-1.19,10.61-1.09,13.02-4.21c-2.18-0.82-0.78-1.55-11.02,0.5c-0.3-3.4-1.39-6.41-0.5-9.71
		c0.37-1.37,0.48-4.86-0.4-6.91c-0.8-1.6-2.68-2.02-3.61-3.61c-0.19-0.32-12.62-4.88-12.72-4.91c-2.6-0.62-4.43-2.29-5.51-4.61
		c-9.17-19.7-5.76-15.56-7.51-17.73c-1.79-2.21-2.1-4.91-2.8-7.61c2.25-0.19,6.08,2.78,14.62,2.6c6.11-0.13,12.32,0,18.53,0
		c0.9,0.5,0.9,1.4,0.9,2.3c0.32,4.79,4.02,3.36,2.8,7.91c-0.58,1.74-1.2,1.41-3.3,2.2c4.09,0.63,3.36-0.18,4.01,5.91
		c-5.96,5.96,9.38,11.53,9.11,68.2c-0.09,20.45-8.98,52.27-7.21,53.98c2.2,2.12-1.79,15.37,0.5,19.33c-0.4,3-2.5,5.31-2.3,8.71
		c1.9-1.56,4.14-5.95,3.1-8.71c-0.56-1.49,1.14-3.4,2.1-17.23c0.09-1.3-0.2-2.4-1.2-3.3c1.7-5.11,2.15-10.42,2.8-15.72
		c1.49-12.09,11.02-33.54-0.2-89.43c-1.13-5.62-4.08-13.62-4.01-19.13c0.13-9.99-2.4-9.74-2.4-13.72c0-2.7,0.39-5.51-0.1-8.11
		C231.47,250.15,233.2,245.64,234,240.93z M234.1,207.78c-4.83,8.15-3.45,12.67-3.61,34.65c-0.01,1.48-1.83,13.79-3,16.52
		c-4.21,0.9-8.31,0.3-12.52,0.2c-4.21-0.1-8.41,0.3-12.82-0.6c-0.6-1.6-1.8-2.33-3.51-2.7c-6.92-1.51-6.59-2.01-7.41-6.01
		c-4.41-21.42-5.05-29.93-9.11-39.26c-1.8-3,1.35-0.75-2.5-7.11c-2.15-3.55,0.19-3.42-2.4-17.83c-0.1-0.2,0-0.5,0.1-1.2
		c14.92-2.98,26.64-4.19,33.85-4.71c6.4-0.46,18.12-2.82,19.93-0.1c1.12,1.68,3.52,0.13,10.42,3
		C239.17,197.29,241.37,195.53,234.1,207.78z M191.04,178.94c-2.79,0.28-6.24,0.93-14.62,2.6c-3.69-22.89-2.59-19.61-3.81-23.93
		c-0.66-2.37,1.04-1.8,4.51-10.72c1.54-3.97,10.81-11.11,7.71-25.54c-0.75-3.48-3.31-10.63-6.41-13.02
		c-2.41-2.07-5.95-9.39-14.12-13.32c-0.2-0.1-0.3-0.4-0.5-0.7c0.5-0.6,1.1-1.3,1.8-2c2.64,1.51,7,4.64,8.61,5.81
		c3.63,2.64,1.28,1.71,3.91,4.31c15.05,14.83,9.31,8.25,13.72,14.02c3.7,4.83,4.39,3.82,8.61,7.51c3.39,2.96,5.46,5.52,8.21,6.01
		c2.23,0.56,7.62,5.61,18.93,5.41c5.49-0.1,5.96,1.56,9.41-6.51c1.87,0.94,6.92,5.07,8.41,6.31c11.07,9.22,10.62,25.54,2.1,32.85
		c-2.68,2.68-1.12,2.11-2,3.81c-1.26,2.42-2.6,4.71-4.01,7.31C231.87,175.01,226.81,175.31,191.04,178.94z"/> <path d="M288.98,303.42c-2,1.6-1.17-0.45-2.8,6.91c-1.4,1-2.4,2.1-4.41,2.7c4.08-6.8,3.41-3.37,3.41-6.61
		c-8.09,6.74,0.46,0.15-3-6.21c-0.9,1.3,0.5,2,0.2,3.1c-2.3,3.61-5.11,7.11-6.61,11.42c-2.6-0.2-5.01-0.7-7.31-1.5
		c-0.6-0.3-0.7-0.57-1-3c3.71-4.31,3.81-7.41,0.3-12.42c2,0,2.98,1.01,3.51,2.4c1.15,3.03,3.2,6.01,1.1,9.61
		c-4.65,1.94-3.71,1.58-3.71,2.3c2.1,0.2,3.81-0.6,5.41-1.7c2.37-9.81-3.04-15.31-8.01-13.82c-0.5,0.7-1,1.3-1.8,2.3
		c2.44,1.95,4.05,2.26,3.61,8.31c0,2.11-2.31,0.89-2,4.01c0.46,4.63,0.8,3.77,5.51,28.74c0.11,0.6,0.4,1,1.1,0.8
		c3.46-10.37-5.42,3.03,8.41-24.64c-2.58-3.01-8.29,15.38-8.41,15.62c-1.6-2.9-3.91-12.82-3.81-16.52c5.81,3.36,9.03-0.72,13.02-0.4
		c0.6,0.1,1.1-0.41,1.7-0.7c4.75-2.28,3.33-0.8,6.61-6.81c0.88-1.61,1.1-3.4,0.8-5.21C289.68,302.12,289.58,303.02,288.98,303.42z"/> <path d="M175.92,425.6c2.5-5.88-1.23-3.85,0.2-9.91c0.1-0.7,0-1.4,0-2.5c-0.8,0.6-1.5,0.8-1.7,1.2c-1.36,2.62-0.67,4.59,0.4,7.81
		c-0.3,2.6-2.5,4.01-3,6.61C174.11,428.4,175.2,427.29,175.92,425.6z"/> <path d="M153.38,459.85c0.2,0,0.5,0.1,0.8,0.2c2.14-5.98,0.05-2.98,1.3-7.01c1.85-5.99,0.59-4.24,1.5-7.11
		c1.19-3.76,0.6-3,0.4-4.21c-3.52,3.92-1.65,7.39-3.4,13.12C153.49,456.45,153.58,458.15,153.38,459.85z"/> <path d="M169.91,408.37c0.52-3.36,1.95-9.84-0.3-9.61C169.98,406.53,167.44,405.29,169.91,408.37z"/> <path d="M157.59,426c-0.8,0.8-1.1,1-1.1,1.3c-0.4,2.5-0.1,4.81,1.1,7.91C157.59,431.81,157.59,429.3,157.59,426z"/> <path d="M278.97,297.61c0,2.5,0,2.5,1.1,3.1C280.47,299.61,280.27,298.61,278.97,297.61z"/> <path d="M152.88,358.7c0.2-0.6,0.5-1.3-0.3-2C151.98,357.5,151.68,358.2,152.88,358.7z"/> <path d="M149.98,348.09c0-2.1,0-2.1-0.9-2.4C149.28,346.28,149.48,346.78,149.98,348.09z"/> <path d="M277.76,294.91c-0.22,0.22-0.33,0.06,0.3,1c0.2-0.1,0.3-0.2,0.6-0.4C278.37,295.31,278.17,295.11,277.76,294.91z"/> <path d="M147.17,513.23c0.2-0.7,0.3-1.2-0.5-2C146.77,512.02,146.37,512.62,147.17,513.23z"/> <path d="M256.83,265.97c0-1.44,0.13-1.2-0.4-1.2C256.76,266.08,256.22,265.97,256.83,265.97z"/> <path d="M258.24,270.47h0.2c0-0.71,0.27-1.13-0.1-1.5C257.93,269.37,258.24,269.39,258.24,270.47z"/> <path d="M275.96,292.2c-0.1-0.4-0.3-0.8-0.5-1.2C274.85,291.74,274.91,292.73,275.96,292.2z"/> <path d="M152.78,464.25c-0.25,0.75-0.38,0.77,0.3,0.9C153.44,464.43,153.54,464.63,152.78,464.25z"/> <path d="M146.27,521.94c0,0.1-0.1,0.3-0.1,0.4c0.1,0,0.1-0.1,0.2-0.1C146.37,522.14,146.27,522.04,146.27,521.94z"/> <path d="M282.47,297.01c0,0-0.1,0.1-0.2,0.2c0.2,0.1,0.3,0.3,0.5,0.4C282.97,297.32,283.36,297.01,282.47,297.01z"/> <path d="M285.58,303.32c0.2,0,0.3,0.1,0.5,0.1C286.08,302.87,285.92,302.98,285.58,303.32z"/> <path d="M555.27,112.14c-0.3,0-0.4,0.5-0.6,0.8c2.7,0.8,4.01,0.6,6.21-1.5C558.77,111.04,556.97,111.64,555.27,112.14z"/> <path d="M607.65,90.51c-1.58,0.74-3.1,1.5-4.01,3c-0.1,0.2,0,0.6,0,1.3c2-1.2,3.71-2.2,5.41-3.3
		C608.15,90.41,608.05,90.32,607.65,90.51z"/> <path d="M536.24,131.87c-1.93,1.93-2.27,4.68-2.7,6.41c0.2,0,0.5,0.1,0.8,0.2C535.24,136.48,536.64,134.77,536.24,131.87z"/> <path d="M584.31,114.65c1.6,2.3,3.71,2.1,6.31,1.5C583.82,113.88,585.28,114,584.31,114.65z"/> <path d="M531.53,142.99c0.28-1.1,0.47-1.27-0.2-1.6C530.61,142.83,530.66,142.33,531.53,142.99z"/> <path d="M514.31,132.77c-0.56,0.84-0.6,0.8-0.3,1.1C515.05,132.84,514.95,133.41,514.31,132.77z"/> <path d="M569.29,107.94c0.16,0.16,0.76-0.2-0.2-0.2C569.09,107.84,569.19,107.94,569.29,107.94z"/> <path d="M564.68,109.14c0,0.26,0.34,0.2,0.5,0.2C565.18,108.95,564.94,109.39,564.68,109.14z"/> <path d="M529.53,146.39c-0.36,0-0.3,0.13-0.3,0.4C529.89,146.79,529.53,146.58,529.53,146.39z"/> <path d="M601.24,97.82c0.1,0.1,0.1,0.3,0.1,0.4C601.62,98.22,601.88,97.82,601.24,97.82z"/> <path d="M538.85,427.7c2.44-5.24-1.04-3.32,0.2-10.42c0.72-4.14-4.88-0.94-1.1,6.91c-1,1.9-2.1,4.01-3.51,6.61
		C537.04,430.2,538.04,429.1,538.85,427.7z"/> <path d="M518.12,458.15c-0.3-1.77,2.3-11.97,2.6-13.62c0-0.3-0.3-0.6-0.6-1.3c-1.4,1.8-1.87,3.21-1.9,4.71
		c-0.26,10.6-2.65,11.57-1.3,13.82C517.71,460.45,518.32,459.35,518.12,458.15z"/> <path d="M532.64,410.28c0.3-0.1,0.7-0.2,0.9-0.3c-1.28-2.17-0.1-2.83-0.1-8.61c0-0.3-0.4-0.6-0.7-1.1c-0.2,0.6-0.39,0.9-0.3,1.2
		C533.47,404.8,530.69,407.04,532.64,410.28z"/> <path d="M520.72,435.71c-0.1-2.3,0-4.71-0.8-7.61c-1,2.7-0.5,4.81-0.2,7.01C519.72,435.51,519.92,436.01,520.72,435.71z"/> <path d="M512.01,347.38c0.1,0.6,0.2,1.1,0.4,1.9C512.71,348.39,513.21,347.78,512.01,347.38z"/> <path d="M515.61,360.7c0-0.9,0-1.5,0-2.3C514.81,359.1,515.01,359.8,515.61,360.7z"/> <path d="M509.7,513.53c-0.43,0.85-0.15,0.67,0.6,1.8C510.3,513.64,510.23,513.79,509.7,513.53z"/> <path d="M516.31,466.66c0-0.3-0.1-0.5-0.2-0.6c-0.84,0.42-0.4,0.59-0.4,0.9C515.91,466.86,516.11,466.76,516.31,466.66z"/> <path d="M533.24,415.48c0.31-0.31,0.1-0.35,0.1-0.6C532.96,415.26,533.24,415.26,533.24,415.48z"/> <path d="M509.6,524.04c-0.1,0.1-0.2,0.1-0.3,0.2c0.1,0,0.1,0.1,0.2,0.1C509.5,524.24,509.5,524.14,509.6,524.04z"/> <path d="M510,257.95c-0.2-1.7,1.9-2.8,0.6-5.11c-1.8,2.9-3.2,5.51-3.81,9.21c1.88-2.72,2.17-3.5,3.91-3.3
		C511.57,258.75,510.68,258.4,510,257.95z"/> <path d="M563.08,287c-5.91,16.33-4.93,13.96-4.61,14.92C560.88,297.01,562.58,292.2,563.08,287z"/> <path d="M525.23,265.36c-3-0.6-5.41-1.6-8.81-0.7C522.99,265.36,522.81,265.87,525.23,265.36z"/> <path d="M592.02,279.28c-0.75,0-0.92-0.28-1.3,0.1C592.32,279.78,591.77,279.78,592.02,279.28z"/> <path d="M564.98,267.17c0,0.1,0.1,0.2,0.1,0.3C565.59,266.96,564.98,266.62,564.98,267.17z"/> <path d="M582.31,243.13c0.8-2.1,0.1-4.31-0.1-6.61c0.4-0.7,0.9-1.4,1.6-2.6c-1.9,0.4-3,1.1-3.3,2.7
		C579.91,238.88,579.91,243.93,582.31,243.13z"/> <path d="M550.96,210.79c-0.2,0.4-0.1,1-0.2,2c1.6-2.1,2.9-3.81,4.11-5.41C552.87,207.88,551.86,209.28,550.96,210.79z"/> <path d="M588.32,200.67c-1.4,1.8-1.3,3.3,0,5.61C588.32,203.98,588.32,202.47,588.32,200.67z"/> <path d="M585.51,224.91c-0.9,1.9-0.9,1.9-0.4,3.1C585.21,226.81,585.41,225.81,585.51,224.91z"/> <path d="M588.42,208.48c-0.74,0-0.01-0.79-1.2,2C588.11,210.48,587.53,211.57,588.42,208.48z"/> <path d="M544.15,222.6c0,1.7,0,2.8,0,3.81C544.85,225.31,545.05,224.3,544.15,222.6z"/> <path d="M547.96,168.22c9.04,3.36,19.39,8.81,34.75,3.2c1.28-0.47,3.66-1.18,3.3-2.4c-0.58-1.35-2.42-0.1-4.01,0.3
		c-10.86,3.43-16.18,1.82-28.04-0.5c-7.54-1.47-4.02-1.8-7.81-1.8C546.86,167.32,547.36,167.92,547.96,168.22z"/> <path d="M591.12,166.42c-1.1-0.2-1.8-0.1-2.4,1.1C589.92,167.72,590.72,167.52,591.12,166.42z"/> <path d="M541.15,164.22c-0.23,0-0.22-0.28-0.6,0.1C540.76,164.32,540.58,164.79,541.15,164.22z"/> <path d="M546.26,166.92C545.86,166.62,546.26,167.12,546.26,166.92L546.26,166.92z"/> <path d="M573.2,451.54c-1.59,0.68-0.48,5.18,0.1,9.51c1-0.7,1.2-1.7,1.2-3C574.5,455.65,574.84,450.99,573.2,451.54z"/> <path d="M558.17,545.37c-0.59-3.53,3.02-6.09,1.5-10.21c-1.41,2.83-1,4.78-2.6,7.11C556.71,542.8,555.87,546.42,558.17,545.37z"/> <path d="M558.37,546.77c-1.44-1.05-3.28,0.75-1.7,2.1c0.8,0.6,1.8,1.2,2.8,2C561.69,549.69,561.02,548.71,558.37,546.77z"/> <path d="M593.93,405.77c-1.84-0.61-1.11-1.12-6.61,6.41C590.72,410.78,591.92,409.47,593.93,405.77z"/> <path d="M588.82,416.18c-0.72,1.49-0.8,2-0.1,3.71c0.9-1.8,1.8-3.51,3-5.71C589.62,414.78,589.4,414.97,588.82,416.18z"/> <path d="M589.02,427.5c0,0.1,0.5,0.4,1,0.9c0-2.3,1.1-4.21-0.3-6.41C587.38,423.16,589.95,424.71,589.02,427.5z"/> <path d="M572.09,472.77l0.1,0.1C572.16,472.58,572.18,472.5,572.09,472.77z"/> <path d="M572.19,466.66c-0.65,2.61-0.36,2.57-0.03,5.94c0.86-2.04,1.42-4.11,1.23-6.54C572.79,466.36,572.29,466.46,572.19,466.66z
		"/> <path d="M572.19,472.97l-0.1-0.1C572.16,473.15,572.12,473.16,572.19,472.97z"/> <path d="M571.99,477.17c0.66-1.42,0.43-2.75,0.15-4.08C570.99,475.86,571.01,475.89,571.99,477.17z"/> <path d="M560.78,532.85c0.3-0.5,0.6-0.8,0.7-1.1c0.1-0.3,0-0.6,0.1-1.3C560.38,531.15,560.48,531.75,560.78,532.85z"/> <path d="M570.49,482.98c0.45,0,0.4,0.4,0.8,0c-0.1-0.1-0.2-0.3-0.3-0.4C570.79,482.68,570.69,482.88,570.49,482.98z"/> <path d="M587.62,432.41c0.66-0.33,0.8-0.09,0.4-0.9C587.36,431.84,587.21,431.6,587.62,432.41z"/> <path d="M563.58,515.73c0,0.87,0.68,0.76,0.2-0.2C563.68,515.63,563.48,515.73,563.58,515.73z"/> <path d="M562.98,520.84c-0.32,0.64-0.2,0.61,0,0.8C563.3,521,563.18,521.03,562.98,520.84z"/> <path d="M562.18,526.14c0,0.1-0.1,0.2-0.1,0.3c0.1,0.3,0.3,0.4,0.4,0c0-0.1-0.1-0.2-0.1-0.3
		C562.38,526.14,562.28,526.14,562.18,526.14z"/> <path d="M570.99,42.24c1.65,1.1,2.84-0.02,4.11,1.8c0.4,0.7,1.7,1,2.8,0.3c-0.6-2.1,0.3-3.61,2.2-5.31
		C577.67,38.49,575.53,38.05,570.99,42.24z"/> <path d="M559.58,73.18c-1.58-1.58-2.32-1.19-9.61-4.31c-3.17-1.36-1.44-4.29-3.61-5.91c-0.91,1.21-0.91,0.68,0.1,4.41
		c1.16,3.49,3.75,3.37,6.31,4.51C554.97,72.68,557.17,73.38,559.58,73.18z"/> <path d="M577.7,36.43c7.71,3.19,3.55-2.68-2.9-2.4c-2.2,0.09-4.41,0.4-5.51,2.8c0.6-0.1,1.4,0,2.1-0.3
		C573.5,35.33,575.59,35.56,577.7,36.43z"/> <path d="M550.96,73.08c0.7,2.1,0.7,2.1,3.41,4.21C552.77,74.09,552.77,74.09,550.96,73.08z"/> <path d="M559.58,73.28c0.2,0.1,0.2,0.4,0.5,0.4c0.1,0,0.4-0.1,0.6-0.1c-0.2-0.1-0.3-0.3-0.4-0.3
		C560.08,73.28,559.78,73.28,559.58,73.28z"/> <path d="M558.77,86.7c-0.1-0.4-0.1-0.7-0.1-1.4C558.07,86.1,558.57,86.4,558.77,86.7z"/> <path d="M569.19,36.83c0,0.1,0,0.2-0.1,0.3C569.19,37.03,569.29,36.93,569.19,36.83z"/> <path d="M561.78,19.81C562.08,19.41,561.68,19.81,561.78,19.81L561.78,19.81z"/> <path d="M625.57,129.47c-0.73,0.37-0.1,1.3,0.1,1.3c4.19,0,8.44,0.71,10.42-1.8C628.22,129.49,626.62,128.77,625.57,129.47z"/> <path d="M678.95,105.63c-1.4,0.7-2.4,1.5-2.9,2.9C678.45,107.03,678.45,107.03,678.95,105.63z"/> <path d="M638.99,126.96c0.67,0.67,0.79,0.64,2.4,0.1C638.98,126.53,639.73,126.59,638.99,126.96z"/> <path d="M674.74,111.14C675.04,110.84,674.64,111.14,674.74,111.14L674.74,111.14z"/> <path d="M547.06,579.32c1.7,0,2.6-0.6,3.51-1.8c-3.2-0.5-5.51-0.3-8.11,0.6C543.85,579.82,545.56,579.32,547.06,579.32z"/> <path d="M733.13,101.13c-0.18-0.36-0.4-0.2-0.5-0.2C732.63,101.03,732.81,101.44,733.13,101.13z"/> <path d="M553.77,14.5l-0.1,0.1C553.91,14.56,553.84,14.65,553.77,14.5z"/> <path d="M533.44,19.41c0.6,0.1,1.1,0.2,1.6,0.3C534.64,19.41,534.24,19.01,533.44,19.41z"/> <path d="M551.96,14.4c0.7,0,1.3,0.1,1.8,0.1C553.27,14.2,552.87,13.8,551.96,14.4z"/> <path d="M526.83,19.01c0.6,0.3,1.1,0.5,1.6,0.8C527.93,19.51,527.33,19.21,526.83,19.01z"/> <path d="M535.84,19.91c-0.63,0-0.22-0.1-0.9-0.1C535.34,19.94,535.4,20.35,535.84,19.91z"/> <path d="M540.84,33.11c-0.58-0.67-1.34-0.67-2.19-0.58C539.29,33.08,540.1,33.04,540.84,33.11z"/> <path d="M541,33.18l0.05-0.05C540.64,33.07,541.08,33.34,541,33.18z"/> <path d="M541.95,33.43c-0.13,0-0.29-0.2-0.91-0.2C541.6,33.87,541.49,33.66,541.95,33.43z"/> <path d="M552.26,11.49c-0.05-0.05-0.12-0.07-0.18-0.09C552.11,11.49,552.18,11.49,552.26,11.49z"/> <path d="M552.06,11.29c-0.19,0-0.33-0.02,0.02,0.11C552.07,11.37,552.06,11.34,552.06,11.29z"/> <path d="M195.04,544.27c-0.3-5.47,3.02-5.76,1.5-10.82c-0.2,0.6-0.7,1.3-0.9,1.9c-0.46,3.89-2.95,5.93-2.2,7.21
		c0.82,1.39-0.3,2.3-0.4,3.4c0.6,1.3,1.8,1.8,2.8,2.5c0.4,0.2,1,0.1,1.4,0C198.96,547.79,196.36,545.59,195.04,544.27z"/> <path d="M209.77,450.13c-0.7,2.8,0.2,5.71,0.9,9.21C212.13,456.23,212.34,448.53,209.77,450.13z"/> <path d="M229.09,403.97c-4.69,5.99-4.04,5.42-4.21,6.61c3-1.6,4.51-4.11,6.31-6.61C230.2,402.97,229.49,403.46,229.09,403.97z"/> <path d="M209.97,464.35c-2.47,2.7,0.28,3.62-1.7,9.31c-0.1,0.4,0.1,0.9,0.2,1.4c1.2-0.2,1.2-1,1.2-1.8
		C209.17,467.05,212.08,464.66,209.97,464.35z"/> <path d="M225.69,421.79c1.32,1.91-0.14,3.98,0.9,4.51c1.1-2.3,1.1-2.8,0.5-5.91C225.69,420.29,225.29,421.29,225.69,421.79z"/> <path d="M225.59,418.29c3.5-5.96,2.51-4.51,3.1-6.11C225.89,413.28,225.19,414.78,225.59,418.29z"/> <path d="M217.28,410.88c2.7,0.4,2.7,0.4,4.01-0.6C220.08,409.47,219.18,410.08,217.28,410.88z"/> <path d="M206.76,438.92c-0.1,1.9,0.3,2.9,1.5,4.21C208.56,441.32,208.46,440.12,206.76,438.92z"/> <path d="M199.95,519.03c0,0.21-0.41,0.4,0.5,0.4C200.26,519.05,200.39,518.6,199.95,519.03z"/> <path d="M197.95,530.85c0.7-1.64,0.77-0.86,0.3-1.8C197.87,529.43,197.71,528.93,197.95,530.85z"/> <path d="M224.69,429.7c0,0.6-0.13,0.72,0.5,0.4c0-0.2-0.1-0.4-0.3-0.6C224.89,429.6,224.69,429.6,224.69,429.7z"/> <path d="M200.95,513.63c0,0.1-0.1,0.2-0.1,0.3C201.08,514.6,201.58,513.63,200.95,513.63z"/> <path d="M199.65,524.74c0.15-0.15,0.37-0.06,0-0.8C199.34,524.56,199.42,524.51,199.65,524.74z"/> <path d="M228.49,277.88c0.1-0.1,0.2-0.1,0.3-0.1C228.79,277.07,228.59,277.78,228.49,277.88z"/> <path d="M207.86,481.58c0.28-0.57,0.26-0.65,0-0.9C207.58,481.24,207.61,481.32,207.86,481.58z"/> <path d="M164,214.49c0.68-1.7,0.51-0.9-0.2-2.6c-3.05-7.32-3.11-8.98-5.01-10.01c-0.87-0.58-1.35,0.08-1.6,1.1
		c0,0.63,4.83,9.58,5.11,10.11C162.61,213.68,163.4,213.99,164,214.49z"/> <path d="M142.97,163.72c0,0.2-0.2,0.6-0.1,0.7c1.4,2.3,2.9,4.61,6.01,4.61C144.41,164.8,142.97,162.38,142.97,163.72z"/> <path d="M169.01,219.3c0.1,1.6,0.1,1.6,1.3,2.8C170.21,220.3,170.21,220.3,169.01,219.3z"/> <path d="M216.78,297.91c-0.7-1.1-1.4-1.4-2.5-0.7C214.67,298.31,215.47,298.31,216.78,297.91z"/> <path d="M207.06,298.11c-0.3-0.1-0.6,0.1-1.1,0.1c1.3,0.9,1.3,0.9,2.8,0.9C208.56,298.21,207.66,298.41,207.06,298.11z"/> <path d="M167.9,218c0.3-0.9,0.3-1.6-0.9-1.9C166.6,216.99,166.8,217.59,167.9,218z"/> <path d="M203.56,295.51c-0.94-0.62-0.64-0.77-1.5,0.1C202.74,296.07,203.01,296.6,203.56,295.51z"/> <path d="M151.68,171.83c0.3,0.8,0.6,1.6,1.6,1.7C152.78,172.23,152.78,172.23,151.68,171.83z"/> <path d="M157.19,193.96c-0.35,2.1-0.24,0.79,0.3,2.4C157.75,194.81,157.85,195.29,157.19,193.96z"/> <path d="M213.97,302.12c-0.3-0.4-0.4-0.7-0.6-0.9c0,0-0.4,0.2-0.4,0.3C213.41,302.4,213.11,302.12,213.97,302.12z"/> <path d="M172.41,125.16c-0.74,1.48-1.03,1.34-0.6,2.2C172.61,126.57,172.66,127.36,172.41,125.16z"/> <path d="M153.68,173.93c-0.2-0.1-0.3-0.2-0.5-0.3C153.28,173.83,153.08,174.33,153.68,173.93z"/> <path d="M149.28,169.32c-0.2,0-0.3-0.1-0.5-0.2C148.98,169.32,148.82,169.79,149.28,169.32z"/> <path d="M197.55,71.28c-14.57-5.7-11.52-4.51-13.52-10.01c-0.45,0.15-0.67,0.19-0.72,0.11c-0.64,2.87,0.85,6.01,3.43,7.2
		C191.96,70.99,200.18,72.6,197.55,71.28z"/> <path d="M208.16,39.94c0.8,1.9,2.3,0.3,3.3,0.9c0.4,1.9,1.8,2,3.3,1.9c0.2-2.8,0.2-2.8,2-5.61
		C213.17,36.03,210.97,38.63,208.16,39.94z"/> <path d="M207.96,34.93c4.08-2.38,6.86,0.01,9.91,0.7c0.4,0.09,0.8-0.2,1.8-0.4c-4.08-3.66-10.74-4.53-13.62,0
		C206.86,35.13,207.56,35.23,207.96,34.93z"/> <path d="M187.43,70.78c2.2,3.51,2.2,3.51,4.11,4.61C189.94,72.38,189.94,72.38,187.43,70.78z"/> <path d="M196.25,84.3c-0.4-0.5-0.6-0.8-1-1.3C195.24,84.1,195.24,84.1,196.25,84.3z"/> <path d="M197.95,88.91c0,0.1,0.1,0.2,0.1,0.3C198.58,88.68,197.95,88.41,197.95,88.91z"/> <path d="M218.98,241.23c1.99-0.99-0.73-4.46,1.4-8.91C216.29,232.32,216.6,241.23,218.98,241.23z"/> <path d="M225.09,198.97c-1,1.7-0.7,3.3-0.3,5.11c0.2-0.2,0.4-0.3,0.4-0.4C225.56,198.07,225.62,199.76,225.09,198.97z"/> <path d="M222.28,226.71c0-1.5,0-2.5,0-3.4C221.68,224.71,221.68,224.71,222.28,226.71z"/> <path d="M224.79,208.58c0.38,0,0.3,0.26,0.3-1.7C224.69,206.88,224.79,206.57,224.79,208.58z"/> <path d="M188.53,196.46c0.63,0.32,0.7,0.18,0.7-0.1C188.67,196.08,188.53,195.9,188.53,196.46z"/> <path d="M222.38,223.4c0-0.1,0-0.2,0-0.2S222.28,223.3,222.38,223.4z"/> <path d="M183.03,164.62c0.9,1.3,1.9,1.7,2.9,2.1c18.61,7.45,23.41,5.88,35.85,2.1c0.7-0.21,1.3-0.7,1.2-1.8
		C214.74,167.02,213.76,173.84,183.03,164.62z"/> <path d="M226.19,165.32c1.02,0.51,0.78,0.43,2.4-0.7C226.36,164.62,227.18,164.33,226.19,165.32z"/> <path d="M176.72,162.41c1.5,0.38,0.92,0.74,1.2-0.1C176.92,161.81,176.72,161.82,176.72,162.41z"/> <path d="M144.27,258.96c2.5-1.9,3.51-3.81,3.81-7.31c-0.4,0.1-0.9,0-1,0.2C145.97,254.05,144.37,256.25,144.27,258.96z"/> <path d="M160.39,263.16c-2.01-0.78-5.71-1.11-5.71-0.3c0.81,0.4-1.17,0.21,5.91,0.6C160.49,263.46,160.49,263.26,160.39,263.16z"/> <path d="M163.2,263.66c-1,0-1.8-0.1-2.6-0.1C161.3,264.06,162.1,264.16,163.2,263.66z"/> <path d="M150.08,257.15h0.3C150.38,257.02,150.44,257.03,150.08,257.15z"/> <path d="M181.42,577.52c2.4,0.3,4.51-0.1,6.91-1.9c-1.4-0.14-7.79-0.64-8.41,0.6C180.82,577.32,180.92,577.52,181.42,577.52z"/> <path d="M172.61,17.9c-0.6-0.2-1-0.3-1.5-0.4C171.51,18,171.91,18.3,172.61,17.9z"/> <path d="M164.3,17.5c0.8,0.3,1.6,0.5,2.4,0.8C166,17.6,165.2,17.6,164.3,17.5z"/> <path d="M171.21,17.4c-0.5-0.1-1-0.2-1.5-0.4C169.71,17.51,169.02,17.4,171.21,17.4z"/> <path d="M166.6,50.15v0.1C166.73,50.25,166.73,50.28,166.6,50.15z"/> <path d="M173.21,29.52c0.27-0.04,0.18,0.02,0.1-0.1L173.21,29.52z"/> <path d="M177.02,30.92c-1.06-0.86-2.12-1.63-3.63-1.42C174.38,30.53,175.65,30.82,177.02,30.92z"/> <path d="M179.03,31.6c-0.51-0.66-1.35-0.58-2.11-0.58C177.47,31.66,178.28,31.55,179.03,31.6z"/> <path d="M179.22,31.62c-0.28-0.05-0.17-0.02-0.1,0.1L179.22,31.62z"/> <path d="M179.12,31.72c0.2,0.1,0.5,0.1,0.7,0.2C179.62,31.82,179.42,31.72,179.12,31.72z"/> </g> </svg> 