<?xml version="1.0" encoding="utf-8"?> <!-- Generator: Adobe Illustrator 23.0.1, SVG Export Plug-In . SVG Version: 6.00 Build 0)  --> <svg version="1.2" baseProfile="tiny" id="Layer_1" xmlns="http://www.w3.org/2000/svg" xmlns:xlink="http://www.w3.org/1999/xlink" x="0px" y="0px" viewBox="0 0 900 600" xml:space="preserve"> <g> <path d="M693.67,96.57l-0.1-0.1C693.59,96.56,693.63,96.65,693.67,96.57z"/> <path d="M794.93,59.92c0.47-21.47-2.96-27.36,1.1-39.35c1.38-4.09,2.27-7.95,0.3-11.88c-8.71-1.74-5-0.22-6.69-2.9
		c-0.39-0.61-1-1.5-1.5-1.5c-2.5,0-4.59-2.9-7.29-1c0,0.71-0.45-1.56-5.99-0.1c-2.09-2.78-1.76-2.23-3.7-3.2
		c-1.5,2.3-2.8,4.29-4.09,6.29c-6.09,0-6.52-0.57-7.49,7.19c-0.2,1.1,0.21,2.08,1.1,2.6c1.39,0.81,1.42,0.84,7.99,13.98
		c8.01,16.02,6.27,4.99,1.9,51.63c-3.21,34.19-1.31,14.19-2.3,23.07c-6.7,6.14-20.67,21.62-22.07,30.56
		c-1.41,9.01-14.97,4.76-27.66,26.96c-4.29-2.5-8.79-4.19-13.68-5.09c-0.99-7.95-1.31-6.81,2.7-21.07c0.1-0.5,0.3-0.9,0.5-1.4
		c0.7,0,1.2,0,1.8,0c3.43-3.14,1.52-2.63,3.99-6.09c2.13-2.98,0.79-7.91-1.1-9.09c-1,0.1-1.4,0.6-1.5,1.4
		c-3.85-2.57,3.72-18.6-8.29-27.26c-1.74-1.26-0.98-1.05-1.4-4.59c-0.57-4.88-6.02-5.35-10.89-4.59c-1.9,0.3-3,1.7-4.19,2.9
		c-0.6,0.5-0.9,1.4-1.4,2.2c-3.38-0.82-10.06,2.36-12.18,5.59c-4.06,6.18-3.58,9.18-3.99,12.08c-2.11,14.64,0.57,12.53-1.9,15.98
		c-2.05,3.22-0.55,5.97,1.5,10.79c3.55,8.35,2.14,2.91,3.99,7.29c3.26,7.71,5.55,11.07,4.29,17.98c-3.2,1.4-6.29,2.8-9.49,4.29
		c-2.11-2.81-5.05-11.08-16.68-17.28c-14.41-7.69-7.54-4.93-12.68-14.68c-3.96-7.5-10.15-15.66-20.67-25.57
		c-2.2-21.07-4.49-42.04-6.69-62.92c2.92-3.3,4.3-6.19,11.88-21.97c1.96-4.07,3.6-3.37,3.6-5.29c0.48-9.1-3.32-7.99-7.29-7.99
		c-1.6-2-2.3-4.59-4.19-5.99c-2.2,0-2.3,2.3-3.79,2.9c-1.61-0.54-3.61-0.99-4.99,0c-1.11,0.79-1.99-0.87-3.1-0.4
		c-5.52,2.36-5.56,0.41-7.09,4.99c-2.1,0.3-4.29,0.2-6.19,1.3c-1.2,3.3-1.31,6.5-0.1,9.79c4.32,11.71,1.9,15.75,1.9,41.74
		c0,10.58-2.53,7.26-1.4,23.87c0.28,4.05,1.04,4.04,1.7,9.39c1.34,10.86,1.46,13.64,4.39,15.58c1.3,0.86,1.9,1.49,5.69,13.48
		c5.47,17.3,16.04,29.8,16.38,32.46c24.53,193.29,40.48,373.68,46.04,422.84c0.9,7.97-7.4,13.81-4.49,15.08
		c1.8,0.79,2.88,2.32,4.39,3.3c5.03,3.22,2.49-0.16,9.89,0.7c6.6,0.77,13.08,0.6,19.57-0.7c3.4,1.7,7.09,1.6,10.79,1.8
		c1.94,0,1.24-1.11,7.19-1.2c12.95-0.18,11.86-0.31,12.48-0.4c6-0.86,5.41-10,3.1-13.18c1.42-7.56,21.02-212.18,21.77-220.11
		c27.39-289.85,14.44-177.84,39.25-252.26c1.8-5.41,4.4-2.16,5.59-10.39c0.77-5.29,0.89-10.01,1.4-11.38
		c2.39-6.43,1.25-10.83,1.5-12.08C797.98,74.02,794.73,69.38,794.93,59.92z M787.04,6.29c1.07-0.71,0.99,1.4,1.7,5.39
		c-0.5,0.1-0.9,0.3-1.8,0.5C786.94,9.89,786.94,8.09,787.04,6.29z M784.55,5.29c0.66,4.6,1.32,7.39-0.4,7.39
		c-1.43,0.24-1.76-1.71-1.6-2.7c0.2-1.9,0.2-3.7-1.2-5.59C783.65,4.09,784.35,4.29,784.55,5.29z M780.75,11.78
		c-0.6,0.4-1.2,0.7-1.7,0.8c-1.2-0.5-2.4-4.79-2.4-8.19C779.36,2.51,781.6,7.98,780.75,11.78z M768.67,10.59
		c0.84-4.29-1.19-5.11,3.1-8.69c2.26,1.29,0.5,2.1,0.5,8.59c3.1,2.32-0.72-0.46,2.7-4.09c0.2,1.7,1.1,3.2,0.6,4.69
		c-0.7,0.8-1.2,0.2-1.8,0.1c0.23,2.03,0.62,1.88,7.99,4.89c1.3-0.5,0.6-1.3,0.4-2.1c0.2-0.1,0.5-0.3,0.6-0.2
		c3.25,3.69,6.85,1.01,9.29,2.7c-0.32,1.8-1.41,2.72-4.79,7.69c-9.56,14.07-1.66,5.89-8.59-0.7
		C772.04,17.19,767.41,16.98,768.67,10.59z M779.45,28.26c-0.05,2.4-0.2,4.89-0.3,7.09c-0.7,0.5-1.2,0.5-1.4-0.1
		c-2.31-6.93-7.69-13.52-8.59-16.78C771,19.61,779.51,25.49,779.45,28.26z M764.67,18.38c-0.2-1.9-1.4-3.1-2.8-3.99
		c-0.2-2.2-0.6-4.29,1.1-6.19c6.37-0.42,4.5-2.01,4.99,5.09c0.08,1.2-1.2,1.5-1.6,2.6c9.92,22.54,9.51,22.37,14.48,21.87
		c1-1.6,2.41-3.19,3.4-4.99c6.77-12.39,10.02-12.79,8.39-17.68c-4.47-2.23-2.22,0.76-1.5-4.99c1.5-0.4,2.7,0.3,3.89,0.8
		c0.9,1.8,0.6,3.7,0.6,5.49c-1.3,1.3-1.19,3.2-2.1,4.59c-14.01,21.49-10.95,16.84-12.18,18.08c-3.7,0.7-3.7,0.7-5.89-0.5
		C771.24,29.52,764.67,18.48,764.67,18.38z M731.92,149.5c13.67-10.32,13.43-5.69,15.38-11.78c2.91-9.1,7.94-14.35,18.68-27.66
		c0.4-0.5,1-1,1.9-1.8c0.1,0.9,0.1,1.3,0.1,1.7c-2.62,29.74-1.96,20.79-3.99,25.87c1,0.8,1.4,1.7,1.4,2.8
		c-2.79,24.14,1.14,16.15-18.38,40.55c-4.57,5.71-0.77,7-7.89,24.87c-2.08,5.23-2.94,11.84-3.7,6.79c-0.45-2.99-1.6-5.79-1-8.79
		c0-0.5-0.09-1-0.2-1.5c-3.24-14.95-6.56-17.27-7.09-18.87c-3.4-8.23-0.86-2.95-7.29-17.78C724.39,158.18,726.1,153.89,731.92,149.5
		z M706.85,532.19c-0.3-3.38-1.63-20.32-3.6-23.27c-1.96-2.93-3.82-22.14-3.1-23.67c1.04-2.18,1.4-25.58,1.4-27.96
		c0-3.07-2.75-3.68-3.7-15.68c-0.28-3.54-1.29-4.43-0.5-12.88c2-2.7,1.05-5.89,1.2-8.89c0.72-14.39-4.59-27.52-4.59-41.84
		c0-0.5,0-1-0.1-1.5c-1.24-4.01,0.5-5.73,0.5-23.17c16.04-1.4,28.51-4.1,34.65-1.4c6.77,2.98,7.33-1.1,6.39,6.19
		c-5.96,46.47-12.11,63.37-12.28,66.01c-1.35,20.43-0.59,14.51-0.9,16.58c-3.68,24.89,7.15,32.56,3.1,59.12
		c-9.43,61.77-8.89,37.67-8.89,50.53c0,2.38,1,0.18,1,6.79c0,1.16,0.5,1.05,0.5,4.19c0.3,0.2,0.5,0.5,0.8,0.7
		c0.5,0.1,0.8,0.2,0.7,0.8c0.1,0,0.64,0.2,0.2,0.2c-0.1-0.1-3.02-2.09-4.89-5.19c-2.89-4.79-7.21-3.17-8.89-4.39
		C705.07,547.18,707.91,544.27,706.85,532.19z M692.47,349.63c0.93,8.35-3.52-5.13-45.94,0.1c-1.2-11.58,2.3-43.14,6.39-53.03
		c9.08,1.82,19.12,7.42,31.46,8.89c13.34,1.59,20.37-1.07,23.37-1.5c14.57-2.08,13.48-6.19,24.97-6.19
		c1.68,6.07,4.27,20.81,4.99,25.57c0.56,3.71-1.13,23.66-1.5,27.36c-1.6,0-3.09-0.22-4.29-0.8c-9.99-4.79-26.4,1-35.45,1
		c-0.2-2.1-0.1-3.7,0.7-6.29c-1.42-0.24-1.65-0.32-4.09,0.9C691.3,346.82,692.47,346.8,692.47,349.63z M690.97,382.09
		c0.85,7.24-3.16,16.05-2.1,37.55c0.91,18.49,0.97,22.64-2.1,33.36c-1.05,3.69-0.51,4.03,1.6,23.07c3.14,28.41-1.3,18.41-1.3,57.32
		c0,3.01-1.46,2.26-1.5,4.39c-0.18,9.11,2.23,7.01,1.3,12.88c-4.41,0.83-2.86-0.01-9.29,2.4c-1.77-2.37-7.68-38.05-10.99-42.44
		c-1.96-2.61-5.03-16.65-5.59-19.87c-0.58-5.2-0.16-13.88-0.2-14.08c-1.52-7.46,3.15-17.44,3-18.38c-0.3-3.79,0.91-7.29,1-10.99
		c0.24-9.98-2.75-16.61-5.59-27.36c-1.25-4.72,0.59-1.39-1.9-10.49c-3.91-14.32-10.89-42.82-10.89-57.62
		c19.77-2.96,31.06-0.5,45.24,1.9C693.11,362.37,690.21,375.57,690.97,382.09z M674.99,559.55c-0.8,1-1.8,1.4-2.9,1.6
		c0,0.4,0,0.9,0,1.4c-0.8-0.7-0.4-1,0-1.4c0.2-0.4,0.1-0.9,0.6-1.3c2.29-2.29,2.05-0.96,1.7-3.1c-1.5,0.8-2.7,1.4-3.89,2.1
		c-1.2,2.3-1.8,4.99-3.2,7.29c-1.14-0.76-6.65-58.5-7.89-72.8c2.13,8.97,4.37,17.54,7.69,24.07c0.94,1.85-0.22-0.82,7.29,33.06
		c0.78,3.52,2.08,4.86,0.8,6.99C674.89,558.06,674.99,558.95,674.99,559.55z M658.51,486.45c-0.1,0-0.2,0-0.3,0
		c-17.45-157.01-11.5-98.39-3.2-77.6c1.51,3.79,0.07,2.85,1.1,6.89c3.74,14.71,3.85,8.17,5.59,24.47c0.23,2.19,0.61,4.4,0.4,6.59
		c-0.56,5.7-0.02,11.48-2,17.08C657.02,472.61,658.51,478.4,658.51,486.45z M688.08,246.63c16.35-0.75,14.04-0.65,23.46,5.13
		c0.1,0,0.2-0.1,0.5-0.3c-0.37-1.75-1.97-2.7-5.39-5.19c4.89-1,16.48-1,20.37,0.1c-4.32,21.63-5.09,18.26,4.39,48.93
		c-13,3-3.62,0.49-13.38,4.39c-4.25,1.7,1.28-3.57-0.2-8.29c-1.15,1.54-0.09,0.54-4.09,9.69c-7.72,2.51-9.13,2.62-27.46,1.8
		c-12.52-0.56-6.94-3.04-11.09-6.49c0.79,6.31,3.65,5.76-20.67-1.5c7.41-29.63,8.91-21.87,3.99-46.44c2.14-0.92,2.24-0.89,2.7-0.9
		c12.25-0.27,20.65-0.65,26.61-0.92c-1.44,0.98-3.08,1.56-3.74,3.92C687.18,249.4,688.2,248.42,688.08,246.63z M658.91,261.35
		c-0.2,27.75-12.93,22.97-15.18,83.79c-1.2-0.67-19.27-174.57-19.27-177.56c11.92,11.92,15.27,12.98,16.68,25.87
		c0.35,3.19,0.88,6.2,2.4,9.19c0.36,0.71,6.12,18.33,6.19,18.68c1.04,5.06,2.56,13.14,4.19,17.58c0.7,1.9,1.4,3.7,1.4,5.69
		C655.32,247.61,658.94,257.2,658.91,261.35z M694.17,349.13c-0.4-1.1-0.4-1.1,0.3-1.9C694.87,348.24,694.87,348.24,694.17,349.13z
		 M719.73,559.55c0-30.59-0.09-5.82,6.29-52.83c0.73-5.39,2.6-5.44,2.9-12.88c0.44-11.24-2.1-20.2-2.1-20.87
		c0.48-5.48-3.03-10.65-2.8-18.58c1.58-54.86,7.41-28.55,15.18-99.87c0.73-6.72,2.4-30.01,0.2-36.45c-0.82-2.4-2-15.7-7.19-29.36
		c-4.36-11.48-6.09-17.76-5.99-29.16c0-0.5,0-1.1,0.2-1.5c1.8-4.69,2.06-9.9,3.7-14.68c2.64-7.69,3.94-9.31,3.7-12.68
		c0-3.41,8.72-29.52,10.09-31.96c0.78-1.39,1.46-8.78,2.3-12.68c1.41-6.57,4.97-9.16,10.29-14.48c7.32-7.32,6.78-13.23,4.09,14.78
		c-0.47,4.86-35.82,372.86-36.25,378C722.43,561.35,722.43,561.35,719.73,559.55z M711.94,128.43c0-0.25-0.51-0.33,0.1-0.91
		C712.04,128.45,711.94,128.28,711.94,128.43z M712.34,123.34c0.3,0.1,0.5,0.1,0.5,0.2c0.57,1.15,0.32,2.48-0.67,3.73
		c0.19-0.97-1.12-1.4-1.03-2.53C711.44,124.33,711.94,123.83,712.34,123.34z M711.24,130.23c0,1.4-0.8,2.2-1.8,3.3
		c-0.3-0.5-0.8-0.9-0.7-1.2C708.95,131.13,709.65,130.23,711.24,130.23z M708.75,113.15c0,0.1,0,0.2,0,0.2
		C708.59,113.35,708.21,113.69,708.75,113.15z M704.85,97.27c0.8,0.8,1.6,1.6,0.9,3.1c-1.87-1.49-1.21-2.03-3.31,0.38
		c-0.08-1.67-0.03-3.33-0.72-4.9C703.06,95.18,703.94,96.22,704.85,97.27z M695.16,86.88c3.31,0.1,3.72,0.43,4.9,4.19
		c-1.06-0.58-2.11-0.24-2.82-1.19c-1.1,0.4-2.19,0.59-3.28-0.2c-0.84-0.84-1.87,0.46-0.4-2c-1.5-0.3-1.8,1.3-3.1,2
		c-0.7-0.2-1.5-0.4-2.7-0.7C692.57,84.44,694.89,86.88,695.16,86.88z M692.65,89.27c-0.09,0.31-0.08,0.46-0.08,0.11
		C692.57,89.32,692.6,89.3,692.65,89.27z M687.98,95.87c0-0.61-0.29-0.61,0.1-1C688.57,95.86,688.31,95.2,687.98,95.87z
		 M687.08,91.48c0.2,0.1,0.4,0.4,0.4,0.5c-0.59,1.49-0.42,1.84-1.3,1.4C686.45,91.99,686.17,91.48,687.08,91.48z M684.48,91.48
		c1.3,3.1,1.9,5.89,1.6,8.99C683.08,98.47,682.18,94.47,684.48,91.48z M675.2,100.22c-0.58-0.3-0.61-0.84-0.61-1.39
		C675.18,99.13,675.36,99.59,675.2,100.22z M674.42,98.51c-0.01-0.02-0.02-0.04-0.03-0.05C674.39,98.29,674.39,98.36,674.42,98.51z
		 M668.9,124.13c0.13,0.25,0.16,0.2-0.1,0.2L668.9,124.13z M669.1,130.13c-1.6-1.3-1.5-2.6-1.1-4.19
		C669.8,127.03,668.9,128.53,669.1,130.13z M669.6,115.35c-0.39-0.39,0.33-1.07,0.6-0.8C672.11,115.69,670.38,116.65,669.6,115.35z
		 M671.53,136.66c-0.11-0.9-1.03,0.16-0.43-2.24C671.56,136.73,671.69,136.87,671.53,136.66z M674.19,140.41
		c-2.51-9.87-3.06-7.42-3.4-11.58c-0.87-10.94,0.27-10.92,1.9-12.78c0.3-1.5-0.1-2.2-1.5-2.9c-0.73-4.38-1.78-3.81-0.45-5.41
		c0,1.19,1.06,0.45,0.09-0.1c0.07-0.1,0.09-0.11-0.01-0.01c-0.05-0.05-0.03,0.14-0.03-0.98c-0.1-0.7,0.1-1.1,0.9-1.1
		c0.19,0,0.37-0.43,0.56-0.74c-0.06-0.06-0.1-0.1-0.16-0.15h0.1c0.13-0.27,0.17-0.27-0.1,0c-1.3-1.22-1.44-1.46-0.4-2.51
		c1.12-1.12-1.15-4.75,3.7,0.1c1-0.9-0.3-1.3-0.1-2c-0.01-0.01-0.02-0.01-0.04-0.02c0.85-0.34,1.25,0.34,1.94,1.02
		c0.2-0.5,0.8-1.1,0.7-1.4c-0.38-1.1-0.1-2.4-1.2-3.3c-0.1,0.6-0.1,1.2-0.2,1.8c-1.6-1.1-1.6-1.1-0.8-3c0.4,0.4,0.7,0.9,1.1,1.3
		c-0.2-1.2-0.6-2.5,1.1-3c1.91,0.96-0.5,4.99,3.83,7.21c-1.9-6.34-2.61-7.18-1.74-8.7c0.79,0.2,1.4,0.16,1.4,1.3
		c-0.4,3.3,1.5,5.79,3.1,8.49c0.8,0.1,1.7,0.09,2.5,0.2c0.7,0.09,1.3,0.3,2,0.4c0.1-3.7,0.3-7.19,0.4-10.69c0.9-0.6,1.6-0.4,2.6,0.2
		c0.1,0.7,0.1,1.5,0.2,2.3c2.57-3.31,1.69-2.8,3.79-2.2c0.1,2.2-0.4,3.89-1.9,5.49c-0.17-0.43-0.34-0.78-0.44-1.06
		c-0.53,0.47-0.44-0.07-1.66,2.37c-0.27-3.98,0.28-5.75-0.9-3.4c-0.3,0.7-0.7,0.1-1.3,0.2c-0.32,1.6-0.1,5.68-0.1,5.79
		c1.7,1.39,2.86,0.23,5.29-1.9c0-0.6,0-1.3,0.8-1.5c0,1.44,0.18,1.2-0.7,1.2c0.29,0.57,0.57,0.86,0.86,0.1
		c0.2,0,0.39-0.02,0.54-0.07c0-1.56,0.17-1.51-0.66-1.51c0.05-0.49,0.08-0.95,0.66-1.2c-0.1-1.4,0.1-2.7,0.8-3.79
		c1.35,0.15,0.64,1.32-0.1,3.5c-0.97,0-0.5-0.21-0.5,1.6c0.73-0.37,0.55,0.54,0.69-1.3c0.76,0,0.94-0.72,1.21,0.67
		c-1.49,0.82-1.19,0.4-1.19,2.13c0.22,0,0.4,0,0.62,0c-0.01,0.01-0.02,0.03-0.03,0.09l0.1-0.1c-0.03,0-0.05,0-0.06,0
		c0.1-0.42,0.3-0.73,0.78-0.77c0.04-1.58,0.03-1.32,0.59-1.32c0.1-1.6,0.1-1.6,1.1-3.2c0.84,0.28,0.9,1,0.98,1.67
		c-0.25,0.19-1.53,1.11-1.98,1.33c0.19,1.31-0.94,1.84-0.6,1.5c-0.1,0,0.11-0.11-0.8,0.8c0.58,1.26,1.35,0.27,2.13,0.12
		c0.36,1.85,2.45,1,2.07,1.38c0.36,1.44,0.01,1.49,2-0.1c0.5,1.5,1,3,1.5,4.69c0.5-1.5,0.9-2.7,1.3-3.89
		c1.65,1.2-0.01,3.91-0.5,5.49c-0.21,0.69-0.2,1.4-0.3,2.2c0.7-0.2,1.6-0.8,1.8-1.1c0.73,0.94-0.75,2.04-0.49,2.31
		c-2.07,2.61-1.41,2.78,0.09,3.69c0.21-0.11,0.1,1.3,0.3,3.1c0.76,6.98,1.69,9.03,0.2,12.28c-4.49,9.78-1.52,22.6-16.98,25.17
		C686.51,155.58,677.01,151.52,674.19,140.41z M700.86,98.13c0,0.51-0.06,1-0.6,1.29C700.27,98.9,700.32,98.41,700.86,98.13z
		 M670.1,194.54c2.36-20.02,0.61-21.74,3.89-30.66c1.5-1,3.1-1.9,4.89-3c3.71,3.71,0.4-2.88,0.4-7.79c2.81-0.6,8.32,6.28,15.28,2.5
		c2.39-1.3,4.89-2.1,6.89-4.09c3.12,8.31,0.64,12.73,2.7,14.58c2.91-4.07-3.7-10.08,9.49-3.99c0.72,1.81,1.16,15.75,1.2,17.38
		c0.23,9.6-0.55,15.91-5.49,21.17c-3.16,3.37-12.59,10.34-16.88,8.99c-1.59-4.94,2.31-10.19,4.89-15.18
		c-2.05,0.51-4.19,4.02-5.29,5.59c-3.79-3.4-3.79-3.4-5.79-3.4c1.4,2.2,3.6,3.4,4.89,5.39c-0.89,7.39-0.57,8.13-2.6,7.79
		c-2.1-0.2-4.2-0.39-6.19-0.8C674.13,207.33,669.5,199.65,670.1,194.54z M669.7,164.68c0.29,3.17-1.74,16.46-1.6,32.06
		c0.1,11.66,13.91,16.27,25.77,15.38c5.57-0.42,6.34-2.68,10.39-4.39c9.06-3.84,13.3-11.86,12.88-20.97
		c-1.32-28.84-3-30.38,6.29-8.09c0.3,4.49,6.68,11.52,7.89,23.57c2.37,23.74,4.19,12.05-3.99,42.04
		c-14.55-0.93-55.11,0.86-69.61,1.6c-0.5-1.8-1.6-3.3-0.8-5.29c0.89-1.77-6.07-14.42-4.09-24.07c0.39-1.9,0.1-3.89,0.6-5.79
		c0.5-1.9,0.71-3.89,0.9-5.89c1.4-14.55,7.99-20.06,7.99-24.37C669.72,162.82,668.19,165.69,669.7,164.68z M618.47,109.85
		c3.11,3.11,11,13.23,13.48,16.48c4.64,6.07,5.69,9.83,8.19,16.08c17.54,9.35,18.49,12.45,26.07,23.27
		c-4.79,11.07-15.96,34.61-14.78,38.15c0.8,3.2-0.6,5.99-1.3,8.99c-1.21,0.61-1.14-1.21-2.9-6.49c-2.58-7.73-3.19-6.38-4.69-15.78
		c-0.93-5.8-1.79-7.66-4.69-11.38c-5.84-7.49-14.75-14.53-15.28-25.27c-0.55-11.21-2.34-12.48-0.5-17.28
		c-1.5-1.7-1.42-1.71-3.7-22.97C618.17,112.55,617.87,111.35,618.47,109.85z M607.08,6.29c0.4-0.5,0.4-0.5,2.7-0.5
		c-0.3,1.7-0.7,3.1-0.6,4.59c-0.1,1.5-1.5,2.4-1.6,3.79C604.23,13.94,605.03,8.82,607.08,6.29z M601.79,6.79c0.12-1.1,0.6-1.2,2.9-1
		c-0.9,2-1.51,3.7-0.9,5.59c0.25,0.76-0.25,2.8-1.6,2.8C600.91,14.18,601.1,12.84,601.79,6.79z M598.49,7.69
		c2.05-2.05-0.01,3.13,0.9,5.29C596.57,14.68,597.68,11.16,598.49,7.69z M602.99,15.78c0.2-0.3,0.6-0.4,0.9-0.7
		c0.64,0.73-1.21,3.3,1.5,2.4c7.79-3.34,6.18-2.48,7.59-4.59c-0.5,0-1.1,0.2-1.8,0.3c-0.9-1.6-0.2-3,0.1-4.49
		c1.57,1.21,1.7,1.12,1.7,4.19c2.84-1.89-1.79-7.24,1.3-9.49c1.8,1.7,3.4,3.3,2.9,6.19c-0.22,2.02,1.92,7.12-3.99,10.79
		c-2.4,1.49-4.6,3.68-6.59,5.79c-2.53,2.68-1.9,4.46-1.9,8.09C585.68,8.12,598.56,21.54,602.99,15.78z M616.87,19.87
		c0,0.25,0,0.21-0.08,0.26C616.84,20.06,616.87,19.98,616.87,19.87z M616.67,20.27c-2.27,6.06-1.21,2.54-3.89,7.69
		c-4.37,8.37-3.83,8.96-5.29,9.29c-0.68-2.05-0.13,0.18-0.6-6.89c-0.17-2.52,0.37-3,9.39-10.09
		C616.37,20.17,616.57,20.27,616.67,20.27z M591.1,12.38c1.3-0.7,2.5-1.3,3.79-1.1c1.67,5,2.54,3.78-0.8,4.89
		c-0.96,2.4-0.4,4.71,1.1,6.69c5.97,7.93,4.84,8.45,9.79,15.28c2.15,2.98,5.58,0.25,6.89-2.8c3.1-7.18,5.82-12.86,8.19-18.28
		c-1.3-1.3-2.9-1.86-1.2-8.09c5.06,0.36,3.62,0.23,4.79,0.7c0.91,1.82,1.86,5.58-0.2,6.79c-1.93,1.14-0.8,1.75-2.5,4.29
		c-9.62,17.19-8.77,15.85-9.49,17.88c-0.57,1.61-1.8,2.5-3.4,1.8c-1.1-0.4-2,0.3-3.1-0.1C589.24,19.35,590.29,16.04,591.1,12.38z
		 M616.97,148.2c-9.59-12.33-15.28-35.37-20.97-40.25c-0.66-8.24-4.16-17.04-3.79-29.26c0.73-24.58,2.1,0.15,2.1-48.64
		c2.9,1.9,2.8,4.49,3.2,6.99c0.6-0.1,1.1-0.2,1.7-0.3c1.9,2.1,3.1,4.99,6.29,5.99c3.26,22.83,3.61,31.83,5.69,48.73
		c0.41,3.29,0.5,6.59-0.3,10.09c1.6,1.6,1.89,3.8,2.1,5.99C615.34,132.46,617.39,145.29,616.97,148.2z M628.55,237.78
		C605.97,30.11,607.37,45.3,608.48,42.24C610.53,45.79,721.32,1090.71,628.55,237.78z M670.4,596.01c0.7-2.4,0.9-2.7,2.4-2.6
		c3.1,0.4,6.19,1.2,8.99,2.6C682.64,596.86,681.62,596.55,670.4,596.01z M692.47,595.71c-2.1,0.4-3.99,1.2-6.29,0.9
		c-0.7-0.9-1.2-1.99-2.5-2.4c-11.15-3.51-13.3-5.84-16.08,1.1c-3.22,0.61-3.2-1.42-4.09-5.89c1.13-4.52,3.06-1.95,3-10.59
		c-0.07-8.73,3.68-13.43,4.49-14.78c17.48,0,20.04-0.35,19.67-2c-0.38-1.35-0.78-1.9-12.98-1.9c-0.34-6.66,5.63-6.87,9.69-7.59
		c1.82,7.89,1.93,6.96,4.49,6.59c5.2,3.98,1.47,16.41,0.4,26.56C691.88,589.4,693.53,592.31,692.47,595.71z M694.57,584.92
		c-0.87,0.44-0.39-0.62,0-1.6C695.17,583.32,694.88,583.36,694.57,584.92z M696.46,572.94c0.19-3.31,0.3-9.17-1.6-11.88
		c-0.3-0.43-0.4-5.33-3.5-8.69c-0.81-0.89-1.3-1.9-1.3-3c0-10.66-3.43-11.83,1.2-43.44c1.84-12.57,3.1-13.02-2-45.74
		c-1.34-8.58,4.7-8.75,3.3-25.37c-0.21-2.46-0.52-8.49-0.7-8.79c-1-2.1-0.71-4.29-0.8-6.49c-0.52-13.49-1.2-6.58,2-25.77
		c1.5,4.34,1.8,8.82,3.2,21.67c1.08,9.91-1.77,13.32-0.4,25.47c1.67,14.74,3.85,12.8,3.8,18.38c-0.19,19.08-0.22,5.94-1,20.67
		c-1.31,24.66,8.24,44.86,6.19,62.32c-1.25,10.62-1.13,11.1-1.9,11.48c-4.86,1.36-6.05,8.26-5.79,13.18
		C697.43,571.94,696.96,572.11,696.46,572.94c0,2.39-0.08,4.72-1,7.49C694.97,577.83,695.76,575.43,696.46,572.94z M724.83,593.71
		c-0.94,2.35,0.78,1.45-6.49,1.8c-2.18-3.19-9.72-3.48-13.38-2.5c-3.13,1.05-2.38,2.4-1.3,2.4c0.4,0,0.9-0.29,1.4-0.3
		c7-0.16,7.61-0.53,8.09,0.9c-7.83,0-11.78,3.31-17.18,0c-0.4-2.9-0.6-5.69,0.4-8.39c0.88-2.37-0.25-5.95,1.8-8.59
		c0.41-0.68,1.52-10.08,1.3-12.78c0-0.2,0.2-0.4,0.3-0.9c0.4,0.3,1,0.6,0.9,1.1c0.1,0.5-0.29,0.9-0.4,1.4
		c-0.18,0.8,0.2,1.61,0.9,1.7c2,0.25,9.93,1.37,11.98,0c2.57-2.57-3.02-2.02-10.19-3.3c3.56-0.96,7.49-0.24,11.09-0.9
		c0.1-0.03,5.29-2.78-10.79-2.5c-1.2,0.02-2.4,0.5-3.7,0.8c-0.4-1.4,0-2.9,0.5-4.39c1.1-3.3,7.67-3.32,9.49-3.1
		c5.35,0.65,4.81,10.58,11.09,9.69c1.44,2.16-0.41,5.7,2.2,16.08C724.16,587.21,727.16,588.69,724.83,593.71z M735.41,487.65
		c-37.56,366.64,38.83-444.9,42.34-446.4C779.27,43.52,735.42,487.54,735.41,487.65z M790.44,104.06c-0.25,3.21-2.03,3.49-4.19,8.09
		c-5.78,12.31-10.15,25.29-16.18,32.66c3.73-39.67,3.58-41,5.29-46.84c1.4-0.6,1.4-0.6,1.6-1.9c-0.6,0.2-1.1,0.3-1.9,0.5
		c-0.22-3.43,3.51-39.77,3.7-41.44c1.86-17.11,0.89-12.19,5.39-16.48c1.07-1.02,1.8-2.3,2.7-3.4c0.6,0.1,1.1,0.2,1.5,0.1
		c1.1-1.2,0.28-2.71,0.9-3.89c3.68-7.05,2.42-2.33,3,24.97c0.24,11.36,1.8,5.36,1.8,22.07C794.03,86.98,790.44,103.96,790.44,104.06
		z"/> <path d="M693.57,87.68c0.5-0.3,1.09-0.6,1.59-0.8C694.66,87.07,693.77,86.78,693.57,87.68z"/> <path d="M672.3,104.86v-0.1C672.26,104.84,672.23,104.8,672.3,104.86z"/> <path d="M358.11,168.28c-0.58-2.16-0.67-6.59-1.5-8.69c-1.95-4.96-2.76-12.18-3.5-16.78c1.45-3.48,4.81-8.67,3.2-15.38
		c-0.38-1.58-0.49-2.02-4.79-3.1c-0.3-1-0.6-1.9-1-3.1c-2,0.2-3.89,0.2-5.59-1.1c-0.41-0.27-2.15,0.25-2.4,0
		c-1.3-1-2.8-0.8-4.09-0.9c-0.8-0.8-1.5-1.5-2.3-2.2c-0.7,0.5-1.2,1.3-1.8,1.3c-2.1,0-3.2,1.2-3.79,2.8c-5.13,2-6.74,1.8-7.39,4.39
		c-2.63,7.88,7.67,22.36,13.18,31.26c2.65,4.91,2.8-0.39-3.99,35.95c-0.2,0.7-0.5,1.3-0.8,2c-3.28-0.55-16.81-6.97-21.87-7.49
		c-2.1-0.22-4.09-0.8-5.59-2.5c-0.7-0.7-1.59-1.11-2.4-1.7c-9.61-6.99-4.55-4.24-13.88-9.69c-12.59-7.34-16.59,2.37-31.06-5.89
		c-10.3-5.88-10.85-1.68-12.08-6.79c-1.47-6.1-2.99-12.49,2.4-25.97c0.7,0,1.2,0,1.8,0c3.43-3.14,1.52-2.63,3.99-6.09
		c2.13-2.98,0.79-7.91-1.1-9.09c-1,0.1-1.4,0.6-1.5,1.4c-1.3-0.8-1.2-2.1-0.3-4.19c0.27-8.86,1.18-17.8-7.09-23.77
		c-1.74-1.26-0.98-1.05-1.4-4.59c-0.57-4.88-6.02-5.35-10.89-4.59c-2.4,0.37-4.29,2.88-5.49,4.99c-3.96-0.53-10.25,2.59-12.28,5.69
		c-4.06,6.18-3.58,9.18-3.99,12.08c-2.08,14.41,0.52,12.59-1.9,15.98c-2.05,3.22-0.5,5.95,1.5,10.79c3.22,7.76,2.09,2.54,4.49,8.69
		c3.04,7.78-3.28-10.19-3.5-12.88c-0.87-10.94,0.27-10.92,1.9-12.78c0.3-1.5-0.1-2.2-1.5-2.9c-0.75-4.52-1.85-3.74-0.3-5.59
		c-0.14,0.14-0.1,0.3-0.1-0.9c-0.1-0.7,0.1-1.1,0.9-1.1c0.19,0,0.37-0.43,0.56-0.74c-1.46-1.36-1.65-1.57-0.56-2.66
		c0.8-0.8-0.2-2,1-2.6c0.92,1.16,2.32,2.32,2.7,2.7c1-0.9-0.3-1.3-0.1-2c-0.72-0.27-0.63-0.87-0.61-1.42
		c0.53,0.39,0.79,0.86,0.61,1.52c0.9-0.4,1.3,0.3,2,1c0.2-0.5,0.8-1.1,0.7-1.4c-0.38-1.1-0.1-2.4-1.2-3.3c-0.1,0.6-0.1,1.2-0.2,1.8
		c-1.5-1.1-1.5-1.1-0.8-3c0.4,0.4,0.7,0.9,1.1,1.3c-0.2-1.2-0.6-2.5,1.1-3c1.91,0.96-0.5,4.99,3.83,7.2
		c-1.91-6.35-2.61-7.18-1.74-8.7c0.65,0.16,1.4,0.11,1.4,1.3c-0.4,3.3,1.5,5.79,3.1,8.49c0.8,0.1,1.7,0.09,2.5,0.2
		c0.7,0.09,1.3,0.3,2,0.4c0.35-13.12-0.14-11.16,2.9-10.79c0.29,2.96,0.23,2.39-0.6,3.5c-0.37,0.74-0.54,0.27-1.2,0.1
		c-0.46,1.7-0.2,5.66-0.2,5.79c1.62,1.33,2.68,0.39,5.29-1.9c0-0.6-0.1-1.3,0.7-1.5c0.2-0.6,0.1-1.2,0.8-1.5c0-5.15,1.82-4,1.5-2.7
		c-0.94,2.77-0.62,2.4-1.4,2.4c0,0.5,0.1,1.1,0.1,1.6c0.17-0.09,0.41-0.1,0.61-0.1c0.04-1.37,0.08-1.2,0.2-1.2
		c0.89-0.3,0.9-0.3,1.09,0.67c-0.4,0.22-0.81,0.45-1.19,0.67c0,1.71,0.2,1.46-0.67,1.46c0.26,0.83,0.51-0.06,0.67,0.1
		c0-0.13-0.09-0.1,0.5-0.1c0.05,0,0.14,0.01,0.14-0.03c0.01,0.01,0.01,0.02,0.02,0.03h-0.03c-0.04,0.13-0.06,0.13,0.04,0.03
		c0.66,1.15,1.41,0.23,2.16,0.09c0.23,1.19,1.18,1.2,2.1,1.36c-0.1,0.1,0.01-0.07,0.27,1.23c0.7-0.5,1.2-0.9,1.7-1.3
		c0.5,1.5,1,3,1.5,4.69c0.5-1.5,0.9-2.7,1.3-3.89c1.81,1.32-0.21,3.45-0.8,7.59c1.2,0.4,1.2-0.7,1.8-1c0.78,1-1.09,2.88-1.6,3.89
		c-0.39,0.98-0.3,1.2,1.14,2.06c-0.29,0.29,0.25,6.46,0.66,8.13c0.61,2.49,0.75,5.07-0.4,7.59c-0.61,1.33-3.84,14.14-4.59,15.98
		c-4.46,10.86-20.08,12.94-26.98,1.18c2.76,6.2,1.58,13.57,0.52,16.4c-11.55,3.44-12.54,7.49-18.18,7.19
		c-17.87-0.95-16.95-2.33-35.15,11.88c-4.76,3.71-5.64,3.99-7.99,4.49c-8.54,1.85-15.32,5.58-22.37,7.59
		c-1.84-6.13,0.82,2.02-6.49-31.56c-1.41-6.49,17.37-24.01,15.08-36.95c-0.57-3.2-2.67-3.19-7.49-4.79c-0.5-1.7-1.7-2.75-3.7-2.8
		c-0.4-0.01-0.7-0.6-1.1-0.9c-0.97-0.65-1.06-0.5-3.2,1.9c-2.3-0.6-4.39,1.2-6.79,0.8c-4.45,2.83-5.02-1.64-6.19,4.19
		c-2.97,0.81-4.36,0.56-4.79,2.4c-1.62,6.86-0.19,7.89,3,16.18c-0.8,6.39-2.1,12.11-3.3,15.98c-1.47,4.77-0.74,5.89-1.7,9.39
		c-4,14.68-0.83,26.44-2.7,43.14c-0.17,1.52-0.35,3.43,0.5,4.69c2.73,4.1,3.47,5.04,5.09,5.49c3.4,0.95,3.82-0.1,6.49,0.7
		c6.28,1.87,13.28,0.49,18.28,1.2c4.45,15.59,53.2,272.5,53.23,272.64c18.73,97.18,18.24,84.56,15.48,90.08
		c-2.51,4.34-4.55,7.08-3.1,7.79c2.81,1.36,6.05,6.38,9.89,4.19c2.14-1.22,12.1,1.95,23.97-0.9c1.34,0.45,4.32,2.39,13.18,1.1
		c7.67-1.12,15.65-0.6,17.68-0.9c1.8-0.26,4.08-2.3,4.19-3.79c0.88-11.23-3.56-8.28-2.5-14.08c1.16-6.33,66.1-355.54,66.91-356.42
		c19.1,0,16.43-1.62,21.57-1.4c1.9,0.08,3.6-0.8,4.39-2.8c0.71-1.77,4.03-2.39,2.79-8.6C359.04,195.3,362.09,182.99,358.11,168.28z
		 M207.72,124.13c0.26,0.13,0.25,0.07,0,0.2V124.13z M208.02,129.83c-1.4-1.3-1.4-1.3-1.2-3.89
		C208.71,127.03,207.82,128.43,208.02,129.83z M210.01,134.32c0.44,2.4,0.6,2.57,0.43,2.34
		C210.29,135.45,209.49,136.69,210.01,134.32z M210.11,115.95c-0.89,0-1.7-0.3-1.6-1.1C208.51,114.45,209.6,113.89,210.11,115.95z
		 M224.99,100.77c-2-1.9-3.07-3.79-2.8-6.29c0.11-1-0.5-2.3,1.2-2.8C224.79,94.47,225.29,97.37,224.99,100.77z M225.79,93.58
		c-0.89-0.3-0.76,0.27-0.4-1.9c0-0.1,0.4-0.2,0.6-0.2C226.59,91.78,226.36,92.16,225.79,93.58z M226.79,95.57
		c0-0.74,0.5-0.97,0.5,0.1C227.09,95.57,226.99,95.57,226.79,95.57z M232.68,98.07c-0.17-0.43-0.34-0.78-0.44-1.06
		c-1.75,1.57-1.46,3.84-1.46-2.25c0.7-0.9,1.4-1.7,2.1-2.7c0.5,0.2,1,0.3,1.7,0.5C234.78,94.77,234.18,96.47,232.68,98.07z
		 M231.76,89.17c-0.03,0.1-0.08,0.23-0.08,0.31C231.68,89.26,231.66,89.23,231.76,89.17z M236.38,89.9c0,0,0,0,0-0.02l-0.05-0.05
		c0.07-0.07,0.05-0.02-0.04-0.05c0,0-0.01,0,0,0.01c-0.12,0-0.16-0.06-0.01,0.09C236.34,89.82,236.36,89.87,236.38,89.9
		C236.37,89.89,236.37,89.89,236.38,89.9c-1.2,0.49-2.3,0.68-3.29-0.32c-0.28-0.28-0.84-0.3-1.23-0.48
		c0.99-0.99-0.27-1.18,2.23-2.22c-0.49,0.2-1.38-0.09-1.59,0.78c-1.3,0.52-1.39,0.59-2.91,2.02c-0.8-0.2-1.6-0.4-2.8-0.7
		c1.9-1.8,3.7-3,6.09-2.7c0.4,0,0.8,0.4,1.2,0.6c3.3,0.1,3.7,0.4,5.09,4.19C238.12,90.5,237.08,90.83,236.38,89.9z M236.96,99.29
		c0.1-0.29,0.27-0.5,0.58-0.58C237.34,98.91,237.15,99.1,236.96,99.29z M239.18,99.24c0.02-0.42,0.1-0.81,0.5-1.07
		C239.51,98.53,239.34,98.89,239.18,99.24z M238.37,97.17c0.18,1.29-0.54,1.48-0.69,1.51c0.04-1.58,0.03-1.31,0.59-1.31
		c-0.57-1.84,1.66-5,2.08-1.53C240.15,96.01,238.81,96.95,238.37,97.17z M244.77,100.17c-0.22,0.11-0.05,0.34-1.7-1.3
		c-0.63,0.63-1.17,1.25-1.71,1.88c-0.08-1.67-0.03-3.33-0.72-4.89c1.29-0.72,2.26,0.43,3.13,1.42
		C244.57,98.07,245.37,98.87,244.77,100.17z M250.86,128.43c0-0.25-0.51-0.33,0.1-0.91C250.96,128.45,250.86,128.28,250.86,128.43z
		 M251.26,123.34c0.3,0.1,0.5,0.1,0.5,0.2c0.57,1.15,0.32,2.48-0.67,3.73c0.19-0.97-1.12-1.4-1.03-2.53
		C250.36,124.33,250.86,123.83,251.26,123.34z M247.86,131.72c0.3-1,1.2-1.4,2.8-1.7c-0.8,1.4-1.4,2.4-1.8,3.2
		C247.66,133.12,247.56,132.52,247.86,131.72z M247.36,113.45c0.32-0.16,0.3-0.52,0.3-0.1
		C247.56,113.35,247.46,113.45,247.36,113.45z M346.73,123.14c0.7,0,1.2,0.1,1.9,0.1c1.02,7.12,0.43,6.29-0.1,7.09
		C346.83,127.43,346.63,126.73,346.73,123.14z M335.64,119.94c1,1.6,0.7,3.1,0,4.29c-0.79,1.7-1.98,6-0.1,5.79
		c1-0.9-0.9-2.5,0.8-3.2c1.48,4.43-1.08,5.44,2,3.6c1.25-4.73-1.98-8.89,1.2-8.89c2.05,0,1.63,1.7,1.9,4.89
		c0,2.68,0.8,4.47-1.9,6.49c-0.9-0.5-1.8-1.1-2.7-1.6c-2.55,0-0.12,1.68,1.7,2.9c5.87-2.35,5.07-2.66,4.39-12.18
		c0.8-0.4,1.19-0.1,1.3,0.4c0.12,0.56,1.62,7.43,1.4,8.09c-0.6,0.4-1.3,0.9-1.9,1.4c0.87,1.95,1.55,0.1,5.69,0.4
		c0.7,2,0.4,3.79-0.2,5.59c-0.49,1.48-5.81,13.3-7.59,15.08c-0.6-3.7-1.1-6.99-1.7-10.59c0.4-0.8,2,0.2,2.3-1.3
		c-0.8-0.7-1.9-1-2.9-0.7c-2.55,0.96-6.12-3.65-8.59-5.59c-0.85-0.66-0.6-2.38-0.6-8.19C332.15,124.23,333.85,122.24,335.64,119.94z
		 M340.24,152.1c-0.82,0,0.27,1.34-6.89-11.28c0.7-0.8,1.1-0.1,1.6,0.1C339.56,142.8,339.89,147.14,340.24,152.1z M324.46,126.63
		c0-2.37,2.44-2.45,5.69-3.1c-1.9,3.79-1.77,7.6-1.3,11.38c0.09,0.7,0.8,1.2,1.1,1.9c0.8,1.85,3.96,9.09,5.45,12.87
		c-0.3-0.1-0.76-0.2-0.86-0.39C324.14,133.5,324.96,135.42,324.46,126.63z M336.04,151.4c-0.58-0.38-0.69-0.96-0.6-1.62
		C335.7,150.44,335.91,151.01,336.04,151.4c2,0.8,2.5,2.5,3,4.39c5.61,2.8,8.92-9.96,11.48-15.38c2.18-4.62,0.4-6.89,0.4-13.58
		c1,0.2,1.8,0.4,2.5,0.5c3.82,6.11-5.69,24.37-9.99,30.26c-0.59,0.81-1.7,1.2-2.6,1.7c-1.7-0.8-1.8-2.1-1.8-3.5
		C337.34,154.79,336.64,153.1,336.04,151.4z M275.62,172.67c6.79-0.35,16.02,5.43,20.27,9.39c5.87,5.47,11.72,6.26,16.38,8.09
		c16.4,6.44,17.32,7.06,18.77,7.89c-0.49,4.42-2.94,17.32-3.99,21.87c-2.73,0.55-18.41-3.16-26.07-5.69
		c-12.39-4.1-7.89-5.61-16.78-7.39c-0.3-0.1-0.8,0.3-1.9,0.8c16.94,7.11,10.12,7.01,24.07,10.99c12.31,3.51,16.69,3.43,19.87,4.49
		c0.54,1.08-63.29,339.01-63.42,339.25c-0.46,0.46-0.43,0.08-3.79-3c0-31.36,1.5-3.24,6.29-52.53c0.49-5.02,2.53-4.56,2.8-13.18
		c0.36-11.4-2.1-19.79-2.1-20.57c0.49-5.61-3.02-10.86-2.9-18.58c0.08-4.72,0.6-14.29,0.6-18.87c0-6.03-0.05-8.45,1.2-12.48
		c9.06-29.21,18.5-90.58,13.48-104.86c-0.84-2.39-1.94-15.73-7.19-29.36c-4.16-10.81-6.08-17.87-5.99-29.06c0-0.6,0.1-1.3,0.3-1.8
		c1.09-2.7,1.31-5.49,2-8.29c3.47-14.05,2.92-9.36,4.89-15.08c7.42-21.53,6.46-18.78,8.69-22.77c1.88-3.36,1.37-2.99,1-4.09
		c-2.08,1.04-3.99,6.13-5.99,7.99c-0.61-1.33-1.61-4.66-0.6-5.69c2.18-2.23,3.5-6.5,5.39-8.39c1.9,0,3.9,0.31,5.79,0.1
		c1.8-0.19,3.7,1.2,5.69,0.2c-1.4-2-0.6-1.8-9.49-2.1c0.1-1.4,1.32-1.98,2-2.9c0.72-0.98,1.4-2.1,2.3-2.9s2.1-1.3,2.5-2.5
		c-0.3-0.7-1-0.6-1.2-0.3c-2.89,3.86-0.84-3.56-13.58,15.18c-0.93,0-0.59-1.39-2.9-10.79c-2.69-10.97-6.96-13.76-10.59-22.47
		C266.34,173.07,271.03,172.91,275.62,172.67z M258.55,563.05c-0.4-0.4-0.9-0.45-0.9-1c0.5,0.1,0.8,0.2,0.7,0.8
		C258.45,562.85,258.99,563.05,258.55,563.05z M258.55,534.19c-0.02,0.1-1.93,8.89-2,8.99c-1.35,2.13-1,4.49-1.3,6.79
		c-0.2,1.6,1.1,2.7,1.1,4.19c0,6.4,1.09,5.72,0.5,7.19c-4.66-4.66-3.34-6.55-8.59-7.39c-1.1-0.1-2.2,0.1-3.3-0.7
		c-0.81-6.45,4.17-15.08-1.4-40.75c-1.12-5.18-1.02-2.46-2-5.89c-0.86-4.22-3.54-18.24-2.1-22.27c0.59-1.65,1.93-26.95,0.4-30.06
		c-3-6.08-4.05-18.77-3.4-25.77c3.06-4.43,0.49-24.76-1.7-34.85c-3.39-15.63-1.3-31.4-1.3-40.55c26.16-2.86,30.37-3.19,34.55-1.3
		c6.75,3.05,7.42-1.08,6.49,6.19c-6.1,47.59-12.23,63.67-12.38,66.01c-1.1,16.61-0.81,16.51-0.79,16.49
		c-0.01,0.01-0.03,0.09-0.11,0.49c-0.62,3.29-1.51,12.32-0.3,18.77C266.07,487.2,268.08,486.6,258.55,534.19z M230.49,382.09
		c0.63,6.35-2.77,18.49-2,36.45c0.32,7.41,0.62,16.58,0.1,23.97c-0.4,5.67-3.51,10.17-2.7,16.98c0.72,6.08,0.75,6.99,2.8,26.46
		c0,3.95,1.3,1.14-0.1,11.38c-4.57,33.49-0.72,36.57-3.3,39.05c-0.73,0.7-0.55,6.71,0.7,9.39c0.74,1.58,0.5,3.1,0.2,4.89
		c-3.3,0.2-6.29,0.8-9.19,2.4c-1.65-2.31-2.26-5.19-8.29-33.85c-2.68-12.75-3.04-1.5-8.59-28.46c-0.68-4.76-0.28-13.88-0.3-13.98
		c-1.1-4.83,1.09-12.33,2.1-15.18c2.11-5.97,0.33-6.3,1-8.29c3.89-11.54-5.19-31.64-5.19-35.75c0.38-3.53-12.28-44.91-12.28-65.51
		c14.28-1.3,15.38-3.6,45.84,1.5C232.74,359.34,229.83,375.54,230.49,382.09z M231.18,352.23c-14.98-4.89-30.16-4.69-45.54-2.8
		c-1.7-9.19,2.3-45.24,6.39-52.93c12.12,2.16,37.11,18.88,70.41,2.7c2.81-1.37,5.89-1.4,9.09-1.6c2.04,6.13,4.14,20.58,4.69,22.57
		c1.74,6.3-0.86,29.34-1.2,30.86c-13.19-3.47-4.66-5.23-37.85-0.3c-0.6,0.09-1.2,0-2,0c0.2-1.3,0.2-2.3,0.4-3.4c0.1-1,0.4-1.9,0.6-3
		c-2-0.3-3.4,0.7-4.99,1.5C230.98,347.94,232.18,350.03,231.18,352.23z M245.66,246.47c3.4-1,15.48-1.1,19.87-0.1
		c1.22,1.71-4.53,13.22-2.3,24.67c1.24,6.34,0.82,4.23,6.99,24.37c-5.48,1.69-4.7,0.48-9.19,2.6c-10.97,5.18-2.77,0.77-4.29-6.49
		c-5.49,10.36,2.14,13.04-32.26,11.58c-2.1-0.09-4.09-0.64-6.19-0.9c-2.72-0.33-1.54-2.62-3.7-5.49c-3.19,3.72,9.61,7.37-21.37-1.8
		c3.87-21.03,10.1-18.87,3.99-46.34c0.5-0.3,0.8-0.7,1.1-0.7c51.38-3.26,40.17-2.65,52.33,4.39
		C250.06,249.97,250.06,249.97,245.66,246.47z M233.48,346.84c0.5,1.3,0.3,1.9-0.4,2.3C232.18,348.24,232.68,347.64,233.48,346.84z
		 M212.01,168.08c0.58-1.16,4.64,0.59,5.99-7.49c1.2,1.3,1,3.2,2.4,4.39c-1.92-9.82-2.38-1.35-1.4-12.18
		c11.85,5.33,8.37,4.67,16.08,2.1c1.9-0.8,3.89-1.6,5.39-3.7c2.86,7.32,0.21,7.4,4.99,14.58c1.51-0.91,0.23-1.63,4.99,1.3
		c0.7,3.2,1.9,6.29,2.1,9.69c-11.65,5.18-9.33,2.62-11.98,4.39c1.11,2.77,9.26-0.96,11.98-2.1c0.41,3.65-0.14,4.03,0.8,5.09
		c0.63,0.95,1.65,10.85-6.29,17.98c-2.73,2.45-9.12,6.71-12.58,7.49c-6.15,1.38-0.46-6.39,3.2-12.48c-0.89-1.04-1.43,0.02-3.6,2.5
		c-0.6,0.6-1.1,1.3-1.6,2c-1.8-1.2-2.5-3.89-5.59-3.79c6.62,7.79,4,2.78,2.6,11.88c-22.4,0.97-25.44-19.36-17.68-37.85
		C212.52,170.18,212.51,170.17,212.01,168.08z M209.51,168.97c3.09,1.54-4.31,5.84-3.79,23.07c0.67,22.15,28.26,23.07,34.75,16.88
		c1.66-1.58,12.25-3.4,15.28-16.28c2.71-11.51-2.3-21.33-3.1-23.97c10.75,4.2,2.51-1.09,11.19,14.28
		c6.15,10.89,6.29,17.84,8.09,24.87c0.51,1.99,0.6,3.89-0.3,5.59c1.2,1.5,2.3,2.9,3.4,4.39c-2.2,8.89-5.19,17.68-8.79,26.46
		c-24.17-1.47-68.9,1.4-69.71,1.2c-7.41-21.29-10.07-27.22-8.39-32.76c1.2-0.6,1.4,1.3,2.4,1c-0.3-1.5-0.3-1.5-1.7-3.7
		c1.58-6.12,4.03-10.76,4.39-12.58c1.93-9.58,6.5-16.94,11.48-26.56C206.22,170.37,207.92,169.67,209.51,168.97z M201.62,173.27
		c0,0.12,0.05,0.29-0.23,0.29C201.46,173.44,201.54,173.35,201.62,173.27z M130.1,198.5c0.38,0.94,0.18,1.97,0.42,2.94
		c1.18,1.92,0,6.93,0,0C130.15,200.69,130,201.35,130.1,198.5z M129.67,197.08c-0.26-0.4-0.34-0.65-0.34-2.38
		C129.73,195.45,129.66,196.28,129.67,197.08z M128.87,193.39c-0.27-0.44-0.34-0.63-0.34-2.53
		C128.98,191.64,128.86,192.51,128.87,193.39z M127.73,187.11c0.66,0.9,0.41,1.94,0.45,2.91
		C127.46,189.18,127.71,188.13,127.73,187.11z M127.22,183.46c0.18,0.96,0.13,1.92,0.18,2.87
		C126.5,185.17,122.02,155.38,127.22,183.46z M123.03,176.76c0.61-0.61,0.39,0.85,0.6,2.7c0.96,0.96,0.04-2.58,3,12.58
		c0,2.88-2.46-3.41-3.2-6.19C122.85,183.68,124.34,180.71,123.03,176.76z M123.03,164.11c0.95,1.24,0.59,1.14,0.79,3.23
		C123.35,166.75,123.03,166.57,123.03,164.11z M123.93,167.62c0.71,1.01,0.53,2.24,0.51,3.42
		C123.64,170.01,123.91,168.78,123.93,167.62z M126.02,152.8c-0.1,1-0.6,1.7-1.49,2c0.05-2.4,1.59-1.46,1.59-2.6
		C126.72,152.7,126.12,152.6,126.02,152.8z M123.33,152.2c0,0.1-0.2,0.1-0.3,0.1c-0.6-6.29,0.7-8.79,6.09-11.78
		C129.69,141.08,129.8,140.22,123.33,152.2z M127.33,150.62c0.02-0.14,0.05-0.12,0.19-0.12
		C127.43,150.54,127.37,150.59,127.33,150.62z M127.72,150.36c-0.02-0.51-0.1-1.05,0.51-1.29
		C128.29,149.57,128.13,150.05,127.72,150.36z M138.51,128.83c-0.23,2.96-0.26,4.46-1.3,6.79c-1.01,1.9-7.02,12.01-8.79,13.24
		c-0.05-2.25,5.79-12.75,5.79-13.94c0.2-3.7,0.4-7.29-1.2-10.89C136.6,124.59,139.24,124.43,138.51,128.83z M117.34,129.03
		c1.25-5.02,0.76-5.8,1.9-6.59c0.84,1.26,1.01-0.77,0.01,9.44C117.05,131.3,116.88,130.87,117.34,129.03z M114.14,124.33
		c0.1-0.9,0.9-1,1.9-0.9c0.3,3.5,0.3,3.6-1.6,7.19C113.72,129.42,113.43,130.56,114.14,124.33z M113.44,133.02
		c3.16-1.36,4.38,2.27,5.91-0.93c2.04,1.13,1.9,1.73,3.68,1.34c-2.03-2.41-1.7-5.17-1.3-9.59c0-1.7,0.95-2.38,1.8-2.1
		c2.9,0.73-0.7,5.18,1.3,9.19c1.24-0.62,0.58,0.42,1.3-3.89c2.1,0.5,0.5,2.1,1.1,3c0.6,0.4,1,0,1-0.5c0.31-5.02-2.97-5.64-1.3-9.19
		c1.6,0.5,0.05,0.38,5.59,6.39c0.22,4.58,0.38,8.02-0.5,8.69c-2.32,1.77-3.99,4.39-6.89,5.49c-1.83-0.46-4.2-0.79-4.79,1
		c0.8,1.3,2.2-0.1,2.8,0.6c-0.6,3.7-1.3,7.09-1.9,10.69c-0.3-0.2-0.8-0.3-0.9-0.5C117.42,146.81,111.33,136.94,113.44,133.02z
		 M109.15,127.53c0.8-0.2,1.6-0.4,2.5-0.7c0.9,5.7-2.08,8.24,0.8,14.28c2.41,5.07,4.56,13.84,9.49,15.78
		c0.88-0.59,1.66-1.26,2.54-1.85c-0.32,1.5-0.98,2.83-1.74,4.14c-1.8,0-2.9-0.7-3.79-2C114.1,150.23,106.57,135.64,109.15,127.53z
		 M122.91,163.68c-0.23-0.36-0.41-0.77-0.58-1.2C122.86,162.48,122.82,161.87,122.91,163.68z M129.82,221.11
		c-19.25,1.04-8.65,0.41-21.37-1c-3.08-3.64-4.48-4.79-4.29-7.69c0.38-5.89,0.04-13.5,0.9-16.48c1.19-4.11-0.8-3.43,2.2-26.17
		c0.88-6.68,2.84-12.48,4.19-21.97c3.17,2.75,2.61,8.09,2.7,9.79c0.6-0.3,1.1-0.5,1.8-0.9c1.2,1.8,2.5,3.5,3.89,5.49
		c-0.2,11.68,1.2,23.27,5.89,34.35c2.2-1.47,1.2-3.11,1.7,0.4c-5.89,3.4-5.99,3.5-7.09,5.59c1.6,0.3,2.3-1.3,3.6-1.6
		c5.51-0.85,3.3-5.71,8.19,19.57C131.22,220.81,130.52,221.11,129.82,221.11z M132.32,213.32c-0.57-2.51-1.2-4.94-1.2-7.45
		c0.72,0.98,0.44,2.3,0.7,3.46c0.57,2.51,1.2,4.94,1.2,7.45C132.31,215.79,132.58,214.48,132.32,213.32z M133.64,220.51
		c-0.39-0.88-0.36-1.84-0.34-2.77C133.79,218.62,133.7,219.58,133.64,220.51z M134.01,221.73c0.32,0.44,0.39,0.54,0.39,2.55
		C133.95,223.49,134.06,222.58,134.01,221.73z M134.76,225.29c0.4,0.6,0.42,0.68,0.45,2.73
		C134.64,227.17,134.78,226.2,134.76,225.29z M136,231.7c-0.58-0.88-0.4-1.9-0.44-2.85C136.2,229.67,136.01,230.7,136,231.7z
		 M178.05,207.32c-8.5,1.86-5.16,3.58-16.38,7.29c-6.74,2.23-18.58,5.1-25.67,5.69c-1.2-3.1-1.5-6.19-2-9.29
		c5.35-1.07,3.88-0.58,4.59-1.3c-0.2-0.1-0.3-0.4-0.5-0.4c-6.05,0-3.51,2.14-5.49-5.19c-0.49-1.8-0.7-3.7-1-5.59
		c5.48-2.74,16.52-7.03,22.57-9.09c13.58-4.61,9.3-6.73,24.57-14.58c2.9-1.49,6.09-2.17,9.29-1.7c2.34,0.34,13.29,0.58,13.29,0.48
		c0.24,1.26-0.74,2.23-1.31,3.22c-12.99,22.62-10.45,33.54-13.38,27.86c-1.56-3.02-3.98-5.4-5.99-7.99c-1.79-2.3-4.39-3.4-6.49-5.19
		c-0.1-0.2-0.6,0.1-0.9,0.2c0.4,2.2,2.84,2.37,3.7,4.09c0.74,1.48,2,2.7,3.3,4.19c-3.2,0.5-6.29-0.4-8.99,1.1
		c-0.3,0.1-0.4,0.5-0.8,0.9c1.25,0.86,11.47-0.09,11.58-0.1c1.18,1.18,2.26,3.32,4.69,7.89c-0.3,1.1-0.7,2.4-1.1,3.99
		c-1.5-1.3-2.09-2.9-3-4.29c-1.4-2.14-2.8-1.1-1.6,1.3c3.6,5.89,5.4,12.68,7.79,19.07c4.75,12.72,5.93,15.08,5.39,17.48
		c0.95,1.21,3.6,10.89,3.6,13.78c0,26.12-32.93,65.73-4.19,146.9c1.93,5.46,0.04,3.82,1.4,7.89c3.7,14.82,3.75,9.41,5.59,24.47
		c0.51,4.19,0.55,15.88-1.2,21.57c-3.91,12.7-1.87,19.35-1.9,21.17c-0.3,16.75,7.64,29.53,10.09,41.64
		c9.73,48.26,6.29,22.78,6.29,34.75c-0.8,1-1.8,1.4-2.9,1.6c0,0.4,0,0.9,0,1.4c-0.8-0.7-0.4-1,0-1.4c0.2-0.4,0.1-0.9,0.1-1.1
		c2.39-2.39,1.9-0.99,1.9-2.9c-1.7,0.1-2.7,1.4-4.09,1.7c-1.5,3.99-3,7.79-4.49,11.68c-0.74-0.49,2.75,16.76-68.21-346.84
		c6.44-1.84,26.2-3.8,34.95-11.28c2.28-1.95,4.55-1.97,8.99-4.39C179.05,207.62,178.55,207.21,178.05,207.32z M136.69,235.39
		c-0.55-0.86-0.31-1.82-0.34-2.81C136.9,233.4,136.71,234.41,136.69,235.39z M137.03,236.67c0.76,2.01,1.1,4.12,1.17,6.31
		C137.44,240.99,137.1,238.86,137.03,236.67z M138.97,247.17c-0.64-0.89-0.39-1.89-0.42-2.91
		C139.19,245.16,138.93,246.21,138.97,247.17z M139.62,251.03c-0.49-0.99-0.37-2.08-0.4-3.14
		C139.84,248.88,139.68,249.97,139.62,251.03z M139.88,251.77c0.5,0.63,0.53,0.91,0.53,3.01C139.79,253.86,140,252.77,139.88,251.77
		z M140.64,255.38c0.5,0.69,0.56,0.84,0.56,3.23C140.53,257.63,140.73,256.45,140.64,255.38z M141.32,258.88
		c0.98,0.95,0.53,2.22,0.67,3.43C141.1,261.27,141.54,260,141.32,258.88z M142.12,262.59c0.98,1.04,0.53,2.31,0.67,3.43
		C141.81,264.98,142.33,263.71,142.12,262.59z M143.1,269.14c-0.1-0.96-0.1-1.92-0.19-2.87
		C143.68,267.13,143.58,268.09,143.1,269.14z M145.1,277.67c-0.66-1.07-0.32-2.39-0.7-3.44c-0.6-1-0.6-2-0.5-3.4
		c0.8,1.3,0.5,2.4,0.5,3.4C144.82,275.08,145.18,274.5,145.1,277.67z M145.25,278.14c0.63,0.86,0.65,0.97,0.65,3.25
		C145.13,280.41,145.41,279.21,145.25,278.14z M146.03,281.8c0.67,0.92,0.67,1.01,0.67,3.42
		C145.87,284.2,146.14,282.93,146.03,281.8z M146.72,285.35c0.75,1.01,0.78,1.02,0.78,3.57
		C146.54,287.86,146.96,286.52,146.72,285.35z M148.17,292.46c-0.88-1.04-0.44-2.31-0.66-3.42
		C148.5,290.06,148.07,291.33,148.17,292.46z M148.88,296.16c-0.77-0.99-0.47-2.2-0.56-3.28
		C149.08,293.87,148.84,295.01,148.88,296.16z M149.19,299.3c0-0.92-0.09-1.84-0.18-2.75C149.67,297.32,149.57,298.27,149.19,299.3z
		 M150.09,301.4c0.1,0.96,0.19,1.92,0.29,2.89C149.59,303.49,149.69,302.49,150.09,301.4z M150.39,304.39
		c0.96,1.06,0.44,2.4,0.68,3.57C150.03,306.9,150.46,305.65,150.39,304.39z M152.5,315.43c-0.77-1.17-0.41-2.5-0.51-3.74
		c-1.16-0.97-0.64-2.31-0.88-3.58c1.07,1.1,0.48,2.49,0.88,3.58C152.72,312.87,152.53,314.15,152.5,315.43z M152.59,315.95
		c0.81,1.37,0.68,1.74,0.77,2.95C152.98,318.18,152.62,317.84,152.59,315.95z M153.59,321.67c-0.08-0.61-0.09-1.27-0.09-1.91
		C154.56,324.36,153.62,321.82,153.59,321.67z M154.29,326.07c0-0.99,0-1.91,0-2.88C154.76,324.12,154.75,325.05,154.29,326.07z
		 M155.09,329.46c-0.1-0.5-0.1-1-0.2-1.5c0.2,0,0.3,0,0.4,0C155.58,329.76,155.26,329.46,155.09,329.46z M155.88,333.36
		c-0.32-1.92-0.17-1.6,0.2-1.6C156.08,333.53,156.45,333.36,155.88,333.36z M156.98,338.46c-0.5-0.94-0.56-1.88,0-2.91
		C156.98,336.49,156.98,337.51,156.98,338.46z M157.1,338.86c0.91,1.57,0.62,1.59,0.76,3.09
		C157.08,340.6,157.29,340.56,157.1,338.86z M158,342.32c0.69,1.03,0.34,2.27,0.56,3.37C157.7,344.75,158.11,343.43,158,342.32z
		 M159.38,352.53c0-1,0-2.1,0-3.1c-0.5-1.01-0.7-0.22-0.7-3.43c0.65,1.07,0.32,2.38,0.7,3.43
		C159.88,350.43,159.98,351.53,159.38,352.53z M160.48,356.32c-0.27,0-0.2,0.24-0.2-1.7C160.55,354.63,160.48,354.37,160.48,356.32z
		 M161.28,360.02c0-0.1-0.1-0.1-0.2-0.1c0-0.5,0-1,0-1.5C161.33,358.42,161.28,358.17,161.28,360.02z M161.98,363.81
		c0,0-0.1,0-0.2,0c0-0.6-0.1-1.1-0.1-1.7C162.07,362.12,161.98,361.81,161.98,363.81z M162.88,365.91c0,5.01,0.4,3.08,0.7,4.59
		c0.2,0.71,0.1,2.24,0.1,2.1C162.96,368.31,161.94,367.79,162.88,365.91z M164.35,376.21c-0.19-1.14-0.46-2.35-0.66-3.48
		C164.69,373.68,164.23,375.05,164.35,376.21z M164.77,378.99c-0.19-0.86-0.29-1.72-0.39-2.59
		C165.26,377.11,164.97,378.11,164.77,378.99z M165.67,382.89c-0.26,0-0.2,0.24-0.2-1.7C165.74,381.19,165.67,380.95,165.67,382.89z
		 M166.37,386.68c0,0-0.1,0-0.2,0c0-0.5-0.1-1.1-0.1-1.6C166.47,385.09,166.37,384.8,166.37,386.68z M167.17,390.38
		c-0.1,0-0.1,0-0.2,0c0-0.5-0.1-1.1-0.1-1.6C167.27,388.78,167.17,388.5,167.17,390.38z M167.67,394.07c0-1.87-0.07-1.6,0.2-1.6
		C167.87,394.24,168.24,394.07,167.67,394.07z M168.67,397.77c-0.27,0-0.2,0.24-0.2-1.6C168.73,396.17,168.67,395.93,168.67,397.77z
		 M169.97,406.36c-0.1-1.7-0.1-2.6-0.2-3.6c-0.9-0.8-0.7-1.7-0.5-3.5C169.86,404.62,170.65,403.45,169.97,406.36z M170.86,409.45
		c-0.27,0-0.2,0.23-0.2-1.6C170.93,407.86,170.86,407.61,170.86,409.45z M171.56,413.35c-0.27,0-0.2,0.24-0.2-1.7
		C171.63,411.65,171.56,411.41,171.56,413.35z M172.36,416.94c-0.27,0-0.2,0.24-0.2-1.6C172.43,415.35,172.36,415.11,172.36,416.94z
		 M173.06,420.74c-0.27,0-0.2,0.24-0.2-1.6C173.13,419.14,173.06,418.9,173.06,420.74z M173.76,424.43c-0.27,0-0.2,0.24-0.2-1.6
		C173.83,422.84,173.76,422.6,173.76,424.43z M174.56,428.13c-0.27,0-0.2,0.24-0.2-1.6C174.63,426.53,174.56,426.29,174.56,428.13z
		 M175.96,436.72c-0.62-5-1.3-4.39-0.7-6.79c0.1,1.6,0.1,2.5,0.2,3.5C176.26,434.12,176.16,435.02,175.96,436.72z M176.76,439.91
		c-0.2,0-0.3,0.2-0.3-1.6C176.86,438.32,176.76,438.03,176.76,439.91z M177.56,443.51c-0.1,0-0.1,0-0.2,0c0-0.4-0.1-0.9-0.1-1.4
		C177.65,442.11,177.56,441.87,177.56,443.51z M178.05,447.3c0-2.28,0.3-2.08,0.3,0C178.25,447.3,178.15,447.3,178.05,447.3z
		 M178.95,451.1c-0.14,0-0.1,0.24-0.1-1.6C179,449.5,178.95,449.26,178.95,451.1z M179.55,454.69c0-1.54-0.37-1.4,0.2-1.4
		C179.75,454.94,180.04,454.69,179.55,454.69z M180.45,458.49c-0.27,0-0.2,0.23-0.2-1.6C180.52,456.89,180.45,456.65,180.45,458.49z
		 M181.05,462.08c-0.1-0.4-0.1-0.9-0.1-1.4c0.1,0,0.2,0,0.3,0C181.25,462.23,181.62,462.08,181.05,462.08z M181.75,466.48
		c0-1.97,0.3-1.86,0.3,0C181.95,466.48,181.85,466.48,181.75,466.48z M182.75,470.07c-0.1,0-0.1,0-0.2,0c0-0.5-0.1-0.9-0.1-1.4
		C182.85,468.68,182.75,468.42,182.75,470.07z M183.25,473.87c0-1.61-0.07-1.4,0.2-1.4C183.45,474.01,183.82,473.87,183.25,473.87z
		 M184.05,477.56c0-0.56-0.22,0.13,0-2.1C184.19,476.9,184.41,476.84,184.05,477.56z M184.75,481.36c0-1.61-0.07-1.4,0.2-1.4
		C184.95,481.5,185.32,481.36,184.75,481.36z M185.45,485.05c0-1.61-0.07-1.4,0.2-1.4C185.64,485.2,186.02,485.05,185.45,485.05z
		 M186.44,488.75c-0.2,0-0.3,0.17-0.3-1.4C186.54,487.35,186.44,487.11,186.44,488.75z M187.14,492.44c-0.4-0.8-0.12-0.76,0-1
		C187.14,491.84,187.14,492.14,187.14,492.44z M187.64,496.34c0-0.4,0.1-0.7,0-1C187.98,496.36,187.85,495.93,187.64,496.34z
		 M188.64,500.43c0,0-0.1,0-0.2,0c0-0.4-0.1-0.9-0.1-1.3C188.74,499.13,188.64,498.9,188.64,500.43z M189.34,504.23
		c-0.2,0-0.3,0.17-0.3-1.4C189.44,502.83,189.34,502.59,189.34,504.23z M190.04,506.52c0,0.2,0.1,0.4,0.1,0.6
		C190.14,510.56,189.74,507.13,190.04,506.52z M190.84,511.52c-0.1,0-0.1,0-0.2,0c0-0.4-0.1-0.9-0.1-1.3
		C190.93,510.22,190.84,509.98,190.84,511.52z M191.44,515.31c0-1.43-0.31-1.3,0.1-1.3C191.54,515.41,191.85,515.31,191.44,515.31z
		 M192.24,519.11c-0.17,0-0.09-0.64,0-1C192.47,518.11,192.24,518.44,192.24,519.11z M193.04,522.8c-0.14,0-0.1,0.13-0.1-0.9
		C193.07,521.9,193.04,521.77,193.04,522.8z M193.73,526.6c-0.14,0-0.1,0.13-0.1-0.9C193.77,525.7,193.73,525.56,193.73,526.6z
		 M194.43,530.29c-0.14,0-0.1,0.13-0.1-0.9C194.47,529.39,194.43,529.26,194.43,530.29z M195.23,534.49c-0.14,0-0.1,0.21-0.1-1.4
		C195.27,533.09,195.23,532.88,195.23,534.49z M196.03,538.28c-0.14,0-0.1,0.21-0.1-1.4C196.07,536.88,196.03,536.68,196.03,538.28z
		 M196.73,541.98c-0.14,0-0.1,0.19-0.1-1.3C196.77,540.68,196.73,540.49,196.73,541.98z M197.33,546.07c0-1.54,0.2-1.39,0.2-0.7
		C197.53,545.47,197.53,545.57,197.33,546.07z M198.13,549.47c-0.23,0,0-0.35,0-0.9C198.3,548.57,198.22,549.18,198.13,549.47z
		 M198.93,553.26c-0.23,0,0-0.35,0-0.9C199.15,552.36,198.93,552.19,198.93,553.26z M199.63,556.86c-0.17,0-0.09-0.61,0-0.9
		C199.86,555.96,199.63,556.3,199.63,556.86z M200.33,560.55c0-0.41-0.28-0.25,0.1-1.2C200.43,560.05,200.43,560.35,200.33,560.55z
		 M201.12,564.85c-0.14,0-0.1,0.19-0.1-1.3C201.16,563.55,201.12,563.36,201.12,564.85z M201.92,568.54c-0.17,0-0.2-0.38-0.2-1.2
		C201.99,567.34,201.92,567.16,201.92,568.54z M202.62,572.44c-0.23,0,0-0.35,0-0.9C202.85,571.54,202.62,571.36,202.62,572.44z
		 M203.12,576.03c0-2.01-0.37-1.22,0.3-1.9c0,0.39,0.46-0.41,0,1.9C203.32,576.03,203.22,576.03,203.12,576.03z M209.31,596.01
		c0.7-2.4,0.9-2.7,2.4-2.6c3.1,0.4,6.19,1.2,8.99,2.6C221.56,596.86,220.53,596.55,209.31,596.01z M231.28,595.51
		c-10.16,2.42-4.66-0.1-8.79-1.4c-9.82-3.09-13.77-6.02-16.08,0.9c-3.63,0.45-3.48-0.81-4.29-5.69c5.07-9.63,1.53-1.87,4.09-17.78
		c0.43-2.69,1.8-4.79,3.5-7.19c10.2-0.78,20.3,0.58,19.67-2.1c-0.64-2.74-7.98-1.18-12.88-2c-0.1-3.6,1.6-5.59,4.69-6.89
		c6.53-1.63,4.97,0.06,5.69,2.1c0.51,1.43,0.45,3.21,1.9,3.79c0.5,0.2,1.2-0.1,1.9-0.2c5.33,3.13,1.4,17.02,0.4,26.46
		C230.66,589.56,232.31,591.42,231.28,595.51z M233.28,585.42c-0.7-1.1-0.3-1.6,0.6-2.3C233.68,584.02,233.48,584.52,233.28,585.42z
		 M235.38,572.94c0.19-3.31,0.3-9.17-1.6-11.88c-0.3-0.43-0.4-5.33-3.5-8.69c-0.81-0.89-1.3-1.9-1.3-3c0-10.66-3.43-11.83,1.2-43.44
		c1.83-12.48,3.11-12.95-2-45.74c-1.34-8.58,4.7-8.75,3.3-25.37c-0.21-2.46-0.52-8.49-0.7-8.79c-1-2.1-0.71-4.29-0.8-6.49
		c-0.52-13.49-1.2-6.58,2-25.77c1.5,4.34,1.8,8.82,3.2,21.67c1.08,9.91-1.77,13.32-0.4,25.47c1.67,14.74,3.85,12.8,3.79,18.38
		c-0.19,19.08-0.22,5.94-1,20.67c-1.31,24.66,8.24,44.85,6.19,62.32c-1.25,10.6-1.13,11.1-1.9,11.48
		c-4.86,1.36-6.05,8.26-5.79,13.18C236.34,571.95,235.87,572.12,235.38,572.94c0.1,2.6-0.3,5.09-1,7.49
		C233.88,577.83,234.68,575.43,235.38,572.94z M264.44,592.21c-1.92,3.36,1.53,2.5-6.89,2.9c-2.37-3.36-10.28-3.53-14.18-2.3
		c-2.03,0.64-2.49,2.65,0.3,2.1c1.86-0.48,7.85-1.12,8.49,0.8c-10.05,1-12.58,2.89-17.28,0.1c-0.2-2.6-0.65-5.31,0.4-7.89
		c0.56-1.37,0.39-4.65,0.7-5.89c0.39-2.36,1.21-1.54,1.7-5.89c1.24-11.03,0.76-10.57,1.6-10.99c0.1,0.3,0.4,0.7,0.6,0.4
		c0,0.5-0.3,0.9-0.4,1.4c-0.48,2.38,1.24,2.25,10.79,2.4c1.03,0.02,2.45-0.4,2.7-1.4c0.21-1.49-2-1.32-7.69-1.9
		c-9.37-0.95,6.76-0.95,7.79-1.1c1.67-0.24,1.46-1.52,0.3-2.1c-0.97-0.73-10.59-0.51-11.38-0.5c-1.61,0.02-3.2,1.31-3.2,0.4
		c0.04-4.98,1.19-7.29,8.59-7.29c2.5,0,4.63,0.49,5.39,3.4c0.31,1.19,1.3,2.2,1.9,3.2c3.61,6.02,6.33,0.61,5.89,6.49
		c-0.53,7.1,0.83,8.13,1.4,12.08c0.21,3.92,1.99,5.26,2.3,6.19C264.84,588.62,265.34,590.41,264.44,592.21z M263.94,575.73
		c-4-0.44,76.09-414.06,76.6-414.15C341.23,164.01,264.48,573.05,263.94,575.73z M339.64,184.35c-0.17,2.83-3.08,10.47-0.9-1.9
		C339.24,183.56,339.54,183.95,339.64,184.35z M357.32,216.11c-1.14,1.19-2.2,4.55-6.79,3.89c-2.88,0-0.2,1-7.99,1
		c-3.65,0-6.96,0-10.59-0.6c0.3-4.39,2.9-17.68,3.99-20.37c1.9,0.1,3.58,0.72,5.09,1.9c0.39,0.31,0.4,0.3,1.7-0.1
		c-1.7-2.1-4.09-3.2-6.29-4.79c2-2.1,1.98-4.7,3.1-6.99c2.04-4.16,3.42-16.91,3.6-20.97c0.1-2.4,0-4.89,0-7.19
		c1.1-1.7,1.9-3.4,3.2-4.69c1.54-1.54,3.35-7.57,5.09-9.99c2.01,13.54,4.85,16.34,5.89,39.25c0.12,2.7-0.28,5.49,0.3,8.09
		c1.26,5.66,0.3,11.58,1,17.18C358.83,213.41,358.54,214.84,357.32,216.11z"/> <path d="M210.91,105.06c-0.04,0.08-0.06,0.04,0,0.1V105.06z"/> <path d="M213.75,143.95c0.41,1.17,0.88,2.2,1.44,3.14C214.71,146.03,214.22,144.98,213.75,143.95z"/> <path d="M220.5,101.46l0.1-0.1C220.39,101.26,220.42,101.2,220.5,101.46z"/> <path d="M232.28,96.97l-0.1-0.1C232.2,96.95,232.24,97.05,232.28,96.97z"/> <path d="M684.38,462.98c-1.42,0.71-2.87,9.44-2.9,11.68c-0.01,0.8,0.3,1.6,0.6,2.9C683.63,474.09,687.76,461.29,684.38,462.98z"/> <path d="M677.59,452.5c1.7-0.2,1.9-0.2,2-0.9c0.57-2.14,2.28-8.4,0.6-10.09C678.79,445.01,678.29,448.6,677.59,452.5z"/> <path d="M678.89,436.92c-5.66-6.23-5.77-6.72-6.69-5.49c1.3,2.5,3.1,4.49,5.59,5.99C677.89,437.52,678.29,437.12,678.89,436.92z"/> <path d="M681.38,481.76c1.1-1.1,1.3-2,0.7-3.3C681.08,479.66,681.08,479.66,681.38,481.76z"/> <path d="M685.18,524.5c-0.4,1.5-0.4,1.5,0.2,2.6C686.18,526.2,685.88,525.4,685.18,524.5z"/> <path d="M685.88,533.59c0.8-1.5,0.9-2.7,0-3.99C684.88,530.89,685.18,532.09,685.88,533.59z"/> <path d="M681.18,491.05c0,0.1,0.1,0.2,0.2,0.3c0.1-0.1,0.2-0.1,0.2-0.2C681.28,490.53,681.57,490.28,681.18,491.05z"/> <path d="M681.38,493.34v0.2C681.65,493.54,681.64,493.59,681.38,493.34z"/> <path d="M707.25,476.56c1.34-0.49,1.96-1.1-2-14.78c-0.5,0.7-0.8,0.8-0.8,0.9c-0.05,3.7,1.5,6.99,2,10.49
		C706.55,474.37,706.55,475.57,707.25,476.56z"/> <path d="M712.44,451.7c-1.2-1.8-2.5-3.7-3.89-5.79c-0.4,0.3-0.7,0.5-0.7,0.6C707.85,451.06,712.12,453.63,712.44,451.7z"/> <path d="M709.15,439.01c3.3-0.9,5.49-3,6.79-6.09c0.1-0.3,0.1-0.9-0.9-1c-1.4,2.7-3.99,4.49-6.69,6.69
		C708.95,438.91,709.05,439.11,709.15,439.01z"/> <path d="M699.06,399.17c1.6-2.1,1.3-4.09,0.8-6.49C698.76,394.87,698.76,395.27,699.06,399.17z"/> <path d="M707.85,480.06c-0.72-1.44-2.83,1.58-0.3,3.89C708.45,482.56,708.65,481.36,707.85,480.06z"/> <path d="M717.44,538.18c0.5-2,0.5-2-0.4-3.3c-0.6,0.9-0.5,1.8-0.3,2.7C716.74,537.78,717.14,537.98,717.44,538.18z"/> <path d="M700.66,390.78c0.1-0.9,0.2-1.6,0.3-2.6C699.56,389.68,699.56,389.68,700.66,390.78z"/> <path d="M708.05,495.14c0.57-0.86,0.67-0.37,0.2-1.8C707.21,493.34,706.76,494.28,708.05,495.14z"/> <path d="M707.95,499.63c0.5,0,0.81-0.7,0.6-1.4c-0.09-0.3-0.4-0.4-0.6-0.6C706.37,498.09,707.2,499.63,707.95,499.63z"/> <path d="M707.95,487.65c-0.81,0.81-0.77,0.49-0.1,1.5C708.55,488.45,708.81,488.51,707.95,487.65z"/> <path d="M718.23,527c0.44-0.87,0.08-0.71-0.3-0.9C717.58,526.82,717.48,526.62,718.23,527z"/> <path d="M701.16,385.59c0.1,0.1,0.2,0.2,0.3,0.3c0-0.1,0.1-0.2,0.1-0.3C701.4,385.43,701.32,385.25,701.16,385.59z"/> <path d="M674.29,338.05c15.8,6.87,13.2,6.23,14.88,5.99C683.9,340.24,674.29,336.87,674.29,338.05z"/> <path d="M694.37,342.44c0.08-0.97,0.36-7.19,0.4-7.69c0.16-2.12,0.67-5.21-0.1-7.99c-1.5,4.39-1.09,8.29-1.4,12.18
		C693.17,340.15,693.07,341.34,694.37,342.44z"/> <path d="M680.78,336.25c-24.78-6.1-17.22-2.55-8.69-0.9c3.19,0.62,6.49,1.1,9.69,1.7C681.58,336.45,681.18,336.35,680.78,336.25z"/> <path d="M698.56,343.14c8.28-5.13,5.49-3.29,6.89-4.69c-2.9,0.2-5.19,1.7-7.09,3.7C698.16,342.24,698.46,342.64,698.56,343.14z"/> <path d="M657.52,314.38c1.8,0.4,3.7,0.6,6.19,0.1c-4.29-0.7-7.89-1.2-12.18-1.8C653.92,314.38,655.82,313.88,657.52,314.38z"/> <path d="M694.97,309.89c-0.7,2.9-0.6,3.89,0.4,6.69C696.06,311.78,695.96,311.09,694.97,309.89z"/> <path d="M712.24,338.75c-2.8,0.7-5.49,1.5-7.79,3.2C707.35,341.54,709.95,340.45,712.24,338.75z"/> <path d="M730.72,308.49c-1.59,0.62-3.5,0.8-5.19,2.4c3.2-0.4,5.69-1.5,8.59-2.4C732.82,307.79,731.72,308.1,730.72,308.49z"/> <path d="M700.56,334.05c-0.9,1.4-1.6,2.6-2.7,4.39C700.26,337.75,700.86,336.55,700.56,334.05z"/> <path d="M703.85,332.26c3.2-1.28,0-2.46-0.3-0.4C703.65,332.06,703.85,332.36,703.85,332.26z"/> <path d="M683.58,337.15c-0.8,0-1.3,0-1.9,0C682.28,337.45,682.68,337.95,683.58,337.15z"/> <path d="M694.67,321.57l0.1-0.2C694.63,321.24,694.67,321.19,694.67,321.57z"/> <path d="M708.25,326.07c0-0.2-0.1-0.4-0.1-0.6c0,0-0.1,0-0.2,0c0,0.2-0.1,0.4-0.1,0.6C707.95,326.36,708.15,326.46,708.25,326.07z"/> <path d="M706.85,337.85c-0.5,0.1-1.2-0.2-1.4,0.7C706.05,338.45,706.55,338.35,706.85,337.85z"/> <path d="M706.95,337.85l0.1-0.2C706.8,337.78,706.82,337.72,706.95,337.85z"/> <path d="M698.06,286.82c-0.59-1.76-3.64,0.21-4.49,2.5c-0.1,0.2,0.1,0.6,0.3,1.6C697.86,287.67,698.45,287.99,698.06,286.82z"/> <path d="M695.76,267.94c0-1.9-0.5-3.89-1.7-5.89c-0.4,3.1-0.1,4.39,1.1,6.79C695.47,268.44,695.76,268.24,695.76,267.94z"/> <path d="M673.99,290.61c-0.2,1.3,0,2.3,1.1,3.3C674.8,290.68,675.26,291.37,673.99,290.61z"/> <path d="M718.43,286.22c-1,0.7-1.1,1.4-0.7,2.3C718.73,287.92,718.73,287.22,718.43,286.22z"/> <path d="M681.78,253.66c0.91-0.45,0.4-0.42,0.4-0.9C681.21,253.25,681.51,253.12,681.78,253.66z"/> <path d="M678.99,255.56c-0.84,1.12-0.96,0.84-0.6,1.2C679.56,255.88,679.48,256.05,678.99,255.56z"/> <path d="M694.77,258.85c0-0.1,0-0.2,0.1-0.4c-0.2,0-0.3,0.1-0.4,0.1C694.47,258.97,694.67,258.85,694.77,258.85z"/> <path d="M719.33,281.32c-0.19-0.19,0.02-0.32-0.3,0c0,0.1,0.1,0.2,0.2,0.3C719.23,281.52,719.33,281.42,719.33,281.32z"/> <path d="M672.4,285.62c0.26,0,0.23,0.08,0.1-0.3L672.4,285.62z"/> <path d="M716.04,233.89c2.88-1.87,4.77-1.72,5.89-5.09c-12.79,5.68-11.54,6.24-23.87,4.69
		C701.61,237.92,710.8,237.28,716.04,233.89z"/> <path d="M661.61,228.1c3.55,5.52,21.13,8.23,20.77,3.89c-4.78-0.41-10.86,1.35-20.77-5.69C660.91,227.1,661.21,227.6,661.61,228.1z
		"/> <path d="M686.18,233.09c0.9-0.1,2-0.3,2.2-1.7c-1.6-0.5-3-0.5-4.29,0.5C684.48,232.99,685.28,233.29,686.18,233.09z"/> <path d="M725.43,223.7c-1.4,0.3-2.3,1-2.1,2.9C724.63,225.8,725.33,225,725.43,223.7z"/> <path d="M658.41,222.7c-0.3,0.8,0.1,1.2,0.9,1.4C659.31,223.1,659.31,223.1,658.41,222.7z"/> <path d="M726.32,222.5c-0.8,0.1-0.8,0.7-0.8,1.3C726.22,223.3,726.22,223.3,726.32,222.5z"/> <path d="M694.97,232.29c0.1,0,0.3,0.1,0.4,0.1C695.37,232.22,695.15,232.1,694.97,232.29z"/> <path d="M692.87,181.96c1.7,0.85,3.5-2.51,3.79-4.49c0-0.3-0.3-0.6-0.5-1.1c-4.89,6.36-0.9,3.11-5.99,2.2
		c-4.46-0.8-6.91-3.2-7.99-1.4c0.4,0.3,0.7,0.7,1.1,0.8C690.05,180.22,690.8,179.7,692.87,181.96z"/> <path d="M679.59,175.67c-1.2-1.2-1.2-1.2-3.1-1.5C677.29,175.57,678.29,175.87,679.59,175.67z"/> <path d="M705.75,175.37c0.4-0.2,0.7-0.6,1.2-1c-0.64-0.48-0.79-1.11-2,0.1c-0.1,0.1,0.1,0.6,0.2,0.9
		C705.15,175.47,705.65,175.47,705.75,175.37z"/> <path d="M703.95,169.47c0.5-0.2,0.7-0.6,0.6-1.1c0-0.84-1.91-1.03-0.9,1C703.75,169.37,703.85,169.47,703.95,169.47z"/> <path d="M681.68,164.68c-0.3-0.4-0.5-0.8-0.8-1.4C680.39,164.18,680.98,164.48,681.68,164.68z"/> <path d="M700.96,160.99c-0.35-1.75,0.08-1.6-0.5-1.6c0,0.5,0,1.1,0,1.6C700.66,160.89,700.86,160.89,700.96,160.99z"/> <path d="M710.64,171.87c-0.97-0.32-0.38-0.62-1.4,0.4C709.96,172.51,709.88,173.02,710.64,171.87z"/> <path d="M680.49,175.87c-0.18,0,0.11-0.1-1-0.1C680.3,176.17,679.82,176.2,680.49,175.87z"/> <path d="M700.06,166.38l-0.2-0.1C699.86,166.54,699.81,166.5,700.06,166.38z"/> <path d="M734.71,174.27c0.6-2.3,1.3-4.69,1.7-7.09c2.08-12.48,5.19-12.34,2.6-13.38c-5.28,10.13-3.95,9.94-5.49,19.07
		C733.13,175.15,734.71,174.63,734.71,174.27z"/> <path d="M761.58,144.11c0.89-2.2,2.6-4.09,2.2-7.59c-2.4,2.7-2.96,5.36-4.19,7.69c-0.1,0.2,0.1,0.7,0.2,1
		C761.28,144.61,761.38,144.61,761.58,144.11z"/> <path d="M733.91,177.96c-1.2,0.9-1.2,0.9-0.7,2.4C734.61,179.36,734.61,179.36,733.91,177.96z"/> <path d="M733.41,186.15c-0.24,0.72-0.93,0.14-0.1,1.8c0.3-0.3,0.5-0.7,0.8-1.1C733.91,186.65,733.71,186.45,733.41,186.15z"/> <path d="M740.7,152v-0.2C740.58,152.05,740.57,152,740.7,152z"/> <path d="M733.91,182.66c0-0.1-0.1-0.1-0.2-0.2c-0.1,0.1-0.3,0.2-0.6,0.2C733.11,183.01,733.6,182.82,733.91,182.66z"/> <path d="M742.6,149.4c0-0.24-0.22-0.3-0.4-0.3C742.2,149.76,742.42,149.4,742.6,149.4z"/> <path d="M647.93,160.49c4.05,17.21,3.62,15.49,4.19,15.78c1-0.6,0.82-1.5,0.7-2.3c-0.52-3.54-2.09-15.74-5.09-16.08
		C647.73,158.79,647.63,159.59,647.93,160.49z"/> <path d="M625.46,146.6c0.2,0.2,0.8,0,1.6,0c-1.5-2.8-2.2-5.49-3.79-7.69c-0.1-0.1-0.5-0.1-0.9-0.1c-0.1,0.4-0.2,0.9-0.1,1.3
		C622.84,141.85,624.14,145.29,625.46,146.6z"/> <path d="M651.82,179.56c-0.35,1.42,0.35,1.85,0.8,2.3C654.97,180.68,651.82,178.49,651.82,179.56z"/> <path d="M647.73,157.89c0.2-1.1,0.2-2.1-1.1-2.5C646.33,157.19,646.33,157.19,647.73,157.89z"/> <path d="M652.72,189.55c0.69-1.03,0.97-0.25-0.2-2.3C652.02,189.24,652.18,188.74,652.72,189.55z"/> <path d="M652.82,184.15c-0.1-0.1-0.2-0.2-0.2-0.3c-0.25,0.25-0.48,0.22-0.1,0.6C652.62,184.35,652.72,184.25,652.82,184.15z"/> <path d="M645.23,153.1c-0.26,0-0.23-0.05-0.1,0.2L645.23,153.1z"/> <path d="M643.73,150.6c-0.22,0.22-0.32,0.08,0,0.4C644.05,150.84,643.92,150.79,643.73,150.6z"/> <path d="M679.99,124.73c1.59-0.71,3.3-0.3,4.69-1.3c-4.55-2.73-5.83-3.95-10.01-1.94c0.48,0.08,1.01,0.16,1.72,0.24
		c-0.9,0.7-1.5,1.2-2.2,1.7c1.1,1.9,2-0.1,3.1-0.1C678.09,123.93,678.88,125.23,679.99,124.73z"/> <path d="M674.29,121.44l0.1,0.2C674.73,121.45,674.82,121.53,674.29,121.44z"/> <path d="M684.68,143.81c13.74-0.37,10.87,0.01,12.38-1.2c-5.9-0.39-8.24-2.45-14.58,1C683.18,143.71,683.88,143.91,684.68,143.81z"/> <path d="M700.86,121.84c-1.75-0.35-1.6,0.14-1.6-0.6c0.53-0.09,0.99-0.18,1.5-0.26c-1.77-1.21-3.54-0.84-5.39-0.64
		c-0.5,0.6-1.01,1.19-1.4,1.8c-0.31,0.49-1.2,0.8-1.1,1.7c0.7,0.5,1.1-0.3,1.6-0.3c1,0,2.1,0.4,3.1,0.5c1.1,0.1,1.7-1.41,3-0.9
		c0.5,0.2,1.1,0.6,1.7,0C700.78,121.29,700.94,121.67,700.86,121.84z"/> <path d="M700.76,120.98c0.03,0.02,0.07,0.03,0.1,0.06C700.96,120.94,701.04,120.88,700.76,120.98z"/> <path d="M683.98,146.3c2.9,1.8,4.39,2.28,6.69,1.8c1.5-0.31,3.2-0.3,3.99-2.6C690.87,146.9,690.87,146.9,683.98,146.3z"/> <path d="M696.76,117.34c2-0.15,3.99-0.2,6.69-0.4c-5.89-1.1-9.39-0.9-13.28,1.1C692.97,118.34,694.77,117.49,696.76,117.34z"/> <path d="M678.69,117.34c2.91,0.39,3.74,1.46,5.59,1c-3.3-2.2-5.29-2.4-10.19-1C675.69,117.34,677.29,117.16,678.69,117.34z"/> <path d="M694.07,136.32c0-1.1,0-1.7,0-2.7c-1.14,2.57-0.14,2.11-3,1.4C690.74,136.65,690.01,136.32,694.07,136.32z"/> <path d="M678.69,125.93c0.8,0,1.4,0,2.3,0C680.09,124.93,679.49,125.13,678.69,125.93z"/> <path d="M697.36,97.97l-0.1,0.1C697.38,97.99,697.36,98.03,697.36,97.97z"/> <path d="M704.45,114.15c-0.38,0-0.3-0.18-0.3,1.2C704.55,115.35,704.45,115.57,704.45,114.15z"/> <path d="M687.98,136.12c0-0.22-0.76-1.07-1.6,0.1C686.98,136.42,687.38,136.72,687.98,136.12z"/> <path d="M701.06,120.84l-0.1,0.1C701.08,120.94,701.06,120.96,701.06,120.84z"/> <path d="M701.06,121.52c0.48-0.09,1.09-0.19,2.4-0.38C700.64,120.95,701.06,120.68,701.06,121.52z"/> <path d="M701.06,121.64c0-0.11,0.03-0.14-0.1-0.1L701.06,121.64z"/> <path d="M697.86,125.03c0.1,0,0.2,0,0.3,0.1c-0.1-0.1-0.1-0.2-0.2-0.3C697.96,124.93,697.86,124.93,697.86,125.03z"/> <path d="M696.56,97.97l-0.1-0.1C696.46,97.96,696.44,97.97,696.56,97.97z"/> <path d="M691.61,120.57c-0.01,0.04-0.02,0.11-0.02,0.19C691.6,120.63,691.62,120.55,691.61,120.57z"/> <path d="M691.57,120.64c0.02-0.04,0.03-0.06,0.04-0.07C691.62,120.49,691.62,120.49,691.57,120.64z"/> <path d="M697.21,99.47c-0.17,0-0.38,0-0.61,0C696.77,100.06,697.02,99.81,697.21,99.47z"/> <path d="M697.36,99.47c-0.13,0-0.1,0.02-0.1-0.1c-0.08,0.12-0.04,0.1,0,0.1C697.39,99.59,697.36,99.6,697.36,99.47z"/> <path d="M696.59,99.47c-0.03-0.1-0.01-0.11-0.13-0.07C696.46,99.49,696.44,99.47,696.59,99.47z"/> <path d="M682.28,101.17c-0.15,0-0.31-0.06-0.46-0.14c0.1-0.1,0.09-0.06-0.1-0.15C681.84,101.32,681.81,101.56,682.28,101.17z"/> <path d="M691.47,120.84C691.07,121.24,691.57,120.84,691.47,120.84L691.47,120.84z"/> <path d="M674.2,121.77c0.25-0.13,0.19-0.13,0.09-0.23C674.24,121.63,674.22,121.7,674.2,121.77z"/> <path d="M674.09,121.84c0,0,0,0.1,0,0.2C674.24,121.73,674.23,121.74,674.09,121.84z"/> <path d="M685.08,135.92c-0.12,0.25-0.16,0.17,0.1,0.3L685.08,135.92z"/> <path d="M690.37,133.92l-0.1-0.2C690.15,133.97,690.11,133.92,690.37,133.92z"/> <path d="M609.08,98.57c0.1,0.6,0.8,0.9,1.3,0.7c0.1-0.1,0.2-0.3,0.4-0.7c-0.4-0.3-0.9-0.6-1.3-0.8
		C609.38,98.07,609.08,98.37,609.08,98.57z"/> <path d="M607.28,95.67c0.1,0.2,0.4,0.5,0.7,0.6c0.2,0,0.4-0.4,0.7-0.7c-0.3-0.2-0.6-0.5-0.9-0.5
		C607.58,95.07,607.18,95.57,607.28,95.67z"/> <path d="M597.1,39.75c0.1,0.1,0.3,0.2,0.6,0.3l0.2-0.2C597.47,39,597.55,39.52,597.1,39.75z"/> <path d="M596.9,44.24c0.1-0.1,0.3-0.2,0.4-0.3c-0.1-0.2-0.1-0.4-0.2-0.5C596.59,43.44,596.9,43.93,596.9,44.24z"/> <path d="M596.3,47.24c0,0.36,0.13,0.3,0.4,0.3C596.7,46.89,596.47,47.24,596.3,47.24z"/> <path d="M777.46,94.37c0,0.66,1.11,0.87,1.3-0.1c0-0.3-0.2-0.6-0.4-1.2C777.96,93.58,777.66,93.87,777.46,94.37z"/> <path d="M788.64,42.14c0.33,0.66,0.09,0.8,0.9,0.4C789.21,41.89,789.45,41.74,788.64,42.14z"/> <path d="M788.74,37.75c-0.16,0.08-0.35,0.09,0,0.8C789.05,38.24,789.18,38.64,788.74,37.75z"/> <path d="M789.54,46.34c0-0.21,0.28,0.06-0.1-0.7C789.16,45.92,789.21,45.68,789.54,46.34z"/> <path d="M686.88,566.84c-0.74-0.74,0.94,0.38-11.19-1.4c-0.4,0-1,0-1.4,0.2c-5.45,4.08,13.68,5.06,13.68,2.5
		C687.98,567.64,687.28,567.24,686.88,566.84z"/> <path d="M686.48,571.64c-3.49-1.49-6.09,0.11-6.09-0.9c-1.62-0.15-5.59-0.65-5.59,1c0,0.5,0.54,1.9,1.4,1.9
		C688.36,575.66,687.44,571.96,686.48,571.64z"/> <path d="M683.98,576.13c-1.78-0.71-7.09-0.81-8.29-0.7c-0.56,0-1.9,1.38-0.3,2.4c1.71,1.08,9.09,1.38,9.09-0.8
		C684.48,576.73,684.28,576.23,683.98,576.13z"/> <path d="M712.64,572.34c-0.46,0,0.78-0.43-8.49-0.6c-2.51-0.05-3,2.31-1.7,3c1.24,0.66,0.24,0.5,4.99,0.5
		C714.54,575.88,714.46,572.94,712.64,572.34z"/> <path d="M711.24,577.73c-6.44-0.14-8.32-0.61-8.09,1c0.34,1.68,1.26,1.53,3.79,1.9c2.36-0.18,3.69,0.1,4.59-0.8
		C712.1,579.28,712.1,577.75,711.24,577.73z"/> <path d="M698.06,89.38c-0.36,0-0.06-0.24-0.71,0.41C698.15,89.91,697.81,89.64,698.06,89.38z"/> <path d="M697.35,89.79c-0.28-0.05-0.17,0.01-0.11,0.09C697.26,89.89,697.34,89.81,697.35,89.79z"/> <path d="M693.87,94.77c-0.1,0.8-0.1,1.3-0.2,1.8C694.27,96.17,694.27,95.67,693.87,94.77z"/> <path d="M697.26,97.97l0.1-0.1C697.27,97.87,697.26,97.85,697.26,97.97z"/> <path d="M274.83,175.27c-2.8-0.9-5.09-0.3-7.59,1c0.3,1.1,0.7,1.4,1.4,1.3C275.32,176.08,273.87,176.46,274.83,175.27z"/> <path d="M321.16,208.72c-2.7-1.4-3-1.4-4.49,0.1C318.17,209.52,319.57,209.82,321.16,208.72z"/> <path d="M328.25,209.12c-1.5,0-2.6,0-3.89,0c1,1.1,2,1.1,3.1,1.2C327.66,210.32,327.86,209.72,328.25,209.12z"/> <path d="M301.19,206.23c-0.64-0.43-1.06-1.07-1.5-0.2C301.06,206.93,300.8,206.62,301.19,206.23z"/> <path d="M294.2,188.85c0.4,0,0.8-0.1,1.2-0.2c-0.2-0.4-0.2-0.7-0.2-0.9C293.69,187.14,293.9,188.85,294.2,188.85z"/> <path d="M295.2,204.03c0-1.02-0.19-0.92-1.3-0.7c0.3,0.4,0.5,0.7,0.7,0.9C294.8,204.23,295.2,204.13,295.2,204.03z"/> <path d="M276.92,177.06c0.2-0.1,0.5-0.2,0.8-0.3c-0.2-0.3-0.3-0.5-0.3-0.7c-0.3,0.1-0.6,0.3-0.8,0.5
		C276.62,176.66,276.82,177.06,276.92,177.06z"/> <path d="M298.29,205.33c0-0.69,0.04-0.3-0.4-0.3C297.9,205.51,298.19,205.33,298.29,205.33z"/> <path d="M280.32,176.76c0,0.1-0.2,0.1-0.2,0.1c0.1,0.2,0.1,0.4,0.2,0.6C280.49,177.29,280.66,177.44,280.32,176.76z"/> <path d="M291.4,189.15c-0.26,0.26-0.48,0.05-0.1,0.8C291.49,189.76,291.82,189.99,291.4,189.15z"/> <path d="M195.33,177.66c0.3-1.4-0.6-1.7-1.4-1.9c-1.9-0.3-3.89-1.5-5.99,0.2c1.9,1.5,4.19,1.3,6.09,1.9
		C194.43,177.96,194.93,177.76,195.33,177.66z"/> <path d="M141.6,209.02c2.9,1,3,1,4.29-0.2C144.1,208.02,144.1,208.02,141.6,209.02z"/> <path d="M161.88,207.02c0.2,0.1,0.4,0.3,0.6,0.2c0.6-0.3,1.1-0.5,1.1-1.3C162.15,206.28,162.25,205.91,161.88,207.02z"/> <path d="M168.17,189.35c0.2,0,0.6-0.2,0.9-0.3C168.63,187.29,166.55,188.81,168.17,189.35z"/> <path d="M185.74,177.46c0.87-0.87,0.56-0.66-0.1-1.1c-0.1,0.3-0.3,0.5-0.4,0.8C185.25,177.26,185.64,177.46,185.74,177.46z"/> <path d="M167.67,204.03c0.36,0.71,0.25,0.28,1.1,0C168.32,203.59,168.64,203.06,167.67,204.03z"/> <path d="M164.67,205.33c-0.3,0.3-0.7,0.5-1,0.7C164.37,205.83,164.37,205.83,164.67,205.33z"/> <path d="M182.25,177.76c0.84,0,0.79-0.79-0.2-0.3C182.15,177.56,182.15,177.76,182.25,177.76z"/> <path d="M171.76,189.95c-0.1,0-0.2-0.2-0.2-0.2s-0.1,0.1-0.2,0.2C171.56,189.95,171.76,190.38,171.76,189.95z"/> <path d="M223.29,462.98c-1.42,0.71-2.87,9.44-2.9,11.68c-0.01,0.8,0.3,1.6,0.6,3c0.5-1.1,0.8-1.6,1-2.2
		C223.48,469.53,226.12,461.57,223.29,462.98z"/> <path d="M216.7,452c0,0.2,0.3,0.4,0.8,1c0.5-0.7,1-1.1,1.1-1.6c0.75-2.83,2.03-7.7,0.6-10.09C217.8,444.91,217.1,448.4,216.7,452z"/> <path d="M217.4,436.62c-6.16-6.51-5.31-5.82-6.29-5.49c1.6,3.2,3.1,4.79,6.09,6.29C217.3,437.12,217.6,436.62,217.4,436.62z"/> <path d="M220.5,481.56c1-0.9,1-1.9,0.6-3C219.8,479.46,219.8,479.46,220.5,481.56z"/> <path d="M223.99,524.6c-0.3,1.6-0.3,1.6,0.5,2.4C225.09,526.1,224.99,525.3,223.99,524.6z"/> <path d="M224.89,533.59c0.7-1.5,0.8-2.7-0.1-4.09C223.89,530.89,224.09,532.09,224.89,533.59z"/> <path d="M220.3,490.55c-0.32,0.64-0.19,0.6,0,0.8C220.62,490.71,220.49,490.74,220.3,490.55z"/> <path d="M220.3,493.44v0.2C220.42,493.39,220.43,493.44,220.3,493.44z"/> <path d="M247.26,474.67c-0.65-4.2-1.7-8.39-3.5-12.88c-1.02,1.53,0.4,6.53,2.2,14.38C246.32,476.89,247.55,476.54,247.26,474.67z"/> <path d="M246.86,446.6c0.18,4.47,4.31,6.96,4.59,4.99c-1.3-1.9-2.6-3.7-4.09-5.89C246.96,446.3,246.76,446.5,246.86,446.6z"/> <path d="M247.36,438.62c0.5,0.3,0.6,0.5,0.7,0.4c3-0.6,6.09-3.5,6.89-6.39c0.1-0.2-0.3-0.5-0.5-0.9
		C250.6,435.9,253.71,433.53,247.36,438.62z"/> <path d="M238.27,392.98c-0.7,1.9-0.4,3.79-0.3,5.79c1.3-1.1,1.2-2.6,1.2-3.99C239.17,394.17,239.37,393.38,238.27,392.98z"/> <path d="M246.76,480.16c-1.08-1.08-2.7,1.19-0.3,3.99C247.36,482.56,247.56,481.36,246.76,480.16z"/> <path d="M255.85,535.19c-0.5,1-0.5,2,0.1,3c1-1.2,1-1.2,0.5-3.1C256.25,535.09,255.85,535.09,255.85,535.19z"/> <path d="M239.47,390.68c0.2-0.61,0.66-0.5,0.3-2.3C238.47,389.68,238.47,389.68,239.47,390.68z"/> <path d="M246.96,497.74c-0.74,0-1.41,0.89-0.6,1.7c0.1,0.1,0.4,0.1,0.6,0.2C247.93,499.15,247.55,497.85,246.96,497.74z"/> <path d="M246.16,494.34c0.09,0.4,0.5,0.7,0.9,1.2c0.2-0.72,0.81-1.64-0.1-2.1C246.56,493.24,246.05,493.84,246.16,494.34z"/> <path d="M256.55,526.3c0,0.82,0.4,0.6,0.8,0.4c0-0.2-0.1-0.4-0.3-0.7C256.85,526.1,256.65,526.2,256.55,526.3z"/> <path d="M247.16,489.25c0-0.7,0-1.2,0-1.9C246.16,488.35,246.16,488.35,247.16,489.25z"/> <path d="M240.47,385.89c0-0.1,0-0.2,0.1-0.3c-0.1,0-0.3,0.1-0.4,0.1C240.17,386.17,240.35,385.89,240.47,385.89z"/> <path d="M213.11,337.65c0,0.59-1.84-0.34,13.88,6.49c0.2,0.1,0.5,0,1.1-0.1C224.75,341.62,215.42,336.99,213.11,337.65z"/> <path d="M233.08,342.74c0.65-3.15,0.8-12.66,0.8-15.38c-1.8,3.99-1.39,8.1-1.7,12.18C232.11,340.55,231.88,341.74,233.08,342.74z"/> <path d="M219.7,336.25c-24.78-6.1-17.22-2.55-8.69-0.9c3.19,0.62,6.49,1.1,9.69,1.7C220.6,336.45,220.1,336.35,219.7,336.25z"/> <path d="M237.68,343.04c8.24-5.2,5-2.9,6.69-4.59c-2.8,0.2-4.99,1.7-6.99,3.4C236.98,342.14,237.08,342.64,237.68,343.04z"/> <path d="M192.54,313.78c3.1,0.2,6.19,1.4,10.19,0.7c-4.29-0.6-7.89-1.2-11.48-1.7C191.54,313.38,192.04,313.78,192.54,313.78z"/> <path d="M234.28,316.28c0.32-1.39,0.88-5.75-0.4-6.39c-0.6,1.8-0.7,3.1-0.4,5.59C233.48,315.68,233.88,315.88,234.28,316.28z"/> <path d="M251.26,338.65c-2.7,0.8-5.39,1.7-7.79,3.3C246.26,341.34,248.96,340.65,251.26,338.65z"/> <path d="M269.93,308.39c-1.7,0.58-3.7,0.8-5.09,2.3c2.8-0.4,5.39-1.2,7.99-2.2C271.73,307.79,270.83,308.08,269.93,308.39z"/> <path d="M239.97,334.25c-2.1,2.1-2.1,2.1-2.5,4.39C239.17,337.55,239.67,336.25,239.97,334.25z"/> <path d="M243.67,332.16c0.3-0.2,0.5-0.7,0.7-1c-0.2-0.2-0.3-0.3-0.3-0.4C241.31,331.45,242.93,332.9,243.67,332.16z"/> <path d="M222.5,337.15c-0.8,0-1.3,0-1.9,0C221.2,337.45,221.6,337.95,222.5,337.15z"/> <path d="M247.26,325.87c-0.35-0.69-0.5-0.45-0.5-0.3c0,0.2,0.1,0.4,0.1,0.6C246.96,326.07,247.16,325.97,247.26,325.87z"/> <path d="M244.47,338.55c0-0.04,0.02-0.07,0.03-0.11C244.31,338.44,244.36,338.44,244.47,338.55z"/> <path d="M245.86,337.75c-0.48,0.19-1.22-0.06-1.37,0.69C245.05,338.43,245.58,338.31,245.86,337.75z"/> <path d="M233.68,321.67v-0.3C233.55,321.37,233.56,321.31,233.68,321.67z"/> <path d="M245.86,337.85l0.1-0.2C245.84,337.77,245.86,337.72,245.86,337.85z"/> <path d="M232.58,288.91c-0.2,0.4,0,0.9,0.1,1.6c1.53-0.54,5.05-2.81,4.19-4.09C235.98,285.08,233.39,287.02,232.58,288.91z"/> <path d="M232.88,262.65c-0.4,1.7,0,3.99,1.3,6.29c1-2.4-0.3-4.39-0.5-6.39C233.28,262.55,232.88,262.55,232.88,262.65z"/> <path d="M223.19,249.87c0,1.76,2.97-0.85,4.09-2.2c0.1-0.1-0.1-0.6-0.3-1.1C225.49,247.57,223.79,248.07,223.19,249.87z"/> <path d="M213.51,293.51c0.1,0.1,0.2,0,0.5,0.1c-0.1-1-0.1-1.9-0.2-2.8C212.41,291.81,212.91,292.61,213.51,293.51z"/> <path d="M256.95,285.92c-0.2,1.1-0.3,1.8-0.5,3C257.45,287.32,257.45,287.32,256.95,285.92z"/> <path d="M220.8,253.66c0.48-0.48,0.62-0.26,0.3-0.9C220.72,252.95,220.32,252.7,220.8,253.66z"/> <path d="M217.9,255.56c-0.3,0.4-0.5,0.7-0.8,0.9c0,0.58,0.77-0.07,1.2-0.5C218.2,255.96,218.2,255.86,217.9,255.56z"/> <path d="M233.78,258.66c-0.1-0.1-0.1-0.2-0.2-0.2c-0.13,0.13-0.37,0.03,0.1,0.5C233.68,258.85,233.78,258.76,233.78,258.66z"/> <path d="M258.35,281.52c-0.1-0.1-0.1-0.2-0.1-0.3c-0.25,0-0.2,0.04-0.2,0.4C258.15,281.62,258.25,281.52,258.35,281.52z"/> <path d="M211.51,285.62l-0.1-0.3C211.28,285.7,211.25,285.62,211.51,285.62z"/> <path d="M244.47,237.78c5.49,0.34,7.77,0.12,10.19-0.7c5.48-1.86,10.68-5.33,14.48-9.79c2.25-2.64,1.15-3.94,0.8-4.99
		c-2.36,5.9-9.1,9.98-14.98,12.38c-7.46,3.05-10.34,0.82-12.38,1.5C242.77,237.38,243.57,237.78,244.47,237.78z"/> <path d="M210.31,236.19c0.72-0.07,8.13-1.17,8.49-1.9c-0.61-0.41-0.19-0.87-3.3-0.4c-7.29,1.1-15.64-2.77-19.47-7.49
		c-0.4-0.5-0.7-1-1.5-0.8C192.8,227.33,202.96,236.86,210.31,236.19z"/> <path d="M258.95,176.07c-1.5-1.3-1.8-1.2-2.6,0.6C257.45,177.46,258.35,177.16,258.95,176.07z"/> <path d="M241.17,235.99c-0.8-0.3-1.5-0.7-3-1.3C239.67,237.18,239.77,237.18,241.17,235.99z"/> <path d="M204.72,177.06c0.4,0,0.8-0.4,1.4-0.7c-0.6-0.3-0.8-0.6-1.1-0.7C203.55,175.37,203.9,177.06,204.72,177.06z"/> <path d="M225.89,231.99c-0.56-0.84-0.37-0.93-1.4,0.1c0,0.1,0.3,0.5,0.3,0.5C225.19,232.39,225.49,232.19,225.89,231.99z"/> <path d="M222.2,232.69c-0.63,0.31-0.78,0.05-0.4,0.8C222.79,232.99,222.68,233.17,222.2,232.69z"/> <path d="M236.08,232.99c-0.36,0-0.3,0.04-0.3,0.4C236.44,233.39,236.08,233.18,236.08,232.99z"/> <path d="M270.83,216.01l-0.2-0.2C270.63,216.2,270.58,216.14,270.83,216.01z"/> <path d="M211.61,179.66c3.49,1.96,10.79,4.1,10.79,1.7c-3.7-1.2-7.39-2.4-11.19-3.7C210.41,178.66,210.91,179.27,211.61,179.66z"/> <path d="M236.18,179.16c-1.83,2.85-0.35,3.88-0.1,4.19C236.68,181.96,237.18,180.86,236.18,179.16z"/> <path d="M226.09,179.96c-0.1,1.3-0.2,2.6,0.9,3.79C227.89,181.26,227.79,180.66,226.09,179.96z"/> <path d="M239.87,160.99c-0.35-1.73,0.08-1.6-0.5-1.6c0,0.5,0,1.1,0,1.6C239.57,160.89,239.77,160.89,239.87,160.99z"/> <path d="M238.87,166.48v-0.2C238.75,166.53,238.74,166.48,238.87,166.48z"/> <path d="M216.4,123.34c0.4,0.9,1.49,1.79,2.5,1.4c1.59-0.62,3.3-0.3,4.69-1.3c-4.55-2.73-5.83-3.95-10.01-1.94
		c0.48,0.08,1.01,0.16,1.72,0.24c-0.9,0.7-1.5,1.2-2.2,1.7C214.21,125.23,215.11,123.44,216.4,123.34z"/> <path d="M213.31,121.64c0.33-0.19,0.43-0.11-0.1-0.2L213.31,121.64z"/> <path d="M235.08,143.51c0.32,0,0.59-0.57,0.7-0.9c-0.9-0.1-1.89,0.09-2.8-0.2c-3.73-1.17-8.74-1.06-11.98,1.1
		C224.14,143.86,218.55,143.72,235.08,143.51z"/> <path d="M239.47,123.14c0.5,0.2,1.1,0.6,1.7,0c-0.4-0.5-0.9-1-1.3-1.5v0.2c-0.5-0.1-1.1-0.1-1.6-0.2c0-0.48-0.25-0.38,1.5-0.66
		c-1.77-1.21-3.54-0.84-5.39-0.64c-0.5,0.6-1,1.2-1.4,1.8c-0.3,0.6-1.2,0.8-1.1,1.7c0.2,0.1,0.4,0.3,0.6,0.2
		c0.3-0.1,0.6-0.5,0.9-0.5c1,0.1,2.1,0.4,3.1,0.5C237.58,124.14,238.18,122.63,239.47,123.14z"/> <path d="M222.6,146.5c2.6,1.2,4.88,2.16,7.59,1.5c1.29-0.32,2.6-0.5,3.4-2.5C227.56,148.08,224.93,145.73,222.6,146.5z"/> <path d="M229.69,118.34c12.8-2.23,11.88-0.53,11.88-1.8c-4.59-0.35-6.83-0.75-11.19,0.7C230.19,117.24,230.09,117.64,229.69,118.34
		z"/> <path d="M213.31,117.14c7.79,0.52,3.39-0.08,10.49,1.7C220.82,115.87,215.35,115.79,213.31,117.14z"/> <path d="M232.98,135.82c0-0.6,0-1.2,0-2.3c-0.4,1.1-0.6,1.6-0.7,2c-1,0.3-1.9-1.2-2.8,0.5
		C230.98,136.72,231.98,136.52,232.98,135.82z"/> <path d="M236.28,97.97l-0.1,0.1C236.29,97.99,236.28,98.03,236.28,97.97z"/> <path d="M217.4,126.03c1-0.1,1.7-0.1,2.7-0.2C219,125.13,218.4,125.03,217.4,126.03z"/> <path d="M243.37,114.15c-0.38,0-0.3-0.18-0.3,1.2C243.47,115.35,243.37,115.57,243.37,114.15z"/> <path d="M239.97,120.94c0,0.17,0,0.37,0,0.58C241.75,121.19,244.38,121.02,239.97,120.94z"/> <path d="M239.87,121.54l0.1,0.1C239.97,121.52,240,121.5,239.87,121.54z"/> <path d="M239.95,120.94c0.01-0.03,0.02-0.06,0.02-0.1C239.86,120.96,239.85,120.94,239.95,120.94z"/> <path d="M239.96,120.94c-0.01,0,0,0-0.01,0c0,0,0,0,0,0C239.95,120.94,239.96,120.94,239.96,120.94z"/> <path d="M239.95,120.94C239.68,120.99,239.88,121.08,239.95,120.94L239.95,120.94z"/> <path d="M225.49,136.12c0.57,0.57,0.67,0.19,1.6,0C226.39,135.52,225.99,135.32,225.49,136.12z"/> <path d="M236.78,124.93c0.14,0.14,0.4,0.16,0.4-0.1C237.04,124.83,236.78,124.56,236.78,124.93z"/> <path d="M235.48,97.97l-0.1-0.1C235.38,97.96,235.36,97.97,235.48,97.97z"/> <path d="M235.38,99.47l0.1-0.1C235.36,99.37,235.38,99.37,235.38,99.47z"/> <path d="M209.71,108.06c0,0.2,0.2,0.3,0.3,0.4c0.16-0.33,0.32-0.54-0.4-0.9C209.71,107.66,209.61,107.96,209.71,108.06z"/> <path d="M230.53,120.57c-0.01,0.04-0.02,0.11-0.02,0.19C230.51,120.63,230.54,120.55,230.53,120.57z"/> <path d="M230.49,120.64c0.02-0.04,0.03-0.06,0.04-0.07C230.54,120.49,230.54,120.49,230.49,120.64z"/> <path d="M211.11,104.66c0.13-0.27,0.17-0.27-0.1,0H211.11z"/> <path d="M234.85,99.45c0.67-0.08,0.53,0.2,0.53-1.5c-0.88-0.09-0.7-0.46-0.7,1.41c-0.23,0-0.47,0-0.7,0
		C234.27,99.95,234.56,100.24,234.85,99.45z"/> <path d="M235.58,99.37l-0.1,0.1C235.64,99.47,235.61,99.49,235.58,99.37z"/> <path d="M221.3,101.17c-0.2,0-0.4-0.1-0.6-0.2C220.8,101.07,220.6,101.66,221.3,101.17z"/> <path d="M213.01,121.84c0,0,0,0.1,0,0.2C213.15,121.72,213.14,121.74,213.01,121.84z"/> <path d="M213.12,121.77c0.25-0.13,0.19-0.13,0.09-0.23C213.16,121.63,213.14,121.7,213.12,121.77z"/> <path d="M224.09,136.22l-0.1-0.3C223.87,136.17,223.84,136.09,224.09,136.22z"/> <path d="M229.19,133.92v-0.2C228.93,133.85,228.93,133.8,229.19,133.92z"/> <path d="M230.39,120.84c-0.1,0.1-0.1,0.1-0.2,0.2C230.29,121.04,230.39,120.94,230.39,120.84z"/> <path d="M115.24,164.18c0.1-1.5,0.1-1.5-0.6-2.3C114.14,162.78,114.14,163.58,115.24,164.18z"/> <path d="M117.24,205.03c0.5-0.3,1.1-0.5,1.1-1.2c-0.1-0.1-0.4-0.3-0.5-0.3C115.44,204.49,117.01,205.25,117.24,205.03z"/> <path d="M344.73,203.43c0.14,0.42,0.06,1.1,1.2,1.1c0.1,0,0.2-0.3,0.5-0.6C345.53,203.33,346.08,203.43,344.73,203.43z"/> <path d="M226.39,567.14c-1.78-0.89,0.51,0.28-11.58-1.5c-1.36-0.34-2.36,0.7-2.5,1.4c-0.93,2.78,10.86,2.53,13.98,2.2
		C226.69,569.24,227.8,568.2,226.39,567.14z"/> <path d="M225.59,571.94c-2.36-1.18-1.33-0.58-6.39-1c-0.63-0.05-3.81-0.39-4.39-0.1c-1.93,1.16-1.26,2.57-0.1,2.9
		c0.1,0,5.29,1.11,9.49,0.3C226.3,573.51,226.12,572.25,225.59,571.94z"/> <path d="M222.5,575.83c-1.56-0.21-5.67-0.69-7.59-0.5c-1.13,0-1.84,1.73-0.3,2.5c2.84,1.09,9.39,1.24,8.79-1
		C223.29,576.43,222.9,575.93,222.5,575.83z"/> <path d="M251.16,572.24c-8.34-0.62-8.66-0.65-9.79,0c-1.46,0.84-0.36,3,1.3,3c2.85,0,9.89,0.88,9.89-1.6
		C252.56,573.2,252,572.24,251.16,572.24z"/> <path d="M250.26,577.63c-3.98-0.33-3.88-0.39-3.6-0.1c-3.16,0-3.65-0.38-4.29,0.9c-0.98,2.95,7.39,2.54,8.29,1.2
		C251.05,578.83,251.14,577.63,250.26,577.63z"/> <path d="M123.43,134.82c1.6-0.5,2.8-1.1,3.79-2.7c-0.7-0.1-1.2-0.3-1.5-0.1c-0.45,0.2-2.95,1.5-2.7,1.5
		C123.13,133.92,123.23,134.32,123.43,134.82z"/> <path d="M236.37,89.79c0.8,0.12,0.46-0.16,0.71-0.41C236.71,89.38,237.02,89.14,236.37,89.79z"/> <path d="M232.58,96.57c0.6-0.4,0.6-0.9,0.2-1.8C232.68,95.57,232.68,96.07,232.58,96.57z"/> <path d="M236.18,97.97l0.1-0.1C236.19,97.87,236.18,97.85,236.18,97.97z"/> </g> </svg> 