<?xml version="1.0" encoding="utf-8"?> <!-- Generator: Adobe Illustrator 23.0.1, SVG Export Plug-In . SVG Version: 6.00 Build 0)  --> <svg version="1.2" baseProfile="tiny" id="Layer_1" xmlns="http://www.w3.org/2000/svg" xmlns:xlink="http://www.w3.org/1999/xlink" x="0px" y="0px" viewBox="0 0 900 600" xml:space="preserve"> <g> <path d="M674.34,69.73l0.1-0.1C674.23,69.63,674.27,69.66,674.34,69.73z"/> <path d="M887.25,134.27c0.71,1.89,2.76,1.27,4.24,0.2c5.34-3.84,1.7-12.87,5.15-4.24c1.38-1.21,0.87-1.75,1.52-1.11
		c1.17,2.34,0.9,1.82,1.72,1.82c0-0.4,0.2-0.71,0.1-1.01c-0.94-2.92-2.27-5.51-4.24-7.78c-3.73-4.29-0.41-5.2-5.35-7.98
		c-1.31-0.87-1.6-0.12-9.29,4.54c-8.75,5.31-2.27,2.53-28.58,1.01c-1.14-0.07-6.68-0.09-7.57,0.81c-0.74,0.89,2.19,0.5-43.23,1.52
		c-86,1.92-79.65,2.51-83.12,0.81c-6.36-3.12-6.93-1.07-20.3-4.04c0.61-5.55,1.82-10.81,3.43-16.36c3.79,1.26,4.16,1.62,5.86,1.62
		c5.86,0,12.53,1.55,11.61-5.76c-0.62-3.44,2.96-2.67,0.91-7.07c3.77-2.83,0.06-3.44,2.12-5.96c2.61-0.37,6.29-1.91,4.06-3.32
		c-0.83,1.37-1.44,1.36-8.1,2.31c0.4,0.4,0.61,0.81,0.91,1.01c1.63,1.22,1.17-0.64,1.62,3.84c-2.2,2.37-5.74,0.24-5.96,2.42
		c0.91,1.01,1.92,0.39,2.93,0.1c1.11-0.32,2,0.6,1.72,1.62c-0.66,2.39-2.35,3.2-1.82,5.55c0.23,1,0.3,1.03-0.5,3.43
		c-1.71,1.71-10.4-0.01-13.23-0.61c-2.69-0.57-3.64-0.3-4.44,2.53c-3.52,12.28-2.83,9.79-2.83,12.12c0,6.16-2.34,4.61-5.55,5.25
		c-3.14-2.38-15.35-6.13-23.23-5.55c-0.33-1.96,3.73-4.2,4.54-9.9c2.44-17.18-1.89-21.23-4.24-24.04
		c-5.3-6.35-4.24-18.13-5.25-21.61c-0.5-1.72,0.1-3.43,0.51-5.55c0.51,0.61,0.9,0.81,1.01,1.21c0.6,2.28,0.66,9.17,9.39,13.63
		c0.78,0,1.04,0.42-3.59-4.89c1.27-0.28,3.14,1.75,4.88,1.36c-0.05-0.75-0.03-0.13-5.85-5.17c-0.26-0.17-0.3-0.66-0.37-1.04
		c4.06,2.18,9.15,4.9,5.52,2.05c-14.08-9.82-7.73-6.69-11.72-8.18c-0.84,1.68-0.94,1.22-1.31,4.85c-0.71,6.81-1.83,6.83-4.34,14.14
		c-1.46,4.27-2.6,3.97-2.53,9.09c0.36,24.63,1.86,7.6-1.37,36.74c8.65-12.98,0.42-30.68,6.73-48.16c0.1-0.2,0.4-0.3,0.61-0.4
		c0.81,1.63,0.13,4.86,4.95,11.51c3.2,4.42,4.85,6.51,4.85,9.8c0,27.43,0.39,12.54-12.32,33.73c-13.04,0-114.63,2.62-114.73,2.63
		c-362.94,8.58,300.07-4.63,300.17-4.54c-1.7,1.14-401.12,9.58-407.63,10.3c-0.73,2.91,4.8,2.36,38.48,1.82
		c11.34-0.18,22.04-0.36,32.14-0.52c-37.15,0.86-67.51,1.79-70.52,2.54c2.94,2.35,214.53-3.26,217.85-2.22
		c-2.99,9.73-0.31,7.01-0.81,12.12c-1.68,17.31-2.37,19.65-1.41,24.14c3.15,14.77,6.87,22.58,7.07,41.71
		c0.1,9.6,0.67,10.81-0.3,12.73c-7.36,14.55-8.11,16.72-17.37,23.43c-3.39,0.92-3.29,1.95-15.05,10.71
		c-8.33,6.21-4.38,4.55-8.28,7.27c-7.42,5.17-12.45,14.33-14.44,22.62c-2.52,10.47,1.23,17.31,3.13,22.52
		c2.08,4.85,1.52,3.64,0.4,8.48c-0.05,0.1-3.29,10.92-6.97,16.77c-8.52,13.55-11.52,18.87-14.44,27.67
		c-11.15,33.64-10.11,30.18-11.51,32.52c-1.99,2.84-5.15,4.78-5.15,7.88c-10.71,20.08-19.22,15.21-30.2,37.77
		c-4.67,9.59-9.69,30.44-12.52,39.69c-1.23,4.02-4.7,11.2-7.47,17.37c-2.66,5.93-3.29,9.48-7.57,15.65
		c-0.46,0.58-2.28,6.07-2.63,7.17c-3.02-2.55-3.84-4.18-7.37-1.92c-2.55,1.63-1.3,2.57-4.95,11.11c-0.92,2.15-1.28,6.78-2.12,11.51
		c-1.9,10.76,2.99,6.44-1.82,16.06c2.72,1.36,11.53,2.73,12.02,2.73c7.27-0.12,8.04,2.14,11.92,1.21c10.66-2.56,8.4-3.49,11.92-2.32
		c2.69,0.9,0.36,2.76,5.96,4.04c5.14,1.18,26.17,2.8,31.41,0.1c9.12-4.69,32.05-4.58,17.37-22.93
		c-21.77-1.36-15.65,1.25-41.81-26.46c-0.2-0.3-0.71-0.4-1.21-0.71c0.21,1.71-0.16,1.17,3.84,6.06c-2.64,3.7-5.41,3.98-8.48,6.36
		c-1.28,0.99-0.14,2.78,1.41,2.32c3.39-1,6.28-4.1,8.69-6.26c1.51,1.21,2.63,2.52,3.53,4.04c-1.31,1.52-3.05,1.98-4.65,2.73
		c-3.35,1.57-1.35,3.71,1.01,2.52c7.11-3.56,4.29-4.59,8.48-0.4c-1.78,2.49-4.71,4.27-3.23,5.45c1.4,1,2.48-0.96,4.85-3.33
		c2.02,0,2.07,2,2.63,4.04c-0.51,0.4-1.31,1.01-2.02,1.51c-1.41,1.13-0.39,2.7,1.11,2.32c2.54-1.02,1.54-0.76,4.04-2.42
		c8.95,3.25,4.02,2.56,21.41,4.44c11.13,15.58-10.52,13.92-17.27,18.28c-4.77,3.08-23.64,0.57-26.16,0.4
		c-2.04-0.14-0.89,0.03-12.93-4.95c-1.47-0.74-2.25,0.16-4.75,1.11c-3.43,1.3-18.72,1.4-25.75-1.41c0-1.82,0.2-3.43,0-5.05
		c-0.2-1.11,1.13-1.82,0.61-3.03c-1.04-2.42,0.32-10.07,0.5-13.84c0.1-2.12,1.93-3.53,2.42-5.45c0.52-2.02,1.62-3.84,1.92-6.06
		c0.1-1.41,0.4-1.51,2.32-3.13c6.97,1.03,2.74,5.63,7.37,7.17c7.55,2.52,17.57-7.71,28.18-14.34c0.42-0.84-1.41-0.47-0.4-2.52
		c22.58-46.04,35.64-45.52,45.05-73.22c0.65-1.91,0.3-1.52,13.03-16.87c0.36-0.54,4.18-3.41,6.36-5.25
		c6.79-5.73,4.81-9.24,9.9-14.04c17.92-16.9,33.16-37.05,43.63-59.89c2.27-4.95,1.67-4.69,3.13-3.23
		c9.28,11.83,11.46,15.07,16.97,19.69c7.07,5.94,9.5,10.27,21.71,18.89c7.16,5.05,15.9,12.06,20.3,18.99
		c-1.79,16.99-9.61,13.45-0.91,50.9c2.4,10.34,8.58,28.99,7.37,60.3c-2.8,1.27-6,2.09-6.16,5.35c-0.35,6.83-4.27,12.51-2.63,17.37
		c0.86,2.54,0.25,4.94-0.3,7.37c-0.32,1.44-1.38,1.5-2.22,4.44c3.13,0.51,5.53,1.97,8.18,3.03c3.58,1.43,14.6,2.09,20.7-0.2
		c6.43-2.42,11.76-0.38,16.77,0.51c2.4,0.42,2.84,0.16,7.37,0.91c4.55,0.76,9.09,2.22,13.74,1.82c18.03-1.56,24.63-7.42,22.93-9.7
		c-1.38,0-3.71,4.18-14.04,6.06c-9.34,1.7-11.33-0.97-14.54,0.4c-1.28,0.55-7.22-1.33-16.36-2.93c-8.05-1.41-16.38-0.47-17.57,0.3
		c-4.08,2.64-11.47,0.89-12.52,1.01c-4.33,0.51-7.88-1.62-11.51-3.53c1.21-3.23,1.62-6.46,0.71-9.8c-0.32-0.8,1.55-8.05,1.72-8.69
		c2.87-11.22-1.42-6.98,5.35-11.82c0.51,0.51,1.12,0.81,1.21,1.31c1.1,5.97,10.96,8.82,23.73-1.01c-0.4-1.82,0.12-3.53,0.4-5.25
		c0.41-2.51,1.53-4.09,4.02-4.39c0.15-0.3,0.31-0.63,0.53-1.06c-2.03-0.41,0.36-0.79-5.66,1.21c-1.47-0.63-2.24-20.47-2.12-24.64
		c0.41-14.6,3.22-35.25,2.83-63.33c-0.08-6.09-1.14-7.24-0.3-13.84c1.79-14.03,1.6-4.93,3.23-17.98
		c-4.86-8.44-27.07-44.73-34.54-53.33c-15.25-17.55-10.11-14.3-23.23-28.48c-4.8-5.19-9.27-10.07-10.4-14.24
		c1.82-2.73,5.02-8.49,5.66-9.59c2.82-4.23,1.5-0.99,3.74-7.88c11.32-34.9,14.99-29.87,23.03-44.94c8.43-15.8,3.54-25.32,6.46-27.27
		c2.42-1.82,4.05-4.32,6.67-5.86c0.51-0.3,1.01-1.01,1.31-1.62c4.89-11.42-0.17-19.6-7.68-28.18c22.88,0,28.21-0.33,38.48-1.31
		c3.1-0.3,7.53,3.61,18.89,1.52c16.21-2.99,29.53-3.37,43.33-9.19c7.42-3.13,14.67-2.34,22.12-3.13c14.76-1.57,31.5,2.13,35.75-0.2
		c6.62-3.62,2.05-2.7,7.68-3.13c3.58-5.38,2.7-3.92,4.24-4.14c1.72-1.11,2.73-3.43,5.15-3.74c0.4-1.21,0.71-2.32,1.11-3.64
		c-2.79,0-1.26,0.57-1.72-0.91c-0.59-1.92-2.06-0.16-4.14,1.92c-3.43,3.43-3.43,3.43-8.08,2.73c-0.48,0-0.28-0.91-0.1-2.32
		c-3.05,1.8-1.72,2.72-0.51,5.76c-2.42,1.62-4.85,2.68-7.68,2.73c-8.33,0.15,4.13-2.9-26.87-1.31c-0.3-0.1-0.91-0.51-1.41-0.81
		c-9.19,2.32-18.3,4.5-27.07,8.08c-9.37,3.83-25.22,7.57-25.96,7.27c-5.63-1.88-27.04,6.41-31.81,0.81
		c-2.36-2.77-19.39,4.1-69.49-1.72c-2.84-0.33-6.58,4.37-7.98,6.87c-0.2,0.3-0.1,0.81-0.1,1.72c1.11-0.91,1.72-1.51,2.42-2.12
		c0.1,0.2,0.3,0.51,0.2,0.61c-0.77,1.44-2.57,4.91-3.84,5.35c-3.92,1.37-10.72,10-24.64,9.9c-2.69-0.02-1.9,0.71-5.96,0.2
		c-5.02-10.77-0.6-15.39-0.91-32.93c-0.09-5.25,1.62-10,3.74-14.85c2.64-0.47,18.2-0.88,20.91-0.81c-1.51,1.82-3.74,2.02-4.65,3.74
		c0.57,1.15,1.32,0.33,2.73-0.51c8.16-4.85,10.09-3.65,41.81-4.14c7.86-0.12,7.3,3.45,25.05,5.25c8.25,0.84,13.1,0.61,29.19,0.61
		c5.1,0,4.41-1.27,12.73-4.95c4.41-1.95,1.79-1.48,58.98-1.31c12.74,0.04,25.23,0.85,38.19,1.93
		C884.68,134.84,886.79,133.35,887.25,134.27z M668.38,59.43c0.09,0.17,0.17,0.28,0.26,0.43C668.32,59.91,668.12,59.86,668.38,59.43
		z M680.81,124.47c-3.4,0-1.35,0.66-5.25-0.81c-5.59,1.4,2.14,0.71-14.75,1.51c1.31-1.82,2.73-2.3,4.04-2.52
		C669.42,121.88,682.02,120.84,680.81,124.47z M676.97,120.13c-15.46,0-14.52,3.09-10.91-3.23c3.84,0.3,7.49,0.05,10.91,1.11
		c3.45,1.06,7.07,1.51,10.6,3.43c-1.41,1.11-2.83,1.01-4.04,1.41C681.51,121.34,679.39,120.13,676.97,120.13z M684.34,124.27
		c7.81-2.2,13.89-1.82,24.95-1.82c1.72,0,3.33,0.2,4.95,1.11C710.7,124.17,688.28,124.67,684.34,124.27z M895.8,136.02
		c-0.19,0.19-0.41,0.41-0.58,0.58C895.23,136.26,895.45,136.07,895.8,136.02z M889.67,140.83c-0.51,0-1.11-0.1-1.72-0.1
		c0-0.1,0-0.3,0-0.4C889.96,140.33,889.67,140.41,889.67,140.83z M893.6,138.21c-0.4,0.62-0.99,0.64-5.65,0.3
		C887.95,138.11,887.27,138.21,893.6,138.21z M851.9,143.06c6.91-0.16,12.19-0.92,18.79-0.3c5.77,0.54,3.22,3.25,13.84,0.3
		c-4.45,5.72-9.14,2.23-14.85,2.73c-4.72,0.41-12.43-0.5-14.24-0.4c-9.71,0.51-14.38,1.69-17.98,0.91
		C842.2,144.97,846.85,143.17,851.9,143.06z M702.72,313.04c9.45,14.42,12.52,12.73,27.27,36.46c0.06,0.1,18.81,29.39,18.89,29.49
		c4.63,6.54-3.74,14.95-2.32,17.37c1.71,2.91-1.33,7.82,0.61,12.93c0.27,0.54-0.19,32.94-0.2,33.53
		c-0.44,20.62-4.41,24.83-1.11,55.75c0.91,8.53,2.25,5.12,0.61,11.72c-6.78,5.03-16.32,6.07-17.27,3.23
		c-0.61-1.82-2.22-2.73-3.03-3.94c1.64-9.85-0.45-24.56-1.82-38.99c-0.68-7.12-0.99-5.76-5.96-26.26
		c-7.73-31.92,2.69-33.04,1.11-48.08c-10.23-14.7-28.66-24.42-42.12-37.87c-12.21-12.21-13.57-17.09-14.75-17.67
		c-1.82-1.11-2.42-3.13-3.53-4.75c5.65-16.38,2.88-9.24,10.91-16.77c9.48-8.88,22.25-18.43,22.42-18.68
		C695.74,303.36,700.17,309.15,702.72,313.04z M691.21,298.9c-1.31,1.41-7.47,5.96-9.09,6.87c0,0.1-15.16,13.41-15.62,13.77
		c0.04-0.11,0.05-0.25-0.03-0.43c0.98-0.65,0.84-0.95,1.11-2.02c0.1-0.4,0.91-0.71,0.1-1.41c-1.21,1.11-2.42,2.22-3.74,3.33
		c-1.92-7.67-1.54,7.31-10.4,22.83c-43.09-24.13-25.43-12.32-44.14-20.5c-0.2,0-0.4,0.2-0.81,0.3c1.57,2.1,3.48,2.84,14.14,6.16
		c6.46,2.01,10.71,4.29,27.27,14.04c2.95,1.73,3.56,1.36,1.52,5.05c-9.51,19.64-25.87,39.85-41.11,54.74
		c-1.89,1.85-5.1,8.77-5.86,10.1c-2.33,4.1-10.03,8.25-10.71,9.8c-0.7,1.62-2,2.64-3.03,3.94c-13.1,16.51-3.63,2.79-19.9,31.41
		c-7.98,14.04-20.02,20.97-36.76,56.56c-3.6,7.65-36.36,27.88-19.39-0.4c21.92-41.34,16.28-65.34,36.06-84.23
		c18.48-17.66,24.03-23.28,36.16-60.8c3.38-10.45,10.14-23.34,12.32-25.15c1.18-0.98,1.66-1.66,4.54-8.48
		c1.88-4.45,1.04-3.5,1.51-5.15c0.13-0.44,1.29-3.6,1.41-4.04c3.29-7.67,1.24-9.67,3.63-7.28c1.45-1.77,2.93,0.45,6.17-0.09
		c-0.47-0.94,0.64-0.54-7.47-3.13c-8.85-18.97-2.87-37.04,10.91-46.76c3.73-2.63,7.42-5.29,10.3-9.09c1.39-1.84,3.64-3.03,5.45-4.54
		c1.43-1.43,0.91,0.06,5.76,3.53c26.87,19.26,24.76,14.93,31.71,19.9c-0.91,6.86-1.1,5.55-0.2,8.48c2.01-9.37-1.19-8.64,10.3-4.04
		c-1.26,2.52-1.14,1.54-5.15,7.68c-2.26,3.46,0.17,1.37-1.52,5.76c-1.82,4.75-3.35,8.14-3.13,11.01c2.05-0.68,8.61-7.87,10.5-12.73
		c0-3.72-5.38,7.36-7.99,8.24c-0.07-0.59,2.9-9.25,2.94-9.35c0.7-2.02,2.02-3.53,3.74-4.95
		C687.94,295.24,688.01,295.05,691.21,298.9z M720.3,206.79c-5.04,23.52-13.7,20.59-22.02,42.22c-10.59,27.52-5.3,18.44-13.23,30.91
		c-3.84-0.61-7.37-1.31-10.3-4.14c-0.1-0.51-0.1-1.01-0.2-1.62c-0.59-3.56-0.87,0.78-2.42-6.97c-1.35,2.92,1.24,5.77,0.91,7.68
		c-12.28-5.22-32.03-18.4-34.44-22.02c7.75-6.46,11.21-5.85,19.59-24.44c4.12-9.14,1.53-11.39,2.63-17.17
		c37.64-3.96,48.99-8.28,58.68-8.28C719.99,204.26,720.6,205.37,720.3,206.79z M682.62,171.54c4.15-2.6,3.92-1.07,6.56-4.54
		c5.68-7.45,2.31-12.16,9.19-11.01c21.89,3.68,21.21,2.75,23.33,5.05c5.05,5.49,5.51,5.21,7.37,9.09c2.18,4.53,3.21,13.27-0.2,17.07
		c-8.76,9.75-6.69,1.24-9.19,14.24c-9.59,0-50.43,6.41-55.45,7.68c-1.21,0.31-2.52,0.51-3.64-0.3c-2.84-21.3-2.21-21.09-5.55-30
		C664.59,178.81,671.58,179.82,682.62,171.54z M600.11,131.04c0,0.1,0,0.2,0,0.3C573.6,131.34,573.69,131.04,600.11,131.04z
		 M609.2,130.53c2.27-0.03,43.5-0.78,45.75-0.51C639.7,130.73,624.45,131.04,609.2,130.53z M772.11,131.95
		c-0.4,0-1.11,0.2-1.41-0.81c2.93-1.01,5.76-1.72,9.29-1.31C777.66,131.45,779.46,131.56,772.11,131.95z M778.17,127.6
		c-11.31,1.12-15.42,8.11-43.43,2.32c-1.82-0.38-3.53-0.81-5.76-1.82c6.23-1.13,53.79-1.37,56.26-1.01
		C782.92,127.3,780.49,127.37,778.17,127.6z M881.59,121.54c4.48-3.58,4.66-3.8,5.35-4.04c1.99-0.7,2.87,0.74,3.5-1.05
		c2.35,1.72,2.96,4.21,2.76,7.01c0.98,0.54,1.33,1.45,1.33,2.49c-1.84-3.4-1.25-1.9-2.24-2.6c-2.5-1.75-3.61-1.01-9.7-1.01
		C881.36,122.35,881.39,121.75,881.59,121.54z M825.44,125.68c4.86-0.69,15.98,0.14,18.99-0.91c1.21-0.42,2.02,0.2,2.73,1.11
		C828.38,125.89,828.63,126.32,825.44,125.68z M868.36,125.99c-6.4,0.15-11.99-2.07-18.68-2.42c-1.52,0-3.77,0.38-4.14-1.11
		c0.81-1.52,2.32-1.42,3.74-1.41c6.77,0.05,13.53,0.74,20.2,1.62c16.51,2.17,23.19-2.54,23.53,3.74c0.17,3.03-1.01,5.25-3.84,6.67
		c-1.01-2.12-3.94-2.32-4.14-5.05c-10.32-0.94-12.22-0.71-15.25-1.92C869.37,125.89,868.87,125.98,868.36,125.99z"/> <path d="M675.05,66.3l0.1-0.1C674.99,66.24,675.05,66.18,675.05,66.3z"/> <path d="M653.03,119.02c0.05-0.46,0.09-0.37-0.1-0.1L653.03,119.02z"/> <path d="M675.76,63.47c-0.19-0.09-0.1-0.09-0.1,0.1L675.76,63.47z"/> <path d="M726.36,81.85l-0.1,0.1C726.29,81.95,726.34,81.87,726.36,81.85z"/> <path d="M202.88,320.71l0.1-0.1C202.73,320.61,202.8,320.52,202.88,320.71z"/> <path d="M254.99,315.56l-0.1-0.1C254.93,315.67,254.87,315.65,254.99,315.56z"/> <path d="M371.75,545.94c-5.91,0.34-9.15-0.97-10.91,0.2c-5.96-0.99-26.84-6.51-33.94-2.73c-4.21,2.24-10.22,0.82-13.63,0.91
		c-3.89,0.1-5.85-1.58-10.1-3.43c2.71-13.55-1.19-4.69,1.92-16.77c3.66-14.21-1.24-8.26,5.66-13.43c3.16,0.57,0,1.76,3.84,4.75
		c5.9,4.6,16.14,0.14,21.41-4.95c-0.4-2.39,0.2-2.81,0.4-4.44c0.77-6.19,5.17-4,4.85-6.26c-1.82-0.4-1.82-0.4-5.76,1.31
		c-0.51-1.21-0.3-2.52-0.51-3.74c-3.52-21.09,0.28-39.19,0.81-51.11c1.99-45.03-2.16-43.67,2.42-58.18c0.7-2.22,0.71-4.65,1.01-6.97
		c-10.74-18.8-17.79-27.66-19.69-31.41c-9.51-18.68-16.71-22.35-27.88-38.28c-7.63-10.88-19.49-19.94-20.5-26.36
		c8.59-14.31,6.45-11.19,7.68-12.73c0.7-0.88,7.15-26.97,16.56-37.98c18.17-21.23,11.01-36.77,14.75-39.39
		c2.36-1.66,3.86-4.2,6.36-5.66c2.17-1.26,5.51-10.47,1.21-19.59c-1.88-3.99-1.52-2.08,2.32-2.42c3.13,0,2.92-1.17,4.75,0.2
		c2.85,1.9,3.13-0.9,8.18-1.92c3.27-0.66,2.41-3.27,2.93-3.53c1.44-0.74,2.31-2.05,4.65-5.55c0-4.94-0.1-1.99,0.61-5.86
		c-1.99,0-1.36,0.32-1.92-1.62c-0.4,0.1-0.91,0-1.21,0.2c-7.13,6.58-4.75,5.72-10.81,5.05c0-0.81,0-1.52,0-2.42
		c-2.02,1.72-2.02,2.22-0.4,5.55c-6.9,6.09-11.33,1.03-16.56,1.31c-10.93,0.59-11.46,2.32-13.94,2.32
		c-26.83,1.92-31.72,8.11-55.35,5.96c-14.72-1.34-17.63-0.56-20.81-3.43c-0.91-3.53,0.2-7.17-1.01-10.81
		c1.72-4.04,4.1-7.82,7.17-11.21c2.78-3.07,4-1.21,12.93-1.21c13.41,0,13.9,4.65,26.16,4.34c13.32-0.34,59.06,2.72,59.19,2.73
		c0.61,1.92,1.41,3.53,3.64,3.84c0.28,0,1.23,1.41,1.82,1.41c2.73,0,5.81-2.77,5.96-6.77c0.36-3.98-1.04-5.13,2.22,1.82
		c0.7,0.1,0.91-0.39,1.2-0.89c1.08,0.1,0.66,1.8,1.93,1.8c0-0.71,0.2-1.41,0-1.92c-0.94-2.41-2.01-4.76-3.84-6.77
		c-3.91-4.3-0.36-5.58-5.55-8.18c-2.41-1.03-12.11,8.24-16.66,7.68c-28.86-3.58-19.24-1.66-25.05-2.63
		c-7.71-11.3-5.69-17.01-1.31-34.54c0-0.1,0.3-0.3,0.51-0.4c2.17,0,1.28,1.82,11.82,1.82c0.5,0,1.21,0,1.72-0.2
		c4.05-1.35,3.53-1.75,3.53-7.47c1.51-1.41,2.12-3.13,0.81-5.35c0.81-0.5,1.41-1.01,1.72-1.21c0.61-1.92-0.91-3.33,0.61-4.65
		c3.37-1.12,6-1.22,4.04-3.83c0.06,0.02,0.11,0.03,0.17,0.06c-0.15-1.65-1.14-2.92-1.8-4.4c-3.1-7.02-2.85-6.87-1.51-10.81
		c1.6-4.72-2.1-19.87-5.76-23.53c-0.88-0.88-4.97-4.61-5.66-4.95c-14.42-5.85-10.58-4.77-16.16-4.34
		c-18.3,1.4-17.78,2.53-27.47,9.19c-3.19,2.19-2.53,5.54-5.35,3.94c-16.01-9.07-19.9,4.98-19.9,23.23c0,16.43-4.64,14.57,4.56,37.07
		c1.22,2.97,0.29,3.7,0.61,7.78c2.45-3.15,1.14-6.14,2.64-8.85c0.25,4.57-1.57,8.7-2.74,13.29c1.62-0.71,2.34-1.71,2.83-3.13
		c7.33-21.24-2.01-27.29,4.75-50.4c1.75-5.99-1.36-0.9,2.99-10.31c-0.45-0.03-0.9-0.17-1.17,0.01c-3.41,2.27-8.42,27.11-9.09,31.71
		c-0.91,6.28,0.03,5.97,0.4,15.76c-2.02-3.22-2.36-11.87-2.02-15.76c0.12-1.41,1.13-2.95-0.61-4.14c-0.84-0.57,3.21-26.04-0.4-9.19
		c-0.81-0.1-0.61-0.81-0.61-1.21c0-0.81-0.01-1.62,0.2-2.42c3.28-12.74,0.89-27.97,15.16-21.94c-0.66,0.01-0.98,0.28-0.72,1.13
		c-0.71,0.71-2.12,0.3-2.73,1.41c2.02,0.4,4.04,0.71,6.16,1.11c4.48-8.54,17.38-8.56,20.99-11.42c-3.78-0.25-13.45,4.48-14.62,3.65
		c3.84-2.93,7.88-5.34,12.62-6.26c13.64-2.64,18.96-3.42,25.53-0.34c-0.63,0.31-0.61,0.17,0.05,0.52c0.12-0.55-0.04-0.5,0.26-0.37
		l-0.1-0.1c0.58,0.19,1.15,0.12,1.46,0.72c-1.85,0.05-1.11-0.03-0.25,1.3c1.72,2.68-5.58-3.35-11.92-1.72
		c7.37,0.91,14.24,4.75,17.98,10c1.51-0.4,2.42,0.91,3.74,1.51c1.11,2.93,1.87,5.95,2.22,9.19c0.82,7.57,1.56,6.17,0.4,8.18
		c-2.45,4.24,1.17,10.41,3.94,14.44c0.16,0.23,0.56,0.29,0.92,0.41c-0.85,2.74-4.08,2.34-8.38,2.93c1.96,1.31,2.73,1.67,2.73,3.13
		c0.32,3.22-1.37,2.51-4.75,2.93c-1.85,0.37-1.22,1.72,0,1.72c0.61,0,1.11-0.29,1.72-0.4c1.42-0.27,2.32,0.7,1.72,2.12
		c-0.51,1.21-1.5,2.23-1.82,3.43c-0.29,1.11,0,2.32-0.1,3.53c-0.1,0.61-0.4,1.11-0.61,1.82c-10.83,1.35-16.09-3.94-17.47,1.21
		c-0.6,2.22-5.26,16.32-3.53,22.93c2.89,11.08,1.69,4.48,4.14,10.2c-1.3,1.73-2.81-0.02-10.1-7.68c0.07,0.07,3.18,0.66,3.94,0.81
		c-1.37-1.67-3.14-3.08-4.6-1.46c-0.1-0.1-6.35-5.3-7.12-5.91c-14.81-11.72-15.36-7.72-12.73-11.01c3.95-5.79,3.66-11.93,2.73-21.31
		c-0.3-3.07-2.8-6.84-3.84-7.88c-4.63-4.63-4.48-12.22-5.15-18.48c-0.65-6.02-1-3.82,0-8.58c1.44-0.21,0.93,1.22,1.82,4.34
		c1.93,6.78,7.82,9.95,8.33,9.83c-0.38-0.49-0.76-1.07-1.16-1.55c-0.79-0.93-1.62-1.72-2.63-2.93c2.24-0.16,3.62,2.1,5.86,1.41
		c-2.8-2.2-5.7-3.91-7.72-6.69c1.21-0.43,4.99,3.11,4.99,1.94c-0.55-0.82,1.05,0.3-9.7-7.57c-2.74,0-1.07,6.4-3.74,12.32
		c-1.51,3.36-3.24,8.61-3.64,9.29c-1.31,2.02-1.6,4.24-1.51,6.46c0.13,3.43-0.2,6.97,0.71,10.3c0.13,0.39,0.14,13.96-0.71,18.38
		c-2.48,12.95-1.13,6.41-8.38,15.05c-0.51,0.6-1,1.42-1.11,2.22c-0.37,2.73-1.92,4.85-2.63,7.27
		c-1.7,1.08-223.55-12.87-229.07-12.32c0.44,0.55,542.13,33.07,129.68,10c-107.25-6-182.01-8.18-84.74-3.33
		c49.61,2.47,112.15,6.22,114.63,6.36c78.97,4.54,64.29,1.16,61.81,7.98c-0.4,1.41-1.41,2.63-2.12,3.94
		c-4.36,0.87-327.58-22.26-179.27-9.9c0.1,0.05,61.07,3.87,62.62,4.65c52.45,0,104.4,7.66-50.5-2.73
		c-179.64-12.04,164.22,12.4,164.32,12.42c2.38,8.33,0.14,9.84,1.62,13.53c10.09,3.67,5.62,0.83,16.36,2.73
		c3.67,7.8,10.63,16.86,10.91,44.44c0.09,9.13,0.67,10.4-0.3,12.32c-8.5,16.81-8.53,17.09-17.27,23.53
		c-3.48,0.89-3.36,2.06-14.34,10.3c-9.13,6.84-4.85,4.9-8.79,7.68c-12.29,8.67-19.97,28.26-11.41,45.05
		c2.65,5.2,1.12,4.44,0.51,7.37c-2.57,12.21-8.61,19.87-13.63,28.38c-6.68,11.32-8.17,17.76-17.78,46.56
		c-1.58,4.75-6.97,7.31-6.97,11.31c-1.72,3.53-3.46,7.05-6.36,9.8c-10.51,9.95-22.51,18.82-27.57,37.57
		c-12.87,47.72-20.78,54.83-26.46,69.99c-0.91-0.91-1.82-1.62-2.52-2.32c-1.75-1.53-6.16-0.01-6.97,3.74
		c-1.06,4.91-2.57,6.14-3.53,10.81c-4.89,23.53,2.24,12-3.33,24.54c1.75,1.05,10,2.99,14.44,2.83c5.84-0.22,6.14,3.57,15.76-0.71
		c2.31-1.03,4.34-1.31,6.77,0.2c0.84,2.67,4.71,3.63,7.47,3.84c28.39,2.09,22.03,1.3,38.08-3.64c3.86-1.19,6.8-1.99,10-4.54
		c2.97-2.37,3.35-3.74,2.32-7.47c-1.2-4.38-2.44-4.92-4.44-7.78c-24.17-1.46-14.39,1.46-42.72-26.87c-1.19,0.75-0.66,1.12,3.53,5.96
		c-2.59,3.7-6.02,4.72-7.68,5.76c-1.96,1.47-1.15,2.93-0.3,2.93c4.15-0.59,8.56-5.36,9.7-6.36c1.41,1.11,2.53,2.52,3.53,4.04
		c-1.75,2.07-4.25,2.13-6.06,3.64c-0.78,0.78,0.4,2.12,1.01,1.92c3.54-0.82,5.74-2.85,7.07-3.74c3.86,3.86,3.28,2.13,0.3,5.86
		c-0.87,0.87-1.47,1.76-0.61,2.63c0.65,1.3,4.26-2.98,4.75-3.53c2.32,0.4,1.62,2.63,2.73,4.04c-1.27,0.9-3.63,2.18-2.63,3.43
		c1.24,1.74,3.9-0.54,5.55-1.92c9.9,4.08,6.46,2.92,21.51,4.54c10.35,15.18-7.15,13.2-17.37,18.48c-5.26,2.72-26.72,1.09-29.79-0.5
		c-2.81-1.46-5.85-2.54-8.79-3.74c-1.01-0.41-1.92-0.3-2.83,0.1c-6.94,3.09-20.12,1.88-27.98-0.4c0-1.82,0-3.53,0-5.15
		c0-0.5,0.8-1.92,0.61-2.63c-0.84-3.05-0.19-6.16,0.1-9.19c1.14-11.92,1.96-5.53,4.65-16.26c0.51-1.62,0.4-1.62,2.42-3.33
		c2.02,0,3.53,1.11,4.54,2.83c0.71,1.43,0.19,4.17,3.84,4.65c7.58,0.99,17.64-8.56,27.07-14.85c-0.3-0.51-0.5-1.01-0.91-1.72
		c8.76-16.48,11.85-23.8,19.8-33.94c10.36-13.22,20.77-24.34,25.75-40c0.68-2.12-0.22-0.95,12.93-16.87
		c0.96-0.96,1.98-1.7,6.06-4.95c7.47-5.95,4.9-9.3,10.2-14.34c43.75-41.58,43.06-68.34,46.86-63.33
		c29.27,38.54,48.8,41.44,58.88,57.57c-1.68,13.07-5.18,13.03-4.95,23.23c0.74,33.45,11.41,32.74,11.41,87.87
		c-2.64,1.32-6.18,2.04-6.36,5.55c-0.34,6.78-4.2,12.76-2.63,17.37c0.83,2.42,0.1,4.95-0.4,7.37c-0.1,0.81-0.81,1.41-1.21,2.12
		c-0.3,0.61-0.61,1.21-0.91,1.72c0.2,0.2,0.2,0.4,0.3,0.4c7.18,2.72,8.92,3.84,10.3,3.84c9.22,0.64,11.11,1.16,17.27-0.61
		c8.68-2.49,6.32-1.75,35.35,3.23c2.82,0.48,14.06-0.69,21.21-3.94c2.16-0.98,6.95-4.15,5.15-5.66
		C387.09,540.25,383.53,545.26,371.75,545.94z M339.03,145.98c0.38,0,0.3,0.32,0.3,0.68C338.98,146.24,339.03,146.42,339.03,145.98z
		 M237.93,83.77c0.87,13.9,1.15,9.5,0.61,20.2c-0.44,1.33-0.18,1.72-1.51-13.53C236.87,88.8,236.82,85.12,237.93,83.77z
		 M231.36,85.28c-0.68-1.14-0.3-1.87-0.3-3.43C231.46,81.85,231.36,81.98,231.36,85.28z M248.27,47.71c0.33,0,0.69,0,1.17,0
		C248.93,48.23,248.99,48.24,248.27,47.71z M296.96,39.83c0.09,0,0.15,0.01,0.15,0.1C297.06,39.89,297.01,39.87,296.96,39.83z
		 M300.24,40.54c-0.51,0-0.71-0.2-0.71-0.71c-0.5,0-0.81-0.1-0.71-0.71c-0.97,0-1.66-0.38-1.98-1.39c0.94,0.03,1.69,0.43,1.98,1.39
		c0.51-0.1,0.81,0.1,0.71,0.71C300.14,39.73,300.34,40.04,300.24,40.54c0.46-0.09,0.67,0.17,0.7,0.61
		C300.7,40.96,300.51,40.71,300.24,40.54z M301.14,41.34c0.04,0.01,0.07,0.01,0.11,0.01C301.37,41.47,301.47,41.67,301.14,41.34z
		 M247.42,69.23c0.41,7.46,4.49,11.63,7.37,15.96c2.76,4.14,2.22,5.53,2.22,17.27c0,5.86-0.2,6.16-4.75,10
		c-1.69,1.69-10.85,8.14-12.48,6.01C249.12,107.61,239.38,82.1,247.42,69.23z M272.06,137.8c-4.14-0.2-36.55-1.85-40.6-2.52
		c0-1.67,0.03-0.81,1.72-5.15c2.66-6.86,9.32-10.02,16.26-12.62c8.06,3.32,16.62,6.18,22.72,17.88
		C272.47,136.09,273.17,136.89,272.06,137.8z M274.99,137.8c-4.29-11.64-12.51-17-24.04-21.61c1.21-0.91,2.22-1.72,3.43-2.73
		c10.4,6.97,20.2,14.04,28.18,23.53C280.04,138.51,277.42,138.11,274.99,137.8z M330.44,134.77c1.66,0.95,2.24-4.7,5.4,7.46
		c-2.3-1.82-4.05-3.23-6.72-2.62c-1.11,0.26-5.08,0.39-6.46-0.3C327.86,135.04,328.84,133.86,330.44,134.77z M329.23,140.83
		c6.31-0.57,6.18,7.58,0.91,10c-1.21-2.02-4.04-2.32-4.54-4.95c-31.12-2.83-30.43-4.93-37.57-4.44c-0.61,0.1-1.41-0.2-1.51-1.11
		C290.98,135.85,307.68,142.78,329.23,140.83z M286.91,143.56c-2.09,0-2.34,0.2-2.42-0.4C285.29,142.55,286,142.65,286.91,143.56z
		 M281.36,142.85c-1.82,0.3-3.64,0.2-5.55-0.1C277.62,142.45,279.44,142.35,281.36,142.85z M273.07,142.75
		c-12.94,0.68-15.1,0.2-19.29-1.82C260.65,141.84,266.91,141.24,273.07,142.75z M165.21,146.19c0.6,0.01,1.12,0.21,1.7,0.4
		C152.49,146.59,154.2,145.99,165.21,146.19z M167.44,146.7c8.76,0.3,9.29-0.08,10.18,0.79
		C168.98,147.19,168.35,147.58,167.44,146.7z M186.62,148.21c-14.98-0.33-7.31-1.11,0.91-0.4
		C187.02,148,186.82,148.21,186.62,148.21z M190.36,148.21c2.52-0.1,5.15-0.1,7.68,0.3C195.51,148.51,192.88,148.81,190.36,148.21z
		 M208.54,149.22c-8.41,0-7.57,0.13-7.57-0.3C210.16,148.91,208.54,148.78,208.54,149.22z M211.67,149.62
		c4.47,0,4.92-0.18,5.86,0.51C215.4,150.02,213.59,150.23,211.67,149.62z M331.05,163.56c0.71-0.81,1.12-1.59,2.12-1.82
		C334.75,161.39,335.08,164.57,331.05,163.56z M336.38,153.85c-0.05,0.35-0.25,0.52-0.69,0.52
		C335.95,154.2,336.14,154.02,336.38,153.85z M336.3,156.69c0.81-0.7,1.52-1.31,2.42-2.22c0.2,0.4,0.4,0.71,0.4,0.81
		c-0.71,2.02-2.22,3.33-3.64,4.65c-0.66,0.55-2.63-0.24-1.51-2.02C335.19,158.31,335.6,157.3,336.3,156.69z M334.16,155.88
		c-0.1,1.01-1.19,0.79-5.43,0.51C328.72,155.81,328.17,156.22,334.16,155.88z M329.13,158.51c0-0.7-0.22-0.3,1.72-0.3
		C330.84,158.61,331.15,158.51,329.13,158.51z M329.03,160.63c0.61-0.2,1.31-0.2,2.02-0.3c0,0.1,0.1,0.3,0.1,0.51
		C327.7,163.59,328.19,160.91,329.03,160.63z M314.58,161.34c4.97,3,10.4-1.22,11.82-0.51c-0.1,0.91-0.1,1.82-0.2,2.73
		c0.81,0.71,1.41,1.21,2.32,1.92c-1.21,0.4-2.02,1.31-3.13,0.91c0-0.51,0-1.01,0-1.62c-9.22,0.92-5.76,0.57-9.9-0.81
		c-0.3-0.1-0.71,0-1.01-0.1c-1.21-0.61-2.32-1.31-2.83-2.73C312.87,160.73,313.77,160.84,314.58,161.34z M270.25,166.99
		c0.51-0.1,1.11-0.1,2.22-0.4c-12.67,12.12-23.61,9.63-26.66,10.4c-1.71,0.43-3.23,0.3-4.85-0.4
		C233.69,161.45,234.06,173.94,270.25,166.99z M245.5,192.24c-0.43-8.07-3.96-12.95-3.33-13.74c7.6,0,10.52,0.6,17.27-1.72
		c14.09-4.85,11.94-12.32,24.54-12.32c12.49-1.64,14.56-1.66,17.17-2.73c2.22-0.91,4.54-1.31,7.07-1.41
		c6.4,6.98,10.87,10.92,9.39,22.72c-0.39,3.15-1.53,3.71-9.59,10.91c-0.4,2.02-0.91,4.54-1.51,7.37c-4.04-0.71-7.88,0.11-11.72,0.81
		c-19.82,3.59-22.55,2.16-42.92,6.46c-1.41,0.3-3.03,0.61-4.44-0.4C247.22,202.75,245.78,197.6,245.5,192.24z M241.76,235.87
		c8.09-15.1,5.31-17.71,6.36-25.05c7.71-0.48,7.04-0.99,18.08-2.73c5.05-0.79,15.54-1.87,20.81-2.73c7.65-1.24,15.6-3.61,19.49-3.03
		c0.81,1.31,1.29,2.62,0.91,4.14c-4.78,19.15-13.01,23.99-17.67,32.62c-7.39,13.68-9,28.3-17.57,40.3c-3.94-0.3-7.37-1.31-10.3-3.94
		c-0.48-1.44,0.13-2.95-1.31-3.84c-0.69-0.43-1.24-3.85-1.41-4.65c-1.22,1.22-0.01,4.52,0.81,6.06c0.1,0.3,0,0.81,0,1.41
		c-10-4.02-31.51-17.58-33.94-21.92C232.69,246.97,236.73,245.26,241.76,235.87z M243.58,335.26c-0.91,2.02-1.62,4.14-2.93,6.06
		c-3.94-2.12-7.87-3.95-11.41-6.26c-13.77-8.98-20.98-9.73-32.82-14.24c-0.1,0-0.3,0.3-0.51,0.4c4.23,4.54,13.76,3.74,28.28,12.83
		c2.75,1.72,0.25,0.17,15.86,9.09c-22.49,44.99-41.63,52.07-48.68,68.17c-1.39,3.18-9.85,8.17-10.4,9.39
		c-1.01,2.26-10.92,12.79-12.32,15.96c-16.5,37.37-25.66,32.8-47.37,76.25c-2.82,5.64-22.44,19.58-24.74,11.51
		c5.79-14.47,14.32-28.45,18.48-42.22c5.67-18.74,9.64-41.11,22.83-53.83c19.59-18.9,23.3-21.85,36.36-61.51
		c3.75-11.39,11-23.95,11.92-24.54c3.58-2.29,9.7-24.46,9.9-26.36c1.69,2.87,3.77,4.47,6.8,4.63c-0.86-1.58-2.88-0.46-5.18-4.02
		c2.12,0.2,3.94,1.31,6.16,1.01c-1-2-4.71-2.24-7.78-3.13c-0.71-1.82-1.59-3.65-2.22-5.55c-2.99-8.99-2.94-19.19,1.62-28.08
		c6.94-13.54,15.49-13.99,21.82-22.52c1.33-1.8,3.48-2.95,6.36-5.25c4.52,4.52,15.38,12.85,36.16,23.73
		c0.61,2.93-1.11,5.66-0.1,8.79c3.25-8.53-2.57-9.19,10.81-3.84c-6.3,8.9-6.71,9.14-6.16,10.91c0.33,0.83-1.62,3.74-4.04,12.83
		c0,3.17,10.09-8.44,10.71-12.52c-1.64-0.47-5.98,9.25-7.78,8.48c2.27-7.03,2.79-11.24,6.46-13.94c2.93,3.84,5.66,7.47,8.48,11.21
		c-1.17,1.17-8.19,6.77-10.85,7.86c-1.03,1.75-17,15.25-12.18,10.42c-0.36-1.79,0.76-2.01-3.94,1.62c-0.71-0.4,0.3-1.72-1.31-1.92
		C247.87,319.63,249.65,321.78,243.58,335.26z M253.58,318.69c-0.01,0.64-0.11,1.22-1.21,1.31
		C252.83,319.45,253.21,319.07,253.58,318.69z M302.36,421.81c-0.28-9.96,5.1-15.54,3.94-25.75c-4.07-7.36-13.45-14.84-20.3-19.8
		c-28.66-20.73-35.38-35.14-36.26-35.75c-1.91-1.33-2.73-3.33-3.74-5.05c6.52-17.18,1.94-8.1,11.61-17.17
		c4-3.75,17.75-15.55,22.22-18.18c4.1,3.51,8.06,9.05,11.11,13.53c9.69,14.26,10.92,9.75,33.73,46.26
		c13.75,22,14.72,21.14,11.92,28.28c-2.11,5.37-3.78,6.88-2.22,8.89c0.59,0.76-0.3,3.07-0.3,4.54c0,0.12,1.35,31.51-0.71,54.14
		c-2.23,24.6-1.66,22.54-0.91,31.92c0.99,12.42,0.69,14,1.62,15.86c0.92,2.2,0.17,4.07-0.51,6.56c-3.46,2.3-13.11,6.58-16.36,4.14
		c-6-7.76-3.26-3.48-3.33-10.2C313.32,453.81,303.17,450.63,302.36,421.81z"/> <path d="M267.32,306.47l-0.1,0.1C267.27,306.54,267.28,306.58,267.32,306.47z"/> <path d="M260.65,69.23l0.1-0.1C260.54,69.12,260.63,69.18,260.65,69.23z"/> <path d="M313.98,81.04c-0.19-0.09-0.1,0-0.1,0.1L313.98,81.04z"/> <path d="M246.01,54.78l-0.1-0.1C245.88,54.77,245.81,54.78,246.01,54.78z"/> <path d="M295.29,37.71c0.24,0,0.16-0.01,0.1-0.1L295.29,37.71z"/> <path d="M271.66,39.83l-0.1-0.1C271.37,39.87,271.41,39.8,271.66,39.83z"/> <path d="M686.16,39.94c-0.24,0.16-0.3,0.1,0.1,0.1L686.16,39.94z"/> <path d="M726.76,81.75c-0.14-0.14-0.06-0.03-0.1,0.1L726.76,81.75z"/> <path d="M707.57,37.71l-0.1,0.1C707.72,37.82,707.67,37.81,707.57,37.71z"/> <path d="M659.29,55.09l-0.1-0.1C659.19,55.11,659.17,55.09,659.29,55.09z"/> <path d="M647.98,68.11l-0.1-0.1C647.83,68.47,647.85,68.24,647.98,68.11z"/> <path d="M648.39,113.97c0.51-0.3,1.01-0.61,1.41-0.81c0.6-16.08,1.89,4.65,0.1-23.53c-0.13-2.02,0.1-4.04,0.91-6.67
		c0.08,0.71,2.15,20.66,0.2,22.12c0.49,4.61-0.46,5.38-2.22,13.74c1.31-0.61,2.11-1.42,2.52-2.52c7.5-19.74-2.14-28.92,4.75-50.4
		c1.84-5.75-0.64-1.03,1.92-7.68c0.49-0.98,1.26-1.88,1.21-3.13c-0.95-0.05-1.51,0.54-1.82,1.31c-1.26,3.15-2.91,6.27-3.74,9.59
		c-7.15,28.84-4.54,22.58-4.54,37.17c-1.11-2.23-2.5-10.54-1.41-17.57c0.39-2.54-1.44-0.71-1.01-3.74
		c0.97-11.19,1.96-20.41-0.51-6.87c-1.04-2.81-0.8-3.33,2.42-19.69c0.86-4.38,1.79-7.89,6.87-8.08c2.3-0.26,5.73,0.84,7.17,1.41
		c-2.18,0-2.04-0.31-2.42,1.21c-2.88,0.72-2.28,0.36-3.23,1.31c3.42,0.28,1.54-0.39,6.67,1.01c4.19-8.59,16.65-8.75,22.33-12.11
		c-7.17,0.19-20.16,7.25-14.86,3.12c4.78-3.73,8.61-4.89,13.53-5.76c6.09-1.07,18.01-3.89,22.83-0.04c0-0.36-0.01-0.3,0.09-0.26
		l-0.07-0.07c1.4,0.83,2.03,0.72,0.16,0.77c7.44,6.78-3.3-2.14-8.78-0.09c6.56,1.92,12.42,4.24,16.36,9.8
		c1.92-0.71,2.42,1.51,3.84,1.62c2.5,7.08,1.81,8.57,3.23,16.06c-3.33,4.66-0.18,9.78,2.93,15.15c0.28,0.58,0.93,0.88,1.43,1.34
		c0.35-2.82-5.95-9.89-3.76-14.27c2.03-4.66-0.21-14.74-2.42-19.29c-0.35-0.59-0.22-3.62-2.93-5.96c-7.57-6.52-4.05-4.29-16.97-9.29
		c-21.02,1.91-20.44,1.34-31.71,9.19c-3.63,2.52-3.09,6.12-5.86,4.24c-1.75-1.19-5.57-2.53-9.09-2.53
		c-11.97,0-9.69,21.08-11.82,39.19c-0.95,8.06,1.81,14.53,5.46,22.93C648.72,108.5,648.39,109.72,648.39,113.97z M714.64,42.56
		c-4.54-3.98-4.11-3.46-4.14-3.99C712.72,39.63,712.75,39.68,714.64,42.56z M710.37,38.45c-0.62,0.14-1.13,0.03-1.26-0.64
		C709.65,37.82,710.17,37.87,710.37,38.45z M644.24,85.79c0-1.31,0-2.73,0-4.04C644.75,83.16,644.65,84.48,644.24,85.79z"/> <path d="M389.22,528.27c-5.37-4.37-10.26-0.23-22.93-6.56c-1.51-0.75-9.95-8.84-11.31-10.2c-1.21-0.71-2.63-1.3-3.84-2.22
		c-5.64-4.31-10.3-9.61-10.3-7.17c0.67,1.34-0.75-0.04,5.45,6.16c-1.01,2.89-4.98,5.48-5.96,6.46c-1.27,1.02,0.21,6.36,7.78-4.65
		c1.52,0.61,2.63,1.72,3.84,2.73c-0.2,2.6-4.65,4.62-3.33,6.26c0.99,1.23,2.8-0.33,3.53-1.21c4.01-3.61,1-4.32,6.36-0.3
		c-0.71,1.21-1.31,2.32-2.12,3.53c0.3,0.4,0.4,0.81,0.81,1.11c1.14,0.76,2.23-0.91,2.63-1.21c1.11-1.11,0.73-1.03,4.54,1.52
		c-0.51,1.01-1.01,1.82-1.31,2.52c1.13,2.48,2.87,0.49,4.54-0.81c8.83,3.53-1.13,2.26,19.69,4.34c1.21,3.23,0.91,6.67,2.32,9.7
		c1.31-0.2,1.82-0.51,1.62-1.31C390.74,534.02,390.64,530.99,389.22,528.27z"/> <path d="M799.08,526.95c-10.4-1.61-11.39-0.54-20.7-5.55c-0.3-0.2-0.61-0.4-0.81-0.71c-1.51-2.63-4.23-4.16-6.46-6.06
		c-2.9-2.46-1.9-3.03-4.24-3.43c-1.81-0.32-10.75-9.33-12.93-9.8c0-0.12-0.01-0.17-0.02-0.19l0.02-0.02c-0.4,0.03-0.3,0.03-0.5,0.4
		l0.47-0.37c-0.07,0.17-0.13,1.67,0.85,2.6c1.35,1.29,2.84,2.73,4.95,4.85c-2.68,4.33-4.32,4.27-6.36,6.77
		c-0.41,0.5,0.2,1.62,0.91,1.62c0.71-0.1,1.51-0.21,1.92-0.61c3.32-3.17,4.81-5.59,5.35-6.36c4.32,3.32,4.72,2.61,2.02,5.96
		c-0.81,1.01-2.35,2.13-1.62,3.23c0.72,1.44,2.27,0.14,3.53-0.91c3.24-3.24,1.24-4.16,6.26-0.3c-1.71,3.13-2.17,3.03-1.51,4.34
		c1.02,1.52,2.47-0.71,3.74-1.82c4.19,2.8,4.09,1.66,2.32,4.75c0.82,2.45,2.67,0.61,4.54-0.71c5.06,2.89,6.57,3.17,8.79,3.33
		c0.11,0.01,9.16,0.52,11.11,1.01c1.35,6.05,1.55,9.95,2.93,9.49c0.44,0,1.2-0.74,0.91-1.62
		C803.31,530.74,803.76,527.68,799.08,526.95z"/> <path d="M262.47,73.77l-0.1,0.1C262.64,74.03,262.6,74.07,262.47,73.77z"/> <path d="M277.11,70.94c-1.4-1.4-3.94-0.12-4.24-2.22c-1.01-0.61-2.02-1.31-3.03-2.22c-8.11,7.03-4.61,5.66-5.55,8.48
		c-0.63-0.36-1.17-0.65-1.72-0.99c1.98,4.46,0.31,6.21,2.42,2.5c4.29,3.37,2.32,7.88,4.75,7.88c1.7-0.21,2.78-2.41,2.12-3.33
		c-1.31-0.3-1.31,1.31-2.32,1.41c-0.3-1.21-0.4-2.32-0.81-3.43c-1.23-3.38-3.03-4.23,1.72-0.3c2.25-1.5,2.69-0.78,1.41-3.33
		c0.51-0.61,0.91-1.31,1.51-2.02c-0.99-1.79-1.89-3.66-3.93-4.59C270.15,66.27,275.62,75.42,277.11,70.94z M266.41,74.18
		c-0.86-0.71-0.86-1.03,0-1.75C266.41,73.02,266.41,73.6,266.41,74.18z M266.91,71.55c0,0.1,0.23,0.28-0.41,0.65
		C266.41,71.8,266.51,71.55,266.91,71.55z M266.51,74.58c0.2,0.37,0.36,0.74,0.52,1.11C266.61,75.43,266.53,75.02,266.51,74.58z
		 M272.16,73.47c-1.74,1.39-1.37,0.31-2.42,3.13c-2.09-2.09-3.2-3.38-0.25-4.73C270.02,73.13,271.59,71.44,272.16,73.47z
		 M270.14,71.25c0.11,0.22,0.23,0.19-0.4,0.51c-0.1,0.1-0.3,0.07-0.3-0.2C269.64,71.45,269.94,71.35,270.14,71.25z"/> <path d="M676.16,75.18l-0.1,0.1C676.2,75.29,676.19,75.27,676.16,75.18z"/> <path d="M682.44,69.61c0.03-0.03,0.06-0.06,0.09-0.09C682.48,69.57,682.42,69.6,682.44,69.61z"/> <path d="M684.04,69.43c0.16,0.16,0.45,0.45,0.61,0.61c0.87,0.87,0.84,1.24,3.53,2.32c1.26,0.63,1.96-0.65,2.32-1.01
		c-1.52-0.51-3.12-0.82-4.34-1.62c-2.76-1.8-2.03-4.53-6.87,0.3c-1.82,1.82-1.92,2.22-2.02,5.15c-1.4,0-1.21-0.36-0.4,3.43
		c0.4-0.81,0.71-1.21,1.11-1.82c1.51,1.21,2.66,2.52,2.93,4.44c0.82,5.81,4.23,2.97,4.44,0.81c0-0.3-0.2-0.61-0.5-1.11
		c-3.13,2.69-1.18,2.8-3.62-3.44c1.04,0.09,1.3,1.21,2.2,1.93c2.89-2.07,2.32-1.22,1.52-3.64c0.51-0.71,1.01-1.31,1.41-1.92
		c-0.4-1.01-0.71-2.02-1.11-2.93c-0.54-0.54-1.77-1.77-1.31-1.31c-1.18,0-1.47,0.01-1.5-0.01c-3.28,3.26-2.74,2.08-2.74,5.44
		c-1.63-1.96,0.15-2.95,2.83-5.63C683.23,68.62,683.23,68.62,684.04,69.43z M683.43,71.45c-0.74,2.21,1.72,0.05,1.72,2.52
		c-0.4,0.3-0.91,0.51-1.31,0.91c-0.51,0.4-0.71,1.01-1.11,1.62C680.47,75.37,679.8,72.66,683.43,71.45z"/> <path d="M696.16,60.34c-0.5,0.1-1.11,0.3-1.62,0.4c-0.3-0.3-0.61-0.61-0.91-0.81c-2.76,1.82-1.24,0.14-3.13,0.4
		c-7.72,2.28-14.28-2.32-16.41-2.13c4.07,2.73,8.68,3.57,13.08,4.45C691.77,64.24,696.06,60.37,696.16,60.34z M691.85,61.02
		c-0.59,0.78-1.2,1.52-2.67,1.13C690.14,61.49,690.92,60.92,691.85,61.02z"/> <path d="M298.73,70.94c0-0.36,0.25,0.87,0.61,1.11c0.91,0.71,1.92,1.21,3.03,1.92c0.61-1.51,1.11-2.83,1.51-4.14
		c0.38-1.52,2.17-1.17,1.92-2.42c-4.14,0.3-4.14,0.3-9.09,3.53C297.62,70.94,298.12,70.94,298.73,70.94z M300.75,70.03
		c-0.93,1.86-0.32,1.7-1.99,0.82C298.98,69.93,299.68,69.84,300.75,70.03z"/> <path d="M711.91,71.95c1.01,1.01,2.12,1.82,3.53,2.12c0.91-2.22,1.11-4.95,4.14-6.16c-3.43-0.3-5.35,0.3-7.88,2.22
		c0.61,0.1,1.11,0.2,1.72,0.3C713.99,71.28,712.89,71.76,711.91,71.95z"/> <polygon points="277.92,60.94 277.92,60.94 277.92,60.94 	"/> <path d="M263.88,58.72c-5.5-2.28-1.64,1.54,12.22,4.24c1.02,0.2,0.99-0.62,1.11-0.51c0.04-0.07,0.19,0.08,0.03-0.07
		c0-0.02-0.5-0.29-0.94-0.74c0.52-0.52,0.48-0.71,1.62-0.71C278.93,58.82,274.42,63.09,263.88,58.72z"/> <path d="M277.89,61.01c0.01-0.03,0.02-0.04,0.03-0.07C277.81,61.06,277.78,61.07,277.89,61.01z"/> <path d="M694.34,95.38c-4.52-2.01-5.01-5.15-6.56-9.19c-1.29,5.89,3.81,11.12,10.1,11.31C696.8,96.43,698.07,97.04,694.34,95.38z"/> <path d="M274.69,85.79c-1.54,5.57,4.01,11.3,10.2,11.11C274.09,91.5,276.84,90.09,274.69,85.79z"/> <path d="M257.42,72.56c-2.01-1.32-3.13-3.53-4.85-5.05c-0.1-0.1-0.2,0-0.3-0.1c0.74,1.85-1.47-0.91,7.47,10.71
		C268.02,88.88,258.31,73.14,257.42,72.56z"/> <path d="M675.2,80.92c-2.83-7.03-11.42-15.29-8.53-10.48C674.51,81.01,674.58,80.85,675.2,80.92z"/> <path d="M675.25,81.04l0.1-0.1C675.2,80.94,675.16,80.86,675.25,81.04z"/> <path d="M741.61,148.11c0.3-0.1,0.2-0.61,0.4-1.31c-3.33,0.71-6.16,1.41-9.09,2.02C733.37,151.3,739.56,149.57,741.61,148.11z"/> <path d="M874.42,137.9c-0.55,0-9.63,0.03-11.11,0.4c2.93,2.57,4.2,0.22,7.47,0.91c2.8,0.59,3.87-0.32,4.54-0.61
		C874.93,138.21,874.72,137.8,874.42,137.9z"/> <path d="M292.87,44.78c0.16-0.06,0.21,0.01,0.1-0.1L292.87,44.78z"/> <path d="M299.33,45.79c-1.97-0.79-4.04-1.67-6.3-1.05c3.58,3.95,2.78,4.15,3.47,2.06c-0.78-0.19-0.71-1.1,0,0
		c1.31,0.1,2.52,1.31,4.24,0.3C300.24,46.6,299.84,46,299.33,45.79z"/> <path d="M713.63,47.61c0.95-1.66-4.93-3.03-7.57-2.93c0,1.92-0.43,0.95,2.12,2.03c0.3-0.1,0.71-0.5,0.91-0.4
		C710.68,47.11,711.63,48.41,713.63,47.61z"/> <path d="M706.76,47.81c-1.06-2.84-0.38-1.42-1.92-1.92C704.84,47.01,705.65,47.21,706.76,47.81z"/> <path d="M693.94,58.12c1.41,0.2,2.42-0.71,3.43-1.41c-0.1-0.61-0.2-1.21-0.3-1.82c-0.2,0-0.51-0.2-0.61-0.1
		c-2.03,1.41-2.96,0.9-8.38-0.3C691.58,57.2,692.88,56.01,693.94,58.12z"/> <path d="M280.04,58.12l0.1,0.1C280.14,58.04,280.2,58.16,280.04,58.12z"/> <path d="M276.41,55.29c4.9,2.26,3.84,1.11,3.75,2.83c1.66,0.05,2.75-1.03,4.23-1.82c-1.04-1.38-0.82-1.05-0.89-1.59
		C279.14,56.64,274.08,52.96,276.41,55.29z"/> <path d="M283.58,54.68l-0.1-0.1C283.48,54.75,283.51,54.71,283.58,54.68z"/> <path d="M719.69,62.66c-2.83-0.81-5.35-0.4-7.88,1.11c1.02,0,7.68,0,8.79,0C720.8,62.86,720.2,62.76,719.69,62.66z"/> <path d="M307.51,63.27c-2.73-1.82-2.73-1.82-8.79,0c4.01,0.8,2.13,0.1,5.45,0.1C306.76,63.37,306.95,63.94,307.51,63.27z"/> <path d="M271.46,42.66c-4.34,0.1-8.48,0.71-12.62,3.13C259.98,46.18,258.38,46.69,271.46,42.66z"/> <path d="M683.94,43.17c-3.69-0.36-10.62,1.45-11.92,3.23c0.4,0.1,0.61,0.2,0.81,0.1c3.23-1.31,6.67-2.22,10.1-2.83
		C683.33,43.67,683.63,43.27,683.94,43.17z"/> <path d="M788.17,136.69c0.1-0.2-0.1-0.71-0.2-1.21c-1.92,1.21-3.64,2.32-5.35,3.43C782.61,140.05,785.92,140.16,788.17,136.69z"/> <path d="M307.92,156.19c4.68,0.88,6.54,1.74,8.18,0.1C315.67,154.99,311.08,155.95,307.92,156.19z"/> <path d="M692.93,50.04c1.41,1.01,3.03,1.31,4.75,1.62c0.95-0.95,1.78-1.15-1.01-1.92C693.18,48.78,694.56,48.4,692.93,50.04z"/> <path d="M282.37,45.19c0.94,0.94-1.63-0.51,8.28,4.14C292.22,50.07,290.17,46.94,282.37,45.19z"/> <path d="M696.16,46c0.27,0.54-0.68,0.14,8.79,4.24C703.13,48.02,699.89,46.5,696.16,46z"/> <path d="M279.23,68.52c0.4-0.3,0.91-0.71,0.71-1.52c-1.21,0.4-2.22,0.81-3.33,1.11c-1.01,0.2-2.12,0.2-3.13,0.4
		C271.59,68.52,275.93,70.56,279.23,68.52z"/> <path d="M692.93,64.18c-1.01-0.5,0.08-0.95-6.36,2.63C689.19,67,691.21,66.09,692.93,64.18z"/> <path d="M229.04,145.08c1.21,1.31,2.63,1.82,4.44,0.4c-1.41-0.61-2.73-1.11-4.44-1.82C229.04,144.37,228.84,144.97,229.04,145.08z"/> <path d="M273.17,66.5c3.64,0,5.45-0.91,6.36-3.23c-1.31,0.2-2.02,1.21-3.03,1.72C275.5,65.39,274.59,65.79,273.17,66.5z"/> <path d="M281.54,48.88c-0.29-0.62-0.83-0.58-1.39-0.57c0,0.16,0,0.34,0,0.51c2.16,0,1.22,0.08,0,0.71c2.52,1.92,2.93,1.92,5.25,0.3
		C280.8,48.77,281.66,48.82,281.54,48.88z"/> <path d="M692.93,67.31c-1.57,0.52-2.88,1.14-5.76,1.72C687.87,70.65,693.81,69.29,692.93,67.31z"/> <path d="M277.27,62.37c1.65,0.14,2.93-0.64,4.3-1.42c0.3,0,0.4-0.5,0.61-0.71c-0.02,0-0.05-0.01-0.08-0.01
		c0.94-0.5,0.99-1.45-0.01-0.01c-0.48-0.09-1.07-0.19-1.83-0.38C277.67,61.12,277.97,60.61,277.27,62.37z"/> <path d="M668.32,77.51c-0.03-0.09-0.05-0.12-0.15-0.17C668.17,77.54,668.16,77.51,668.32,77.51z"/> <path d="M673.23,81.75c-0.1-0.3-0.2-0.91-0.4-0.91c-2.41-0.51-3.44-3.33-4.5-3.33C669.66,81.77,672.18,80.17,673.23,81.75z"/> <path d="M221.97,156.39c0.3,0.91,0.61,2.02,2.42,2.42c-0.91-1.72-1.41-2.83-2.02-3.94C221.46,155.38,221.77,155.88,221.97,156.39z"/> <path d="M263.18,85.28c-0.81-0.91-1.11-2.22-2.32-2.93c0.88,2.63-0.31,0.66,2.52,4.44C263.88,86.29,263.58,85.69,263.18,85.28z"/> <path d="M861.19,138.61c-1.41-1.21-1.41-1.21-3.64-0.2C857.55,139.99,859.5,138.92,861.19,138.61z"/> <path d="M315.39,150.83c-0.3,3.03-0.1,3.33,1.92,3.43C316.5,153.16,316.5,151.94,315.39,150.83z"/> <path d="M875.03,133.36c-1.54,0-0.28,2.45,0.1,2.93c0.1,0.3,0.61,0.3,1.31,0.4C875.83,135.38,875.43,134.37,875.03,133.36z"/> <path d="M675.99,85.81c-0.52-1.64-1.39-3.09-2.66-4.16C673.82,83.31,674.23,85.06,675.99,85.81z"/> <path d="M676.16,85.89c-0.23-0.08-0.19-0.18-0.1,0.1L676.16,85.89z"/> <path d="M781.4,150.83c0.51-1.51,0.51-1.51-0.61-2.42C780.19,149.92,780.19,149.92,781.4,150.83z"/> <path d="M674.24,71.85c0.71,2.32,0.71,2.32,1.82,3.43C676.06,73.97,675.25,73.06,674.24,71.85z"/> <path d="M260.15,61.04c1.21,1.21,1.21,1.21,3.53,1.92C262.27,61.95,261.46,60.94,260.15,61.04z"/> <path d="M245.91,54.68c0.71-0.61,1.31-1.21,2.22-2.12C246.41,52.56,246.41,52.56,245.91,54.68z"/> <path d="M235.2,63.27c-1.04,1.22-0.68,2.63-0.7,4.04C235.25,65.95,234.92,64.52,235.2,63.27z"/> <path d="M256.51,78.82c-0.48-1.55-0.8-2.08-2.07-2.75C254.82,77.32,255.17,78.44,256.51,78.82z"/> <path d="M235.3,146.39c1.05,0.7,1.51,1.13,1.82,0.5c0.2-0.3-0.1-0.91-0.61-0.91C236.21,145.98,236.01,146.19,235.3,146.39z"/> <path d="M258.63,48.62c0-0.27,0.31-0.2-2.02-0.2C256.61,49,256.4,48.62,258.63,48.62z"/> <path d="M647.78,64.48c0,1.11-0.1,2.02-0.2,2.93C648.49,66.6,648.08,65.49,647.78,64.48z"/> <path d="M698.68,52.06c-1.5-0.3-0.74-0.68-2.52,1.11C697.17,53.27,697.98,52.96,698.68,52.06z"/> <path d="M660.81,52.86c-0.93-0.93-1.24,0.71-1.92,1.62C659.8,54.28,660.5,53.77,660.81,52.86z"/> <path d="M260.85,68.82c0.38,0.95,1.04,1.35,1.96,1.39C262.48,69.31,261.72,68.92,260.85,68.82z"/> <path d="M262.87,70.34l0.1-0.1C262.76,70.24,262.8,70.14,262.87,70.34z"/> <path d="M711.81,70.24c-0.61,0.2-1.21,0.51-2.12,0.81C711.11,71.45,711.11,71.45,711.81,70.24z"/> <path d="M290.85,45.69c0.81,0.51,1.31,1.11,2.02,1.11C292.77,45.89,292.06,45.59,290.85,45.69z"/> <path d="M665.45,67.1c-0.4,0.91-0.3,1.52,0.71,1.72C665.96,68.22,665.66,67.61,665.45,67.1z"/> <path d="M668.79,49.13c0,0.26-0.26,0.2,1.62,0.2C670.4,49.06,670.65,49.13,668.79,49.13z"/> <path d="M708.28,46.7c0.1,0.3,0.1,0.71,0.2,0.91c0.2,0.3,0.51,0.4,0.81,0.71C709.29,47.31,709.29,47.31,708.28,46.7z"/> <path d="M666.87,75.29c-0.13-0.27-0.1-0.22-0.1,0.1C666.92,75.44,666.96,75.56,666.87,75.29z"/> <path d="M668.17,77.34c0.03-0.95-0.41-1.58-1.26-1.88C667.11,76.24,667.41,76.94,668.17,77.34z"/> <path d="M253.67,74.46c-0.3-0.6-0.61-1.2-1.1-2.1C252.57,73.62,252.76,74.32,253.67,74.46z"/> <path d="M253.67,74.46c0,0.01,0.01,0.02,0.01,0.02C253.86,74.48,253.77,74.46,253.67,74.46z"/> <path d="M690.4,104.88c0.3-0.61,0.1-1.11-0.4-1.41C689.79,104.07,689.69,104.58,690.4,104.88z"/> <path d="M676.16,85.89c0.1,0.51,0.2,1.01,0.3,1.72C677.07,86.7,676.87,86.29,676.16,85.89z"/> <path d="M654.65,49.53c0.51,0,0.91-0.1,1.72-0.2C655.46,48.82,655.05,49.03,654.65,49.53z"/> <path d="M277.21,104.47c0-0.48,0-1.05,0-1.62C275.93,103.98,277.82,105.08,277.21,104.47z"/> <path d="M256.61,78.82l-0.1,0.1C256.63,78.92,256.61,79.01,256.61,78.82z"/> <path d="M257.92,80.34c0-0.87-0.47-1.27-1.31-1.39C256.57,79.86,257.16,80.23,257.92,80.34z"/> <path d="M273.78,56.6c-0.1,0.1-0.25,0.17,0.46,0.21C274.09,56.74,273.94,56.67,273.78,56.6z"/> <path d="M274.25,56.81c0.51,0.23,0.99,0.46,1.45,0.7C275.4,56.76,274.82,56.84,274.25,56.81z"/> <path d="M689.29,58.01c0.1-0.1,0.2-0.2,0.4-0.3c-0.22,0-0.14-0.28-0.91,0.1C688.89,57.81,689.09,57.91,689.29,58.01z"/> <path d="M282.87,59.43c0.5-0.1,1.11,0,1.31-0.91C283.68,58.92,283.27,59.23,282.87,59.43z"/> <path d="M271.46,39.53c0.51,0,1.11,0,1.92,0C272.47,38.72,271.96,39.03,271.46,39.53z"/> <path d="M793.72,132.75c1.22,0.61,0.84-0.4,0.5-0.4C794.03,132.45,793.92,132.65,793.72,132.75z"/> <path d="M790.09,134.87c0.3-0.2,0.5-0.4,0.81-0.61c-0.1-0.1-0.4-0.4-0.4-0.3C789.66,134.8,789.69,134.48,790.09,134.87z"/> <path d="M693.43,45.09c1.45,0.37,1.29,0.02,1.15,0.16C693.61,44.75,693.43,44.44,693.43,45.09z"/> <path d="M280.5,44.7c0.62,0.16,1.2,0.34,1.77,0.59C281.77,44.63,281.14,44.7,280.5,44.7z"/> <path d="M685.96,39.53c0.5,0,1.01-0.1,1.62-0.1C686.87,38.93,686.46,39.23,685.96,39.53z"/> <path d="M666.16,73.87c0.17,0.43,0.41,0.86,0.61,1.23C666.78,74.6,666.76,74.12,666.16,73.87z"/> <path d="M666.06,73.97c-0.18-0.44-0.34-0.9-0.45-1.42C665.51,73.08,665.46,73.63,666.06,73.97z"/> <path d="M262.17,73.87c0.1-0.58,0.09-1.15-0.61-1.37C261.57,73.05,261.61,73.59,262.17,73.87z"/> <path d="M261.46,72.46c0.13,0.03,0.1,0.09,0.1-0.1L261.46,72.46z"/> <path d="M280.14,48.22l-0.1,0.1C280.17,48.32,280.14,48.34,280.14,48.22z"/> <path d="M242.88,48.82c0.59,0,0.02-0.42-0.1-0.3c-0.18,0-0.28,0.15-0.44,0.26c-0.1-0.1-0.03-0.08-0.13,0.13
		C242.43,48.8,242.28,48.82,242.88,48.82z"/> <path d="M261.36,72.15c-0.1-0.2,0,0.1,0.1,0.3C261.36,72.15,261.36,71.85,261.36,72.15z"/> <path d="M675.96,70.34c-0.2,0-0.4,0-0.51-0.1c0.36,0.71,0.58,0.57,0.91,0.4C676.26,70.54,676.16,70.34,675.96,70.34z"/> <path d="M280.04,49.73l0.1-0.1C280.02,49.63,280.04,49.55,280.04,49.73z"/> <path d="M280.04,48.95c0.05-0.02,0.09-0.02,0.1-0.02l0,0c0-0.12,0.03-0.1-0.1-0.1l0.1,0.1c0,0-0.02,0-0.1,0
		C280.04,48.93,280.04,48.95,280.04,48.95z"/> <path d="M279.23,49.43c0.11,0,0.07,0.1,0.81,0.18C280.04,49.18,280.21,48.45,279.23,49.43z"/> <path d="M242.2,48.91c-0.44,0.25-0.9,0.43-1.34,0.52C241.31,49.34,241.94,49.49,242.2,48.91z"/> <path d="M283.58,52.36c0.4,0,0.81,0,1.41-0.1C284.28,51.55,283.98,51.95,283.58,52.36z"/> <path d="M282.57,52.66c0.61,0.4,1.01,0.4,1.11-0.2C283.38,52.56,282.97,52.56,282.57,52.66z"/> <path d="M695.8,53.36c0.05-0.01,0.18-0.03,0.35-0.09C695.9,53.27,695.73,53.34,695.8,53.36z"/> <path d="M695.85,53.37c-0.03,0-0.04-0.01-0.05-0.01C695.76,53.37,695.76,53.37,695.85,53.37z"/> <path d="M273.17,56.3c0.1,0.2,0.3,0.3,0.51,0.4C273.68,56.58,273.26,56.39,273.17,56.3z"/> <path d="M687.07,57.11l-0.1-0.1C686.59,57.13,686.51,57.11,687.07,57.11z"/> <path d="M279.54,58.82c0.2-0.3,0.4-0.5,0.61-0.61C278.89,58.63,279.19,58.12,279.54,58.82z"/> <path d="M697.07,58.72c-0.32,0.32-0.19,0.82-0.3,0.71c-0.2,0.3-0.5,0.51-0.71,0.81c0.16-0.05,0.88-0.64,0.78-0.74
		C697.53,59.15,697.29,59.18,697.07,58.72z"/> <path d="M693.91,58.2c-0.64-0.15-1.11-0.04-1.48,0.53C693.11,58.91,693.59,58.91,693.91,58.2z"/> <path d="M693.91,58.2c0.04,0.01,0.08,0.01,0.13,0.02C693.92,58.1,693.94,58.09,693.91,58.2z"/> <path d="M676.26,66.2c-0.1,0-0.2-0.1-0.3-0.1c-0.2,0-0.4,0-0.61-0.1C675.62,66.53,675.73,66.46,676.26,66.2z"/> <path d="M264.39,66.3c-0.27,0.13-0.27,0.1,0,0.1V66.3z"/> <path d="M676.06,63.17c0.2,0.1,0.4,0.3,0.2,0.1C676.56,63.27,676.26,63.27,676.06,63.17z"/> <path d="M235.2,62.96c0.03-0.03,0.03-0.03,0.05-0.05C235.28,62.82,235.26,62.79,235.2,62.96z"/> <path d="M235.25,62.91c0,0.01-0.01,0.02-0.01,0.04C235.28,62.89,235.29,62.87,235.25,62.91z"/> <path d="M745.34,145.58c-0.28-0.28-0.23-0.1-0.58,0.12C744.96,145.63,745.13,145.58,745.34,145.58z"/> <path d="M683.84,43.07c0.15,0,0.27-0.02,0.33-0.04C684.28,42.93,684.11,43.07,683.84,43.07z"/> <path d="M684.17,43.03c-0.01,0.01-0.01,0.02-0.03,0.04C684.24,43.02,684.24,43.02,684.17,43.03z"/> <path d="M704.74,46c-0.56-0.28-0.22-0.4-0.81-0.4C704.59,46.25,704.3,45.78,704.74,46z"/> <path d="M696.06,46l0.1-0.1C695.95,45.89,696.03,45.87,696.06,46z"/> <path d="M696.02,45.89c-0.22-0.54-0.79-0.53-1.32-0.59C694.92,45.92,695.48,45.9,696.02,45.89z"/> <path d="M253.78,74.48l-0.1,0.1C253.8,74.66,253.74,74.72,253.78,74.48z"/> <path d="M254.29,76.09c0.02-0.06-0.06-0.15,0.16-0.02c-0.08-0.23-0.04-0.21-0.17-0.08c0.06-0.54-0.12-1.04-0.53-1.33
		C253.69,75.19,253.74,75.73,254.29,76.09z"/> <path d="M260.25,80.94l-0.1,0.1C260.25,81.26,260.25,81.4,260.25,80.94z"/> <path d="M260.75,82.46c-0.17-0.43-0.34-0.85-0.52-1.21C260.21,81.74,260.17,82.2,260.75,82.46z"/> <path d="M673.84,58.01c0.11,0.33,0.1,0.37,0.1,0.2c0.06-0.01,0.09-0.01,0.11-0.01C674,58.2,673.91,58.16,673.84,58.01z"/> <path d="M674.05,58.21C674.09,58.21,674.09,58.21,674.05,58.21L674.05,58.21z"/> <path d="M692.52,58.82c-0.06,0-0.08,0.04-0.09,0.09C692.46,58.88,692.49,58.85,692.52,58.82z"/> <path d="M692.22,59.13c0.1,0,0.1-0.1,0.2-0.1C692.42,58.89,692.5,58.84,692.22,59.13z"/> <path d="M707.47,37.51l0.1-0.1C707.45,37.41,707.47,37.27,707.47,37.51z"/> <path d="M277.92,60.24c0.1,0,0.2,0,0.3-0.1C278.12,60.14,278.02,60.24,277.92,60.24z"/> <path d="M294.99,37.51l0.1-0.1C295,37.37,295.03,37.36,294.99,37.51z"/> <path d="M692.52,48.22c-0.13-0.27-0.1-0.28-0.1,0.1C695.79,49.67,692.42,48.32,692.52,48.22z"/> <path d="M280.04,48.22c0-0.1,0-0.1-0.1-0.2C279.94,48.02,280.04,48.12,280.04,48.22z"/> <path d="M293.27,47.31c0.4-0.61,0-0.5-0.3-0.61C293.07,46.9,293.17,47.11,293.27,47.31z"/> <path d="M279.94,44.48c0.12,0.23,0.02,0.22,0.56,0.22c-0.12-0.03-0.24-0.07-0.37-0.1l0.02-0.02L279.94,44.48z"/> <path d="M240.86,49.53c0-0.12,0.03-0.2-0.1,0.2L240.86,49.53z"/> <path d="M654.45,49.73c0.1-0.1,0.2-0.1,0.3-0.2C654.55,49.53,654.55,49.63,654.45,49.73z"/> <path d="M292.87,44.68c0.1-0.1,0-0.2-0.1-0.3C292.87,44.48,292.87,44.58,292.87,44.68z"/> <path d="M283.78,54.28c-0.32,0.32-0.26,0.23,0.2,0C283.88,54.28,283.78,54.28,283.78,54.28z"/> <path d="M664.89,72.36C664.52,72.37,664.63,72.38,664.89,72.36L664.89,72.36z"/> <path d="M665.66,72.26c-0.25,0.06-0.55,0.09-0.76,0.11c0.14,0,0.36-0.01,0.66-0.01C665.61,72.72,665.61,72.48,665.66,72.26z"/> <path d="M259.94,80.74c0.1,0.1,0.1,0.2,0.2,0.3C260.15,80.84,260.04,80.74,259.94,80.74z"/> <path d="M258.43,80.54c0-0.25-0.19-0.19-0.3-0.21C258.2,80.4,258.29,80.47,258.43,80.54z"/> <path d="M675.96,81.14c-0.2,0-0.4-0.1-0.51-0.2C675.72,81.47,675.46,81.64,675.96,81.14z"/> <path d="M653.24,118.97c0.04-0.02,0.07-0.04,0.09-0.06C653.29,118.92,653.27,118.94,653.24,118.97z"/> <path d="M653.13,119.12c0.06-0.06,0.08-0.11,0.11-0.15C653.06,119.06,652.73,119.12,653.13,119.12z"/> <path d="M744.64,145.88c-0.2,0.1-0.3,0.2-0.51,0.3C744.64,146.49,744.54,146.19,744.64,145.88z"/> <path d="M305.9,67.1c0,0.05-0.02,0.09-0.06,0.13C306.11,67.11,306.22,67.1,305.9,67.1z"/> <path d="M252.27,67.51c0-0.2-0.1-0.3-0.1-0.51C251.56,67.41,252.07,67.31,252.27,67.51z"/> <path d="M675.35,70.24c0.02-0.42-0.32-0.63-0.61-0.81C674.64,70.03,674.95,70.13,675.35,70.24z"/> <path d="M263.18,70.74c0.5-0.61-0.1-0.3-0.2-0.51C263.07,70.44,263.18,70.54,263.18,70.74z"/> <path d="M631.82,304.05c-4.02,20.63-4.63,17.66-4.24,20.4c4.39-10.69,3.52-14.66,6.06-23.53c-0.1-0.3-0.4-1.01-0.61-1.62
		C630.42,301.39,632.6,300.05,631.82,304.05z"/> <path d="M570.31,439.08c-7.22,16.25-7,13.67-9.39,19.09C564.49,456.29,570.16,445.5,570.31,439.08z"/> <path d="M520.62,509.28h-0.1C520.52,509.38,520.53,509.3,520.62,509.28z"/> <path d="M515.87,515.24c-0.54,0.54-1.23,5.02,0.81,7.78c0.1,0.1,0.4,0.1,0.81,0.2c0.68-4.1-2.21-3.27,1.92-11.01
		c0.48-0.91,1.28-1.7,1.11-2.88C517.63,510.55,517.86,514.17,515.87,515.24z"/> <path d="M606.27,401.41c-16.1,10.95-0.08,5.28,1.21,0.1C607.08,401.41,606.47,401.21,606.27,401.41z"/> <path d="M678.99,306.47c0.81,1.01,1.52-0.3,2.12,0c-0.1-0.5,0.2-0.71,0.71-0.71c0.4-1.74,3.65-3.32,4.85-5.55
		C684.34,301.12,681.71,303.34,678.99,306.47z"/> <path d="M570.82,410.9c0.59-0.16,3.88-0.05,5.05-6.36C574.34,405.2,574.45,406.06,570.82,410.9z"/> <path d="M644.14,273.04c-0.14-0.14-0.28-0.18-0.13-0.03C643.97,273.15,643.95,273.07,644.14,273.04z"/> <path d="M640.41,279.91l0.1,0.1C640.51,279.87,640.53,279.78,640.41,279.91z"/> <path d="M643.98,273.09c-0.85,0.27-0.98,1.2-1.45,1.87c-2.53,3.59-2.02,2.37-2.02,4.88c2.27-1.83,3.83,1.14,1.51-1.75
		C642.71,276.42,643.3,274.76,643.98,273.09z"/> <path d="M556.27,465.75c1.92-0.71,1.92-0.71,3.33-4.04C558.76,460.64,558.35,461.9,556.27,465.75z"/> <path d="M570.11,435.04c1.41-1.11,1.11-2.32,0.2-4.14C568.9,433.63,568.9,433.63,570.11,435.04z"/> <path d="M595.56,411.31c-0.61,0.61-1.31,1.31-0.51,2.52c1.31-0.71,2.22-1.72,2.63-3.13C596.57,410,596.07,410.7,595.56,411.31z"/> <path d="M616.37,321.22c-1.92-1.21-3.84-2.52-5.96-3.33C611.72,320.31,613.94,320.91,616.37,321.22z"/> <path d="M545.87,477.66c0.81-0.81,1.52-1.51,2.32-2.42C546.28,475.14,545.67,475.75,545.87,477.66z"/> <path d="M640.31,283.65c0.31,0.13,0.19,0.11,0.1-0.1C640.18,283.5,640.27,283.52,640.31,283.65z"/> <path d="M638.39,284.35c0.47-0.66,1.12-0.95,1.87-0.83c-0.28-0.62-0.69-1.18-0.58-1.96C638.21,282.01,638.39,283.27,638.39,284.35z
		"/> <path d="M640.41,280.15c-0.74,0.22-0.71,0.82-0.7,1.28C639.63,281.82,640.37,281.16,640.41,280.15z"/> <path d="M524.26,504.03c1.31-0.81,1.62-1.62,1.41-3.03C524.46,501.8,524.06,502.51,524.26,504.03z"/> <path d="M520.65,509.05c1.11-0.9,1.7-2.15,2.09-3.41C521.21,506.31,520.86,507.62,520.65,509.05z"/> <path d="M520.52,509.18l0.1,0.1C520.67,508.92,520.67,509.08,520.52,509.18z"/> <path d="M576.07,403.23c0.18,0.18,0.21,0.4,0.91-0.3C576.53,402.48,576.44,402.11,576.07,403.23z"/> <path d="M522.64,505.54c0.77-0.77,0.4-0.7,0.4-0.91C522.94,505.04,522.84,505.34,522.64,505.54z"/> <path d="M641.82,284.25c-0.43-0.17-0.87-0.35-1.31-0.53C640.85,284.23,641.46,284.16,641.82,284.25z"/> <path d="M640.41,280.01c0,0.2-0.06,0.14,0.1,0.1L640.41,280.01z"/> <path d="M644.85,280.01c0.19,0.09,0.1,0.09,0.1-0.1L644.85,280.01z"/> <path d="M646.16,280.72c-0.36-0.18-0.82-0.44-1.19-0.65C645.05,280.87,645.69,280.63,646.16,280.72z"/> <path d="M644.59,279.94c-0.45-0.18-0.9-0.36-1.35-0.64C643.5,279.92,643.99,280,644.59,279.94z"/> <path d="M644.85,279.91c-0.09,0.01-0.18,0.02-0.26,0.03C644.79,280.02,644.72,280.04,644.85,279.91z"/> <path d="M644.65,271.53c-0.57,0.28-0.76,0.75-0.63,1.37C644.74,272.59,644.75,272.01,644.65,271.53z"/> <path d="M550.82,472.31v0.2C551.08,472.26,551.09,472.31,550.82,472.31z"/> <path d="M644.95,271.22c-0.29,0.15-0.28,0.26,0.2,0C645.05,271.22,644.95,271.22,644.95,271.22z"/> <path d="M641.98,284.39c-0.03-0.09-0.06-0.18-0.06-0.24C641.92,284.27,641.95,284.34,641.98,284.39z"/> <path d="M642.02,284.55c0-0.12,0.03-0.06-0.04-0.16C642,284.45,642.02,284.51,642.02,284.55z"/> <path d="M646.26,280.92c0-0.1,0-0.2,0-0.3C646.16,280.82,646.26,280.82,646.26,280.92z"/> <path d="M640.31,277.79c0,0.1,0,0.2,0,0.3C640.41,277.89,640.31,277.79,640.31,277.79z"/> <path d="M734.34,491.1c-0.3,0.1-0.81,0.2-0.81,0.4c-0.51,1.31-1,2.73-0.61,4.14c1.26,4.46-2.57,10.89-1.72,15.15
		c1.17-1.17,0.32,0.31,3.03-11.21c0-0.32,0.53-0.12-0.1-4.54C734.13,493.72,735.04,492.51,734.34,491.1z"/> <path d="M736.56,422.72c0.31-3.38-6.06-17.01-6.06-14.04c0.1,0.2,0.1,0.51,0.2,0.71C732.62,413.83,734.54,418.08,736.56,422.72z"/> <path d="M742.52,398.99c2.35,7.05,1.74,6.36,2.52,6.36c0.61-2.73-0.71-4.75-1.72-6.87C743.02,398.68,742.82,398.89,742.52,398.99z"/> <path d="M743.32,380.3c-1.68,1.44-1.15,0.25-1.51,5.76c-0.1,0.3,0.2,0.61,0.71,1.41C743.73,384.95,743.42,382.93,743.32,380.3z"/> <path d="M737.37,433.83c0.51-2.63,0.71-4.54-0.1-6.56c-0.4,0.4-0.71,0.61-0.81,0.91C736.15,429.79,736.36,431.1,737.37,433.83z"/> <path d="M734.44,485.44c-0.19,0.91-0.2,1.82,0.61,2.93C737.33,486.09,734.83,483.58,734.44,485.44z"/> <path d="M742.21,395.96c0.4-0.61,0.1-1.11-0.4-1.52c-0.1-0.1-0.4,0-0.61-0.1C740.16,395.39,741.74,396.9,742.21,395.96z"/> <path d="M735.65,441.91c1.36,0.55,1.07,0.49,1.72-0.81C736.4,440.78,736.9,440.04,735.65,441.91z"/> <path d="M737.06,435.35c-0.55,0-1.07,1.32,0.1,1.82C738.05,436.57,737.75,435.35,737.06,435.35z"/> <path d="M735.75,446.46c0.2-0.4,0.36-0.81-0.1-0.81C735.06,446.23,735.52,446,735.75,446.46z"/> <path d="M714.03,216.48c-4.65,3.1-0.93,1.68-12.62,8.89c-1.58,0.97-9.4,6.03-9.19,7.88c2.37,0-0.63-1.03,13.23-8.58
		c2.73-1.49,2.72-1.3,8.69-6.56C714.74,217.69,714.84,217.09,714.03,216.48z"/> <path d="M680,217.09c-0.61,1.52,0.4,2.22,0.81,3.03c0.2,0.3,0.61,0.91,1.62,0.4C681.82,219.21,681.31,217.9,680,217.09z"/> <path d="M674.34,228.7c0.61-1.62-0.61-2.63-0.81-3.74C672.42,226.38,673.23,227.39,674.34,228.7z"/> <path d="M685.86,227.09c0-0.52,0.4-2.45-1.82-2.73C684.14,225.47,684.64,226.38,685.86,227.09z"/> <path d="M684.74,249.1c0.83,0,0.52,0.66,2.42-1.51C685.35,247.49,684.95,248.2,684.74,249.1z"/> <path d="M668.18,257.59c-0.33,0.33-0.25,0,0.4,1.31c0,0.1,0.2,0.1,0.3,0.1C669.3,258.19,669.22,258.63,668.18,257.59z"/> <path d="M677.98,236.28c0,1.01-0.67,0.56,0.91,1.82C678.89,236.08,678.8,236.55,677.98,236.28z"/> <path d="M675.86,231.83c0,1.26-0.2,0.86,0.81,1.62C676.66,231.73,676.44,232.42,675.86,231.83z"/> <path d="M670,261.43c-0.6,1.2,0.4,3.29,0.4,0.4C670.4,261.73,670.2,261.53,670,261.43z"/> <path d="M683.94,224.46c-0.3-0.4-0.51-0.91-1.01-1.51C682.62,224.26,683.33,224.26,683.94,224.46z"/> <path d="M691.41,238.1c0.1-0.1,0.3-0.2,0.3-0.3c0.1-0.1,0-0.4,0.1-0.51C691.19,237.6,691.17,237.61,691.41,238.1z"/> <path d="M692.42,235.77l-0.1-0.1C692.39,235.84,692.32,235.88,692.42,235.77z"/> <path d="M691.71,237.19c0.75-0.18,0.8-0.72,0.65-1.35C691.92,236.23,691.81,236.7,691.71,237.19z"/> <path d="M692.72,235.47c-0.02,0.04-0.04,0.07-0.06,0.1C692.99,235.45,693.01,235.47,692.72,235.47z"/> <path d="M692.66,235.57c-0.07,0.02-0.14,0.05-0.24,0.1C692.5,235.75,692.58,235.7,692.66,235.57z"/> <path d="M724.34,185.58c-0.1,0-0.2-0.1-0.2-0.1c-6.07,5.75-13.65,5.08-15.96,5.66C701.61,192.77,721.57,194.32,724.34,185.58z"/> <path d="M675.05,198.71c-0.3,2.12-0.51,4.34,0,6.56C675.35,203.05,675.55,200.93,675.05,198.71z"/> <path d="M700.5,189.82c0.2-0.3-0.4-0.91-0.81-0.81c-0.3,0.1-0.51,0.4-0.81,0.71C699.43,189.99,699.67,190.65,700.5,189.82z"/> <path d="M703.63,191.64c0.3,0,0.61-0.2,1.21-0.3c-0.61-0.4-0.91-0.71-1.21-0.71C702.92,190.27,702.21,191.64,703.63,191.64z"/> <path d="M673.74,186.49c0-2.12,0.47-1.52-0.51-1.52c0,0.51,0.1,1.01,0.1,1.52C673.43,186.49,673.63,186.49,673.74,186.49z"/> <path d="M891.49,125.38c-0.71,1.72-1.41,3.23-2.12,5.25C891.9,130.5,893.33,127.23,891.49,125.38z"/> <path d="M148.34,457.77c5.08-4.92,9.12-14.84,8.99-18.99c-1.93,2.41-0.1,2.29-6.87,14.14
		C149.45,454.43,148.54,455.85,148.34,457.77z"/> <path d="M219.85,299.1c-2.91,1.45-0.38,0.46-1.21,4.44c-1.94,9.27-4.21,19.9-4.24,20c2.65-4.42,4.39-14.35,5.05-19.29
		c0.23-1.71,0.2-1.72,1.51-3.03c-0.2-0.4-0.5-0.81-0.71-1.21C220.15,299.7,220.05,299.4,219.85,299.1z"/> <path d="M102.69,514.83c-0.98,0.98-0.46,8.17,1.31,7.58c1.01,0,0.37-1.88,0.2-3.53c-0.4-2.37-0.11-2.2,3.23-9.8
		C104.43,510.2,104.61,513.55,102.69,514.83z"/> <path d="M193.99,401.01c-0.64-0.32-0.69-0.58-7.98,5.76c0,0.1,0,0.3,0,0.91C188.46,406.65,196.04,402.23,193.99,401.01z"/> <path d="M158.14,410.1c1.56,1.87,3.98-3.26,4.65-5.76C161.86,404.71,162.22,403.97,158.14,410.1z"/> <path d="M273.58,300.21c-0.4-0.2-0.61-0.4-0.71-0.3c-2.6,1.9-5.19,3.8-7.01,6.58C267.47,306.56,266.28,307.51,273.58,300.21z"/> <path d="M229.44,278.49c-0.05-0.01-0.08,0.01-0.13,0.01C229.35,278.62,229.32,278.62,229.44,278.49z"/> <path d="M226.72,277.18l-0.1,0.1C226.85,277.32,226.79,277.26,226.72,277.18z"/> <path d="M226.51,280.52l0.1,0.1C226.67,280.5,226.61,280.54,226.51,280.52z"/> <path d="M231.66,271.63c-2.37,1.19-2.52,5.73-4.87,5.65c1.02,1.12,0.23,1.55-0.16,3.26c1.13,0.19,0.78-2.12,2.68-2.03
		C228.92,277.19,228.33,277.97,231.66,271.63z"/> <path d="M143.49,465.95c1.72-1.31,1.72-1.31,3.23-5.25C144.6,462.01,143.9,463.42,143.49,465.95z"/> <path d="M156.32,434.34c0.79,1.58,2.65-1.61,1.01-3.43C156.02,432.62,155.92,432.92,156.32,434.34z"/> <path d="M181.37,412.72c0.76,1.15,1.48,0.17,3.33-2.22c-0.51-0.2-0.91-0.51-1.11-0.51C182.28,410.4,181.57,411.51,181.37,412.72z"/> <path d="M132.28,476.76c1.51-0.4,1.51-0.4,2.93-2.63C133.39,474.84,132.58,475.44,132.28,476.76z"/> <path d="M110.97,503.02c0.3,0.1,0.71,0.3,0.81,0.2c0.71-0.71,1.11-1.41,0.71-2.52C111.48,501.6,111.48,501.6,110.97,503.02z"/> <path d="M226.51,280.93c-0.1,0.1-1.85,1.95-1.31,1.4c0.2,1.09,0.21,1.11,1.26,0.73c0.48,0.19,0.98,0.39,1.46,0.59
		C226.23,282.37,226.51,284.03,226.51,280.93z"/> <path d="M226.61,280.82l-0.1-0.1C226.51,280.93,226.49,280.99,226.61,280.82z"/> <path d="M108.75,506.25c1.01-0.2,0.91-1.01,1.21-1.62C109.15,504.83,108.85,505.44,108.75,506.25z"/> <path d="M107.64,508.17c1.01-0.51,1.21-1.11,1.21-1.92C107.51,507.59,107.92,507.02,107.64,508.17z"/> <path d="M163.39,403.23c0.4-0.79,0.42-0.16,0-1.01C162.88,402.73,163.2,402.85,163.39,403.23z"/> <path d="M230.86,279.3c0.21,0.07,0.18,0.18,0.1-0.1L230.86,279.3z"/> <path d="M232.27,280.01c-0.44-0.18-0.83-0.43-1.25-0.63C231.26,280.07,231.81,279.92,232.27,280.01z"/> <path d="M230.86,279.3c-0.43-0.17-0.89-0.35-1.38-0.53C229.87,279.28,230.4,279.21,230.86,279.3z"/> <path d="M229.24,278.7c0.36,0.14,0.22,0.11,0.1-0.1L229.24,278.7z"/> <path d="M231.97,271.12c0-0.1,0-0.2,0-0.3c-0.1,0.1-0.3,0.1-0.4,0.2C231.8,271.49,231.26,271.83,231.97,271.12z"/> <path d="M214.49,323.64c-0.1,0-0.2,0-0.3,0.1C214.29,323.74,214.39,323.64,214.49,323.64z"/> <path d="M203.13,320.76c0.08,0.08,0.17,0.17,0.25,0.25C203.38,320.91,203.39,320.76,203.13,320.76z"/> <path d="M255.4,315.56c-0.1,0-0.1,0-0.2,0C255.2,315.67,255.19,315.56,255.4,315.56z"/> <path d="M265.77,306.54l0.03,0.03c0.09-0.13,0.04-0.08,0-0.1c-0.13-0.13-0.1-0.13-0.1,0C265.7,306.73,265.68,306.72,265.77,306.54z
		"/> <path d="M228.63,284.45c0.26,0.13,0.23,0.16,0.1-0.1L228.63,284.45z"/> <path d="M227.93,283.65c0.75,0.75,1.09,1.38,0.1-0.1L227.93,283.65z"/> <path d="M232.51,280.11c-0.04-0.07-0.09-0.15-0.14-0.2C232.37,280.07,232.43,280.1,232.51,280.11z"/> <path d="M232.51,280.11c0.03,0.07,0.06,0.15,0.06,0.2C232.57,280.08,232.6,280.11,232.51,280.11z"/> <path d="M321.05,490.59c-0.3,0.3-0.81,0.4-0.81,0.71c-0.4,1.31-0.81,2.73-0.4,4.14c1.04,3.58-1.24,5.58-1.92,15.15
		c0.61-0.61,0.91-0.71,0.91-0.91c1.21-5.16,2.83-11.76,2.53-12.83C320.63,494.29,321.94,492.38,321.05,490.59z"/> <path d="M317.31,407.17c0.32,3.3,1.24,2.73,5.86,15.05C323.07,418.58,319.74,410.3,317.31,407.17z"/> <path d="M331.85,405.15c0.71-0.81,0.39-1.81,0.1-2.63C328.47,392.67,329.46,401.76,331.85,405.15z"/> <path d="M329.73,386.46c0.71-2.02,0.81-4.04,0.2-6.16c-0.3,0.1-0.71,0.2-0.71,0.3c-0.56,3.07-1.2,5.1-0.1,6.06
		C329.33,386.56,329.73,386.56,329.73,386.46z"/> <path d="M324.08,433.53c0.81-2.32,0.71-4.24,0.3-6.06C322.42,426.63,323.16,431.6,324.08,433.53z"/> <path d="M321.86,487.66c1.31-1.11,1.31-1.41,0.1-3.13C321.15,485.85,321.15,485.85,321.86,487.66z"/> <path d="M328.72,395.96c0.53,0,0.98-1.8-0.61-2.12C327.13,394.99,328.21,396.21,328.72,395.96z"/> <path d="M322.87,441.61c0.2,0.1,0.61,0.4,0.71,0.3C325.61,440.56,322.56,439.18,322.87,441.61z"/> <path d="M323.78,435.14c-0.6,0.2-0.81,1.52,0.51,1.52c0.1-0.4,0.1-0.91,0.1-1.31C324.38,435.25,323.98,435.04,323.78,435.14z"/> <path d="M322.56,445.14c-0.4,0-0.4,1.01,0,1.01C322.96,446.15,322.96,445.14,322.56,445.14z"/> <path d="M301.35,217.19c0.1-0.2-0.1-0.61-0.2-1.21c-0.51,0.2-1.01,0.3-1.31,0.61c-5.57,5.57-9.17,5.65-21.41,16.26
		c3.46-0.31-0.4-0.52,14.14-8.69C295.53,222.49,299.46,220.03,301.35,217.19z"/> <path d="M268.93,220.52c-0.2-1.62-0.61-3.03-2.32-3.94C266.41,218.7,267.72,219.61,268.93,220.52z"/> <path d="M261.26,227.89c0.51-1.31-0.81-2.12-0.81-3.23C259.54,226.38,259.64,226.58,261.26,227.89z"/> <path d="M270.75,224.46c0.51,0.71,1.01,1.41,1.72,2.22C272.87,224.76,272.57,224.56,270.75,224.46z"/> <path d="M271.76,248.8c1.11-0.2,1.11-0.2,1.72-1.31C272.37,247.49,272.37,247.49,271.76,248.8z"/> <path d="M265.6,237.49c0.3-0.3,0.24-0.16-0.1-1.51c-1.11,0.37-0.84,0.14-0.2,1.41C265.3,237.49,265.5,237.49,265.6,237.49z"/> <path d="M279.54,235.97c-1.11,0-1.21,0.81-1.21,1.82C279.03,237.29,279.34,236.58,279.54,235.97z"/> <path d="M263.38,232.94c0-1.1,0.3-1.04-0.81-1.41C262.57,232.72,262.73,232.51,263.38,232.94z"/> <path d="M270.65,224.56c0.2-0.81,0-1.52-0.91-1.92C269.34,223.75,270.45,223.96,270.65,224.56z"/> <path d="M256.71,260.92c0,0.81,0,1.41,0,2.52C257.52,262.34,257.42,261.73,256.71,260.92z"/> <path d="M255.7,257.79c-0.2-0.51-0.51-0.51-1.11,0c0.4,0.2,0.71,0.4,1.01,0.61C255.6,258.19,255.8,257.99,255.7,257.79z"/> <path d="M279.44,235.87c0.49-0.49,0.4-0.33,0.4-0.71C279.48,235.53,279.44,234.95,279.44,235.87z"/> <path d="M310.85,185.98c0.1-0.1,0.3-0.2,0.4-0.3c-0.3-0.3-0.27-0.45-0.57,0.14c-0.1-0.1-1.38,0.73-1.56,0.87
		c-4.68,3.34-9.12,3.54-15.55,4.34C298.3,194.18,309.51,189.98,310.85,185.98z"/> <path d="M261.96,198.1c-0.4,2.12-0.4,4.34-0.1,6.46C262.27,202.44,262.37,200.22,261.96,198.1z"/> <path d="M259.84,183.96c0.2,0.91,0.3,1.51,0.51,2.42C260.95,185.37,261.05,184.67,259.84,183.96z"/> <path d="M291.56,190.42c-0.71,0-1.31,0-2.02,0C290.75,191.54,290.75,191.54,291.56,190.42z"/> <path d="M287.31,189.31c-1.02-0.68-0.92-0.49-1.62,0.2C286.75,189.94,286.55,190.46,287.31,189.31z"/> <path d="M254.19,120.73c-2.12-1.21-3.03-1.41-5.55-0.91c1.82,1.62,3.94,1.62,5.66,2.22C254.99,121.34,254.49,120.94,254.19,120.73z
		"/> <path d="M332.66,143.06c-1.11,1.82-1.41,3.43-2.22,4.85C331.58,149.5,333.93,146.54,332.66,143.06z"/> <path d="M683.23,72.46c-0.2,0.1-0.3,0.2-0.51,0.3C683.23,72.96,683.23,72.66,683.23,72.46z"/> </g> </svg> 