<?xml version="1.0" encoding="utf-8"?> <!-- Generator: Adobe Illustrator 23.0.1, SVG Export Plug-In . SVG Version: 6.00 Build 0)  --> <svg version="1.2" baseProfile="tiny" id="Layer_1" xmlns="http://www.w3.org/2000/svg" xmlns:xlink="http://www.w3.org/1999/xlink" x="0px" y="0px" viewBox="0 0 900 600" xml:space="preserve"> <g> <path d="M670.52,36.95l-0.1-0.1C670.45,37.03,670.42,37.05,670.52,36.95z"/> <path d="M675.58,58.1c0.09,0.03,0.1,0.1,0.1-0.1C675.63,58.02,675.58,58.05,675.58,58.1z"/> <path d="M700.12,17.46c-1.6,0.27-1.42,0.48-1.69,0.91c0.03-0.03,0.06-0.06,0.08-0.1C699.56,17.75,699.85,17.65,700.12,17.46z"/> <path d="M130.86,291.81c6.72,4.36,15.41,6.15,17.64,5.78c8.55-1.9,12.82,1.48,16.3-2.27c-0.1-0.52-0.31-1.03-0.52-1.55
		c1.55-1.14,1.86,1.06,3.3,0.83c2.47-0.41,8.44-1.69,10.29-3.38c3.8,1.4,7.69,0.7,11.59,0.7c0.72,0,1.56-0.41,1.96-0.93
		c4.95-6.39,1.88-5.82,2.89-8.98c1.55-4.87-3.16-5.85-6.09-10.11c2.42-6.87,2.53-7.65,4.23-9.18c2.93-2.63,3.14-5.56,3.51-12.28
		c0.16-2.96,2.16-3.21,4.64-3.92c5.85-2.02,13.09-6.39,10.32-12.28c24.87-7,20.37-3.82,50.56-3.82c9.31,0,3.6-0.88,20.12-2.27
		c7.53-0.63,4.28,1.36,30.13,0.31c7.52-1.88,11.67-0.55,33.95-1.44c7.16-0.29,13.75-1.54,17.64-1.75c6.5-0.37,8.36,0.95,16.2,0.1
		c21.45-2.31,28.43-7.02,32.19-5.57c2.42,0.93,20.77-4.4,23.01-6.09c11.25-7.11,18.51-6.73,22.7-14.34
		c2.17-0.27,39.62-3.59,39.73-3.61c12.38-2.51,22.44-6.71,29.82-9.08c-1.02,10.19-0.27,14.8-2.37,22.18c-0.21,0.72,0,1.55,0,2.48
		c0.41-0.31,0.72-0.41,0.83-0.62c6.36-23.33,0.62-0.22,4.54-23.73c1.32-7.94-0.46-8.97,0.21-12.79c2.95-16.85,3.33-23.98,8.46-35.39
		c2.53-5.63,4.81-12.27,2.99-18.16c-0.72-2.33,1.64-5.66-0.31-13.52c-0.69-2.77-3.28-2.05-2.68,0.62
		c1.23,5.45,0.43,13.07-0.41,18.68c0,2.02-7.95-5.82-7.95-13.52c0-3.58-2.28-14.28,6.19-25.49c10.12-13.38,7.18-9.9,20.64-18.37
		c3.58-2.26,12.64-8.56,13.83-5.88c-12.28,14.33-11.85,5.75-10.42,60.47c0.66,25.13,1.32,41.8,1.77,53.19
		c-1.33-47.42-2.06-91.44-0.01-103.03c3.3-4.95,7.74-9.08,12.79-12.38c0.31-0.31,0.83-0.1,1.65-0.21c-1.88,4.04-14.07,3.63-13,33.33
		c0,0.1,4.31,203.33,4.33,205.13c0.11,9.26,1.38,8.05-2.06,8.05c0-18.8-1.73-65.21-3.15-112.01c-0.08,11.45-2.26,8.11-9.23,29.36
		c-0.48,1.46-0.61,2.78-0.21,4.33c1.61,6.25,0.96,6.83,1.96,12.79c0.78,4.69-1.11,7.34-1.65,12.28c-1.83,16.86-1.58,17.9-3.2,21.05
		c-3.89,7.6-4.18,35.73-4.13,36.84c1.59,32.36,7.35,13.55-4.33,46.12c-0.57,1.6-1.26,4.18-1.55,5.88c-3.3,1.03-3.41,0.93-6.71-1.03
		c-6.06-18.18-6.96-42.07-9.18-49.01c-1.06-3.32-0.68-2.21-1.55-10.22c-1.87-17.31-2.37-11.23-2.27-15.27
		c0-0.18,0.95-18.42,1.34-21.05c2.76-18.4-1.71-23.63,0-33.84c2.97-17.78,2.66-15.62,4.64-15.37c-0.21-1.96-0.52-3.82-2.06-5.47
		c-4.22,5.63-3.74,19.29-4.33,21.88c-0.71,3.1-0.86,6.3-0.72,9.49c1.96,46.21-6.07,27.37,3.51,75.94c1.61,8.14,0.64,2.26,2.89,18.88
		c2.7,19.93,3.82,17.73,3.82,18.68c2.36,10.99,6.22,8.49,11.66,9.91c1.62,1.39,3.76,3.66,6.09,2.17c0.31-0.2,0.41-0.62,0.62-0.93
		c-1.01-1.51-4.92-0.83-5.16-6.09c-0.14-3.16,1.16-4.88,3.51-7.22c-0.97-2.35-0.96-1.15,1.03-7.02
		c6.83-20.11,10.97-28.17,15.58-36.73c2.37-0.93,4.64-1.26,6.81-1.14c6.3,0.36,6.17,0.01,8.67,5.47c3.22,7.06,8.13,20.83,9.29,28.38
		c0.82,5.34-0.11,4.02-3.71,3.71c-6.24-0.52-5.39-4.08-9.18-4.13c-18.44-0.21-12.17-0.45-15.89-0.83
		c2.37-9.39,6.09-17.85,10.11-26.21c1.24,0.1,1.57,0.82,1.96,1.65c8.11,17.22,8.54,25.91,9.49,27.14c0.64,0.82,2.51,1.04,2.79-0.62
		c0-4.01-9.21-28.59-11.87-29.92c-1.69-0.84-3.86-1.32-4.44,0.41c-13.62,30.03-9,25.77-17.03,41.38c-3.1,0.21-3.1,0.21-3.2,1.86
		c2.48,1.81,6.39,3.52,4.33,7.64c-1.7,2.98-1.28,1.47-1.65,3.71c5.81,1.45-0.78,3.17,26.93-2.37c4.89,1.63,5.68,2.78,10.94,2.89
		c6.18,0.12,5.86,0.87,9.18-0.41c5.07,2.23,14.51,0.96,13.45-4.04c9.41-5.76,1.44-4.72-7.87-10.09c-8.47-4.89-6.29-2.01-11.35-5.98
		c2.71-9.95-3.3-18.66-10.63-36.01c-1.83-4.32-6.4-6.5-8.67-6.5c-2.68-0.49-1.64,3.88-3.41-76.56c-0.83-37.49-2.23-32.33,3.71-58.09
		c4.99-2,15.66,5.6,32.3-8.15c3.84-3.17,1.32-3.63,6.6-8.25c8.3-8.3,11.25-16.64,11.35-8.98c0.41,32.17,0.7,18.5,1.86,26
		c0.15,0.96,2.37,17.8,6.71,32.4c1.67,5.6,2.04,9.47,3.1,10.94c1.55,2.48,2.41,5.06,2.27,8.05c-0.25,5.37,0.52,10.83-0.1,16.2
		c0,11.07,6.54,39.06,8.77,45.61c4.09,12.02,5.76,32.4,7.22,34.77c9.6,15.59,14.18,4.44,22.39,12.79c1.74,1.77,3.12,0.66,6.29,2.68
		c1.14,0.72,2.27,0.52,3.51,0.1c1.55-0.52,1.75-1.96,2.06-2.99c2.44-0.24,2.45-0.23,10.73-3.1c1.77-0.44,1.62-2.62-0.83-2.27
		c-4.36,0.87-4.07,1.66-3.2-2.68c1.44,0,2.57,0.42,3.61,1.14c3.04,2.07,9.87,3.51,11.76,3.82c7.79,1.27,15.74,4.77,19.81,0.41
		c0-0.37,2.31,0.61,4.23-4.33c-2.2-7.7-10.67-3.95-17.85-8.25c-5.24-3.14-7.75-2.58-14.96-4.02c1.73-4.7-10.35-24.76-9.29-31.16
		c0.1-0.62-0.52-1.24-0.93-2.48c-0.52,1.14-0.93,1.75-1.03,2.37c-0.76,14.53-0.76,4.91-1.14,23.53
		c-0.33,16.33-0.33,13.49-0.93,15.58c-2.42-0.22-4.61-0.99-4.44,1.14c1.94,0.65,4.47,0.06,5.06,2.99c0.21,1.03,1.34,0.93,2.06,1.24
		c-0.21,0.41-0.21,1.03,0.52,1.96c-0.72,0.52-1.44,1.14-2.68,1.24c-0.62-2.99-3.2-3.82-5.68-4.85c0-20.87,8.13-42.49,5.88-46.85
		c-0.22-0.42,0.16-1.65,0.52-1.65c0.21-0.1,0.52-0.1,0.72-0.21c2.37-0.83,2.76-0.71,3.71,1.44c10.07,22.81,6.33,17.38,11.04,27.65
		c2.27,4.96-0.26,6.09,1.86,8.56c0.62,0,1.34-0.1,1.96-0.1c1.48-6.41,0.46-1.93-4.44-17.54c-16.81-53.55-5.52,30.25-23.53-118.77
		c-1.2-9.97-4.68-35.98-5.26-44.16c5.83,1.46,3.99,1.78,7.33-0.72c1.22,0.3,2.16,1.92,4.13,0.31c4.8-3.93,2.92-1.67,4.29-4.15
		c2.47,3.43,3.06,5.11,5.72,3.53c5.92-3.51,7.92-10.77,11.35-12.9c1.33-2.67,3.12-2.58,14.24-7.12c5.45-2.22,5.97-4.15,15.27-12.49
		c9.64-8.64,9.94-18.56,10.83-19.61c2.64-3.11,1.94-16.86,1.55-20.95c-1.2-12.42-6.56-16.37-8.56-20.95
		c-3.24-7.37-10.18-11.65-16.72-16.72c-0.1-0.1-0.41,0-0.72,0c-0.52,0.72-0.93,1.55-1.55,2.48c4.17,4.87,7.38,9.75,8.25,16.2
		c2.37,17.42-10,43.59-12.07,41.17c1.65-5.16,2.79-10.32,2.48-15.79c-2.67,9.93-2.34,12.95-4.85,15.99
		c-1.93-0.86-3.26-2.13-3.71-0.1c7.25,5.61,8.22,7.19,6.6,3.41c3.67-1.14,5.68-5.09,6.81-8.77c0.03-0.11,2.24-7.37,2.17-7.74
		c-0.41-3.67,3.92-8.13,3.92-25.28c2.54,2.54,0.8,7.64,2.58,12.38c1.28-2.41-0.34-12.82-0.93-15.27c-0.98-4.1-1.96-6.11-1.96-7.53
		c1.65,0.62,2.48,1.65,3.2,2.79c0.93,1.75,2.05,3.41,2.68,5.26c6.01,17.53,1.97,17.86,4.13,20.02c-0.41-1.96-0.52-4.02,0.21-5.98
		c1.62,10.25-7.12,30.43-14.45,38.49c0,6.89,20.78-24.52,14.14-41.27c-1.53-3.86-0.78-6.27-2.58-11.45c-0.21-0.41-0.1-1.57-0.1-1.34
		c3.13,1.04,9.24,18.16,8.15,25.59c-1.7,11.61-5.65,17.85-9.18,23.42c-2.97,4.68-5.39,4.67-7.64,6.91c3.26,0.33,2.25,0.12,4.23,1.44
		c1.14-0.52,2.17-1.03,3.3-1.44c-1.65,2.37-3.2,4.75-5.98,5.88c-2.15,1.29-0.42,1.22-9.49,8.15c-4.1,3.13-11.69,4.39-13.31,5.98
		c-8.37,8.22-10.21,18-14.96,14.34c-2.01-2.01-3.8-2.3-2.48-4.95c0.41-0.82-1.98-1.44-2.58,1.34c3.23,4.77,1.87,1.9,0.1,2.79
		c-3.02,1.51-3.49,3.03-5.98,2.58c-1.86-1.55-3.82-2.89-6.5-3.3c-0.67,2.69,2.52,1.11,3.51,3.82c-2.05,1.44-3.84-2.42-8.05,0.21
		c-1.34,0.72-2.68,1.55-4.02,2.27c-9.18-1.84-12.51-21.67-15.07-24.04c0,6.04,0.64,5.31,0.21,6.81c-2.89-2.27-6.08-2.6-9.18-3.41
		c-5.33-1.38-5.82,1.18-9.7,0.83c-1.34-0.21-1.44,0.1-2.58,1.86c3.1,0.21,5.98-1.75,9.18-0.52c-1.54,4.45-4.43,6.59-17.34,17.95
		c-0.67,0.34,0.15,1.38,0.62,2.17c-5.91,4.84-10.07,8.45-15.58,9.8c-4.61,1.13-9-0.78-7.02-5.16c1.51-6.06,16.82-32.79,17.34-34.15
		c1.52-3.28,0.19-4.14,1.44-8.25c6.6-21.63,3.25-18.55-5.06-34.67c-0.96-1.87-2.34-3.04-3.51-5.37c4.41-1.89,6.69,4.36,17.03,7.22
		c5.47,1.51,2.06-0.93,5.78,4.64c5.83,8.74,12.52,1.6,14.03,1.75c-1.09,6.19-0.49,6.22-0.31,10.83c1.34-6.71,2.68-12.59,6.29-18.26
		c-1.78,21.31-0.5,19.5,1.34,19.5c1.22,3.65,2.99,7.59,5.88,10.11c6.28,5.48,1.62,7.93,6.09,4.02c-1.24-1.44-2.37-2.89-1.75-5.16
		c10.53-9.21,12.92-12.8,15.07-14.45c3.35,1.34,1.99,1.13,4.33-0.83c-0.92-2.31-2.42-4.02-0.93-4.02c1.75,4.44,2.48,5.16,4.75,5.06
		c-1.44-2.37-3.61-4.33-4.02-7.53c0.18-0.36,8.57-15.53,6.91-21.57c-1.06-3.85,3.93-24.02,8.25-26.72c0.06-0.06,1.06,0.67,1.14,0.72
		c1.21-2.11,2.83-1.95,9.29-0.1c-1.85,5.56-3.31,12.75-3.61,15.79c1.33,0,0.64-0.57,2.68-8.05c3.55-13,2.45-10.88,9.18-9.08
		c3.46,31.14,3.28,28.18,4.13,29.3c0.31-0.41,0.52-0.62,0.52-0.83c-1.03-9.29-0.52-18.68-2.06-27.76c0.41-0.93,1.96-0.31,1.86-1.65
		c-1.03-1.44-2.89-1.03-4.44-1.65c0.93-0.31,1.55-0.52,2.06-0.72c0.82-4.66,1.68-6.85,0.62-9.6c-3.26-8.43-9.85-8.83-11.97-9.8
		c-11.62-5.31-26.25,9.16-36.01,17.75c-4.31,3.79-4.43,1.77-7.84,4.64c-7.06,5.94-12.84,13.83-17.44,21.88
		c-3.01,5.25-7.74,8.67-11.97,11.97c-2.99-0.08-16.63-1.05-20.84,1.75c-3.01-3.96-5.22-1.44-23.73-1.65
		c-2.47-0.03-5.65,0.17-7.95,1.14c-2.38,1,2.84-1.31-18.99,1.44c-25.02,3.16-19.03,5.78-35.6,11.25
		c-2.67,0.88-19.07,10.84-28.27,19.19c-7.02,6.37-3.01,8.66-23.11,23.73c-3.05-1.22-0.85-1.03-5.16-1.03
		c-6.95-6.03-14.25-7.2-23.11-9.49c-4.68-1.21-4.65-0.94-14.65,0c-1.52,0-0.92,1.37-4.95,1.03c-12.23-1.03-11.57-0.1-15.79-0.1
		c-9.95,0.66-8.76,0.14-11.66,1.24c-14.07,5.34-32.64,10.69-43.85,20.84c-4.34,3.93-13.37,13.5-16.2,19.09
		c-0.62,1.23-3.98,3.19-5.26,3.92c-16.18,9.21-22.57,14.02-35.81,18.16c-13.38,4.18-11.04,10.55-25.49,13.62
		c-13.08,2.78,0.14,3.63-30.96,0.52c-4.48-0.45-5.75-0.45-18.47,0c-7.14,0.25-6.53,3.29-22.91,7.95
		c-6.04,1.72-30.28,11.65-37.04,13.31c-6.21,1.52-3.09,4.08-15.35,6.7c0.2-0.79,0.39-1.69,0.6-2.67c-3.49-1.5-11.5-2.99-16.3-2.17
		c-6.53,1.12-8.18,0.64-9.49,1.24c-3.19,1.68-7.3-0.16-9.8,1.34c-6.58,13.68-2.01,17.87-2.79,21.26
		c-1.84,8.03,3.92,14.37,4.95,17.64c0.24,1.22,2.28,2.92,3.61,3.92c1.6,10.15,2.18,10.28,2.06,13c-0.36,8.39-4.07,10.23-0.52,17.95
		C124.15,285.73,126.93,289.26,130.86,291.81z M551.86,327.93c-0.2,0.42-0.41,0.72-0.83,1.34c-0.31-0.52-0.62-0.83-0.62-1.14
		c-4.72-35.61,2.83-54.44,4.44-61.29c0.79-3.36,1.56-10.18,2.68-16.3c1.15-6.29,1.06-12.47-0.41-18.68c-0.76-3.19-0.1-6.4-0.31-9.6
		c-0.14-1,2.09-4.26,2.27-7.33c0.1-1.75,1.14-3.1,2.68-4.64c0.54,8.65,2.58,94.67,2.58,96.99
		C560.2,309.17,561.26,307.86,551.86,327.93z M553.61,369.1c-0.95-1.71,2.7-2.54-0.83-9.6c13.36,1.34,8.25,0.05,18.78,6.91
		C563.93,368.27,557.12,369.2,553.61,369.1z M610.26,362.5c0.41,0.1,0.72,0.31,1.03,0.52c-0.6,0.89-1.19,1.77-1.79,2.58
		c-0.18-0.27-1.6,0.21-2.14-0.31c-1.87-1.8-8.11-2.98-17.54-10.52C598.66,354.45,598.33,358.52,610.26,362.5z M590.04,357.96
		c10.84,6.41,8.38,5.64,12.59,7.53c1.43,0.64,2.79,1.34,3.92,2.79c-2.68,1.55-5.37,1.86-8.15,0.83c-1.19-2.39-1.07-3.5-3.82-4.23
		c-3.75-1.25-5.84,0.29-12.18-5.37c-2.85-2.55-1.87-1.69-13.1-6.6c-0.49,1.46-0.98,1.7,0.83,2.79c4.45,2.67,8.02,3.5,13.21,7.84
		c3.03,2.53,5,2.33,11.87,3.82c-2.88,1.64-10.18,1.73-14.65-0.21c-4.31-1.87-9.05-2.28-12.18-5.57c-5.26-5.54-12.1-3.13-15.27-4.54
		c1.65-3.71,3.3-7.43,4.95-11.14c2.99-0.41,5.98,0.31,8.87,0.31c9.54,0,8.47,0.01,10.11,1.65c3.96,3.96,6.86,0.68,12.07,4.23
		c-3.1,0.21-5.57-1.14-8.36-0.31c-0.37,1.48-0.07,1.65-0.93,1.65c-4.6-1.15-3.2-1.19-5.26-0.41
		C580.32,357.32,585.87,355.49,590.04,357.96z M689.2,328.24c0,0.06-0.07,0.09-0.13,0.12C689.25,328.15,689.2,327.81,689.2,328.24z
		 M729.75,327.72c-0.71,1.11-2.1-0.35-2.85,0.57c-0.19-0.48-0.38-1.06-0.66-1.81C727.44,326.68,729.32,326.64,729.75,327.72z
		 M698.9,317.2c12.5,2.36,9.57,0.72,19.3,7.02c0.43,0.43-0.54,0.62,2.17,0.62c-0.83,0.72-1.34,0.31-1.86-0.1
		c-6.19-0.24-5.71-3.1-9.39-3.92c-2.79-0.62-5.58-0.9-8.36-1.34c-0.62-0.1-1.24,0.1-2.17,0.21c1.16,1.39-0.55,1.04,8.87,3.3
		c4.06,0.63,4.24,3.44,9.18,4.13c6.7,0.94,5.68,2.18,10.18,1.37c-0.71,2.77-1.35,3.24-3.89,2.76c-2.88-0.55-5.87-0.85-8.67-1.86
		c-5.03-1.82-6.78,0.46-15.68-3.92c-9.28-4.57-9.57,2.23-8.56-9.39c0-0.21,0.41-0.52,0.62-0.83c2.62-0.17,4.26,3.13,6.81,2.06
		C697.87,317.09,698.38,317.1,698.9,317.2z M689.82,292.54c2.4,4.2,6.92,18.28,7.43,22.49c-3.02,0-4.44-3.62-7.53-2.17
		C689.51,305.85,689.2,299.35,689.82,292.54z M728,31.27c0.41,0,0.72-0.21,0.83-0.1c0.83,0.62,1.44,1.24,2.27,1.75
		C728.53,33.44,729.65,34.17,728,31.27z M736.97,40.66c0.17,0.17,0.25,0.01,0.3,0.3C737.17,40.86,737.08,40.76,736.97,40.66z
		 M744.61,78.01c0.46,0.65,0.26,1.05-0.09,1.42C744.55,78.99,744.61,78.54,744.61,78.01z M743.58,81.73c0-0.79-0.18-1.58,0.82-2.01
		C744.34,80.5,744.55,81.35,743.58,81.73c0,0.59,0.08,1.27-0.62,1.42C742.95,82.65,742.92,82.02,743.58,81.73z M742.87,83.36
		c0.06,0.72-0.06,1.42-0.55,1.98C742.23,84.62,742.22,83.92,742.87,83.36z M742.03,85.55c0.14,0,0.14-0.04-0.1,0.21
		C741.93,85.65,741.93,85.55,742.03,85.55z M671.04,135.59c18.46,148.33,17.92,138.35,15.58,140.23
		c-1.18-1.18-17.32-137.73-17.34-137.86C669.18,136.93,669.29,136,671.04,135.59z M664.95,137.96c1.03-0.21,1.65-0.31,2.27-0.52
		c0.21,0.83,0.52,1.65,0.62,2.48c15.21,124.49,17.56,138.14,15.27,147.04c-1.03,3.99-4,24.25-4.95,26.62
		c-5.34,0-5.44-0.66-5.98-4.13c-2.5-15.78-7.07-8.31-3.71-65.42c0-2.42,2.68-8.28,2.68-14.03c0-4.95-1.31-4.71-1.34-7.95
		c-0.12-10.84-4.69-14.88-4.44-21.57c0.25-6.47-2.27-9.53-2.27-20.84c0-10.41-3.27-21.65,0.83-32.81
		C664.94,144.05,665.67,141.27,664.95,137.96z M633.79,128.47c4.12-4.78,6.99-7.51,5.98-10.94c6.36-1.59,8.36,3.92,12.07,3.92
		c6.43,14.07,5.91,14.34,10.63,16.61c0,1.98,0.37,0.29-0.41,8.15c-2.68,1.14-3.07,3.61-3.1,6.09c-0.17,18.73,1.4,17.63,1.14,25.38
		c-0.44,12.86,3.28,20.49,2.99,25.59c0,3.5,1.36,7.75,4.02,19.4c2.67,11.7-2.88,19.5-2.48,25.69c0.87,13.49-2.11,34.25,1.75,49.22
		c1.23,4.75-1.97,7.92,2.89,14.45c0.7,0.94,1.65,1.86,2.58,2.99c1.86,0.52,3.92,1.14,6.29,1.75c0.52,2.89,0.31,7.74-0.52,10.01
		c1.08,1.98,7.92,0.34,6.4,7.95c-0.1,0.21-0.31,0.41-0.52,0.83c-0.41-0.1-0.83-0.1-1.24-0.31c-0.83-0.52-1.55-1.42-2.48-1.55
		c-3.31-0.44-5.77-2.59-8.46-4.23c-5.11-3.1-11.83,2.78-18.88-9.7c-0.42-8.96-0.08-18.21-8.56-46.85
		c-6.24-21.06-5.37-51.12-6.09-51.8c-1.78-1.7-1.01-8.61-4.02-12.38c-0.65-0.81-0.02-0.16-5.47-26.72
		c-3.35-16.32-1.35-27.46-2.99-29.92c-0.41-0.51-0.28-5.79,0.1-7.02c1.75-0.31,3.52-0.29,5.06-0.93c1.45-0.6,2.99,0.72,4.44-0.21
		c0-1.33-10.5-3.17-10.63-3.2C634.37,128.66,629.69,133.23,633.79,128.47z M668.67,88.02c0-0.25-0.04-0.18,0.15-0.26
		C668.79,87.86,668.73,87.96,668.67,88.02z M679.29,78.63c0-0.27-0.05-0.23,0.21-0.1L679.29,78.63z M685.28,61.71
		c-5.28,12.95-11.72,20.75-15.68,25.8c-0.09,0.09-0.39,0.1-0.62,0.1c0-1.74,1.79-1.35,6.09-16.82c0.1-0.52,0.41-0.93,0.62-1.34
		c0-0.1,0.21-0.1,0.41-0.31c2.47,1.85,0.5,0.97,5.68-11.25c5.04-11.89,5.92-18.62,6.98-19.96C688.16,45.78,685.4,61.42,685.28,61.71
		z M688.98,37.27c-0.02-0.86-0.08-1.76,0.53-2.48C689.56,35.65,689.67,36.54,688.98,37.27z M689.74,34.33
		c0.03-0.72-0.11-1.49,0.52-1.96C690.35,33.08,690.44,33.83,689.74,34.33z M699.11,24.46c-0.14,0-0.14,0.04,0.1-0.21
		C699.21,24.36,699.11,24.46,699.11,24.46z M701.48,22.09c1.95-2.81,5.72-5.79,7.02-2.68c0.31,0.62,0.31,1.34,0.52,2.17
		C706.54,22.19,704.16,21.37,701.48,22.09z M707.77,14.55c-1.67,0.19-2.46-0.22-5.06,0.83c-0.82,0.33-1.44,0.93-2.17,1.34
		c0.48,0.14,0.22-0.09-0.42,0.73c0.17-0.13,0.33-0.3,0.67-0.65c0.37,0.08,0.82,0.17,1.39,0.25c-0.41,0.52-0.62,1.04-0.93,1.24
		c-7.86,5.02-9.52,12.51-10.95,13.84c-0.22-3.35,2.64-7.84,3.52-9.92c1.05-2.5,4.49-3.1,4-3.25c-0.03,0.02-0.05,0.04-0.08,0.05
		c0.02-0.02,0.04-0.04,0.07-0.06c-0.15-0.04-0.59-0.05-1.49-0.05c0.26-1.73,5.22-5.61,10.61-6.91c0.1-0.52,0.21-1.14,0.31-1.65
		c2.27,1.44,2.27,1.55,2.89,4.54C709.22,15.48,708.6,14.55,707.77,14.55z M696.32,18.99c0,0.25,0,0.45,0,0.72
		C695.7,19.51,695.8,19.2,696.32,18.99z M713.24,20.33c0.21-0.41,0.31-0.93,0.41-1.75C714.07,19.51,714.27,20.13,713.24,20.33z
		 M676.92,16.41c5.66-4.25,11.83-8.75,17.75-12.49c6.16-3.9,14.04-2.26,15.68,1.03c0.52-0.1,0.83,0.1,0.72,0.72
		c0.11,0.05,3.43,0.26,3.71,5.57c0.1,1.86,0,3.61-0.31,5.47c-1.12-7.09-0.04-4.31-3.41-11.04c-0.41,0-0.72-0.21-0.83-0.83
		c-4.32-1.08-6.35-2.04-9.39-0.83c0.41,0.21,0.62,0.41,0.93,0.52c0.43,0.22,9.6-1.39,10.32,9.08c-1.64-2.73-3.21-6.95-8.36-4.75
		c-22.37,11.19-19.2,30.68-26.31,52.01c-0.65-2.39-0.46-2.16-1.76-2.74c-0.26,8.82-3.83,12.7-3.6,15.23c0,1.11,0.27,0.39-5.16,14.24
		c-0.96,2.44-2.78,4.2-2.89,4.33c-0.93-2.63-0.46-19.03,2.79-29.82c2.11-7.01,5.98-18,3.2-13.83c-6.73,13.28-7.73,23.1-8.87,32.81
		c-3.13-20.35,9.61-42.34,9.31-44.09c-2.27,2.15-9.24,18.51-10.75,33.36c-0.3,2.92-0.3,9.24-0.52,10.63
		c-3.33-10.17,0.05-19.46,0.93-26.52c-3.15,6.11-5.1,17.87-1.14,32.09c0.4,1.45,1.55,2.79,2.58,4.54c0,0.83,0.1,2.17,0.21,3.41
		c-0.72,0.52-1.03-0.11-1.24-0.41c-12.06-17.68-1.76-40.4-0.41-41.02c0,0.51,0,0.95,0,1.39c0.67-0.47,0.79-0.96,0.17-1.52
		c1.92-2.16,2.74-4.92,4.07-8.18c-6.77,3.38-5,7.72-17.34,19.71c-0.19,0.18-0.54,0.21-0.84,0.29c-0.14-1.29,0.44-2.38,1.04-3.38
		c10.04-16.83,4.22-10.15,18.99-29.82C673.1,22.37,665.87,23.78,676.92,16.41z M660.1,33.75c0.49-1.48-1.3,1.03,5.88-8.15
		c0.21-0.31,0.62-0.41,1.14-0.72c0,2.57-6.19,8.87-6.91,8.87c0.1,1.14-0.83,1.65-1.44,2.27C658.66,34.99,659.07,34.16,660.1,33.75z
		 M653.32,42.8c0.05,0.56-0.02,1.02-0.52,1.3C652.98,43.66,653.15,43.23,653.32,42.8z M637.71,61.19
		c3.08-7.39,5.07-5.23,13.41-15.79c0.39-0.5,0.7-1.27,1.55-1.24c-2.31,5.2-4.75,8.35-9.08,21.77c-0.3,0.93-0.31,0.93,0.21,2.58
		c1.75-1.14,3.41-2.17,5.16-3.3c-0.62,2.17-0.83,2.57-2.17,3.51c-3.63,2.55-7.53,3.4-11.87,2.06c-1.34-0.41-2.06-1.24-2.06-2.89
		c3.04-0.83,7.03-1.13,9.08-4.13c0.41-0.52,0.62-1.03,0.1-1.65c-4.75,4.13-10.22,4.13-15.89,2.17c4.85,0.61,6.64,0.78,11.45-0.72
		c3.67-1.14,3.92-3.43,4.13-5.26C640.19,59.44,639.57,61.3,637.71,61.19z M637.3,58.2c0.52,0.93-0.31,1.34-0.62,1.96
		c-1.17,2.33-1.58,2.56-7.02,2.27C629.66,61.5,630.11,61.64,637.3,58.2z M629.77,59.75c-3.69,3.08-6.32,2.05-11.66,0.62
		c-0.41-0.11-0.83-0.52-1.34-0.83C619.86,58.72,624.3,58.82,629.77,59.75z M605.41,59.44c7.06,6.23,13.05,22.43,11.97,28.38
		c-3.31,18.21-2.75,17.12-5.06,20.64c-4.56,6.97-9.27,13.82-11.14,22.29c-0.67,3.04-4.11,6.47-4.64,11.97
		c-0.29,3.01,0.3,6.21,3.3,6.91c4.99,2,2.85,1.63,13.62-2.68c0.31-0.1,0.62,0,1.03,0c0.26-0.26,0.21-0.27,0.21,0
		c-21.96,25.5-20.47,22.48-42.1,23.01c0-4.41,3.98-14.21,6.4-19.19c1.43-2.94,7.54-8.38,14.34-18.26c4.66-6.76,3.92-9.33,4.85-11.66
		c2.59-2.07,1.11-0.43,2.89-3.1c13.95-18.59,7.75-16.27,10.52-38.49c-1.03-3.3-3.07-6.62-5.26-9.91
		C599.3,58.78,582.7,60.07,605.41,59.44z M594.31,64.73c-0.51,0.08-0.99,0.08-1.21-0.55C593.64,64.18,594.09,64.2,594.31,64.73z
		 M592.66,64.07c-0.4,0.1-0.84,0.25-1.38,0.32c2.27,1.24,2.99,3.61,4.13,5.47c2.39-0.65,0.53-2.6-0.82-4.96
		c0.44-0.02,0.87-0.06,1.23,0.11c13.71,6.53,11.34,11.18,11.87,26.52c0.36,10.48-6.09,19.37-6.09,20.64
		c-0.1-0.21-0.21-0.31-0.21-0.41c1.27-2.55,3.55-16.92-0.72-16.92c-0.82,2.47,0.74-0.58-1.14,11.56
		c-1.79,11.63-1.61,12.53-3.41,13.72c-0.98,0.73-0.2,3.6-5.78,11.04c-4.26,5.68-7.98,10.29-10.94,16.2
		c-1.9,3.81-2.26,1.74-3.61,4.44c-0.93,1.86-1.96,3.71-2.68,5.68c-0.83,2.27-1.33,4.65-2.68,6.81c-2.43,3.88-3.1,29.83-3.82-3.71
		c-1.99-92.55-3.51-86.03,11.25-97.92C581.99,59.31,589.3,61.47,592.66,64.07z M176.99,291.09c0.1-0.1,0.21-0.21,0.31-0.21
		C178.46,291.47,177.09,291.09,176.99,291.09z M363.55,220.31c5.16-2.06,10.25-4.14,15.37-6.09c6.51-2.47,9.22-0.7,14.45-5.06
		c14.21-11.85,3.53-6.07,20.33,4.64C406.83,215.86,363.55,223.67,363.55,220.31z M489.95,126.1c3.71-33.15,4.15-26.81,29.82-46.23
		c14.95-11.3,15.25-6.5,25.28-13.52c3.64-1.82,7.96-2.47,11.76-2.68c-4.05,3.24-8.94,5.45-15.79,12.38
		c-6.89,6.97-14.36,12.01-15.68,23.32c-0.9,7.68-0.2,9.77,2.68,22.08c0.41,1.75,1.34,3.2,3.1,4.33c2.07,1.34,3.82,2.99,6.5,3.51
		c-1.03,3.08,0.76-0.56-2.89,7.64c-5.27,11.83-2.38,19.96-5.16,23.11c-0.8,1.07-2.43,12.87-2.37,18.57
		c0.05,4.76-0.33,3.84-5.06,4.85c-3.37-1.83-4.32-1.55-11.76-4.23c-3.13-1.13-3.52-2.09-8.77-8.15
		C492.68,160.76,487.53,147.73,489.95,126.1z M473.44,116.5c9.27,0,15.53-13.31,13.62-5.26c-5.41,22.81,1.32,35.4,1.65,40.04
		c0.78,11.04,7.72,19.05,14.86,27.45c5.95,7,20.99,5.77,1.86,8.77c-6.12,0.96-7.46,2.71-13.52,3.61
		c-45.72,6.77-50.62,3.61-68.93,3.61c0.19-1.92,6.17-2.35,10.42-6.6c-1.77,0.22-13.56,5.07-15.68,4.54c-3-6.46-3.42-14.84-3.92-22.7
		c-0.46-7.19,3.14-17.87,7.12-24.56c4.62-7.76,16.89-19.17,23.42-24.45c6.05-4.89,17.53-5.73,23.73-4.44
		c-2.2,2.2-14.36,1.36-16.2,3.2C474.17,122.38,470.87,116.5,473.44,116.5z M340.74,158.7c4.27-22.52-0.72-5.59,11.56-22.7
		c4.21-5.87,9.83-11.06,22.08-16.61c25.09-11.38,34.52-11.98,44.06-12.49c4.15-0.22,15.9-0.45,20.95,1.34
		c0.31,0.11,0.72-0.21,1.24-0.31c-0.62-0.93-1.03-1.65-1.65-2.58c3.72-0.41,3.94-0.59,18.57,3.3c3,0.8,5.78,2.17,8.46,3.71
		c0.1,0.1,0.1,0.41,0.21,0.72c-1.6,0-2.59-0.74-3.92-0.72c-4.19,0.04-12.92,0.84-16.51,2.99c-7.35,4.4-15.62,10.02-20.74,16.92
		c-15.88,21.41-13.86,21.05-13.1,46.43c0.27,9.18,3.73,13.17,3.2,14.24c-8.05,1.01-2.87,3.12-4.02,4.85c5.65,0,2.92,0.37,5.37,0.62
		c13.98,1.43,13.7,0.25,16.92,1.34c0.31,0.1,0.72,0.2,1.03,0.1c3.69-1.13,7.33,0.41,10.94,0.21c0,0.41,0.1,0.72,0,0.83
		c-1.44,1.24-2.79,2.88-4.44,3.82c-4.04,2.3-16.49,9.31-21.15,8.98c-2.72-0.34-11.34-6.14-16.41-14.24
		c5.03-3.46,5.93-3.25,5.26-4.75c-0.31,0-0.83-0.21-1.24,0c-3.61,1.49-5.75,2.35-5.98,3.3c-0.65,2.12-2.88,2.5-5.47,4.85
		c-4.88,4.42-24.25,10.7-30.54,12.79c-11.52-11.12-9.99-7.85-19.19-25.8c-2.03-3.96-1.73-1.58-2.79-4.23
		C341.62,179.02,338.71,169.44,340.74,158.7z M283.79,181.82c0,0.28,0.03,0.17-0.12,0.25C283.69,181.97,283.72,181.88,283.79,181.82
		z M283.44,182.24c-0.13,0.7-0.59,1.08-1.29,1.29C282.25,182.49,282.39,182.34,283.44,182.24z M126.74,255.49
		c-1.93-4.04-2.19-3.04-1.65-4.64c0.82-3.59-0.88-2.54-3.82-3.71c-2.23-0.89-0.5-1.6-3.41-6.19c-5.9-9.33-4.77-18.98-1.86-30.65
		c7.12,0,8.57,0.18,10.32-0.83c0.96-0.48,2.05,0.62,9.08-1.14c2.97-0.91,6.23,0.09,10.11,0.62c-4,5.59-4,3.83-6.81,10.01
		c3.5-2.16,6.58-4.73,9.57-7.4c2.73,5.45,8.63-3.38,56.47-17.78c8.63-2.6,14.45-7.51,18.99-7.74c22.92-1.17,40.7,1.39,43.85,0.62
		c12.14-2.96,12.45-3.92,14.41-3.04c-1.06,1.95-2.05,2.03-4.92,4.9c4.75-0.93,7.95-3.61,9.29-7.84
		c21.96-13.73,11.49-3.62,51.7-27.45c-0.9,8.06-5.16,17.07,4.13,34.05c4.85,8.87,4.39,10,8.46,17.13
		c5.96,10.43,11.97,10.79,11.97,12.79c-10.13,3.17-20.99,4.64-31.47,5.06c-21.72,0.87-11.62,5.48-48.08,2.17
		c0.1-1.55-0.62-2.23-2.06-2.37c-3.41-0.33-6.81-0.41-10.73,0.31c7.44,2.07,7.28,0.57,10.11,2.06
		c-17.31,5.41-75.49,0.81-100.92,4.95c-6.6,1.07-12.16,3.93-15.99,9.49c-1.64,2.38-4.23,2.89-6.71,3.51
		c-1.78-0.52-13.02-2.56-12.9-9.6c0.07-4.13-1.64-7.46-3.61-12.59c-0.52-0.21-1.75,0.52-1.55-1.03c-1.68,1.05-1.19,1.56,1.55,12.59
		c0.54,2.16,0.52,2.17,2.48,3.82c0.93,5.26,3.41,7.53,8.46,8.15c5.52,0.68,8.83,1.69,16.2-1.44c3.68-1.57,4.51-3.68,4.95-6.5
		c5.88-3.2,12.49-3.2,19.09-3.92c0.83,9.09,4.26,9.66,14.65,6.19c0-0.31,0-0.72-0.1-1.34c1.03-0.52,1.96-1.24,3.2-1.14
		c2.98,2.48-10.04,7.86-13.41,9.39c-3.51-0.41-7.53-1.24-11.66-0.31c-0.78,1.55,0.17,1.14,6.71,3.82c-3.1,1.14-6.09-0.72-8.98,0.62
		c0.62,2.58,2.78,3.14,4.75,3.41c5.28,0.71,7.72-2.63,5.16,5.26c-0.63,1.96-1.86,3.41-4.02,3.92c-1.52,1.65-2.5,0.95-7.33,0.52
		c-1.93,0-1.89,1.7-0.31,1.96c6.71,2.01,8.24-1.7,4.85,7.02c1.38,6.23,6.57,4.62,5.06,14.45c-8.77,2.19-6.82,2.08-11.45,3.71
		c-1.25-0.94,1.23-2.84-1.24-5.06c-0.31-0.31-0.72-0.52-0.72-0.83c-0.58-3.46-9.44-8.1-11.04-12.38c-1.35-4.4-1.06-2.98,1.24-10.52
		c1.62-1.62,2.52-0.86,2.89-4.64c0.28-2.92-2.35-4.26-3.51-5.16c3.95-2.15,5.27-2.24,7.02-6.29c0.96-2.22,2.57-6,1.14-8.15
		c-0.31,0.21-0.83,0.52-0.93,0.83c-0.52,1.14-0.93,2.27-1.14,3.51c-0.62,3.71-5.27,8.86-10.01,7.84
		c-2.93-0.63-10.41-1.22-14.03,1.34c1.65,2.89,4.54,2.48,7.22,3.41c-3.42,1.6-4.6,2.23-7.84,4.23c8.65,3.28,17.2-1.61,2.48,5.26
		c3.45,3.66,7.95,0.93,11.97-0.41c0.52,0.62,0.21,1.34,0,2.17c-3.3,1.75-7.22,2.17-10.11,4.85c8.02,5.11,5.38-0.65,8.46-0.31
		c-0.66,3.94,0.93,1.24,1.86,1.44c0.22,0.55,1.31,5.03,3.1,5.88c2.46,1.18,3.84,3.47,5.98,4.85c0.31,0.2,0.72,0.52,0.72,0.83
		c0.31,2.06,1.86,3.1,3.51,4.33c-0.21,0.62-0.52,1.34-0.72,2.06c-7.51-0.3-6.32,0.43-13.72,5.26c-19.36,0-10.6,3.12-27.76-4.23
		c-2.68-1.15-2.96-2.17-5.57-5.26c-4.74-5.61-3.71-10.79-3.71-14.14C124.05,266.3,130.38,263.12,126.74,255.49z M208.67,231.14
		c-8.88,4.74-7.11,2.13-7.64,4.75c-2.99,0.83-7.22-0.41-6.6-5.26C196.89,229.8,197.4,230.23,208.67,231.14z"/> <path d="M698.43,18.36c-0.18,0.22-0.38,0.42-0.6,0.58c0,0,0,0,0.01,0C698.17,18.71,698.34,18.52,698.43,18.36z"/> <path d="M562.29,176.81c0.18,6.26,0.36,12.57,0.55,18.88C562.88,191.73,562.65,185.97,562.29,176.81z"/> <path d="M700.13,17.45C700.13,17.45,700.13,17.45,700.13,17.45C700.13,17.45,700.12,17.45,700.13,17.45
		C700.12,17.46,700.12,17.45,700.13,17.45z"/> <path d="M651.33,111.86l-0.1,0.1C651.36,112.09,651.33,112.11,651.33,111.86z"/> <path d="M686.69,476.13c-0.37-1.67-2.01,0.14-6.17,1.11c-1.34,0.31-2.79,0.41-5.06,0.72C685.16,479.47,686.8,476.06,686.69,476.13z
		"/> <path d="M671.86,468.05l-0.1,0.1C672.09,468.25,671.99,468.25,671.86,468.05z"/> <path d="M735.12,427.09l-0.1-0.1C735.03,427.1,735.01,427.25,735.12,427.09z"/> <path d="M646.47,534.71h0.01C646.32,534.55,646.37,534.61,646.47,534.71z"/> <path d="M671.76,460.73l-0.1,0.1C671.92,460.92,671.84,460.97,671.76,460.73z"/> <path d="M713.65,496.64l0.1,0.1C713.86,496.3,713.8,496.46,713.65,496.64z"/> <path d="M724.59,506.13C724.67,506.23,724.77,506.3,724.59,506.13L724.59,506.13z"/> <path d="M725.62,459.7l-0.1-0.1C725.48,459.77,725.47,459.73,725.62,459.7z"/> <path d="M647.03,534.43C646.81,534.68,646.9,534.61,647.03,534.43L647.03,534.43z"/> <path d="M732.23,551.84c-2.78-2.78-11.37-0.51-18.88-6.6c0.52-0.72,1.03-1.14,1.86-0.72c0.92,0.57,3.27,2.5,4.54,1.75
		c3.49-2.04,5.85-1.58,9.18-4.44c0.7-1.05-0.01-2.31-1.03-1.55c-4.9,3.26-2.42,3.09-10.11-0.21c-1.55,1.16,1.69,2.09,1.55,4.23
		c-2.17,0-3.41-2.06-5.47-2.17c-5.32,1.33-9.79,3.07-11.25-0.1c-8.83-19.26-2.56-14.84-7.22-19.61c-5.06-5.17-10.47-5.14-18.88-4.75
		c-4.07,0.19-9.41,3.05-12.38,5.88c-4.75,4.02-10.07,4.33-16.41,9.08c-0.31,0.21-0.31,0.83-0.52,1.24c0.11,0.11-0.04,0.37-0.17,0.55
		c0.08-0.09,0.19-0.21,0.36-0.39c0.3,0.25,0.61,0.5,0.54,0.57c-0.48,0.88-0.97,0.65-1.45,0.1c-10.76-1.34-3.3-6.85,5.79-23.94
		c10.9-20.49,10.94-20.77,10.94-22.8c-0.43-5.16,6.99-12.21-6.4-32.3c0.92-1.84,5.29-3.1,7.84-3.2c4.96-0.19,11.95-2.02,28.79,2.58
		c5.54,1.51-3.41,4.47-10.73,7.74c-4.03,1.8-6.37-0.03-10.87-1.89c1.87,5.48,15.04,6.73,19.43,7.36c-0.11,0.11-0.36,1.02-2.06,1.34
		c-5.92,1.1-11.61,0.33-17.21-1.38c1.04,1.53,2.73,2.21,4.31,2.72c5.59,1.83,7.81,1.39,13.31,0.93c-2.59,4.74-3,4.07-2.88,4.31
		c-0.1,0.1,0.27,1.65-0.01,1.36c-2.37,3.55,4.78-4.15,12.49-18.78c-1.24,5.16-2.48,10.22-4.23,15.27c-4.05-2.7,1.54,0.29-4.85,5.06
		c-4.37,3.26-13.41,6.88-21.88,5.47c3.35,3.35,11.4,1.5,14.14,1.27c-3.5,2.35-6.33,2.14-10.22,2.14c1.01,4.03,15.99,0.66,18.78-5.88
		c0.72-1.69,2.68-3.14,2.68-2.27c-3.73,15.84-4.71,18.1-10.32,23.01c-0.93,0.72-1.86,1.44-2.68,2.17c0.21,0.83,0.72,0.92,1.14,0.72
		c1.54-0.74,2.99-1.65,4.23-2.89c8.45-9.5,20.15-14.25,23.42-44.27c0-5.25-4.62,12.66-5.88,16.61c-1.42,4.46-5.18,12.17-8.75,14.87
		c0.35-3.18,2.83-9.38,7.2-24.05c5.96-19.99,9.35-23.8,9.08-24.87c-0.48-2.89,12.97-11.41,14.38-11.45
		c-2.08,3.5-10.72,9.07-14.8,28.89c-5.11,24.84-8.27,34.53-9.08,48.5c-0.13,2.25-0.68,6.04-2.27,7.64c-0.52,0-1.03,0-1.44,0
		c-0.31,0.72-0.21,1.23,0.62,1.34c3.03,0.41,7.51-8.26,8.46-11.35c2.56-8.3,4.34-19.63,4.85-22.49c2.28,11.4,2.49,11.38,2,14.26
		c2.93-3.87,3.21-9.65,5.43-12.61c0.38,5.89,1.63,8.43-6.5,18.47c-0.51,0.63-1.46,0.82-1.86,1.44c-3.73,5.84-3.98,3.66-4.33,6.5
		c13.38-11.4,10.06-9.99,14.34-15.04c0.13,16.76,0.02,13.57,6.5,26.91c0.25-7.42-5.86-11.86-2.8-15.98c-0.89-0.71-0.59-1.7-0.4-2.59
		c2.51-11.8,6.18-18.03,11.76-27.65c2.77-5.54-8.85,7.73-13.1,25.69c-0.68-10.96,3.31-15.41,3.82-18.26
		c-2.53,0.72-1.03,1.5-1.03-8.67c0-2.48-0.31-4.95-2.17-6.71c0.71-2.85,1.32-5.49,2.03-8.22c-2.56,0.51-4.51,19.16-10.7,31.54
		c-1.34-2.17-1.22-4.23-1.44-6.29c-4.01-36.89,22.11-53.69,21.69-57.81c-2.8,2.42-8.72,9.71-10.34,11.79
		c-5.71,7.34-8.3,13.45-11.14,21.98c-0.62-0.1-1.03-0.1-1.65-0.21c1.24-27.22,31.73-42.68,33.33-37.87
		c-2.71,3.01-8.98,10.88-8.98,14.65c3.45-2.76-1.53-2.16,12.49-15.07c0.91-0.84,1.96-1.36,3.3-1.24c0.93,0.09,1.96,0.01,2.89,0.21
		c6.29,1.33,5.1,5.37,6.91,5.57c1.13-2.26-0.26-4.64-2.27-6.19c-1.86-1.44-4.33-1.66-6.5-2.48c-0.82-0.31-2.06,0.41-3.1,0.72
		c-3.44,0.76-2.84-1.32-6.91-0.31c-24.46,6.08-28.03,12.99-31.99,17.44c-25.36,28.5,3.09,18.42-41.89,2.06
		c-0.46-0.46-4.96-0.91-5.68-1.03c-5.56-0.95-12.39-4.4-15.68,1.03c5.21-1.39,6.8-1.88,9.29-0.83c6.27,2.66,8.17,0.37,15.58,5.16
		c1.64,1.06,3.3,1.76,5.06,2.27c4.02,1.16,7.64,3.3,11.97,5.78c-4.47,0.34-5.33-1.34-17.75-1.34c-8.6,0-18.1-1.82-24.25-1.44
		c-2.03,0-1.14-1.55-1.14-3.41c-0.4-3.58,0.41-3.41,0.83-4.44c0.21-0.52,0.31-1.14,0.52-1.65c-0.83-0.21-1.36,0.19-1.86,0.83
		c-2.18,2.76-0.37,4.24-1.65,9.7c-1.78,0.71,1.15,0.42-15.68,2.27c-14.91,1.64-13.16,2.4-17.13,2.06
		c-5.06-0.42-3.08,1.22-12.69,2.27c-8.11,0.89-11.69,2.34-16.41,1.44c-6.74-1.29-12.08-0.62-18.06-0.62
		c-40.98,0-25.78,0.28-48.7,4.23c-0.85-0.21-0.3,0.09-2.68-2.27c-10.8-10.68-14.4-11.36-25.28-16.72c-8.13-4-15.04-7.63-25.18-7.43
		c-20.21,0.4-46.14,0.48-63.36,12.69c-0.1,0.07-7.48,5.16-7.53,5.06c-8.71,8.71-42.16,6.99-56.65,10.11
		c-12.47,2.68-9.25,3.37-15.58,1.75c-14.85-3.79-9.56-3.8-18.57-5.98c-25.78-6.24-37.51-1.14-46.54-1.14
		c-20.57-1.65-15.86-1.04-21.57-1.34c-4-3.37-1.16-0.11-13.52-2.17c-1.1-7.68-8.53-6.28-29.82-10.11
		c-12.61-2.27-12.66-5.74-20.02,10.22c-7.14-3.76-7.38-0.32-12.69-3.61c-5.06-3.14-16.23-5.3-17.95-4.13
		c-7.25,4.92-6.27,5.01-10.83,11.35c-5.52,7.67-3.35,13.92-1.65,23.73c1.43,8.28,10.56,7.41,8.77,17.64
		c-2.06,2.17-3.37,4.82-4.44,7.53c-0.78,1.99-0.91,13.61-0.1,14.96c0.46,0.78,4.34,9.01,12.18,14.55
		c1.64,1.16,12.69,5.57,14.65,5.98c0.12,0,9.8,2.34,17.44-0.72c4.46-1.79,6.41-4.63,8.25-6.71c2.94,1.63,6.65,3.01,9.7,1.65
		c6.45-2.87,11.64-6.12,7.74-11.97c-3.54-4.56-0.71-1.69-1.24-7.02c-0.2-0.81-0.04-2.25,0.41-8.87c0.39-5.79,3.81-4.39,4.54-10.63
		c0.81-6.93,1.17-2.17,19.71,0c4.74,0.55,14.78,2.7,21.77,3.61c26.24,3.44,20.47,0.14,45.4,10.11c9.78,4.58,11.36,0.83,16.41,4.85
		c2.8,2.23,5.86,3.72,13.1,4.33c6.9,0.59,11.67,6.52,23.01,8.46c0.62,0.11,1.24,0.31,1.75,0.62c15.61,8.08,38.62,4.84,43.34,8.77
		c1.24,1.03,2.79,0.72,4.23,0.31c1.16-3.08,3,1.56,23.53-3.82c10.47-2.74,14.64-0.94,22.7-2.27c2.38-0.39,4.36-0.05,6.4,1.03
		c10.06,5.34,10.65,1.88,27.55,9.08c2.47,1.23,2.89,0.6,4.23,0.41c4.62,3.9,17.09,10.48,29.61,12.28c10.81,1.55,5.6-0.65,11.66,6.09
		c2.82,3.14,2.88,5.02,7.43,15.17c1.86,4.16,3.87,3.91,4.44,7.02c0.76,4.14,2.68,7.84,4.95,11.56c2.58,0.41,5.26,0.93,7.95,1.44
		c1.22,1.05,2.58,2.58,4.75,2.58c1.03,0.1,2.06-0.21,2.17-1.65c-0.62-0.21-1.24-0.52-1.96-0.72c-2.96-0.55-4.68-5.83-1.86-9.6
		c0.62-0.83,1.44-1.65,2.17-2.48c-0.93-0.93-0.91-1.85-0.52-2.99c4.01-11.62,10.73-30.6,17.23-41.07
		c3.53-1.14,11.46-2.25,13.83,1.44c2.65,4.13,12.13,30.09,10.83,35.29c-1.65,0.31-2.99-0.42-4.44-0.52
		c-1.86-0.12-3.54-0.79-4.85-2.27c-3.01-3.4-12.37-0.77-19.61-2.58c3.28-7.86-0.6-8.02,10.83-7.12c2.58,0.2,5.37-0.41,8.05,0.31
		c2.26,7.41,2.11,8,2.79,9.18c0.6,0.81,2.51,1.26,2.79-0.41c0-5.41-9.25-28.65-11.66-29.92c-4.54-2.39-4.03-0.09-7.64,7.02
		c-1.73,3.42-2.68,7.12-5.06,10.22c-1.4,1.6-0.46,8.98-8.98,24.66c-2.58,0-2.89-0.37-2.89,2.06c7.31,3.66,4.24,6.99,2.27,10.94
		c1.14,0.41,2.17,0.52,2.89,1.03c3.68,2.21,22.05-3.66,24.87-3.1c4.08,1.22,4.74,2.4,9.91,2.68c1.55,0.09,3.19-0.08,4.75,0.21
		c1.85,0.34,3.61,0.21,5.16-0.52c3.71,2.06,7.09,1.38,10.52,0.1c2.05-0.76,3.2-2.06,3.2-4.33c1.03-0.83,2.27-1.44,3.2-2.37
		c0.93-0.83,0.52-2.18-0.62-2.68c-4.54-1.98-18.32-7.91-22.29-10.94c1.39-2.99,1.86-2.97-0.21-11.76
		c-0.47-3.28-2.48-1.49,10.83-2.99c3.71-0.42,7.02-1.96,10.52-3.51c-1.92-1.92-0.92,0.2,7.64-8.36c0.93-0.93,3.52-3.46,3.71-4.75
		c-2.52,0.84,1.01-0.52-7.12,5.47c-10.42,7.68-10.26,7.81-12.18,7.84c-4.81,0.08-11.45,1.02-15.99-0.93
		c-10.66-22.83-7.6-20.27-16.41-23.94c1.07-3.21,1.56-6.96,2.79-8.46c18.85,4.07,19.81,4.71,22.49,4.23
		c12.61-2.26,23.32-8.15,26-10.83c3.1-3.1,17.67-3.01,30.65-32.19c3.39-7.63,4.3-15.79,0.1-23.01c-2.96-5.1-6.61-5.76-13.72-8.67
		c-5.19-2.12,6.1-1.46,11.45-2.37c3.79,6.32,6.34,7.56,7.84,17.34c0.92,5.95,1.05,14.98-2.06,20.84
		c-11.44,21.57-11.61,23.24-14.45,26.52c-4.59,5.3-9.32,16.32-2.48,17.75c1.03,0.31,2.17,0.21,3.3,0.31
		c0.21,1.55-1.86,1.86-1.65,3.71c1.14-0.83,1.96-1.44,3.41-2.68c-2.06,4.44-4.54,7.53-7.22,10.52c-5.42,3.61-13.57,7.69-20.12,7.74
		c-0.52,0-1.03,0.52-1.86,0.93c4.9,3.07,12.21-0.21,17.03-3.41c3.4-2.26,4.1-1.51,6.19-3.82c6.56-7.24,8.44-12.73,10.63-13.83
		c0.21,0.52,0.41,0.72,0.31,0.93c-1.46,2.99,0.52,4.99,0.52,8.87c0,4.45,3.07,6.23,4.44,9.08c1.47,3.06,3.4,2.89,5.26,4.13
		c10.77-1.9,13.73,4.54,15.58,4.54c2.27,0.21,4.02,1.65,6.09,2.27c2.89-0.93,2.89-0.93,3.82-3.1c2.27-0.72,4.43-1.26,6.4-2.17
		c1.85-0.85,4.44-0.52,5.98-2.89c-3.07-1.02-0.83-0.91-5.37,0c-0.1,0-0.31-0.1-0.72-0.31c0.31-1.03-0.31-2.17,0.72-3.1
		c2.75,0,3.97,1.99,6.29,2.68c12.38,3.68,7.78,1.59,15.37,3.61c4.56,1.52,10.14,2.4,13.62-0.93c0.21-0.2,0.72-0.1,1.03-0.31
		C735.12,557.62,735.32,554.11,732.23,551.84z M682.73,485.67c0.13-0.65,0.52-0.37,0.9-0.18
		C683.36,485.59,683.02,485.61,682.73,485.67z M694.46,490.75c-0.37-0.37-0.23-0.48,0.19-0.51
		C694.62,490.41,694.54,490.59,694.46,490.75z M703.65,507.06c0,1.07-0.44,1.22,1.55-10.94C714,442.29,708.17,503.36,703.65,507.06z
		 M723.46,470.94c2.2,2.4-0.03,10.75-1.34,13.72C721.7,481.47,722.12,476.62,723.46,470.94z M683.42,464.55
		c0.4-0.4-0.51-0.58,1.86-0.1C685.17,465.33,684.48,464.9,683.42,464.55z M692.4,465.58c-5.91,0-4.14,0.31,0.93-1.14
		C693.53,465.37,692.91,465.58,692.4,465.58z M688.99,462.79c1.96-1.44,4.44-1.86,6.6-2.89
		C696.97,461.86,691.38,463.36,688.99,462.79z M571.57,544.93c0.52,0.21,1.03,0.31,1.24,0.62c1.65,3.41,3.1,6.91,4.64,11.14
		c-3.41-2.17-6.19-3.82-8.05-7.02C570.02,548.02,570.54,546.47,571.57,544.93z M567.96,552.87c3.61,2.89,6.91,5.37,10.22,7.95
		c-4.44,1.34-8.67,0.72-13.21-0.62C565.69,557.52,566.72,555.25,567.96,552.87z M555.78,597.65c2.97-9.46-2.67-9.8,0.72-9.8
		c10.76,1.13,7.85,0.21,17.85,7.02C568.06,595.8,562.28,597.14,555.78,597.65z M612.74,590.64c2.25,0.74-0.87,1.53-0.53,2.89
		c-2.63,0.79-2.8-0.72-6.28-2.06c-6.13-2.36-4.43-2.72-13.93-8.56C601.15,582.33,601.03,586.79,612.74,590.64z M591.28,580.11
		c-2.89,0.1-5.37-1.24-8.05-0.41c-0.21,0.52-0.31,1.03-0.52,1.55c-1.93,0.23-3.74-1.73-5.16-0.31c0,2,8.71,3.44,10.73,3.61
		c3.5,0.29,10.06,4.61,11.66,5.88c3.08,2.46,7.02,3.1,9.08,5.78c-2.68,1.55-5.37,1.96-8.25,0.72c-0.92-3.67-2.84-4.17-6.6-4.54
		c-6.49-0.63-8.5-5.37-12.9-7.33c-9.48-4.22-8.49-3.92-9.91-3.92c0.55,0.14,0.41-0.19,0.41,1.55c0,1.02,6.29,3.79,7.22,4.23
		c7.23,3.46,7.12,6.62,14.03,7.64c1.44,0.21,2.89,0.52,4.33,0.83c-0.41,1.03-1.44,1.14-2.17,1.14c-8.28,0.59-8.41,0.19-18.99-3.61
		c-6.86-2.46-5.97-6.99-15.27-7.12c-1.86-0.03-5.84,0.21-5.16-1.24c1.63-3.47,3.1-7.02,4.64-10.42c2.27-0.41,12.18-0.1,18.26,0.52
		c0.67,0.67,2.41,3.89,5.88,3.51c2.06-0.22,3.93,0.57,5.78,1.14C590.66,579.38,590.86,579.7,591.28,580.11z M625.53,455.78
		c-4.25,0.99-11.41,4.1-12.28,2.37C617.9,456.29,621.61,455.47,625.53,455.78z M311.34,463.41c1.03,0.32,1.34,0.93,1.44,1.96
		c3.56,1.42,3.2-1.56,5.88,0.83c-21.72,5.92-8.19,1.38-23.11,2.68c-4.55,0.4-10.92-2.86-13.31-4.54c-1.79-1.26-3.73-1.96-13.72-5.78
		C282.55,455.75,297.78,459.18,311.34,463.41z M218.37,455.57c-3.98,2.85-1.55,1.65-6.09,1.65c-1.03,0.1-1.96,0.31-2.99,0.41
		c1.24-2.89,1.75-3.3,5.37-4.44C216.4,454.59,215.72,454.44,218.37,455.57z M177.4,444.63c2.48-1.24,4.31-1.97,6.5-0.72
		c5.38,3.06,11.26,1.78,19.3,3.82c4.21,1.07,8.72,0.65,12.18,2.37c-4.44,1.44-7.64,4.02-9.7,8.05c-5.59,0.93-29.52,1.96-34.15,0.1
		C172.04,453.09,175.23,449.17,177.4,444.63z M198.45,501.9c-1.04,0.26-2.63-0.24-2.79,1.14c-0.21,0.83,0.52,1.24,1.14,1.65
		c1.17,0.58,0.38,1.42-0.21,9.6c0,1.01,0.49,3.79,0.31,4.33c-1.61,4.82,5.79,7.55,1.03,10.94c-5.69,4.06-6.66,2.91-13.62,2.48
		c-0.62-0.72-1.24-1.55-1.96-2.37c1.18-3.15-0.68-3.14-5.06-8.46c-2.68-3.27-3.21-7.7-2.58-9.18c4.1-9.61-2.06-10.22,2.89-11.45
		c4.26-1.42,3.99-4.24,4.75-7.64c4.02-1.34,8.05-0.41,11.66,0.1c4.59,4.17,3.7,2.16,1.55,3.41c-0.92,0.53-1.15,1.98-0.21,2.48
		c1.22,0.65,2.48,0.93,3.82,1.44C199.69,501.18,199.28,501.69,198.45,501.9z M199.07,496.43c0.84-0.42,0.6-0.12,1.75,0.21
		C199.29,496.86,199.61,496.7,199.07,496.43z M382.33,531.93c-18.79-1.52-18.74-1.18-24.56-2.58c-19.18-4.6-24.87-8.84-27.86-9.39
		c-8.02-1.49-21.79-8.24-25.49-11.14c-2.26-1.77-4.95-2.37-8.15-3.92c0.52,1.03,0.62,1.44,0.83,1.55c1.65,0.83,3.41,1.65,4.54,3.61
		c-12.84-3.38-8.6-1.35-11.97-1.96c-1.81-0.33-0.2-1-12.9-5.16c-12.66-4.14,4-1.37-33.74-5.98c-0.1-0.01-10.5-0.82-19.91-3.51
		c-12.71-4.71-48.55-4.99-54.58-2.58c-0.1,0.52-0.31,1.24-0.52,1.86c-0.62,0.62-1.33,0.61-1.96,0c-6.96-6.8-4.55-6.94-7.84-11.04
		c-2.57-3.2-3.3-6.81-2.68-10.73c-0.62,0.31-1.24,0.72-1.96,1.14c-2.54,8.89,6.62,14,5.57,16.51c-0.1,0.31,0.2,0.83,0.52,1.24
		c6.54,8.5,4.32,8.72,18.88,2.89c1.35,0.85-0.19,3.66-1.44,4.44c-1.14,0.71-2.27,1.44-3.3,2.06c-5.68,0.52-11.04,2.17-16.61,2.06
		c-0.62,2.79,2.06,2.58,2.89,4.02c-1.24,0.62-2.79,0.31-3.61,1.86c1.03,2.06,3.61,1.24,5.16,2.48c-0.83,0.62-1.65,1.14-2.58,1.75
		c6.88,6.12,15.01-5.81,10.83,2.89c-3.73,0.75-5.93-0.74-9.29,2.06c2.48,1.34,5.06,1.14,8.25,1.34c-4.75,2.54-4.1,1.55,0.52,2.06
		c0.93-0.72,0.52-1.24,0.41-1.86c-0.18-1.11,1.45-1.34,1.86-0.1c2.55,6.07,5.02,5.05,5.26,8.98c0,2.13,2.39,2.45,1.24,4.75
		c-1.75,4.54-1.96,4.75-6.5,6.81c-1.14,0.52-2.17,0.92-3.51,0.62c-1.84-0.42-8.29,0.7-14.65-2.48c-4.56-2.28-9.75-2.44-12.9-7.22
		c-1.8-2.73-7.68-6.99-6.19-13.41c0.83-3.61,1.03-7.33,1.65-10.94c1.46-5.82,6.07-11.87-3.71-20.02c-2.15-1.79-2.59-2.9-3.92-11.66
		c-1.02-6.71-0.96-8.08-0.1-9.8c4.4-8.8,9.46-10.76,11.35-14.86c0.31-0.83,1.24-1.14,2.17-1.03c3.1,0.52,6.08,0.97,9.08,1.65
		c3.35,0.76,6.21,5.48,13.31,4.75c1.76-0.18,1.86-0.1,4.02,1.44c-0.31,0.62-0.62,1.14-1.14,1.96c-1.43,0-2.57-0.98-3.71,0.21
		c-3.49,3.62-7.64,8.22-7.64,13.41c2.58-1.29,0.95-2.19,9.18-11.45c2.17,0.21,4.12,0.33,5.98,0.62c2.2,0.34,5.07,3.13,11.76,2.37
		c1.24-0.14,13.1-1.06,13.93-0.83c5.54,1.19,10.98-0.3,22.08-0.83c9.96-0.47,8.54-1.96,17.95-1.86c15.08,0.16,32.67,1.04,45.71,8.98
		c10.9,6.63,17.21,2.19,22.08,5.06c-4.02,0.52-7.43,0.93-10.52,1.34c-2.89-1.96-2.89-1.96-6.29-1.75c4.64,3.1,12.69,3.61,18.99,1.34
		c0.1-0.52,0.31-1.14,0.52-1.75c25.66-7.26,25.89-7.25,66.76-11.35c4.22-0.42,3.6-0.83,7.95-0.83c-3.58,9.54-0.56,1.6-3.3,8.25
		c-6.51,15.81-4.46,28.26-4.85,29.2c-1.17,2.82,0.1,6.42,0.1,6.91C377.48,526.7,385.42,531.93,382.33,531.93z M170.18,508.4
		c-0.41,0.1-0.83,0.1-1.34,0.21C169.22,507.58,170.18,507.13,170.18,508.4z M166.98,504.58c-0.37,0-0.31,0.03-0.31-0.1
		L166.98,504.58z M437.43,528.52c-1.28,0.18-5.28,0.26-8.25,0.62c-26.9,3.22-22.24,4.22-41.69,3.2c-1.24-1.24-2.58-2.17-2.06-4.33
		c0.65-1.62-1.94-0.77-4.54-8.67c-8.6-26.12-7.82-25.2,6.29-62.32c0.1-0.03,10.83-2.54,14.14-6.5c3.17-4.76,24.92-10.6,31.06-11.56
		c6.58-1.03,17.52-0.34,23.63,0.21c2.64,0.24,6.19,2.34,9.91,3.82c3.79,1.51,3.55-0.38,7.33,1.24c1.27-1.27-2.51-3.18-4.23-3.61
		c-1.75-0.44-3.41-1.14-4.85-2.48c2.68-0.72,3.51-0.62,8.98,0.52c0.21,0.52,0.52,1.03,0.83,1.75c5.08,0,3.37-0.29,26.21,10.32
		c3.89,1.81,4.52,2.56,10.83,8.87c-9.64,2.41-14.48,2.68-20.74,6.29c-26.68,15.41-27.56,18.36-35.29,26.42
		c-4.76,4.96-9.43,8.32-12.79,15.99C438.37,516.98,440.47,519.39,437.43,528.52z M488.85,471.5c0.06-0.38,0.33-0.56,0.69-0.56
		c0.8-2.71,0.84-2.79,3.7-2.69c-3.45,2.79-2.12,2.16-3.7,2.69C489.63,471.52,489.44,471.72,488.85,471.5z M511.21,552.36
		c-19.41-3.18-22.67-8.51-45.2-16.61c-0.72-0.21-1.34-0.52-2.27-0.93c1.75-0.52,3.2-1.03,4.75-1.55c-8.34-1.73-7.1,1.58-23.22-2.06
		c-12.49-2.83,3.05-28.86,6.91-29.92c1.43-0.39,19.4-24.16,36.41-29.54c-0.89,2.18-1.71,4.32-3.5,5.81c0,2.79,0.44,5.36,1.34,7.74
		c2.72,7.15,5.2,23.14,8.46,33.23C499.77,533.54,515.75,553.87,511.21,552.36z M542.57,592.08c-2.06,1.24-4.23,0.52-6.19-0.83
		c-0.94-0.57-2.09-5.8-2.17-6.19c-1.59-8.07-5.42-8.53-7.02-13.52c-0.01-0.03-0.02-0.06-0.03-0.09c0.14,0.25,0.57,0.32,1.89,0.92
		c-8.97-17.94-11.6-16.03-20.53-32.92c-13.01-24.61-6.14-8.37-21.15-58.4c3.49-9.43,4.97-8.54,24.66-15.89
		c4.71-1.76,19.53-3.69,27.24-4.75c1.87-0.26,2.72-0.21,15.48-0.21c8.15,0,25.39-2.25,29.3-0.21c2.29,1.2,4.85,0.52,7.22,0.72
		c1.13,0,3.46-3.18,11.97-1.96c-0.93,0.41-1.24,0.72-1.55,0.62c-2.06-0.52-3.84,0.28-5.47,1.44c-3.85,2.76-8.34,3.58-11.25,14.24
		c-8.04,29.5-7.26,27.06-7.74,28.17c-6.56,0.82-8.12,1.06-9.49,0.41c-3.53-1.66-6.25-0.1-13.83-0.1c-3.27,0-6.32-0.61-17.44-1.96
		c-0.72-2.37-0.83-5.06-3.2-6.6c-0.72,0.31-0.41,0.83-0.31,1.24c0.34,0.89,2.55,6.92,2.58,8.36c0.48,23.15-0.5,15.66,1.55,31.27
		c0.59,4.51,8.5,18.97,11.87,29.61C550.29,569.64,548.84,570.14,542.57,592.08z M527.1,571.03c0,0.11,0.01,0.2,0.02,0.27
		C527.06,571.14,527.02,571.03,527.1,571.03z M576.01,506.44c-0.52,4.13-1.75,7.74-3.1,12.18c-2.48-4.13-2.48-7.74-1.86-11.76
		C572.7,506.23,574.15,506.23,576.01,506.44z M551.45,560.3c-1.85-0.53-1.65-0.46-1.96-1.14c-18.52-39.53-8.48-18.33-12.07-54.28
		c2.17-0.31,4.64,0.1,7.95,1.24c-1.55,12.04-2.75,10.83-0.72,23.01c1.1,6.58,0.69,12.2,9.7,26.31
		C554.13,557.41,552.17,558.44,551.45,560.3z M555.68,552.15c-1.55-1.85-6.53-13.22-6.71-13.62c-1.88-4.34-1.19-5.79-1.03-28.89
		c0.04-6.12,0.15-1.13,10.01-1.75c13.44-0.85,9.18-1.64,9.18,2.68c0,4.89-0.33,7.04,4.44,13c-0.93,4.23-2.17,8.46-3.51,12.9
		C563.46,535.81,564.02,534.08,555.68,552.15z M573.12,532.75c-0.72,2.16-0.88,4.48-2.99,2.89c0.68-3.41,8.71-30.69,15.07-56.13
		c1.93-7.72,3.32-12.75,11.25-16.72c1.03-0.52,2.06-0.93,3.2-0.62c0.31-0.93,0.93-0.83,2.06-0.31c-2.6,0.29-1.96,0.21-3.3,1.55
		C587.98,471.67,589.45,473.05,573.12,532.75z M644.21,460.21c4.65,3.39,3.97,1.28,5.68,2.99c6.24,5.07,6.66,24.55,1.96,28.89
		c-2.5,2.62-5.89,7.19-13.1,14.96c-8.2,8.84-15.83,10.14-22.91,14.86c-1.44,0.21-2.89,0.21-3.71,1.86
		c-0.45,0.9-3.63,1.56-12.59,4.02c-2.44,0.67-2.94-0.3-7.64,0.1c-5.58,0.48-9.96-1.77-14.45-4.33c0.1-2.58,2.68-12.79,4.64-18.06
		c4.68-1.5,5.92-0.18,10.94,1.75c0-1.34-0.83-1.96-1.24-2.79c-0.21-0.52-0.41-1.03-0.83-1.24c-6.24-2.5-8.45,0.22-7.74-2.48
		c5.93-22.43,7.01-33.97,21.15-37.87c2.34-0.88,3.33,0.18,4.75-1.24c1.16-0.97,3.15-0.86,15.27-3.82c2.7-0.66,3.44-0.85,9.8,0.21
		C637.36,458.57,638.92,456.35,644.21,460.21z M636.47,455.98c0.31-0.31,0.29-0.22,0.52,0c-0.1,0-0.21,0.1-0.31,0.1
		C636.58,455.98,636.47,455.98,636.47,455.98z M626.77,453.61c0.1-0.1,0.21-0.52,0.31-0.52c0.83-0.31,1.76-0.74,2.48-0.52
		c2.82,0.87,12.4-1.28,12.69-1.14c3.9,1.22,7.1-0.35,10.63,0.83C624.5,454.37,629.19,456.02,626.77,453.61z M676.51,519.13
		c5,1.54,5.44,1.2,8.05,1.55c0,3.5-0.26,0.67-3.61,21.36c-4.98-0.45-5.49-0.2-5.98-3.92c-0.45-3.34-2.83-12.07-3.82-16.3
		C673,520.88,674.75,520.06,676.51,519.13z M683.08,561.95c-3.38,0.19-5.76-2.27-8.95-3.41c-1.55-1.97-5.44-1.9-7.95-1.86
		c-7,0.11-7.07-5.5-10.11-6.81c-0.51-0.22-1.14-1.14-1.14-1.75c0-1.65-0.83-3.3,0.41-4.95c0.86-0.86-0.15-5.71-0.93-9.91
		c3.07-3.35,8.87-4.14,12.38-8.77c0.71-0.94,1.75-1.34,2.89-1.55c1.11,2.78-0.71,6.55,1.14,8.56c0.89,1.11-0.25,7.77,3.51,11.76
		c1.86,0.52,4.13,1.24,6.29,1.86c0.41,4.75,0.31,7.53-0.52,10.32c4.93,1.97,6.43,1.7,6.5,5.98
		C686.67,564.45,684.93,564.7,683.08,561.95z M688.48,559.48c-0.62-3.3-3.3-4.13-5.68-5.16c-0.41-8.05,2.27-26,4.95-33.54
		c3.31-0.83,2.27-1.73,1.75,29.51c-0.04,2.57-3.69-0.86-5.06,1.75c1.44,0.41,2.58,0.91,3.82,1.24c1.45,0.39,1.03,2.17,1.96,2.89
		c0.52,0.1,1.03,0.1,1.65,0.21C691.47,558.34,689.82,558.55,688.48,559.48z M692.61,522.02c0.41,0.31,0.72,0.31,1.03,0.52
		c6.63,9.94,1.01,6.57,7.33,20.64c-0.62,0-1.24,0.21-1.75,0c-4.6-1.91-3.28-2.58-6.71-2.58
		C691.78,536.78,691.88,525.73,692.61,522.02z M729.75,557.1c-0.85,1.48-1.47,3.05-3.3,2.68c-9.18-1.2-8.99-2.5-14.86-2.89
		c-8.67-0.58-11.56-5.33-19.19-4.85c-0.55-1.94-0.27-2.46-0.21-5.88c0.12-5.78,4.19,0.62,7.84-0.52c1.65-0.51,3.2,0.41,4.64,0.93
		c2.26,0.97,1.24,1.61,3.71,0.83c5.54-1.75,9.1,4.87,14.55,5.78c-0.72,0.31-0.72,0.31-1.44-0.21c-6.84,0-6.31-3.34-10.42-3.92
		c-11.58-1.63-6.25-1.43-10.52-0.72c1.34,1,0.35,1.21,9.08,2.99c4.94,1.01,4.27,3.47,9.7,4.23c8.7,1.21,9.12,3.57,9.8-0.72
		c3.68,0.92,2.33,0.55,3.1,0.93C732.13,557.52,730.89,555.97,729.75,557.1z"/> <path d="M760.4,496.33l0.1-0.21C760.36,496.15,760.37,496.16,760.4,496.33z"/> <path d="M759.68,497.77l0.1-0.21C759.63,497.6,759.65,497.6,759.68,497.77z"/> <path d="M781.86,460.01c-1.46-4.23-3.84-7.7-7.74-10.01c-3.94-2.33-7.95-4.85-12.69-5.98c0.94-12.2-1.46-3,1.86-13.62
		c-0.81-0.41-1.24-0.65-1.96,0.72c-2.04,3.88-1.91,9.73-1.75,15.58c0.26,9.46,4.22,17.23,3.51,28.38c-0.5,7.85-3.74,17.91-4.75,18.6
		c0-2.93,0.32-8.34-2.26-4.99c0.6,0.42,0.71,1.08,0.71,1.76c0,2.87-1.35,4.64-1.97,5.88c-0.08-0.34-0.17-0.6-0.25-0.86
		c-10.2,17.79-19.11,17.78-21.32,22.94c0.72,0.1,1.24,0.21,1.65,0.1c12.27-4.91,18.24-16.01,19.69-16.29
		c-0.18,0.68-0.21,1.36-0.6,1.95c-5.16,7.75-5.26,7.24-4.85,7.95c1.15,0.43,20.89-24.19,16.41-47.05
		c-2.87-14.63-4.01-15.93-1.44-12.07c0.52,0.62,1.22,1.15,1.75,1.86c2.69,3.6,5.87,10.04,5.98,14.76c0.01,0.62,0.41,1.14,0.62,1.75
		c0-15.44-4.85-19.23-4.85-21.36c8.11,6.63,6.38,7.76,8.98,8.98c-0.66-2.96-3.98-5.73-4.13-7.95c3.71,2.58,5.98,6.09,7.22,10.52
		c16.21,42.15-4.42,50.38-10.11,59.33c-0.06,0.13-8.1,8.61-18.37,7.95c-5.9-0.38-10.96,10.85-14.14,14.03
		c-3.3-0.1-4.33-3.2-7.02-4.64c0.26,2.3-0.73,1.09,2.06,4.33c5.98,6.97,9.1-1.85,14.24-8.25c3.66-4.57,9.18-0.72,19.09-6.91
		c7.9-4.33,6.53-6.73,9.6-9.39C794.8,500.86,789.53,482.25,781.86,460.01z M754.68,502.07c0.18-0.4,0.39-0.82,0.57-1.22
		C755.28,501.35,755.3,501.81,754.68,502.07z M755.44,500.47c0.14-0.28,0.31-0.58,0.46-0.87
		C755.87,499.96,755.8,500.29,755.44,500.47z M763.49,448.04c-0.74,0.15-1.5,0.11-1.14-0.62c1.67,0,1.21,0.18,1.44,0.41
		C763.7,447.83,763.6,447.93,763.49,448.04z"/> <path d="M761.12,494.78l0.1-0.1C761.15,494.7,761.12,494.71,761.12,494.78z"/> <path d="M754.62,495.4l-0.1-0.1C754.59,495.52,754.58,495.48,754.62,495.4z"/> <path d="M758.95,499.22l0.1-0.1C758.93,499.14,758.95,499.17,758.95,499.22z"/> <path d="M759.16,451.03c-4.33-19.34-5.31-14.05-3.1-23.63c-2.26,0.68-1.67,2.66-2.06,2.27c0,22.91,12.9,28.96-9.18,71.4
		c-0.19,0.37-0.62,0.5-1,0.74c0.26-1.64,12.6-30.88,10.6-53.88c-0.97,10.64-1.03,12.37-2.68,22.29c-0.25,2.28-1.62,2.03-1.96,3.71
		c-1.23,4.62-0.91,13.12-10.94,28.38c-0.82,1.24-1.55,2.48-3.1,3.41c0.43-3.03,4.5-6.28,8.46-23.42c0.21-0.93,0.41-1.86-0.41-3.1
		c-6.84,26.01-20.72,42.5-3.71,23.22c2.43-2.76,4.15-6.13-1.48,7.55C740.6,509.21,765.9,481.1,759.16,451.03z M743.68,502.21
		c-0.14,0.14-0.08,0.08,0-0.04C743.68,502.18,743.68,502.2,743.68,502.21z"/> <path d="M738.42,510.05l0.1,0.1C738.62,509.87,738.65,509.97,738.42,510.05z"/> <path d="M772.57,515.31c4.55-4.49,9.06-10.92,10.11-17.23c-12.71,20.94-2.31,2.29-2.58-1.75c-4.44,7.72-6.32,11.79-12.59,18.06
		c-1.03-0.62-2.06-1.24-3.3-1.96c1.85-2.2,12.73-10.08-1.55-1.24c-0.83-0.41-1.55-0.72-2.27-1.03c-0.72,0.72,0,1.24,0,1.75
		c0,0.62-0.21,1.24-0.31,1.96c3.1-0.31,3.1-0.31,6.09,0.93c0.1,0.1,0.1,0.41,0.21,0.62c-0.1,0-1.44,0.62-1.55,0.72
		C768.65,518.2,769.77,518.08,772.57,515.31z M776.09,508.09c-0.15,0.2-0.35,0.36-0.57,0.51
		C775.63,508.29,775.79,508.1,776.09,508.09z M775.29,508.95c-0.08,0.24-0.23,0.37-0.45,0.39
		C774.98,509.19,775.13,509.07,775.29,508.95z M774.55,509.61c0.07,1-0.46,1.57-1.26,2.03C773.3,510.75,773.99,510.17,774.55,509.61
		z M773.16,511.8c-0.1,0.34-0.29,0.63-0.67,0.62C772.51,512.02,772.7,511.77,773.16,511.8z M772.27,512.64
		c-0.85,2.01-1.5,2.66-3.34,3.43C769.56,514.49,770.86,513.42,772.27,512.64z M768.55,516.24c0.14,0,0.14-0.04-0.1,0.21
		C768.45,516.34,768.55,516.24,768.55,516.24z"/> <path d="M758.23,507.88c2.03,3.66,9.6-4.29,10.11-4.44c5.55-1.64,11.76-21.03,8.67-30.13c0,8.86,0.26,11.19-4.02,22.6
		c-1.68,2.93-1.45,4.03-2.68,3.92c-1.24-0.21-1.23,0.94-1.75,1.44c-1.58,1.54-7.23,6.39-9.08,5.16
		c0.95-1.42,10.35-13.34,10.01-19.19c-4.49,6.74-5.28,9.05-10.73,16.92C757.97,505.29,757.28,506.17,758.23,507.88z"/> <path d="M738.71,490.86c-0.01-0.01-0.02,0.06-0.08,0.2l0.1,0.1C738.71,490.98,738.71,490.88,738.71,490.86
		c0.3-0.74,0.66-1.41,0.85-2.16c7.97-32.1,4.59-25.14,4.33-23.32c-5.43,24.42-12.18,29.27-14.84,36.66c0-0.03-0.06,0-0.12-0.04
		l0.1,0.1c0.02-0.03,0.02-0.05,0.02-0.06c0.63,0.19,0.49-0.35,0.49,1.41c2.66,0.38,7.01-10.49,9-14.99
		C738.62,489.23,738.64,490.04,738.71,490.86z M729.66,502c0.02-0.47,0.22-0.66,0.68-0.62C730.24,501.71,730.05,502.01,729.66,502z
		 M730.59,501.11c0.13-0.33,0.27-0.66,0.4-1C730.97,500.51,730.88,500.86,730.59,501.11z"/> <path d="M711.69,80.59c1.35,0,0.5,2.19,1.55-13.52c-3.41,1.31-3.5,11.19-5.57,11.97c-0.1-0.21-0.31-0.41-0.31-0.62
		c-0.85-14.51,1.02-13.82,0.52-19.4c-3.97,12.6-1.85,27.64-0.1,24.15C714.4,66.06,710.62,76.66,711.69,80.59z"/> <path d="M723.77,94.52c7.66-3.96,13.2-21.39,12.07-32.19c-1.65,10.99-6.08,27.03-12.79,31.06c-0.93-0.21-1.65-0.41-2.37-0.52
		C721.29,94.52,722.74,94.21,723.77,94.52z"/> <path d="M695.08,115.16c0.52,0.21,1.14,0.21,1.24,0.52c0.41,1.03,1.03,1.55,2.17,1.55c0.41,0,0.83,0.41,1.24,0.62
		c1.03-0.52,1.86-1.14,2.99-1.75c-0.72-2.17-0.72-2.26-2.17-2.06c-2.71,0.36-6.13-5.36-7.33-7.84c-1.24-3.09-2.34,2.58-0.41,5.47
		C693.53,112.89,694.36,114.03,695.08,115.16z"/> <path d="M780.11,466.3c0.54,8.92,1.53,12.34-2.89,30.03C782.18,488.42,783.77,473.1,780.11,466.3z"/> <path d="M706.95,113.51c4.54,1.14,0.87-6.54-7.33-11.66c-0.1,0.72-0.21,1.44-0.31,1.96C709.08,115.14,705.77,112.92,706.95,113.51z
		"/> <path d="M702.92,30.76c-0.31,0.62-0.83,1.14-1.34,1.75c-4.1,7.8-6.83,16.72-5.68,25.38C699.4,32.06,703.47,34.6,702.92,30.76z"/> <path d="M755.96,424.72c0.21-1.14-0.51-1.66-1.34-1.75c-6.06-0.68-11.87,8.93-11.87,11.56c1.14,0.21,1.03-0.83,1.24-1.34
		C746.6,428.46,750.69,423.74,755.96,424.72z"/> <path d="M699.11,82.97c-4.24-10.24-3.32-15.25-5.47-21.26C694.31,82.22,701.11,85.97,699.11,82.97z"/> <path d="M733.05,523.98c-1.13,4.72,4.27,9.31,8.15,6.4C739.33,527.57,735.57,529.02,733.05,523.98z"/> <path d="M695.39,85.75c-4.02-5.57-6.4-11.56-7.53-18.37C686.9,73.17,690.72,84.03,695.39,85.75z"/> <path d="M761.33,494.57l-0.1,0.1C761.33,494.68,761.36,494.67,761.33,494.57z"/> <path d="M757.92,503.55c3.14-4.85,7.81-12.58,8.54-18.33c-1.4,0.41-3.54,9.23-5.13,9.44c0.08,0.66-0.04,1.29-0.72,1.53
		c0.04,0.61-0.15,1.12-0.73,1.42c-0.01,0.62-0.14,1.15-0.72,1.44C759.13,500.47,757.61,501.51,757.92,503.55z"/> <path d="M760.59,496.02l-0.09,0.21C760.6,496.2,760.63,496.18,760.59,496.02z"/> <path d="M759.16,499.01l-0.1,0.1C759.1,499.09,759.16,499.06,759.16,499.01z"/> <path d="M759.88,497.46l-0.1,0.21C759.87,497.62,759.88,497.61,759.88,497.46z"/> <path d="M535.45,154.37c-0.37,0.56-0.52,1.33-0.21,1.96c1.5,3.87,5.37,9.87,5.37,8.77C538.39,159.55,537.29,152.54,535.45,154.37z"/> <path d="M713.24,25.8c-1.34,4.13-1.75,11.25-1.03,18.06C712.52,37.67,713.96,32.1,713.24,25.8z"/> <path d="M704.16,88.02c0.1,0.31,0.41,0.62,0.72,1.14c0.21-0.83,0.31-1.14,0.31-1.44c-1.64-14.74-1.04-10.55-1.65-11.76
		C703.13,78.53,703.5,85.87,704.16,88.02z"/> <path d="M745.95,527.59c2.15-1.19-2.18-4.66-4.64-5.57c-0.41-0.1-0.93,0.1-1.44,0.1C741.72,524.5,743.48,526.04,745.95,527.59z"/> <path d="M528.54,221.96c0-0.21-0.31-0.31-0.52-0.41c0.1,4.75,0.52,6.29,2.27,8.25c0.71-1.41-0.71-0.07-1.03-4.64
		C529.26,224.12,528.85,222.99,528.54,221.96z"/> <path d="M532.15,338.56c0.31,2.37,1.69,6.71,2.99,4.75C534.63,341.55,533.7,339.9,532.15,338.56z"/> <path d="M689.2,511.7c1.75,1.24,2.89,2.27,4.95,1.86C693.02,511.7,691.47,511.5,689.2,511.7z"/> <path d="M536.38,213.6c-1.97,5.9-1.43,4.44-1.75,7.02C536.24,218.66,537.98,213.4,536.38,213.6z"/> <path d="M534.73,230.52c0.03,0.04,2.94,3.96,3.41,4.54C537.52,231.24,536.8,230.32,534.73,230.52z"/> <path d="M541.03,171.81c0.18-1.26,0.84-3.18-0.62-2.89c-0.21,0-0.52,0.52-0.52,0.72c0.21,0.83,0.52,1.55,0.72,2.27
		C540.72,171.91,540.92,171.91,541.03,171.81z"/> <path d="M693.84,54.69c-0.1,1.03-0.1,2.06-0.1,3.2C693.9,57.89,693.84,58.26,693.84,54.69z"/> <path d="M536.8,99.99c-0.31,0.83,0,1.24,1.24,2.06c0.52-1.55,0.51-1.94-0.41-2.37C537.41,99.58,536.9,99.79,536.8,99.99z"/> <path d="M731.82,66.15c1.14-1.34,0.52-2.89,0.21-4.33C732.02,63.26,731.92,64.7,731.82,66.15z"/> <path d="M729.55,75.02c0,0.29-0.05,0.21,0.05,0.15c0.1,0.1,0.05,0.06,0.05-0.05c0-0.13,0.01-0.1-0.04-0.05L729.55,75.02z"/> <path d="M729.54,75.23c-1.04,0.92-1.34,2.22-1.43,3.51C729.08,77.76,729.58,76.66,729.54,75.23z"/> <path d="M731.71,66.15c-0.68,1.07-0.63,2.33-0.62,3.59C731.63,69.13,731.71,69.73,731.71,66.15z"/> <path d="M731.04,69.8c-0.1-0.1-0.05-0.07-0.05,0.15c0.02-0.02,0.03-0.03,0.05-0.05l0.05,0.06
		C731.09,69.78,731.11,69.67,731.04,69.8z"/> <path d="M650.51,111.34c0-0.72,0.41-1.65-0.72-2.37C649.89,109.9,649.78,110.72,650.51,111.34z"/> <path d="M539.58,239.4c-0.74,0.37-0.05,0.85,0.41,1.55c0.39-0.39,0.59-0.05-0.1-1.44L539.58,239.4z"/> <path d="M531.43,331.13c-0.8,2-0.74,0.97-0.31,2.68C531.59,333.81,531.65,334.03,531.43,331.13z"/> <path d="M646.38,86.99c0.59,0,0.21,0.16,0.21-1.55C646.31,85.44,646.38,85.21,646.38,86.99z"/> <path d="M726.01,83.13c-0.04,0.1-0.08,0.11-0.11,0.29C726.08,83.38,726.04,83.39,726.01,83.13z"/> <path d="M724.49,85.55c0.68-0.59,1.18-1.27,1.4-2.13C724.79,83.68,724.59,84.56,724.49,85.55z"/> <path d="M770.3,484.46l-0.1-0.1C770.15,484.64,770.2,484.54,770.3,484.46z"/> <path d="M769.58,487.35c0.77-0.87,0.56-1.83,0.61-2.8C769.22,485.28,769.58,486.36,769.58,487.35z"/> <path d="M753.69,442.88c0-1.54,0.04-1.34-0.1-1.34C753.59,443.08,753.55,442.88,753.69,442.88z"/> <path d="M731,69.97c-0.79,0.82-0.53,1.9-0.63,2.89C731.24,72.08,731.02,71.03,731,69.97z"/> <path d="M756.06,488.59c-0.36,0.72-0.85,1.2,0,2.79C756.06,489.23,756.06,488.7,756.06,488.59z"/> <path d="M729.44,503.34c-0.21,0.52-0.62,0.93-1.24,1.65C729.34,504.68,729.55,504.07,729.44,503.34z"/> <path d="M730.27,72.75c-0.76,0.67-0.65,1.51-0.62,2.28C730.35,74.41,730.27,73.54,730.27,72.75z"/> <path d="M683.73,510.46c0.26-0.26,0.3-0.11-0.21-0.62C683.15,510.22,683.56,510.46,683.73,510.46z"/> <path d="M754.62,495.29l0.1,0.1C754.77,495.27,754.74,495.29,754.62,495.29z"/> <path d="M755.14,492.92c-0.2,1.26-0.3,1.88-0.39,2.37C755.56,495.29,755.36,495.69,755.14,492.92z"/> <path d="M766.47,485.22c0.03-0.01,0.07-0.03,0.11-0.06C766.45,485.04,766.5,485.06,766.47,485.22z"/> <path d="M766.69,483.43c0,0.71-0.1,1.22-0.1,1.73C766.88,484.93,767.18,484.21,766.69,483.43z"/> <path d="M766.59,485.16c-0.01,0-0.01,0.01-0.02,0.01c0.01,0.01,0.01,0.01,0.01,0.02C766.59,485.17,766.59,485.17,766.59,485.16z"/> <path d="M541.75,178.93c-0.33,0-0.41-0.16-0.41,1.14C541.87,180.06,541.75,180.24,541.75,178.93z"/> <path d="M726.04,458.25c0,0.83,0,1.34,0,1.86C726.24,459.49,726.66,459.08,726.04,458.25z"/> <path d="M709.22,55.11v0.21C709.35,55.05,709.35,55.11,709.22,55.11z"/> <path d="M708.6,57.17l-0.1,0.31C708.63,57.48,708.6,57.54,708.6,57.17z"/> <path d="M671.56,467.54c-0.1,0-0.21,0.1-0.31,0.1c0.31,0.1,0.52,0.21,0.83,0.31C671.86,467.85,671.76,467.64,671.56,467.54z"/> <path d="M770.3,483.53c0,0.32,0,0.6,0,0.93C770.52,483.81,770.63,483.86,770.3,483.53z"/> <path d="M703.03,30.86c0.41-0.21,0.72-0.41,0.21-0.93C703.13,30.24,703.13,30.55,703.03,30.86z"/> <path d="M628.94,545.13c-0.18,0.18-0.31,0.01-0.31,0.41C629.3,545.55,628.94,545.32,628.94,545.13z"/> <path d="M713.86,497.16c0.01,0.06,0.1-0.13,0.1-0.42C713.89,496.96,713.87,497.11,713.86,497.16z"/> <path d="M536.07,97c0.28-0.28-0.04-0.14-0.21-0.31C535.74,96.82,535.68,97,536.07,97z"/> <path d="M530.71,323.7c-0.1,0.1-0.21,0.1-0.31,0.21c0,0,0.1,0.1,0.1,0.21C530.73,323.88,530.71,324.22,530.71,323.7z"/> <path d="M698.38,101.75c-0.1-0.1-0.1-0.21-0.1-0.31C697.94,101.44,697.97,101.75,698.38,101.75z"/> <path d="M534.53,220.51c-0.1,0.21-0.21,0.52-0.1,0.31C534.32,221.03,534.53,220.82,534.53,220.51z"/> <path d="M726.74,81.7c0.63-0.24,0.64-0.83,0.64-1.41C726.71,80.57,726.67,81.12,726.74,81.7z"/> <path d="M726.76,81.83c-0.04-0.16,0.03-0.15-0.1-0.1c-0.74,0.26-0.73,0.78-0.65,1.4C726.73,81.5,726.63,81.71,726.76,81.83z"/> <path d="M738.32,510.36c0,0.21,0.1,0,0.1-0.31C738.32,510.36,738.21,510.57,738.32,510.36z"/> <path d="M751.83,432.56h0.1C752.79,429.14,751.85,432.45,751.83,432.56z"/> <path d="M728,78.63c-0.09,0.54-0.26,1.06-0.51,1.47C728.07,79.83,728,79.19,728,78.63z"/> <path d="M727.49,80.1c-0.06,0.03-0.13,0.06-0.22,0.08C727.43,80.33,727.35,80.31,727.49,80.1z"/> <path d="M739.76,521.71c0,0.07,0.05,0.13,0.11,0.21C739.87,521.81,739.86,521.71,739.76,521.71z"/> <path d="M739.97,522.02c-0.03-0.03-0.06-0.07-0.09-0.1C739.88,521.98,739.91,522.02,739.97,522.02z"/> <path d="M697.45,520.27l0.1-0.21C697.29,520.06,697.32,520.01,697.45,520.27z"/> <path d="M730.99,512.32c0,0.1-0.1,0.21-0.1,0.31C730.99,512.63,731.09,512.53,730.99,512.32z"/> <path d="M731.2,512.11c-0.1,0.1-0.1,0.21-0.1,0.31C731.09,512.32,731.2,512.22,731.2,512.11z"/> <path d="M725.21,506.65c0.07-0.1,1.6-1.81-0.1-0.1L725.21,506.65z"/> <path d="M726.04,505.61c-0.12,0.25-0.1,0.18-0.1,0.31L726.04,505.61z"/> <path d="M727.28,503.45l-0.1,0.21C727.3,503.53,727.28,503.58,727.28,503.45z"/> <path d="M773.92,503.55c-0.14,0.14-0.13,0.1,0,0.1C774,503.41,774.11,503.17,773.92,503.55z"/> <path d="M727.38,503.55c0.21-0.31,0.52-0.52,0.72-0.83C728,502.79,727.19,503.36,727.38,503.55z"/> <path d="M728.93,502l-0.1-0.1C728.33,502.64,727.43,503.5,728.93,502z"/> <path d="M699.11,84.1h0.31C699.17,83.98,699.24,83.97,699.11,84.1z"/> <path d="M724.11,85.67C724.44,85.41,724.47,85.34,724.11,85.67L724.11,85.67z"/> <path d="M724.11,85.67c-0.14,0.11-0.32,0.24-0.55,0.4c0.12,0.12-0.86,0.48-0.62,0.72C723.52,86.21,723.88,85.87,724.11,85.67z"/> <path d="M722.84,86.99c0.13-0.13,0.13-0.08,0-0.21V86.99z"/> <path d="M720.26,92.56c0.1,0.1,0.31,0.1,0.52,0.21C720.67,92.56,720.67,92.05,720.26,92.56z"/> <path d="M685.38,479.2c0.84-0.84,0.76-0.69,0.62-0.83C685.79,478.58,685.59,478.79,685.38,479.2z"/> <path d="M685.38,479.09l-0.1-0.1c-0.1,0.14-0.18,0.26-0.26,0.37C685.12,479.28,685.24,479.19,685.38,479.09z"/> <path d="M685.01,479.36C684.33,479.89,684.48,480.04,685.01,479.36L685.01,479.36z"/> <path d="M683.94,480.64c0.52-0.78,1.14-1.34-0.1-0.1C683.56,480.72,682.51,482.07,683.94,480.64z"/> <path d="M682.49,482.09c0.84-0.84,0.76-0.69,0.62-0.83C682.8,481.57,682.6,481.78,682.49,482.09z"/> <path d="M682.39,482.09C681.98,482.5,682.6,481.98,682.39,482.09L682.39,482.09z"/> <path d="M738.42,491.06l0.1-0.1C738.39,490.83,738.42,490.8,738.42,491.06z"/> <path d="M736.56,426.26c-0.25,0.51-0.31,0.51,0,0.21C736.56,426.37,736.56,426.37,736.56,426.26z"/> <path d="M736.25,426.68c-0.19,0.27-0.43,0.47-0.63,0.72c0,0-0.05,0.02-0.2,0l0.1,0.1c0.04-0.09,0.09-0.1,0.09-0.1c0,0,0,0,0,0
		C736.08,427.41,736.25,427.13,736.25,426.68z"/> <path d="M756.17,427.5c0-0.1,0.1-0.21,0.1-0.21S756.17,427.3,756.17,427.5z"/> <path d="M753.17,430.29l0.1,0.1C753.36,430.31,753.36,430.35,753.17,430.29z"/> <path d="M753.35,430.32c0.22,0.06,0.4,0.07,0.65,0.07C753.71,429.81,754.29,429.38,753.35,430.32z"/> <path d="M754,429.67l-0.1-0.1C753.9,429.82,753.89,429.77,754,429.67z"/> <path d="M753.17,430.29c-0.18,0.26-0.36,0.45-0.6,0.69C752.93,430.92,753.09,430.71,753.17,430.29z"/> <path d="M752.35,431.01l0.1,0.1C752.67,430.89,752.56,431.01,752.35,431.01z"/> <path d="M751.63,432.66h0.21C751.83,432.53,751.89,432.53,751.63,432.66z"/> <path d="M672.07,460.62l-0.21-0.1C671.99,460.78,671.94,460.76,672.07,460.62z"/> <path d="M147.27,219.27c2.57-1.03,2.68-0.6,3.8-2.43c0.03,0,0.07,0.01,0.12,0.06c0.02-0.03,0.04-0.06,0.06-0.1
		c2.73,0.28,3.39,0.04,5.92-2.07c-1.24,0.1-2.37,0.21-3.41,0.31c-2.01,0.33-2.25,1.75-2.68,1.75c-0.06,0.06-0.06,0.04-0.02,0.04
		c-6.06,1.14-7.71-0.16-7.71,8.01C143.35,227.63,147.13,222.82,147.27,219.27z"/> <path d="M273.88,188.53c-0.24-2.13-4-0.53-5.57,0.93C270.37,189.04,272.33,190.07,273.88,188.53z"/> <path d="M267.48,220.93c-3.61-0.41-3.71-0.31-5.37,1.86C265.62,221.61,266.97,221.95,267.48,220.93z"/> <path d="M169.25,211.64c1.91,0,1.73-1.03,1.14-1.03c-0.52,0.21-0.93,0.52-1.34,0.72C169.15,211.43,169.15,211.64,169.25,211.64z"/> <path d="M288.53,181.41c-0.93,0.41-0.93,0.41-1.65,1.34C287.91,182.85,288.43,182.44,288.53,181.41z"/> <path d="M263.97,188.63c-0.41,0.1-0.72,0.1-1.14,0.21c-0.1,0-0.21,0.21-0.41,0.41c0.31,0.1,0.41,0.21,0.41,0.21
		C263.95,188.9,264.12,189.07,263.97,188.63z"/> <path d="M179.05,207.72c-0.18-0.37-0.35-0.89-1.03-0.21c-0.1,0.1,0.1,0.31,0.1,0.52C178.43,207.92,178.74,207.82,179.05,207.72z"/> <path d="M164.3,213.29c-0.62,0.1-1.14,0.1-1.75,0.21C163.26,214.22,163.78,214.22,164.3,213.29z"/> <path d="M289.97,180.9c-0.44,0.24-0.89,0.43-1.33,0.61C289.09,181.42,289.63,181.41,289.97,180.9z"/> <path d="M290.13,180.73c0.1-0.1,0.06-0.05-0.05-0.05c-0.09,0.24-0.24,0.3,0.1,0.1L290.13,180.73z"/> <path d="M257.06,188.42c-0.55,0-0.55-0.07,0,0.21V188.42z"/> <path d="M412.77,193.27c-0.08-0.18-0.09-0.42-0.1-0.67C412.18,192.8,412.19,193.08,412.77,193.27z"/> <path d="M412.77,192.55l-0.1-0.1C412.66,192.65,412.64,192.6,412.77,192.55z"/> <path d="M649.27,214.94c3.37-4.49,3.73-4.27,4.23-5.78c0.77-1.79-1.45-2.96-2.37-1.34c-0.51,0.77-2.74,6.09-2.79,6.19
		c-0.1,0.21,0.1,0.62,0.21,0.93C648.85,214.94,649.16,214.94,649.27,214.94z"/> <path d="M682.29,332.06c0.27-0.81-0.71-2.18-1.86-1.03c0.21,0.62,0.31,1.34,0.62,2.58C681.67,332.78,682.08,332.47,682.29,332.06z"/> <path d="M640.91,144.05c-0.93-0.72-1.65-1.24-3.2-0.21C639.57,144.47,639.57,144.47,640.91,144.05z"/> <path d="M663.82,310.9c0-0.91,0.16-2.39-0.83-2.06C662.45,309.39,663.16,311.56,663.82,310.9z"/> <path d="M644.21,214.32c-0.52-1.14-1.34-1.75-2.58-1.75C642.87,214.22,642.87,214.22,644.21,214.32z"/> <path d="M645.04,142.71c-0.71-0.35-0.63-0.4-0.93-0.1C644.5,143.39,644.77,142.84,645.04,142.71z"/> <path d="M641.22,212.26c0.21,0.1,0.31,0.1,0.52,0.21C641.63,212.26,641.73,211.74,641.22,212.26z"/> <path d="M433.51,188.11c0.06-0.09,0.13-0.1-0.1-0.1L433.51,188.11z"/> <path d="M433.58,188.02c0.4,0.02,0.9,0.07,1.17-0.11c1.96-1.75,4.44-2.79,5.98-4.95C437.59,182.82,435.36,185.44,433.58,188.02z"/> <path d="M446.2,121.04c1.03-0.21,1.86-0.31,2.68-0.41C447.95,119.29,447.95,119.29,446.2,121.04z"/> <path d="M443.41,179.65c0.52-0.41,1.14-0.93,1.96-1.65C443.83,177.69,443.31,178.21,443.41,179.65z"/> <path d="M440.83,183.06c0.21-0.21,0.41-0.31,0.21-0.21C440.99,182.9,440.92,182.97,440.83,183.06z"/> <path d="M189.16,256.11c2.05-0.67,1.69-2.94-0.41-2.99c-2.76-0.07-7.82,0.5-9.18,2.89C182.97,257.25,185.97,257.16,189.16,256.11z"/> <path d="M594.79,92.25c-1.34,0.83-1.44,1.44-0.72,5.68C595.51,95.45,595.51,95.04,594.79,92.25z"/> <path d="M597.16,84.51c1.02,0,2-1.58-0.1-4.33C596.62,83.88,596.46,84.51,597.16,84.51z"/> <path d="M584.98,84.41c-1.44,0.62-3.2,0.52-3.82,2.48C583.74,86.06,583.85,86.06,584.98,84.41z"/> <path d="M592.62,104.64c0.19-0.69-1.51-2.75-1.03,2.99C592.41,106.8,592.33,105.67,592.62,104.64z"/> <path d="M580.03,88.13c0.52-0.52,0.83-0.93,1.14-1.24C580.55,86.89,580.13,86.99,580.03,88.13z"/> <path d="M572.08,98.86c0.21-0.21,0.31-0.31,0.52-0.41c0-0.1-0.1-0.21-0.21-0.1C571.73,98.67,571.89,98.66,572.08,98.86z"/> <path d="M583.85,62.95c-0.41-0.41,0.34-0.54-2.17-0.31C583.64,63.42,582.96,63.39,583.85,62.95z"/> <path d="M591.41,107.76c0.03-0.05,0.08-0.09,0.08-0.24C591.48,107.61,591.43,107.68,591.41,107.76z"/> <path d="M664.75,84.82c-0.16,0.16,0.42,2.02,2.06-2.48c8.74-23.87,7.45-23.51,8.77-24.28C675.58,52.95,676.7,50.77,664.75,84.82z"/> <path d="M674.86,28.59c-0.14,0.41-0.14,0.28,0.1,0.1L674.86,28.59z"/> <path d="M671.97,33.75c1.49-1.49,2.02-2.52,2.8-4.89C673.26,30.13,672.57,31.27,671.97,33.75z"/> <path d="M677.09,25.06c-0.91,0.42-1.31,1.11-1.4,2.08C676.64,26.76,676.89,25.93,677.09,25.06z"/> <path d="M671.25,35.3l-0.1-0.1C671.18,35.35,671.18,35.32,671.25,35.3z"/> <path d="M671.17,35.32c-0.74,0.13-0.75,0.73-0.65,1.42C671.3,36.54,671.34,35.99,671.17,35.32z"/> <path d="M671.9,33.77c-0.74,0.23-0.75,0.83-0.65,1.53C672.02,35.01,672.06,34.44,671.9,33.77z"/> <path d="M671.97,33.75l-0.1-0.1C671.91,33.82,671.9,33.75,671.97,33.75z"/> <path d="M675.61,27.2c-0.64,0.31-0.74,0.8-0.55,1.5C675.54,28.31,675.73,27.76,675.61,27.2z"/> <path d="M675.68,27.14l-0.1-0.1C675.65,27.21,675.55,27.23,675.68,27.14z"/> <path d="M677.75,23.33c-0.09,0.54-0.26,1-0.44,1.45C677.84,24.44,677.84,23.88,677.75,23.33z"/> <path d="M677.3,24.78c-0.19,0.11-0.18,0.05-0.22,0.28C677.26,24.99,677.25,24.93,677.3,24.78z"/> <path d="M679.4,21.26c0.13-0.27,0.17-0.24-0.1-0.1C677.98,24.45,679.29,21.16,679.4,21.26z"/> <path d="M678.68,22.6c-0.59,0.39-0.99,0.66-0.83,0.83C678.16,23.22,678.47,22.91,678.68,22.6z"/> <path d="M567.24,351.25c0.31,1.03,1.24,1.24,2.17,1.55C568.93,352.2,567.97,349.77,567.24,351.25z"/> <path d="M162.54,479.92c-3.53-7.07,2.01-8.61,5.57-10.52c1.75,0.31,2.79,1.65,4.13,0.41C167.26,463.95,152.58,472.33,162.54,479.92
		z"/> <path d="M290.29,502.41c1.34,1.14,1.34,1.14,2.89,1.44C292.45,502.72,292.45,502.72,290.29,502.41z"/> <path d="M180.81,469.6c0.94,1.17,0.14,1.22,2.89,0.83C183.7,469.53,183.76,469.87,180.81,469.6z"/> <path d="M284.92,499.63c0.41,0.62,0.83,1.14,1.75,0.52C286.16,499.94,285.75,499.11,284.92,499.63z"/> <path d="M275.94,467.43c-0.72,0-1.24,0-1.86,0C274.7,468.16,275.22,468.16,275.94,467.43z"/> <path d="M281.62,469.91c0,0.25,0.23,0.31,0.41,0.31C282.03,469.54,281.81,469.91,281.62,469.91z"/> <path d="M480.04,448.45c-1.03-0.93-1.75-1.65-2.48-2.37C477.67,447.83,477.67,447.83,480.04,448.45z"/> <path d="M487.47,453.5c0.13-1.05-1.09-1.49-1.55-1.03C485.52,453.29,486.86,453.81,487.47,453.5z"/> <path d="M532.87,572.06c0.1,0.1,0.41-0.1,0.62-0.1C531.1,564.52,524.2,560.84,532.87,572.06z"/> <path d="M569.3,478.06c0.71-0.35,0.5-1.85-0.72-1.34c-1.66,0.7-3.41,1.55-5.16,2.37C566.05,478.83,565.14,479.45,569.3,478.06z"/> <path d="M493.77,487.56c0.72-1.86,0.72-2.58-0.21-5.26C492.32,483.74,492.32,484.25,493.77,487.56z"/> <path d="M499.65,497.98c0-1.04,0.32-0.64-0.72-2.37C498.72,496.95,498.72,496.95,499.65,497.98z"/> <path d="M494.28,477.24c1.34-0.89,0.86-0.82,0.62-1.55C493.7,476.49,494.28,476.4,494.28,477.24z"/> <path d="M530.09,492.61c0.1-1.14-0.52-1.44-1.34-1.65C528.64,491.89,528.85,492.51,530.09,492.61z"/> <path d="M556.61,480.44c-0.23-0.46-0.74-0.41-1.14-0.21C556.47,481.23,555.9,480.79,556.61,480.44z"/> <path d="M524.52,487.97c0.36,0.18,0.72,0.66,0.72,0.21C524.68,487.62,524.72,487.76,524.52,487.97z"/> <path d="M512.65,535.74c0.72-0.95,0.6-0.28,0-2.27C512.65,534.61,512.65,535.02,512.65,535.74z"/> <path d="M550.31,480.95h-0.21C550.11,481.09,550.05,481.08,550.31,480.95z"/> <path d="M527.92,563.4c0.31,0.52,0.52,1.03,0.72,1.44C527.93,563.06,528.06,563.25,527.92,563.4z"/> <path d="M501.61,505.3c0.1-0.21,0.31-0.31,0.31-0.52c0.1-0.1-0.21-0.21-0.31-0.31C501.32,505.07,501.38,505.07,501.61,505.3z"/> <path d="M521.52,550.71c-0.22,0.22,0.22,1.16,0.52,1.55C521.83,551.74,521.63,551.22,521.52,550.71z"/> <path d="M516.16,543.28c-0.26,0-0.24-0.03-0.1,0.1c0.31,0.31,0.52,0.52,0.83,0.62C516.67,543.79,516.36,543.59,516.16,543.28z"/> <path d="M516.88,544.1c0.15,0.15,0.13,0.16,0-0.1V544.1z"/> <path d="M520.6,549.88c-0.1,0-0.21-0.1-0.21-0.1C520.39,549.88,520.49,549.98,520.6,549.88z"/> <path d="M521.42,550.71c-0.31-0.21-0.62-0.52-0.83-0.72C520.46,550.12,520.34,549.99,521.42,550.71z"/> <path d="M522.87,552.77c-0.1-0.03-2-1.16-0.1,0.1L522.87,552.77z"/> <path d="M522.76,552.98C523.17,553.29,522.66,552.77,522.76,552.98L522.76,552.98z"/> <path d="M524,555.04c0.13,0.26,0.04,0.19,0.41,0.31C524.15,555.22,524.25,555.29,524,555.04z"/> <path d="M527.2,562.47l-0.1-0.1C527.1,562.62,527.06,562.61,527.2,562.47z"/> <path d="M527.2,562.57l-0.1,0.1C528.69,563.74,527.89,563.26,527.2,562.57z"/> <path d="M563.31,478.99c-0.05,0.05-0.1,0.12-0.14,0.21C563.25,479.19,563.31,479.16,563.31,478.99z"/> <path d="M563.17,479.2c-0.02,0-0.04,0-0.06,0C563.11,479.54,563.09,479.4,563.17,479.2z"/> <path d="M528.85,490.86c-0.41,0-0.38-0.03-0.1,0.1L528.85,490.86z"/> <path d="M592.72,510.57c-1.24,0.41-0.31,1.34-0.52,1.86c-0.31,0.62-0.72,1.14-1.14,1.75c1.71,3.43,1.35,2.79,2.58,2.79
		C592.41,514.9,593.86,512.63,592.72,510.57z"/> <path d="M470.86,532.54c1.55,1.55,2.06,1.44,4.95-0.21C473.96,532.54,472.41,532.13,470.86,532.54z"/> <path d="M478.91,530.89c0,0.5,0.19,0.22,0.41,0C479.03,530.6,478.78,530.76,478.91,530.89z"/> <path d="M561.35,537.6c0.54-0.54,0.55-0.23,0.31-1.65C561.03,537.53,560.8,536.49,561.35,537.6z"/> <path d="M683.08,561.95c0.04,0,0.04-0.14,0.04-0.19C682.98,561.87,682.99,561.82,683.08,561.95z"/> <path d="M683.22,558.86c0,0.97-0.08,1.94-0.09,2.91C683.72,561.31,686.89,559.72,683.22,558.86z"/> <path d="M665.47,536.88c-0.1,1.03-0.41,1.96,0.93,2.48C666.81,538.32,666.5,537.5,665.47,536.88z"/> <path d="M569.51,579.39c0.69,0.5,1.29,1.08,1.88,1.58C571.65,579.4,570.34,578.28,569.51,579.39z"/> <path d="M571.38,580.97c0,0.06-0.01,0.11-0.02,0.18C571.48,581.03,571.5,581.05,571.38,580.97z"/> <path d="M306.02,464.19c1.1,0,1.09-0.43,0-0.43C304.92,463.76,304.93,464.19,306.02,464.19z"/> </g> </svg> 