<?xml version="1.0" encoding="utf-8"?> <!-- Generator: Adobe Illustrator 23.0.1, SVG Export Plug-In . SVG Version: 6.00 Build 0)  --> <svg version="1.2" baseProfile="tiny" id="Layer_1" xmlns="http://www.w3.org/2000/svg" xmlns:xlink="http://www.w3.org/1999/xlink" x="0px" y="0px" viewBox="0 0 900 600" xml:space="preserve"> <g> <path d="M737.41,93.82C738.28,94.35,738.08,94.08,737.41,93.82L737.41,93.82z"/> <path d="M899.14,92.2c-0.51-1.44-1.34-1.85-2.67-1.44c-1.17,0.78-98.43,200.25-98.43,200.35c0,3.81-3.09,6.17-4.42,10.08
		c-0.51-2.06,0.1-3.09,0.51-4.11c5.98-14.94,6.71-31.84,4.11-43.09c-2.92-12.68,3.67-19.05,0.31-41.35
		c-2.44-16.16,3.63-44.17-20.57-46.69c-4.94-0.52-9.05-2.78-13.68-4.32c2.86-2.65,4.68,2.04,8.23-8.13
		c3.21-9.19,6.61-14.12,4.63-24.17c-1.65-8.37,0.83-7.97,0.41-11.21c-1.13-8.81-3.98-20.04-11.93-23.96
		c-7.63-3.77-15.63-5.14-24.27-4.42c-5.03-6.19-17.51-4.44-19.13,4.11c-0.68,3.61-1.33,7.3-1.03,11
		c1.22,15.18-3.97,20.14-2.98,27.98c0.75,5.95-0.11,17.8,2.88,23.35c-0.93-12.14-1.75-24.27,0.41-36.72c0.4,0.4,0.67,0.82,0.88,1.23
		c1.71,3.24,1.87,1.85,1.47,2.7c-1.61,3.48-1.8,6.79,0.51,9.95c1.01,1.38-0.28,3.94,1.03,12.44c0.52,3.39,0.21,6.99,0.62,10.49
		c-2.47-7.2-2.47-14.81-3.91-22.11c-1.13,4.94,0.41,9.77,1.03,14.6c-2.57,3.09-0.41,6.58-0.93,9.67
		c-3.39,4.23-20.31,4.83-27.87,15.12c-0.52,0.71-1.12,1.35-1.95,1.75c-4.69,2.24-6.54,6.85-9.26,10.7
		c-2.54,3.59-2.38,18.31-5.45,33.43c-1.23,6.04,0.06,10.06-0.21,14.5c-0.5,8.33,0,16.66,2.26,24.99c-2.06,1.54-2.67,4.42-5.35,5.35
		c-1.83-0.66-111.7-133.18-114.37-133.5c-1.03,0.21-1.65,0.82-1.95,2.47c1.65,1.98,113.56,134.42,113.65,134.53
		c-3.19,3.91-4.87,8.41-7.71,12.14c-12.14,15.93-12.54,49.37-13.78,69.53c2.68,6.03-0.33,3.84,2.47,28.59
		c1.53,13.53,3.37,35.6,0.31,48.96c-1.42,6.2,0.32,4.02-2.67,16.15c-0.99,4-2.72,7.81-3.39,12.03c-0.33,2.05-0.82,4.32-2.57,5.86
		c-1.29,1.29-3.66,34.48-0.1,62.33c2.11,16.54,3.53,20.55,1.95,24.27c-6.01,2.23-3.43,10.51-9.15,19.44
		c-1.03,1.86-0.86,6.77-2.16,11.21c-1.08,3.69-1.03,7.2,0.21,10.8c1.44,1.34,3.29,1.23,5.25,1.65c1.03,8.1,7.22,6.28,17.79,8.33
		c4.62,0.9,1.75,0.02,15.22-0.41c17.66-0.56,2.94-11.8,0.82-25.51c-1.19-7.7-6.76-14.02-6.69-22.83c0.01-1.23-0.82-2.06-1.03-3.09
		c0.31-1.95,0.73-3.91,0.82-5.76c0.78-15.26,6.5-39.56,7.92-42.68c5.41-11.92,9.26-32.76,6.58-45.87
		c-0.87-4.27,3.66-18.37,6.17-23.86c1.26-2.76,13.83-62.67,18.2-75.8c0.45-1.34-2.57-2.14,6.27-4.22c0.21-0.41,0.51-0.82,0.72-1.13
		c0-0.93-0.82-0.93-1.23-1.23c-0.21-1.23,1.54-1.75,1.13-2.98c-0.21-0.1-0.51-0.31-0.62-0.21c-5.36,2.86-4.51,2.37-4.75,2.61
		c0.1,0,1.02-4.63-0.4-12.8c2.57,2.67,3.91,5.14,5.35,7.51c1.44,2.37,4.01,3.91,5.04,6.89c-5.2,3.25-5.66,0.21-5.66,3.5
		c2.78,0.93,5.25-1.03,8.02-0.62c2.47,3.81,5.92,6.81,7.92,11.11c1.64,3.53,5.04,3.19,8.74,1.95c-7.43-15.75-2.03-18.11-6.89-23.24
		c-3.8-4.02-6.99-8.43-11.31-11.93c-0.62-0.62-1.44-1.03-1.65-2.26c2.88-3.29,6.99-4.53,10.7-6.27
		c10.97,11.88,13.69,17.02,21.08,15.02c5.37,6.44,1.5,2.28,7.1,7.41c-0.51,1.75-2.26,1.95-2.98,3.09c-1.23,4.73-0.72,6.38,2.37,8.74
		c1.95,0.1,4.01,0.21,5.76-1.23c0.91,6.34-3.74,3.88-10.7,5.97c-0.82,0.62,0.1,1.83-1.13,2.06c-1.03,0.19-0.51-0.72-0.82-1.13
		c-1.34,0.1-2.16,1.23-2.98,1.65c-2.47,0.31-4.63,0.21-6.99-0.51c2.06,6.18,3.4,3.57,22.73-1.95c0.51,1.44-1.23,1.23-1.23,2.16
		c0.54,4.13,2.65,24.94,1.13,27.36c-1.27,2.03-0.86,2.58-1.85,12.75c-2.32,23.75,0.65,19.26-0.51,31.57
		c-1.51,15.88,4.75,24.57,4.53,41.04c-0.39,28.97-2.29,30.08-1.75,42.68c0.8,18.61,0.03,20.15,1.13,23.45
		c-1.75,0.1-3.49,0.72-3.91,1.85c-1.02,2.78-3.5,3.5-5.45,4.83c-1.65,2.57-2.57,5.35-4.53,7.41c-1.95-0.51-2.67-1.85-3.29-3.5
		c1.44-1.23-0.4-3.18,0.82-4.83c1.35-1.84,1.16-3.82,0.41-5.86c-1.34-3.65-3.09-21.44-12.75-45.15c-1.3-3.2-2.88-6.27-3.09-9.77
		c-0.3-5.04-0.59-10.18,0-15.22c2.9-24.65,2.18-12.29,0.41-20.47c-3.9-18.04-3.12-35.23-5.97-45.67
		c-7.02-25.75-9.69-27.7-12.44-42.79c-0.37-2.06-2.39-9.16-4.32-8.95c-0.9,2.7,2.35,6.41,1.34,10.59c2.47,7.2,3.6,14.81,6.48,21.91
		c2.67,6.58,4.36,13.57,6.38,20.36c2.25,7.56,1.65,11.74,3.09,29.93c0.78,9.84,5.64,15.22,2.88,25.71
		c-3.06,11.65-3.77,22.35,2.67,36.82c5.94,13.35,6.18,17.95,9.36,27.26c2.46,7.2,2.57,14.81,3.6,22.22
		c-1.65,4.53-1.53,9.36-3.09,13.68c-1.74,4.84-2.98,9.67-3.81,14.4c2.96,3.99,6.69,4.17,18.62,6.48c-0.23,6.44,9.66,5.13,14.81,8.54
		c0.53,0.35,9.83,0.88,18.62-0.51c2.67-0.42,5.04-1.54,6.48-4.01c-0.93-6.5-0.45-9.99-6.07-14.6
		c-12.26-10.07-9.49-11.89-16.25-20.36c-4.63-5.8-0.49-7.49-3.39-9.67c-6.41-3.6-7.38,14.46-4.63-63.25
		c0.34-9.63-2.97-25.15-4.11-29.72c-0.99-3.96-0.96-5.65-0.62-18.2c0.2-7.2-0.52-14.5,0.51-21.7c1.02-7.1,1.94-14.3,1.85-21.6
		c-0.31-24.71,1.68-30.78-0.41-35.59c0.62-0.93,1.03-1.85,2.57-2.26c-0.62,2.67,1.97,3.59,2.78,5.55c1.48,3.6,2.6,3.72,11.31,1.03
		c0.62-0.19,1.44-0.51,1.34-1.65c-1.95-0.31-3.7,0.72-5.55,0.72c-1.75,0-3.39,1.65-5.66,0.21c3.29-2.06,6.99-1.34,10.28-2.98
		c-2.57-1.65-4.94,0.72-6.99-0.51c1.65-0.93,4.01-0.31,5.55-2.67c-3.6,0.21-6.58,1.13-9.57,2.16c-1.2-9.01,1.22-0.29,8.54-6.69
		c0.41-1.13,0.1-2.78,1.34-3.39c2.57,0.21,1.23,2.98,2.67,4.22c1.65-2.67,0.62-4.32-1.34-5.86c1.22-1.64,0.57-3.15,0.14-4.68
		c-0.37,3.28-1.54,3.55-5.18,3.45c-1.75-2.67-1.95-5.25,0.51-7.92c-3.69-1.7-2.18,2.4-5.45,7.41c-0.62,0.82,0.41,1.75,0,2.57
		c-1.58-1.27-1.55-1.29-1.95-6.48c1.63-4.15,4.92-3.1,7.68-11.48c0.1,0.36,0.25,0.71,0.45,1.08c1.38-4.83-0.64-2.53,1.34-6.48
		c-0.22,0.22-0.4-0.61-0.28-1.07c0.19-0.7,0.71-1,1.41-1.6c0.1-1.23-0.9-2.06-0.82-3.29c0.92-14.69,1.39-29.41,1.65-44.12
		c0.13-7.7,2.94-7.78,0.1-18c-0.64-2.29-1.36-5.55-1.44-5.76c4.34-3.62,5.43-8.64,4.42-14.09c0-2.5,2.6-6.47-1.28-17.91
		c-0.39-1.14,1.89-0.96,1.69-2.46c-0.1-0.31-0.82,0.21-1.34-0.31c1.03-3.09,2.47-6.17,2.37-9.67c-4.73,7.92-3.55,10.55-4.56,8.47
		c-2.92-6.01-0.03-4.38-8.28-31.01c-0.22-0.72-0.53,0.11,5.53-4.72c-2.67-0.1-4.22,1.54-6.38,2.06c-1.85-2.93-3.83-6.22-5.35-8.85
		c4.27-0.24,3.8,3.75,15.53,5.25c9.52,1.22,13.94,10.19,14.3,19.75c0.62,16.31,3.98,29.31,0.51,51.42
		c-1.77,11.26,6.36,23.28-0.93,47.93c-7.48,25.32-1.61,15.7-10.08,29.31c-1.96,3.15-9.69,12.86-5.55,12.86
		c4.26-7.4,7.8-13.46,9.57-16.46c-0.62,6.82-6.98,12.84-7.3,17.9c2.07,0.44,2.26-4.63,5.04-6.89c-1.77,4.86,0.47,13.45-0.72,18.82
		c-0.82,0.31-1.95-0.31-2.37,0.72c0.31,1.03,1.54,1.03,1.75,2.26c-0.2,1-0.86,2.18,0.11,3.28c7.89-10.77-4.97-15.19,9.45-40.92
		c1.23-2.2,2.53-4.98,3.6-5.86c2.94-2.42,3.6-5.66,3.29-9.26C802.53,292.96,899.25,93.07,899.14,92.2z M770.79,551.74
		c-5.14,0.41-10.08,0.1-14.3,3.09c0.2,2.5,2.17,0.75,9.87-0.21c6.45-0.8,5.98,1.03,6.75,1.03c-2.87,0-5.63,0.19-8.39,0.93
		c-2.68,0.71-5.86,0.41-7.51,3.29c0.77,1.51,1.67,1.2,3.09,0.93c14.25-2.78,14.33-1.37,15.84,0.51c-4.94,0-9.98-1.34-14.4,1.85
		c0.81,2,1.93,1.93,3.7,1.65c1.42-0.22,12.43-1.16,13.34-0.04c1.39,1.69-5.15-0.78-10.56,2.41c1.55,1.55,1.57,1.55,7.51,1.34
		c0.29,0.57-0.51,1.05-0.31,1.95c2.73,1.82,5.02,0.03,7.82-0.62c3.63,3.1,9.56,4.68,7.82,11.72c-4.42,1.03-9.87,0.51-13.68,4.63
		c0.09-0.02,0.19-0.05,0.28-0.07c9.04-2.2,15.67-2.62,15.4-2.09c-1.12,2.18-2.5,2.7-14.03,3.39c-4.75,0-2.94-1.66-5.14-1.66
		c-3.73,0.29-8.44-0.89-15.32-3.19c-1.03-3.41-0.72-7.9-6.26-8.33c0.6,2.1,2.79,2.5,4.02,4.73c-5.72-1.12-10.79-2.28-16.24-3.77
		c-0.21-0.06,0.25-7.6,2.77-12.17c1.24-2.26,1.13-4.63,1.03-7.1c2.37,0.31,4.33,2.27,6.48,0.41c1.48-1.28,1.28-7.21,6.48-9.15
		c1.95-0.73,2.78-2.88,4.73-4.01C770.53,542.23,765.87,544.51,770.79,551.74z M771.09,339.04c2.38,1.65,3.65,1.23,4.53,1.23
		c-0.31,1.95-1.44,2.78-2.47,3.7c-1.23,0.51-2.26,0.21-3.91-0.93C771.54,342.35,770.32,340.58,771.09,339.04z M721.41,104.24
		c0.32-3.29,0.23-6.68,1.55-9.77c2.89-6.77,7.73-4.04,7.99-4.95c0.69-1.73,1.68-1.07,3.22-0.5c1.19,0.32,1.76,1.58,2.16,2.78
		c-2.37-0.1-3.5-2.47-5.45-2.06c0.21,1.23,2.37,1.03,2.57,2.57c-0.83,0.83-1.87-0.91-2.78-0.1c0.32,0.32,0.8,1.03,1.13,1.44
		c-0.32,0.64-1.28,1.39-2.38,1.24c-0.23,0,0.22-0.34-2.37-1.14c0.48,1.02,1.17,1.51,2.3,1.13c-0.48,1.45-2.75,1.88-4.05,2.67
		C721.78,103.72,721.41,104.13,721.41,104.24z M728,110.72c0,4.07,4.38,0.89,7.71,3.5c-1.83,0.17-3.55,0.41-7.1,0.82
		c2.68,1.85,4.93,0.11,7.3,0.41c-2.52,1.39-4.9,1.74-7.22,1.31c-5.57-1.05-5.29-3.26-5.43-4.49c1.54,0.31,2.37,2.37,4.22,1.85
		c-0.76-1.7-3.35-1.93-3.94-3.93C722.45,106.48,725.9,110.72,728,110.72z M727.29,109.19c0.11,0.02,3.4,0.72,6.15,1.38
		c1.78,0.42,1.57,0.26,1.06,0.53C731.78,112.55,728.88,112.36,727.29,109.19z M736.13,118.12c-2.14,1.07-2.45,1.03-4.42,1.03
		C733.35,118.43,734.58,117.92,736.13,118.12z M723.07,120.18c-0.88-0.78-0.75-1.62-0.51-2.78c2.11,0.78,4.76,1.65,6.79,2.26
		C727.16,119.94,724.69,119.57,723.07,120.18z M724.92,137.46c0.93,1.54,2.06,14.19,1.65,16.56
		C725.95,148.46,724.81,143.01,724.92,137.46z M679.46,264.78c1.62,6.69,6.22,16.26-3.19,3.91
		C677.3,267.36,678.22,266.22,679.46,264.78z M674.01,272.4c3.91,4.53,7.61,8.95,11.31,13.27c-5.74-1.03-10.67-3.38-15.68-6.45
		C669.51,279.15,669.34,279.69,674.01,272.4z M645,551.32c0,2.47,0,4.83,0,7.92C642.02,556.16,643.97,553.69,645,551.32z
		 M666.51,561.51c-12.75,0.72-12.75,0.72-15.02,3.39c0.72,2.22,1.16-0.36,15.53,0.31c0.46,0.32,0.91,0.64,1.28,1.03
		c3.38,3.62-6.58-3.36-17.43,2.37c2.78,2.78,6.28,1.29,9.26,1.44c3.19,0.16,6.38,1.03,9.36-0.21c1.07,0.63,1.18,2.85,0,2.47
		c-4.65-1.52-16.85-2.13-18,1.54c0.1,1.24,0.96,1.87,2.06,1.75c5.67-0.64,11.42,0.51,17.07-1.03c0.59,0.59,0.39,2.23,1.03,3.6
		c-3.39-0.72-6.27-0.62-9.15-0.41c-2.67,0.2-5.66-1.54-8.13,0.82c0.54,4.23,16.01,2.43,17.69,1.85c0.05,0.1,5.54,10.61,7.51,13.57
		c-1.58,4.51-9.32,1.64-17.48,3.09c6.09-2.98,16.49-1.76,15.73-2.53c-4.45-3.7-17.59-0.26-21.49,2.33
		c-6.95-1.39-10.12,0.09-13.07-2.59c-1.28-1.16-2.05-3.21-2.05-3.9c-5.3-4.22-5.64,0.99-3.7-17.07c0.52-4.83,3.91-8.54,4.32-13.47
		c1.23-0.09,1.39,1.35,2.24,1.82c0.36,0.19,0.03,0.14,4.97,0.14c4.97-4.66-0.62-8.9,9.36-11.31
		C666.55,548.53,662.66,557.89,666.51,561.51z M707.46,346.39c-7.27,8.7-6.48,15.67-11.24,36.78c-5.23,23.2-5.07,23.93-7.1,27.36
		c-0.49,0.84-0.91,1.95-0.93,2.88c-0.05,4.32-1.95,8.23-2.67,12.34c0,0.51-0.09,1.04-0.41,1.44c-4.1,5.23-3.39,12.14-6.48,17.69
		c-0.31,4.63-1.06,9.26-0.51,13.88c1.07,9.16,0.18,18.2-2.47,26.84c-3.12,10.17-4.84,20.77-7.51,31.06
		c-3.19,12.3-3.2,31.25-4.88,30.95c-4.36-0.78-7.91,0.17-10.36,2c-3.67,2.73-1.35,6.08-5.13,9.02c-0.5-1.49-0.14-2.97,0.21-4.32
		c2.75-10.73-0.59-29.29-2.98-51.01c-5.25-47.55,18.18-63.49,11.62-105.52c-0.5-3.19-0.4-6.58,0-9.87
		c0.32-2.58-0.25-15.84-0.31-15.94c-2.22-4.26-1.65-7.9-1.65-24.17c14.25,5.82,42.36,7.1,46.24,5.26c0.65-0.31,1.2-0.87,1.58-1.96
		c-42.7-5.34-41.6-4.5-48.03-6.79c-0.41-3.7-0.45-7.82,0-11.83c3.88-34.79,3.73-22.45,8.43-39.8c1.55-5.71,0.06-3.5,5.57-11.15
		c1-1.38-0.45-0.7,6.97,3.74c9.25,5.54,13.18,1.96,16.46,9.98c2.32,5.67,5.49,10.85,10.28,14.91c1.56,1.32,2.06,3.6,4.42,4.11
		c-0.72,2.67,0.72,4.53,1.85,6.38c-1.13,1.65-2.78,2.78-3.6,4.73c0.93,7.45,1.95,6.29,1.95,18.41
		C706.82,344.88,706.76,345.68,707.46,346.39z M695.6,300.06c2.16-0.31,5.66,3.6,6.79,7.71C699.92,305,697.87,302.63,695.6,300.06z
		 M704.45,309.01c2.05-1.15,3.62-0.37,4.32,1.03c-1.03,1.23-2.47,0.21-3.39,0.82C704.69,310.46,704.55,309.73,704.45,309.01z
		 M729.75,345.52c0.21,1.65,0.21,3.29-0.21,5.66c-5.55-7.51-13.27-12.55-16.46-21.29c0.21-0.93,0.72-1.75,1.75-2.47
		C720.8,332.67,725.12,339.25,729.75,345.52z M743.82,333.19c-2.04-0.12-2.16-0.4-14.18-12.76c0.21-0.21,0.51-0.51,0.72-0.72
		C745.96,333.98,746.36,333.34,743.82,333.19z M756.7,352.52c-2.63-0.79-2.98-2.71-2.98-5.45c1.66-1.78,5.93-4.34,5.66-6.55
		c-0.17-1.42-0.27-0.66-2.37,0.38c-8.85-7.51-16.87-15.84-26.64-22.63c-8.64-0.21-14.71,4.42-19.64,11.21
		c3.07,3.06,4.69,9.14,8.85,12.86c3.69,3.3,5.55,8.43,9.87,11.52c-0.12,0.24-1,1.32-0.87,1.56c0.43,1.1,1.33-0.2,2.21,0.8
		c0.47,1.09,2.42,5.86,1.23,5.86c-1.13,0.31-1.85-0.51-2.67-0.82c-2.26-6.38-7.62-10.59-10.7-16.25
		c-4.12-7.59-9.71-9.17-11.81-19.64c-0.43-1.29,2.66-3.06,3.44-4.75c0.04-0.13-0.86-2.24-0.88-2.34c2.26-0.41,2.78-2.98,4.94-3.39
		c0.6-0.66-0.29-1.34,0.31-1.85c1.33,0.1,1.65,1.71,3.25,1.94c0.13,0-0.13-1.74-1.91-2.77c-10-5.76-18.94-19.44-23.04-23.66
		c-9.1-9.34-13.38-34.42-14.59-46.8c-0.41-4.2,1.77-23.88,2.41-28.98c3.7-29.57-0.14-18.08,7.47-30.67
		c1.95-3.23,3.47-2.88,8.54-6.69c6.28-4.72,1.7-3.33,15.22-8.13c1.23,0.62,0.94,1.74,1.23,2.67c3.96,12.39,3.29,25.14,2.3,37.86
		c-0.57,7.39-2.89,10.92-9.09,18.5c-2.09-4.38-2.4-4.53,0.31-12.65c-0.71-0.36-1.22,0.4-3.39,2.26c-0.46,4.78-0.62,4.77-0.62,8.91
		c0,17.15-3.87,34.83-3.85,43.52c0.01,4.77,1.8,5.78,8.58,14.94c12.21,16.52,6.36,17.2,15.74,28.7c-1.48,1.48-3.5,1.26-4.63,3.39
		c16.7-3.34,13.85-2.92,40.32,23.55c0.04,0.08,0.12,0.56,0.21,0.72c2.4,0,1.4,2.32,2.73,4.93
		C763.3,347.55,764.51,345.08,756.7,352.52z M758.87,335.55c-2.54-2.03-8.36-9.57-17.8-16.46c-1.15-0.84-2.66-1.76-3.5-2.98
		c-4.18-6.14-11.49-3.57-11.99-4.32c-1.09-1.93-2.59-3.63-3.91-5.61c-2.93-4.38-1.91-5.62-2.31-5.62c1.29-1.43,0.35-3.33,1.25-5.34
		c14.1-0.85,29.39-6.17,30.34-6.17c1.54,2.47,0.91,5.04,0.93,7.3C751.94,305.19,756.73,313.86,758.87,335.55z M749.7,287.31
		c-2.37,0.21-4.94,1.75-8.23,0.93c-8.02,3.91-17.07,3.91-26.23,4.53c-1.59-6.35-9.59-15.4-14.09-20.16
		c0.1-6.58,0.31-12.86,2.47-19.13c14.62,4.65,18.73,3.65,35.28,1.44c8.18-1.09,11.35-0.72,20.05-4.94
		C761.28,248.64,749.49,259.87,749.7,287.31z M719.26,295.54c0,1.57,0,3.22,0,4.98c-1.87-1.01-1.85-2.88-2.54-4.6
		C716.61,295.7,717.39,294.6,719.26,295.54z M766.16,344.9c-0.89,0.6-1.31,0.04-1.71-0.65c1.08-0.78,1.07-0.81-0.26-2.03
		c-0.43,0.17-0.72,0.54-0.72,1.13c-0.6-1.19-0.86-2.13-0.21-3.29C766.26,341.47,766.68,341.98,766.16,344.9z M776.86,259.75
		c-2.34,5.77-2.52,11.93-2.37,18c0.2,7.89,1.89,5.01,0.31,23.86c-1.7,20.25-2.11,23.58-6.38,26.64c-5.05,3.62-2.7,10.88-6.17,8.43
		c-1.49-13.04-5.34-27.36-5.76-28.8c-3.8-13.01-1.99-16.26-4.11-22.42c-0.76-2.22-0.67-3.47,2.98-22.52
		c0.83-4.31,3.06-4.9,6.48-13.68c11.02-2.34,13.57-6.18,13.58-5.13C775.44,251.79,777.94,257.08,776.86,259.75z M771.78,187.05
		c1.43,6.27,4.38,12.22,5.14,18.72c0.51,4.41,7.77,11,0.76,32.27c-5.74,5.05-12.16,7.43-19.54,7.82c-2.15,0.11-5.42,1.07-4.94,1.54
		c1.12,1.09,2.91,0.15,4.01,1.85c-7.1,1.51-15.22,2.95-22.63,3.09c13.22-4.41,22.01-7.43,6.48-3.81
		c-9.16,2.14-18.03,1.41-26.64-1.95c-3.99-1.56-3.64-6.74-4.83-7.71c-1.75,0.73-1,3.02-0.09,4.67c2.27,4.13,12.7,8.53,17.37,9.42
		c-7.42-0.13-14.45-0.64-21.6-3.09c1.54-6.79,1.75-13.58,1.95-20.57c5.37-3.29,11.44-11.31,10.9-18.31c0-4.34,4.25-10.35,1.54-29.11
		c-0.67-4.66-2.53-7.46-4.08-15.68c-0.14-0.73,4.06-1.86,5.11-2.31c0.93,0.21,0.92,0.93,1.03,1.54
		c8.85,49.78,6.63,47.75,15.12,55.74c7.04,0.49,6.11,4.08,22.94-1.03c3.73-1.13,5.72-4,6.58-7.82c5.17-22.89-2.07-32.84-4.63-43.2
		c-0.38-1.55-0.72-3.19-2.06-4.22c0.21-1.54,0.82-2.88,0.62-4.32c-1.29-0.43-2.2-0.05-2.67,1.44c-1,3.17-1.74,6.19-1.65,9.57
		c1.74-1.22,1.43-3.52,3.37-4.55c0.49-0.26,11.81,39.19,1.45,50.52c-1.96,2.15-4.61,1.75-7.1,2.57c-0.51-2.26,0.21-4.63-1.75-6.48
		c-0.31,1.38-0.19,2.63-0.05,3.9c0.31,2.89,0.82,2.46-1.23,2.68c-4.87,0.53-13.48,0.15-16.3-5.55c-6.04-12.22-1.49-8.08-8.13-37.44
		c-1.05-4.62-2.06-9.36-3.09-14.5c2.67-1.85,5.45-3.81,7.1-6.89c1.34-5.6,1.45-11.06,0.93-14.5c0.6-0.91,1.42-0.51,2.14-0.62
		c2.97-3.92-2.7,3.15-8.2-8.95c-1.46-3.2-1.17-5.1,1.53-7.81c1.13-0.1,1.75,0.51,2.06,1.65c-1.59,0.53-2.05-3.41-3.7,3.19
		c1.64,0.32,1.11-1.96,2.57-1.75c1.25,1.56-2.39,2.85-0.48,3.6c0.79,0.31,1.23-0.98,1.92-1.07c1.28-0.16-0.54,1.53,0.21,3.02
		c0.91,0.46,0.52,2.35,1.54,3.62c0.91,1.13,1.5-1.07,1.64-1.24c-0.21-1.44-1.54-1.95-1.95-3.6c0-0.7,0.4-1.92-0.21-3.09
		c1.14-0.19,2.14-0.11,3.06,0.14c2.51,0.68,1.55,1.33,2.18,0.06c-0.84-0.94-1.73-1.93-2.57-2.98c0.72-1.14,2.78-0.08,3.5-2.26
		c-1.38,0.21-2.66,0.4-3.91,0.42c1.38-0.42,2.61-1.35,3.6-2.79c-1.98,1.76-4.75,1.56-7.01,1.98c-0.16-0.14-0.32-0.33-0.45-0.67
		c-1.63-0.64-2.89,0.22-4.31,0.66c-0.25-1.3-0.41-2.81-0.46-2.91c5.87,0,11.26,0.55,16.15-2.46c-0.62-1.44,0.62-2.26,1.34-3.19
		c-1.21-1.21-4.68,2.5,1.23-3.91c-1.45-0.81-1.76,1.14-2.98,0.93c-0.16-0.66-0.28-1-0.41-1.34c-1.5,0.3-3.19,1.09-4.53-0.51
		c1.45-0.62,3.31-0.02,4.63-1.95c-3.91,1.03-7.61,1.08-11.21,1.03c-0.3,0-0.6,0.39-0.91,0.6c-1.82-0.35-3.8-2.59-3.21-4.44
		c0.12-0.38,0.25-0.65,0.62-1.5c3.28,3.28,7.39,1.44,11.21,2.47c-1.57,1.75-3.79,0.72-5.55,1.54c3.93,1.03,7.78-1.64,11.93-0.31
		c-0.9-1.15-1.83-1.71-2.51-1.97c0.66,0.01,1.66-0.06,3.12-0.3c-0.61-1.93,2.19-2.06,1.86-3.85c0.23,0.08-0.3-0.64-0.83-0.94
		c-1.03-0.56-2.41-0.32-3.39-1.08c-1.34-1.03-2.88-0.72-4.32,0.1c1.2,1.79-0.59,0.79-2.16,2.17c-0.68,0.34,3.8-0.44,5.43,1.74
		c-0.21-0.21,1.31-0.72,2.67-1.75c0.71-0.62,1.62-0.64,2.36-0.33c0.21,0.09,0.27-0.02-0.47,0.49c-2.11,1.46-3.68,3.05-4.79,1.58
		c-3.24,0.33-5.02-1.15-5.37-1.54c-1.93,0.37-3.16-1.65-5-1.65c1,2.78,5.28,2.65,7.1,4.22c1.05,0.91,1.11,0.5-7.13-0.86
		c-1.24-0.21,1.85,1.21,2.6,1.46c-0.91,0-1.88,0.01-2.98,0.02c-1.03-0.62-2.26-1.34-2.98-2.57c0.49-1.14,1.85-2.77,2.67-3.7
		c0.41-0.62,1.03-0.62,1.65-0.21c0.1-0.31,0.1-0.62,0.21-0.93c1-0.5,1.45,1.02,2.37,0.51c0.09-0.83-1.03-1.05-0.82-1.95
		c2.21-0.65,3.49,1.65,5.31,2.17c0.73,0.21,0.53,0.05,0.5-0.12c-0.42-2.01-4.14-2.43-2.9-3.52c1-0.88,2.31-0.61,3.05-0.32
		c-0.12-0.07-0.25-0.15-0.41-0.25c3.09-1.13,6.17-1.54,9.77-0.41c-2.92,0.25-5.44,1.72-7.98,1.16c0.88,0.29,6.33,1.81,8.39,2.44
		c1.34,0.4,2.48,1.36,4.01,0.62c0.62-0.3,1.33,0.21,1.75,0.62c2.24,2.19,5.51,1.34,7.92,2.67c0.1,0,0.38-0.25,0.45-0.3
		c0,0.84,1.81,2.07,2.13,0.39c-0.73-1.27-0.99-0.52-2.54-1.83c-6.55-5.51-3.78-4.65-6.25-5.84c-0.75-0.36-1.64-0.68-2.31-1.18
		c3.7,0.51,7.51,0.51,10.08,4.01c-1.31,0.91-1.79-1.16-3.29-0.51c0.91,1.63,2.84,1.92,3.91,3.29c1.83,0.28,1.06,0.9,3.09,1.75
		c1-2-0.65-0.09-1.65-3.81c3.32,1.24,1.02,3.83,4.73,3.09c4.22,4.73,4.73,10.9,6.79,16.97c-5.81,0.62-6.84,0.01-7.08,1.76
		c-0.02-0.01-0.04-0.01-0.08-0.03l0.1,0.1c0-0.02,0-0.03,0.01-0.04c3.23,1.09,5.08-1.13,7.36,0.58c-0.1,1.54-0.62,2.88-1.65,4.01
		c-2.47,0-1.19-1.86-5.76,1.03c1.79,0.89,2.43,5.49,4.89,2.42c0.39-0.49,0.76-1.07,1.29-1.59c1.65,6.27,2.3,12.25,0.1,18.31
		c-6.94,19.15-4.72,15.47-12.75,17.07C759.43,164.49,766.72,164.94,771.78,187.05z M727.28,139.62c1.23,0.82,0.32,1.74,0.21,2.57
		C726.97,141.37,726.67,140.54,727.28,139.62z M792.28,306.34c1.39-4.04,2.86-7.45,5.56-11
		C797.73,300.47,794.24,303.04,792.28,306.34z"/> <path d="M733.77,101.28c0.01,0,0.03,0,0.04-0.01C733.68,101.14,733.67,101.17,733.77,101.28z"/> <path d="M779.93,333.16c-0.01-0.05-0.1-0.6-0.13-0.57C779.07,333.05,779.04,333.47,779.93,333.16z"/> <path d="M780.15,333.08c-0.08,0.03-0.14,0.05-0.21,0.07C780.12,334.01,780.08,333.9,780.15,333.08z"/> <path d="M784.79,349.73l-0.01,0.01C784.9,349.86,784.94,349.88,784.79,349.73z"/> <path d="M478.08,1.39c-4.91,8.88-25.38,39.75-28.9,47.52c-1.85,1.23-4.01,1.23-5.55,2.67c-1.44-0.93-2.06-2.57-3.7-2.88
		c-4.73,1.54-14.19,11.31-18.1,18.41c-0.72,0.21-1.45,0.29-2.16,0.62c-2.81,1.28-3.43,3.43-1.34,5.76c1.31,1.46,1.44,3.19,2.06,4.63
		c-1.23,3.81-3.68,6.6-6.07,9.36c-1.43,1.66-1.96,3.9-3.7,5.25c-8.41,6.51-6.63,5.85-34.15,19.23c-13.7,6.66-8.9,9.36-20.47,13.58
		c-5.16,1.88-16.96,9.21-28.9,5.45c-1.87-0.59-8.79-1.89-13.16-0.21c-6.51,2.51-9.74,0.73-12.34,4.53
		c-5.5-1.22-9.23-1.37-10.28-5.97c-0.52-2.26-1.23-4.42-0.82-6.79c0.21-1.23,0-2.47-1.65-3.39c-0.93,2.47-2.08,4.74-1.13,7.3
		c1.61,4.33,2.89,8.94,5.76,12.75c4.55,6.05,7.15,13.14,10.28,19.95c1.8,3.91,3.06,12.72-1.95,14.3c-3.6,1.13-7.3,1.75-11,1.44
		c-0.93-1.54-0.72-3.5-2.26-4.53c-1.13,1.44,0.82,2.88-0.31,4.53c-8.64-1.44-16.46-5.04-24.07-9.36c0-6.89-2.39-13.27-2.67-20.06
		c-0.23-5.45-1.85-11-4.11-15.84c2.47-9.36,0.82-18.41,0.31-27.56c0.41-0.41,1.03-0.36,1.64-0.38c0.4,2.33,1.5,4.3,3.51,5.73
		c-0.24-0.95-2-6.2-2.96-6.24c0.19-0.32,0.38-0.7,0.19-1.27c-0.72,0.21-1.54,0.41-2.37,0.72c-3.8-2.42-7.88-5.16-8.64-10.8
		c-0.22-1.6-0.38-3.3,1.41-4.14c-0.19,1.48-1.38,2.87-0.59,4.56c1.34-0.1,0.93-1.95,2.06-2.26c1.75,1.54-1.44,2.26-0.41,3.6
		c1.23,0.82,1.54-1.34,2.88-0.93c-0.31,0.93-0.51,1.85-0.72,2.88c1.95,0.62,1.75,2.98,3.19,4.11c2.77-1.73-0.64-3.92-1.03-5.04
		c-0.32-0.92,0.1-2.37-0.72-3.5c1.85-0.93,3.5,0.51,5.97-0.31c-2.06-0.72-2.47-2.47-4.22-2.67c1.13-1.03,3.29-0.41,4.11-2.88
		c-2.67,1.03-5.04,1.13-8.02,0.41c3.7-0.31,6.89-0.41,8.64-3.6c-7.74,4.06-5.6,1.11-13.38,4.08c-0.55,3.97-2.95,5.14,1.86,11.55
		c0.41,8.33,2.88,16.04,3.91,23.96c-1.44-0.56-0.57,2.62-6.48-23.55c-0.72,3-0.09,5.56,2.16,13.99c-1.23,7.41,0.72,13.27,3.7,18.92
		c-6.98,5.12-11.79,9-21.19,4.42c-6.35-3.09-17.85-1.91-24.58,0.31c-16.97,5.6-46.55-1.83-52.86-6.07
		c-1.53-1.03-28.86-7.25-44.33-15.22c-11.45-5.9-17.84-4.41-20.47-14.5c-0.53-2.05-1.23-3.81-2.57-5.25
		c-6.59-1.94-3.29-1.85-8.95-0.31c-1.23-0.41-0.93-2.26-2.88-1.95c1.03,2.67-0.44,5.69,1.65,7.51c1.32,1.15,2.98,0.41,3.5,1.95
		c-3.29,1.44-3.81,1.54-6.99,0.21c-4.53-13.14-5.75-9.93-1.65,0.51c2.47,1.75,4.94,2.37,7.71,2.26c1.65-1.34,2.67-3.19,4.73-4.42
		c-2.67-1.27-7.19,0.7-6.79-4.11c1.65-0.51,3.39-1.03,5.04-1.54c1.54,0.93,3.5,0.82,5.04,1.95c-0.21,2.16-0.6,4.31,0.72,6.27
		c6.12,9.12,8.15,7.8,22.22,14.09c11.02,4.93,8.75,3.98,43.4,15.53c2.47,0.82,4.73,2.57,7.61,1.65c0.41-0.1,0.93,0.2,1.44,0.41
		c6.78,2.84,26.2,5.14,29.52,5.14c22.41,0,27.84-6.1,39.29-1.95c8.4,3.04,9.55-0.26,13.16,1.54c4.28-0.38,7.27-5.76,8.23-2.67
		c1.21,3.88,1.05,7.92,1.54,11.93c1.07,8.63-1.76,16.39-4.73,24.07c-0.5,1.29-3.2,2.62-8.85,12.44c-1.72,3-4.32,4.83-7.71,5.35
		c-1.34-0.82-1.65-2.16-2.16-3.29c-6.72-14.78-6.92-20.93-16.56-20.57c-20.86,0.78-30.82-4.25-53.07-11.11
		c-16-4.93-17.09-3.35-23.96-6.17c-7.58-3.11-35.58-22.04-40.52-25.82c-7.96-6.08-7.9-4.16-11.83-7.3c-0.72,0-1.34,0.21-1.95,0.21
		c-5.25,0-8.64-3.81-12.96-5.76c1.34-2.57,3.29-3.81,5.55-4.94c-2.16-0.93-4.32,0.41-6.27-0.41c-0.82-1.54-1.44-3.29-2.57-4.63
		c-1.84-2.17-2.26-4.42-1.54-6.89c1.44-1.13,2.98-1.75,4.63-2.06c1.09-3.26,1.91-2.47,3.91-2.47c1.13,0,0.82,1.54,1.54,1.54
		c2.88-0.72,4.42-2.88,6.48-4.32c1.79,2.19,1.87,2.36,5.66,3.5c-0.41,1.13-1.95,1.75-1.54,3.29c3.6-0.51,6.69-4.63,7.82-10.18
		c-1.03-1.95-1.75-4.6-4.42-5.14c-6.27-1.26-6.83-4.06-32.29-23.76c-5.97,0.1-11.93,0.51-17.48,4.63c-1.34-4.63-4.73-4.01-8.02-3.6
		c-1.03-1.44-2.26-2.47-3.7-2.98C26.95,44.88,8.72,23.81,6.2,21.03c-1.32-1.46-2.67-2.78-5.35-3.7
		c7.11,11.18,25.32,31.24,25.92,34.87c0.32,1.95,1.34,3.5,2.06,5.14c-1.54,4.22-0.72,5.55,4.11,6.89c0,1.13-9.16,7-4.83,17.69
		c1.96,4.83,3.6,9.87,7.2,13.78c6.17,6.71,10.27,13.11,13.58,16.35c0.21,0.2,0.31,0.41-0.31,1.23c-0.31,0.31-1.85,0-2.26,1.65
		c1.95,2.16,1.95,6.27,6.07,6.79c6.89-2.67,10.08-9.77,16.15-13.37c3.41,3.13,10.62,8.51,15.22,8.02c4.68-0.5,4.33,1.07,44.43,28.18
		c10.31,6.97,12.14,3.24,50.6,16.66c35.56,12.41,38.82-2.13,45.56,12.96c5.92,13.24,8.25,17.21,8.54,28.7
		c0.18,6.99,2.7,13.57,3.7,20.47c2.11,14.42,11.69,14.95-3.6,44.23c-27.41,52.47-12.33,115.49-13.16,145.84
		c-0.29,10.68-1.73,11.48-2.26,18.92c-0.87,12.24-4.55,17.54-5.45,23.66c-0.35,2.36-0.93,4.73-2.78,6.27
		c-6.87,46.72,5.2,78.07,1.95,86.19c-5.83,2.21-3.83,10.73-8.02,17.28c-2.82,4.41-1.8,9.53-3.39,13.99
		c-1.25,3.49-0.82,6.89,0.41,10.18c1.65,1.23,3.5,1.13,5.14,1.54c0.82,4.63,3.7,6.78,8.02,6.89c3.5,0.09,6.99,0.93,10.49,1.44
		c4.12,0.6,1.4-0.09,14.91-0.51c17.25-0.54,2.63-11.63,0.62-25.4c-0.99-6.78-6.23-13.15-6.69-20.98c-0.11-1.95-0.21-3.81-1.13-5.14
		c0.31-2.16,0.73-3.91,0.82-5.66c0.81-15.33,6.61-39.8,8.02-42.99c5.39-12.22,9.04-32.77,6.38-45.67
		c-0.88-4.27,3.66-18.37,6.17-23.86c0.44-0.97,17.81-77.06,18.2-77.65c1.65-1.65,5.95-2.5,5.95-2.39c0,0.02-0.09,1.05-0.09,1.36
		c2.63,1.15,8.76-1.82,14.81-2.88c24.53-4.3,31.07-7.92,33.43-5.14c0.31,5.45,0.72,11,1.03,16.15c-0.31,1.23-1.54,1.13-1.54,2.47
		c1.03,7.51,1.65,15.53,1.54,23.55c-0.08,5.85-1.1,1.3-1.65,9.26c-0.94,13.7-2.4,19.13-1.34,25.92c1.89,12.14-1.81,13.48,1.75,30.96
		c6.38,31.38,1.36,21.72,1.85,83.31c0.01,1.85-0.1,3.6,0.93,5.66c-1.85-0.31-3.49,0.41-3.91,1.44c-1.12,2.78-3.6,3.81-5.66,5.04
		c-1.54,2.57-2.88,4.94-4.22,7.3c-2.16-0.21-2.78-1.54-3.6-3.39c1.44-1.13-0.33-3.1,0.72-4.63c2.15-3.11,0.47-5.34-0.41-10.28
		c-8.71-48.69-16.38-36.18-14.6-66.03c0.32-5.35,1.03-10.8,1.95-15.84c-5.16-14.62-4.91-40.13-7.41-49.57
		c-6.35-24.06-9.93-28.28-12.55-42.79c-0.52-2.88-1.5-5.62-2.88-8.23c-0.32-0.61-0.51-1.44-1.95-1.13c0.41,3.5,2.47,6.79,1.75,10.49
		c2.26,7.1,3.37,14.41,6.17,21.29c12.94,31.76,6.38,43.8,12.55,63.66c4.95,15.97-10.28,18.63,4.73,54.2
		c3.33,7.9,4.78,16.58,7.61,24.68c2.12,6.08,1.95,12.57,3.09,18.82c0.72,3.95-2.63,6.9-2.16,12.65c0.32,3.99-1.85,1.01-4.42,17.18
		c3,4.17,6.52,4.04,18.31,6.48c1.13,3.81,1.23,3.61,4.94,5.14c3.49,1.45,7.36,1.26,10.49,3.5c0.54,0.39,9.44,0.82,18.31-0.51
		c2.68-0.4,5.14-1.44,6.69-4.01c-0.21-1.54-0.53-2.98-0.62-4.53c-0.61-10.6-10.08-10.83-16.25-22.11
		c-5.15-9.43-8.75-10.9-7.82-15.74c0.2-1.03-0.41-1.95-1.23-2.47c-1.65-0.72-3.5,0-4.83-0.82c-3.63-4.09,1.61-62.82-0.1-72.2
		c-4.43-24.24-4.53-21.81-4.53-26.64c0-47.14,2.97-39.44,2.47-48.24c-0.58-10.18,1.23-20.36,0.31-30.55c0-46.44-7-49.31-8.85-65.41
		c-4.47-39.09-11.44-47.21-5.55-73.13c0.42-1.85,0-4.12,1.44-5.45c2.67-2.47,3.67-6.43,6.89-8.33c0.71-0.42,0.84-1.22,1.34-1.75
		c3.17-3.32,3.7-8.02,6.58-11.11c-1.02-9.15-1.31-14.53-4.32-18.62c-2.88-3.91-4.01-8.54-6.38-12.34c0.82-1.95,1.54-3.5,2.26-5.14
		c4.91-2.45,9.66,1.82,30.13-11.83c6.07-3.6,12.9-5.88,19.03-9.57c2.18-1.31,4.43-2.45,6.79-3.39c13.87-5.56,16.99-15.19,20.06-18
		c6.16-5.66,11.32-12.15,17.79-17.38c1.35-1.09,3.36-2.78,1.65-2.78c-21.59,15.83-21.26,21.2-27.36,27.26
		c-16.65,16.54-32.85,14.82-52.35,28.28c-4.44,3.06-9.57,3.6-14.91,4.73c0.51-3.09,0.93-5.66,1.44-8.74
		c-4.01,3.81-3.6,9.26-6.27,13.47c-2.06-3.53-7.61-12.23-10.49-15.12c-2.57-2.57-3.81-6.48-5.76-9.87c0.31-0.72,0.62-1.54,0.93-2.26
		c23.47-9.33,25.14-1.13,33.53-2.78c26.9-5.29,28.92-14.54,35.17-17.69c5.87-2.96,11.73-6.16,17.69-8.85
		c14.36-6.48,23.61-14.5,23.76-15.53c0.62-3.09,3.29-4.73,4.73-7.1c7.2,1.36,12.37-0.97,14.09,1.13c1.34,1.34,1.34,1.34,0.51,2.67
		c-0.72-0.93-0.31-1.85-0.51-2.67c-0.82,0.82-1.75,1.65-1.85,3.19c-2.62,1.41-4.18-2-5.86,5.86c-1.13,1.85-3.5,1.54-4.73,3.91
		c2.88-0.93,5.25,0.21,7.41-1.75c3.8,7.61,4.45,10.97,7.71,10.59c1.85-0.21,3.41-1.75,3.5-4.01c0.23-6.2,3.11-6.57,10.7-25.92
		c1.74-4.43,1.94-8.63-0.62-12.86c-1.75-2.9,1.86-3.06,2.78-5.35c0.58-1.45-0.38-3.16,1.03-4.63c1.36-1.41,0.51-2.98-0.51-4.22
		c1.44-2.1,23.92-37.75,28.9-47.41C481.63-0.09,479.39-0.99,478.08,1.39z M252.84,85.93c-0.96,0.58-1.56-0.19-2.23-0.37
		C251.53,83.94,251.89,84.98,252.84,85.93z M29.86,60.32c-0.82-1.03,0-1.75,0.51-2.78C31.11,58.81,30.71,59.46,29.86,60.32z
		 M37.57,56.51c-1.13-0.41-1.65-0.82-2.16-1.75C36.69,54.77,37.12,55.31,37.57,56.51z M48.89,113.8c1.03,1.95,1.65,3.29,2.26,4.53
		C49.2,117.09,48.89,116.99,48.89,113.8z M53.06,117.32c0.13-1.09,1.2-0.51,1.07,0.39C53.51,117.79,53,117.8,53.06,117.32z
		 M56.39,115.45c-1.23-0.1-1.34-1.44-2.06-2.06c-2.01-1.71-0.92-1.99-4.24-3.47c-0.54-0.24-9.12-10.47-13.04-17.09
		c-2.96-5-14.9-14.74-2.96-26.9c0.63-0.64,1.15-1.21,1.54-1.87c2.14-3.54-1.77-0.75-3.2-3.13c0.51-0.21,1.03-0.31,1.54-0.51
		c0.51-1.03-1.34-1.85-0.51-2.98c1.77-1.77,3.38,2.96,3.6,3.4c3.19-1.54,6.07-4.32,9.67-4.63c3.07-0.27,5.74-2.28,8.92-2.28
		c3.92,0,24.42,22.91,33.35,24.19c2.98,3.09,3.19,3.81,1.44,6.89C62.99,61.64,71.81,69.94,57.43,58.99c-2.57-1.96-5.45-1.95-7.82,0
		c-7.42,6.1-17.07,11.17-17.22,21c-0.05,3.22,17.17,25.96,19.07,28.47c4.22-0.41,7.3-3.29,11.93-3.29c0.17,0.06,1.54,0.88,2.58,1.44
		C62.3,109.22,59.49,112.26,56.39,115.45z M59.79,98.07c0.82,1.85,0.51,3.6,1.34,4.73c-0.41,1.13-1.03,1.34-1.85,1.23
		C57.52,101.05,57.54,100.51,59.79,98.07z M61.43,94.36c-1.6,0.8-2.69,3-4.32,3.7c-1.13,1.85-0.51,3.7-0.62,5.45
		c-1.03,1.13-1.95,2.06-3.19,3.39c-0.1-0.1-2.9-3.37-3.81-4.73c-10.86-16.29-23.2-20.91-6.47-35.2c7.17-6.12,8.83-7.82,13.25-6.76
		c4.34,3.47,22.32,17.44,25.2,20.47c-1.54,2.26-3.6,3.39-5.35,5.14c-1.65-0.21-3.09-0.41-4.63-0.62c-1.2,1.2-4.86,4.56-7.2,5.14
		c-2.22,5.73,1.02,7.06,2.47,10.49c0.86,2.04,1.95,3.7,4.53,4.53C64.2,106.72,61.12,101.64,61.43,94.36z M333.47,543.71
		c1.48,6.67,3.77,8.03,3.02,8.03c-4.98,0.39-9.85,0.12-14.03,3.18c0.7,3.17,11.49-2.9,17.38,0.72c-10.74,0.63-14.61,1.48-16.46,4.63
		c1.23,2.04,2.45-0.71,15.22-1.03c1.65-0.04,3.09,0.1,3.6,2.16c-3.49,0-9.34-1.4-14.4,1.65c0.78,2.09,1.96,2.15,3.81,1.44
		c3.91-0.51,7.92-0.31,11.83-0.51c0.62,0,1.23,0,1.75,1.03c-4.66,0-8.15-0.03-11.11,2.06c2.42,2.83,5.54,0.44,7.82,1.23
		c-0.04,0.11-0.46,1.67-0.51,1.85c2.76,1.84,5.39-0.01,7.92-0.51c8.02,6.17,8.02,6.17,8.13,11.72c0,0,0,0-0.01,0
		c-4.83,1.03-10.18,0.51-13.98,4.73c5.26-1.5,10.02-2.57,15.53-2.26c-3.5,3.5-15.01,4.45-18.62,1.85
		c-5.55,0.62-10.59-1.75-15.74-3.09c-1.95-7.3-2.16-7.61-6.38-8.13c0.27,1.65,2.83,2.19,3.6,4.32c-9.87-1.65-15.58-3.6-16.03-3.6
		c0.51-4.53,0.93-8.74,3.09-12.65c1.66-3.01,0.09-7.36,1.65-6.58c5.14,1.85,5.26,1.86,7.2-3.09c0.93-2.36,2.04-4.57,4.73-5.55
		c2.05-0.75,2.98-2.98,4.94-4.11C329.36,542.99,331.41,542.68,333.47,543.71z M253.45,99.3c1.75,0.6,0.93,2.07,0.93,3.6
		C253.56,101.46,252.73,100.53,253.45,99.3z M251.09,97.55c1.13,1.95,3.39,15.12,3.09,16.76
		C253.15,108.76,251.4,103.21,251.09,97.55z M251.5,119.15c-0.41-0.21,0.51-0.62,0.31-0.1c0.22,0.22,0.22,0.2,0.92,0.29
		c-0.26,1.47,2.98,7.84,0.78,4.88C252.25,122.52,251.94,120.84,251.5,119.15z M210.36,551.32c0.51,2.37,0.93,4.83,0.41,7.61
		C207.48,556.36,210.05,553.79,210.36,551.32z M231.84,561.59c0.36,0.92-11.7-1.43-15,3.51c3.09,1.44,5.55-0.3,8.13-0.1
		c2.67,0.21,5.35,0,7.61,0c0.94,0.62,1.99,1.43,2.37,2.57c-5.57-2.07-14.66-2.17-18.51,1.13c2.88,2.67,6.27,1.14,9.36,1.34
		c3.29,0.21,6.58,0.93,9.77-0.21c0.47,0.47,0.74,1.09,0.62,2.16c-1.09,1.09-3.95-2.51-15.63-0.31c-5.09,0.96-2.89,4.07-1.34,3.91
		c5.87-0.61,12.03,0.52,16.97-1.13c1.23,0.82,0.51,2.26,1.54,3.5c-27.92-2.23-18.83,6.24,0.31,2.99c2.36,4.3,4.4,9.01,7.36,13.31
		c0.01,0.02,0.03,0.04,0.04,0.06c-2.25,4.5-9.64,1.66-17.69,3.09c5.14-2.49,10.53-1.64,16.35-2.26c-4.35-3.26-16.4-1.46-22.11,2.06
		c-10.14-2.25-10.93,2.11-15.32-6.69c-1.44-0.93-2.78-1.85-4.42-2.47c-0.31-2.26,0.93-4.63-0.51-6.69
		c1.43-4.18,1.06-8.38,2.54-12.42c1.11-3.01,2.86-5.62,3.22-9.08c1.49,0.75,1.59,2.06,2.78,2.16c5.04,0,4.9,1.08,7.2-5.55
		c1.88-5.44,4.54-5.86,10.18-5.86C231.16,552.61,228.81,553.86,231.84,561.59z M318.76,305.82c2.06,5.95,7.28,33.54,6.06,33.54
		c-12.08,0.94-15.45,1.57-23.23,3.69c-27.87,7.61-24,6.38-23.24,5.25c0-1.03-0.82-1.03-1.23-1.34c-0.21-1.23,1.65-1.65,1.03-3.09
		c-2.25-0.1-3.38,1.93-5.21,2.56c-7.65,7.65-8.03,21.8-10.92,34.57c-0.97,4.27-5.67,25.65-7.61,29.53
		c-1.89,3.79-2.34,15.46-6.17,20.27c-1.66,2.09,0.03,2.6-4.25,14c-0.35,0.93-1.2,10.32-0.7,14.3c1.16,9.16,0.13,18.32-2.57,27.15
		c-3.05,9.99-4.84,20.26-7.41,30.34c-2.87,11.31-3.47,31.27-4.55,31.27c-5.47-1.53-11.23,1.22-12.5,4.04
		c-0.8,1.79-0.38,4.59-3.22,6.86c-0.62-1.75-0.11-3.19,0.21-4.53c2.75-11.42-0.75-28.83-3.19-53.38
		c-4.53-45.58,18.3-62.08,11.72-103.36c-0.51-3.19-0.42-6.48,0-9.57c0.7-5.14-0.41-10.18-0.1-15.22c0-0.41,0.1-1.12-0.21-1.44
		c-1.85-1.94-1.34-1.97-1.34-23.2c0-1.04,2.02,0.41,2.16,0.47c8.16,2.97,20.58,4.14,27.36,5.04c5.15,0.68,10.18-0.41,15.22-0.41
		c1.03,0,1.91-0.3,2.48-1.35c1.37-2.51-29.19-3.25-47.73-7.29c-0.34-21.38,3.93-41.68,10.18-56.26c9.33,4.06,11.23,1.67,14.3,4.42
		c0.93,0.1,1.03-0.72,1.34-1.13c13.16,0.93,26.12,4.11,39.6,3.6c0,5.92-0.14,5.14,0.42,5.14c0.19,0-0.07,0.37,0.59-5.05
		c0.13-1.07-1.41,2.12,30.57-6.37C318.48,291.95,316.82,300.22,318.76,305.82z M316.51,286.79c-4.73,1.75-6.79,2.06-8.74,1.13
		c-9.9,6.06-32.32,5.2-45.15,3.09c-10.48-1.73-1.43,1.32-9.98-3.81c-0.83,1.44,0.84,2.05,0.85,3.2c0.01,0.68-3.24,0.76-6.41-2.06
		c-1.13,0.21-1.86,0.84-2.98,0.41c-4.24-1.6-9.36,0-13.47-3.6c3.44-12.59,13.49-26.55,11.21-51.02c-0.26-2.82-4.13-6.61,0.1-7.2
		c7.41-1.44,14.6-3.81,22.11-3.91c15.35-0.2,28.45-4.19,47.72,2.06C306.66,257.84,316.51,268,316.51,286.79z M305.7,148.87
		c7.43,12.94,0.76-0.51,13.88,21.5c19.7,33.03,0.16,32.4-6.6,49.71c-0.95,2.44-0.68,2.53-0.84,2.53
		c-10.09-2.78-14.35-5.12-31.33-3.69c-22.4,1.89-14.75,0.22-41.55,5.97c-1.23-2.47-1.94-4.83-2.06-7.41
		c-0.74-16.46-2.8-21.69-3.37-26.37c-0.15-0.77,4.15,0.16,9.34-7.57c3.71-5.53,7.91-10.56,8.92-12.28
		c9.55-16.37,2.81-34.07,1.88-39.66c1.44-0.31,1.25,0.72,1.44,1.34c1.99,6.44,2.89,13.16,3.7,19.85c0.41,3.39,1.87,6.58,2.06,10.08
		c0.11,2.16,2.16,3.81,4.01,4.83c6.68,3.71,13.47,7.4,21.29,7.71c5.04,0.2,10.08,0.51,15.12-1.03c5.81-1.77,6.32-10.03,3.91-15.43
		c-5.61-12.58-4.16-10.2-12.55-24.17c1.85,0.51,3.29,0.93,5.04,1.23C300.56,140.13,303.18,144.48,305.7,148.87z M446.18,50.65
		c1.31,0,2.16,1.84,2.27,1.95c0.17-0.39,0.33,0.32-0.1,0.42c-0.92,0.22-1.03-1.03-1.85-0.93c-1.13-0.31-1.34,1.95-2.78,1.23
		C444.14,51.78,445.17,51.27,446.18,50.65z M446.4,57.13c-1.34-1.34-1.23-1.85-0.41-2.37C446.89,55.27,446.24,55.9,446.4,57.13z
		 M419.15,70.6c0.36-1.51,1.58-1.93,3.09-2.15c-1.47,1.71-1.61,1.78-1.22,2.3c0.64,0.86,2.1-1.04,2.46,0.46
		C421.43,73.15,421.11,73.19,419.15,70.6z M421.41,82.74c-2.83,0.3-3.16-0.06-0.82-2.98C421.13,80.75,421.74,81.71,421.41,82.74z
		 M423.77,82.33c-0.67-1.36-2.23-4.99-3.39-7.41c2.15-1.55,2.76-1.81,3.29-2.17c1.54,3.09,1.75,6.58,3.81,9.15
		C426.05,83.25,425.04,82.54,423.77,82.33z M431.8,82.33c-0.91,0.61-1.64,0.1-2.57-0.31c-0.31-0.82-0.62-1.75-0.93-2.78
		c1.44-0.62,2.26-0.21,3.19,0C432.31,80.38,432.1,81.3,431.8,82.33z M426.96,76.57c-2.12-5.65-2.91-5.97,0.31-8.95
		c8.36-7.73,11.2-13.47,11.47-13.2c2.11,2.77,2.19,6.14,3.55,8.98c1.4,2.93,1.24,6.17,2.67,9.15c-1.94,6.34-5.08,11.71-7.96,17.77
		c-0.57,1.21,0.25-3.98-2.32-4.92c0.31-0.72,0.51-1.34,0.82-2.16c-0.82-1.34-2.88-2.26-2.06-3.91
		C431.59,76.88,429.02,77.8,426.96,76.57z M435.19,88.81c-1.34,3.5-1.34,3.6-4.63,3.7c1.03-0.93,2.57-0.82,2.67-2.26
		c-1.03-0.41-2.16,0.72-3.6-0.51C431.69,89.43,433.34,89.12,435.19,88.81z M425.62,94.05c-0.51-2.16-0.51-2.16,0.1-4.11
		c1.03-0.31,1.65,0.41,2.57,1.03C427.94,91.36,425.65,94.03,425.62,94.05z M431.84,101.83c-3.24-7.8-5.41-7.07-3.02-9.11
		c0.91,0.51,1.8,1.23,2.85,1.59c2.98,1.02,1.2-2.19,4.04,6.34C434.15,104.29,432.69,103.89,431.84,101.83z M436.84,96.83
		c-1.23-0.1-1.13-1.13-1.54-1.95c0.82-0.62,1.65-1.34,2.47-1.95C438.43,93.59,438.23,92.65,436.84,96.83z M439.72,89.01
		c1.03-2.26,2.06-4.53,3.19-6.79C442.9,85,441.57,87.27,439.72,89.01z M444.24,80.27c-0.41-3.93,2.99-4.9,1.85-9.36
		c-2.89-11.31-6.46-16.23-5.99-19.92c0.06-0.44,1.66-2.01-15.3,16.43c-0.83,0-1.29-0.15-1.75-0.81
		c-0.21-0.51,13.88-15.53,16.04-16.87c1.1,0.46,2.29,1.64,2.78,3.39C445.42,66.02,451.35,70.8,444.24,80.27z M446.91,58.88
		c-0.32-1.42,0.83-2.18,1.54-3.5C449.09,57.08,448.44,58.12,446.91,58.88z"/> <path d="M248.11,84.18c0.15-0.05,0.06-0.02,0.1-0.1L248.11,84.18z"/> <path d="M243.79,98.79c0.04,0.1,0.79,14.67,4.32,19.03c-2.37-12.96-4.63-25.2-3.39-37.95c1.51,1.01,1.25,3.11,3.11,3.27
		c0.19-0.97-0.82-1.68-0.43-2.86c5.66-0.51,11.52-0.41,16.35-4.32c-1.56-2.64,1.59-1.72,0.62-3.39c-0.72-0.1-1.13,0.93-1.75,0.1
		c7.37-9.58,1.3-2.4-0.77-2.38c1.62-3.53-1.93,0.65-4.58-1.53c1.44-0.93,3.19-0.51,4.53-2.47c-3.91,1.13-7.51,2.06-11.83,2.16
		c2.67,1.65,5.45,0.72,7.61,2.47c-1.75,0.21-3.29,0.41-4.42,0.62c-1.44-0.1-1.95-1.34-3.09-1.23c-0.6-1.23-6.48-3.3-3.5-6.69
		c0.93,0.1,1.65,1.23,2.67,0.82c-0.21-1.44-2.16-1.23-2.06-3.09c1.02-1.43,1.35-3.86,3.81-4.53c0.19-1.14,2.78-1.18,1.85-2.57
		c2.24-0.19,4.41,2.27,5.63,1.66c-0.37-1.84-2.76-1.38-3.26-3c0.82-1.23,1.95-1.02,3.09-0.82c2.98,0.53,5.95,0.76,8.85,1.65
		c3.89,1.19,8.43-0.21,11.72,2.88c1.85-1.34,3.29-0.51,4.53,0.41c1.19-0.74,1.49-1.96,0.99-1.95c-2.17,0.04-4.43-2.89-7.47-3.29
		c0.1,0,0.84-0.56,1.44-0.82c1.31-0.58-4.05-1.78-5.02-2.41c-0.24-0.12,6.46-1.51,10.99,3.02c-1.38,0.79-2.41-1.33-3.91-0.62
		c1.85,1.85,3.74,1.97,4.11,4.01c1.23,0.93,2.67,0.93,4.11,0.41c-0.21-1.23-2.16-1.65-1.54-3.29c1.75,1.03,2.57,2.88,3.91,4.22
		c0.31-0.41,0.51-0.93,0.82-1.44c4.73,4.53,6.07,10.8,8.54,16.66c-2.57,0.41-5.04,0.31-7.2,1.95c2.78,2.06,5.35-1.54,8.02,0.41
		c-0.41,1.23-0.31,2.78-1.23,4.11c-3.19-0.31-3.19-0.31-6.07,1.85c1.95,0.31,1.85,2.67,3.6,3.09c1.65-0.1,1.95-1.65,2.88-2.88
		c2.78,6.89,3.72,13.58,1.65,20.47c-3.21,10.66-2.58,13.25-5.35,15.84c-1.95,0.93-4.01,0.82-6.58,1.75
		c3.19,1.03,5.25-0.21,7.41-0.62c3.4-4.04,3.3-9.52,4.83-13.27c5.78-14.14-1.63-20.91,0.1-28.39c0.94-4.07-3.83-15.01-5.86-18.72
		c-5.98-10.94-22.12-12.21-34.35-10.08c-6.18-5.77-18.61-2.85-19.44,6.69c-1.07,12.2,1.93,14.57,0.72,25.51
		C242.77,85.73,241.21,92.31,243.79,98.79z M247.8,79.45c-1.4-0.56-1.34-1.46-1.11-2.62c0.24-1.23,1.67,1.44,8.72,0.98
		C254.7,79.23,250.13,77.95,247.8,79.45z M255.44,77.81c0.37,0,2.31-1.72,4.67-1.45C259.68,76.36,259.35,78.12,255.44,77.81z
		 M263.11,74.84c-0.51,1.12-1.58,1.49-2.76,1.51C259.83,76.36,260.99,75.24,263.11,74.84z M261.65,70.37
		c-0.3,0.78-0.9,0.85-1.72,0.85C260.1,70.17,260.73,70.15,261.65,70.37z M245.84,68.65c1.52,0.4,2.55,2.01,4.26,1.85
		c0.16,0.5,0.81,0.92,0.31,1.46c-0.37,0.4-0.72,0.34-0.37,0.41c3.13,0.43,11.57,0.19,9.41,0.84c-7.78,2.35-7.78,1.88-7.2,2.13
		c2.21,1.12,7.21-1.17,5.89-0.02c-1.59,1.22-3.42,1.18-4.89,1.86c-6.7-1.5-6.81-1.56-7.08-4.19c-0.11-1.14,2.08,1.45,3.61,1.04
		C251.51,73.47,244.05,71.78,245.84,68.65z M258.7,47.26c0.82-0.31,1.03,0.31,1.44,0.62c-0.38,0.38-0.75,0.37-1.63,0.37
		C258.54,47.94,258.62,47.66,258.7,47.26z M272.07,50.64c-7.64-2.32-9.95,3.16-13.58,0.1C266.11,47,275,50.64,272.07,50.64z
		 M255.51,46.23c1.27,0.39,1.8,1.6,2.82,2.17c-0.79,1.57-2.35,0.12-5.99-1.8C252.04,46.44,253.92,45.88,255.51,46.23z M255.1,49.62
		c-0.24,0.31-0.52,0.37-0.84,0.36c-3.18-0.1-0.41,0.57-0.71,1.9c-1.95,1.23-3.6,3.29-6.07,4.01c-1.03,2.47-2.47,4.53-3.19,7.2
		C242.34,55.84,245.28,42.93,255.1,49.62z"/> <path d="M247.9,83.15c-0.17,0-0.04-0.03-0.1,0.1L247.9,83.15z"/> <path d="M267.96,57.03c-1.34-0.31-2.67-0.41-3.91-1.03c-2.65-1.32-5.57-0.18-5.57-0.07c-0.02,0.01-0.03,0.02-0.05,0.02
		c1.28,2.42,1.63,0.47-3.12,3.03c-1.75,0-2.67-1.44-4.01-1.54c0,1,0.73,2,2.16,2.26c5.4,0.99,7.85,2.75,12.34,1.85
		C265.54,59.78,268.69,58.5,267.96,57.03z M260.47,60.19c-0.7-0.02-1.54-0.32-3.41-1c2.01-0.1,3.63-0.48,5.14,0.56
		C262.25,59.8,261.15,60.2,260.47,60.19z M262.42,59.72c2.6-1.91,3.89-3.19,5.15-1.46C265.94,58.26,263.04,62.31,262.42,59.72z"/> <path d="M237.92,171.19c-5.45-7.61-13.37-12.24-21.6-17.59c0.21,2.26,0.21,2.26,1.34,3.09
		C238.15,169.93,236.07,172.78,237.92,171.19z"/> <path d="M285.03,81.61c-0.31-1.13-0.62-2.16-0.93-3.19c-0.62-0.1-1.34-0.93-2.06-0.1c0.1,0.41,0.93,0.41,0.72,1.13
		c-1.54,0.21-3.19,0-4.73,0.72c-1.23-0.41-1.75,1.23-2.78,1.23c0,2.55,1.78-0.14,2.88,0.41c0.45,2.7,2.39,3.61,5.04,1.34
		c0.62-0.62-0.62-1.23,0.21-1.75C284,81.3,284.31,82.23,285.03,81.61z"/> <path d="M304.78,431.4c1.03,3.6,2.47,6.38,3.91,9.15c1.94-1.94,0.94-3.29-1.95-11c0-1.34,1.34-2.57,0.62-4.42
		C304.06,426.57,306.73,429.96,304.78,431.4z"/> <path d="M741.68,425.64c-2.79-1.68-1.46,4.68-2.67,6.07c0.93,3.29,2.47,5.97,3.7,8.85c2.26-1.78,0.87-3.51-1.85-11
		C741.06,428.11,741.99,426.98,741.68,425.64z"/> <path d="M299.74,102.49c-0.31-1.44-1.03-1.45-1.65-1.54c-4.62-0.69-5.19-0.52-6.17,0c-4.61,2.43-6.74-0.37-7.3,2.16
		C287.75,105.39,290.58,102.25,299.74,102.49z"/> <path d="M292.74,74.82c-5.17,4.88,4.45,13.96,4.63,16.56c-0.41,1.54-2.06,1.85-2.16,3.29c0.93,0.41,1.65-0.1,2.47-0.51
		c2.37-4.74-3.64-7.99-5.55-15.12C292.13,77.6,293.36,76.47,292.74,74.82z"/> <path d="M277.42,73.18c-2.37,0.5-4.63,1.13-5.25,4.32c4.53-5.55,10.49-1.85,15.74-2.78C285.54,73.28,279.88,72.65,277.42,73.18z"/> <path d="M252.22,67.11c4.32,0.21,8.02-1.85,12.14-2.47c-8.13-2.16-21.33,0.41-12.03,0.41c2.06-0.21,4.01-0.72,6.17-0.21
		C256.85,66.9,253.97,65.26,252.22,67.11z"/> <path d="M298.5,105.37c-2.67,1.13-5.76-0.21-8.74,1.34C293.36,108.66,296.14,107.84,298.5,105.37z"/> <path d="M282.56,152.78c-3.29-0.31-5.45-2.47-8.74-3.39C278.14,154.02,279.48,154.63,282.56,152.78z"/> <path d="M311.46,465.24c0.62-4.22-0.21-7.41-2.37-9.46C309.1,459.27,310.54,462.15,311.46,465.24z"/> <path d="M744.97,463.39c0.88,5.3,2.65-1.42-1.34-7.41C743.33,458.66,744.25,461.02,744.97,463.39z"/> <path d="M743.53,349.43c0.93,2.47-0.41,5.55,2.06,8.13C747.03,354.06,744.46,351.9,743.53,349.43z"/> <path d="M273.82,116.58c3.6,1.65,6.79,2.26,10.08,1.65C280.71,117.71,277.73,116.37,273.82,116.58z"/> <path d="M200.38,157.31c3.81,0.93,7.51,0.72,11.21-0.41C207.79,157.1,203.98,156.69,200.38,157.31z"/> <path d="M337.17,150c-2.78,0.62-5.45,1.34-8.13,1.95C332.03,152.27,334.81,151.75,337.17,150z"/> <path d="M152.15,136.74c2.16-0.1,4.42,0.21,6.38-1.75C155.75,134.27,153.79,134.99,152.15,136.74z"/> <path d="M259.83,62.48c-3.09-1.13-5.76-1.03-8.33-0.93C253.97,62.48,256.54,62.99,259.83,62.48z"/> <path d="M287.7,94.36c2.06,1.95,4.01,1.75,5.97-0.72c-1.85-0.93-2.88,1.03-5.25,1.13C288.73,94.67,288.42,93.54,287.7,94.36z"/> <path d="M290.89,148.05c-2.57,0.93-4.83,2.26-6.79,4.11C286.78,151.44,289.14,150.21,290.89,148.05z"/> <path d="M745.38,470.18c-1.03,3.29-0.93,3.7,1.54,5.76C746.1,474.19,746.82,472.13,745.38,470.18z"/> <path d="M312.49,475.94c-0.41-1.85,0.1-4.01-1.54-5.86C310.12,472.64,310.64,474.5,312.49,475.94z"/> <path d="M93.52,114.52c-2.06-1.23-3.5-2.47-6.07-2.57C89.1,114.21,90.75,114.93,93.52,114.52z"/> <path d="M275.16,81.2c1.13,0.21,1.65-1.44,2.88-1.03c0.21-0.51,0.41-1.03,0.62-1.85C276.33,78.61,273.29,80.58,275.16,81.2z"/> <path d="M87.46,110.3c2.06-0.93,2.26-2.37,2.37-3.91C88.69,107.32,87.76,108.35,87.46,110.3z"/> <path d="M266.52,121.62c0-1.95,0-3.91-1.95-5.86C264.66,118.33,265.59,119.97,266.52,121.62z"/> <path d="M732.42,339.76c-0.21-2.47-0.21-2.47-2.06-4.22C730.47,337.09,731.09,338.43,732.42,339.76z"/> <path d="M100.52,117.4c-6.3-2.97-4.67-2.94-5.66-1.95C96.4,116.78,98.25,117.61,100.52,117.4z"/> <path d="M319.59,434.8c1.23-3.7,1.23-3.7-0.72-4.73C319.79,431.4,318.76,433.05,319.59,434.8z"/> <path d="M214.68,152.78c-0.51-1.75-1.75-2.88-3.29-3.7C212.01,150.72,212.83,152.16,214.68,152.78z"/> <path d="M753.1,429.24c0.1,2.16,0.31,3.7,0.41,5.25C754.23,432.94,755.46,431.2,753.1,429.24z"/> <path d="M370.7,125.12c-1.85-1.03-3.09-1.13-5.04,0.21C367.72,125.84,368.95,125.63,370.7,125.12z"/> <path d="M192.98,156.48c-0.72-1.34-1.75-1.03-2.78-0.82C190.2,156.51,191.68,157.2,192.98,156.48z"/> <path d="M343.04,148.26c-0.93,0.31-2.16-0.41-2.78,1.65C341.6,149.59,342.63,149.59,343.04,148.26z"/> <path d="M750.12,533.12c-1.23,0.93-0.93,1.95-0.51,3.7C750.12,535.18,750.63,534.35,750.12,533.12z"/> <path d="M315.99,533.12c-1.23,0.93-0.93,1.95-0.62,3.29C316.09,535.28,316.4,534.35,315.99,533.12z"/> <path d="M749.6,529.42c0.21-1.54,0.82-2.78,0-4.22C749.09,526.64,748.78,527.87,749.6,529.42z"/> <path d="M315.47,529.62c0.1-1.75,0.72-2.98,0-4.53C314.86,526.64,314.75,527.87,315.47,529.62z"/> <path d="M328.95,143.42c1.85-0.51,2.57-1.23,2.78-2.78C330.08,140.85,329.56,141.67,328.95,143.42z"/> <path d="M746.52,484.27c0.41-1.03,0.51-1.85-0.41-2.47C745.08,482.72,745.69,483.34,746.52,484.27z"/> <path d="M312.39,484.27c0.21-1.13,0.62-2.06-0.62-2.47C310.95,482.83,311.46,483.44,312.39,484.27z"/> <path d="M294.49,77.91c0.41-0.21,0.93-0.51,1.65-1.03C295.01,76.78,294.49,77.08,294.49,77.91z"/> <path d="M149.99,137.35c-0.62-0.21-1.03-0.21-1.95,0.62C149.27,138.28,149.78,138.28,149.99,137.35z"/> <path d="M781.69,353.03c1.44-0.1,1.85-0.82,1.85-1.95C782.62,351.28,781.9,351.8,781.69,353.03z"/> <path d="M738.6,355.09c0.1,0.93,0.41,1.44,1.23,1.65C740.14,355.6,739.83,355.19,738.6,355.09z"/> <path d="M749.7,541.04c0.72-0.51,0.82-1.03-0.21-1.75C749.09,540.01,748.98,540.63,749.7,541.04z"/> <path d="M326.48,147.54c0.62-0.31,1.44-0.62,0.31-1.34C326.27,146.41,326.27,146.92,326.48,147.54z"/> <path d="M315.68,541.04c0.62-0.72,0.72-1.23-0.41-1.75C315.06,540.01,314.65,540.52,315.68,541.04z"/> <path d="M271.25,114.62c-0.31-0.62-0.82-0.82-1.44-0.82C270.12,114.21,270.32,115.14,271.25,114.62z"/> <path d="M351.16,144.35c0.31-0.21,0.51-0.41,1.23-0.93C351.16,143.32,350.65,143.32,351.16,144.35z"/> <path d="M102.57,119.05c0.82,0.51,1.13,1.23,1.95,0.82C104.22,119.46,103.81,119.15,102.57,119.05z"/> <path d="M733.25,140.85l0.1-0.1C733.31,140.75,733.27,140.81,733.25,140.85z"/> <path d="M728.72,122.24l-0.1-0.1C728.66,122.24,728.68,122.21,728.72,122.24z"/> <path d="M272.92,346.42C273.01,346.36,273.04,346.31,272.92,346.42L272.92,346.42z"/> <path d="M272.89,346.45c0.01-0.01,0.02-0.02,0.03-0.03c0,0,0,0-0.01,0.01C272.91,346.44,272.89,346.45,272.89,346.45z"/> <path d="M677.7,336.57c-4.5-0.24-7.32,7.96,2.98,6.89C681.22,339.9,681.25,336.76,677.7,336.57z M677.3,342.54
		c-2.01-1.06-2.43-2.31-1.03-4.22c2.01-0.44,3.29-0.01,3.29,2.16C678.33,340.59,677.71,341.51,677.3,342.54z"/> <path d="M666.91,336.47c-0.91,0.6-1.03,1.76-1.84,2.37c0.22,0.65,0.39,1.35,0.68,2c1.08,2.43,4.12,2.85,5.8,1.4
		C675,339.25,671.17,333.67,666.91,336.47z M666.91,339.76c1.13-2.64,1.1-2.68,3.91-1.64C672.14,341.62,668.14,343.15,666.91,339.76
		z"/> <path d="M659.2,335.96c-0.41,2.16-0.41,4.22-0.31,6.48c1.34-0.41,1.03-1.85,2.16-1.85c1.23,0.21,1.13,2.06,2.67,2.06
		c0-1.59-0.37-3.11,1.33-3.85C665.29,338.67,664.4,334.22,659.2,335.96z M660.74,337.5c1.03-0.72,1.75-0.1,2.67,0.31
		C661.46,339.45,661.46,339.45,660.74,337.5z"/> <path d="M674.93,429.86c-1.76,1.76-2.51,3.34-2.96,5.24c-0.24,1.01,8.02-3.53,3.99-9.14C674.5,426.88,675.41,428.66,674.93,429.86z
		"/> <path d="M696.02,315.7c1.44,2.16,3.39,3.91,5.04,5.86C700.23,318.88,698.28,317.24,696.02,315.7z"/> <path d="M670,457.11c0.86-1.61,2.25-2.88,1.54-5.45C670.1,453.51,669.38,455.06,670,457.11z"/> <path d="M661.77,431.81c1.34-1.34,1.23-2.98,1.23-4.73C661.25,428.32,662.18,430.17,661.77,431.81z"/> <path d="M667.73,462.87c-0.62,1.23-0.82,2.47,0.1,4.42C668.74,462.18,669.05,463.31,667.73,462.87z"/> <path d="M652.12,542.07c-0.72,0.17-0.74,1.67,0.3,1.35C652.83,542.73,652.64,541.94,652.12,542.07z"/> <path d="M757.29,126.42c0-0.14-0.98-2.06,0.92-1.15c1.03,0.49,0.82,1.26,0.34-3.34c-0.6,0.09-1.35-0.29-1.85,0.21
		c1.13,2.25-0.99,0.03-6.48,1.54c-1.64,3.38,0.84,0.98,2.16,1.34C752.38,129.26,757.28,127.45,757.29,126.42z"/> <path d="M739.11,102.69l0.01,0.01C739.23,102.81,739.23,102.82,739.11,102.69z"/> <path d="M771.82,146.29c-5.51-3.42-8.45-1.05-11.86-0.96c-1.29,0.04-2.02-0.35-2.42-0.29c-1.48,0.23-1.68,3.47,8.93,1.36
		C767.87,146.13,769.72,147.3,771.82,146.29z"/> <path d="M762.46,119.15c0.1-0.62-0.1-1.03-0.41-1.03c-5.63-1.47-12.17-3.51-14.74,1.81c-0.37,0.92,1.09-2.06,5.72-2
		C758.09,118.01,760.14,120.39,762.46,119.15z"/> <path d="M769.44,149.6c-2.57,0-5.14,0-8.23,0C765.09,152.15,767.2,151.66,769.44,149.6z"/> <path d="M768.83,132.52c1.04-0.7-2.41-5.39-2.88-8.95c0.4-1.39,1.54-2.5,1.44-4.05c-2.89,1.67-2.06,3.97-2.06,4.98
		C765.95,127.38,766.67,130.26,768.83,132.52z"/> <path d="M767.39,119.52c0.04-0.02,0.06-0.04,0.1-0.06C767.37,119.33,767.39,119.3,767.39,119.52z"/> <path d="M752.27,186.52c2.98-1.75,5.55-3.29,8.13-4.73C755.57,182.61,753.41,183.84,752.27,186.52z"/> <path d="M755.15,160.19c-3.81-0.82-6.58-2.16-10.18-2.37C749.52,160.32,751.93,160.64,755.15,160.19z"/> <path d="M769.76,135.77c-0.11,1.87-2.16,1.48-2.16,3.13c2.52,1.26,3.06-2.16,3.39-3.39c0.1,0-0.85-1.8-1.12-2.37
		c0.1,0-0.52-0.53-0.72-0.83C768.23,132.93,769.84,134.39,769.76,135.77z"/> <path d="M745.18,185.8c2.26,2.26,3.09,2.26,5.86,0.31C748.98,185.9,747.44,184.56,745.18,185.8z"/> <path d="M732.22,141.78c0.41,2.25,1.26,4.65,2.98,6.17c-0.31-1.95-0.82-3.7-1.44-5.45C733.57,141.84,732.89,141.67,732.22,141.78z"/> <path d="M760.81,138.07c1.75,1.65,2.3,1.85,5.76-0.31C764.4,136.42,762.76,139.37,760.81,138.07z"/> <path d="M735.82,183.33c1.46,0.83,3.32,1.34,5.45,1.34C739.73,183.64,738.08,182.81,735.82,183.33z"/> <path d="M737.26,156.38c-0.51,1.85-0.41,3.5,1.03,4.94C737.98,159.67,737.67,158.03,737.26,156.38z"/> <path d="M751.04,210.69c-0.75,1.12,1.64,1.89,1.34-1.44C751.33,209.51,751.39,210.09,751.04,210.69z"/> <path d="M766.21,141.58c-0.14-0.12-0.34-0.23-0.57-0.32C764.71,143.13,767.09,142.46,766.21,141.58z"/> <path d="M700.02,177.28c1.12-1.12,4.24,1.09,7.12,0.61c-4-1.79-6.98-2.8-10.39,0.51C698.61,179.37,699.19,177.96,700.02,177.28z"/> <path d="M693.96,269.82c1.15,1.22,1.84,2.62,3.81,2.89C697.04,271.06,695.71,270.13,693.96,269.82z"/> <path d="M701.06,214.08c1.85-0.51,3.39-1.34,3.09-3.5C703.11,211.82,702.08,212.95,701.06,214.08z"/> <path d="M708.98,209.04c-0.72,0.51-1.34,0.93-1.13,2.06C708.78,210.63,709.33,210.09,708.98,209.04z"/> <path d="M710.53,179.14c2.62,0,0.5-1.91-0.73-0.44C710.02,179.01,710.26,179.14,710.53,179.14z"/> <path d="M786.09,257.55c-0.87,1.63-0.86,3.08-0.92,3.32c2.07-2.06,3.3-4.73,4.84-7.2C789.9,253.68,787.32,255.25,786.09,257.55z"/> <path d="M774.39,335.55c0.42,1.16,1.26,1.5,2.46,0.77c0.58-0.36,0.6-0.25,0.4-1.27c-0.17-0.84-0.47-1.73-1.01-2.39
		C774.38,332.86,773.8,333.91,774.39,335.55z"/> <path d="M785.08,260.88c-1.56,0.73-2.24,1.88-1.95,3.6C784.57,263.45,784.98,262.21,785.08,260.88z"/> <path d="M722.24,281.04c-0.94,0.7-1.85,1.54,0,3.19c1.54-1.44,3.6-1.75,5.45-2.57C725.53,279.9,724.07,279.67,722.24,281.04z"/> <path d="M726.87,275.69c0.31,0,0.51,0.1,0.72,0.31c0-0.38,2.37-3.77,1.95-7.51C729.55,268.66,727.44,274.22,726.87,275.69z"/> <path d="M672.99,583.62c-2.49-1.01-4.97-1.03-7.32-1.19c-1.99-0.14-3.12-0.69-3.45,0.8C662.03,583.81,665.52,586.98,672.99,583.62z
		"/> <path d="M640.89,587.63c0.81-2.86,0.55-5.11-1.65-7.2C639.24,583.01,639.6,585.4,640.89,587.63z"/> <path d="M242.79,336.57c-2.55,0-4.04,1.88-4.04,3.7c0,2.67,2.06,3.7,6.99,3.19C246.46,338.65,245.64,336.8,242.79,336.57z
		 M242.44,342.44c-2.17-1.64-2.15-1.65-0.93-4.11c1.92-0.48,3.01-0.14,3.09,2.06C243.57,340.69,242.75,341.3,242.44,342.44z"/> <path d="M231.39,337.02c-0.35,0.47-0.53,0.93-0.78,1.28c-1.54,2.16,0.86-3.29-5.18-2.58c-1.84,0.22-1.48,1.21-1.48,6.75
		c1.34-0.41,1.03-1.85,2.16-1.85c1.04,0,1.18,2.06,2.47,2.06c0.1-2.11,0.11-2.17,1.54-3.8c0.29,0.88,0.55,2.01,1.12,2.77
		c2.02,2.69,6.77,1.47,6.67-2.31C237.82,335.76,233.21,334.59,231.39,337.02z M225.79,337.5c1.03-0.82,1.75-0.1,2.67,0.31
		C226.56,339.51,226.49,339.58,225.79,337.5z M231.96,339.76c0.93-2.37,0.93-2.37,3.7-1.95
		C237.52,341.53,233.3,343.12,231.96,339.76z"/> <path d="M240.8,429.86c-1.81,1.59-2.37,3.18-3.09,5.34c2.47,0,3.6-1.34,4.22-2.98c0.73-1.95,1.75-4.11,0.1-6.38
		C241.18,427.55,240.95,426.77,240.8,429.86z"/> <path d="M272.83,346.45c1.07-4.86,0.56-9.73-1.07-14.4C271.8,333.82,271.94,345.02,272.83,346.45z"/> <path d="M261.79,315.8c1.44,2.16,3.39,3.81,5.04,5.76C266,318.88,264.15,317.14,261.79,315.8z"/> <path d="M235.97,457.83c0.94-2.19,1.95-3.49,1.44-5.45C235.56,453.86,235.28,455.48,235.97,457.83z"/> <path d="M278.55,341.72c1.34-2.06,1.54-4.01,1.65-5.97C279.06,337.4,278.14,339.25,278.55,341.72z"/> <path d="M227.74,431.81c0.62-1.16,1.18-2.26,1.11-3.87C228.68,423.91,227.48,428,227.74,431.81z"/> <path d="M282.25,331.95c1.65-2.26,1.65-2.26,1.54-4.22C282.97,329.07,282.46,330.4,282.25,331.95z"/> <path d="M233.6,466.68c0.15-1.04,0.92-2.51,0.51-4.22C232.81,463.97,232.76,465.28,233.6,466.68z"/> <path d="M217.97,542.07c-0.64,0.53-0.68,0.96,0.21,1.54C218.54,542.9,218.73,542.29,217.97,542.07z"/> <path d="M279.68,333.08c-0.62,0-1.03,0.41-1.44,1.03C279.27,334.41,279.58,333.9,279.68,333.08z"/> <path d="M269.91,251.31c-0.91,6.36-0.33,9.31,0.51,12.14C270.42,259.54,271.27,251.48,269.91,251.31z"/> <path d="M283.38,264.58c-0.51,1.03-1.95,1.23-1.85,2.67c1.66,0.88,3.18,0.97,4.53-0.41C285.85,265.3,284.93,264.89,283.38,264.58z"/> <path d="M250.47,228.99c-1.03-0.93-1.95-1.75-2.88-2.57C248.72,228.76,248.72,228.8,250.47,228.99z"/> <path d="M299.43,281.76c0.69-1.24,0.98-1.84,0.82-3.39C298.91,281.55,298.91,281.55,299.43,281.76z"/> <path d="M300.87,266.33c0-1.95,0-3.29,0-5.35C300.04,263.03,300.05,264.37,300.87,266.33z"/> <path d="M264.46,209.04c-9.15,0.1-16.87-1.75-24.17-5.35c-0.1,0.93,0.31,1.34,0.72,1.54c4.79,2.74,12.65,6.42,18.2,5.66
		c4.37-0.6,23.82-3.66,22.01-8.33C275.88,206.67,269.4,207.39,264.46,209.04z"/> <path d="M238.75,583.72c-3.4-1.54-6.56-1.04-9.67-1.54c-0.39-0.13-1.13,0.32-1.13,1.65C231.34,585.98,234.74,585.78,238.75,583.72z
		"/> <path d="M205.12,580.84c0.41,2.26,0.21,4.63,1.65,6.69C207.34,584.78,207.35,582.58,205.12,580.84z"/> </g> </svg> 