<?xml version="1.0" encoding="utf-8"?> <!-- Generator: Adobe Illustrator 23.0.1, SVG Export Plug-In . SVG Version: 6.00 Build 0)  --> <svg version="1.2" baseProfile="tiny" id="Layer_1" xmlns="http://www.w3.org/2000/svg" xmlns:xlink="http://www.w3.org/1999/xlink" x="0px" y="0px" viewBox="0 0 900 600" xml:space="preserve"> <g> <path d="M778.31,211.1c-5.22-9.85-10.29-7.64-24.24-20.32c-0.83-2.48-1.03-5.16-2.17-7.53c1.38-5.96,5.59-18.72,3.3-36.21
		c0.93-0.72,2.48-1.34,2.79-3.3c-1.03-2.06-1.97-4.53-3.4-6.6c-6.11-8.87,6.21-8.44-1.03-26.31c-1.04-2.57-3.4-4.64-7.12-5.67
		c1.96,2.89,4.57,4.33,5.26,7.22c1.02,4.25,2.66,12.73-0.31,15.99c-2.08-9.79-1.11-15.68-3.82-20.43c-0.94-1.64-1.53-3.3-1.65-5.16
		c-1.12-17.15-8.17-37.75-9.9-39.1c-0.62-0.21-1.03,0.41-1.75-0.41c-5.21-13.8-9.18-19.89-7.63-26.31c-2.89-7.84-3.3-8.56-6.4-11.14
		c-0.21-7.32-2.37-15.16-11.86-20.01c-1.03,0.62-2.37,0.93-2.99,2.37c1.73,3.46-3.04-2.67,0.73,9.9c0.93,1.03,2.29,1.64,2.99,2.89
		c0.85,1.53,2.47,2.49,4.02,3.2c14.28,6.46,8.76,12.29,11.29,20.72c0.69,2.29,1.14,2.47,2.94,7.4c11.21,30.73,4.36,0.75,16,46.57
		c1.41,5.54-0.84,2.19,2.82,12.27c3.25,8.97,1.91,17.75,6.06,37.04c4.15,19.31-3.3,30.42-0.3,43.14c4.04,17.1,1.81,11.18,2.98,16.27
		c1.86-1.96,1.44-4.33,2.17-6.29c2.84,1.35,4.92,6.27,5.98,9.23c1.42,3.96,0.24,5.28-3.92,10.78c-4.44,5.87-10.83,7.22-17.23,8.87
		c-0.81,0.27-1.01,0.34-15.99-2.89c-4.96-1.07-11.19-3.52-11.45-8.56c1.44-0.21,1.34,1.55,2.58,2.17c0-1.5-1.42-2.36-1.71-3.66
		c-0.15-0.65,0.19-1.68-0.28-2.73c-0.61-1.37-1.82-1.05-1.82-1.61c0.4-7.23,0.67-14.25,5.77-20.16c0.2,0.32,0.35,0.66,0.47,1.01
		c3.79,10.46,0.26-3.55,1.69-10.3c2.61,5.53,2.64,1.88,3.09,7.84c4.3-2.7-0.53-5.87-0.53-9.4c-1.28-1.27-2.19,0.13-2.43-1.07
		c-0.19-0.97,0.62-8.34,3.27-14.29c4.05-9.07,3.88-26.54,2.89-33.32c-2.67-18.2-0.44-16-1.82-19.51c-0.44-1.14-1.91-3.88-2.93-7.36
		c-0.7-2.39-0.74-3.89-0.98-4.6c-0.32-0.96-1.3-2.01-1.39-2.9c-2.45-13.49,1.83-5.36-7.38-45.82c-0.75-3.28-0.35-2.44-0.35-4.83
		c-4.26-5.32-7.49-6.06-12.07-9.59c-1.34-1.03-3.3-1.03-4.44-2.58c-0.93-1.44-2.06-2.79-3.3-4.33c0.3-1.2,1-2.71,0.52-5.57
		c-0.48-2.85,2.18-4.68,2.33-4.26c0.84,2.42-1.05,4.83,0.26,7.25c2.79-3.2,0.1-7.32,2.27-10.11c-0.1-0.78-0.49-0.95-1.24-0.72
		c0.12-1.33,0.14-3.22,0.83-5.67c2.36,0.5,2.48,0.54,3.57,2.52c0.35,0.63-2.62,2.04-2.54,5.43c0.06,2.2,0,4.23,1.65,5.88
		c2.03-1.78-0.78-3.04,0.62-8.97c1.07,1.27,0.97,2.97,1.2,4.48c0.73,4.81,4.06,2.33,0.35-6.94c0.97,0,0.86-2.96,0.87-3.07
		c0.13-1.64,0.9-1.14,0.85-2.24c-0.03-0.58-0.09-1.15-0.78-1.38c-1.34,0.21-0.93,1.96-2.27,2.27c-6.55-3.28-4.35,2.42-8.05,3.71
		c0,1.55,0,2.99,0,4.33c-1.44,0.31-2.48,1.96-4.23,1.03c-1.86,2.68-5.16,3.71-6.91,6.71c-0.31,2.89,0,5.98,0.1,9.08
		c0.93,0.62,1.75,1.24,2.79,1.96c-1.34,5.47-0.93,11.14-1.44,17.64c-1.68,3.74-0.22,7.5-1.13,12.07c-0.1,1.03-0.3,2.06,0.21,3.09
		c1.7,3.51-1.71,3.72-1.75,7.74c-0.26,25.18-3.17,25.36-3.61,37.34c-0.62,16.93-5.67,31.39-2.17,34.35c-2.99,3.09-2.99,4.75,0,9.9
		c-1.65,1.44-2.38,3.3-2.58,5.47c-0.21,2.27,2.37,3.3,2.79,5.16c-0.6,1.79-7.41,2.74-6.4,10.52c0.01,0.1,1.25,23.91,3.4,32.39
		c-0.41,0.83-1.75,1.03-1.75,2.58c0.93,1.44,0.72,3.2,0.41,5.05c-1.26,7.57,0.41,4.92,0.41,9.08c-2.48,0.21-3.07,0.53-4.02,2.27
		c-1.41,2.6-0.1,4.64,1.44,6.6c-1.15,4.22,0.82,2.26,0.41,6.4C649.11,448,645.77,493.75,645.45,502.25
		c-0.12,0.35-0.31,1.12-0.6,2.54c-2.37-1.13-4.97-1.52-7.12-2.89c-2.08-1.32-5.16-0.41-6.5-3.09c-8.87,1.13-17.12,3.2-23,10.42
		c-8.69-7.09-10.49,3.15-13.82-3.51c-5.66-1.62-3.04,16.57-8.67-78.09c-25.8-434.47-23-411.13-25.48-412.01
		c-3.96,1.24,29.43,486.3,26.41,495.36c-0.06,0.22,0,7.82,1.86,25.48c-8.87,1.55-17.74,1.13-26.2,4.02
		c-1.82-2.86-33.36-533.82-36.52-534.56c-2.7,0.9,34.19,534.21,32.91,535.49c-2.34,0.78-1,1.56,0.62,3.71
		c1.04,16,1.42,14.23-0.93,15.58c0.41,0.62,0.72,1.03,0.93,1.34c-0.1,0.72-1.34,1.03-0.62,2.06c2.14,0.92,1.64-4.76,2.48,8.15
		c1.55,23.84,1.11,23.07,2.79,23.31c1.91-1.07,1.43,0.14-0.72-30.23c-0.32-4.57-1.66-3.34,13-8.46c1.45-0.51,2.89-0.93,3.3-2.89
		c-0.62-0.83-0.72-2.06-2.27-2.68c-5.16,0.62-9.8,2.99-14.55,6.5c-0.21-4.44-0.52-8.36-0.72-12.28c3.92-0.93,7.43-2.17,11.35-2.27
		c3.2,2.58,5.78,5.67,7.12,9.9c1.65-0.41,2.15,1.91,4.23,1.34c0.82-0.23,0.62-1.55,1.75-2.06c10.37,0.26,19.27-0.62,23,8.56
		c3.86,9.5-2.18,23.48-11.76,25.58c-1.11,0.24-17.56,5.58-30.53,6.71c-1.94,1.11-1.15,4.22,3.2,3.51
		c6.68-1.09,34.01-5.81,36.83-11.97c-0.1-0.62-0.31-1.24-0.52-1.96c14.85-18.24,0.69-16.55,16.51-11.86
		c2.79,0.83,5.57,1.24,8.56,0.93c0.21-0.52,0.41-1.03,0.62-1.65c16.26-5.42,15.77-8.07,16.3-17.95c0.28-5.26-1.31-9.62-5.26-13.1
		c-1.54-1.35-3.3-2.17-4.64-3.09c-0.39-6.69,6.82-6.93,9.08-15.68c-0.99-4.54,25.04-278.68,25.89-280.38
		c2.27-0.93,4.07-2.37,4.02-5.05c-0.05-2.79-2.27-4.13-4.02-5.47c0.83-5.16,1.55-10.11,2.17-14.55c0.83-1.96,2.68-2.27,3.3-4.02
		c0.31-0.62-0.5-1.34-0.31-2.17c1.64-6.99,1.78-14.38,5.36-20.84c2.6-4.68,3.3-12.16-2.06-17.23c-0.62-2.89,2.58-3.4,3.4-5.67
		c0.41-2.99-0.93-5.47-3.92-7.43c2.03-1.02,5.2-3.17,3.95-5.4c1.7-1.55,0.38-3.8,0.9-5.75c0.41,0.21,0.62,0.21,0.72,0.41
		c0.1,0.1,0.31,0.41,0.21,0.62c-1.83,5.13,2.17,11.34,1.44,27.34c-0.43,9.47,2.32,12.85-0.52,18.36c0.31,0.83,0.62,1.44,1.13,2.48
		c1.13-1.24,1.96-2.17,2.68-2.99c4.28,24.61,6.59,21.99,5.98,26c-1.2,7.94,5.96,24.55,6.5,44.36c0.15,5.68,0.86,11.36-1.03,16.92
		c-1.93,5.68-4.01,11.16-8.67,15.27c-7.06,6.23-8.08,12.88-21.35,27.96c-9.36,10.64-8.95,42.53,6.5,48.17
		c2.32,8.25,1.76,17.5,8.15,29.71c5.38,10.29,6.88,16.97,11.76,32.39c1.17,3.68-1.99,12.7-3.3,15.78
		c-14.81,34.92,3.54,52.04-3.82,88.82c-0.62,0.1-1.55-0.1-1.65,0.21c-0.83,1.65-3.05,1.98-3.71,3.82
		c-1.95,5.41,1.62,6.32-1.03,10.83c-2.02,3.43-2.48,7.22-4.13,10.73c-0.87,2.33,1.53,2.56,1.75,1.65
		c3.29-10.06,7.12-9.61,6.19-22.69c0.93-0.41,1.55-1.13,2.58-1.13c1.65,0.41,2.89,2.27,5.05,1.96c0.1-2.27-1.55-3.09-2.89-4.44
		c0-7.15,4.41-20.73-1.13-48.79c-5.64-28.56,7.66-36.31,8.87-58.59c-1.55-1.13-1.85-2.79-2.17-4.54
		c-3.48-19.23-6.29-11.22-15.06-44.46c-0.19-0.73-0.52-1.55,0.52-2.37c2.37,1.03,5.05,1.24,8.05,0.93
		c4.25,15.18,22.21,44.01,16.81,59.11c-3.71,10.38-1.85,13.64-5.05,17.95c-9.07,12.2-6.34,29.07-6.09,56.94
		c0.1,10.52-1.55,21.04-1.03,31.46c-1.13,0.52-2.27-0.72-3.71,0.31c-2.89,7.43-2.68,16.09-6.71,23.52c-3.2-0.1-4.54-2.99-6.91-4.75
		c-0.61,1.82-5.2,4.82,6.81,7.53c-0.41,1.65-2.17,2.89-0.93,4.85c1.75,1.44,4.64,1.55,5.57,4.23c14.64,2.02,16.09,2.43,26.72-2.89
		c1.65,0.31,3.39,0.23,4.75,1.13c4.93,3.28,20.81,3.57,34.15-5.88c5.25-3.72,3.88-7.54,2.99-14.34c-0.68-5.19-5.08-2.82-6.91-3.82
		c-1.02-1.17-0.64-4.37-2.99-5.47c-8.06-3.77-5.7-1.24-16.4-1.24c-2.58-3.61-6.71-1.44-10.21-2.48c-1.03-0.93-2.27-2.06-3.4-3.09
		c-0.41-1.55,0.1-3.4-1.65-4.13c2.73-23.17,1.76-13.81,15.58-61.17c0.45-1.54,1.53-2.89,1.65-4.54c0.53-7.02,3.48-13.61,4.44-20.63
		c0.11-0.82,0.4-1.66,0.83-2.27c3.77-5.46,1.25-13.14,5.05-26.51c5.64-19.82,3.42-26.65,2.68-46.63c-0.21-5.58-1.38-9.17-6.6-25.58
		c-4.09-12.85-1.08-13.42-0.52-19.81c0.87-9.91,5.54-31.01,13.1-41.78c2.71-3.85,7.27-11.94,8.25-13.31
		c5.25-7.33,7.63-15.58,8.67-24.14c-0.62-1.24-1.67-1.86-1.55-2.99c0.35-3.21-0.62-6.5,0.1-9.7c1.44-1.13,2.69-2.27,4.02-3.4
		C781.37,232.85,783.41,220.72,778.31,211.1z M707.76,16.87c-0.55-2.38-0.88-4.92-1.78-7.3c0.39-0.29,0.87-0.57,1.25-0.76
		c1.84,0.51,2.38,2.25,3.3,3.3c0.01,1.44-1.33,0.1-1.64,1.03c-0.56,2.36-0.17,4.29,2.06,5.26c1.03,0,1.55-0.62,2.17-1.13
		c3.16,1.27,3.78,0.54,4.33,7.01C712.74,22.23,708.02,18.01,707.76,16.87z M754.48,140.23c0.62,1.03,1.34,2.06,1.86,3.09
		c-0.2,0.69-0.6,1.09-1.35,1.22C754.72,144.63,753.74,142.6,754.48,140.23z M593.35,507.88c0.01,0.01,0.03,0.02,0.04,0.03
		c6.96,5.52,4.17-0.39,11.3,3.05c-0.52,1.81-1.87,1.07-13.31,0.72C589.24,508.24,592.42,508.58,593.35,507.88z M594.9,515.93
		c0.54-0.54,1.25-0.72,2.48,0.1c0.82,6.55,0.73,13.22,1.96,19.81c-2.14,0.99-3.4-0.11-3.4-0.72c-0.34-3.41-0.24-6.92,0.1-9.28
		C596.53,522.46,595.34,519.28,594.9,515.93z M592.83,516.75c0.17,1.97,0.37,3.34-0.72,5.16c-0.62-6.55-1.17-6.16,1.13-8.46
		c0.66,0,1.16,0.07,1.44,0.72C594.48,515.1,592.94,514.79,592.83,516.75z M593.97,539.97c0.19,0.75,0.75,1.64,0.47,1.64
		c-1.17,0.06-2.07-0.33-3.16-0.93C592.17,539.92,592.95,539.74,593.97,539.97z M590.87,549.45c-7.04,1.48-5.66,1.78-8.81-1.93
		c-1.61-1.89-3.26-3.46-5.42-4.67c13.41-1.97,8.28-2.99,21.24,5.78C597.2,548.63,590.95,549.45,590.87,549.45z M602.94,549.66
		c-0.75-4.67-8.1-6.81-6.27-6.81c4.27,0.01,7.86,0.4,11.95-0.83c-0.09,3.74-0.01,6.95,0.62,10.83
		C606.86,551.62,605.11,550.69,602.94,549.66z M643.27,525.41c-9.28,10.12-3.82,8.06-6.09,9.91c-1.23,1.01,0.26,1.47,5.26,6.18
		c5.66,5.32,7.12,17.79-0.3,22.4c-4.01,2.49-8.36,4.64-12.89,6.29c-4.51-1.97-9.51-3.31-14.25-5.26c-0.41-3.2-1.22-6.2-3.2-8.77
		c-1.16-1.51-1.91-11.65-1.03-16.81c-5.47,0.62-10.52,1.44-16.3-0.31c3.23-1.01,5.46,0.98,7.94,0.31c2.46-0.66,5.16-0.1,7.32-1.75
		c0-2.91,0.55-2.64-0.83-5.36c-1.15,0.57,0.03,1.81-0.47,2.6c-0.7,1.1-5.41,0.88-7.37,1.1c-0.46-5.32-1.77-20.44-1.44-20.72
		c1.06-0.91,6.04,0.08,10.73-4.34c2.95-2.79,9.8-8.1,13.93-8.05c4.33,0.05,8.56,0.1,12.28,0.52c1.75,0.41,1.86,1.74,2.99,2.06
		c2.79,0.79,4.23,2.68,3.92,5.57C646.98,514.78,646.92,521.42,643.27,525.41z M757.99,197.48c0.73-0.53,0.94,0.24,1.55,0.62
		C758.51,198.41,758.3,197.89,757.99,197.48z M720.34,108.15c-3.37,0-6.56-0.49-8.36-1.03
		C717.89,106.66,720.67,104.85,720.34,108.15z M719.41,104.53c-2.74,0.37-4.93,1.12-7.53,0.72
		C714.21,102.92,718.54,101.07,719.41,104.53z M717.46,88.65c1.07,3.65,0.05,8.3,1.03,11.24c-0.93,1.03-1.86,0.72-3.09,0.72
		C715.43,100.51,717.36,92.69,717.46,88.65z M703.32,43.47c2.92,0,4.82,3.73,7.63,4.33c-0.52,21.46,6.54,20.36,3.51,45.18
		c-1.14,9.33-1.12,8.1-5.98,9.49c-3.92-1.24-7.72-0.42-11.76,0.31c-0.93-1.96,0.42-3.71,0.62-5.67c0.65-6.5,0.89-13.11,2.68-19.6
		c2.02-7.29,3.61-21.67,3.3-23.73C702.35,47.35,703.79,49.58,703.32,43.47z M700.53,103.81c1.34-0.31,2.79-0.52,4.64-0.83
		C703.11,104.74,703.11,104.74,700.53,103.81z M703.21,107.32c-0.85,0.23-1.03-0.26-1.03-1.04
		C703.01,106.19,703.21,106.6,703.21,107.32z M691.35,27.27c-0.41,4.13,0.1,7.74,4.23,10.11c-9.53,4.47-8.88,21.17-9.59,2.89
		C688.25,36.24,688.56,31.29,691.35,27.27z M684.95,33.87c-0.93-2.37-1.13-4.64-0.93-7.32c1.72-1.72,3.1-3.39,5.36-4.23
		c1.53,2.49-2.82,0.9-2.68,6.94C686.75,31.1,685.47,32.33,684.95,33.87z M686.4,50.58c8.06-6.31,9.95-18.43,9.18-6.09
		c-3.09,4.33-6.5,8.36-10.21,12.59C684.54,54.56,684.29,52.23,686.4,50.58z M684.29,59.82c0.1-1.29,5.49-2.53,9.74-8.3
		c0.07,1.04-0.23,1.78-0.2,2.79c0.07,1.96,1.88-1.12-9.4,11.86C683.96,63.77,684.13,61.82,684.29,59.82z M682.17,80.29
		c5.36-3.2,8.87-7.84,10.83-13.82c-0.41-0.93-0.72-1.55-2.17-1.44c-1.96,4.13-4.95,7.94-7.84,12.17c-1.74-2.99,1.75-2.2,1.75-7.32
		c8.55-8.27,8.97-10.46,8.97-10.1c1.32,11.19-0.62,13.05-0.62,14.24c-0.25,0.86-0.99,1.88-1.05,1.88
		C680.33,91.93,682.17,90.95,682.17,80.29z M681.56,91.6c0-0.75-0.44-0.04,2.71-2.53c7.22-5.7,7.89-8.57,7.89-5.74
		c0,2.26,3.86,1.31,3.86-28.15c0-5.05,1.33-6.34,1.26-7.46c-0.19-2.84-1.63,0.49,1.2-7.65c8.48,2.71-3.31,42.03-2.89,52.92
		c0.15,3.82-1.24,7.53-1.13,11.04c-1.13,1.03-2.06,0.41-3.2,0.72c0.03-0.1,1.48-6.74,1.03-10.21c-0.41-3.15,1.13-6.17-0.21-9.27
		c-4.23,4.54-7.12,9.8-10.83,14.65C679.99,96.92,681.56,94.25,681.56,91.6z M681.86,101.34c9.15-7.75,8.46-9.8,8.46-4.85
		c-2.99,1.13-3.51,4.33-5.36,6.5c-1.6,1.87-5.25,7.48-5.25,6.77C680.43,103.03,680.03,102.89,681.86,101.34z M689.49,102.78
		c1.23,4.31-6.19,10.96-10.73,16.51c-0.41-2.17,0.31-3.82-0.83-5.36C681.68,108.1,682.35,113.5,689.49,102.78z M678.56,125.89
		c0-4.91-0.09-4.85,0.01-4.85C684.69,119.65,688.42,112.74,678.56,125.89z M675.66,147.76c1.17-1.96,1.69-1.23,6.19-5.17
		c1.08-0.94,2.2-1.81,3.21-2.67C684.34,144.2,679.76,146.39,675.66,147.76z M683.51,148.48c-2.48,1.44-4.54,3.51-7.43,4.44
		c-0.39-0.39-0.78-2.07,1.03-2.79C685.23,146.94,682.51,145.49,683.51,148.48z M671.96,194.8c-0.11-1.77-1.14-3.28-0.72-5.47
		C672.78,191.19,671.85,193.04,671.96,194.8z M672.07,188.2c-3.07-7.47-0.98-12.19,3.39-14.65c-0.83,1.34-2.27,2.17-2.48,3.91
		c0,1.73,0.64,1.53,0.64,3.41C673.63,181.35,672.22,183.93,672.07,188.2z M672.47,213.88c0.93,0.31,1.13,0.72,0.93,1.44
		C672.67,215.33,672.32,215.05,672.47,213.88z M674.06,236.48c-0.58,0.36-1.47,0.69-2.11,0.92c-2.58-2.27-2.68-2.48-1.75-5.26
		C676.04,231.74,675.96,235.3,674.06,236.48z M673.19,207.9c1.13,1.44,2.37,2.37,3.3,4.75C673.92,211.51,672.88,210.37,673.19,207.9
		z M677.42,204.39c0-2.19,0.08-3.61,0.2-0.92C677.64,203.85,677.58,204.13,677.42,204.39z M678.87,197.27
		c-0.21-1.34-0.21-2.06,0.62-2.79C679.8,195.42,679.07,196.04,678.87,197.27z M675.36,201.09c-4.17-18.97,1.52-20.05-1.24-23
		c2.26-3.52,2.64-3.31,5.7-1.95c0.64,0.28,0.58,0.26,0.58,0.36C680.75,191.47,679.45,185.63,675.36,201.09z M683.1,180.15
		c-0.21-2.06-1.03-4.02-1.34-6.09C683.2,175.92,683.51,177.98,683.1,180.15z M682.68,164.47c1.28,3.83-1.96,2.06-2.06,2.17
		c-1.47,1.52-1.13,2.79-1.13,3.92c-0.1,1.03-0.83,1.75-1.44,2.89c-1.6-2.13,0.69-4.8-0.6-5.85c-0.53-0.43-1.89,0.23-1.89-0.28
		c-0.92-3.99-0.39-5.75,2.9-8.11c-0.83,1.96-1.86,3.1-1.13,4.64C679.61,166.03,679.6,166.01,682.68,164.47z M685.51,152.21
		c-1.88,0.28-4.74,4.5-6.44,5.55c-1.32-0.51-2.5-1.33-3.06-3.11c-0.09-0.3,4.37-1.44,8.32-3.91
		C685.39,151.18,685.61,152.21,685.51,152.21z M676.19,143.01c-0.29-0.71,0.13-2.8,0.23-2.8c3.5-2.06,5.96-5.25,8.44-9.07
		C687.3,136.05,686.14,133.08,676.19,143.01z M684.12,127.44c-1.97,2.88-4.44,5.36-6.81,8.67c-0.23-2.91,0.1-5.01,0.73-6.81
		c5.12-2.81,9.1-9.37,9.1-10.95c0-2.1-2.08-2.04,0.29-3.39c0.52,1.54,0.68,2.97,0.64,4.37
		C687.88,125.38,685.39,125.59,684.12,127.44z M689.6,150.85c-0.37-1.34,0.05-2.6-0.24-3.9c-0.19-0.83-1.64-3.27-1.7-7.81
		c-0.09-7.07,1.21-1.13-0.33-8.93c2.96,4.09,5.18,16.18,5.19,26.42C692.52,167.47,692.22,160.32,689.6,150.85z M692.38,175.56
		c0.04,2.31-0.1,4.65-0.62,6.96c-2.08-3.18-0.59-6.37,0.03-9.06C692.17,171.83,692.26,168.89,692.38,175.56z M689.8,193.35
		c-0.56-1.55,3.93-6.51,6.4-19.7c0.21-1.11,0.95-6.63-0.61-7.67c-0.26-0.18-0.61-0.28-0.94-0.37c-0.31-12.79-0.83-25.58-7.01-37.45
		c1.86-4.64,1.93-9.6,1.65-14.65c-0.37-6.68,7.21-8.9,12.59-5.36c-3.61,0.72-6.19,2.17-8.05,5.36c7.86-6.93,9.33-1.59,14.24,0.41
		c-0.62-1.96-2.68-2.27-3.51-3.92c3.27-2.31,4.05-1.59,16.51-0.21c0.15,0.44,1.93,4.27,3.92,6.81c-3.01-0.08-16.54-5-8.45-1.29
		c9.01,4.13,7.11,0.66,7.11,8.3c-3.16-1.79-6.06-3.54-9.28-4.64c2.79,2.79,6.6,3.92,9.8,6.5c-0.1,3.82,0.41,7.84,0.1,11.97
		c-1.1-0.14-0.99-1.49-1.73-1.97c-0.24-0.18-1.56-0.22-3.6-1.22c-5.35-2.61-9.47-9.6-12.1-10.73c-0.22,3.14,14.09,13.33,17.95,18.57
		c-0.71,10.61,1.2,17.13-3.82,24.65c-2.15-1.95-3.6-4.56-4.44-7.32c-0.62,4.13,2.48,6.09,3.71,8.97c-1.03,2.99-1.24,6.29-1.65,9.7
		c-2.67,1.3-9.59,7.63-9.59,7.74c-0.1,0.1-0.41-0.1-0.93-0.21c-0.31-3.2-1.13-6.5,2.37-8.97c-0.67-13.38-0.47-20.84-4.95-27.75
		c-0.49-0.76-0.23,0.46-3.4-23.42c-0.1-0.72-0.52-1.55,0-2.06c1.44-1.75,1.03-3.09-0.52-4.44c-0.21-0.21,0.1-0.83,0.21-1.55
		c4.96,3.3,2.1,3.47,4.75,5.05c0.73-0.73,0.33-1.01,0.1-1.24c-1.88-2.23-3.05-4.16-5.67-6.09c-2.37,4.75-3.23,9.6-1.86,14.55
		c1.41,5.06,1.81,10.33,3.4,15.27c0.7,2.17,0.63,4.64,0.21,6.91c-0.91,4.85-0.83,9.7-1.24,14.55c-0.28,3.35-2.28,11.84-1.53,10.75
		c3.88-5.63,5.38-15.89,5.86-22.61c1.86,5.15,0.82,10.51,1.44,15.16c-0.41,1.24-1.13,1.03-1.55,1.44c0.21,1.13,1.86,1.13,1.86,2.58
		c-1.34,0.72-2.48,1.86-3.3,3.3c-1.35,0.09-2.6,0.56-3.86,1.12c-0.43,0.19-0.17,0.22-0.34-0.69c0-0.05-0.03-0.12-0.03-0.23
		c-1.1,0.55-0.65,2.22-1.82,2.68c-1.26,0.5,3.28-10.5,1.71-11.54c-1.19,0.22-0.85,1.86-1.75,2.17c-0.5-0.3-0.31-0.82-0.52-1.55
		c-0.74,4.45,1.37,2.36-2.79,14.03C693.91,185.72,691.81,191.35,689.8,193.35z M699.09,212.44c-1.34-7.74-5.26-14.75-5.16-23.11
		c1.73-2.64,2.36-5.99,3.96-9.06c0.45,1.79,1.73-1.63,5.12-1.17c-2.93,8.77-1.48,6.84-2.58,14.03
		C698.19,207.72,701.25,206.5,699.09,212.44z M729.67,549.68c0.46,0.18,2.44,2.35,7.22,2.44c4.18,0.08,14.16-2.64,14.49,4.34
		C738.82,560.9,726.64,548.81,729.67,549.68z M724.36,549.97c0.62,2.17-0.93,4.64,0.72,6.71c2.38-0.34,2.61-3.78,3.35-3.33
		c3.26,1.37,0.14,3.56,2.73,5.29c1.3,0,1.13-1.44,2.06-1.75c2.01,0,1.93,1.94,3.51,3c2.54-1.02,7.75-0.25,10.83-0.21
		c3.51,0.05,7.01-1.44,10.63-0.21c1.55,2.68,1.52,5.57,1.75,8.25c0.63,7.37-22.81,16.59-37.34,9.9c-6.34-2.92-5.53,3.32-17.63,3.45
		c-1.22,0.01-6.94-0.57-7.13-0.76c-2.77-2.84-8.48-3.77-7.63-5.47c1.86-5.57,1.65-11.48,3.61-17.02c0.84-2.38,2.28-4.92,2.99-7.32
		c1.32,0.41,1.81,2.44,2.67,2.23c0.87-0.28,0.05-1.53,1.04-1.92c5.2,10.39,7.88,9.16,11.04,7.84c5.68-2.37,7.32-5.27,8.36-13.73
		C721.03,547.13,722.85,548.57,724.36,549.97z M746.02,371.3c1.24,4.64,1.55,8.97,1.65,13.31c0.59,26.33,2.02,22.24-2.79,42.4
		c-3.18,13.31-1.01,19.13-4.13,25.07c-0.73,1.4-1.56,5.17-1.56,4.58c-0.23-1.62-1.13-2.95-2.26-4.37
		c-0.77,2.32,0.68,6.72-0.52,11.45c-1.18,4.69-2.22,8.97-3.36,13.68c-8.93,36.84-12.43,26.68-16.44,71.94
		c-0.45,5.05-5.54,7.67-8.05,7.84c-3.61-1.96-4.23-6.6-7.32-8.97c-1.23-5.66,2.15-16.45,0.72-35.38c-0.77-4.61,1.46,5.93,0.52-26.1
		c-0.19-6.43,1.86-17.82,2.39-18.89c17.35-34.7,10.97-41.42-6-82.52c0.85,0.09,1.66,0.16,2.48,0.21c11.99,0.75,6.96,1.79,12.79,0.93
		c3.2-0.47,6.5-1.03,9.49-0.93c4.48-2.19,14.34-5.51,14.88-6.98C739.79,375.03,743.43,374.2,746.02,371.3z M738.91,339.94
		c-1.01,0.38-2.35-1.7-3.51-0.93c0.33,0.98,2.11,1.52,2.99,2.68c0,1.13-1.13,3.44,1.34,4.02c1.02,8.15,5.77,22.71,5.45,23.02
		c-11.55,14.01-31.66,18.14-47.53,12.67c-1.51-2.57-2.17-7.28-2.17-7.43c0.84-0.75,1.62-0.53,2.79-0.83
		c-1.34-1.34-11.22,0.94-19.08-17.43c-0.93-2.17-0.94-4.74-1.24-7.12c-0.43-3.39-0.93-3.46-0.93-7.52
		c-2.73,8.85-0.89,17.04,5.16,24.35c4.22,5.11,3.36,6.07,10.01,7.84c0.03,0.1,1.72,6.39,1.62,6.28c-6.75-1.88-10.39-0.34-10.39-8.35
		c-8.28-4.76-13.21-14.97-13.31-22.48c-0.34-25.57,12.99-28.46,15.16-36.84c18.05,7.94,36.62,13.51,56.22,16.4
		C741.17,332.41,740.04,336.23,738.91,339.94z M741.69,325.6c-17.86-1.89-48.63-12.31-55.29-15.27c0.56-0.56,3.84-7.2,9.59-11.76
		c10.99-8.71,13.51-27.2,11.24-41.16c4.23,2.06,8.46,3.07,12.79,3.82c5.25,0.9,10.93,3.8,36.11-2.37c2.79-0.68,2.15-0.78,13.93-6.6
		C768.12,284.3,753.22,274.07,741.69,325.6z M770.14,240.17c-1.78,7.53,1.02,8.14-0.35,9.11c-17.57,12.47-45.17,14.25-62.55,4.73
		c-0.62-0.93-0.54-1.96-0.62-2.99c-1.11-13.93-4.58-18.87-5.98-31.46c-0.21-1.85,2.39-10.19,1.13-20.94
		c-0.32-1.6,1.13-6.87,1.55-14.85c0-1.96,1.03-3.27,2.37-4.64c-0.41,3.92,0.83,6.71,2.89,9.49c3.75-2.44,3.53-2.54,4.98-4.7
		c0.96-1.43,3.01-2.32,4.82-3.65c0,2.27,0,4.02,0,6.19c-13.1,19.05-7.2,38.61,2.68,41.26c2.78,0.75,5.58,1.59,8.46,1.96
		c7.92,1.02,7.61,4.47,16.51,1.55c6.06-1.99,11.32-3.84,15.46-8.64c1.32-1.52,5.5-7.24,4.76-9.1c-1.41-3.51-0.07-7.75-6.4-14.75
		c2.89,0.72,4.22,2.5,5.98,3.51c9.63,5.51,3.81,2.68,7.94,6.81c4.39,4.39,4.96,12.82,4.54,18.47
		C777.78,234.62,770.88,237.95,770.14,240.17z"/> <path d="M218.58,497.36l-0.1,0.1C218.55,497.42,218.52,497.44,218.58,497.36z"/> <path d="M392.92,192.63c-7.47-5.85-9.89-3.97-15.58-11.55c0.76-26.15,7-41.75,4.33-60.55c-1.45-10.21-3.43-20.1-8.15-29.3
		c-2.64-5.14-4.32-2.67-7.22-1.86c-7.13,1.99-14.02,3.15-21.25,1.55c-11.24-2.49-13.7,2.85-18.57,0.52
		c-1.18-0.57-14.85,1.24-19.29,9.39c-18.68,11.04-16.4,13.85-28.68,19.39c-0.41,1.65-1.24,2.99-2.79,3.92
		c-2.68-2.48-3.51-2.79-6.09-2.58c-7.93,2.6-11.47,9.84-11.14,10.83c4.77,11.94,4.74,11.91,6.6,13c5.58,3.25,0.33,9.07,8.56,9.8
		c0.41,1.13,1.65,1.65,2.37,2.58c-0.62,3.2-0.16,6.2,0.21,9.18c0.57,4.6-2.55,5.69,0.31,18.57c-3.03,3.84-0.41,8.24-1.03,11.45
		c-0.86,4.43,0.7,8.97-0.31,13.41c-0.3,1.34,1.2,5.09,0.83,6.19c-1.12,3.31-0.31,6.71-0.31,10.01c0,2.63-2.92,7.85-0.62,13.62
		c0.72,1.82-1.55,11.37-1.55,21.56c0,1.34,0.41,2.37,1.55,3.2c-1.55,0.83-2.18,2.06-2.37,3.51c-0.34,2.58,1.34,4.33,2.48,6.19
		c-3.3,4.54-3.2,5.26,0.52,10.83c0,1.26-7.18,2.74-5.98,11.14c0.01,0.1,2.06,24.5,4.44,31.88c-0.41,0.83-1.65,1.03-1.65,2.89
		c0.21,0.72,1.01,2.16,0.72,3.92c-1.3,8,0.62,5.7,0.62,10.01c-2.48-0.1-3.59,1.35-4.13,3.4c-0.79,3,1.03,4.75,2.79,6.19
		c-2.68,46.42-5.26,92.64-7.94,138.85c-5.05-1.24-11.35-3.82-12.59-5.16c-13.81,2.02-17.4,4.62-23.11,10.52
		c-2.91-3-6.08-3.01-9.42-1.98c1.29-1.32,0.91,0.8-1.72-45.99C191.26-19.34,195.41,8.38,191.65,7.88
		c-1.39,0.79-4.67-30.71,25.38,485.25c0.32,5.41,2.75,3.82,1.5,4.32c-1.44,2.52-2.54-1.7-4.69-2.56
		c-0.69-10.39-28.99-474.57-28.88-485.05c0.02-1.72-2.96-4.72-2.48,3.82c0.01,0.11,28.91,478.93,29.3,482.16
		c-3.25,2.71-1.28,23.15-18.05-267.49C180.32-3.82,181.8,9.12,179.17,9.12c-1.8,1.12-1.8-20.76,15.89,289.46
		c12.44,218.23,11.73,204.13,13.82,205.18c0.32,28.55,4.52,26.72-0.41,27.23c-11.98,1.25-24.19,1.06-23.93,5.36
		c2.99,0.83,6.09-1.44,8.87-0.41c0.62,2.06,2.76,2.9,3.61,4.75c0.9,1.97,3.09,3.2,2.89,5.88c1.75-0.31,2.37,1.65,4.02,1.55
		c1.13-0.21,0.93-1.96,2.17-1.96c11.62,0.77,12.43-1.72,19.6,3.82c9.51,7.34,2.95,26.46-6.6,29.5c-10.63,3.38-21.46,6.09-32.6,7.53
		c-1.39,3.09,0.23,3.76,3.61,3.3c10.09-1.38,21.13-3.73,30.43-7.43c8.69-3.45,5.45-4.91,5.78-6.4c5.01-7.12,6.97-7.71,8.56-18.88
		c5.98,2.58,11.45,5.05,17.43,4.75c0.93-0.41,0.62-1.13,1.13-1.75c7.45-2.57,15.95-5.22,15.78-13.41
		c-0.03-1.32,3.36-11.27-5.98-18.77c-1.14-0.92-2.89-0.93-3.51-1.96c0.21-7.02,6.67-6.48,9.39-15.99c0.1-0.83-0.91-1.65-0.52-2.79
		c1.71-4.89-0.87-7.78-0.52-10.63c9.31-139.65,5.5-138.77,10.32-141.84c2.82-1.8,2.74-5.52,0.31-7.84
		c-0.74-0.71-1.96-0.83-2.37-1.75c0.83-5.16,0.93-10.32,1.96-15.06c0.83-1.44,2.48-1.86,2.89-3.51c-0.1-0.72-0.33-1.76-0.21-2.58
		c1.06-7.04,1.38-14.32,4.75-20.94c0.52-1.03,0.73-2.16,1.03-3.3c1.38-5.25,0.1-9.8-3.71-13.51c-1.29-3.66,4.76-2.88,2.68-8.97
		c-0.63-1.85-2.06-2.99-3.71-4.02c1.65-1.03,2.99-1.96,3.82-3.4c0.72-7.53,2.58-20.94,0.83-24.45c0.52-2.48,1.21-4.96,1.65-7.43
		c0.89-4.94-1.19-8.82,0.62-12.69c0.72-1.34,0.21-2.37-1.55-2.89c-2.48,4.64-6.19,8.25-9.59,12.48c-0.52-1.96,0.21-3.82-1.03-5.26
		c1.13-1.75,2.46-3.12,4.23-3.82c3.25-1.28,4.82-4.85,6.81-7.63c0.62,0.72-0.31,1.96,0.62,2.48c0.72,0,0.92-0.52,1.03-0.93
		c2.28-8.62-0.34-10.26,1.24-16.2c0.3-1.14,0.52-2.37-1.24-3.2c-3.61,4.64-6.19,10.11-9.8,14.96c-1.44-3.3,0.21-5.98,0.1-8.97
		c3.71-2.48,6.71-5.88,9.9-9.08c0.31,0.83,0.52,1.34,0.72,1.96c3.26-3.26,1.91-14.01,2.99-20.53c0.13-0.79-1.46-9.86,0.1-14.13
		c0.5-1.35,0.62-2.89-0.52-4.02c1.86-5.26,1.86-5.67,0.1-8.87c0.1-0.72,1.55-0.83,0.83-1.75c-4.85,0.21-9.18,2.37-13.82,2.17
		c-4.67-5.19,5.16-3.16,9.18-4.85c-6.36-2.81-12.48,3.59-12.48-3.92c2.87-1.86,8.62,0.06,11.14-1.75c-4.23-1.24-8.46,0.83-13.1-1.24
		c5.47-2.17,10.32-3.61,15.58-4.02c-1.34-1.86-2.99-1.24-4.33-1.03c-8.64,1.36-9.76,4.09-15.68,1.96c-2.48,0.52-4.02,2.48-5.98,3.4
		c-1.03-0.41-1.55-0.93-1.34-2.06c2.37-0.1,4.44-1.13,6.4-2.17c3.71,0.52,7.33,0.53,10.32-1.44c4.03-2.67,7.96-5.56,9.9-10.42
		c1.56-3.91,5.26-6.2,9.28-5.57c3.56,0.56,5.98-0.86,12.38-4.54c6.41-3.69,5.2-6.34,24.96-15.68c4.15-1.96,8.49-1.79,16.81-4.54
		c5.67-1.87,11.66-1.96,17.02-3.92c8.57,6.05,12.05,43.81,7.53,64.16c-3.96,17.8-1.04,14.57-1.75,18.88
		c-0.62,6.71-0.26,13.51-0.41,20.22c-0.02,1.03-0.21,2.17,1.03,2.79c1.44-2.27,0.93-4.95,2.06-7.74c2.89,4.95,5.57,9.49,6.5,15.06
		c-11.38,16.26-12.96,12.3-20.63,15.37c-2.8,1.12-4.86-0.77-11.14-1.55c-5.06-0.62-11.85-2.03-15.68-5.36
		c-1.54-1.34-1.75-1.96-1.55-4.33c0.31,0.21,0.52,0.41,0.83,0.62c-0.45-0.68-0.38,0.08-1.13-5.98c-0.62-0.62-1.55-0.62-1.65-1.44
		c-0.43-3.51,0.86-6.91,1.03-10.32c0.29-5.68,6.02-8.72,5.26-14.24c0.41,0.1,0.83,0.21,1.55,0.31c0.41-2.48,2.58-4.33,2.89-7.01
		c-15.9,10.93-17.82,41.95-5.67,46.42c11.22,4.13,10.72,1.5,17.02,4.44c4.56,2.12,10.2-0.12,15.47-2.06
		c10.25-3.78,15.53-13.48,14.96-15.99c-1.04-4.54-1.55-9.18-4.75-12.89c-0.31-0.31-0.93-0.72-0.31-1.75
		c3.3,2.58,6.91,4.64,10.73,6.81c-0.33,4.02,6.5,1,6.5,20.73c0,5.77-2.99,7.68-8.36,13.72c-0.52,3.2-0.62,6.19,0.31,8.97
		c-14.75,7.63-14.65,8.16-31.05,10.32c-11.04,1.45-21.97-0.31-32.19-5.47c-3.38-25.36-3.06-17.2-5.26-27.34
		c-2.1-9.69-0.54-6.45,0.31-18.57c0.3-4.33-0.45-8.77,0.1-13.1c1.72-13.52,0.68-13.29,4.13-15.78c-1.55,3.82,0.72,6.29,2.17,9.08
		c2.8-0.47,4.47-2.23,4.85-4.13c17.45-11.32,9.76-6.29,13.72-2.99c0.32-8.05,5.82-17.89,6.81-24.45c0.93-6.19,0-12.48,0.93-18.77
		c0.1-0.31,0-0.72-0.1-1.03c-1.03-1.96-0.31-3.82,0-5.67c2.06-1.65,3.61-3.51,4.95-5.67c-2.07,0-6.3,5.87-19.5,5.26
		c-14.81-0.68-20.82,5.65-36,9.49c-4.44,6.09-8.46,12.07-11.24,19.29c1.44-0.52,2.38-1.03,2.89-2.06c2.29-4.63,5.59-8.5,7.94-13.1
		c0.8-1.56,1.86-2.17,3.71-2.48c2.04,8.15-1.62,2.05,0.41,14.44c2.74,16.68,0.03,18.6,1.55,26.1c0.71,3.51,1.13,7.01-0.62,10.42
		c0.41,0.72,0.83,1.34,1.13,1.96c1.24-0.41,1.44-2.06,2.79-2.27c0.72,7.01,2.42,13.63,4.44,20.22c3.01,9.83-0.2,3.22,2.06,13.93
		c4.55,21.55,12.78,54.1-3.82,68.6c-6.82,5.95-9.55,14.37-21.15,27.65c-1.97,2.26-3.51,4.95-4.13,7.94
		c-1.78,8.63-7.62,28.7,10.73,41.06c0.93,2.99,1.33,6.81,1.96,10.63c2.28,13.77,5.91,16.71,10.11,27.75
		c2.9,7.63,4.95,15.51,7.63,23.21c2.52,7.24-11.96,25.8-9.08,50.55c2.22,19.09,5.37,33.89,1.96,53.75
		c-2.37,0.31-3.82,1.96-5.16,3.51c-1.24,1.44-1.26,3.51-0.83,5.36c1.34,5.68-4.45,11-4.94,19.36c-1.94-0.26-1.58,1.6-2.28,2.4
		c1.75,3.61,5.36,3.51,8.25,4.85c-0.52,1.44-1.96,2.48-1.03,4.23c1.13,1.24,3.09,1.55,4.64,2.37c0.52,0.62,0.41,1.67,1.24,1.86
		c5.19,1.17,17.22,2.5,21.66-0.41c2.87-1.88,6.1-3.42,9.49-1.34c5.39,3.31,21.15,3.8,34.76-6.09c5.9-4.29,2.48-8.9,2.48-15.37
		c-1.65-2.99-4.64-1.86-7.01-2.68c-0.72-1.65-0.52-3.92-2.37-4.85c-5.44-2.72-4.48-2.73-16.51-1.34c-2.79-3.61-6.91-1.86-10.52-2.79
		c-1.03-0.93-2.17-1.96-3.3-2.99c-0.1-1.55-0.31-3.2-1.44-4.13c0.88-20.4,5.02-29.44,13.2-53.54c0.99-2.9,1.28-6.07,2.58-8.97
		c0.64-1.43,1.03-2.79,1.24-4.33c0.9-6.61,3.45-12.99,4.44-19.6c0.11-0.72,0.31-1.44,0.72-1.96c3.93-5.9,1.03-13.35,6.19-30.84
		c5.05-17.1,1.5-30.33,1.65-44.36c0.04-3.94-6.28-22.74-6.6-23.83c-4.12-13.78-1.17-13.62-0.52-18.67c0.9-7.02,2.25-14,4.44-20.73
		c0.54-1.64,0-3.4,0.72-5.05c6.34-14.57,4.31-10.64,13.82-26.1c1.41-2.3,10.8-14.15,11.14-28.37c0.02-0.83-1.44-1.34-1.34-2.48
		c0.54-5.98-2.2-8.89,2.06-11.97C404.31,221.55,405.91,202.8,392.92,192.63z M195.88,535.94c2.9-0.73,10.69-1.67,12.59-0.31
		c2.58,2.06,5.47,3.92,8.67,5.98C197.21,545.69,208.62,544.65,195.88,535.94z M265.02,514.35c-1,1.3-3.79,3.88-5.17,5.87
		c-1.58,2.28-0.36,3.69-1.49,4.79c-0.75,0.73-0.98,0.34-0.63,0.67c5.73,5.44,10.07,7.84,10.36,15.01c0.1,2.46,1.61,5.68-1.83,10.31
		c-2.56,3.45-11.96,7.63-15.81,8.88c-5.36-2.48-11.35-3.51-16.2-6.71c-1.55-3.82-2.79-17.02-2.27-23.93
		c-1.43-1.43-5.18,1.78-13.72,0.1c-4.62-0.91-4.68,4.68,8.05,3.09c0.93-0.12,1.96-0.72,3.2-0.21c-0.21,4.95,0.72,9.8,1.13,15.16
		c-3.24-1.89-5.23-3.56-7.84-4.33c-1.91-5.02-6.48-6.59-11.24-8.97c1.02-0.82,1.9,0.39,2.68-0.1c-2.19-12.62-1.55-27.51-3.4-29.61
		c-0.1-0.1-0.21-0.52-0.1-0.62c2.08-2.49-4.86-2.85,3.92-5.98c5.76,5.15,6.69-0.62,11.24,2.89c-1.24,3.97-17.23-2.64-13,3.71
		c0.58,0.12,0.74-0.24,0.96-0.73c0.42-0.93,1.83-0.49,2.24,0.22c-0.29,0.83-1.41,0.68-1.88,1.58c-0.3,0.49,0.26-0.83-0.71,6.77
		c-0.55,4.33-0.21,8.67,1.86,12.59c-0.31,0.52-0.72,1.13-0.93,1.44c5.69,3.86,10.59,3.23,16.92,0.93c-0.64-5.77-0.3-5.37-1.95-5.36
		c-1.32-5.84,3.66-14.9-0.82-16.08c0,4.83-0.33,12.28,0.82,16.08c0,0,0,0-0.01,0c0.21,0.93,0.31,1.96,0.62,2.68
		c-1.97,0.74-5,0.36-7.43,1.03c-1.12-7.04-1.07-13.96-1.84-20.69c-0.1-0.88,2-0.65,2.35-0.66c10.66-0.17,12.95-14.11,27.96-11.55
		c2.37,0.4,4.85,0.1,7.32,0.1c1.44,2.58,4.64,2.58,6.09,5.05c0.1,0.83,0.21,1.86,0.31,2.79
		C268.09,504.25,268.19,510.2,265.02,514.35z M217.36,505.41c0.36,0.1,0.7,0.28,1.11,0.59c0.72,6.29,0.62,13,1.96,19.6
		c-3.52,1.14-3.6-0.51-3.65-4c-0.05-3.01,0.4-5.96,0.4-7.39C217.19,508.21,214.6,504.62,217.36,505.41z M277.07,265.98
		c2.04-0.97,4.02-1.86,5.67-3.3c0.57,0.57,0.57,0.96,0.31,1.65c-2.25,1.42-4.17,3.6-7.03,4.6
		C275.91,268.97,274.77,267.07,277.07,265.98z M273.87,310.85c-0.72-1.65-1.44-3.2-0.93-5.67
		C273.87,307.34,273.97,308.99,273.87,310.85z M273.36,304.04c-2.89-7.01-1.65-12.69,3.82-14.85c-2.62,2.3-4.21,4.25-2.17,7.12
		C274.18,298.78,273.56,301.26,273.36,304.04z M275.32,331.58c-0.45-0.54-0.64-0.86-0.41-1.44
		C275.83,330.24,275.93,330.66,275.32,331.58z M275.21,353.35c-2.79-1.65-2.99-2.17-2.06-5.47
		C278.75,347.64,280.05,352.31,275.21,353.35z M275.52,324.47c1.13,1.03,2.37,1.75,2.79,3.92
		C276.29,327.43,275.11,326.7,275.52,324.47z M279.44,319.72c-0.1-0.31-0.1-0.72-0.1-1.13
		C279.71,318.59,279.44,318.41,279.44,319.72z M277.17,317.14c-1.24-6.4-2.94-12.88-1.34-19.6c0.32-1.34-0.52-2.48-0.52-3.61
		c1.55-3.3,1.96-3.51,5.88-1.96C283.21,305.6,279.45,304.38,277.17,317.14z M284.29,296.3c-0.62-2.48-1.13-4.54-1.75-6.71
		C283.95,291.39,284.64,293.55,284.29,296.3z M283.05,280.11c0.11,0.11,0.41,0.22,0.41,0.41c0.21,0.77-0.01,1.46-0.52,2.06
		c-0.62,0.72-1.44-0.72-2.17,0.1c-1.68,1.68,0.53,4.63-2.07,6.29c-0.9-1.45-0.24-3.12-0.32-4.56c-0.13-2.23-1.55-0.56-2.16-1.22
		c-1.07-3.48-0.78-5.68,2.27-7.63c-0.41,1.34-1.44,2.58-0.72,4.02C280.03,281.64,280.05,281.66,283.05,280.11z M279.34,273.71
		c-1.38-0.77-2.58-1.34-2.99-3.09c2.89-1.44,5.78-2.89,8.67-4.23C284.81,268.25,283.36,270.1,279.34,273.71z M276.24,263.91
		c0.64-2.33,1.01-0.55,8.87-9.28C284.39,260.51,279.34,261.33,276.24,263.91z M277.79,236.99c0-0.1,5.26-2.74,5.36-2.79
		c-0.35,0.58-3.34,4.96-5.37,7.84C277.79,239.92,277.79,238.59,277.79,236.99z M277.38,245.24c3.85-2.41,10.9-10.1,8.05-13.62
		c1.24-4.26,3.45,5.84-0.03,9.32c-0.64,0.64-1,0.91-1.41,1.52c-1.69,2.49-6.91,9.16-6.91,9.06
		C276.81,249.37,276.61,247.31,277.38,245.24z M280.89,252.05c0.94-1.27,2.47-3.47,3.4-4.75c3.55,2.22-2.14,5.17-7.74,12.17
		C274.83,255.61,278.23,255.63,280.89,252.05z M276.14,200.47c0.52-1.44,1.55-2.68,1.75-4.75
		C278.51,199.54,278.51,199.54,276.14,200.47z M277.17,206.45c-0.11-1.57-1.24-2.89,0.83-4.13
		C278.39,204.08,278.58,205.22,277.17,206.45z M279.13,218.42c2.99-3.09,6.5-5.67,9.08-9.49c1.32,2.07-0.37,3.37-1.03,4.21
		C276.62,226.52,278.16,231.04,279.13,218.42z M277.79,191.39c-1.19-2.52,0.18-4.02,1.65-5.98c1.13,1.27-1.75,1.6,0.83,2.89
		C279.75,189.54,278.93,190.36,277.79,191.39z M280.16,160.14c0.46,1.87,0.38,3.43,0.31,5.16c-0.63,0.54-1.79,1.28-2.58,1.75
		C277.89,161.74,277.42,161.88,280.16,160.14z M278.82,177.88c0.75,5.63,0.89,4.44-0.21,4.44
		C278.3,177.52,278.11,177.88,278.82,177.88z M289.76,191.08c-6.89,8.98-7.95,12.99-9.69,12.88c-0.36,0,0.41-4.45,0.81-5.66
		c0-0.62-1.03-0.93-0.83-1.55c0.55-2.45,5.76-2.74,9.7-13c0.59-1.54,0.79-2.54-0.79-3.36c-1.56-0.81,0.5,0.77-8.34,12.28
		c-0.02,0.02-0.03,0.04-0.05,0.06c-1.24-2.89,2.79-4.33,1.24-6.81c3.09-3.51,6.4-6.4,8.77-10.63
		C291.92,179.32,292,188.15,289.76,191.08z M291.72,152.61c-4.85,2.79-5.88,7.84-8.87,12.07c-0.49-8.58-0.77-9.94-0.83-10.11
		c0,0,0.01,0.01,0.01,0.01C291.51,152.1,289.92,152.19,291.72,152.61z M284.19,165.29c4.82-4.09,6.35-10.42,7.94-10.42
		c0.41,1.86,0.21,3.71,0,5.26c-3.04,4.01-6.46,8.77-9.8,12.59C281.21,169.38,281.97,167.18,284.19,165.29z M281.51,174.89
		c3.51-1.96,6.5-4.44,9.08-7.74c0.62,1.24-0.21,2.37,0.41,3.4c-3.09,3.71-5.98,7.22-9.18,11.04
		C281.04,179.33,281.05,177.24,281.51,174.89z M278.72,175.81c-0.93-2.27-0.41-3.82-0.41-5.26
		C281.9,167.85,281.7,166.32,278.72,175.81z M277.89,158.8c-0.66-2.44,1.3-3.44,1.86-4.54C280.95,155.34,281.23,157.91,277.89,158.8
		z M279.03,152.5c-0.62,1.75-1.65,1.65-2.89,1.86C276.67,152.78,277.51,152.42,279.03,152.5z M277.28,151.27
		c-1.75,0.21-3.2,1.44-5.05,2.17c-1.65-0.83-2.17-1.96-2.27-3.61c1.49-1.93,4.31-1.23,5.78-4.54
		C276.24,147.86,278.2,149,277.28,151.27z M274.59,145.59c-1.55,0.6-4.86,1.75-4.96,1.75c-0.71-0.31-1.12-0.62-1.12-1.65
		c2.22-1.17,4.59-1.64,5.05-4.44C275.24,142.43,274.82,143.79,274.59,145.59z M269.64,139.61c1.03,0.1,2.17,0.21,3.71,0.31
		c-2.27,2.79-4.75,4.23-7.84,4.02C264.72,143.15,264.9,143.4,269.64,139.61z M326.38,93.19c-1.55,1.44-3.09,1.75-5.47,0.62
		C322.96,93.73,324.41,92.66,326.38,93.19z M272.01,134.86c-1.73,1.73-1.6-0.08-2.66-0.08c-5.62,1.73-5.1,2.82-9-2.5
		c1.42-1.11,1.76-3.31,3.4-4.13c-0.11,1.37-0.06,2.89,1.55,2.89c1.55,0.1,2.48-1.34,2.48-3.61c-1.4-0.82-2.59,0.52-3.92,0.52
		c1.12-2.26,4.1-2.17,5.55-4.3c0.1-0.1,1.9,0.39,3.95,0.68c-0.41,1.13-1.54,1.45-2.17,2.17c-1.44,1.66-0.83,3.71-1.03,5.57
		c-0.26,1.54,1.09,2.7,1.77,2.7C272.13,134.82,272.06,134.82,272.01,134.86z M287.28,126.51c-4.05,3.47-7.1,7.42-15.06,8.24
		c0.18-2.13-0.4-4.26,0.3-6.49c2.58-2.58,6.5-3.51,9.49-5.78c2.24,0,4.37,0,6.71,0C289.02,122.48,288.69,122.29,287.28,126.51z
		 M330.35,99.12c-25.74,14.26-15.88,12.36-20.98,10.88c-0.05,0.27-0.32,0.69-0.21,1.03c0.38,1.12,0.49,1.86-0.72,2.17
		c-2.02,2.02-5.37,3.82-8.77,3.92c-8.54,0.26-8.18,4.96-9.03,4.46c-1.54-0.79-3.18-1.8-5.3-1.46c0-0.1,2.65-2.91,4.64-4.02
		c9.79-5.46,2.49-4.4,16.09-12.17c0.31,1.55-0.83,2.48-0.83,3.92c2.04,0.39,1.52,2.78,2.83,3.93c1.67,1.46-3.55-6.41,4.6-13.63
		c2.52-2.23,6-2.94,10.73-0.52c1.09,0-0.51-1.29,0.41-1.75c1.24,0.62,0.52,1.65,0.41,2.79c-4.02-1.34-6.64,1.15-8.97,4.64
		c2.37-2.37,7.51-5.23,8.99-2.27c2.14-2.23,5.54-2.77,7.63-3.82c-2.06-0.52-3.61,0.93-5.67,0.83c3.1-3.1,8.79-2.87,7.74-3.92
		c2.72-2.35,6.7-1.39,13-0.93C345.51,95.27,342.05,92.64,330.35,99.12z M378.27,185.2c0.72,0.52,1.13,0.93,1.24,1.55
		C378.24,187.04,378.27,186.38,378.27,185.2z M325.76,166.74c-1.33,1.04-3.47,0.44-4.17,2.1c-0.08,0.16-0.65-0.6-0.65-1.19
		c1.41-0.94,1.39-1.82,1.95-3.19c4.65-11.44,3.28-18.95,3.92-19.91c1.92,3.85,1.67,9.81,1.55,15.89c-0.19,0.65-0.94,0.39-1.39,0.65
		c-1.14,0.66,1.52,1.26,1.5,2.79C328.46,163.95,326.32,165.33,325.76,166.74z M353.92,122.07c-1.65,0.41-2.99,2.17-5.47,1.03
		C350.52,122.07,352.06,121.66,353.92,122.07z M352.89,135.79c-0.6-1.49-2.54-2.87-3.09-5.05c0.65-2.14,0.85-4.45,3.09-5.88
		c0,1.34-0.83,2.17-0.93,3.3C353.51,130.74,353.61,131.15,352.89,135.79z M336.28,128.98c-0.83-3.32-5.48-5.88-0.71-5.77
		c2.35,0.06,2.24,0.86,10.1,8.04c0.9-0.45,0.85-1.55,1.03-2.37c-1.13-0.83-2.37-1.65-2.48-3.4c0.31-0.21,0.62-0.41,1.03-0.62
		c-0.11-0.14-1.2-1.49-1.03-1.55c1.61-0.03,1.72,1.39,2.94,1.6c0.66,0.11,1.44-0.72,2.01,0.06c0.1,0.21,0.31,0.41,0.31,0.62
		c-0.1,0.93-0.19,1.86-0.62,2.68c-2.98,5.72,4.4,6.27,4.54,15.16c0.12,7.8-6.12,13.62-7.22,21.87c-6.47,1.64-11.51,5.54-15.73,10.56
		c-0.2,0.2-4.23-3.73,0.98-9.63c0-6.31-0.37-19.19-3.71-25.07c-2.76-4.86-2.48-10.21-3.71-15.37
		C335.32,120.97,330.95,125.51,336.28,128.98z M318.54,196.34c-0.72-3.72-2.45-7.02-2.99-10.73c-1.27-8.75,1.64-6.54,5.98-26.1
		c0.1-0.31-0.1-0.62-0.21-1.34c-3.69,4.59-2.66,12.12-8.77,23.11c0,0.1-0.31,0.1-0.62,0.31c-0.3-1.95,9.94-21.52,4.22-26.6
		c-0.4-7.2-0.59-14.38-3.07-21.6c-0.15-0.45,0.7,16.4,0.7,18.92c-1.86-6.81-3.92-13.62-3.71-20.73c1.43-0.95,3.57-1.27,5.16-1.96
		c1.65,1.53,1.05,6.02,1.3,3.87c0.6-5.27,0.52-4.67,0.64-4.71c3.1-1.06,1.8,24.35,1.98,30.35c0.83-4.73,1.55-9.04,1.55-15.58
		c0-16.95-2.91-15.6,1.03-16.92c0.21,0.21,0.51,0.41,0.52,0.52c0.13,5.85,2.91,8.29,2.06,13c-1.8,10-0.28,19.26-4.75,30.43
		c0.53-0.53,1.6-0.55,1.94-1.23c0.58,0.19,1.45-0.44,2.29,0.19c-2.06,6.91-2.27,14.13-3.3,21.15
		C320.45,190.93,321.9,213.83,318.54,196.34z M311.42,170.66c1.89-10.58,1.31-8.77,1.96-8.77
		C313.38,173.23,314.02,174.06,311.42,170.66z M315.03,478.79c-4.58-25.38,6.33-35.78,8.56-52.61c0.31-2.37,0.88-4.79-1.24-6.81
		c-0.69-0.65-0.53-8.19-7.74-22.28c-3.95-7.73-6.55-18.12-8.36-27.13c8.12,2.09,9.02,0.14,9.59,1.86
		c16.26,38.25,20.26,48.12,16.09,59.73c-3.09,8.62-1.3,12.03-4.85,16.92c-3.6,4.96-5.54,10.52-5.88,16.51
		c-0.38,6.71-1.21,13.3-0.62,19.91c0.76,8.56,0.02,17.23,0.41,25.79c0.32,7.01-0.83,13.93-1.44,21.25c-0.78-1.04-2-2.34-3.2-3.09
		C316.37,518.88,321.13,512.57,315.03,478.79z M303.59,556.04c-1.23-1.51,1.37,0.83,2.88-4.73c2.3-8.48,6.52-8.49,4.64-18.98
		c0.52-1.13,1.65-1.13,2.37-1.75c2.06,0.72,3.4,2.48,5.57,2.27c0.51,1.09,0.83,2.08,0.83,3.3c-2.95,0.68-4.05-3.56-6.19,8.36
		c-0.92,5.16-2.27,10.32-4.33,15.27C306.53,559.58,305.07,557.85,303.59,556.04z M350.72,539.45c6.55,5.27,12.34,0.53,18.36,2.58
		c2.41,0.82,3.4,2.41,3.4,4.75c-8.67,0.93-16.71,0.1-22.69-7.22C349.92,539.49,350.5,539.34,350.72,539.45z M341.34,535.01
		c0.63,1.57,3.53,3.89,4.64,5.16c0.41,2.17-1.44,4.54,0.83,6.6c0.25-0.09,0.44-0.23,0.64-0.37c1.2-0.9,1.77-3.03,2.07-3.03
		c3.45,0.25,0.8,4.12,3.05,4.95c1.24,0.1,1.05-1.35,1.86-1.55c2.06-0.21,1.96,2.06,3.61,2.99c3.3-1.34,6.91,0,10.63-0.1
		c3.61-0.1,7.12-1.44,10.93-0.21c1.24,2.58,1.55,5.47,1.55,8.36c0,6.41-15.47,13.71-32.7,11.35c-4.07-0.56-7.34-4.37-11.45-0.93
		c-4.02,3.37-13.72,2.45-16.81,2.27c-2.87-1.44,2.61,1.25-8.97-4.95c0.88-3.06,4.68-25.16,7.15-25.16c0.76,0.19,1.89,3.15,2.82,2
		c0.43-0.54-0.2-1.44,0.45-1.91c2.89,2.79,3.3,7.84,7.84,9.08C337.42,548.11,340.81,542.92,341.34,535.01z M368.78,389.04
		c0,3.5,2.83,5.78-2.79,27.44c-3.36,12.94-1.03,19.39-4.33,25.58c-0.84,1.58-1.25,5.38-1.55,4.31c-0.28-1-1.63-4.2-2-3.9
		c-1.97,1.33,1.59,2.49-2.02,16.3c-2.16,8.25-3.79,16.58-6.4,24.65c-1.7,5.25-3.92,10.21-5.47,15.47
		c-6.19,21.01-4.94,24.02-6.6,41.16c-0.31,3.18-4.46,6.74-7.18,6.8c-3.41,0.07-2.99-3.52-7.78-8.55c-1.01-1.07-0.67-1.53,0.31-15.16
		c0.65-9.09-0.1-21.53,0.1-22.69c2.55-14.81-1.71-20.25,2.58-41.68c0.38-1.9,4.32-6.85,8.77-20.43c3.65-11.14,0.52-22.73-0.93-29.5
		c-1.22-5.7-1.57-3.36-2.99-6.91c-6.6-19.56-11.21-24.61-10.01-26.72c2.99,0.72,6.31,0.16,9.59,1.13c3.69,1.1,5.22-0.72,14.34-0.72
		c5.26-2.58,10.42-3.92,15.16-6.81c0.81-3.54,4.53-4.53,7.32-7.32C369.04,366.99,368.78,379.83,368.78,389.04z M359.8,330.04
		c-1.13,0-1.76-1.55-3.09-0.83c0.41,1.03,1.75,1.24,2.27,2.06c2.48,9.28,4.85,18.36,7.22,27.34c-10.87,13.64-30.64,18.4-47.56,12.89
		c-1.24-2.17-1.86-4.75-2.06-7.22c0.62-1.03,1.55-0.93,2.58-1.55c-10.27-0.13-18.87-12.42-19.5-19.91
		c-0.34-4.02-1.86-7.84-1.13-12.48c-1.52,1.6-1.14,3.12-1.65,4.44c-1.44,7.12,0.92,13.32,4.75,19.08
		c9.98,15.03,10.38,3.32,12.89,15.89c-3.51-1.34-6.91-1.03-9.39-3.2c-0.72-1.75-0.72-3.4-0.83-5.05
		c-3.23-3.23-9.04-4.44-13.31-20.01c0-31.33,12.37-29.56,15.27-39.72c18.12,8.05,37.27,13.71,56.22,16.4
		C362.04,323.92,359.8,329.7,359.8,330.04z M379.5,273.09c-10.78,14.6-15.82,38.47-16.81,42.19c-16.22-1.28-36.92-9.16-46.73-12.28
		c-2.52-0.8-5.95-0.9-8.25-3.2c8.49-13.06,13.11-12.33,17.85-23c6.62-14.91,2.16-27.02,3.3-29.3c0.87,0,16.91,7.63,36.41,3.61
		c12.26-2.53,6.97-0.27,23-7.63c0.19-0.08,3-1.78,2.98-0.83C391,253.64,388.45,260.98,379.5,273.09z"/> <path d="M195.78,550.48c1.44-0.52,3.2-0.83,3.61-2.79c-0.41-1.13-0.83-2.17-2.17-2.89c-13.09,1.8-14.75,10.14-14.75,4.02
		C175.05,448.12,148.23-9.14,144.51,0.14c11.04,184.34,23.73,368.48,35.18,552.82c-0.1,0.83-1.65,0.83-1.34,1.55
		c0.31,0.62,0.93,0.52,0.72,1.03c-0.1,0.62-1.34,1.03-0.72,1.96c0.72,0.52,1.24-0.83,1.96,0c2.11,32.37,1.49,31.12,3.4,31.57
		c1.74-0.87,1.84,0.76-0.62-30.64C182.76,554.12,181.22,555.75,195.78,550.48z"/> <path d="M501.85,10.76c0.1-0.93-0.31-1.55-1.55-1.65c-1.75,1.24-1.35,3.2-1.24,4.95c0.01,0.12,39.85,585.46,42.71,585.93
		C544.19,597.77,500.78,17.19,501.85,10.76z"/> <path d="M119.86,2.2c-1.85,1.73-2.64-8.03,8.87,149.89c33.57,460.35,29.32,439.71,32.29,441.41
		c2.54-1.04-39.72-574.31-39.72-589.54C121.3,3.03,121.2,2.31,119.86,2.2z"/> <path d="M573.96,15.92c-0.62-1.34-1.65-1.96-2.99-0.62c0.53,3.18,25.29,487.96,28.16,488.14C601.09,502.6,574.2,16.33,573.96,15.92
		z"/> <path d="M124.91,1.38c-1.34,1.13-0.72,2.68-0.62,4.13C219.18,1334.03,129.61,2.55,124.91,1.38z"/> <path d="M548.17,599.79c2.59-0.86,1.33,12.58-25.79-368.38C474.91-435.32,544.86,598.69,548.17,599.79z"/> <path d="M589.43,417.51C563.73-13.64,566.46,14.3,563.85,14.79c-0.69,1.78,26.86,486.51,29.61,487.32
		C594.98,500.83,594.76,506.88,589.43,417.51z"/> <path d="M215.28,569.98c5.05-2.95,2.52-9.57-2.89-8.67c-3.94,0.44-0.61,1.57-6.19,2.27C208.6,567.58,210.76,572.62,215.28,569.98z"/> <path d="M596.65,568.74c-4.77-3.17-6.09,1.67-9.9,1.44C593.19,585,602.09,572.35,596.65,568.74z"/> <path d="M547.34,525.11c-0.1,3.4-0.1,3.4,2.17,4.95C552.59,525.88,549.16,523.1,547.34,525.11z"/> <path d="M518.87,24.59c0.41-2.37-0.21-4.64-1.75-6.19c-0.83,0.31-1.55,0.93-1.03,1.86C516.7,21.8,516.7,23.87,518.87,24.59z"/> <path d="M354.95,227.91c-4.85,0-9.7,0.21-14.24-1.75C344.12,228.63,349.38,229.25,354.95,227.91z"/> <path d="M706.72,433.61c-0.41,2.58-1.55,5.16,0,8.46C707.65,438.76,706.93,436.19,706.72,433.61z"/> <path d="M337.11,201.4c1.24,1.86,2.89,3.2,5.36,3.61C338.53,201.06,338.3,199.76,337.11,201.4z"/> <path d="M349.18,179.12c0.31,2.58-1.13,5.16-0.41,8.56C349.49,184.69,349.8,180.66,349.18,179.12z"/> <path d="M377.34,199.85c-0.72,2.89,0.62,4.95,1.96,7.01C380.17,206.43,380.54,207.69,377.34,199.85z"/> <path d="M347.63,172.21c-1.13,2.17-0.41,3.4,1.13,4.95C348.97,175.2,348.97,173.75,347.63,172.21z"/> <path d="M357.64,191.6c-1.96,0-3.3,0-4.64,0C354.23,193.15,355.68,193.15,357.64,191.6z"/> <path d="M356.5,98.24c1.65,0.21,3.2,0.41,4.75-0.41C359.49,96.59,358.05,97.83,356.5,98.24z"/> <path d="M372.08,157.04c0.41,1.44,0.41,3.2,1.75,4.85C374.14,159.62,373.21,158.28,372.08,157.04z"/> <path d="M356.81,227.29c1.34,0.93,2.48,1.24,3.82,0.72C359.49,228.12,358.46,227.09,356.81,227.29z"/> <path d="M288.93,142.29c1.03,0.41,1.75,0.52,2.06-0.62C290.17,140.95,289.55,141.36,288.93,142.29z"/> <path d="M296.46,124.86c-0.62,0.72-1.34,1.24-0.83,2.17C296.67,126.61,296.88,125.99,296.46,124.86z"/> <path d="M524.44,142.81c0.72-0.93,0.72-1.55-0.41-1.75C523.41,141.77,523.31,142.29,524.44,142.81z"/> <path d="M337.05,208.91c0.28,0.59,0.41,1.17,1.2,1.36C338.34,209.29,338.06,208.78,337.05,208.91z"/> <path d="M337,208.83l-0.1,0.1C337.08,208.89,337.06,208.95,337,208.83z"/> <path d="M340.41,232.97c0.52,0.41,1.03,0.31,1.75-0.1C341.44,232.45,340.82,232.24,340.41,232.97z"/> <path d="M292.54,140.74c0.62-0.31,1.13-0.62,0.72-1.65C292.16,139.92,291.82,140.02,292.54,140.74z"/> <path d="M359.7,191.19c0.21,0.41,0.41,0.72,0.93,0.31C361.7,191.14,360.16,190.03,359.7,191.19z"/> <path d="M747.88,174.99c-0.65-2.93-1.3-5.62-3.51-7.63C745.51,169.83,745.82,172.72,747.88,174.99z"/> <path d="M716.11,211.3c1.01,2.43,3.02,3.3,5.25,4.33C718.69,211.92,717.96,211.41,716.11,211.3z"/> <path d="M759.12,217.18c-0.87-2.44-1.74-4.43-2.99-7.74C755.62,212.75,756.75,215.43,759.12,217.18z"/> <path d="M729.41,108.25c1.24,1.55,1.65,3.61,4.23,3.4C732.61,108.87,731.99,108.35,729.41,108.25z"/> <path d="M742.52,162.72c-0.83-2.48-0.83-2.48-2.58-3.09C740.56,160.96,740.97,162.1,742.52,162.72z"/> <path d="M738.6,105.57c0.83,1.03,1.55,1.65,3.09,1.34C740.97,105.36,740.04,105.26,738.6,105.57z"/> <path d="M723.64,193.97c1.13-0.31,1.03-0.83,0.52-1.65C723.12,192.73,723.23,193.35,723.64,193.97z"/> <path d="M721.99,47.8c0.1,0.72,0.31,1.13,1.03,1.55C723.23,48.31,723.23,47.69,721.99,47.8z"/> <path d="M704.35,36.14c0.36,0.8,0.44,1.34,1.44,1.34C705.59,36.76,705.38,36.24,704.35,36.14z"/> <path d="M697.44,30.98c0.21,0.93,0.52,1.44,1.44,0.72C698.57,31.19,698.47,30.57,697.44,30.98z"/> <path d="M727.87,104.43c-0.31-0.62-0.41-1.24-1.44-1.03C726.53,104.43,726.84,105.05,727.87,104.43z"/> <path d="M720.13,445.06c2.06-2.68,2.48-5.05,1.34-8.36C721.16,439.8,719.51,441.86,720.13,445.06z"/> <path d="M727.56,465.79c0.21-2.79,1.24-5.78-0.21-8.46C726.37,457.33,726.55,456.71,727.56,465.79z"/> <path d="M726.22,480.54c0.72-2.17,1.55-3.71,0.93-5.57C726.73,476.62,725.7,478.17,726.22,480.54z"/> <path d="M711.88,552.24c-3.63-0.3-5.3-0.92-5.47,1.03c1.69,1.69,3.77,1.47,6.09,1.03c0-0.1,0.1-0.3,0.1-0.71
		c0-0.3-0.41-0.93-0.41-1.04c1.73-0.82,1.35-2.23,0.93-4.13C711.57,551.32,711.98,552.34,711.88,552.24z"/> <path d="M721.88,433.81c0.67-0.95,0.57-1.86,0-2.89C720.96,432.37,720.96,432.37,721.88,433.81z"/> <path d="M713.87,540.89c0.05-0.72-0.38-1.41-0.86-1.96C712.12,545.38,713.8,541.93,713.87,540.89z"/> <path d="M713.73,531.61c0.45-1.18,0.75-2.31,0.21-3.51C713.32,529.13,712.5,530.16,713.73,531.61z"/> <path d="M720.03,425.56c-0.41,1.24,0.1,1.96,0.83,2.89C721.27,427.21,720.96,426.49,720.03,425.56z"/> <path d="M723.53,492.82c0.61-1.17,0.8-2.11,0.52-3.52C723.23,490.76,723.12,491.68,723.53,492.82z"/> <path d="M713.12,536.87c1.12-0.52,1.25-1.2,0.72-2.17C712.84,535.14,712.65,535.93,713.12,536.87z"/> <path d="M737.05,444.75c0.4-0.61,1.25-0.93,0.31-1.96C736.84,443.3,736.22,443.82,737.05,444.75z"/> <path d="M713.53,369.55c-2.17-0.31-3.4,0.31-4.64,1.24C710.54,371.2,711.88,370.58,713.53,369.55z"/> <path d="M704.24,371.71c-2.06,0-2.06,0-2.89,0.83C702.48,373.1,703.34,372.62,704.24,371.71z"/> <path d="M677.63,336.63c0.63-0.16,0.93-0.58,0.52-1.55C677.86,335.5,677.2,335.68,677.63,336.63z"/> <path d="M699.53,304.12c-4.21,5.41-5.63,5.89-3.69,5.89c1.63,0,10.8-9.59,14.59-21.14c2.03-6.19,1.55-12.4,1.24-18.88
		C710.16,278.73,710,290.68,699.53,304.12z"/> <path d="M740.66,265.98c0.33,1.4,0.83,1.9,1.96,2.58C742.52,267.21,742.1,266.49,740.66,265.98z"/> <path d="M752.63,263.6c0.51,0.4,0.86,0.75,1.24,0C752.03,261.4,751.35,262.97,752.63,263.6z"/> <path d="M710.23,262.88c0.41-0.72,0.21-1.24-0.62-1.34C709.2,262.26,709.51,262.68,710.23,262.88z"/> <path d="M711.16,267.42c0.88-0.34,0.85-0.76,0-1.24C710.54,266.6,710.64,267.01,711.16,267.42z"/> <path d="M719.61,236.37c3.82,2.48,8.56,3.09,13.93,1.86C728.8,238.33,724.15,238.12,719.61,236.37z"/> <path d="M719.2,242.87c0.93,0.72,1.55,0.52,2.06-0.1C720.67,242.37,720.06,242.33,719.2,242.87z"/> <path d="M630.59,551c-0.39,1.12,0.83,1.14,0.83,1.96c-0.1,0-1.58,1.68-3.5,0.42c-0.35,0,1.53-2.42,1.53-3.41
		c-1.34-0.62-2.17,0.3-2.99,1.03c-4.49,4.01,4.16,9.63,7.94,2.06C633.38,551.31,632.14,550.69,630.59,551z"/> <path d="M629.25,519.23c1.38,2.07-1.57,1.23-1.56,2.32c0.01,0.81,0.95,1.99,2.49,2.11c2.47-1.23,3.85-2.9,2.58-5.36
		c-1.95-3.76-8.93-2.74-6.6,1.96C627.29,520.26,627.8,518.91,629.25,519.23z"/> <path d="M607.69,516.24c0,3.82,0,7.53,0,11.35C608.79,524.29,611.14,515.8,607.69,516.24z"/> <path d="M732.68,569.67c1.07,0,2.13-0.2,3.64-0.41c-0.31-1.03,0.1-1.96,0.31-2.89c0.71-5.88-7.93-5.97-8.05-0.83
		C728.54,567.91,730.13,569.66,732.68,569.67z M734.88,566.27c-0.72,0.62-1.34-0.62-1.96,0c-1.03,0.41,0.72,1.65-0.62,1.96
		c-1.39-0.33-2.06-1.19-2.06-2.68C730.24,562.02,735.69,562.71,734.88,566.27z"/> <path d="M718.17,560.8c-1.44,0-3.09-0.83-5.16-0.21c-0.1,2.33-0.93,4.76,0,7.12c1.65,0,0.62-2.17,2.17-2.06
		c1.19,0.26,0.89,1.41,2.95,2.44c0.71,0.13,0.72,0.38-0.34-2.48C717.64,565.32,720.74,563.68,718.17,560.8z M714.89,563.91
		c-0.63,0-1.27-3.64,2.87-1.16C717.04,564.61,716.01,564.31,714.89,563.91z"/> <path d="M721.67,568.22c3.53,1.77,5.01,0.2,6.6-3.19C724.01,555.95,715.93,564.76,721.67,568.22z M723.84,562.45
		c1.75,0.52,2.9,1.34,2.37,3.3C724.94,570.52,717.53,564.42,723.84,562.45z"/> <path d="M698.26,156.63c-0.22,2.84-0.55,7.2,0.21,10.21c0.96-7.7,1.23-18.11,2.06-10.63c0.18-0.54,0.2-1.03,0.1-1.52
		c-0.95-4.68-1.02-10.5-1.96-14.47c-3.81-16.16,1.93-22.67,0.41-24.04c-0.1,0-0.31,0-0.31,0.1
		C691.67,130.5,699.61,139.51,698.26,156.63z"/> <path d="M702.7,113.1c1.96,0.52,2.9,2.68,5.36,2.68c-5.27-4.65-4.29-4.29-6.34-3.7c-0.62,0.18-1.74,0.59-2.91,1.24
		c-12.52,6.88-6.29,22.76-6.33,20.98c-0.11-4.59-1.19-8.95,0.73-12.95C695.19,117.23,698.16,114.13,702.7,113.1z"/> <path d="M722.3,133.11c-3.92-3.09-7.74-6.5-11.45-10.01C713.84,127.44,717.55,130.94,722.3,133.11z"/> <path d="M721.99,112.79c-1.68-1.26-3.02-0.98-4.95-0.72C718.79,111.77,719.91,113.62,721.99,112.79z"/> <path d="M706.1,117.84c0.1,0.93,0.83,1.34,1.55,1.65C707.14,118.89,706.93,118.04,706.1,117.84z"/> <path d="M711.38,156.71c0-1.97-1.04-3.6-1.27-5.86c4.29,6.74,3.4,6.41,4.54,4.13c-2.01-2.1-5.23-8.83-5.23-8.97
		c0-0.29,0.21-0.55,0.58-0.7c3.17,4.45,3.16,4.12,2.91,4.12c-0.62,1.69,3.51,4.88,3.51,6.29c1.87,2.34,1.11,3.2,3.51,2.58
		c-9.76-12.86-6.41-7.39-5.16-9.39c-1.64-1.23-2.76-3.06-4.8-3.69c-1.12-1.73-2.35-3.36-4.07-5.09
		C707.12,147.12,711.38,163.81,711.38,156.71z"/> <path d="M723.23,144.66c0.5-0.59,0.61-1.14,0.1-1.96c-1.36,0-2.5-0.47-3.51-1.86c0.17-1.77,4.47,1.57-2.79-4.65
		c-0.72-0.31-1.03,0.72-1.86,0.31c0.12,0-4.94-3.96-6.72-6.09C712.85,135.71,716.63,141.88,723.23,144.66z"/> <path d="M723.02,149.2c-1.13-1.75-7.84-7.01-9.8-7.63C716.52,145.8,720.44,148.89,723.02,149.2z"/> <path d="M714.9,146.56c-1.55-0.95,4.21,3.7,4.21,6.15c1.55,0,1.96,2.06,3.92,2.06C722.62,154.36,720.83,150.17,714.9,146.56z"/> <path d="M713.22,167.46c-0.27-1.58-0.99-4.93-1.55-7.63C711.32,163.28,712.01,165.61,713.22,167.46z"/> <path d="M715.28,150.03c2.06,2.17,2.06,2.17,3.82,2.68C717.67,151.56,717.93,151.09,715.28,150.03z"/> <path d="M707.55,139.2c1.03,1.13,1.44,1.65,1.96,2.17C709.3,140.43,708.99,139.81,707.55,139.2z"/> <path d="M334.01,538.62c-0.72,1.34-0.52,2.79-1.86,3.3c-1.55,0.72-3.4-0.83-4.95,0.93c1.8,2.13,3.7,1.72,6.48,1.66
		c0.1,0-0.07,0.04-0.04-0.65C333.71,542.21,335.19,540.59,334.01,538.62z"/> <path d="M341.44,434.33c1.65-2.17,1.96-3.51,1.44-7.32C340.92,431.54,340.72,432.68,341.44,434.33z"/> <path d="M348.14,447.33c0.11,1.08,0.08,2.18,0.08,3.31c0,3.39,1.39,10.14,1.06,2.21C349.21,450.91,348.93,449.11,348.14,447.33z"/> <path d="M346.91,471.26c1.11-2.23,1.54-4.23,1.54-6.4C347.63,466.72,346.7,468.58,346.91,471.26z"/> <path d="M334.73,521.08c0.71-0.24,1.04-2.47,0.52-3.4C334.25,519.49,334.21,519.5,334.73,521.08z"/> <path d="M342.37,423.7c0.81-1.13,0.83-1.11,0.41-3.2C341.75,421.64,341.75,422.57,342.37,423.7z"/> <path d="M333.81,532.64c1.13-1.55,1.13-1.55,0.41-3.4C333.7,530.37,333.19,531.4,333.81,532.64z"/> <path d="M344.33,483.64c0.55-1.41,1.24-2.53,0.62-4.55C344.55,480.88,343.81,482.13,344.33,483.64z"/> <path d="M342.37,417.93c-0.31-0.72-0.21-1.55-1.13-2.17C341.23,416.9,340.72,417.82,342.37,417.93z"/> <path d="M358.46,438.26c0.1-0.52,0.1-0.93-0.31-1.55C357.13,437.82,357.44,438.15,358.46,438.26z"/> <path d="M329.58,361.09c2.37-0.31,3.92-0.72,5.67-1.96C332.98,359.13,331.43,359.44,329.58,361.09z"/> <path d="M325.04,361.81c-1.03-0.72-1.75-0.31-3.3,0.52C323.39,362.53,324.32,362.84,325.04,361.81z"/> <path d="M332.26,260.3c-0.75,0.01,2.07,19.64-16.2,39.2c0.39,0.21,0.71,0.3,1,0.31c2.22,0.07,8.96-9.96,10.86-13.1
		c6.38-10.53,4.5-20.29,5.36-25.07C333.38,261.14,333.48,260.28,332.26,260.3z"/> <path d="M361.97,256.59c0.84,1.97,2.4,1.9,1.34,0.31C363,256.49,362.59,255.87,361.97,256.59z"/> <path d="M372.8,252.36c0.72,1.13,1.34,1.86,2.68,1.55C374.64,252.94,374.15,252.36,372.8,252.36z"/> <path d="M247.15,509.84c2.06-0.62,2.06-0.62,3.61-0.1c-0.09,1.32-1.66,0.63-2.27,1.55c1.75,2.27,2.89,2.68,4.33,1.44
		c4.3-3.29-1.41-9.74-5.51-5.88C246.27,507.83,245.79,509.38,247.15,509.84z"/> <path d="M254.73,541.7c-0.92-0.25-1.93-1.41-3.34-0.7c-0.3,1.12,1.35,1.05,0.93,2.17c-1.03,0.41-2.06,1.24-3.2,0.21
		c0-1.94,1.53-2.01,1.13-3.3c-4.29,0.36-4.9,4.16-2.73,5.86c1.87,1.46,4.85,0.86,6.65-0.6C256.01,543.84,255.14,541.9,254.73,541.7z
		"/> <path d="M354.09,559.86c1.26,0.01,0.74,0,3.45-0.33c1.53-0.18-0.42,0.4,0.44-2.55c1.01-3.44-3.03-6.21-6.13-4.42
		C348.83,554.31,349.39,559.81,354.09,559.86z M356.5,556.57c-0.66,0.38-1.18-0.15-1.61-0.19c-0.28-0.02-0.73,0.29-0.73,0.57
		c0,0.43,0.55,0.99-0.13,1.36c-1.24,0.41-2.17-1.03-2.06-3.61C354.66,552.83,355.64,552.97,356.5,556.57z"/> <path d="M334.63,550.69c-0.52,2.5-0.83,4.82-0.1,7.22c1.63,0,0.74-2.19,2.17-2.06c1.34,0.31,1.24,1.96,2.37,2.37
		c2.07,0.53,0.21-1.38,0.21-2.28c1.43-2.17,1.46-2.14,0.72-4.75C338.2,550.9,336.51,550.28,334.63,550.69z M336.69,554.3
		c-0.93-0.3-1.13-1.03-0.52-2.17C340.4,552.13,339.21,555.1,336.69,554.3z"/> <path d="M344.22,558.94c2.82,0.73,3.98-0.73,5.47-3.61C345.29,545.26,336.15,556.85,344.22,558.94z M345.26,552.65
		c3.51,0.75,3.22,4.57-0.1,5.16C341.44,556.75,342.77,552.65,345.26,552.65z"/> <path d="M328.18,429.68c0.5-2.33-0.3-4.32-0.56-6.69C326.94,429.09,327.3,433.78,328.18,429.68z"/> <path d="M331.54,141.77c1.75,1.34,1.86,3.61,3.51,4.75c0.41-0.52,0.72-0.93,1.03-1.34c-1.39-1.63-3.82-4.27-3.82-7
		c-0.6-0.79-2.56-1.23-0.98-2.64c0.11-0.11-2.62-4.13-4.39-5.09c0.89,3.56,2.02,11.36,5.17,17.93
		C333.28,145.83,331.38,144.13,331.54,141.77z"/> <path d="M344.64,138.89c-3.51-2.79-6.71-5.26-10.01-7.84C339.79,137.44,341.85,138.99,344.64,138.89z"/> <path d="M338.45,152.21c-0.3,1.85,1.03,2.76,1.86,3.9c3.48,4.79,0.34,8.21,1.13,9.18c1.78-2.37,2.18-3.46,1.55-5.98
		C342.09,155.73,338.45,152.11,338.45,152.21z"/> <path d="M344.07,134.72c1.06-0.8,0.67-1.41,0.46-1.92c-2.79-0.41-4.54-3.3-8.15-3.4C344.67,135.11,343.97,134.82,344.07,134.72z"/> <path d="M342.68,130.22c-2.37-1.96-4.54-4.23-7.01-6.09C337.21,127.13,339.49,129.29,342.68,130.22z"/> <path d="M340.51,142.5l0.1,0.1C340.59,142.53,340.58,142.5,340.51,142.5z"/> <path d="M336.8,137.44c1.12,1.73,3.15,2.87,3.79,5.08c1.36,0.31,1.5,2.19,3.32,1.94C341.74,141.1,340.15,138.55,336.8,137.44z"/> <path d="M333.19,150.03c-0.62,2.48-0.41,4.85,0.93,7.32C334.22,154.67,332.98,152.4,333.19,150.03z"/> <path d="M336.51,140.04c-0.48-0.01,2.54,2.4,3.18,2.87c0.27,0.2,0.57-0.06,0.77-0.33c0,0.01,0.01,0.02,0.06,0.02
		c0-0.04,0-0.07,0-0.1c-0.02,0.04-0.05,0.06-0.06,0.08C338.89,142.13,338.33,140.09,336.51,140.04z"/> <path d="M338.34,148.88c0.08-0.45-0.87,0.73-0.79,1.71c0.04,0.46,0.61,1.89,0.9,1.6C338.45,152.02,338.34,151.58,338.34,148.88z"/> <path d="M347.91,154.57c-0.67,0.07-0.63,0.73-0.9,1.55C348.57,155.65,348.59,154.49,347.91,154.57z"/> <path d="M330.25,130.63c0.05,0.03,0.1,0.07,0.15,0.1C329.99,129.09,328.92,129.82,330.25,130.63z"/> <path d="M276.35,129.71c4.39-0.93,6.99-1.41,4.54-4.85C279.44,126.71,277.59,127.64,276.35,129.71z"/> <path d="M333.6,138.27c0.21,2.84,1.91,4.78,4.02,6.31c0,0.41-0.1,0.92-0.21,1.42c0.71,0.11,1.17,0.73,1.24,1.34
		c-0.35,1.69-0.3,1.34-0.15,1.3c0.77-0.36,1.7,0.08,2.63-0.47c-1.65-1.65-1.06-1.99-3.39-3.55c0.27-1.36-2.99-3.98-3.61-5.84
		c0.41-0.1,0.83,0.31,1.34-0.1c-1.31-1.1-2.16-2.57-3.96-3.05c0.27,0.82,1.15,1.38,1.21,2.31
		C332.76,138.64,332.27,138.27,333.6,138.27z"/> <path d="M331.43,135.48l-0.1,0.1C331.56,135.63,331.48,135.71,331.43,135.48z"/> </g> </svg> 