<?xml version="1.0" encoding="utf-8"?> <!-- Generator: Adobe Illustrator 23.0.1, SVG Export Plug-In . SVG Version: 6.00 Build 0)  --> <svg version="1.2" baseProfile="tiny" id="Layer_1" xmlns="http://www.w3.org/2000/svg" xmlns:xlink="http://www.w3.org/1999/xlink" x="0px" y="0px" viewBox="0 0 900 600" xml:space="preserve"> <g> <path d="M716.04,112.65c0-0.01-0.11-0.05-0.12-0.05C715.96,112.78,715.93,112.77,716.04,112.65z"/> <path d="M573.04,439.25C573.05,439.25,573.04,439.21,573.04,439.25L573.04,439.25z"/> <path d="M870.12,23.91c-0.98-0.29-2-0.6-3.22,0.11c0,11.88,0.22,148.19-0.61,149.22c-3.85,0-9.24,1.43-8.63,0.81
		c-0.21-0.62-0.07-1.05-0.61-1.41c-1.02-0.1-2.13-0.41-3.45,0.41c0.51,1.52,0,3.15,0.91,4.47c5.6,1.94,8.34-1.54,12.08-0.2
		c0.41,3.05,0.41,83.75,0.1,87.5c-5.24-3.59-11.86,0.95-16.55-0.3c-1.52-0.41-2.94-1.12-4.47-1.62c-1.93-3.15-3.35-6.19-3.25-10.15
		c0.6-24.2,0.12-10.52-1.83-46.09c-0.41-7.42,0.97-5.63,0.2-8.22c-0.97-3.27,1.85-6.87,0.51-11.27c1.02-5.12,6.87-8.18,11.17-10.76
		c0-1.22,0.1-2.23-0.81-3.25c-2.15,0.38-9.14,4.01-10.86,10.25c-1.71,6.18-3.03,3.76-2.94,10.25c0.19,14.9,0.22,13.89-0.3,14.41
		c-1.31,0.48-136.22,15.32-136.94,14.31c-0.1-2.44,0.89-4.88,1.12-7.41c0.36-3.96,2.13-7.11,5.58-9.14
		c-0.08-0.08-0.15-0.24-0.18-0.46c-0.06-0.31,0.08-0.14,0.08-0.24c0,1.92,5.06,0.07,6.89-0.51c5.92-3.45,4.39-4.9,6.09-7.21
		c2.83-3.85,1.17-7.67,0.2-10.56c1.32-1.32,1.83-3.05,2.54-4.57c5.3-1.77,2.97-2.06,4.77-3.86c2.03-0.3,3.25-2.13,4.77-3.35
		c1.89-0.24,4.74,1.51,5.68-1.73c0.98-3.36,0.89-5.76,3.45-7.71c1.5-1.15,2.44-2.64,2.64-4.57c3.95-0.33,3.48-0.44,3.86-0.81
		c0.3-0.81-0.51-1.73,0.2-2.44c1.02-0.91,2.64-0.61,3.45-1.83c-0.2-0.61-0.3-1.11,0.1-1.73c14.93-22.7,5.85-34.33,2.44-44.67
		c-1.92-5.81-11.93-11.47-16.24-13.1c-1.33-0.5-5.34-3.62-10.96-3.05c-6.99,0.72-1.79-1.03-4.97-4.37
		c-0.37-0.39-0.48-0.76-0.42-1.22c3.22,1.89,4.55,5.25,5.69,3.42c-2.84-3.45-6.5-5.99-9.85-8.73
		c-14.28,2.18-15.66,14.01-16.24,11.38c0-0.12-0.04-0.9-1.22-0.31c-8.05,5.37-7.18,23.09-10.15,31.06
		c-0.61,2.46,0.85,0.52-0.41,4.97c-1.18,4.17-2.64,8.32-3.96,12.59c0.51,3.96-0.7,6.11-4.36,7.51c-12.16,4.66-18.51,4.36-29.74,6.09
		c-3.66,0.33-3.2,1.54-6.9,1.83c-4.52,0.68-11.1,1.07-15.53,3.25c-9.19,4.51-11.48,5.93-17.76,6.8
		c-17.96,2.48-23.75,9.94-30.15,12.59c-15.25,6.31-15.46,7.3-21.42,8.93c-3.92,1.07-9.19,2.47-11.06,4.16
		c-2.33,2.11-3.98,1.66-14.52,3.96c-14.35,3.13-13.92,6.14-17.46,6.7c-4.37,0.69-0.34,0.9-27.81,13.1
		c-6.65,2.95-4.82,3.38-8.93,4.67c-27.75,8.68-12,5.74-27.81,7.71c-5.44,1.04,6.68,1.71,10.66,1.32c7.33-0.72,19.8,5.41,23.25,8.12
		c4.71,3.71,5.49,0.34,5.64,2.14c0.03,0.38-0.27,0.47,2.06,0.78c0.14,0,0.1-0.13,0.1,2.05c1.52,1.22,1.52,1.22,3.15,0.51
		c-0.21-0.21-0.74-0.54-1.02-0.81c0.3-1.52,2.48,0.08,2.23,1.42c-0.58,1.07-2.63,0.82-2.63,1.8c0.06,0.79,1.92,1.37,2.19,3.15
		c0.38,2.44-4.44,4.33-6.87,5.51c-1.38,0.67-3.36-0.26-8.93,0.2c0.45-1.04,1.22-1.92,2.33-2.03c5.42-0.55,3.49-0.14,6.9,0.71
		c4.55-1.24,3.22-2.56,3.45-5.99c-6.94-6.94-5.08-3.5-9.03-5.99c-4.53-2.85-9.42-5.01-14.11-7.41c-2.71-1.39-18.97-0.35-22.67-0.81
		c0.01-0.01,0.02-0.04,0.06-0.09l-0.1,0.1c0.01,0,0.01,0,0.02,0c-0.4,0.66-0.79,1.48-0.86,1.41c-1.2-0.93-2.95-0.18-3.11-1.21
		c-0.33-2.1,0.49-3.43,2.5-3.66c1.61-0.19,2.34,0.82,3.76-0.3c-1.48-0.47-1.7-1.52-4.06-1.32c-3.2,0-3.52,2.26-4.26,5.48
		c0.83,3.72,3.31,1.32,4.57,3.15c-0.72,3.04,0.24,5.11,1.32,7.82c0.81,2.44,2.23,4.26,4.87,5.08c0.51,1.22,1.12,2.33,2.23,3.15
		c2.32,1.71,1.63,8.31,8.73,7c2.1,2.73,3.44,1.26,5.28,2.64c2.34,1.56,3.87,0.13,6.19-1.42c0.61-0.41,1.53-0.09,2.13-0.81
		c0.93-1.11,0.3-3.05,1.52-4.16c4.26,0,8.43,1.02,12.69,0.91c2.33-1.93,5.38-2.84,6.8-5.28c1.03-2.56-2.17-6.35,2.23-1.22
		c2.61,12.51,5.75,22.76,14.92,30.96c9.21,8.23,9.49,13.22,11.47,16.14c8.01,11.83,7.58,9.62,17.87,26.49
		c1.25,2.5,0.26,0.87,15.43,17.36c11.68,12.69,14.36,17.45,12.59,25.38c-3.18,14.17-8.57,20.97-9.54,32.69
		c-1.31,15.76,3.14,27.35,5.08,37.97c0.61,2.44,1.76,1.82,2.64,8.22c1.74,12.71,13.08,39.98,8.63,41.42
		c-5.92,1.92-4.29,8.05-4.77,9.44c-2.2,6.41,0.96,7.94-4.06,22.43c-5.5,2.2-4.55,12,6.6,14.11c9.35,1.77,13.1,2.26,15.73-0.51
		c3.48,1.09,4.44,3.6,7.51,4.37c8.91,2.21,16.96,3.66,34.01-0.81c2.38-0.79,2.21-0.57,7.71-3.96c5.77-2.89,2.9-2.74,5.58-4.77
		c1.73-1.31,2.13-2.13,1.52-3.86c-1.86-5.32-6.56-5.76-11.78-9.24c-8.73-13.1-16.99-13.21-19.9-21.01
		c-0.74-1.98-6.08-13.69-7.92-16.24c-2.93-0.56-6.13,2.76-6.8-0.61c-1.44-11.56-2.52-15.92-2.44-25.99c0.03-3.5-1.48-4.43-0.3-12.28
		c4.52-30.25-2.26-44.62,9.03-81.51c1.43-4.66-1.54-2.21-0.1-7.31c0.51-1.83,0.62-3.56,0-5.38c-7.34-21.74-9.54-16.07,15.53,2.54
		c0.93,0.69,1.62,1.52,2.33,2.33c5.34,6.86,3.84,4.76,4.16,9.95c0.24,3.75,0.3,7.51-0.71,11.17c-1.23,4.46-1.77,9.02-2.84,13.5
		c-0.98,4.1-1.05,6.4,0.2,21.62c0.5,6.01,1.84,6.25,3.35,11.78c2.02,7.38,4.4,10.48,6.19,15.02c7.44,18.81,7.7,29.12,11.06,40.71
		c-0.61,0.81-1.42,1.11-2.23,1.42c-5.74,2.22-4.1,8.12-4.67,9.64c-1.71,4.58,0.3,8.46,0.3,12.59c0,6.71-0.26,6.01-3.65,15.23
		c1.09,3.71,14.89,5,22.84,3.55c1.22-0.3,2.54-0.62,3.86-0.81c1.42-0.21,2.54-1.42,3.96-1.42c2.47,0.62,1.74,6.85,21.01,5.58
		c3.22,2.84,12.99,0.47,17.16-0.61c6.29-1.62,4.59-1.45,12.79-7.31c0-9.46,0.71-8.76-13.6-12.59c-2.14-0.57-3.99-1.4-5.58-3.15
		c-3.93-4.3-8.7-7.64-12.79-11.78c-1.05-1.06-7.08-3.69-7.92-9.64c-0.2-1.42-0.9-2.74-1.32-4.16c-1.72-5.88-6.08-3.38-8.12-4.47
		c0-15.29,0.06,3.5-1.62-34.01c-0.17-3.74,0.66-13.81,0.2-30.56c-0.25-9.04-3.31-22.04-2.94-25.89c0.86-8.93-2.54-11.68-1.52-20.61
		c0.59-5.21-0.6-3.27-0.51-8.63c0.32-19.26-7.13-13.36-16.85-36.65c-12.77-30.57-36.38-50.7-37.15-53.8
		c2.94,0.51,5.79,0.6,8.63,1.22c14.7,3.17,19.89-1.32,20.91-1.32c1.46-0.15,7.5,2.71,12.89,0.81c5.65-1.99,7.42,0.07,16.85-0.1
		c2.25-0.04,1.23-0.47,6.29-1.62c13.19-3.01,19.62-12,22.64-25.07c0.43-3.04-9.67,1.45,136.33-16.85c0.71-0.09,1.42,0,2.23,0
		c1.69,4.23,2.43,40.9,2.44,41.01c0.1,1.83,0.1,3.55-1.32,4.97c1.02,1.93,0.61,4.06,2.03,5.89c2.41,0,3.41,4.58,9.64,4.37
		c0.71-0.1,1.52-0.3,2.44,0.51c-0.61,3.86,0.25,7.92,0.61,11.98c0.07,0.77-2.31,126.61,1.22,131.76c1.22,0.41,2.65,0.3,3.25,1.52
		c1.14,2.32,3.04,2.49,5.18,2.54c3.67,0.09,3.45-1.35,3.45,4.47c0,167.46-0.33,154.56,0.61,156.43c4.87,0,3.15,42.16,3.15-553.04
		C870.42,24.72,870.22,24.42,870.12,23.91z M484.81,243.7c2.16,1.05,3.52,1.99,5.38,2.33c0.62,0.11,1.03,0.92,1.62,1.42
		c0,3.37,2.63,4.74-6.8,3.96C485.11,248.77,484.2,246.44,484.81,243.7z M448.05,235.78c4.21,0,6.24,0,10.47,0
		c-0.51,1.73-1.52,0.2-2.13,0.61c-1.02,2.44-1.02,2.44-3.25,3.35C450.78,239.37,450.77,238.83,448.05,235.78z M476.48,258.82
		c-3.23,2.45-5.13,4.2-5.89,2.13C476.72,255.55,477.4,258.12,476.48,258.82z M468.75,260.15c-0.3,0.3-1.65,0.51-2.52-0.51
		c0.58-1.26-1.88,0.79,9.24-7.32c1.04-0.76,2.21-0.66,3.15-1.83c-1.32-0.51-2.32-0.28-3.45,0.51c-12.09,8.46-7.56,5.65-11.17,7.82
		c-3.15-0.1-4.06-2.44-5.18-4.47c0.11-0.34,0.26-0.57,0.45-0.74c1.16-1.05,0.91,1.06,1.79,1.35c1.93-1.62,3.04-4.27,5.58-5.28
		c2.33-0.92,4.16-2.94,6.8-3.05c0-0.82-0.38-1.07-1.02-1.22c-10.41,3.61-14.36,9.78-16.44,4.36c3.66-2.75,8.12-4.57,11.67-7.51
		c0-2.48-7.96,4.13-13.2,6.09c-3.06-0.54-4.95-5.1-4.77-8.22c0.61,0.31,1.12,0.51,1.62,0.81c1.39,4.18,1.1,4.01,1.63,3.38
		c0.56-0.65,1.16-3.09,1.64-3.09c2.33-0.98,4.48-2.41,5.97-4.45c-0.1-0.61-0.81-1.02-0.3-1.93c6.56,0,8.08-0.28,10.96,1.12
		c0.71,0.34,10.66,5.04,11.47,6.5c0,0.65-1.04,5.07,0.71,8.32C476.23,257.98,472.52,255.12,468.75,260.15z M707.3,205
		c-0.95-1.37-3.53,1.9-3.53,0.53c4.06-14.82,2.58-25.74,6.4-21.93c3.22,3.22,6.28,2.78,7.61,3.45
		C721.79,193.76,717.92,202.38,707.3,205z M741.63,162.89c-0.17-1.04,0.06-1.8,1.13-2.01C743.02,160.8,743.04,162.12,741.63,162.89z
		 M746,157.61c0.13-0.13,0.08-0.13,0.2,0C746.13,157.61,746.07,157.61,746,157.61z M744.15,101.5c-0.23-0.16-0.44-0.36-0.48-0.65
		C743.92,101.01,744.12,101.2,744.15,101.5z M743.26,105.84c-0.32-0.61-0.89-1.11-0.71-1.93
		C749.34,109.01,753.96,126.23,743.26,105.84z M742.47,103.55c0.33,0.67-0.51,0.37-0.61-0.35
		C742.09,103.2,742.35,103.31,742.47,103.55z M731.06,99.71c0.17,0.2,0.81,0.31,0.54,0.62C730.49,99.56,730.2,98.69,731.06,99.71z
		 M727.93,95.08c0.29,1.44,1.36,2.67,2.38,3.78C728.43,98.34,724.04,94.6,727.93,95.08z M706.81,91.94c2.68-4.35,10.1-10,12.56-5.78
		c0.19,0.33,0.89,0.29,0.73,0.99c0.51,0.17,0.98,0.39,1.41,0.63c-0.54-0.02-1.05-0.15-1.41-0.6c-0.41-0.1-0.81-0.3-0.71-0.81
		c-0.19,0.13-0.4,0.25-0.61,0.39c-1.68,0.9,3.86,2.75,2.84,6.31c-1.02,0.1-0.71-0.71-1.02-1.12c-1.29-1.94-1.4-2.19-2.51-2.4
		c1.12,1.24,2.01,2.58,2.01,4.31c-1.42,0.61-2.74,1.62-4.36,1.22c-1.66,2.17-3.41,2.82-5.08,3.65c0,0.46-0.32,0.61-0.71,0.71
		c-8.02,8.68-8.07,9.83-9.6,10.11c-0.5,0.06,0.38-0.47-2.69,5.66c0-1.75,3.61-14.86,4.92-15.06c0.38-0.06-0.33-1.25,0.87-1.53
		C703.35,97.73,703.65,97.08,706.81,91.94z M697.76,125.27c0.08,0.03,0.11,0.05,0.12,0.06c-0.81,0.71-1.52,1.52-2.74,1.93
		c0-2.01,1.52-4.55,1.52-4.67C697.44,123.46,696.72,124.85,697.76,125.27z M697.51,115.55c-0.06,0.12-0.07,0.14-0.24,0.64
		C697.1,115.77,697.25,115.67,697.51,115.55z M699.1,128.58c-0.51,0.3-0.81,0.51-1.22,0.81
		C698.19,128.68,698.19,128.68,699.1,128.58z M699.1,130.61c0.01,0.02,0.02,0.03,0.03,0.04
		C699.09,130.66,699.08,130.66,699.1,130.61z M697.89,125.33c-0.01-0.03-0.06-0.13-0.06-0.34c-0.02-0.78,0.68-1.26,0.86-1.95
		c0-0.24,1.57,0.4,1.73,1.69C699.71,125.53,698.7,125.13,697.89,125.33z M702.86,95.49c-0.1,0.51-0.2,1.11-0.6,1.31
		C702.26,96.27,702.32,95.76,702.86,95.49z M701.29,94.5c-0.15,1.33-1.04,1.47-4.32,8.6c-0.09,0.27-0.27,0.53-0.59,0.59
		C696.75,99.59,699.93,94.5,701.29,94.5z M696.25,103.93c-0.02,0.44-0.09,0.9-0.09,1.51C695.8,104.88,695.77,104.41,696.25,103.93z
		 M687.12,140.98c7.77-16.13,4.9-24.69,11.41-38.2c0.18-0.38,2.63-5.75,3.61-5.75c-5.74,12.92-6.76,20.84-8.73,31.86
		c-0.43,2.4-2.99,10.83-4.71,12.49C687.03,143,686.67,141.9,687.12,140.98z M691.38,142.49c1.04-1.09,1.42-2.54,2.03-3.65
		c1.69,0.17,0.91,1.2,2.46,4.71c0.14,0.31,1.2,2.53,1.2,2.43c0,4.21-0.07,3.74,0.2,3.71c0.94-0.13,0.65-1.02,1.02-1.5
		c0.52-0.7,0.82-1.52,1.32-2.13c0.27-0.34,1.22-0.98,1.22-1.62c-0.65-1.43-1.71,0.33-3.08-1.9c-0.75-1.23-0.87-3.03-1.5-4.09
		c-2.93-4.88-1.86-5.75-0.51-7.11c0.78,0,0.45,1.02,1.32,1.32c1.07-0.24,1.78-2.37,2.21-1.72c1.18,1.17,2.17,1.08,2.6,2.18
		c0.44,1.14-1.16,1.17-1.56,1.98c-0.91,3.66,0.4,1.53-2.44,4.36c-0.79,3.07,2.48,1.75,3.65,1.62c1.42-1.73,0.2-3.45,0.2-4.87
		c0.71-1.02,1.62-0.81,2.44-0.91c0.1-0.41,0.3-0.81,0.2-1.12c-2.72-8.32-5.25-6.16-2.64-7.21c1.45,2.05,2.79,4.17,3.35,6.6
		c0.55,2.38,1.36,6.2,5.08,5.58c2.46-2.2,6.43-3.55,7.51-3.55c-1-2.23-1.59,0.19-10.85-3.65c-0.16,0-2.85-6.61-4.07-7.42
		c-2.7-1.8-3.32-4.7-4.47-7.61c1.3-1.59,1.33-3.78,3.07-5.11c2.23-3.34,0.13,0.94,9.31,10.12c0.77,0.77,1.37,0.71,2.52,2.05
		c1.73,2.01,1.51,3.11,2.03,3.21c0.36,0.07,0.54,0.36,0.54,0.68c1.88,0,3.41,2.9,4.06,4.06c-1.81,0-2.49-2.08-3.73-2.3
		c-0.53,0,0.64,0.29-0.44,0.99c-7.42-2.47-12.26-11.44-14.83-14.01c-0.17,3.75,7.77,11.63,11.17,13.72
		c-1.67,0.6-2.74-0.91-4.16-0.71c2.14,4.28,11.13,5.35,12.99,4.06c1.32,0.31,1.91,1.87,3.64,1.22c-4.58-4.42-6.93-11.4-8.73-11.98
		c0.22,0.22,0.14,0.26,0.24,0.16c0,3.94-1.71-0.13-9.18-13.78c0.13,2.81,2.47,7.22,2.13,7.82c-0.15-0.43-0.2-0.81-0.2-0.91
		c-1.22,0-4.13-5.05-5.08-7.71c0.81-1.42,2.03-2.44,3.15-3.45c1.29,1.15,2.02,4.39,3.26,4.65c0.2-1.15-0.44-1.25-2.04-5.26
		c0.49-1.8,1.83-2.07,2.1-1.12c0.98,2.75,3.93,8.84,5.78,9.3c-0.84-4.44-6.82-12.75-2.3-12.75c1.15,1.15,0.91,2.08,0.91-0.91
		c7.02-5.71,4.47-2.78,11.88,3.87c0.7,0.63,1.69,0.92,1.08-0.21c-0.86-1.59-9.68-8.57-3.41-7c12.87,11.14,14.67,15.67,15.63,16.63
		c0.35,0.35,0.63,0.46,0.8,0.52c-0.16,0,0.01,0.13,0.16,0.09c0,0,0,0,0,0.01c0.31,0.16-0.01,0.87,0.82,1.42
		c-0.37-1.91-0.95-1.09-0.61-1.43c-0.05-0.02-0.1-0.03-0.14-0.04c0.3-0.32-0.15-2.28-7.97-11.52c-0.35,0-0.7-0.29-0.7-0.71
		c-0.82-0.41,0.22-0.21,0.31,0.16c0.11,0.47-0.21,0.31,0.3,0.3c1.14-0.02,7,5.56,8.53,5.72c0-2-6.93-8.96-8.43-10.25
		c2.44,0.2,3.36,0.6,4.87,2.23c4.31,4.65,4.72,4.36,3.86,4.36c0-0.14,0-0.25,0-0.41c-1.75,0.7,2.26,4.15,0.41,4.77
		c6.01,7.21,7.03,16.03,7.63,16.18c1.17,0.5,0.98,0.43,1.05,0.7c0.75,2.98-0.17,8.94,0.73,9.38c3.79,1.85,4.27-10.89,2.87-15.41
		c-1,0.5-0.1,1.23-0.81,3.55c-0.33-3.04-2.63-11.65-5.06-15.43c-1.86-2.89-2.21-2.46-3.96-4.84c2.11,0.44,7.05,4.22,8.2,8.4
		c1.92,6.96,4.98,7.66,3.76,15.24c-1.13,6.99-1.58,7.25-0.71,8.12c1.62-1.12,0.61-3.45,1.83-4.87c0.95,4.27,1.04,7.96-1.02,11.88
		c-4.44,8.45-4.54,10.91-5.89,13.6c-1.56,1.17-6.77-0.11-9.85,5.68c-6.78,12.76,0.14,14.27-8.02,12.38
		c-1.02-0.81-1.73-1.83-2.64-2.23c-1.06-0.58-1.52-4.27-2.84-1.62c0.33,2.33,2.83,2.82,3.76,4.87c-0.12,0.12-0.61,1.66-3.05,2.54
		c-1.52-1.02-3.45-1.55-5.28-2.03c-1.62-0.43-2.74-1.52-3.76-2.23c-1.49-0.33-1.73,0.97-1.24,1.55c0.37,0.44,4.1,2.16,7.74,4.13
		c0,5.61-5.25,0.08-7.51-0.61c0.51,2.65,2.93,2.73,3.86,4.26c0,1.07-0.79,0.85-1.02,1.42c-2.33,5.85-13.99-2.16-15.94-4.97
		c-0.06-0.09-3.99-7.69-6.7-14.02c-3.25,1.63,3.55,11.88,5.28,13.7c-1.1,2.2-3.65,1.98-9.24,4.77c-1.42,0.71-1.52,1.02-2.23,3.35
		c1.81,0.49,0.63-3,5.08-3.25c1.04-0.06,5.79-0.88,5.79,0.45c0,4.08-2.34,5.48-1.75,6.33c1,1.25-6.43,29.25-7.59,32.4
		c-1.26,3.4-0.6,2.47-5.28,3.15c-12.58,1.82-11.53,0.74-13.4,0.1c-0.55-0.55-0.16-1.69-0.37-2.38c-0.25-0.81-0.91-0.62-1.06-0.16
		c-0.42,1.31-0.41,2.84-1.52,4.06c-3.35,0.61-6.8,1.12-10.35,1.02c-6.2-11.5,1.07-23.08,1.73-28.12c0.21-1.59-0.6,1.61,5.89-11.57
		c3.18-6.46,3.3-13.89,3.65-16.75c1-1.31,2.32-2.06,2.61-3.74c0.02,0,0.04,0,0.09,0l-0.1-0.1c0,0.05-0.01,0.07-0.02,0.08
		c-0.98-0.06-1.43,0.92-2.58,0.92c-0.51-3.96-1.02-8.02-2.23-12.18C685.08,151.34,681.32,153.04,691.38,142.49z M708.64,137.58
		c-0.14-0.12-0.28-0.24-0.41-0.37C708.7,137.01,708.65,137.27,708.64,137.58z M708.68,137.61c0.47-0.21,1.22-0.02,1.68,0.11
		C710.21,138.55,709.38,138.18,708.68,137.61z M750.07,115.78c0.12,0.12,0.41,0.39-0.11,0.82
		C749.96,115.56,749.7,115.53,750.07,115.78z M688.34,228.47c-3.05,2.94-5.18,3.86-12.08,4.97
		C666.43,229.76,677.85,229.45,688.34,228.47z M669.75,231.64c-0.28,0.39-1.32,0.33-2.12-0.73
		C669.44,230.23,670.31,230.97,669.75,231.64z M667.53,155.68c0.89,0.57,1.06,1.06,1.22,2.03c4.62,27.62-6.91,28.72-12.08,56.03
		c-1.67,8.79,2.8,12.94,2.03,13.7c-0.1,0-36.62,4.66-45.54,4.77c-0.11,0-2.72-3.69-3.39-7c-1.15-5.63-4.63-10.69-4.26-15.84
		c4.47-1.62,7.82-1.83,16.65-1.12c0.88,2.64,3.39,4.87,7.11,5.08c1.83,0.1,3.55,0.8,5.38,0.71c15.02-0.75,22.7-11.62,29.54-25.07
		c1.79-3.52,0.2-3.68,1.83-8.43c1.68-4.89-0.29-13.16-1.93-18.07C661.43,154.53,658.44,156.25,667.53,155.68z M557.59,238.52
		c-3.87-4.53-7.76-5.64-13.91-2.13c-2-0.25-7.86-9.01-9.24-11.78c0.79-0.99,2.02-0.63,2.94-1.02c1.01-0.43,2.13-0.71,3.15-0.91
		c26.26-5.14,23.84-9.12,29.24-7.92c8.51,1.9,24.49-2.74,33.4-5.18c4.2,16.27,1.13,10.21,6.7,22.74c-1.19,0.87-2.42,0.88-3.86,1.02
		c-16.14,1.54-17.32,1.94-19.39,1.22C583.22,235.92,594.91,234.42,557.59,238.52z M552.21,242.17c-1.21,0-2.55-1.38-0.83-1.38
		C552.98,240.79,553.47,242.17,552.21,242.17z M538.53,239.96c0.2,0.29-15.58,3.18-24.89-4.18c-5.25-4.15-9.58-0.39-6.6-5.34
		c0.22-0.37,0.45-0.74,0.6-1.16c6-1,5.45-3.46,24.77-4.67c3.97,11.31,12.37,12.61,9.95,15.03c-2.19,0-5.15-2.63-7.23-2.45
		C534.3,237.34,537.53,238.51,538.53,239.96z M521.45,241.68c-0.32,0.17-0.45,0.11-0.69-0.07
		C520.97,241.64,521.19,241.68,521.45,241.68z M503.49,245.62c-0.61-3.35-0.51-4.16,0.51-6.7c2.23-0.61,4.46-0.48,6.7,0.41
		c1.57,0.62,7.18,2.18,7.41,3.35C516.26,243.43,505.05,246.89,503.49,245.62z M513.94,246.54c-0.35,0.47-0.5,0.73-0.94,0.28
		c-0.11-0.17-0.2,0.01,0.6-0.19C513.67,246.61,513.77,246.58,513.94,246.54z M498.82,237.71c2.54-1.52,4.77-2.13,7.11-1.42
		C505.16,236.79,505.92,236.52,498.82,237.71z M516.09,240.24c-6.77-2.22-3.73-3.35-7.94-3.35c2-0.67,1.6,0.2,2.36,0.2
		C510.88,237.1,528.21,244.21,516.09,240.24z M542.74,242.92c0.47,0.06,0.58,0.15,0.31,0.71c-0.18,0.38-0.13,0.39-0.36-0.08
		C542.3,242.73,542.27,242.87,542.74,242.92z M485.42,235.27c-9.54-4.34-7.78-4.11-20.1-7.31c2.33-0.81,4.16-1.98,6.39-1.93
		c4.68,0.11,52.97-25.7,63.65-27.71c3.62-0.68,11.2-1.87,10.66-1.32c1.62-1.02,3.65-1.62,4.97-3.35c2.26-2.64,8.57-0.15,31.27-12.28
		c6.85-3.66,8.39-5.66,9.52-5.23c-0.7,0.7-0.5,2.66-0.49,2.89c0.62-0.41,4.87-3.34,4.87-3.76c-0.19-1.04-0.75-1.26-1.62-1.52
		c4.59-2.15,14.17-5.8,19.19-5.18c1.22-0.2,1.62-1.24,2.64-1.52c11.31-3.11,10.76-6.56,25.07-8.02c15.93-1.62,8.85-3.15,17.46-3.15
		c0.91,0.3,1.13,0.91,1.32,1.42c8.31,22.1,1.47,26.84,1.02,30.56c-0.62,5.08-6.94,12.71-11.67,18.07c-1.71,1.94-3.86,3.21-6.5,3.55
		c-1.23,0.16-14.94,3.36-15.43,0.1c0.9-0.56,6.17-0.77,6.5-0.81c-1.32-1.42-3.25-1.01-4.57-2.03c-1.37-1.06-3.41-0.39-4.67-0.81
		c0-2.69,1.41-1.72-9.34-2.44c0.19,0.79,1.01,0.91,1.42,1.42c0.37,1.19-1.14-0.86-10.35,1.73c-3.55,0.99-27.91,6.29-35.22,6.29
		c0-1.63,1.54-2.35,2.54-3.65c-0.51,0-1.02-0.21-1.22,0c-0.94,0.98-18.28,7.81-20.4,8.32c-4.31,1.06-17.94,4.38-22.33,4.57
		C513.6,222.88,510.25,227.6,485.42,235.27z M494.05,240.14c-0.54,0.54-1.02,0.29-2.38,0.29c-0.78-3.9-11.37-0.57,12.62-9.14
		c0.51,1.02,0.04,1.37-0.71,2.13C497.82,235.08,495.61,234.81,494.05,240.14z M500.64,243.49c-0.67-0.76-1.48-1.51-2.44-2.23
		c0.54-1.08,1.94-1.36,2.94-1.52C501.58,241.1,501.32,242.24,500.64,243.49z M509.4,248.06c0.51-0.01,0.9-0.8,1.7-0.41
		c-0.38,0.48-0.95,0.12-1.52,0.41c-0.1,0-2.46,1.44-7.21,0.2C504.65,248.16,507.03,248.11,509.4,248.06z M609.06,479.61
		c6.29,12.57,0.48-0.16,6.4,11.67c-0.42,1.05-3.47,1.03-5.48,1.73c-7.17,2.46-9.39,6.57-7.8,6.28c0.1-0.02,16.78-8.41,15.51-2.83
		c-2.23,2.23-12.76,1.31-11.67,7.82c4.43-2.96,8.71-3.37,13.5-4.97c1.04,0.35,1.82,1.71,2.64,2.44c-0.75,1.68-9.86-0.19-9.54,6.41
		c6.15-3.52,8.39-1.4,12.89-4.17c1.37,0.91,6.2,6.23,8.12,8.53c2.16,2.58,6.03,5.26,9.85,7.92c2.87,2,4.56,1.62,4.26,4.26
		c-0.2,0.1-0.3,0.41-0.51,0.41c-1.12,0.2-2.23,0.23-3.25,0.51c-4.04,1.11-5.92,4.58-5.36,4.43c1.62-0.26,4.4-3.73,7.59-2.9
		c-0.3,1.42-1.01,2.24-2.13,2.84c-15.88,8.62-20.81,6.28-22.68,7.22c-6.65,1.4-12.72-0.22-18.94-1.43
		c-2.98-0.58-3.85-3.84-8.77-4.34c-0.49-0.1-1.96,1.49-3.91,1.52c-1.33,0.03-8.92-0.95-12.5-1.64c-3.24-0.63-5.68-2.54-7-5.68
		c-0.93-3.72,2.49-0.24,3.76-7.51c0.95-5.44,3.4-5.36,3.15-11.06c-0.39-8.88,1.47-4.92,1.02-12.18c-0.25-1.85,0.33-4.68,1.36-5.2
		c0.52-0.26,1.29-0.18,2.6,0.12c-2.13,2.54-1.62,4.87-0.41,7.21c2.87,4.43,7.11-0.23,13.3-4.87
		C601.25,482.79,594.28,483.09,609.06,479.61z M607.64,342.77c3.83,7.09,1.28,10.68-2.13,23.75c-4.22,16.18-1.72,15.61-3.65,26.9
		c-0.94,5.5-0.81,10.4-0.81,16.34c0,9.28-4.25,58.83,1.93,69.13c-1.95,0.84-2.85,3.03-5.18,2.33c-3.47,6.94-2.82,8.14-3.51,8.76
		c-11.73,10.5-9.92,5.01-11.92,3.01c0.63-0.84,0.78,0.3,1.42-0.1c1.52-4.16,1.19-8.62,0.61-12.99c-0.11-0.81-1.02-0.61-1.52-1.42
		c-9.27-35.92-9.81-39.04-9.82-39.25c0,0-0.01-0.01-0.02-0.04c-2.97-6.25-2.43-15.44-5.18-19.9c-0.31-0.5-0.4-1.12-0.51-1.73
		c-5.34-31.23,11.65-37.26,9.24-56.95c-1.04-8.53-16.31-24.81-21.11-28.93c-5.78-4.96-10.04-14.09-21.62-28.52
		c-3.61-4.51-4.09-10.19-12.38-19.59c-1.7-1.93-9.79-8.11-9.14-9.95c1.92,0,4.88,1.22,9.24,1.42c11.3,0.52-2.96,1.99,22.74,1.32
		c5.36-0.14,24.47-7.89,30.25-9.54c5.37,11.77,8.98,7.79,13.2,25.47c1.01,4.24,11.74,21.63,13.6,31.27
		c1.28,6.63,3.55,10.6,3.55,11.37C605.1,337.8,606.32,340.33,607.64,342.77z M616.56,265.62c4.14,4.33,8.78,8.56,11.99,14.01
		c2.45,4.15,4.88,8.42,7.71,12.28c11.11,15.12,13.79,29.02,24.26,40.11c4.81,12.71,2.86,29.45,2.84,30.56
		c-0.11,6.34,2.21,7.67-0.41,10.46c-0.5,0.62-0.17,1.66,0.07,1.75c0.68,0.24,0.87-0.74,1.22-0.04c1.1,2.2,5.32,30.76,3.58,46.61
		c-1.33,12.15-0.87,32.18,2.44,44.46c-4.26,2.33-7.11,5.79-8.22,10.46c-4.57,4.77-8.12,5.48-12.18,2.44
		c-0.59,0.53-0.91,1.66,0.11,2.64c0.75,0.72,6.9,1.24,8.73,0.2c8.54-4.81,4.72-6.34,12.18-13.1c1.44-0.32,5.21-0.54,5.55-0.2
		c1.48,1.94,2.17,8.21,3.99,9.64c-0.28,1.69-3.49,1.16-6.09,3.76c-1.69,1.5-1.8,3.3-1.51,3.23c1.98-0.22,3.46-1.14,5.07-1.81
		c1.51-0.63,3.15-1.12,4.67-1.73c1.16,0.58,1.44,0.94,2.1,1.8c0.87,0.87-6.27,0.55-7.38,5.11c1.65,1.65,10.76-3.87,11.67-0.71
		c-5.18,2.13-5.18,2.13-5.38,4.36c5.44,1.36,8.81-3.5,10.05-0.61c-0.67,1.34-2.91,1.58-4.57,3.65c4.67,1.87,8.35-2.24,8.73,0.61
		c-4.53,2.44-4.62,1.91-3.85,2.66c0.81,0.78,1.89,0.59,2.83,0.59c1.42,0,1.93-1.12,2.33-2.44c8.17,6.45,14.41,4.12,18.27,7.21
		c0,1.6-3.25-0.44-8.02,7.31c5.49-2.74,8.89-9.24,9.64-1.12c-6.22,5.29-11.01,8.94-26.39,7.51c-8.19-0.76-10.67,0.59-17.43-2.32
		c-0.5,0-1.86-4.18-6.23-3.77c-3.88,3.46-8.02,3.32-22.94,1.12c-1.19-0.18-3.28-0.91-3.45-0.91c-0.81-0.91-0.4-1.52-0.2-2.03
		c6.33-16.47,0.84-14.69,2.44-21.62c0.67-2.91-0.48-6.77,0.91-10.15c1.22-0.91,2.74-1.32,4.16-1.83c1.1,0.29,1.13,1.63,1.93,2.13
		c0.2-0.1,0.61-0.2,0.61-0.41c0.66-2.17,0.1-10.76,0.1-10.86c-0.81,0.51-0.3,1.62-0.91,2.13c-1.66-1.11-1.71-8.1-3.76-11.17
		c-1.39-2.08-1.73-4.34-3.96-16.14c-2.64-13.96-13.11-21.71-13.3-48.42c-0.13-19.15,3.76-19.18,3.76-27.92
		c0-2.44-0.3-5.08,0.51-7.71c-0.93-2.93-1.94-4.34-5.86-9.15c-3.76-4.61-3.52-3.27-20.94-18.06c-2.28-1.93-3.16-2.39-4.47-3.05
		c-1.36-2.55-1.37-7.76-3.46-9.85c-1.03-0.86-1.27-6.46-6.4-16.14c-5.8-10.96-5.77-15.62-10.66-23.86c-0.6-1.02-1.12-2.13-1.62-3.25
		C590.11,268.22,615.44,264.45,616.56,265.62z M613.32,262.87c0.26,0.61-2.64,1.3-3.86,1.33c-2.94,0.07-7.47,2.13-8.73,2.13
		c-14.81,0.81-19.98,6.94-21.42,4.06c-1.52-2.64-3.86-4.57-5.89-6.8c-0.11-0.2-0.53-0.13-0.61-0.2c1.4,3.86-1.77,2.72-3.77,3.86
		c-3.65,1.83-7.71,2.74-11.67,3.76c-9.4,2.41-7.91,5.7-31.47,3.45c-17.03-1.62-18.01-1.08-22.22-21.83
		c1.06-1.88-0.63,1.54,12.79-4.77c1.32-0.51,2.64-1.32,4.26-1.12c0.51,1.12,0.2,2.64,1.22,3.65c0.7-0.5,0.1-1.11,0.1-1.73
		c0-4.18,2-1.68,3.68-3.99c0.97-1.53,8.64,0.01,11.95-1.39c1.02-0.43,1.58-0.11,5.28,0.81c0-0.28,2.23,2.7,6.29,3.65
		c2.33,0.55,14.54,7.55,15.84,6.9c-1.56-2.6-11.3-5.55-11.98-6.9c0.54-0.31,1.47-0.95,2.13-1.32c8.21,2.84,13.04,5.52,20.91,5.28
		c6.79-0.21,11.04,2.22,21.93,2.33c2.84,0.03,5.58,0.3,8.22,1.02C609.1,257.25,611.86,259.44,613.32,262.87z M636.11,254.68
		c-3.77,4.37-50.89-7.51-66.44-5.6c-0.88,0.11-0.86-0.04-12.18-4.06c-1.3-3.24,1.61-2.31,55.12-8.32
		c5.26,7.01,7.16,12.43,18.07,14.01C635.38,254.35,636.97,253.68,636.11,254.68z M672.08,253.92c-4.66,0.22-12.77-1.04-16.43-0.18
		c-0.64,0-6.53,1.99-13.3,0.1c-0.11,0-9.06-2.09-13.47-6.4c-0.33-0.32,0.18,0.13,0.18,2.12c-5.04-1.68-11.62-7.58-13.1-12.89
		c0.68-0.51-1.19,0.06,36.24-4.36c10.2-1.21,11.69-1.33,13.5-0.1c1.21,0.82,2.64,1.4,4.06,1.32c4.22-0.25,9.95,2.39,17.66-1.52
		c3.3-1.67,1.75-0.24,4.57-3.86c1.88-0.41,3.6-0.69,5.48-0.3C697.48,236.03,686.52,253.23,672.08,253.92z M698.39,222.89
		c-1.02,0.58-2.47,0.52-3.35,0.61c-1.04-0.89,0.42-0.55,2.13-6.7c3.84-13.78,4.87-16.48,4.87-22.13c0-3.98,2.48-10.9,2.33-13.3
		C709.91,175.84,701.83,198.82,698.39,222.89z M866.8,412.51c-1.32,0.81-2.54,0.2-3.65,0.3c-4.14,0.4-5.48,15.17-5.48-138.56
		c0-2.62,3.04-2.16-0.71-5.38c1.34-2.68,5.64,1.22,9.34,1.22C867.08,271.01,866.8,261.2,866.8,412.51z"/> <path d="M710.16,109.7c-0.16,0-0.05-0.09-0.1,0.1L710.16,109.7z"/> <path d="M113.58,167.97c-0.04,0.16-0.06,0.1,0,0.1V167.97z"/> <path d="M241.52,108.47C241.29,108.19,240.04,106.99,241.52,108.47L241.52,108.47z"/> <path d="M368.78,20.17c-4.09,0-1.49-15.24-3.05,137.45c-0.19,18.71,1.71,14.75-4.67,15.63c-1.52,0.21-2.94,1.12-4.47,0.61
		c-0.2-0.61,0-1.12-0.91-1.52c-1.32,0.3-3.04-0.4-4.67,0.3c-12.14,5.22-10.23,10.26-13.1,15.23c-1.05,1.81-1.41,3.65-1.12,5.58
		c0.62,4.06,0.36,8.22,0.41,12.28c0.11,8.79,1.52,11.68,0.81,19.49c-1.41,0.85,9.19-2.09-136.84,36.54
		c-1.56-1.56-2.07-3.08-6.29-3.96c-3.37-0.7-6.96,4-8.02,6.7c-3.6-0.11-18.57,3.05-19.9,3.76c-4.67-1.93-7.21-2.47-11.37-2.23
		c-4.7,0.27-10-0.47-14.01,5.48c-2.55,3.79,0.93,3.84-13.91,3.45c-6.19-6.29-11.67-12.69-17.66-19.59c3.35,0.71,6.3,0.7,9.14,1.32
		c6.91,1.5,13.7,1.93,20.3-1.12c0.91,0.71,1.93,1.02,3.05,1.02c4.63,0,6.95,1.19,11.17-0.41c5.55-2.1,13.65,2.1,19.9-1.12
		c0.61-0.31,1.42-0.2,2.13-0.41c15.06-3.44,23.04-17.14,23.04-28.52c0-1.19,2.21-12.38,2.23-12.49c1.02-5.1,2.87-5.51,4.97-7.61
		c10.56,0.57,16.67-11.43,14.92-16.75c-2.18-6.65-1.14,0.36,1.32-7.51c2.03-0.51,4.06-1.12,4.37-3.76c2.33-0.41,3.76-2.03,5.28-3.45
		c1.9-0.24,4.84,1.53,5.68-1.73c1.09-4.21,1.43-6.01,2.94-7.21c1.7-1.35,2.84-2.94,3.25-4.97c1.32-0.61,2.84,0.3,3.86-1.02
		c0.3-0.81-0.51-1.73,0.41-2.54c0.91-0.71,2.44-0.51,3.35-1.62c-0.86-2.58,0.8-0.06,5.89-13.3c3.25-8.46,1.97-9.72,2.44-13.81
		c0.43-3.69-1.03-6.75-2.54-10.46c-4.43-10.89-4.49-12.16-7.61-14.52c-10.68-8.08-10.95-6.18-14.31-8.43
		c-6.94-3.97-9.99-0.66-12.69-2.23c0.41-1.32-0.21-2.54-0.51-3.86c-0.67,0-0.8-0.62-0.7-0.62c0.44-0.05,0.7,0.12,0.7,0.62
		c1.16-0.19,3.09,2.42,4.26,2.74c0.85-1.71-6.67-6.99-9.34-9.24c-5.79,0.91-10.37,3.24-13.5,8.02c-8.17,12.47-7.15,13.7-8.02,13.7
		c-0.22-1.24,1.3-4.84,1.83-5.89c1.41-2.83,2.78-3.46,2.94-4.97c-1.38-0.2-5.5,4.3-6.8,10.56c-2.97,14.28-2.22,16.02-3.96,20.61
		c-0.92,2.42,0.74,1.09-0.41,4.57c-3.88,11.82-3.97,12.53-3.86,14.21c0.21,3.04-1.43,5.06-4.47,6.19
		c-7.02,2.61-14.31,4.35-21.83,4.97c-12.48,1.04-10.54,2.9-18.48,3.45c-7.59,0.53-15.7,3.49-21.32,7.41
		c-1.02,0.71-5.14,2.41-2.65,2.13c1.71-0.19,8.2-3.14,9.76-3.97c8.08-4.32,15.21-3.51,23.35-5.27c4.18-0.9,3.13-1.91,6.03-1.91
		c0.96,0,1.67,0.06,2.45-0.1c0.72-0.15,1.74,1.6,2.09,2.81c2.52,8.85,4.16,13.56,2.74,22.43c-0.31,1.93-1.41,3.56-2.03,5.38
		c-1.38,4.02,1.74,3.38-11.88,19.49c-2.22,2.62-4.52,3.34-7.42,3.78c-8.12,1.22-5.31,1.76-14.19,0.89c-0.61,0-1.22-0.3-1.32-1.12
		c13.69-1.24,5.59-1.61-10.05-3.86c-0.8-0.12-1.68,0.12-2.44,0.41c-10.6,3.97-53.29,1.93-53.4,1.93c2.94,2.23,6.4,2.64,10.05,3.05
		c1.32,5.48,4.34,10.16,6.8,15.13c8.18,16.53,6.91,12.35,23.96,28.12c4.3,3.98,2.85,3.76,4.06,4.57
		c14.77,14.36,16.32,15.62,13.7,16.14c-4.07,0.8-21.5,4.17-25.58,3.55c-0.71-4.47-3.35-8.43-4.47-12.89
		c-0.71-1.12-2.03-1.73-3.15-2.64c-0.3-0.71-0.71-1.62-1.02-2.44c0.12-0.95,0.69-2.5,0-2.84c-3.69-3.25-9.6-7-9.14-7.92l-0.01,0.01
		l-0.01,0.01c0,0-0.01-0.01-0.01-0.02c-2.07,0-1.62-1.9-3.22-2.03c-1.23-0.1-2.08-0.96-3.05-1.83c-0.61-0.61,0.51-0.46,0.04-1.05
		c-0.39-0.49-0.11,0.69-0.36,0.45c0.1,0.2-2.59-0.65-4.6-2.3c-1.17-0.96-8.31-9.22-8.99-10.09c-15.03-19.06-4.36-3.17-20.91-27.41
		c-2.39-3.5-1.47-3.66,6.5-11.47c2-1.96,1.13-0.37,14.21-7c22.95-11.64,58.01-11.37,52.21-14.74c-0.31-0.18-0.48,0.22,4.63-3.13
		c0.58-0.38,1.53-0.5,1.8-1.4c-18.14,6.06-0.58,3.68-37.42,9.43c-6.09,0.95-12.05,2.69-17.56,5.58
		c-13.51,7.1-26.41,10.62-27.71,20.2c3.26,7.07,3.69,1.93-8.43,8.73c-9.73,5.46-10.49,8.87-14.62,13.4
		c-10.83,11.89-8.82,25.31-3.46,40.2c3.11,8.64,6.42,11.69,10.35,15.53c10.48,10.24,9.98,13.78,12.18,16.95
		c25.64,36.85,14.68,22.95,38.37,49.44c3.06,3.42,7.34,9.16,8.22,14.01c-1.6,3.6,2.04,1.07-6.7,23.55
		c-3.79,9.75-5.45,20.65-1.62,38.57c0.16,0.76,3.09,14.41,3.55,15.13c2.91,4.5,1.62,9.1,5.18,19.49c1.2,3.5,7.62,24.83,6.6,28.42
		c-1.85,1.24-5.57,1.77-5.48,7.61c0.08,5.18-0.98,0.97-1.32,13.7c-0.48,5.33-0.89,3.25-2.74,10.96c-1.52,1.12-2.84,2.23-3.45,3.76
		c-0.46,9.45,9.51,10.9,18.17,11.88c2.74,0.31,5.38,0.51,7.51-1.73c1.42,0.61,2.84,1.42,3.96,2.54c7.72,6.75,35.97,3.24,41.32-0.71
		c3.14-2.32,7-2.96,8.32-6.09c0.7-1.4,2.05-0.17,2.94-3.45c-0.82-5.77-5.74-7.1-11.47-10.15c-1.15-1.39-7.66-10.11-14.01-13.91
		c-1.84-1.1-5.24-4.35-6.6-8.02c-2.06-5.57-4.97-10.66-7.41-15.84c-1.73-0.51-3.04,0.32-4.47,0.51c-3.49,0.47-2.18,0.79-3.45-7.71
		c-3.6-24.15-0.56-18.78-1.93-22.43c-1.02-3.56,0.17-9.99,0.2-10.35c3.48-37.92,0.51-22.38,1.83-41.72
		c2.48-36.52,4.29-24.5,7.61-41.11c-0.97-2.59-1.46-1.15,0-8.43c-2.74-7.13-1.29-4.42-2.44-7.61c-0.87-2.41-3.01-5.83-3.15-7.71
		c2.02,0.37,10.6,9.1,20.71,16.24c1.88,1.33,3.46,4,5.89,7.31c0.16,3.12,0.77,10.82-0.2,15.23c-3.35,15.23-3.69,17.69-3.55,21.42
		c0.32,9.01,0.3,17.99,3.35,23.96c0.59,1.49,0.68,4.09,4.37,11.98c10.13,21.69,10.12,35.55,13.4,45.48c0.1,0.3,0.1,0.71,0.1,1.22
		c-0.71,0.41-1.42,0.91-2.13,1.22c-5.68,2.49-3.88,7.51-4.67,10.15c-1.64,4.55,0.71,7.48,0.3,15.84c-0.42,8.81-7.54,12.22-0.1,14.01
		c17.63,4.24,24.8-1.12,27.31-1.12c3.51,1.32-0.91,5.68,21.01,5.68c3.2,2.77,15.27-0.34,19.39-1.42c2.21-0.58,2.81-1.1,9.14-5.68
		c0.82-0.6,1.32-1.22,1.32-2.13c0-8.02-1.65-8.41-6.29-9.64c-7.94-2.1-10.44-2.18-12.99-4.97c-5.31-5.81-9.96-8.53-12.28-11.27
		c-1.58-1.86-4.18-1.55-8.12-7.71c-0.1-2.33-1.15-4.46-1.83-6.6c-2.11-6.67-6.76-2.65-8.32-4.67c1.08-5.24-1.76-14.54-1.22-45.48
		c0.66-37.52-3.81-38.1-2.94-44.87c0.77-6.03-1.68-12.84-1.62-16.55c0.46-32.81-5.65-26.72-12.18-39.29
		c-7.43-14.29-7.91-18.54-17.16-31.87c-1.61-2.32-1.9-1.79,7.82-4.57c1.52,1.14,3.25,2.45,4.67,2.13c1.83-0.41,3.74-0.22,5.28-1.32
		c2.27-1.62,18.64-7.53,19.69-8.93c1.69-2.54,9.12-2.53,14.92-6.4c1.62,3.35,4.67,3.25,7.61,3.25c3.45,0,4.87-2.74,6.29-5.48
		c148.09-39.18,135.03-35.94,136.84-35.94c1.68,6.73,0.76,17.08,1.32,26.19c-0.51,0.91-0.91,1.52-1.42,2.23
		c1.02,1.73,0.51,3.96,1.83,5.58c0.61,0.61,1.51,0.32,2.03,1.02c2.17,2.89,5.18,3.96,8.63,3.65c5.16,0-1.47,137.53,3.35,144.35
		c1.32,0.41,2.74,0.3,3.45,1.73c0.91,1.83,2.54,2.09,4.26,2.33c4.89,0.69,4.06-4.38,4.06,14.82c0,158.57-0.09,142.85,0.1,145.87
		c5.7,2.63,3.65,35.82,3.65-551.62C369.49,21.43,369.6,20.99,368.78,20.17z M215.8,199.54c-2.71,3.22-8,5.57-9.8,5.57
		c-0.47-0.94-0.83,0.11-0.67,0.11c0.85,0,0.53-0.15,0.53,0.6c0,0.18-0.54-0.5-0.61-0.6c-0.85-0.12-2.15,1.44-2.15-0.43
		c0-0.06,0-0.13,0.02-0.18c2.03-7.11,2.44-14.52,4.16-21.52c2.13-0.95,3,3.54,9.14,3.76C219.3,191.08,218.9,195.85,215.8,199.54z
		 M240.16,163.6c0.41-1.62,0.81-2.44,1.62-3.05C241.69,161.98,241.69,161.98,240.16,163.6z M245.34,157.82
		c-0.29,0-0.42-0.09-0.2-0.3C245.53,157.51,245.48,157.82,245.34,157.82z M243.18,102.16c1.03,0.52,1.53,2.09-1.04-0.35
		C242.51,101.9,242.86,102,243.18,102.16z M240.66,104.3c0.03-0.2,0.05-0.45,0.11-0.79c4.47,3.25,6.41,7.97,8.63,12.99
		c-2.74-2.03-2.75-2.03-3.76-3.86C240.02,102.42,240.51,105.29,240.66,104.3z M232.52,97.23c-0.34,0.06-0.59,0.03-0.68-0.32
		C232.22,96.73,232.41,96.96,232.52,97.23z M232.25,101.95c-0.45-0.14-0.61-0.38-1.54-1.31
		C231.03,100.65,231.95,101.58,232.25,101.95z M228.38,98.31c0,0.25,0.11,0.04,0.39,0.24c0.13,0.1,0.45,0.74-0.2,0.06
		c-0.35-0.37-0.43-0.23-0.63-0.5C227.4,97.4,228.32,97.52,228.38,98.31z M227.68,97.59c0.29,0-0.7,0.31-2.64-1.9
		C225.71,94.46,227.27,94.31,227.68,97.59z M202.3,94.78c-0.14,0.36-0.34,0.67-0.55,0.99C201.84,95.4,202.02,95.06,202.3,94.78z
		 M202.31,99.17c0.05,0.34,0.18,1.36-0.63,1.36C201.59,99.86,201.67,99.39,202.31,99.17z M201.68,102.67
		c1.38-0.21,2.58-5.8,8.74-11.15c0.59-0.59,0.77-1.14,0.51-1.06c-3.56,0.79-8.49,9.63-8.49,8.48c0.29-2.54,3.62-7.65,5.64-9.94
		c2.63-2.98,6.95-4.78,8.22-4.78c2.82,1.01,3.69,3.1,4.23,3.28c0.27,0.11,0.62,0.36,0.62,0.66c-0.93-0.93-1.01-0.54-1.24-1.13
		c-0.11-0.34,0.1-0.13-1.49-0.09c0-0.01-0.01-0.04,0.01-0.08l-0.1,0.1c0.07,0,0.09,0,0.09-0.02c-0.31,1.38,3.63,2.5,2.66,6
		c-1.21-0.74-1.25-2.59-2.59-3.08c0.38,1.06,0.67,2.13,1.06,3.38c-1.12,1.12-2.54,1.52-4.06,1.52c0.59-0.59-1.51,1.25-6.29,4.67
		c-3.53,2.82-2.08,2.18-6.29,6.9c-7.56,8.47-3.99,6.59-5.57,7.26c0-1.77,0.08-1.86,2.27-8.4
		C200.83,101.56,201.68,98.7,201.68,102.67z M194.99,127.26c-0.85-0.5-0.8-1.01-0.51-1.73c0.51-1.02,0.41-2.23,1.42-2.84
		c0.83,0.42-0.03,1.19,0.41,1.62c0.91,0.41,1.02-0.81,1.73-0.91c0.89,0,1.23,0.64,1.32,1.52
		C197.73,125.43,195.8,125.54,194.99,127.26z M198.44,128.68c-0.1,0.03-0.98,0.26-0.98,0.16
		C197.59,128.26,198.01,128.34,198.44,128.68z M196.62,129.7c0-0.38,0.26-0.61,0.42-0.65C197.35,128.97,197.13,128.94,196.62,129.7z
		 M197.24,113.82c0.1-0.1,0.19,0.94-0.32,1.36C196.66,114.62,196.71,114.14,197.24,113.82z M186.16,141.07
		c9.03-18.86,4.12-25.91,13.91-42.94c0.36-0.62,0.57-1.44,1.34-1.74c-11.73,29.65-5.44,25.49-12.11,42.24
		c-1.4,3.52-1.42,2.47-3.35,3.76C185.55,141.88,185.96,141.48,186.16,141.07z M114.32,208.64c9.59,2.21,6.59,0.89,9.54,3.45
		c3.34,2.9,13.11,2.68,17.87,1.02c12.06-4.22,22.74-22.89,22.74-28.63c0-2.13,0.91-4.26,1.42-6.09c0-18.7-8.45-22.1-3.79-22.1
		c5.08,0,5.53-0.46,5.87,1.43c0.88,2.63,1.98,13.19,0.32,21.31c-1.05,5.17-3.79,11.14-6.19,15.84
		c-5.86,11.44-11.17,32.17,1.12,36.04c-9.73-10.9-2.85-23.37-1.12-31.16c0.59-2.68,6.15-10.4,8.18-18.77
		c1.2-4.93,0.79-5.88,1.46-10.26c0.55-0.82,2.08-2.13,2.84-3.86c-0.83-0.42-1.7,0.73-2.44,0.91c-1.47-0.42,0.05-1.02-2.54-11.37
		c-1.17-2.33,8.93-1.05,14.41-6.8c8.45-8.85,6.76-6.71,8.32-10.15c1.96,0,0.56,2.56,3.65,7.21c0.41,1.32-0.91,2.54,0,3.96
		c0.84-0.49,1.12-1.26,1.35-2.04c0.73-2.48,2.42-1.84,2.42-3.54c-0.41-1.12-1.72-0.42-2.33-0.91c-1.7-1.36-1.42-3.35-2.23-4.97
		c-1.27-2.54-3.11-6.13-0.1-7.31c0.3,0.51,0.61,1.02,0.91,1.52c1.02-0.51,1.52-1.62,2.64-1.93c0,1.39,1.87,0.76,2.23,2.74
		c-0.79,0.98-2.09,1.77-1.97,3.14c0.1,1.18-1.54,1.78-2.09,2.65c-0.36,0.57-0.02,1.15,0.41,2.03c1.02,0.41,2.03-0.2,3.15-0.2
		c1.98-1.98-0.1-3.97,0.3-4.77c0.65-1.52,2.94-0.61,2.66-1.95c-0.75-3.64-3.97-6.92-3.4-7.21c0.28-0.19,0.65-0.21,1.15,0.12
		c1.22,2.44,3.1,4.67,3.35,7.92c0.14,1.88,2.16,4.24,4.67,4.06c5.6-4.48,8.76-2.81,7.52-3.8c-1.89-1.51-2.94-0.64-7.12-2.09
		c-1.21-0.42-2.44-1.02-3.65-1.42c-6-12.66-3.31-3.65-7.61-12.49c-1.67-3.42-0.1-3.37,0.61-4.77c0.3-0.81,0.2-1.73,0.91-2.33
		c0.82-0.27,0.96,0.14,0.9-0.34c0-0.5-0.14-1.13,0.52-1.59c1.55,0.22-1.17-0.41,7.82,10.46c1.2,1.79,0.95-0.31,5.25,5.66
		c0.51,0.71-0.34,0.56,0.2,1.44c0.57,0.93-0.01-1.23,0.35-0.88c4.44,3.38,2.63,3.16,3.96,4.44c-0.41,0.51-0.61,0.2-0.71-0.2
		c-1.44,0-4.73-5.82-3.05-1.32c-1.27,1.59-9.19-4.76-13.7-11.98c-0.29-0.47-0.74-0.86-1.14-1.24c-0.22,2.21,6.13,9.98,10.07,12.51
		c0.14,0.14,0.31,0.43,0.41,0.61c-1.37,0.63-2.49-1-3.65-0.61c1.22,3.35,8.93,5.18,12.99,3.96c1.22,0.1,1.73,1.83,3.25,1.42
		c0.4-0.91-0.7-1.02-1.02-1.52c-7.1-11.28-4.14-6.67-7-10.96c-1.4,0.94,1.72,6.78-8.73-12.38c-0.97,0.97,0.23,1.56,1.51,6.39
		c-3.02-2.89-5.13-7.81-5.04-8.1c0.71-1.57,1.91-2.38,2.8-3.27c1.89,0.32,1.67,3.37,3.15,3.63c0.14-1.82-1.94-3.7-1.41-5.18
		c0.39-1.08,1.47-1.38,1.82-0.69c1.3,3.79,3.09,7.28,6.03,10.09c-1.23-5.52-6.4-12.29-3.2-13.34c1.16,0,0.95,1.46,1.81,1.78
		c-0.39-3.66-0.95-1.92,1.44-4.31c3.18-3.18,5.26,0.39,5.26-1.13c0.27-0.94,1.27-0.8,2.25-0.8c16.41,14.67,13.64,15.53,17.04,17.98
		c-0.12-3.53-6.89-9.95-7.11-11.02c2.74,1.37,5.21,3.79,7.74,5.63c0-2.92-7.97-9.91-7.91-10.86c3.83-0.35,9.33,9.12,8.85,11.17
		c0,0.07-0.12,0.33-0.31,0.49c6.07,6.99,5.41,14.5,8.32,16.24c1.29,4.73-1.28,12.25,2.94,8.63c0.9-3.59,1.65-6.62,0.91-14.02
		c-0.73,1.37-0.7,1.32-0.91,2.84c-0.51-0.3-0.8-0.91-0.81-1.52c-0.05-2.5-2.19-10.93-5.99-15.73c-0.31-0.4-0.81-0.81-0.81-1.52
		c-0.47,0-0.75-0.27-0.71-0.71c1.06,0,0.39,0.53,1.28,0.93c5.57,2.55,5.62,6,8.87,13.58c1.78,4.14,1.14,6.92-0.1,15.02
		c0,0.41-0.2,0.91,0.2,1.32c1-0.69,1.02-0.73,2.03-5.18c3.01,10.55-2.98,12.44-6.43,25.44c-0.52,1.95-6.82-0.37-10.22,6.13
		c-6.81,12.99,0.15,14.14-8.12,12.49c-1.32-1.73-3.76-2.44-4.26-4.87c-3.61,0.88,1.74,4.16,2.74,5.89c-0.5,1.12-1.77,1.96-2.84,2.54
		c-8.11-4.05-0.53,0.84-9.54-4.57c-2.29,1.72-0.4,2.04,6.8,5.79c0.35,5.53-5.52,0.06-6.9-0.51c-0.5,0.5-0.74,0.72-0.1,1.32
		c2.71,2.54,3.99,2.67,3.1,3.56c-0.31,0.31-0.71,0.51-0.87,0.9c-1.73,5.29-13.95-2.06-16.04-5.68c-2.57-4.46-5.85-12.86-6.8-13.4
		c-1.09,4.37,0.48,5.9,4.37,11.98c0.78,1.22,1.58,1.78,0.45,2.67c-2.47,1.93-11.61,3.2-10.39,6.77c0.73-0.37,1.12-0.76,0.9-1.71
		c3.06-1.53,7.89-1.75,9.45-1.23c-0.08,2.83-0.37,4.04-1.49,5.43c-1.2,1.47-0.81,0.92-0.73,0.56c-4.49-1.5-13.4,1.72-11.27,3.86
		c1.02,0,1.42-1.42,2.64-1.42c2.22,0,4.74-0.48,6.7-1.02c2.49-0.68,1.21-1.63,2.54-0.3c0.41,4.47-7.2,30.78-8.83,35.83
		c-0.88,2.72-2.75,3.51-7.61,6.29c-2.53,1.45-5.47,1.73-8.22,2.23c-0.83-0.3-2.68-1.11-3.76-1.52c2-8.93,4.15-5.96,1.93-7.41
		c-0.76-0.95,0.52-2.36-0.8-3.04c0.1,0-2.5,7.39-2.54,7.49c-1.76,4.49-2.19,2.24-3.97,2.24c-0.87,0-1.76,0.1-2.54,0.1
		c2.62,2.81,4.94,1.94,11.57,2.84c6.2,0.84,9.75-1.39,13.7-3.15c9.7-12.68,11.91-35.86,14.41-49.64c1.1-1.37,2.53-1.06,1.42,3.25
		c-0.97,3.77-1.45,7.61-2.13,11.37c-1.74,9.67-4.34,16.31-5.48,28.83c-1.08,11.85-8.98,25.03-23.04,28.73
		c-4.07,0.81-13.9,0.65-18.07-0.91c-1.32,0.51-2.94,0.61-4.47,0.61c-5.48,0-13.28,1.88-21.72-4.37c-1.75-1.06-1.58-0.93-1.61,0.42
		c0,0.19-0.06,0.16,0.08,0.29c-9.62-3.21-13.33-11.83-18.06-20.71c-0.16-0.29-5.34-15.16-5.79-17.66
		C107.82,210.27,111.48,210.47,114.32,208.64z M207.68,137.01c0.51,0.3,1.02,0.51,1.52,0.71
		C208.42,138.19,208.42,138.26,207.68,137.01z M214.73,124.55c0.08,0.03,0.16,0.07,0.16,0.07
		C214.89,124.79,214.82,124.8,214.73,124.55z M249.91,117.92c0.03,0,0.08,0,0.1,0C249.88,118.19,249.91,118.19,249.91,117.92z
		 M128.43,249.96c0.05,0.04,0.11,0.1,0.2,0.2C128.39,250.16,128.43,250.21,128.43,249.96z M103.02,253.44
		c-1.66-1-19.64-16.92-22.62-23.92c-9.07-21.29-8.16-15.24-4.18-18.41c8.53,1.52,17.16,1.02,25.99,0.41
		c2.79,5.62,1.65,5.38,2.87,10.62c2.19,9.34,14.1,30.29,23.32,28.67c0-0.07,0-0.13,0-0.2c0.53,0.13,0.38-0.23,0.52-0.09
		c0.76,0.76,3.92,2.97,6.49,4.25c-0.35,2.1-12.49,1.17-14.62,0.91C113.5,254.78,110.21,253.44,103.02,253.44z M106.5,256.16
		c0.23,0.23,3.73,1.73,5.57,6.23C112.65,263.55,106.98,260.27,106.5,256.16z M113.68,263.99c-0.51,0.01-0.71-0.19-0.71-0.7
		c-0.5,0-0.79-0.2-0.71-0.68c0.4,0.1,0.65,0.27,0.69,0.59c0.05,0.15,0.69-0.03,0.8,0.7c0,0.34,0.73,0.18,1.08,0.57
		c0.14,0.14,0.26,0.74,0.26,1.04C114.37,265.02,113.89,264.82,113.68,263.99z M124.54,274.66c-0.61,0.1-0.91,0.3-1.02,0.2
		C121.84,273.82,110.54,260.02,124.54,274.66z M95.1,282.37c0.61,1.02,1.42,2.03,2.54,3.65c-0.81-5.64-3.79-3.63,14.41-6.8
		c1.12,1.02,0.81,2.54,2.03,3.35c-11.66,3.21-13.39,2.72-19.96,4.8c-3.66,1.16-4.42,1.93-5.99,1.94c-1.45,0.01-0.61-1.62-0.95-2.48
		c-0.29-0.72-0.51-1.52-0.81-2.33C88.91,283.18,92.06,282.37,95.1,282.37z M117.03,289.07c0.21,1.14-0.1,2.02-0.61,3.05
		c-1.12,0.61-2.13,0.3-3.05,0c-1.02-0.71-0.2-1.73-0.61-2.44c-1.85-4.33-1.35-1.79-5.28-0.81c0.61,1.62,2.13,0.91,3.25,1.62
		c0.1,0.87-0.3,1.64-1.03,2.33c-0.93,0.9-3.06,0.34-4.25,0c0-0.61,0-1.22,0-1.73c-0.69,0.05-1.66-0.05-3.15,1.93
		c-4.39,1.32-4.02-0.72-2.54-4.67c2.69,0,16.7-4.38,25.48-5.18c-0.46,1.62-1.48,2.31-3.15,2.54c-5.48,0.39-3.43-1.03-7.39,2.04
		C114.4,288.01,116.29,288.91,117.03,289.07z M96.22,293.13c-0.41-0.41-0.91-0.61-0.81-1.32C96.59,291.72,96.14,292.55,96.22,293.13
		z M91.14,279.83c-1.93,0.86-3.83,1.27-5.89,1.62c-1.26-0.25-1.09-0.5-4.73-7.73c-0.05-0.16,5.04-1.86,7.37-2.32
		C89.65,274.04,90.44,276.69,91.14,279.83z M85.16,289.68c-3.87-2.49-3.29-4.67-1.73-4.67C85.42,286.79,85.32,286.75,85.16,289.68z
		 M51.96,233.24c4.05,4.54,3.79,7.1,14.82,15.13c-1.12,0.41-1.93-0.2-2.64-0.71c-25.57-8.52-36-24.28-27.1-34.41
		C38.63,214.04,40.91,220.85,51.96,233.24z M50.33,244.26c-0.43-0.08-0.8-0.21-1.13-0.56C49.62,243.74,50.05,243.86,50.33,244.26z
		 M108.5,479.81c4.95,10.73,1.43,1.2,6.4,11.67c-0.58,1.45-10.06,0.9-13.81,7.51c0.28,0.49,0.67,0.35,1.12,0.1
		c5.15-2.82,12.03-4.67,13.91-4.67c0.81,0.51,1.22,1.12,1.02,2.33c-5.27,1.51-13.49,2.84-11.78,7.41c4.13-2.72,8.98-3.39,13.5-4.84
		c0.62-0.2,2.45,2.19,2.84,2.71c-4.53,0.91-8.79,0.72-9.85,4.87c-0.11,0.44-0.06,0.71,0.41,1.12c4.23-2.94,10.42-1.96,11.88-4.06
		c2.7,0.9,10.09,10.42,10.35,10.56c3.96,2.54,7.41,5.89,11.67,7.71c2.95,5.17-5.34,0.55-8.53,7.51c1.67,0.5,3.67-2.84,7.82-2.84
		c-0.51,1.73-0.72,2.22-2.03,2.94c-10.8,5.97-16.09,6.59-28.32,7.82c-3.02,0,0.44,0.53-13.91-2.13c-1.92-0.36-3.36-3.48-8.32-4.16
		c-1.72,0.96-1.99,1.87-6.19,1.42c-1.21-0.13-9.49-1.27-11.17-1.8c-2.95-0.92-6.44-3.93-6.09-6.93c0.61-1.42,2.23-1.32,2.74-2.64
		s1.11-2.74,1.22-4.16c0.32-4.13,3.32-3.65,3.05-10.25c-0.05-0.44-0.4-4.3,0.41-6.09c2.29-5.1-1.5-12.32,4.26-11.27
		c0,1.72-2.59,2.2-0.2,6.8c2.52,4.85,6.23,1.92,13.7-4.06C100.73,482.29,94.39,483.34,108.5,479.81z M107.08,343.99
		c1.39,3.18,2.5,6.04,1.52,9.14c-4.05,12.88-6.9,22.96-6.9,34.01c0,5.05-1.52,9.39-1.52,16.55c0,24.69-4.15,60.47,1.83,75.42
		c-2.64,2.33-2.64,2.33-5.18,2.94c-1.22,2.54-2.54,5.08-3.05,8.12c-8.48,7.31-9.43,7.91-11.27,4.67c-0.07-0.1-1.6-1.74-0.73-1.9
		c0.52-0.09,0.88,0.83,1.34,0.48c2.22-7.46,0.4-14.32-0.08-14.15c-0.13,0.05-0.56,0.22-0.7,0.13c-0.35-0.22-11.04-43.12-13.13-53.18
		c-1.69-8.16-2.34-5.36-2.84-8.93c-2.07-14.88-0.41-23.08,3.45-31.67c6.84-15.22,10.11-25.91-1.42-38.27
		c-4.3-4.6-6.98-9.84-13.7-15.43c-5.86-4.88-11.05-15.07-21.32-28.02c-4.76-5.99-4.95-11.19-12.59-19.9
		c-2.69-3.07-3.27-2.37-9.14-9.34c-2.09-3.04,4.36,1.18,10.66,0c-4.79-1.33-9-1.81-12.79-3.76c-4.22-5.34-11.79-27.54-3.15-40.81
		c4.34-6.67,18.36-18.47,28.07-20.58c0.39-0.09,1.24,0.46,1.57,1.8c-3.99,6.66-6.34,11.15-1.83,18.48
		c5.31,8.61,11.5,8.89,14.67,13.68c-0.78-0.1-14.79-7.38-14.1-6.23c0.46,0.9-0.51,0.45,14.15,7.79c0.68,0.39,1.37,0.87,2.24,0.82
		c0.37,0.6,0.82,1.52,0.71,1.41l0.02,0.02c0,0.03,0.02,0.03,0.02,0.07l0.03-0.01l0.02,0.02c-0.02,0-0.03,0-0.04,0l-0.01-0.01
		c-1.97,0-6.42-2.98-6.42-2.11c0.11,0.82,0.83,0.93,1.4,1.22c3.36,1.71,6.61,3.43,9.95,5.08c8.86,4.36,8.82,3.02,6.5,1.62
		c-1.13-0.56-9.7-4.35-11.38-5.82c1.07-0.36,1.07-0.04,0.74-1.39c0-0.15,0.07-0.1-1.44-0.1c0-0.64-0.03-0.86,0.06-0.59
		c0.06,0.17,0.47,0.08,0.92,0.16c0.34,0.06,0.56,0.29,0.64,0.63c1.93-0.24,11.43,4.87,16.44,4.97c1.3,0.03,2.56,0.47,3.65,1.42
		c5.22,4.51,7.8,5.88,9.34,9.75c2.31,5.79,3.56,1.68,5.28,7.41c-0.1,0.2-0.2,0.61-0.41,0.61c-11.61,2.23-4.67,2.21-15.35-7.34
		c0,1.14,0.83,1.66,0.74,2.57c-0.32,1.11-2.54,0.87-3.86,1.62c-3.86,1.93-8.01,2.76-12.08,3.86c-3.93,1.06-10.32,4.13-14.21,4.06
		c-4.9-0.08-9.62,0.22-14.11,0.41c18.24,3.47,19.26,0.18,45.39-8.53c2.74,5.48,6.5,10.15,9.64,15.53c-1.12,0.91-2.78,1.11-3.15,2.74
		c-0.8,3.55,0.77,6.15,5.79,6.29c3.08,7.5,7.46,15.08,13.2,28.12C100.48,322.47,101.45,331.08,107.08,343.99z M156.42,328.36
		c2.07,3.7,3.53-0.74,5.99,16.55c1.72,12.1-1.21,17.27,0.51,22.43c0.51,1.52,0.28,3.14,0,4.67c-0.11,0.61-0.81,0.51-1.12,0.91
		c-0.35,0.71-0.13,1.9,0.1,2.13c0.51,0.46,1.56-0.83,1.79,0.6c7.68,48.5-0.58,55.65,3.59,74.82c0.22,1.01,0.12,2.13,0.1,3.25
		c-0.12,9.3,3.33,11.86,1.02,12.79c-4.85,2.49-6.06,6.21-7.21,9.64c-3.45,4.57-7.92,5.68-12.49,2.54c-0.1,0.3-0.3,0.71-0.3,1.02
		c0,0.24,0.1,1.5,0.32,1.55c2.35,0.76,7.49,1.13,9.12,0.07c9.43-6.16,3.83-5.68,11.88-12.99c1.83-0.41,3.76-0.51,5.79-0.2
		c1.51,3.33,1.88,7.12,3.97,10.15c-1.14,1.14-1.84,0.75-2.94,1.22c-2.26,0.97-5.77,3.29-4.67,5.28c1.73,0,6.32-2.78,9.64-3.35
		c0.83,0.12,1.69,1.39,1.56,1.65c-0.46,0.97,0.06,0.15-3.29,1.49c-2.76,0.92-4.18,3.38-3.43,3.76c0.96,0.48,1.52-0.07,9.52-1.93
		c1.59-0.37,2,1.03,1.9,1.03c-4.54,1.72-4.55,1.72-5.76,3.75c0.41,1.56,4.13,0.53,5.68,0.1c2.4-0.67,3.77-2.1,4.77-0.1
		c-0.1,0.17-0.08,0.5-0.3,0.61c-1.41,0.73-2.94,1.52-4.16,2.74c5.11,2.24,8.06-2.15,9.11,1.15c-1.67,0.28-3.33,1.03-4.74,2
		c0.79,1.15,1.71,1.02,2.94,1.02c2.84,0,2.38-2.39,2.64-2.13c1.05,0.22,1.9,1.2,2.44,1.52c7.14,4.23,9.47,2.51,15.33,5.08
		c0.41,0.1,0.61,0.41,0.61,1.02c-4.54,1.28-5.99,3.71-7.51,5.99c0.38,0.19,1.08-0.04,1.32-1.13c2.23-1.49,6.2-5.97,7.45-2.21
		c0.23,0.7,0.33,1.45,0.57,2.21c-7.06,5.83-10.86,9.21-26.49,7.82c-8.06-0.72-10.9,0.46-17.66-2.44c-5.02-6.94-6.98-2.39-9.34-1.73
		c-4.46,1.25-5.79,0.6-19.39-0.71c-9.58-0.93,1.9-6.03-1.42-20c-0.29-1.22-0.4-2.33,0-3.55c0.62-1.92,0.25-4.06,0.3-6.09
		c0.11-4.2-0.13-4.85,2.64-5.89c3.45-1.73,2.72,0.91,4.16,1.62c0.71-0.81,0.81-1.83,0.61-2.74c-0.39-2.69,0.67-5.6-0.2-8.22
		c-0.91,0.2-0.41,1.12-0.71,1.22c-1.1,0.83-0.44-1.38-2.66-8.69c-1.53-5.04-0.99,2.21-5.16-19.12c-1.64-8.38-3.58-7.57-10.66-27.71
		c-3.42-9.74-3.24-30.99-1.02-37.66c3.36-8.1,1.56-14.53,2.64-17.76c-0.26,0.26,0.11-0.08-0.29-1.46
		c-2.27-7.7-20.01-20.7-26.2-25.84c-7.26-6.04-2.91,1.03-6.78-10.65c-0.66-2-1.18-1.82-1.64-3c-0.49-1.23-0.74-3.12-2.79-8.38
		c-6.97-17.92-10.95-15.59-4.11-16.64c1.02,1.22,2.03,2.54,2.74,3.35c4.26,0.61,5.08,0.51,9.03-0.71c2.94,1.42,5.89,2.03,8.53-0.51
		c5.8,1.58,4.7,1.05,7.51-6.6c4.36,1.09,3.8,0.71,3.62,1.34c-1.54,5.37-3.58,3.89-4.74,5.06c0,0.61,0.33,0.89,0.91,1.02
		c3.73,0.53,4.02-1.99,7.11-7.82c1.62-1.02,3.35-1.02,5.28-0.81C137.44,292.95,148.67,314.49,156.42,328.36z M128.3,284
		c-0.24,0-0.34-0.35-0.51-0.41c1.93-1.32,3.45-1.52,8.83-1.22C133.68,283.79,130.94,283.59,128.3,284z M139.06,280.04
		c-25.98,0-23.55,6-23.55-1.83c10.07-1.31-1.46-0.11,22.33-1.02c6.08-0.23,6.04-1.69,6.8,1.73
		C142.81,279.63,140.99,280.04,139.06,280.04z M142.51,273.84c0.47-0.94,1.31-1.46,2.31-1.79
		C144.75,273.24,143.44,275.03,142.51,273.84z M145.45,271.79c-1.19,0.86,0.27-1.7,1.55-1.12c0.1,0-0.12,0.91-1.46,0.53
		C145.66,271.52,145.6,271.69,145.45,271.79z M150.03,272.02c4.03,0.7,6.95,1.24,10.14,1.73c-4.14,2.38-7.83,5.17-12.65,4.87
		c-0.59,0-1.41-3.65-1.45-3.76C146.78,272.73,148.71,272.83,150.03,272.02z M151.85,280.65c-5.08,2.18-4.16,2.54-5.89,0.81
		c0.67-0.67-1.05-0.31,3.58-0.95c1.29-0.18,3.32-0.45,3.42-0.47C152.77,280.49,152.34,280.65,151.85,280.65z M158.24,278.31
		c-0.51,0.3-1.12,0.2-1.73,0.2c-0.2,0.41-0.41,0.71-0.91,0.3c1.79-0.57-0.17,0.06,2.63-1.52c6.55-3.71,2.97-2.94,7.82-2.94
		C165.8,274.91,166.44,274.71,158.24,278.31z M168.7,271.81c-1.12,0.3-2.44,0.4-3.55,0.2c-4.77-0.84-9.75-0.91-14.41-2.03
		c-1.4-0.1-2.3,0.97-3.59,0.62c1.14-2.08,11.68-1.72,12.74-1.53c1.63,0.28,3.25,0.91,4.97,1.22c0.71-0.1,1.52-0.5,2.33-0.41
		C170.64,270.28,183.13,267.96,168.7,271.81z M177.53,268.77c-0.22-0.22-0.08,0,0.41,0C177.73,268.77,177.63,268.77,177.53,268.77z
		 M180.58,268.06c-0.27-0.14-0.27-0.1,0-0.1C180.58,267.99,180.58,268.04,180.58,268.06z M183.11,267.35c-0.27-0.14-0.27-0.1,0-0.1
		V267.35z M184.84,266.54c0.1,0,0.2,0.1,0.3,0.1C184.8,266.98,184.61,266.31,184.84,266.54z M195.3,266.23
		c-0.61,0.61-0.61,0.61-2.03,0.3C193.91,264.61,196.3,264.89,195.3,266.23z M344.82,262.78c-1.8-1.8-2.23-4.46-3.35-6.5
		c1.15-28.28-1.9-40.45-1.9-53.64c0-2.12,0.48-2.29,0.48-2.7c-1.22-4.26,1.1-8.32,0.41-12.59c-0.6-3.68,6.87-8.97,10.25-10.56
		c8.11,3.48,15.13-2.44,15.13,1.52c0,103.21,0.59,85.27-1.73,85.27c-2.27-0.38-6.63,0.03-8.73,0.41
		C350.21,264.93,350.2,264.91,344.82,262.78z M365.43,412.51c-9.15,0-7.24,4.85-7.62-27.41c0-0.11-2.82-106.3,0.1-114
		c-0.51-0.81-1.12-1.73-1.52-2.64c1.51-2.6,5.44,1.49,9.02,1.32C366.17,270.54,366.41,411.53,365.43,412.51z"/> <path d="M218.44,89.7l-0.1,0.1C218.54,89.87,218.53,89.97,218.44,89.7z"/> <path d="M200.07,117.41c0.12,0.12,0.07,0.11,0.1-0.1L200.07,117.41z"/> <path d="M128.4,248.47l-0.1,0.1C128.38,248.57,128.4,248.62,128.4,248.47z"/> <path d="M115.41,167.36c0.05,0.05,0.03,0.03,0.1,0.1C115.57,167.34,115.71,167.4,115.41,167.36z"/> <path d="M395.99,20.57c-0.98,1.14-0.81,556.14-0.1,557.2c1.02,0.3,2.03,0.51,3.15-0.3C399.03-18.28,400.92,19.48,395.99,20.57z"/> <path d="M899.79,24.23c-0.48-0.95-2.56-1.1-3.45-0.2c0,585.85-2.27,557.03,3.55,553.44C899.89,437.05,900.19,25.44,899.79,24.23z"/> <path d="M388.47,20.67c-0.41,1.22-0.2,2.54-0.2,3.86c0,1250.56,5.09,0.28,2.33-3.86C389.89,19.96,389.29,20.17,388.47,20.67z"/> <path d="M889.23,24.23c0,591.35-1.51,555.26,2.54,553.24C891.77-4.24,893.09,19.26,889.23,24.23z"/> <path d="M880.91,456.77c-1.62-0.71-2.33,0.41-3.76,1.52c1.22,1.42,0.89,3.05,1.02,4.57c0.2,2.41,2.54,3.96,3.65,3.96
		c2.18-0.55-0.22-2.77-0.3-3.65C882.53,461.03,881.31,458.9,880.91,456.77z"/> <path d="M852.08,188.68c-2.4,0.22-1.85,2.5-1.32,4.36c-0.28,0.28-0.73,0.89-1.02,1.73c1.73,1.93,2.64,2.13,5.48,0.61
		C854.56,191.38,855.03,188.41,852.08,188.68z"/> <path d="M379.95,456.77c-1.52-0.51-2.33,0.41-3.65,1.62c1.73,1.73,0.61,3.96,1.22,5.89c0.91,1.02,1.73,2.23,3.15,2.64
		c2.37-0.3,0.35-2.56-0.2-3.55C381.87,461.13,380.45,459,379.95,456.77z"/> <path d="M878.78,264.3c0.29,0.56,1.98,0.97,2.74-1.12c-1.77-4.88-1.37-2.41-0.91-5.58c-0.41-0.41-0.51-0.61-0.41-0.71
		C878.36,255.97,875.81,258.53,878.78,264.3z"/> <path d="M377.92,256.79c-3.59,1.03,0.21,11.97,2.54,6.4c-1.88-4.9-1.18-3.54-0.81-5.38C379.13,256.79,378.52,256.69,377.92,256.79z
		"/> <path d="M378.02,44.94c0.81-0.91,0.1-1.62,0.1-2.23s0.3-1.32,0.51-2.13C373.54,36.62,374.53,47.38,378.02,44.94z"/> <path d="M879.59,44.73c-0.41-1.22-0.79-2.53-0.2-3.65c0.11-0.2-0.1-0.41-0.2-0.71C876.03,36.31,874.1,47.64,879.59,44.73z"/> <path d="M852.99,248.47c1.54-0.89,1.73-1.52,1.02-3.45C848.8,245.93,851.01,249.61,852.99,248.47z"/> <path d="M858.07,192.43c-1.42,1.12-1.52,2.03-0.51,4.37C858.92,196.8,858.84,193.85,858.07,192.43z"/> <path d="M855.12,198.93c-1.18,0.59-1.05,1.32-0.41,1.32C855.43,200.05,855.63,199.54,855.12,198.93z"/> <path d="M114.98,167.44c-0.67-0.09-1.13,0.04-1.3,0.73C114.35,168.17,114.87,168.11,114.98,167.44z"/> <path d="M675.85,224.51l-0.1-0.1C675.81,224.49,675.78,224.47,675.85,224.51z"/> <path d="M700.62,188.17C700.55,188.07,700.45,188,700.62,188.17L700.62,188.17z"/> <path d="M714.53,101.17c0.04-0.04,0.04-0.04,0.1-0.1C714.49,100.93,714.53,100.89,714.53,101.17z"/> <path d="M716.05,122.69l-0.1,0.1C716.03,122.85,716.01,122.89,716.05,122.69z"/> <path d="M717.88,89.5c0.26,0.03,0.31,0.11,0.1-0.1L717.88,89.5z"/> <path d="M71.86,262.68l-0.1,0.1C71.88,262.86,71.82,262.92,71.86,262.68z"/> <path d="M75.31,250.09l-0.1-0.1C75.23,250.03,75.27,250.09,75.31,250.09z"/> <path d="M115,167.36c0,0.07-0.07,0.1,0.1,0.1C115.06,167.42,115.06,167.42,115,167.36z"/> <path d="M240.06,113.66c-0.17-0.12-0.1-0.15-0.1,0.1L240.06,113.66z"/> <path d="M208.9,109.29c0.1-0.1,0.06-0.06,0.1-0.1C208.82,109.19,208.93,109.15,208.9,109.29z"/> <path d="M200.78,112.95c-0.12,0-0.1-0.03-0.1,0.1L200.78,112.95z"/> <path d="M215.4,113.66l0.1-0.1C215.3,113.4,215.3,113.25,215.4,113.66z"/> <path d="M651.33,396.81c1.41,2.77,1.62-4.11-2.36-11.91c-0.85-1.24-1.69-0.19-1.14,1.03C647.84,384.15,651.28,396.71,651.33,396.81
		z"/> <path d="M655.15,338c-1.11,0-1.48,0.66-1.31,1.19C655.03,351.62,658.29,340.36,655.15,338z"/> <path d="M652.51,330.39c-1.42,1.62-2.23,4.47-1.83,6.7C652.2,334.96,653.32,333.13,652.51,330.39z"/> <path d="M651.49,418.6c-0.1,0.36,0.1,0.69,0.1,1.02c0.41-1.22,1.32-2.33,0.71-4.26C652,416.77,651.69,417.69,651.49,418.6z"/> <path d="M652.4,404.49c0.22-1.05,0.6-1.93-0.1-2.84C651.83,402.51,651.76,403.31,652.4,404.49z"/> <path d="M636.97,362.46c0.41-0.71,0.1-1.12-0.51-1.42C636.16,361.75,636.47,362.16,636.97,362.46z"/> <path d="M644.49,342.26c1.5-1.5-1-1.48-0.61-0.3C643.98,342.06,644.18,342.16,644.49,342.26z"/> <path d="M646.52,379.82c0.62-1.25-0.71-1.8-0.71-0.71C645.81,379.55,646.14,379.71,646.52,379.82z"/> <path d="M652.1,397.85c-0.2-0.32,0-0.33,0,1.66C652.64,398.7,652.38,398.29,652.1,397.85z"/> <path d="M653.11,409.16c-0.14,0-0.1-0.06-0.1,0.3C653.27,409.08,653.25,409.16,653.11,409.16z"/> <path d="M651.69,455.96c-0.04-0.13-0.02-0.06-0.1-0.3C651.47,455.91,651.43,455.83,651.69,455.96z"/> <path d="M555.97,326.83c-0.77-0.58-1.39,0.25-1.28,0.36c3.44,4.55,7.19,8.89,11.84,12.44c-0.41-0.49-1.1-1.59-1.42-2.13
		C564.56,336.83,556.87,327.43,555.97,326.83z"/> <path d="M580.15,390.39c-0.83,0.88-1.1,6.06-0.43,8.62C579.75,398.82,582.34,388.05,580.15,390.39z"/> <path d="M598.6,357.19c-1.12,1.73-0.71,2.54,1.83,4.06C600.32,359.49,600.03,358.14,598.6,357.19z"/> <path d="M583.99,473.82c1.42-1.2,1.42-1.34,0.2-4.26C583.66,471.04,583.31,472.42,583.99,473.82z"/> <path d="M599.72,333.94c0,1.62-0.81,3.25-0.51,5.89C599.77,337.98,602.54,333.49,599.72,333.94z"/> <path d="M568.17,341.2c-0.4,0.79,1.38,2.14,2.83,2.6C570.57,342.17,568.88,339.82,568.17,341.2z"/> <path d="M599.72,375.15c-0.2,1.62-0.1,3.15,1.22,4.47C601.14,378,601.24,376.37,599.72,375.15z"/> <path d="M593.53,362.87c-0.61,1.12-0.3,1.93,0.81,2.54C595.12,363.7,595.2,363.71,593.53,362.87z"/> <path d="M598.81,351.5c-0.3,1.52-0.81,2.44,0.1,3.35C599.52,353.94,600.13,353.13,598.81,351.5z"/> <path d="M596.57,368.35c0.2,0.41,0.41,0.81,0.91,0.91C597.28,368.35,597.28,368.35,596.57,368.35z"/> <path d="M579.72,406.93c-0.61,0.41-0.61,0.81-0.1,1.32C580.1,407.77,580.24,407.35,579.72,406.93z"/> <path d="M576.78,351.02c-0.24,0.17,0,0.48,0,0.58C577.31,351.6,577.02,350.86,576.78,351.02z"/> <path d="M581.14,387.23c0.39-0.2,0.41-0.5,0.1-0.81C580.94,386.62,580.84,386.93,581.14,387.23z"/> <path d="M579.72,424.59h0.1C579.82,424.34,579.86,424.32,579.72,424.59z"/> <path d="M597.49,369.37c0.1,0.04,0.05,0.02,0.2,0.1C597.44,369.22,597.49,369.23,597.49,369.37z"/> <path d="M599.65,375.08C599.76,375.19,599.73,375.15,599.65,375.08L599.65,375.08z"/> <path d="M599.62,375.05c-0.1-0.1-0.1-0.1-0.2-0.1c0.07,0,0.16,0.07,0.23,0.13C599.64,375.07,599.63,375.06,599.62,375.05z"/> <path d="M742.24,111.32c-0.07,0.07-0.05,0.05-0.1,0.1C742.23,111.56,742.19,111.54,742.24,111.32z"/> <path d="M738.38,114.47c0.04-0.01,0.07,0.01,0.1,0.01C738.49,114.33,738.51,114.35,738.38,114.47z"/> <path d="M746.91,129.8c0,0.2,0.3,0.3,0.41,0.51c1.53,0,0.9-0.21,1.48,1.33c0.34,0.91,1.35,1.48,1.35,1.21
		c-1.67-16.33-10.9-25.6-7.49-19.08c0.98,1.87,3.86,7.83,3.86,10.05c1.25,0.71,0,2.85,0,0c-1.34-0.27-5.91-9.47-8.03-9.33
		C738.44,116.29,744.5,121.08,746.91,129.8z"/> <path d="M729.25,134.27c-0.41-0.71-1.42-0.91-1.52-1.93c0-0.61,0.71-1.02,0.41-1.73c-10.89-15.73-8.54-13.32-10.15-10.56
		C720.86,127.33,728.45,137.55,729.25,134.27z"/> <path d="M731.64,113.36c0.06,0.18,8.05,9.96,12.53,15.52c0.09,0.18,0.71,0.3,0.81,0.3C744.98,124.7,730.31,110.25,731.64,113.36z"/> <path d="M738.28,154.87c0.99-3.94-5.76-10.31-13.92-7.41c2.07,0.59,3.82,0.85,5.9,1.12C734.14,149.08,733.94,152.18,738.28,154.87z
		"/> <path d="M728.4,114.47c-0.2,0,0.3,1.2,1.56,2.64c9.06,10.31,8.79,10.35,9.03,9.64c0.44-1.25-4.62-5.58-8.12-11.57
		C730.32,114.08,730.15,114.47,728.4,114.47z"/> <path d="M728.34,114.37l-0.1,0.1C728.4,114.47,728.37,114.5,728.34,114.37z"/> <path d="M734.83,155.28c-5.59-1.2-7.02-3.15-8.73-3.15c0.43,1.89,2.21,2.71,2.84,4.16c3.38,1.77,4.86,0.77,6.6-0.1
		C735.24,155.79,735.14,155.38,734.83,155.28z"/> <path d="M689.05,192.23c0.83-0.42,1.52-1.01,2.44-1.22c2.35-0.71,6.64,0.09,9.17-2.48c0.7-0.71-6.63-0.07-6.73-0.06
		c-2.23,0.1-3.86,1.12-5.18,2.84C688.44,191.62,688.54,191.92,689.05,192.23z"/> <path d="M681.13,190.61c1.04-0.24,1.59,0.87,2.39,1.02c1.36,0.25,1.25-2.44-2.98-2.44c-3.01,0-5.93,0-9.44,0.1
		C674.55,191.02,680.14,190.84,681.13,190.61z"/> <path d="M730.67,127.46c-0.71-1.42-6.96-10.79-8.12-10.86c-0.54,0,2.81,6.36,7.51,11.06C730.17,127.77,730.54,127.53,730.67,127.46
		z"/> <path d="M732.13,124.15c0.33,0.24,0.56,0.01,0.77-0.33c-8.5-12-6-9.15-7.51-10.15C725.39,115.21,731.09,123.45,732.13,124.15z"/> <path d="M729.05,114.17l0.1,0.1C729.08,114.14,729.08,114.17,729.05,114.17z"/> <path d="M728.34,113.46l0.1,0.1C728.44,113.51,728.43,113.49,728.34,113.46z"/> <path d="M710.06,110.11c0.2,0.1,0.1,0.12,0.1-0.1C710.13,110.04,710.12,110.05,710.06,110.11z"/> <path d="M712.4,113.55c-2.54-6.56-3.17-1.57,0.01,0.02C712.4,113.56,712.4,113.55,712.4,113.55z"/> <path d="M734.43,110.21c-0.39-0.79-0.95-1.24-1.73-1.62C733.32,110.14,733.33,110.1,734.43,110.21z"/> <path d="M693.52,156.19c-0.67,1.35-0.59,1.25-0.71,2.54C693.62,157.21,693.62,157.21,693.52,156.19z"/> <path d="M688.85,173.96c-0.71,0.51-1.22,0.81-0.81,1.52C688.64,175.28,688.95,174.97,688.85,173.96z"/> <path d="M716.1,112.94c-0.43-0.25-0.15,1.37,1.07,1.84C717.26,113.9,716.85,113.36,716.1,112.94z"/> <path d="M725.19,112.03c0,0.04-0.01,0.06,0.1,0.1C725.26,112.1,725.22,112.07,725.19,112.03z"/> <path d="M724.27,111.73c-0.18,1.62,1.23,1.9,1.11,1.78C725.06,112.17,725.64,112.07,724.27,111.73z"/> <path d="M700.83,116.51c0-0.25,0,0.03-0.16-0.05c0.02,0.01,0.04,0.03,0.07,0.03l-0.01,0.01
		C700.82,116.57,700.83,116.65,700.83,116.51z"/> <path d="M715.95,129.48c0-1.69,0.16-1.41-0.6-1.41c-0.15,0-0.11,0.12-0.11-0.71C714.76,127.84,715.95,130.1,715.95,129.48z"/> <path d="M724.26,105.75c0.03,0.03,0.28,0.34,0.28,0.37C724.55,105.93,724.49,105.75,724.26,105.75z"/> <path d="M724.68,106.35c-0.04-0.08-0.08-0.16-0.13-0.23C724.55,106.22,724.56,106.31,724.68,106.35z"/> <path d="M715.85,104.32c0.1,0.2,0.3,0.3,0.41,0.51C716.26,104.62,716.05,104.42,715.85,104.32z"/> <path d="M701.49,112.26c-0.02-0.08-0.04-0.14-0.05-0.22C701.32,112.15,701.29,112.1,701.49,112.26z"/> <path d="M702.25,113.46c-0.64-1.27-0.39-0.85-0.75-1.21C701.5,112.87,702.08,113.36,702.25,113.46z"/> <path d="M702.15,113.66c0.44,0.87,0.68,1.39,0.71,1.42c-0.02-0.01-0.04,0-0.1,0l0.2,0.1c-0.07-0.07-0.08-0.09-0.11-0.1
		c0.03,0.03-0.17-0.43-0.61-1.53L702.15,113.66z"/> <path d="M712.59,113.88c-0.64-0.64-0.2,0.64,0.32,1.11C712.92,114.6,712.94,114.23,712.59,113.88z"/> <path d="M713.01,115.08c-0.15-0.15-0.07-0.1-0.1,0.1L713.01,115.08z"/> <path d="M742.04,115.42c0-0.51-0.18-0.92-0.7-1.05C742.07,115.36,742.04,115.92,742.04,115.42z"/> <path d="M742.04,115.89l0.1-0.1C742.02,115.61,742.04,115.46,742.04,115.89z"/> <path d="M728.43,113.5c0.86,0.32,0.06,0.67,1.31,0.67c0,0,0,0-0.01,0c0.01,0.03,0.02,0.07,0.03,0.1c0.12-0.12,0.14-0.1-0.02-0.1
		c-0.72-2.98-3.87-6.49-3.62-5.49C726.18,110.39,728.37,111.8,728.43,113.5z"/> <path d="M726.09,108.53c0-0.57-0.14-1.04-0.63-1.32C725.31,107.16,725.29,108.17,726.09,108.53z"/> <path d="M721.9,115.24c0.46,1.11,0.66,1.74,0.52,1.05C722.36,115.89,722.19,115.54,721.9,115.24
		C721.9,115.25,721.91,115.25,721.9,115.24c-0.02-0.05-0.04-0.1-0.06-0.16C721.7,115.08,721.7,115.04,721.9,115.24z"/> <path d="M715.85,104.32l0.1-0.1C715.82,104.13,715.75,103.91,715.85,104.32z"/> <path d="M715.6,103.27c-0.09-0.19-0.22-0.37-0.46-0.48C715.92,104.7,715.96,104.04,715.6,103.27z"/> <path d="M714.83,101.55c-0.65-0.67-0.16,0.89,0.41,1.15C715.16,102.31,715.15,101.87,714.83,101.55z"/> <path d="M714.53,101.17l-0.1,0.1C714.59,101.36,714.53,101.38,714.53,101.17z"/> <path d="M692.7,158.63c-0.53,0.21-0.7,0.44-0.2,1.02C692.6,159.24,692.6,158.93,692.7,158.63z"/> <path d="M737.47,113.35c0.1,0.1,0.2,0.1,0.3,0.2C737.67,113.35,737.57,113.25,737.47,113.35z"/> <path d="M726.81,112.95c0.3,0.2,0.51,0.51,0.81,0.61C726.8,112.73,726.95,112.81,726.81,112.95z"/> <path d="M726.12,112.12c-0.1,0.1,0.69,0.66,0.79,0.73C726.84,112.73,726.28,111.96,726.12,112.12z"/> <path d="M725.56,112.03c0.24,0,0.52,0,0.74,0C726,112.03,725.76,111.97,725.56,112.03z"/> <path d="M725.29,112.03l0.1,0.1C725.53,112,725.74,112.03,725.29,112.03z"/> <path d="M742.24,111.32c-0.04,0-0.07,0-0.11,0C741.93,111.32,742.15,111.42,742.24,111.32z"/> <path d="M732.7,108.58c0.04-0.04,0.07-0.07,0.1-0.1C731.97,107.94,731.52,107.4,732.7,108.58z"/> <path d="M741.48,107.2c-0.15-0.15-0.22-0.21-0.05-0.04C742.39,108.12,742.33,108.06,741.48,107.2z"/> <path d="M731.38,107.06c-0.04,0.04-0.07,0.07-0.1,0.1C731.43,107.32,732.81,108.49,731.38,107.06z"/> <path d="M718.89,117.92l-0.2-0.1C718.82,118.08,718.76,118.05,718.89,117.92z"/> <path d="M742.04,115.89c0.1,0.1,0.29,0.1,0.3,0.1C742.33,115.98,742.23,115.89,742.04,115.89z"/> <path d="M713.58,115.55c0.06,0.1,0.11,0.21,0.14,0.35C713.93,115.89,714.07,115.99,713.58,115.55z"/> <path d="M713.11,115.27c0.24,0.12,0.74,0.41,0.27,0.06C713.3,115.25,712.59,115.05,713.11,115.27z"/> <path d="M738.47,114.27c-0.05-0.48-0.37-0.7-0.79-0.62C737.77,114.03,737.96,114.31,738.47,114.27z"/> <path d="M738.49,114.27c-0.03,0,0,0.06,0,0.1C738.61,114.25,738.62,114.27,738.49,114.27z"/> <path d="M731.18,107.06c0.19-0.19-0.54-0.64-0.71-0.71C730.67,106.55,730.97,106.86,731.18,107.06z"/> <path d="M725.39,107.05c-0.06,0-0.04-0.05,0,0.11C725.5,107.05,725.53,107.05,725.39,107.05z"/> <path d="M725.35,107.04c-0.09-0.38-0.44-0.59-0.77-0.59C724.76,106.73,724.95,106.98,725.35,107.04z"/> <path d="M729.65,105.74c0.11,0.07,0.81,0.53,0.91,0.61C730.1,106.03,729.84,105.56,729.65,105.74z"/> <path d="M729.85,105.55l-0.13-0.02C729.76,105.69,729.75,105.66,729.85,105.55z"/> <path d="M729.72,105.52c-0.14-0.53-0.7-0.76-0.64-0.42C729.15,105.39,729.42,105.49,729.72,105.52z"/> <path d="M729.05,104.83c-0.16,0.04-0.1-0.08-0.1,0.1L729.05,104.83z"/> <path d="M728.28,104.36c0.15,0.43,0.36,0.47,0.65,0.47C728.89,104.25,728.13,104.05,728.28,104.36z"/> <path d="M727.98,104.07c0.69,0.21,0.28-0.66-0.35-0.66C727.63,103.69,727.72,103.96,727.98,104.07z"/> <path d="M675.35,166.75c0.05-0.05,0.09-0.09,0.14-0.14C675.42,166.59,675.35,166.67,675.35,166.75z"/> <path d="M675.65,166.45c-0.23,0.23-0.16,0.12-0.1,0.2C675.65,166.65,675.65,166.55,675.65,166.45z"/> <path d="M726.2,152.03h-0.3C726.14,152.15,726.08,152.16,726.2,152.03z"/> <path d="M689.56,170.61c-0.13-0.06-0.08-0.04-0.2-0.1C689.35,170.77,689.3,170.74,689.56,170.61z"/> <path d="M656.16,183.6c0.91-0.1,1.02-0.71,1.02-1.32c-0.1-1.62-0.71-2.23-2.74-3.76c-0.2,0.93,0.46,1.65,0.78,2.3
		C655.72,181.85,655.28,182.94,656.16,183.6z"/> <path d="M547.95,203.29c-1.35-1.01-0.82-1.87-3.44,3.36C546.48,206.21,547.66,205.25,547.95,203.29z"/> <path d="M546.43,198.62c1.98,0.37,3.25-0.58,4.47-2.13c-1.29,0.19-3.2,0.47-4.97,0.71C545.92,197.71,545.73,198.01,546.43,198.62z"/> <path d="M625.4,166.95c-2.9,0.33-2.62,0.37-4.57,1.93C624.1,168.67,624.5,168.46,625.4,166.95z"/> <path d="M522.47,221.67c1.93,0.51,2.94-0.1,4.06-1.02C524.9,220.43,523.83,220.49,522.47,221.67z"/> <path d="M590.79,181.27c-1.4-1.4-2.03,0.96-2.74,2.03C589.57,183.3,590.38,182.48,590.79,181.27z"/> <path d="M616.37,172.84c-1.93,0-2.03,0.27-2.84,1.83C614.75,174.58,615.61,173.78,616.37,172.84z"/> <path d="M554.45,196.8c-1.08-0.6-1.83-0.59-2.84,0.51C552.82,197.91,553.63,198.02,554.45,196.8z"/> <path d="M540.54,209.79c-0.97-0.61-1.51-0.03-2.13,0.91C539.62,211.21,540.23,210.81,540.54,209.79z"/> <path d="M638.8,210.1c2.43-0.41,1.02-2.05-0.41-0.91C638.29,209.59,638.4,209.89,638.8,210.1z"/> <path d="M612.46,203.6c0.17,0,0.36-0.1,0.56-0.3C612.05,202.57,611.56,203.6,612.46,203.6z"/> <path d="M531.1,218.52c-0.61-0.71-1.12-0.41-1.52,0C530.08,219.13,530.59,219.13,531.1,218.52z"/> <path d="M645.01,207.84c0.1,0,0.42-0.27,0.48-0.49C644.23,207.35,644.29,207.84,645.01,207.84z"/> <path d="M557.08,198.32c0-0.35-0.66-0.57-0.81-0.1C556.53,198.39,556.23,198.75,557.08,198.32z"/> <path d="M648.85,164.82l0.3,0.1C649.16,164.79,649.22,164.82,648.85,164.82z"/> <path d="M619.51,169.59c0.01-0.05,0.02-0.09,0.04-0.12c0.46-0.09,1.03-0.27,1.28-0.69c-0.45,0.19-1.11,0.11-1.29,0.68
		C619.38,169.5,619.39,169.47,619.51,169.59z"/> <path d="M645.5,207.46c0-0.1,0-0.2,0.1-0.3C645.5,207.25,645.5,207.25,645.5,207.46z"/> <path d="M544.4,206.85c0.1-0.1,0.1-0.2,0.1-0.3C544.5,206.64,544.4,206.75,544.4,206.85z"/> <path d="M619.41,169.49c-0.24,0.24-0.29,0.25,0,0.1V169.49z"/> <path d="M584.9,185.83c-0.26,0.13-0.26,0.08,0,0.2V185.83z"/> <path d="M588.05,183.19c-0.08,0.24-0.19,0.48,0,0.1V183.19z"/> <path d="M613.53,174.67c-0.46,0-0.68,0.12-0.3,0.41C613.45,175.19,613.61,174.92,613.53,174.67z"/> <path d="M622.76,511.07c0.42,0.06,0.13-0.47,0.67-0.47c0.79,0-0.1,0.11-0.47,0.48c-0.2,0.6-1.84,0.65-1.22,2.03
		c2.29,0.54,7.14,0.1,7.73-1.83c0.68-2.27-2.77-1.39-2.87-1.71c0-1.22,0.27-1.52-0.17-1.95c-1.19-1.14-2.53-0.49-3.76-0.1
		c-1.99,0.63-4,1.21-5.42,3.65C616.92,511.68,621.06,510.93,622.76,511.07z M626.49,509.7c-0.18,0.2-0.3,0.46-0.78,0.17
		C625.81,509.83,626.59,509.6,626.49,509.7z"/> <path d="M631.19,514.32c-1.32-0.41-1.32-0.41-2.64,0.1C630.01,515.65,630.12,515.61,631.19,514.32z"/> <path d="M525.31,261.26c-0.2,1.22,0.1,2.13,0.81,3.15C526.43,263.19,526.43,262.17,525.31,261.26z"/> <path d="M571.54,261.23c-0.22-0.09-0.12-0.1-0.12,0c0.22,0.85,0.61,1.47,1.38,1.88C572.9,263.1,572.93,261.81,571.54,261.23z"/> <path d="M572.82,263.29l0.1-0.1C572.76,263.1,572.82,263.04,572.82,263.29z"/> <path d="M570.17,259.38c0.07,0.37,0.17,0.69,0.52,0.96C570.35,259.88,570.22,259.43,570.17,259.38z"/> <path d="M528.15,272.02c-0.26,0.26,0.04,0.71,0.2,0.2C528.36,271.85,528,271.86,528.15,272.02z"/> <path d="M566.96,255.78c0,0,0,0-0.01,0c-0.14-0.08-0.2-0.06-0.13,0.1C567.18,255.88,567.22,255.91,566.96,255.78z"/> <path d="M567.12,256c0.01-0.03,0-0.06,0.02-0.09c0-0.01,0-0.03,0-0.03C566.97,256.04,567.07,255.96,567.12,256
		c-0.07,0.42,0.02,0.67,0.63,0.79C567.74,256.3,567.48,256.1,567.12,256z"/> <path d="M567.84,256.68c-0.23,0.23-0.03,0.77,0.55,0.73C568.73,257.41,568.38,256.68,567.84,256.68z"/> <path d="M568.59,257.53c-0.26-0.07-0.16,0.5,0.48,0.57C569.2,258.1,568.98,257.6,568.59,257.53z"/> <path d="M569.12,258.1c0.01,0.04,0.03,0.07,0.04,0.11C569.27,258.1,569.33,258.1,569.12,258.1z"/> <path d="M569.98,259.02l0.03-0.03c0.24,0.61,0.17,0.45,0.07-0.17C569.89,259.01,569.55,258.59,569.98,259.02z"/> <path d="M569.16,258.21c0.15,0.23,0.31,0.47,0.61,0.61C569.57,258.62,569.4,258.45,569.16,258.21z"/> <path d="M570.48,260.45c0.18,0,0.43,0.12,0.1-0.1L570.48,260.45z"/> <path d="M570.75,260.49c0.15,0.13,0.3,0.26,0.46,0.4C571.6,261.28,571.3,260.67,570.75,260.49z"/> <path d="M623.78,240.65c-0.12-0.39-0.26-0.55-0.61-0.2c0.1,0.2,0.3,0.3,0.41,0.41l0.01-0.01c0.17,1.31,1.06,1.16,1.3,0.92
		C624.79,241.16,624.49,240.65,623.78,240.65z"/> <path d="M628.04,246.53c-0.1-0.19-0.2-0.4-0.3-0.8C627.49,246.1,627.68,246.35,628.04,246.53z"/> <path d="M664.48,251.51c-0.07,0-0.14,0-0.2,0C664.41,251.64,664.36,251.64,664.48,251.51z"/> <path d="M664.08,251.82c0,0.44,0.35,0.04,0.2-0.29C664.28,251.72,664.18,251.72,664.08,251.82z"/> <path d="M628.85,247.25c-0.18-0.04-0.31-0.11-0.45-0.19C628.79,247.41,628.72,247.38,628.85,247.25z"/> <path d="M585.62,218.42c-1.11,0.85-1.49,0.88-0.41,2.51c0.7,1.05,0.47,0.82,0.49,0.28C585.75,220.1,586.06,219.34,585.62,218.42z"/> <path d="M593.43,216.59c-0.71,1.32-0.1,2.44,0.1,3.55C593.53,219.03,594.34,217.81,593.43,216.59z"/> <path d="M585.61,224.51c-0.5,0,0.1,0.86,0.1,0.2C585.61,224.71,585.61,224.61,585.61,224.51z"/> <path d="M595.76,226.44c-0.21,0.1-0.32,0.19,0,0.51C595.76,226.58,596.16,226.84,595.76,226.44z"/> <path d="M610.38,212.13c-0.18,0.18-0.34,0.16,0,0.51c0-0.1,0.1-0.2,0.1-0.3C610.38,212.33,610.38,212.23,610.38,212.13z"/> <path d="M607.64,244.61c3.15,0.71,3.15,0.71,5.38,0c-16.56-3.31-12.56-5.08-15.43-5.08C599,243.1,604.22,243.84,607.64,244.61z"/> <path d="M567.24,246.94c-0.07-0.11-0.43,0.1-0.61,0.1c0,0.34,0.49,0.83,0.91,0.71C567.73,247.36,567.55,247.06,567.24,246.94z"/> <path d="M479.43,246.34c0.5,0,0.4-0.48,0.1-0.91C479.22,245.62,479.12,245.93,479.43,246.34z"/> <path d="M516.48,232.02c-0.3,1.42,0.51,1.62,1.12,1.93c2.14,1.46,2.98,1.8,4.48,1.91C522.5,235.86,520.68,233.66,516.48,232.02z"/> <path d="M531.44,229.82c0.61-0.61-0.09-1.62-0.96-1.75c-0.64,1.76-2.73,2-3.16,4.26c1.17-0.58,2.16-1.36,3.35-1.15
		c0.06,0.02,0.1,0.03,0.12,0.03c-0.01-0.01-0.03,0.02-0.1,0.09c0.04,0.01,0.15,0.07,0.16,0.08c-0.04-0.1-0.05-0.16-0.06-0.17
		C530.92,231.26,530.24,231.02,531.44,229.82z"/> <path d="M532.31,232.95c0.73,0.73,1.34,1.79,2.85,1.92C534.29,234.09,533.59,232.97,532.31,232.95z"/> <path d="M532.09,232.71c-0.06-0.4-0.34-0.59-0.69-0.59C531.64,232.28,531.88,232.5,532.09,232.71l0.02,0.22
		C532.26,232.94,532.42,232.98,532.09,232.71z"/> <path d="M531.19,231.64c-0.59-0.61-0.23,0.16,0.15,0.31C531.47,232,531.69,232.16,531.19,231.64z"/> <path d="M534.75,236.89c0.05,0.05,0.23,0.2,0.3,0.2C534.95,236.99,534.85,236.99,534.75,236.89z"/> <path d="M707.83,202.48c-0.2,0.1-0.2,0.2,0.1,0.3C708.21,202.79,708.49,202.48,707.83,202.48z"/> <path d="M446.74,233.34c0.5,0.41,1.25,0.1,1.88,0.1c-0.1-0.19-0.08-0.46-0.11-0.74C448.26,230.8,445.73,232.06,446.74,233.34z"/> <path d="M448.67,233.44c-0.06,0-0.03,0.05,0,0.1V233.44z"/> <path d="M709.97,92.44c0.1-0.2,0.1-0.51,0.2-0.71c-2.04,0-5.47,6.48-6.51,6.6c0,1.53-0.8,1.25-0.8,1.52
		C702.87,104.89,703.78,98.89,709.97,92.44z"/> <path d="M702.86,101.82c-0.03,0.02-0.06,0.03-0.1,0.06C702.84,101.88,702.86,102.14,702.86,101.82z"/> <path d="M713.82,94.78c0.75,0,1.33,0,2.05,0c0.66,0-0.74-2.22-4.59-1.12C712.27,94.21,713.24,93.61,713.82,94.78z"/> <path d="M710.48,91.8c0.8-0.14,1.34-0.73,1.82-1.4C710.85,90.1,709.79,91.92,710.48,91.8z"/> <path d="M701.13,107.06c-0.07-0.15-0.05-0.11-0.1-0.2C701.03,107.1,700.99,107.06,701.13,107.06z"/> <path d="M702.75,103.2c0.08-0.39,0.1-0.82,0.1-1.22C702.28,102.24,702.09,102.54,702.75,103.2z"/> <path d="M710.27,98.43c0.72,0,0.62,0.16,0.61-0.73c0.02-0.01,0.23-0.2,0.82-0.79c1.48-1.48,0.17-0.3-0.06,0.05
		c-0.23,0.16-0.74,0.69-0.76,0.74c0-0.03,0-0.05,0-0.08C709.91,98.59,710,98.43,710.27,98.43z"/> <path d="M713.11,95.39c-0.3,0.3-0.51,0.51-0.81,0.81C712.6,96,712.8,95.69,713.11,95.39z"/> <path d="M712.8,90.11c-0.29,0-0.27-0.38-0.39,0.27C712.39,90.56,712.3,90.61,712.8,90.11z"/> <path d="M717.37,88.18c-0.07-0.07-0.21-0.11-0.3-0.2C717.17,88.08,717.19,88.18,717.37,88.18z"/> <path d="M718.13,89.04c0.12-0.12-0.75-0.69-0.86-0.76C718.16,89.17,718.03,89.14,718.13,89.04z"/> <path d="M53.59,326.22c2.69,5.11,11.96,14.84,11.78,12.97c-0.03-0.32-0.29-0.57-0.51-0.79C53.82,325.29,55.43,327.04,53.59,326.22z
		"/> <path d="M34.51,236.99c0.06,0.02,0.11,0.06,0.17,0.08c-0.11-0.21-0.06-0.2-0.16-0.09C32.84,236.56,34.16,236.99,34.51,236.99z"/> <path d="M20.09,242.99c-2.15,0.43-1.93,0.2-1.23,0.52c0.18,0.08,0.82,0.34,1.03,0.4c1,1.71,0.07,5.16,1.52,6.29
		c-0.34-4.47,1.23-9.59,0.77-9.85C21.37,239.9,21.03,242.42,20.09,242.99z"/> <path d="M78.66,392.41c-0.52,4.29-0.49,4.29,0.2,5.99C80.59,393.68,80.13,385.77,78.66,392.41z"/> <path d="M15.32,232.43c1.42,1.83,2.94,2.74,5.68,3.55C19.17,233.44,17.55,232.43,15.32,232.43z"/> <path d="M97.64,357.19c-0.81,2.03-0.51,2.64,2.33,4.37C99.15,359.61,99.28,357.91,97.64,357.19z"/> <path d="M98.15,337.9c0,0.51-0.61,1.12,0.1,2.03c0.88-2.63,2.27-3.9,1.42-5.99C98.55,334.16,98.55,335.08,98.15,337.9z"/> <path d="M99.98,378.78c0.29-1.61-0.53-2.71-1.62-3.93C99.49,379.96,99.43,381.75,99.98,378.78z"/> <path d="M30.6,229.82c0.53,0,0.36-1.25-1.02-2.12c0,1.72-3.11,2.71-2.2,3.61c2.12,0,1.97,0,1.98,0
		C29.66,230.59,29.84,229.97,30.6,229.82z"/> <path d="M29.63,227.56l-0.1,0.1C29.56,227.68,29.59,227.76,29.63,227.56z"/> <path d="M29.32,231.41l0.1-0.1C29.37,231.31,29.37,231.29,29.32,231.41z"/> <path d="M82.92,470.58c-1.47,3.83,2.46,4.8,0.81-0.61C83.43,470.17,83.02,470.37,82.92,470.58z"/> <path d="M92.67,362.57c-0.61,1.52-0.3,2.33,0.81,2.94C94.39,364.29,93.89,363.58,92.67,362.57z"/> <path d="M67.29,341.16c0.93,1.65,0.89,1.6,2.54,2.23C68.7,340.91,68.67,340.96,67.29,341.16z"/> <path d="M98.05,352.21c-0.2,1.02-0.81,2.13,0.2,3.25C98.15,354.24,99.27,353.23,98.05,352.21z"/> <path d="M24.96,264.1c0.31,0.47,0.66,0.05,0.51-0.49C24.27,259.35,23.97,262.79,24.96,264.1z"/> <path d="M25.87,222.58c-0.29-0.59-0.48-2.2-2.14-2.68C23.63,219.9,24.17,222.1,25.87,222.58z"/> <path d="M23.54,219.84c0.16,0.03,0.19,0.12,0.1-0.1L23.54,219.84z"/> <path d="M45.37,245.04c-0.99-0.87-2.08-1.53-3.56-1.34C42.94,244.83,44.39,245.23,45.37,245.04z"/> <path d="M45.46,245.03c-0.1,0-0.09,0.02-0.05,0.04C45.25,245.23,45.68,245.03,45.46,245.03z"/> <path d="M78.35,409.26c0.64-1.05,1.02-1.66,0.1-2.74C78.05,407.74,78.15,408.45,78.35,409.26z"/> <path d="M67.77,258.04c-0.2-1.45-0.55-1.76-2.07-1.96c0.03,0.07,0.1,0.18,0.26,0.38C67.08,257.93,67.77,257.93,67.77,258.04z"/> <path d="M65.69,256.08c0,0,0-0.01,0-0.01c-0.01,0-0.01,0.01-0.02,0.01C65.67,256.08,65.68,256.08,65.69,256.08z"/> <path d="M65.69,256.07C65.78,256.05,65.62,255.92,65.69,256.07L65.69,256.07z"/> <path d="M67.9,258.11c-0.17-0.08-0.14-0.14-0.1,0.1L67.9,258.11z"/> <path d="M27.19,224.71c0-0.99-0.21-1.7-1.31-2.08C25.62,222.57,25.71,224.22,27.19,224.71z"/> <path d="M80.28,387.13c0.71-0.3,0.61-0.71,0.41-1.32C80.18,386.12,79.98,386.52,80.28,387.13z"/> <path d="M71.48,262.37c0.34,0.17,0-0.85-1.23-1.92C70.25,261.18,70.66,261.96,71.48,262.37z"/> <path d="M69.97,260.2c0.17,0.17,0.12,0.09,0.28,0.25C70.25,260.17,70.24,260.27,69.97,260.2z"/> <path d="M29.35,231.42c0.55,0.29,0.97,0.81,1.56,1.06c0.07,0.07,0.59,0.15,0.59,0.15c0.3,0-0.65-1.21-1.92-1.21
		C29.51,231.42,29.4,231.42,29.35,231.42z"/> <path d="M29.35,231.42C29.35,231.42,29.35,231.41,29.35,231.42C29.31,231.41,29.32,231.41,29.35,231.42z"/> <path d="M31.76,232.63c-0.24,0.04-0.19-0.08-0.1,0.1L31.76,232.63z"/> <path d="M28.6,226.89c0-0.9-0.33-1.55-1.29-2.01C27,224.73,27.15,226.24,28.6,226.89z"/> <path d="M75.71,350.99c-0.18,0.18-0.3,0.19-0.02,0.43c0.24,0.27,0.23,0.17,0.43-0.02C76.02,351.3,75.82,351.2,75.71,350.99z"/> <path d="M29.32,240.44c1.63,0,1.42,0.04,1.42-0.1C30.38,240.34,29.69,240.4,29.32,240.44z"/> <path d="M37.75,242.07c0.3,0,1.12,0.1,1.12,0.1C38.62,241.57,38.27,241.45,37.75,242.07z"/> <path d="M23.63,219.64c0-0.65-0.24-1.04-0.6-1.33c0-0.04,0-0.06,0-0.09c-0.3-0.15-0.24-0.14-0.01,0.08
		C22.91,219.44,23.63,219.82,23.63,219.64z"/> <path d="M40.19,242.99c0.48,0-0.01-0.9-1.2-0.73C39.39,243.45,40.65,242.53,40.19,242.99z"/> <path d="M38.99,242.25c-0.03-0.1,0.01-0.11-0.12,0.02C38.91,242.26,38.95,242.26,38.99,242.25z"/> <path d="M96.22,368.66c0.1,0.2,0.2,0.51,0.2,0.81C96.73,369.06,96.83,368.76,96.22,368.66z"/> <path d="M41.81,243.59c-0.19-0.66-0.81-0.62-1.47-0.61C40.68,243.5,40.66,243.59,41.81,243.59z"/> <path d="M78.36,416.49c0,0.2,0.09,0.13,0.09,0.28c0.06-0.06,0.11-0.08,0.15-0.09C78.92,416.58,78.41,415.92,78.36,416.49z"/> <path d="M21.3,250.19l0.2,0.1C21.39,250.17,21.43,250.19,21.3,250.19z"/> <path d="M96.11,368.14c-0.43,0-0.38,0.62,0.21,0.42C96.25,368.42,96.23,368.16,96.11,368.14z"/> <path d="M68,258.31c0.19,0.19,0.44,0.44,0.61,0.61C68.53,258.58,68.36,258.32,68,258.31z"/> <path d="M67.8,258.31c0.14-0.04,0.29,0.08,0.1-0.1C67.83,258.28,67.84,258.27,67.8,258.31z"/> <path d="M69.52,259.53c-0.41-0.2-0.61-0.41-0.91-0.61C69.11,259.26,69.3,259.75,69.52,259.53z"/> <path d="M69.35,259.68c0.14,0.24,0.35,0.45,0.62,0.52C69.78,260.03,69.27,259.52,69.35,259.68z"/> <path d="M27.5,272.42c0.13,0,0.1,0.05,0.1-0.2L27.5,272.42z"/> <path d="M25.05,233.34v0.1C25.27,233.44,26.4,232,25.05,233.34z"/> <path d="M25.87,232.83c0.41-0.61,0.85-0.67,0.61-0.91C26.26,232.24,26.03,232.48,25.87,232.83z"/> <path d="M26.6,231.92c-0.09,0.51,0.92-0.28,0.59-0.61C26.85,231.39,26.66,231.57,26.6,231.92z"/> <path d="M30.74,229.89l0.2,0.1C30.83,229.76,30.91,229.72,30.74,229.89z"/> <path d="M29.48,227.56c-0.18-0.35-0.33-0.54-0.74-0.52C28.92,227.8,29.59,227.78,29.48,227.56z"/> <path d="M28.61,227.05c0.05-0.01,0.08,0,0.12,0l-0.01-0.03c0-0.02,0-0.04-0.01-0.07C28.55,226.86,28.61,226.84,28.61,227.05z"/> <path d="M33.99,235.17c0-0.14-0.08-0.08-0.18-0.13C33.55,235.12,33.81,234.98,33.99,235.17z"/> <path d="M33.12,234.38l-0.05-0.12C33.07,234.36,32.85,234.32,33.12,234.38z"/> <path d="M33.68,234.93c0.2,0.05,0-0.48-0.52-0.56C33.06,234.37,33.26,234.79,33.68,234.93z"/> <path d="M32.96,234.11c0.25,0.06-0.03-0.42-0.57-0.56C32.45,233.85,32.66,234.01,32.96,234.11z"/> <path d="M32.23,233.41c-0.12-0.37-0.26-0.56-0.67-0.68C31.63,233.03,31.86,233.36,32.23,233.41z"/> <path d="M32.28,233.53c-0.01,0.02,0.03,0.01,0.11,0.03c0-0.04-0.02-0.07-0.02-0.12c-0.2,0-0.15-0.12-0.1,0.1L32.28,233.53z"/> <path d="M147.92,384.78c-0.26-0.31-0.62-0.5-1.45-0.08c1.84,3.84,2.99,8.21,4.87,15.13C151.72,392.72,149.32,386.4,147.92,384.78z"/> <path d="M153.68,337.9c-1.12,2.33-0.61,4.87,1.12,7.61C155.91,341.45,155.81,339.83,153.68,337.9z"/> <path d="M149.51,336.98c1.85-1.88,2.23-3.89,2.44-5.98c-0.3-0.2-0.61-0.3-1.02-0.61C150.91,330.49,148.53,337.97,149.51,336.98z"/> <path d="M151.14,419.51c0.2-1.22,0.41-2.44,0.61-3.65C150.63,416.98,150.73,418.3,151.14,419.51z"/> <path d="M151.34,403.58c0.66-0.8,0.43-1.42-0.2-2.23C151.06,401.81,150.33,403.58,151.34,403.58z"/> <path d="M144.13,341.55c0-0.78-1.84-0.42-0.81,0.61C143.73,342.24,143.95,341.96,144.13,341.55z"/> <path d="M135.91,362.36c0.41-0.41,0.3-0.81-0.2-1.42C135.61,361.55,135.3,361.96,135.91,362.36z"/> <path d="M145.45,379.72c0.41-0.41,0.3-0.81-0.2-1.42C144.9,379.05,144.8,379.42,145.45,379.72z"/> <path d="M208.8,511.18c0-1.59-0.11-0.77-0.11-0.67c-0.02,0.08-0.21,0.68-0.21,0.76C208.47,511.51,209.16,511.27,208.8,511.18z"/> <path d="M151.85,409.36c0.14,0,0.1,0.06,0.1-0.3C151.7,409.44,151.71,409.36,151.85,409.36z"/> <path d="M138.14,366.32c-0.26,0-0.23-0.08-0.1,0.3L138.14,366.32z"/> <path d="M150.22,455.75c0,0.1,0.1,0.2,0.1,0.3c0.1-0.1,0.1-0.1,0.2-0.1c0-0.08,0.05-0.16,0.04-0.23
		C150.57,455.62,150.38,455.3,150.22,455.75z"/> <path d="M134.37,358.22c0.68,0.45,0.08-0.53-0.38-0.53C134.09,358.05,134.24,358.06,134.37,358.22z"/> <path d="M134.9,358.51c-0.18-0.18-0.26-0.16-0.2-0.1L134.9,358.51z"/> <path d="M153.17,178.22c0.51,1.22,0.81,2.03,1.22,2.74c0.24,0.8,0.13,1.48,0.43,2.09C155.66,184.77,158.31,181.8,153.17,178.22z"/> <path d="M77.03,184.72c1.62-2.03,3.76-1.73,4.77-3.35c-0.2-0.41-0.41-0.51-0.51-0.71C78.35,181.88,78.35,181.88,77.03,184.72z"/> <path d="M133.82,174.18c3.07,0.3,0.65-2.02-6.44-0.43C129.93,173.85,131.94,174,133.82,174.18z"/> <path d="M137.94,210.1c2.7-0.89,0.62-2.04-0.71-0.71C137.43,209.89,137.74,210.2,137.94,210.1z"/> <path d="M126.67,165.13c-0.8,0.27-2.35,0.35-1.52,1.32C125.97,166.21,126.48,165.92,126.67,165.13z"/> <path d="M56.94,207.05c-0.71-0.61-0.71-0.61-1.62-0.61C56.02,207.15,56.02,207.15,56.94,207.05z"/> <path d="M120.18,175.89c0.41,0.2,0.81,0.2,1.12-0.2C120.89,175.38,120.48,175.18,120.18,175.89z"/> <path d="M51.96,203.7c0.33,1.32,1.11,0.21,1.22,0.1c-0.28-0.18-0.56-0.38-0.84-0.56C52.24,203.14,51.96,203.57,51.96,203.7z"/> <path d="M115.91,171.42c0.04-0.07,0.27-0.54,0.3-0.61C115.07,170.2,115.33,172,115.91,171.42z"/> <path d="M131.04,164.82c0.48,0,0.21,0.45,1.12,0C131.95,164.82,131.86,164.41,131.04,164.82z"/> <path d="M144.13,207.24c-0.54,0.54-1.41,0.25-0.53,0.57C143.77,207.81,144.13,208.03,144.13,207.24z"/> <path d="M126.78,165.23c0.2-0.1,0.41-0.2,0.61-0.41C127.08,164.92,126.88,165.02,126.78,165.23z"/> <path d="M147.79,164.92c0.1,0,0.21,0,0.3,0C147.85,164.8,147.92,164.79,147.79,164.92z"/> <path d="M144.24,207.35c0.1-0.1,0.1-0.2,0.2-0.2C144.34,207.15,144.24,207.25,144.24,207.35z"/> <path d="M63.94,241.67l-0.1,0.2C64.1,241.87,64.07,241.92,63.94,241.67z"/> <path d="M228.28,134.47c0-1.02-1.52-1.12-1.32-2.33c0.1-0.3,0.62-0.72,0.3-1.32c-2.44-4.62-8.53-12.89-9.34-12.99
		C214.9,120.85,227.02,137.15,228.28,134.47z"/> <path d="M241.48,114.17l0.1,0.1C241.59,114.23,241.62,114.2,241.48,114.17z"/> <path d="M242.32,115.7c-0.01-0.01-0.01-0.02-0.02-0.02C242.3,115.79,242.31,115.78,242.32,115.7z"/> <path d="M243.72,128.89c0.03-0.03,0.08-0.08,0.1-0.1C243.67,128.83,243.75,128.85,243.72,128.89z"/> <path d="M242.6,128.18c0.42,0.58,0.73,0.64,1.12,0.61c1.93,0-8.34-13.81-12.28-15.13C231.05,114.8,236.31,119.47,242.6,128.18z"/> <path d="M223.62,147.16c0.51,0.3,0.81,0.61,1.02,0.81c9.13,1.96,4.58-0.7,11.47,6.19c0.41,0.3,0.91,0.71,1.62,0.2
		c0-2.22-1.68-3.03-4.47-6.19C231.8,146.71,226.63,146.4,223.62,147.16z"/> <path d="M227.89,115.09l-0.01-0.01C227.72,115.25,227.79,115.19,227.89,115.09z"/> <path d="M227.78,114.37c0.03,0.03,0.08,0.08,0.1,0.1C227.88,114.37,227.88,114.4,227.78,114.37z"/> <path d="M226.97,111.35c0,1.38,0.96,1.88,0.91,3.06c0.43,0.18,0.31,0.43,0.01,0.68c1.09,2.18,9.87,11.92,9.97,12
		c0.37,0.27,1.01-0.42-0.23-1.65C230.03,116.53,229.03,112.73,226.97,111.35z"/> <path d="M233.67,155.08c-7.08-1.36-7.38-4.19-8.63-2.44c0.78,0.39,2.56,3.04,3.15,3.76C232.53,158.57,236.23,156.15,233.67,155.08z
		"/> <path d="M180.02,190.5c1.12-0.08,3,1.43,3,0.99c2.08-3.23-7.52-2.31-12.09-2.31c0,0.2,0.1,0.41,0,0.51
		C176.49,191.08,172.73,190.5,180.02,190.5z"/> <path d="M221.38,116.5c1.62,3.47,7.76,12.76,8.43,10.76c-0.7-1.99-7.65-10.81-8.6-11.39c0.02-0.02,0.04-0.04,0.08-0.08l-0.1-0.1
		c0,0.09,0,0.14,0,0.17C221.04,115.79,221.08,115.98,221.38,116.5z"/> <path d="M224.84,114.37c0,1.57,5.27,9.67,6.46,9.9c0.26,0.05,0.6-0.31,0.53-0.39C231.24,122.94,225.44,113.76,224.84,114.37z"/> <path d="M222.4,99.24c12.79,13.97,4.42,2.3-0.4-0.91C221.99,98.74,221.99,99.14,222.4,99.24z"/> <path d="M208.8,109.29c0.29,1.95,1.34,3.52,2.77,4.81C211.04,112.15,210.32,110.6,208.8,109.29z"/> <path d="M211.57,114.11c0.07,0.33,0.06,0.27,0.17,0.16C211.68,114.22,211.63,114.16,211.57,114.11z"/> <path d="M224.96,107.97c-0.41-0.31,0.29,2.52,2.01,3.38C226.99,109.79,226.08,108.82,224.96,107.97z"/> <path d="M234.07,110.72c-0.92-1.11-1.5-2.03-2.74-2.03C231.94,109.4,232.45,110.31,234.07,110.72z"/> <path d="M240.16,113.66l-0.1,0.1C240.25,113.76,240.16,113.85,240.16,113.66z"/> <path d="M192.96,155.68c-1.14,1.14-1.65,2.75-1.5,3.65C192.45,158.53,192.66,157.51,192.96,155.68z"/> <path d="M211.74,114.37c0.1,0.61,0.3,1.22,1.02,1.52C212.76,115.07,212.37,114.76,211.74,114.37z"/> <path d="M215.4,113.66c0.1,0.61,0.2,1.32,1.12,1.42C216.58,114.41,216.37,113.92,215.4,113.66z"/> <path d="M223.57,105.84c0.22,0.89,0.48,1.63,1.37,1.93C224.74,106.92,224.29,106.26,223.57,105.84z"/> <path d="M223.57,105.84c-0.02-0.07-0.03-0.14-0.05-0.2C223.41,105.75,223.37,105.72,223.57,105.84z"/> <path d="M187.99,174.16c-0.84,0-0.81,0.48-0.81,1.22C187.68,175.18,188.09,174.87,187.99,174.16z"/> <path d="M223.41,111.43c0.1,0.49-0.07,1.16,0.62,1.3C224.15,112.19,223.79,111.8,223.41,111.43z"/> <path d="M224.13,112.75c-0.1,0-0.1-0.07-0.1,0.1C224.06,112.81,224.06,112.81,224.13,112.75z"/> <path d="M200.88,112.85c0.17,0.45,0.42,1.04,0.71,1.42C200.89,112.51,201.02,112.71,200.88,112.85z"/> <path d="M224.13,112.95c-0.21,1.01,0.72,1.45,0.72,1.35C224.91,113.67,224.77,113.13,224.13,112.95z"/> <path d="M214.08,101.88c-0.11-0.02-0.15-0.14-0.1,0.1C214.11,102.09,214.08,102.15,214.08,101.88z"/> <path d="M214.32,102.34c-0.46-0.69-0.33,0.73,0.47,0.96C214.54,102.98,214.46,102.56,214.32,102.34z"/> <path d="M191.13,160.05c0.08-0.25,0.11-0.44,0.17-0.66C191.21,159.59,190.97,159.72,191.13,160.05z"/> <path d="M191.3,159.39c0.02-0.05,0.04-0.09,0.04-0.15C191.32,159.29,191.31,159.34,191.3,159.39z"/> <path d="M214.99,104.22c0.2-0.41-0.2-0.61-0.3-0.81C214.79,103.61,214.89,103.91,214.99,104.22z"/> <path d="M188.29,170.81c-0.13-0.13-0.3-0.18-0.3,0.2C188.12,171.14,188.29,171.19,188.29,170.81z"/> <path d="M231.33,113.56c0.23,0,0.11-0.77-0.71-0.61C230.71,113.32,230.91,113.6,231.33,113.56z"/> <path d="M236.51,112.85L236.51,112.85c0.04,2.11,7.07,7.94,9.34,16.85c0.91,0,0.61-0.71,1.12-0.91
		c3.66,13.08,2.04-10.74-5.99-17.05c0.21,0.96,0.74,1.51,0.62,2.49c0.7,0.33,0.74,1.24,0.72,1.49c0.8,0.83,2.86,4.89,3.18,8.11
		c0.13,1.31-4.56-8.01-8.96-10.96h0.07C236.36,112.72,236.36,112.7,236.51,112.85z M246.25,125.74c0.14,0.14,0.17,0.41-0.1,0.41
		C246.02,126.01,245.99,125.74,246.25,125.74z"/> <path d="M230.5,112.79c0.55,0.18,0.02-0.04-0.08-0.14C230.45,112.71,230.48,112.76,230.5,112.79z"/> <path d="M223.52,111.32h-0.3C223.46,111.45,223.39,111.45,223.52,111.32z"/> <path d="M231.33,108.58c0.1-0.1,0.29-0.04-0.71-0.71C230.83,108.08,231.13,108.38,231.33,108.58z"/> <path d="M230.72,107.77c-0.83-0.83-0.68-0.74-0.81-0.61C230.11,107.37,230.42,107.67,230.72,107.77z"/> <path d="M200.24,117.2l0.03,0.01C200.04,116.98,199.94,117.16,200.24,117.2z"/> <path d="M227.78,115.08c-0.09-0.18-0.09-0.44-0.09-0.65c0.01,0,0.04-0.01,0.09-0.06c-0.13-0.13-0.1-0.13-0.1,0
		c0,0.02-0.01,0.06,0.01,0.06C227.47,114.59,227.6,114.76,227.78,115.08z"/> <path d="M201.49,114.37l0.2,0.1C201.56,114.22,201.62,114.24,201.49,114.37z"/> <path d="M221.29,97.71c0-0.03-0.01-0.05-0.01-0.09C221.18,97.72,221.12,97.75,221.29,97.71z"/> <path d="M222,98.33c0-0.4-0.23-0.6-0.47-0.63C221.1,97.65,221.29,98.33,222,98.33z"/> <path d="M221.28,97.52c-0.04,0.01-0.06,0-0.09,0c0,0-0.01,0-0.01,0C221.18,97.65,221.16,97.64,221.28,97.52z"/> <path d="M221.19,97.52c0.06-0.72-0.71-0.51-0.61-0.61C220.37,96.8,220.58,97.57,221.19,97.52z"/> <path d="M229.1,106.35c0.66,0.66,1.48,1.28,0.15-0.05c0.1-0.1,0.06-0.03-0.07-0.16C229.18,106.29,229.24,106.21,229.1,106.35z"/> <path d="M223.41,105.64l-0.1-0.1C223.44,105.79,223.41,105.78,223.41,105.64z"/> <path d="M163.93,231.31c-0.3-0.2-0.61-0.51-0.81-0.81C163.22,230.91,163.52,231.11,163.93,231.31z"/> <path d="M243.72,128.89c0.04,0.04,0.08,0.12,0.09,0.18C243.9,129.49,244.36,128.89,243.72,128.89z"/> <path d="M186.97,175.48l0.2-0.1C187.04,175.25,187.1,175.23,186.97,175.48z"/> <path d="M123.63,241.97c-0.2-1.42-0.2-1.42-1.32-1.42C122.41,241.36,122.82,241.87,123.63,241.97z"/> <path d="M109.21,212.13c-0.18,0.49,0.22,0.84,0.41,1.22C110.03,212.73,110.03,212.33,109.21,212.13z"/> <path d="M163.32,252.12c0.26-0.26,0.1,0.03,0.1-0.41C162.99,251.72,162.91,252.12,163.32,252.12z"/> <path d="M127.38,247.12c0-0.33-0.08-0.8-0.3-1.05C126.42,245.34,126.99,246.68,127.38,247.12z"/> <path d="M127.49,247.25c-0.04-0.04-0.07-0.08-0.1-0.13C127.38,247.41,127.35,247.38,127.49,247.25z"/> <path d="M128.12,247.83c0.03,0.07,0.06,0.15,0.08,0.23C128.34,247.92,128.33,248.01,128.12,247.83z"/> <path d="M128.12,247.83c-0.12-0.28-0.32-0.48-0.73-0.48C127.71,247.51,127.9,247.68,128.12,247.83z"/> <path d="M126.88,245.83l-0.3-0.1C126.82,245.85,126.75,245.83,126.88,245.83z"/> <path d="M116.98,511.28c6.43-0.43,4.13-0.16,5.23-0.71c0.31,0,0.3-0.02,0.33,0.04c0.41,0.41-0.64,0.17-0.84,0.38
		c0.1,0.71-1.42,0.81-0.91,1.62c0.87,0.43,4.85,0.91,7.31-0.61c1.13-0.7,0.42-1.49,0-2.33c-0.04,0-2.67-0.28-2.71-0.28
		c0.19-0.59,1.17-1.35-0.17-2.11c-1.09-0.61-5.77,0.33-7.98,2.61C116.44,510.7,116.88,511.28,116.98,511.28z"/> <path d="M130.23,514.23c-0.91-0.61-1.93-0.3-2.94,0C129.11,515.65,129.11,515.65,130.23,514.23z"/> <path d="M137.64,529.96c0.13-0.13,0.13-0.08,0-0.2C137.5,530.16,137.51,530.09,137.64,529.96z"/> <path d="M351.79,196.39c6.67,0,2.19-9.83-1.49-7.5c-1.54,0.86-1.17,2.39-0.51,4.06c-0.41,0.61-0.61,1.12-1.02,1.83
		C350.39,196.27,350.51,196.29,351.79,196.39z"/> <path d="M356.6,192.64c-0.71,1.12-0.38,2.55-0.81,3.76c-0.46,1.29-1.8,2.39-2.23,3.65C359.51,197.24,358.13,191.87,356.6,192.64z"/> <path d="M352.81,245.22c-2.26,0.19-4.28,2.48-1.9,3.55c1.61-0.72,2.4-1.18,2.59-1.74C353.7,246.43,352.91,245.22,352.81,245.22z"/> <path d="M84.34,221.46c0.51-0.91,0.61-1.83,0.61-2.74c-0.1,0-0.2-0.1-0.3-0.2C83.77,219.4,83.72,219.38,84.34,221.46z"/> <path d="M92.46,218.83c0.29-0.69,0.8-1.42,0.3-2.23C92.06,217.4,92.06,217.4,92.46,218.83z"/> <path d="M94.68,226.21c-0.71-0.07-0.15,1.15,0.53,0.94C95.46,226.63,94.99,226.24,94.68,226.21z"/> <path d="M95.81,229.48l0.2,0.1C96.02,229.32,96.07,229.36,95.81,229.48z"/> <path d="M206.97,202.68c0.07,0,0.13,0,0.2,0C207.04,202.42,207.1,202.43,206.97,202.68z"/> <path d="M201.68,102.68c-0.03,0.01-0.06,0.02-0.09,0.02C201.69,102.8,201.73,102.86,201.68,102.68z"/> <path d="M211.13,90.42l-0.02-0.03c0.84-0.31,1.35,0.16,0.82-0.28c-0.64-0.54-0.76,0.35-0.9,0.21
		C211.06,90.46,210.97,90.48,211.13,90.42z"/> <path d="M215.6,94.57c-0.14,0-0.2,0-0.1,0.1L215.6,94.57z"/> <path d="M212.03,95.05c-0.21,0.36-0.87,0.52,3.4-0.45c-1.47-1.47-2.98-1.48-5.11-1.15C210.86,94.43,212.99,93.38,212.03,95.05z"/> <path d="M201.3,102.97c-0.39,0.52-0.3,1.4-0.42,1.85C201.72,103.98,201.78,102.32,201.3,102.97z"/> <path d="M201.59,102.7c-0.03-0.03-0.07-0.07-0.1-0.1C201.56,102.81,201.43,102.8,201.59,102.7z"/> <path d="M216.78,88.04c0.26,0.06,0.13,0.06-0.07-0.07c-0.1-0.07-0.19-0.15-0.32-0.15C215.66,87.81,216.5,87.97,216.78,88.04z"/> <path d="M199.76,108.08c0.04-0.11,0.07-0.2,0.1-0.3C199.73,107.77,199.76,107.71,199.76,108.08z"/> <path d="M200.69,105.21c0,0.01-0.01,0.02-0.01,0.02C200.74,105.47,200.86,104.18,200.69,105.21z"/> <path d="M217.93,86.45c0.15,0.07,0.3,0.12,0.38,0.18C218.41,86.74,218.17,86.45,217.93,86.45z"/> <path d="M209.51,97.62l-0.1,0.2C209.66,97.7,209.64,97.75,209.51,97.62z"/> <path d="M210.22,96.91c-0.2,0.2-0.51,0.51-0.61,0.81C210.44,96.9,210.35,97.04,210.22,96.91z"/> <path d="M210.93,96.2c-0.2,0.2-0.41,0.41-0.61,0.81C211.15,96.18,211.06,96.33,210.93,96.2z"/> <path d="M211.74,95.29c-0.02,0.12-0.06,0.21-0.1,0.3C211.88,95.35,211.87,95.41,211.74,95.29z"/> <path d="M211.64,95.59c-0.2,0.2-0.38,0.38-0.61,0.61C211.26,96.05,211.5,95.88,211.64,95.59z"/> <path d="M217.78,89.24c-0.18-0.18-0.24-0.23-0.25-0.24C217.6,89.09,218.18,89.63,217.78,89.24z"/> <path d="M218.34,89.6c-0.3-0.1-0.7-0.5-0.1,0.1C218.27,89.67,218.31,89.63,218.34,89.6z"/> <path d="M217.49,88.85c0.27,0.27,0.46,0.09-0.67-0.67C217.07,88.43,217.25,88.62,217.49,88.85z"/> <path d="M104.75,283.08c0.5-0.9,0.32-1.43-0.91-1.73C103.21,282.28,103.66,282.78,104.75,283.08z"/> <path d="M99.98,291.3c0.38,0.38,0.78,0.32,1.22,0C100.59,290.29,100.59,290.29,99.98,291.3z"/> <path d="M728.23,114.12c0.13,0.09,0.1,0.21,0.1-0.45c-0.03-0.01-0.07-0.01-0.1-0.01C727.47,113.66,727.42,113.55,728.23,114.12z"/> <path d="M728.34,113.6c0,0.07-0.03,0.06,0.1,0.06C728.3,113.52,728.34,113.5,728.34,113.6z"/> <path d="M728.34,114.37c0.03-0.03,0.07-0.07,0.1-0.1C728.3,114.17,728.34,114.14,728.34,114.37z"/> <path d="M241.08,115.89c0.41,0.51,0.76,0.2,1.22-0.1c-1.2-0.14-0.73-1.31-0.83-1.31C240.95,114.53,238.98,112.19,241.08,115.89z"/> <path d="M241.59,114.47l-0.1-0.1C241.45,114.5,241.46,114.5,241.59,114.47z"/> </g> </svg> 