<?xml version="1.0" encoding="utf-8"?> <!-- Generator: Adobe Illustrator 23.0.1, SVG Export Plug-In . SVG Version: 6.00 Build 0)  --> <svg version="1.2" baseProfile="tiny" id="Layer_1" xmlns="http://www.w3.org/2000/svg" xmlns:xlink="http://www.w3.org/1999/xlink" x="0px" y="0px" viewBox="0 0 900 600" xml:space="preserve"> <g> <path d="M729.81,86.08c-0.18-0.26-0.14-0.22-0.1,0.1L729.81,86.08z"/> <path d="M710.77,102.5c-0.27-0.07-0.27-0.16-0.1,0.1L710.77,102.5z"/> <path d="M747.44,74.74c0-0.22,0-0.38,0.01-0.48C747.35,74.44,747.26,74.6,747.44,74.74z"/> <path d="M747.45,74.26c0.02-0.04,0.05-0.08,0.07-0.12C747.48,74.14,747.46,74.18,747.45,74.26z"/> <path d="M899.52,359.33c-0.37-0.18-174.65-72.68-174.75-72.72c-1.77-8.52-19.59-20.9-21.25-25.89c-1.48-4.43-3.29-4.83-6.95-4.83
		c-0.8,1.2,1.08,1.84,2.62,5.44c-2.31,0-1.72,0.29-4.83-0.1c0.1,0.6,0,1.01,0.2,1.21c1.53,1.53,3.06,1.31,5.14,1.31
		c0.04,1.58,0.15,1.5,1.91,4.43c-0.58,4.66-0.52,5.46-2.32,5.14c-1.17-7.04-0.35-5.37-9.37-10.78c2.67-2.29,2.46-0.96,0.4-4.73
		c-0.9,1.8-0.36,1.6-1.91,1.21c-5.34,3.69-4.66,2.47-1.51,3.53c-0.91,0.81-1.71,1.41-2.52,2.22c0,2.98-1.3,3.31,7.55,5.64
		c1.41,2.22,0.2,4.83,0.81,7.25c-1.01,0.71-2.01,1.41-2.92,2.12c-6.77-1.69-1.79-5.86-9.77-7.45c0.27-1.77,2.78-2.16,3.93-1.61
		c5.76,2.77,3.9,3.88,4.73,5.54c1.48,0.99,2.31-3.34-0.6-5.14c-5.93-3.67-6.97-3.01-8.76-2.32c-0.81-1.31-0.2-3.53-2.72-3.93
		c0.71,2.82,1.31,5.54,2.01,8.26c-1.71,1.01-3.42,2.01-5.14,3.02c-2.82-1.61-5.33-3.53-7.25-6.35c-3.44-5.04-9.51-7.54-15.41-12.29
		c-3.58-2.88-5.84-5.48-8.66-7.45c-6.77-4.74-5.54-3.49-7.25-5.54c0.86-1.35,1.75-1.06,6.85,0.3c8.73,1.81,10.07-3.01,18.43-0.4
		c3.93,3.73,7.15,8.16,11.68,11.18c-0.3,0.81-0.5,1.41-0.71,2.12c0.2,0.1,0.5,0.3,0.6,0.3c1.61-1.01,3.32-1.31,5.14-1.31
		c9.19,0,13.08-2.47,17.32-1.41c0.27-2.72-5.8-0.76-7.86-0.71c-3.93,0.1-7.96,0.3-12.29,0.5c-7.92-4.82-3.28-4.34-10.78-10.17
		c2.35-0.9,4.27,0.48,7.65-1.21c1.04-0.52,22.82-3.19,26.39-24.58c1.51-6.81,2.55-5.62,3.63-17.22c0.68-7.31,2.12-7.21,5.62-10.76
		c0.17,0.36,0.52,0.55,1.03,0.48c8.5-1.14,11.56-5.66,14.4-12.29c0.91-1.81,0.05-6.43-0.6-10.68c-1.33-8.72-4.77-10.72-7.45-14.3
		c0.5-0.5,1.01-1.01,1.51-1.61c5.04,5.04,5.44,7.83,13.6,10.37c7.94,2.48,7.6-5.41,11.08-7.25c1.31-0.6,1.21-2.22,1.41-3.73
		c0.5-0.2,1.11-0.4,1.61-0.5c2.78-0.83,1.9-4.09,4.13-5.84c11.83,1.69,3.11-8.87,9.87-17.32c4.78-1.59,7.8-3.61,9.06-10.17
		c1.85-9.59,5.96-21.55,0.81-29.91c-13.42-21.76-20.87-27.62-47.14-26.59c-3.15-7.96-9.23-7.84-14.3-9.47
		c-11.57-3.71-15.26,2.04-19.74,12.69c-3.05,7.24-4.42,14.17-4.43,15.21c-0.12,17.28-13.61,36.42-11.58,42.5
		c1.51-0.71,1.31-2.42,2.52-3.53c-0.81,4.94-0.71,9.57,0.5,14.2c-3.12,1.11-2.73,1.13-19.64,3.32c-3.39,0.44-5.06-0.73-8.56,0.91
		c-7.39,3.46-13.75-0.25-28.5,8.26c-7.7,4.44-16.27,3.39-27.19,7.96c-13.79,5.76-8.93,6.91-23.06,11.88
		c-10.69,3.77-13.35,7.02-33.24,22.06c-1.21,0.91-2.42,2.01-3.63,3.12c-0.91-0.4-1.61-0.98-2.92-0.81
		c-8.61,1.16-18.74,5.35-24.88,11.99c-8.83,9.55-12.65,24.61-11.48,34.65c0.58,4.95-0.67,2.99-0.6,7.45
		c0.15,10.89,6.13,21.27,12.89,27.19c10.19,8.92,7.92,11.54,21.15,29.61c10.16,13.87,10.45,17.21,15.21,21.86
		c4.96,4.83,19.7,20.76,24.27,28.5c7.29,12.35-8.34,29.56-8.96,49.76c-0.65,21.11,7.87,41.2,8.56,46.23
		c1.66,12.03,11.77,37.12,10.07,43.91c-4.45,2.22-5.84,2.63-5.84,8.96c0,3.89-1.31,1.46-1.31,11.78c0,5.27-0.82,5.41-3.12,13.7
		c-8.15,4.59-3.45,16.62,18.13,16.62c3.02,0,3.02,0,5.64-1.81c4.42,1.66,4.42,4.02,8.66,4.83c5.3,1.02,12.78,4.52,34.95-0.91
		c4.13-1.01,3.89-1.84,8.66-4.23c6.04-3.02,3.26-3.43,6.45-5.34c3.42-2.37,0.53-7.19-2.92-9.27c-4.58-2.75-7.24-2.97-10.37-7.35
		c-7.74-10.83-14.17-10.83-17.63-16.82c-2.87-4.31,2.22,3.74-9.87-20.45c-2.22,0.5-4.33,0.91-6.75,1.41
		c-1.79-4.47-2.98-24.34-3.32-29.11c-1.6-22.48,1.81-8.68,1.81-52.88c0-37.14,10.38-47.86,7.45-52.37c-0.64-0.98,0.38-4.72,0.5-5.24
		c0.8-3.41-4.58-14.84-5.94-18.23c0.71-0.4,1.01,0.1,1.31,0.3c24.26,19.49,23.34,18.62,27.6,25.08c0,25.51-1.49,14.84-2.72,27.09
		c-3.48,20.87-0.42,32.84,6.35,48.95c7.28,17.32,4.81,5.84,15.01,50.86c-0.89,1.6-6.84,1.42-6.95,8.06
		c-0.1,6.25-1.23,4.56-0.91,9.57c0.66,10.17,3.18,8.31-3.22,23.97c1.18,1.57,0.81,1.64,12.59,4.13c2.6,0.55,11.45-0.51,13.7-0.91
		c5.78-1.02,6.86-3.82,8.86-0.2c1.92,3.02,10.3,4.61,14.81,4.33c1.52-0.09,5.03-0.35,6.35,0.4c3.8,2.17,16.27-0.87,20.45-2.12
		c2.29-0.68,5.95-3.58,9.37-5.94c1.45-1,1.21-1.76,1.21-5.64c-0.55-9.02-14.5-6.64-19.34-10.88c-0.1-0.09-14.11-13.37-16.92-15.11
		c-9.6-5.93-4.94-14.91-11.89-17.93c-5.77,0-4.83,0.33-4.83-1.81c0-8.99-2.07-23.35-1.61-41.8c0.31-12.66,0.83-23.22-0.5-33.54
		c-1.41-10.85-2.73-18.01-2.62-18.94c1.07-8.77-2.14-13.15-1.61-22.66c0.43-7.59-0.39-3.63-0.5-8.96
		c-0.24-11.61,0.13-13.04-9.67-24.58c-0.1-0.2-0.1-0.4-0.2-0.91c0.71,0,1.41-0.1,2.12-0.1c0.71,0,1.61,0.4,2.12,0.1
		c1.81-0.91,3.23-0.02,4.83,0.6c33.4,12.96,224.17,90.6,227.02,91.55c0.21,0.11,2.33-0.54-0.91-1.91
		c-9.82-4.18-227.7-91.46-229.34-92.96c3.11-1.33,226.02,89.32,232.46,91.25c2.36-1.68,4.2,0.21-101.32-42.1
		c-143.94-57.71-128.68-49.74-129.83-54.89c-2.28-0.65-0.13,2.41-4.13,5.94c-11.25,0.8-5.45-1.97-18.53-5.74
		c-30.07-8.66-27.89-8.45-37.17-11.68c-3.39-1.18-6.29-4.68-4.03-7.96c1.13-1.63,2.36-1.07,7.25-1.61
		c8.83,6.13,20.08,6.58,34.24,12.79c3.08,1.15,3.92,0.1,6.04,2.01c2.06,2.06,6.01,3.38,11.99,5.54c0.81,0.29,1.61,0.6,2.42-0.3
		c-0.3-0.3-0.5-0.81-0.81-1.01c-0.99-0.45-8.21-3.39-11.38-4.63c-4.09-1.61-8.15-21.53-32.33-46.53c-2.3-2.38-2.11-3.35-8.06-9.17
		c-3.1-3.03,16.38,3.76,26.89,0.6c2.82,2.01,5.64,3.93,8.56,5.94c5.72,6.74,21.02,13.78,24.17,18.73c2.09,3.28,5.04,5.54,8.16,7.86
		c0.4,3.83,3.64,5.32,6.55,6.95c1.6,0.9,2.6-0.23,5.94,0.6c13.83,3.44,21.94,5.95,34.85,5.44c6.68-0.26,173.03,73.83,177.77,73.83
		c-1.68-3.37-172.35-72.9-173.34-76.35c1.67,0.16,171.67,71.16,175.56,72.62C900.22,360.24,900.13,359.62,899.52,359.33z
		 M717.82,165.75c0.48,4.32,1.71,6.71,1.71,12.39c0,8.45-11.82,13.54-13.7,12.29c-1.01,0.2-1.71,1.21-3.02,1.41
		c0.01-0.1,4.33-22.97,4.33-23.67c0-0.91-0.2-1.91-0.2-2.82c0-5.48,0.04-2.9-0.3-5.94c1.51-1.11,3.12-1.51,4.83-1.61
		C714.5,157.79,717.5,162.9,717.82,165.75z M761.23,83.46c-0.34,0.01-0.52-0.21-0.57-0.5C760.84,83.13,761.01,83.31,761.23,83.46z
		 M726.38,65.53c0.05,0.11,0.08,0.21,0.11,0.3C726.3,65.8,726.1,65.81,726.38,65.53z M724.77,64.93l0.1,0.1
		C724.61,65.03,724.64,65.05,724.77,64.93z M692.94,56.16c2.33-3.26,5.87-3.22,9.87-2.62c-0.4,0.71-0.71,1.11-1.21,1.81
		c2.01,0.1,3.93-0.6,5.44,0.71c0.71-0.28,2.36-1.91,6.65,0.71c2.12,1.29,3.63,3.12,4.63,5.34c-0.81,1.01-1.91,1.21-3.12,1.31
		c-1.51-5.14-3.63-7.15-8.16-7.35c0.77,1.66,5.33,2.66,5.84,6.24c0.09,0.61,0.1,1.21-0.5,1.61c-1.94,1.45-3.85-8.77-15.01-7.76
		c-5.36,0.49-2.14,2.21-5.14,6.04c-3.44,4.4-6.25,15.66-8.45,18.52C684.84,70.44,689.28,60.74,692.94,56.16z M709.46,64.22
		c-0.09-0.35-0.11-0.63-0.18-0.98C709.78,63.37,709.92,63.66,709.46,64.22z M683.76,80.88c-0.32,1.68,0.04,1.07-0.58,1.07
		C683.36,81.56,683.57,81.26,683.76,80.88z M676.06,117.22c-0.27,0.34-0.99-0.51-0.64-1.93c2.18-12.78,5.23-15.17,5.74-16.32
		c1.29-2.88,2.39-5.86,3.59-8.83c-0.37,0.07-0.83,0.09-1.36,0.18c1.6-9.6,11.68-31.19,11.68-31.53c0.71-1.51,1.81-2.1,3.42-2.01
		c4.53,0.24,7.96,2.22,10.58,5.74c0.79,1.69-1.27-2.08-6.35-2.82c-5.32-0.78-9.44,3.64-8.46,7.55c1.31-3.53,3.12-6.23,6.85-6.35
		c2.82-0.09,5.44,0.6,7.15,3.63c-4.89,0-8.51,0.02-11.68,3.83c-0.28,0.28-0.3,0.73-0.38,1.19c1.52-0.22,4.04-4.71,10.66-3.3
		c-2.12,1.71-4.13,3.12-5.84,4.73c-0.32,0.3-5.11,5.11-4.75,5.35c-1.5,1.01-2.11,2.62-2.21,4.42c0.71-1.5,1.5-3,2.21-4.41
		c1.03,0.59,0.51,1.69-0.59,3.91c-6.96,16.8-2.44,31.58-2.62,32.43c-1.31,6.28-2.08,4.94-8.26,12.49c0.3-2.32,0.3-2.32-0.5-3.22
		c-4.75,5.48-4.77,6.45-2.92,0.91c6.54-16.51,4.49-21.24,8.86-31.73c0.61-1.23-1.4-1.02-2.12,0.6c-1.42,3.22-2.66,6.43-4.23,9.47
		c-0.1,0.2,0,0.5-0.1,0.71c0.44,0.65-0.32,0.69-0.71,1.61c-6.78,16.23-3.45,21.09-7.76,29.31c-2.58,2.58,0.7-12.03,0.71-15.31
		c0-0.08,0.02-0.05,0.1,0C676.01,117.4,676.03,117.46,676.06,117.22z M704.22,71.37c-0.23,0.08-0.47,0.28-0.65,0.46
		C703.57,71.4,703.83,71.29,704.22,71.37C704.12,71.37,704.52,70.97,704.22,71.37z M696.18,111.7c-0.93-0.51-1.1-1.49-1.32-2.46
		c-0.09-0.41,0.5-0.71,0.71-1.01c0-0.46-0.01-1.02-0.09-1.5c0.99,0.4,0.39,0.9,0.09,1.5C695.46,109.32,696.53,110.32,696.18,111.7z
		 M694.15,103.3c1.82,2.02,1.31,3.65,1.31,3.32C693.85,106.02,693.75,104.91,694.15,103.3z M693.75,99.17
		c0.67-14.76,1.91,0.42,1.91,3.42C695.06,101.39,693.85,100.68,693.75,99.17z M681.36,112.87c0.13,0.13,0.1,0.04,0.1,0.4
		C681.33,113.15,681.36,113.23,681.36,112.87z M681.69,117.64c-0.07,0.22-0.13,0.46-0.13,0.77
		C681.48,117.92,681.48,117.82,681.69,117.64z M682.38,115.36c0.08,0.65,0.06,1.38-0.51,1.94
		C681.84,116.59,681.75,115.83,682.38,115.36z M682.46,109.63c-0.02,0.47-0.09,1.01-0.09,1.63
		C681.8,110.5,681.94,110.02,682.46,109.63z M683.16,113.31c-0.08,0.77,0.15,1.59-0.69,1.92
		C682.55,114.57,682.32,113.66,683.16,113.31z M682.58,109.32c0.04-0.88-0.11-1.73,0.55-2.45
		C683.04,107.68,683.25,108.6,682.58,109.32z M683.29,106.33c0.01-0.62-0.04-1.31,0.79-1.72c0-0.73,0-1.45,0-2.24
		C684.8,103.72,684.13,104.4,683.29,106.33z M684.78,106.63c0.29,2.22,0.29,2.43-0.76,4.18
		C684.31,109.39,684.59,108.05,684.78,106.63z M683.89,111.12c0.18,0.85,0.16,1.6-0.62,2.09
		C683.16,112.45,683.02,111.62,683.89,111.12z M671.3,137.05c5.47-2.24,5.58-0.49,8.66-3.02c12.72-10.43,13.8-17.53,15.21-18.94
		c1.49,1.12,0.86,0.9,3.42-0.2c0.23-1.6,0-3.1,0-3.83c0.5-0.2,1.01-0.2,1.11-0.4c1.22-6.53,8.01-9.79,3.9-8.87
		c-2.39-8.57-2.89-11.08-2.69-14.19c2.97,4.46,4.51,13.3,9.65,14.84c-2.12-3.1-6.71-15.24-9.04-17.05
		c-0.21-0.16-1.67-3.63-1.71-3.73c-1.38,4.15-2,0.96-2.92,6.65c-1.82,11.33,4.89,17.7,1.61,18.43c-4.75-15.82-3.39-18.83,2.72-32.13
		c0.49-1.06,0.98-2.11,2.24-2.29c0.15,3.57-0.76,0.93,5.12,15.98c0.2,0.4,0.4,0.81,1.21,0.5c-0.72-8.24,0.17-0.75,4.83,6.24
		c0.96-1.12-0.41-1.38-3.22-8.56c-3.48-8.87-4.08-14.64-2.96-4.05c-1.74-2.27-3.13-7.35-3.79-9.55c5.27-4.28,4.66-3.72,5.44-3.53
		c-0.24,2.12-0.87,2.26,0.2,5.84c4.96,16.54,11.13,19.79,12.09,23.37c0.94,0.94-0.55-0.17,10.68,7.65c2.52-0.4,5.14,0.91,7.76-0.2
		c-0.1-0.5-0.2-0.91-0.2-1.31c-2.41-0.54-2.33-0.29-2.12-0.5c-4.23,2.54-15.86-5.98-16.12-9.28c-1.21-0.46-1.56-1.61-1.92-2.66
		c3.09,2.62,1.16,2.24,2.73,2.76c2.19,0-6.25-9.22-11.78-24.17c-0.92-2.5-0.94-3.04,2.92-4.33c-0.56,7.3,7.99,18.84,12.79,24.37
		c1.27,1.27,2.45,3.03,3.22,0.71c-4.45-6.06-11.08-14-12.89-21.25c6.52,3.91,11.19,14.05,12.26,15.53
		c-0.77-8.01-16.49-21.03-9.64-16.44c4.02,2.69,6.35,5.55,9.47,9.37c-1.35-6.09-9.45-10.8-12.89-13.19
		c4.93-3.89,10.42,5.28,15.7,5.91c-2.91-3.38-2.28-2.56-5.55-5.53c1.95-0.24,10.71,7.22,12.91,6.67c0-1.03,1.35-0.92-10.68-7.86
		c-5.44-2.72,17.33-1.06,24.17,7.15c6.26,7.51,7.4,7.97,7.25,10.65c-1.93-1.17-3.57-4.08-10.27-8.33c-6.43-4.08-5.05-3.76-7.42-4.37
		c1.29,1.67,3.25,2.67,4.8,4.17c-0.01,0.02-0.02,0.03-0.02,0.04c0.13-0.02,0.48,0.42,1.42,1.37c1.84,0.92,0.42-0.33,7.35,6.14
		c4.88,4.56,7.53,12.76,6.75,14.71c-2.94-5.15-1.74-5.35-5.22-9.51c0.28,0.89,0.63,1.77,0.89,2.66c0.2,0.67,0.2,1.27,0.38,1.94
		c-1.61-0.83-2.2-2.49-3.1-3.86c-1.34-2.05-0.96-1.86-1.71-1.11c0.76,3.78,3.25,2.35,4.83,8.96c-0.64-0.09-1.29-0.1-1.85-0.18
		c0.53,1.19,1.8,1.39,2.86,1.69c3.7,1.06,2.14-0.14,5.24,2.52c0.3,0.2,0.6,0.3,1.11,0.5c0.98-6.85-0.7-7.3-3.42-14.1
		c-1.29-0.59-1.79-1.29-1.71-2.37c0.85,0.41,1.41,1.1,1.31,2.06c1.51,0.5,1.49,2.03,2.22,3.12c2.55,3.87,2.99,8.15,2.32,12.69
		c-0.41,2.78,0.02,3.87-1.21,7.45c-5.36,15.63-3.06,16.56-6.75,17.02c-1.98,0-3.9-0.6-5.44,3.53c-2.52,6.73-1.76,8.68-2.01,12.79
		c0,2.85-3.51,2.75-4.73,0.4c-0.58-1.12-1.91-0.91-3.83,0.1c3.93,2.81,0.9-0.02,0.2,6.95c-3.22,0.81-6.04-0.3-8.66-1.71
		c-0.3,0.4-0.5,0.71-0.71,1.01c1.11,2.12,3.63,1.71,5.24,2.82c0.4,0.91,0.71,1.81,0,2.72c-4.62,1.68-2.97,0.04-3.93,4.03
		c-0.56,2.33-2.82,3.83-4.94,3.02c-12.5-4.78-9.26-7.62-17.41-14.49c-1.55-1.3-6.08-11.12-7.65-16.62
		c-2.19,9.72,7.89,19.62,8.66,20.65c-5.46,5.14-4.38,4.77-6.65,5.74c-8.42,3.61-8.3,2.64-11.28,7.86c1.51,1.51,2.37-0.12,4.73-2.22
		c1.31,1.31,1.43,1.41,1.31,2.12c-1.6,9.61-0.18,8.56-9.77,8.56c-2.61,0-7.08,3.08-5.34,4.13c1.91-1.2,3.13-1.81,5.54-1.81
		c5.77,0,6.49-2.64,7.55-1.31c0,2.22-2.86,18.23-6.95,27.9c-1.46,3.44,1.24,5.03-2.72,10.17c-4.18,5.43-10.97,8.83-17.63,7.45
		c-0.41-9.75-1.73-8.55,4.13-14.4c-2.01-0.2-2.01-0.2-4.63,2.42c-0.6,0-1.11,0-1.61,0c-1.11-0.6-1.31-2.22-2.92-2.32
		c0,5.38,4.06,5.46,2.62,14.1c-6.65,1.61-11.48-0.71-14.71-6.85c0.3-0.5,0.6-0.91,1.01-1.41c-0.55-2.76-2.9-9.16,1.01-20.24
		c2.88-8.15,1.83-7,3.63-10.07c5.72-9.76,7.53-16.74,7.45-17.12c-0.4-2.01,0.31-3.83,0.4-5.74c0.11-2.11,0.4-4.23,2.01-5.84
		c-1.18-1.38-2.22-2.22-2.22-5.54C667.11,132.59,663.69,140.17,671.3,137.05z M696.28,111.85c0.76,0.58,0.48,1.27,0.19,2.33
		C696.37,113.21,696.37,112.53,696.28,111.85z M698.88,84.57c1.68,3.91,1.39,15.9,4.6,17.26c-0.6,1.19-1.6,1.98-2.79,2.48
		C697.68,98.97,696.77,89.91,698.88,84.57z M708.63,82.97c0.68,0.46,0.57,1.18,0.53,1.85C708.62,84.35,708.56,83.64,708.63,82.97z
		 M759.62,92.02c0,0-0.1,0.2-0.1,0.3C759.26,91.56,759.09,91.49,759.62,92.02z M495.63,259.42c-0.96-1.48-3.79-7.5-3.83-9.27
		c-0.09-4.17-1.85-18.45,1.81-28.91c3.47-9.9,4.84-13.78,9.57-18.23c7.22-6.8,7.39-4.84,10.88-6.85c3.99-2.29,8.36-3.42,13.4-4.23
		c-1.41,1.21-2.12,2.22-2.22,3.63c0,2.76-4.36,2.3-5.44,12.59c-0.72,6.89,5.77,11.56,10.78,17.63c0.95,1.15,3.79,2.92,5.34,3.63
		c4.36,2.31,5.15,6.09,7.15,8.26c2.49,2.7,2.19,1.14,16.52,18.33c-9.72,4.86-2.18,0.73-18.13,6.04c-9.32,3.11-5.13,3.53-34.14,1.31
		C504.67,263.14,497.13,261.74,495.63,259.42z M534.51,223.86c0.3,0.6,0.3,1.31,0.6,1.91c0.2,0.1,0.6,0,0.2,0.5
		c-0.1-0.1-0.1-0.3-0.2-0.5c-2.11,0.79-13.12-12.36-12.59-15.51c0.33-3.3,0.61-7.84,2.32-9.97
		C526.27,209.89,525.53,205.91,534.51,223.86z M599.68,483.92c0.6-0.2,1.41,0,2.01,0c5.97,11.93,1.3,0.67,6.85,12.69
		c-6.85,1.28-11.5,2.14-15.01,8.06c9.14-4.06,7.03-3.32,16.32-5.64c0.71,0.91,1.51,1.51,1.11,2.72c-5.78,1.65-14.58,3.18-12.49,7.96
		c4.33-3.12,9.57-3.63,14.5-5.44c1.55,1.77,1.99,1.96,2.52,3.02c-3.09,1.55-10.93,0.16-10.07,6.45c5.79-4.1,10.51-1.16,14-4.43
		c9.68,9.11,9.63,11.03,11.38,11.99c1.02,0.56,7.24,5.83,10.98,7.45c1.41,0.61,1.71,1.81,1.41,3.22c-4.39,0.4-7.91,1.22-9.47,5.44
		c11.82-7.39,7.93-0.97,4.43,0.3c-2.22,0.81-9.12,5.21-16.82,6.24c-0.77,0-12.69,3.61-26.49-0.4c-5.22-1.52-4.53-4.31-10.47-4.73
		c-1.65,2.89-12.05,0.85-17.32-0.2c-3.52-0.7-7.9-4.47-7.05-7.86c1.62-1.22,4.23-3.28,4.23-7.15c0-3.68,3.15-4.23,3.02-10.27
		c-0.04-1.81-0.35-4.76,0.5-7.15c2.37-6.65-1.77-10.83,4.43-12.69c0.2,0.71,0.5,1.31,0.3,1.51c-3.14,3.57,0.45,11.78,5.74,8.16
		c10.08-6.91,7.65-4.1,12.99-16.32C593.63,485.54,596.65,484.73,599.68,483.92z M597.76,331.84c0.05,0.32,3.58,8.26,3.63,8.36
		c1.92,4.2,1.38,7.01-2.82,20.65c-4.78,15.53-3.21,22.51-4.03,27.4c-2.22,13.23-1.29,20.51-1.51,27.7
		c-0.08,2.45-4.34,58.71,2.72,67.28c-2.42,0.4-3.42,2.92-6.04,2.42c-3.88,8.87-0.95,1.53-3.53,9.27c-3.22,2.52-6.14,5.54-10.17,6.95
		c-2.42-2.62-2.62-2.92-2.32-4.43c0.4,0.2,0.71,0.5,1.11,0.71c0.42-1.87,2.61-7.02,0.4-14.6c-1.55,1.03-0.39,3.48-10.88-37.57
		c-0.72-2.82-0.64-5.77-2.12-8.36c-0.78-1.37-1.9-14.44-4.63-18.43c-0.85-1.24-2.78-14.84-0.81-24.27
		c2.62-12.5,6.27-15.16,9.47-26.79c4.04-14.69-4.23-22.06-10.68-30.42c-11.54-14.95-10.1-8.55-19.34-21.86
		c-17.27-24.89-15.41-20.47-18.43-26.69c-7.19-14.8-11.53-15.69-19.34-24.88c-2.15-2.15,1.77-0.54,6.35,0.3
		c30.87,5.7,35.67-1.1,55.8-6.85c2.36,2.96,8.55,12.55,10.88,18.43c3.32,8.39,5.63,4.78,11.99,17.73
		c11.87,24.19,8.14,17.38,11.58,29.41C595.88,326.19,597.46,328.81,597.76,331.84z M588.22,294.43c-0.01,0.02-0.02,0.03-0.03,0.04
		C588.16,294.41,588.18,294.41,588.22,294.43z M609.24,301.32c30.19,9.43,37.28,9.45,42.81,18.13c4.02,6.3,4.91,4.92,5.94,9.17
		c1.09,4.47,3.61,17.64,2.52,22.86c-1.28,6.13,0.35,12.18,0.2,18.33c-0.02,0.85,6.59,22.96,3.32,61.64
		c-0.64,7.51,1.15,18.66,1.31,25.48c0.1,4.32,0.99,7.7,2.12,12.19c-3.7,0.99-7.7,6.63-7.86,8.36c-1.08,6.74-10.82,8.7-13.6,5.14
		c-0.1-0.1-0.4,0.1-0.71,0.1c-0.4,1.01-0.3,1.81,0.91,2.82c1.81,0.1,3.93,0.3,6.14,0.3c3.79,0,8.54-4.26,10.17-7.76
		c1.23-2.65,4.52-6.51,6.14-6.85c1.82-0.38,3.73-0.71,5.64-0.2c1.61,3.63,1.81,7.76,4.43,11.08c-2.59,1-7.11,1.68-8.66,5.64
		c-1.66,3.33,5.79-1.85,10.68-2.62c0.5,0.71,1.51,1.01,1.61,2.32c-1.01,0.3-2.01,0.71-3.02,0.91c-2.21,0.44-5.84,3.54-4.03,4.63
		c12.27-3.07,10.6-2.95,12.39-1.41c-2.99,1.5-6.73,1.65-6.35,4.73c3.63,1.01,6.55-0.91,9.77-1.91c1.71,1.37,1.31,1.28,1.31,1.61
		c-0.22,0.13-4.94,3.06-4.94,3.32c0,2.1,7.41-0.29,8.36-0.5c7.81,8.85,17.29,6.58,22.16,10.47c-3.88,1.41-7.57,3.67-8.76,7.65
		c4.02-3.16,6.12-5.54,8.96-5.54c1.21,2.42,1.21,2.42,1.01,4.53c-7.35,5.72-6.63,5.51-14,7.35c-8.76,1.64,1.33,0.3-20.75,0.3
		c-4.13,0-8.16-0.71-12.19-2.52c-0.71-1.41-1.72-2.7-3.32-3.42c-4.25-1.91-2.58,1.94-10.07,2.32c-1.98,0.1-19.95-0.47-21.55-3.22
		c0.71-2.32,1.31-4.73,2.22-7.05c3.29-8.39-0.49-10.67,1.01-18.43c1.11-5.76-2.66-10.28,5.34-11.89c1.21,0.5,1.01,2.01,2.22,2.52
		c0.2-0.3,0.5-0.6,0.5-0.91c0-13.93-0.05-12.21-1.01-8.36c-2.02-5.06-1.39-6.78-3.73-12.39c-7.95-23.85,1.76-6.87-14.91-45.42
		c-4.36-10.1-5.2-33.3-1.01-45.83c2.72-8.14,0.21-11.14,2.12-16.22c-3.99-9.87-14.61-17.87-22.96-24.37
		c-3.51-2.74-6.65-5.94-10.78-8.06c-0.1-0.5-0.31-1.01-0.5-1.61c-1.04-3.21-1.11-6.65-3.42-9.37c-5.57-16.71-1.76-6.3,2.92-1.61
		c2.62,0.4,4.42,0.28,6.04-0.4c2.52-1.05,0.33-1.78,5.04-3.73C607.85,303.04,608.32,302.85,609.24,301.32z M606.52,286.51
		c-5.47-2.92-2.74-2.32-9.37-2.32c-4.03,0-5.79,3.85-5.04,7.86c0.35,1.87,4.61,3.98,5.74,4.33c2.01,0.62,3.53,1.91,5.34,2.62
		c-0.5,1.31-2.32,1.11-2.42,2.82c2.32,0.91,3.93-1.81,6.55-1.31c-2.62,2.12-5.94,2.52-7.45,5.04c-3.22,1.31-5.3,0.18-6.75-2.52
		c-2.31-4.31-1.95-1.5-0.6-4.63c-1.01-1.81-1.41-3.83-3.22-5.14c-0.45,0.45-0.75,0.75-1.02,1.1c-1.86-1.16-0.85-1.66-1.9-2.71
		c0.51-0.05,0.69,0.23,0.6,0.71c1.11-1.51,1.11-1.51-0.91-2.72c1.16,4.04-1.98,0.15-2.89-1.76c-1.95-1.12-2.67-3.29-3.86-5.19
		c-2.25,0-3.4-2.3-6.24-6.85c-1.18-2.36,0.92-0.98-1.31-4.63c-6.32-10.36-10.19-17.03-16.12-22.96c-6.35-6.35-6.78-8.82-10.07-11.78
		c-1.16-1.16-2.95-5.06-4.23-6.35c-3.14-3.14-4.91-8.26-11.88-20.24c-3.61-6.21-2.42-9.13-2.42-11.38
		c-0.48-5.16,3.84-7.06,4.13-7.35c20.59-15.7,22.19-17.75,31.93-21.86c16.35-6.9,17.99-10.88,21.35-10.88c0.5,0,1.41-0.5,1.51-0.91
		c0.42-2.95,17.84-6.74,21.05-5.94c3.44-3.01,1.79-0.36,15.61-6.95c5.79-2.76-0.6-0.33,21.15-3.63c6.82-1.03,0.82-1.55,11.28-2.42
		c1.85,2.9,5.79,15.06,4.63,25.38c-0.59,5.29-2.4,5.45-2.92,9.57c-0.65,5.17-8.69,14.37-12.29,18.43
		c-3.56,4.02-17.71,6.39-23.47,3.83c3.77-2.46,11.04-0.14,5.84-2.22c-0.6-0.2-1.32-0.09-1.71-0.4c-2.4-1.9-5.03-0.95-6.75-1.81
		c0.1-0.5,0.1-1.11,0.3-1.91c-13.03-0.38-10.78-1.32-7.96,1.51c-3.81,0.48-0.48-0.68-8.06,0.5c-4.91,0.77-0.43,0.71-35.35,7.15
		c-11.09,2.05-7.38,1.59-11.28,0.81c-0.2,0-0.5,0.3-0.91,0.5c1.51,1.31,3.73,0.91,4.94,3.02c2.25,10.94,2.67,17.28,7.45,28.2
		c3.22,7.35,7.38,16.81,9.77,28.2c0.41,1.95,1.8,2.93,6.11,9.82c-0.39-0.15-0.9-0.18-1.08-0.45c-1.71-2.01-3.8-3.64-5.24-5.84
		c-0.4-0.61-0.91-1.11-1.81-0.71c0.1,0.4,0.2,0.81,0.4,1.01c2.36,2.36,6.79,11.69,8.5,6.9c3.12,3.48,0.65,2.77,10.94,2.77
		c1.51,1.41,3.04,2.5,4.33,3.93c1.53,1.69,3.02,3.42,4.83,4.23c0.5,1.01-0.1,2.01,1.21,2.42c0.3-0.4,0.6-0.91,0.91-1.41
		c1.26,0.36,1.31,0,3.02,1.71C608.64,284.9,607.83,285.91,606.52,286.51z M611.66,288.73c-2.62-0.87-2.05,0.01-0.2-4.43
		C612.57,285.81,612.57,287.12,611.66,288.73z M617.4,290.64c-0.2-0.1-0.2-0.4-0.4-0.71c0.3-0.4,0.6-0.81,1.01-1.21
		c2.72,1.31,5.24,2.52,7.76,3.83C625.45,293.18,626.47,293.78,617.4,290.64z M639.36,296.68c0,0,0,0.1,0.1,0.2
		c-0.09,0-0.17-0.09-0.26-0.24C639.26,296.68,639.36,296.68,639.36,296.68z M633.32,285.91c1.35,1.87,4.94,7.97,5.84,10.68
		c-2.9-0.58,2.76,1.2-19.94-9.27c-3.19-1.47-2.73-3.66-4.53-3.12c0.77,2.3,1.86,3.6-0.5,4.03c-0.85-3.41-0.77-5.57-3.22-6.45
		c-5.28-2.26-6.49-2.45-8.36-4.73c-5.82-7.1-6.18-5.94-14.4-5.94c-4.43-4.63-6.75-8.16-7.35-11.18c9.37-2.92,18.94-5.34,29.11-5.34
		C627.59,272.72,618.52,265.29,633.32,285.91z M606.73,252.27c-1.21,0.3-2.32,0.88-3.53,0.91c-4.02,0.07-9.22,2.31-9.77,2.32
		c-5.91,0.07-9.26,2.12-14.2,2.12c-1.54-3.34-5.04-13.67-5.04-17.02c4.43,0.5,8.46,0.91,12.49,1.51c4.13,0.61,8.46-0.1,12.49,1.41
		C602.19,245.92,605.42,248.24,606.73,252.27z M596.96,240.58c-0.96-0.33-1.58,0.16-5.34-0.5c-26.45-4.68-14.67,3.24-23.27-13.5
		c-3.12-6.07-3.36-13.01-6.35-23.97c42.56-8.21,31.85-9.98,34.75-2.72c1.05,2.64,1.33,5.33,1.81,8.06
		c1.27,7.15,5.59,12.55,10.37,20.75c3.55,6.09,8.86,9.67,15.61,10.37c2.32,1.41,4.53,2.72,6.65,4.03
		C627.27,246.19,600.55,241.8,596.96,240.58z M623.45,237.96c-10.82-4.58-13.08-12.2-19.24-22.46c-0.49-0.81-1.02-1.71-1.11-2.62
		c-0.35-3.53-6.23-15.82-4.63-18.33c5.84-1.71,11.89-1.11,17.53-0.91c1.95,3.17,2.55,5.67,11.18,6.24
		c14.92,0.99,22.94-8.55,30.72-21.15c0.75-1.22,4.38-7.27,4.13-9.47c-0.32-2.85,1.39-5.38,1.01-10.58
		c-0.56-7.59-2.99-15.12-5.94-19.84c1.6-0.11,6.9-0.52,7.96-0.1c0.67,2.47,1.03,3.38,1.61,12.09c1.22,18.19-7.19,23.22-12.19,42.6
		c-3.28,12.72-0.73,12.7-1.81,14.5c-0.88,1.76,1.31,5.89,2.01,7.05c5.34,8.76,12.4,6.28,15.41,7.05c1.92,0.49,3.83,0.44,5.74,0.5
		c6.85,0.23,12.1-2.91,15.81-8.56c1.98-3.01,5.4-9.64,5.64-14.3c0.22-4.26,0.98-5.31,2.82-12.99c1.38-5.78,0.24-5.5,0.71-8.26
		c0.9-5.34,2.62-10.47,3.02-15.91c0-0.4,0.4-0.81,0.91-1.91c0,7.33,0.94,3.12-0.1,9.97c-0.02,0.1-2.81,15.87-4.23,20.85
		c-2.85,9.98-1.79,12.17-4.73,25.78c-3.5,16.14-17.59,25.89-28.91,25.38c-8.08-0.36-12.1-1.15-16.52,0
		c-8.44,2.2-13.57-0.5-18.03-1.81C623.72,238.28,624.61,235.06,623.45,237.96z M701.2,261.63c0.3,1.31,1.11,1.71,0.5,2.62
		C700.41,263.65,700.55,264.22,701.2,261.63z M687.3,265.76c1.6-1.42,3.05-0.39,5.44,1.11c4.63,2.42,5.01,3.22,4.23,8.46
		c-0.21,1.41-0.5,1.61-2.82,1.61c-0.1-2.22-0.3-4.43-0.4-6.75C689.34,267.99,688.05,268.01,687.3,265.76z M694.55,279.36
		c3.55,0.58,3.64-3.16,4.83-3.42c1.62-0.36,2.42-1.91,3.83-2.82c4.63,3.12,8.86,6.45,13.19,10.47c-3.57,0-17.9-1-24.58-3.22
		C693.14,279.86,693.95,279.26,694.55,279.36z M720.54,288.83c-15.44-0.27-12.18-0.36-37.07-5.64c-0.5-0.2-0.5-1.31-1.61-1.21
		c-0.71,1.06-1.69,2.87-3.12,1.61c-1.41-1.41-3.02-2.82-3.53-4.83c1.15-2.18,5.7-5.87,7.65-3.12c0.92,1.3,2.52,2.22,2.52,4.13
		c0,0.3,0.6,0.81,1.01,1.01c8.74,4.37,22.55,3.82,31.02,5.74c0.3,0.1,0.6-0.2,1.01-0.4c-0.42-6.06-2.76-6.33-12.99-13.9
		c-2.08-1.54-1.6-0.66-3.32-7.55c3.06,2.04,20.75,18.87,20.75,22.76C721.45,288.83,721.45,288.84,720.54,288.83z"/> <path d="M732.53,71.57c-0.22-0.03-0.27-0.07-0.1,0.1L732.53,71.57z"/> <path d="M696.06,69.56l0.1,0.1C696.21,69.47,696.17,69.56,696.06,69.56z"/> <path d="M684.88,90.11l-0.1-0.1C684.72,90.13,684.71,90.15,684.88,90.11z"/> <path d="M697.68,500.95l0.1,0.1C697.76,501.02,697.69,500.96,697.68,500.95z"/> <path d="M133.54,197.07l-0.1-0.1C133.48,197.13,133.39,197.07,133.54,197.07z"/> <path d="M268.71,70.37l0.1,0.1C268.85,70.35,268.91,70.41,268.71,70.37z"/> <path d="M317.36,71.27l-0.1,0.1C317.51,71.48,317.38,71.41,317.36,71.27z"/> <path d="M6.23,213.09c-0.07,0.05-0.13,0.09-0.2,0.15C6.38,213.2,6.32,213.26,6.23,213.09z"/> <path d="M266.59,271c-73.51-32.73-53.49-22.25-44.62-25.18c3.69-1.22,4.76-0.34,15.31,0.3c2.91,0.18,3.31-0.64,8.36-1.91
		c22.21-5.61,23.05-25.19,23.47-25.89c2.69-5.23,3.15-17.38,3.73-19.44c2.76-9.85,10.22-3.41,17.32-12.19
		c1.96-2.42,0.36-1.65,2.82-5.04c1.48-2.31,1.44-3.96-0.5-14.5c-1.04-5.64-2.71-6.57-6.55-11.68c1.01-0.4,1.71-0.71,2.42-1.11
		c5.48,6.12,6.96,9.13,15.41,10.68c5.43,0.99,6.36-6.01,7.76-6.85c2.01-0.91,2.62-2.62,2.72-4.63c3.35-1.34,2.26,0.34,5.04-6.14
		c3.23,0,7.83,0.34,7.45-5.14c-0.27-3.89,0.67-11.82,4.03-12.69c7.48-1.93,7.93-8.97,10.58-20.95c1.38-6.23,1.66-13.15-1.61-18.63
		c-15.62-26.17-23.59-26.69-47.24-26.69c-3.43-8.74-10.48-7.89-13.8-9.37c-4.46-1.67-10.37-2.27-13.6,1.21
		c-5.35,5.76-9.93,18.16-10.98,28.5c-1.82,18.06-15.4,38.63-10.98,40.29c3.22-5.64,0.53,1.76,2.22,9.97
		c-4.99,1.78-3.91,0.73-12.89,2.01c-1.31,0.19-2.52,0.91-3.83,0.91c-1.31,0-2.52,0.2-3.83,0.6c-3.91,0.98-6.41,0.71-9.47,2.01
		c-6.54,2.79-15.2,0.35-26.49,7.25c-8.5,5.2-17.21,3.88-28.1,8.56c-14.06,6.05-9.34,8.61-39.68,18.83
		c-7.46,2.52-8.93,2.39-12.29,4.83c-2.67,1.94-2.79,1.57-13.8,3.73c-15.71,3.08-16.14,6.88-21.25,7.76c-4.13,0.7,3.95-0.98-28,13.5
		c-8.99,4.07-4.02,4.08-24.98,9.97c-0.42,0.21-10.07,0.17-12.89-0.5c-0.52-0.13-1.04-0.19-1.54-0.17c0.71,1.32,1.69,1.98,3.15,1.98
		c1.72,0,3.89,1.98,9.97,0.4c1.6-0.42,9.82-2.66,12.89-4.53c1.69-1.03,4.29-1.32,7.15-2.62c0.27-0.12,21.9-10.2,22.76-10.78
		c8.18-5.44,15.03-6.61,17.83-8.56c7.67-4.72,16.7-6.02,25.38-7.15c0.5,1.81,0.91,2.22,2.01,1.91c1.11-0.3,2.32-0.6,3.02-2.01
		c-1.21-0.1-2.32-0.1-3.73-0.2c1.21-0.81,2.3-1.22,2.92-2.01c3.43-4.34,10.42-3.02,12.29-4.33c1.54-1.07,3.33-1.29,5.04-1.91
		c1.62-0.59,3.22-1.61,4.83-2.42c0.32-0.32,11.08-3.74,20.45-10.58c0.41-0.3,0.81-0.6,1.21-0.81c0.5-0.2,0.81-0.91,1.61-0.5
		c-1.1,2.2-1.76,2.86-0.6,3.53c1.51-1.51,3.63-2.42,5.14-4.43c-0.81-0.4-1.31-0.6-2.12-1.01c2.32-1.31,4.63-2.52,7.05-3.02
		c4.83-1.01,9.37-3.12,14.2-2.32c5.1-3.4,4.39-1.5,15.51-6.95c8.98-4.4,22.26-2.99,26.79-6.35c0.38-0.38,0.69-0.3,6.24-0.3
		c0.4,0.91,1,1.82,1.31,2.82c7.56,24.55,0.5,27.86,0.5,31.12c-0.3,5.74-9.35,16.12-13.09,20.14c-3.82,4.1-16,5.25-22.06,4.13
		c-0.4-0.1-0.71-0.5-1.31-1.11c14.65-2.17,5.32-0.63,3.02-2.92c-0.55-0.55-4.54-0.41-5.44-1.31c0.1-0.5,0.1-0.91,0.2-1.41
		c-12.55,0-10.66-0.23-8.86,1.21c-1.28,1.28-2.93,0.02-4.94,0.5c-5.62,1.34-28.71,7.16-44.42,8.26c0.67-0.97,1.35-1.66,1.22-2.61
		c-5.58,0.57-14.29,5.96-21.97,7.54c-13.84,2.86-16.98,4.3-22.66,4.53c-18.77,0.78-22.05,6.15-45.53,13.3
		c-5.64,1.72-7.61,4.52-10.98,9.47c-1.58,2.33-2.91,2.51-8.96,4.94c-15.25-2.46-7.51-0.5-11.89-3.63c-1.07-0.85-3.63-1.28-3.93,0.5
		c5.39,2.7,2.44,3.26,26.39,6.65c18.53,2.62,19.94,1.91,24.17,0.6c-2.22-1.31-4.83-0.4-6.85-1.01c-1.01-0.71-1.71-1.43-2.62-1.71
		c-6.24-1.95-9.43-4.99-13.55-6.75c1.73-4.18,3.62-4.19,6.5-2.52c12.58,7.34,12.49,5.84,20.14,11.48c0.6,2.82-0.2,4.63-2.01,5.94
		c-11.74,0-18.37-0.04-24.07-0.91c-22.53-3.43-22.63-1.25-24.48-3.63c-0.91,0.1-1.71,0.3-2.52,0.4c-2.38-1.9-5.5-3.37-4.33-7.05
		c0.85-2.7,3.19-4.51,5.94-7.86c-1.04-2.76-4.86,2.91-7.55,4.83c-0.3-5.04,0.6-9.77,0.6-14.3c2.89-2.57,2.73-1.6,1.31-3.73
		c2.71-1.62,0.49-0.82-0.2-0.3c-4.03,3.04-1.9,13.05-4.13,20.75c-0.5,1.71-0.48,3.3,1.11,4.53c0.51,0.39,0.7,1.21,1.21,1.81
		c2.29,2.71,8.8,4.51,12.49,4.73c25.49,1.54,9.99,3.63,45.32,3.63c3.48,9.57,5.5,16.48,13.19,23.17
		c4.93,4.28,10.09,11.59,10.68,13.09c3.82,9.84,10.08,14.25,20.85,32.43c2.77,4.68,3.82,4.91,19.84,22.46
		c15.17,16.61,13.2,20.38,4.33,43.91c-6.24,16.56-4.2,31.59,0.3,48.95c1.08,4.16,1.05,6.22,2.62,9.27c0.93,1.8,1.33,3.92,1.61,5.84
		c1.6,11.02,11.95,38.25,10.27,44.12c-2.7,1.35-5.52,2.24-5.84,6.45c-0.23,1.62,0.05,3.49-0.2,4.23
		c-1.85,5.34-0.14,13.51-2.72,18.13c-1.11,1.98-0.24,4.93-3.22,6.85c-4.59,2.96-0.94,10.34,4.63,12.59
		c4.1,1.66,17.83,4.58,20.45,0.81c4.17,0.69,3.9,3.76,9.17,4.94c8.52,1.91,10.86,2.48,15.01,2.12c5.79-0.51,20.43-1.95,25.48-5.54
		c3.82-2.71,7.1-3.1,7.86-5.54c0.22-0.7,0.71-1.31,1.71-1.51c0.71-0.2,1.21-1.41,1.61-2.01c-0.83-6.29-5.37-7.74-11.28-10.78
		c-3.19-1.64-1.31-2.69-11.18-11.68c-7.56-6.89-7.72-2.22-14.81-18.73c-5.22-12.15-1.81-4.19-5.14-10.47
		c-2.22-0.5-4.43,1.21-7.05,0.91c-2.59-15.51-4.84-39.59-2.12-57.31c2.73-17.78-2.53-38.6,8.26-71.41c0.68-2.07,1.72-4.33-0.5-5.34
		c-0.44,0-0.27,0.17-0.5,0.4c-6.17,21.6-6.06,21.81-8.26,47.04c-0.45,5.11-0.51,10.51-0.4,15.11c0.27,11.19-4.64,55.32,2.12,72.22
		c-1.81,1.01-3.32,2.82-5.84,2.72c-1.11,2.92-2.22,5.84-3.53,9.17c-11.88,11.09-10.68,5.54-13.09,2.92c1.01-0.1,1.21-0.1,1.91,0.2
		c1.21-5.14,1.71-10.27,0-15.41c-1.84,0.46,0.38,2.34-7.76-26.29c-1.43-5.05-3.58-15.71-3.63-15.81c-3.35-6.85-2.74-17.3-5.74-21.45
		c-1.49-2.48-2.12-14.19-1.51-20.45c1.34-13.8,4.76-13.65,9.87-30.01c4.49-14.39-3.83-22.82-10.88-31.63
		c-12.07-15.07-8.26-6.81-18.43-20.65c-4.62-6.29-0.92-1.54-15.51-21.65c-4.48-6.17-5.22-11.81-12.39-19.84
		c-3.21-3.59-5.25-4.27-11.08-11.68c0.91,0.1,1.31,0,1.81,0.1c34.29,6.73,34.84,0.94,39.99,3.12c51.42,21.82,33.5,13.22,38.37,15.31
		c0.58,3.37,0.85,2.61,10.98,23.97c5.64,11.9,2.75,10.84,7.45,21.86c0.9,2.1,0.86,4.96,3.02,8.86c1.55,2.8,2.62,5.84,3.12,9.06
		c0.72-4.34,0.66-4.11-0.4-8.36c-1.45-5.82-7.3-16.26-3.93-12.89c10.16,8.29,26.8,20.65,27.7,25.78c2.76,15.86-5.66,28.2-4.13,43.01
		c1.14,11.04,0.12,13.07,4.53,24.27c15.36,38.97,5.25,6.74,14,40.49c1.54,5.94,2.22,12.09,4.13,17.93c1.18,2.35-6.83,1.43-6.95,9.37
		c-0.08,5.34-1.25,3.6-0.6,11.08c0.34,4.01,2.16,10.38-2.22,18.94c-1.95,3.81-1.01,4.35,2.72,5.44c17.17,4.99,28.34-1.21,29.01-1.21
		c2.94,0.88,1.07,2.48,5.34,4.13c7.61,2.95,12.25,2.12,15.61,2.12c2.79-0.28,3.37,1.51,6.14,1.31c5.81-0.42,15.65-1.6,20.55-4.83
		c6.55-4.32,7.05-4.79,7.05-6.65c0-5.47-0.24-8.05-5.54-9.47c-9.08-2.44-11.78-2.31-15.21-5.74c-2.72-2.72-5.34-5.53-8.46-7.76
		c-1.41-1.01-2.64-2.5-3.93-3.63c-3.49-3.05-4.66-2.85-7.55-6.55c-2.31-2.95-0.67-2.62-3.93-10.68c-1.35-3.35-4.5-2.92-7.86-2.92
		c-0.2-0.3-0.4-0.4-0.3-0.5c0.82-6.58-0.65-2.34-1.61-37.57c-0.44-16.08,2.92-19.84-2.22-51.47c-1.42-8.76,0.3-8.92-1.81-19.64
		c-1.81-9.18,0.53-11.6-1.01-16.01c-1.34-3.85,2.75-10.64-5.24-21.45c-11.15-15.11-14.45-14.17,20.14-0.1
		c449.33,182.74-134.85-57.16-184.72-76.35c0.35-3.54,350.47,140.21,353.83,139.09c0-1.33-201.24-81.24-201.34-81.28
		c-1.58-3.16-1.95-6.22-6.14-12.99c-17.29-27.9-13.09-21.09-34.45-46.13c4.38,0,7.77,1.2,14.2,1.81
		c20.12,1.93-13.91-11.76,136.88,55.9c103.76,46.56,94.37,42.92,96.89,42.5c-1.86-2.33-174.84-78.74-218.97-98.71
		c0.54-1.81,4.03,0.1,4.03,0.1s77.35,33.1,211.49,94.07c6.91,2.29,4.98,2.12,5.76,2.12C425.03,341,439.05,347.8,266.59,271z
		 M33.73,238.17c-1.41-0.2-3.02,0.2-4.53-1.21c2.72-1.07,3.95-3.34,5.65-5.14C35.19,236.71,54.05,241.07,33.73,238.17z
		 M148.05,504.17c4.83-2.42,5.01-3.21,8.86-6.04c1.69-1.24,1.44-1.45,5.74-10.98c3.22-1.41,6.65-2.62,10.47-3.22
		c3.91,9.77,4.06,3.79,6.65,13.09c-5.11,0.64-13.5,2.93-14.5,7.96c5.14-2.82,10.47-4.94,16.42-5.44c0.4,0.81,0.71,1.51,1.21,2.42
		c-4.8,1.6-15.72,3.57-13.09,8.16c4.43-3.32,9.77-3.83,14.71-5.54c3.81,4.66,3.58,2.81-0.3,3.73c-4.9,1.16-7.35,1.21-7.15,5.74
		c4.81-3.2,7.84-1.6,13.5-4.43c10.08,9.45,8.59,11.28,23.27,19.84c0.2,0.71,0.4,1.41,0.6,2.42c-4.13,0.6-8.06,1.11-10.17,5.44
		c6.04-3.32,6.04-3.32,8.56-3.22c-0.71,1.71-1.82,2.8-3.42,3.53c-11.56,5.19-11.66,6.36-29.51,7.86c-2.97,0.25-3.72-0.08-14.2-2.12
		c-2.93-0.57-3.18-3.36-9.27-4.33c-2.64,1.84-2.83,2.08-9.67,1.11c-7.01-1-12.66-1.02-15.11-7.15c-1.27-3.18,1.66-2.1,2.92-4.94
		c1.44-3.25,0.2-4.36,3.12-9.06c1.66-2.66,1.11-5.81,1.11-8.46c0.44-5.7,1.55-6.16,1.21-10.37c-0.11-1.41,0.08-2.93,0.4-4.23
		c0.38-1.52,1.31-1.81,3.53-1.51c-0.1,0.4-0.1,0.91-0.3,1.31c-0.3,0.6-0.91,1.21-1.01,1.81C142.3,501.19,145.19,505.6,148.05,504.17
		z M211.8,308.07c3.88,1.59,4.88,1.83,5.74,3.32c6.6,11.49,7.12,12.27,9.17,13.7c2.74,1.92,5.01,21.93,4.63,24.17
		c-0.51,7.39-1.11,11.64-0.1,15.41c1.6,5.98-3.66,5.57-1.11,7.76c1.29-1.04,1.5-5.62,4.33,20.04c0.88,7.99,1.26,24.45,0.6,31.73
		c-1.74,19.13,1,28.25,0.81,35.15c-0.12,4.31,1.43,6.88,1.91,10.27c-3.32,0.91-4.81,3.54-6.75,5.84c-2.24,2.66,0.38,3.2-4.73,7.76
		c-1.28,1.14-2.72,1.6-4.33,1.51c-2.01-0.11-4.13,0.3-5.74-1.51c-0.1-0.1-0.4,0.1-0.6,0.1c-0.2,1.01-0.3,1.91,0.6,2.62
		c3.46,0.53,7.14,1.56,10.17-0.6c2.71-1.93,5.21-4.04,6.75-7.25c1.98-4.15,5.04-7.45,10.37-6.55c1.96,0,1.6,3.29,3.53,7.86
		c0.51,1.21,1.11,2.22,1.61,3.42c-3.16,0.97-6.61,1.91-8.26,5.04c-1.72,4.3,5-1.35,10.47-2.22c0.6,0.71,1.21,1.31,2.01,2.22
		c-1.21,0.4-2.22,0.8-3.32,1.01c-2.23,0.43-5.86,3.31-4.63,4.53c0.65,0-1.95,0.82,10.07-2.32c1.11-0.29,1.91,0,2.42,1.21
		c-2.88,1.15-7.11,1.97-5.94,4.53c3.32,0.81,6.24-0.6,9.37-1.91c0.6,0.5,1.21,1.01,1.81,1.61c-1.81,1.31-4.03,1.91-5.44,3.73
		c3.02,0.91,5.64,0.1,8.36-1.01c2.72,3.81,2.23,0.69-2.22,4.03c3.1,2.01,5.06,0.95,5.68-0.9c6.3,4.57,9.7,3.67,17.69,6.34
		c0.4,0.1,0.6,0.6,1.11,1.11c-1.21,0.5-2.01,0.81-2.82,1.31c-1.31,1.41-3.42,3.02-4.33,5.84c6.43-5.05,9.08-8.06,9.97-0.91
		c-4.99,3.85-7.09,5.46-8.36,5.84c-8.55,2.54-7.81,2.95-30.01,1.81c-2.11-0.11-8.86-1.05-10.27-4.03c-0.21-0.45-2.67-3.4-6.24-1.11
		c-4.97,3.19-9.88,2.06-21.25,0.71c-5.49-0.66-5.18-1.28-6.45-1.91c0.03-0.1,2.68-8.51,2.72-8.66c2.25-7.68-0.7-11.91-0.2-13.5
		c1.26-4.04-0.13-5.16,1.21-13.19c6.91-3.07,4.5-1.98,5.04-2.22c0.6,1.11,1.11,1.91,1.91,3.32c0.91-4.03,0.2-7.65,0.6-11.18
		c0-0.3,0.3-1.01-0.5-1.01c-0.3,0.5-0.71,1.01-1.21,1.81c-1.69-7.61-2.14-9.92-3.53-12.49c-1.44-2.67-2.87-9.43-3.22-11.78
		c-3.67-24.49-15.21-24.77-15.21-59.12c0-12.67,2.33-17.56,3.63-22.66c1-3.95,0.15-6.1,1.01-13.8c-1.94-3.49,0.91-0.79-8.16-11.68
		c-0.57-0.69-21.44-18.13-25.38-20.24c-1.27-5.72-2.03-8.81-3.73-10.68c-1.45-1.82,1.58-0.78-10.17-24.27
		C151.68,283.02,149.04,282.3,211.8,308.07z M289.96,170.99c1.32,9.61,1.4,14.95-12.29,19.84c0,0.1-0.4-0.3-0.6-0.3
		c-5.17,2.3-2.26,2.01-0.3-12.29c1.66-12.11,1.78-7.11,1.21-19.04c1.45-1.34,5.09-2.22,6.85-0.91
		C288.67,161.97,289.16,165.19,289.96,170.99z M339.51,93.83c-0.68-1.36-1.72-2.63-1.89-4.25
		C339.23,90.59,339.81,91.97,339.51,93.83z M336.89,88.05c0.55,0.28,0.67,0.78,0.62,1.29C336.97,89.06,336.84,88.57,336.89,88.05z
		 M336.77,87.8c-1.45-0.97-2.23-2.36-2.72-4.02C335.43,84.74,336.51,85.97,336.77,87.8z M333.8,83.43
		c-0.18-0.13-0.35-0.29-0.53-0.47C333.55,82.97,333.71,83.14,333.8,83.43z M301.18,67.75c-1.02-0.02-1.69-0.48-2-1.39
		C300.03,66.64,300.78,66.85,301.18,67.75z M260.05,66.54c2.78-7.68,7.05-15.92,15.01-12.79c0,0.6-0.91,0.71,0,1.51
		c6.05,0,12.74-0.54,15.81,7.34c-1.11,0.4-2.12,0.71-3.02,1.01c-1.05-2.62-0.63-4.42-4.83-6.85c-2.11-1.22-2.32-1.21-3.83-0.71
		c1.31,0.91,2.62,1.71,3.93,2.62c2.41,1.67,4.02,5.34,1.11,5.34c-8.57-12.85-18.7-6.26-17.93-5.78c0.48,0.3,0.36,0.54-0.1,0.65
		c0.38,3-0.98-0.82-9.67,22.36C255.37,78.56,259.06,69.26,260.05,66.54z M248.79,116.79c-0.41,0.44-0.66,0.99-0.68,1.55
		c-0.89-1.57,1.79-11.13,2.68-13.33c2.51-6.23,2.21-3.44,3.32-6.35c0.99-2.57,3.43-9.05,3.42-9.22c-0.49,0.24-0.61,0.78-0.71,1.24
		c-0.25,0.08-0.54,0.15-0.92,0.23c2.66-10.65,10.26-30.03,12.99-33.44c11.09-1.46,14.59,8.34,12.79,5.64
		c-5.47-5.97-15.71-2.7-14.5,4.53c3.75-10.68,14.21-5.57,13.7-2.52c-0.1,0-4.52,0.14-5.24,0.3c-6.97,1.58-8.01,7.36-5.24,3.93
		c2.62-2.42,5.64-3.42,9.37-3.02c-0.87,2.1-4.19,2.03-11.08,10.58c2.76,0.69,0.38-0.5-2.82,12.79c-4.63,19.22,6.59,23.92-7.35,33.64
		c-0.91-0.1-1.41-0.5-1.71-0.81c-1.31,1.41-2.22,3.22-4.33,5.04c3.13-7.59,5.73-15.05,6.95-22.76c1.6-10.11,7.99-24.77,8.26-26.5
		c-0.78,0.33-0.87,1.7-0.77,1.59c-0.95,0.99-1.34,2.26-1.44,3.62c-0.73,0.49-0.55,1.36-0.68,2.11c-0.8,0.59-0.63,1.45-0.73,2.23
		c-0.74,0.48-0.63,1.35-0.69,2.09c-3.75,2.06-3.52,6.07-4.95,8.21c-3.84,5.77-7.82,18.17-8.16,28c-0.07,2.02-0.6,3.83-1.61,5.44
		c-0.3,0.4-0.91,0.6-1.41,0.91C245.96,128.89,249.29,120.53,248.79,116.79z M269.11,112.47c-1.01-1.11-2.01-2.32-1.91-3.93
		C268.54,108.81,268.4,108.22,269.11,112.47z M266.59,103.2c1.31,1.21,1.61,2.42,1.71,4.03
		C266.59,106.22,266.39,105.01,266.59,103.2z M268.51,103.4c-1.07-1.42-1.79-1.93-1.81-2.92c-0.05-2.76-0.28-5.62,1.22-8.19
		C268.52,103.21,268.92,101.65,268.51,103.4z M253.3,120.52c0-0.88,0.21-0.81,0.4-1.01C253.7,120.15,253.49,119.94,253.3,120.52z
		 M256.04,112.44c0.18,0.79,0.26,1.66-0.52,2.25c-0.1,0.67-0.02,1.44-0.72,1.94c-0.04-0.76-0.31-1.57,0.72-1.94
		C255.42,113.91,255.24,113.04,256.04,112.44z M255.82,107.73c-0.4-0.91-0.2-1.41,0.4-1.71c0-0.5,0.1-1.11,0.1-1.81
		C257.11,105.39,256.14,105.17,255.82,107.73z M257.53,107.57c0,1.71-0.05,3.41-1.41,4.68
		C256.14,110.54,256.52,108.93,257.53,107.57z M254.61,110.86c0,0.5-0.1,1.01-0.1,1.81c-0.67-1.2,0.01-0.76,0.4-3.53
		C255.51,109.95,255.21,110.45,254.61,110.86z M254.68,116.86c-0.07,0.33-0.08,0.63-0.17,1.25
		C254.14,117.38,254.29,117,254.68,116.86z M257.64,107.31c0.01-0.46,0.09-0.93,0.09-1.39C258,106.46,258.01,106.93,257.64,107.31z
		 M240.5,137.76c1.91-0.5,4.12-0.21,5.84-1.61c0.5-0.41,1.31-0.6,2.01-0.71c2.81-0.2,3.68-2.2,11.78-8.66
		c4.37-3.48,4.74-5.79,7.65-10.98c1.61,0.4,1.61,0.4,3.73-0.6c0.1-1.3,0.2-2.59,0.3-3.79c1.6-1.03,0.93-3.78,5.14-7.8
		c0.41-0.39,0.7-0.91,1.11-1.51c-2.22,0.2-2.72,2.72-4.63,2.72c-2.42-4.83-3.53-12.59-2.01-20.14c-5.89,8.83,3.05,21.95,0,22.56
		c-1.7-5.11-2.68-14.1-3.43-15.09c0-2.7,5.58-18.48,7.79-18.73c0.41,2.68,1.12,5.33,2.3,7.84c1.23,2.61,1.51,5.74,3.93,8.36
		c0.46-6.37-0.18-2.29,5.76,6.59c-0.72-3.18-3.03-6.79-4.65-11.22c-4.47-12.18-3.15-10.91-2.55-3.15c-1.52-2.16-2.9-5.65-3.19-8.43
		c2.58-2.43,6.71-5.55,9.47-6.24c-1.19,6.55,8.54,19.85,13.5,25.18c0.77,1.15,1.33,0.6,2.52,0.6c-1.28-3.65-7.91-8.79-12.69-20.45
		c-2.03-4.95,5.17,3.65,7.76,7.25c0.48,0.58,0.6,1.54,1.62,1.69c0.1,0.1,0.08,2.38,2.11,4.25c-0.48-4.14-2.31-3.93-2.01-4.23
		c-0.43-0.21,1.56-1.06-9.47-12.1c7.31,3.13,10.73,9.87,11.58,9.87c-0.4-0.4-0.15-1.07-0.6-1.91c-4.24-7.86-12.19-9.35-11.58-11.38
		c3.96-1.49,7.6,1.47,10.78,4.33c2.7,2.43,3.9,1.39,4.53,2.01c0-1.39-3.65-3.33-3.62-4.43c2.01-0.36,10.16,6.7,11.38,5.24
		c-1.61-2.57,0.1-1.07-10.58-7.55c-0.4-0.3-1.11-0.4-0.81-1.41c20.32-0.41,27.54,11.17,31.22,15.81c0.69,0.87,0.98,1.83,0.64,2.89
		c-0.11-0.05-10.43-9.8-15.69-11.4c0.7,2.07,4.31,3.13,12.73,11.33c6.45,6.28,7.71,18.87,4.73,11.38c-0.95-2.4-1.89-4.85-3.66-6.76
		c-0.18,1.21,0.55,2.08,0.84,3.23c0.1,0.4,0.1,0.91,0.2,1.41c-1.41-1.61-2.89-2.93-3.63-4.83c-0.19-0.51-0.71-0.91-1.11-1.31
		c-0.3,0.3-0.5,0.5-0.81,0.81c2.03,4.39,3.61,3.45,5.54,8.96c-4.46,2.23,2.94,0.66,6.04,4.43c0.2,0.3,0.71,0.3,1.31,0.5
		c0-4.97-0.16-3.57,0.5-5.34c0.89,3.55-0.28,11.66-1.21,14.71c-2.74,8.97-2.84,10.73-4.53,15.81c-2.64,2.06-4.77-0.93-6.85,3.22
		c-0.95,1.43-3.02,7.56-2.72,13.3c0,3.88-2.12,3.42-4.53,1.01c-1.23-1.23-3.65-1.07-3.93,0.3c0.6,0.4,1.31,0.91,2.22,1.41
		c-1.71,1.41-1.81,3.32-2.12,5.24c-3.12,0.5-5.84,0.1-8.26-1.51c-0.81,0.2-1.11,0.71-0.81,1.11c0.67,1.12,2,1.41,4.73,2.32
		c2.41,4.35-2.05,2.4-3.42,4.53c-0.1,0.81-0.2,1.81-0.5,2.72c-0.6,1.81-2.93,3.65-4.73,2.92c-12.84-5.16-9.21-6.94-15.41-12.49
		c-3.82-3.42-5.11-6.86-9.67-17.12c-0.78,3.92,0.21,6,2.32,10.68c2.15,4.78,3.95,5.45,6.45,8.36c-2.52,1.71-4.52,3.75-7.26,4.84
		c-6.46,2.58-8.5,2.92-10.17,5.54c-1.53,2.4-1.31,1.03-1.31,2.62c0.5,0.1,1.01,0.2,1.41,0.3c1.41-0.71,1.81-2.52,3.53-2.62
		c1.2,0.75,1.28,1.73,0.6,5.44c-1.28,5.1-1.17,4.83-4.63,4.83c-6.38,0.35-7.47,0.22-10.17,2.82c-0.41,0.39-0.71,1.01,0.2,1.41
		c2.01-1.31,2.01-1.33,4.23-1.51c10.59-0.87,9.6-6.1,7.15,6.85c-1.72,9.08-4.94,17.83-6.65,26.89
		c-2.15,6.46-10.68,12.64-19.44,11.08c-0.68-2.04,0.01-4.62-0.81-7.76c-0.57-1.7,2.97-5.18,4.43-6.35c-0.3-0.81-0.8-0.9-1.21-0.6
		c-4.76,3.45-3.74,4.12-7.86,0c0,1.11-0.1,1.71,0,2.22c1.41,3.66,3.74,6.59,2.52,12.29c-7.35,1.71-12.59-1.91-14.71-6.95
		c0.3-0.4,0.71-0.91,1.11-1.41c-2.21-5.85-1.45-12.38,0.4-18.33c4.28-13.72,4.31-12.16,7.45-18.23c0.45-0.67,3.25-7.58,4.03-10.47
		c1.47-5.48,0.41-10.3,2.52-11.99c0.2-0.2,0.2-0.71,0.2-1.01c-0.5-0.3-1.01-0.6-1.41-0.91c-0.91-4.43-0.71-9.06-3.12-13.4
		C239.19,137.56,239.89,137.96,240.5,137.76z M280.77,82.32c0.85,0.34,0.63,1.14,0.62,1.87C280.67,83.73,280.69,83.04,280.77,82.32z
		 M281.5,84.33c0.84,0.49,0.62,1.32,0.6,2.07C281.44,85.91,281.5,85.08,281.5,84.33z M58.61,235.55c-18.79-9.2-14.6-7.49-18.43-9.97
		c22.46-8.31,20.52-7.79,21.15-7.15C58.36,227.49,59.93,236.87,58.61,235.55z M104.53,264.96c-11.6,0-26.81-0.05-36.96-3.93
		c-2.32-3.53-3.93-7.35-4.94-11.28c-0.2-0.6,0-1.31,0-2.32C108.72,266,104.11,264.1,104.53,264.96z M116.52,263.35
		c6.14-2.82,12.99-4.03,19.54-7.05c5.48,10.36,10.42,13.86,10.68,19.24C143.8,274.99,116.07,264.24,116.52,263.35z M204.55,286.51
		c3.14,4.63,8.51,14.54,8.96,15.91c-4.76-1.3-60.17-23.71-60.33-23.77c-3.65-1.47-1.61,0.32-9.57-14.91
		c7.68-2.88,13.25-6.73,37.47-8.86C197.21,271.71,189.11,263.77,204.55,286.51z M177.86,252.57c-17.54,4.05-27.78,4.8-35.76,8.86
		c-2.12-3.73-5.24-6.55-8.06-9.57c0.4,1.01,0.81,2.12,1.21,3.42c-5.24,1.01-9.77,3.93-15.01,4.73c-13.68,2.1,6.21,7.44-56.4-17.22
		c-0.38-4.9,0.36-3.06-2.42-5.84c0-2.22-0.35-3.19,1.21-11.89c1.37-7.64,1.63-8.81,4.03-9.37c6.65-1.54,4.32-1.94,8.56-2.52
		c2.2-0.3,12.44-1.81,16.12-1.81c4.17,7.38,0.98,3.69,11.18,15.11c0.56,0.84,9.59,6.18,11.99,7.25c8.86,3.96,8.07,6.14,11.08,6.14
		c-0.37-0.65-0.57-1.13-0.85-1.6c4.63,0.53,8.23,1.9,14.44,1.9c5.29,0,11.26,1.81,20.75,2.42c0.1,0.01,9.1,0.12,10.88,1.51
		C173.68,246.36,176.65,248.64,177.86,252.57z M190.85,244.41c-5.86,0-31.34-6.67-59.32-6.95c-2.45-0.02-15.17-4.62-16.01-5.14
		c-9.97-6.16-11.91-6.47-17.63-14c-8.37-11.01-6.67-5.42,23.57-14.71c3.25-1,4.76-3.69,12.39-2.42c6.5,0-1.34,1.68,31.32-5.54
		c2.95-0.65,1.23-0.12,3.12,5.24c2.14,7.26,0.6,8.8,5.14,16.82c6.28,11.1,10.74,20.55,22.16,21.45
		C203.37,243.77,207.37,244.41,190.85,244.41z M203.84,240.89c-7.7-2.04-9.06-6.43-9.06-2.72c-2.09-0.61-8.68-4.23-12.39-10.17
		c-0.8-1.29-8.2-13.71-8.36-15.21c-0.43-4.15-5.51-13.13-4.63-18.13c6.04-1.81,12.19-1.51,18.33-0.81c0,0.6-0.1,1.11,0.1,1.41
		c1.3,1.92,3.13,3.3,5.54,3.73c19.52,3.46,28.67-6.36,38.48-25.48c2.39-4.66,0.28-3.67,1.91-8.26c3.55-12.18-5-25.82-4.53-26.99
		c2.32-0.4,4.63-0.6,7.15-0.5c1.64,4.92,2.1,13.62,1.81,18.23c-1.09,17.51-8.81,18.09-14.1,44.52c-0.6,3.02,0.33,5.92-0.5,8.96
		c-0.21,0.78,1.76,4.89,2.22,5.64c4.42,7.36,10.43,7.16,20.14,7.45c19.72,0.6,21.42-19.89,25.48-35.96c1.7-6.74,0.2-5.82,1.11-9.97
		c5.15-23.42,3.03-15.16,3.63-13.7c1.29,3.18-2.6,19.75-9.27,53.78c-3.17,16.16-17.35,26.21-28.91,25.78
		c-11.82-0.44-11.43-1.07-16.12-0.1C212.11,244.41,208.02,241.99,203.84,240.89z"/> <path d="M331.26,87.19l-0.1,0.1C331.24,87.42,331.22,87.4,331.26,87.19z"/> <path d="M115.61,320.25c1.11,3.42,7.65,11.08,11.68,14.3c0-0.2,0.2-0.4,0.1-0.5C115.76,320.08,117.01,321.09,115.61,320.25z"/> <path d="M663.93,255.59c-0.6-0.71-1.11-1.11-2.01-0.3c2.76,3.51,3.65,6.23,6.85,5.24c1.14-0.35,0.66-0.97,0.1-1.81
		C668.87,258.33,666.57,259.42,663.93,255.59z"/> <path d="M143.21,388.24c-0.81-0.3-1.11,0.1-1.21,0.5C140.46,397.67,142.25,403.13,143.21,388.24z"/> <path d="M683.37,263.25c-2.12-1.11-3.53-0.1-4.83,0.71C678.29,265.96,681.93,265.14,683.37,263.25z"/> <path d="M163.56,357.62c0.3-0.2,0.6-0.4,0.6-0.5c-0.5-1.41-0.5-3.02-2.42-4.13C160.84,355.4,162.35,356.41,163.56,357.62z"/> <path d="M163.96,327.91c-1.71,1.71-0.6,4.03-1.71,5.74C164.46,330.73,164.56,330.43,163.96,327.91z"/> <path d="M671.49,262.54c0.81,1.21,1.91,1.61,3.22,1.51C675.6,264.05,675.12,261.01,671.49,262.54z"/> <path d="M163.15,372.12c-0.4,1.81,0.5,3.32,0.91,4.94C164.77,374.94,164.66,374.64,163.15,372.12z"/> <path d="M146.43,478.18c1.61-1.71,1.01-3.12,0.6-4.73C145.93,475.26,145.93,475.26,146.43,478.18z"/> <path d="M132.43,338.28c-0.71-1.31-1.11-2.42-2.72-2.72C130.02,337.48,130.02,337.48,132.43,338.28z"/> <path d="M157.51,361.75c0.81-1.11,0.4-1.91-0.71-2.82C156.2,360.24,156.2,361.15,157.51,361.75z"/> <path d="M162.15,350.77c0.71-1.81,0.71-1.81,0-3.02C162.15,348.66,162.15,349.56,162.15,350.77z"/> <path d="M141.4,406.07c0,2.02-0.45,1.81,0.4,1.81C141.8,405.71,141.94,406.07,141.4,406.07z"/> <path d="M160.13,364.77c0,0.2-0.2,0.4-0.1,0.5c0.2,0.3,0.5,0.5,0.6,0.81C160.64,364.84,160.84,365.13,160.13,364.77z"/> <path d="M660.01,254.08c0.74-0.74,0.2-0.5-0.3-1.01C659.39,253.39,659.46,253.26,660.01,254.08z"/> <path d="M146.74,464.38l-0.1-0.3C146.64,464.44,146.6,464.38,146.74,464.38z"/> <path d="M141.6,415.74c0,0.1-0.1,0.2-0.1,0.3c0.32,0,0.3,0.34,0.3-0.2C141.7,415.84,141.6,415.84,141.6,415.74z"/> <path d="M143.82,383.81c-0.1,0.1-0.3,0.2-0.3,0.3c-0.1,0.3,0,0.5-0.1,0.6C143.95,384.45,144.11,384.4,143.82,383.81z"/> <path d="M598.67,292.45c2.97,2.23,5.13-0.04,4.53-2.01c0-1.69-0.84-1.65-1.21-2.01c0,0.31,0.18,0.21,0.28,0.29
		C601.5,291.71,602.11,290.89,598.67,292.45z"/> <path d="M160.74,365.98c-0.13,0.13-0.18,0.07,0.2,0.2L160.74,365.98z"/> <path d="M143.31,384.92c0,0,0.1-0.1,0.2-0.1C143.31,384.81,143.31,384.92,143.31,384.92z"/> <path d="M138.68,346.74v0.3C138.93,346.79,138.94,346.87,138.68,346.74z"/> <path d="M544.38,319.95c-1.17,0.58-1.08,0.41,10.58,13.4c0.3,0.3,0.71,0.5,1.41,0.4C554.88,331.77,546.45,321.33,544.38,319.95z"/> <path d="M570.77,388.44c-0.5,2.82-0.71,5.64-0.1,8.56c0.6-3.02,1.31-6.04,1.31-9.06C571.17,387.64,570.87,388.04,570.77,388.44z"/> <path d="M592.42,327.81c-1.31,1.81-0.5,4.03-1.41,5.94C592.07,332.43,594.62,328.12,592.42,327.81z"/> <path d="M593.23,377.06c0.4-2.42-0.1-4.13-1.81-6.14C592.02,373.33,591.82,375.15,593.23,377.06z"/> <path d="M592.73,357.42c0.22-1.88-1-4.89-2.12-4.33C589.71,353.54,590.17,355.6,592.73,357.42z"/> <path d="M575,474.05c-0.2,1.11-0.5,2.22,0.1,3.12c0.3-0.1,0.6-0.1,0.71-0.2c0.5-1.11,0.5-1.11,0.1-4.43
		C575.5,473.25,575.1,473.65,575,474.05z"/> <path d="M558.58,334.96c-0.36,1.8,1.09,2.71,2.82,3.32C560.6,336.57,559.99,335.46,558.58,334.96z"/> <path d="M585.37,358.93c-0.2,1.41-0.2,1.41,0.81,2.52C587.09,359.94,586.98,359.53,585.37,358.93z"/> <path d="M591.21,350.67c0.81-3.62,1.32-2.61-0.3-3.42C590.91,350.57,590.81,350.67,591.21,350.67z"/> <path d="M570.06,408.79c0.4-1.11,0.71-1.81,1.11-2.62c-0.6-0.1-0.71-0.2-0.81-0.2C569.66,406.57,570.06,407.48,570.06,408.79z"/> <path d="M588.9,364.37c-0.36,0.71-0.37,0.44,0.5,1.31c0.39-0.2,0.61-0.3-0.2-1.11C589.1,364.47,589,364.47,588.9,364.37z"/> <path d="M570.06,415.94c0.3,0.3,0.06,0.24,0.6-0.3c-0.1,0-0.2-0.1-0.3-0.1C570.26,415.64,570.16,415.84,570.06,415.94z"/> <path d="M567.34,346.74c0-0.2,0.1-0.3,0.1-0.4C567.12,346.02,567.27,346.52,567.34,346.74z"/> <path d="M572.38,383.61c-0.65,0.65,0.2,1.31,0.2,0.2C572.58,383.71,572.48,383.71,572.38,383.61z"/> <path d="M647.82,395.59c0.6-5.85-2.74-13.18-4.03-14c-1.08,1.62-0.64-2.31,3.42,13.19C647.22,395.09,647.62,395.29,647.82,395.59z"/> <path d="M650.24,332.34c-0.81,2.72,0.1,5.24,1.31,7.86C652.8,336.95,653.16,331.69,650.24,332.34z"/> <path d="M697.68,501.25c-2.22-0.6-3.93,0.3-5.64,1.61C693.16,504.74,698.06,504.68,697.68,501.25z"/> <path d="M648.32,324.28c-0.3,0.1-0.71,0.1-0.71,0.3c-0.81,2.01-1.51,4.13-1.81,6.95C648.02,329.12,648.93,327,648.32,324.28z"/> <path d="M647.32,420.17c0.6-2.01,1.21-3.12,0.91-5.34C646.93,419.23,647.13,418.09,647.32,420.17z"/> <path d="M647.92,400.33c0,3.13-0.13,2.72,0.4,2.72C648.32,399.91,648.46,400.33,647.92,400.33z"/> <path d="M659.7,369.4c-0.71,0.81-0.71,1.41,0,2.12C660.31,370.81,660.51,370.11,659.7,369.4z"/> <path d="M647.92,395.49c0,0.71,0,1.41,0,2.12C648.42,396.9,648.22,396.3,647.92,395.49z"/> <path d="M641.88,375.35c-0.86,0-0.4-0.2-0.4,1.41C642.33,376.76,641.88,376.93,641.88,375.35z"/> <path d="M631.7,358.22c0-1.42-0.08-1.21-0.5-1.21C631.2,358.42,631.29,358.22,631.7,358.22z"/> <path d="M640.16,336.07c-0.4-0.4-0.2-0.61-1.11,0c0.2,0.3,0.3,0.4,0.4,0.6C639.66,336.47,639.96,336.27,640.16,336.07z"/> <path d="M709.16,517.16l0.1-0.1C709.26,516.92,709.28,516.91,709.16,517.16z"/> <path d="M648.93,408.38c-0.13-0.27-0.1-0.25-0.1,0H648.93z"/> <path d="M757.71,86.48l-0.1,0.1C757.92,86.99,757.85,86.91,757.71,86.48z"/> <path d="M742.6,69.76l-0.1,0.1C742.85,69.95,742.73,69.96,742.6,69.76z"/> <path d="M757.2,95.14l-0.1,0.1C757.31,95.29,757.27,95.27,757.2,95.14z"/> <path d="M709.46,121.43c-1.41,0.2-1.11,3.32-3.73,2.12c-1.21-3.42-3.42-7.05-3.42-11.38c4.13,0.4,4.13,0.4,8.56-1.01
		c1.14,1.52,0.01,1.27-2.01,2.52c-3.25,2-3.07,3.04-3.32,3.93c3.14,0.94,2.46,0.73,4.23,1.91c0.6-1.31,0.6-1.31-2.52-3.22
		c2.12-1.69,1.71-0.61,2.52-0.2c1.54,1.03,1.31,0.14,1.61-3.71c1.71,0.31,1.29-1.19,0.73-4.95c0.79,0.07,0.91,0.81,1.29,1.3
		c0.31,0.4,0.71,0.71,1.41,1.51c0-2.82,0.53-1.38-2.52-5.44c-4.53-1.21-6.89-0.23-9.47,3.63c-3.31,4.95-1.35,8.5,2.22,16.82
		C708.2,125.69,711.15,122.88,709.46,121.43z M711.99,107.25c-0.6-0.52-0.62-0.56-0.72-1.33
		C711.82,106.37,712.02,106.75,711.99,107.25z M709.76,107.53c0.3,0.4,0.6,0.91,0.81,1.31c-1.01,0.81-1.91,0.91-2.82,0.6
		c0,0.36-0.15,0.3-0.3,0.3C708.18,109.75,706.86,109.14,709.76,107.53z M707.45,106.12c1.2-0.62,3.28,0.06-3.02,3.53
		C705.13,107.63,706.13,106.81,707.45,106.12z"/> <path d="M709.66,95.34c-0.52,0.52,0.19,0.41,0.1,0.5c0.18,0.12,0.22,0.18,0.1-0.1C709.76,95.85,709.66,95.45,709.66,95.34z"/> <path d="M714.9,108.13C714.73,107.96,714.8,108.05,714.9,108.13L714.9,108.13z"/> <path d="M714.5,105.01c-0.1,1.01,0.2,2.11,0.4,3.12c4.94,4.34,5.51,5.07,6.45,4.14c-0.3-1.11-1.51-1.71-2.22-2.52
		c-0.09-0.52-0.25-0.97-0.42-1.4c0.53,0.3,0.69,0.77,0.42,1.4c1.12,0.28,0.43-0.63,3.83,1.91c1.64-1.17-1.38-1.36-7.45-11.48
		c-0.81-0.4-1.71,0.1-2.32-0.81c-0.87-1.31-1.92-2.59-3.25-3.41C711.39,100.04,715.1,101.22,714.5,105.01z"/> <path d="M741.89,79.13l-0.1,0.1C742.11,79.36,742.04,79.31,741.89,79.13z"/> <path d="M756.89,95.05c0,0.03,0,0.06,0.01,0.09C757.04,95,757.02,95.05,756.89,95.05z"/> <path d="M749.75,90.61c2.06,4.88,3.05,5.78,5.04,6.45c-0.31-2.5,0.12-0.44-2.52-5.34c-0.6-0.71-1.41-1.41-1.11-2.42
		c3.22,1.93,3.77,6,5.73,5.75c-0.07-0.47,0.01-0.94-0.19-1.32c-1.19-2.29-3.76-6.42-6.24-7.25c-0.65,0.73-0.52,0.08-0.81-0.2
		c-0.3-0.3-0.48-0.5-0.61-0.65c0-0.02-0.02-0.04-0.04-0.04c-0.38-0.48,0.04-0.3,0.04-0.72c-0.17,0.17-0.19-0.49-0.71-1.01
		c-5.37-4.7-5.32-4.24-6.31-4.55C745.94,84.41,748.03,86.54,749.75,90.61z"/> <path d="M744.41,126.37c-0.91,1.61,0,2.42,1.21,3.22c1.61-0.2,2.23-1.69,3.42-2.42c1.12-0.68,2.62,0,3.73-1.51
		C747.12,125.2,737.17,122.75,744.41,126.37z"/> <path d="M743.6,104.41c-1.7-1.41-9.72-9.16-11.28-13.09c-2.49-6.25-3.31,3.17,9.97,13.4C742.69,105.02,743.1,105.01,743.6,104.41z"/> <path d="M747.03,118.71c1.42,2.05,2.02-1.15,10.07,5.44c0.4-0.5,0.71-0.91,0.91-1.21C754.89,118.91,751.06,117.4,747.03,118.71z"/> <path d="M681.86,176.42c-0.29-1.74,0.34-1.05-2.92-3.22c-3.53,1.01-6.95,0.6-10.47,0.91C671.21,176.58,676.1,173.99,681.86,176.42z
		"/> <path d="M707.75,76.51c0.2,0.27,0.14,0.38,0.1-0.1L707.75,76.51z"/> <path d="M751.46,97.56c0.1-0.2,0.3-0.5,0.2-0.6c-3.16-5.41-0.71-1.84-7.65-9.17c0.51,1.54-1.46-1.34,5.94,9.57
		C750.55,97.46,750.96,97.56,751.46,97.56z"/> <path d="M723.36,100.99c-0.2-0.5-0.2-1.11-0.4-1.61c-0.5,0-0.81-0.2-0.71-0.71c-1.87,1.87,0.15,3.12,4.23,8.66
		C729.28,105.23,726.71,107.08,723.36,100.99z"/> <path d="M751.06,81.45c-0.39-1.56,0.4-0.24-3.27-4.27C747.88,78.5,748.54,78.18,751.06,81.45z"/> <path d="M738.77,93.53c-0.29,0.29-1.34-4.13-2.72-4.13c-0.1,1.4-0.1,1.41,2.67,4.18c-0.1,0.1-0.14-0.01,0.86,0.65
		C739.37,94.04,739.07,93.83,738.77,93.53z"/> <path d="M742.4,101.79c-0.71-2.12-0.71-2.12-2.82-3.83C739.78,99.58,741.09,100.48,742.4,101.79z"/> <path d="M736.91,87.25c0.24,1.34,1.44,2.11,2.57,3.57C739.03,89.04,739.98,90.57,736.91,87.25z"/> <path d="M736.86,86.99l-0.1,0.1C736.93,87.29,736.94,87.31,736.86,86.99z"/> <path d="M742.64,94.44c0.29,1.44,0.63,2.75,2.07,3.42C744.23,96.6,743.83,95.25,742.64,94.44z"/> <path d="M742.6,94.24l-0.1,0.1C742.7,94.46,742.64,94.52,742.6,94.24z"/> <path d="M691.43,168.27c-0.3,0.1-0.71,0-0.81,0.2c-0.4,0.4-0.91,0.91-0.3,1.61C691.36,169.05,691.43,169.49,691.43,168.27z"/> <path d="M733.73,101.69c0.66,0.57,1.16,1.24,2.07,1.3C735.5,101.87,734.8,101.5,733.73,101.69z"/> <path d="M735.85,103.1l0.1-0.1C735.76,103,735.81,102.93,735.85,103.1z"/> <path d="M739.47,97.96c0-0.96-0.37-1.73-1.37-2.06C738.31,96.84,738.62,97.58,739.47,97.96z"/> <path d="M732.42,98.68c-0.14-0.14,0.95,0.21-0.1-0.53C732.32,98.67,732.3,98.68,732.42,98.68z"/> <path d="M730.91,97.77c0,0.23-0.04,0.19,0.15,0.19c-0.02-0.03-0.03-0.07-0.05-0.1C730.97,97.83,730.94,97.8,730.91,97.77z"/> <path d="M742.38,94.28c0,0.05,0.02,0.1,0.02,0.16C742.52,94.32,742.53,94.35,742.38,94.28z"/> <path d="M742.38,94.28c-0.07-0.92-0.62-1.59-1.29-2.16C740.99,93.18,741.54,93.86,742.38,94.28z"/> <path d="M744.81,97.76c0,0.5,0,1.11,0,1.81C745.42,98.77,744.91,98.37,744.81,97.76z"/> <path d="M741.24,69.16c0.36,0.14,0.72,0.29,1.08,0.43C742.1,69.2,741.65,69.27,741.24,69.16z"/> <path d="M742.32,69.59c0.03,0.05,0.06,0.1,0.08,0.17C742.51,69.65,742.54,69.67,742.32,69.59z"/> <path d="M718.53,101.51c-0.01-0.54-0.05-1.07-0.5-1.43C717.93,100.64,718.02,101.19,718.53,101.51z"/> <path d="M718.53,101.51c0,0.06,0,0.12,0,0.18C718.63,101.59,718.67,101.58,718.53,101.51z"/> <path d="M717.01,99.47c0.1-0.55,0.1-1.1-0.43-1.42C716.75,98.57,716.92,99.03,717.01,99.47z"/> <path d="M716.51,97.86l-0.1,0.1C716.66,98.07,716.59,98.13,716.51,97.86z"/> <path d="M716.41,98.06c-0.17-0.43-0.34-0.86-0.51-1.29C715.87,97.27,715.83,97.73,716.41,98.06z"/> <path d="M715.81,96.55c0.03,0.07,0.06,0.15,0.09,0.22C715.9,96.4,715.96,96.4,715.81,96.55z"/> <path d="M731.01,96.07c0-0.11,0-0.21,0-0.32C730.88,95.88,730.9,95.8,731.01,96.07z"/> <path d="M731.01,97.26c0-0.13,0.02-0.1-0.1-0.1C730.91,97.28,730.89,97.26,731.01,97.26z"/> <path d="M731.01,97.16c0.16,0,0.31,0,0.46,0C730.86,95.59,731.01,95.82,731.01,97.16z"/> <path d="M731.52,97.26l0.2-0.1C731.41,97.16,731.48,97.13,731.52,97.26z"/> <path d="M737.96,95.65c-0.13-0.25,0.21,0.62,0.1,0.1C737.96,95.85,737.96,95.38,737.96,95.65z"/> <path d="M729.44,86.43c0.15,0.56,0.11,1.18,0.66,1.36C730.02,87.23,730.18,86.66,729.44,86.43z"/> <path d="M729.3,86.38c0.14,0.05,0.18,0.1,0.1-0.1L729.3,86.38z"/> <path d="M725.17,90.71c0.1,0.6,0.3,1.11,0.5,1.51C725.83,92.07,725.83,92.36,725.17,90.71z"/> <path d="M730.81,89.24c0,0.06,0,0.11,0,0.16C730.94,89.27,730.93,89.32,730.81,89.24z"/> <path d="M730.81,89.24c-0.01-0.56-0.05-1.18-0.6-1.45C730.21,88.36,730.22,88.93,730.81,89.24z"/> <path d="M721.65,105.11c0.1,0.6,0.2,1.11,0.4,1.71C722.2,106.68,721.76,105.4,721.65,105.11z"/> <path d="M738.01,104.31c-0.49-0.17-0.92-0.35-1.26-0.6C737,104.28,737.51,104.32,738.01,104.31z"/> <path d="M719.94,103.81c0.17-0.52,0.02-1.05-0.41-1.37C719.69,102.86,719.85,103.29,719.94,103.81z"/> <path d="M712.18,102.9c-0.45-0.18-0.91-0.36-1.36-0.54C711.06,103.06,711.62,102.9,712.18,102.9z"/> <path d="M710.82,102.35c-0.02-0.05-0.04-0.1-0.05-0.16C710.64,102.32,710.63,102.28,710.82,102.35z"/> <path d="M747.64,74.9c-0.14-0.14-0.12-0.09-0.21-0.16C747.44,74.94,747.39,74.9,747.64,74.9z"/> <path d="M748.14,75.6l0.1-0.1C748.11,75.33,748.14,75.39,748.14,75.6z"/> <path d="M748.14,75.39c0-0.18,0-0.35,0-0.49C747.39,74.9,747.61,74.77,748.14,75.39z"/> <path d="M748.24,74.9l-0.1-0.1C748.14,74.92,748.12,74.9,748.24,74.9z"/> <path d="M746.93,76.31c0.93,0.93,0.73,0.74,0.86,0.87C747.76,76.94,747.83,76.91,746.93,76.31z"/> <path d="M735.85,86.28c-0.24-0.19-0.41-0.44-0.5-0.71C735.25,86.01,735.42,86.28,735.85,86.28z"/> <path d="M749.75,86.31c-0.03-0.02-0.07-0.02-0.1-0.03C749.77,86.4,749.75,86.41,749.75,86.31z"/> <path d="M749.75,85.68c0,0.72-0.12,0.71,0.6,0.71C750.35,85.92,750.17,85.64,749.75,85.68z"/> <path d="M749.75,85.57l-0.1,0.1C749.76,85.65,749.75,85.74,749.75,85.57z"/> <path d="M754.08,85.78c-0.04-0.04-0.07-0.07-0.1-0.1C753.98,85.77,753.96,85.74,754.08,85.78z"/> <path d="M753.96,85.66c0,0,0.01,0.01,0.02,0.02l0,0C753.97,85.67,753.97,85.67,753.96,85.66z"/> <path d="M753.37,85.68c0.17,0.17,0.41,0.41,0.6,0.6C753.98,85.69,754.1,85.68,753.37,85.68z"/> <path d="M754.08,86.38c-0.13-0.13-0.1-0.15-0.1,0.1L754.08,86.38z"/> <path d="M748.86,76.14c0.02-0.2,0.05-0.38,0.07-0.53C748.43,75.6,747.98,75.46,748.86,76.14z"/> <path d="M748.24,75.6c0.02,0,0.06,0,0.09,0C748.22,75.49,748.24,75.45,748.24,75.6z"/> <path d="M749.04,75.6l-0.1-0.1C748.94,75.62,748.88,75.6,749.04,75.6z"/> <path d="M746.63,76.21l0.2,0.1C747,76.31,746.96,76.32,746.63,76.21z"/> <path d="M743.2,87.09v0.1C743.48,87.6,744.67,88.56,743.2,87.09z"/> <path d="M749.55,77.01c-0.05-0.08-0.6-0.82-0.68-0.88C748.83,76.35,748.74,76.21,749.55,77.01z"/> <path d="M735.98,86.5c-0.07-0.27,0.27-0.22-0.13-0.22c0.02,0.02,0.03,0.04,0.05,0.05C735.8,86.43,735.84,86.36,735.98,86.5z"/> <path d="M736.65,87.09c-0.25-0.17-0.44-0.4-0.67-0.59C736.05,86.93,736.31,87.09,736.65,87.09z"/> <path d="M751.06,83.36c0.12,0.12,0.63,0.79,0.71,0.91C751.71,84.09,751.41,83.54,751.06,83.36z"/> <path d="M731.72,82.05c0.1,0.3,0.4,0.5,0.6,0.81C732.46,82.72,732.54,82.87,731.72,82.05z"/> <path d="M752.57,82.86l0.06-0.06c0.05,0.05,0.04,0.03,0.04-0.04c0-0.13,0.03-0.13-0.1,0C752.39,82.75,752.51,82.75,752.57,82.86z"/> <path d="M752.49,82.75c-0.18-0.23-0.4-0.42-0.57-0.65c0.1-0.1,0.07-0.04-0.12-0.2C751.96,82.34,751.82,82.77,752.49,82.75z"/> <path d="M731.55,81.93c0.02,0.07,0.07,0.14,0.07,0.22C731.62,82.01,731.57,81.97,731.55,81.93z"/> <path d="M751.16,81.34c0.24,0.16,0.42,0.37,0.63,0.55C751.67,81.56,751.49,81.34,751.16,81.34z"/> <path d="M741.69,79.23c0-0.06-0.04-0.09-0.09-0.12C741.63,79.15,741.66,79.2,741.69,79.23z"/> <path d="M741.49,79.03c0.23,0.23,0-0.1-0.1-0.2C741.39,78.93,741.39,79.03,741.49,79.03z"/> <path d="M750.45,77.72c-0.13,0.13-0.15,0.07,0.1,0.2L750.45,77.72z"/> <path d="M750.35,77.82c-0.2-0.3-0.5-0.6-0.71-0.91C749.51,77.05,749.42,76.88,750.35,77.82z"/> <path d="M757.6,86.38c-0.14-0.14-0.12-0.15,0,0.1V86.38z"/> <path d="M735.14,85.57c-0.19-0.19-0.41-0.44-0.5-0.71C734.55,85.3,734.77,85.56,735.14,85.57z"/> <path d="M735.14,85.57c0.04,0.04,0.07,0.07,0.1,0.1C735.38,85.54,735.4,85.57,735.14,85.57z"/> <path d="M749.04,85.59c1,0.37,0.67-0.6,0.09-0.61l0.01-0.01C749.04,85.06,749.04,84.65,749.04,85.59z"/> <path d="M753.37,85.68c-0.13-0.13-0.1-0.15-0.1,0.1L753.37,85.68z"/> <path d="M752.67,84.97l-0.1,0.1C752.82,85.07,752.8,85.1,752.67,84.97z"/> <path d="M753.37,85.07l-0.1-0.1C753.27,85.1,753.25,85.07,753.37,85.07z"/> <path d="M752.77,85.07c0.16,0.16,0.34,0.34,0.5,0.5C753.27,84.94,753.37,85.07,752.77,85.07z"/> <path d="M754.68,85.68c-0.26-0.17-0.46-0.42-0.71-0.61C753.98,85.57,753.8,85.68,754.68,85.68z"/> <path d="M753.9,84.95l-0.02,0.02c0.13,0.1,0.1,0.17,0.1-0.1c-0.31,0.31,0.6-0.9-1.31-2.04C752.67,84.27,752.46,84.45,753.9,84.95z"/> <path d="M734.34,84.85c0.03,0.04,0.07,0.09,0.1,0.12C734.58,84.83,734.58,84.89,734.34,84.85z"/> <path d="M734.34,84.85c-0.17-0.2-0.33-0.43-0.5-0.68C733.83,84.59,733.99,84.79,734.34,84.85z"/> <path d="M752.57,84.27c-0.2,0-0.39,0-0.59,0C752.69,84.81,752.57,85.06,752.57,84.27z"/> <path d="M751.76,84.27c0.22,0,0.27,0.03,0.1-0.1L751.76,84.27z"/> <path d="M752.67,84.27l-0.1-0.1C752.57,84.29,752.55,84.27,752.67,84.27z"/> <path d="M752.57,84.78c0,0.07,0,0.13,0,0.19C752.7,84.84,752.69,84.9,752.57,84.78z"/> <path d="M733.73,84.27c-0.08-0.26-1.13-1.33-1.31-1.51C732.53,83.07,733.3,83.97,733.73,84.27z"/> <path d="M733.13,98.57c-0.28,0-0.2,0.02-0.1,0.1L733.13,98.57z"/> <path d="M732.32,98.14c0-0.06,0-0.11,0-0.18c-0.15,0-0.11-0.01-0.05,0.05C732.17,98.11,732.22,98.04,732.32,98.14z"/> <path d="M729.5,96.45c-0.13,0.13-0.22-0.01,0.6,0.81C730.39,97.26,730.48,97.43,729.5,96.45z"/> <path d="M731.62,97.26l-0.1,0.1C731.65,97.46,731.62,97.52,731.62,97.26z"/> <path d="M732.33,98.66c-0.51,0-0.85-0.69-0.61-0.69c0.59,0,0.71,0.13-0.1-0.51c0,0.18,0,0.41,0,0.51c-0.84,0-0.7-0.44,0.61,2.22
		C732.23,98.83,732.33,98.68,732.33,98.66z"/> <path d="M732.32,71.88v0.1C732.47,72.12,732.45,72.13,732.32,71.88z"/> <path d="M730.32,97.26c0.21,0.16,0.39,0.35,0.59,0.51C730.91,97.13,731.03,97.26,730.32,97.26z"/> <path d="M722.76,107.33h0.1C721.71,106.18,722.14,106.71,722.76,107.33z"/> <path d="M726.68,107.43l-0.1-0.1C726.44,107.33,726.43,107.3,726.68,107.43z"/> <path d="M722.86,107.33v0.1C723.12,107.43,723.12,107.46,722.86,107.33z"/> <path d="M721.65,105.11c-0.21,0-0.32-0.11-0.1,0.1L721.65,105.11z"/> <path d="M721.43,105.08c-0.23-0.23-0.41-0.42-0.58-0.67C720.84,104.83,721.06,105.03,721.43,105.08z"/> <path d="M720.66,104.21c0.03,0.09,0.06,0.19,0.08,0.3C720.89,104.36,720.86,104.45,720.66,104.21z"/> <path d="M720.04,103.7c0.23,0.15,0.44,0.31,0.62,0.5C720.54,103.9,720.35,103.7,720.04,103.7z"/> <path d="M712.28,102.8C712.18,102.8,712.38,103,712.28,102.8L712.28,102.8z"/> <path d="M733.94,99.27c-1.21-1.21-0.66-0.52-0.09,0.01C733.96,99.53,733.94,99.53,733.94,99.27z"/> <path d="M717.11,99.47l-0.1,0.1C717.23,99.55,717.37,99.63,717.11,99.47z"/> <path d="M717.92,100.18c-0.08-0.33-0.25-0.59-0.66-0.6C717.51,99.75,717.75,99.93,717.92,100.18z"/> <path d="M732.86,100.85c-0.49-0.85-0.53-0.67-0.63-0.57C734.9,102.95,732.99,100.72,732.86,100.85z"/> <path d="M719.2,102.25c-0.23-0.22-0.4-0.41-0.57-0.66C718.71,101.92,718.87,102.17,719.2,102.25z"/> <path d="M719.53,102.43c-0.11-0.3-0.07-0.27-0.18-0.15c-0.15,0-0.23-0.09-0.02,0.12C719.43,102.29,719.37,102.31,719.53,102.43z"/> <path d="M735.95,103c0.2,0.3,0.4,0.6,0.6,0.91C736.77,103.69,736.28,103.5,735.95,103z"/> <path d="M726.58,92.93c0.2,0.3,0.4,0.4,0.6,0.71C727.4,93.42,727.29,93.64,726.58,92.93z"/> <path d="M725.78,92.22l-0.1,0.1C727.08,93.73,726.33,92.59,725.78,92.22z"/> <path d="M740.99,92.22c-0.23-0.16-0.41-0.33-0.62-0.53C740.47,92.02,740.66,92.22,740.99,92.22z"/> <path d="M740.36,91.69c-0.15-0.4-0.08-0.88-0.71-0.88C740.55,91.95,740.27,91.59,740.36,91.69z"/> <path d="M725.07,90.81c0.13-0.13,0.15-0.07-0.1-0.2L725.07,90.81z"/> <path d="M739.58,90.71l-0.1,0.1C739.77,90.78,739.66,90.88,739.58,90.71z"/> <path d="M715.7,96.55C715.91,96.55,715.4,96.05,715.7,96.55L715.7,96.55z"/> <path d="M727.29,93.53c0.13,0.27,0.1,0.3,0.1-0.1L727.29,93.53z"/> <path d="M739.58,94.14c0,0.13-0.02,0.06,0.1,0.3L739.58,94.14z"/> <path d="M730.01,94.94l0.1,0.1C730.24,94.91,730.26,94.94,730.01,94.94z"/> <path d="M730.21,95.04l-0.1,0.1C730.31,95.28,731.73,96.56,730.21,95.04z"/> <path d="M728.6,95.65c0,0.26-0.16,0.26,0.81,0.91C728.97,95.9,728.81,96.06,728.6,95.65z"/> <path d="M536.83,199.39c-1.35,0.45-0.23,5.14,0.71,6.55c0.3-0.3,0.6-0.5,0.71-0.81C538.86,203.32,538.44,198.74,536.83,199.39z"/> <path d="M652.86,167.06c0.89-2.01-0.74-3.6-2.42-5.84c-1.36,2.04-0.94,0.75,1.31,6.75C652.25,168.06,652.65,167.66,652.86,167.06z"/> <path d="M609.45,155.37c-1.51,0.3-2.62,1.01-3.42,2.42C607.83,157.59,607.83,157.59,609.45,155.37z"/> <path d="M537.13,214.5c-0.81,1.11-0.3,1.71,0.6,2.22C538.24,215.71,538.14,215,537.13,214.5z"/> <path d="M536.93,208.96c-0.81,0.71-0.5,1.41-0.1,2.12C538.03,210.27,538.03,210.17,536.93,208.96z"/> <path d="M572.38,256.9c-0.2,0-0.6,0.6-0.5,0.6c0.2,0.4,0.6,0.71,1.11,1.21c0.3-0.4,0.6-0.71,0.6-0.91
		C573.49,257.2,572.98,256.8,572.38,256.9z"/> <path d="M635.03,194.86c0.1-0.1,0.2-0.2,0.3-0.5C631.89,193.21,633.13,197.07,635.03,194.86z"/> <path d="M645.2,147.52c-0.52-0.26-0.55-0.48-1.21,0.5C644.96,148.51,644.65,148.34,645.2,147.52z"/> <path d="M605.72,188.31c-0.38-0.76-0.22-0.44-0.71-0.2C605.58,188.39,605.31,188.72,605.72,188.31z"/> <path d="M619.82,149.43c-3.97,0-5.33,2.01-5.17,2.01c-0.48,0.09-1.14,0.02-1.35,0.65c0.44-0.2,0.83-0.46,1.37-0.64
		C616.55,151.63,618.23,151.21,619.82,149.43z"/> <path d="M613.27,152.15c0.01-0.02,0.02-0.04,0.02-0.06C613.14,152.17,613.14,152.15,613.27,152.15z"/> <path d="M598.06,184.99c-0.4-0.13-0.33-0.15-0.2,0.1L598.06,184.99z"/> <path d="M640.57,192.64c-0.3,0.1-0.71,0.1-1.11,0.2C640.06,193.35,640.37,193.24,640.57,192.64z"/> <path d="M583.66,287.82c-0.1,0-0.2,0.1-0.3,0.1C583.56,288.02,583.66,287.92,583.66,287.82z"/> <path d="M640.77,192.44c-0.1,0.1-0.2,0.1-0.3,0.1C640.67,192.64,640.77,192.54,640.77,192.44z"/> <path d="M617.6,227.79c-0.33-0.33-0.5,0.23-0.5,0.5c0.4,0.6,0.91,1.01,1.41,1.61C619.11,228.6,618.21,228.3,617.6,227.79z"/> <path d="M603.2,198.08c0,0.22-0.04,0.5,0.2,0.5c0-0.1,0.2-0.2,0.1-0.3S603.3,198.18,603.2,198.08z"/> <path d="M623.14,236.05c0.14-0.14,0.19,0.13-0.5-1.61C622.74,235.04,622.94,235.55,623.14,236.05z"/> <path d="M623.24,235.95c0.2,0.2,0.5,0.5,0.71,0.71C623.95,236.15,623.65,235.95,623.24,235.95z"/> <path d="M661.22,239.88c-0.26,0-0.23-0.05-0.1,0.2L661.22,239.88z"/> <path d="M621.83,233.84l-0.2-0.2c0.08,0.25,0.09,0.3,0.12,0.29l-0.02,0.02c0.3,0.2,0.5,0.4,0.81,0.6
		C622.34,234.24,622.14,234.04,621.83,233.84z"/> <path d="M509.13,223.16c-2.72-2.92-4.03-3.63-5.74-3.22c0.43,0.87-1.42-0.27,5.14,3.42C508.62,223.46,508.93,223.26,509.13,223.16z
		"/> <path d="M518.44,218.68l-0.05,0.05c0.17,0,0.31,0.11,0.1-0.1c-0.89-0.89-1.14-0.47,0.71-2.62c-1.7-2.54-0.95-0.46-4.43,2.52
		c0.91,0,2.51-0.22,2.95-0.66C518.02,218.46,518.34,218.78,518.44,218.68z"/> <path d="M517.59,218.02l0.1-0.1C517.66,217.92,517.6,218,517.59,218.02z"/> <path d="M512.45,250.05c-0.1,1.21,0,2.12,0.71,3.12C513.46,251.86,513.56,250.96,512.45,250.05z"/> <path d="M521.31,220.74c-0.77-0.96-1.44-1.8-2.71-1.98C519.37,219.63,520.07,220.64,521.31,220.74z"/> <path d="M523.33,224.77c0.1,0,0.2,0,0.3,0c-0.1-0.1-0.2-0.3-0.3-0.3C522.54,224.47,522.51,224.36,523.33,224.77z"/> <path d="M508.62,236.35c0,0.1-0.2,0.3-0.1,0.3c0.65,0.65,0.5,1.18,0.5,0C509.03,236.55,508.83,236.45,508.62,236.35z"/> <path d="M509.16,237.68c0.14,0.13,0.06-0.04-0.03-0.32C509.13,237.48,509.15,237.6,509.16,237.68z"/> <path d="M509.16,237.68c-0.01-0.01-0.01,0-0.03-0.02C509.19,237.83,509.18,237.8,509.16,237.68z"/> <path d="M515.62,262.09c0.08,0.08,0.17,0.17,0.25,0.25C515.88,262.28,515.78,262.09,515.62,262.09z"/> <path d="M515.47,262.04c0.1-0.1,0-0.2,0-0.3C515.47,261.84,515.47,261.94,515.47,262.04z"/> <path d="M514.57,218.83c0.1,0,0.2-0.1,0.3-0.2C514.67,218.63,514.67,218.73,514.57,218.83z"/> <path d="M522.72,222.35c-0.1-0.4-0.3-0.6-0.6-0.91C521.9,221.66,522.39,221.85,522.72,222.35z"/> <path d="M522.02,221.55c-0.17-0.25-0.38-0.43-0.57-0.65C521.53,221.3,521.77,221.47,522.02,221.55z"/> <path d="M521.42,220.64c-0.14,0.14-0.12,0.06,0.03,0.25C521.44,220.81,521.42,220.74,521.42,220.64z"/> <path d="M617.6,516.46c-0.4,1.21-2.01,0.91-2.12,2.42c2.58,1.19,5.82-0.16,7.76-0.81c0.3,0,2.28-2.95-2.82-2.32
		c-0.3,0-0.6,0.2-0.3,0c0.6,0,0.07,0.2,0.71-2.01c-0.6-1.01-1.61-1.11-2.52-0.91c-2.72,0.81-5.64,1.21-7.45,4.03
		C612.12,517.92,616.52,516.65,617.6,516.46z"/> <path d="M625.36,520.89c-1.01-0.91-1.01-0.91-2.82,0C623.75,521.49,624.55,521.69,625.36,520.89z"/> <path d="M591.32,226.68c-9-3.6-7.77-2.8-9.57-2.62c1.88,1.64,0.64,0.92,6.24,3.53c6.59,3.06,6.88,4.76,17.93,5.44
		c0.2,0,0.4-0.2,0.81-0.5C588.41,228.86,594.49,228.27,591.32,226.68z"/> <path d="M576.81,208.15c0.1-1.41,0.2-2.52,0.2-3.83C575.6,205.43,575.6,205.43,576.81,208.15z"/> <path d="M585.37,202.31c-1.11,1.41-0.1,2.72-0.2,3.93C585.47,205.03,585.88,203.72,585.37,202.31z"/> <path d="M587.99,213.79c0-1.16,0.24-0.58-0.71-1.21C587.29,213.86,587.47,213.53,587.99,213.79z"/> <path d="M573.79,220.54c0.1,0,0.2,0,0.3,0.1c0.1-0.1,0.2-0.1,0.2-0.2C574.19,220.44,573.79,220.16,573.79,220.54z"/> <path d="M588.9,215.91l-0.1,0.3C589.06,216.08,589.02,216.16,588.9,215.91z"/> <path d="M576.61,211.27l0.1-0.3C576.45,211.1,576.48,211.02,576.61,211.27z"/> <path d="M676.06,117.22c1.28-1.58,1.59-3.52,2.18-5.46C676.7,113.3,676.35,115.21,676.06,117.22z"/> <path d="M695.16,71.88c0.5-1.11,0.81-1.61,1.11-2.12C695.46,69.86,695.26,70.47,695.16,71.88z"/> <path d="M680.35,106.02l-0.1-0.1C680.25,106.18,680.23,106.08,680.35,106.02z"/> <path d="M680.25,106.09c-0.68,0.51-0.6,1.27-0.71,1.94C680.38,107.57,680.27,106.84,680.25,106.09z"/> <path d="M678.24,111.58c0.59-0.43,0.71-1.3,0.71-2.03C678.94,109.43,678.19,109.76,678.24,111.58z"/> <path d="M678.14,111.66l0.1,0.1C678.24,111.5,678.25,111.6,678.14,111.66z"/> <path d="M692.64,84.18c0.73-0.56,0.63-1.35,0.69-2.07c0.7-0.32,0.61-0.99,0.72-1.57c-0.76,0.19-0.63,0.9-0.78,1.48
		c-0.62,0.59-0.64,1.45-0.74,2.22c-0.74,0.49-0.62,1.37-0.7,2.12c-0.79,0.6-0.62,1.46-0.72,2.23c-0.78,0.6-0.6,1.46-0.71,2.24
		c1.66-4.42,1.26-2.26,1.5-4.41C692.62,85.81,692.55,84.95,692.64,84.18z"/> <path d="M679.65,108.14c-0.74,0.18-0.72,0.8-0.71,1.36C679.62,109.18,679.46,108.62,679.65,108.14z"/> <path d="M682.47,101.49l0.1,0.11C682.7,101.2,682.69,101.08,682.47,101.49z"/> <path d="M682.67,101.19c0-0.1,0-0.07-0.01,0.03C682.7,101.17,682.71,101.15,682.67,101.19z"/> <path d="M685.29,88.5c0.11-0.11,0.19-0.22,0.22-0.26C685.56,88.08,685.47,88.31,685.29,88.5z"/> <path d="M685.51,88.23c-0.01,0.02-0.01,0.03-0.02,0.06C685.54,88.2,685.53,88.2,685.51,88.23z"/> <path d="M684.68,90.11c0.18-0.44,0.35-0.96,0.53-1.42C684.69,89.01,684.68,89.56,684.68,90.11z"/> <path d="M685.29,88.5c-0.09,0.27-0.13,0.2,0.1,0.1L685.29,88.5z"/> <path d="M681.06,104.51c-0.75,0.19-0.72,0.73-0.71,1.29C681.04,105.65,680.96,104.99,681.06,104.51z"/> <path d="M680.25,105.82l0.1,0.1C680.35,105.73,680.37,105.82,680.25,105.82z"/> <path d="M681.9,102.74c-0.11,0.26-0.08,0.28-0.22,0.51C681.92,103.16,681.86,103.35,681.9,102.74z"/> <path d="M680.96,104.51c0.27-0.44,0.47-0.83,0.73-1.26C681.08,103.43,681.14,104.05,680.96,104.51z"/> <path d="M682.37,101.49c-0.03,0.09-0.07,0.18-0.1,0.27C682.59,101.52,682.68,101.65,682.37,101.49z"/> <path d="M681.9,102.72c0.12-0.32,0.24-0.64,0.36-0.96C681.96,102.01,681.92,102.35,681.9,102.72z"/> <path d="M707.51,188.45c0.05-0.02,0.11-0.01,0.14-0.04C707.58,188.43,707.54,188.44,707.51,188.45z"/> <path d="M707.85,188.41c-0.08,0-0.16,0.01-0.23,0.02C707.27,188.6,707.56,188.51,707.85,188.41z"/> <path d="M707.75,188.31c0.13,0.13,0.1,0.15,0.1-0.1L707.75,188.31z"/> <path d="M680.75,280.27c1.21-1.01,1.21-1.01,0.1-2.42C680.25,278.86,680.05,279.56,680.75,280.27z"/> <path d="M685.39,120.32c0.91,0,1.21-0.7,1.41-1.41c1.22-4.32,5.28-17.95,3.93-22.46C685.41,124.82,684.5,117.67,685.39,120.32z"/> <path d="M690.02,114.78l0.1-0.3C689.99,114.48,690.02,114.42,690.02,114.78z"/> <path d="M685.39,120.42c-0.1,0-0.2,0-0.3,0.1C685.19,120.52,685.29,120.42,685.39,120.42z"/> <path d="M219.05,392.97c-0.5-3.28-0.72-4.72-2.22-7.96c-0.4-1.11-0.6-2.52-2.52-3.02C218.84,396.08,219.66,400.88,219.05,392.97z"/> <path d="M222.98,339.89c1.78-3.11,0.08-8.3-1.31-7.25c-0.3,0.3-0.71,0.81-0.71,1.11C221.11,335.34,221.85,341.02,222.98,339.89z"/> <path d="M219.76,324.89c-0.4,0-0.71,0-0.81,0.1c-0.91,1.91-1.61,3.93-1.71,6.55C219.25,329.42,220.16,327.4,219.76,324.89z"/> <path d="M219.66,403.25c0-1.01,0.1-1.81,0.1-2.72C218.65,401.43,218.65,401.43,219.66,403.25z"/> <path d="M219.05,419.76c0.1-1.11,0.2-2.12,0.3-3.02C218.15,417.55,218.65,418.66,219.05,419.76z"/> <path d="M202.43,357.12c-0.54,0,0.2,0.94,0.5,2.01C203.73,357.87,202.61,357.12,202.43,357.12z"/> <path d="M213.11,377.16c0.24-0.73,0.75-0.64-0.4-1.41C212.37,376.76,211.98,376.78,213.11,377.16z"/> <path d="M211.5,336.27c-0.53-0.26-0.79-0.85-1.21,0.4C210.9,337.28,211.22,337.09,211.5,336.27z"/> <path d="M280.59,517.26c-0.1,0.3,0,0,0.2-0.2C280.71,517.14,280.64,517.21,280.59,517.26z"/> <path d="M218.15,458.34c0,0.38,0.17,0.33,0.3,0.2C218.33,458.3,218.36,458.13,218.15,458.34z"/> <path d="M219.36,416.14c0,0.54-0.35,0.76,0.3,0.1c0.1-0.1,0-0.2,0-0.3C219.56,416.04,219.36,416.04,219.36,416.14z"/> <path d="M205.25,362.76c-0.13,0-0.13-0.05,0,0.2V362.76z"/> <path d="M277.97,125.46c2.12,0.4,3.73-0.4,4.63-2.42c0.1-0.3-0.1-0.81-0.2-1.41c-1.61,0.6-1.51,3.12-3.53,2.42
		c-2.62-4.14-5.08-12.81-2.82-11.68c3.75,1.3,6.01-0.91,7.25-0.91c0.68,3.38-0.87,0.87-4.43,4.43c-0.3,0.3-0.4,0.81-0.6,1.31
		c-0.39,0.78,1.08,1.14,4.23,2.72c0.1-1.51,0.1-1.51-2.92-3.02c0.3-0.3,0.6-0.5,0.91-0.71c1.12-0.74,0.66-0.65,2.52,1.21
		c2.25-7.49,2.11-5.24,1.21-9.17c-0.44-1.91-2.01-2.52-3.42-1.11c-1.01,1.01-2.22,1.71-3.63,2.62c1.01-3.22,2.32-3.83,6.65-3.63
		c0.91,1.21,1.91,2.52,3.12,4.03c0.2-0.6,0.4-0.91,0.3-1.11c-0.81-1.61-1.41-3.32-2.82-4.43c-6.71-1.62-11.24,4.93-10.68,9.67
		C274.08,117.11,276.26,122.84,277.97,125.46z M281.6,108.34c0.6-0.4,0.81-0.2,1.21,1.11c-0.71,0.3-1.51,0.5-2.42,0.81
		C280.07,109.61,279.75,109.82,281.6,108.34z"/> <path d="M284.52,103.7c-0.2-1.01-0.91-1.31-1.31-1.71c-2.07-1.81-6.55-13.8-8.96-16.22c-0.91-0.91-1.31-2.52-2.12-4.03
		c-0.1,1.01-0.39,1.81-0.3,2.52c0.93,7.14,1.41,15.01,3.83,17.42c-0.38-4.23-1.41-4.28-2.22-13.09c-1.28-2.56,1.21,1.12,4.43,8.46
		C279.2,100.07,281.3,102.19,284.52,103.7z"/> <path d="M326.72,97.46c0.8-2.55-2.52-4.55-3.63-8.06c2.72,1.91,3.73,4.33,5.54,6.45c0.3-0.5,0.7-0.91,0.6-1.01
		c-1.08-2.08-3.68-7.65-6.95-7.65c-0.94-0.94-1.37-0.91-0.7-1.35c0-1.26-4.48-5.32-7.55-6.71c1.4,2.8,5.88,5.81,8.46,12.69
		C323.23,93.79,324.75,96.7,326.72,97.46z"/> <path d="M321.69,85.78c-0.06,0.03-0.1,0.05-0.1,0.1L321.69,85.78z"/> <path d="M292.98,112.87c0.2,0.2,0.6,0,1.31,0c-4.39-5.52,0.44-0.76,1.71-1.31c0.3-0.6-0.2-0.91-0.4-1.21
		c-11.4-14.66-5.71-8.12-10.47-10.98c0.3,0.6,0.52,1.3,0.91,1.81C289.73,106.03,283.7,106.12,292.98,112.87z M292.08,110.05
		c0-0.08,0-0.12,0-0.15c0,0.05,0,0.11,0.01,0.15H292.08z"/> <path d="M314.33,124.96c0.2,1.41,1.51,1.01,2.22,1.61c0.52,6.83,4.56,1.13,5.44,0.6c0.81-0.1,2.01-0.3,3.53-0.6
		c-0.6-0.4-0.91-0.81-1.31-0.81C322.73,125.55,315.94,124.56,314.33,124.96z"/> <path d="M287.95,96.45c-0.23-0.34-0.22-0.39-0.1,0.1L287.95,96.45z"/> <path d="M314.44,104.71c0.3,0.3,0.3,0.3,1.71,0.1c-5.39-5.39-10.09-9.51-11.28-13.09c-0.29-0.88-0.68-2.03-1.8-2.29
		C304.22,95.4,308.62,98.9,314.44,104.71z"/> <path d="M319.77,119.32c1.95,0.98,4.71,0.64,8.36,3.93c0.4,0.4,1.01,0.5,1.61,0.71c0.4,0.1,0.91-0.6,0.81-1.01
		c-1.02-2.04-4.75-4.57-9.27-4.63C320.12,118.29,320.13,118.96,319.77,119.32z"/> <path d="M316.95,88.5c0,0.77,4.59,7.69,5.04,8.36C323.14,98.59,328.38,99.47,316.95,88.5z"/> <path d="M241.41,174.51c9.41,1.34,9.82-0.44,11.48,1.81c2.9-3.86-8.76-2.52-12.59-2.52C240.71,174.01,241.01,174.41,241.41,174.51z
		"/> <path d="M294.09,100.68c1.56,3.38,4.73,6.22,4.73,6.75c0.05-0.16-0.03,0,0.81,0c-0.13-0.13,0.01-0.1-0.77-0.1
		c0.19-0.57,0.47-0.38,0.66,0c0.3-0.1,0.71-0.2,1.21-0.3c-5-5-5.45-7.2-5.59-7.6c0.09-0.05,0.05-0.05-0.05-0.15
		c9.59,6.71,9.79,7.63,12.29,7.45c2.47-0.18,3.89,0.38,5.64-0.2c0.42-1.13-0.71-1.31-1.91-1.31c0.15-0.15,0.12-0.12-0.01-0.02
		c-0.25-0.57-0.71-0.6-1.2-0.59c0.36,0.16,0.77,0.34,1.19,0.59c-3.3,2.73-18.14-7.71-17.82-12.12c0.7,0.42,0.96,1.36,1.91,1.35
		c-0.06,0.55,0.17,1.01,1.22,1.01c-0.53-0.44-0.84-0.74-1.11-1.01c0.29-2.21-8.52-12.93-11.99-25.08c0-0.08-0.13-0.1-0.24-0.15
		c-0.97,3.79-0.95,4.14,0.24,7.92c4.62,14.6,9.95,17.69,11.81,22.25C295.05,99.29,294.99,99.78,294.09,100.68z"/> <path d="M314.84,101.89c-0.2-1.21-0.1-1.21-1.11-2.22c-0.6-0.6-0.81-1.71-1.91-1.71C312.32,99.68,313.53,100.78,314.84,101.89z"/> <path d="M324,82.15c-0.4-1.6-0.03-0.72-3.32-4.32C320.72,79.07,321.61,79.27,324,82.15z"/> <path d="M320.58,77.72c0.13,0.17,0.1,0.11,0.1-0.1L320.58,77.72z"/> <path d="M312.42,91.52c-0.97-2.42,0.33-0.34-3.34-4.34C309.02,87.66,308.65,87.06,312.42,91.52z"/> <path d="M309.1,86.99l-0.1,0.1C309.06,87.18,309.1,87.23,309.1,86.99z"/> <path d="M306.78,100.08l-0.1,0.1C306.76,100.32,306.78,100.43,306.78,100.08z"/> <path d="M308.8,103.81c-3.03-5.21-1.34-3.27-2.71-2.21C306.88,102.51,307.59,103.5,308.8,103.81z"/> <path d="M282.31,95.75l-0.1,0.1C282.41,95.93,282.34,95.95,282.31,95.75z"/> <path d="M285.13,99.37c-0.48-1.56-1.27-2.84-2.78-3.46C282.68,97.53,283.56,98.69,285.13,99.37z"/> <path d="M262.87,168.77c0.1-0.2,0-0.6,0-0.91c-1.03,0.34-0.41-0.59-1.51,1.61C262.26,169.78,262.67,169.17,262.87,168.77z"/> <path d="M291.67,102.18c-0.16-0.07-0.17-0.18-0.12,0.03c-0.1,0.09-0.12,0.06,0.06,0.17C291.61,102.22,291.54,102.32,291.67,102.18z
		"/> <path d="M292.88,104.51c0-0.95-0.46-1.62-1.27-2.12C291.76,103.29,292.23,103.95,292.88,104.51z"/> <path d="M290.16,100.08c0.09,0.85,0.55,1.59,1.36,2.02C291.32,101.28,291,100.54,290.16,100.08z"/> <path d="M308.49,90.01c-0.47,0.47,0.34,1.51,1.11,1.51c-0.2-0.5-0.4-1.01-0.6-1.51C309,89.91,308.49,89.91,308.49,90.01z"/> <path d="M314.64,94.44c0.1-1.06-0.37-1.65-1.28-2.14C313.43,93.21,313.97,93.87,314.64,94.44z"/> <path d="M313.33,92.12l-0.03,0.03c0.03-0.04,0.01-0.06-0.14-0.18c0.03,0.08,0.05,0.16,0.07,0.25
		C313.45,92.35,313.33,92.33,313.33,92.12z"/> <path d="M325.47,84.94c-0.03-0.03-0.05-0.05-0.06-0.07C325.43,84.89,325.45,84.92,325.47,84.94z"/> <path d="M325.47,84.94c0.18,0.2,0.65,0.74,0.75,0.74c0-0.22,0.44,0,0.81,0c-0.1-0.95-0.65-1.63-1.4-2.13
		c0.11-0.11,0.12-0.09-0.01-0.09c0-0.13,0.03-0.13-0.1,0c-0.03,0,0.07,0.08,0.09,0.1C325.62,84.92,325.55,85.01,325.47,84.94z"/> <path d="M316.72,71.16c0.01,0.04,0.02,0.07,0.03,0.11C316.86,71.16,316.9,71.16,316.72,71.16z"/> <path d="M316.72,71.16c-0.25-1-1.2-1.11-1.88-1.5C315.03,70.82,315.69,71.14,316.72,71.16z"/> <path d="M293.79,105.3c0.02,0.9,0.84,1.47,1.21,2.14C295,106.47,294.53,105.79,293.79,105.3z"/> <path d="M293.79,105.11l-0.05,0.05c-0.75-1.07-1.12-0.74-0.01,0.01l-0.04,0.04C293.86,105.33,293.75,105.34,293.79,105.11z"/> <path d="M311.07,93.67l0.04-0.04c-0.04-0.03-0.08-0.06-0.12-0.09C310.99,94.1,313.01,95.03,311.07,93.67z"/> <path d="M309.7,91.42c-0.09,1.05,0.53,1.56,1.29,2.13C310.94,92.55,310.55,91.89,309.7,91.42z"/> <path d="M305.37,99.47l-0.1-0.1C305.27,99.45,305.25,99.47,305.37,99.47z"/> <path d="M305.27,99.45c-0.4-0.03-0.65-0.28-0.68-0.68c-0.19,0-0.37,0-0.55,0C305.59,101.02,305.27,101.18,305.27,99.45z"/> <path d="M306.09,101.6c-0.04-0.04-0.72-0.72-0.77-0.77c0.1-0.1,0.06-0.03-0.05-0.2c0,0.18,0.03,0.13-0.1,0.25
		C306.12,101.83,305.93,101.71,306.09,101.6z"/> <path d="M304.67,98.77l-0.1-0.1C304.56,98.78,304.59,98.77,304.67,98.77z"/> <path d="M303.96,98.77c0.09,0,0.08,0.02,0-0.1l-0.05,0.05c-0.07-0.07-0.05-0.08-0.05,0.05C303.86,98.9,303.83,98.9,303.96,98.77z"/> <path d="M278.18,129.79c0.01,0.02,0.01,0.05,0.02,0.07C278.23,129.87,278.23,129.84,278.18,129.79z"/> <path d="M278.08,129.79c0,0.76-0.31,0.6,0.2,0.6C278.28,129.8,278.18,129.89,278.08,129.79z"/> <path d="M303.06,89.43C303.06,89.43,303.06,89.43,303.06,89.43C303.06,89.43,303.06,89.43,303.06,89.43z"/> <path d="M303.06,89.43c0,0-0.01-0.04-0.07-0.27c-0.01,0.08-0.02,0.16-0.03,0.24C302.96,89.6,302.94,89.43,303.06,89.43z"/> <path d="M302.45,87.09c0.18,0.73,0.36,1.37,0.54,2.07C303.06,88.4,303.06,87.7,302.45,87.09z"/> <path d="M314.32,69.62c0.05,0,0.2,0.07,0.41,0.14C314.59,69.68,314.37,69.61,314.32,69.62z"/> <path d="M289.99,99.98c-0.16-0.38-0.31-0.77-0.46-1.15C289.48,99.28,289.55,99.71,289.99,99.98z"/> <path d="M289.98,99.98c0.03,0.07,0.05,0.13,0.08,0.2C290.16,100.08,290.22,100.1,289.98,99.98z"/> <path d="M317.26,98.87c0-0.25,0.38-0.2-0.39-0.73C316.86,98.67,317.13,98.74,317.26,98.87z"/> <path d="M311.74,97.91c-0.01,0.05,0,0.1-0.02,0.15C311.84,97.94,311.84,97.98,311.74,97.91z"/> <path d="M311.21,96.45c-0.19,0.66-0.01,1.15,0.52,1.46C311.87,97.29,311.68,96.83,311.21,96.45z"/> <path d="M316.75,98.06c0.15,0.08,0.1,0.18,0.1-0.1C316.76,97.79,316.79,97.81,316.75,98.06z"/> <path d="M316.78,97.84c0.08-0.54,0.07-1.11-0.63-1.29C316.33,97.02,316.58,97.46,316.78,97.84z"/> <path d="M315.51,95.19c0.01-0.05,0.01-0.1,0.03-0.15C315.43,95.15,315.41,95.13,315.51,95.19z"/> <path d="M316.05,96.65c0.1-0.57,0-1.15-0.53-1.46C315.38,95.73,315.49,96.19,316.05,96.65z"/> <path d="M300.33,94.24c0.1,0.6,0.3,1.11,0.4,1.61C300.84,95.75,300.97,95.84,300.33,94.24z"/> <path d="M302.35,87.19c0.13-0.13,0.14-0.08-0.06-0.16C302.31,87.08,302.33,87.14,302.35,87.19z"/> <path d="M302.29,87.03c-0.18-0.45-0.36-0.91-0.54-1.45C301.74,86.13,301.66,86.77,302.29,87.03z"/> <path d="M309.7,104.51l-0.1,0.1C310,104.61,309.97,104.65,309.7,104.51z"/> <path d="M321.99,85.57l-0.1,0.1C322,85.65,321.99,85.74,321.99,85.57z"/> <path d="M322.59,86.38c0.09-0.46-0.17-0.75-0.6-0.72C321.99,86.32,321.84,86.38,322.59,86.38z"/> <path d="M321.99,86.38c0-0.13,0.02-0.06-0.1-0.1L321.99,86.38z"/> <path d="M307.59,85.57l-0.1,0.1C307.62,85.81,307.55,85.8,307.59,85.57z"/> <path d="M326.22,85.68c0,0.12,0.01,0.1,0.1,0.1L326.22,85.68z"/> <path d="M325.71,85.78c-0.01-0.01-0.03-0.04-0.19-0.2C325.51,85.82,325.46,85.78,325.71,85.78z"/> <path d="M326.32,86.48c0-0.26-0.07-0.51-0.08-0.71C325.72,85.78,325.43,85.59,326.32,86.48z"/> <path d="M321.18,76.31c-0.12-0.12-0.04-0.07-0.1,0.1c0.39,0.39,0.66,0.61,0.71,0.6l0,0c1.46,1.46,0.58,0.62,0.1-0.1l-0.1,0.1
		C321.84,77.01,321.67,76.79,321.18,76.31z"/> <path d="M320.48,77.72c-0.07-0.21-0.53-0.81-0.81-0.81C319.79,77.03,320.37,77.61,320.48,77.72z"/> <path d="M320.48,75.6c0.65,0.65,0.71,0.91,0.71-0.1c-0.88,0-0.71,0.14-0.71-0.71c-0.89,0-0.71,0.16-0.71-0.81
		C319.09,74.41,319.7,74.83,320.48,75.6z"/> <path d="M316.05,87.79C316.05,87.69,315.85,87.59,316.05,87.79L316.05,87.79z"/> <path d="M308.22,86.49c-0.02-0.14,0.09,0.02-0.65-0.73C307.55,86.4,307.94,86.21,308.22,86.49z"/> <path d="M308.9,87.09c-0.25-0.17-0.44-0.4-0.67-0.59C308.29,86.92,308.55,87.09,308.9,87.09z"/> <path d="M323.3,87.09c0-0.46-0.18-0.74-0.6-0.71C322.69,87.04,322.55,87.09,323.3,87.09z"/> <path d="M322.59,86.99l0.1,0.1C322.69,86.96,322.71,87.02,322.59,86.99z"/> <path d="M322.69,86.38c0-0.04,0-0.06,0-0.1C322.57,86.4,322.56,86.38,322.69,86.38z"/> <path d="M330.45,86.99c0.07,0.07,0.13,0.13,0.2,0.2C330.65,86.99,330.55,86.99,330.45,86.99z"/> <path d="M325.51,83.46c-0.27-0.24-0.51-0.44-0.6-0.71C324.91,83.19,325.08,83.46,325.51,83.46z"/> <path d="M304.46,82.65c-0.04,0-0.06-0.02-0.08-0.04C304.49,82.91,304.68,82.87,304.46,82.65z"/> <path d="M324.1,82.05l-0.1,0.1C324.22,82.12,324.27,82.22,324.1,82.05z"/> <path d="M324.21,82.15c0.19,0.19,0.43,0.44,0.6,0.71C324.81,82.41,324.64,82.15,324.21,82.15z"/> <path d="M313.93,79.03l0.1,0.2C314.03,79.1,314.05,79.15,313.93,79.03z"/> <path d="M323.4,78.52l-0.1,0.1C323.56,78.63,323.53,78.65,323.4,78.52z"/> <path d="M322.69,77.82l-0.1,0.1C324.01,79.33,322.94,78.07,322.69,77.82z"/> <path d="M307.49,85.68c-0.17-0.17-0.42-0.42-0.61-0.61C306.86,85.44,307.05,85.68,307.49,85.68z"/> <path d="M306.88,84.87l-0.1,0.1C306.92,85.11,306.85,85.09,306.88,84.87z"/> <path d="M325.51,85.57c0-0.56,0.12-0.6-0.6-0.6C325.08,85.14,325.32,85.38,325.51,85.57z"/> <path d="M306.08,84.16l-0.1,0.1C306.19,84.48,306.08,84.43,306.08,84.16z"/> <path d="M306.68,84.97c-0.16-0.16-0.38-0.38-0.57-0.57C306.16,84.73,306.35,84.89,306.68,84.97z"/> <path d="M305.22,83.51l-0.05,0.05c0.3,0.2,0.5,0.5,0.81,0.71c-0.19-0.6-0.74-0.67-0.6-0.81C304.05,82.14,304.97,83.33,305.22,83.51
		z"/> <path d="M324.15,84.22c0.19,0.27,0.46,0.47,0.65,0.76C323.91,83.61,323.96,84.41,324.15,84.22z"/> <path d="M289.56,98.57c-0.89-0.59-0.9-0.64-0.96-0.56c-0.03-0.17-0.29-0.9-0.55-1.56l-0.1,0.1c0.39,0.98,0.58,1.39,0.63,1.48
		c-0.01,0.01-0.02,0.02-0.03,0.03C289.78,98.89,289.52,98.87,289.56,98.57z"/> <path d="M303.26,97.96c-0.11,0.11-0.17,0.11,0.11,0.15C303.34,98.06,303.3,98.01,303.26,97.96z"/> <path d="M303.86,98.06c-0.14,0.07-0.32,0.07-0.49,0.05C303.99,98.96,303.86,98.65,303.86,98.06z"/> <path d="M304.56,98.57l0.1,0.1C304.67,98.54,304.69,98.57,304.56,98.57z"/> <path d="M304.67,98.07c0,0.16,0,0.32,0,0.49C305.42,98.57,305.19,98.7,304.67,98.07z"/> <path d="M305.16,98.57c0.01,0.01,0.05,0.04,0.21,0.2C305.37,98.52,305.41,98.57,305.16,98.57z"/> <path d="M303.26,95.75c-0.13,0.13-0.13,0.07,0,0.2V95.75z"/> <path d="M240,173.6c0.1,0.1,0.1,0.2,0.2,0.3C240.31,173.71,240.2,173.6,240,173.6z"/> <path d="M301.68,96.51c0.9,1.23,1.02,0.7,0.01-0.01l0.05-0.05c-0.3-0.2-0.5-0.5-0.81-0.71C301.04,96.05,301.57,96.63,301.68,96.51z
		"/> <path d="M303.76,97.96l0.1,0.1C303.96,97.93,304.02,97.96,303.76,97.96z"/> <path d="M304.56,97.96c-0.16,0-0.05-0.01,0,0.1c0-0.1-0.03-0.16,0.1,0.01C304.67,97.81,304.7,97.83,304.56,97.96z"/> <path d="M303.95,97.96c0.17,0,0.34,0,0.53,0C304.32,97.75,304.12,97.78,303.95,97.96z"/> <path d="M303.26,97.86c-0.3-0.2-0.5-0.5-0.81-0.71C303.11,98.15,303.15,97.96,303.26,97.86z"/> <path d="M295.1,107.33C295,107.43,295.3,107.63,295.1,107.33L295.1,107.33z"/> <path d="M309.6,104.51c-0.16-0.21-0.08-0.09-0.1,0.1L309.6,104.51z"/> <path d="M308.9,103.7c0.17,0.26,0.41,0.45,0.6,0.7C309.5,103.97,309.24,103.8,308.9,103.7z"/> <path d="M305.37,98.77c0,0.19,0,0.36,0,0.5C306.01,99.27,306,99.4,305.37,98.77z"/> <path d="M305.27,99.27l0.1,0.1C305.37,99.25,305.39,99.27,305.27,99.27z"/> <path d="M305.97,99.27c-0.52,0,1.84,1.84,0.05,0.05C306.13,99.22,306.08,99.27,305.97,99.27z"/> <path d="M299.53,93.53c-1.03-1.07-0.44,0.01-1.31-2.12c0.1,0.5,0.3,1.01,0.5,1.61C298.98,92.77,299.21,93.86,299.53,93.53z"/> <path d="M312.52,91.42c0.24,0.16,0.42,0.37,0.63,0.55C313.04,91.63,312.85,91.42,312.52,91.42z"/> <path d="M297.92,91.32l0.2,0.2C298.25,91.39,298.3,91.44,297.92,91.32z"/> <path d="M316.15,87.79c0.09,0.34,0.26,0.66,0.61,0.69C316.56,88.24,316.32,88.05,316.15,87.79z"/> <path d="M316.85,88.6l0.1-0.1C316.73,88.53,316.71,88.4,316.85,88.6z"/> <path d="M311.11,96.55c-0.1-0.2-0.2-0.3-0.3-0.5C310.51,96.55,310.91,96.45,311.11,96.55z"/> <path d="M282,95.65l0.1,0.2C282.24,95.72,282.26,95.77,282,95.65z"/> <path d="M302.35,95.24c0.3,0.2,0.5,0.4,0.81,0.6C302.95,95.54,302.35,95.07,302.35,95.24z"/> <path d="M300.23,94.34l0.1-0.1C299.29,93.19,299.26,93.37,300.23,94.34z"/> <path d="M315.33,94.96c-0.03-0.36-0.23-0.62-0.7-0.62C314.73,94.71,314.92,95.05,315.33,94.96z"/> <path d="M315.34,95.04l0.1-0.1C315.31,95.01,315.34,94.88,315.34,95.04z"/> <path d="M18.42,232.53c0.1-0.91,0.2-1.81,0.3-3.12c-2.15-2.58-3.33-5.54-7.86-3.02c1.18,0.98,0.54,1,4.43,1.71
		c0.6,1.11,1.11,2.12,1.81,3.32c-0.6,0.91-1.31,1.81-2.01,2.72C16.13,235.47,18.42,233.93,18.42,232.53z"/> <path d="M33.22,226.28c1.21-1.91,2.42-3.73,3.93-5.94c-0.81-0.1-1.31-0.3-1.61-0.1c-1.51,1.01-2.7,2.42-3.32,4.13
		C31.92,225.18,32.22,225.68,33.22,226.28z"/> <path d="M184.61,152.05c3.32-0.2,4.03-0.5,6.14-2.01C188.43,149.83,188.33,149.94,184.61,152.05z"/> <path d="M224.39,166.55c0-2.55-1.4-3.38-2.42-4.73c-0.66,0.33-0.4,0.22,1.41,5.64C224.09,167.76,224.39,167.16,224.39,166.55z"/> <path d="M107.66,189.62c0.3-0.6,0.2-0.6-0.71-1.81c-1.66,0.79-1.44,2.8-2.53,3.93C105.98,191.79,107.06,191,107.66,189.62z"/> <path d="M153.38,164.24c-2.01,0.91-2.32,2.42-2.62,3.83C153.84,164.99,153.38,166.17,153.38,164.24z"/> <path d="M81.07,208.15c1.61,0.3,1.61,0.3,3.32-0.81C82.38,207.14,82.38,207.14,81.07,208.15z"/> <path d="M179.77,155.98c-0.92,0.48-1.91,1.01-2.22,2.22c1.91-0.6,1.91-0.6,3.22-2.22C180.38,155.98,179.97,155.87,179.77,155.98z"/> <path d="M111.99,182.37c0.91,0,1.81,0,2.82,0C113.5,180.76,113.1,180.76,111.99,182.37z"/> <path d="M99.9,195.76c-1.11-0.71-1.61,0.1-2.22,0.91C98.79,197.07,99.4,196.77,99.9,195.76z"/> <path d="M206.56,195.26c-0.97-1.39-2.37-0.32-2.12,0.2C204.73,196.03,205.29,195.68,206.56,195.26z"/> <path d="M133.34,196.97c0.01-0.04,0.01-0.07,0.02-0.11C133.19,196.86,133.23,196.86,133.34,196.97z"/> <path d="M135.46,195.56c-1.76,0-1.9,0.01-2.09,1.3C134.39,196.83,135.07,196.43,135.46,195.56z"/> <path d="M89.63,204.63c-0.3,0-0.6-0.2-0.91-0.1c-0.2,0.1-0.3,0.5-0.6,0.81C89.24,205.33,89.04,205.8,89.63,204.63z"/> <path d="M9.25,237.46c-0.15-0.75-0.83-1.11-1.51-0.1c0.3,0.3,0.6,0.5,1.01,0.81C8.95,237.96,9.25,237.66,9.25,237.46z"/> <path d="M116.82,183.58c0.4,0,0.6,0.1,1.31,0.2C116.56,182.73,117.22,182.77,116.82,183.58z"/> <path d="M212.2,193.14c0.3-0.15,0.2-0.63-1.11-0.3C211.1,193.54,210.96,193.14,212.2,193.14z"/> <path d="M184.39,152.27c0.01-0.01,0.01-0.01,0.02-0.02C184.29,152.3,184.31,152.3,184.39,152.27z"/> <path d="M184.71,152.15c-0.14,0.05-0.25,0.09-0.32,0.12C184.23,152.42,184.42,152.24,184.71,152.15z"/> <path d="M177.15,188.61c-0.58-0.29-0.66-0.24-0.91,0c0.3,0.1,0.5,0.2,0.71,0.3C177.05,188.81,177.15,188.71,177.15,188.61z"/> <path d="M147.44,169.78c-0.13,0.25-0.16,0.2,0.1,0.2L147.44,169.78z"/> <path d="M150.87,168.17l-0.1-0.1C150.5,168.2,150.46,168.17,150.87,168.17z"/> <path d="M180.28,189.82l-0.1-0.1C180.18,189.98,180.15,189.95,180.28,189.82z"/> <path d="M104.33,191.96C104.13,192.24,104.29,192.35,104.33,191.96L104.33,191.96z"/> <path d="M104.33,191.83c0,0.05,0,0.09-0.01,0.13c0.03-0.04,0.06-0.08,0.11-0.13l-0.05-0.05c0.02-0.02,0.03-0.04,0.04-0.05
		C104.31,191.73,104.33,191.71,104.33,191.83z"/> <path d="M188.33,228.6c0.62,0.93,0.09,0.7,1.31,1.51C189.84,228.7,189.74,228.5,188.33,228.6z"/> <path d="M174.64,198.68c0.1,0.2,0,0-0.1-0.3C174.64,198.68,174.64,198.89,174.64,198.68z"/> <path d="M193.47,234.84c0-0.1-0.1-0.2-0.1-0.3C193.37,234.64,193.37,234.74,193.47,234.84z"/> <path d="M194.48,236.55c0.06,0.06,0.11,0.08,0.15,0.11C194.53,236.48,194.48,236.16,194.48,236.55z"/> <path d="M194.62,236.67c0.02,0.04,0.04,0.07,0.06,0.09C194.68,236.71,194.65,236.69,194.62,236.67z"/> <path d="M232.45,240.18h-0.2C232.37,240.31,232.32,240.31,232.45,240.18z"/> <path d="M232.15,240.48c0-0.02,0-0.03,0-0.05C231.77,240.7,232.15,240.58,232.15,240.48z"/> <path d="M232.35,240.28l-0.2-0.1C232.15,240.42,232.09,240.54,232.35,240.28z"/> <path d="M193.27,234.64c0-0.2-0.1-0.3-0.1-0.3C193.17,234.44,193.27,234.54,193.27,234.64z"/> <path d="M174.43,198.48c0.13-0.13,0.15-0.07-0.1-0.2L174.43,198.48z"/> <path d="M190.65,516.15c0.6-0.6,1.53-0.91,1.41-1.91c-0.28-2.31-7.1,0-9.17,2.12C179.64,519.7,190.55,516.15,190.65,516.15z"/> <path d="M186.42,518.67c0.4,0.4,0.5,0.81,0.81,0.91c2.32,0.4,4.53,0,6.65-0.71c1.11-0.37,1.49-1.63,1.31-1.81
		c-0.67-1.66-2.75-0.8-3.42-0.71C190.61,516.07,190.09,516.58,186.42,518.67z"/> <path d="M196.59,520.79c-1.01-0.6-1.91-0.2-2.92,0.1C195.79,522.3,195.79,522.2,196.59,520.79z"/> <path d="M114.4,236.86c-0.1,0-0.2,0.1-0.3,0.1c0,0.48-0.91,0.23,0.71,1.31c12.36,5.84,11.05,5.25,11.68,4.94
		C126.49,242.44,127.66,243.15,114.4,236.86z"/> <path d="M74.02,219.33c0.3,0.81,0.3,1.21,0.5,1.31c1.41,1.21,3.83,2.32,5.54,2.72C78.25,221.14,78.25,221.14,74.02,219.33z"/> <path d="M90.74,216.61c-0.6-0.71-1.11-1.11-1.41-1.61c-1.96,2.94-1.24,0.91-3.73,4.33c1.38,0,2.19-1.43,3.44-0.74
		C89.16,217.74,89.5,216.99,90.74,216.61z"/> <path d="M128,244.61c0.4,1.61,1.51,2.22,2.22,3.02C130.32,246.12,129.41,245.42,128,244.61z"/> <path d="M79.96,236.45c0,1.9-0.1,1.61,0.3,1.61C80.26,236.17,80.36,236.45,79.96,236.45z"/> <path d="M89.31,218.78c0.57,0.47,1.06,1.14,1.93,1.16C90.72,219.34,90.11,218.87,89.31,218.78z"/> <path d="M91.34,220.04l0.1-0.1C91.17,219.97,91.21,219.86,91.34,220.04z"/> <path d="M89.02,218.73c0.2,0,0.45,0.13,0.1-0.1C89.02,218.56,89.04,218.62,89.02,218.73z"/> <path d="M94.97,225.17c-0.1-0.2-0.3-0.3-0.4-0.5C93.98,224.96,94.37,224.57,94.97,225.17z"/> <path d="M132.64,249.75c0.13,0.09,0.31,0.37,0.1-0.1L132.64,249.75z"/> <path d="M132.82,249.92c0.14,0.41,0.24,0.85,0.32,1.34C133.22,250.75,133.15,250.24,132.82,249.92z"/> <path d="M130.32,247.53l-0.1,0.1c0.3,0.2,0.5,0.4,0.81,0.6C130.92,247.94,130.62,247.73,130.32,247.53z"/> <path d="M131.73,249.04l0.1-0.1C130.62,247.73,131.22,248.28,131.73,249.04z"/> <path d="M131.93,248.94l-0.1,0.1C132.78,250,132.99,250.01,131.93,248.94z"/> <path d="M133.34,251.23c0.26,0.18,0.52,0.36,0.71,0.63C133.96,251.43,133.78,251.16,133.34,251.23z"/> <path d="M133.14,251.26c0.08-0.03,0.13-0.02,0.2-0.03C133.2,251.16,133.29,251.11,133.14,251.26z"/> <path d="M89.02,214.8c0.1,0.1,0.1,0.2,0.2,0.3C89.22,214.9,89.12,214.8,89.02,214.8z"/> <path d="M92.15,220.74c-0.17-0.17-0.41-0.41-0.6-0.6C91.55,220.49,91.8,220.66,92.15,220.74z"/> <path d="M91.54,220.14c-0.01-0.07-0.02-0.12,0-0.2C91.41,220.06,91.42,220.01,91.54,220.14z"/> <path d="M95.07,225.17l-0.1-0.1C94.97,225.2,94.94,225.17,95.07,225.17z"/> <path d="M93.76,222.55c0-0.1-0.1-0.2-0.1-0.3C93.66,222.35,93.66,222.45,93.76,222.55z"/> <path d="M93.56,222.25l0.1-0.1C92.42,220.91,93.02,221.72,93.56,222.25z"/> <path d="M92.25,220.64c0.1,0.4,0.4,0.71,0.6,0.91C93.07,221.33,92.58,221.14,92.25,220.64z"/> <path d="M167.38,230.61c-4.69-1.23-1.59-2.08-7.25-4.23c-6.09-2.31-3.07-1.52-6.95-2.12c0.9,1.2,0.45,1.39,4.63,3.12
		c11.25,4.64,2.02,3.22,15.01,5.64c3.63,0.68,3.89,0.5,4.63,0C177.07,232.36,173.36,232.18,167.38,230.61z"/> <path d="M148.15,208.15c0.1-1.21,0.1-2.32,0.2-3.63C146.74,205.83,146.74,206.04,148.15,208.15z"/> <path d="M156.81,202.51c-1.01,1.11-1.01,1.81,0,3.02C156.81,204.32,156.81,203.62,156.81,202.51z"/> <path d="M159.02,213.99c0-0.48,0.51-0.45-0.4-0.91C158.27,213.78,158.77,213.74,159.02,213.99z"/> <path d="M128.81,235.95c0,0.1,0.2,0,0.2,0c-0.2-0.2-0.5-0.4-0.71-0.6C128.11,235.54,127.92,235.51,128.81,235.95z"/> <path d="M129.14,235.99c0.09,0.36,0.07,0.52,0.07,0.16C129.21,236.08,129.17,236.06,129.14,235.99z"/> <path d="M145.12,221.04c0.25,0.25,0.2,0.26,0.2,0H145.12z"/> <path d="M148.05,211.78h0.1C148.01,211.51,148.05,211.53,148.05,211.78z"/> <path d="M250.98,110.86c0.95-0.86,1.44-1.98,1.49-3.29C251.56,108.46,251.08,109.61,250.98,110.86z"/> <path d="M252.59,107.28c-0.07,0.03-0.12,0.01-0.12,0.28C252.62,107.42,252.59,107.43,252.59,107.28z"/> <path d="M250.33,113.32c-0.92,0.27-0.26,0.68-1.56,3.27C249.57,115.79,249.13,117.37,250.33,113.32z"/> <path d="M253.9,103.7c-0.01,0.07-0.02,0.15-0.02,0.22C254.03,103.77,254.02,103.82,253.9,103.7z"/> <path d="M253.88,103.93c-0.57,0.57-0.59,1.24-0.68,1.89C253.92,105.37,253.83,104.59,253.88,103.93z"/> <path d="M248.77,116.6c0.04,0.26,0.01,0.19,0.1,0.1L248.77,116.6z"/> <path d="M250.46,113.09c-0.13,0.13-0.06,0.05-0.13,0.23C250.5,113.29,250.49,113.28,250.46,113.09z"/> <path d="M250.46,113.09c0.61-0.59,0.62-1.36,0.62-2.14C250.34,111.52,250.37,112.34,250.46,113.09z"/> <path d="M253.3,105.92c-0.83,0.19-0.73,0.8-0.71,1.36C253.19,106.97,253.21,106.39,253.3,105.92z"/> <path d="M268.41,70.47c-0.89,0.44-0.3,0.55-0.3,0.81C268.38,71,268.41,70.81,268.41,70.47z"/> <path d="M254.61,102.09l0.1,0.1C254.8,101.96,254.86,102.06,254.61,102.09z"/> <path d="M255.41,100.88c-0.18,0.35-0.43,0.79-0.62,1.16C255.29,101.85,255.23,101.25,255.41,100.88z"/> <path d="M268.51,76.91c-0.81,0.3-0.81,1.01-0.81,1.61C268.41,78.22,268.41,77.62,268.51,76.91z"/> <path d="M257.63,89.4l-0.1-0.1C257.53,89.55,257.54,89.42,257.63,89.4z"/> <path d="M258.33,87.89l-0.1-0.1C258.14,88.37,258.18,88.17,258.33,87.89z"/> <path d="M258.19,88.16c-0.23,0.4-0.41,0.81-0.66,1.14C258.09,89.06,258.14,88.63,258.19,88.16z"/> <path d="M254.71,102.19c-0.18,0.45-0.35,0.91-0.53,1.42C254.69,103.29,254.62,102.74,254.71,102.19z"/> <path d="M254,103.7l0.1,0.1C254.18,103.54,254.25,103.6,254,103.7z"/> <path d="M258.23,87.79c0.1,0,0.2,0,0.3-0.1C258.43,87.69,258.33,87.79,258.23,87.79z"/> <path d="M255.51,100.68c-0.1,0-0.1,0.1-0.2,0.1C255.41,100.78,255.51,100.78,255.51,100.68z"/> <path d="M278.88,188.11l0.2-0.2C278.83,187.78,278.88,187.72,278.88,188.11z"/> <path d="M277.18,190.35c0.21-0.11,0.48-0.12,0.09-0.12C277.22,190.27,277.2,190.31,277.18,190.35z"/> <path d="M277.18,190.35c-0.04,0.02-0.08,0.05-0.11,0.08C277.12,190.42,277.15,190.39,277.18,190.35z"/> <path d="M86.81,262.34l-0.1-0.2C86.58,262.39,86.55,262.34,86.81,262.34z"/> <path d="M262.56,100.58c-1.3,5.84-1.73,8.91-2.62,12.69c-1,4.25-1.95,5.13-2.22,8.06c1.81-1.51,1.95-3.11,2.42-4.53
		C265.14,101.58,263.6,92.31,262.56,100.58z"/> <path d="M262.26,116.19h0.1C262.22,115.77,262.26,115.82,262.26,116.19z"/> <path d="M257.02,122.34c-0.1,0.1-0.2,0.1-0.3,0.1C256.92,122.44,257.02,122.44,257.02,122.34z"/> </g> </svg> 