<?xml version="1.0" encoding="utf-8"?> <!-- Generator: Adobe Illustrator 23.0.1, SVG Export Plug-In . SVG Version: 6.00 Build 0)  --> <svg version="1.2" baseProfile="tiny" id="Layer_1" xmlns="http://www.w3.org/2000/svg" xmlns:xlink="http://www.w3.org/1999/xlink" x="0px" y="0px" viewBox="0 0 900 600" xml:space="preserve"> <g> <path d="M719.48,561.91c-7.09-1.24-4.67-1.59-10.9-5.4c-9.27-5.67-5.41-2.01-16.7-16.8c-1.24-1.63-1.68-0.95-5.3-2.4
		c0-7.96,1.08-3.71,0.5-18.8c-0.66-17.22,1.2-27.2,1.2-50.6c0-3.3-0.72-6.68,0.2-10c0.04-0.15-1.45-10.51-0.6-17.2
		c0.41-3.21,0.45-13.27-0.8-19c-1.23-5.63-3.7-4.79-5.2-10.4c-15.54-57.99-27.15-60.67-40.9-81.1c-1.85-2.75-0.42-4.01,2.3-18.9
		c0.88-4.81,1-10.13,1.2-10.6c1-2,0.2-4.41,0.2-7.9c-0.83-14.31,3.22-15.61,4.1-30c0.49-8.12,0.91-4.78,1-9.9
		c0.21-11.56-0.87-7.29,2.3-9.9c5.68-4.67,6.8-4.69,9.8-12.5c8.74-22.75-24.57-31.18-39.8-48.2c0-17.17,1.33-8.71,0.3-16.3
		c-0.3-1.5-0.6-2.9-0.4-4.6c5.3,1,10.5,2.1,15.1-1.1c0.9-2.2,0.1-4,0.2-6c1.3-1.4,1.8-3,0.5-4.8c0.6-0.8,1-1.4,1.4-1.9
		c0.3-1.4-1.1-2.6,0.1-4c4.11-1.37,4.74-1.93,3.9-3.6c-4.85-8.48-2.45-4.69-4.7-8.8c-2.65-4.83,4.54-4.92-5.2-24.4
		c-1.42-2.84-7.59-6.89-8.3-7.1c-4.03-1.2-8-3.1-12.2-3.3c-2.87-3.35-2.8-8.71-2.8-13.7c0-7.11-2.04-9.8-3.5-14
		c-6.22-17.93-7.54-16.98-8.3-19.8c-2.16-7.98-6.46-13.64-5.9-18.3c0-1.45-1.2-4.44-1.1-10.3c0.04-2.38-0.39-2.11-7.5-13.1
		c0-1.14,0.5-3.22-0.5-5.3c-1.33-2.76-3.57-1.58-5.6-1c-0.9-0.4-1.6-0.7-2.2-0.9c-3.3,1.3-4.85,4.15-7.1,6.3
		c-0.2,0.2-0.4,0.6-0.4,0.9c-0.1,1.6-1.3,2.4-2.2,3.4c-0.61,4.28,0.56,0.12-0.2,9.6c-0.37,1.83,0.45,1.83,7.3,5.7
		c0.63,3.17-2.09,83.9-2.1,84c-6.71,4.02-6.95,12.34-6.5,20.6c1.03,18.93-0.84,20.09,1.6,26.5c5.74,15.11,4.98-12.64,0.5,154
		c-5.36,199.45-1.25,153.05-8.6,174c-3.17,9.04-2.16,14.43-2.3,33.7c-0.05,6.68-2.1,16.81-2.1,27.9c0,2.1-0.3,4.1-1.1,6.2
		c-1.27,0.42-7.61,1.49-7.2,9.9c0.51,10.4,1.87,9.14-3.8,21.3c-0.6,1.3-0.29,2.39,0.6,3.2c3.22,2.9,4.97,4.55,7.9,4.5
		c10.2-0.18,7.95,0.65,11.7,2.6c1.31,0.68,2.6-0.2,3.5-0.6c14.5,5.58,17.3,7.42,27,5.6c22.78-4.27,22.06-17.16,13.5-19.6
		c-3.4-0.97-1.99,0.38-12.9-5.9c-2.78-1.6,0.67-0.75-5.8-5.3c-8.1-5.7-2.19-2.42-10.3-12.7c-0.71-0.9-0.5-1.9-1-2.9
		c-4.95-0.9-3.33,0.87-2.6-5.4c2.19-18.91,1.3-7.63,5.8-26.2c1.3-5.36,1.25-6.37,11.3-27.8c4.24-9.04,4.92-19.72,10.5-25.3
		c4.98-4.98,8.69-11.49,8.4-18.4c-0.48-11.27,6.49-16.12,16.8-47.8c0.1-0.4,0.3-0.8,0.5-1.3c0.4,0.3,0.69,0.4,0.9,0.7
		c10.18,14.7,22.8,22.41,31.4,40.4c1.33,2.78,0.88,4.84,0.3,8.1c-3.04,17.02-2.5,8.75-2.5,28.2c0,4-0.78,3.07,0.4,6.5
		c1.16,3.36,4.1,8.95,6.1,17.6c4.81,20.87,2.2,7.77,4.4,34.8c1.46,17.9-0.04,8.28-2.3,11c2.05,2.93,2.63,5.02,5.8,5.6
		c1.7,0.31,3.8,1.3,4.7-1.3c0-0.37,2.56-1.13,2.8-1.2c7.07-1.57,3.99-6.56,11.1-11.2c1.35,1.35,2.29,1.43,5.6,7.5
		c-0.82,0.75-6.99,5.5-4.2,6.9c0.87,0.58,1.09,0.18,5.1-4.5c0.1-0.1,0.4-0.1,0.8-0.1c2.22,2.78-0.26,1.49-1.9,6.8
		c-0.41,1.34,1.18,2.22,2.2,1.2c0.43-0.43,2.53-3.77,2.8-4.2c2.6,2.6,2.07,1.47,0.4,5c-0.46,0.98-0.75,1.67,0.5,2.6
		c1.08,0.54,2.49-2.06,3.7-4c1.4,0.7,2.6,1.2,3.7,2.3c-0.61,1.38-1.47,3.03-0.4,4.1c0.95,0.95,2.11-0.93,3-2
		c13.97,6.99,16.19-0.32,15.7,12.3c-3.25,2.41-11.32,5.27-14.5,5.2c-6.72-0.15-9.55,0.16-11.9-1.6c-0.31-0.21-5.82-1.57-8-2.3
		c-5.32-1.79-15.24,2.9-28.7-1.3c-1.21-0.38-2.4-0.7-3.5-1.9c0.8-2.4,0.57-5.11,1.5-7.6c0.69-1.86,0.6-7.05,0.8-7.5
		c1.42-3.18,0.67-7.19,2.4-10.4c0.4-0.6,1.6,0,1.5-1.1c-3.24-3.24-6.31,6.59-6.1,12.9c0.21,6.23-1.4,6.84-1.4,8.4
		c0,1.2-0.31,2.09-1.1,3.1c-1.32,1.69-0.9,3.3,1,4.3c16.1,8.5,26.66-0.51,36.5,4.3c0.73,0.36,8.43,2.23,11.1,2.6
		c9.98,1.39,13.37-1.98,16.8-2.6c2.49-0.45,4.5-1.7,6.4-3.5C729.44,562.23,726.68,563.17,719.48,561.91z M645.18,340.61
		c8.39,11.53,9.45,5.63-5.1,14.2c-3.59,2.12-6.9,4.6-10.4,7c-1-1.9-0.6-4.1-2.2-5.9c-0.7,2,0.11,3.7,0.2,5.3
		c0.11,1.8-0.59,3.5-0.1,5.4c0.41,1.6,0.2,3.4-0.2,5.3c-6.56,0.82-17.4-1.31-39.8,2.2c-8.76,1.37-11.01,3.65-10.4,0.9
		c1.28-5.78-3.57-8.52-7.1-20.1c-1.02-3.34-0.51-12.56-0.3-16.6c0.5-9.63,2.51-9.43,6.9-20.4c-1.98,1.49-0.58,0.61-6.2,9.6
		c-0.5-4.1,0.7-62.8,1.4-70.6c1.73,0.17,9.24,17.25,21.5,25.2c-0.59,7.66-4.33,19.03-10.4,25.6c-1.63,1.77-6.4,8.9-6.4,10.2
		c4.2-1.87,4.68-6.06,9.4-10.1c9.25,0,18.84,8.08,39,14.4c7.69,2.41,2.84,3.14,11.9,5.4c0.5,1.1-0.5,2.4,0.6,3.5
		c0.67,0.67-1.83,7.52-1,10c1.59-2.65,0.79-2.28,2.5-9.1C641.18,335.01,643.15,337.82,645.18,340.61z M573.48,415.81
		c0.25,4.75,3.55,29.68-1.3,38.9c-5.13,9.76-3.27,7.48-5.3,9.8c0-4.58,1.98-99.12,2.7-104.5c2,3.5,3.6,6.3,5.1,9.3
		c-1.05,1.57-1.45,0.6,1.3,3.7C574.54,385.18,572.83,403.37,573.48,415.81z M575.68,158.3c-2.15-11.76-1.54-31.88,1.6-38.8
		c-0.6,0.3-1.2,0.6-2,1.1c-0.4-1.3-0.2-2.5-0.1-3.6c2-1.6,3.8,0.2,5.7-0.3c5.05-7.99,5.65-4.5,5.3-3.8c-0.4,1-0.18,1.7,0,2.7
		c0.33,1.79,0.1,3.8,0.1,5.9c-2.13-0.09-6.44-5.72-6.3,0.1c0.1,4.3-0.54,8.52-2.2,12.5c-0.97,2.31-0.9,5-2.3,7.2
		c0,5.66-0.54,1.31,0.5,10.7c0,0.3,0,0.7,0.1,1c1.6,4.8,1.11,9.8,1.6,14.7c0.41,4.1-0.3,8.3-1,12.8c7.46-10.26-2.22-27.8,2.9-47
		c6.86,18.29,5.26,2.4,7.3,22.8c0.22,1.1-2.35,17.96-2.5,18.9c-0.65,4.06-2.38,6.5-1.8,12.2c0.31,3.01-1.72,4.48-1.1,8.4
		c0.93,5.85-2.3,5.81-7.3,19.1c-2.64,7.02-1.13-1.51-0.8-27.2C573.56,173.15,578.43,173.4,575.68,158.3z M578.48,40.8
		c2.51,4.27,2.35,19.39,2.3,26.7c-0.17,26.08-0.56,27.57,3.3,35.1c2.23,4.35,1.78,3.22-2,9.2c-2.1,0.1-4.1-1.4-6.5-1.6
		C575.36,108.26,575.85,44.74,578.48,40.8z M576.78,37.1c0-1.2,0-1.9,0-2.8C578.28,35.5,578.28,35.5,576.78,37.1z M579.88,113.6
		c-0.2,0-0.4,0.1-0.6,0.2c-0.1,0-0.1-0.1-0.2-0.2C579.82,113.23,579.73,113.46,579.88,113.6z M575.78,112.8c1.95,0,1.6-0.4,1.9,2
		c-0.8,0.2-1.4,0.3-2.3,0.5C575.48,114.3,575.58,113.6,575.78,112.8z M585.78,134.8c0.29,0.87,0.2,1.18-0.8,2.02
		c-0.09,1.19,1.49,2.29,0.3,3.78c-1.56-3.44-3.2-9.41-3.2-12.7c0-4.03-1.72-1.38-0.5-8.4c0.5,0.6,0.9,0.9,1,1.3
		c0.62,2.59,1.54,4.97,3.2,7.2c1.03,1.38,0.3,2.9,0.2,4.3C584.19,132.66,585.22,132.59,585.78,134.8z M579.78,205.1
		c0.2-0.7,0.2-1.7,1.2-1.9c1.2,2.39-2.08,9.94,0.2,22.1c3.12,16.64,4.4,15.64,4.6,18.4c-1.19,1.98-3.65,2.98-4.28,5.34
		c1.93,0.74,3.57-1.09,5.38-2.54c1.37,2.39,7.8,19.65,7.8,22.5c0,1.25-0.2,8.64-0.9,10.4c-1.41-0.94-1.44-0.7-6.8-5.9
		c-2.86-2.78-1.38-3.29-3.4-5.1c-3.27-2.93-5.59-6.8-8-10.4c-4.29-6.41-3.55-3.9-3.4-11.5C572.51,229.9,575.05,221.24,579.78,205.1z
		 M646.58,258.6c-0.51,5.95-1.92,12.35-3.3,18.4c-2.73,11.97,0.71,26.76-5,47.7c-5.46,0.52-1.69-0.84-12.5-5
		c-1.09-2.5-0.77-6.36-3.3-7.2c-1.05,4.21,5.68,8.92-7,3.8c-24.71-9.98-13.2-6.45-28.2-10.2c9.88-19.06,7.36-19.27,9-25.7
		c1.55-6.06,1.59-12.82-1-20.6c0.47-1.25,0.58-0.72,12.5-1.7C647.82,254.81,646.93,254.52,646.58,258.6z M623.58,186.4
		c1.02,0.46,3.81,4.78,9.3,8.7c8.87,6.34,33.38,17.16,26.8,33.6c-2.27,5.69-2.49,7.17-3.9,8.4c-5.57,4.84-6.91,5.15-8.4,7.3
		c-0.6,2.7,0.1,5.7-0.6,8.6c-0.1,0.01-50.76,3.8-52.5,3.8c-0.89-1.56-0.75-1-7.5-17.4c-2.19-7.67-1.84-7.2-1.2-9
		c12.57,0,2.83-0.1,14.2-0.1c0.9,2.2,0.7,4.7,2.4,6.8c0.6-2.6-1.4-4.7-0.4-7.2c11.12-3.71,17.67-7.34,20.6-18.9
		c1.15-4.52,1.57-16.42-2.9-27.2c-0.93-2.24-0.55-2.46-0.3-3.2C620.15,182.56,621.6,185.52,623.58,186.4z M628.07,108.42
		c0.66,0.13,1.16,0.67,2.31,0.38c4.07-0.51,5.19,10.21,6.8,16c-0.61,1.82-1.77,3.85-0.2,7.1c1.44,2.98,3,5.9,5.6,8.5
		c-0.7,0.4-1.2,0.92-1.8,1.1c-9.98,3.05-3.6-1.02-3.1,5.7c-0.69,1.24-1.86,0.89-4.9,1.9c-0.26,0.26-0.36,0.84,0.2,1.1
		c0.89,0.42,1.5-0.2,2.3-0.4c1.2-0.3,2.19,0.59,1.8,1.7c-0.42,1.19-1.2,2.3-1.4,3.5c-0.46,1.85,0.41,3.22-0.3,5
		c-4.63,2.31-10.82-0.67-14.7,0.5c-1.8,1.8,0,3.31-0.7,7.7c-0.26,1.6-0.1,1.85-0.1,8.9c-1.21,0.67-6.29-4.19-5.2-10
		c0.52-2.79,0.02-5.11,0.5-9.4c0.6-0.1,1.1-0.3,1.7-0.4c0.1-1.1-1.2-0.8-1.7-1.5c0-6.11,1.63-20.43-0.9-44.9c1.8,0,3.2,1.1,4.9,1.2
		c0.4-0.6-0.3-0.8-0.6-0.9c-1.4-0.6-2.7-1.2-4.3-1.8c-0.4-2.5-1.7-4.9-1.5-7.8C619.7,101.6,627.94,106.1,628.07,108.42z
		 M627.18,103.6c-0.48-0.48-1.21-0.6-1.2-1.38C626.98,102.41,627.08,102.54,627.18,103.6z M625.85,102.09
		c-0.89-0.03-1.52-0.41-1.82-1.28C624.92,100.84,625.63,101.14,625.85,102.09z M623.78,100.7c-0.4,0-0.81,0-1.21,0
		C623.06,100.14,623.21,100.14,623.78,100.7z M612.88,98.8c2.5-0.3,5.01-0.12,7.6,0.6c0.7,0.19,0.7,0.7,1,1.1
		c0.16,0.16,0.94,0.31,1.04,0.26c0.3,0.49,0.69,1.08,1.36,2.04c-3.8-1.4-7.1-2.7-10.5-2C612.38,100.3,612.18,99.7,612.88,98.8z
		 M578.38,3c1.22-1.22,3.12-0.96,3.4,1.3c0.2,1.6-0.4,3-0.7,4.4c1,0,1.69,0.6,2.2,1.4c6.42,10.13,5.71,7.81,6,10.7
		c0.79,7.8-2.04,6.65,0.7,7.2c1.09,4.91,0.74,7.63,4.7,15.2c2.53,4.84,0.1,4.07,2.8,9.9c15.17,32.72,8.74,23.54,11.5,42.6
		c0.1,0.7,0.2,1.69,0.6,1.9c1.31,0.68,1.2,1.9,1.3,3c5.62,62.41-1.04,77.93,0.7,84.9c2.07-2.07,0.02-7.79,2.4-10.4
		c4.14,2.92,2,4.23,4,10.8c2.57,8.45,4.52,22.8-1.6,32.3c-4.21,6.53-17.44,12.68-31.7,10.3c-1.4-3.4-2.41-6.9-3-10.4
		c-0.54-3.18,1.15-2.3,1.2-6.6c0.21-17.07,0.27-13.11,0.7-18.5c2.23,2.78,4.34,8.38,6.8,10.7c0-2.98,0.71-0.98-2-6.9
		c-2.57-5.6-4.04-6.48-4.3-12.3c-0.27-2.66,1.05-1.76,1.5-4c1.7-8.5,2.33-17.11,3.4-25.7c0.19-1.5,0.4-3-0.6-4.4
		c-1.69-2.11,2.74-39.13-3-50.1c-5.98-11.43-0.49-13.7-3.6-57c-0.38-5.25-1.22-1.41-2.1-8.2c-0.31-2.35-0.86-7.74,0.8-9.4
		c0.6-0.7,0.6-1.9,0.9-2.8c-1.32-1.51-1.82,0.76-2.7,2.3c-0.9,0-0.8-0.6-0.7-1c0.5-3.52,1.87-12.19,2.7-15.7
		c-1.3,0.56-1.51,0.33-4.1,11.3c-0.94,3.97-0.35,4.31-1.5,6.6c0,1.8,0,3.6,0,5.4c-0.5-1.8-0.6-3.6,0-5.4
		C575.08,14.29,574.89,6.48,578.38,3z M566.38,20c2.15-7.89-0.68-4.75,0.9-9.5c1.1,0.6,1.9,0.9,2.7,1.4c0.8-1.6-1.1-2.3-1-3.8
		c6.37-7.17,4.68-5.49,6.3-6.3c0.46,0,0.58,0.87,0.5,1.1c-3.55,7.83-2.43,15.45-2.8,20.2C570.18,22.9,567.78,22.5,566.38,20z
		 M574.38,34.1c0,1.81-0.11,1.6-0.3,1.6C574.08,33.81,573.98,34.1,574.38,34.1z M565.88,149.8c-0.5-2-0.1-3.5,0-5.1
		C565.98,146.3,566.38,147.8,565.88,149.8z M569.38,158.1c-1.3-4.22-0.22-8.74-1.4-10.5c-1.08-1.89,0.45-14-0.8-14
		c-0.2,1.6-0.4,3.2-0.5,4.8c-1.34,0.38-1.15-0.86,0.2-14.2c0.68-6.7,0.86-8.85,2.9-10.1c1.35,0.34,0.9-1.23,0.1,29.5
		C569.75,148.46,569.79,154.8,569.38,158.1z M554.68,551.21c0.6-0.7,1.2-1.4,1.7-2.1c-0.4-1-1.1-0.4-1.7-0.8
		c0-22.23,1.49-19.14,2-24.6c0.92-9.75-0.53-27.05,0-28.1c1.79-4.55,1.55-6.53,4.1-12.9c1.15,0.49-1.22,81.12-2.3,82.9
		c-0.72,1.19-1.6,1.6-2.8,1c-0.7-3.3-1.3-6.6-1.9-9.8C555.56,553.84,556.69,552.55,554.68,551.21z M551.28,554.91
		c0.1,2.4-0.8,4.5-0.1,6.6c0.7,0.3,1.4,0.6,2.2,1c0.22,2.42,0.83,3.97-1.5,3.3c-0.9-2.1-1.94-4.2-1.8-6.7
		c0.07-1.32-0.61-2.01-1.78-2.25C548.87,555.72,550.07,555.66,551.28,554.91z M558.28,589.11c-1.06,0.71-7.76,0.27-8.8,0.2
		c-3.2-0.22-5.4-2.1-7.6-4.4c5.38-10.05,5.3-10.25,5.2-11.9c-0.51-7.97-1.58-10.71,1.02-15.74c0.32,4.69-0.7,3.48,2.68,10.24
		c2.5,1.1,5.3,1.6,8.2,1C559.48,571.81,559.08,585.91,558.28,589.11z M562.28,593.01c-4.76-1.36-1.54,24.94,7.6-395.21
		c3.97-182.21,6.41-214.64,2.3-13.4C571.84,200.79,562.36,592.49,562.28,593.01z M573.38,555.01c4.11,6.72,3.75,5.01,1.2,7.2
		c-4.2,3.6-4.37,3.54-5.4,6.2c-0.31,0.8,0.2,1.2,1.6,1.9c1.4-3.2,3.9-5.5,7.2-7.2c0.3,0.5,0.6,0.8,0.8,1.2s0.3,0.8,0.5,1.2
		c-0.2,0.3-0.2,0.6-0.4,0.7c-5.64,3-5.65,8.51-2.9,7.9c1.95-3.4,1.16-3.49,4.8-6.4c0.7,0.6,1.2,1.2,1.9,1.8c-2,2-5.7,6.59-3.1,7.7
		c1.74,0.58,1.14-1.15,5.3-5.9c1.2,0.5,2.1,1.2,2.6,2.3c-0.8,1.1-1.6,2.1-2.3,3.1c-1.04,1.25,0.8,2.9,2.1,1.6
		c3.21-3.62,1.55-3.17,5.7-1c4.55,2.38,7.85,4.83,12.1,4.9c1.81,0.03,2.06,2.21,2.6,4.1c-0.91,5.66-8.3,9.44-13.2,9.8
		c-4.87,0.36-10.96,3.21-19.2-1.1c-1.26-0.66-0.49-0.43-11.2-4.1c0-9.08,0.54-21.01,0.6-29.7
		C564.71,556.9,569.86,554.68,573.38,555.01z M607.18,441.94c-0.08-0.72,0.03-1.35,0.59-1.9
		C607.73,440.74,607.87,441.48,607.18,441.94z M617.58,414.11c-12.36,33.12-7.87,24.65-11,24.4c-5.04,8.64-4.29,7.38-4.21,8.96
		c2.24-0.97,3.57-5.07,4.71-5.42c0,0.39-0.02,0.88-0.2,1.46c-2.59,8.46,0.63,11.29-3.4,16.6c-6.74,8.89-7.72,9.63-8.3,11
		c-4.52,10.74-4.82,14.97-11,29.1c-3.58,8.2-5.7,12.62-7.1,18.4c-3.13,12.95-5.96,17.64-8.4,34.7c-1.1,0.8-2.3,1.4-3.6,1.8
		c-0.69-1.67,1.67-81.71,1.7-83.5c0.04-2.12,0.26-1.55,7.5-16.7c1.06-2.66,2.51-2.75,2.4-8.9c-0.16-8.51-0.19-8.98,0.8-10.2
		c1.21-1.5-3.51-31.6-1.1-39.3c0.6-1.59-0.28-11.64,0.6-17.8c9.55-1.84,8.47-3.31,33.5-5.1c5.6-0.4,11.3-0.1,17-0.4
		C627.72,382.5,622.66,400.49,617.58,414.11z M684.58,522.21c-1.92,12.83,1.85,16.85-1.3,20.4c-2.9,3.27-0.45,5.21-7.2,6.9
		c-0.8-1.3-1.5-2.4-1.9-3.4c-0.6-1.2-1.54-1.26-1.8-1c-0.72,0.72-0.13,1.33,1.5,4.6c-3.02,2.59-0.82,3.25-4.2,1.8
		c0.8-9.99-0.98-14.64-1-17c-0.19-21.22-4.54-37.92-8.8-47.3c-5.19-11.42-1.14-28.81,0.5-39.7c2.12-14.14-22.12-35.81-34.3-49.1
		c2.7-11,5.3-22.1,4-33.7c6.6-6.4,14.7-10.4,22.9-15c0.2,0.4,0.4,0.8,0.7,1.2c18.59,25.22,24.11,64,29.4,67.4
		c1.3,0.7,1.88,2.1,2,3.8c0.34,4.8,0.5,14.5,0,19c0,17.07,1.32,15.89-0.4,61.3C683.97,521.25,685.05,519.06,684.58,522.21z"/> <path d="M581.38,249l0.02,0.02c-0.03-0.03-0.03-0.01,0,0.12c0.03-0.01,0.05-0.02,0.08-0.04C581.53,249.01,581.48,249.05,581.38,249
		z"/> <path d="M584.98,136.8l-0.1,0.1C584.89,136.89,584.98,136.82,584.98,136.8z"/> <path d="M354.57,563.31c-5.86-1.05-9.89-1.17-12.6-4.1c-4.02-4.35-6.98-0.1-18.4-17.1c-1.21-1.8-2.5-3.35-4.9-3.4
		c-0.4-0.01-0.8-0.4-1.6-0.7c-0.49-4.43,0.6,1.64,0.6-17.8c0-47.46,1.31-15.46,1-58.1c-0.01-0.7-0.19-1.5,0-2.1
		c0.52-1.6,0.12-3.2,0-4.8c-0.95-13.08-0.51-3.54,0-23.9c0.08-3.28-0.78-10.69-3.1-13.6c-4.61-5.78-3.67-12.77-14.8-41.3
		c-7.24-18.57-12.39-24.05-20.3-33.7c-18.08-22.07-4.11-6.36-5.2-56.6c-0.12-5.58,4.02-14.11,4.2-25.5c0.19-2.1,1.11-4.54,0.9-7.5
		c-0.2-2.8-0.1-5.7,0.2-8.5c0.6-0.4,1.09-0.71,1.6-1c7.5-4.32,11.7-13.48,11.7-18.3c1.61-19.32-26.73-27.49-40.3-41.6
		c-1.36-1.41-1.1-1.28-1.1-9.1c0-3.73,1.03-1.93,0.7-5c-0.3-2.8-0.8-5.57-0.8-7.8c2.61-0.43,0.61,1.11,11.1,0.5
		c1.8-0.1,3.3-0.9,4.5-2.3c0-1.8,0-3.5,0-5.5c2.12-2.55,0.5-3.88,0.5-5.1c0.5-0.6,0.9-1.1,1.2-1.5c0.2-1.4-0.9-2.6,0-3.9
		c1.29-1.09,5.7-1.4,4.1-3.8c-4.92-8.86-6.42-10.39-4.9-14.2c1.56-3.91-3.55-18.91-7.2-21.9c-5-4.1-4.92-4.02-11.1-6
		c-8.42-2.69-5.54-0.94-23.8,2.1c-0.08-0.83-0.05-4.15-0.9-5.4c-5.42-8.01-7.23-10.87-10.8-10.8c-0.13,0-0.19,0.01-0.22,0.01
		c0.03-0.05-0.28-0.34-6.08-1.71c-2.2-0.52-2.2,0.48-5.6,2.7c-7.6,4.97-5.28,2.04-9.9,15.9c-5.13-1.03-6.19-0.14-7.3,3.8
		c-1.64,0.66-3.19,1.4-3,3.2c0.25,2.36-1.19,6.08-0.6,7.1c1.25,2.16-1.76,3.64,1,6.4c1.38,1.38,2.27,1.21,1.3,8.3
		c-0.46,3.37-0.83,10.07,1.2,12.1c0.28,0.28-0.2,377.71-0.2,377.81c-0.04,7.7-2.1,15.41-2.1,27c0,2.2-0.4,4.3-1.1,6.2
		c-1.2,0.4-2.21,0.68-3.1,1.2c-3.23,1.91-4.35,6.58-4,9.7c1.19,10.69,0.65,10.04-4.4,21.3c0.78,3.33,6.85,6.5,7.8,6.5
		c11.05,0.69,11.08,0.29,13.5,0.1c2.51,4.57,4.29,2.55,5.6,3.2c10.81,4.25,14.23,6.28,24,4.6c22.51-3.87,22.4-17.47,13.8-19.6
		c-3.07-0.76-2.56-0.33-13.2-5.9c-1.87-0.98-0.46-1.58-4.3-4.3c-2.15-1.52-5.27-3.1-6.3-5.2c-1.88-3.83-5.61-8.52-6-9.3
		c-0.9-2.26,1.41-1.93-3.8-2.4c0.9-5.1,1.13-8.42,2-15.3c0.48-3.74,0.97-1.22,2.8-8.4c7.22-28.35,10.24-22.69,19.5-54
		c1.55-5.23,3.83-5.93,6.8-9.8c9.43-12.27,2.67-15.01,7.8-26.4c14.98-33.27,13.24-35.74,15.2-37.7c3.26,3.26,3.58,5.55,16.3,18.5
		c1.57,1.6,4.51,5.67,6.4,7.8c3.26,3.67,11.65,14.28,10.1,21.2c-3.86,17.22-2.9,19.52-2.9,30.1c0,3.5-0.89,2.68,0.4,6.1
		c2.55,6.75,4.62,10.91,6.3,18.3c2.89,12.72,3.67,14.2,3.1,17.7c-0.71,4.36,2.35,21.68,1.6,27.9c-0.8-0.4-1.5-0.7-2.4-1.2
		c-0.88,5.25,9.59,9.52,10,5c13.12-4.37,5.05-6.19,13.6-12.3c2.4,1.8,3.7,3.5,5.6,7.5c-2.02,2.02-6.25,5.4-4,6.9
		c1.4,0.35,1.51-0.61,5.4-5.1c2.4,2.4,1.74,1.03-1.1,6c-1.26,1.68,0.59,4.64,2.6,1.3c2.68-3.44,1.16-3.94,4-1.1
		c-0.33,0.6-1.63,2.89-1.8,3.9c-0.37,1.49,1.3,2.45,2.3,1.2c1.75-2.92,0.96-1.62,2.3-3.5c5.61,3.2,3.56,1.37,2.7,5.2
		c-0.09,0.4,0.55,1.87,2.1,1.1c0.8-0.4,0.9-1.7,2.1-1.8c10.86,4.34,2.69,1.43,13.4,3.9c2.4,0.8,2.55,5.97,2,8.4
		c-1.32,1.05-10.04,5.74-18.9,5.1c-7.69-0.55-5.07-0.84-8.7-2c-7.35-2.34-9.39-2.73-11.5-2.3c-1.6,0.33-5.17,0.02-7.2,0.4
		c-7.02,1.31-15.95-0.39-20.3-3c1.42-10.45,2-7.6,2-13.5c0-3.33,0.85-1.18,1.2-5.6c0.12-1.5,0.5-3,0.6-4.5c0.1-1.5,0.9-2.2,2.2-2.7
		c0.1,0,0.1-0.4,0.1-0.7c-0.9,0-3.3-0.76-4,2.1c-0.74,3.02-2.18,5.9-1.9,9.1c0.39,4.4-1.54,12.2-2.4,13.1
		c-5.68,5.94,12.55,9.66,21.6,8.6c5.84-0.69,8.97-1.69,13-0.2c20.05,7.4,28.56,1.24,30.4,0.9c2.51-0.46,4.6-1.7,6.6-3.5
		C359.67,572.54,359.88,564.26,354.57,563.31z M185.17,119.8c-0.3,0-0.6,0.1-0.7,0c-0.7-0.5-1.2-1.2-0.7-2c0.1-0.2,0.7-0.3,1.4-0.5
		C185.17,118.5,185.17,119.2,185.17,119.8z M185.17,115.3c-0.7-0.3-1.2-0.4-2-0.7c0.4-1.2,0.1-2.4,1.1-3.2c0.2-0.2,0.5-0.1,0.8-0.2
		C185.67,112.5,185.37,113.8,185.17,115.3z M185.27,109.3c-1.7-1.3-1.6-2,0.1-2.9C185.97,107.5,185.57,108.4,185.27,109.3z
		 M282.37,348.71c-3.34,3.34-5.27,1.01-21.8,13.4c-1.3-1.7-0.7-3.9-2-5.6c-1.16,2.51,0.32,4.95-0.4,15.8c-0.9,0.1-1.6,0.21-2.4,0.2
		c-33.54-0.56-41.52,3.3-47.8,4.2c0.43-4.33,0.6-5.8-0.8-7.1c-0.22-2.82-9.15-14.67-7.7-25c3.2-22.9,1.2-7.61,6.78-24.63
		c1.03-0.32,1.32-1.2,1.42-2.17c-0.97,0.39-1.46,1.07-1.49,2.12c-4.65,0.76-11.6,24.88-7.41,35.08c0.6,5.3,3.6,9.6,6.4,14.2
		c-1,2-0.96,1.24,1.4,3.9c-5.98,41.86-1.19,40.33-1.6,70.9c-0.11,8.12-0.02,5.93-15.1,36.1c-0.1,0.3-0.2,0.6-0.9,0.6
		c-0.1-1.2-0.1-2.5-0.1-3.7c0.59-358.33-1.65-329.15,5.2-341.61c0.2,0.5,0.49,0.7,0.5,1c0.42,16.85-2.66,14.24,7.2,33.6
		c1.8,3.53-0.23,5.13,1.7,7.7c-0.2,4-0.06,7.78,1.8,11.4c0.81,1.57,0.2,5.59,0.2,13.1c0,2.65,0.61,6.28-0.3,7.4
		c-4.44,5.44-7.94,20.72-8,30.1c-0.07,10.48-2.9,6.26-1.4,16.7c0.3,2.12,14.96,25.88,25.1,32.3c0.52,0.33,2.02,0.86,1.7,1.5
		c-2.77,8.3-2.28,8.2-4.3,11.2c-8.32,12.35-3.48,3.38-10.7,15.7c-0.76,1.52,1.82,0.03,3.6-2.7c1.42-2.19,3.2-4.2,4.9-6.1
		c4.68-1.34,15.61,4.55,22.2,7.5c17.34,7.77,18.49,5.72,22.9,9.4c1.8,1.5,4.1,2.1,6.3,2.5c0.9,1.1-1,2.7,0.9,3.4
		c-0.6,3.5-1.1,6.9-1.8,11.1c1.32-1.65,1.19-0.52,3-9.6C271.25,332.61,267.94,331.27,282.37,348.71z M192.67,129.6
		c1.35,2.31-0.98,8.31-3.9,11.9C192.19,127.47,190.76,130.56,192.67,129.6z M188.97,130.7c0-0.1,0.6-0.49,0.6-0.1
		c-0.1,0.3-0.1,0.6-0.3,1.4C189.07,131.2,188.97,131,188.97,130.7z M204.67,167.6c-2.8-19.01-2.2-11.67-2.2-18.8
		c0.5,0.5,0.8,0.7,0.8,1C203.88,153.23,206,163.61,204.67,167.6z M205.17,142c0.3,1,0.6,1.5,0.7,2.1c1.2,11.76,2.75,24.07,0.3,10.4
		C205.57,151.13,204.37,150.02,205.17,142z M203.37,133.4c-3.78,22.53-1.68,23.17-0.8,32.8c-1.06-1.06-2.61-8.1-2.7-10.3
		c-0.12-2.71-0.09-6.35-0.4-6.8c-2.07-2.98,0.14-10.31-1.3-15c-0.2,1.7-0.4,3.4-0.6,5c-1.01,0.14-1.18-0.67-0.8-3.2
		c1.25-8.31,0.83-16.15,2.8-19.6C203.54,131.53,203.75,131.11,203.37,133.4z M196.97,145.3c0,1.6,0,3.1,0,4.7
		C196.37,148.5,196.67,146.9,196.97,145.3z M208.45,254.67c2.55-0.72,4.14-2.6,5.72-4.97c0.55,0.55,1.68,1.17,2.3,3
		c1.14,3.34,5.1,10.62,7.8,14.5c2.14,3.07,0.97,3.39,0.9,8.7c-0.05,3.8-1,7.5-1.7,11.5c-0.7-0.3-1.3-0.5-1.6-0.9
		c-3.66-4.16-9.44-7.63-10.6-11.2c-0.29-0.9-1.1-1.69-1.9-2.4c-2.01-1.79-3.48-4.01-5-6.2c-6.21-8.97-8.43-11.28-7-16.6
		c0.73-2.7,4.86-32.51,8.7-38.9c0.9,1.3,1.38,2.6,1.5,3.9c0.78,8.28,4.67,18.47,8,26.1C218.19,247.21,207.54,251.26,208.45,254.67z
		 M216.77,246.1c1.63,1.09,5.25,12.34,5.9,14.6c0.26,0-0.35,1.52-1.9-2.7c-2.47-6.75-2.99-8.54-5.1-9.9
		C216.17,247.3,216.47,246.7,216.77,246.1z M277.27,258.9c-0.86,8.54-2.48,14.2-4.2,22.5c-0.02,0.1-0.5,23.69-1,26.9
		c-0.25,1.6-2.64,15.28-3.5,17c-1.9,0-3.7-0.3-5-1.8c-1.1-1.1-2.7-1.7-4.2-2.6c-0.6-2.3-0.3-5-2.2-7.2c-1.65,4.94,8.93,11.77-19-0.2
		c-6.28-3.14-13.86-6.23-20.2-6.8c6.15-14.35,4.86-3.84,9.5-27.7c1.46-7.5,0.33-12.37-1.6-18.8c0-0.5-0.39-0.69,6.5-1.3
		C280.09,254.69,277.65,255.1,277.27,258.9z M254.47,187c1.06,0.47,4.94,5.98,9.4,8.6c5.18,3.04,14.47,9.29,20.2,14.1
		c5.54,4.65,8.75,12.36,6.3,19.1c-1.02,2.82-2.58,7.49-3.8,8.5c-10.66,10-8.54,3.23-9,16c-0.1,0.01-49.62,3.78-52.5,4.1
		c-2.2-3.7-10.3-23.7-11.1-27.4c1-0.4,1.7,0.4,2.6,0.5c4.18,0,3.15,2.93,6,3.4c1.51-3.24-7.02-3.2,7.9-3.2c0.9,2.1,0.5,4.8,2.5,7
		c0-0.9,0.1-1.5,0-2.1c-1.14-6.64-1.55-4.58,1.1-5.9c6.34-2.54,17.9-5.52,19.3-21.6c1.62-18.62-4.76-23.81-3.8-26.7
		C250.83,181.56,251.28,185.6,254.47,187z M227.77,102.8c18.21-4.79,16.24-4.42,22.8-3.4c0.6,0.09,1.1,0.8,1.6,1.2
		c0.5-0.4,1-1,1.4,0c1.2-0.1,2.2,0.2,2.8,1.4c1.27,0.2,1.97,0.78,1.9,2.12c-1.38-1.06-1.5-1.31-1.9-2.12
		c-0.12-0.03-2.79-0.68-2.9-0.7c1.25,3.06,2.11,0.63-9.6-0.6c1.3,1.1,2.3,1.19,3.2,1.4c3.68,0.88,11.59,4.05,12.09,7.04
		c0.77,0.41,1.54-0.13,2.21,0.16c3.33,1.44,3.65,4.61,6.5,16c-1.23,2.45-1.66,4.27-0.2,7.3c4.88,10.16,9.49,8.07-1.7,10.7
		c0.4,0.4,0.5,0.8,0.8,0.9c1.71,0.59,1.6,2.1,1.6,3.4c0,1.8-5.1,1.12-5.1,2.7c0,0.96,2.13,0.18,3.4-0.1c3.05,1.22-1.14,3.74-0.5,6.3
		c2.84,8.53-12.24,2.69-15.4,4.7c-0.9,2.8,0.21,5.7-0.2,8.5c-0.39,2.7-0.1,5.5-0.1,8.4c-3.6-1.4-4.05-6.59-10.5-11.2
		c-3.02-6.48-3.8-5.24-3.8-11.1c1.5,0.2,1.8,1.9,3,2.2c0-3.15-3.19-2.1-4.4-11.8c-0.29-2.36,0.38-1.64-1.1-4.1
		c0-1.3,2.2-2.1,0.3-3.5c1.25-2.49,1.7-1.77,0-4.6c-0.2-0.2-0.4-0.5-0.7-0.6c0.4,0,0.7,0.2,0.8,0.6c1.3-0.3,2.1,0.8,3.5,1
		c0.3-0.3,0.8-0.7,1.3-1.2c-0.81-0.81,0.06-0.27-2.7-0.7c-3.15-0.49-4.23-3.86-4-7.1c2.62-1.31,4.01,1.3,7.4-0.7
		c0.96-0.57,1.83-1.15,2.78-1.72c-0.81-0.12-1.28-0.83-1.88-1.3c0,0.94-0.7,1.42-1.34,1.88c-0.12-0.23-0.21-0.49-0.36-0.86
		c-2.1,0.7-4.3,1.5-6.8,0.7c-2.05-17.05-4.57-14.12-1.1-16.1c-0.9-0.2-1.8-0.3-2.7-0.5c0.1-0.5,0.1-0.9,0.3-1.1
		c2.23-1.91,3.41-1.36-0.9-1c-0.3-0.5-0.5-1-0.8-1.6C227.17,103.4,227.37,102.91,227.77,102.8z M254.57,103
		c-0.21,0-0.21,0.04-0.28-0.14C254.39,102.9,254.5,102.93,254.57,103z M233.57,136.5c0-0.55-0.29-0.41,0.1-0.8
		c0.1,0.2,0.2,0.4,0.3,0.6C233.77,136.4,233.67,136.5,233.57,136.5z M237.37,125.2c0-0.22,0.04-0.2,0.2-0.2
		C237.5,125.07,237.44,125.13,237.37,125.2z M237.8,124.91c0.19-0.64,0.68-0.64,1.16-0.56C238.69,124.78,238.28,124.95,237.8,124.91
		z M206.87,84.7c-0.15,0.23-0.31,0.4-0.55,0.51C206.41,84.92,206.64,84.78,206.87,84.7z M194.07,106c1.7-3.41,2.51-15.19,7.8-18
		c1.41-0.75,2.39-2.11,4.07-2.44c-1.29,2.69-1.28,1.94-0.77,3.74c4.31-3.12,2.79-5.42,6.4-4.3c0.91,0.28,1.7,0.98,2.6,1
		c4.29,0.1,11.39,10.28,10.3,14.5c-0.77,2.97,0.67,1.91,4,18.4c1.31,6.5,1.6,13.28,3,19.8c0.21,1,0.22,2.1,0.1,3.1
		c-0.6,4.98,0.95,7.18,1.4,10.9c0.77,6.32,0.64,6.45,2.9,10.2c4.95,8.23,8.39,11.16,10.5,14.6c1.51,2.46,0.23,2.66,1.7,7.6
		c2.52,8.47,4.7,24.18-1.6,33.5c-2.97,4.4-13.17,10.57-24.3,10.5c-3.81-0.02-2.03-2-4.3-0.3c-1.7-0.3-3.5-0.6-5.3-1.8
		c-1.2-3.9-3.05-7.8-3.1-12.2c-0.02-2.04-2.1-5.28-2.1-12.9c0-15.6-0.52-11.81,2.6-8.3c0.7,0.9,1.4,1.8,2.2,2.9
		c0.6-1,0.2-1.8-0.3-2.3c-1.8-2.1-2.72-4.79-4-7.2c-2.13-3.99-2.37-8.09-1.3-12.4c0.62-2.5,0.78-5.12,2.2-7.3c0.2-0.3,0.3-0.7,0.3-1
		c0.49-6.75,1.88-10.17-2.1-25.3c-1.32-5.02-3.19-15.88-5-23.4c-0.94-3.91-0.7-7.79-0.7-15.5c0-1.72-0.96-1.98-1.3-1.3
		c-0.29,0.86-0.2,0.17-0.2,10.2c-1.19,1.98-3.61,2.42-4.6,8.5c-0.63,3.86-0.02,9.2-5.8,9.2c-0.4-3,0.3-9,1.9-17.1
		c0.8,1.1,1.4,1.9,1.9,2.7c0.5,1.9-0.7,3.8,0.2,5.8c0.4-0.4,0.9-0.7,0.9-1c0.3-2.2,0.78-4.19-0.4-6.4
		C192.75,110.61,192.97,108.2,194.07,106z M187.07,115.9c0.35-13.54,0.52-10.36,0.8-12.6c3.8-0.7,4.7-0.1,4.3,3
		c-0.5,0.1-1.1,0.2-1.5,0.2C184.23,145.78,186.46,139.73,187.07,115.9z M185.57,551.31c0.2-0.9,1.9-1.2,1.2-2.6c-0.4,0-0.8,0-1.3,0
		c-0.46-10.71,0.6-14.96,0.6-17.5c0-2.1,0.5-4,2-6c0.14,3.39,0.65,17.31,2.4,35.8c0.27,2.88-1.68,7.24-4.1,5.9
		c-0.6-3.3-1.3-6.5-2-10C185.47,555.31,187.47,553.71,185.57,551.31z M192.17,589.31c-2.84,0.81,0.09,0.4-12.6,0.4
		c-1.86,0-5.59-2.76-6.9-4.5c4.62-9.23,5.42-9.53,5.2-11.8c-0.51-5.26-1.61-11.34,0.7-14.8c0-2,1.3-2.7,3.3-2.8
		c0,6.46-0.44,6.14,2.2,7.2c0.78,3.9,0.93,3.6-1.2,3.6c-1.7-2.8-2-5.7-2.4-8.5c-0.97-0.58-2.62,0.21-1.6,1.9
		c0.3,2.3,0.5,4.7,2.3,6.4c-0.47,2.33,1.76,2.37,4.9,2.7c2.4,0.25,2.6,0.1,4.8-1.2C191.67,572.51,192.57,586.61,192.17,589.31z
		 M196.07,591.01c-0.28,0.83-1.47,0.66-1.7,0.2c-0.57-0.95-0.48-0.31-1.1-9.9c-11.16-171.39-5.7,69.29-5.7-437.81c0.3,0,0.5,0,0.7,0
		c0,387.97-2.48,322.73,6,422.01C196.42,590.66,196.45,590.25,196.07,591.01z M203.97,555.41c3.8,9.51,5.31,1.9-3.3,10.9
		c-1.42,1.48-1.61,4.12,0.2,4.3c2.73-3.47,3.6-5.42,7.6-7.3c1.85,3.33,1.69,2.48,0.6,3.2c-5.2,3.06-5.31,8.47-2.5,7.7
		c2.7-5.4,2.65-4.38,4.7-6.2c2.76,2.37,2.44,1.08-1.1,5.8c-0.86,1.38-1.19,3.53,0.4,3.8c1.03,0.26,0.8-0.33,5.2-6.2
		c3.26,2.67,2.41,2.28,0.4,5.2c-0.85,1.23-0.39,2.14,0,2.4c1.1,0.73,1.8-0.7,4.2-3.1c8.15,4.44,11.1,6.44,15,6.5
		c3.35,0.05,8.4,12.55-17.7,15.1c-6.64,0.65-7.79-0.5-19.8-5c-0.7-2.8-2.9-28.7-2.9-32.8C197.37,556.41,200.07,555.21,203.97,555.41
		z M249.67,410.21c-15.73,41.58-10.06,30.14-11.9,28.5c-1.29,1.09-3.57,4.96-5.17,8.64c1.37,0.49,1.84-0.6,3.57-3.14
		c0.96-1.42,2.32-3.65,1.4-1.4c-1.78,4.36-1.26,8.85-1.5,11.2c-0.41,3.97-1.93,6.56-9.3,15.1c-1.56,1.81-1.08,1.36-6.6,16.6
		c-6.42,17.73-10.82,23.42-13.6,35.9c-2.07,9.29-4.51,12.39-7,27.9c-0.83,5.2-0.12,3.65-4.5,6.2c-1.2-0.6-0.5,0.58-2.4-22.3
		c-3.61-43.36-6.85-43.91,4.7-63.7c3.76-6.44,7.5-15.43,8-16.1c2.05-2.73,1.7-6.33,1.7-12.5c0-7.21,1.59-3.76,1.1-7.7
		c-2.01-35.1-2.63,0.16-0.6-54.7c6.29-0.97,16.3-5.3,50.2-5.3C259.24,376.35,254.14,398.41,249.67,410.21z M315.97,486.71
		c-2.03,73.74,1.54,46.03-3.8,59.1c-1.02,2.49-2.8,3.6-5.3,3.5c-1.7-1.1-1.7-3.7-4-4.3c-0.9,2.1,1.2,3.2,1.4,4.9
		c-2.9,2.41-2.12,2.67-4.2,1.5c0.3-4.8,0.13-9.61-0.8-14.4c-0.49-2.53,0.34-10.54-1.5-21.1c-7.05-40.53-10.85-20.77-9.7-50.5
		c0.07-1.87,1.92-10.7,2.7-15.7c2.25-14.5-10.3-24.58-31.2-48.1c-0.8-0.9-1.8-1.7-2.9-2.8c2.5-10.9,5.4-22.1,4-33.9
		c6.9-6.3,14.7-10.4,23-15.1c0.2,0.5,0.4,0.9,0.7,1.3c18.54,25.27,24.07,64.28,29.4,67.4c2.71,1.59,1.92,3.81,2.2,27.7
		C316.42,483.6,316.32,474.14,315.97,486.71z"/> <path d="M259.07,109.1l0.1,0.1C259.17,109.1,259.15,109.15,259.07,109.1z"/> <path d="M240.37,122.2c0.09,0.06,0.14,0.16,0.1-0.1L240.37,122.2z"/> <path d="M678.58,420.81c0-2.3,1.5-4.6,0.2-7.8c-0.4,1.1-0.6,1.5-0.7,1.9c-0.26,6.48-4.51,12.49-1.8,12.1c0.6-1.4,1.2-2.8,2-4.8
		c1.86,5.58,1.91,5.97,3,6.1C682.8,428.49,683.22,422.77,678.58,420.81z"/> <path d="M671.68,468.61c0.28-0.55,0.99-0.96,0.7-3c-0.48-3.44-2.67-13.47-5-15.8c-1.58,2.03,2.35,6.73,3.6,17.8
		C670.98,467.91,671.28,468.11,671.68,468.61z"/> <path d="M672.08,473.61c0.73-1.45,0.52-1.62-0.5-2.3c-0.96,0.96-0.78,1.16-0.5,2.3C671.45,473.98,671.66,474.03,672.08,473.61z"/> <path d="M672.08,542.21c0.6-0.8,0.7-1.5,0-2.3C670.78,540.81,670.78,541.01,672.08,542.21z"/> <path d="M672.08,536.41c0-0.8,0.1-1.4,0.1-2.1C670.88,535.21,670.88,535.21,672.08,536.41z"/> <path d="M671.48,480.71c-0.49,0.97-0.35,0.4,0.1,1.3C672.73,480.86,672.13,481.36,671.48,480.71z"/> <path d="M672.18,477.11c-0.4-0.1-0.6-0.3-0.9-0.5c-0.18,0.54-0.4,1.2,0.2,1.2C671.68,477.71,671.88,477.41,672.18,477.11z"/> <path d="M671.18,530.31c-0.44,1.32-0.42,0.78,0.2,1.4C672.1,530.28,671.58,531.12,671.18,530.31z"/> <path d="M593.78,99.2c1.51-0.76,0.57-4.54-0.8-6.6c-0.1-0.2-0.5-0.3-0.9-0.5c-0.1,0.4-0.4,0.7-0.4,1
		C592.43,97.63,592.72,99.63,593.78,99.2z"/> <path d="M588.48,208.9c-0.4,2.3,0.75,4.5,0.8,6.8c0,0.1,0.5,0.3,1.4,0.7c-1.3-5.01-0.26-6.86-1.3-8.6
		C588.98,208.3,588.58,208.6,588.48,208.9z"/> <path d="M613.18,192.8c1.45-2.53-3.46-2.16-0.8,0.5C612.58,193.1,612.98,193,613.18,192.8z"/> <path d="M606.68,95.8c-1.1,1.2-1.1,1.2-1.1,2.7C607.18,97.3,607.18,97.3,606.68,95.8z"/> <path d="M593.48,83.8c-0.6,1.6-0.8,3.3,0.2,5.2C594.38,87,594.38,85.4,593.48,83.8z"/> <path d="M588.18,24.1c0.5-0.9,0.7-1.8-0.1-2.8C586.68,22.1,586.68,23,588.18,24.1z"/> <path d="M612.48,187.6c-1.1,1-1.1,1-0.2,2.5C613.08,189.1,613.28,188.4,612.48,187.6z"/> <path d="M591.78,77.9c0.2,1.8,0.2,1.8,0.7,2.6C592.58,79.7,592.68,78.8,591.78,77.9z"/> <path d="M589.38,86.7c0.3-1.5,0.3-1.5-0.7-2C588.38,85.5,588.58,86.2,589.38,86.7z"/> <path d="M591.58,90.3c0-0.92,0.02-1.79-0.9-1.4C591.06,89.87,591.08,90.8,591.58,90.3z"/> <path d="M574.48,475.81c-1.75,7.14-1.1,4.64-1.1,6.8c0.5-0.5,0.9-0.6,1-0.9c3.78-11.64,4.54-12.8,3.3-15.7
		C576.51,467.17,576.97,465.67,574.48,475.81z"/> <path d="M602.38,447.61c0-0.2-0.01-0.13-0.1-0.1L602.38,447.61z"/> <path d="M593.18,465.21c-0.8,2.2-1.4,4.5-1.8,6.8c0,0.1,0.3,0.2,0.8,0.7C592.97,470.9,595.16,465.21,593.18,465.21z"/> <path d="M602.28,447.61c-0.01,0.04-0.02,0.07-0.02,0.11C602.42,447.72,602.39,447.72,602.28,447.61z"/> <path d="M599.78,450.41c1.46-0.39,2.25-1.26,2.48-2.69C599.97,447.93,599.49,448.45,599.78,450.41z"/> <path d="M579.08,449.31c0.4-2,1.2-3.2,0.6-5.1C578.88,445.81,578.38,447.11,579.08,449.31z"/> <path d="M572.08,487.71c1.1-0.8,1.3-1.7,1-3.6C571.98,485.61,571.48,486.51,572.08,487.71z"/> <path d="M593.78,459.71c-0.5-0.1-1,0.7-0.8,1.2c0.1,0.3,0.5,0.4,0.9,0.8C594.07,461.12,594.94,460.1,593.78,459.71z"/> <path d="M569.38,496.21c-0.4,0-0.9,0.7-0.7,1.3C569.58,499.31,570.62,496.21,569.38,496.21z"/> <path d="M580.38,438.71c0.6-0.8,0.7-1.6,0-2.5C580.08,437.01,579.48,437.81,580.38,438.71z"/> <path d="M570.38,492.11c0.56,0.56,0.41,0.18,0.6-0.2c-0.1-0.1-0.3-0.2-0.4-0.3C570.48,491.71,570.38,491.91,570.38,492.11z"/> <path d="M596.38,339.31c-0.41,6.72-0.08,5.63,0.9,7.2c1.2-3.19-0.09-1.75,0.8-7.3c0.21-1.3,0.4-2.8-0.2-4.4
		C596.78,336.41,596.47,337.81,596.38,339.31z"/> <path d="M597.88,326.51c1.1-1.7,4.8-9.9,5.1-11.2C602.98,312.91,598.31,321.56,597.88,326.51z"/> <path d="M578.98,366.81c-0.12,0-3.16,2.51,8.4-0.1C586.09,365.85,587.83,365.74,578.98,366.81z"/> <path d="M591.48,331.51c3,0.9,8.4,1.1,11.5,0.7C600.38,331.51,595.08,331.11,591.48,331.51z"/> <path d="M578.78,369.51c1,1.1,1,1.1,2.5,0.3C580.38,369.21,579.68,369.01,578.78,369.51z"/> <path d="M633.78,347.41c0,0.63,1.79-0.28,0.8-1.6C633.78,346.21,633.68,346.81,633.78,347.41z"/> <path d="M631.08,353.91c0.5-1.5,0.4-2.5-0.1-3.6C630.38,351.31,630.18,352.41,631.08,353.91z"/> <path d="M631.08,345.11c0-0.1,0-0.2,0.1-0.3C630.94,345.05,630.95,344.98,631.08,345.11z"/> <path d="M633.08,350.81c0.37-0.37,0.1-0.41,0.1-0.6C632.8,350.59,633.08,350.58,633.08,350.81z"/> <path d="M643.78,264.21c-1.55,0-0.94,2.48-3.9,6.8c-1.68,2.45-4.58,6.52-4.7,8.7C639.37,277.61,647.18,265.34,643.78,264.21z"/> <path d="M619.08,264.3c-0.3,0.7-0.5,0.9-0.5,1c0.66,1.99,1.16,3.48,4.5,6.6c1.41-0.71-0.08-0.48-3.1-6.2
		C619.77,265.31,619.58,265.01,619.08,264.3z"/> <path d="M615.78,272.61c-0.5,1.6-0.5,1.6,2.4,3.6C617.78,273.71,617.78,273.71,615.78,272.61z"/> <path d="M620.28,304.21c0.2,2.2,0.2,2.2,1.5,4.4C621.98,305.51,621.68,304.61,620.28,304.21z"/> <path d="M647.58,238.9c9.83-6.36,10.03-15.44,6.9-14.5c-1.15,3.46,1.19,6.68-11,14.8C645.38,240.1,646.48,239.5,647.58,238.9z"/> <path d="M641.58,239.1c-1.5-0.1-2.8,0.1-3.7,1.2C639.16,241.2,641.58,240.52,641.58,239.1z"/> <path d="M603.68,243.6c0.3,0.6,0.6,1.2,0.9,1.9C605.28,244.4,604.78,243.8,603.68,243.6z"/> <path d="M603.98,239.9c-0.08-0.16-0.8-0.59-0.8,0.2c0.2,0.2,0.4,0.2,0.6,0.3C603.88,240.2,604.08,240,603.98,239.9z"/> <path d="M635.88,240.4c-0.8-0.4-0.62-0.38-1.2,0.2C635.26,240.89,635.12,241.16,635.88,240.4z"/> <path d="M627.98,130.6c0.4,0.2,1.2-0.2,1.3,0.5c0,1.65-3.22,0.26,0.7,2.5c0.4,0.2,0.9,0.3,1.3,0.4c0.7-2.1,0.9-4.4,2.8-5.9
		c0.07,0,0.04-0.1,0.02-0.19C631.8,128.32,628.77,128.39,627.98,130.6z"/> <path d="M634.18,127.9l-0.1-0.1C634.08,127.96,634.11,127.9,634.18,127.9z"/> <path d="M620.08,107.3c0.19,0.19,2.82,2.8,3.5,2.8c0.2-0.78,0.35-1.2-0.3-1.2c0.5-0.5,0.4,0,0.5,0.2c1.3,0.1,2.5,1.2,4,0.3
		c0-0.28,0.09-0.64,0.18-0.93C625.5,107.76,623.03,106.71,620.08,107.3z"/> <path d="M627.96,108.47c0.17,0.04,0.11,0.03,0.11-0.05C627.95,108.38,627.98,108.4,627.96,108.47z"/> <path d="M635.68,123.3c-3-0.9-5.6-0.6-8.2,0.8C629.48,124.5,633.58,124.2,635.68,123.3z"/> <path d="M618.4,108.4c0.76,0.66,1.54,1.21,2.58,1.3C620.51,108.48,619.51,108.41,618.4,108.4z"/> <path d="M618.22,108.36c-0.52-0.3-0.13,0.04,0.18,0.04C618.25,108.29,618.32,108.26,618.22,108.36z"/> <path d="M617.97,108.27c-0.06-0.02-0.08-0.02,0.01,0.03C617.97,108.28,617.98,108.28,617.97,108.27z"/> <path d="M627.18,131.3c-0.3,0-0.7,0.1-1.3,0.1C626.58,132.1,626.98,132,627.18,131.3z"/> <path d="M620.98,109.8l0.2,0.1C620.93,109.66,620.98,109.67,620.98,109.8z"/> <path d="M634.48,127.5c-0.1,0.1-0.2,0.2-0.3,0.3C634.38,127.8,634.48,127.7,634.48,127.5z"/> <path d="M627.98,130.6l-0.1-0.1C627.75,130.72,627.74,130.6,627.98,130.6z"/> <path d="M627.28,131.3c0.17-0.25,0.34-0.44,0.51-0.67C627.47,130.69,627.2,130.89,627.28,131.3z"/> <path d="M581.4,249.14c-1.68,1-1.42,0.77-1.42,1.76C580.47,250.74,581.72,251.26,581.4,249.14z"/> <path d="M578.08,117.6c-0.3,0.8-0.5,1.3-0.8,1.9C578.58,118.8,578.58,118.8,578.08,117.6z"/> <path d="M575.88,183.2c0-1.07,0.05-0.45-0.3-0.1c0,0.1,0,0.2,0,0.3C575.68,183.3,575.88,183.3,575.88,183.2z"/> <path d="M576.18,181.6c-0.1,0.4-0.1,0.8-0.2,1.1C576.38,182.4,576.68,182.2,576.18,181.6z"/> <path d="M557.08,543.71c0-0.36-0.13-0.32-0.5-0.2c0,0.2,0.1,0.4,0.2,0.6C556.88,543.91,557.08,543.81,557.08,543.71z"/> <path d="M558.18,539.11h0.1C558.28,538.73,558.32,538.69,558.18,539.11z"/> <path d="M567.88,131.1c0.27,0,0.2,0.33,0.2-2.7C567.79,128.4,567.88,128,567.88,131.1z"/> <path d="M569.98,14.2c-0.24,0.72-0.48,0.54,1,3.5C571.08,15.2,571.08,15.2,569.98,14.2z"/> <path d="M583.78,131.3c0.4,0.8,0.4,0.8,1.2,1.3C584.98,131.9,584.68,131.3,583.78,131.3z"/> <path d="M584.98,136.8c-0.03-0.03-0.06-0.06-0.09-0.09C584.9,136.76,584.92,136.8,584.98,136.8z"/> <path d="M584.88,136.6c-0.1-0.1-0.1-0.1-0.2-0.1C584.96,136.78,584.88,136.74,584.88,136.6z"/> <path d="M309.07,421.41c0.79-3.67,1-2.89,1-6.6c-0.1-0.3-0.5-0.5-1.1-1.1c-0.61,8.07-4.3,13.55-2.3,13.8c1.4-1,0.8-3,2.1-4.1
		c1.28,0.89,1.9,5.95,3.2,5.3c1.7-0.85,0.98-2.8,0.4-4.6C311.76,422.21,311.67,422.11,309.07,421.41z"/> <path d="M300.77,456.31c-1.64-5.69-2.01-6.05-2.9-5.8c-0.39,0.79-0.46,0.53,0.2,2.8c5.19,17.97,2.31,13.31,4.1,15.7
		C303.16,467.43,304.2,468.21,300.77,456.31z"/> <path d="M302.27,471.31c-1.1,1.5-1.1,1.5,0,3.1C303.67,472.91,303.67,472.61,302.27,471.31z"/> <path d="M302.27,542.41c1.3-0.8,1.3-1,0.1-2.4C301.67,540.81,301.67,541.61,302.27,542.41z"/> <path d="M302.57,531.11c-0.3-0.2-0.5-0.6-0.7-0.6c-0.6,0-0.6,0.6-0.5,1c0.1,0.2,0.5,0.3,0.7,0.5
		C302.17,531.71,302.37,531.51,302.57,531.11z"/> <path d="M302.37,534.71c-0.8,0.6-0.7,1.3-0.1,2C303.07,536.11,303.07,535.41,302.37,534.71z"/> <path d="M302.47,478.31c0-0.4,0-0.9,0-1.8C302.3,476.77,300.73,478.31,302.47,478.31z"/> <path d="M302.07,481.01c0,1.02-0.29,1.01,0.1,1.4c0.66,0,0.3-0.53,0.3-1.4C302.37,481.01,302.27,481.01,302.07,481.01z"/> <path d="M203.97,481.31c-0.1,0.4,0.1,0.9,0.2,1.7c0.5-0.6,0.9-0.9,0.9-1.2c4.08-12.57,4.33-12.94,3.1-15.4
		C207.07,466.96,208.02,465.11,203.97,481.31z"/> <path d="M232.47,447.31l0.1,0.1C232.62,447.31,232.61,447.36,232.47,447.31z"/> <path d="M223.57,471.31c0.53-1.99,1.5-3.9,0.7-6C220.43,473.68,222.88,473.88,223.57,471.31z"/> <path d="M232.47,447.41c0.02,0.05,0.03,0.09,0.05,0.14C232.62,447.5,232.57,447.51,232.47,447.41z"/> <path d="M230.37,450.61c1.1,0.11,2.8-1.1,2.15-3.06C231.07,448.64,229.26,449.72,230.37,450.61z"/> <path d="M203.17,485.21c-0.5,0.9-1,1.8-0.6,3.2C203.84,487.39,204.78,485.01,203.17,485.21z"/> <path d="M209.57,449.31c1-1.2,0.9-2.6,0.3-4C209.14,449.3,208.9,448.3,209.57,449.31z"/> <path d="M210.67,439.21c1-1,1.2-1.9,0.6-3.1C210.27,436.91,210.47,437.91,210.67,439.21z"/> <path d="M224.47,460.11c-1.37,0.2-0.86,1.6-0.3,1.6c0.6,0.1,0.8-0.4,0.7-0.9C224.87,460.51,224.57,460.31,224.47,460.11z"/> <path d="M199.67,498.51c0.41,0,1.22-0.61,0.9-1.4C200.05,496.06,198.61,497.45,199.67,498.51z"/> <path d="M201.07,493.11c0.11-0.11,1.14-0.66,0.5-1.3C200.88,491.81,200.45,492.49,201.07,493.11z"/> <path d="M211.37,210.4c-0.5,1.5-0.52,3.01,0.1,4.4c1.36,3.08,4.05,8.45,6.6,11c-0.6-1.9-0.9-3.1-1.3-4.2
		c-0.83-1.66-3.91-5.32-4.7-11C212.07,210.18,211.37,210.29,211.37,210.4z"/> <path d="M243.57,184.5c0.77-2.55,0.34-3.27-4.6-14.9c0-0.2-0.3-0.2-0.7-0.5c-0.27,2.18-0.29,1.84,1,5
		C244.81,187.63,241.15,181.47,243.57,184.5z"/> <path d="M228.27,166.8c-0.59,0.59-0.25-1.53-1.2,10.2c1.8-1.8,1.76-3.7,1.9-5.5C229.2,168.5,229.17,168,228.27,166.8z"/> <path d="M243.47,190.5c0.1-1.4,0.5-2.8-0.5-4.7c-1,1.6-0.6,2.9-0.6,4.1C242.37,190.4,242.67,190.8,243.47,190.5z"/> <path d="M244.27,203.4c0.4-2.6,0.4-2.6-0.4-4C242.57,201.3,242.77,202.7,244.27,203.4z"/> <path d="M214.97,209.5c0.92-2.18,0.09-4.16-0.09-6.16C214.72,205.29,213.8,207.33,214.97,209.5z"/> <path d="M214.87,202.2c-0.03,0.38-0.02,0.76,0.01,1.14C214.91,202.96,214.92,202.58,214.87,202.2z"/> <path d="M202.27,95.6c0-0.25-0.7-0.57-0.7-0.4c-1.28,1.28-0.7,0.97-0.7,2.6C202.17,97.5,202.17,96.5,202.27,95.6z"/> <path d="M243.27,194.2c-0.64,0-1.32,1.4,0.5,2.1C243.77,195.1,243.94,194.2,243.27,194.2z"/> <path d="M229.27,162.1c-0.2,0.1-0.5,0.1-0.6,0.2C227.87,165.51,230.22,163.05,229.27,162.1z"/> <path d="M230.47,152.8c0-2.11,0.16-1.8-0.5-1.8c-0.38,1.14-0.15,1.16,0.1,1.9C230.27,152.9,230.37,152.8,230.47,152.8z"/> <path d="M229.87,157.9c0.21-0.42-0.92-1.42-0.5,1.1C229.57,158.4,229.77,158.2,229.87,157.9z"/> <path d="M226.87,345.01c0.4,0.9,0.7,1.3,1.2,2.3c1.11-5.18-0.51-0.8,0.7-9.8c0.09-0.7,0.6-1.5-0.2-2.2
		C226.09,337.79,227.53,342.14,226.87,345.01z"/> <path d="M233.27,314.71c-1.52,2.1-4.92,9.07-4.8,12.6C234.45,314.4,233.97,315.63,233.27,314.71z"/> <path d="M209.17,367.31c0,1.12,0.34,1.54,7.2,0c0.4-0.09,0.8-0.4,1.8-0.9C214.67,366.21,211.87,366.31,209.17,367.31z"/> <path d="M222.57,332.31c3.9,0.2,7.7,0.5,12.2,0.8C231.17,331.71,226.17,331.41,222.57,332.31z"/> <path d="M261.57,354.01c0.6-1.6,0.6-1.6,0.2-3.5C260.77,351.51,260.77,351.91,261.57,354.01z"/> <path d="M209.37,370.31c1,0.5,1.8,0.5,3.1-0.3C208.97,369.47,209.97,369.41,209.37,370.31z"/> <path d="M265.27,346.31c-0.76,0.51-0.85,0.25-0.6,2c1-1.5,0.9-0.3,0.9-1.9L265.27,346.31z"/> <path d="M261.37,344.81c0,0.1-0.1,0.2-0.1,0.3C261.43,345.27,261.58,345.02,261.37,344.81z"/> <path d="M265.37,275.91c0.77-0.26-0.04,1.08,9.3-12.6c0.08-0.08,0.07-0.63-0.2-0.9C273.28,263.54,264.51,273.96,265.37,275.91z"/> <path d="M242.77,268.31c-2.01,0.75,0.38,3.64,2.3,4.6c0.86,0.34,1.57-0.53,0.4-1.7C244.57,270.21,243.67,269.21,242.77,268.31z"/> <path d="M255.17,309.11c0.4-1.1,0.5-2,0-2.9C253.87,307.11,253.87,307.51,255.17,309.11z"/> <path d="M249.07,264.1c0.4,1,0.9,1.8,2,2C251.07,264.21,250.87,263.9,249.07,264.1z"/> <path d="M253.07,301.21c-0.6,1.9-0.6,1.9,0.4,2.3C253.97,302.71,253.97,301.91,253.07,301.21z"/> <path d="M247.77,261c1.02,1.02,0.94,0.76,1.1,0.6C248.19,260.24,248.34,260.43,247.77,261z"/> <path d="M252.77,267.91c-0.93,0.62-0.77,0.37-0.4,1.1c0.3-0.1,0.5-0.3,0.8-0.4C252.97,268.41,252.87,268.21,252.77,267.91z"/> <path d="M251.07,295.21c0,0.57-0.63,0.34,0.3,0.8C251.61,295.53,251.84,295.59,251.07,295.21z"/> <path d="M277.87,239.5c5.41-3.15,11.05-10.52,8-15.1c-1.1,0.4-1.28,1.2-1.2,2c0.46,4.34-4.66,9.5-8.5,11.8
		C273.56,239.32,274.47,241.21,277.87,239.5z"/> <path d="M272.47,239.5c-1.6,0-2.9-0.1-4,1.1C270.67,241.3,271.07,241.2,272.47,239.5z"/> <path d="M234.57,243.9c0,0.2-0.2,0.4-0.1,0.6c0.2,0.4,0.2,1,0.8,1c0.5-0.4,0.3-0.8,0-1.2C235.17,244.1,234.77,244,234.57,243.9z"/> <path d="M265.87,241.3c0.2-0.1,0.3-0.4,0.5-0.6c-0.45,0-0.6-0.79-1,0.4C265.57,241.1,265.77,241.4,265.87,241.3z"/> <path d="M234.17,239.9c-0.31,0.61,0,0.7,0.1,0.8c0.1-0.2,0.3-0.3,0.3-0.5C234.57,240.1,234.27,240,234.17,239.9z"/> <path d="M258.07,131.2c0.1,0.1,0.27,0.17,0.13,0.03C258.23,131.18,258.29,131.16,258.07,131.2z"/> <path d="M258.87,132.7c0.19-0.09,0.1-0.03,0.1-0.1L258.87,132.7z"/> <path d="M258.23,131.17c0.53-0.09,0.99-0.18,1.54-0.27c0.75,1.13-0.09,1.38-0.78,1.74c0.7,1.27,1.99,1.47,3.08,1.76
		c0.4-1.4,0.59-2.8,1.1-4c0.3-0.7,1.1-1.1,1.6-1.7c0.2-0.2,0.2-0.6,0.3-0.9C263.39,128.36,259.4,128.5,258.23,131.17z"/> <path d="M237.67,147.7c-0.79,6.11,3.74,9.7,9.8,9.7C244.22,155.54,239.49,155.6,237.67,147.7z"/> <path d="M254.67,109.9c-0.5,0-0.69-0.3-0.6-0.79c0.36,0.03,0.69,0.23,0.6,0.69c1.61,0,3.2,0.56,4.3-0.7c-2.05-1.08-7.4-2.31-8-0.9
		C255.09,111.58,253.81,111.19,254.67,109.9z M253.67,108.9c0.21,0,0.21-0.04,0.28,0.14C253.85,109,253.74,108.97,253.67,108.9z"/> <path d="M240.27,121.6l0.1,0.1C240.41,121.51,240.39,121.57,240.27,121.6z"/> <path d="M240.39,121.56c1.54-0.42,2.71-1.29,3.88-2.46c-0.46-0.37-0.84-0.73-1.21-1.03c0.21-0.03,0.47,0.06,0.21-0.37
		c-1.92,1.92-5.36,0.71-7.9,0.9C241.12,120.97,240.72,119.87,240.39,121.56z"/> <path d="M266.67,124.1c-3.6-1.9-6.3-0.7-9.6,0.6C259.35,125.24,259.08,124.83,266.67,124.1z"/> <path d="M250.57,112.3c-3.4-2-6.8-2.8-10.3-3.2C244.07,110.9,247.77,112.1,250.57,112.3z"/> <path d="M240.87,129.6c-1.2,0.53-1.42,0.77-3.9,1.6c-0.6,0.2-1.3-0.2-1.8,0.5c1.6,0.9,2.2,0.9,3.8,0.2
		C239.87,131.51,240.77,131.1,240.87,129.6z"/> <path d="M243.74,114.5c-0.09,0.13-0.11,0.14,0.03,0H243.74z"/> <path d="M244.57,113.3c-4.85-0.61-4.1-1.24-5.3,0.4C243.95,115.59,243.9,114.14,244.57,113.3z"/> <path d="M240.12,112.44c0.02,0.05,0.04,0.1,0.05,0.16C240.14,112.59,240.39,112.55,240.12,112.44z"/> <path d="M239.77,126.4c-1.54,1.16-3.88,2.59-4.7,3.1C237.27,129.6,239.07,128.8,239.77,126.4z"/> <path d="M243.07,116l0.1,0.1C243.21,115.94,243.3,116,243.07,116z"/> <path d="M244.67,115c-1.01-0.5-0.82-0.52-1.45,0.99C243.85,115.96,244.39,115.74,244.67,115z"/> <path d="M243.87,114.5c-0.26,0.13-0.23,0.08-0.06,0.15C243.83,114.6,243.85,114.55,243.87,114.5z"/> <path d="M256.77,132.2c0.6,0.5,1-0.2,1.5-0.3c-0.09-0.17-0.1-0.36-0.1-0.6C257.6,131.3,256.96,131.35,256.77,132.2z"/> <path d="M241.97,160.9c0-0.55,0.62,0.4-0.4-1.9C241.36,160.28,241.23,160.53,241.97,160.9z"/> <path d="M235.87,121.2c0.88,0,0.85,0.35,1.2,0c-0.3,0-0.6-0.1-0.9-0.1C236.07,121.1,235.97,121.2,235.87,121.2z"/> <path d="M239.37,121.8c0.24,0.16,0.48,0.25,0.72,0.34C240.15,121.64,240.37,121.49,239.37,121.8z"/> <path d="M240.17,121.5c0,0.05-0.01,0.08-0.02,0.13C240.3,121.59,240.31,121.64,240.17,121.5z"/> <path d="M240.07,122.3l0.2-0.1C240.09,122.14,240.07,122.09,240.07,122.3z"/> <path d="M244.07,121.5c-0.44,0-0.3,0.5-0.3,0.8C244.13,121.58,244.07,121.98,244.07,121.5z"/> <path d="M249.87,109.1c0.05,0,0.09,0,0.13,0C249.96,108.97,250,108.98,249.87,109.1z"/> <path d="M251.37,109.7c-0.28-0.65-0.81-0.61-1.37-0.6C250.23,109.79,250.8,109.8,251.37,109.7z"/> <path d="M234.07,120.5c-0.1,0-0.2,0-0.2,0C234,120.5,234.31,120.74,234.07,120.5z"/> <path d="M245.07,117.7h-0.2C245.12,117.83,245.07,117.83,245.07,117.7z"/> <path d="M242.97,116c-0.1,0.1-0.3,0.1-0.6,0.1C242.27,116.1,241.84,117.13,242.97,116z"/> <path d="M240.02,108.91c-0.08-0.04-0.1-0.06-0.05-0.01C239.92,108.9,239.95,108.9,240.02,108.91z"/> <path d="M240.02,108.91c0.08,0.04,0.2,0.09,0.35,0.09C240.22,108.95,240.1,108.93,240.02,108.91z"/> <path d="M249.47,108.6c-0.1-0.1-0.3,0.1-0.5,0.2c0.13,0,0.3,0.2,1,0.2C249.77,109,249.67,108.7,249.47,108.6z"/> <path d="M251.97,100.7c1.73,1.04,1.5,0.81,1.5,0.6C253.47,100.55,253.77,100.7,251.97,100.7z"/> <path d="M238.87,111.9c0.45,0.18,0.82,0.36,1.25,0.54C239.94,111.94,239.32,112.08,238.87,111.9z"/> <path d="M230.57,105c0.24-0.24,0.57-0.2,1.2-0.3C230.97,104.31,230.74,104.5,230.57,105z"/> <path d="M233.47,103.9c-0.1,0-0.1-0.1-0.3-0.1c-0.1,0-0.2,0.1-0.3,0.1c0.1,0,0.2,0.1,0.3,0.1C233.27,104,233.37,103.9,233.47,103.9
		z"/> <path d="M251.77,110.1c-0.2-0.1-0.3-0.2-0.5-0.3C251.37,110,251.27,110.4,251.77,110.1z"/> <path d="M243.67,122.2c-0.81,0.81-0.73,0.67-0.6,0.8C243.37,122.8,243.57,122.6,243.67,122.2z"/> <path d="M242.37,123.8c0.14-0.28,0.1-0.2,0.2-0.2c-0.1-0.1-0.12-0.06,0.27-0.48C242.55,123.18,242.37,123.36,242.37,123.8z"/> <path d="M243.07,123.1l-0.1-0.1C242.76,123.22,242.87,123.1,243.07,123.1z"/> <path d="M265.17,127.9c0.27-0.27,0.3-0.23-0.1-0.1L265.17,127.9z"/> <path d="M258.27,131.9l-0.1,0.1C258.98,132.54,259.44,133.07,258.27,131.9z"/> <path d="M206.57,255.2c-0.5,1.01,0.82,1.54,1.76-0.42C207.68,254.69,207.04,254.64,206.57,255.2z"/> <path d="M208.33,254.78c0.15,0.03,0.15,0.04,0.12-0.11C208.38,254.7,208.36,254.71,208.33,254.78z"/> <path d="M187.07,543.91c0.1,0.1,0.2,0.3,0.3,0.4C187.43,544.19,188.48,543.21,187.07,543.91z"/> <path d="M198.87,131.9c0.27,0,0.2,0.33,0.2-2.7C198.78,129.2,198.87,128.8,198.87,131.9z"/> </g> </svg> 