<?xml version="1.0" encoding="utf-8"?> <!-- Generator: Adobe Illustrator 23.0.1, SVG Export Plug-In . SVG Version: 6.00 Build 0)  --> <svg version="1.2" baseProfile="tiny" id="Layer_1" xmlns="http://www.w3.org/2000/svg" xmlns:xlink="http://www.w3.org/1999/xlink" x="0px" y="0px" viewBox="0 0 900 600" xml:space="preserve"> <g> <path d="M726.24,2.88c-3.74,0.44-95.84,254.27-98.8,257.24c-6.79,3.19-8.74,8.23-4.42,12.23c-3.91,6.17-5.96,13.37-8.84,20.15
		c-1.75,0.72-3.99-0.28-5.35,1.03c-1.41,1.36-0.41,3.39-2.16,4.32c-1.03-1.37,1.11-3.87,1.34-11.31c0.23-7.61,2.65-14.92,1.64-22.52
		c-2.71-20.53,3.56-21.04,3.39-31.46c-0.02-1.54,0.91-3.09,1.44-4.52c4.14-11.12,1.91-23.59,0-25.5
		c8.43-2.67,13.98-13.59,12.75-20.25c-1.66-9,4.35-14.76-27.76-35.68c-4.11-2.67-6.41-6.35-14.81-12.44
		c-1.13-0.82-2.26-1.85-3.19-3.5c0.31-5.24,0.82-10.9,1.95-16.55c9.76,1.56,10.66,1.63,14.91,0.1c3.53-1.27,3.5-4.1,2.67-7.4
		c-0.1-1.44,1.34-1.85,1.34-2.98c0.21-1.13-0.62-1.85-0.82-2.78c0.41-0.93,1.54-1.34,1.64-2.16c0.21-1.65-0.82-2.98-0.31-4.73
		c7.25-3.99,2.77-6.12,1.03-10.59c-2.68-5.81-0.18-4.48,0.51-5.86c-0.51-0.21-1.03-0.51-1.75-0.82c4.01-4.11,3.56-8.66,1.54-13.47
		c-2.78-6.65-3.35-16.77-14.5-19.64c-0.11-0.03-24.12-10.82-35.57-1.23c-2.46,2.06-5.55,3.6-7.71,5.96
		c-10.25-1.52-14.57-3.5-18.71,4.22c-4.75,8.85-7.95,10.5-6.79,17.58c1.44,8.79,3.09,8.75,3.8,16.96
		c0.97,11.05,6.16,18.07,2.06,31.56c-0.6,1.96-1.34,3.91-1.03,6.27c2.26-1.54,1.65-4.22,3.39-6.37c-0.41,4.73-0.62,8.94-2.57,13.06
		c3.7-1.54,7.61-11.52,8.33-24.06c0.21,8.12-0.76,16.03-2.36,23.85c-0.53,2.57,0,4.94,0,7.92c2.16-1.75,3.8-3.91,6.79-4.83
		c-8.53,9.05-16.14,18.39-16.45,31.15c-0.01,0.62,0.51,0.72,1.03,0.93c0,45.59,12.46,38.97,15.22,74.95
		c0.21,2.68-1.24-0.05-0.31,14.39c0.39,5.99-3.97,13.51-5.76,15.83c-4.22,5.47-7.61,11.52-11.82,17.07
		c-5.55,7.3-8.97,15.42-9.77,24.68c-2.22,25.77,3.92,35.26,13.47,45.13c7.06,7.3,0.61,10.81,12.95,45.75
		c4.74,13.42,6.98,15.29,7.51,24.26c0.38,6.43,2.29,9.91,0.21,13.98c-1.61,3.15-5.95,23.54-6.27,24.78
		c-1.11,4.27,0.26,24.83,0.41,26.94c0.59,8.21,11.74,39.71,12.34,52.54c-1.44-0.21-0.93-2.26-2.67-2.36
		c-3.64,4.55-1.04,7.51-7.71,18.1c-1.7,2.7-1.23,6.37-4.11,8.74c0.72,1.13,0.93,2.36,0.21,4.11c9.35,8.5,2.23,1.02,17.38,8.12
		c1.12,0.12,3.14-1.71,4.11,1.85c0.64,2.36,2.17,4,3.91,5.55c2.93,2.61,6.48,8.13,14.7,8.22c2.67,0.03,17.31,3.52,34.44-6.68
		c1.44-1.34,1.03-3.29,1.75-5.04c5.11-1.43,10.78-1.75,14.6-8.43c-1.57-2.78,1.29-7.85-1.07-7.74c-0.56-4.96-11.66-6.12-17.85-11.9
		c-8.41-7.85-12.65-6.87-14.5-13.16c-1.6-5.46-5.35-9.15-9.66-12.54c-0.62,0.1-1.13,0.31-1.75,0.41
		c-2.05-2.05-2.49-11.02-2.36-14.09c1.53-37.34,0.48-27.75,3.7-44.93c2.04-10.85,2.33-15.02,4.52-19.84
		c1.87-4.11,1.61-8.75,2.67-13.16c0.3-1.24-0.82-1.95-0.82-3.39c8.68-7.15,4.37-16.54,9.25-32.49c10.83-35.41,5.45-45.9,5.45-66.62
		c0.21-0.62,2.47-0.21,1.64-2.36c3.7-0.21,4.83-3.91,7.71-5.76c2.26,1.03,3.69-0.32,4.83-2.26c1.52-2.58,2.89-5.14,3.7-7.92
		c0.21-0.72,0.62-1.65-0.62-2.47c-1.95,1.34-1.54,3.91-2.78,5.55c-1.23,1.64-2.06,3.6-3.6,5.14c-2.98-0.62-5.86-1.84-8.84-2.06
		c-1.34-0.1-1.44-1.54-2.36-1.95c-0.93,0.21-1.23,0.72-1.34,1.75c1.54,3.19,5.55,1.54,7.71,3.7c-0.82,0.93-1.95,1.44-3.29,1.85
		c-2.88-2.16-7.71-1.54-9.25-6.17c2.67-3.5,7.51-3.29,11.31-5.86c-4.83-1.23-8.55,0.19-11.93,2.67c-4.03,2.96-8.12,6.07-11.62,9.87
		c-2.26-1.85-4.11-3.91-5.35-6.68c4.11-4.42,7.82-9.14,12.65-12.95c2.99-2.36,6.27-4.32,7.92-7.2c1.23-0.72,1.85,0.41,2.88-0.41
		c1.01-0.8,0.45-2.98,1.96-3.94c0.26,1.11-0.41,2.32,0.4,3.73c3.43,1.41,6.99,7.89,9.15-7.2c2.8,5.61-4.89,13.04-5.76,14.39
		c1.23,1.13,2.16,0.1,3.29,0.1c1.03,1.95-0.93,4.32,0.82,6.07c-2.06,2.47-4.93,3.08-7.61,4.22c0.82,1.85,2.26,1.22,3.6,1.54
		c1.24,0.3,2.16,1.85,3.91,0.31c0.1-1.54,1.44-2.98,1.23-4.93c1.13-0.21,2.05,0.8,3.19,0.21c2.24-1.17,1.95-3.7,2.98-5.55
		c2.16,0.41,1.23,3.08,2.98,3.7c1.03-2.36,0.81-3.38-1.03-4.52c-2.27-1.42-4.42-2.78-7.4-3.5c2.82-3.7,5.4-9.61,2.16-12.85
		c-1.13-1.13-0.51-2.57-1.44-3.6c3.08-6.07,5.15-12.36,6.68-18.92c1.21-5.19,7.92-4.32,5.86-12.95
		C726.97,1.52,731.09,4.09,726.24,2.88z M606.67,244.69c0-2.88,0.1-3.29,1.75-5.96C608.21,240.89,607.59,242.84,606.67,244.69z
		 M615.1,161c0.54,0.27,6.42,6.3,8.64,14.91c2.98,11.59-0.33,16.17-5.87,21.7c-7.67,5.68-5.55,4.36-5.22,11.5
		c0.1,2.26,0.21,4.52-0.51,6.99c-15.52-0.1-30.23,4.42-45.03,6.99c-1.6-1.6,1.32-14.42-2.06-31.46c-0.55-2.78,1.65-5,0.51-7.71
		c0.72,0.41,0.41,1.13,1.13,1.23c2.24,0,2.84-2.65,5.24-1.65c4.93-5.35,5.76-7.2,6.27-14.29c0.21-1.44-0.23-2.99,0.21-4.32
		c1.59-4.82-8.01-19.07-20.35-26.63c-4.14-2.53-7.71-5.86-11.93-8.94c1.54-1.03,1.85-2.67,3.19-3.8
		c21.02,16.45,40.82,38.81,55.52,39.99c3.07,0.25,5.5-0.46,6.88-3.28c0-1.24-4.43-4.66-5.75-7.21
		C609.24,156.79,611.81,159.36,615.1,161z M543.95,92.74c0,0.3,2.88,3.31,1.54,7.2c1.54,0.62,1.08,0.44,0.59,1.05
		C542.64,105.17,544.93,98.82,543.95,92.74z M538.91,64.05c0,0.72-0.1,1.13-0.1,1.65c-0.93,12.72,1.04,10.97,3.29,26.73
		C537.68,85.44,535.83,68.68,538.91,64.05z M541.69,105.28c0-0.72,0-1.13,0-1.54C542.08,104.26,542.01,104.77,541.69,105.28z
		 M540.14,93.47c-0.01-0.29,0.06-0.59,0.22-0.94C540.84,95.47,540.16,94.11,540.14,93.47z M540.87,75.07c0-0.8,2.77,2.23,4.01,1.33
		c-3.19-2.74-3.8-3.1-3.8-5.35c4.82,3.52,5.39,3.8,8.53,3.8c-1.89-1.43-8.43-3.94-8.43-7.51c6.17,2.67,12.65,3.29,18.61,5.55
		c-2.2,2.2-3.19-2.21-7.71,1.43c-3.49,2.81-1.47,4.81-3.91,8.64c0.54,3.12,4.38,7.55,3.45,7.32c-2.54-0.85-4.34-2.54-6.23-4.33
		c0.92-0.84,1.36,0.33,2.16-0.31C542.78,80.54,541.89,80.46,540.87,75.07z M556.01,65.73c-0.23-0.23,6.96,1.41,8.91,3.36
		c0.88-0.1,8.02-0.82,8.12-0.82c-0.8,1.99-6.04,1.52-9.36,2.67c-5.59,1.94-16.01-4.3-17.02-4.3c-0.78,0.26-0.02,1.1-1.1,1.1
		c-1.34-0.93-2.97-1.75-3.99-3.28c3.14-10.07-2.67-2.98,20.06,5.07C563.23,70.09,557.16,67.08,556.01,65.73z M569.04,63.23
		c0.33-0.22,0.62-0.34,0.91-0.34C571.42,62.89,570.47,64.16,569.04,63.23z M572.33,63.95c2.06-0.41,3.6-2.57,6.58-1.44
		C576.75,64.16,574.59,64.46,572.33,63.95z M563.79,75.87c-2.5-0.07-0.61-0.43-0.02-0.46C564.71,75.35,565.65,75.92,563.79,75.87z
		 M551.8,90.44c0.43,0.79,1.39,1.51,1.19,2.7c-3.63-1.21-4.29-1.04-5.35-3.5c0.93,0.51,1.85,0.82,2.67,1.23
		C550.92,91.19,551.4,90.98,551.8,90.44z M546.93,102.09c2.5,9.99,0.72,19.94-1.15,22.89c-0.87,1.16-0.47-12.56-1.32-17.03
		C544.04,105.69,544.77,103.64,546.93,102.09z M584.54,137.56c1.04,0.52,2.44,2.06,0.92,1.43
		C584.58,138.63,582.32,136.45,584.54,137.56z M597.41,55.31c2.86,2.54,1.93,0.08,3.51,6.86c2.57,11.06,2.43,9.95,2.25,10.23
		c-1.29,2.03-2.59,1.29-3.33,3.87c-0.89,3.09,1.62,9.16,3.33,11.96c0.64,1.05,1.35,2.34,0.32,3.02c-3.07,1.69-3.69-1.82-5.97,1.6
		c0.51,1.03,1.75,0,2.47,1.23c-1.69,2.15,2.73,3.5-0.46,5.18c-2.14,1.13-4.71-0.55-6.94,0.45c2.12,2.25,4.6,1.33,5.56,1.33
		c4.24,2.54-0.21,3.2-0.21,5.24c0.1,0.31,0.79,1.64,0.84,2.9c0.29,7.13-14.03,2.16-19.97,2.55c0.21,0.93,1.44,0.93,1.64,2.16
		c-2.57,7.92-3.29,16.14,0.41,23.96c18.02,12.66,27.75,24.78,27.65,24.78c-2.25-0.22-3.28-2.47-5.34-3.49
		c-0.1,1.54,1.95,1.85,1.65,3.39c-10.97,1.65-44.28-31.18-53.56-38.14c-0.84-0.63-1.73-0.9-2.16-1.94c0-0.2,1.95-8.37,1.95-8.75
		c4.21-4.2,2.13-5.99,2.79-5.34c3.94,3.31,4.18,7.26,2.66,12.12c6.61-8.81-4.12-12.44-5.76-19.53c0.93-1.65,3.5-1.44,3.39-3.91
		c-1.85-0.1-3.5-0.72-5.14-1.65c-0.31,0.82,0.72,1.34-0.1,1.85c-1.35-1.76-1.94-2.5-1.94-5.35c2.16,1.65,4.62,2.36,7.19,2.98
		c0.35,0.7,1.73,3.5,2.4,3.5c4.29-0.31,4.29-0.32,4.29-3.39c-1.03,0.1-1.34,1.54-2.98,1.23c-3.29-3.19-5.24-7.71-7.71-11.93
		c-0.11-0.11,0.18-1.45,2.78,0.21c-0.28,3.66,1.99,5.64,2.98,5.61c3.76-0.09-1.72-3.43-0.51-7.36c0.62-0.72,1.44-1.54,2.26-2.47
		c2.36,2.36-0.55,2.33-0.41,4.4c0,0.01,0,0.01,0,0.01c1.03,1.23,0.51,3.39,1.95,4.94c1.04-0.52,2.26-1.47,2.26-2.47
		c-0.31-1.54-1.95-1.54-2.47-2.67c2.26-3.08,0.41-6.27-4.52-8.33c-2.04,1.22-2.26,3.57-3.58,5.61c-0.1,0.1-0.95-2.83,2.34-6.13
		c3.91-3.91,5.09,0.98,7.57,3.27c2.81,2.59,4.75,1.54,6.62-0.8c-1.54,0.41-2.98,1.13-4.42,0.21c4.83-1.65,8.74-4.93,12.75-7.4
		c0.49-0.78-0.63-1.32,0.11-2.07c0.82-1.03,2.14-1.85,2.46-2.87c0.9-2.89,2.47-5.76,2.16-9.05c-1.87,0.13-5,1.32-4.73-0.73
		c0.7,0,1.84-0.08,2.47-0.4c4.91-2.56,6.13,2.41,8.84-0.31c1.43-1.43-10.74-6.84-11.31-7.41c6.06,1.39,11.56,5.22,16.36,8.74
		C593.61,55.42,595.66,56.34,597.41,55.31z M551.04,106.31c1.4,2.14,1.47,2.1,0.21,4.32C551.25,109.19,551.15,107.85,551.04,106.31z
		 M553.3,82.15c0.31-1.44,0.93-2.57,2.06-3.6c1.17,0.84,1.33,0.46,0.88,1.21C555.47,81.04,554.2,81.61,553.3,82.15z M585.49,48.42
		c0.9,0,1.36,0.74,1.84,1.13C587.43,49.56,585.9,49.97,585.49,48.42z M592.27,54.7c-1.19-1.79-3.54-2.91-4.71-4.96
		C587.44,49.5,590.23,50.19,592.27,54.7z M588.06,46.47c-2.06-1.13-3.7-1.95-5.35-2.78C586,43.9,586.41,44.11,588.06,46.47z
		 M579.32,43.59c-0.75,0.28-1.38,0.06-2.09-0.32C577.13,43.17,578.61,42.77,579.32,43.59z M572.02,41.64
		c12.29,2.92-1.61,0.33-8.94-0.31C566.05,41.02,569.03,40.93,572.02,41.64z M568.46,44.21c-0.13,0,0.06-0.1,0.06-0.21
		C569.57,44.27,570.71,44.21,568.46,44.21z M561,42.41c3.24,0.34,0.25,0.94,0.12,1.08c1.79,1.2-0.59,0.62-0.82,1.64
		c2.08,0,6.76,0.78,9.41,0.96c2.65,0.17,5.19-0.21,5.19,2.53c-6.89,0.92-12.85-2.57-19.74-3.5C556.84,42.86,558.81,42.18,561,42.41z
		 M545.7,53.98c0.79-0.44,1.49,0.21,1.95,0.41c-0.19-0.89-1.65-1.4-1.65-2.47c2.16-2.06,4.42-4.01,7.09-5.35
		c3.43,0.6,24.28,3.95,22.1,5.04c-0.96,0.64-1.4,0.38-0.95,0.6c3.67,1.74,3.2,1.44,2.77,1.55c-1.91,0.51-5.49-1.4-6.24-1.02
		c-4.21,2.1-18.69-7.44-20.67-2.16c0.31,0.31,0.62,0.82,0.82,0.82c3.91-0.62,7.29,1.38,10.9,2.06c1.74,0.32,9.44,2.3,8.94,3.29
		c-0.66,0.65-1.2,1.23-1.65,2.36c3.39,0.31,6.68,0.62,9.87-0.93c0.5,0.99,0.14,1.64-0.41,2.47c-6.55-2.03-9.21,3.9-20.15-0.93
		c-4.7-2.07-10.66-6.29-9.64-4.91c1.56,2.11,3.1,3.86,5.63,4.5c1.01,0.17,1.24,1.53,13.88,5.14c-8.99,2.77-20.1-1.29-24.57-7.09
		c0-3.73,5.15,3.88,14.7,5.24C557.66,60.42,547.66,58.87,545.7,53.98z M575.66,56.17c-0.65,0.36-1.35,0.74-1.99,0.3
		c-0.27-0.18-0.88-0.95-0.62-0.95C574.09,55.59,574.97,55.27,575.66,56.17z M544.05,50.07c0,1.17-0.47,1.89-1.23,2.48
		c-0.6,0.46-0.46-3.22-6.99-2.62c-1.09,0.1-1.42,0.2-2.99,0.37C536.45,48.14,540.17,49.34,544.05,50.07z M534.29,105.38
		c-1.35-22.45,0.45,1.82-3.7,16.76c0-12.21,3.6-14.89-1.03-42.67c-0.92,2.04,0.28,3.26-0.09,4.58c0,0.09,0.08,0.1-1.13-0.5
		c-0.27-0.13,2.67,11.71,1.68,18.8c-0.11,0.77-1.48-6.33-3.33-12.29c-0.51-1.65,0.21-3.29-0.41-4.94
		c-1.36-3.62-3.68-12.71-3.39-18.51c0.35-6.89,5.24-12.85,11.52-13.98c4.79-0.57,2.37,1.09,8.32,0.1
		c-0.37,3.53-6.79,4.42-8.11,14.81C531.29,93.41,537.69,97.42,534.29,105.38z M534.9,133.25c0-0.73,4.97-9.51,4.83-18.61
		c-1.59,4.38-2.24,9.32-4.73,13.57c0-4.52,1.85-14.56,2.06-21.69c0.21-7.22-1.19-14.14-1.75-21.59c1.93,8.37,7.97,27.95,5.86,37.73
		c-0.49,2.27,1.13,4.42,2.57,6.37C541.07,130.98,538.5,132.73,534.9,133.25z M538.5,267.62c0.82,8.12,0.62,15.73,2.78,23.44
		c-4.35-1.25-7.41-3.55-10.59-6.68C530.31,280.82,530.93,280.99,538.5,267.62z M525.49,355.7c-3.53-3.74-9.37-11.67-10.54-18.06
		c-6.52-35.72,6.59-41.97,12.54-53.87c6.83,9.1,14.4,10.25,14.4,10.25c6.45,39.09,2.35,28.71,4.82,41.05
		c-2.16,4.3,1.54,6.07,3.38,8.73c-1.27,1.46-4.83,3.02-2.8,5.08c1.48,1.5,3.27,2.75,4.34,4.89c-3.64,1.12-17.19,4.97-21.68,9.47
		C528.33,355.45,532.07,362.66,525.49,355.7z M552.07,554.26c0.83-2.77,0.09-5.55,0.93-8.23c3.81-12.22-8.89-33.5-9.97-50.28
		c-1.06-16.41-2.35-22.35,0.21-32.9c9.34-38.52,6.81-26.69-9.46-82.04c-0.89-3.03-3.71-14.49-3.06-14.98
		c7.17-4.28,14.83-7.15,22.6-9.7c2.16,2.47,3.7,5.24,6.89,6.37c3.45-3.24,10.12-2.63,13.26-7.3c2.07-3.07,4.93-3.7,8.33-3.8
		c3.22,43.2,1.32,30.4,1.95,35.26c0.91,6.94,2.45,29.23,0.23,35.9c-3.57,10.69-13.8,55.68-13.8,69.17c0,15.54-1.9,23.44-0.62,38.14
		c0.47,5.34,0.82,5.15,0.82,11.52c-13.76,10.09-9.24,12.81-10.22,16.14c-0.18,0.6-0.02-0.21-6.95-0.21
		C552.38,556.42,551.77,555.29,552.07,554.26z M610.96,586.87c-0.26,0.61-4.28-0.1-5.83,2.26c-1.56,2.37-3.9,3.07-6.48,4.73
		c2.88-0.51,5.93-0.55,8.33-2.78c1-0.93,2.44-1.22,4.15-1.33c0.13,0-0.96,2.54-6.53,4.19c-19.03,5.65-16.76,3.87-28.99,2.78
		c-0.41,0-0.82-0.21-1.03-0.41c-2.77-2.64-11.6-5.43-14.7-16.55c-1.85-1.23-3.79-1.51-5.65-0.93c-3.97,1.25-6.88-2.05-11.72-2.98
		c-1.96-0.38-3.09-2.32-2.76-2.73c1.8-2.28,2.43-5.4,3.06-8.27c0.71-3.19,5.47-7.51,6.37-16.96c0-0.85,1.33-0.58,1.54,1.34
		c-3.52,7.04-0.54,10.84,4.42,10.9c5.21,0.06,8.02,0.9,8.02-5.24c0.29-4.1,1.1-5.27,7.09-9.36c0.93,1.54,0.51,3.19,1.13,4.63
		c0.79-0.31,0.04-1.76,1.54-1.85c0,2.11,1.27,3.82,2.77,5.53c0.39,0.39-1.32,0.44-5.85,2.39c-1.73,0.74-4.22,0.74-4.11,3.6
		c2.26,1.67,2-0.53,9.97-1.03c1.98-0.26,2.35-1.14,5.24-0.31c-3.47,1.78-8.55,1.77-10.59,4.83c1.26,2.1,1.42,1.16,11.93-1.64
		c1.21-0.4,2.01-0.13,2.26,1.13c-3.99,1.65-6.52,0.35-10.08,3.91c0.31,1.13,0.72,1.63,1.34,1.64c4.01,0.1,7.71-1.34,11.41-2.78
		c5.13,6.84,0.59,0.51-6.98,5.24c1.07,3.21,7.35,0.77,9.31-1.81c0.07,0.13,0.95,0.15,1.15,1.32c0,0.92-4.13,1.74-5.02,4.1
		c3.39,1.34,5.24-1.23,7.51-2.57c3.64,2.32,2.63,2.55,4.01,0.82c4.63,2.88,9.15,5.76,14.19,8.43
		C611.11,582.99,611.76,584.98,610.96,586.87z M584.97,334.35c0.93,4.11-0.82,8.43,0.72,12.44c0.93,0,0.93-0.62,1.23-1.03
		c5.35,0.31,10.49-1.65,16.14-1.75c-0.51-1.75-1.54-2.87-3.08-2.67c-4.42,0.55-8.94,0.72-13.26,2.67
		c-0.21-8.09,2.08-8.48,11.21-16.14c0.73,1.18,1.52,2.34,1.75,3.7c2.36,1.08,5.25,1.71,7.3,3.39c-2.92-0.21-5.49-1.1-7.3-3.39
		c-0.54,0.27-0.94,0.37-1.23,1.13c1.54,2.06,2.26,4.73,4.73,6.58c0.93,6.37,1.46,12.85,0.72,19.43c-0.47,4.16,1.93,13.43-1.75,28.79
		c-8.28,34.62-8.77,34.39-7.92,39.27c0.84,4.83-3.38,5.97-4.63,15.42c-1.21,9.16-4.79,13.67-6.37,26.83
		c-1.66,13.8-6.33,25.88-4.32,42.87c1.14,9.62-3.09,9.5-0.21,17.17c1.32,3.5,2.67,6.99,4.01,10.49c-0.41,2.57-2.47,4.42-2.78,7.2
		c2.26-1.23,5.04-5.55,5.55-8.64c1.95,1.95,3.8,3.7,5.14,6.17c-2.98,1.85-6.68,2.78-8.74,6.27c2.36,1.75,3.59-0.33,5.04-0.93
		c1.53-0.64,2.98-1.54,4.42-2.36c1.23,0.62,1.54,1.64,1.75,2.88c-4.35,1.86-10.28,3.12-7.2,6.79c2.88-1.13,5.96-2.26,9.05-3.39
		c0.82,0.41,1.54,1.03,1.95,2.06c-1.54,1.54-4.11,1.85-5.45,3.91c1.01,5.03,8.35-1.93,11.21-2.36c0.93,0.1,1.75,0.62,2.36,1.54
		c-2.06,1.95-4.93,2.78-6.79,5.14c2.26,1.75,2.26,1.75,9.15-2.36c5,2.14-1.55,1.27-3.29,5.14c2.06,1.44,3.7,0.62,6.79-3.19
		c18.96,9.46,16.14,7.86,16.14,8.43c-0.41,3.6-4.73,5.14-5.24,9.05c3-1.11,3.31-5.38,4.52-1.75c-3.5,2.88-7.09,5.55-12.03,5.76
		c-0.62-1.95-0.62-1.95,0.31-3.5c-0.41-0.93-1.34-1.43-2.16-1.85c-7.24-3.72-13.52-9.03-20.56-13.06c-2.33-1.33-2.24-2.86-8.12-8.74
		c-1.03-0.93-2.36-1.85-1.34-3.8c-6.89-0.51-6.48-5.45-6.89-10.08c-2.57-0.93-3.07-2.98-2.88-5.45c0.33-4.32-0.72-8.43-0.62-12.65
		c0.38-16.31,1.9-30.02,1.34-41.13c-0.13-2.67,7.76-42.61,9.66-49.76c0.51-0.41,1.03-0.82,1.64-1.23c0.5-4-0.31-9.09,2.26-15.83
		c1.14-2.99,0.99-14.35,0.31-19.23c-1.43-10.21-0.91-55.22-7.4-62.72c-0.31,3.08,1.54,5.24,1.44,7.81c-1.23,1.03-3.7,0.62-4.22,2.98
		c1.13,1.03,2.16-0.82,3.5,0.1c0.1,0.72-0.21,1.34-1.03,1.75c-0.82,0.31-1.13-0.72-2.06-0.93c-1.34,1.85-3.6,2.06-5.35,3.08
		c-0.21,1.03,0.93,0.72,1.03,1.54c-0.82,1.13-1.65,2.36-3.39,2.88c0.21-1.13,0.72-2.47,1.44-3.39c-2.57-0.41-3.6,2.16-5.65,2.47
		c0.93,1.54,1.64,0,2.36,0.41c-0.51,2.26-0.51,2.26-3.8,2.57c-2.69-4.85-5.11-7.59-8.23-10.69c-0.06,0.03-0.55,0.15-0.63,0.17
		c-2.95,0.97,3.23,3.42,4.42,7.73c1.62,1.61,1.59,2.74,1.63,3.55c0,0.32-1.62-1.89-1.84-3.34c-9.07-9.42-10.11-5.81-6.99-9.56
		c0.64,0.32,2.34,0.92,4.41,1.34c-0.25-1.65-5.8-4.59-7.71-7.71c-1.12-8.13,2.28-15.94-5.65-50.17c-0.4-1.72-1.75-25.62-1.75-30.12
		c0-8.3,0.8-5.29,0.21-13.06c-0.38-5.03-1.36-9.87-1.23-14.91c0.24-10.16-10.63-23.71-10.69-33.72c-0.14-22.26-2.3-23.85-0.93-28.68
		c0.37-1.32,4.08-14.09,3.19-14.81c-0.98-0.09-0.42-0.44-2.57,7.4c-0.4,1.44-0.82,2.78-2.78,2.98
		c-0.67-12.76,8.39-16.22,18.71-32.49c20.2,17.01,20.29,14.88,28.38,26.73c3.3,4.83,2.05,10.59,1.34,15.94
		c-0.52,3.91-3.29,6.48-6.37,8.53c-0.31,0.21-0.62,0.51-1.23,0.1c1.95-3.08,3.91-6.27,3.6-10.8c-14.34,26.12-5.54,5.85-6.48,52.85
		c-0.38,19.09-3.05,15.29-1.44,28.58c1.64-4.22,1.03-8.74,2.16-13.06c1.13-4.32,0.72-8.84,1.54-13.47
		c15.11-2.67,29.71-7.4,45.34-8.02c0.52,4.38-7.29,18.39-9.05,32.28c-1.54,12.17,0.35,18.89-2.78,24.26
		c-2.23,3.83,0.66,4.27-3.78,13.48c-0.6,1.24-0.72,2.57-1.03,3.8c-2.57,2.98-5.96,3.7-9.36,3.5c-35.9-2.18-16.91,6.74-22.82-35.16
		c-0.62-4.42-1.75-8.74-2.57-13.16c-0.1-0.82-0.31-1.65-1.03-2.26c-1.91,0.69-0.05,8.52,1.23,15.83c0.72,4.11,3.55,22.51,1.03,25.81
		c-0.67,0.67,1.78,33.31,3.6,38.76c6.66,2.72,12.49-1.54,15.73,4.83C582.41,331.87,583.64,333.11,584.97,334.35z M580.04,325.2
		c-4.42-2.36-9.15-0.41-13.37-1.75c-2.36-8.64-2.78-17.38-2.88-26.83c2.6,0.57,5.16,0.81,7.69,0.93
		c14.44,0.64,19.85,1.02,23.72-2.66c0.38-0.37,0.83-0.67,1.6-0.41c-0.51,4.32,1.03,8.53,1.54,12.85
		C591.01,311.96,585.24,318.25,580.04,325.2z M606.15,272.97c-1.46,8.84-1.13,17.89-3.6,26.32c0,0,0,0,0,0.01
		c2.16,3.59,2.05,3.9-1.34,5.54c-4.9-25.49,4.13-22.18,2.98-48.52c-0.08-1.93,0.07-3.32,1.34-4.93
		C605.12,264.37,606.78,269.14,606.15,272.97z M607.73,302.1c0.53-2.72,0.92-3.6,3.15-5.69
		C609.89,298.78,609.08,300.58,607.73,302.1z M612.73,303.01c0.12,1.37,0.24,2.48-1.03,3.27c-0.62-0.41-2.98-2.05-3.08-2.16
		c0.82-2.47,2.06-4.11,3.5-6.37c0.52,1.69,1.73,1.55,1.73,1.94C613.58,301.02,612.73,301.49,612.73,303.01z M619.21,316.77
		c-0.17,0.83-0.65,1.88-0.72,1.95c-1.03-0.31-1.65-0.62-2.16-1.54c0.21-1.13-0.1-2.47,0.41-3.7
		C619.83,313.48,619.65,315.21,619.21,316.77z M622.4,269.78c-0.87-1.55-0.09-5.42,2.06-1.65
		C623.94,268.86,623.42,269.68,622.4,269.78z M625.99,267.52c-0.57,0-0.8-0.93-0.29-0.93C626.54,266.59,626.64,267.36,625.99,267.52
		z"/> <path d="M335.96,113.3c0-1.34,0.63-2.36,1.13-3.5C388.45-6.02,385.32,1.01,382.02,0c-4.13,0.97-42.57,103.34-54.7,117.21
		c-0.31,0.82,0.93,1.34,0.31,3.08c-7.05,9.07-10.19,26.17-8.53,30.54c-1.93,0.83-4.94-2.29-6.27,1.54c-2.17,6.22-6.51,7.1-4.22,9.97
		c1.85-3.5,4.63-6.07,5.65-9.56c1.03-0.82,1.75-0.51,2.67-0.21c-3.29,1.85-4.73,5.04-3.8,9.25c1.55-2.83,1.12-9.61,7.09-5.35
		c-0.72,2.26-4.01,3.8-2.16,6.79c2.23,1.11,0.78-1.98,2.78-2.78c0.93,0.82-0.31,1.95,0.21,2.98c0.72,0.93,2.16,0.82,2.98,1.85
		c3.5,6.89,6.48,13.98,7.61,21.8c-1.23,2.16-2.88,3.91-5.24,5.24c-1.26-5.31-3.64-15.42-7.42-19.33c1.31-0.09,2.62-0.1,4.34-0.1
		c-1.46-1.68-5.1-2.47-4.46-0.04c-1.12-1.49-2.54-1.58-4.17-1.09c-10.82,3.24-13.53,10.22-16.45,15.52
		c-1.39,0.22-1.95-1.34-1.95-1.44c-3.77-0.24-8.75-3.71-8.94-3.91c1.34-0.31,2.16-1.13,3.39-0.82c1.75,1.03,3.8,1.75,5.65,2.26
		c0.62,1.13-0.1,1.85,0.21,2.06c1.85,0.31,1.95-1.03,2.16-2.06c-0.62-2.78-3.5-1.95-5.04-3.39c3.08-4.11,6.14-8.17,9.15-12.23
		c2.38-3.21,6.26-2.16,7.51-4.83c-7.58-0.76-9.59,3.72-18.2,15.83c-3.22,0.81-4.23,1.46-4.22-0.82c0.09-12.37-8.96-20.2-27.25-31.77
		c-3.72-2.35-6.44-6.47-15.01-12.65c-1.13-0.82-2.06-1.75-2.98-3.29c0.21-5.35,0.82-10.9,1.85-16.66c2.47,0.41,4.51,0.34,6.68,0.93
		c2.87,0.77,5.77,0.03,8.53-1.03c3.44-1.31,3.35-4.36,2.36-7.81c2.17-3.47,1.34-2.76,0.51-5.24c0.41-0.93,1.44-1.34,1.65-2.36
		c0.31-1.54-0.82-2.88-0.31-4.63c8.4-5.6,1.3-5.53-0.1-14.81c0.1-1.03,1.34-0.93,1.75-1.75c-0.21-0.62-1.13-0.21-1.54-0.82
		c1.08-2.17,4.37-3.71,2.26-11c-3.64-12.59-6.42-19.8-15.32-22.1c-2.75-0.71-11.58-6.26-26.94-4.83c-3.19,0.3-6.09,1.11-8.64,3.39
		c-2.38,2.14-5.55,3.5-7.61,6.07c-10.71-1.85-14.9-3.36-18.81,4.01c-4.59,8.64-7.94,10.54-6.79,17.58c1.54,9.39,3.14,8.6,3.91,17.27
		c0.89,10.03,6.41,18.41,2.06,31.56c-0.58,1.76-1.23,3.7-0.93,5.96c2.26-1.44,1.65-4.11,3.5-6.48c-0.62,5.14-0.82,9.36-2.26,13.47
		c5.86-6.99,7.3-15.42,7.92-24.16c0.25,8.1-1.24,18.7-2.57,25.5c-0.9,4.57,0.85,1.28,0.1,6.48c2.36-2.06,4.01-4.11,6.99-5.04
		c-8.33,9.05-15.73,18.1-16.24,30.74c3.35,13.7-1.36,17-1.85,30.64c-0.63,17.41,0.96,25.62,2.06,36.6
		c0.99,9.94,0.35,6.23,4.94,14.39c1.13,0.41,2.88,0.51,3.5,2.16c2.78-0.82,5.35-1.54,8.43-2.36c-3.71,18.02-3.58,21.32-8.74,27.45
		c-4.75,5.64-8.22,12.03-12.54,17.89c-4.32,5.86-6.62,12.65-7.4,19.95c-2.85,26.45,4.2,37.2,13.26,46.57
		c7.11,7.35,0.28,9.41,12.34,44c4.94,14.17,7.61,17.28,8.12,26.01c0.38,6.4,2.29,9.92,0.21,13.98c-1.61,3.15-5.95,23.54-6.27,24.78
		c-1.16,4.46,0.07,23.03,0.41,27.25c0.74,9.21,11.14,35.98,12.44,52.23c-2.1-0.28-2.1-8.25-6.17,6.58c-0.9,3.3-2.52,6.3-4.32,9.15
		c-1.7,2.7-1.23,6.37-4.11,8.74c0.72,1.13,0.93,2.36,0.21,4.11c10.22,8.52,2.66,0.88,17.38,8.02c1.51,0.17,3.33-1.88,4.63,2.88
		c0.58,2.71,2.31,3.23,5.96,7.09c5.69,6.01,10.03,5.33,14.7,6.07c4.74,0.75,9.45,1.12,14.09-0.31c6.06-1.87,12.54-2.78,18.1-6.79
		c1.34-1.13,0.93-2.98,1.54-4.73c3.57-1.71,9.54-0.27,14.81-8.33c-1.44-2.36,0.51-5.24-0.62-8.12c-2.16,1.03-1.76,3.47-3.29,4.73
		c-1.35,1.11-2.88,2.47-2.98,4.93c3.57-3.31,3.76-4.19,4.32-1.95c-5.8,6.17-15.95,7.98-11.62,2.57c-0.41-1.03-1.34-1.43-2.16-1.85
		c-7.24-3.72-13.52-9.03-20.56-13.06c-2.33-1.33-2.24-2.86-8.12-8.74c-1.03-1.03-2.16-1.95-1.54-3.91
		c-6.58-0.51-6.27-5.35-6.58-10.08c-2.57-0.82-3.18-2.78-2.98-5.35c0.32-4.11-0.3-8.12-0.62-12.23c-0.45-5.92,1.88-28.04,1.23-41.84
		c-0.17-3.65,9.34-48.53,9.36-48.63c0.21-1.23,1.44-1.23,2.06-2.57c0.62-16.65,1.88-11.13,2.57-17.27
		c1.42-12.62-1.03-22.14-1.03-30.23c0-18.7-1.89-19.72-1.34-30.54c0.33-6.49-0.54-4.46-1.34-8.43c2.98-1.65,6.28-1.17,9.36-1.65
		c2.99-0.46,6.07-1.95,9.15-0.82c1.13,5.14,1.59,10.08,0.82,15.01c-0.83,5.3,5.89,6.79-8.74,57.88c-2.61,9.1,1.1,9.84-2.06,15.11
		c-4.37,7.3-2.23,9.43-5.76,19.84c-3.45,10.19-8.09,40-8.43,43.18c-1.56,14.47,1.77,18.55-0.51,25.29
		c-1.65,4.85,0.09,7.69,4.42,19.02c-0.51,2.47-2.57,4.42-2.47,7.09c2.67-2.16,3.91-5.24,5.55-8.33c1.54,1.54,3.39,3.29,4.73,5.76
		c-2.98,1.85-6.79,2.67-8.74,6.27c2.36,1.64,3.59-0.43,5.04-1.03c1.53-0.64,2.98-1.54,4.42-2.36c1.13,0.72,1.44,1.64,1.65,2.88
		c-2.16,0.93-4.66,1.4-6.58,2.88c-1.57,1.2-1.65,1.44-0.62,3.7c3.19-0.51,5.96-2.26,9.15-3.19c5.01,2.86-1.75,2.98-3.6,6.07
		c0.95,3.79,4.62,0.87,8.02-0.72c1.57-0.94,3.65-3.12,5.65-0.1c-2.06,2.06-5.04,2.88-6.79,5.24c2.47,1.75,2.67,1.64,8.94-2.36
		c0.82,0.1,1.54,0.51,2.06,1.44c-1.85,1.13-4.42,1.44-5.24,3.8c2.26,1.23,4.01,0.41,6.58-3.29c5.45,2.57,10.8,5.86,16.96,8.33
		c-0.38-3.41-3.07-3.72-6.99-5.65c-15.01-7.42-10.89-8.15-19.95-13.06c-7.51-4.07-2.93-9.43-15.01-18.92
		c-0.51,0.1-1.03,0.21-1.65,0.31c-3.71-5.56-1.77-19.22-1.23-40.82c0.16-6.25,5.59-33.93,5.86-34.44
		c2.81-5.23,2.86-11.01,4.11-16.55c0.42-1.87-1.63-2.74-0.31-4.01c8.19-7.91,3.89-15.41,8.94-32.28
		c5.18-17.28,10.28-36.12,3.91-72.38c-1.1-6.28-0.91-12.85-2.26-19.12c-1.33-6.17-1.47-12.44-2.16-18.71
		c-1.74-15.99,5.03-18.4,4.42-36.29c-0.24-7.11,3.61-22.89,6.37-29.4c5.68-1.62,10.63-7.39,15.94-6.07c0.92,0.23,1.95,0.1,3.08-0.41
		c1.23-1.75,3.7-2.88,4.11-5.65c3.99-1.89,3.68-3.37,6.99-5.65c13.68-9.44,12.27-8.53,16.45-8.53c2.41,6.17,11.1,9.01,14.29,7.61
		c3.46-1.52,6.97-2.69,9.87-5.35c4.29-3.93,4.01-7.4-1.03-10.28c-1.8-0.9-1.37-6.45-1.75-9.05c-0.53-3.58-2.93-6.31-5.96-8.74
		c0.93-1.54,2.47-3.08,1.23-5.14c-1.75-0.62-3.19,0.62-5.04,0.41c-1.95-3.7-3.7-7.71-7.71-9.97c0.72-2.16,0.81-4.33,2.36-6.17
		c1.22-1.45,0.72-2.57-0.62-3.8c-0.51-0.41-1.44-0.31-1.85-1.34c8.2-7.86,7.79-20.02,8.74-31.15
		C334.42,119.26,335.96,116.9,335.96,113.3z M330.92,196.48c-1.38,1.62-2.73,2.3-4.73,1.65
		C327.73,197.09,329.38,196.78,330.92,196.48z M313.85,174.26c1.18-0.6,1.48-0.81,2.67-0.81c3.34,2.51,2.3,2.02,0.74,2.72
		c-5.61,2.54-2.1,12.06-12.36,14.95c-0.46,0.13-3.08,1.57-3.08,1.12c-0.21-1.33-1.54-2.05-2.06-3.18
		C303.26,180.94,306.76,177.34,313.85,174.26z M280.06,164.82c3.6,5.33,6.04,10.82,6.04,17.26c-12.59,5.88-9.15,4.22-16.25,10.44
		c-8.49,7.43-25.72,6.49-24.68,7.97c0.15,0.07,0.82,0.17,0.82,0.82c-14.41,9.6-29.58,8.28-29.18,7.88
		c6.32-11.69,7.91-22.9,8.2-23.19c2.35-0.82,5.24-0.86,6.99-2.98c0.51,0.21,0.93,0.41,1.13,0.51c8.16-6.42,6.05-16.86,6.58-18.19
		c0-0.15,0.29-0.61,0.33-1.61c0.16-4.01-6.29-14.69-14.83-21.43c0,0-7.38-4.71-17.68-13.06c1.9-0.97,2.02-3,3.3-3.6
		c30.91,25.39,29.48,27.8,44.01,35.37c6.45,3.36,15.15,7.69,18.4,0.93c-1.55-2.57-4.33-4.32-5.77-7.2
		C271.68,158.21,276.9,160.14,280.06,164.82z M205.39,92.63c4.2,7.11,0.06,6.66,2.02,7.45c0.61,0.25,1.23-0.11-1.19,2.31
		C204.54,102.4,206.26,99.47,205.39,92.63z M200.04,64.05c0.37,0.37,0.21,0.9,0.21,1.34c-1.11,13.34,1.47,13.5,3.06,26.3
		C203.78,95.45,195.19,74.11,200.04,64.05z M201.79,94.28c-0.39-0.81-0.13-0.81,0-1.85C201.89,92.85,202.26,93.79,201.79,94.28z
		 M203.43,105.18c-0.25-0.25-0.35-0.5-0.36-0.78C203.07,104.12,203.43,102.16,203.43,105.18z M202.51,74.84
		c1.06,0.66,2.72,1.91,3.39,1.78c1.86-0.37-3-1.61-3.27-5.35c-0.11-1.46,3.36,3.77,8.82,3.77c-7.33-4.57-8.03-4.9-8.64-8.33
		c2.73,2.63,2.41,1.27,18.4,6.07c-2.24,2.55-3.03-2.23-7.71,1.55c-3.73,3.01-1.34,4.97-3.91,8.64c0.59,3.43,4.83,7.74,3.02,6.89
		c-1.59-0.75-6.46-3.62-5.36-4.19c0.73-0.38,1.05,0.51,1.92-0.13C205.48,82.06,202.96,79.84,202.51,74.84z M217.72,65.7
		c2.88,1.03,6.07,1.03,8.43,3.29c2.78-0.21,5.45-0.31,8.43-1.13c-0.97,2.55-5.46,1.59-9.46,2.98c-2.36,0.82-4.31,0.5-6.37-0.21
		c-3.69-1.26-7.3-2.47-10.59-4.11c-0.79,0.19-0.13,1.03-1.12,1.12c-1.23-1.03-2.98-1.64-4.01-3.39c0.63-1.6,0.28-3.35,1.54-5.04
		c5.33,4.34,11.14,7.55,18.18,10.13C224.97,70.15,218.64,67.06,217.72,65.7z M230.58,63.23c0.41-0.51,0.93-0.41,1.75-0.1
		C231.6,63.64,231.09,63.54,230.58,63.23z M233.97,63.85c3.7-1.75,3.7-1.75,5.86-1.44C237.97,64.27,236.8,64.56,233.97,63.85z
		 M226.47,75.46c-0.74,0.52-1.35,0.42-2.16,0C225.03,75.46,225.65,75.46,226.47,75.46z M213.28,90.51c0.44,0.77,1.36,1.48,1.16,2.65
		c-3.62-1.21-4.3-1.05-5.36-3.51C212.13,91,212.3,91.48,213.28,90.51z M208.37,101.99c2.06,4.12,1.71,18.3-1.16,22.99
		c-0.86,1.15-0.48-12.56-1.32-17.03C205.47,105.7,206.31,103.64,208.37,101.99z M248.16,139.52c-1.65-0.62-2.36-1.13-3.19-2.36
		C246.51,137.56,247.23,138.18,248.16,139.52z M258.75,55.11c3.29,2.3,1.8-0.55,5.96,16.86c0,1.08-2.52,2.12-3.08,3.08
		c-1.44,5.76,1.85,10.38,4.11,15.11c-1.95,1.44-1.95,1.65-3.19,1.13c-1.75-0.62-2.67,0.1-3.5,1.34c0.55,0.96,1.76,0.02,2.36,1.13
		c-0.77,1.54,0.23,2.61,0.82,4.01c-2.06,3.29-5.45,0.51-8.23,1.75c1.57,1.83,3.73,1.55,5.76,1.34c0.49,0.58,1.24,0.9,1.47,1.62
		c0.51,1.59-1.72,1.41-1.98,3.62c5.92,12.58-19.59,3.29-18.97,5.77c0.44,0.64,1.41,0.86,1.49,1.63c-4.8,20.06,0.52,22.1,0.52,24.27
		c15.6,10.88,28.61,24.77,27.97,24.77c-3-0.03-3.73-2.78-5.87-3.5c-0.12,1.41,1.94,1.8,1.63,3.39
		c-12.05,0.63-40.97-28.83-55.72-39.89c0.72-3.08,1.34-5.96,2.06-9.15c1.34-1.03,2.57-2.67,2.67-5.14
		c3.74,3.16,4.32,6.86,3.08,11.52c3.97-5.95-0.14-9.58-2.47-12.54c-7.97-10.18-0.31-5.35-0.31-10.59c-1.95,0.72-3.5-0.51-5.14-1.34
		c-0.21,0.82,0.72,1.44-0.21,1.95c-1.46-1.46-1.79-3.62-2.16-5.65c2.36,1.95,4.83,2.57,7.3,3.19c1.03,1.03,1.23,2.67,2.57,3.5
		c3.57-0.25,4.73-0.06,4.32-3.39c-1.59,0.18-1.11,3.09-4.09-0.27c-2.28-2.57-5.33-7.32-6.6-10.43c0-0.1,0.21-0.41,0.41-0.72
		c0.19,0.05,2.39,0.74,2.34,0.99c-0.36,3.15,2.05,6.98,4.53,4.77c-0.54-1.25-1.44-2.46-1.89-3.67c0-1.87-1.8-1.36,2.2-5.37
		c2.57,2.57-1.13,2.49-0.25,4.72c1.38,3.51,0.8,4.24,2.1,4.63c1.05-0.52,2.38-1.7,1.92-2.75c-0.5-1.13-1.83-1.27-2.33-2.28
		c1.63-3.46,1.06-6.06-4.63-8.33c-1.36,0.98-1.81,2.29-3.5,5.65c-0.62-2.78,0.7-4.65,2.36-6.27c2.03-1.98,3.68-1.84,5.35,0.62
		c2.81,4.14,5.48,5.99,8.51,2.22c0.85-1.05-2.14,1.27-4.3-0.16c5.14-1.44,8.84-4.93,12.95-7.3c0.51-0.82-0.62-1.14,0.1-2.06
		c0.82-1.03,2.13-1.86,2.47-2.88c0.78-2.37,2.58-6.12,2.16-9.05c-2.18,0.16-4.74,1.35-4.74-0.82c-1.26,0.83-2.08,0.87-2.78-0.62
		c1.67,0,1.57-0.08,2.19,0.12c0.49,0.23,0.38,0.43,0.59,0.38c3.95-0.41,4.33-2.52,9.36,0.22c1.28-0.28,1.71-0.81,2.26-1.64
		c-6.35-5.01-10.26-4.45-11.62-6.89c6.07,1.54,11.21,5.14,16.24,8.84C255.05,55.21,257.1,56.03,258.75,55.11z M212.69,106.62
		c0.84,1.26,1.17,1.7,0.69,2.79C212.46,111.48,212.69,111.42,212.69,106.62z M214.64,82.56c1.23-3.6,1.23-3.6,3.5-3.29
		C217,80.71,216.08,81.63,214.64,82.56z M246.92,48.41c0.87,0.08,1.22,0.45,1.78,1.14C247.86,49.63,247.21,49.47,246.92,48.41z
		 M254.33,54.7c-1.67-0.42-5.19-4.84-5.29-4.95C251.43,50.53,252.73,52.51,254.33,54.7z M250.01,46.37
		c-2.78-0.72-4.22-1.95-5.76-2.98C246.2,43.8,248.16,44,250.01,46.37z M240.75,43.59c-0.75,0.28-1.38,0.06-2.09-0.32
		C238.56,43.17,240.05,42.77,240.75,43.59z M226.75,41.15c4.23-0.23,10.25,0.81,11.47,1.98C224.09,40.92,222.11,41.4,226.75,41.15z
		 M231.19,44.42c-0.87-0.22-1.03,0.02-1.03-0.19c0-0.22,0.72-0.09,0.93-0.04C231.22,44.22,231.19,44.16,231.19,44.42z M223.27,43.28
		c-0.75,0.36-0.88,0.21-0.31,0.66c1.68,1.31-8.97,0.31,9.88,2.22c2.03,0.21,3.41,0.46,3.5,2.68c-6.89,0.72-12.85-2.67-19.64-3.7
		C221.03,41.31,225.6,42.17,223.27,43.28z M206.93,53.87c0.78-0.19,1.39,0.07,2.06,0.51c-0.2-0.88-1.41-1.12-1.61-2.4
		c-0.05-0.29,4.33-4.1,7.06-5.32c23.6,4.1,22.43,4.5,22.22,4.9c-0.56,1.07-3.34-0.27,2.05,2.19c-1.85,0.82-5.66-1.34-6.48-0.93
		c-4.41,2.21-18.63-7.49-20.67-2.26c1.09,2.17,2.39,0.4,3.6,0.82c4.09,1.42,17.54,4.09,17.08,5.41c-0.16,0.16-1.66,0.3-1.66,2.41
		c1.28,0,5.94,0.97,9.87-0.93c0.49,0.98,0.13,1.69-0.51,2.57c-5.31-2.38-8.96,3.76-20.05-1.13c-4.78-2.11-10.85-6.46-9.71-5.01
		c1.66,2.1,3.1,3.91,5.7,4.6c1.02,0.17,0.98,1.41,13.67,5.04c-12.44,4.15-28.09-6.78-23.75-8.23c2.06,1.23,4.2,2.69,6.37,3.91
		c3.38,1.89,6.92,2.23,7.61,2.57C218.93,60.08,209.69,59.41,206.93,53.87z M205.49,50.07c0,1.17-0.47,1.89-1.23,2.48
		c-0.6,0.46-0.46-3.22-6.99-2.62c-1.08,0.1-1.44,0.2-2.99,0.37C197.88,48.14,201.61,49.34,205.49,50.07z M195.72,105.38
		c-0.35-2.84-0.08-6.71-0.82-8.94c-0.29,12.02-1.96,22.51-2.88,25.81c0-12.27,3.61-14.85-1.03-42.67c-0.93,2.06,0.31,3.29-0.1,4.52
		c-0.41,0.16-0.59-0.46-0.98-0.46c-0.55-0.01,2.59,11.15,1.53,18.71c-0.11,0.77-1.48-6.33-3.33-12.29
		c-0.51-1.65,0.21-3.29-0.41-4.94c-1.36-3.62-3.68-12.71-3.39-18.51c0.35-6.89,5.24-12.85,11.52-13.98c4.79-0.57,2.37,1.09,8.32,0.1
		c-0.37,3.54-6.73,4.42-8.11,14.81C192.77,92.03,199.1,97.49,195.72,105.38z M196.34,133.22c-0.85,0.28,4.89-8.74,4.83-18.48
		c-0.01-1.53-2.02,8.9-4.72,13.23c-0.4,0.4,1.95-15.1,2.05-21.67c0.15-10.52-1.05-12.51-1.83-21.42
		c-0.02-0.11,7.97,27.25,5.84,37.56c-0.51,2.49,0.91,4.78,2.67,6.58C204.63,129.3,201.23,132.38,196.34,133.22z M234.58,548.22
		c0.73-0.18-1.22,0.96,2.99,5.74c-7.84,2.9-10.01,3.3-10.12,5.33c-0.15,2.93,4.29-0.39,9.94-0.39c1.53-0.11,2.97-1.22,5.21-0.31
		c-4.61,2.05-8.33,1.71-10.78,5.03c0.56,0,1.27,1.06,3.29,0.51c8.09-2.18,11-3.71,11-1.34c-2.91,1.11-8.68,1.11-10.08,3.91
		c0.31,1.13,0.62,1.63,1.34,1.65c4.01,0.1,7.71-1.34,11.41-2.78c0.17,0,2.26,3.51,2.36,3.51c0.43,0.09,0.85,0.38,1.09,1.04
		c0.23,0.64-2.89,1.66-4.07,2.78c-0.41,0.39-0.72,0.85-0.93,1.34c3.39,1.34,5.24-1.23,7.3-2.47c1.44,0.31,2.16,1.54,3.29,1.95
		c0.21-0.31,0.51-0.62,0.93-1.13c11.65,7.51,14.09,8.32,14.09,8.45c0,2.05,0.62,4.09-0.31,6.05c-2.16,0.21-4.63,0.31-5.76,2.06
		c-1.65,2.57-4.22,3.29-6.48,4.83c2.88-0.72,5.99-0.49,8.33-2.78c1.04-1.02,2.47-1.23,4.22-1.44c-1.75,2.67-4.11,3.5-6.58,4.22
		c-1.57,0-19.9,8.34-32.59,0.51c-4.36-2.18-9.89-7.81-12.11-14.74c-0.12-0.24-1.83-1.22-3.55-1.29c-1.84-0.07-2.36,0.65-4.22,0.6
		c-3.03-0.09-5.47-2.24-9.62-3.28c-1.14-0.28-2.26-0.93-2.78-2.47c1.65-2.57,2.67-5.55,3.19-8.64c0.72-2.9,6.37-9.58,6.37-16.97
		c0.55-1.1,1.48,0.02,1.65,1.34c-3.54,7.08-0.52,10.82,4.42,10.9c5.18,0.08,8.02,1.09,8.02-5.13c0.15,0-0.23-2.55,1.23-4.43
		c1.88-2.42,5.86-5.03,5.86-4.92c0.9,1.51,0.53,3.22,1.1,4.64C233.48,550.79,233.31,548.39,234.58,548.22z M245.18,386.78
		c1.29,10.39,1.44,20.77,1.23,31.26c-0.04,0.43-14.91,54.61-14.91,74.03c0,15.48-2.08,23.52-0.62,38.14
		c1.38,13.73,2.05,10.27-3.91,15.11c-8.25,6.69-4.25,11.05-5.64,12.43c-0.25,0.24-1.51-0.11-6.69-0.61
		c-0.93-1.03-1.44-2.16-1.13-3.19c0.83-2.77,0.03-5.75,1.03-8.53c1.17-3.28,1.04-6.79,0.21-10.08c-11.39-44.67-7.79-18.38-11-51.3
		c-2.89-29.58,12.53-42.65,2.78-67.24c-4.09-10.3-12.51-36.73-14.5-50.89c21.93-12.22,35.57-14.5,51.61-14.5
		c0,8.04,1.29,24.66,1.54,27.76C245.38,381.74,244.86,384.21,245.18,386.78z M263.27,335.68c0.28,1.34,0.62,2.78,0.1,4.52
		c-1.44-0.1-2.97-0.28-4.22,0.41c-3.62,2.02-8.99-0.47-13.88,4.01c-0.87-0.22-0.77-1.46-1.3-1.94c-1.55-1.44-0.85,3.3-0.97,6.25
		c-34.98,1.18-50.99,15.46-51.37,13.9c-0.39-1.61,0.02-3.47-0.44-3.55c-0.52-0.08-0.55-0.17-1.81-1.32
		c-13.31-12.1-14.14-23.25-14.14-41.11c0-4.93,1.16-9.55,2.67-14.19c2.21-6.78,11.1-16.22,11.1-18.71
		c3.92,4.97,7.98,8.74,14.19,9.77c0.11,0.02,25.5,4.11,26.53,4.11c18.02,0,22.5,1.17,28-3.65c0.6-0.53,0.59,10.88,2.75,21.44
		C261.84,322.21,261.89,329.03,263.27,335.68z M262.86,265.57c0,9.28-2.72,6.47-3.39,15.73c-0.22,3.02-2.98,6.53-3.5,10.49
		c-5.71,5.53-14.18,2.32-18.61,2.88c-5.22,0.66-10.62-1.13-13.67-1.44c-0.41-1.82,0.4-3.42-0.72-4.83
		c-1.23,1.44-0.31,3.39-1.54,4.52c-11.67-1.94-25.58-3-30.02-9.15c0.21-1.23,0.41-2.57,0.62-3.8c0.43-1.29,6.13-5.38,9.05-22.31
		c3.04-17.63-2.45-7.05,12.75-13.67c15.89-6.92,17.6-7.6,24.06-11.82c21.74-14.22,21.13-14.24,22.62-14.19
		c1.81,2.42,9.97-2.64,11.93,2.16C268.73,234.89,262.86,237.84,262.86,265.57z M273.65,227.52c0.5-2.2,0.55-4.61,1.75-6.48
		c2.25,0.71,5.82,2.07,6.17,2.16C278.69,224.75,276.23,226.09,273.65,227.52z M312.11,203.76c-5.15,3.29-12.59,6.9-16.55,12.35
		c-0.82-1.34-1.54-2.26-2.16-3.29c2.06-1.13,2.78-2.78,2.57-4.83c-2.68-2.52-8.4-5.57-11.62-4.22c3.19,1.95,6.79,2.78,9.66,4.73
		c-0.33,2.16-1.66,3.17-3.29,1.95c-4.33-3.24-9.64-4.42-15.01-4.83c-1.34-0.1-2.98-0.41-3.7,1.43c8.19-0.34,15.44,2.68,21.28,9.67
		c-0.82,1.23-0.41,2.67-1.34,3.6c-3.39,1.54-3.7,1.84-8.74,0.41c-6.53-1.84-11.71-3.94-13.98-10.38c-1.45,1.98-0.39,3.57-0.31,5.45
		c-3.02,0.1-5.55,0.97-8.28,2.09c2.25-3.01,6.98-2.26,7.23-4.7c0.09-0.93-5.05,0.95-6.25,1.47c-13.39,5.84-27.24,17.35-35.16,20.56
		c-16.16,6.55-16.5,7.86-22.1,8.23c-4.13,0.27-8.69,1.37-11.62,2.67c-5.36-5.36-6.6-7.07-7.09-16.45
		c-0.01-0.11-3.14-30.33,0.31-46.37c3.29-15.3-2.03-22.26,3.39-31.46c1.08-1.83,12.35-14.74,16.45-21.18
		c3.88,3.15,8.74,7.67,13.67,11.1c4.39,3.05,15.54,14.14,16.35,19.23c1.19,7.51,0.9,17.54-6.33,19.9c-2.4,0.78,2.17-2.29,2.17-8.39
		c0-3.96-1.08,3.5-6.04,7.46c-0.95,0.76-0.11-1.42-2.04-1.81c-1.03,5.24-1.51,10.81-3.19,16.04c-1.72,5.36-4.83,9.97-6.37,15.42
		c-4.91,5.42-8.59,0.97-12.34,5.96c3.87-1.21,8.01-1.23,11.82-2.88c0.51-0.31,1.03-0.51,1.65-0.62c18.58-1.77,15.47,0.17,33.41-8.64
		c5.86-2.88,12.4-4.07,18.2-7.3c9.6-5.35,9.31-8.65,12.85-10.18c4.37-1.88,7.98-2.93,11.62,0.41c1.06,0.79,4.31,0.94,8.12,5.65
		c0.21,1.23-0.93,2.26-0.1,3.5c1.39-1.28,3.89-1.52,5.55-2.57c1.83-1.16,3.5-2.47,5.55-3.08c1.43-3.33,4.27-3.92,5.35-10.28
		c0.28-1.65,1.75-2.16,3.39-2.47c5.44,13.59,1.54,8.22,3.08,14.39c0.5,1.5,1.13-1.84,1.67-0.3c0.5,1.43-0.26,3.01,0.9,4
		c-1.88,6.12,0.2,1.59-5.14,5.86C315.5,201.61,315.49,201.6,312.11,203.76z M326.6,201.41c2.43,3.4-2.36,2.92,5.04,5.04
		c2.06-1.03,4.32-1.43,6.27-2.88c2.96-2.2,1.41-8.6,4.5-4.4c3.05,4.14-9.63,14.98-20.23,5.94c-0.79-0.67-1.3-1.16-1.03-2.26
		c4.02-4.52,4.76,0.94,17.89-9.56C339.05,202.64,331.29,200.33,326.6,201.41z M337.4,202.34c-3.08,1.23-5.45,2.36-8.43,1.65
		C330.41,202.95,333.18,202.34,337.4,202.34z M332.98,195.24c1.65-2.47,2.57-5.45,5.55-7.51
		C338.74,192.26,335.75,193.7,332.98,195.24z M338.43,185.06c-9.87,10.69-2.92,6.92-11.1,10.8c2.07-4.14,4.95-5.73,6.07-9.15
		c0.19-2.4-1.03-3.54-1.03-8.33C335.03,180.33,336.88,182.49,338.43,185.06z M334.01,174.47c-0.1,1.44-1.13,2.16-2.06,2.98
		c-0.93-0.93-1.03-1.95-1.13-2.98C332.08,174.37,332.97,173.34,334.01,174.47z M319,153.5c0.66-0.09,1.32-0.08,1.89,0.39
		C320.23,153.84,319.57,153.97,319,153.5z M323,156.18c-2-2-1.71-1.34-1.91-2.16C322.56,153.93,323.19,154.49,323,156.18z
		 M320.33,150.21c2.47-6.48,4.93-12.75,7.4-18.92C327.22,140.96,324.55,147.74,320.33,150.21z M322.8,138.08
		c0.72-5.86,3.29-11.1,6.79-15.94C327.94,127.8,324.86,132.73,322.8,138.08z M332.67,114.33c0,1.95-0.62,3.29-2.88,3.91
		C329.69,116.08,330.72,114.84,332.67,114.33z"/> <path d="M601.42,308.75c1.35,2.69,6.4,1.49,6.68,8.23c2.26-2.47,2.28-3.92,0.51-6.07C606.58,308.42,603.68,307.51,601.42,308.75z"/> <path d="M600.19,225.67c-4.42,5.45-9.87,9.97-14.19,16.45C590.22,239.55,599.57,228.66,600.19,225.67z"/> <path d="M602.66,220.53c-0.51,6.07-1.03,12.23-2.06,18.3C602.96,232.87,603.68,226.81,602.66,220.53z"/> <path d="M544.16,247.16c-1.75,0.21-1.35,1.34-1.34,2.26c0.05,3.19,1.65,5.96,4.73,8.23C546.21,254.26,544.57,250.86,544.16,247.16z
		"/> <path d="M597.72,258.88c0.21-4.94,0.51-9.87,0.82-14.81C596.9,248.91,596.18,253.84,597.72,258.88z"/> <path d="M573.87,337.02c-0.11-0.92-0.82-1.03-2.98-1.13c0.21,1.34,1.75,1.44,2.57,2.67c0.31,1.44,0.31,3.19,2.06,4.11
		c0.82,0.51,1.54,0.62,2.67-0.62C576.23,340.62,574.17,339.59,573.87,337.02z"/> <path d="M540.04,139.31c3.5,1.03,6.48,0.51,9.66,0.21C547.86,138.28,543.64,138.18,540.04,139.31z"/> <path d="M562.25,179c-2.57,2.06-3.5,5.14-5.65,7.51C559.58,184.75,561.53,182.29,562.25,179z"/> <path d="M596.38,272.45c1.85-3.7,1.95-3.7,1.54-5.35C595.15,268.24,594.95,268.96,596.38,272.45z"/> <path d="M586.72,244.49c-2.06,2.06-3.8,3.8-5.45,5.45C583.64,248.91,585.69,247.57,586.72,244.49z"/> <path d="M311.08,164.5c2.78,0.72,4.83-0.21,6.99-1.03C315.81,162.65,313.55,162.14,311.08,164.5z"/> <path d="M552.59,325.2c1.64-0.21,3.6,1.44,5.55-0.51C555.77,323.14,554.33,324.79,552.59,325.2z"/> <path d="M546.83,258.68c-0.62,1.85-0.31,2.98,0.93,3.91C548.17,261.25,547.96,260.22,546.83,258.68z"/> <path d="M547.55,264.54c-0.31,1.23,0.31,1.85,0.93,2.57C548.78,266.08,548.78,265.26,547.55,264.54z"/> <path d="M566.88,342.88c0.41,1.64,0.82,2.36,1.85,2.06C569.24,343.5,568.01,343.6,566.88,342.88z"/> <path d="M567.7,332.39c0.41,1.23,0.93,1.54,1.54,1.54C570.06,332.29,568.83,332.81,567.7,332.39z"/> <path d="M619.62,580.38c-0.21,0.1-0.21,0.41-0.31,0.82C621.66,580.97,620.84,579.16,619.62,580.38z"/> <path d="M280.85,581c0.82,0.31,1.23-0.1,1.34-0.93C281.37,579.76,280.95,580.17,280.85,581z"/> <path d="M578.39,333.73c-0.51,0.93,0,1.03,0.72,1.44C579.32,334.04,578.91,333.94,578.39,333.73z"/> <path d="M550.32,191.23c0.51,0.62,0.82,0.21,1.13-0.1C552.34,190.25,550.32,189.64,550.32,191.23z"/> <path d="M554.33,187.84c-0.82-0.31-1.23-0.1-1.13,1.23C553.92,188.76,554.54,188.56,554.33,187.84z"/> <path d="M564,339.8c0.1,0.72,0.51,1.03,1.23,1.44C565.54,340,565.33,339.49,564,339.8z"/> <path d="M571.91,426.47c0.1-0.1,0.57-0.92,2.88-4.52c0-0.5-0.31-1.08-0.93-1.34c-4.62,3.16-3.63,8.2-0.82,13.06
		C574.87,430.63,572.65,428.87,571.91,426.47z"/> <path d="M559.17,555.6c0-2.24-1.91-1.78-2.96-2.86c-0.76-0.79,0.64-3.38-1.46-4.75c-0.31,1.95-0.51,3.7-0.82,5.35
		C555.16,555.4,557.21,555.09,559.17,555.6z"/> <path d="M550.54,433.15c0.01,0.5,4.12-3.46,0.92-9.87C551,426.12,550.47,430.08,550.54,433.15z"/> <path d="M554.75,546.45c1.39-2.05,2-4.01,1.23-6.37C555.16,541.93,554.54,543.78,554.75,546.45z"/> <path d="M555.67,531.13c-1.13,2.36-1.13,2.36-0.31,5.35C556.29,534.42,555.98,532.78,555.67,531.13z"/> <path d="M551.15,460.5c-0.37,1.69-0.43,3.78-0.02,5.88c0.24,1.24,0.15,3.26,0.95-5.77c0-0.03,0.01-0.07,0.01-0.1
		C551.76,460.6,551.46,460.6,551.15,460.5z"/> <path d="M555.57,523.21c-1.64,1.54-0.82,3.08-0.62,4.42C556.08,526.4,555.98,524.96,555.57,523.21z"/> <path d="M573.15,445.28c0.21-1.37-0.14-2.4-1.13-3.39C571.81,443.53,571.81,443.53,573.15,445.28z"/> <path d="M550.53,479.11c0-1.54,1.34-3.19-0.31-4.93C549.49,476.03,550.63,477.55,550.53,479.11z"/> <path d="M551.48,423.06c0.28,0.42,0.61-2.98-0.33-4.62C550.64,420.22,550.33,421.63,551.48,423.06z"/> <path d="M556.18,518.28c-1.34,1.03-0.82,2.16-0.82,3.91C556.49,520.64,555.98,519.41,556.18,518.28z"/> <path d="M550.79,412.27c0.05-0.62-0.11-1.3-0.15-2.15C549.64,412.44,550.6,414.4,550.79,412.27z"/> <path d="M572.43,435.72c-0.51,0.72-0.41,1.44,0.1,2.26C572.84,437.16,573.15,436.44,572.43,435.72z"/> <path d="M562.56,97.06c-3.85,9.6,12.45,10.92,13.56,12.03c-3.9-3.6-8.63-3.91-11.92-6.99C563.38,100.45,563.69,98.6,562.56,97.06z"/> <path d="M587.23,78.75c0.69,1.3,1.56,0.99,2.73,0.99c1.09,0-0.02,2.26,3.74,2.1c-0.38-3.8,2.98-4.83,2.58-4.97
		C592.54,75.31,590.2,77.74,587.23,78.75z"/> <path d="M585.49,74.23c2.06,0.41,3.5-1.03,5.65-1.13c1.57,0.12,5.19,2.97,7.03,2.08C599.1,74.73,591.84,67.84,585.49,74.23z"/> <path d="M564.41,106.93c0.72,2.36,1.34,4.94,3.29,7.51C566.98,111.35,566.77,108.67,564.41,106.93z"/> <path d="M569.65,116.59c-0.62,0.72-0.31,1.13,0.21,1.44C570.89,117.31,569.76,117,569.65,116.59z"/> <path d="M558.96,123.48c0.09,1.02,0.85,2.12,1.09,1.47C560.27,124.36,559.5,124.19,558.96,123.48z"/> <path d="M583.43,200.19c2.59,2.41,4.19,0.32,9.05,1.03c11.92,1.74,15.54-2.49,18.1-7.61c0.83-1.65-0.21-3.4-0.31-4.95
		C605.17,201.16,595.8,196.75,583.43,200.19z"/> <path d="M555.98,567.53c-0.33,0.82-0.51,1.64-0.82,2.47c1.68,1.78,2.92,2.67,4.13,2.64c1.5-0.04,3.61-2.28,3.99-3.05
		C563.28,563.05,557.7,563.24,555.98,567.53z M561.64,568.81c-0.65,2.49-3.3,2.75-3.29,1.62c0.01-0.51,0.57-0.93,0.4-1.98
		c-3,0,0.67-3.18,2.26-1.85C561.66,567.14,561.87,567.96,561.64,568.81z"/> <path d="M569.55,568.56c-2.38-2.19-3.95-0.86-6.27,1.13c0,1.38-0.88,5.57,3.21,5.84C569.5,575.73,572.21,571,569.55,568.56z
		 M566.47,574c-3.25-0.27-1.94-5.34,0.72-4.93C569.79,569.07,569.37,574,566.47,574z"/> <path d="M572.63,571.13c-1.17,0.54-1.79,1.72-1.13,3.7c-0.1,1.03-1.75,0.93-1.64,2.06c1.44,1.13,2.36-1.23,3.7-0.41
		c1.02,0.72-0.8,1.84,0.6,2.66c0.85,0,2.86-4.99,3.93-6.57C576.03,571.64,574.6,570.22,572.63,571.13z M573.05,572.87
		c0.82-0.62,1.64-0.31,2.47,0.21C576.08,576.03,572.29,575,573.05,572.87z"/> <path d="M530.17,71.03c0-6.79,1.54-12.34,6.07-16.66C530.76,57.3,527.83,64.89,530.17,71.03z"/> <path d="M555.98,56.14c0.37-0.92-0.65-1.13-1.64-1.13C554.33,55.46,554.11,55.2,555.98,56.14z"/> <path d="M235.72,420.5c-4.93,2.74-4.39,8.17-1.13,12.95c1.75-2.67-0.41-4.52-1.13-6.89C233.76,424.41,236.74,423.28,235.72,420.5z"/> <path d="M217.77,552.68c-0.98-0.89,0.38-2.91-1.27-4.59c-0.5-0.51-0.71,2.36-0.72,2.47c-0.2,1.66-0.63,2.8-0.39,2.98
		c1.6,1.54,3.22,1.75,5.12,1.75C220.6,553.32,218.84,553.65,217.77,552.68z"/> <path d="M211.98,433.15c0.01,0.5,4.12-3.45,0.92-9.87C212.41,426.27,211.91,430.12,211.98,433.15z"/> <path d="M217.42,539.97c-0.8,1.87-1.45,3.79-0.93,5.76C217.52,543.88,218.14,542.03,217.42,539.97z"/> <path d="M212.79,467.59c0.21-2.26,0.51-4.63,0.72-6.99C211.82,462.68,212.24,464.96,212.79,467.59z"/> <path d="M217.11,530.51c-1.13,2.06-1.44,3.7-0.31,5.45C217.62,534.32,217.62,532.78,217.11,530.51z"/> <path d="M216.9,523.63c-1.13,1.34-1.13,2.67-0.31,4.63C217.72,526.4,217.31,524.96,216.9,523.63z"/> <path d="M232.94,441.79c0,1.54,0.51,2.57,1.75,3.7C234.59,443.74,234.48,442.61,232.94,441.79z"/> <path d="M212.07,479.21c0.1-1.56,1.02-3.06,0-4.73C211.45,475.72,211.45,475.72,212.07,479.21z"/> <path d="M218.03,517.87c-1.37,1.78-1.32,1.76-0.82,3.91C217.93,520.59,217.51,519.54,218.03,517.87z"/> <path d="M212.98,423.16c0.1,0.1,0.6-2.97-0.4-4.71C212.14,420.05,211.71,421.88,212.98,423.16z"/> <path d="M211.86,410.63c-0.41,0.82-0.31,1.65,0.1,2.67C212.28,412.28,212.48,411.46,211.86,410.63z"/> <path d="M233.87,435.72c-0.5,0.68-0.41,1.53,0,2.26C234.28,437.16,234.59,436.44,233.87,435.72z"/> <path d="M297.65,197.83c1.05,0.54,0.28,2.24-0.66,3.18c-6.17-2.17-15.28-6.92-8.92-2.08c2.41,1.83,5.65,2.5,7.78,3.72
		c0.74,1.26-0.89,2.49,0.07,3.1c0.5,0.32,1.19,0.33,1.37-0.23c0.85-2.66,2.36-5.04,2.67-8.12c-3.44-3.29-8.54-4.24-12.22-7.31
		C287.74,192.41,289.22,193.5,297.65,197.83z"/> <path d="M289.18,220.02c2.88-4.8-7.89-9.63-14.5-11c-0.51-0.11-0.51-0.1-2.57,1.13C276.88,211.74,284.45,213,289.18,220.02z"/> <path d="M211.56,138.9c-3.2-0.59-6.24-0.44-9.46,0C204.93,140.25,208.63,139.98,211.56,138.9z"/> <path d="M260.02,213.48c-1.35,0-2.68,0.43-4.26,1.9c0.21,0.21,0.31,0.51,0.51,0.62C261.12,213.23,261.46,213.48,260.02,213.48z"/> <path d="M317.45,196.37c1.54,0,3.19,0.31,4.42-1.23C319.92,194.52,318.69,195.86,317.45,196.37z"/> <path d="M263.58,212c1.86,0.67,3.32-0.03,4.31-1.74C266.05,209.94,265.02,211.38,263.58,212z"/> <path d="M309.64,201.31c1.99-0.4,3.09-1.01,3.91-2.98C311.39,198.33,310.98,199.77,309.64,201.31z"/> <path d="M276.53,214.26c0.72,1.75,2.36,1.85,3.91,2.26C279.72,214.98,278.18,214.57,276.53,214.26z"/> <path d="M193.15,155.87c-1.23,1.03-1.23,2.47-0.93,4.22C193.43,158.78,193.06,157.41,193.15,155.87z"/> <path d="M279.72,187.53c1.96,0.99,3.19,0.36,5.04-0.51C282.7,186.19,281.47,186.71,279.72,187.53z"/> <path d="M313.44,196.99c-0.41-1.75-1.34-2.78-2.26-4.11C311.1,194.97,310.98,194.95,313.44,196.99z"/> <path d="M270.06,210.05c1.5-0.71,2.09-1.66,2.26-2.67C271.45,206.83,269.45,207.32,270.06,210.05z"/> <path d="M279.31,193.29c2.06,0,2.78-1.03,4.22-1.85C281.36,190.94,280.77,192.14,279.31,193.29z"/> <path d="M192.51,168.27c0.01,0.53,0.33,1.08,0.84,1.78C193.93,167.74,192.48,166.38,192.51,168.27z"/> <path d="M252.37,217.24c1.23,0.31,1.54-0.41,1.95-0.93C253.35,215.65,252.99,216.27,252.37,217.24z"/> <path d="M194.59,171.7c-0.82,0.71,0.19,1.03,0.41,2.15C195.26,172.97,195.38,172.15,194.59,171.7z"/> <path d="M243.74,340c1.44-1.95,1.44-3.7,1.85-5.45C243.94,335.89,243.63,337.53,243.74,340z"/> <path d="M248.99,329.22c1.64-1.09,2.58-2.43,3.28-4.33C250.47,326.14,249.94,326.54,248.99,329.22z"/> <path d="M244.04,331.78c-0.32,0.53-0.4,1.15,0,1.64C244.4,332.83,244.53,332.25,244.04,331.78z"/> <path d="M248.47,242.02c4.56-5.54,14.97-14.64,13.26-16.35C259,228.4,249.3,237.86,248.47,242.02z"/> <path d="M261.93,238.94c2.57-5.86,3.6-14.09,1.75-18.51C263.38,229.56,263.66,227.91,261.93,238.94z"/> <path d="M259.16,258.88c0.31-4.94,0.41-9.87,0.93-14.7C258.29,249.07,257.75,253.92,259.16,258.88z"/> <path d="M258.03,272.35c0.1-1.85,2.26-3.08,1.65-5.24C256.69,267.93,256.49,268.75,258.03,272.35z"/> <path d="M242.71,249.84c2.36-0.93,4.42-2.26,5.55-5.55C246,246.55,244.35,248.19,242.71,249.84z"/> <path d="M222.97,283.56c0.74-0.94,0.57-1.83,0-2.88C222.51,281.68,222.31,282.68,222.97,283.56z"/> <path d="M223.88,97.35c-1.5,0.27-0.85,5.85,3.09,7.93c2.69,1.41,9.78,3.4,9.67,3.3c-3.16-3.12-7.85-3.43-11.01-6.49
		C224.53,99.88,225.11,97.35,223.88,97.35z"/> <path d="M248.67,78.86c0.91,1.52,2.1,0.75,3.08,0.93c0.51,1.54,1.54,2.26,3.39,1.95c0.1-1.85,0.21-3.8,3.29-4.63
		C253.98,75.29,251.88,77.64,248.67,78.86z"/> <path d="M247.03,74.33c2.06,0.21,3.5-1.23,5.65-1.23c2.26,0.72,4.32,2.16,6.89,2.57C258.02,70.95,250.74,70.31,247.03,74.33z"/> <path d="M225.44,106.21c0.82,3.19,1.95,5.45,3.39,7.61C228.24,110.9,228.13,108.49,225.44,106.21z"/> <path d="M231.09,116.49c-1.27,0.43,0.44,2.28,0.67,0.98C231.83,117.04,231.49,116.73,231.09,116.49z"/> <path d="M220.6,123.79c0,1.03,0.52,1.24,0.82,1.54C221.82,124.5,221.27,124.34,220.6,123.79z"/> <path d="M216.7,569.07c-0.33,0.82-0.51,1.64-0.82,2.47c1.68,1.78,2.92,2.67,4.13,2.64c1.56-0.04,3.65-2.38,3.99-3.05
		C224,564.6,218.42,564.78,216.7,569.07z M218.99,572.08c-0.1-0.1-0.02,0.11,0.56-1.59c0.32-0.95-1.64-0.3-1.2-1.62
		c1.85-2.54,4.08-0.93,4.1,0.67C222.47,571.09,220.48,573.55,218.99,572.08z"/> <path d="M227.2,577.07c3.01,0.2,5.72-4.52,3.06-6.97c-2.35-2.16-3.91-0.89-6.27,1.13C224,572.41,223.14,576.8,227.2,577.07z
		 M229.66,572.81c-0.16,2.93-4.06,3.71-4.33,0.78C225.33,570.04,229.84,569.51,229.66,572.81z"/> <path d="M230.58,578.22c1.37,1.37,2.3-0.74,3.55-0.36c1.25,0.25-0.55,1.98,1.1,2.79c0.15,0.05-0.36,0.82,3.48-6.54
		c-2.01-0.95-3.38-2.56-5.45-1.44c-1.54,0.72-1.54,2.26-1.03,3.7C232.02,577.29,230.68,577.19,230.58,578.22z M233.66,574.31
		c1.93-1.16,3.88,0.65,1.66,2.15C234.29,576.02,233.25,575.75,233.66,574.31z"/> <path d="M244.87,572.26c2.29-0.44,4.86-1.33,6.17-3.29c-3.29-0.51-6.27,0.31-9.46,1.44C242.3,572.36,243.42,572.54,244.87,572.26z"/> <path d="M191.61,71.04c0-6.79,1.54-12.34,6.07-16.66C192.23,57.37,189.25,64.87,191.61,71.04z"/> <path d="M218.03,56.34c-0.93-1.13-1.44-1.44-2.36-1.34C216.08,55.72,216.8,55.72,218.03,56.34z"/> </g> </svg> 